# Original object name hint: convex_6
v 0.03856 -0.07980 0.03324
v -0.04920 -0.06916 -0.04655
v -0.05186 -0.07182 -0.04389
v -0.05186 -0.05054 0.00398
v 0.04919 -0.05054 -0.02793
v 0.03856 -0.08247 -0.03591
v -0.04654 -0.08247 0.01462
v 0.05986 -0.05054 0.02261
v -0.05718 -0.05054 -0.03857
v -0.04654 -0.07182 0.02793
v 0.02259 -0.05054 0.03059
v 0.03324 -0.05054 -0.04123
v 0.05986 -0.07182 0.00398
v -0.02792 -0.08513 -0.01462
v 0.03856 -0.08513 0.00132
v 0.04121 -0.07182 -0.04389
v 0.04388 -0.07448 0.03857
v -0.05985 -0.06385 -0.01462
v -0.03058 -0.08247 0.02527
v 0.05451 -0.07448 0.03324
v -0.00132 -0.07980 -0.04123
v 0.05986 -0.05054 -0.00665
v 0.02259 -0.07714 0.03857
v 0.04919 -0.07448 -0.03324
v 0.02792 -0.07448 -0.04655
v -0.04920 -0.06119 -0.04655
v -0.05186 -0.07714 -0.03059
v -0.03590 -0.08513 0.01196
v 0.02792 -0.06651 0.03857
v 0.05186 -0.07980 -0.00399
v -0.05452 -0.07448 0.00931
v -0.01728 -0.08247 -0.03324
v -0.05985 -0.05054 -0.01462
v 0.03589 -0.08247 0.02527
v -0.05718 -0.07182 -0.03324
v 0.02792 -0.06651 -0.04655
v 0.04388 -0.06916 0.03857
v -0.04920 -0.07714 0.02527
v -0.05452 -0.05054 -0.04123
v -0.04122 -0.08247 -0.01994
v -0.04654 -0.07714 -0.03857
v 0.04654 -0.06385 -0.03857
v 0.03589 -0.05054 0.03059
v 0.05986 -0.07182 0.01995
v 0.00132 -0.08513 -0.01729
v -0.05718 -0.06119 0.00132
v -0.05186 -0.07980 -0.00133
v 0.05718 -0.07182 -0.01197
v -0.05718 -0.06651 -0.04123
v -0.04388 -0.07182 -0.04655
v 0.01195 -0.08513 0.01196
v -0.04388 -0.07714 0.02793
v 0.04388 -0.08247 0.01462
v 0.03856 -0.07980 -0.04123
v 0.04654 -0.07980 -0.03059
v 0.03856 -0.08513 -0.00665
v -0.05985 -0.06119 -0.02793
v -0.03856 -0.08513 0.00132
v -0.05718 -0.07182 -0.00133
v 0.04654 -0.08247 -0.01197
v 0.05451 -0.06651 0.03324
v -0.04920 -0.07182 0.02527
v 0.04121 -0.06651 -0.04389
v -0.04654 -0.08247 -0.00399
v 0.03856 0.08513 0.03324
v -0.05452 0.06917 -0.04123
v -0.05718 0.05853 -0.03857
v 0.04654 0.05853 -0.03324
v 0.02526 0.05853 0.03590
v -0.04388 0.07980 0.03324
v 0.02526 0.08513 -0.03590
v -0.04122 0.08513 -0.02261
v 0.05986 0.07183 0.00664
v -0.05718 0.05853 -0.00398
v 0.05186 0.05853 0.02793
v -0.05718 0.07980 -0.03324
v 0.04121 0.07980 -0.03857
v -0.04122 0.08513 0.02527
v 0.03324 0.07980 0.04123
v 0.04919 0.08513 -0.00132
v -0.04388 0.07448 0.03324
v 0.05986 0.05853 -0.01196
v 0.03324 0.07183 -0.04123
v -0.05186 0.07980 -0.04123
v 0.05186 0.07980 0.03059
v -0.05985 0.07183 -0.01196
v 0.05718 0.07715 -0.01196
v -0.04920 0.05853 0.00398
v 0.00398 0.08513 0.03590
v 0.05986 0.05853 0.01462
v -0.05186 0.08247 0.00398
v 0.02259 0.07448 0.04123
v 0.04121 0.05853 -0.03590
v 0.03589 0.07980 -0.04123
v 0.04654 0.07980 -0.03324
v -0.03058 0.08513 -0.03324
v 0.04121 0.07183 0.03857
v -0.05985 0.05853 -0.03590
v -0.04654 0.07980 0.03059
v 0.03856 0.08513 -0.03059
v 0.05451 0.07980 0.02527
v 0.03856 0.05853 0.03590
v -0.05985 0.06119 -0.00931
v -0.05186 0.08247 -0.03324
v 0.04654 0.08513 0.02527
v 0.05186 0.08247 -0.01462
v -0.05718 0.07715 -0.00398
v 0.02259 0.07980 0.04123
v 0.04919 0.07715 -0.03059
v -0.03324 0.08513 0.03059
v 0.04654 0.07980 0.03590
v -0.05985 0.06917 -0.03324
v -0.05718 0.07715 -0.03857
v -0.04654 0.08247 -0.03857
v 0.05451 0.07448 0.02793
v -0.04388 0.08513 0.01196
v -0.04654 0.07448 0.03059
v 0.04654 0.07183 0.03590
v 0.01195 0.05853 0.03059
v 0.03856 0.08247 0.03857
v -0.04654 0.05853 -0.03857
v 0.03324 0.07448 0.04123
v 0.05718 0.07715 0.01729
v -0.03590 0.08247 0.03324
v -0.05718 0.07980 -0.01462
v -0.05718 0.07448 -0.00132
v 0.05986 0.06917 -0.00664
v 0.04121 0.08247 -0.03590
v 0.05985 -0.01595 -0.03590
v 0.03060 0.01595 0.04655
v 0.02528 0.01595 0.04655
v 0.04389 0.05853 -0.03590
v 0.00399 -0.05053 -0.04122
v 0.05985 -0.05053 0.02527
v 0.00399 0.05853 -0.03058
v 0.05985 0.05319 0.02792
v 0.00399 -0.05053 0.00665
v 0.01198 0.05853 0.02792
v 0.03857 -0.05053 -0.04122
v 0.06518 0.03724 -0.00133
v 0.02262 -0.05053 0.03058
v 0.06251 0.00267 0.03591
v 0.00399 0.01595 -0.04122
v 0.05985 0.05853 -0.01196
v 0.00399 0.05853 0.00665
v 0.05985 -0.04786 -0.01463
v 0.04123 0.05853 0.03590
v 0.05985 0.00531 -0.03857
v 0.00932 -0.00531 0.02527
v 0.03325 0.00001 0.04655
v 0.06518 -0.00797 0.01197
v 0.05719 0.04521 0.03590
v 0.02262 0.00797 0.04655
v 0.02262 0.05319 -0.03857
v 0.06518 0.00532 -0.01196
v 0.06518 0.03724 0.01995
v 0.05719 0.04521 -0.03058
v 0.00399 0.01063 0.01463
v 0.02528 0.05853 0.03590
v 0.05719 -0.03989 -0.03058
v 0.06251 -0.04255 0.01728
v 0.06251 0.05586 0.01462
v 0.05719 -0.00531 0.03857
v 0.03591 -0.05053 0.03058
v 0.06251 0.01595 -0.02793
v 0.05985 -0.04521 0.02792
v 0.06518 0.00000 0.02527
v 0.05187 -0.05053 -0.02793
v 0.01730 -0.03191 0.03058
v 0.06251 0.04256 0.03059
v 0.03060 0.05319 -0.03857
v 0.05719 0.05853 0.02260
v 0.04921 0.05319 -0.03590
v 0.04123 -0.04786 -0.04122
v 0.06251 -0.04255 0.00665
v 0.05719 0.00797 0.03857
v 0.05985 -0.05053 -0.00931
v 0.05985 -0.00797 -0.03857
v 0.05719 -0.02925 -0.03590
v 0.03325 0.01329 0.04655
v 0.06251 -0.03456 0.02527
v 0.00666 0.01595 -0.04122
v 0.01464 0.05853 0.03058
v 0.06251 -0.00264 -0.02793
v 0.06251 0.04788 -0.00930
v 0.05453 0.05319 -0.03058
v 0.01996 0.05853 -0.03590
v 0.00399 -0.00531 0.01463
v 0.02794 0.00001 0.04655
v 0.00932 0.01329 0.02527
v 0.01198 -0.01329 0.02792
v 0.06518 0.04256 0.00398
v -0.01197 -0.00797 -0.04123
v 0.00399 0.01329 0.01197
v 0.00133 0.01329 0.01197
v -0.00133 0.05853 -0.03325
v -0.02793 0.05853 0.00399
v -0.02793 -0.05053 0.00664
v 0.00399 -0.05053 -0.04123
v -0.02793 0.05053 -0.03857
v 0.00399 -0.05053 0.00664
v -0.02793 -0.05053 -0.02261
v 0.00399 0.05853 0.00664
v 0.00399 0.01861 -0.04123
v -0.00931 -0.05053 -0.04123
v -0.02793 0.00267 -0.03591
v 0.00399 0.05853 -0.03058
v -0.02793 0.01861 0.00664
v 0.00133 0.05053 -0.03857
v -0.00133 -0.00797 0.01197
v -0.02527 0.05853 -0.02261
v 0.00399 -0.01329 0.01197
v -0.02527 0.00531 -0.03857
v -0.01463 0.05853 -0.03325
v -0.01197 0.01595 -0.04123
v -0.00400 0.02127 -0.04123
v 0.00133 0.05853 0.00664
v -0.02793 0.05853 -0.00665
v -0.00133 0.00531 0.01197
v -0.02793 0.03191 -0.01197
v -0.06518 -0.03456 -0.02793
v -0.06251 -0.04786 -0.02793
v -0.06518 -0.02659 -0.00931
v -0.06251 0.05585 -0.02793
v -0.02793 -0.05053 -0.02261
v -0.05719 0.05853 -0.00931
v -0.02793 -0.05053 -0.00931
v -0.04390 0.05853 -0.02793
v -0.02793 0.03457 -0.02261
v -0.04124 0.05853 -0.00931
v -0.05985 -0.05053 -0.01197
v -0.06518 0.03723 -0.01995
v -0.05453 -0.05053 -0.02793
v -0.06251 0.04521 -0.01197
v -0.02793 0.01329 -0.00931
v -0.05453 -0.05053 -0.00931
v -0.06518 0.03723 -0.02793
v -0.05187 -0.04521 -0.02793
v -0.06251 0.05585 -0.01729
v -0.05985 0.05853 -0.02793
v -0.04124 0.05853 -0.02261
v -0.06251 -0.04786 -0.01729
v -0.06518 -0.01860 -0.00931
v -0.02793 0.03457 -0.01463
v -0.05985 0.05853 -0.01197
v -0.05985 -0.05053 -0.02793
v -0.06518 0.02925 -0.01729
v -0.02793 0.02128 0.00399
v -0.06252 -0.02926 -0.00133
v -0.03326 -0.05054 -0.00399
v -0.02793 -0.05054 0.00665
v -0.05187 -0.00533 0.00665
v -0.04921 0.02128 -0.00133
v -0.05453 -0.04787 0.00399
v -0.02793 0.02128 -0.00133
v -0.06252 -0.00267 0.00399
v -0.03059 0.01595 0.00665
v -0.02793 -0.03989 -0.00399
v -0.04921 0.02128 0.00399
v -0.06252 -0.00267 -0.00133
v -0.05187 -0.05054 -0.00133
v -0.05187 -0.02659 0.00665
v -0.06252 -0.02659 0.00399
v -0.02793 -0.05054 -0.00399
v -0.02793 0.01595 0.00665
v -0.03326 -0.05054 0.00665
v -0.03326 -0.04255 -0.00399
v -0.05187 -0.05054 0.00399
v -0.05453 -0.04787 -0.00133
v -0.02793 0.05853 -0.00665
v -0.05719 0.03193 -0.00133
v -0.05187 0.02395 -0.00133
v -0.02793 0.05853 0.00399
v -0.02793 0.02129 0.00399
v -0.05719 0.05853 -0.00931
v -0.05719 0.03991 0.00399
v -0.02793 0.02129 -0.00133
v -0.04921 0.05853 0.00399
v -0.04921 0.02129 0.00399
v -0.03857 0.05586 -0.00931
v -0.04921 0.02129 -0.00133
v -0.05719 0.05586 -0.00931
v -0.05719 0.05853 -0.00665
v -0.05719 0.03193 0.00399
v -0.06517 -0.02925 -0.03857
v -0.04921 0.05853 -0.02793
v -0.05985 0.05853 -0.02793
v -0.05454 -0.04786 -0.02793
v -0.04921 0.05853 -0.03857
v -0.05188 -0.05053 -0.03857
v -0.06251 0.01329 -0.04389
v -0.06517 -0.03456 -0.02793
v -0.06517 0.03191 -0.03857
v -0.06517 0.03723 -0.02793
v -0.05985 0.05585 -0.03857
v -0.05454 -0.04521 -0.04123
v -0.05188 -0.04255 -0.02793
v -0.05985 -0.04786 -0.03857
v -0.04921 0.02127 -0.03857
v -0.05985 -0.00264 -0.04389
v -0.06251 -0.03456 -0.04123
v -0.06251 0.05585 -0.03326
v -0.06251 -0.04521 -0.02793
v -0.04921 0.02127 -0.03326
v -0.06517 -0.00531 -0.04123
v -0.05719 -0.05053 -0.03326
v -0.05719 0.05853 -0.03857
v -0.05188 -0.05053 -0.03326
v -0.06251 -0.00264 -0.04389
v -0.06251 -0.04521 -0.03326
v -0.06251 0.05585 -0.02793
v -0.05985 0.01329 -0.04389
v -0.06517 0.01861 -0.04123
v -0.05985 -0.04255 -0.04123
v -0.02793 0.02394 -0.03059
v -0.04921 0.01862 -0.03857
v -0.04655 0.01065 -0.03857
v -0.03326 0.03724 -0.03857
v -0.04921 0.04256 -0.03325
v -0.02793 0.00532 -0.03059
v -0.02793 0.00532 -0.03591
v -0.04921 0.02129 -0.03325
v -0.04921 0.04256 -0.03857
v -0.03326 0.04256 -0.03325
v -0.03592 0.03192 -0.03059
v -0.03592 0.01065 -0.03059
v -0.02793 0.02394 -0.03591
v -0.03326 0.02129 -0.03857
v -0.04655 0.01065 -0.03591
v -0.03326 0.04256 -0.03591
v -0.03060 0.00532 -0.03059
v -0.03326 0.04257 -0.03857
v -0.04655 0.05853 -0.02793
v -0.04655 0.05853 -0.03857
v -0.04921 0.04257 -0.03857
v -0.02793 0.05055 -0.03857
v -0.03326 0.04257 -0.03325
v -0.04921 0.04257 -0.03325
v -0.04921 0.05586 -0.02793
v -0.03060 0.04789 -0.03325
v -0.04921 0.05853 -0.03857
v -0.02793 0.05055 -0.03591
f 279 276 284 
f 270 273 274 
f 273 270 275 
f 274 273 276 
f 275 271 276 
f 270 274 277 
f 273 275 278 
f 276 273 278 
f 274 276 279 
f 277 274 279 
f 275 270 280 
f 270 277 280 
f 280 277 281 
f 279 272 281 
f 277 279 281 
f 272 271 282 
f 271 275 282 
f 275 280 282 
f 280 281 282 
f 281 272 282 
f 275 276 283 
f 278 275 283 
f 276 278 283 
f 271 272 284 
f 276 271 284 
f 272 279 284 
