# Original object name hint: convex_1
v 0.03856 -0.07980 0.03324
v -0.04920 -0.06916 -0.04655
v -0.05186 -0.07182 -0.04389
v -0.05186 -0.05054 0.00398
v 0.04919 -0.05054 -0.02793
v 0.03856 -0.08247 -0.03591
v -0.04654 -0.08247 0.01462
v 0.05986 -0.05054 0.02261
v -0.05718 -0.05054 -0.03857
v -0.04654 -0.07182 0.02793
v 0.02259 -0.05054 0.03059
v 0.03324 -0.05054 -0.04123
v 0.05986 -0.07182 0.00398
v -0.02792 -0.08513 -0.01462
v 0.03856 -0.08513 0.00132
v 0.04121 -0.07182 -0.04389
v 0.04388 -0.07448 0.03857
v -0.05985 -0.06385 -0.01462
v -0.03058 -0.08247 0.02527
v 0.05451 -0.07448 0.03324
v -0.00132 -0.07980 -0.04123
v 0.05986 -0.05054 -0.00665
v 0.02259 -0.07714 0.03857
v 0.04919 -0.07448 -0.03324
v 0.02792 -0.07448 -0.04655
v -0.04920 -0.06119 -0.04655
v -0.05186 -0.07714 -0.03059
v -0.03590 -0.08513 0.01196
v 0.02792 -0.06651 0.03857
v 0.05186 -0.07980 -0.00399
v -0.05452 -0.07448 0.00931
v -0.01728 -0.08247 -0.03324
v -0.05985 -0.05054 -0.01462
v 0.03589 -0.08247 0.02527
v -0.05718 -0.07182 -0.03324
v 0.02792 -0.06651 -0.04655
v 0.04388 -0.06916 0.03857
v -0.04920 -0.07714 0.02527
v -0.05452 -0.05054 -0.04123
v -0.04122 -0.08247 -0.01994
v -0.04654 -0.07714 -0.03857
v 0.04654 -0.06385 -0.03857
v 0.03589 -0.05054 0.03059
v 0.05986 -0.07182 0.01995
v 0.00132 -0.08513 -0.01729
v -0.05718 -0.06119 0.00132
v -0.05186 -0.07980 -0.00133
v 0.05718 -0.07182 -0.01197
v -0.05718 -0.06651 -0.04123
v -0.04388 -0.07182 -0.04655
v 0.01195 -0.08513 0.01196
v -0.04388 -0.07714 0.02793
v 0.04388 -0.08247 0.01462
v 0.03856 -0.07980 -0.04123
v 0.04654 -0.07980 -0.03059
v 0.03856 -0.08513 -0.00665
v -0.05985 -0.06119 -0.02793
v -0.03856 -0.08513 0.00132
v -0.05718 -0.07182 -0.00133
v 0.04654 -0.08247 -0.01197
v 0.05451 -0.06651 0.03324
v -0.04920 -0.07182 0.02527
v 0.04121 -0.06651 -0.04389
v -0.04654 -0.08247 -0.00399
v 0.03856 0.08513 0.03324
v -0.05452 0.06917 -0.04123
v -0.05718 0.05853 -0.03857
v 0.04654 0.05853 -0.03324
v 0.02526 0.05853 0.03590
v -0.04388 0.07980 0.03324
v 0.02526 0.08513 -0.03590
v -0.04122 0.08513 -0.02261
v 0.05986 0.07183 0.00664
v -0.05718 0.05853 -0.00398
v 0.05186 0.05853 0.02793
v -0.05718 0.07980 -0.03324
v 0.04121 0.07980 -0.03857
v -0.04122 0.08513 0.02527
v 0.03324 0.07980 0.04123
v 0.04919 0.08513 -0.00132
v -0.04388 0.07448 0.03324
v 0.05986 0.05853 -0.01196
v 0.03324 0.07183 -0.04123
v -0.05186 0.07980 -0.04123
v 0.05186 0.07980 0.03059
v -0.05985 0.07183 -0.01196
v 0.05718 0.07715 -0.01196
v -0.04920 0.05853 0.00398
v 0.00398 0.08513 0.03590
v 0.05986 0.05853 0.01462
v -0.05186 0.08247 0.00398
v 0.02259 0.07448 0.04123
v 0.04121 0.05853 -0.03590
v 0.03589 0.07980 -0.04123
v 0.04654 0.07980 -0.03324
v -0.03058 0.08513 -0.03324
v 0.04121 0.07183 0.03857
v -0.05985 0.05853 -0.03590
v -0.04654 0.07980 0.03059
v 0.03856 0.08513 -0.03059
v 0.05451 0.07980 0.02527
v 0.03856 0.05853 0.03590
v -0.05985 0.06119 -0.00931
v -0.05186 0.08247 -0.03324
v 0.04654 0.08513 0.02527
v 0.05186 0.08247 -0.01462
v -0.05718 0.07715 -0.00398
v 0.02259 0.07980 0.04123
v 0.04919 0.07715 -0.03059
v -0.03324 0.08513 0.03059
v 0.04654 0.07980 0.03590
v -0.05985 0.06917 -0.03324
v -0.05718 0.07715 -0.03857
v -0.04654 0.08247 -0.03857
v 0.05451 0.07448 0.02793
v -0.04388 0.08513 0.01196
v -0.04654 0.07448 0.03059
v 0.04654 0.07183 0.03590
v 0.01195 0.05853 0.03059
v 0.03856 0.08247 0.03857
v -0.04654 0.05853 -0.03857
v 0.03324 0.07448 0.04123
v 0.05718 0.07715 0.01729
v -0.03590 0.08247 0.03324
v -0.05718 0.07980 -0.01462
v -0.05718 0.07448 -0.00132
v 0.05986 0.06917 -0.00664
v 0.04121 0.08247 -0.03590
v 0.05985 -0.01595 -0.03590
v 0.03060 0.01595 0.04655
v 0.02528 0.01595 0.04655
v 0.04389 0.05853 -0.03590
v 0.00399 -0.05053 -0.04122
v 0.05985 -0.05053 0.02527
v 0.00399 0.05853 -0.03058
v 0.05985 0.05319 0.02792
v 0.00399 -0.05053 0.00665
v 0.01198 0.05853 0.02792
v 0.03857 -0.05053 -0.04122
v 0.06518 0.03724 -0.00133
v 0.02262 -0.05053 0.03058
v 0.06251 0.00267 0.03591
v 0.00399 0.01595 -0.04122
v 0.05985 0.05853 -0.01196
v 0.00399 0.05853 0.00665
v 0.05985 -0.04786 -0.01463
v 0.04123 0.05853 0.03590
v 0.05985 0.00531 -0.03857
v 0.00932 -0.00531 0.02527
v 0.03325 0.00001 0.04655
v 0.06518 -0.00797 0.01197
v 0.05719 0.04521 0.03590
v 0.02262 0.00797 0.04655
v 0.02262 0.05319 -0.03857
v 0.06518 0.00532 -0.01196
v 0.06518 0.03724 0.01995
v 0.05719 0.04521 -0.03058
v 0.00399 0.01063 0.01463
v 0.02528 0.05853 0.03590
v 0.05719 -0.03989 -0.03058
v 0.06251 -0.04255 0.01728
v 0.06251 0.05586 0.01462
v 0.05719 -0.00531 0.03857
v 0.03591 -0.05053 0.03058
v 0.06251 0.01595 -0.02793
v 0.05985 -0.04521 0.02792
v 0.06518 0.00000 0.02527
v 0.05187 -0.05053 -0.02793
v 0.01730 -0.03191 0.03058
v 0.06251 0.04256 0.03059
v 0.03060 0.05319 -0.03857
v 0.05719 0.05853 0.02260
v 0.04921 0.05319 -0.03590
v 0.04123 -0.04786 -0.04122
v 0.06251 -0.04255 0.00665
v 0.05719 0.00797 0.03857
v 0.05985 -0.05053 -0.00931
v 0.05985 -0.00797 -0.03857
v 0.05719 -0.02925 -0.03590
v 0.03325 0.01329 0.04655
v 0.06251 -0.03456 0.02527
v 0.00666 0.01595 -0.04122
v 0.01464 0.05853 0.03058
v 0.06251 -0.00264 -0.02793
v 0.06251 0.04788 -0.00930
v 0.05453 0.05319 -0.03058
v 0.01996 0.05853 -0.03590
v 0.00399 -0.00531 0.01463
v 0.02794 0.00001 0.04655
v 0.00932 0.01329 0.02527
v 0.01198 -0.01329 0.02792
v 0.06518 0.04256 0.00398
v -0.01197 -0.00797 -0.04123
v 0.00399 0.01329 0.01197
v 0.00133 0.01329 0.01197
v -0.00133 0.05853 -0.03325
v -0.02793 0.05853 0.00399
v -0.02793 -0.05053 0.00664
v 0.00399 -0.05053 -0.04123
v -0.02793 0.05053 -0.03857
v 0.00399 -0.05053 0.00664
v -0.02793 -0.05053 -0.02261
v 0.00399 0.05853 0.00664
v 0.00399 0.01861 -0.04123
v -0.00931 -0.05053 -0.04123
v -0.02793 0.00267 -0.03591
v 0.00399 0.05853 -0.03058
v -0.02793 0.01861 0.00664
v 0.00133 0.05053 -0.03857
v -0.00133 -0.00797 0.01197
v -0.02527 0.05853 -0.02261
v 0.00399 -0.01329 0.01197
v -0.02527 0.00531 -0.03857
v -0.01463 0.05853 -0.03325
v -0.01197 0.01595 -0.04123
v -0.00400 0.02127 -0.04123
v 0.00133 0.05853 0.00664
v -0.02793 0.05853 -0.00665
v -0.00133 0.00531 0.01197
v -0.02793 0.03191 -0.01197
v -0.06518 -0.03456 -0.02793
v -0.06251 -0.04786 -0.02793
v -0.06518 -0.02659 -0.00931
v -0.06251 0.05585 -0.02793
v -0.02793 -0.05053 -0.02261
v -0.05719 0.05853 -0.00931
v -0.02793 -0.05053 -0.00931
v -0.04390 0.05853 -0.02793
v -0.02793 0.03457 -0.02261
v -0.04124 0.05853 -0.00931
v -0.05985 -0.05053 -0.01197
v -0.06518 0.03723 -0.01995
v -0.05453 -0.05053 -0.02793
v -0.06251 0.04521 -0.01197
v -0.02793 0.01329 -0.00931
v -0.05453 -0.05053 -0.00931
v -0.06518 0.03723 -0.02793
v -0.05187 -0.04521 -0.02793
v -0.06251 0.05585 -0.01729
v -0.05985 0.05853 -0.02793
v -0.04124 0.05853 -0.02261
v -0.06251 -0.04786 -0.01729
v -0.06518 -0.01860 -0.00931
v -0.02793 0.03457 -0.01463
v -0.05985 0.05853 -0.01197
v -0.05985 -0.05053 -0.02793
v -0.06518 0.02925 -0.01729
v -0.02793 0.02128 0.00399
v -0.06252 -0.02926 -0.00133
v -0.03326 -0.05054 -0.00399
v -0.02793 -0.05054 0.00665
v -0.05187 -0.00533 0.00665
v -0.04921 0.02128 -0.00133
v -0.05453 -0.04787 0.00399
v -0.02793 0.02128 -0.00133
v -0.06252 -0.00267 0.00399
v -0.03059 0.01595 0.00665
v -0.02793 -0.03989 -0.00399
v -0.04921 0.02128 0.00399
v -0.06252 -0.00267 -0.00133
v -0.05187 -0.05054 -0.00133
v -0.05187 -0.02659 0.00665
v -0.06252 -0.02659 0.00399
v -0.02793 -0.05054 -0.00399
v -0.02793 0.01595 0.00665
v -0.03326 -0.05054 0.00665
v -0.03326 -0.04255 -0.00399
v -0.05187 -0.05054 0.00399
v -0.05453 -0.04787 -0.00133
v -0.02793 0.05853 -0.00665
v -0.05719 0.03193 -0.00133
v -0.05187 0.02395 -0.00133
v -0.02793 0.05853 0.00399
v -0.02793 0.02129 0.00399
v -0.05719 0.05853 -0.00931
v -0.05719 0.03991 0.00399
v -0.02793 0.02129 -0.00133
v -0.04921 0.05853 0.00399
v -0.04921 0.02129 0.00399
v -0.03857 0.05586 -0.00931
v -0.04921 0.02129 -0.00133
v -0.05719 0.05586 -0.00931
v -0.05719 0.05853 -0.00665
v -0.05719 0.03193 0.00399
v -0.06517 -0.02925 -0.03857
v -0.04921 0.05853 -0.02793
v -0.05985 0.05853 -0.02793
v -0.05454 -0.04786 -0.02793
v -0.04921 0.05853 -0.03857
v -0.05188 -0.05053 -0.03857
v -0.06251 0.01329 -0.04389
v -0.06517 -0.03456 -0.02793
v -0.06517 0.03191 -0.03857
v -0.06517 0.03723 -0.02793
v -0.05985 0.05585 -0.03857
v -0.05454 -0.04521 -0.04123
v -0.05188 -0.04255 -0.02793
v -0.05985 -0.04786 -0.03857
v -0.04921 0.02127 -0.03857
v -0.05985 -0.00264 -0.04389
v -0.06251 -0.03456 -0.04123
v -0.06251 0.05585 -0.03326
v -0.06251 -0.04521 -0.02793
v -0.04921 0.02127 -0.03326
v -0.06517 -0.00531 -0.04123
v -0.05719 -0.05053 -0.03326
v -0.05719 0.05853 -0.03857
v -0.05188 -0.05053 -0.03326
v -0.06251 -0.00264 -0.04389
v -0.06251 -0.04521 -0.03326
v -0.06251 0.05585 -0.02793
v -0.05985 0.01329 -0.04389
v -0.06517 0.01861 -0.04123
v -0.05985 -0.04255 -0.04123
v -0.02793 0.02394 -0.03059
v -0.04921 0.01862 -0.03857
v -0.04655 0.01065 -0.03857
v -0.03326 0.03724 -0.03857
v -0.04921 0.04256 -0.03325
v -0.02793 0.00532 -0.03059
v -0.02793 0.00532 -0.03591
v -0.04921 0.02129 -0.03325
v -0.04921 0.04256 -0.03857
v -0.03326 0.04256 -0.03325
v -0.03592 0.03192 -0.03059
v -0.03592 0.01065 -0.03059
v -0.02793 0.02394 -0.03591
v -0.03326 0.02129 -0.03857
v -0.04655 0.01065 -0.03591
v -0.03326 0.04256 -0.03591
v -0.03060 0.00532 -0.03059
v -0.03326 0.04257 -0.03857
v -0.04655 0.05853 -0.02793
v -0.04655 0.05853 -0.03857
v -0.04921 0.04257 -0.03857
v -0.02793 0.05055 -0.03857
v -0.03326 0.04257 -0.03325
v -0.04921 0.04257 -0.03325
v -0.04921 0.05586 -0.02793
v -0.03060 0.04789 -0.03325
v -0.04921 0.05853 -0.03857
v -0.02793 0.05055 -0.03591
f 100 106 128 
f 67 68 69 
f 65 71 72 
f 67 69 74 
f 69 68 75 
f 65 72 78 
f 71 65 80 
f 75 68 82 
f 83 66 84 
f 74 69 88 
f 81 74 88 
f 65 78 89 
f 75 82 90 
f 82 73 90 
f 81 69 92 
f 70 81 92 
f 68 67 93 
f 93 83 94 
f 77 68 94 
f 83 84 94 
f 68 93 94 
f 68 77 95 
f 72 71 96 
f 66 67 98 
f 67 74 98 
f 70 78 99 
f 81 70 99 
f 78 91 99 
f 71 80 100 
f 69 75 102 
f 92 69 102 
f 98 74 103 
f 86 98 103 
f 84 76 104 
f 76 91 104 
f 80 65 105 
f 101 80 105 
f 85 101 105 
f 87 95 106 
f 100 80 106 
f 99 91 107 
f 92 79 108 
f 70 92 108 
f 82 68 109 
f 87 82 109 
f 68 95 109 
f 95 87 109 
f 78 70 110 
f 89 78 110 
f 79 97 111 
f 86 76 112 
f 98 86 112 
f 98 112 113 
f 84 66 113 
f 76 84 113 
f 66 98 113 
f 112 76 113 
f 71 94 114 
f 94 84 114 
f 96 71 114 
f 72 96 114 
f 84 104 114 
f 104 72 114 
f 75 90 115 
f 101 85 115 
f 78 72 116 
f 91 78 116 
f 72 104 116 
f 104 91 116 
f 74 81 117 
f 81 99 117 
f 103 74 117 
f 99 103 117 
f 102 75 118 
f 97 102 118 
f 85 111 118 
f 111 97 118 
f 75 115 118 
f 115 85 118 
f 69 81 119 
f 88 69 119 
f 81 88 119 
f 65 89 120 
f 105 65 120 
f 85 105 120 
f 89 108 120 
f 108 79 120 
f 79 111 120 
f 111 85 120 
f 67 66 121 
f 66 83 121 
f 93 67 121 
f 83 93 121 
f 79 92 122 
f 97 79 122 
f 92 102 122 
f 102 97 122 
f 73 87 123 
f 90 73 123 
f 80 101 123 
f 87 106 123 
f 106 80 123 
f 115 90 123 
f 101 115 123 
f 70 108 124 
f 108 89 124 
f 110 70 124 
f 89 110 124 
f 76 86 125 
f 91 76 125 
f 86 107 125 
f 107 91 125 
f 86 103 126 
f 103 99 126 
f 107 86 126 
f 99 107 126 
f 73 82 127 
f 87 73 127 
f 82 87 127 
f 77 94 128 
f 94 71 128 
f 95 77 128 
f 71 100 128 
f 106 95 128 
