# Original object name hint: convex_2
v 0.03856 -0.07980 0.03324
v -0.04920 -0.06916 -0.04655
v -0.05186 -0.07182 -0.04389
v -0.05186 -0.05054 0.00398
v 0.04919 -0.05054 -0.02793
v 0.03856 -0.08247 -0.03591
v -0.04654 -0.08247 0.01462
v 0.05986 -0.05054 0.02261
v -0.05718 -0.05054 -0.03857
v -0.04654 -0.07182 0.02793
v 0.02259 -0.05054 0.03059
v 0.03324 -0.05054 -0.04123
v 0.05986 -0.07182 0.00398
v -0.02792 -0.08513 -0.01462
v 0.03856 -0.08513 0.00132
v 0.04121 -0.07182 -0.04389
v 0.04388 -0.07448 0.03857
v -0.05985 -0.06385 -0.01462
v -0.03058 -0.08247 0.02527
v 0.05451 -0.07448 0.03324
v -0.00132 -0.07980 -0.04123
v 0.05986 -0.05054 -0.00665
v 0.02259 -0.07714 0.03857
v 0.04919 -0.07448 -0.03324
v 0.02792 -0.07448 -0.04655
v -0.04920 -0.06119 -0.04655
v -0.05186 -0.07714 -0.03059
v -0.03590 -0.08513 0.01196
v 0.02792 -0.06651 0.03857
v 0.05186 -0.07980 -0.00399
v -0.05452 -0.07448 0.00931
v -0.01728 -0.08247 -0.03324
v -0.05985 -0.05054 -0.01462
v 0.03589 -0.08247 0.02527
v -0.05718 -0.07182 -0.03324
v 0.02792 -0.06651 -0.04655
v 0.04388 -0.06916 0.03857
v -0.04920 -0.07714 0.02527
v -0.05452 -0.05054 -0.04123
v -0.04122 -0.08247 -0.01994
v -0.04654 -0.07714 -0.03857
v 0.04654 -0.06385 -0.03857
v 0.03589 -0.05054 0.03059
v 0.05986 -0.07182 0.01995
v 0.00132 -0.08513 -0.01729
v -0.05718 -0.06119 0.00132
v -0.05186 -0.07980 -0.00133
v 0.05718 -0.07182 -0.01197
v -0.05718 -0.06651 -0.04123
v -0.04388 -0.07182 -0.04655
v 0.01195 -0.08513 0.01196
v -0.04388 -0.07714 0.02793
v 0.04388 -0.08247 0.01462
v 0.03856 -0.07980 -0.04123
v 0.04654 -0.07980 -0.03059
v 0.03856 -0.08513 -0.00665
v -0.05985 -0.06119 -0.02793
v -0.03856 -0.08513 0.00132
v -0.05718 -0.07182 -0.00133
v 0.04654 -0.08247 -0.01197
v 0.05451 -0.06651 0.03324
v -0.04920 -0.07182 0.02527
v 0.04121 -0.06651 -0.04389
v -0.04654 -0.08247 -0.00399
v 0.03856 0.08513 0.03324
v -0.05452 0.06917 -0.04123
v -0.05718 0.05853 -0.03857
v 0.04654 0.05853 -0.03324
v 0.02526 0.05853 0.03590
v -0.04388 0.07980 0.03324
v 0.02526 0.08513 -0.03590
v -0.04122 0.08513 -0.02261
v 0.05986 0.07183 0.00664
v -0.05718 0.05853 -0.00398
v 0.05186 0.05853 0.02793
v -0.05718 0.07980 -0.03324
v 0.04121 0.07980 -0.03857
v -0.04122 0.08513 0.02527
v 0.03324 0.07980 0.04123
v 0.04919 0.08513 -0.00132
v -0.04388 0.07448 0.03324
v 0.05986 0.05853 -0.01196
v 0.03324 0.07183 -0.04123
v -0.05186 0.07980 -0.04123
v 0.05186 0.07980 0.03059
v -0.05985 0.07183 -0.01196
v 0.05718 0.07715 -0.01196
v -0.04920 0.05853 0.00398
v 0.00398 0.08513 0.03590
v 0.05986 0.05853 0.01462
v -0.05186 0.08247 0.00398
v 0.02259 0.07448 0.04123
v 0.04121 0.05853 -0.03590
v 0.03589 0.07980 -0.04123
v 0.04654 0.07980 -0.03324
v -0.03058 0.08513 -0.03324
v 0.04121 0.07183 0.03857
v -0.05985 0.05853 -0.03590
v -0.04654 0.07980 0.03059
v 0.03856 0.08513 -0.03059
v 0.05451 0.07980 0.02527
v 0.03856 0.05853 0.03590
v -0.05985 0.06119 -0.00931
v -0.05186 0.08247 -0.03324
v 0.04654 0.08513 0.02527
v 0.05186 0.08247 -0.01462
v -0.05718 0.07715 -0.00398
v 0.02259 0.07980 0.04123
v 0.04919 0.07715 -0.03059
v -0.03324 0.08513 0.03059
v 0.04654 0.07980 0.03590
v -0.05985 0.06917 -0.03324
v -0.05718 0.07715 -0.03857
v -0.04654 0.08247 -0.03857
v 0.05451 0.07448 0.02793
v -0.04388 0.08513 0.01196
v -0.04654 0.07448 0.03059
v 0.04654 0.07183 0.03590
v 0.01195 0.05853 0.03059
v 0.03856 0.08247 0.03857
v -0.04654 0.05853 -0.03857
v 0.03324 0.07448 0.04123
v 0.05718 0.07715 0.01729
v -0.03590 0.08247 0.03324
v -0.05718 0.07980 -0.01462
v -0.05718 0.07448 -0.00132
v 0.05986 0.06917 -0.00664
v 0.04121 0.08247 -0.03590
v 0.05985 -0.01595 -0.03590
v 0.03060 0.01595 0.04655
v 0.02528 0.01595 0.04655
v 0.04389 0.05853 -0.03590
v 0.00399 -0.05053 -0.04122
v 0.05985 -0.05053 0.02527
v 0.00399 0.05853 -0.03058
v 0.05985 0.05319 0.02792
v 0.00399 -0.05053 0.00665
v 0.01198 0.05853 0.02792
v 0.03857 -0.05053 -0.04122
v 0.06518 0.03724 -0.00133
v 0.02262 -0.05053 0.03058
v 0.06251 0.00267 0.03591
v 0.00399 0.01595 -0.04122
v 0.05985 0.05853 -0.01196
v 0.00399 0.05853 0.00665
v 0.05985 -0.04786 -0.01463
v 0.04123 0.05853 0.03590
v 0.05985 0.00531 -0.03857
v 0.00932 -0.00531 0.02527
v 0.03325 0.00001 0.04655
v 0.06518 -0.00797 0.01197
v 0.05719 0.04521 0.03590
v 0.02262 0.00797 0.04655
v 0.02262 0.05319 -0.03857
v 0.06518 0.00532 -0.01196
v 0.06518 0.03724 0.01995
v 0.05719 0.04521 -0.03058
v 0.00399 0.01063 0.01463
v 0.02528 0.05853 0.03590
v 0.05719 -0.03989 -0.03058
v 0.06251 -0.04255 0.01728
v 0.06251 0.05586 0.01462
v 0.05719 -0.00531 0.03857
v 0.03591 -0.05053 0.03058
v 0.06251 0.01595 -0.02793
v 0.05985 -0.04521 0.02792
v 0.06518 0.00000 0.02527
v 0.05187 -0.05053 -0.02793
v 0.01730 -0.03191 0.03058
v 0.06251 0.04256 0.03059
v 0.03060 0.05319 -0.03857
v 0.05719 0.05853 0.02260
v 0.04921 0.05319 -0.03590
v 0.04123 -0.04786 -0.04122
v 0.06251 -0.04255 0.00665
v 0.05719 0.00797 0.03857
v 0.05985 -0.05053 -0.00931
v 0.05985 -0.00797 -0.03857
v 0.05719 -0.02925 -0.03590
v 0.03325 0.01329 0.04655
v 0.06251 -0.03456 0.02527
v 0.00666 0.01595 -0.04122
v 0.01464 0.05853 0.03058
v 0.06251 -0.00264 -0.02793
v 0.06251 0.04788 -0.00930
v 0.05453 0.05319 -0.03058
v 0.01996 0.05853 -0.03590
v 0.00399 -0.00531 0.01463
v 0.02794 0.00001 0.04655
v 0.00932 0.01329 0.02527
v 0.01198 -0.01329 0.02792
v 0.06518 0.04256 0.00398
v -0.01197 -0.00797 -0.04123
v 0.00399 0.01329 0.01197
v 0.00133 0.01329 0.01197
v -0.00133 0.05853 -0.03325
v -0.02793 0.05853 0.00399
v -0.02793 -0.05053 0.00664
v 0.00399 -0.05053 -0.04123
v -0.02793 0.05053 -0.03857
v 0.00399 -0.05053 0.00664
v -0.02793 -0.05053 -0.02261
v 0.00399 0.05853 0.00664
v 0.00399 0.01861 -0.04123
v -0.00931 -0.05053 -0.04123
v -0.02793 0.00267 -0.03591
v 0.00399 0.05853 -0.03058
v -0.02793 0.01861 0.00664
v 0.00133 0.05053 -0.03857
v -0.00133 -0.00797 0.01197
v -0.02527 0.05853 -0.02261
v 0.00399 -0.01329 0.01197
v -0.02527 0.00531 -0.03857
v -0.01463 0.05853 -0.03325
v -0.01197 0.01595 -0.04123
v -0.00400 0.02127 -0.04123
v 0.00133 0.05853 0.00664
v -0.02793 0.05853 -0.00665
v -0.00133 0.00531 0.01197
v -0.02793 0.03191 -0.01197
v -0.06518 -0.03456 -0.02793
v -0.06251 -0.04786 -0.02793
v -0.06518 -0.02659 -0.00931
v -0.06251 0.05585 -0.02793
v -0.02793 -0.05053 -0.02261
v -0.05719 0.05853 -0.00931
v -0.02793 -0.05053 -0.00931
v -0.04390 0.05853 -0.02793
v -0.02793 0.03457 -0.02261
v -0.04124 0.05853 -0.00931
v -0.05985 -0.05053 -0.01197
v -0.06518 0.03723 -0.01995
v -0.05453 -0.05053 -0.02793
v -0.06251 0.04521 -0.01197
v -0.02793 0.01329 -0.00931
v -0.05453 -0.05053 -0.00931
v -0.06518 0.03723 -0.02793
v -0.05187 -0.04521 -0.02793
v -0.06251 0.05585 -0.01729
v -0.05985 0.05853 -0.02793
v -0.04124 0.05853 -0.02261
v -0.06251 -0.04786 -0.01729
v -0.06518 -0.01860 -0.00931
v -0.02793 0.03457 -0.01463
v -0.05985 0.05853 -0.01197
v -0.05985 -0.05053 -0.02793
v -0.06518 0.02925 -0.01729
v -0.02793 0.02128 0.00399
v -0.06252 -0.02926 -0.00133
v -0.03326 -0.05054 -0.00399
v -0.02793 -0.05054 0.00665
v -0.05187 -0.00533 0.00665
v -0.04921 0.02128 -0.00133
v -0.05453 -0.04787 0.00399
v -0.02793 0.02128 -0.00133
v -0.06252 -0.00267 0.00399
v -0.03059 0.01595 0.00665
v -0.02793 -0.03989 -0.00399
v -0.04921 0.02128 0.00399
v -0.06252 -0.00267 -0.00133
v -0.05187 -0.05054 -0.00133
v -0.05187 -0.02659 0.00665
v -0.06252 -0.02659 0.00399
v -0.02793 -0.05054 -0.00399
v -0.02793 0.01595 0.00665
v -0.03326 -0.05054 0.00665
v -0.03326 -0.04255 -0.00399
v -0.05187 -0.05054 0.00399
v -0.05453 -0.04787 -0.00133
v -0.02793 0.05853 -0.00665
v -0.05719 0.03193 -0.00133
v -0.05187 0.02395 -0.00133
v -0.02793 0.05853 0.00399
v -0.02793 0.02129 0.00399
v -0.05719 0.05853 -0.00931
v -0.05719 0.03991 0.00399
v -0.02793 0.02129 -0.00133
v -0.04921 0.05853 0.00399
v -0.04921 0.02129 0.00399
v -0.03857 0.05586 -0.00931
v -0.04921 0.02129 -0.00133
v -0.05719 0.05586 -0.00931
v -0.05719 0.05853 -0.00665
v -0.05719 0.03193 0.00399
v -0.06517 -0.02925 -0.03857
v -0.04921 0.05853 -0.02793
v -0.05985 0.05853 -0.02793
v -0.05454 -0.04786 -0.02793
v -0.04921 0.05853 -0.03857
v -0.05188 -0.05053 -0.03857
v -0.06251 0.01329 -0.04389
v -0.06517 -0.03456 -0.02793
v -0.06517 0.03191 -0.03857
v -0.06517 0.03723 -0.02793
v -0.05985 0.05585 -0.03857
v -0.05454 -0.04521 -0.04123
v -0.05188 -0.04255 -0.02793
v -0.05985 -0.04786 -0.03857
v -0.04921 0.02127 -0.03857
v -0.05985 -0.00264 -0.04389
v -0.06251 -0.03456 -0.04123
v -0.06251 0.05585 -0.03326
v -0.06251 -0.04521 -0.02793
v -0.04921 0.02127 -0.03326
v -0.06517 -0.00531 -0.04123
v -0.05719 -0.05053 -0.03326
v -0.05719 0.05853 -0.03857
v -0.05188 -0.05053 -0.03326
v -0.06251 -0.00264 -0.04389
v -0.06251 -0.04521 -0.03326
v -0.06251 0.05585 -0.02793
v -0.05985 0.01329 -0.04389
v -0.06517 0.01861 -0.04123
v -0.05985 -0.04255 -0.04123
v -0.02793 0.02394 -0.03059
v -0.04921 0.01862 -0.03857
v -0.04655 0.01065 -0.03857
v -0.03326 0.03724 -0.03857
v -0.04921 0.04256 -0.03325
v -0.02793 0.00532 -0.03059
v -0.02793 0.00532 -0.03591
v -0.04921 0.02129 -0.03325
v -0.04921 0.04256 -0.03857
v -0.03326 0.04256 -0.03325
v -0.03592 0.03192 -0.03059
v -0.03592 0.01065 -0.03059
v -0.02793 0.02394 -0.03591
v -0.03326 0.02129 -0.03857
v -0.04655 0.01065 -0.03591
v -0.03326 0.04256 -0.03591
v -0.03060 0.00532 -0.03059
v -0.03326 0.04257 -0.03857
v -0.04655 0.05853 -0.02793
v -0.04655 0.05853 -0.03857
v -0.04921 0.04257 -0.03857
v -0.02793 0.05055 -0.03857
v -0.03326 0.04257 -0.03325
v -0.04921 0.04257 -0.03325
v -0.04921 0.05586 -0.02793
v -0.03060 0.04789 -0.03325
v -0.04921 0.05853 -0.03857
v -0.02793 0.05055 -0.03591
f 140 185 192 
f 133 134 137 
f 135 133 137 
f 132 135 138 
f 134 133 139 
f 137 134 141 
f 133 135 143 
f 139 133 143 
f 132 138 144 
f 135 137 145 
f 138 135 145 
f 131 130 147 
f 144 138 147 
f 130 131 150 
f 147 130 152 
f 136 147 152 
f 150 131 153 
f 143 135 154 
f 140 151 155 
f 151 140 156 
f 145 137 158 
f 138 145 158 
f 131 147 159 
f 147 138 159 
f 129 146 160 
f 141 134 164 
f 150 141 164 
f 140 155 165 
f 148 157 165 
f 142 163 166 
f 163 150 166 
f 164 134 166 
f 150 164 166 
f 151 156 167 
f 161 151 167 
f 134 139 168 
f 160 146 168 
f 137 141 169 
f 141 153 169 
f 136 152 170 
f 152 142 170 
f 162 136 170 
f 156 162 170 
f 142 167 170 
f 167 156 170 
f 154 132 171 
f 143 154 171 
f 147 136 172 
f 144 147 172 
f 162 144 172 
f 136 162 172 
f 157 148 173 
f 171 132 173 
f 148 171 173 
f 139 143 174 
f 168 139 174 
f 160 168 174 
f 146 155 175 
f 155 151 175 
f 161 134 175 
f 151 161 175 
f 142 152 176 
f 163 142 176 
f 150 163 176 
f 134 168 177 
f 168 146 177 
f 175 134 177 
f 146 175 177 
f 148 165 178 
f 174 148 178 
f 174 178 179 
f 129 160 179 
f 160 174 179 
f 178 129 179 
f 130 150 180 
f 152 130 180 
f 150 176 180 
f 176 152 180 
f 134 161 181 
f 166 134 181 
f 142 166 181 
f 167 142 181 
f 161 167 181 
f 171 148 182 
f 143 171 182 
f 174 143 182 
f 148 174 182 
f 153 131 183 
f 138 153 183 
f 131 159 183 
f 159 138 183 
f 146 129 184 
f 155 146 184 
f 165 155 184 
f 129 178 184 
f 178 165 184 
f 157 144 185 
f 140 165 185 
f 165 157 185 
f 132 144 186 
f 144 157 186 
f 173 132 186 
f 157 173 186 
f 135 132 187 
f 132 154 187 
f 154 135 187 
f 137 149 188 
f 158 137 188 
f 149 158 188 
f 141 150 189 
f 153 141 189 
f 150 153 189 
f 153 138 190 
f 149 153 190 
f 138 158 190 
f 158 149 190 
f 149 137 191 
f 153 149 191 
f 137 169 191 
f 169 153 191 
f 156 140 192 
f 144 162 192 
f 162 156 192 
f 185 144 192 
