# Original object name hint: convex_0
v 0.03856 -0.07980 0.03324
v -0.04920 -0.06916 -0.04655
v -0.05186 -0.07182 -0.04389
v -0.05186 -0.05054 0.00398
v 0.04919 -0.05054 -0.02793
v 0.03856 -0.08247 -0.03591
v -0.04654 -0.08247 0.01462
v 0.05986 -0.05054 0.02261
v -0.05718 -0.05054 -0.03857
v -0.04654 -0.07182 0.02793
v 0.02259 -0.05054 0.03059
v 0.03324 -0.05054 -0.04123
v 0.05986 -0.07182 0.00398
v -0.02792 -0.08513 -0.01462
v 0.03856 -0.08513 0.00132
v 0.04121 -0.07182 -0.04389
v 0.04388 -0.07448 0.03857
v -0.05985 -0.06385 -0.01462
v -0.03058 -0.08247 0.02527
v 0.05451 -0.07448 0.03324
v -0.00132 -0.07980 -0.04123
v 0.05986 -0.05054 -0.00665
v 0.02259 -0.07714 0.03857
v 0.04919 -0.07448 -0.03324
v 0.02792 -0.07448 -0.04655
v -0.04920 -0.06119 -0.04655
v -0.05186 -0.07714 -0.03059
v -0.03590 -0.08513 0.01196
v 0.02792 -0.06651 0.03857
v 0.05186 -0.07980 -0.00399
v -0.05452 -0.07448 0.00931
v -0.01728 -0.08247 -0.03324
v -0.05985 -0.05054 -0.01462
v 0.03589 -0.08247 0.02527
v -0.05718 -0.07182 -0.03324
v 0.02792 -0.06651 -0.04655
v 0.04388 -0.06916 0.03857
v -0.04920 -0.07714 0.02527
v -0.05452 -0.05054 -0.04123
v -0.04122 -0.08247 -0.01994
v -0.04654 -0.07714 -0.03857
v 0.04654 -0.06385 -0.03857
v 0.03589 -0.05054 0.03059
v 0.05986 -0.07182 0.01995
v 0.00132 -0.08513 -0.01729
v -0.05718 -0.06119 0.00132
v -0.05186 -0.07980 -0.00133
v 0.05718 -0.07182 -0.01197
v -0.05718 -0.06651 -0.04123
v -0.04388 -0.07182 -0.04655
v 0.01195 -0.08513 0.01196
v -0.04388 -0.07714 0.02793
v 0.04388 -0.08247 0.01462
v 0.03856 -0.07980 -0.04123
v 0.04654 -0.07980 -0.03059
v 0.03856 -0.08513 -0.00665
v -0.05985 -0.06119 -0.02793
v -0.03856 -0.08513 0.00132
v -0.05718 -0.07182 -0.00133
v 0.04654 -0.08247 -0.01197
v 0.05451 -0.06651 0.03324
v -0.04920 -0.07182 0.02527
v 0.04121 -0.06651 -0.04389
v -0.04654 -0.08247 -0.00399
v 0.03856 0.08513 0.03324
v -0.05452 0.06917 -0.04123
v -0.05718 0.05853 -0.03857
v 0.04654 0.05853 -0.03324
v 0.02526 0.05853 0.03590
v -0.04388 0.07980 0.03324
v 0.02526 0.08513 -0.03590
v -0.04122 0.08513 -0.02261
v 0.05986 0.07183 0.00664
v -0.05718 0.05853 -0.00398
v 0.05186 0.05853 0.02793
v -0.05718 0.07980 -0.03324
v 0.04121 0.07980 -0.03857
v -0.04122 0.08513 0.02527
v 0.03324 0.07980 0.04123
v 0.04919 0.08513 -0.00132
v -0.04388 0.07448 0.03324
v 0.05986 0.05853 -0.01196
v 0.03324 0.07183 -0.04123
v -0.05186 0.07980 -0.04123
v 0.05186 0.07980 0.03059
v -0.05985 0.07183 -0.01196
v 0.05718 0.07715 -0.01196
v -0.04920 0.05853 0.00398
v 0.00398 0.08513 0.03590
v 0.05986 0.05853 0.01462
v -0.05186 0.08247 0.00398
v 0.02259 0.07448 0.04123
v 0.04121 0.05853 -0.03590
v 0.03589 0.07980 -0.04123
v 0.04654 0.07980 -0.03324
v -0.03058 0.08513 -0.03324
v 0.04121 0.07183 0.03857
v -0.05985 0.05853 -0.03590
v -0.04654 0.07980 0.03059
v 0.03856 0.08513 -0.03059
v 0.05451 0.07980 0.02527
v 0.03856 0.05853 0.03590
v -0.05985 0.06119 -0.00931
v -0.05186 0.08247 -0.03324
v 0.04654 0.08513 0.02527
v 0.05186 0.08247 -0.01462
v -0.05718 0.07715 -0.00398
v 0.02259 0.07980 0.04123
v 0.04919 0.07715 -0.03059
v -0.03324 0.08513 0.03059
v 0.04654 0.07980 0.03590
v -0.05985 0.06917 -0.03324
v -0.05718 0.07715 -0.03857
v -0.04654 0.08247 -0.03857
v 0.05451 0.07448 0.02793
v -0.04388 0.08513 0.01196
v -0.04654 0.07448 0.03059
v 0.04654 0.07183 0.03590
v 0.01195 0.05853 0.03059
v 0.03856 0.08247 0.03857
v -0.04654 0.05853 -0.03857
v 0.03324 0.07448 0.04123
v 0.05718 0.07715 0.01729
v -0.03590 0.08247 0.03324
v -0.05718 0.07980 -0.01462
v -0.05718 0.07448 -0.00132
v 0.05986 0.06917 -0.00664
v 0.04121 0.08247 -0.03590
v 0.05985 -0.01595 -0.03590
v 0.03060 0.01595 0.04655
v 0.02528 0.01595 0.04655
v 0.04389 0.05853 -0.03590
v 0.00399 -0.05053 -0.04122
v 0.05985 -0.05053 0.02527
v 0.00399 0.05853 -0.03058
v 0.05985 0.05319 0.02792
v 0.00399 -0.05053 0.00665
v 0.01198 0.05853 0.02792
v 0.03857 -0.05053 -0.04122
v 0.06518 0.03724 -0.00133
v 0.02262 -0.05053 0.03058
v 0.06251 0.00267 0.03591
v 0.00399 0.01595 -0.04122
v 0.05985 0.05853 -0.01196
v 0.00399 0.05853 0.00665
v 0.05985 -0.04786 -0.01463
v 0.04123 0.05853 0.03590
v 0.05985 0.00531 -0.03857
v 0.00932 -0.00531 0.02527
v 0.03325 0.00001 0.04655
v 0.06518 -0.00797 0.01197
v 0.05719 0.04521 0.03590
v 0.02262 0.00797 0.04655
v 0.02262 0.05319 -0.03857
v 0.06518 0.00532 -0.01196
v 0.06518 0.03724 0.01995
v 0.05719 0.04521 -0.03058
v 0.00399 0.01063 0.01463
v 0.02528 0.05853 0.03590
v 0.05719 -0.03989 -0.03058
v 0.06251 -0.04255 0.01728
v 0.06251 0.05586 0.01462
v 0.05719 -0.00531 0.03857
v 0.03591 -0.05053 0.03058
v 0.06251 0.01595 -0.02793
v 0.05985 -0.04521 0.02792
v 0.06518 0.00000 0.02527
v 0.05187 -0.05053 -0.02793
v 0.01730 -0.03191 0.03058
v 0.06251 0.04256 0.03059
v 0.03060 0.05319 -0.03857
v 0.05719 0.05853 0.02260
v 0.04921 0.05319 -0.03590
v 0.04123 -0.04786 -0.04122
v 0.06251 -0.04255 0.00665
v 0.05719 0.00797 0.03857
v 0.05985 -0.05053 -0.00931
v 0.05985 -0.00797 -0.03857
v 0.05719 -0.02925 -0.03590
v 0.03325 0.01329 0.04655
v 0.06251 -0.03456 0.02527
v 0.00666 0.01595 -0.04122
v 0.01464 0.05853 0.03058
v 0.06251 -0.00264 -0.02793
v 0.06251 0.04788 -0.00930
v 0.05453 0.05319 -0.03058
v 0.01996 0.05853 -0.03590
v 0.00399 -0.00531 0.01463
v 0.02794 0.00001 0.04655
v 0.00932 0.01329 0.02527
v 0.01198 -0.01329 0.02792
v 0.06518 0.04256 0.00398
v -0.01197 -0.00797 -0.04123
v 0.00399 0.01329 0.01197
v 0.00133 0.01329 0.01197
v -0.00133 0.05853 -0.03325
v -0.02793 0.05853 0.00399
v -0.02793 -0.05053 0.00664
v 0.00399 -0.05053 -0.04123
v -0.02793 0.05053 -0.03857
v 0.00399 -0.05053 0.00664
v -0.02793 -0.05053 -0.02261
v 0.00399 0.05853 0.00664
v 0.00399 0.01861 -0.04123
v -0.00931 -0.05053 -0.04123
v -0.02793 0.00267 -0.03591
v 0.00399 0.05853 -0.03058
v -0.02793 0.01861 0.00664
v 0.00133 0.05053 -0.03857
v -0.00133 -0.00797 0.01197
v -0.02527 0.05853 -0.02261
v 0.00399 -0.01329 0.01197
v -0.02527 0.00531 -0.03857
v -0.01463 0.05853 -0.03325
v -0.01197 0.01595 -0.04123
v -0.00400 0.02127 -0.04123
v 0.00133 0.05853 0.00664
v -0.02793 0.05853 -0.00665
v -0.00133 0.00531 0.01197
v -0.02793 0.03191 -0.01197
v -0.06518 -0.03456 -0.02793
v -0.06251 -0.04786 -0.02793
v -0.06518 -0.02659 -0.00931
v -0.06251 0.05585 -0.02793
v -0.02793 -0.05053 -0.02261
v -0.05719 0.05853 -0.00931
v -0.02793 -0.05053 -0.00931
v -0.04390 0.05853 -0.02793
v -0.02793 0.03457 -0.02261
v -0.04124 0.05853 -0.00931
v -0.05985 -0.05053 -0.01197
v -0.06518 0.03723 -0.01995
v -0.05453 -0.05053 -0.02793
v -0.06251 0.04521 -0.01197
v -0.02793 0.01329 -0.00931
v -0.05453 -0.05053 -0.00931
v -0.06518 0.03723 -0.02793
v -0.05187 -0.04521 -0.02793
v -0.06251 0.05585 -0.01729
v -0.05985 0.05853 -0.02793
v -0.04124 0.05853 -0.02261
v -0.06251 -0.04786 -0.01729
v -0.06518 -0.01860 -0.00931
v -0.02793 0.03457 -0.01463
v -0.05985 0.05853 -0.01197
v -0.05985 -0.05053 -0.02793
v -0.06518 0.02925 -0.01729
v -0.02793 0.02128 0.00399
v -0.06252 -0.02926 -0.00133
v -0.03326 -0.05054 -0.00399
v -0.02793 -0.05054 0.00665
v -0.05187 -0.00533 0.00665
v -0.04921 0.02128 -0.00133
v -0.05453 -0.04787 0.00399
v -0.02793 0.02128 -0.00133
v -0.06252 -0.00267 0.00399
v -0.03059 0.01595 0.00665
v -0.02793 -0.03989 -0.00399
v -0.04921 0.02128 0.00399
v -0.06252 -0.00267 -0.00133
v -0.05187 -0.05054 -0.00133
v -0.05187 -0.02659 0.00665
v -0.06252 -0.02659 0.00399
v -0.02793 -0.05054 -0.00399
v -0.02793 0.01595 0.00665
v -0.03326 -0.05054 0.00665
v -0.03326 -0.04255 -0.00399
v -0.05187 -0.05054 0.00399
v -0.05453 -0.04787 -0.00133
v -0.02793 0.05853 -0.00665
v -0.05719 0.03193 -0.00133
v -0.05187 0.02395 -0.00133
v -0.02793 0.05853 0.00399
v -0.02793 0.02129 0.00399
v -0.05719 0.05853 -0.00931
v -0.05719 0.03991 0.00399
v -0.02793 0.02129 -0.00133
v -0.04921 0.05853 0.00399
v -0.04921 0.02129 0.00399
v -0.03857 0.05586 -0.00931
v -0.04921 0.02129 -0.00133
v -0.05719 0.05586 -0.00931
v -0.05719 0.05853 -0.00665
v -0.05719 0.03193 0.00399
v -0.06517 -0.02925 -0.03857
v -0.04921 0.05853 -0.02793
v -0.05985 0.05853 -0.02793
v -0.05454 -0.04786 -0.02793
v -0.04921 0.05853 -0.03857
v -0.05188 -0.05053 -0.03857
v -0.06251 0.01329 -0.04389
v -0.06517 -0.03456 -0.02793
v -0.06517 0.03191 -0.03857
v -0.06517 0.03723 -0.02793
v -0.05985 0.05585 -0.03857
v -0.05454 -0.04521 -0.04123
v -0.05188 -0.04255 -0.02793
v -0.05985 -0.04786 -0.03857
v -0.04921 0.02127 -0.03857
v -0.05985 -0.00264 -0.04389
v -0.06251 -0.03456 -0.04123
v -0.06251 0.05585 -0.03326
v -0.06251 -0.04521 -0.02793
v -0.04921 0.02127 -0.03326
v -0.06517 -0.00531 -0.04123
v -0.05719 -0.05053 -0.03326
v -0.05719 0.05853 -0.03857
v -0.05188 -0.05053 -0.03326
v -0.06251 -0.00264 -0.04389
v -0.06251 -0.04521 -0.03326
v -0.06251 0.05585 -0.02793
v -0.05985 0.01329 -0.04389
v -0.06517 0.01861 -0.04123
v -0.05985 -0.04255 -0.04123
v -0.02793 0.02394 -0.03059
v -0.04921 0.01862 -0.03857
v -0.04655 0.01065 -0.03857
v -0.03326 0.03724 -0.03857
v -0.04921 0.04256 -0.03325
v -0.02793 0.00532 -0.03059
v -0.02793 0.00532 -0.03591
v -0.04921 0.02129 -0.03325
v -0.04921 0.04256 -0.03857
v -0.03326 0.04256 -0.03325
v -0.03592 0.03192 -0.03059
v -0.03592 0.01065 -0.03059
v -0.02793 0.02394 -0.03591
v -0.03326 0.02129 -0.03857
v -0.04655 0.01065 -0.03591
v -0.03326 0.04256 -0.03591
v -0.03060 0.00532 -0.03059
v -0.03326 0.04257 -0.03857
v -0.04655 0.05853 -0.02793
v -0.04655 0.05853 -0.03857
v -0.04921 0.04257 -0.03857
v -0.02793 0.05055 -0.03857
v -0.03326 0.04257 -0.03325
v -0.04921 0.04257 -0.03325
v -0.04921 0.05586 -0.02793
v -0.03060 0.04789 -0.03325
v -0.04921 0.05853 -0.03857
v -0.02793 0.05055 -0.03591
f 40 58 64 
f 5 4 8 
f 4 5 9 
f 4 10 11 
f 8 4 11 
f 9 5 12 
f 17 1 20 
f 5 8 22 
f 8 13 22 
f 1 17 23 
f 19 1 23 
f 25 2 26 
f 14 15 28 
f 19 7 28 
f 11 10 29 
f 10 23 29 
f 23 17 29 
f 21 6 32 
f 4 9 33 
f 1 19 34 
f 19 28 34 
f 3 27 35 
f 16 25 36 
f 26 12 36 
f 25 26 36 
f 17 20 37 
f 29 17 37 
f 7 19 38 
f 31 7 38 
f 9 12 39 
f 12 26 39 
f 32 14 40 
f 32 40 41 
f 27 3 41 
f 21 32 41 
f 40 27 41 
f 12 5 42 
f 5 22 42 
f 24 16 42 
f 22 24 42 
f 8 11 43 
f 11 29 43 
f 37 8 43 
f 29 37 43 
f 13 8 44 
f 8 20 44 
f 30 13 44 
f 20 30 44 
f 15 14 45 
f 32 6 45 
f 14 32 45 
f 4 33 46 
f 33 18 46 
f 7 31 47 
f 35 27 47 
f 22 13 48 
f 24 22 48 
f 13 30 48 
f 2 3 49 
f 26 2 49 
f 3 35 49 
f 9 39 49 
f 39 26 49 
f 3 2 50 
f 2 25 50 
f 25 21 50 
f 41 3 50 
f 21 41 50 
f 28 15 51 
f 15 34 51 
f 34 28 51 
f 23 10 52 
f 19 23 52 
f 10 38 52 
f 38 19 52 
f 20 1 53 
f 30 20 53 
f 1 34 53 
f 34 15 53 
f 6 21 54 
f 16 24 54 
f 25 16 54 
f 21 25 54 
f 24 48 55 
f 48 30 55 
f 6 54 55 
f 54 24 55 
f 15 45 56 
f 45 6 56 
f 33 9 57 
f 18 33 57 
f 35 18 57 
f 9 49 57 
f 49 35 57 
f 28 7 58 
f 14 28 58 
f 40 14 58 
f 18 35 59 
f 46 18 59 
f 31 46 59 
f 47 31 59 
f 35 47 59 
f 53 15 60 
f 30 53 60 
f 6 55 60 
f 55 30 60 
f 15 56 60 
f 56 6 60 
f 20 8 61 
f 8 37 61 
f 37 20 61 
f 10 4 62 
f 38 10 62 
f 31 38 62 
f 4 46 62 
f 46 31 62 
f 36 12 63 
f 16 36 63 
f 12 42 63 
f 42 16 63 
f 27 40 64 
f 7 47 64 
f 47 27 64 
f 58 7 64 
