# Original object name hint: convex_3
v -0.00943 -0.04002 -0.05650
v -0.00472 0.04002 -0.05414
v -0.00472 0.04002 -0.05650
v -0.06827 0.01882 -0.04709
v 0.03294 -0.00469 -0.05179
v -0.06119 -0.01411 -0.04238
v -0.04707 0.00235 -0.05885
v 0.02117 -0.00235 -0.06120
v -0.05884 -0.02353 -0.05414
v 0.03059 0.01882 -0.05179
v -0.04707 0.03765 -0.04944
v -0.01648 0.02824 -0.06120
v 0.01647 -0.02824 -0.05179
v -0.00236 -0.02589 -0.06120
v -0.05413 0.02589 -0.05650
v -0.06354 0.00469 -0.04238
v 0.03294 0.02118 -0.05650
v 0.02353 -0.01882 -0.05885
v -0.00943 -0.03765 -0.05179
v -0.06827 -0.01411 -0.04238
v -0.06354 -0.01411 -0.05414
v 0.00234 0.02824 -0.06120
v -0.00943 0.04002 -0.05179
v -0.04707 0.03765 -0.05414
v -0.05649 -0.02589 -0.04944
v 0.03530 -0.00469 -0.05650
v -0.02353 -0.00706 -0.06120
v 0.00940 -0.03295 -0.05885
v -0.06354 0.01882 -0.05414
v -0.06590 0.02118 -0.04473
v -0.02118 0.03765 -0.05885
v -0.00001 -0.03765 -0.05179
v -0.06827 -0.01177 -0.04944
v 0.03059 0.01411 -0.05885
v -0.02588 0.02118 -0.06120
v -0.02823 -0.02353 -0.05885
v 0.03294 0.01411 -0.05179
v 0.02353 -0.02353 -0.05414
v -0.00943 -0.03531 -0.05885
v -0.05884 0.01177 -0.05650
v -0.04237 -0.00940 -0.05885
v -0.00001 -0.04002 -0.05650
v 0.00469 -0.02589 -0.06120
v -0.05649 -0.02589 -0.05414
v -0.02353 0.04002 -0.05650
v -0.04707 0.01411 -0.05885
v 0.03294 0.02118 -0.05414
v 0.01647 0.01648 -0.06120
v 0.01647 -0.03060 -0.05650
v 0.03059 -0.00706 -0.05885
v -0.06119 0.00235 -0.04238
v -0.06354 0.02118 -0.04473
v 0.02117 -0.02353 -0.05179
v -0.06827 0.00235 -0.04238
v -0.00943 -0.04002 -0.05414
v 0.03530 0.01411 -0.05414
v -0.02823 0.00235 -0.06120
v -0.00708 0.03765 -0.05885
v -0.06827 0.01648 -0.04944
v -0.06119 0.02353 -0.05414
v -0.04942 0.03060 -0.05650
v -0.03765 0.03765 -0.04944
v -0.00001 -0.04002 -0.05414
v 0.03530 -0.00469 -0.05414
v -0.07062 -0.03766 -0.02825
v -0.06592 0.04943 0.01648
v -0.06827 0.04943 0.01648
v -0.06356 -0.03766 0.01648
v -0.06121 -0.00470 -0.04237
v -0.07533 0.01883 -0.02353
v -0.07533 -0.00470 0.01648
v -0.06121 0.05414 -0.01883
v -0.05885 -0.05414 -0.02589
v -0.05885 -0.02117 0.00235
v -0.07297 -0.04000 -0.00707
v -0.07062 0.04708 -0.02589
v -0.07062 -0.00942 -0.04237
v -0.07297 0.04235 0.00941
v -0.06356 0.04708 0.01648
v -0.07062 -0.03766 0.01648
v -0.06592 0.01883 -0.04001
v -0.07062 0.05414 -0.01647
v -0.05885 -0.02117 -0.02825
v -0.06592 -0.05178 -0.00943
v -0.07533 0.00234 -0.02353
v -0.07533 0.01646 0.01648
v -0.06592 -0.05178 -0.02589
v -0.07062 0.01646 -0.04001
v -0.06356 -0.01648 -0.04237
v -0.06121 0.05414 -0.01178
v -0.05885 -0.03531 0.00235
v -0.07297 -0.03531 -0.02118
v -0.07297 0.04472 -0.01883
v -0.06121 -0.04943 -0.00472
v -0.07533 -0.01177 -0.00472
v -0.07297 0.01646 -0.03531
v -0.07062 -0.04707 -0.02118
v -0.07062 -0.04707 -0.00472
v -0.07297 -0.03060 0.01648
v -0.06592 0.05650 -0.01647
v -0.06356 0.05179 -0.02353
v -0.06827 -0.01648 -0.04237
v -0.07062 0.04708 0.01648
v -0.06356 0.02118 -0.03766
v -0.07533 0.02118 0.00705
v -0.07297 -0.00235 -0.03531
v -0.06121 0.05179 -0.02118
v -0.06827 0.00471 -0.04237
v -0.07533 -0.01177 0.00705
v -0.06356 -0.05414 -0.02589
v -0.05885 -0.05414 -0.02118
v -0.07062 0.05414 -0.01178
v -0.06356 0.05650 -0.01412
v -0.06827 0.05414 -0.02118
v -0.06121 0.05179 -0.00943
v -0.06827 -0.04472 0.00470
v -0.06121 -0.00942 -0.04237
v -0.05885 -0.01883 -0.02589
v -0.07297 0.03766 0.01648
v -0.07062 0.02352 -0.03766
v -0.07297 0.03059 -0.02825
v -0.07297 0.04472 -0.00472
v -0.07297 -0.04000 -0.01412
v -0.07533 0.02118 -0.01883
v -0.05885 -0.01883 -0.00001
v -0.07297 -0.03531 0.00705
v 0.06591 0.03060 0.00472
v 0.06121 -0.04707 0.00236
v 0.05886 -0.04472 0.00001
v 0.05414 0.01176 0.04942
v 0.07533 0.00235 0.04707
v 0.07297 0.00235 -0.01882
v 0.05650 0.01411 -0.02118
v 0.06827 -0.04001 0.02824
v 0.05414 -0.01883 0.04471
v 0.06591 -0.03765 -0.02118
v 0.07533 0.02353 0.03059
v 0.06827 0.02824 -0.02118
v 0.07297 0.00235 0.05650
v 0.05886 -0.03765 -0.02118
v 0.07533 -0.00237 0.01413
v 0.06121 0.03060 -0.01647
v 0.05886 -0.03530 0.03765
v 0.05414 0.01647 0.04707
v 0.07062 0.01176 -0.02589
v 0.06827 -0.04001 -0.00941
v 0.05414 -0.01647 0.02353
v 0.07297 0.02353 0.04000
v 0.07533 0.02353 0.00707
v 0.07297 0.01176 0.05650
v 0.05650 -0.04001 0.00236
v 0.05886 -0.00472 -0.02589
v 0.05414 0.01647 0.02353
v 0.05650 -0.00941 -0.02118
v 0.07062 0.03060 -0.01176
v 0.06827 0.02824 0.02824
v 0.06356 -0.03059 0.04236
v 0.05886 -0.04472 0.01882
v 0.06827 0.00235 0.05650
v 0.06591 -0.04707 0.01413
v 0.06121 0.01411 -0.02589
v 0.06827 -0.01176 -0.02589
v 0.05650 0.02117 -0.01647
v 0.07297 0.02824 0.02588
v 0.07533 0.00235 0.00236
v 0.06827 -0.04236 0.02353
v 0.07297 0.01647 -0.01647
v 0.05414 -0.00472 0.04942
v 0.06356 0.02117 0.04471
v 0.06827 -0.03295 0.03765
v 0.06121 0.03060 -0.00705
v 0.05886 -0.02588 0.04471
v 0.05650 -0.03765 0.02588
v 0.07533 -0.00237 0.03765
v 0.06827 -0.03295 -0.01882
v 0.06121 0.02824 -0.02118
v 0.06591 0.02824 0.02588
v 0.06591 -0.03765 0.03530
v 0.06591 -0.04472 -0.00470
v 0.05886 -0.04236 -0.01411
v 0.06827 -0.04236 0.00001
v 0.07062 -0.00237 -0.02589
v 0.07533 0.01647 0.04471
v 0.06121 -0.03059 -0.02353
v 0.05650 -0.03530 -0.00470
v 0.07533 0.01647 0.00001
v 0.07533 0.02588 0.01413
v 0.05414 0.01411 0.02117
v 0.07062 0.01176 0.05650
v 0.05414 -0.02118 0.04236
v -0.04944 -0.04237 0.02354
v -0.07533 -0.00472 0.01648
v -0.07533 -0.00472 0.01883
v -0.04944 0.00705 0.02118
v -0.07062 0.00470 0.02589
v -0.06826 -0.03766 0.01648
v -0.06826 -0.03295 0.02589
v -0.04944 0.00705 0.02589
v -0.06591 0.01411 0.01648
v -0.04944 -0.04237 0.01883
v -0.07533 0.01411 0.01883
v -0.04944 -0.03295 0.02589
v -0.07062 -0.03531 0.02354
v -0.07298 0.01176 0.02354
v -0.06121 -0.03060 0.01648
v -0.07298 -0.02589 0.01648
v -0.07533 -0.00236 0.02118
v -0.04944 -0.03295 0.01883
v -0.06826 0.01411 0.02118
v -0.07533 0.01411 0.01648
v -0.07062 -0.00942 0.02589
v -0.05179 -0.04237 0.02354
v -0.06121 -0.01647 0.01648
v -0.06826 -0.03766 0.02118
v -0.06356 0.04708 0.01883
v -0.07298 0.01413 0.01648
v -0.07298 0.01413 0.02118
v -0.06592 0.01413 0.01883
v -0.07062 0.04708 0.01648
v -0.06356 0.04237 0.01648
v -0.06592 0.04708 0.02118
v -0.07062 0.04472 0.02118
v -0.06592 0.02354 0.02118
v -0.06592 0.01413 0.01648
v -0.07298 0.02590 0.01883
v -0.04944 -0.04472 0.02119
v 0.00705 0.03296 0.02119
v 0.05177 0.01882 0.03296
v 0.05414 -0.00942 0.02119
v -0.04944 0.00706 0.02589
v 0.04473 -0.01882 0.03296
v -0.01411 -0.05650 0.01883
v -0.01411 0.03060 0.01883
v -0.04944 -0.03530 0.02589
v 0.01412 0.01176 0.03296
v 0.05414 0.01412 0.02119
v -0.04944 -0.02589 0.01883
v -0.02589 -0.05650 0.02354
v -0.03295 0.02118 0.02589
v 0.05414 -0.01646 0.03296
v 0.01648 -0.02354 0.01883
v -0.04944 0.00706 0.02119
v 0.00705 0.03296 0.01883
v 0.00001 0.03296 0.02354
v 0.01176 -0.00000 0.03296
v 0.05414 -0.01646 0.02589
v -0.01411 -0.05650 0.02354
v -0.04944 -0.04472 0.01883
v 0.04000 -0.01882 0.03296
v 0.05414 0.01648 0.02354
v 0.05414 0.01648 0.03296
v -0.02589 -0.05650 0.01883
v 0.04707 0.01882 0.03296
v -0.03295 0.02118 0.02119
v 0.01648 -0.03060 0.01883
v 0.05414 -0.01412 0.02354
v 0.05177 0.01882 0.02825
v 0.01176 0.01882 0.01883
v -0.04944 -0.04237 0.02354
v -0.01411 0.03060 0.02119
v 0.01176 0.00940 0.03296
v 0.00470 0.03296 0.02354
v -0.00706 -0.00235 0.04944
v 0.03766 0.01883 0.05178
v 0.03766 0.01883 0.04238
v 0.03295 -0.01648 0.04473
v 0.03766 0.00941 0.06120
v 0.01413 0.01412 0.04238
v 0.01413 -0.01648 0.04944
v -0.00235 0.00706 0.05178
v 0.03766 -0.00471 0.04002
v 0.01647 -0.01648 0.04473
v 0.01883 0.01883 0.04944
v 0.03059 0.01412 0.06120
v -0.00470 -0.00471 0.05178
v 0.03059 -0.01648 0.04944
v 0.01178 0.00471 0.04238
v 0.03295 0.01647 0.04002
v -0.00470 0.00471 0.04708
v 0.01883 0.01883 0.04473
v 0.03059 0.00941 0.06120
v -0.00470 -0.00235 0.04708
v -0.00706 0.00001 0.05178
v 0.03766 0.01647 0.05885
v 0.03766 -0.00471 0.04708
v 0.00001 0.00941 0.04708
v 0.02824 0.00706 0.04002
v 0.03295 -0.01648 0.04708
v 0.02118 0.01883 0.04238
v 0.03295 -0.00235 0.04002
v 0.03059 0.01647 0.05885
v 0.03766 0.01647 0.04002
v 0.03059 0.01883 0.05414
v -0.00470 -0.00471 0.04944
v 0.04002 -0.01412 0.03767
v 0.04002 0.01412 0.05414
v 0.03767 0.01412 0.05414
v 0.04473 0.01647 0.03296
v 0.05414 -0.01412 0.04472
v 0.05414 0.01647 0.04708
v 0.05414 -0.01412 0.03296
v 0.03767 0.01883 0.04002
v 0.05414 0.01647 0.03296
v 0.03767 0.00001 0.05178
v 0.04002 -0.00941 0.03296
v 0.05414 -0.00235 0.04943
v 0.04238 -0.01648 0.04002
v 0.03767 -0.00706 0.03767
v 0.04473 0.01883 0.04943
v 0.04002 0.00706 0.03296
v 0.04002 0.00471 0.05414
v 0.04943 0.01883 0.03767
v 0.05414 0.01176 0.04943
v 0.05179 -0.01648 0.03531
v 0.03767 0.01883 0.04943
v 0.05414 -0.01648 0.04237
v 0.03767 0.01647 0.03767
v 0.04708 -0.01412 0.03296
v 0.03767 -0.00706 0.04472
v 0.05179 -0.01412 0.04472
f 212 203 214 
f 191 194 198 
f 195 197 198 
f 196 192 199 
f 198 194 199 
f 194 191 200 
f 192 193 201 
f 197 191 202 
f 191 198 202 
f 198 197 202 
f 195 198 204 
f 196 199 205 
f 200 196 205 
f 193 192 206 
f 192 196 206 
f 196 203 206 
f 206 203 207 
f 201 193 207 
f 204 201 207 
f 193 206 207 
f 199 194 208 
f 194 200 208 
f 200 205 208 
f 198 199 209 
f 199 201 209 
f 204 198 209 
f 201 204 209 
f 199 192 210 
f 192 201 210 
f 201 199 210 
f 197 195 211 
f 203 197 211 
f 195 204 211 
f 207 203 211 
f 204 207 211 
f 191 197 212 
f 200 191 212 
f 196 200 212 
f 197 203 212 
f 205 199 213 
f 199 208 213 
f 208 205 213 
f 203 196 214 
f 196 212 214 
