# Original object name hint: convex_7
v -0.00943 -0.04002 -0.05650
v -0.00472 0.04002 -0.05414
v -0.00472 0.04002 -0.05650
v -0.06827 0.01882 -0.04709
v 0.03294 -0.00469 -0.05179
v -0.06119 -0.01411 -0.04238
v -0.04707 0.00235 -0.05885
v 0.02117 -0.00235 -0.06120
v -0.05884 -0.02353 -0.05414
v 0.03059 0.01882 -0.05179
v -0.04707 0.03765 -0.04944
v -0.01648 0.02824 -0.06120
v 0.01647 -0.02824 -0.05179
v -0.00236 -0.02589 -0.06120
v -0.05413 0.02589 -0.05650
v -0.06354 0.00469 -0.04238
v 0.03294 0.02118 -0.05650
v 0.02353 -0.01882 -0.05885
v -0.00943 -0.03765 -0.05179
v -0.06827 -0.01411 -0.04238
v -0.06354 -0.01411 -0.05414
v 0.00234 0.02824 -0.06120
v -0.00943 0.04002 -0.05179
v -0.04707 0.03765 -0.05414
v -0.05649 -0.02589 -0.04944
v 0.03530 -0.00469 -0.05650
v -0.02353 -0.00706 -0.06120
v 0.00940 -0.03295 -0.05885
v -0.06354 0.01882 -0.05414
v -0.06590 0.02118 -0.04473
v -0.02118 0.03765 -0.05885
v -0.00001 -0.03765 -0.05179
v -0.06827 -0.01177 -0.04944
v 0.03059 0.01411 -0.05885
v -0.02588 0.02118 -0.06120
v -0.02823 -0.02353 -0.05885
v 0.03294 0.01411 -0.05179
v 0.02353 -0.02353 -0.05414
v -0.00943 -0.03531 -0.05885
v -0.05884 0.01177 -0.05650
v -0.04237 -0.00940 -0.05885
v -0.00001 -0.04002 -0.05650
v 0.00469 -0.02589 -0.06120
v -0.05649 -0.02589 -0.05414
v -0.02353 0.04002 -0.05650
v -0.04707 0.01411 -0.05885
v 0.03294 0.02118 -0.05414
v 0.01647 0.01648 -0.06120
v 0.01647 -0.03060 -0.05650
v 0.03059 -0.00706 -0.05885
v -0.06119 0.00235 -0.04238
v -0.06354 0.02118 -0.04473
v 0.02117 -0.02353 -0.05179
v -0.06827 0.00235 -0.04238
v -0.00943 -0.04002 -0.05414
v 0.03530 0.01411 -0.05414
v -0.02823 0.00235 -0.06120
v -0.00708 0.03765 -0.05885
v -0.06827 0.01648 -0.04944
v -0.06119 0.02353 -0.05414
v -0.04942 0.03060 -0.05650
v -0.03765 0.03765 -0.04944
v -0.00001 -0.04002 -0.05414
v 0.03530 -0.00469 -0.05414
v -0.07062 -0.03766 -0.02825
v -0.06592 0.04943 0.01648
v -0.06827 0.04943 0.01648
v -0.06356 -0.03766 0.01648
v -0.06121 -0.00470 -0.04237
v -0.07533 0.01883 -0.02353
v -0.07533 -0.00470 0.01648
v -0.06121 0.05414 -0.01883
v -0.05885 -0.05414 -0.02589
v -0.05885 -0.02117 0.00235
v -0.07297 -0.04000 -0.00707
v -0.07062 0.04708 -0.02589
v -0.07062 -0.00942 -0.04237
v -0.07297 0.04235 0.00941
v -0.06356 0.04708 0.01648
v -0.07062 -0.03766 0.01648
v -0.06592 0.01883 -0.04001
v -0.07062 0.05414 -0.01647
v -0.05885 -0.02117 -0.02825
v -0.06592 -0.05178 -0.00943
v -0.07533 0.00234 -0.02353
v -0.07533 0.01646 0.01648
v -0.06592 -0.05178 -0.02589
v -0.07062 0.01646 -0.04001
v -0.06356 -0.01648 -0.04237
v -0.06121 0.05414 -0.01178
v -0.05885 -0.03531 0.00235
v -0.07297 -0.03531 -0.02118
v -0.07297 0.04472 -0.01883
v -0.06121 -0.04943 -0.00472
v -0.07533 -0.01177 -0.00472
v -0.07297 0.01646 -0.03531
v -0.07062 -0.04707 -0.02118
v -0.07062 -0.04707 -0.00472
v -0.07297 -0.03060 0.01648
v -0.06592 0.05650 -0.01647
v -0.06356 0.05179 -0.02353
v -0.06827 -0.01648 -0.04237
v -0.07062 0.04708 0.01648
v -0.06356 0.02118 -0.03766
v -0.07533 0.02118 0.00705
v -0.07297 -0.00235 -0.03531
v -0.06121 0.05179 -0.02118
v -0.06827 0.00471 -0.04237
v -0.07533 -0.01177 0.00705
v -0.06356 -0.05414 -0.02589
v -0.05885 -0.05414 -0.02118
v -0.07062 0.05414 -0.01178
v -0.06356 0.05650 -0.01412
v -0.06827 0.05414 -0.02118
v -0.06121 0.05179 -0.00943
v -0.06827 -0.04472 0.00470
v -0.06121 -0.00942 -0.04237
v -0.05885 -0.01883 -0.02589
v -0.07297 0.03766 0.01648
v -0.07062 0.02352 -0.03766
v -0.07297 0.03059 -0.02825
v -0.07297 0.04472 -0.00472
v -0.07297 -0.04000 -0.01412
v -0.07533 0.02118 -0.01883
v -0.05885 -0.01883 -0.00001
v -0.07297 -0.03531 0.00705
v 0.06591 0.03060 0.00472
v 0.06121 -0.04707 0.00236
v 0.05886 -0.04472 0.00001
v 0.05414 0.01176 0.04942
v 0.07533 0.00235 0.04707
v 0.07297 0.00235 -0.01882
v 0.05650 0.01411 -0.02118
v 0.06827 -0.04001 0.02824
v 0.05414 -0.01883 0.04471
v 0.06591 -0.03765 -0.02118
v 0.07533 0.02353 0.03059
v 0.06827 0.02824 -0.02118
v 0.07297 0.00235 0.05650
v 0.05886 -0.03765 -0.02118
v 0.07533 -0.00237 0.01413
v 0.06121 0.03060 -0.01647
v 0.05886 -0.03530 0.03765
v 0.05414 0.01647 0.04707
v 0.07062 0.01176 -0.02589
v 0.06827 -0.04001 -0.00941
v 0.05414 -0.01647 0.02353
v 0.07297 0.02353 0.04000
v 0.07533 0.02353 0.00707
v 0.07297 0.01176 0.05650
v 0.05650 -0.04001 0.00236
v 0.05886 -0.00472 -0.02589
v 0.05414 0.01647 0.02353
v 0.05650 -0.00941 -0.02118
v 0.07062 0.03060 -0.01176
v 0.06827 0.02824 0.02824
v 0.06356 -0.03059 0.04236
v 0.05886 -0.04472 0.01882
v 0.06827 0.00235 0.05650
v 0.06591 -0.04707 0.01413
v 0.06121 0.01411 -0.02589
v 0.06827 -0.01176 -0.02589
v 0.05650 0.02117 -0.01647
v 0.07297 0.02824 0.02588
v 0.07533 0.00235 0.00236
v 0.06827 -0.04236 0.02353
v 0.07297 0.01647 -0.01647
v 0.05414 -0.00472 0.04942
v 0.06356 0.02117 0.04471
v 0.06827 -0.03295 0.03765
v 0.06121 0.03060 -0.00705
v 0.05886 -0.02588 0.04471
v 0.05650 -0.03765 0.02588
v 0.07533 -0.00237 0.03765
v 0.06827 -0.03295 -0.01882
v 0.06121 0.02824 -0.02118
v 0.06591 0.02824 0.02588
v 0.06591 -0.03765 0.03530
v 0.06591 -0.04472 -0.00470
v 0.05886 -0.04236 -0.01411
v 0.06827 -0.04236 0.00001
v 0.07062 -0.00237 -0.02589
v 0.07533 0.01647 0.04471
v 0.06121 -0.03059 -0.02353
v 0.05650 -0.03530 -0.00470
v 0.07533 0.01647 0.00001
v 0.07533 0.02588 0.01413
v 0.05414 0.01411 0.02117
v 0.07062 0.01176 0.05650
v 0.05414 -0.02118 0.04236
v -0.04944 -0.04237 0.02354
v -0.07533 -0.00472 0.01648
v -0.07533 -0.00472 0.01883
v -0.04944 0.00705 0.02118
v -0.07062 0.00470 0.02589
v -0.06826 -0.03766 0.01648
v -0.06826 -0.03295 0.02589
v -0.04944 0.00705 0.02589
v -0.06591 0.01411 0.01648
v -0.04944 -0.04237 0.01883
v -0.07533 0.01411 0.01883
v -0.04944 -0.03295 0.02589
v -0.07062 -0.03531 0.02354
v -0.07298 0.01176 0.02354
v -0.06121 -0.03060 0.01648
v -0.07298 -0.02589 0.01648
v -0.07533 -0.00236 0.02118
v -0.04944 -0.03295 0.01883
v -0.06826 0.01411 0.02118
v -0.07533 0.01411 0.01648
v -0.07062 -0.00942 0.02589
v -0.05179 -0.04237 0.02354
v -0.06121 -0.01647 0.01648
v -0.06826 -0.03766 0.02118
v -0.06356 0.04708 0.01883
v -0.07298 0.01413 0.01648
v -0.07298 0.01413 0.02118
v -0.06592 0.01413 0.01883
v -0.07062 0.04708 0.01648
v -0.06356 0.04237 0.01648
v -0.06592 0.04708 0.02118
v -0.07062 0.04472 0.02118
v -0.06592 0.02354 0.02118
v -0.06592 0.01413 0.01648
v -0.07298 0.02590 0.01883
v -0.04944 -0.04472 0.02119
v 0.00705 0.03296 0.02119
v 0.05177 0.01882 0.03296
v 0.05414 -0.00942 0.02119
v -0.04944 0.00706 0.02589
v 0.04473 -0.01882 0.03296
v -0.01411 -0.05650 0.01883
v -0.01411 0.03060 0.01883
v -0.04944 -0.03530 0.02589
v 0.01412 0.01176 0.03296
v 0.05414 0.01412 0.02119
v -0.04944 -0.02589 0.01883
v -0.02589 -0.05650 0.02354
v -0.03295 0.02118 0.02589
v 0.05414 -0.01646 0.03296
v 0.01648 -0.02354 0.01883
v -0.04944 0.00706 0.02119
v 0.00705 0.03296 0.01883
v 0.00001 0.03296 0.02354
v 0.01176 -0.00000 0.03296
v 0.05414 -0.01646 0.02589
v -0.01411 -0.05650 0.02354
v -0.04944 -0.04472 0.01883
v 0.04000 -0.01882 0.03296
v 0.05414 0.01648 0.02354
v 0.05414 0.01648 0.03296
v -0.02589 -0.05650 0.01883
v 0.04707 0.01882 0.03296
v -0.03295 0.02118 0.02119
v 0.01648 -0.03060 0.01883
v 0.05414 -0.01412 0.02354
v 0.05177 0.01882 0.02825
v 0.01176 0.01882 0.01883
v -0.04944 -0.04237 0.02354
v -0.01411 0.03060 0.02119
v 0.01176 0.00940 0.03296
v 0.00470 0.03296 0.02354
v -0.00706 -0.00235 0.04944
v 0.03766 0.01883 0.05178
v 0.03766 0.01883 0.04238
v 0.03295 -0.01648 0.04473
v 0.03766 0.00941 0.06120
v 0.01413 0.01412 0.04238
v 0.01413 -0.01648 0.04944
v -0.00235 0.00706 0.05178
v 0.03766 -0.00471 0.04002
v 0.01647 -0.01648 0.04473
v 0.01883 0.01883 0.04944
v 0.03059 0.01412 0.06120
v -0.00470 -0.00471 0.05178
v 0.03059 -0.01648 0.04944
v 0.01178 0.00471 0.04238
v 0.03295 0.01647 0.04002
v -0.00470 0.00471 0.04708
v 0.01883 0.01883 0.04473
v 0.03059 0.00941 0.06120
v -0.00470 -0.00235 0.04708
v -0.00706 0.00001 0.05178
v 0.03766 0.01647 0.05885
v 0.03766 -0.00471 0.04708
v 0.00001 0.00941 0.04708
v 0.02824 0.00706 0.04002
v 0.03295 -0.01648 0.04708
v 0.02118 0.01883 0.04238
v 0.03295 -0.00235 0.04002
v 0.03059 0.01647 0.05885
v 0.03766 0.01647 0.04002
v 0.03059 0.01883 0.05414
v -0.00470 -0.00471 0.04944
v 0.04002 -0.01412 0.03767
v 0.04002 0.01412 0.05414
v 0.03767 0.01412 0.05414
v 0.04473 0.01647 0.03296
v 0.05414 -0.01412 0.04472
v 0.05414 0.01647 0.04708
v 0.05414 -0.01412 0.03296
v 0.03767 0.01883 0.04002
v 0.05414 0.01647 0.03296
v 0.03767 0.00001 0.05178
v 0.04002 -0.00941 0.03296
v 0.05414 -0.00235 0.04943
v 0.04238 -0.01648 0.04002
v 0.03767 -0.00706 0.03767
v 0.04473 0.01883 0.04943
v 0.04002 0.00706 0.03296
v 0.04002 0.00471 0.05414
v 0.04943 0.01883 0.03767
v 0.05414 0.01176 0.04943
v 0.05179 -0.01648 0.03531
v 0.03767 0.01883 0.04943
v 0.05414 -0.01648 0.04237
v 0.03767 0.01647 0.03767
v 0.04708 -0.01412 0.03296
v 0.03767 -0.00706 0.04472
v 0.05179 -0.01412 0.04472
f 307 316 320 
f 300 299 301 
f 301 298 303 
f 300 301 303 
f 297 302 304 
f 298 301 305 
f 299 300 306 
f 304 302 308 
f 305 295 308 
f 297 296 309 
f 296 300 309 
f 298 305 310 
f 305 308 310 
f 296 297 311 
f 297 304 311 
f 306 296 311 
f 299 306 311 
f 298 302 312 
f 300 303 312 
f 303 298 312 
f 309 300 312 
f 302 309 312 
f 300 296 313 
f 296 306 313 
f 306 300 313 
f 302 297 315 
f 297 309 315 
f 309 302 315 
f 301 299 316 
f 314 301 316 
f 307 314 316 
f 302 298 317 
f 308 302 317 
f 298 310 317 
f 310 308 317 
f 305 301 318 
f 295 305 318 
f 307 295 318 
f 301 314 318 
f 314 307 318 
f 295 307 319 
f 307 304 319 
f 308 295 319 
f 304 308 319 
f 304 307 320 
f 311 304 320 
f 299 311 320 
f 316 299 320 
