# Original object name hint: convex_2
v -0.00943 -0.04002 -0.05650
v -0.00472 0.04002 -0.05414
v -0.00472 0.04002 -0.05650
v -0.06827 0.01882 -0.04709
v 0.03294 -0.00469 -0.05179
v -0.06119 -0.01411 -0.04238
v -0.04707 0.00235 -0.05885
v 0.02117 -0.00235 -0.06120
v -0.05884 -0.02353 -0.05414
v 0.03059 0.01882 -0.05179
v -0.04707 0.03765 -0.04944
v -0.01648 0.02824 -0.06120
v 0.01647 -0.02824 -0.05179
v -0.00236 -0.02589 -0.06120
v -0.05413 0.02589 -0.05650
v -0.06354 0.00469 -0.04238
v 0.03294 0.02118 -0.05650
v 0.02353 -0.01882 -0.05885
v -0.00943 -0.03765 -0.05179
v -0.06827 -0.01411 -0.04238
v -0.06354 -0.01411 -0.05414
v 0.00234 0.02824 -0.06120
v -0.00943 0.04002 -0.05179
v -0.04707 0.03765 -0.05414
v -0.05649 -0.02589 -0.04944
v 0.03530 -0.00469 -0.05650
v -0.02353 -0.00706 -0.06120
v 0.00940 -0.03295 -0.05885
v -0.06354 0.01882 -0.05414
v -0.06590 0.02118 -0.04473
v -0.02118 0.03765 -0.05885
v -0.00001 -0.03765 -0.05179
v -0.06827 -0.01177 -0.04944
v 0.03059 0.01411 -0.05885
v -0.02588 0.02118 -0.06120
v -0.02823 -0.02353 -0.05885
v 0.03294 0.01411 -0.05179
v 0.02353 -0.02353 -0.05414
v -0.00943 -0.03531 -0.05885
v -0.05884 0.01177 -0.05650
v -0.04237 -0.00940 -0.05885
v -0.00001 -0.04002 -0.05650
v 0.00469 -0.02589 -0.06120
v -0.05649 -0.02589 -0.05414
v -0.02353 0.04002 -0.05650
v -0.04707 0.01411 -0.05885
v 0.03294 0.02118 -0.05414
v 0.01647 0.01648 -0.06120
v 0.01647 -0.03060 -0.05650
v 0.03059 -0.00706 -0.05885
v -0.06119 0.00235 -0.04238
v -0.06354 0.02118 -0.04473
v 0.02117 -0.02353 -0.05179
v -0.06827 0.00235 -0.04238
v -0.00943 -0.04002 -0.05414
v 0.03530 0.01411 -0.05414
v -0.02823 0.00235 -0.06120
v -0.00708 0.03765 -0.05885
v -0.06827 0.01648 -0.04944
v -0.06119 0.02353 -0.05414
v -0.04942 0.03060 -0.05650
v -0.03765 0.03765 -0.04944
v -0.00001 -0.04002 -0.05414
v 0.03530 -0.00469 -0.05414
v -0.07062 -0.03766 -0.02825
v -0.06592 0.04943 0.01648
v -0.06827 0.04943 0.01648
v -0.06356 -0.03766 0.01648
v -0.06121 -0.00470 -0.04237
v -0.07533 0.01883 -0.02353
v -0.07533 -0.00470 0.01648
v -0.06121 0.05414 -0.01883
v -0.05885 -0.05414 -0.02589
v -0.05885 -0.02117 0.00235
v -0.07297 -0.04000 -0.00707
v -0.07062 0.04708 -0.02589
v -0.07062 -0.00942 -0.04237
v -0.07297 0.04235 0.00941
v -0.06356 0.04708 0.01648
v -0.07062 -0.03766 0.01648
v -0.06592 0.01883 -0.04001
v -0.07062 0.05414 -0.01647
v -0.05885 -0.02117 -0.02825
v -0.06592 -0.05178 -0.00943
v -0.07533 0.00234 -0.02353
v -0.07533 0.01646 0.01648
v -0.06592 -0.05178 -0.02589
v -0.07062 0.01646 -0.04001
v -0.06356 -0.01648 -0.04237
v -0.06121 0.05414 -0.01178
v -0.05885 -0.03531 0.00235
v -0.07297 -0.03531 -0.02118
v -0.07297 0.04472 -0.01883
v -0.06121 -0.04943 -0.00472
v -0.07533 -0.01177 -0.00472
v -0.07297 0.01646 -0.03531
v -0.07062 -0.04707 -0.02118
v -0.07062 -0.04707 -0.00472
v -0.07297 -0.03060 0.01648
v -0.06592 0.05650 -0.01647
v -0.06356 0.05179 -0.02353
v -0.06827 -0.01648 -0.04237
v -0.07062 0.04708 0.01648
v -0.06356 0.02118 -0.03766
v -0.07533 0.02118 0.00705
v -0.07297 -0.00235 -0.03531
v -0.06121 0.05179 -0.02118
v -0.06827 0.00471 -0.04237
v -0.07533 -0.01177 0.00705
v -0.06356 -0.05414 -0.02589
v -0.05885 -0.05414 -0.02118
v -0.07062 0.05414 -0.01178
v -0.06356 0.05650 -0.01412
v -0.06827 0.05414 -0.02118
v -0.06121 0.05179 -0.00943
v -0.06827 -0.04472 0.00470
v -0.06121 -0.00942 -0.04237
v -0.05885 -0.01883 -0.02589
v -0.07297 0.03766 0.01648
v -0.07062 0.02352 -0.03766
v -0.07297 0.03059 -0.02825
v -0.07297 0.04472 -0.00472
v -0.07297 -0.04000 -0.01412
v -0.07533 0.02118 -0.01883
v -0.05885 -0.01883 -0.00001
v -0.07297 -0.03531 0.00705
v 0.06591 0.03060 0.00472
v 0.06121 -0.04707 0.00236
v 0.05886 -0.04472 0.00001
v 0.05414 0.01176 0.04942
v 0.07533 0.00235 0.04707
v 0.07297 0.00235 -0.01882
v 0.05650 0.01411 -0.02118
v 0.06827 -0.04001 0.02824
v 0.05414 -0.01883 0.04471
v 0.06591 -0.03765 -0.02118
v 0.07533 0.02353 0.03059
v 0.06827 0.02824 -0.02118
v 0.07297 0.00235 0.05650
v 0.05886 -0.03765 -0.02118
v 0.07533 -0.00237 0.01413
v 0.06121 0.03060 -0.01647
v 0.05886 -0.03530 0.03765
v 0.05414 0.01647 0.04707
v 0.07062 0.01176 -0.02589
v 0.06827 -0.04001 -0.00941
v 0.05414 -0.01647 0.02353
v 0.07297 0.02353 0.04000
v 0.07533 0.02353 0.00707
v 0.07297 0.01176 0.05650
v 0.05650 -0.04001 0.00236
v 0.05886 -0.00472 -0.02589
v 0.05414 0.01647 0.02353
v 0.05650 -0.00941 -0.02118
v 0.07062 0.03060 -0.01176
v 0.06827 0.02824 0.02824
v 0.06356 -0.03059 0.04236
v 0.05886 -0.04472 0.01882
v 0.06827 0.00235 0.05650
v 0.06591 -0.04707 0.01413
v 0.06121 0.01411 -0.02589
v 0.06827 -0.01176 -0.02589
v 0.05650 0.02117 -0.01647
v 0.07297 0.02824 0.02588
v 0.07533 0.00235 0.00236
v 0.06827 -0.04236 0.02353
v 0.07297 0.01647 -0.01647
v 0.05414 -0.00472 0.04942
v 0.06356 0.02117 0.04471
v 0.06827 -0.03295 0.03765
v 0.06121 0.03060 -0.00705
v 0.05886 -0.02588 0.04471
v 0.05650 -0.03765 0.02588
v 0.07533 -0.00237 0.03765
v 0.06827 -0.03295 -0.01882
v 0.06121 0.02824 -0.02118
v 0.06591 0.02824 0.02588
v 0.06591 -0.03765 0.03530
v 0.06591 -0.04472 -0.00470
v 0.05886 -0.04236 -0.01411
v 0.06827 -0.04236 0.00001
v 0.07062 -0.00237 -0.02589
v 0.07533 0.01647 0.04471
v 0.06121 -0.03059 -0.02353
v 0.05650 -0.03530 -0.00470
v 0.07533 0.01647 0.00001
v 0.07533 0.02588 0.01413
v 0.05414 0.01411 0.02117
v 0.07062 0.01176 0.05650
v 0.05414 -0.02118 0.04236
v -0.04944 -0.04237 0.02354
v -0.07533 -0.00472 0.01648
v -0.07533 -0.00472 0.01883
v -0.04944 0.00705 0.02118
v -0.07062 0.00470 0.02589
v -0.06826 -0.03766 0.01648
v -0.06826 -0.03295 0.02589
v -0.04944 0.00705 0.02589
v -0.06591 0.01411 0.01648
v -0.04944 -0.04237 0.01883
v -0.07533 0.01411 0.01883
v -0.04944 -0.03295 0.02589
v -0.07062 -0.03531 0.02354
v -0.07298 0.01176 0.02354
v -0.06121 -0.03060 0.01648
v -0.07298 -0.02589 0.01648
v -0.07533 -0.00236 0.02118
v -0.04944 -0.03295 0.01883
v -0.06826 0.01411 0.02118
v -0.07533 0.01411 0.01648
v -0.07062 -0.00942 0.02589
v -0.05179 -0.04237 0.02354
v -0.06121 -0.01647 0.01648
v -0.06826 -0.03766 0.02118
v -0.06356 0.04708 0.01883
v -0.07298 0.01413 0.01648
v -0.07298 0.01413 0.02118
v -0.06592 0.01413 0.01883
v -0.07062 0.04708 0.01648
v -0.06356 0.04237 0.01648
v -0.06592 0.04708 0.02118
v -0.07062 0.04472 0.02118
v -0.06592 0.02354 0.02118
v -0.06592 0.01413 0.01648
v -0.07298 0.02590 0.01883
v -0.04944 -0.04472 0.02119
v 0.00705 0.03296 0.02119
v 0.05177 0.01882 0.03296
v 0.05414 -0.00942 0.02119
v -0.04944 0.00706 0.02589
v 0.04473 -0.01882 0.03296
v -0.01411 -0.05650 0.01883
v -0.01411 0.03060 0.01883
v -0.04944 -0.03530 0.02589
v 0.01412 0.01176 0.03296
v 0.05414 0.01412 0.02119
v -0.04944 -0.02589 0.01883
v -0.02589 -0.05650 0.02354
v -0.03295 0.02118 0.02589
v 0.05414 -0.01646 0.03296
v 0.01648 -0.02354 0.01883
v -0.04944 0.00706 0.02119
v 0.00705 0.03296 0.01883
v 0.00001 0.03296 0.02354
v 0.01176 -0.00000 0.03296
v 0.05414 -0.01646 0.02589
v -0.01411 -0.05650 0.02354
v -0.04944 -0.04472 0.01883
v 0.04000 -0.01882 0.03296
v 0.05414 0.01648 0.02354
v 0.05414 0.01648 0.03296
v -0.02589 -0.05650 0.01883
v 0.04707 0.01882 0.03296
v -0.03295 0.02118 0.02119
v 0.01648 -0.03060 0.01883
v 0.05414 -0.01412 0.02354
v 0.05177 0.01882 0.02825
v 0.01176 0.01882 0.01883
v -0.04944 -0.04237 0.02354
v -0.01411 0.03060 0.02119
v 0.01176 0.00940 0.03296
v 0.00470 0.03296 0.02354
v -0.00706 -0.00235 0.04944
v 0.03766 0.01883 0.05178
v 0.03766 0.01883 0.04238
v 0.03295 -0.01648 0.04473
v 0.03766 0.00941 0.06120
v 0.01413 0.01412 0.04238
v 0.01413 -0.01648 0.04944
v -0.00235 0.00706 0.05178
v 0.03766 -0.00471 0.04002
v 0.01647 -0.01648 0.04473
v 0.01883 0.01883 0.04944
v 0.03059 0.01412 0.06120
v -0.00470 -0.00471 0.05178
v 0.03059 -0.01648 0.04944
v 0.01178 0.00471 0.04238
v 0.03295 0.01647 0.04002
v -0.00470 0.00471 0.04708
v 0.01883 0.01883 0.04473
v 0.03059 0.00941 0.06120
v -0.00470 -0.00235 0.04708
v -0.00706 0.00001 0.05178
v 0.03766 0.01647 0.05885
v 0.03766 -0.00471 0.04708
v 0.00001 0.00941 0.04708
v 0.02824 0.00706 0.04002
v 0.03295 -0.01648 0.04708
v 0.02118 0.01883 0.04238
v 0.03295 -0.00235 0.04002
v 0.03059 0.01647 0.05885
v 0.03766 0.01647 0.04002
v 0.03059 0.01883 0.05414
v -0.00470 -0.00471 0.04944
v 0.04002 -0.01412 0.03767
v 0.04002 0.01412 0.05414
v 0.03767 0.01412 0.05414
v 0.04473 0.01647 0.03296
v 0.05414 -0.01412 0.04472
v 0.05414 0.01647 0.04708
v 0.05414 -0.01412 0.03296
v 0.03767 0.01883 0.04002
v 0.05414 0.01647 0.03296
v 0.03767 0.00001 0.05178
v 0.04002 -0.00941 0.03296
v 0.05414 -0.00235 0.04943
v 0.04238 -0.01648 0.04002
v 0.03767 -0.00706 0.03767
v 0.04473 0.01883 0.04943
v 0.04002 0.00706 0.03296
v 0.04002 0.00471 0.05414
v 0.04943 0.01883 0.03767
v 0.05414 0.01176 0.04943
v 0.05179 -0.01648 0.03531
v 0.03767 0.01883 0.04943
v 0.05414 -0.01648 0.04237
v 0.03767 0.01647 0.03767
v 0.04708 -0.01412 0.03296
v 0.03767 -0.00706 0.04472
v 0.05179 -0.01412 0.04472
f 151 173 190 
f 137 131 141 
f 135 130 144 
f 135 144 147 
f 137 141 149 
f 139 131 150 
f 144 142 153 
f 147 144 153 
f 133 152 154 
f 152 140 154 
f 142 127 155 
f 138 142 155 
f 129 128 158 
f 151 129 158 
f 139 150 159 
f 158 128 160 
f 138 145 161 
f 152 133 161 
f 145 152 161 
f 152 145 162 
f 153 142 163 
f 148 137 164 
f 155 127 164 
f 127 156 164 
f 156 148 164 
f 141 146 165 
f 149 141 165 
f 132 145 167 
f 145 138 167 
f 138 155 167 
f 155 149 167 
f 130 135 168 
f 159 130 168 
f 150 148 169 
f 148 156 169 
f 134 131 170 
f 131 139 170 
f 139 157 170 
f 127 142 171 
f 142 144 171 
f 135 143 172 
f 157 139 172 
f 143 157 172 
f 139 159 172 
f 168 135 172 
f 159 168 172 
f 158 143 173 
f 151 158 173 
f 131 134 174 
f 141 131 174 
f 134 166 174 
f 166 141 174 
f 146 136 175 
f 132 165 175 
f 165 146 175 
f 142 138 176 
f 161 133 176 
f 138 161 176 
f 133 163 176 
f 163 142 176 
f 156 127 177 
f 144 169 177 
f 169 156 177 
f 127 171 177 
f 171 144 177 
f 157 143 178 
f 143 158 178 
f 158 160 178 
f 166 134 178 
f 160 166 178 
f 134 170 178 
f 170 157 178 
f 136 146 179 
f 160 128 179 
f 128 129 180 
f 140 136 180 
f 129 151 180 
f 151 140 180 
f 179 128 180 
f 136 179 180 
f 146 141 181 
f 141 166 181 
f 166 160 181 
f 179 146 181 
f 160 179 181 
f 145 132 182 
f 136 162 182 
f 162 145 182 
f 175 136 182 
f 132 175 182 
f 131 137 183 
f 137 148 183 
f 150 131 183 
f 148 150 183 
f 136 140 184 
f 140 152 184 
f 162 136 184 
f 152 162 184 
f 140 151 185 
f 151 147 185 
f 147 154 185 
f 154 140 185 
f 165 132 186 
f 149 165 186 
f 132 167 186 
f 167 149 186 
f 137 149 187 
f 149 155 187 
f 164 137 187 
f 155 164 187 
f 147 153 188 
f 133 154 188 
f 154 147 188 
f 163 133 188 
f 153 163 188 
f 144 130 189 
f 130 159 189 
f 159 150 189 
f 169 144 189 
f 150 169 189 
f 143 135 190 
f 135 147 190 
f 147 151 190 
f 173 143 190 
