# Original object name hint: convex_1
v -0.00943 -0.04002 -0.05650
v -0.00472 0.04002 -0.05414
v -0.00472 0.04002 -0.05650
v -0.06827 0.01882 -0.04709
v 0.03294 -0.00469 -0.05179
v -0.06119 -0.01411 -0.04238
v -0.04707 0.00235 -0.05885
v 0.02117 -0.00235 -0.06120
v -0.05884 -0.02353 -0.05414
v 0.03059 0.01882 -0.05179
v -0.04707 0.03765 -0.04944
v -0.01648 0.02824 -0.06120
v 0.01647 -0.02824 -0.05179
v -0.00236 -0.02589 -0.06120
v -0.05413 0.02589 -0.05650
v -0.06354 0.00469 -0.04238
v 0.03294 0.02118 -0.05650
v 0.02353 -0.01882 -0.05885
v -0.00943 -0.03765 -0.05179
v -0.06827 -0.01411 -0.04238
v -0.06354 -0.01411 -0.05414
v 0.00234 0.02824 -0.06120
v -0.00943 0.04002 -0.05179
v -0.04707 0.03765 -0.05414
v -0.05649 -0.02589 -0.04944
v 0.03530 -0.00469 -0.05650
v -0.02353 -0.00706 -0.06120
v 0.00940 -0.03295 -0.05885
v -0.06354 0.01882 -0.05414
v -0.06590 0.02118 -0.04473
v -0.02118 0.03765 -0.05885
v -0.00001 -0.03765 -0.05179
v -0.06827 -0.01177 -0.04944
v 0.03059 0.01411 -0.05885
v -0.02588 0.02118 -0.06120
v -0.02823 -0.02353 -0.05885
v 0.03294 0.01411 -0.05179
v 0.02353 -0.02353 -0.05414
v -0.00943 -0.03531 -0.05885
v -0.05884 0.01177 -0.05650
v -0.04237 -0.00940 -0.05885
v -0.00001 -0.04002 -0.05650
v 0.00469 -0.02589 -0.06120
v -0.05649 -0.02589 -0.05414
v -0.02353 0.04002 -0.05650
v -0.04707 0.01411 -0.05885
v 0.03294 0.02118 -0.05414
v 0.01647 0.01648 -0.06120
v 0.01647 -0.03060 -0.05650
v 0.03059 -0.00706 -0.05885
v -0.06119 0.00235 -0.04238
v -0.06354 0.02118 -0.04473
v 0.02117 -0.02353 -0.05179
v -0.06827 0.00235 -0.04238
v -0.00943 -0.04002 -0.05414
v 0.03530 0.01411 -0.05414
v -0.02823 0.00235 -0.06120
v -0.00708 0.03765 -0.05885
v -0.06827 0.01648 -0.04944
v -0.06119 0.02353 -0.05414
v -0.04942 0.03060 -0.05650
v -0.03765 0.03765 -0.04944
v -0.00001 -0.04002 -0.05414
v 0.03530 -0.00469 -0.05414
v -0.07062 -0.03766 -0.02825
v -0.06592 0.04943 0.01648
v -0.06827 0.04943 0.01648
v -0.06356 -0.03766 0.01648
v -0.06121 -0.00470 -0.04237
v -0.07533 0.01883 -0.02353
v -0.07533 -0.00470 0.01648
v -0.06121 0.05414 -0.01883
v -0.05885 -0.05414 -0.02589
v -0.05885 -0.02117 0.00235
v -0.07297 -0.04000 -0.00707
v -0.07062 0.04708 -0.02589
v -0.07062 -0.00942 -0.04237
v -0.07297 0.04235 0.00941
v -0.06356 0.04708 0.01648
v -0.07062 -0.03766 0.01648
v -0.06592 0.01883 -0.04001
v -0.07062 0.05414 -0.01647
v -0.05885 -0.02117 -0.02825
v -0.06592 -0.05178 -0.00943
v -0.07533 0.00234 -0.02353
v -0.07533 0.01646 0.01648
v -0.06592 -0.05178 -0.02589
v -0.07062 0.01646 -0.04001
v -0.06356 -0.01648 -0.04237
v -0.06121 0.05414 -0.01178
v -0.05885 -0.03531 0.00235
v -0.07297 -0.03531 -0.02118
v -0.07297 0.04472 -0.01883
v -0.06121 -0.04943 -0.00472
v -0.07533 -0.01177 -0.00472
v -0.07297 0.01646 -0.03531
v -0.07062 -0.04707 -0.02118
v -0.07062 -0.04707 -0.00472
v -0.07297 -0.03060 0.01648
v -0.06592 0.05650 -0.01647
v -0.06356 0.05179 -0.02353
v -0.06827 -0.01648 -0.04237
v -0.07062 0.04708 0.01648
v -0.06356 0.02118 -0.03766
v -0.07533 0.02118 0.00705
v -0.07297 -0.00235 -0.03531
v -0.06121 0.05179 -0.02118
v -0.06827 0.00471 -0.04237
v -0.07533 -0.01177 0.00705
v -0.06356 -0.05414 -0.02589
v -0.05885 -0.05414 -0.02118
v -0.07062 0.05414 -0.01178
v -0.06356 0.05650 -0.01412
v -0.06827 0.05414 -0.02118
v -0.06121 0.05179 -0.00943
v -0.06827 -0.04472 0.00470
v -0.06121 -0.00942 -0.04237
v -0.05885 -0.01883 -0.02589
v -0.07297 0.03766 0.01648
v -0.07062 0.02352 -0.03766
v -0.07297 0.03059 -0.02825
v -0.07297 0.04472 -0.00472
v -0.07297 -0.04000 -0.01412
v -0.07533 0.02118 -0.01883
v -0.05885 -0.01883 -0.00001
v -0.07297 -0.03531 0.00705
v 0.06591 0.03060 0.00472
v 0.06121 -0.04707 0.00236
v 0.05886 -0.04472 0.00001
v 0.05414 0.01176 0.04942
v 0.07533 0.00235 0.04707
v 0.07297 0.00235 -0.01882
v 0.05650 0.01411 -0.02118
v 0.06827 -0.04001 0.02824
v 0.05414 -0.01883 0.04471
v 0.06591 -0.03765 -0.02118
v 0.07533 0.02353 0.03059
v 0.06827 0.02824 -0.02118
v 0.07297 0.00235 0.05650
v 0.05886 -0.03765 -0.02118
v 0.07533 -0.00237 0.01413
v 0.06121 0.03060 -0.01647
v 0.05886 -0.03530 0.03765
v 0.05414 0.01647 0.04707
v 0.07062 0.01176 -0.02589
v 0.06827 -0.04001 -0.00941
v 0.05414 -0.01647 0.02353
v 0.07297 0.02353 0.04000
v 0.07533 0.02353 0.00707
v 0.07297 0.01176 0.05650
v 0.05650 -0.04001 0.00236
v 0.05886 -0.00472 -0.02589
v 0.05414 0.01647 0.02353
v 0.05650 -0.00941 -0.02118
v 0.07062 0.03060 -0.01176
v 0.06827 0.02824 0.02824
v 0.06356 -0.03059 0.04236
v 0.05886 -0.04472 0.01882
v 0.06827 0.00235 0.05650
v 0.06591 -0.04707 0.01413
v 0.06121 0.01411 -0.02589
v 0.06827 -0.01176 -0.02589
v 0.05650 0.02117 -0.01647
v 0.07297 0.02824 0.02588
v 0.07533 0.00235 0.00236
v 0.06827 -0.04236 0.02353
v 0.07297 0.01647 -0.01647
v 0.05414 -0.00472 0.04942
v 0.06356 0.02117 0.04471
v 0.06827 -0.03295 0.03765
v 0.06121 0.03060 -0.00705
v 0.05886 -0.02588 0.04471
v 0.05650 -0.03765 0.02588
v 0.07533 -0.00237 0.03765
v 0.06827 -0.03295 -0.01882
v 0.06121 0.02824 -0.02118
v 0.06591 0.02824 0.02588
v 0.06591 -0.03765 0.03530
v 0.06591 -0.04472 -0.00470
v 0.05886 -0.04236 -0.01411
v 0.06827 -0.04236 0.00001
v 0.07062 -0.00237 -0.02589
v 0.07533 0.01647 0.04471
v 0.06121 -0.03059 -0.02353
v 0.05650 -0.03530 -0.00470
v 0.07533 0.01647 0.00001
v 0.07533 0.02588 0.01413
v 0.05414 0.01411 0.02117
v 0.07062 0.01176 0.05650
v 0.05414 -0.02118 0.04236
v -0.04944 -0.04237 0.02354
v -0.07533 -0.00472 0.01648
v -0.07533 -0.00472 0.01883
v -0.04944 0.00705 0.02118
v -0.07062 0.00470 0.02589
v -0.06826 -0.03766 0.01648
v -0.06826 -0.03295 0.02589
v -0.04944 0.00705 0.02589
v -0.06591 0.01411 0.01648
v -0.04944 -0.04237 0.01883
v -0.07533 0.01411 0.01883
v -0.04944 -0.03295 0.02589
v -0.07062 -0.03531 0.02354
v -0.07298 0.01176 0.02354
v -0.06121 -0.03060 0.01648
v -0.07298 -0.02589 0.01648
v -0.07533 -0.00236 0.02118
v -0.04944 -0.03295 0.01883
v -0.06826 0.01411 0.02118
v -0.07533 0.01411 0.01648
v -0.07062 -0.00942 0.02589
v -0.05179 -0.04237 0.02354
v -0.06121 -0.01647 0.01648
v -0.06826 -0.03766 0.02118
v -0.06356 0.04708 0.01883
v -0.07298 0.01413 0.01648
v -0.07298 0.01413 0.02118
v -0.06592 0.01413 0.01883
v -0.07062 0.04708 0.01648
v -0.06356 0.04237 0.01648
v -0.06592 0.04708 0.02118
v -0.07062 0.04472 0.02118
v -0.06592 0.02354 0.02118
v -0.06592 0.01413 0.01648
v -0.07298 0.02590 0.01883
v -0.04944 -0.04472 0.02119
v 0.00705 0.03296 0.02119
v 0.05177 0.01882 0.03296
v 0.05414 -0.00942 0.02119
v -0.04944 0.00706 0.02589
v 0.04473 -0.01882 0.03296
v -0.01411 -0.05650 0.01883
v -0.01411 0.03060 0.01883
v -0.04944 -0.03530 0.02589
v 0.01412 0.01176 0.03296
v 0.05414 0.01412 0.02119
v -0.04944 -0.02589 0.01883
v -0.02589 -0.05650 0.02354
v -0.03295 0.02118 0.02589
v 0.05414 -0.01646 0.03296
v 0.01648 -0.02354 0.01883
v -0.04944 0.00706 0.02119
v 0.00705 0.03296 0.01883
v 0.00001 0.03296 0.02354
v 0.01176 -0.00000 0.03296
v 0.05414 -0.01646 0.02589
v -0.01411 -0.05650 0.02354
v -0.04944 -0.04472 0.01883
v 0.04000 -0.01882 0.03296
v 0.05414 0.01648 0.02354
v 0.05414 0.01648 0.03296
v -0.02589 -0.05650 0.01883
v 0.04707 0.01882 0.03296
v -0.03295 0.02118 0.02119
v 0.01648 -0.03060 0.01883
v 0.05414 -0.01412 0.02354
v 0.05177 0.01882 0.02825
v 0.01176 0.01882 0.01883
v -0.04944 -0.04237 0.02354
v -0.01411 0.03060 0.02119
v 0.01176 0.00940 0.03296
v 0.00470 0.03296 0.02354
v -0.00706 -0.00235 0.04944
v 0.03766 0.01883 0.05178
v 0.03766 0.01883 0.04238
v 0.03295 -0.01648 0.04473
v 0.03766 0.00941 0.06120
v 0.01413 0.01412 0.04238
v 0.01413 -0.01648 0.04944
v -0.00235 0.00706 0.05178
v 0.03766 -0.00471 0.04002
v 0.01647 -0.01648 0.04473
v 0.01883 0.01883 0.04944
v 0.03059 0.01412 0.06120
v -0.00470 -0.00471 0.05178
v 0.03059 -0.01648 0.04944
v 0.01178 0.00471 0.04238
v 0.03295 0.01647 0.04002
v -0.00470 0.00471 0.04708
v 0.01883 0.01883 0.04473
v 0.03059 0.00941 0.06120
v -0.00470 -0.00235 0.04708
v -0.00706 0.00001 0.05178
v 0.03766 0.01647 0.05885
v 0.03766 -0.00471 0.04708
v 0.00001 0.00941 0.04708
v 0.02824 0.00706 0.04002
v 0.03295 -0.01648 0.04708
v 0.02118 0.01883 0.04238
v 0.03295 -0.00235 0.04002
v 0.03059 0.01647 0.05885
v 0.03766 0.01647 0.04002
v 0.03059 0.01883 0.05414
v -0.00470 -0.00471 0.04944
v 0.04002 -0.01412 0.03767
v 0.04002 0.01412 0.05414
v 0.03767 0.01412 0.05414
v 0.04473 0.01647 0.03296
v 0.05414 -0.01412 0.04472
v 0.05414 0.01647 0.04708
v 0.05414 -0.01412 0.03296
v 0.03767 0.01883 0.04002
v 0.05414 0.01647 0.03296
v 0.03767 0.00001 0.05178
v 0.04002 -0.00941 0.03296
v 0.05414 -0.00235 0.04943
v 0.04238 -0.01648 0.04002
v 0.03767 -0.00706 0.03767
v 0.04473 0.01883 0.04943
v 0.04002 0.00706 0.03296
v 0.04002 0.00471 0.05414
v 0.04943 0.01883 0.03767
v 0.05414 0.01176 0.04943
v 0.05179 -0.01648 0.03531
v 0.03767 0.01883 0.04943
v 0.05414 -0.01648 0.04237
v 0.03767 0.01647 0.03767
v 0.04708 -0.01412 0.03296
v 0.03767 -0.00706 0.04472
v 0.05179 -0.01412 0.04472
f 99 109 126 
f 66 67 68 
f 68 67 71 
f 66 68 79 
f 68 74 79 
f 68 71 80 
f 74 73 83 
f 71 70 85 
f 70 71 86 
f 71 67 86 
f 77 69 89 
f 66 79 90 
f 73 74 91 
f 74 68 91 
f 77 65 92 
f 82 76 93 
f 91 68 94 
f 71 85 95 
f 85 92 95 
f 85 70 96 
f 88 77 96 
f 65 87 97 
f 92 65 97 
f 75 97 98 
f 80 71 99 
f 81 76 101 
f 100 72 101 
f 65 77 102 
f 87 65 102 
f 89 73 102 
f 77 89 102 
f 86 67 103 
f 69 81 104 
f 81 101 104 
f 70 86 105 
f 86 78 105 
f 77 92 106 
f 92 85 106 
f 85 96 106 
f 96 77 106 
f 83 69 107 
f 72 83 107 
f 101 72 107 
f 69 104 107 
f 104 101 107 
f 69 77 108 
f 81 69 108 
f 77 88 108 
f 88 81 108 
f 71 95 109 
f 95 75 109 
f 99 71 109 
f 97 87 110 
f 84 98 110 
f 98 97 110 
f 87 102 110 
f 102 73 110 
f 73 91 111 
f 94 84 111 
f 91 94 111 
f 110 73 111 
f 84 110 111 
f 82 93 112 
f 67 100 112 
f 100 82 112 
f 103 67 112 
f 78 103 112 
f 67 66 113 
f 66 90 113 
f 90 72 113 
f 100 67 113 
f 72 100 113 
f 76 82 114 
f 82 100 114 
f 101 76 114 
f 100 101 114 
f 79 74 115 
f 74 90 115 
f 90 79 115 
f 68 80 116 
f 94 68 116 
f 84 94 116 
f 80 98 116 
f 98 84 116 
f 69 83 117 
f 83 73 117 
f 89 69 117 
f 73 89 117 
f 83 72 118 
f 74 83 118 
f 72 90 118 
f 78 86 119 
f 103 78 119 
f 86 103 119 
f 76 81 120 
f 81 88 120 
f 96 76 120 
f 88 96 120 
f 70 93 121 
f 93 76 121 
f 96 70 121 
f 76 96 121 
f 105 78 122 
f 93 105 122 
f 112 93 122 
f 78 112 122 
f 75 95 123 
f 95 92 123 
f 97 75 123 
f 92 97 123 
f 93 70 124 
f 70 105 124 
f 105 93 124 
f 90 74 125 
f 74 118 125 
f 118 90 125 
f 75 98 126 
f 98 80 126 
f 80 99 126 
f 109 75 126 
