# Original object name hint: convex_0
v -0.00943 -0.04002 -0.05650
v -0.00472 0.04002 -0.05414
v -0.00472 0.04002 -0.05650
v -0.06827 0.01882 -0.04709
v 0.03294 -0.00469 -0.05179
v -0.06119 -0.01411 -0.04238
v -0.04707 0.00235 -0.05885
v 0.02117 -0.00235 -0.06120
v -0.05884 -0.02353 -0.05414
v 0.03059 0.01882 -0.05179
v -0.04707 0.03765 -0.04944
v -0.01648 0.02824 -0.06120
v 0.01647 -0.02824 -0.05179
v -0.00236 -0.02589 -0.06120
v -0.05413 0.02589 -0.05650
v -0.06354 0.00469 -0.04238
v 0.03294 0.02118 -0.05650
v 0.02353 -0.01882 -0.05885
v -0.00943 -0.03765 -0.05179
v -0.06827 -0.01411 -0.04238
v -0.06354 -0.01411 -0.05414
v 0.00234 0.02824 -0.06120
v -0.00943 0.04002 -0.05179
v -0.04707 0.03765 -0.05414
v -0.05649 -0.02589 -0.04944
v 0.03530 -0.00469 -0.05650
v -0.02353 -0.00706 -0.06120
v 0.00940 -0.03295 -0.05885
v -0.06354 0.01882 -0.05414
v -0.06590 0.02118 -0.04473
v -0.02118 0.03765 -0.05885
v -0.00001 -0.03765 -0.05179
v -0.06827 -0.01177 -0.04944
v 0.03059 0.01411 -0.05885
v -0.02588 0.02118 -0.06120
v -0.02823 -0.02353 -0.05885
v 0.03294 0.01411 -0.05179
v 0.02353 -0.02353 -0.05414
v -0.00943 -0.03531 -0.05885
v -0.05884 0.01177 -0.05650
v -0.04237 -0.00940 -0.05885
v -0.00001 -0.04002 -0.05650
v 0.00469 -0.02589 -0.06120
v -0.05649 -0.02589 -0.05414
v -0.02353 0.04002 -0.05650
v -0.04707 0.01411 -0.05885
v 0.03294 0.02118 -0.05414
v 0.01647 0.01648 -0.06120
v 0.01647 -0.03060 -0.05650
v 0.03059 -0.00706 -0.05885
v -0.06119 0.00235 -0.04238
v -0.06354 0.02118 -0.04473
v 0.02117 -0.02353 -0.05179
v -0.06827 0.00235 -0.04238
v -0.00943 -0.04002 -0.05414
v 0.03530 0.01411 -0.05414
v -0.02823 0.00235 -0.06120
v -0.00708 0.03765 -0.05885
v -0.06827 0.01648 -0.04944
v -0.06119 0.02353 -0.05414
v -0.04942 0.03060 -0.05650
v -0.03765 0.03765 -0.04944
v -0.00001 -0.04002 -0.05414
v 0.03530 -0.00469 -0.05414
v -0.07062 -0.03766 -0.02825
v -0.06592 0.04943 0.01648
v -0.06827 0.04943 0.01648
v -0.06356 -0.03766 0.01648
v -0.06121 -0.00470 -0.04237
v -0.07533 0.01883 -0.02353
v -0.07533 -0.00470 0.01648
v -0.06121 0.05414 -0.01883
v -0.05885 -0.05414 -0.02589
v -0.05885 -0.02117 0.00235
v -0.07297 -0.04000 -0.00707
v -0.07062 0.04708 -0.02589
v -0.07062 -0.00942 -0.04237
v -0.07297 0.04235 0.00941
v -0.06356 0.04708 0.01648
v -0.07062 -0.03766 0.01648
v -0.06592 0.01883 -0.04001
v -0.07062 0.05414 -0.01647
v -0.05885 -0.02117 -0.02825
v -0.06592 -0.05178 -0.00943
v -0.07533 0.00234 -0.02353
v -0.07533 0.01646 0.01648
v -0.06592 -0.05178 -0.02589
v -0.07062 0.01646 -0.04001
v -0.06356 -0.01648 -0.04237
v -0.06121 0.05414 -0.01178
v -0.05885 -0.03531 0.00235
v -0.07297 -0.03531 -0.02118
v -0.07297 0.04472 -0.01883
v -0.06121 -0.04943 -0.00472
v -0.07533 -0.01177 -0.00472
v -0.07297 0.01646 -0.03531
v -0.07062 -0.04707 -0.02118
v -0.07062 -0.04707 -0.00472
v -0.07297 -0.03060 0.01648
v -0.06592 0.05650 -0.01647
v -0.06356 0.05179 -0.02353
v -0.06827 -0.01648 -0.04237
v -0.07062 0.04708 0.01648
v -0.06356 0.02118 -0.03766
v -0.07533 0.02118 0.00705
v -0.07297 -0.00235 -0.03531
v -0.06121 0.05179 -0.02118
v -0.06827 0.00471 -0.04237
v -0.07533 -0.01177 0.00705
v -0.06356 -0.05414 -0.02589
v -0.05885 -0.05414 -0.02118
v -0.07062 0.05414 -0.01178
v -0.06356 0.05650 -0.01412
v -0.06827 0.05414 -0.02118
v -0.06121 0.05179 -0.00943
v -0.06827 -0.04472 0.00470
v -0.06121 -0.00942 -0.04237
v -0.05885 -0.01883 -0.02589
v -0.07297 0.03766 0.01648
v -0.07062 0.02352 -0.03766
v -0.07297 0.03059 -0.02825
v -0.07297 0.04472 -0.00472
v -0.07297 -0.04000 -0.01412
v -0.07533 0.02118 -0.01883
v -0.05885 -0.01883 -0.00001
v -0.07297 -0.03531 0.00705
v 0.06591 0.03060 0.00472
v 0.06121 -0.04707 0.00236
v 0.05886 -0.04472 0.00001
v 0.05414 0.01176 0.04942
v 0.07533 0.00235 0.04707
v 0.07297 0.00235 -0.01882
v 0.05650 0.01411 -0.02118
v 0.06827 -0.04001 0.02824
v 0.05414 -0.01883 0.04471
v 0.06591 -0.03765 -0.02118
v 0.07533 0.02353 0.03059
v 0.06827 0.02824 -0.02118
v 0.07297 0.00235 0.05650
v 0.05886 -0.03765 -0.02118
v 0.07533 -0.00237 0.01413
v 0.06121 0.03060 -0.01647
v 0.05886 -0.03530 0.03765
v 0.05414 0.01647 0.04707
v 0.07062 0.01176 -0.02589
v 0.06827 -0.04001 -0.00941
v 0.05414 -0.01647 0.02353
v 0.07297 0.02353 0.04000
v 0.07533 0.02353 0.00707
v 0.07297 0.01176 0.05650
v 0.05650 -0.04001 0.00236
v 0.05886 -0.00472 -0.02589
v 0.05414 0.01647 0.02353
v 0.05650 -0.00941 -0.02118
v 0.07062 0.03060 -0.01176
v 0.06827 0.02824 0.02824
v 0.06356 -0.03059 0.04236
v 0.05886 -0.04472 0.01882
v 0.06827 0.00235 0.05650
v 0.06591 -0.04707 0.01413
v 0.06121 0.01411 -0.02589
v 0.06827 -0.01176 -0.02589
v 0.05650 0.02117 -0.01647
v 0.07297 0.02824 0.02588
v 0.07533 0.00235 0.00236
v 0.06827 -0.04236 0.02353
v 0.07297 0.01647 -0.01647
v 0.05414 -0.00472 0.04942
v 0.06356 0.02117 0.04471
v 0.06827 -0.03295 0.03765
v 0.06121 0.03060 -0.00705
v 0.05886 -0.02588 0.04471
v 0.05650 -0.03765 0.02588
v 0.07533 -0.00237 0.03765
v 0.06827 -0.03295 -0.01882
v 0.06121 0.02824 -0.02118
v 0.06591 0.02824 0.02588
v 0.06591 -0.03765 0.03530
v 0.06591 -0.04472 -0.00470
v 0.05886 -0.04236 -0.01411
v 0.06827 -0.04236 0.00001
v 0.07062 -0.00237 -0.02589
v 0.07533 0.01647 0.04471
v 0.06121 -0.03059 -0.02353
v 0.05650 -0.03530 -0.00470
v 0.07533 0.01647 0.00001
v 0.07533 0.02588 0.01413
v 0.05414 0.01411 0.02117
v 0.07062 0.01176 0.05650
v 0.05414 -0.02118 0.04236
v -0.04944 -0.04237 0.02354
v -0.07533 -0.00472 0.01648
v -0.07533 -0.00472 0.01883
v -0.04944 0.00705 0.02118
v -0.07062 0.00470 0.02589
v -0.06826 -0.03766 0.01648
v -0.06826 -0.03295 0.02589
v -0.04944 0.00705 0.02589
v -0.06591 0.01411 0.01648
v -0.04944 -0.04237 0.01883
v -0.07533 0.01411 0.01883
v -0.04944 -0.03295 0.02589
v -0.07062 -0.03531 0.02354
v -0.07298 0.01176 0.02354
v -0.06121 -0.03060 0.01648
v -0.07298 -0.02589 0.01648
v -0.07533 -0.00236 0.02118
v -0.04944 -0.03295 0.01883
v -0.06826 0.01411 0.02118
v -0.07533 0.01411 0.01648
v -0.07062 -0.00942 0.02589
v -0.05179 -0.04237 0.02354
v -0.06121 -0.01647 0.01648
v -0.06826 -0.03766 0.02118
v -0.06356 0.04708 0.01883
v -0.07298 0.01413 0.01648
v -0.07298 0.01413 0.02118
v -0.06592 0.01413 0.01883
v -0.07062 0.04708 0.01648
v -0.06356 0.04237 0.01648
v -0.06592 0.04708 0.02118
v -0.07062 0.04472 0.02118
v -0.06592 0.02354 0.02118
v -0.06592 0.01413 0.01648
v -0.07298 0.02590 0.01883
v -0.04944 -0.04472 0.02119
v 0.00705 0.03296 0.02119
v 0.05177 0.01882 0.03296
v 0.05414 -0.00942 0.02119
v -0.04944 0.00706 0.02589
v 0.04473 -0.01882 0.03296
v -0.01411 -0.05650 0.01883
v -0.01411 0.03060 0.01883
v -0.04944 -0.03530 0.02589
v 0.01412 0.01176 0.03296
v 0.05414 0.01412 0.02119
v -0.04944 -0.02589 0.01883
v -0.02589 -0.05650 0.02354
v -0.03295 0.02118 0.02589
v 0.05414 -0.01646 0.03296
v 0.01648 -0.02354 0.01883
v -0.04944 0.00706 0.02119
v 0.00705 0.03296 0.01883
v 0.00001 0.03296 0.02354
v 0.01176 -0.00000 0.03296
v 0.05414 -0.01646 0.02589
v -0.01411 -0.05650 0.02354
v -0.04944 -0.04472 0.01883
v 0.04000 -0.01882 0.03296
v 0.05414 0.01648 0.02354
v 0.05414 0.01648 0.03296
v -0.02589 -0.05650 0.01883
v 0.04707 0.01882 0.03296
v -0.03295 0.02118 0.02119
v 0.01648 -0.03060 0.01883
v 0.05414 -0.01412 0.02354
v 0.05177 0.01882 0.02825
v 0.01176 0.01882 0.01883
v -0.04944 -0.04237 0.02354
v -0.01411 0.03060 0.02119
v 0.01176 0.00940 0.03296
v 0.00470 0.03296 0.02354
v -0.00706 -0.00235 0.04944
v 0.03766 0.01883 0.05178
v 0.03766 0.01883 0.04238
v 0.03295 -0.01648 0.04473
v 0.03766 0.00941 0.06120
v 0.01413 0.01412 0.04238
v 0.01413 -0.01648 0.04944
v -0.00235 0.00706 0.05178
v 0.03766 -0.00471 0.04002
v 0.01647 -0.01648 0.04473
v 0.01883 0.01883 0.04944
v 0.03059 0.01412 0.06120
v -0.00470 -0.00471 0.05178
v 0.03059 -0.01648 0.04944
v 0.01178 0.00471 0.04238
v 0.03295 0.01647 0.04002
v -0.00470 0.00471 0.04708
v 0.01883 0.01883 0.04473
v 0.03059 0.00941 0.06120
v -0.00470 -0.00235 0.04708
v -0.00706 0.00001 0.05178
v 0.03766 0.01647 0.05885
v 0.03766 -0.00471 0.04708
v 0.00001 0.00941 0.04708
v 0.02824 0.00706 0.04002
v 0.03295 -0.01648 0.04708
v 0.02118 0.01883 0.04238
v 0.03295 -0.00235 0.04002
v 0.03059 0.01647 0.05885
v 0.03766 0.01647 0.04002
v 0.03059 0.01883 0.05414
v -0.00470 -0.00471 0.04944
v 0.04002 -0.01412 0.03767
v 0.04002 0.01412 0.05414
v 0.03767 0.01412 0.05414
v 0.04473 0.01647 0.03296
v 0.05414 -0.01412 0.04472
v 0.05414 0.01647 0.04708
v 0.05414 -0.01412 0.03296
v 0.03767 0.01883 0.04002
v 0.05414 0.01647 0.03296
v 0.03767 0.00001 0.05178
v 0.04002 -0.00941 0.03296
v 0.05414 -0.00235 0.04943
v 0.04238 -0.01648 0.04002
v 0.03767 -0.00706 0.03767
v 0.04473 0.01883 0.04943
v 0.04002 0.00706 0.03296
v 0.04002 0.00471 0.05414
v 0.04943 0.01883 0.03767
v 0.05414 0.01176 0.04943
v 0.05179 -0.01648 0.03531
v 0.03767 0.01883 0.04943
v 0.05414 -0.01648 0.04237
v 0.03767 0.01647 0.03767
v 0.04708 -0.01412 0.03296
v 0.03767 -0.00706 0.04472
v 0.05179 -0.01412 0.04472
f 26 56 64 
f 12 8 14 
f 3 2 17 
f 6 16 20 
f 19 6 20 
f 8 12 22 
f 2 3 23 
f 19 20 25 
f 12 14 27 
f 24 4 30 
f 11 24 30 
f 22 12 31 
f 13 6 32 
f 6 19 32 
f 20 4 33 
f 9 20 33 
f 21 9 33 
f 29 21 33 
f 22 17 34 
f 17 26 34 
f 12 27 35 
f 27 14 36 
f 6 5 37 
f 18 26 38 
f 36 14 39 
f 7 21 40 
f 29 15 40 
f 21 29 40 
f 21 7 41 
f 9 21 41 
f 27 36 41 
f 1 39 42 
f 39 28 42 
f 14 8 43 
f 8 18 43 
f 18 28 43 
f 28 39 43 
f 39 14 43 
f 20 9 44 
f 1 25 44 
f 25 20 44 
f 39 1 44 
f 36 39 44 
f 9 41 44 
f 41 36 44 
f 23 3 45 
f 11 23 45 
f 24 11 45 
f 3 31 45 
f 31 24 45 
f 15 35 46 
f 7 40 46 
f 40 15 46 
f 17 2 47 
f 2 23 47 
f 23 10 47 
f 10 37 47 
f 8 22 48 
f 34 8 48 
f 22 34 48 
f 28 18 49 
f 38 13 49 
f 18 38 49 
f 42 28 49 
f 18 8 50 
f 26 18 50 
f 8 34 50 
f 34 26 50 
f 16 6 51 
f 10 16 51 
f 6 37 51 
f 37 10 51 
f 16 10 52 
f 10 23 52 
f 30 16 52 
f 11 30 52 
f 5 6 53 
f 6 13 53 
f 38 5 53 
f 13 38 53 
f 4 20 54 
f 20 16 54 
f 30 4 54 
f 16 30 54 
f 25 1 55 
f 19 25 55 
f 32 19 55 
f 1 42 55 
f 26 17 56 
f 37 5 56 
f 17 47 56 
f 47 37 56 
f 35 27 57 
f 41 7 57 
f 27 41 57 
f 7 46 57 
f 46 35 57 
f 3 17 58 
f 17 22 58 
f 31 3 58 
f 22 31 58 
f 33 4 59 
f 29 33 59 
f 4 24 60 
f 15 29 60 
f 59 4 60 
f 29 59 60 
f 31 12 61 
f 24 31 61 
f 35 15 61 
f 12 35 61 
f 60 24 61 
f 15 60 61 
f 23 11 62 
f 52 23 62 
f 11 52 62 
f 13 32 63 
f 49 13 63 
f 42 49 63 
f 32 55 63 
f 55 42 63 
f 5 38 64 
f 38 26 64 
f 56 5 64 
