# Created by Open3D 
# object name: convex_2_coll
# number of vertices: 14
# number of triangles: 24
v 0.07196 -0.06169 -0.03854
v 0.04369 -0.06426 -0.03854
v 0.04369 -0.07454 -0.03597
v 0.04369 -0.0694 0.0334
v 0.07711 -0.05655 0.03854
v 0.055265 -0.05655 -0.03597
v 0.075825 -0.05655 -0.02955
v 0.04369 -0.07454 0.03083
v 0.06939 -0.07454 0.01027
v 0.0636075 -0.07325 -0.0327575
v 0.059115 -0.05655 0.01798
v 0.07518 -0.06811 -0.01092
v 0.07325 -0.06811 0.032115
v 0.06425 -0.07325 0.02826
f 2 3 4
f 6 5 7
f 8 3 9
f 9 3 10
f 4 5 11
f 5 6 11
f 4 3 8
f 5 12 7
f 7 12 1
f 9 13 14
f 13 8 14
f 4 6 2
f 6 4 11
f 8 9 14
f 8 13 4
f 13 5 4
f 13 12 5
f 10 12 9
f 2 1 3
f 2 6 1
f 6 7 1
f 13 9 12
f 1 12 10
f 10 3 1
