# Created by Open3D 
# object name: convex_3_coll
# number of vertices: 14
# number of triangles: 24
v 0.0709963 0.0661675 -0.0324463
v 0.077105 0.06424 -0.00772
v 0.06425 0.06938 -0.00772
v 0.05398 -0.05652 -0.00772
v 0.07968 -0.05396 -0.00772
v 0.0437 0.05139 -0.03341
v 0.0437 -0.00514 -0.03855
v 0.0437 0.00258 -0.01029
v 0.07968 0.00515 -0.03598
v 0.0437 -0.04882 -0.034695
v 0.06169 -0.05652 -0.04112
v 0.07453 0.02055 -0.04369
v 0.0771 0.05396 -0.03855
v 0.07453 -0.05396 -0.03855
f 2 3 4
f 2 4 5
f 6 7 8
f 2 5 9
f 8 7 10
f 4 11 5
f 8 3 6
f 2 9 13
f 10 4 8
f 11 7 12
f 9 5 14
f 7 11 10
f 14 12 9
f 1 13 6
f 9 12 13
f 3 2 1
f 12 14 11
f 14 5 11
f 3 8 4
f 4 10 11
f 12 7 6
f 13 12 6
f 2 13 1
f 6 3 1
