# Created by Open3D 
# object name: convex_21_coll
# number of vertices: 14
# number of triangles: 24
v 0.04369 -0 0.02056
v 0.0514 -0.03598 0.01028
v 0.0514 -0.03598 0.00514
v 0.04369 -0.02055 0.00514
v 0.04883 -0 0.00514
v 0.04369 0.00256 0.00514
v 0.04626 -0.03598 0.01028
v 0.04626 0.01028 0.01542
v 0.04626 0.01028 0.02056
v 0.04883 0.00513 0.01542
v 0.04369 0.01028 0.02056
v 0.04626 -0.03598 0.00514
v 0.04369 -0.02313 0.01028
v 0.04883 0.00513 0.00771
f 3 4 5
f 5 4 6
f 4 1 6
f 7 3 2
f 1 7 2
f 8 9 10
f 9 2 10
f 9 8 11
f 1 9 11
f 8 6 11
f 6 1 11
f 4 3 12
f 3 7 12
f 12 7 13
f 1 4 13
f 7 1 13
f 4 12 13
f 6 8 14
f 5 6 14
f 8 10 14
f 14 10 3
f 10 2 3
f 5 14 3
f 2 9 1
