# Created by Open3D 
# object name: convex_12_coll
# number of vertices: 14
# number of triangles: 24
v 0.03726 0.001285 0.05397
v 0.03855 -0.00257 0.05141
v -0.00257 -0.00514 0.04883
v -0.00771 0.01542 0.04883
v 0.04112 0 0.04883
v 0.02827 0.02056 0.05141
v 0.03855 0.01285 0.05397
v 0.038545 0.01542 0.04883
v -0.00771 0 0.04883
v 0.00258 0.02056 0.05012
v -0.00514 0.01285 0.05911
v 0.00258 0.00257 0.05911
v -0.00514 0.00514 0.05911
v -0.00257 -0.00514 0.05397
f 3 4 5
f 6 7 8
f 5 4 8
f 4 3 9
f 6 8 10
f 8 4 10
f 3 5 2
f 7 6 11
f 12 7 11
f 11 6 10
f 4 11 10
f 12 11 13
f 14 12 13
f 14 9 3
f 1 12 14
f 3 2 14
f 2 1 14
f 7 5 8
f 11 4 13
f 4 9 13
f 9 14 13
f 5 7 1
f 7 12 1
f 2 5 1
