# Created by Open3D 
# object name: convex_17_coll
# number of vertices: 14
# number of triangles: 24
v -0.04113 0.0514 0.00514
v -0.05912 0.0514 0.01028
v -0.04113 0.0514 0.01028
v -0.05912 -0.05141 0.00514
v -0.04884 -0.05141 0.00514
v -0.05912 -0.05141 0.01542
v -0.05912 0.0514 0.00514
v -0.04113 0.04626 0.01285
v -0.04113 -0.04883 0.01542
v -0.05912 0.04369 0.01285
v -0.04113 0.03083 0.01542
v -0.04113 -0.05141 0.00771
v -0.05141 0.02826 0.01542
v -0.04113 0.02055 0.00514
f 1 2 3
f 4 5 6
f 5 4 7
f 4 6 7
f 5 7 1
f 8 9 1
f 7 6 10
f 6 9 11
f 8 10 11
f 6 5 12
f 9 6 12
f 1 9 12
f 1 7 2
f 10 8 2
f 7 10 2
f 9 8 11
f 6 11 13
f 11 10 13
f 5 1 14
f 12 5 14
f 1 12 14
f 13 10 6
f 8 1 3
f 2 8 3
