# Created by Open3D 
# object name: convex_29_coll
# number of vertices: 14
# number of triangles: 24
v 0.01541 0.04882 0.01542
v 0.00514 -0.06169 0.00514
v -0.04113 -0.06169 0.00514
v 0.00385 0.0514 0.00514
v 0.04369 -0.01798 0.00514
v 0.04369 0.01541 0.02056
v -0.04113 0.05138 0.00514
v -0.04113 -0.06169 0.01285
v -0.04113 0.03083 0.01542
v 0.00128 0.033395 0.019275
v -0.00257 -0.02055 0.02056
v 0.04369 -1e-05 0.02056
v 0.003845 -0.05654 0.01542
v 0.04369 0.00256 0.00514
f 2 3 4
f 2 4 5
f 7 3 8
f 4 3 7
f 7 8 9
f 10 7 9
f 10 6 1
f 3 2 8
f 6 11 12
f 5 6 12
f 5 12 13
f 2 5 13
f 8 2 13
f 11 6 10
f 6 5 14
f 5 4 14
f 8 11 9
f 11 8 13
f 6 4 1
f 13 12 11
f 4 7 1
f 9 11 10
f 4 6 14
f 7 10 1
