# Created by Open3D 
# object name: convex_24_coll
# number of vertices: 14
# number of triangles: 24
v -0.02055 -0.05655 -0.03085
v -0.006425 -0.04626 -0.0257
v 0.00514 -0.03598 -0.04626
v -0.04113 -0.03598 -0.02828
v 0.04112 -0.03598 -0.03085
v -0.0077 -0.05655 -0.04884
v 0.04369 -0.03598 -0.03855
v 0.04112 -0.05655 -0.03342
v -0.04113 -0.03598 -0.03599
v -0.04113 -0.05398 -0.035985
v -0.04113 -0.04626 -0.02828
v 0.01798 -0.055265 -0.04755
v 0.00514 -0.03598 -0.0257
v 0.04369 -0.04883 -0.03085
f 3 4 5
f 3 5 7
f 1 6 8
f 4 3 9
f 10 4 9
f 4 10 11
f 8 6 12
f 5 4 13
f 5 13 14
f 7 5 14
f 8 7 14
f 13 2 14
f 7 12 3
f 6 10 9
f 11 2 4
f 2 13 4
f 2 1 14
f 1 11 10
f 9 3 6
f 3 12 6
f 14 1 8
f 12 7 8
f 6 1 10
f 2 11 1
