# Created by Open3D 
# object name: convex_34_coll
# number of vertices: 10
# number of triangles: 16
v -0.04113 0.03341 -0.02056
v -0.04627 0.03598 -0.01799
v -0.0437 0.04112 -0.01799
v -0.04113 0.03341 -0.01028
v -0.04113 0.04112 -0.01285
v -0.04627 0.03598 -0.01285
v -0.0437 0.018 -0.01799
v -0.04113 0.01285 -0.01285
v -0.04627 0.0257 -0.01285
v -0.0437 0.02057 -0.01028
f 1 2 3
f 4 5 6
f 5 4 1
f 7 1 8
f 1 4 8
f 1 7 2
f 7 8 9
f 6 2 9
f 2 7 9
f 4 6 10
f 8 4 10
f 6 9 10
f 9 8 10
f 6 5 3
f 5 1 3
f 2 6 3
