# Created by Open3D 
# object name: convex_10_coll
# number of vertices: 14
# number of triangles: 24
v -0.05655 0.05397 0.03341
v -0.05655 0.0514 0.04112
v -0.07968 0.01285 0.03341
v -0.07454 0.01285 0.03341
v -0.07968 0.01285 0.03855
v -0.07968 0.052685 0.029555
v -0.05655 0.06425 0.04369
v -0.05655 0.07196 0.03598
v -0.07197 0.05397 0.02056
v -0.0771 0.05654 0.02056
v -0.07197 0.05911 0.04369
v -0.07454 0.01285 0.03855
v -0.07582 0.057825 0.04112
v -0.06426 0.06939 0.04112
f 3 4 5
f 6 3 5
f 7 1 8
f 8 9 10
f 11 5 12
f 5 4 12
f 4 3 9
f 1 7 2
f 7 12 2
f 5 11 13
f 6 5 13
f 6 13 10
f 10 13 14
f 9 3 10
f 3 6 10
f 12 4 2
f 1 9 8
f 14 13 11
f 7 14 11
f 14 7 8
f 10 14 8
f 11 12 7
f 4 9 1
f 2 4 1
