# Created by Open3D 
# object name: convex_33_coll
# number of vertices: 14
# number of triangles: 24
v -0.04884 -0.01542 -0.01799
v -0.04627 -0.01542 -0.01028
v -0.0437 -0.00771 -0.01542
v -0.04113 -0.04112 -0.02056
v -0.04113 -0.00771 -0.01285
v -0.04113 -0.04112 -0.01028
v -0.04113 -0.01542 -0.02056
v -0.04627 -0.04112 -0.02056
v -0.05141 -0.0257 -0.01799
v -0.05141 -0.0257 -0.01285
v -0.04884 -0.02057 -0.02056
v -0.04884 -0.03598 -0.01285
v -0.04884 -0.02827 -0.01028
v -0.04113 -0.01285 -0.01028
f 1 2 3
f 4 5 6
f 5 4 7
f 7 4 8
f 4 6 8
f 9 10 1
f 10 2 1
f 7 8 11
f 8 9 11
f 9 1 11
f 1 7 11
f 10 9 12
f 9 8 12
f 8 6 12
f 2 10 13
f 6 2 13
f 10 12 13
f 12 6 13
f 6 5 14
f 5 2 14
f 2 6 14
f 5 7 3
f 2 5 3
f 7 1 3
