# Created by Open3D 
# object name: convex_36_coll
# number of vertices: 14
# number of triangles: 24
v 0.00514 -0.05655 0.00514
v 0.03598 -0.05141 -0
v 0.03083 -0.05141 0.00514
v 0.00771 -0.03598 0.00514
v 0.03083 -0.04883 0.00514
v 0.03598 -0.04883 -0
v -0.02056 -0.05655 0.00514
v -0.02056 -0.05655 0.00257
v -0.01542 -0.03598 0.00257
v -0.01799 -0.03855 0.00514
v -0 -0.04626 -0
v 0.00771 -0.03598 0.00257
v -0.02056 -0.04369 0.00257
v 0.00514 -0.05655 0.00257
f 1 2 3
f 4 5 6
f 5 4 7
f 5 7 1
f 7 8 1
f 4 9 10
f 7 4 10
f 6 5 2
f 8 11 2
f 11 6 2
f 4 6 12
f 9 4 12
f 6 11 12
f 11 9 12
f 8 7 13
f 11 8 13
f 9 11 13
f 10 9 13
f 7 10 13
f 1 8 14
f 8 2 14
f 2 1 14
f 5 1 3
f 2 5 3
