# Created by Open3D 
# object name: convex_16_coll
# number of vertices: 14
# number of triangles: 24
v -0.04113 -0.07454 0.01542
v -0.04113 -0.05141 0.01285
v -0.04113 -0.0694 0.01799
v -0.04113 -0.07454 -0.00771
v -0.04884 -0.07454 -0.00771
v -0.05912 -0.05398 -0.00771
v -0.05912 -0.05141 0.01542
v -0.05912 -0.07196 0.01028
v -0.04113 -0.05141 0.00514
v -0.04113 -0.05912 -0.00771
v -0.05912 -0.07196 -0.00771
v -0.05912 -0.06682 0.01542
v -0.05141 -0.07454 0.01028
v -0.05912 -0.05141 0.00514
f 1 2 3
f 4 5 6
f 7 6 8
f 5 4 1
f 4 9 1
f 9 4 10
f 4 6 10
f 6 9 10
f 6 5 11
f 8 6 11
f 9 7 2
f 1 9 2
f 3 7 12
f 7 8 12
f 5 1 13
f 11 5 13
f 8 11 13
f 7 9 14
f 6 7 14
f 9 6 14
f 3 12 1
f 12 8 1
f 8 13 1
f 2 7 3
