# Created by Open3D 
# object name: convex_18_coll
# number of vertices: 14
# number of triangles: 24
v 5.00004e-06 -0.06939 -0.05141
v 0.011565 -0.07454 -0.04368
v 0.00514 -0.05655 0.00514
v 0.04369 -0.07454 0.00514
v 0.04369 -0.06683 0.00514
v 0.04112 -0.05655 -0.03597
v 0.04369 -0.07454 -0.03597
v -0.04113 -0.05655 -0.04368
v -0.03984 -0.075825 0.00514
v -0.04113 -0.07068 -0.04369
v -0.010275 -0.05912 -0.05012
v -0.04113 -0.05912 0.00514
v 0.01027 -0.05655 -0.04883
v -0.02827 -0.07711 -0.011565
f 3 4 5
f 6 5 7
f 8 3 6
f 4 3 9
f 8 10 9
f 11 1 10
f 9 3 12
f 8 9 12
f 7 5 4
f 8 6 13
f 14 4 9
f 2 14 10
f 3 8 12
f 7 4 14
f 11 10 8
f 1 11 13
f 7 1 13
f 3 5 6
f 8 13 11
f 1 7 2
f 7 14 2
f 7 13 6
f 9 10 14
f 2 10 1
