# Created by Open3D 
# object name: convex_22_coll
# number of vertices: 14
# number of triangles: 24
v 0.05911 -0.0347 0.016705
v 0.060395 -0.02313 0.00771
v 0.05397 -0.04112 -0.00771
v 0.06168 -0.02056 -0.00771
v 0.06168 -0.05655 -0.00771
v 0.06168 -0.03855 0.01799
v 0.05911 -0.05655 0.01799
v 0.0514 -0.03085 0.01028
v 0.05397 -0.05655 -0.00771
v 0.05911 -0.02056 -0.00771
v 0.0514 -0.03855 0.01028
v 0.06168 -0.05655 0.01799
v 0.0514 -0.03085 0.00514
v 0.05654 -0.05655 0.01028
f 3 4 5
f 4 6 5
f 6 1 7
f 1 8 7
f 3 5 9
f 5 7 9
f 6 4 2
f 4 3 10
f 2 4 10
f 7 8 11
f 5 6 12
f 6 7 12
f 7 5 12
f 3 9 13
f 8 10 13
f 10 3 13
f 11 8 13
f 9 11 13
f 6 2 1
f 9 7 14
f 7 11 14
f 11 9 14
f 10 8 2
f 8 1 2
