# Created by Open3D 
# object name: convex_26_coll
# number of vertices: 14
# number of triangles: 24
v -0.01028 0.06938 -0.03597
v -0.00129 0.06938 0.00385
v -0.01285 -0.03598 0.00514
v 0.01799 0.001295 0.00514
v 0.02569 -0.03598 -0.04112
v -0.01799 -0.03598 -0.03855
v -0.01799 0.05139 -0.039835
v -0.01799 0.034695 -0.001285
v 0.011565 -0.03469 0.00514
v 0.02569 0.034695 -0.038545
v 0.007705 0.019275 -0.05141
v -0.00771 0.010285 -0.05141
v 0 -0.03598 -0.04626
v 0.02313 0.06938 -0.02826
f 2 3 4
f 5 3 6
f 7 6 8
f 3 2 8
f 3 5 9
f 4 3 9
f 7 1 12
f 5 6 13
f 5 11 10
f 2 4 14
f 13 6 12
f 6 7 12
f 8 2 1
f 5 10 14
f 12 1 11
f 5 4 9
f 8 6 3
f 12 11 13
f 11 5 13
f 8 1 7
f 14 4 5
f 14 10 1
f 10 11 1
f 2 14 1
