# Created by Open3D 
# object name: convex_0_coll
# number of vertices: 12
# number of triangles: 20
v -0.04369 0.01285 -0.06683
v -0.03855 -0.0077 -0.06683
v -0.04626 0.00771 -0.06683
v -0.018 0.02827 -0.06169
v -0.04626 -0.00513 -0.06169
v -0.018 -0.0077 -0.06169
v -0.018 -0.0077 -0.06683
v -0.02057 0.02827 -0.06683
v -0.04369 0.01542 -0.06169
v -0.04626 -0.00513 -0.06426
v -0.03855 -0.01028 -0.06169
v -0.018 0.02827 -0.06683
f 1 2 3
f 4 5 6
f 7 4 6
f 8 7 1
f 4 8 9
f 5 4 9
f 8 1 9
f 1 7 2
f 5 10 11
f 6 5 11
f 7 6 11
f 10 2 11
f 2 7 11
f 7 8 12
f 8 4 12
f 4 7 12
f 10 5 3
f 5 9 3
f 9 1 3
f 2 10 3
