# Created by Open3D 
# object name: convex_20_coll
# number of vertices: 14
# number of triangles: 24
v -0.038555 -0.07196 0.029555
v -0.038555 -0.07325 0.03598
v -0.03084 -0.0771 0.03084
v -0.01799 -0.07453 0.02056
v 0.04369 -0.07453 0.02056
v 0.04369 -0.06683 0.02056
v 0.04369 -0.07453 0.03341
v 0.030835 -0.065545 0.04112
v 0.02248 -0.07261 0.0404775
v -0.02313 -0.05912 0.03855
v 0.0077 -0.05912 0.03855
v -0.02312 -0.05912 0.029555
v 0.007705 -0.06169 0.024415
v -0.04113 -0.06683 0.03598
f 3 4 5
f 4 6 5
f 6 7 5
f 9 8 10
f 11 12 10
f 8 11 10
f 12 4 1
f 12 11 13
f 6 4 13
f 4 12 13
f 8 7 6
f 5 7 3
f 7 9 3
f 9 2 3
f 10 14 2
f 9 10 2
f 4 3 1
f 14 10 12
f 1 14 12
f 7 8 9
f 8 6 11
f 6 13 11
f 14 1 2
f 1 3 2
