# Created by Open3D 
# object name: convex_31_coll
# number of vertices: 14
# number of triangles: 24
v -0.02313 -0.05912 0.03855
v -0.04113 0.05653 0.03342
v -0.04113 0.05653 0.04112
v 0.01799 0.05653 0.04369
v 0.04369 0.00771 0.02056
v 0.042405 -0.0211925 0.0375913
v 0.028265 0.05267 0.0340575
v -0.025695 -0.0539663 0.0314838
v -0.0044875 0.0019275 0.02056
v -0.006425 0.003855 0.04883
v 0.04112 0.0044975 0.04883
v 0.01285 -0.05912 0.03855
v 0.014775 -0.0552425 0.02699
v 0.008995 0.04367 0.02313
f 4 2 3
f 2 4 7
f 8 3 2
f 9 8 2
f 6 5 11
f 3 10 4
f 10 11 4
f 1 8 12
f 9 2 14
f 11 5 4
f 5 7 4
f 12 8 13
f 3 8 1
f 2 7 14
f 8 9 13
f 10 1 11
f 1 12 11
f 3 1 10
f 5 6 13
f 5 13 9
f 14 5 9
f 5 14 7
f 11 12 6
f 13 6 12
