# Created by Open3D 
# object name: convex_32_coll
# number of vertices: 14
# number of triangles: 24
v -0.04113 0.05655 0.03341
v -0.04113 0.07711 0.03341
v 0.01284 0.05655 0.04369
v -0.04113 0.05655 0.04112
v 0.019265 0.07711 0.04112
v -0.0077 0.07711 0.04626
v 0.02312 0.05655 0.032125
v 0.01284 0.07197 0.02056
v -0.04113 0.07454 0.04112
v 0.02055 0.07711 0.0257
v 0.02826 0.0694 0.02056
v 0.03083 0.07454 0.02313
v 0.03083 0.068755 0.0404775
v 0.01284 0.07454 0.04626
f 1 3 4
f 5 2 6
f 3 1 7
f 4 2 1
f 2 4 9
f 4 6 9
f 2 5 10
f 1 8 11
f 1 11 7
f 3 14 6
f 14 3 13
f 5 6 14
f 13 5 14
f 7 13 3
f 10 8 2
f 6 2 9
f 13 7 11
f 12 13 11
f 6 4 3
f 12 5 13
f 5 12 10
f 11 8 12
f 8 10 12
f 8 1 2
