# Created by Open3D 
# object name: convex_4_coll
# number of vertices: 14
# number of triangles: 24
v 0.01028 -0.03855 0.06682
v 0.01285 -0.011575 0.07197
v 0.0257 -0.00771 0.06939
v 0.0257 -0.00771 0.06426
v -0.0257 -0.00771 0.06169
v -0.00257 -0.04369 0.06169
v 0.01285 -0.03855 0.06169
v -0.0257 -0.00771 0.06682
v 0.01542 -0.00771 0.06169
v -0.00514 -0.04112 0.06682
v -0 -0.00771 0.07197
v -0.02056 -0.02057 0.06682
v 0.00514 -0.04369 0.06169
v -0.02313 -0.01799 0.06169
f 3 4 5
f 6 5 7
f 3 5 8
f 5 4 9
f 4 7 9
f 7 5 9
f 10 11 12
f 6 10 12
f 11 8 12
f 6 7 13
f 7 1 13
f 3 8 11
f 2 3 11
f 7 4 3
f 1 7 3
f 2 1 3
f 5 6 14
f 8 5 14
f 6 12 14
f 12 8 14
f 11 10 2
f 13 10 6
f 10 13 1
f 2 10 1
