# Created by Open3D 
# object name: convex_11_coll
# number of vertices: 14
# number of triangles: 24
v -0.04113 0.07454 0.03342
v -0.05655 0.07196 0.03598
v -0.04113 0.07454 0.04112
v -0.04113 0.02314 0.03342
v -0.04113 0.02571 0.04112
v -0.05655 0.04884 0.03598
v -0.05398 0.02571 0.03342
v -0.0514 0.06425 0.04369
v -0.05655 0.06939 0.04369
v -0.04113 0.02571 0.03084
v -0.04627 0.03599 0.03084
v -0.05398 0.05654 0.03342
v -0.05398 0.02571 0.03855
v -0.04884 0.02314 0.03855
f 1 2 3
f 4 1 5
f 7 6 2
f 8 5 3
f 5 1 3
f 2 6 9
f 8 3 9
f 1 4 10
f 4 7 10
f 11 1 10
f 7 11 10
f 7 2 12
f 11 7 12
f 6 7 13
f 5 8 9
f 13 5 9
f 6 13 9
f 4 5 14
f 7 4 14
f 13 7 14
f 5 13 14
f 12 2 1
f 11 12 1
f 2 9 3
