# Created by Open3D 
# object name: convex_14_coll
# number of vertices: 14
# number of triangles: 24
v 0.060395 -0.026985 0.03341
v 0.050125 -0.0257 0.0347
v 0.04369 0.01542 0.02056
v 0.04369 -0.01799 0.04112
v 0.04369 0.02827 0.03855
v 0.04369 -0.00771 0.0257
v 0.060395 0.01927 0.04112
v 0.04498 0.016695 0.047545
v 0.06168 0.00257 0.04626
v 0.06168 -0.02313 0.04112
v 0.06168 0.017985 0.029555
v 0.04369 -0 0.04883
v 0.06168 -0.01799 0.02827
v 0.04883 0.0257 0.029555
f 3 4 5
f 4 3 6
f 7 8 9
f 10 11 9
f 5 4 12
f 11 10 13
f 1 6 13
f 6 3 13
f 9 11 7
f 12 10 9
f 8 12 9
f 3 5 14
f 5 12 8
f 2 4 6
f 13 10 1
f 2 1 4
f 10 12 4
f 1 10 4
f 11 13 3
f 7 14 5
f 8 7 5
f 14 7 11
f 3 14 11
f 6 1 2
