# Created by Open3D 
# object name: convex_25_coll
# number of vertices: 14
# number of triangles: 24
v -0.04113 -0.03598 -0.03598
v -0.01799 -0.00513 -0.04113
v -0.01799 -0.03598 -0.03598
v -0.01799 0.04111 -0.04113
v -0.01799 0.01027 -1e-05
v -0.04113 -0.03598 -0.01029
v -0.04113 0.0514 -0.03598
v -0.01799 -0.03598 -0.00772
v -0.04113 0.03854 -0.01029
v -0.01799 0.0514 -0.01029
v -0.01799 0.05397 -0.03855
v -0.04113 0.05397 -0.02827
v -0.02828 0.04882 -0.00772
v -0.01799 0.04368 -0.00515
f 1 2 3
f 4 5 3
f 3 6 1
f 6 7 1
f 3 5 8
f 6 3 8
f 7 6 9
f 5 4 10
f 4 7 11
f 10 4 11
f 7 9 12
f 9 13 12
f 5 13 9
f 4 3 2
f 13 5 14
f 5 10 14
f 10 13 14
f 6 8 5
f 2 1 7
f 2 7 4
f 12 10 11
f 6 5 9
f 11 7 12
f 10 12 13
