# Created by Open3D 
# object name: convex_35_coll
# number of vertices: 14
# number of triangles: 24
v 0 -0.03598 -0.00257
v 0.03854 -0.04626 -0
v 0.01798 -0.03598 -0.009
v 0.0077 -0.04112 -0.02313
v 0.00513 -0.04883 -0.02313
v -0.04113 -0.05655 -0.02056
v -0.04113 -0.05655 -0.00772
v -0.04113 -0.03598 -0.01028
v -0.04113 -0.03598 -0.02056
v -0.00386 -0.05655 -0.019275
v 0.0077 -0.03598 -0.02056
v 0.04111 -0.04626 -0.01028
v 0.0334 -0.05398 -0
v 0.03597 -0.05141 -0.01285
f 1 2 3
f 4 5 6
f 7 8 6
f 4 6 9
f 6 8 9
f 8 3 9
f 3 8 1
f 7 6 10
f 4 9 11
f 9 3 11
f 3 12 11
f 10 14 13
f 7 10 13
f 7 1 8
f 11 12 4
f 12 14 4
f 6 5 10
f 2 1 13
f 1 7 13
f 14 10 5
f 4 14 5
f 14 12 2
f 13 14 2
f 2 12 3
