# Created by Open3D 
# object name: convex_27_coll
# number of vertices: 14
# number of triangles: 24
v 0.0257 -0.00513 -0.0257
v 0.04369 -0.0334 -0.03085
v 0.037265 1.00001e-05 -0.0257
v 0.0257 0.0514 -0.03598
v 0.0257 -0.03598 -0.04113
v 0.04369 -0.03598 -0.03855
v 0.04369 0.04882 -0.0257
v 0.04369 1.00001e-05 -0.04113
v 0.0257 0.0514 -0.02827
v 0.04369 0.0514 -0.03341
v 0.0257 -0.03598 -0.03085
v 0.0257 0.01541 -0.04113
v 0.03342 0.04882 -0.0257
v 0.03855 0.019265 -0.03984
f 1 2 3
f 4 5 1
f 7 6 8
f 6 7 2
f 4 1 9
f 7 8 10
f 9 7 10
f 4 9 10
f 1 5 11
f 5 6 11
f 5 4 12
f 8 5 12
f 7 1 3
f 1 7 13
f 7 9 13
f 1 11 2
f 11 6 2
f 10 8 14
f 6 5 8
f 13 9 1
f 8 12 14
f 10 14 4
f 14 12 4
f 7 3 2
