# Created by Open3D 
# object name: convex_7_coll
# number of vertices: 14
# number of triangles: 24
v -0.0694 0.06683 0.00771
v -0.06169 0.06425 0.01028
v -0.05912 -0.07197 -0.00771
v -0.07968 0.05139 -0.00771
v -0.06169 0.06683 -0.00771
v -0.07968 -0.04368 0.01799
v -0.05912 -0.06425 0.01799
v -0.07968 -0.04626 -0.00771
v -0.05912 0.056535 0.003855
v -0.07454 -0.06682 -0.00771
v -0.078395 0.05268 0.011565
v -0.073255 0.062965 -0.00771
v -0.0674725 -0.067465 0.014135
v -0.070685 0.05525 0.01542
f 3 4 5
f 4 3 8
f 6 4 8
f 9 7 3
f 8 3 10
f 4 6 11
f 7 9 2
f 5 4 12
f 7 6 13
f 14 6 7
f 2 14 7
f 11 6 14
f 3 7 13
f 1 5 12
f 6 8 10
f 12 4 11
f 1 12 11
f 5 9 3
f 14 2 1
f 11 14 1
f 10 3 13
f 10 13 6
f 9 5 2
f 5 1 2
