# Created by Open3D 
# object name: convex_5_coll
# number of vertices: 14
# number of triangles: 24
v 0.07197 -0.00769 0.0591
v 0.0764625 0.021835 0.0591
v 0.07967 -0.05396 -0.00771
v 0.06426 0.06938 -0.00771
v 0.07967 0.0591 -0.00771
v 0.06168 -0.05652 -0.00771
v 0.06168 -0.05652 0.02571
v 0.06168 0.01027 0.04625
v 0.0738975 -0.05588 0.039185
v 0.08225 -0.03597 0.028275
v 0.07711 0.06681 0.04112
v 0.07967 -0.00769 0.0591
v 0.07454 0.06938 -0.00771
v 0.0694 0.06681 0.04112
f 3 4 5
f 4 3 6
f 3 7 6
f 6 7 8
f 7 3 9
f 3 5 10
f 2 1 12
f 1 9 12
f 5 4 13
f 2 11 14
f 8 2 14
f 4 6 8
f 10 5 12
f 8 7 9
f 1 8 9
f 13 4 14
f 3 10 9
f 5 11 2
f 12 5 2
f 13 14 11
f 4 8 14
f 11 5 13
f 10 12 9
f 2 8 1
