# Created by Open3D 
# object name: convex_23_coll
# number of vertices: 14
# number of triangles: 24
v -0.05655 -0.02827 -0.02828
v -0.04627 -0.02827 -0.0257
v -0.05398 0.006425 -0.0257
v -0.05655 -0.04112 -0.03085
v -0.05655 -0.04112 -0.03855
v -0.04113 -0.04112 -0.03598
v -0.05655 0.04882 -0.03598
v -0.04113 0.05398 -0.02828
v -0.04113 0.0514 -0.03598
v -0.04113 -0.03084 -0.0257
v -0.05655 0.0514 -0.02828
v -0.04113 0.04882 -0.0257
v -0.04113 -0.04112 -0.02828
v -0.04884 0.05398 -0.03341
f 1 2 3
f 4 5 6
f 5 4 7
f 8 6 9
f 6 8 10
f 7 4 11
f 10 8 12
f 8 11 12
f 3 10 12
f 11 4 1
f 3 11 1
f 4 6 13
f 6 10 13
f 7 9 5
f 9 6 5
f 9 7 14
f 8 9 14
f 11 8 14
f 7 11 14
f 10 3 2
f 1 4 2
f 4 13 2
f 13 10 2
f 11 3 12
