# Created by Open3D 
# object name: convex_19_coll
# number of vertices: 14
# number of triangles: 24
v -0.04113 -0.0694 0.01799
v -0.02569 -0.07454 0.02056
v 0.01285 -0.06169 0.00514
v 0.04369 -0.07454 0.00514
v -0.03984 -0.075825 0.00514
v 0.04369 -0.06683 0.02056
v 0.04369 -0.07454 0.02056
v -0.04113 -0.06169 0.00514
v -0.04113 -0.06169 0.01285
v -0.00513 -0.06426 0.02056
v 0.04369 -0.06683 0.00514
v -0.00257 -0.07711 0.00514
v -0.03341 -0.07711 0.01799
v -0.03855 -0.07711 0.01285
f 3 4 5
f 7 4 6
f 7 6 2
f 3 5 8
f 5 9 8
f 2 6 10
f 4 3 11
f 3 6 11
f 6 4 11
f 4 7 12
f 5 4 12
f 7 2 13
f 14 12 13
f 3 8 9
f 9 5 1
f 5 14 1
f 14 13 1
f 13 2 1
f 3 9 6
f 9 10 6
f 12 14 5
f 12 7 13
f 10 9 1
f 2 10 1
