# Created by Open3D 
# object name: convex_6_coll
# number of vertices: 14
# number of triangles: 24
v -0.0726125 0.06681 -0.011575
v -0.07968 0.05138 -0.00772
v -0.05655 0.06681 -0.03341
v -0.05655 -0.07197 -0.00772
v -0.05655 -0.068095 -0.044975
v -0.06169 0.06681 -0.00772
v -0.07454 -0.06681 -0.00772
v -0.07968 -0.04625 -0.00772
v -0.08225 0.002575 -0.03855
v -0.07582 0.011545 -0.044975
v -0.06169 0.06166 -0.03855
v -0.076785 0.0571687 -0.0340538
v -0.07454 -0.06681 -0.03341
v -0.06972 -0.060385 -0.0465812
f 3 4 5
f 4 6 2
f 4 2 7
f 7 2 8
f 11 12 3
f 3 6 4
f 2 6 1
f 4 7 13
f 7 8 13
f 8 9 13
f 10 9 12
f 10 11 14
f 11 5 14
f 5 11 3
f 6 3 1
f 2 9 8
f 10 14 9
f 13 5 4
f 1 3 12
f 13 9 14
f 13 14 5
f 12 11 10
f 12 9 2
f 1 12 2
