# Created by Open3D 
# object name: convex_8_coll
# number of vertices: 14
# number of triangles: 24
v -0.06426 -0.06168 0.01799
v -0.06169 -0.03598 0.01799
v -0.073255 -0.06039 0.01799
v -0.07968 -0.018 0.01799
v -0.073255 0.00513 0.04112
v -0.07454 0.01285 0.03341
v -0.07968 0.01285 0.03598
v -0.0694 -0.01543 0.01799
v -0.07968 -0.04369 0.01799
v -0.06426 -1e-05 0.037265
v -0.078395 -0.048825 0.037265
v -0.07454 -0.04882 0.04112
v -0.06169 -0.04626 0.03855
v -0.070685 -0.05397 0.03855
f 2 3 4
f 5 6 7
f 2 4 8
f 7 4 9
f 7 9 11
f 1 13 14
f 10 2 8
f 6 10 8
f 5 12 13
f 7 11 5
f 8 4 7
f 6 8 7
f 4 3 9
f 2 10 13
f 3 1 14
f 12 11 14
f 12 14 13
f 3 2 1
f 6 5 10
f 5 13 10
f 14 11 3
f 9 3 11
f 5 11 12
f 13 1 2
