# Created by Open3D 
# object name: convex_15_coll
# number of vertices: 14
# number of triangles: 24
v -0.04113 -0.05911 -0.04626
v -0.05655 -0.04113 -0.03855
v -0.04113 -0.04113 -0.03598
v -0.05655 -0.07196 -0.03341
v -0.05655 -0.05655 -0.00771
v -0.04113 -0.04113 -0.01029
v -0.04113 -0.06682 -0.04626
v -0.04113 -0.07453 -0.00771
v -0.05655 -0.07196 -0.00771
v -0.05655 -0.068105 -0.044975
v -0.04113 -0.07196 -0.04112
v -0.05655 -0.04113 -0.03084
v -0.04627 -0.04113 -0.01286
v -0.05655 -0.05911 -0.04626
f 1 2 3
f 4 5 2
f 3 2 6
f 3 6 7
f 7 6 8
f 8 5 9
f 5 4 9
f 4 2 10
f 10 7 11
f 8 4 11
f 7 8 11
f 3 7 1
f 7 10 1
f 2 5 12
f 6 2 12
f 6 12 13
f 5 6 13
f 12 5 13
f 10 2 14
f 2 1 14
f 1 10 14
f 5 8 6
f 4 8 9
f 11 4 10
