# Created by Open3D 
# object name: convex_1_coll
# number of vertices: 14
# number of triangles: 24
v -0.01799 -0.01027 -0.06426
v -0.00193 -0.003855 -0.07197
v 0 -0.0346875 -0.066185
v -0.01799 0.02827 -0.06683
v 0.002565 -0.006425 -0.05141
v 0.006415 0.0167 -0.05141
v -0.00771 0.01541 -0.05141
v -5.00004e-06 0.01541 -0.07197
v 0.001285 -0.03855 -0.06169
v -0.016705 0.029555 -0.06169
v 0.01798 -0.01285 -0.06169
v 0.017345 -0.0096325 -0.0674725
v 0.0064225 0.0244125 -0.06169
v 0.01798 0.01284 -0.0694
f 1 2 3
f 5 6 7
f 7 1 5
f 4 1 10
f 1 7 10
f 11 3 12
f 8 2 4
f 10 13 4
f 10 6 13
f 5 11 6
f 11 13 6
f 9 5 1
f 4 13 14
f 14 8 4
f 14 12 2
f 8 14 2
f 4 2 1
f 3 11 9
f 11 5 9
f 2 12 3
f 6 10 7
f 13 11 14
f 11 12 14
f 9 1 3
