# Created by Open3D 
# object name: convex_13_coll
# number of vertices: 14
# number of triangles: 24
v 0.0167 0.01285 0.07197
v 0.034695 0.010285 0.068105
v -0.00257 -0.00771 0.07197
v -0.03084 -0.00514 0.0655375
v 0 -0.00771 0.05912
v -0.00257 0.02313 0.05912
v -0.02827 0.01798 0.064255
v 0.00385 0.03341 0.06426
v 0.02826 -0.00771 0.066825
v 0.03598 0.01285 0.06169
v 0.0051375 0.0327675 0.06939
v -0.03341 -0.00514 0.06169
v -0.01285 0.0167 0.07068
v 0.03598 0.00257 0.06169
f 3 4 5
f 6 7 8
f 3 5 9
f 5 6 10
f 8 7 11
f 3 9 2
f 3 1 13
f 1 11 13
f 5 14 9
f 3 13 4
f 13 7 4
f 10 6 8
f 2 14 10
f 13 11 7
f 7 6 12
f 4 7 12
f 10 8 11
f 2 10 11
f 14 5 10
f 4 12 5
f 12 6 5
f 2 9 14
f 3 2 1
f 11 1 2
