# Created by Open3D 
# object name: convex_0_coll
# number of vertices: 14
# number of triangles: 24
v -0.003475 -0.04274 -0.012705
v 0.01154 -0.05429 -0.04274
v -0.05544 -0.04968 -0.0358
v -0.0485 -0.05891 -0.03811
v 0.02541 -0.06353 -0.04042
v -0.03464 -0.06353 0.00808
v -0.0271375 -0.0629525 -0.03869
v -0.03233 -0.04274 0.00808
v -0.0167375 -0.04274 0.009235
v 0.02309 -0.06353 0.01271
v 0.03696 -0.05891 -0.03349
v 0.031175 -0.05891 0.008085
v -0.0485 -0.05199 0.00808
v -0.0485 -0.05891 0.00577
f 1 2 3
f 5 6 7
f 1 8 9
f 6 5 10
f 10 5 11
f 4 2 5
f 4 5 7
f 9 8 13
f 5 2 11
f 1 12 11
f 9 13 6
f 1 9 12
f 4 6 14
f 12 9 10
f 9 6 10
f 3 8 1
f 2 1 11
f 14 13 3
f 4 14 3
f 6 4 7
f 10 11 12
f 2 4 3
f 6 13 14
f 13 8 3
