# Created by Open3D 
# object name: convex_1_coll
# number of vertices: 14
# number of triangles: 24
v 0.061225 -0.018475 0.02425
v 0.05545 0.02887 -0.0259825
v 0.05776 -0.030035 -0.032335
v 0.05545 0.02656 0.03118
v 0.07393 -0.025405 0.005765
v 0.07393 0.0329125 -0.0306025
v 0.072775 0.0138625 0.03234
v 0.0687325 0.05833 0.000565
v 0.068155 0.03119 0.0335
v 0.06469 0.05659 -0.02887
v 0.068155 0.009245 -0.04273
v 0.0641125 -0.03696 -0.0132825
v 0.070465 -0.03118 0.010385
v 0.06238 -0.01731 -0.04042
f 2 3 4
f 5 6 7
f 7 6 8
f 2 4 8
f 12 13 1
f 7 9 4
f 12 5 13
f 5 12 3
f 2 8 10
f 8 6 10
f 2 14 3
f 1 3 12
f 7 8 9
f 4 3 1
f 5 7 13
f 7 1 13
f 3 14 11
f 5 3 11
f 6 5 11
f 11 14 10
f 14 2 10
f 8 4 9
f 10 6 11
f 7 4 1
