# Created by Open3D 
# object name: convex_5_coll
# number of vertices: 14
# number of triangles: 24
v -0.04389 -0.01732 -0.0335
v -0.00232 -0.03927 -0.030035
v -0.04158 -0.01732 -0.02657
v 0.0023 0.02656 -0.03812
v 0.0127 -0.033485 -0.03812
v -1e-05 -0.04042 -0.03812
v 0.00693 -0.03812 -0.02888
v 0.00693 0.03348 -0.03581
v 0.00693 0.00809 -0.02426
v 0.01386 -0.031175 -0.03119
v -0.01617 0.03811 -0.03581
v -0.03465 0.04273 -0.03119
v -0.03465 0.03811 -0.02657
v -0.00463 0.04736 -0.030035
f 1 2 3
f 4 5 6
f 5 7 6
f 6 1 4
f 8 9 10
f 12 1 3
f 6 7 2
f 3 9 13
f 5 4 8
f 10 5 8
f 2 7 3
f 9 7 10
f 4 11 8
f 8 11 14
f 1 12 11
f 4 1 11
f 3 13 12
f 13 14 12
f 3 7 9
f 2 1 6
f 9 14 13
f 10 7 5
f 8 14 9
f 11 12 14
