# Created by Open3D 
# object name: convex_6_coll
# number of vertices: 14
# number of triangles: 24
v 0.001145 0.06006 -0.006935
v -0.04619 -0.03811 -0.01271
v -0.05776 -0.01963 -0.01963
v -0.051975 0.0306025 -0.0098225
v 0.036955 0.01732 -0.00809
v -0.00693 0.04965 0.00116
v 0.035795 -0.025405 -0.0075125
v -0.05776 -0.01963 -0.00578
v 0.00461 0.06122 -0.02195
v 0.03927 0.02656 -0.01733
v -0.01011 -0.0415825 -0.0063575
v 0.00923 0.00347 -0.02426
v -0.0104 -0.0407112 -0.019055
v -0.04619 0.04504 -0.01733
f 5 6 7
f 4 3 8
f 11 7 6
f 2 3 13
f 9 10 12
f 8 6 4
f 11 8 2
f 11 2 13
f 10 1 5
f 7 10 5
f 12 3 9
f 6 8 11
f 12 10 7
f 12 7 13
f 13 3 12
f 4 1 14
f 1 9 14
f 3 4 14
f 13 7 11
f 4 6 1
f 9 3 14
f 1 6 5
f 2 8 3
f 10 9 1
