# Created by Open3D 
# object name: convex_7_coll
# number of vertices: 14
# number of triangles: 24
v -0.04042 -0.040425 0.00347
v -0.05776 -0.02656 0.00347
v -0.05776 0.02887 0.0127
v -0.05776 -0.02193 0.0127
v -0.005785 0.004625 0.02195
v -0.006355 0.0461875 0.00116
v 0.0023 0.06122 0.00578
v -0.04157 0.06122 0.006935
v 0.03927 0.02425 0.01963
v 0.012695 -0.01269 0.02195
v 0.03927 0.03002 0.006935
v 0.0360862 -0.01501 0.0147237
v -0.01617 -0.04274 0.006935
v 0.032335 -0.019625 0.00578
f 3 2 4
f 5 3 4
f 9 7 8
f 11 6 7
f 11 9 12
f 13 6 14
f 6 2 8
f 4 2 1
f 8 2 3
f 10 12 9
f 5 10 9
f 12 10 13
f 6 13 1
f 14 6 11
f 7 9 11
f 12 13 14
f 14 11 12
f 1 2 6
f 1 13 4
f 13 10 4
f 8 7 6
f 5 8 3
f 8 5 9
f 10 5 4
