# Created by Open3D 
# object name: convex_4_coll
# number of vertices: 14
# number of triangles: 24
v 0.03928 0.030035 0.006935
v 0.05545 0.03119 0.0104
v 0.03928 0.02656 0.0335
v 0.03928 -0.00578 0.01502
v 0.05545 -0.00578 0.00578
v 0.05545 0.00578 0.03119
v 0.05545 0.02656 0.03119
v 0.03928 0.0104 0.0335
v 0.03928 0.00578 0.006935
v 0.03928 0.03119 0.03119
v 0.05545 -0.00809 0.01502
v 0.05545 0.02425 0.00578
v 0.05083 -0.00809 0.00809
v 0.03928 0.00578 0.03119
f 3 1 4
f 5 2 6
f 6 2 7
f 3 4 8
f 4 1 9
f 1 3 10
f 5 6 11
f 5 1 12
f 2 5 12
f 10 2 1
f 5 11 13
f 11 4 13
f 1 5 9
f 8 4 14
f 6 8 14
f 9 13 4
f 7 3 8
f 6 7 8
f 13 9 5
f 4 11 14
f 11 6 14
f 10 3 7
f 2 10 7
f 2 12 1
