# Created by Open3D 
# object name: convex_2_coll
# number of vertices: 14
# number of triangles: 24
v -0.058915 -0.034655 -0.0358
v -0.0664225 -0.0109675 -0.04389
v -0.05776 0.02657 0.0127
v -0.05776 -0.025405 0.01039
v -0.06238 0.05429 0.00577
v -0.068155 -0.023675 0.0109675
v -0.06931 0.05429 0.00577
v -0.07162 0.01616 -0.04042
v -0.07393 0.01733 0.006925
v -0.06007 0.0612 -0.03349
v -0.067 0.03117 -0.04505
v -0.06931 0.0612 -0.0358
v -0.070465 -0.031185 -0.032335
v -0.0675775 -0.03522 -0.013285
f 1 3 4
f 6 3 7
f 3 6 4
f 7 5 12
f 10 3 1
f 9 7 12
f 2 13 8
f 13 1 14
f 2 11 1
f 5 3 10
f 3 5 7
f 8 11 2
f 9 6 7
f 1 4 14
f 4 6 14
f 10 11 12
f 11 8 12
f 13 9 8
f 2 1 13
f 13 14 6
f 12 8 9
f 12 5 10
f 10 1 11
f 13 6 9
