# Created by Open3D 
# object name: convex_8_coll
# number of vertices: 14
# number of triangles: 24
v 0.0104 0.03581 0.0340775
v -0.0231 0.02425 0.03812
v 0.00923 0.00578 0.02195
v 0.03926 0.027715 0.02426
v 0.03926 0.00809 0.02195
v 0.03926 0.02888 0.0335
v 0.026555 0.01501 0.04505
v 0.01501 0.033495 0.025415
v 0.033495 -0.01501 0.0317675
v -0.02541 0.01501 0.0335
v -0.020785 -0.01155 0.039275
v -0.00924 0.02657 0.04274
v 0.02281 -0.01559 0.0271475
v -0.018475 -0.01617 0.0335
f 3 4 5
f 4 6 5
f 4 3 8
f 6 7 9
f 2 12 1
f 3 5 13
f 9 7 11
f 8 3 10
f 1 4 8
f 13 11 14
f 10 11 2
f 11 12 2
f 11 13 9
f 7 1 12
f 4 1 6
f 1 7 6
f 5 6 9
f 13 5 9
f 12 11 7
f 1 8 10
f 2 1 10
f 14 3 13
f 11 10 14
f 10 3 14
