# Original object name hint: convex_21
v -0.05115 -0.03493 0.06613
v 0.03117 0.04492 0.06863
v 0.03117 0.04492 0.06613
v 0.06862 -0.01746 0.06863
v -0.04866 0.00250 0.05615
v -0.06612 0.01247 0.07112
v 0.07111 0.00001 0.05865
v 0.00872 -0.00997 0.07611
v -0.05364 0.04492 0.06114
v 0.06862 0.03992 0.06863
v -0.02870 0.04492 0.07112
v 0.00373 -0.03993 0.06613
v -0.06862 -0.01996 0.05865
v 0.06862 0.01746 0.05865
v 0.06114 0.00998 0.07362
v -0.06363 -0.01996 0.07112
v 0.00124 -0.03993 0.07112
v -0.00623 0.01496 0.07611
v -0.04118 -0.03493 0.06114
v 0.00623 0.04492 0.06114
v -0.06862 -0.00748 0.05615
v 0.02869 0.04492 0.07112
v -0.07362 0.00001 0.06613
v 0.06611 -0.01496 0.07112
v -0.05614 0.04492 0.06613
v -0.03867 -0.00748 0.05615
v 0.06862 0.03992 0.06613
v 0.06862 -0.01496 0.06364
v -0.01371 0.00001 0.07611
v 0.07362 0.00998 0.06613
v -0.07111 0.00998 0.06114
v -0.06862 -0.02495 0.06613
v 0.04118 0.02495 0.07362
v -0.04616 -0.03742 0.06364
v -0.06862 -0.00997 0.07112
v 0.05364 -0.00748 0.07362
v -0.00124 -0.00997 0.07611
v -0.05115 0.04492 0.06863
v 0.06862 0.01496 0.07112
v -0.06862 0.01746 0.06863
v 0.00373 0.01496 0.07611
v -0.00373 -0.03993 0.07112
v -0.07362 -0.00748 0.06114
v 0.07362 -0.00249 0.06114
v -0.06862 -0.00249 0.05615
v -0.05115 -0.03243 0.06863
v -0.04118 0.03743 0.07112
v 0.07362 0.00998 0.06114
v -0.01371 0.00998 0.07611
v -0.06862 -0.02495 0.06114
v -0.07111 -0.01746 0.06863
v 0.06862 -0.00997 0.07112
v -0.03867 0.00250 0.05615
v 0.06611 0.02744 0.07112
v -0.03117 0.02495 0.05865
v 0.07362 -0.00249 0.06613
v -0.06862 0.00498 0.07112
v -0.07111 0.00498 0.05865
v 0.06862 -0.01746 0.06613
v 0.06114 0.00001 0.07362
v 0.01121 0.00748 0.07611
v 0.03616 -0.01496 0.07362
v -0.04616 -0.03742 0.06613
v 0.07111 0.01496 0.05865
v -0.05865 0.06738 -0.04366
v -0.05366 0.07237 0.04866
v -0.05615 0.07237 0.04866
v -0.05615 0.07237 -0.03867
v -0.06613 0.06988 -0.03118
v -0.05865 0.06988 0.04366
v -0.06613 0.06738 -0.04366
v -0.05615 0.06738 -0.03368
v -0.06114 0.07237 -0.03867
v -0.05366 0.06988 0.04866
v -0.05865 0.07237 0.04366
v -0.06613 0.06738 -0.03118
v -0.06613 0.06988 -0.04366
v -0.05615 0.05241 0.05865
v 0.01621 0.06488 0.07112
v 0.01621 0.06488 0.06364
v 0.02870 0.04492 0.06613
v -0.05365 0.04492 0.06863
v -0.05865 0.06488 0.06613
v 0.00624 0.04492 0.06114
v -0.03368 0.06488 0.05865
v 0.02620 0.04492 0.07112
v -0.01374 0.06488 0.07112
v -0.05615 0.04492 0.06114
v -0.02870 0.04492 0.07112
v 0.01122 0.06488 0.06114
v -0.05865 0.06488 0.05865
v -0.05116 0.06488 0.06863
v -0.04117 0.04742 0.05865
v -0.05865 0.04742 0.06613
v 0.02870 0.04742 0.06863
v 0.00873 0.07986 0.06114
v -0.05615 0.06988 0.04866
v -0.05864 0.06488 0.05615
v 0.04865 0.06988 0.04866
v 0.01372 0.06488 0.07112
v -0.05615 0.07237 0.06613
v -0.01372 0.07986 0.04866
v 0.05365 0.07736 0.05865
v 0.01372 0.07237 0.07112
v 0.05365 0.07736 0.04866
v -0.04866 0.07736 0.05615
v -0.05864 0.06488 0.06613
v 0.05365 0.07237 0.06363
v -0.00873 0.07986 0.06363
v 0.01622 0.06488 0.06114
v -0.01122 0.07237 0.07112
v -0.05115 0.06738 0.04866
v -0.04866 0.07736 0.04866
v 0.05116 0.07736 0.06114
v -0.06114 0.06988 0.05865
v -0.01372 0.06488 0.07112
v 0.01121 0.07986 0.04866
v 0.05615 0.07237 0.04866
v 0.04865 0.06988 0.05865
v -0.05364 0.07486 0.06363
v 0.01622 0.07736 0.06613
v -0.03867 0.06488 0.05615
v -0.05615 0.07486 0.05116
v 0.01871 0.06488 0.06862
v 0.05365 0.07486 0.06363
v -0.01871 0.07736 0.06613
v 0.06862 -0.03494 -0.07611
v 0.04617 -0.07986 -0.05615
v 0.04617 -0.07736 -0.06363
v 0.05615 -0.02246 0.01622
v 0.07112 -0.07736 -0.00874
v 0.04617 -0.02746 -0.07112
v 0.07362 -0.02246 -0.01125
v 0.06114 -0.07736 0.00873
v 0.07112 -0.06238 -0.06613
v 0.07362 -0.02246 -0.07112
v 0.06363 -0.02496 0.02121
v 0.06114 -0.07236 -0.07362
v 0.04617 -0.07736 -0.04117
v 0.04617 -0.06987 -0.07611
v 0.07362 -0.05988 -0.05365
v 0.06363 -0.07986 -0.04616
v 0.04617 -0.03993 -0.04866
v 0.06114 -0.02246 -0.07362
v 0.06613 -0.07736 0.00873
v 0.06114 -0.07986 0.00124
v 0.07112 -0.07486 -0.00376
v 0.06862 -0.07486 -0.05114
v 0.07362 -0.04492 -0.07112
v 0.06613 -0.02246 0.01622
v 0.07362 -0.05739 -0.02621
v 0.04617 -0.02995 -0.07362
v 0.06363 -0.06488 -0.07611
v 0.05615 -0.02246 -0.04117
v 0.05865 -0.03244 -0.07611
v 0.05615 -0.02496 0.01622
v 0.07112 -0.07486 -0.03617
v 0.06613 -0.06987 -0.07112
v 0.06613 -0.07986 -0.00125
v 0.06114 -0.02496 0.02121
v 0.05865 -0.07736 0.00124
v 0.05865 -0.07986 -0.05365
v 0.04617 -0.07986 -0.04366
v 0.04617 -0.06987 -0.04117
v 0.07112 -0.03993 -0.00125
v 0.07362 -0.04243 -0.01373
v 0.04617 -0.05490 -0.07611
v 0.07112 -0.04992 -0.07362
v 0.06613 -0.07986 -0.03368
v 0.07112 -0.02246 -0.07362
v 0.06613 -0.02746 0.01622
v 0.05865 -0.02246 -0.07112
v 0.04617 -0.02746 -0.06863
v -0.05365 0.07487 0.04865
v 0.01370 0.07237 0.00125
v 0.01370 0.07487 0.00125
v 0.05615 0.07237 0.04865
v -0.04118 0.06738 0.03119
v 0.01122 0.07986 0.04865
v -0.04118 0.07736 0.01872
v 0.05115 0.07736 0.00125
v 0.03369 0.06738 0.01373
v 0.04616 0.06988 0.04865
v -0.02869 0.07986 0.03119
v -0.05365 0.06988 0.04865
v 0.05115 0.07736 0.04865
v 0.04616 0.06988 0.00125
v -0.03866 0.06988 0.01872
v 0.02619 0.06738 0.03618
v 0.02121 0.06988 0.00125
v 0.01870 0.07736 0.00125
v -0.04616 0.07736 0.04865
v -0.04118 0.07237 0.01623
v 0.01122 0.07986 0.02869
v 0.05363 0.07237 0.00125
v -0.05115 0.06988 0.03368
v -0.01371 0.07986 0.04865
v -0.03617 0.07487 0.01373
v 0.02619 0.06738 0.01123
v 0.05615 0.07487 0.04616
v -0.04118 0.06738 0.03618
v -0.05115 0.07487 0.03368
v -0.04616 0.07736 0.03119
v -0.03617 0.07237 0.01373
v 0.01370 0.07986 0.04616
v -0.02869 0.07986 0.04117
v 0.03369 0.06738 0.03119
v -0.03617 0.07736 0.01623
v 0.07112 -0.00498 -0.07611
v 0.06863 0.05988 -0.00625
v 0.06364 0.05988 -0.00625
v 0.05865 -0.02246 -0.00625
v 0.05366 0.01000 -0.07611
v 0.07361 -0.02246 -0.01124
v 0.07611 0.04990 -0.06862
v 0.05116 0.04740 -0.04366
v 0.05865 -0.02246 -0.06862
v 0.07861 0.02246 -0.04866
v 0.07361 -0.02246 -0.07112
v 0.06114 0.06737 -0.04118
v 0.06364 0.04740 -0.07361
v 0.07112 0.06737 -0.01374
v 0.07361 0.03492 -0.00625
v 0.06114 0.06737 -0.01124
v 0.05366 0.00001 -0.07611
v 0.05116 0.04242 -0.03869
v 0.07861 0.03742 -0.05863
v 0.07361 -0.01246 -0.00625
v 0.06863 0.04242 -0.07611
v 0.07112 0.06737 -0.03619
v 0.05865 0.00001 -0.00625
v 0.07361 0.05240 -0.07112
v 0.06364 -0.02246 -0.07361
v 0.07611 0.03492 -0.07112
v 0.07361 0.04990 -0.01124
v 0.05865 0.06737 -0.03619
v 0.05615 0.02246 -0.07611
v 0.07611 -0.00498 -0.05115
v 0.07361 0.05988 -0.02372
v 0.05116 0.04740 -0.03869
v 0.07861 0.03244 -0.04866
v 0.06613 0.05240 -0.07112
v 0.05366 0.00001 -0.07112
v 0.07361 0.04740 -0.07361
v 0.07112 -0.02246 -0.00625
v 0.05865 0.06737 -0.02372
v 0.06114 0.04242 -0.07361
v 0.06863 0.06737 -0.04118
v 0.06863 0.06737 -0.00874
v 0.07112 0.05489 -0.00625
v 0.07361 -0.01246 -0.07361
v 0.06863 -0.00997 -0.07611
v 0.06364 0.04990 -0.07112
v 0.05615 0.07487 0.00124
v 0.03120 0.06988 -0.03619
v 0.03120 0.07487 -0.03619
v 0.01872 0.07487 0.00124
v 0.02621 0.06988 0.00124
v 0.05365 0.07736 -0.01124
v 0.04866 0.06988 -0.00874
v 0.02371 0.07736 0.00124
v 0.05365 0.07237 -0.01871
v 0.04117 0.07736 -0.02620
v 0.04367 0.07487 -0.03119
v 0.05615 0.07237 0.00124
v 0.05365 0.07736 0.00124
v 0.01872 0.07237 -0.00126
v 0.04616 0.06988 0.00124
v 0.03369 0.06988 -0.03619
v 0.03619 0.07736 -0.02620
v 0.05865 0.06738 -0.03368
v 0.06863 0.06988 -0.01124
v 0.06863 0.06738 -0.01124
v 0.05615 0.07487 -0.00125
v 0.06613 0.07237 -0.03368
v 0.06114 0.06738 -0.00874
v 0.06863 0.06738 -0.03618
v 0.05865 0.07237 -0.03368
v 0.06364 0.07487 -0.00375
v 0.05615 0.07237 -0.00125
v 0.05615 0.07487 -0.00874
v 0.06114 0.06988 -0.03868
v -0.03119 -0.07735 -0.06363
v -0.07861 -0.03494 -0.06363
v -0.07611 -0.05988 -0.06363
v -0.07111 -0.06986 -0.02870
v -0.03119 -0.00998 -0.06613
v -0.06363 -0.00998 -0.02870
v -0.03119 -0.07735 -0.02870
v -0.07111 -0.00998 -0.07361
v -0.03119 -0.06986 -0.07611
v -0.07611 -0.00998 -0.02870
v -0.06862 -0.06986 -0.07112
v -0.03119 -0.00998 -0.07361
v -0.06114 -0.07735 -0.03869
v -0.03119 -0.06737 -0.02870
v -0.07861 -0.00998 -0.06862
v -0.07611 -0.04491 -0.02870
v -0.06862 -0.06238 -0.07361
v -0.07861 -0.00998 -0.03869
v -0.05864 -0.07485 -0.06613
v -0.07361 -0.06488 -0.07112
v -0.03370 -0.04243 -0.07611
v -0.04118 -0.06986 -0.07611
v -0.05864 -0.07735 -0.02870
v -0.06862 -0.07236 -0.06613
v -0.07611 -0.05988 -0.05117
v -0.04118 -0.07485 -0.07112
v -0.07861 -0.02995 -0.04617
v -0.04867 -0.07735 -0.06113
v -0.07361 -0.06737 -0.06862
v -0.07611 -0.03494 -0.07112
v -0.06613 -0.07485 -0.02870
v -0.04368 -0.05988 -0.07611
v -0.06363 -0.07236 -0.07112
v -0.07861 -0.02496 -0.06862
v -0.07611 -0.05240 -0.03619
v -0.07111 -0.03494 -0.07361
v -0.06363 -0.07485 -0.06113
v -0.07861 0.03743 -0.06613
v -0.05865 0.06737 -0.02870
v -0.05615 0.06487 -0.06613
v -0.05615 -0.00997 -0.06363
v -0.07611 -0.00997 -0.02870
v -0.07611 -0.00997 -0.07112
v -0.07362 0.05739 -0.02870
v -0.06364 -0.00997 -0.02870
v -0.06613 0.06238 -0.07112
v -0.05615 -0.00997 -0.07362
v -0.07861 -0.00748 -0.03619
v -0.07112 0.06487 -0.04867
v -0.05615 0.05739 -0.07362
v -0.07112 0.02994 -0.07362
v -0.07611 0.04741 -0.02870
v -0.07861 -0.00997 -0.06862
v -0.07611 0.05240 -0.05864
v -0.07861 0.03992 -0.04867
v -0.06863 0.06737 -0.03120
v -0.07112 0.05739 -0.07112
v -0.05865 0.05490 -0.02870
v -0.06613 0.06737 -0.05116
v -0.07611 0.03493 -0.07112
v -0.07112 -0.00997 -0.07362
v -0.07861 0.02247 -0.03619
v -0.07611 0.05240 -0.03370
v -0.05615 0.06487 -0.07112
v -0.06863 0.04741 -0.07362
v -0.05615 0.06238 -0.06363
v -0.07362 0.05988 -0.03370
v -0.07362 0.05490 -0.06862
v -0.07362 0.05739 -0.02870
v -0.06613 0.00998 0.00624
v -0.07112 0.00998 0.00624
v -0.06364 0.00749 -0.02870
v -0.05865 0.06738 -0.01871
v -0.07611 0.00749 -0.02870
v -0.07112 0.04991 -0.00125
v -0.07611 0.00749 -0.00375
v -0.05865 0.06738 -0.02870
v -0.06364 0.04991 0.00124
v -0.07611 0.04741 -0.02620
v -0.06613 0.06738 -0.02370
v -0.06364 0.00749 -0.01622
v -0.05865 0.05489 -0.02620
v -0.06613 0.00749 0.00624
v -0.07611 0.01997 -0.00624
v -0.07112 0.04492 0.00124
v -0.06863 0.05489 -0.00375
v -0.05865 0.06239 -0.01871
v -0.07362 0.00749 0.00374
v -0.07112 0.06239 -0.02620
v -0.06613 0.06738 -0.02870
v -0.02620 -0.07486 0.00374
v -0.05615 -0.07736 -0.02870
v -0.02869 -0.07985 -0.02370
v -0.05115 -0.06239 -0.02870
v 0.00374 -0.07237 -0.02870
v -0.05365 -0.07736 0.00124
v 0.00624 -0.07985 -0.00624
v -0.00375 -0.07237 -0.00125
v -0.05365 -0.06738 -0.00375
v 0.00124 -0.07985 -0.02870
v -0.04117 -0.07985 0.00374
v -0.05615 -0.06239 -0.01871
v -0.00375 -0.06988 -0.02620
v -0.05115 -0.07237 0.00374
v -0.00375 -0.07736 0.00124
v 0.00624 -0.07486 -0.00375
v -0.05615 -0.07486 -0.00125
v -0.05115 -0.06239 -0.02121
v -0.05615 -0.06239 -0.02870
v -0.03369 -0.07237 0.00374
v 0.00124 -0.07985 -0.00125
v -0.04367 -0.07985 -0.00375
v -0.04866 -0.06738 -0.00375
v 0.00624 -0.07736 -0.01622
v 0.00124 -0.07237 -0.00874
v -0.05615 -0.06988 -0.00125
v -0.02372 -0.07985 -0.02870
v 0.05864 0.00748 0.03119
v 0.05615 -0.02246 -0.00374
v 0.05365 -0.01996 0.00624
v 0.04617 -0.00000 0.00874
v 0.05864 0.00249 0.00624
v 0.04617 -0.00250 0.02869
v 0.05864 -0.02246 0.01871
v 0.05864 -0.00000 0.03868
v 0.04617 -0.00998 0.01871
v 0.05116 0.00499 0.03868
v 0.05864 -0.00998 -0.00124
v 0.05615 -0.02246 0.01871
v 0.05615 0.00748 0.02370
v 0.04617 -0.00998 0.00874
v 0.05365 -0.00000 0.03868
v 0.04617 0.00249 0.02869
v 0.04617 -0.00250 0.00624
v 0.05864 -0.02246 -0.00374
v 0.05615 -0.00250 0.00125
v 0.05865 -0.02246 -0.00624
v 0.06613 0.01746 0.03868
v 0.06863 0.01996 0.03618
v 0.06364 0.05490 -0.00624
v 0.07361 -0.00747 -0.00624
v 0.05865 -0.00248 0.03868
v 0.06613 -0.02246 0.01622
v 0.07112 0.05240 -0.00374
v 0.06364 0.04242 0.02121
v 0.07112 0.00999 0.02869
v 0.05865 0.01249 0.01123
v 0.06613 -0.00248 0.03868
v 0.07112 -0.02246 -0.00374
v 0.05865 -0.02246 0.02121
v 0.07361 0.02994 -0.00624
v 0.05865 0.01249 0.03369
v 0.05865 0.00001 -0.00624
v 0.07112 0.02495 0.02620
v 0.06863 0.03992 0.02121
v 0.06114 0.01498 0.03868
v 0.07361 0.01746 0.00125
v 0.06863 0.00750 0.03868
v 0.06863 0.05490 -0.00374
v 0.06364 -0.00498 0.03868
v 0.06364 -0.02246 0.02121
v 0.07112 -0.02246 -0.00624
v 0.07112 0.05240 -0.00624
v 0.07361 -0.00747 -0.00374
v 0.06364 0.05490 -0.00374
v -0.03119 -0.07485 -0.07112
v 0.02370 -0.00998 -0.06863
v 0.02370 -0.00998 -0.07112
v 0.04616 -0.07735 -0.06114
v 0.04616 -0.06986 -0.07611
v -0.03119 -0.04990 -0.06114
v -0.03119 -0.00998 -0.07362
v -0.03119 -0.06986 -0.07611
v -0.03119 -0.07735 -0.06114
v 0.04616 -0.02995 -0.07362
v 0.01621 -0.00998 -0.06613
v -0.03119 -0.00998 -0.06613
v -0.00873 -0.02746 -0.07611
v 0.00872 -0.03744 -0.06114
v 0.04616 -0.03245 -0.06613
v 0.02120 -0.00998 -0.07362
v 0.04616 -0.06238 -0.06114
v 0.04616 -0.05739 -0.07611
v 0.04616 -0.07735 -0.06364
v -0.02869 -0.03245 -0.07611
v 0.01122 -0.07485 -0.07112
v -0.02869 -0.07735 -0.06613
v 0.04616 -0.02746 -0.06863
v -0.00124 -0.03744 -0.06114
v 0.01621 -0.03994 -0.06114
v 0.04616 -0.07236 -0.07362
v 0.02371 -0.00997 -0.07112
v -0.01870 0.06737 -0.06613
v -0.01870 0.06737 -0.07112
v -0.05615 -0.00997 -0.06613
v -0.02620 -0.00498 -0.07611
v -0.05615 0.05988 -0.07362
v -0.01373 0.04991 -0.06114
v -0.05615 0.05988 -0.06364
v 0.01621 0.02746 -0.07362
v 0.01871 -0.00748 -0.06613
v -0.05615 -0.00997 -0.07362
v 0.01871 0.02746 -0.06863
v -0.05615 0.00749 -0.06364
v -0.01124 0.05988 -0.07362
v -0.00375 0.00500 -0.07611
v 0.02120 -0.00997 -0.07362
v 0.02870 0.00500 -0.06863
v 0.00123 0.04741 -0.06364
v -0.00624 0.05988 -0.07112
v -0.00875 0.04492 -0.06114
v 0.01621 -0.00997 -0.06613
v -0.03618 0.06737 -0.06863
v -0.03618 0.06487 -0.07362
v -0.00875 0.05988 -0.06364
v 0.02371 0.00250 -0.07362
v -0.02620 0.00500 -0.07611
v 0.00873 0.04242 -0.06863
v 0.02870 0.00500 -0.07112
v -0.05615 0.06238 -0.07112
v -0.02370 0.06238 -0.06364
v -0.00875 -0.00498 -0.07611
v -0.00875 0.06238 -0.06613
v -0.00875 0.04991 -0.06114
v -0.02121 0.06487 -0.07362
v 0.00873 0.04242 -0.07112
v -0.06863 -0.07237 -0.02870
v -0.05615 -0.06987 -0.00374
v -0.05865 -0.06987 -0.00374
v -0.06114 -0.04742 -0.02870
v -0.07362 -0.04742 -0.02371
v -0.05615 -0.07736 -0.02870
v -0.06364 -0.04742 -0.01872
v -0.06114 -0.07486 -0.00874
v -0.05615 -0.05989 -0.02870
v -0.07362 -0.04742 -0.02870
v -0.07112 -0.06488 -0.02371
v -0.07112 -0.04742 -0.01872
v -0.06114 -0.04742 -0.02121
v -0.05865 -0.07486 -0.00374
v -0.05865 -0.07736 -0.01872
v -0.05615 -0.07486 -0.00374
v -0.05615 -0.05989 -0.02121
v -0.06613 -0.07486 -0.02620
v -0.06613 -0.00250 0.02869
v -0.07362 -0.04741 -0.02870
v -0.07611 -0.04242 -0.02870
v -0.06364 0.00748 -0.02870
v -0.05865 -0.04491 -0.02121
v -0.07611 0.00748 -0.00374
v -0.05615 0.00249 0.00623
v -0.07112 -0.00749 0.03119
v -0.07611 0.00748 -0.02870
v -0.05615 -0.01996 0.00623
v -0.05865 -0.03243 -0.02870
v -0.07112 -0.04741 -0.01871
v -0.06364 0.00748 0.00623
v -0.06114 -0.04741 -0.01871
v -0.07112 -0.00001 0.03119
v -0.07611 -0.01747 -0.00873
v -0.05865 -0.04491 -0.02870
v -0.05615 0.00249 0.00124
v -0.06863 -0.00749 0.03119
v -0.07362 -0.04741 -0.02121
v -0.05865 -0.01747 -0.02370
v -0.07611 -0.04242 -0.02620
v -0.07112 0.00748 0.00623
v -0.06863 -0.00001 0.03119
v -0.07611 -0.00749 -0.00374
v -0.06114 -0.04741 -0.02870
v -0.00872 -0.03244 -0.00125
v -0.02369 0.02745 0.00624
v -0.02369 0.02745 0.00125
v 0.04617 -0.00001 0.01123
v -0.05614 -0.00998 0.00873
v 0.02120 -0.00001 -0.00374
v 0.00374 -0.01746 0.01372
v -0.05614 -0.02245 0.00125
v -0.04616 0.02745 0.00125
v -0.01122 0.00249 0.01372
v 0.01620 -0.02744 -0.00125
v -0.01372 -0.00001 -0.00374
v -0.04865 0.02745 0.00624
v 0.04617 -0.00998 0.01372
v -0.02619 -0.02994 0.00624
v 0.04617 -0.00250 0.00624
v 0.02120 0.00498 0.01372
v -0.00872 -0.03244 0.00374
v 0.01620 -0.02245 -0.00374
v -0.03617 -0.02994 -0.00125
v -0.05614 0.00249 0.00125
v -0.05614 -0.02245 0.00624
v 0.02120 0.00998 0.00374
v -0.05614 -0.00001 0.00873
v 0.04617 -0.00748 0.00624
v -0.01621 -0.00748 0.01372
v 0.01620 -0.02744 0.00374
v 0.01871 0.00249 -0.00374
v -0.04116 -0.01247 -0.00125
v -0.02869 -0.03244 0.00374
v 0.01620 -0.01996 0.01123
v 0.04116 -0.00001 0.01372
v 0.00123 -0.01996 -0.00374
v 0.02120 -0.01247 -0.00374
v -0.01621 -0.00001 0.01372
v 0.02120 0.00498 -0.00125
v -0.02869 -0.03244 -0.00125
v 0.04617 -0.00998 0.00873
v -0.04116 -0.02495 -0.00125
v 0.01122 -0.01746 0.01372
v -0.00124 -0.01497 0.02121
v 0.04117 0.01248 0.03618
v 0.04117 0.01248 0.03119
v -0.02620 -0.00000 0.02870
v 0.00625 0.00499 0.01373
v 0.04617 -0.00748 0.01373
v 0.00375 -0.01497 0.03119
v 0.04117 0.00250 0.03868
v -0.00373 -0.00998 0.01373
v -0.02620 -0.00249 0.03369
v 0.01372 0.01248 0.02870
v 0.04617 -0.00998 0.01872
v 0.02121 0.00749 0.01622
v -0.00623 -0.00748 0.03618
v 0.03617 0.00998 0.03868
v -0.02370 -0.00748 0.03119
v -0.00373 0.00250 0.01373
v 0.01372 0.01248 0.02371
v -0.01871 0.00250 0.03369
v 0.01372 -0.01248 0.01373
v 0.04617 -0.00000 0.01872
v 0.04617 -0.00748 0.02371
v -0.00623 -0.01497 0.03119
v 0.04617 0.00250 0.02870
v 0.01123 0.00998 0.03369
v -0.00873 -0.00000 0.03618
v 0.03119 0.00499 0.01622
v -0.02370 -0.00748 0.02870
v -0.00623 -0.00748 0.01373
v 0.00625 -0.01497 0.02121
v 0.02370 0.01248 0.02371
v 0.04617 -0.00499 0.01373
v 0.04617 -0.00998 0.01622
v 0.04117 -0.00000 0.03618
v 0.01621 0.00499 0.01373
v 0.00625 -0.07736 -0.02870
v -0.03119 -0.07736 -0.06114
v -0.03119 -0.05989 -0.06114
v 0.04616 -0.06239 -0.06114
v 0.04616 -0.07986 -0.05615
v -0.03119 -0.05989 -0.04118
v -0.02370 -0.07986 -0.02870
v 0.04616 -0.06988 -0.04118
v 0.02370 -0.05989 -0.04616
v -0.00124 -0.06988 -0.02870
v 0.04616 -0.07986 -0.04368
v -0.03119 -0.06988 -0.02870
v 0.04616 -0.07736 -0.06114
v -0.02869 -0.07986 -0.05116
v -0.03119 -0.07736 -0.02870
v 0.01122 -0.05989 -0.06114
v 0.00375 -0.07986 -0.02870
v 0.04616 -0.06489 -0.04866
v 0.04616 -0.07736 -0.04118
v -0.01871 -0.07986 -0.05615
v -0.01621 -0.05989 -0.04118
v 0.00625 -0.07237 -0.02870
v 0.02869 -0.05989 -0.04866
v -0.00623 -0.03245 -0.03868
v 0.00625 -0.00998 -0.04368
v 0.00625 -0.00998 -0.04867
v 0.04616 -0.05739 -0.04867
v -0.03119 -0.05989 -0.06114
v -0.03119 -0.05989 -0.04118
v 0.04366 -0.04491 -0.05864
v 0.00126 -0.03742 -0.06114
v -0.03119 -0.04741 -0.04368
v 0.04616 -0.04741 -0.04617
v 0.04116 -0.05989 -0.05365
v -0.00124 -0.00998 -0.04867
v 0.00872 -0.03494 -0.03868
v 0.03867 -0.05989 -0.04617
v -0.00124 -0.00998 -0.04118
v 0.00872 -0.05739 -0.06114
v 0.04616 -0.03992 -0.05365
v -0.03119 -0.04741 -0.05116
v -0.01621 -0.05989 -0.04118
v -0.03119 -0.05739 -0.06114
v 0.04366 -0.05240 -0.05864
v 0.00625 -0.02496 -0.03868
v -0.03119 -0.04990 -0.04118
v 0.04616 -0.03992 -0.04867
v 0.00375 -0.00998 -0.04118
v 0.01371 -0.03992 -0.06114
v -0.00373 -0.02246 -0.03868
v 0.01122 -0.03245 -0.05864
v 0.04616 -0.05489 -0.04617
v 0.00625 -0.03742 -0.03868
v 0.04616 -0.05489 -0.05615
v 0.01870 -0.05240 -0.06114
v 0.04116 -0.05489 -0.05864
v 0.04366 -0.03992 -0.05615
v 0.00624 0.02745 -0.05116
v -0.01372 0.02495 -0.05116
v -0.01372 0.02495 -0.04367
v 0.00374 -0.00998 -0.04367
v 0.00374 0.02745 -0.04367
v -0.00125 -0.00998 -0.04866
v 0.00374 0.01497 -0.05365
v -0.00125 -0.00748 -0.04118
v -0.01123 0.02745 -0.05365
v 0.00374 0.00499 -0.04118
v 0.00374 -0.00998 -0.04866
v 0.00624 0.01248 -0.04617
v -0.01372 0.02745 -0.04367
v 0.00374 0.02745 -0.05365
v 0.00624 0.01248 -0.05116
v -0.00125 0.01497 -0.05365
v -0.02120 0.03494 -0.05365
v -0.00624 0.05490 -0.04367
v -0.00125 0.05240 -0.04118
v -0.04865 0.04492 -0.03619
v 0.00374 0.02745 -0.04367
v -0.00375 0.04991 -0.05615
v 0.02869 0.04991 -0.04367
v -0.00125 0.02745 -0.05615
v -0.00874 0.04242 -0.03619
v -0.04616 0.04991 -0.04118
v -0.01621 0.02745 -0.04367
v -0.01871 0.05240 -0.05365
v 0.02869 0.04492 -0.04617
v -0.04616 0.04991 -0.03619
v -0.01871 0.04741 -0.05615
v -0.01621 0.03244 -0.03868
v -0.04865 0.04492 -0.04118
v -0.01372 0.05490 -0.05116
v -0.01621 0.02745 -0.05116
v -0.00874 0.04741 -0.03619
v 0.02869 0.04492 -0.04367
v 0.00624 0.02745 -0.05116
v 0.02869 0.04991 -0.04617
v -0.01871 0.03744 -0.05615
v -0.00375 0.03494 -0.03868
v -0.00624 0.05490 -0.05116
v -0.00125 0.04741 -0.05615
v -0.00874 0.02745 -0.05615
v -0.01621 0.05490 -0.04617
v -0.02370 0.03993 -0.03619
f 636 645 650 
f 629 630 631 
f 630 629 633 
f 632 631 635 
f 630 633 636 
f 635 636 637 
f 634 628 637 
f 634 632 638 
f 632 635 638 
f 633 629 639 
f 634 637 639 
f 637 633 639 
f 629 631 640 
f 631 632 640 
f 632 629 640 
f 632 634 641 
f 639 629 642 
f 634 639 642 
f 629 641 642 
f 641 634 642 
f 631 630 643 
f 630 636 643 
f 628 634 644 
f 634 638 644 
f 635 631 645 
f 636 635 645 
f 635 628 646 
f 638 635 646 
f 628 644 646 
f 644 638 646 
f 629 632 647 
f 641 629 647 
f 632 641 647 
f 636 633 648 
f 637 636 648 
f 633 637 648 
f 628 635 649 
f 635 637 649 
f 637 628 649 
f 631 643 650 
f 643 636 650 
f 645 631 650 
