# Original object name hint: convex_1
v 0.03367 -0.05919 0.02143
v -0.01939 -0.05919 -0.03164
v -0.01939 -0.05715 -0.03164
v -0.04390 -0.05919 0.01939
v -0.02144 -0.04490 0.02143
v 0.03367 -0.05715 -0.02755
v 0.03161 -0.06531 0.01122
v -0.02552 -0.06531 0.01939
v 0.00509 -0.05103 -0.02755
v -0.04390 -0.05103 0.00714
v -0.02755 -0.06123 -0.02755
v 0.02346 -0.06123 -0.03164
v -0.00919 -0.04490 0.01939
v 0.03775 -0.05715 0.01530
v -0.00919 -0.06531 0.00102
v -0.02961 -0.06123 0.02347
v -0.04185 -0.06123 0.00509
v 0.03161 -0.06327 0.02143
v -0.02348 -0.04490 0.01530
v -0.02144 -0.05511 -0.02959
v 0.03367 -0.06123 -0.02755
v -0.04390 -0.05307 0.01939
v 0.03775 -0.06327 0.01734
v 0.00509 -0.05307 -0.03164
v 0.02755 -0.05511 -0.02550
v -0.00104 -0.05715 0.02347
v 0.03161 -0.05511 0.00306
v -0.04390 -0.05919 0.00306
v -0.02755 -0.05715 -0.02755
v -0.02552 -0.06531 0.01122
v -0.01532 -0.06123 -0.03164
v -0.00919 -0.04490 0.01530
v 0.02958 -0.06531 0.01734
v -0.01123 -0.04490 0.02143
v 0.00100 -0.05103 -0.02755
v 0.03161 -0.05511 0.01734
v 0.03775 -0.05715 0.00306
v -0.03573 -0.06327 0.01939
v 0.00100 -0.06531 0.00102
v 0.03161 -0.05715 0.02143
v -0.04390 -0.05307 0.00306
v -0.02961 -0.06123 -0.02550
v 0.03161 -0.05715 -0.02959
v -0.02755 -0.05715 0.02347
v -0.03981 -0.05511 0.02143
v -0.04185 -0.05103 0.01734
v 0.00100 -0.06123 0.02347
v -0.03573 -0.06327 0.00918
v 0.03775 -0.06327 0.01122
v 0.00713 -0.05103 -0.02550
v -0.03981 -0.06123 0.02143
v 0.03161 -0.06123 -0.02959
v -0.01735 -0.05511 -0.03164
v 0.00917 -0.06531 0.01939
v 0.03775 -0.06123 0.00306
v 0.02141 -0.05715 -0.03164
v -0.04185 -0.06123 0.01939
v -0.02348 -0.04490 0.01939
v 0.02346 -0.05511 -0.02959
v -0.02755 -0.06531 0.01734
v -0.01735 -0.06531 0.00509
v -0.04390 -0.05103 0.01122
v -0.03369 -0.06327 0.02143
v -0.02961 -0.05919 -0.02550
v 0.02549 0.01428 0.03164
v -0.05204 0.00818 0.01939
v -0.05204 0.00818 0.02347
v -0.00919 -0.04490 0.01939
v 0.00713 0.05715 0.01327
v 0.03161 -0.01835 0.01735
v -0.02347 -0.04490 0.01531
v 0.05204 0.01224 0.02959
v -0.00306 0.06531 0.01939
v -0.00715 0.01428 0.03164
v -0.02143 -0.04490 0.02144
v 0.04998 0.01836 0.02347
v 0.03978 -0.00407 0.02959
v -0.04797 -0.01223 0.01735
v 0.00100 0.00002 0.03164
v -0.05000 -0.00815 0.02347
v 0.01325 0.03469 0.02959
v 0.02754 0.01021 0.01531
v -0.02959 0.03673 0.02347
v 0.00508 0.06531 0.01939
v -0.05000 0.01836 0.01939
v -0.00919 -0.04490 0.01531
v -0.03163 0.00818 0.01531
v 0.04998 0.01836 0.02959
v 0.00508 0.02653 0.03164
v -0.05204 0.01632 0.02347
v -0.00715 0.06326 0.01735
v 0.01733 -0.00203 0.03164
v 0.00100 0.05306 0.01327
v 0.02141 -0.01223 0.01531
v 0.05204 0.02040 0.02551
v 0.03161 -0.01835 0.02144
v -0.01122 -0.04490 0.02144
v 0.00713 0.04490 0.01327
v 0.03366 0.02040 0.01735
v 0.00508 0.06531 0.01735
v 0.05204 0.01224 0.02551
v -0.03163 -0.01427 0.01531
v -0.02551 -0.04284 0.01939
v 0.01529 0.02653 0.03164
v 0.05204 0.02040 0.02755
v -0.00715 0.06326 0.01939
v 0.02957 -0.01835 0.02347
v -0.00715 0.01021 0.03164
v 0.00304 0.05715 0.01327
v 0.01936 0.03266 0.02959
v -0.04797 -0.00407 0.01735
v 0.00508 -0.00203 0.03164
v 0.00100 0.04490 0.01327
v 0.02754 0.01836 0.01531
v 0.03366 0.00818 0.01735
v 0.02141 0.00002 0.03164
v 0.00100 0.06326 0.01531
v -0.05204 0.01428 0.01939
v 0.00713 0.03469 0.02959
v -0.04797 -0.01223 0.02144
v -0.04797 -0.01018 0.02347
v -0.04797 0.02040 0.02347
v -0.05000 -0.00815 0.01939
v 0.04998 0.01632 0.02347
v -0.00306 0.06531 0.01735
v 0.01936 0.02449 0.03164
v -0.00715 -0.00611 0.02959
v 0.05204 0.01632 0.02959
f 88 126 128 
f 71 68 75 
f 65 74 79 
f 67 66 80 
f 73 81 84 
f 70 68 86 
f 68 71 86 
f 74 65 89 
f 66 67 90 
f 67 74 90 
f 74 89 90 
f 85 90 91 
f 65 79 92 
f 82 70 94 
f 70 86 94 
f 76 69 95 
f 68 70 96 
f 70 72 96 
f 72 77 96 
f 75 68 97 
f 77 92 97 
f 92 75 97 
f 68 96 97 
f 69 82 98 
f 86 71 98 
f 93 69 98 
f 82 94 98 
f 94 86 98 
f 69 76 99 
f 73 84 100 
f 95 69 100 
f 84 95 100 
f 72 70 101 
f 76 95 101 
f 95 72 101 
f 71 78 102 
f 78 87 102 
f 87 93 102 
f 71 75 103 
f 78 71 103 
f 75 80 103 
f 89 65 104 
f 81 89 104 
f 84 88 105 
f 72 95 105 
f 95 84 105 
f 89 73 106 
f 83 89 106 
f 73 91 106 
f 91 90 106 
f 96 77 107 
f 77 97 107 
f 97 96 107 
f 74 67 108 
f 79 74 108 
f 67 80 108 
f 80 79 108 
f 85 91 109 
f 69 93 109 
f 84 81 110 
f 88 84 110 
f 104 88 110 
f 81 104 110 
f 78 66 111 
f 87 78 111 
f 79 75 112 
f 75 92 112 
f 92 79 112 
f 98 71 113 
f 93 98 113 
f 71 102 113 
f 102 93 113 
f 82 69 114 
f 69 99 114 
f 99 82 114 
f 70 82 115 
f 99 76 115 
f 82 99 115 
f 72 65 116 
f 77 72 116 
f 65 92 116 
f 92 77 116 
f 100 69 117 
f 109 91 117 
f 69 109 117 
f 66 90 118 
f 90 85 118 
f 93 87 118 
f 85 109 118 
f 109 93 118 
f 111 66 118 
f 87 111 118 
f 81 73 119 
f 73 89 119 
f 89 81 119 
f 80 78 120 
f 78 103 120 
f 103 80 120 
f 80 75 121 
f 79 80 121 
f 89 83 122 
f 90 89 122 
f 83 106 122 
f 106 90 122 
f 66 78 123 
f 80 66 123 
f 78 80 123 
f 101 70 124 
f 76 101 124 
f 70 115 124 
f 115 76 124 
f 91 73 125 
f 73 100 125 
f 100 117 125 
f 117 91 125 
f 104 65 126 
f 88 104 126 
f 75 79 127 
f 121 75 127 
f 79 121 127 
f 65 72 128 
f 72 105 128 
f 105 88 128 
f 126 65 128 
