# Original object name hint: convex_0
v 0.03367 -0.05919 0.02143
v -0.01939 -0.05919 -0.03164
v -0.01939 -0.05715 -0.03164
v -0.04390 -0.05919 0.01939
v -0.02144 -0.04490 0.02143
v 0.03367 -0.05715 -0.02755
v 0.03161 -0.06531 0.01122
v -0.02552 -0.06531 0.01939
v 0.00509 -0.05103 -0.02755
v -0.04390 -0.05103 0.00714
v -0.02755 -0.06123 -0.02755
v 0.02346 -0.06123 -0.03164
v -0.00919 -0.04490 0.01939
v 0.03775 -0.05715 0.01530
v -0.00919 -0.06531 0.00102
v -0.02961 -0.06123 0.02347
v -0.04185 -0.06123 0.00509
v 0.03161 -0.06327 0.02143
v -0.02348 -0.04490 0.01530
v -0.02144 -0.05511 -0.02959
v 0.03367 -0.06123 -0.02755
v -0.04390 -0.05307 0.01939
v 0.03775 -0.06327 0.01734
v 0.00509 -0.05307 -0.03164
v 0.02755 -0.05511 -0.02550
v -0.00104 -0.05715 0.02347
v 0.03161 -0.05511 0.00306
v -0.04390 -0.05919 0.00306
v -0.02755 -0.05715 -0.02755
v -0.02552 -0.06531 0.01122
v -0.01532 -0.06123 -0.03164
v -0.00919 -0.04490 0.01530
v 0.02958 -0.06531 0.01734
v -0.01123 -0.04490 0.02143
v 0.00100 -0.05103 -0.02755
v 0.03161 -0.05511 0.01734
v 0.03775 -0.05715 0.00306
v -0.03573 -0.06327 0.01939
v 0.00100 -0.06531 0.00102
v 0.03161 -0.05715 0.02143
v -0.04390 -0.05307 0.00306
v -0.02961 -0.06123 -0.02550
v 0.03161 -0.05715 -0.02959
v -0.02755 -0.05715 0.02347
v -0.03981 -0.05511 0.02143
v -0.04185 -0.05103 0.01734
v 0.00100 -0.06123 0.02347
v -0.03573 -0.06327 0.00918
v 0.03775 -0.06327 0.01122
v 0.00713 -0.05103 -0.02550
v -0.03981 -0.06123 0.02143
v 0.03161 -0.06123 -0.02959
v -0.01735 -0.05511 -0.03164
v 0.00917 -0.06531 0.01939
v 0.03775 -0.06123 0.00306
v 0.02141 -0.05715 -0.03164
v -0.04185 -0.06123 0.01939
v -0.02348 -0.04490 0.01939
v 0.02346 -0.05511 -0.02959
v -0.02755 -0.06531 0.01734
v -0.01735 -0.06531 0.00509
v -0.04390 -0.05103 0.01122
v -0.03369 -0.06327 0.02143
v -0.02961 -0.05919 -0.02550
v 0.02549 0.01428 0.03164
v -0.05204 0.00818 0.01939
v -0.05204 0.00818 0.02347
v -0.00919 -0.04490 0.01939
v 0.00713 0.05715 0.01327
v 0.03161 -0.01835 0.01735
v -0.02347 -0.04490 0.01531
v 0.05204 0.01224 0.02959
v -0.00306 0.06531 0.01939
v -0.00715 0.01428 0.03164
v -0.02143 -0.04490 0.02144
v 0.04998 0.01836 0.02347
v 0.03978 -0.00407 0.02959
v -0.04797 -0.01223 0.01735
v 0.00100 0.00002 0.03164
v -0.05000 -0.00815 0.02347
v 0.01325 0.03469 0.02959
v 0.02754 0.01021 0.01531
v -0.02959 0.03673 0.02347
v 0.00508 0.06531 0.01939
v -0.05000 0.01836 0.01939
v -0.00919 -0.04490 0.01531
v -0.03163 0.00818 0.01531
v 0.04998 0.01836 0.02959
v 0.00508 0.02653 0.03164
v -0.05204 0.01632 0.02347
v -0.00715 0.06326 0.01735
v 0.01733 -0.00203 0.03164
v 0.00100 0.05306 0.01327
v 0.02141 -0.01223 0.01531
v 0.05204 0.02040 0.02551
v 0.03161 -0.01835 0.02144
v -0.01122 -0.04490 0.02144
v 0.00713 0.04490 0.01327
v 0.03366 0.02040 0.01735
v 0.00508 0.06531 0.01735
v 0.05204 0.01224 0.02551
v -0.03163 -0.01427 0.01531
v -0.02551 -0.04284 0.01939
v 0.01529 0.02653 0.03164
v 0.05204 0.02040 0.02755
v -0.00715 0.06326 0.01939
v 0.02957 -0.01835 0.02347
v -0.00715 0.01021 0.03164
v 0.00304 0.05715 0.01327
v 0.01936 0.03266 0.02959
v -0.04797 -0.00407 0.01735
v 0.00508 -0.00203 0.03164
v 0.00100 0.04490 0.01327
v 0.02754 0.01836 0.01531
v 0.03366 0.00818 0.01735
v 0.02141 0.00002 0.03164
v 0.00100 0.06326 0.01531
v -0.05204 0.01428 0.01939
v 0.00713 0.03469 0.02959
v -0.04797 -0.01223 0.02144
v -0.04797 -0.01018 0.02347
v -0.04797 0.02040 0.02347
v -0.05000 -0.00815 0.01939
v 0.04998 0.01632 0.02347
v -0.00306 0.06531 0.01735
v 0.01936 0.02449 0.03164
v -0.00715 -0.00611 0.02959
v 0.05204 0.01632 0.02959
f 42 41 64 
f 3 2 11 
f 2 3 12 
f 7 8 15 
f 16 8 18 
f 5 13 19 
f 10 19 20 
f 10 4 22 
f 14 1 23 
f 1 18 23 
f 12 3 24 
f 6 25 27 
f 4 10 28 
f 17 4 28 
f 3 11 29 
f 20 3 29 
f 10 20 29 
f 15 8 30 
f 11 2 31 
f 2 12 31 
f 15 11 31 
f 12 15 31 
f 9 19 32 
f 19 13 32 
f 13 27 32 
f 27 25 32 
f 8 7 33 
f 7 23 33 
f 23 18 33 
f 13 5 34 
f 5 26 34 
f 19 9 35 
f 20 19 35 
f 9 24 35 
f 14 27 36 
f 27 13 36 
f 13 34 36 
f 21 6 37 
f 14 23 37 
f 6 27 37 
f 27 14 37 
f 7 15 39 
f 15 12 39 
f 1 14 40 
f 26 1 40 
f 34 26 40 
f 14 36 40 
f 36 34 40 
f 28 10 41 
f 10 29 41 
f 17 28 42 
f 29 11 42 
f 11 30 42 
f 28 41 42 
f 6 21 43 
f 26 5 44 
f 16 26 44 
f 22 4 45 
f 5 22 45 
f 44 5 45 
f 16 44 45 
f 22 5 46 
f 18 1 47 
f 16 18 47 
f 1 26 47 
f 26 16 47 
f 38 17 48 
f 17 42 48 
f 42 30 48 
f 7 21 49 
f 23 7 49 
f 37 23 49 
f 25 9 50 
f 9 32 50 
f 32 25 50 
f 45 4 51 
f 16 45 51 
f 21 7 52 
f 7 39 52 
f 39 12 52 
f 43 21 52 
f 12 43 52 
f 3 20 53 
f 24 3 53 
f 20 35 53 
f 35 24 53 
f 18 8 54 
f 8 33 54 
f 33 18 54 
f 21 37 55 
f 49 21 55 
f 37 49 55 
f 12 24 56 
f 43 12 56 
f 4 17 57 
f 17 38 57 
f 51 4 57 
f 38 51 57 
f 5 19 58 
f 19 10 58 
f 46 5 58 
f 24 9 59 
f 25 6 59 
f 9 25 59 
f 6 43 59 
f 56 24 59 
f 43 56 59 
f 30 8 60 
f 8 38 60 
f 38 48 60 
f 48 30 60 
f 11 15 61 
f 15 30 61 
f 30 11 61 
f 10 22 62 
f 22 46 62 
f 58 10 62 
f 46 58 62 
f 8 16 63 
f 38 8 63 
f 16 51 63 
f 51 38 63 
f 41 29 64 
f 29 42 64 
