# Original object name hint: convex_3
v 0.05630 -0.00729 -0.03962
v 0.06047 0.01563 0.03336
v 0.06464 0.01979 0.02919
v 0.06047 -0.04483 0.00416
v 0.04379 0.00937 0.02710
v 0.05630 0.04483 -0.02919
v 0.06673 0.02397 -0.01668
v 0.05213 -0.03440 -0.03545
v 0.04796 0.01563 -0.03127
v 0.06255 0.04483 0.00207
v 0.06047 -0.03440 -0.03127
v 0.05213 -0.04274 0.00625
v 0.06673 -0.00104 0.02501
v 0.04379 -0.00729 0.00834
v 0.05213 -0.00313 0.03127
v 0.06255 0.02814 -0.03545
v 0.06255 -0.04066 -0.00833
v 0.04379 0.01563 0.01667
v 0.05838 0.04483 0.00207
v 0.05213 -0.04274 -0.02502
v 0.04379 0.00103 0.03127
v 0.06255 -0.03440 0.01459
v 0.06673 0.03440 -0.00416
v 0.06255 -0.00313 -0.03753
v 0.05422 0.01354 -0.03962
v 0.06464 -0.00104 0.03127
v 0.06673 0.00520 -0.00833
v 0.05005 -0.04066 0.00416
v 0.06255 0.04483 -0.01460
v 0.05838 -0.04274 -0.02919
v 0.05630 -0.03231 0.01667
v 0.04796 0.00312 -0.03127
v 0.05630 0.01771 0.03127
v 0.05422 -0.04691 -0.01042
v 0.05838 -0.03649 -0.03545
v 0.05005 -0.04066 -0.01460
v 0.06673 0.01563 0.02710
v 0.05005 0.00312 -0.03753
v 0.05005 0.02397 -0.03336
v 0.04379 0.01563 0.01042
v 0.06047 0.01354 -0.03962
v 0.05838 -0.04691 0.00416
v 0.06673 -0.00313 0.01250
v 0.06255 -0.04066 0.00625
v 0.06673 0.01146 -0.01460
v 0.06255 0.00312 0.03336
v 0.05213 -0.03649 0.01250
v 0.06464 0.04065 0.00207
v 0.05838 -0.04691 -0.01042
v 0.06255 -0.00313 0.03127
v 0.05838 0.04483 -0.02919
v 0.05630 0.03022 -0.03545
v 0.06464 0.03856 -0.01460
v 0.06047 -0.00313 -0.03962
v 0.04379 0.00520 0.03127
v 0.05422 0.00520 0.03336
v 0.05213 -0.04483 0.00207
v 0.05422 -0.04274 -0.02919
v 0.05005 -0.03649 -0.01876
v 0.05005 0.01979 -0.03545
v 0.05422 -0.00521 -0.03962
v 0.06255 0.01563 -0.03753
v 0.06673 0.02605 0.01459
v 0.06464 0.01563 0.03127
v 0.01250 0.00937 0.02085
v -0.06673 -0.00729 0.00834
v -0.06464 -0.01980 0.00834
v 0.01668 0.01354 0.00417
v -0.02087 0.05109 0.00834
v -0.02295 -0.04900 0.00417
v -0.01670 0.03857 0.00208
v 0.01668 -0.03231 0.00417
v -0.02919 -0.04692 0.01043
v -0.06673 0.00311 0.01251
v 0.01041 -0.00729 0.02085
v -0.05422 -0.03023 0.00417
v -0.05839 -0.02814 0.01251
v -0.00627 0.01145 0.02085
v -0.00627 0.05109 0.00834
v 0.01668 -0.03231 0.01043
v 0.01668 0.01771 0.01668
v -0.06673 0.00311 0.00834
v -0.05422 0.01979 0.01251
v 0.00207 0.01771 0.02085
v -0.06047 -0.03441 0.00626
v -0.00210 0.03440 0.00208
v -0.00836 -0.00104 0.02085
v -0.00627 0.05109 0.00417
v -0.03545 -0.05109 0.00834
v -0.01253 -0.01563 0.01876
v 0.01668 0.02188 0.00834
v -0.02087 0.05109 0.00626
v 0.01668 -0.00938 0.01876
v -0.06464 -0.01980 0.01251
v -0.03336 -0.04900 0.00417
v -0.05839 0.01562 0.00834
v 0.01458 -0.02397 0.01459
v -0.05422 -0.02397 0.00417
v -0.00836 0.02814 0.00208
v -0.03545 -0.04692 0.01043
v 0.00624 0.01771 0.02085
v -0.02919 -0.05109 0.00834
v -0.06047 -0.03441 0.00834
v 0.01668 0.02188 0.01251
v 0.01668 0.01354 0.01876
v -0.06673 -0.00729 0.01251
v 0.01041 0.01979 0.01876
v -0.06464 0.00728 0.01251
v -0.01670 0.03231 0.00208
v -0.03545 -0.05109 0.00626
v 0.01458 -0.00312 0.02085
v -0.00418 0.02814 0.00208
v 0.01668 0.01979 0.00626
v -0.00418 0.03857 0.00208
v -0.00836 0.00728 0.02085
v -0.00002 -0.00729 0.02085
v -0.05839 0.01562 0.01251
v -0.06256 -0.02397 0.01251
v 0.01668 -0.02814 0.01251
v -0.02295 -0.04900 0.00834
v -0.00836 0.05109 0.00417
v -0.02294 -0.01147 0.03545
v 0.01667 0.01772 0.03336
v 0.02293 0.01564 0.03545
v 0.00624 -0.00522 0.02085
v 0.02502 -0.00522 0.03336
v -0.02294 0.00729 0.03962
v 0.00207 0.01146 0.02085
v 0.02710 0.00729 0.02711
v -0.00208 -0.00104 0.03962
v -0.00835 0.01772 0.03545
v -0.02712 0.00312 0.03545
v -0.00001 -0.00313 0.02085
v 0.02084 -0.00730 0.02920
v -0.02294 -0.00730 0.03962
v 0.02710 0.01564 0.02920
v -0.00835 0.01772 0.03128
v 0.02710 -0.00313 0.02711
v 0.01041 0.00520 0.02085
v 0.02502 0.00104 0.03545
v 0.01458 0.01772 0.02920
v -0.02086 -0.01147 0.03753
v -0.00001 0.00520 0.03962
v 0.00207 0.01355 0.03753
v -0.02712 -0.00313 0.03545
v 0.02710 0.01564 0.03336
v -0.00001 0.00938 0.02085
v 0.02084 -0.00730 0.03336
v -0.02712 -0.00104 0.03962
v -0.01669 -0.00730 0.03962
v 0.00624 0.01146 0.02085
v 0.02710 -0.00104 0.03336
v 0.01667 -0.00522 0.03545
v 0.01458 0.00104 0.03753
v -0.00208 0.01772 0.02920
v -0.02503 -0.00939 0.03545
v 0.02502 0.01355 0.03545
v 0.01041 -0.00104 0.02085
v 0.00207 -0.00522 0.02085
v -0.02503 -0.00939 0.03753
v 0.00207 0.01772 0.03545
v 0.02502 0.01146 0.02711
v -0.02712 0.00312 0.03962
v -0.02294 0.00729 0.03545
v -0.02086 -0.01147 0.03545
v 0.01458 0.00729 0.03753
v -0.01043 0.01564 0.03128
v 0.03544 0.01564 0.02919
v 0.02710 -0.00105 0.02502
v 0.02710 -0.00105 0.03128
v 0.04378 -0.00105 0.02711
v 0.04170 0.00938 0.02085
v 0.02710 0.01355 0.02711
v 0.02919 0.01355 0.03336
v 0.04378 0.00729 0.02919
v 0.04378 -0.00105 0.02085
v 0.03128 0.01355 0.02294
v 0.03544 0.00104 0.02085
v 0.04378 0.00104 0.02919
v 0.02710 0.01564 0.03128
v 0.04378 0.00938 0.02294
v 0.03544 0.01564 0.02502
v 0.02710 0.00729 0.03336
v 0.03544 0.00938 0.02085
v 0.02919 0.00729 0.03336
v 0.03336 0.01564 0.03128
v 0.04378 0.00938 0.02711
v 0.03128 0.01564 0.02502
v 0.02919 -0.00105 0.03128
v 0.03753 -0.00105 0.02085
v 0.02710 -0.03232 0.00625
v 0.02293 -0.00939 0.01668
v 0.01668 -0.00939 0.01668
v 0.01668 -0.00939 0.00417
v 0.01668 -0.03232 0.01042
v 0.02710 -0.00939 0.00625
v 0.02085 -0.03232 -0.00000
v 0.02710 -0.03024 0.01042
v 0.02502 -0.02816 -0.00000
v 0.01668 -0.03232 0.00208
v 0.02710 -0.00939 0.01459
v 0.02502 -0.02816 0.01251
v 0.01668 -0.02190 0.01459
v 0.02085 -0.00939 0.00417
v 0.01876 -0.01356 0.01668
v 0.02085 -0.02816 -0.00000
v 0.02502 -0.03232 -0.00000
v 0.02710 -0.02399 0.00417
v 0.02293 -0.03232 0.01042
v 0.01668 -0.02399 0.00208
v 0.02293 -0.01148 0.01668
v 0.04379 0.01355 0.01876
v 0.01668 -0.00939 0.00417
v 0.02085 -0.00939 0.00417
v 0.02085 0.01772 0.00626
v 0.01668 -0.00730 0.01876
v 0.04379 -0.00730 0.01043
v 0.01668 0.01772 0.01668
v 0.04379 0.01146 0.00834
v 0.04170 -0.00313 0.02085
v 0.03336 0.00938 0.02085
v 0.01668 0.00938 0.00417
v 0.02711 -0.00939 0.01668
v 0.04379 0.01563 0.01043
v 0.01668 0.01981 0.01459
v 0.01668 0.01146 0.01876
v 0.04379 -0.00104 0.00834
v 0.01668 0.01981 0.00834
v 0.04379 0.00938 0.02085
v 0.04379 0.01563 0.01668
v 0.02085 0.00729 0.00417
v 0.04379 -0.00522 0.01668
v 0.03127 0.00104 0.02085
v 0.01668 -0.00939 0.01668
v 0.03753 0.01146 0.02085
v 0.02711 -0.00939 0.00626
v 0.01876 0.01981 0.00834
v 0.04379 -0.00104 0.02085
v 0.04170 0.01355 0.00834
v 0.01876 0.01981 0.01459
v 0.04379 -0.00730 0.01251
v 0.01668 0.01772 0.00626
v 0.02919 -0.00939 0.01043
v 0.02919 -0.00730 0.01876
f 169 178 190 
f 170 169 171 
f 169 170 173 
f 171 169 176 
f 175 171 176 
f 169 173 177 
f 172 176 178 
f 175 174 179 
f 171 175 179 
f 173 170 180 
f 176 172 181 
f 175 176 181 
f 172 177 182 
f 180 168 182 
f 168 181 182 
f 181 172 182 
f 180 170 183 
f 174 180 183 
f 177 172 184 
f 169 177 184 
f 172 178 184 
f 178 169 184 
f 179 174 185 
f 183 170 185 
f 174 183 185 
f 174 175 186 
f 180 174 186 
f 168 180 186 
f 181 168 187 
f 175 181 187 
f 168 186 187 
f 186 175 187 
f 177 173 188 
f 173 180 188 
f 182 177 188 
f 180 182 188 
f 170 171 189 
f 171 179 189 
f 185 170 189 
f 179 185 189 
f 176 169 190 
f 178 176 190 
