# Original object name hint: convex_2
v 0.05630 -0.00729 -0.03962
v 0.06047 0.01563 0.03336
v 0.06464 0.01979 0.02919
v 0.06047 -0.04483 0.00416
v 0.04379 0.00937 0.02710
v 0.05630 0.04483 -0.02919
v 0.06673 0.02397 -0.01668
v 0.05213 -0.03440 -0.03545
v 0.04796 0.01563 -0.03127
v 0.06255 0.04483 0.00207
v 0.06047 -0.03440 -0.03127
v 0.05213 -0.04274 0.00625
v 0.06673 -0.00104 0.02501
v 0.04379 -0.00729 0.00834
v 0.05213 -0.00313 0.03127
v 0.06255 0.02814 -0.03545
v 0.06255 -0.04066 -0.00833
v 0.04379 0.01563 0.01667
v 0.05838 0.04483 0.00207
v 0.05213 -0.04274 -0.02502
v 0.04379 0.00103 0.03127
v 0.06255 -0.03440 0.01459
v 0.06673 0.03440 -0.00416
v 0.06255 -0.00313 -0.03753
v 0.05422 0.01354 -0.03962
v 0.06464 -0.00104 0.03127
v 0.06673 0.00520 -0.00833
v 0.05005 -0.04066 0.00416
v 0.06255 0.04483 -0.01460
v 0.05838 -0.04274 -0.02919
v 0.05630 -0.03231 0.01667
v 0.04796 0.00312 -0.03127
v 0.05630 0.01771 0.03127
v 0.05422 -0.04691 -0.01042
v 0.05838 -0.03649 -0.03545
v 0.05005 -0.04066 -0.01460
v 0.06673 0.01563 0.02710
v 0.05005 0.00312 -0.03753
v 0.05005 0.02397 -0.03336
v 0.04379 0.01563 0.01042
v 0.06047 0.01354 -0.03962
v 0.05838 -0.04691 0.00416
v 0.06673 -0.00313 0.01250
v 0.06255 -0.04066 0.00625
v 0.06673 0.01146 -0.01460
v 0.06255 0.00312 0.03336
v 0.05213 -0.03649 0.01250
v 0.06464 0.04065 0.00207
v 0.05838 -0.04691 -0.01042
v 0.06255 -0.00313 0.03127
v 0.05838 0.04483 -0.02919
v 0.05630 0.03022 -0.03545
v 0.06464 0.03856 -0.01460
v 0.06047 -0.00313 -0.03962
v 0.04379 0.00520 0.03127
v 0.05422 0.00520 0.03336
v 0.05213 -0.04483 0.00207
v 0.05422 -0.04274 -0.02919
v 0.05005 -0.03649 -0.01876
v 0.05005 0.01979 -0.03545
v 0.05422 -0.00521 -0.03962
v 0.06255 0.01563 -0.03753
v 0.06673 0.02605 0.01459
v 0.06464 0.01563 0.03127
v 0.01250 0.00937 0.02085
v -0.06673 -0.00729 0.00834
v -0.06464 -0.01980 0.00834
v 0.01668 0.01354 0.00417
v -0.02087 0.05109 0.00834
v -0.02295 -0.04900 0.00417
v -0.01670 0.03857 0.00208
v 0.01668 -0.03231 0.00417
v -0.02919 -0.04692 0.01043
v -0.06673 0.00311 0.01251
v 0.01041 -0.00729 0.02085
v -0.05422 -0.03023 0.00417
v -0.05839 -0.02814 0.01251
v -0.00627 0.01145 0.02085
v -0.00627 0.05109 0.00834
v 0.01668 -0.03231 0.01043
v 0.01668 0.01771 0.01668
v -0.06673 0.00311 0.00834
v -0.05422 0.01979 0.01251
v 0.00207 0.01771 0.02085
v -0.06047 -0.03441 0.00626
v -0.00210 0.03440 0.00208
v -0.00836 -0.00104 0.02085
v -0.00627 0.05109 0.00417
v -0.03545 -0.05109 0.00834
v -0.01253 -0.01563 0.01876
v 0.01668 0.02188 0.00834
v -0.02087 0.05109 0.00626
v 0.01668 -0.00938 0.01876
v -0.06464 -0.01980 0.01251
v -0.03336 -0.04900 0.00417
v -0.05839 0.01562 0.00834
v 0.01458 -0.02397 0.01459
v -0.05422 -0.02397 0.00417
v -0.00836 0.02814 0.00208
v -0.03545 -0.04692 0.01043
v 0.00624 0.01771 0.02085
v -0.02919 -0.05109 0.00834
v -0.06047 -0.03441 0.00834
v 0.01668 0.02188 0.01251
v 0.01668 0.01354 0.01876
v -0.06673 -0.00729 0.01251
v 0.01041 0.01979 0.01876
v -0.06464 0.00728 0.01251
v -0.01670 0.03231 0.00208
v -0.03545 -0.05109 0.00626
v 0.01458 -0.00312 0.02085
v -0.00418 0.02814 0.00208
v 0.01668 0.01979 0.00626
v -0.00418 0.03857 0.00208
v -0.00836 0.00728 0.02085
v -0.00002 -0.00729 0.02085
v -0.05839 0.01562 0.01251
v -0.06256 -0.02397 0.01251
v 0.01668 -0.02814 0.01251
v -0.02295 -0.04900 0.00834
v -0.00836 0.05109 0.00417
v -0.02294 -0.01147 0.03545
v 0.01667 0.01772 0.03336
v 0.02293 0.01564 0.03545
v 0.00624 -0.00522 0.02085
v 0.02502 -0.00522 0.03336
v -0.02294 0.00729 0.03962
v 0.00207 0.01146 0.02085
v 0.02710 0.00729 0.02711
v -0.00208 -0.00104 0.03962
v -0.00835 0.01772 0.03545
v -0.02712 0.00312 0.03545
v -0.00001 -0.00313 0.02085
v 0.02084 -0.00730 0.02920
v -0.02294 -0.00730 0.03962
v 0.02710 0.01564 0.02920
v -0.00835 0.01772 0.03128
v 0.02710 -0.00313 0.02711
v 0.01041 0.00520 0.02085
v 0.02502 0.00104 0.03545
v 0.01458 0.01772 0.02920
v -0.02086 -0.01147 0.03753
v -0.00001 0.00520 0.03962
v 0.00207 0.01355 0.03753
v -0.02712 -0.00313 0.03545
v 0.02710 0.01564 0.03336
v -0.00001 0.00938 0.02085
v 0.02084 -0.00730 0.03336
v -0.02712 -0.00104 0.03962
v -0.01669 -0.00730 0.03962
v 0.00624 0.01146 0.02085
v 0.02710 -0.00104 0.03336
v 0.01667 -0.00522 0.03545
v 0.01458 0.00104 0.03753
v -0.00208 0.01772 0.02920
v -0.02503 -0.00939 0.03545
v 0.02502 0.01355 0.03545
v 0.01041 -0.00104 0.02085
v 0.00207 -0.00522 0.02085
v -0.02503 -0.00939 0.03753
v 0.00207 0.01772 0.03545
v 0.02502 0.01146 0.02711
v -0.02712 0.00312 0.03962
v -0.02294 0.00729 0.03545
v -0.02086 -0.01147 0.03545
v 0.01458 0.00729 0.03753
v -0.01043 0.01564 0.03128
v 0.03544 0.01564 0.02919
v 0.02710 -0.00105 0.02502
v 0.02710 -0.00105 0.03128
v 0.04378 -0.00105 0.02711
v 0.04170 0.00938 0.02085
v 0.02710 0.01355 0.02711
v 0.02919 0.01355 0.03336
v 0.04378 0.00729 0.02919
v 0.04378 -0.00105 0.02085
v 0.03128 0.01355 0.02294
v 0.03544 0.00104 0.02085
v 0.04378 0.00104 0.02919
v 0.02710 0.01564 0.03128
v 0.04378 0.00938 0.02294
v 0.03544 0.01564 0.02502
v 0.02710 0.00729 0.03336
v 0.03544 0.00938 0.02085
v 0.02919 0.00729 0.03336
v 0.03336 0.01564 0.03128
v 0.04378 0.00938 0.02711
v 0.03128 0.01564 0.02502
v 0.02919 -0.00105 0.03128
v 0.03753 -0.00105 0.02085
v 0.02710 -0.03232 0.00625
v 0.02293 -0.00939 0.01668
v 0.01668 -0.00939 0.01668
v 0.01668 -0.00939 0.00417
v 0.01668 -0.03232 0.01042
v 0.02710 -0.00939 0.00625
v 0.02085 -0.03232 -0.00000
v 0.02710 -0.03024 0.01042
v 0.02502 -0.02816 -0.00000
v 0.01668 -0.03232 0.00208
v 0.02710 -0.00939 0.01459
v 0.02502 -0.02816 0.01251
v 0.01668 -0.02190 0.01459
v 0.02085 -0.00939 0.00417
v 0.01876 -0.01356 0.01668
v 0.02085 -0.02816 -0.00000
v 0.02502 -0.03232 -0.00000
v 0.02710 -0.02399 0.00417
v 0.02293 -0.03232 0.01042
v 0.01668 -0.02399 0.00208
v 0.02293 -0.01148 0.01668
v 0.04379 0.01355 0.01876
v 0.01668 -0.00939 0.00417
v 0.02085 -0.00939 0.00417
v 0.02085 0.01772 0.00626
v 0.01668 -0.00730 0.01876
v 0.04379 -0.00730 0.01043
v 0.01668 0.01772 0.01668
v 0.04379 0.01146 0.00834
v 0.04170 -0.00313 0.02085
v 0.03336 0.00938 0.02085
v 0.01668 0.00938 0.00417
v 0.02711 -0.00939 0.01668
v 0.04379 0.01563 0.01043
v 0.01668 0.01981 0.01459
v 0.01668 0.01146 0.01876
v 0.04379 -0.00104 0.00834
v 0.01668 0.01981 0.00834
v 0.04379 0.00938 0.02085
v 0.04379 0.01563 0.01668
v 0.02085 0.00729 0.00417
v 0.04379 -0.00522 0.01668
v 0.03127 0.00104 0.02085
v 0.01668 -0.00939 0.01668
v 0.03753 0.01146 0.02085
v 0.02711 -0.00939 0.00626
v 0.01876 0.01981 0.00834
v 0.04379 -0.00104 0.02085
v 0.04170 0.01355 0.00834
v 0.01876 0.01981 0.01459
v 0.04379 -0.00730 0.01251
v 0.01668 0.01772 0.00626
v 0.02919 -0.00939 0.01043
v 0.02919 -0.00730 0.01876
f 147 132 167 
f 128 125 133 
f 130 127 135 
f 131 123 137 
f 127 131 137 
f 134 125 138 
f 126 134 138 
f 129 136 138 
f 125 128 139 
f 129 138 139 
f 123 136 141 
f 137 123 141 
f 127 130 143 
f 131 127 144 
f 143 124 144 
f 127 143 144 
f 132 133 145 
f 123 124 146 
f 136 123 146 
f 138 136 146 
f 128 133 147 
f 133 132 147 
f 134 126 148 
f 142 134 148 
f 135 127 149 
f 132 145 149 
f 130 135 150 
f 135 142 150 
f 142 148 150 
f 139 128 151 
f 141 136 151 
f 128 141 151 
f 126 138 152 
f 140 126 152 
f 138 146 152 
f 146 140 152 
f 126 140 153 
f 148 126 153 
f 130 150 153 
f 150 148 153 
f 143 130 154 
f 153 140 154 
f 130 153 154 
f 128 137 155 
f 141 128 155 
f 137 141 155 
f 145 133 156 
f 124 143 157 
f 146 124 157 
f 140 146 157 
f 154 140 157 
f 138 125 158 
f 125 139 158 
f 139 138 158 
f 125 122 159 
f 133 125 159 
f 122 156 159 
f 156 133 159 
f 122 142 160 
f 142 135 160 
f 135 149 160 
f 149 145 160 
f 156 122 160 
f 145 156 160 
f 124 123 161 
f 123 131 161 
f 144 124 161 
f 131 144 161 
f 136 129 162 
f 129 139 162 
f 151 136 162 
f 139 151 162 
f 127 132 163 
f 149 127 163 
f 132 149 163 
f 132 127 164 
f 127 137 164 
f 137 132 164 
f 122 125 165 
f 125 134 165 
f 142 122 165 
f 134 142 165 
f 143 154 166 
f 157 143 166 
f 154 157 166 
f 137 128 167 
f 132 137 167 
f 128 147 167 
