# Original object name hint: convex_0
v 0.05630 -0.00729 -0.03962
v 0.06047 0.01563 0.03336
v 0.06464 0.01979 0.02919
v 0.06047 -0.04483 0.00416
v 0.04379 0.00937 0.02710
v 0.05630 0.04483 -0.02919
v 0.06673 0.02397 -0.01668
v 0.05213 -0.03440 -0.03545
v 0.04796 0.01563 -0.03127
v 0.06255 0.04483 0.00207
v 0.06047 -0.03440 -0.03127
v 0.05213 -0.04274 0.00625
v 0.06673 -0.00104 0.02501
v 0.04379 -0.00729 0.00834
v 0.05213 -0.00313 0.03127
v 0.06255 0.02814 -0.03545
v 0.06255 -0.04066 -0.00833
v 0.04379 0.01563 0.01667
v 0.05838 0.04483 0.00207
v 0.05213 -0.04274 -0.02502
v 0.04379 0.00103 0.03127
v 0.06255 -0.03440 0.01459
v 0.06673 0.03440 -0.00416
v 0.06255 -0.00313 -0.03753
v 0.05422 0.01354 -0.03962
v 0.06464 -0.00104 0.03127
v 0.06673 0.00520 -0.00833
v 0.05005 -0.04066 0.00416
v 0.06255 0.04483 -0.01460
v 0.05838 -0.04274 -0.02919
v 0.05630 -0.03231 0.01667
v 0.04796 0.00312 -0.03127
v 0.05630 0.01771 0.03127
v 0.05422 -0.04691 -0.01042
v 0.05838 -0.03649 -0.03545
v 0.05005 -0.04066 -0.01460
v 0.06673 0.01563 0.02710
v 0.05005 0.00312 -0.03753
v 0.05005 0.02397 -0.03336
v 0.04379 0.01563 0.01042
v 0.06047 0.01354 -0.03962
v 0.05838 -0.04691 0.00416
v 0.06673 -0.00313 0.01250
v 0.06255 -0.04066 0.00625
v 0.06673 0.01146 -0.01460
v 0.06255 0.00312 0.03336
v 0.05213 -0.03649 0.01250
v 0.06464 0.04065 0.00207
v 0.05838 -0.04691 -0.01042
v 0.06255 -0.00313 0.03127
v 0.05838 0.04483 -0.02919
v 0.05630 0.03022 -0.03545
v 0.06464 0.03856 -0.01460
v 0.06047 -0.00313 -0.03962
v 0.04379 0.00520 0.03127
v 0.05422 0.00520 0.03336
v 0.05213 -0.04483 0.00207
v 0.05422 -0.04274 -0.02919
v 0.05005 -0.03649 -0.01876
v 0.05005 0.01979 -0.03545
v 0.05422 -0.00521 -0.03962
v 0.06255 0.01563 -0.03753
v 0.06673 0.02605 0.01459
v 0.06464 0.01563 0.03127
v 0.01250 0.00937 0.02085
v -0.06673 -0.00729 0.00834
v -0.06464 -0.01980 0.00834
v 0.01668 0.01354 0.00417
v -0.02087 0.05109 0.00834
v -0.02295 -0.04900 0.00417
v -0.01670 0.03857 0.00208
v 0.01668 -0.03231 0.00417
v -0.02919 -0.04692 0.01043
v -0.06673 0.00311 0.01251
v 0.01041 -0.00729 0.02085
v -0.05422 -0.03023 0.00417
v -0.05839 -0.02814 0.01251
v -0.00627 0.01145 0.02085
v -0.00627 0.05109 0.00834
v 0.01668 -0.03231 0.01043
v 0.01668 0.01771 0.01668
v -0.06673 0.00311 0.00834
v -0.05422 0.01979 0.01251
v 0.00207 0.01771 0.02085
v -0.06047 -0.03441 0.00626
v -0.00210 0.03440 0.00208
v -0.00836 -0.00104 0.02085
v -0.00627 0.05109 0.00417
v -0.03545 -0.05109 0.00834
v -0.01253 -0.01563 0.01876
v 0.01668 0.02188 0.00834
v -0.02087 0.05109 0.00626
v 0.01668 -0.00938 0.01876
v -0.06464 -0.01980 0.01251
v -0.03336 -0.04900 0.00417
v -0.05839 0.01562 0.00834
v 0.01458 -0.02397 0.01459
v -0.05422 -0.02397 0.00417
v -0.00836 0.02814 0.00208
v -0.03545 -0.04692 0.01043
v 0.00624 0.01771 0.02085
v -0.02919 -0.05109 0.00834
v -0.06047 -0.03441 0.00834
v 0.01668 0.02188 0.01251
v 0.01668 0.01354 0.01876
v -0.06673 -0.00729 0.01251
v 0.01041 0.01979 0.01876
v -0.06464 0.00728 0.01251
v -0.01670 0.03231 0.00208
v -0.03545 -0.05109 0.00626
v 0.01458 -0.00312 0.02085
v -0.00418 0.02814 0.00208
v 0.01668 0.01979 0.00626
v -0.00418 0.03857 0.00208
v -0.00836 0.00728 0.02085
v -0.00002 -0.00729 0.02085
v -0.05839 0.01562 0.01251
v -0.06256 -0.02397 0.01251
v 0.01668 -0.02814 0.01251
v -0.02295 -0.04900 0.00834
v -0.00836 0.05109 0.00417
v -0.02294 -0.01147 0.03545
v 0.01667 0.01772 0.03336
v 0.02293 0.01564 0.03545
v 0.00624 -0.00522 0.02085
v 0.02502 -0.00522 0.03336
v -0.02294 0.00729 0.03962
v 0.00207 0.01146 0.02085
v 0.02710 0.00729 0.02711
v -0.00208 -0.00104 0.03962
v -0.00835 0.01772 0.03545
v -0.02712 0.00312 0.03545
v -0.00001 -0.00313 0.02085
v 0.02084 -0.00730 0.02920
v -0.02294 -0.00730 0.03962
v 0.02710 0.01564 0.02920
v -0.00835 0.01772 0.03128
v 0.02710 -0.00313 0.02711
v 0.01041 0.00520 0.02085
v 0.02502 0.00104 0.03545
v 0.01458 0.01772 0.02920
v -0.02086 -0.01147 0.03753
v -0.00001 0.00520 0.03962
v 0.00207 0.01355 0.03753
v -0.02712 -0.00313 0.03545
v 0.02710 0.01564 0.03336
v -0.00001 0.00938 0.02085
v 0.02084 -0.00730 0.03336
v -0.02712 -0.00104 0.03962
v -0.01669 -0.00730 0.03962
v 0.00624 0.01146 0.02085
v 0.02710 -0.00104 0.03336
v 0.01667 -0.00522 0.03545
v 0.01458 0.00104 0.03753
v -0.00208 0.01772 0.02920
v -0.02503 -0.00939 0.03545
v 0.02502 0.01355 0.03545
v 0.01041 -0.00104 0.02085
v 0.00207 -0.00522 0.02085
v -0.02503 -0.00939 0.03753
v 0.00207 0.01772 0.03545
v 0.02502 0.01146 0.02711
v -0.02712 0.00312 0.03962
v -0.02294 0.00729 0.03545
v -0.02086 -0.01147 0.03545
v 0.01458 0.00729 0.03753
v -0.01043 0.01564 0.03128
v 0.03544 0.01564 0.02919
v 0.02710 -0.00105 0.02502
v 0.02710 -0.00105 0.03128
v 0.04378 -0.00105 0.02711
v 0.04170 0.00938 0.02085
v 0.02710 0.01355 0.02711
v 0.02919 0.01355 0.03336
v 0.04378 0.00729 0.02919
v 0.04378 -0.00105 0.02085
v 0.03128 0.01355 0.02294
v 0.03544 0.00104 0.02085
v 0.04378 0.00104 0.02919
v 0.02710 0.01564 0.03128
v 0.04378 0.00938 0.02294
v 0.03544 0.01564 0.02502
v 0.02710 0.00729 0.03336
v 0.03544 0.00938 0.02085
v 0.02919 0.00729 0.03336
v 0.03336 0.01564 0.03128
v 0.04378 0.00938 0.02711
v 0.03128 0.01564 0.02502
v 0.02919 -0.00105 0.03128
v 0.03753 -0.00105 0.02085
v 0.02710 -0.03232 0.00625
v 0.02293 -0.00939 0.01668
v 0.01668 -0.00939 0.01668
v 0.01668 -0.00939 0.00417
v 0.01668 -0.03232 0.01042
v 0.02710 -0.00939 0.00625
v 0.02085 -0.03232 -0.00000
v 0.02710 -0.03024 0.01042
v 0.02502 -0.02816 -0.00000
v 0.01668 -0.03232 0.00208
v 0.02710 -0.00939 0.01459
v 0.02502 -0.02816 0.01251
v 0.01668 -0.02190 0.01459
v 0.02085 -0.00939 0.00417
v 0.01876 -0.01356 0.01668
v 0.02085 -0.02816 -0.00000
v 0.02502 -0.03232 -0.00000
v 0.02710 -0.02399 0.00417
v 0.02293 -0.03232 0.01042
v 0.01668 -0.02399 0.00208
v 0.02293 -0.01148 0.01668
v 0.04379 0.01355 0.01876
v 0.01668 -0.00939 0.00417
v 0.02085 -0.00939 0.00417
v 0.02085 0.01772 0.00626
v 0.01668 -0.00730 0.01876
v 0.04379 -0.00730 0.01043
v 0.01668 0.01772 0.01668
v 0.04379 0.01146 0.00834
v 0.04170 -0.00313 0.02085
v 0.03336 0.00938 0.02085
v 0.01668 0.00938 0.00417
v 0.02711 -0.00939 0.01668
v 0.04379 0.01563 0.01043
v 0.01668 0.01981 0.01459
v 0.01668 0.01146 0.01876
v 0.04379 -0.00104 0.00834
v 0.01668 0.01981 0.00834
v 0.04379 0.00938 0.02085
v 0.04379 0.01563 0.01668
v 0.02085 0.00729 0.00417
v 0.04379 -0.00522 0.01668
v 0.03127 0.00104 0.02085
v 0.01668 -0.00939 0.01668
v 0.03753 0.01146 0.02085
v 0.02711 -0.00939 0.00626
v 0.01876 0.01981 0.00834
v 0.04379 -0.00104 0.02085
v 0.04170 0.01355 0.00834
v 0.01876 0.01981 0.01459
v 0.04379 -0.00730 0.01251
v 0.01668 0.01772 0.00626
v 0.02919 -0.00939 0.01043
v 0.02919 -0.00730 0.01876
f 46 26 64 
f 14 5 18 
f 3 10 19 
f 10 6 19 
f 6 18 19 
f 18 5 19 
f 5 14 21 
f 13 7 23 
f 22 13 26 
f 7 13 27 
f 21 14 28 
f 6 10 29 
f 11 17 30 
f 15 21 31 
f 14 9 32 
f 2 3 33 
f 3 19 33 
f 19 5 33 
f 8 1 35 
f 24 11 35 
f 11 30 35 
f 8 20 36 
f 28 14 36 
f 20 34 36 
f 13 23 37 
f 26 13 37 
f 32 9 38 
f 8 32 38 
f 9 14 40 
f 18 6 40 
f 14 18 40 
f 6 39 40 
f 39 9 40 
f 1 25 41 
f 4 22 42 
f 22 31 42 
f 27 13 43 
f 17 27 43 
f 4 17 44 
f 22 4 44 
f 13 22 44 
f 43 13 44 
f 17 43 44 
f 17 11 45 
f 11 24 45 
f 24 7 45 
f 7 27 45 
f 27 17 45 
f 28 12 47 
f 21 28 47 
f 31 21 47 
f 12 42 47 
f 42 31 47 
f 10 3 48 
f 29 10 48 
f 23 29 48 
f 17 4 49 
f 30 17 49 
f 34 30 49 
f 4 42 49 
f 42 34 49 
f 22 26 50 
f 15 31 50 
f 31 22 50 
f 46 15 50 
f 26 46 50 
f 6 29 51 
f 29 16 51 
f 16 41 52 
f 41 25 52 
f 6 51 52 
f 51 16 52 
f 7 16 53 
f 23 7 53 
f 16 29 53 
f 29 23 53 
f 35 1 54 
f 24 35 54 
f 1 41 54 
f 41 24 54 
f 5 21 55 
f 2 33 55 
f 33 5 55 
f 21 15 56 
f 46 2 56 
f 15 46 56 
f 2 55 56 
f 55 21 56 
f 12 28 57 
f 28 36 57 
f 36 34 57 
f 42 12 57 
f 34 42 57 
f 20 8 58 
f 34 20 58 
f 30 34 58 
f 8 35 58 
f 35 30 58 
f 14 32 59 
f 32 8 59 
f 8 36 59 
f 36 14 59 
f 25 38 60 
f 38 9 60 
f 39 6 60 
f 9 39 60 
f 6 52 60 
f 52 25 60 
f 1 8 61 
f 25 1 61 
f 8 38 61 
f 38 25 61 
f 16 7 62 
f 7 24 62 
f 24 41 62 
f 41 16 62 
f 3 37 63 
f 37 23 63 
f 48 3 63 
f 23 48 63 
f 3 2 64 
f 37 3 64 
f 26 37 64 
f 2 46 64 
