# Original object name hint: convex_5
v 0.05630 -0.00729 -0.03962
v 0.06047 0.01563 0.03336
v 0.06464 0.01979 0.02919
v 0.06047 -0.04483 0.00416
v 0.04379 0.00937 0.02710
v 0.05630 0.04483 -0.02919
v 0.06673 0.02397 -0.01668
v 0.05213 -0.03440 -0.03545
v 0.04796 0.01563 -0.03127
v 0.06255 0.04483 0.00207
v 0.06047 -0.03440 -0.03127
v 0.05213 -0.04274 0.00625
v 0.06673 -0.00104 0.02501
v 0.04379 -0.00729 0.00834
v 0.05213 -0.00313 0.03127
v 0.06255 0.02814 -0.03545
v 0.06255 -0.04066 -0.00833
v 0.04379 0.01563 0.01667
v 0.05838 0.04483 0.00207
v 0.05213 -0.04274 -0.02502
v 0.04379 0.00103 0.03127
v 0.06255 -0.03440 0.01459
v 0.06673 0.03440 -0.00416
v 0.06255 -0.00313 -0.03753
v 0.05422 0.01354 -0.03962
v 0.06464 -0.00104 0.03127
v 0.06673 0.00520 -0.00833
v 0.05005 -0.04066 0.00416
v 0.06255 0.04483 -0.01460
v 0.05838 -0.04274 -0.02919
v 0.05630 -0.03231 0.01667
v 0.04796 0.00312 -0.03127
v 0.05630 0.01771 0.03127
v 0.05422 -0.04691 -0.01042
v 0.05838 -0.03649 -0.03545
v 0.05005 -0.04066 -0.01460
v 0.06673 0.01563 0.02710
v 0.05005 0.00312 -0.03753
v 0.05005 0.02397 -0.03336
v 0.04379 0.01563 0.01042
v 0.06047 0.01354 -0.03962
v 0.05838 -0.04691 0.00416
v 0.06673 -0.00313 0.01250
v 0.06255 -0.04066 0.00625
v 0.06673 0.01146 -0.01460
v 0.06255 0.00312 0.03336
v 0.05213 -0.03649 0.01250
v 0.06464 0.04065 0.00207
v 0.05838 -0.04691 -0.01042
v 0.06255 -0.00313 0.03127
v 0.05838 0.04483 -0.02919
v 0.05630 0.03022 -0.03545
v 0.06464 0.03856 -0.01460
v 0.06047 -0.00313 -0.03962
v 0.04379 0.00520 0.03127
v 0.05422 0.00520 0.03336
v 0.05213 -0.04483 0.00207
v 0.05422 -0.04274 -0.02919
v 0.05005 -0.03649 -0.01876
v 0.05005 0.01979 -0.03545
v 0.05422 -0.00521 -0.03962
v 0.06255 0.01563 -0.03753
v 0.06673 0.02605 0.01459
v 0.06464 0.01563 0.03127
v 0.01250 0.00937 0.02085
v -0.06673 -0.00729 0.00834
v -0.06464 -0.01980 0.00834
v 0.01668 0.01354 0.00417
v -0.02087 0.05109 0.00834
v -0.02295 -0.04900 0.00417
v -0.01670 0.03857 0.00208
v 0.01668 -0.03231 0.00417
v -0.02919 -0.04692 0.01043
v -0.06673 0.00311 0.01251
v 0.01041 -0.00729 0.02085
v -0.05422 -0.03023 0.00417
v -0.05839 -0.02814 0.01251
v -0.00627 0.01145 0.02085
v -0.00627 0.05109 0.00834
v 0.01668 -0.03231 0.01043
v 0.01668 0.01771 0.01668
v -0.06673 0.00311 0.00834
v -0.05422 0.01979 0.01251
v 0.00207 0.01771 0.02085
v -0.06047 -0.03441 0.00626
v -0.00210 0.03440 0.00208
v -0.00836 -0.00104 0.02085
v -0.00627 0.05109 0.00417
v -0.03545 -0.05109 0.00834
v -0.01253 -0.01563 0.01876
v 0.01668 0.02188 0.00834
v -0.02087 0.05109 0.00626
v 0.01668 -0.00938 0.01876
v -0.06464 -0.01980 0.01251
v -0.03336 -0.04900 0.00417
v -0.05839 0.01562 0.00834
v 0.01458 -0.02397 0.01459
v -0.05422 -0.02397 0.00417
v -0.00836 0.02814 0.00208
v -0.03545 -0.04692 0.01043
v 0.00624 0.01771 0.02085
v -0.02919 -0.05109 0.00834
v -0.06047 -0.03441 0.00834
v 0.01668 0.02188 0.01251
v 0.01668 0.01354 0.01876
v -0.06673 -0.00729 0.01251
v 0.01041 0.01979 0.01876
v -0.06464 0.00728 0.01251
v -0.01670 0.03231 0.00208
v -0.03545 -0.05109 0.00626
v 0.01458 -0.00312 0.02085
v -0.00418 0.02814 0.00208
v 0.01668 0.01979 0.00626
v -0.00418 0.03857 0.00208
v -0.00836 0.00728 0.02085
v -0.00002 -0.00729 0.02085
v -0.05839 0.01562 0.01251
v -0.06256 -0.02397 0.01251
v 0.01668 -0.02814 0.01251
v -0.02295 -0.04900 0.00834
v -0.00836 0.05109 0.00417
v -0.02294 -0.01147 0.03545
v 0.01667 0.01772 0.03336
v 0.02293 0.01564 0.03545
v 0.00624 -0.00522 0.02085
v 0.02502 -0.00522 0.03336
v -0.02294 0.00729 0.03962
v 0.00207 0.01146 0.02085
v 0.02710 0.00729 0.02711
v -0.00208 -0.00104 0.03962
v -0.00835 0.01772 0.03545
v -0.02712 0.00312 0.03545
v -0.00001 -0.00313 0.02085
v 0.02084 -0.00730 0.02920
v -0.02294 -0.00730 0.03962
v 0.02710 0.01564 0.02920
v -0.00835 0.01772 0.03128
v 0.02710 -0.00313 0.02711
v 0.01041 0.00520 0.02085
v 0.02502 0.00104 0.03545
v 0.01458 0.01772 0.02920
v -0.02086 -0.01147 0.03753
v -0.00001 0.00520 0.03962
v 0.00207 0.01355 0.03753
v -0.02712 -0.00313 0.03545
v 0.02710 0.01564 0.03336
v -0.00001 0.00938 0.02085
v 0.02084 -0.00730 0.03336
v -0.02712 -0.00104 0.03962
v -0.01669 -0.00730 0.03962
v 0.00624 0.01146 0.02085
v 0.02710 -0.00104 0.03336
v 0.01667 -0.00522 0.03545
v 0.01458 0.00104 0.03753
v -0.00208 0.01772 0.02920
v -0.02503 -0.00939 0.03545
v 0.02502 0.01355 0.03545
v 0.01041 -0.00104 0.02085
v 0.00207 -0.00522 0.02085
v -0.02503 -0.00939 0.03753
v 0.00207 0.01772 0.03545
v 0.02502 0.01146 0.02711
v -0.02712 0.00312 0.03962
v -0.02294 0.00729 0.03545
v -0.02086 -0.01147 0.03545
v 0.01458 0.00729 0.03753
v -0.01043 0.01564 0.03128
v 0.03544 0.01564 0.02919
v 0.02710 -0.00105 0.02502
v 0.02710 -0.00105 0.03128
v 0.04378 -0.00105 0.02711
v 0.04170 0.00938 0.02085
v 0.02710 0.01355 0.02711
v 0.02919 0.01355 0.03336
v 0.04378 0.00729 0.02919
v 0.04378 -0.00105 0.02085
v 0.03128 0.01355 0.02294
v 0.03544 0.00104 0.02085
v 0.04378 0.00104 0.02919
v 0.02710 0.01564 0.03128
v 0.04378 0.00938 0.02294
v 0.03544 0.01564 0.02502
v 0.02710 0.00729 0.03336
v 0.03544 0.00938 0.02085
v 0.02919 0.00729 0.03336
v 0.03336 0.01564 0.03128
v 0.04378 0.00938 0.02711
v 0.03128 0.01564 0.02502
v 0.02919 -0.00105 0.03128
v 0.03753 -0.00105 0.02085
v 0.02710 -0.03232 0.00625
v 0.02293 -0.00939 0.01668
v 0.01668 -0.00939 0.01668
v 0.01668 -0.00939 0.00417
v 0.01668 -0.03232 0.01042
v 0.02710 -0.00939 0.00625
v 0.02085 -0.03232 -0.00000
v 0.02710 -0.03024 0.01042
v 0.02502 -0.02816 -0.00000
v 0.01668 -0.03232 0.00208
v 0.02710 -0.00939 0.01459
v 0.02502 -0.02816 0.01251
v 0.01668 -0.02190 0.01459
v 0.02085 -0.00939 0.00417
v 0.01876 -0.01356 0.01668
v 0.02085 -0.02816 -0.00000
v 0.02502 -0.03232 -0.00000
v 0.02710 -0.02399 0.00417
v 0.02293 -0.03232 0.01042
v 0.01668 -0.02399 0.00208
v 0.02293 -0.01148 0.01668
v 0.04379 0.01355 0.01876
v 0.01668 -0.00939 0.00417
v 0.02085 -0.00939 0.00417
v 0.02085 0.01772 0.00626
v 0.01668 -0.00730 0.01876
v 0.04379 -0.00730 0.01043
v 0.01668 0.01772 0.01668
v 0.04379 0.01146 0.00834
v 0.04170 -0.00313 0.02085
v 0.03336 0.00938 0.02085
v 0.01668 0.00938 0.00417
v 0.02711 -0.00939 0.01668
v 0.04379 0.01563 0.01043
v 0.01668 0.01981 0.01459
v 0.01668 0.01146 0.01876
v 0.04379 -0.00104 0.00834
v 0.01668 0.01981 0.00834
v 0.04379 0.00938 0.02085
v 0.04379 0.01563 0.01668
v 0.02085 0.00729 0.00417
v 0.04379 -0.00522 0.01668
v 0.03127 0.00104 0.02085
v 0.01668 -0.00939 0.01668
v 0.03753 0.01146 0.02085
v 0.02711 -0.00939 0.00626
v 0.01876 0.01981 0.00834
v 0.04379 -0.00104 0.02085
v 0.04170 0.01355 0.00834
v 0.01876 0.01981 0.01459
v 0.04379 -0.00730 0.01251
v 0.01668 0.01772 0.00626
v 0.02919 -0.00939 0.01043
v 0.02919 -0.00730 0.01876
f 223 220 244 
f 213 216 218 
f 212 217 219 
f 214 213 222 
f 213 218 222 
f 213 214 223 
f 212 219 224 
f 222 218 225 
f 218 216 226 
f 217 214 227 
f 214 219 227 
f 219 217 227 
f 222 225 228 
f 217 212 229 
f 221 220 229 
f 212 224 230 
f 219 214 231 
f 214 222 231 
f 222 215 231 
f 220 223 232 
f 217 229 232 
f 216 220 233 
f 220 221 233 
f 226 216 233 
f 221 226 233 
f 216 213 234 
f 213 223 234 
f 223 216 234 
f 212 218 235 
f 218 226 235 
f 226 221 235 
f 229 212 235 
f 221 229 235 
f 214 217 236 
f 223 214 236 
f 224 215 237 
f 215 228 237 
f 228 225 237 
f 230 224 237 
f 229 220 238 
f 220 232 238 
f 232 229 238 
f 215 224 239 
f 224 219 239 
f 219 231 239 
f 231 215 239 
f 218 212 240 
f 225 218 240 
f 212 230 240 
f 237 225 240 
f 230 237 240 
f 217 232 241 
f 232 223 241 
f 215 222 242 
f 228 215 242 
f 222 228 242 
f 236 217 243 
f 223 236 243 
f 217 241 243 
f 241 223 243 
f 220 216 244 
f 216 223 244 
