# Original object name hint: convex_1
v 0.05630 -0.00729 -0.03962
v 0.06047 0.01563 0.03336
v 0.06464 0.01979 0.02919
v 0.06047 -0.04483 0.00416
v 0.04379 0.00937 0.02710
v 0.05630 0.04483 -0.02919
v 0.06673 0.02397 -0.01668
v 0.05213 -0.03440 -0.03545
v 0.04796 0.01563 -0.03127
v 0.06255 0.04483 0.00207
v 0.06047 -0.03440 -0.03127
v 0.05213 -0.04274 0.00625
v 0.06673 -0.00104 0.02501
v 0.04379 -0.00729 0.00834
v 0.05213 -0.00313 0.03127
v 0.06255 0.02814 -0.03545
v 0.06255 -0.04066 -0.00833
v 0.04379 0.01563 0.01667
v 0.05838 0.04483 0.00207
v 0.05213 -0.04274 -0.02502
v 0.04379 0.00103 0.03127
v 0.06255 -0.03440 0.01459
v 0.06673 0.03440 -0.00416
v 0.06255 -0.00313 -0.03753
v 0.05422 0.01354 -0.03962
v 0.06464 -0.00104 0.03127
v 0.06673 0.00520 -0.00833
v 0.05005 -0.04066 0.00416
v 0.06255 0.04483 -0.01460
v 0.05838 -0.04274 -0.02919
v 0.05630 -0.03231 0.01667
v 0.04796 0.00312 -0.03127
v 0.05630 0.01771 0.03127
v 0.05422 -0.04691 -0.01042
v 0.05838 -0.03649 -0.03545
v 0.05005 -0.04066 -0.01460
v 0.06673 0.01563 0.02710
v 0.05005 0.00312 -0.03753
v 0.05005 0.02397 -0.03336
v 0.04379 0.01563 0.01042
v 0.06047 0.01354 -0.03962
v 0.05838 -0.04691 0.00416
v 0.06673 -0.00313 0.01250
v 0.06255 -0.04066 0.00625
v 0.06673 0.01146 -0.01460
v 0.06255 0.00312 0.03336
v 0.05213 -0.03649 0.01250
v 0.06464 0.04065 0.00207
v 0.05838 -0.04691 -0.01042
v 0.06255 -0.00313 0.03127
v 0.05838 0.04483 -0.02919
v 0.05630 0.03022 -0.03545
v 0.06464 0.03856 -0.01460
v 0.06047 -0.00313 -0.03962
v 0.04379 0.00520 0.03127
v 0.05422 0.00520 0.03336
v 0.05213 -0.04483 0.00207
v 0.05422 -0.04274 -0.02919
v 0.05005 -0.03649 -0.01876
v 0.05005 0.01979 -0.03545
v 0.05422 -0.00521 -0.03962
v 0.06255 0.01563 -0.03753
v 0.06673 0.02605 0.01459
v 0.06464 0.01563 0.03127
v 0.01250 0.00937 0.02085
v -0.06673 -0.00729 0.00834
v -0.06464 -0.01980 0.00834
v 0.01668 0.01354 0.00417
v -0.02087 0.05109 0.00834
v -0.02295 -0.04900 0.00417
v -0.01670 0.03857 0.00208
v 0.01668 -0.03231 0.00417
v -0.02919 -0.04692 0.01043
v -0.06673 0.00311 0.01251
v 0.01041 -0.00729 0.02085
v -0.05422 -0.03023 0.00417
v -0.05839 -0.02814 0.01251
v -0.00627 0.01145 0.02085
v -0.00627 0.05109 0.00834
v 0.01668 -0.03231 0.01043
v 0.01668 0.01771 0.01668
v -0.06673 0.00311 0.00834
v -0.05422 0.01979 0.01251
v 0.00207 0.01771 0.02085
v -0.06047 -0.03441 0.00626
v -0.00210 0.03440 0.00208
v -0.00836 -0.00104 0.02085
v -0.00627 0.05109 0.00417
v -0.03545 -0.05109 0.00834
v -0.01253 -0.01563 0.01876
v 0.01668 0.02188 0.00834
v -0.02087 0.05109 0.00626
v 0.01668 -0.00938 0.01876
v -0.06464 -0.01980 0.01251
v -0.03336 -0.04900 0.00417
v -0.05839 0.01562 0.00834
v 0.01458 -0.02397 0.01459
v -0.05422 -0.02397 0.00417
v -0.00836 0.02814 0.00208
v -0.03545 -0.04692 0.01043
v 0.00624 0.01771 0.02085
v -0.02919 -0.05109 0.00834
v -0.06047 -0.03441 0.00834
v 0.01668 0.02188 0.01251
v 0.01668 0.01354 0.01876
v -0.06673 -0.00729 0.01251
v 0.01041 0.01979 0.01876
v -0.06464 0.00728 0.01251
v -0.01670 0.03231 0.00208
v -0.03545 -0.05109 0.00626
v 0.01458 -0.00312 0.02085
v -0.00418 0.02814 0.00208
v 0.01668 0.01979 0.00626
v -0.00418 0.03857 0.00208
v -0.00836 0.00728 0.02085
v -0.00002 -0.00729 0.02085
v -0.05839 0.01562 0.01251
v -0.06256 -0.02397 0.01251
v 0.01668 -0.02814 0.01251
v -0.02295 -0.04900 0.00834
v -0.00836 0.05109 0.00417
v -0.02294 -0.01147 0.03545
v 0.01667 0.01772 0.03336
v 0.02293 0.01564 0.03545
v 0.00624 -0.00522 0.02085
v 0.02502 -0.00522 0.03336
v -0.02294 0.00729 0.03962
v 0.00207 0.01146 0.02085
v 0.02710 0.00729 0.02711
v -0.00208 -0.00104 0.03962
v -0.00835 0.01772 0.03545
v -0.02712 0.00312 0.03545
v -0.00001 -0.00313 0.02085
v 0.02084 -0.00730 0.02920
v -0.02294 -0.00730 0.03962
v 0.02710 0.01564 0.02920
v -0.00835 0.01772 0.03128
v 0.02710 -0.00313 0.02711
v 0.01041 0.00520 0.02085
v 0.02502 0.00104 0.03545
v 0.01458 0.01772 0.02920
v -0.02086 -0.01147 0.03753
v -0.00001 0.00520 0.03962
v 0.00207 0.01355 0.03753
v -0.02712 -0.00313 0.03545
v 0.02710 0.01564 0.03336
v -0.00001 0.00938 0.02085
v 0.02084 -0.00730 0.03336
v -0.02712 -0.00104 0.03962
v -0.01669 -0.00730 0.03962
v 0.00624 0.01146 0.02085
v 0.02710 -0.00104 0.03336
v 0.01667 -0.00522 0.03545
v 0.01458 0.00104 0.03753
v -0.00208 0.01772 0.02920
v -0.02503 -0.00939 0.03545
v 0.02502 0.01355 0.03545
v 0.01041 -0.00104 0.02085
v 0.00207 -0.00522 0.02085
v -0.02503 -0.00939 0.03753
v 0.00207 0.01772 0.03545
v 0.02502 0.01146 0.02711
v -0.02712 0.00312 0.03962
v -0.02294 0.00729 0.03545
v -0.02086 -0.01147 0.03545
v 0.01458 0.00729 0.03753
v -0.01043 0.01564 0.03128
v 0.03544 0.01564 0.02919
v 0.02710 -0.00105 0.02502
v 0.02710 -0.00105 0.03128
v 0.04378 -0.00105 0.02711
v 0.04170 0.00938 0.02085
v 0.02710 0.01355 0.02711
v 0.02919 0.01355 0.03336
v 0.04378 0.00729 0.02919
v 0.04378 -0.00105 0.02085
v 0.03128 0.01355 0.02294
v 0.03544 0.00104 0.02085
v 0.04378 0.00104 0.02919
v 0.02710 0.01564 0.03128
v 0.04378 0.00938 0.02294
v 0.03544 0.01564 0.02502
v 0.02710 0.00729 0.03336
v 0.03544 0.00938 0.02085
v 0.02919 0.00729 0.03336
v 0.03336 0.01564 0.03128
v 0.04378 0.00938 0.02711
v 0.03128 0.01564 0.02502
v 0.02919 -0.00105 0.03128
v 0.03753 -0.00105 0.02085
v 0.02710 -0.03232 0.00625
v 0.02293 -0.00939 0.01668
v 0.01668 -0.00939 0.01668
v 0.01668 -0.00939 0.00417
v 0.01668 -0.03232 0.01042
v 0.02710 -0.00939 0.00625
v 0.02085 -0.03232 -0.00000
v 0.02710 -0.03024 0.01042
v 0.02502 -0.02816 -0.00000
v 0.01668 -0.03232 0.00208
v 0.02710 -0.00939 0.01459
v 0.02502 -0.02816 0.01251
v 0.01668 -0.02190 0.01459
v 0.02085 -0.00939 0.00417
v 0.01876 -0.01356 0.01668
v 0.02085 -0.02816 -0.00000
v 0.02502 -0.03232 -0.00000
v 0.02710 -0.02399 0.00417
v 0.02293 -0.03232 0.01042
v 0.01668 -0.02399 0.00208
v 0.02293 -0.01148 0.01668
v 0.04379 0.01355 0.01876
v 0.01668 -0.00939 0.00417
v 0.02085 -0.00939 0.00417
v 0.02085 0.01772 0.00626
v 0.01668 -0.00730 0.01876
v 0.04379 -0.00730 0.01043
v 0.01668 0.01772 0.01668
v 0.04379 0.01146 0.00834
v 0.04170 -0.00313 0.02085
v 0.03336 0.00938 0.02085
v 0.01668 0.00938 0.00417
v 0.02711 -0.00939 0.01668
v 0.04379 0.01563 0.01043
v 0.01668 0.01981 0.01459
v 0.01668 0.01146 0.01876
v 0.04379 -0.00104 0.00834
v 0.01668 0.01981 0.00834
v 0.04379 0.00938 0.02085
v 0.04379 0.01563 0.01668
v 0.02085 0.00729 0.00417
v 0.04379 -0.00522 0.01668
v 0.03127 0.00104 0.02085
v 0.01668 -0.00939 0.01668
v 0.03753 0.01146 0.02085
v 0.02711 -0.00939 0.00626
v 0.01876 0.01981 0.00834
v 0.04379 -0.00104 0.02085
v 0.04170 0.01355 0.00834
v 0.01876 0.01981 0.01459
v 0.04379 -0.00730 0.01251
v 0.01668 0.01772 0.00626
v 0.02919 -0.00939 0.01043
v 0.02919 -0.00730 0.01876
f 92 88 121 
f 75 65 78 
f 72 68 80 
f 70 72 80 
f 80 68 81 
f 66 74 82 
f 76 66 82 
f 78 65 84 
f 79 69 84 
f 69 83 84 
f 83 78 84 
f 67 66 85 
f 66 76 85 
f 68 72 86 
f 75 78 87 
f 69 79 88 
f 73 75 90 
f 87 77 90 
f 81 68 91 
f 88 79 91 
f 83 69 92 
f 69 88 92 
f 80 81 93 
f 66 67 94 
f 67 85 94 
f 85 76 95 
f 71 82 96 
f 92 71 96 
f 83 92 96 
f 75 73 97 
f 93 75 97 
f 71 76 98 
f 82 71 98 
f 76 82 98 
f 71 86 99 
f 70 95 99 
f 89 73 100 
f 77 89 100 
f 73 90 100 
f 90 77 100 
f 84 65 101 
f 79 84 101 
f 80 73 102 
f 73 89 102 
f 89 77 103 
f 85 89 103 
f 94 85 103 
f 79 81 104 
f 91 79 104 
f 81 91 104 
f 93 81 105 
f 101 65 105 
f 74 66 106 
f 87 74 106 
f 66 94 106 
f 94 87 106 
f 81 79 107 
f 79 101 107 
f 105 81 107 
f 101 105 107 
f 74 78 108 
f 82 74 108 
f 96 82 108 
f 76 71 109 
f 95 76 109 
f 71 99 109 
f 99 95 109 
f 89 85 110 
f 85 95 110 
f 95 70 110 
f 70 102 110 
f 102 89 110 
f 65 75 111 
f 75 93 111 
f 105 65 111 
f 93 105 111 
f 72 70 112 
f 86 72 112 
f 70 99 112 
f 99 86 112 
f 68 88 113 
f 91 68 113 
f 88 91 113 
f 86 71 114 
f 68 86 114 
f 71 88 114 
f 88 68 114 
f 78 74 115 
f 74 87 115 
f 87 78 115 
f 75 87 116 
f 90 75 116 
f 87 90 116 
f 78 83 117 
f 83 96 117 
f 108 78 117 
f 96 108 117 
f 77 87 118 
f 87 94 118 
f 103 77 118 
f 94 103 118 
f 73 80 119 
f 80 93 119 
f 97 73 119 
f 93 97 119 
f 70 80 120 
f 102 70 120 
f 80 102 120 
f 88 71 121 
f 71 92 121 
