# Created by Open3D 
# object name: convex_1_coll
# number of vertices: 14
# number of triangles: 24
v -0.06173 0.05679 -0.02962
v 0.0172825 0.06297 0.0284
v 0.03952 0.05433 -0.01727
v 0.03952 -0.02469 -0.01481
v 0.03952 0.01667 0.0358075
v -0.0540113 -0.0447512 -0.00247
v -0.00742 -0.04691 -0.0148
v 0.030875 -0.02592 0.02716
v -0.01483 -0.04198 0.03457
v -0.0642 -0.02469 -0.0321
v -0.07162 -0.0148 0.03951
v 0.00988 0.02469 0.04939
v -0.069145 0.02962 0.040745
v -0.074705 0.04445 0.0135825
f 1 2 3
f 4 3 5
f 7 4 9
f 4 5 8
f 9 4 8
f 6 7 9
f 6 10 7
f 11 9 12
f 10 3 4
f 7 10 4
f 2 14 13
f 12 2 13
f 14 2 1
f 6 9 11
f 11 14 1
f 10 11 1
f 5 12 8
f 12 9 8
f 3 2 5
f 2 12 5
f 1 3 10
f 11 10 6
f 13 14 11
f 12 13 11
