# Created by Open3D 
# object name: convex_0_coll
# number of vertices: 14
# number of triangles: 24
v 0.00246 -0.06421 -0.04939
v 0.02098 -0.05927 -0.02716
v -0.04815 -0.04693 0.01358
v 0.00030125 -0.048165 -0.0163512
v -0.04938 -0.04693 -0.02221
v -0.02346 -0.04693 0.01605
v 0.02469 -0.05187 0.02222
v 0.02345 -0.05927 0.025925
v -0.04444 -0.0568 0.01235
v -0.03395 -0.05927 -0.044445
v -0.02222 -0.06421 -0.034565
v -0.02469 -0.05927 0.02964
v -0.0006275 -0.058035 -0.04939
v -0.0537175 -0.0494 -0.01235
f 3 4 5
f 4 3 6
f 11 9 10
f 11 12 9
f 2 4 7
f 12 7 6
f 12 11 1
f 4 2 13
f 5 10 14
f 10 9 14
f 3 5 14
f 10 5 13
f 1 10 13
f 13 5 4
f 1 11 10
f 12 6 3
f 8 2 7
f 6 7 4
f 13 2 1
f 7 12 8
f 12 1 8
f 12 3 9
f 14 9 3
f 8 1 2
