# Created by Open3D 
# object name: convex_2_coll
# number of vertices: 14
# number of triangles: 24
v 0.06915 0.00989 0.02963
v 0.0713113 0.0558662 0.01358
v 0.03952 -0.02963 -0.011105
v 0.03952 0.02715 0.03457
v 0.03952 0.05432 -0.01728
v 0.03952 -0.028395 0.013585
v 0.03952 0.04938 0.01482
v 0.07409 0.04938 -0.02715
v 0.07409 -0.02222 -0.02963
v 0.06545 -0.033335 -0.0228325
v 0.07656 -0.02469 0.011115
v 0.06668 0.05679 -0.027155
v 0.0685325 -0.0302475 0.0135775
v 0.06174 -0.02222 -0.03457
f 3 4 5
f 4 3 6
f 5 4 7
f 10 9 11
f 8 9 12
f 6 3 13
f 5 7 12
f 11 13 10
f 12 14 5
f 2 7 4
f 12 2 8
f 10 14 9
f 1 11 2
f 11 8 2
f 11 9 8
f 9 14 12
f 13 11 1
f 3 5 14
f 12 7 2
f 3 10 13
f 13 4 6
f 4 13 1
f 3 14 10
f 4 1 2
