# Created by Open3D 
# object name: convex_2_coll
# number of vertices: 14
# number of triangles: 24
v 0.0020725 0.01042 0.02085
v -0.02712 0.00312 0.03545
v -0.00835 0.01772 0.033365
v 0.0020725 -0.004175 0.02085
v -0.001045 0.00208 0.03962
v -0.02294 0.00729 0.03962
v -0.019815 -0.0073 0.03962
v 0.0271 0.01564 0.0292
v 0.02084 -0.0073 0.03336
v 0.0271 -0.00313 0.02711
v 0.02554 -0.001045 0.034405
v 0.01041 0.00208 0.02085
v 0.0255375 0.0151175 0.034405
v -0.02294 -0.01147 0.03545
f 1 2 3
f 5 6 7
f 9 4 10
f 11 9 10
f 4 1 12
f 8 10 12
f 5 13 6
f 10 8 13
f 4 2 1
f 7 6 2
f 14 9 7
f 10 13 11
f 5 7 9
f 5 9 11
f 8 1 3
f 2 4 14
f 10 4 12
f 7 2 14
f 13 8 3
f 6 13 3
f 12 1 8
f 6 3 2
f 4 9 14
f 5 11 13
