# Created by Open3D 
# object name: convex_4_coll
# number of vertices: 14
# number of triangles: 24
v 0.01772 -0.01773 0.015635
v 0.02502 -0.02816 0.01251
v 0.02293 -0.00939 0.01668
v 0.01668 -0.00939 0.01668
v 0.01668 -0.00939 0.00417
v 0.01668 -0.03232 0.01042
v 0.0271 -0.00939 0.00625
v 0.0271 -0.03232 0.00625
v 0.02502 -0.03232 -0
v 0.0271 -0.03024 0.01042
v 0.01668 -0.03232 0.00208
v 0.0271 -0.00939 0.01459
v 0.02502 -0.02816 -0
v 0.02085 -0.02816 -0
f 1 2 3
f 4 3 5
f 4 5 6
f 5 3 7
f 8 6 9
f 8 7 10
f 6 5 11
f 9 6 11
f 7 3 12
f 10 7 12
f 10 12 2
f 6 2 1
f 4 6 1
f 7 13 5
f 3 4 1
f 5 13 14
f 13 9 14
f 9 11 14
f 9 13 8
f 13 7 8
f 6 8 10
f 2 6 10
f 5 14 11
f 2 12 3
