# Created by Open3D 
# object name: convex_0_coll
# number of vertices: 14
# number of triangles: 24
v 0.063595 -0.0005225 0.0317925
v 0.065685 0.01771 0.028145
v 0.04379 0.01563 0.013545
v 0.04379 0.003115 0.03127
v 0.060465 0.04483 0.00207
v 0.0563 0.04483 -0.02919
v 0.06464 -0.01772 0.0198
v 0.06673 0.0187575 -0.0109425
v 0.0521325 -0.0427425 -0.011995
v 0.0589025 -0.0390925 -0.031275
v 0.05838 -0.04691 0.00416
v 0.04796 0.009375 -0.03127
v 0.05213 -0.0344 -0.03545
v 0.06255 0.02814 -0.03545
f 6 3 5
f 3 4 5
f 4 3 9
f 5 4 2
f 9 3 13
f 7 8 2
f 1 7 2
f 6 12 3
f 10 8 7
f 11 10 7
f 10 14 8
f 4 9 11
f 8 6 5
f 9 10 11
f 4 11 1
f 11 7 1
f 8 14 6
f 10 13 14
f 1 2 4
f 13 10 9
f 3 12 13
f 14 13 6
f 13 12 6
f 8 5 2
