# Created by Open3D 
# object name: convex_3_coll
# number of vertices: 14
# number of triangles: 24
v 0.0271 -0.00105 0.02502
v 0.036485 -4.99998e-06 0.02085
v 0.0271 -0.00105 0.03128
v 0.04378 -0.00105 0.02711
v 0.0271 0.01355 0.02711
v 0.04378 -0.00105 0.02085
v 0.04378 0.00729 0.02919
v 0.03128 0.01355 0.02294
v 0.04274 0.00938 0.021895
v 0.028145 0.01042 0.03336
v 0.04378 0.00104 0.02919
v 0.0271 0.01564 0.03128
v 0.03544 0.01564 0.02502
v 0.0344 0.01564 0.030235
f 3 1 4
f 1 3 5
f 4 1 6
f 7 4 6
f 1 5 8
f 9 6 2
f 7 10 11
f 4 7 11
f 5 3 12
f 7 6 9
f 9 8 13
f 12 14 13
f 14 9 13
f 12 3 10
f 9 2 8
f 2 1 8
f 10 7 14
f 12 10 14
f 9 14 7
f 5 12 8
f 12 13 8
f 4 11 3
f 11 10 3
f 6 1 2
