# Created by Open3D 
# object name: convex_1_coll
# number of vertices: 14
# number of triangles: 24
v -0.02087 0.05109 0.00834
v -0.00627 0.05109 0.006255
v 0.01041 -0.00729 0.02085
v 0.0051975 0.01823 0.0203275
v 0.01668 -0.03231 0.00417
v 0.01668 0.01354 0.00417
v -0.02295 -0.049 0.00417
v 0.01668 0.0213575 0.009905
v -0.06673 0.00311 0.00834
v -0.060475 0.01145 0.01251
v -0.057345 -0.030755 0.005735
v -0.0167 0.03857 0.00208
v -0.03232 -0.05109 0.00834
v -0.061515 -0.02397 0.01251
f 5 6 8
f 2 1 4
f 1 10 4
f 6 5 12
f 4 14 3
f 5 8 3
f 9 11 14
f 1 12 9
f 10 1 9
f 9 12 11
f 3 14 13
f 13 14 11
f 4 3 8
f 9 14 10
f 14 4 10
f 8 2 4
f 7 11 12
f 11 7 13
f 5 7 12
f 6 2 8
f 2 6 12
f 3 13 5
f 7 5 13
f 12 1 2
