# Created by Open3D 
# object name: convex_5_coll
# number of vertices: 14
# number of triangles: 24
v 0.02711 -0.00939 0.01668
v 0.042745 -0.002085 0.02085
v 0.01668 -0.00939 0.00417
v 0.01668 -0.0073 0.01876
v 0.01668 0.01981 0.01459
v 0.04379 0.01563 0.01668
v 0.04379 -0.0073 0.01147
v 0.04379 0.01146 0.00834
v 0.01668 0.00938 0.00417
v 0.04379 0.01563 0.01043
v 0.01668 0.01146 0.01876
v 0.04379 -0.00104 0.00834
v 0.01772 0.0192875 0.00782
v 0.04379 0.00938 0.02085
f 3 4 5
f 6 7 8
f 3 5 9
f 6 8 10
f 5 4 11
f 7 3 12
f 3 8 12
f 8 7 12
f 9 5 13
f 7 6 14
f 8 3 9
f 2 1 7
f 2 14 4
f 14 11 4
f 3 1 4
f 6 5 14
f 5 11 14
f 6 10 13
f 7 14 2
f 13 10 8
f 9 13 8
f 6 13 5
f 7 1 3
f 2 4 1
