# Created by Open3D 
# object name: convex_0_coll
# number of vertices: 14
# number of triangles: 24
v 0.05919 -0.03739 -0.03427
v 0.05192 -0.0399825 -0.0316725
v 0.06646 0.00102 0.02802
v 0.06646 0.021795 -0.0103875
v 0.060225 0.04464 -0.00105
v 0.05608 0.04464 -0.03011
v 0.04569 0.01142 0.0301
v 0.04829 0.01037 -0.03375
v 0.04777 -0.03635 -0.006235
v 0.05348 -0.0436225 0.00518
v 0.0623 -0.0405 -5.00004e-06
v 0.0628225 0.016605 0.0301075
v 0.0576325 -0.03219 0.01712
v 0.0597075 0.0233563 -0.0381613
f 6 8 7
f 7 8 9
f 7 9 10
f 10 2 1
f 4 11 1
f 2 9 8
f 4 5 12
f 3 4 12
f 14 1 8
f 5 6 7
f 9 2 10
f 12 7 3
f 1 11 10
f 11 13 10
f 5 7 12
f 11 3 13
f 8 6 14
f 3 7 13
f 4 1 14
f 1 2 8
f 4 14 6
f 5 4 6
f 13 7 10
f 11 4 3
