# Created by Open3D 
# object name: convex_5_coll
# number of vertices: 14
# number of triangles: 24
v 0.01662 0.01765 0.00519
v 0.04569 0.01349 0.00934
v 0.04361 0.00726 0.00727
v 0.04569 -0.00519 0.01973
v 0.04569 0.01349 0.01973
v 0.04569 -0.00935 0.00934
v 0.01662 -0.00935 0.01765
v 0.01662 0.01973 0.01557
v 0.01662 -0.00935 0.00519
v 0.01869 0.01973 0.00727
v 0.03945 0.01765 0.013495
v 0.031155 0.011415 0.01973
v 0.017655 -0.00727 0.00311
v 0.017655 0.00934 0.00311
f 1 2 3
f 4 2 5
f 2 4 6
f 1 7 8
f 6 7 9
f 7 1 9
f 2 6 3
f 10 8 11
f 4 5 12
f 5 8 12
f 9 1 13
f 8 7 12
f 7 4 12
f 1 8 10
f 11 2 10
f 8 5 11
f 4 7 6
f 10 2 1
f 3 6 13
f 3 13 14
f 13 6 9
f 13 1 14
f 11 5 2
f 14 1 3
