# Created by Open3D 
# object name: convex_3_coll
# number of vertices: 14
# number of triangles: 24
v 0.0166 -0.01558 0.02803
v 0.04569 -0.00104 0.02907
v 0.04569 0.00934 0.02803
v -0.0072625 0.0083 0.02803
v 0.03322 0.01765 0.02803
v 0.008305 0.01972 0.03011
v -0.00623 0.01557 0.03634
v 0.02491 0.00104 0.03842
v -0.00467 0.001035 0.0405
v -0.02701 0.00311 0.03426
v -0.024925 0.0036275 0.03842
v -0.0083 0.01765 0.032185
v -0.02336 -0.01091 0.0353
v 0.02387 0.00622 0.03842
f 3 1 4
f 1 3 2
f 3 4 5
f 3 8 2
f 12 4 10
f 11 10 13
f 5 4 6
f 4 12 6
f 1 13 4
f 7 6 12
f 11 7 12
f 5 6 14
f 3 5 14
f 9 11 13
f 13 10 4
f 9 8 14
f 8 3 14
f 8 9 13
f 7 11 9
f 1 8 13
f 11 12 10
f 6 7 14
f 9 14 7
f 2 8 1
