# Created by Open3D 
# object name: convex_1_coll
# number of vertices: 14
# number of triangles: 24
v 0.0005025 0.014525 0.0192025
v 0.01661 0.02075 0.01453
v 0.01661 -0.03219 0.00311
v 0.01661 0.01608 0.0046675
v 0.01661 -0.028035 0.012455
v 0.01037 -0.00934 0.01972
v -0.013515 0.0503575 0.0062225
v -0.01663 0.03841 0.00103
v -0.061265 0.01037 0.01142
v -0.06022 -0.03427 0.00519
v -0.06646 -0.00208 0.00726
v -0.0321875 -0.04984 0.00804125
v -0.02286 -0.0488 0.00311
v -0.06438 -0.01972 0.01142
f 3 4 5
f 5 4 2
f 3 8 4
f 7 9 1
f 4 8 7
f 8 11 7
f 11 9 7
f 8 10 11
f 3 13 8
f 14 12 6
f 1 9 6
f 12 14 10
f 4 7 2
f 10 8 13
f 9 11 14
f 6 9 14
f 5 6 12
f 5 2 6
f 6 2 1
f 13 3 12
f 3 5 12
f 10 14 11
f 12 10 13
f 7 1 2
