# Created by Open3D 
# object name: convex_2_coll
# number of vertices: 14
# number of triangles: 24
v 0.00104 0.006225 0.01973
v 0.03218 0.01661 0.02284
v 0.04569 0.01142 0.01973
v 0.03322 0.01765 0.02803
v 0.04569 0.01142 0.02803
v 0.01662 -0.00728 0.02803
v 0.04569 -0.00312 0.01973
v 0 -0.00312 0.02803
v 0.04569 -0.00208 0.026995
v 0 -0.0052 0.01973
v 0.00416 0.01765 0.026995
v 0.00416 -0.00728 0.02803
v 0.00831 -0.00728 0.01973
v -0.00208 0.01349 0.026995
f 1 2 3
f 4 5 3
f 5 4 6
f 3 5 7
f 3 7 1
f 6 4 8
f 5 6 9
f 7 5 9
f 1 7 10
f 8 4 11
f 4 2 11
f 6 8 12
f 6 12 13
f 12 10 13
f 10 7 13
f 6 7 9
f 1 14 11
f 2 1 11
f 10 8 14
f 10 12 8
f 10 14 1
f 4 3 2
f 8 11 14
f 13 7 6
