# Created by Open3D 
# object name: convex_4_coll
# number of vertices: 14
# number of triangles: 24
v 0.01661 -0.03012 0.01141
v 0.020765 -0.03428 0.00415
v 0.02596 -0.0301225 0.010375
v 0.01661 -0.00935 0.01765
v 0.02907 -0.00935 0.01765
v 0.01661 -0.00935 0.00519
v 0.02907 -0.00935 0.00934
v 0.02492 -0.02805 -0.00105
v 0.027 -0.03012 0.00311
v 0.01661 -0.0322 0.00311
v 0.027 -0.01558 0.01765
v 0.02492 -0.00935 0.00519
v 0.02388 -0.0322 -0.00105
v 0.01765 -0.022855 0.00207
f 1 2 3
f 4 5 6
f 6 5 7
f 4 6 1
f 8 7 9
f 1 6 10
f 5 4 11
f 1 3 11
f 8 6 12
f 6 7 12
f 7 8 12
f 3 9 5
f 9 3 2
f 13 10 14
f 5 9 7
f 8 9 13
f 9 2 13
f 10 2 1
f 4 1 11
f 13 14 8
f 10 6 14
f 6 8 14
f 10 13 2
f 5 11 3
