# Created by Open3D 
# object name: convex_30_coll
# number of vertices: 14
# number of triangles: 24
v -0.0038 -0.0329 -0.0443
v 0.00885 0.00633 -0.04683
v -0.04935 -0.03037 -0.03418
v 0.00632 -0.0329 -0.04177
v 0.00632 -0.0329 -0.02659
v -0.05188 0.03544 -0.02659
v 0.02405 0.03544 -0.02912
v -0.05188 0.03544 -0.03418
v 0.02405 0.03544 -0.0367
v 0.02405 0 -0.03924
v 0.01391 -0.00505 -0.02152
v -0.00128 -0.0253 -0.02152
v -0.006335 0.02151 -0.04683
v -0.046825 -0.03037 -0.02659
f 3 4 5
f 6 7 8
f 8 7 9
f 9 7 10
f 8 13 3
f 6 8 3
f 12 11 6
f 10 4 2
f 13 2 1
f 3 5 14
f 13 9 2
f 4 3 1
f 7 11 10
f 11 5 10
f 11 7 6
f 10 2 9
f 13 8 9
f 5 4 10
f 6 3 14
f 14 12 6
f 1 3 13
f 11 12 5
f 12 14 5
f 4 1 2
