# Created by Open3D 
# object name: convex_8_coll
# number of vertices: 14
# number of triangles: 24
v -0.0101225 -0.08101 0.034805
v -0.0443 -0.07848 0.036705
v -0.04683 -0.07848 0.01646
v 0.04936 -0.06835 0.01646
v 0.04936 -0.07848 0.01646
v -0.0519 -0.06582 0.01899
v 0.04936 -0.07848 0.03165
v 0.00885 -0.07341 0.05443
v -0.04683 -0.07089 0.0367
v -0.01645 -0.08101 0.02152
v -0.04429 -0.06582 0.01646
v 0.04683 -0.06835 0.03418
v 0.01392 -0.07848 0.05443
v 0.048095 -0.07089 0.03544
f 3 4 5
f 5 4 7
f 8 6 9
f 5 10 3
f 4 3 11
f 3 6 11
f 12 4 11
f 6 3 9
f 13 2 1
f 10 5 1
f 5 7 1
f 4 12 14
f 7 4 14
f 9 3 2
f 8 13 14
f 13 8 9
f 2 13 9
f 13 1 7
f 14 13 7
f 11 6 12
f 6 8 12
f 8 14 12
f 3 10 1
f 2 3 1
