# Created by Open3D 
# object name: convex_14_coll
# number of vertices: 14
# number of triangles: 24
v -0.06202 -0.04557 -0.04176
v -0.04178 -0.0443 -0.04176
v -0.02405 -0.03291 -0.00633
v -0.02405 -0.04557 -0.00633
v -0.02405 -0.04557 -0.03417
v -0.06961 -0.04557 0.00127
v -0.07215 -0.03291 0.00127
v -0.06455 -0.03291 -0.04176
v -0.03418 -0.03291 -0.03417
v -0.068345 -0.0443 -0.03291
v -0.06961 -0.03291 -0.03417
v -0.05695 -0.04303 0.00127
v -0.02405 -0.0405 -0.03417
v -0.05949 -0.03291 0.00127
f 3 4 5
f 4 6 5
f 7 3 8
f 8 3 9
f 5 6 1
f 7 8 11
f 8 9 2
f 1 8 2
f 4 3 12
f 6 4 12
f 7 6 12
f 1 6 10
f 3 5 13
f 5 2 13
f 2 9 13
f 10 6 7
f 3 7 14
f 12 3 14
f 7 12 14
f 13 9 3
f 1 10 8
f 10 11 8
f 10 7 11
f 5 1 2
