# Created by Open3D 
# object name: convex_17_coll
# number of vertices: 14
# number of triangles: 24
v -0.05696 -0.04557 0.01392
v -0.03165 -0.02025 0.01645
v -0.03418 -1e-05 0.01645
v -0.05696 -0.04557 0.00633
v -0.02405 -0.04557 0.00633
v -0.05696 0.03544 0.00886
v -0.02405 0.01772 0.01645
v -0.02405 0.02784 0.00886
v -0.02405 -0.04557 0.01392
v -0.05696 0.03544 0.01392
v -0.02658 0.03544 0.01392
v -0.05443 -0.02532 0.00633
v -0.02912 0.03544 0.00886
v -0.02405 -0.02785 0.01645
f 1 2 3
f 4 5 1
f 6 4 1
f 7 5 8
f 5 7 9
f 1 5 9
f 6 1 10
f 7 8 11
f 10 7 11
f 6 10 11
f 5 4 12
f 4 6 12
f 8 5 13
f 11 8 13
f 6 11 13
f 5 12 13
f 12 6 13
f 9 7 14
f 1 9 14
f 7 2 14
f 2 1 14
f 7 10 3
f 10 1 3
f 2 7 3
