# Created by Open3D 
# object name: convex_28_coll
# number of vertices: 14
# number of triangles: 24
v 0.01645 -0.04557 -0.01139
v 0.00633 -0.03291 -0.01645
v 0.00886 -0.03291 -0.01392
v -0.02405 -0.0405 -0.01899
v -0.02405 -0.04557 -0.01899
v -0.02405 -0.03291 -0.00633
v 0.00886 -0.03291 -0.0038
v -0.01645 -0.04557 -0.0038
v 0.00633 -0.04557 -0.01645
v -0.02405 -0.03291 -0.01645
v 0.01645 -0.04303 -0.00633
v 0.00886 -0.04557 -0.0038
v -0.02405 -0.04557 -0.00633
v -0.01392 -0.03291 -0.0038
f 1 2 3
f 4 5 6
f 5 4 2
f 2 6 7
f 8 5 9
f 5 2 9
f 4 6 10
f 2 4 10
f 6 2 10
f 11 7 12
f 7 8 12
f 8 9 12
f 5 8 13
f 8 6 13
f 6 5 13
f 9 2 1
f 11 12 1
f 12 9 1
f 6 8 14
f 7 6 14
f 8 7 14
f 2 7 3
f 7 11 3
f 11 1 3
