# Created by Open3D 
# object name: convex_13_coll
# number of vertices: 14
# number of triangles: 24
v 0.00381 0.03544 -0.00633
v 0.04936 0.03544 -0.01646
v 0.04936 0.07088 -0.0038
v 0.03416 0.07595 -0.0038
v -0.03924 0.07341 -0.0038
v -0.03924 0.03544 -0.00886
v -0.03924 0.069615 -0.030375
v 0.04936 0.03544 -0.03417
v 0.04936 0.05063 -0.0038
v -0.03924 0.03544 -0.03417
v 0.001265 0.07595 -0.027845
v -0.00759 0.06835 -0.03924
v -0.012015 0.04557 -0.04177
v 0.029105 0.069615 -0.03417
f 3 4 5
f 6 5 7
f 8 3 9
f 3 5 9
f 8 6 10
f 6 7 10
f 6 8 2
f 8 9 2
f 6 2 1
f 6 1 5
f 4 11 5
f 7 12 13
f 7 11 12
f 8 10 13
f 7 13 10
f 1 9 5
f 5 11 7
f 8 13 12
f 14 8 12
f 14 3 8
f 3 14 4
f 14 11 4
f 14 12 11
f 9 1 2
