# Created by Open3D 
# object name: convex_3_coll
# number of vertices: 14
# number of triangles: 24
v 0.07468 0.0272125 0.0101275
v 0.06455 0.06075 -0.00631
v 0.06708 -0.01518 -0.03669
v 0.05696 -0.01772 0.03163
v 0.0740475 -0.01772 0.018985
v 0.04936 -0.01518 -0.03669
v 0.04936 0.06834 0.01644
v 0.04936 0.04556 -0.03416
v 0.073415 1e-05 0.05948
v 0.06708 0.01014 -0.03669
v 0.05949 0.04809 -0.03163
v 0.06961 0.00381 0.06456
v 0.0651825 0.0575825 0.0196175
v 0.07215 0.03796 0.04429
f 4 3 5
f 6 7 8
f 5 1 9
f 8 11 10
f 6 4 7
f 3 6 10
f 2 13 1
f 3 4 6
f 7 12 14
f 5 9 4
f 9 14 12
f 7 4 12
f 4 9 12
f 10 1 5
f 3 10 5
f 1 10 11
f 2 1 11
f 9 1 14
f 10 6 8
f 2 11 8
f 13 2 7
f 2 8 7
f 14 1 13
f 7 14 13
