# Created by Open3D 
# object name: convex_23_coll
# number of vertices: 14
# number of triangles: 24
v 0.04936 0.05316 -0.0038
v 0.046825 0.064555 0.02785
v -0.03924 0.06076 -0.0038
v 0.03416 0.07594 -0.0038
v -0.03924 0.05316 0.00634
v -0.03924 0.07847 0.0443
v -0.03924 0.0557 0.03923
v -0.034175 0.074675 -0.0038
v 0.04936 0.07088 -0.0038
v 0.02657 0.07847 0.05443
v -0.00632 0.074675 0.05443
v 0.03164 0.07088 0.05443
v 0.03416 0.0557 0.03417
v 0.00633 0.08101 0.04556
f 1 3 4
f 3 5 6
f 6 5 7
f 4 3 8
f 1 4 9
f 10 11 12
f 1 9 2
f 11 10 14
f 6 11 14
f 1 5 3
f 3 6 8
f 10 9 4
f 13 7 1
f 10 4 14
f 8 6 14
f 4 8 14
f 12 2 10
f 1 7 5
f 10 2 9
f 12 11 7
f 13 12 7
f 11 6 7
f 12 13 2
f 13 1 2
