# Created by Open3D 
# object name: convex_4_coll
# number of vertices: 14
# number of triangles: 24
v 0.022775 0.002525 -0.0753125
v -0.0031575 0.024035 -0.075945
v -0.02657 -0.03544 -0.06203
v -0.02657 0.05316 -0.05949
v -0.02657 0.02278 -0.07468
v 0.02151 -0.03544 -0.05949
v 0.0291 -0.03544 -0.06962
v -0.00885 0.05316 -0.05949
v 4.99981e-06 -0.03544 -0.07468
v 0.04809 0.006325 -0.06962
v 0.04936 -0.00126 -0.06203
v -0.022775 -0.013915 -0.075945
v -0.00885 0.051895 -0.068355
v 0.0291 0.03038 -0.06962
f 3 4 5
f 6 3 7
f 4 6 8
f 7 3 9
f 6 4 3
f 9 12 1
f 12 2 1
f 3 5 12
f 6 11 8
f 4 8 13
f 8 14 13
f 1 2 14
f 3 12 9
f 8 11 14
f 11 10 14
f 12 5 2
f 5 4 2
f 4 13 2
f 10 6 7
f 1 14 10
f 6 10 11
f 9 1 7
f 1 10 7
f 14 2 13
