# Created by Open3D 
# object name: convex_16_coll
# number of vertices: 14
# number of triangles: 24
v -0.07468 0.00254 0.00127
v -0.06962 -0.04557 0.00127
v -0.07215 0.03544 0.03923
v -0.06456 0.03544 0.03923
v -0.05696 0.03544 0.01013
v -0.07215 0.03544 0.00127
v -0.058225 -0.04557 0.002535
v -0.05696 -0.04557 0.01393
v -0.06203 0.03544 0.00127
v -0.07468 -0.02532 0.03923
v -0.07468 0.01519 0.03923
v -0.070885 -0.0443 0.015195
v -0.06708 -0.027845 0.0405
v -0.07215 -0.03544 0.0367
f 5 6 4
f 7 5 8
f 5 4 8
f 2 7 8
f 6 5 9
f 2 6 9
f 10 3 11
f 1 10 11
f 4 6 3
f 6 2 1
f 2 8 12
f 4 3 13
f 8 4 13
f 2 9 7
f 14 10 12
f 11 3 6
f 1 11 6
f 13 3 10
f 14 13 10
f 13 14 8
f 14 12 8
f 9 5 7
f 1 2 10
f 2 12 10
