# Created by Open3D 
# object name: convex_10_coll
# number of vertices: 14
# number of triangles: 24
v 0.02784 0.011395 0.05443
v -0.01646 0.00507 0.05443
v 0.022775 -0.00253 0.05443
v -0.011385 -0.01012 0.05443
v 0.02657 -0.01012 0.07721
v -0.038605 -0.01012 0.070245
v 0.035435 -0.01012 0.068345
v 0.002525 0.04303 0.07468
v 0.002525 0.04303 0.06961
v 0.02911 0.01266 0.07721
v -0.02626 0.0126575 0.0756275
v 0.038605 -0.0006275 0.072145
v 0.032265 0.01898 0.070245
v -0.036705 0.005065 0.06708
f 3 2 1
f 2 3 4
f 5 6 4
f 5 4 7
f 5 10 11
f 7 12 5
f 9 8 13
f 1 9 13
f 11 10 8
f 10 5 12
f 2 6 14
f 8 9 14
f 11 8 14
f 9 2 14
f 7 1 12
f 14 6 11
f 8 10 13
f 10 12 13
f 4 6 2
f 5 11 6
f 3 7 4
f 1 7 3
f 13 12 1
f 2 9 1
