# Created by Open3D 
# object name: convex_0_coll
# number of vertices: 14
# number of triangles: 24
v -0.01645 -0.03544 -0.07215
v 0.01644 -0.03544 -0.07215
v -0.05189 -0.03544 -0.06202
v 0.02404 -0.03544 -0.05949
v -0.02657 -0.07595 -0.04683
v 0.03418 -0.06582 -0.04683
v -0.04683 -0.05822 -0.04683
v -0.04682 -0.06835 -0.0481
v 0.03164 -0.07468 -0.048735
v -0.0452388 -0.0642375 -0.0613875
v 0.02657 -0.06582 -0.06455
v -0.001265 -0.07341 -0.06202
v -0.012655 -0.06582 -0.068345
v 0.027835 -0.03671 -0.068345
f 3 4 1
f 5 6 7
f 3 7 4
f 7 3 8
f 5 7 8
f 6 5 9
f 8 3 10
f 1 4 2
f 11 12 13
f 12 10 13
f 9 11 14
f 2 14 11
f 12 9 5
f 10 12 5
f 10 5 8
f 12 11 9
f 13 2 11
f 1 13 10
f 3 1 10
f 2 4 14
f 4 6 14
f 6 9 14
f 6 4 7
f 13 1 2
