# Created by Open3D 
# object name: convex_35_coll
# number of vertices: 14
# number of triangles: 24
v -0.04177 0.0481 -0.0114
v -0.05443 0.05063 -0.02658
v -0.04936 0.03797 -0.0114
v -0.0519 0.03544 -0.03418
v -0.03924 0.03544 -0.03418
v -0.0443 0.03544 -0.00886
v -0.03924 0.0481 -0.0114
v -0.03924 0.05063 -0.03418
v -0.04936 0.03544 -0.0114
v -0.03924 0.03544 -0.00886
v -0.05443 0.0481 -0.03418
v -0.04936 0.05316 -0.02911
v -0.05443 0.03544 -0.02658
v -0.04177 0.05316 -0.03164
f 1 2 3
f 4 5 6
f 7 5 8
f 5 4 8
f 4 6 9
f 6 5 10
f 7 6 10
f 5 7 10
f 8 4 11
f 2 12 11
f 2 11 13
f 9 2 13
f 4 9 13
f 11 4 13
f 7 12 1
f 6 7 1
f 12 2 1
f 12 7 14
f 7 8 14
f 8 11 14
f 11 12 14
f 2 9 3
f 9 6 3
f 6 1 3
