# Created by Open3D 
# object name: convex_24_coll
# number of vertices: 14
# number of triangles: 24
v -0.02405 -0.04557 -0.03165
v -0.02405 -0.0405 -0.032915
v -0.00126 -0.04557 -0.04683
v 9.99996e-06 -0.03291 -0.0443
v 0.04176 -0.04557 -0.03924
v 0.04936 -0.0443 -0.02405
v -0.00632 -0.03291 -0.02659
v -0.00379 -0.04557 -0.02659
v 0.0114 -0.03291 -0.035445
v 0.02911 -0.04303 -0.0443
v 0.04176 -0.0405 -0.03671
v -0.015185 -0.03291 -0.035445
v 0.01391 -0.04557 -0.04683
v -0.01898 -0.04303 -0.03924
f 6 7 8
f 7 1 8
f 3 5 8
f 4 7 9
f 5 10 11
f 8 5 6
f 7 4 12
f 3 8 1
f 9 11 4
f 11 10 4
f 5 3 13
f 10 5 13
f 5 11 6
f 7 6 9
f 6 11 9
f 4 3 14
f 1 2 14
f 3 1 14
f 12 4 14
f 2 12 14
f 3 4 13
f 4 10 13
f 1 7 2
f 7 12 2
