# Created by Open3D 
# object name: convex_33_coll
# number of vertices: 14
# number of triangles: 24
v 0.03924 0.00253 0.01899
v 0.0443 -0.01012 0.01899
v 0.0443 -0.00506 0.01645
v 0.02405 -0.01012 0.01139
v 0.03418 -0.01266 0.01899
v 0.02405 -0 0.02152
v 0.02405 0.00253 0.01139
v 0.0443 -0.01012 0.01645
v 0.02405 -0.01012 0.01899
v 0.03671 -0 0.01392
v 0.03418 0.00759 0.01645
v 0.02912 0.00759 0.01899
v 0.03671 -0.00253 0.02152
v 0.02658 -0.00759 0.02152
f 1 2 3
f 4 6 7
f 5 4 8
f 4 5 9
f 6 4 9
f 4 7 10
f 8 4 10
f 7 11 10
f 7 6 12
f 1 11 12
f 11 7 12
f 5 8 2
f 13 5 2
f 12 6 13
f 1 12 13
f 2 1 13
f 13 6 14
f 5 13 14
f 9 5 14
f 6 9 14
f 11 1 3
f 8 10 3
f 10 11 3
f 2 8 3
