# Created by Open3D 
# object name: convex_26_coll
# number of vertices: 14
# number of triangles: 24
v -0.01392 0.01012 0.00127
v 0.00886 -0.01264 0.00127
v -0.02405 -0.04557 0.00633
v -0.02405 -0.04557 0.01392
v -0.02405 0.02532 0.01139
v 0.01392 -0.02025 0.02658
v 0.00632 0.02278 0.02658
v -0.00506 -0.01645 0.02658
v -0.02405 -0.00379 0.01898
v 0.017715 0.021515 0.02658
v 0.00379 0.03544 0.00633
v 0.01645 -0.03544 0.00886
v 0.0234175 2.50002e-06 0.00886
v 0.02405 -0.01011 0.020245
f 3 4 5
f 6 7 8
f 5 4 9
f 7 6 10
f 12 2 13
f 10 6 14
f 9 8 7
f 5 7 11
f 4 8 9
f 1 11 2
f 14 13 10
f 11 10 13
f 2 11 13
f 9 7 5
f 11 7 10
f 4 6 8
f 6 4 12
f 14 6 12
f 1 5 11
f 3 5 1
f 2 12 3
f 12 4 3
f 14 12 13
f 3 1 2
