# Created by Open3D 
# object name: convex_1_coll
# number of vertices: 14
# number of triangles: 24
v -0.027845 0.05063 -0.068345
v -0.04936 0.04302 -0.06455
v -0.02658 0.05316 -0.05949
v -0.02658 -0.03544 -0.06202
v -0.02658 -0.01771 -0.07468
v -0.0623387 -0.01455 -0.04684
v -0.06709 0.02278 -0.04684
v -0.06455 -0.01517 -0.06202
v -0.06962 0.00506 -0.048105
v -0.0519 -0.03544 -0.06455
v -0.05696 -0.00506 -0.068345
v -0.062655 0.0177125 -0.0639175
v -0.02658 0.02025 -0.07468
v -0.03925 0.05063 -0.05949
f 3 4 5
f 3 5 1
f 11 12 13
f 3 14 7
f 6 4 3
f 14 3 1
f 9 8 6
f 8 10 6
f 8 12 11
f 5 11 13
f 6 10 4
f 13 12 2
f 1 13 2
f 8 11 10
f 1 5 13
f 2 12 7
f 6 7 9
f 10 5 4
f 2 7 14
f 8 9 12
f 9 7 12
f 3 7 6
f 5 10 11
f 2 14 1
