# Created by Open3D 
# object name: convex_2_coll
# number of vertices: 14
# number of triangles: 24
v 0.05443 -0.01772 0.03163
v 0.0519 -0.01772 -0.0367
v 0.073415 -0.01772 -0.002535
v 0.05063 -0.07594 0.03163
v 0.04936 -0.03545 0.02657
v 0.04936 -0.07341 -0.01391
v 0.073415 -0.01772 0.031635
v 0.06455 -0.0227875 -0.03606
v 0.06961 -0.04051 0.03671
v 0.06455 -0.06834 0.01392
v 0.06455 -0.0481 -0.03163
v 0.05696 -0.0481 -0.03416
v 0.0711975 -0.0458837 -0.00758625
v 0.063285 -0.06834 -0.005055
f 1 3 2
f 4 5 6
f 3 1 7
f 2 3 8
f 11 6 12
f 5 2 6
f 7 13 3
f 7 1 9
f 10 4 14
f 11 12 8
f 5 4 1
f 4 9 1
f 4 6 14
f 9 10 7
f 13 10 14
f 8 3 13
f 13 7 10
f 6 11 14
f 6 2 12
f 2 8 12
f 9 4 10
f 8 13 11
f 13 14 11
f 2 5 1
