# Created by Open3D 
# object name: convex_22_coll
# number of vertices: 13
# number of triangles: 22
v -0.02405 0.03544 0.01392
v -0.03923 0.04051 0.01392
v -0.0367 0.03544 0.01392
v -0.0367 0.05063 0.00886
v -0.0367 0.05063 0.01392
v 0.0038 0.04557 0.00886
v -0.0367 0.03544 0.00886
v 0.0038 0.03544 0.00633
v -0.0114 0.04051 0.01392
v 0.00126 0.04557 0.00633
v 0.0038 0.03544 0.00886
v -0.0114 0.04557 0.01392
v -0.03923 0.05063 0.00886
f 1 2 3
f 4 5 6
f 1 7 8
f 5 1 9
f 4 6 10
f 8 7 10
f 6 8 10
f 1 5 2
f 8 6 11
f 1 8 11
f 9 1 11
f 6 9 11
f 6 5 12
f 5 9 12
f 9 6 12
f 5 4 13
f 10 7 13
f 4 10 13
f 7 2 13
f 2 5 13
f 7 1 3
f 2 7 3
