# Created by Open3D 
# object name: convex_5_coll
# number of vertices: 14
# number of triangles: 24
v 0.0038 -0.01012 -0.04937
v 0.00633 0 -0.05949
v 0.00886 0.00253 -0.04684
v -0.00886 0.00759 -0.04684
v -0.00127 -0.01012 -0.04684
v 0.00633 0.01772 -0.04684
v -0.005065 -0.001265 -0.05949
v -0.00633 0.02025 -0.05949
v -0.00633 0.02025 -0.04684
v 0.00126 0.02278 -0.05696
v 0.00633 0.01772 -0.05949
v 0.00886 0.01265 -0.04937
v -0.00633 -0.00253 -0.04684
v -0.00886 0.01772 -0.04937
f 3 4 5
f 4 3 6
f 2 7 8
f 4 6 9
f 6 10 9
f 10 8 9
f 10 6 11
f 8 10 11
f 2 8 11
f 5 7 1
f 7 2 1
f 4 8 7
f 3 2 12
f 6 3 12
f 2 11 12
f 11 6 12
f 5 4 13
f 4 7 13
f 7 5 13
f 8 4 14
f 4 9 14
f 9 8 14
f 3 5 1
f 2 3 1
