# Created by Open3D 
# object name: convex_12_coll
# number of vertices: 13
# number of triangles: 22
v 0.03164 0.07595 0.05949
v 0.02152 0.07848 0.05443
v 0.01139 0.07848 0.06202
v -0.00633 0.07342 0.05443
v -0.00886 0.07088 0.06455
v -0.00633 0.07848 0.05443
v 0.03164 0.07088 0.05443
v 0.03164 0.07088 0.06202
v -0.00126 0.07848 0.06202
v -0.00886 0.07342 0.06708
v -0.0038 0.07088 0.05443
v 0.01898 0.07595 0.06455
v -0.00126 0.07088 0.06708
f 1 2 3
f 4 5 6
f 7 4 6
f 7 6 2
f 5 7 8
f 2 6 9
f 6 5 10
f 9 6 10
f 5 4 11
f 7 5 11
f 4 7 11
f 7 2 1
f 12 8 1
f 8 7 1
f 8 12 13
f 5 8 13
f 10 5 13
f 12 10 13
f 2 9 3
f 10 12 3
f 9 10 3
f 12 1 3
