# Created by Open3D 
# object name: convex_19_coll
# number of vertices: 14
# number of triangles: 24
v -0.05696 0.06835 0.02404
v -0.05696 0.06835 -0.02658
v -0.06456 0.05569 0.00632
v -0.03924 0.07595 0.02404
v -0.04683 0.07595 0.02404
v -0.03924 0.06076 -0.0291
v -0.03924 0.06835 -0.03164
v -0.04431 0.05569 0.01898
v -0.03924 0.05569 0.01645
v -0.04177 0.07595 0.00632
v -0.04177 0.06329 0.02404
v -0.06456 0.05569 0.01645
v -0.05696 0.06329 0.02404
v -0.05696 0.06329 -0.0291
f 1 2 3
f 4 5 1
f 4 6 7
f 8 3 9
f 6 4 9
f 5 4 10
f 4 7 10
f 7 2 10
f 4 1 11
f 9 4 11
f 8 9 11
f 1 12 13
f 11 1 13
f 8 11 13
f 14 7 6
f 3 8 12
f 8 13 12
f 2 1 5
f 10 2 5
f 3 6 9
f 14 2 7
f 3 14 6
f 12 1 3
f 2 14 3
