# Created by Open3D 
# object name: convex_31_coll
# number of vertices: 14
# number of triangles: 24
v -0.05189 0.022775 -0.01898
v 0.0018875 0.032905 -0.0196175
v 0.00379 0.03544 -0.00633
v -0.05189 0.03544 -0.01645
v -0.05189 -0.0329 -0.01645
v -0.05189 -0.0329 -0.00886
v 0.0037875 -0.0329 -0.002535
v 0.018975 0.00127 -0.01772
v 0.00632 -0.0253 -0.02152
v 0.02151 0.01012 -0.00633
v -0.01645 0.00758 0.00127
v 0.00885 0.01265 0.00127
v 0.0069525 -0.0322675 -0.0158175
v -0.048085 0.03417 -0.00886
f 3 2 4
f 4 5 6
f 5 7 6
f 8 9 2
f 2 3 10
f 7 5 13
f 5 4 1
f 2 9 1
f 12 10 3
f 12 11 7
f 3 4 14
f 11 14 6
f 5 1 9
f 14 11 3
f 6 7 11
f 6 14 4
f 2 10 8
f 3 11 12
f 13 9 8
f 7 13 8
f 10 7 8
f 5 9 13
f 4 2 1
f 12 7 10
