# Created by Open3D 
# object name: convex_25_coll
# number of vertices: 14
# number of triangles: 24
v 0.04936 0.034175 -0.032905
v 0.04936 -0.01012 -0.0367
v 0.04683 0.00886 -0.03924
v 0.02405 -0.00253 -0.03164
v 0.02405 0.03544 -0.0367
v 0.04936 0.03544 -0.01646
v 0.048095 -0.01139 -0.030375
v 0.04936 0.02784 -0.01646
v 0.02405 0.03544 -0.02911
v 0.02658 -0.01012 -0.03164
v 0.02405 1e-05 -0.03924
v 0.02405 0.02025 -0.03924
v 0.02658 -0.01012 -0.0367
v 0.04177 0.031645 -0.017725
f 1 2 3
f 5 6 1
f 7 1 8
f 5 4 9
f 6 5 9
f 4 5 11
f 1 7 2
f 11 3 2
f 3 11 12
f 10 4 13
f 7 10 13
f 4 11 13
f 11 2 13
f 2 7 13
f 8 6 14
f 4 10 14
f 11 5 12
f 8 1 6
f 9 4 14
f 6 9 14
f 1 12 5
f 10 7 8
f 14 10 8
f 12 1 3
