# Created by Open3D 
# object name: convex_20_coll
# number of vertices: 14
# number of triangles: 24
v -0.06708 0.03544 0.03164
v -0.05696 0.05822 0.03164
v -0.06962 0.05063 0.04177
v -0.07215 0.03544 0.037975
v -0.06455 0.03798 0.04177
v -0.06835 0.051895 0.03164
v -0.05696 0.06582 0.03164
v -0.05696 0.06835 0.03924
v -0.05696 0.05063 0.03671
v -0.05696 0.05316 0.04177
v -0.05949 0.06835 0.03418
v -0.05949 0.06582 0.04177
v -0.06962 0.05316 0.03924
v -0.06455 0.03544 0.03924
f 3 4 5
f 1 6 7
f 8 9 7
f 9 8 10
f 3 5 10
f 7 6 11
f 8 7 11
f 10 8 12
f 3 10 12
f 8 11 12
f 12 11 13
f 4 3 13
f 11 6 13
f 3 12 13
f 5 4 14
f 4 1 14
f 9 10 14
f 10 5 14
f 1 4 6
f 4 13 6
f 1 7 2
f 7 9 2
f 9 14 1
f 2 9 1
