# Created by Open3D 
# object name: convex_9_coll
# number of vertices: 14
# number of triangles: 24
v -0.03417 -0.02279 0.06962
v -0.03924 -0.01013 0.06709
v 0.03418 -0.01013 0.07468
v 0.00631 -0.01013 0.06456
v -0.0367 -0.01013 0.07468
v 0.03291 -0.02785 0.06709
v -0.00885 -0.05063 0.07215
v -0.00885 -0.05316 0.06709
v 0.00125 -0.05316 0.06709
v 0.03164 -0.03038 0.07215
v -0.02911 -0.01013 0.06456
v -0.00632 -0.03797 0.06456
v 0.03418 -0.01013 0.06709
v 5.00027e-06 -0.02532 0.07721
f 3 4 5
f 5 4 2
f 7 1 8
f 9 7 8
f 11 4 12
f 8 11 12
f 4 3 13
f 3 6 13
f 6 4 13
f 6 3 10
f 14 3 5
f 8 12 9
f 2 4 11
f 2 11 1
f 11 8 1
f 10 3 14
f 7 10 14
f 9 12 6
f 10 9 6
f 9 10 7
f 7 5 1
f 14 5 7
f 4 6 12
f 1 5 2
