# Created by Open3D 
# object name: convex_21_coll
# number of vertices: 14
# number of triangles: 24
v -0.05696 0.05317 0.03418
v -0.04557 0.046835 0.03544
v -0.04557 0.04557 0.03924
v -0.03924 0.07594 0.04683
v -0.03924 0.06582 0.02405
v -0.05696 0.06582 0.02405
v -0.05443 0.07341 0.02405
v -0.05696 0.07088 0.04177
v -0.05696 0.0557 0.04177
v -0.03924 0.0557 0.037975
v -0.03924 0.07848 0.02658
v -0.0443 0.07848 0.04177
v -0.04304 0.06835 0.04683
v -0.049365 0.07341 0.045565
f 1 2 3
f 5 2 6
f 7 5 6
f 8 6 9
f 5 4 10
f 4 5 11
f 5 7 11
f 6 2 1
f 9 6 1
f 4 11 12
f 11 7 12
f 6 8 7
f 10 4 13
f 3 10 13
f 8 9 14
f 9 13 14
f 10 3 2
f 5 10 2
f 13 4 14
f 4 12 14
f 12 7 8
f 14 12 8
f 13 9 3
f 9 1 3
