# Created by Open3D 
# object name: convex_15_coll
# number of vertices: 14
# number of triangles: 24
v -0.07468 -0.00252 0.00126
v -0.07215 0.00253 -0.037965
v -0.05949 -0.0329 0.00126
v -0.06203 0.03544 0.00126
v -0.0519 -0.0329 -0.00887
v -0.0519 -0.0329 -0.0367
v -0.0519 0.03544 -0.03417
v -0.07215 -0.0329 0.00126
v -0.07215 0.03544 0.00126
v -0.05949 -0.01771 -0.04683
v -0.0702475 0.034805 -0.032905
v -0.0677125 -0.0170825 -0.0461975
v -0.068345 0.022775 -0.04683
v -0.068345 -0.0329 -0.0367
f 3 4 1
f 5 6 7
f 6 3 8
f 1 4 9
f 4 7 9
f 7 6 10
f 3 6 5
f 3 1 8
f 9 7 11
f 10 12 13
f 6 8 14
f 9 11 1
f 7 10 13
f 12 2 13
f 12 10 6
f 14 12 6
f 5 7 4
f 8 2 14
f 2 12 14
f 2 1 11
f 13 2 11
f 4 3 5
f 11 7 13
f 2 8 1
