# Created by Open3D 
# object name: convex_27_coll
# number of vertices: 14
# number of triangles: 24
v -0.03924 0.05569 0.00633
v -0.04177 0.03544 0.01392
v -0.04177 0.03544 0.00886
v -0.07215 0.03544 0.01645
v -0.07215 0.03544 -0.00127
v -0.04177 0.05569 0.01645
v -0.06455 0.05569 -0.00127
v -0.06708 0.05569 0.01645
v -0.05949 0.03798 -0.00127
v -0.06708 0.03798 0.02152
v -0.07215 0.04557 0.01392
v -0.06961 0.04304 0.02152
v -0.05949 0.05569 0.01898
v -0.06961 0.05063 -0.00127
f 1 2 3
f 4 5 3
f 6 7 8
f 7 6 1
f 3 5 9
f 5 7 9
f 4 3 2
f 10 4 2
f 5 4 11
f 4 10 12
f 10 6 12
f 12 6 13
f 6 8 13
f 8 12 13
f 7 5 14
f 8 7 14
f 5 11 14
f 11 8 14
f 1 6 2
f 6 10 2
f 1 9 7
f 12 8 11
f 4 12 11
f 9 1 3
