# Created by Open3D 
# object name: convex_18_coll
# number of vertices: 14
# number of triangles: 24
v 0.015185 0.027215 0.03481
v 0.02405 0.01771 0.05443
v -0.01645 -0.00759 0.05443
v 0.0303725 -2.5e-06 0.051895
v -0.02152 -0.01771 0.03671
v -0.01392 -0.03037 0.03671
v -0.01645 0.00506 0.05443
v -0.006325 -0.010755 0.02658
v 0.012655 0.02088 0.02658
v -0.01139 0.02277 0.03924
v 0.03417 0.01518 0.03165
v 0.03164 -0.03037 0.03671
v 0.03164 -0.03164 0.02911
v -0.0196175 0.0056875 0.03671
f 2 3 4
f 3 5 6
f 3 2 7
f 10 7 2
f 3 12 4
f 9 11 13
f 9 1 11
f 12 3 6
f 9 14 10
f 1 9 10
f 8 9 13
f 13 11 12
f 11 4 12
f 12 6 13
f 10 2 1
f 14 9 8
f 7 10 14
f 6 8 13
f 4 11 2
f 14 5 3
f 7 14 3
f 8 6 5
f 14 8 5
f 2 11 1
