# Created by Open3D 
# object name: convex_7_coll
# number of vertices: 14
# number of triangles: 24
v -0.01391 -0.07848 -0.0443
v -0.05696 -0.07088 -0.02151
v -0.048095 -0.069615 -0.04683
v 0.04936 -0.07848 0.01645
v -0.06201 -0.04557 0.01645
v -0.04683 -0.07848 0.01645
v 0.04936 -0.04557 0.00633
v 0.04683 -0.04557 -0.03671
v -0.064545 -0.04557 -0.03924
v 0.03417 -0.07594 -0.04683
v 0.00632 -0.04557 -0.04683
v 0.04936 -0.06582 0.01645
v -0.06962 -0.0481 0.011385
v 0.04303 -0.07341 -0.03924
f 1 2 3
f 4 5 6
f 4 6 1
f 7 8 9
f 9 8 11
f 10 3 11
f 7 9 5
f 4 7 12
f 5 4 12
f 4 1 10
f 7 4 8
f 3 10 1
f 5 9 13
f 6 5 13
f 5 12 7
f 3 9 11
f 4 14 8
f 2 1 6
f 11 8 10
f 6 13 2
f 3 2 9
f 2 13 9
f 10 8 14
f 4 10 14
