# Created by Open3D 
# object name: convex_34_coll
# number of vertices: 14
# number of triangles: 24
v -0.05443 0.051895 -0.032905
v -0.05443 0.03544 -0.02658
v -0.055695 0.03544 -0.03544
v -0.06835 0.03544 -0.03544
v -0.05949 0.03544 -0.00127
v -0.06962 0.05063 -0.00127
v -0.07215 0.03544 -0.00127
v -0.05696 0.05316 -0.0038
v -0.06202 0.05569 -0.00127
v -0.06455 0.05569 -0.01646
v -0.07215 0.04051 -0.01646
v -0.06708 0.05063 -0.03164
v -0.06202 0.05316 -0.03417
v -0.06708 0.04051 -0.03671
f 1 2 3
f 4 3 5
f 5 6 7
f 4 5 7
f 5 3 2
f 1 8 2
f 6 5 9
f 6 9 10
f 5 8 9
f 8 1 9
f 7 6 11
f 2 8 5
f 7 11 4
f 11 12 4
f 3 4 14
f 12 13 14
f 4 12 14
f 1 3 14
f 13 1 14
f 10 13 12
f 6 10 12
f 11 6 12
f 1 13 10
f 9 1 10
