# Original object name hint: convex_8
v 0.04309 -0.07607 0.03168
v -0.05577 -0.06846 -0.04944
v -0.05577 -0.06593 -0.04944
v 0.04564 -0.07607 -0.04183
v 0.05832 -0.06086 0.00887
v -0.04562 -0.07860 0.00887
v -0.05071 -0.06086 0.00633
v -0.02533 -0.08114 -0.02409
v -0.05071 -0.06086 -0.04437
v 0.04309 -0.06593 -0.03930
v 0.05323 -0.07860 0.01140
v 0.02787 -0.07100 0.03423
v -0.04562 -0.07860 -0.03676
v -0.02280 -0.08114 0.01394
v -0.02533 -0.07607 0.02408
v -0.05832 -0.07100 -0.00635
v 0.04057 -0.07860 -0.03930
v 0.02280 -0.08114 0.01140
v 0.05577 -0.06086 -0.00381
v 0.02533 -0.07860 0.03168
v 0.03802 -0.06593 0.02662
v -0.05832 -0.06086 -0.00887
v 0.05577 -0.07607 -0.00887
v -0.05324 -0.07353 -0.04691
v -0.05577 -0.07607 -0.03168
v 0.05070 -0.06846 -0.03423
v -0.03802 -0.08114 0.00887
v 0.04564 -0.06340 -0.02916
v 0.05577 -0.07607 0.01647
v -0.05832 -0.06086 -0.03930
v 0.04309 -0.06846 -0.04183
v -0.05324 -0.07607 0.00380
v 0.02280 -0.06086 0.01140
v 0.04057 -0.06846 0.03168
v -0.02533 -0.07353 0.02408
v -0.05832 -0.07100 -0.04183
v 0.02280 -0.08114 0.00126
v 0.03802 -0.07860 0.03168
v 0.04564 -0.07860 -0.03423
v -0.04817 -0.07100 -0.04944
v 0.05832 -0.07100 0.00126
v 0.02787 -0.06846 0.03168
v 0.04816 -0.07100 0.02662
v -0.04817 -0.06593 -0.04944
v -0.01267 -0.08114 -0.02409
v 0.02787 -0.07607 0.03423
v -0.04817 -0.07607 0.00887
v -0.02280 -0.07860 0.02154
v -0.05577 -0.06340 0.00126
v 0.05323 -0.07860 -0.00381
v 0.04816 -0.07607 -0.03930
v 0.04816 -0.06593 -0.03676
v 0.05577 -0.06086 0.01140
v 0.05832 -0.06340 0.00126
v -0.05577 -0.07607 -0.01141
v -0.04817 -0.07860 -0.03423
v -0.04817 -0.07860 0.00380
v 0.03043 -0.06593 0.02662
v 0.03802 -0.07607 0.03423
v 0.05070 -0.07353 -0.03423
v 0.04564 -0.07860 0.02408
v -0.03802 -0.08114 0.00126
v 0.05577 -0.06846 0.01647
v 0.04564 -0.07100 -0.04183
v -0.05071 0.06846 -0.03422
v 0.00507 0.07607 0.03423
v 0.00507 0.07100 0.03423
v 0.00507 0.07607 -0.03422
v 0.00507 0.06085 -0.02154
v -0.04564 0.06085 0.00380
v -0.04310 0.07860 0.01901
v -0.04817 0.07860 -0.03422
v 0.00507 0.07860 -0.03169
v -0.05325 0.06085 -0.02154
v -0.04057 0.07100 0.02915
v 0.00507 0.06085 0.00633
v 0.00507 0.07860 0.03169
v -0.05071 0.07607 0.00633
v 0.00507 0.06846 -0.03422
v -0.05071 0.06085 -0.02661
v -0.05325 0.07607 -0.03169
v -0.03296 0.07860 0.02915
v -0.04817 0.07607 -0.03676
v -0.04310 0.06085 0.00633
v -0.05071 0.06846 0.00633
v -0.03043 0.07100 0.03169
v 0.00253 0.06846 0.02915
v -0.04310 0.07607 0.02662
v -0.03802 0.07100 -0.03676
v -0.05325 0.06085 -0.01394
v -0.05071 0.07860 -0.02154
v 0.00253 0.07860 -0.03422
v -0.05325 0.07353 -0.01394
v -0.03043 0.07607 0.03169
v -0.00761 0.07100 0.03423
v -0.04310 0.07100 0.02662
v -0.04310 0.06085 -0.02661
v -0.00507 0.07607 0.03423
v -0.05325 0.06846 -0.03169
v -0.04817 0.07860 0.00380
v -0.05325 0.07607 -0.01901
v -0.03802 0.07607 -0.03676
v -0.04057 0.07607 0.02915
v -0.04817 0.07100 -0.03676
v -0.04817 0.06339 0.00380
v 0.04310 0.04056 -0.03423
v 0.04310 0.05070 0.04944
v 0.04818 0.04563 0.04690
v 0.00507 -0.01774 0.00887
v 0.00507 0.07859 -0.03169
v 0.05832 -0.01774 0.02155
v 0.00507 0.07606 0.03423
v 0.04564 0.07606 -0.00887
v 0.00507 -0.01774 -0.02154
v 0.05578 -0.01774 -0.01901
v 0.03043 0.02537 0.04690
v 0.04056 0.07859 0.02916
v 0.05832 0.02537 0.00381
v 0.03549 -0.01520 0.03168
v 0.03549 0.07859 -0.03169
v 0.05578 0.04056 0.02409
v 0.04818 0.04563 -0.02915
v 0.05325 -0.00760 -0.02662
v 0.00507 0.06845 -0.03423
v 0.02283 0.08114 0.01901
v 0.01014 0.04056 0.03423
v 0.00507 -0.01267 -0.02408
v 0.05832 0.00762 -0.01394
v 0.05578 -0.01774 0.02662
v 0.04564 0.07606 0.02662
v 0.03803 0.08114 0.00128
v 0.04056 0.03548 0.04944
v 0.03296 0.07606 0.03676
v 0.03296 0.04816 0.04944
v 0.02536 0.02537 0.04437
v 0.00507 0.07859 0.03168
v 0.03549 0.07606 -0.03423
v 0.05578 0.04309 0.00635
v 0.05832 0.00255 0.02409
v 0.04056 0.07606 -0.02915
v 0.05071 0.04816 0.04184
v 0.05578 0.00508 -0.02408
v 0.03296 -0.01774 0.02916
v 0.05325 -0.01520 -0.02408
v 0.03803 0.04056 -0.03423
v 0.05832 -0.01774 -0.00379
v 0.03803 0.01776 0.04437
v 0.02283 0.03548 0.04437
v 0.04056 0.07606 0.03423
v 0.02029 0.07606 0.03676
v 0.02029 0.08114 0.00635
v 0.04818 0.04056 0.04690
v 0.00507 0.07099 0.03423
v 0.04310 0.07859 -0.01394
v 0.03296 0.08114 0.02155
v 0.04056 -0.01520 0.03168
v 0.00507 0.07606 -0.03423
v 0.00761 0.04309 0.03168
v 0.03549 0.05070 0.04944
v 0.02536 0.08114 -0.00125
v 0.04310 0.07859 0.02409
v 0.05832 -0.00760 0.02409
v 0.03803 0.07859 0.03168
v 0.04310 0.07606 -0.02154
v 0.05832 -0.00252 -0.01394
v 0.04310 0.03802 0.04944
v 0.04818 0.05070 0.04437
v 0.04564 0.04816 -0.03169
v 0.03296 0.03802 0.04944
v 0.00507 0.06085 0.00633
v -0.04057 -0.06086 -0.02409
v -0.04057 -0.06086 0.00633
v 0.00507 -0.06086 0.00633
v -0.04057 0.05832 0.00887
v 0.00507 0.04562 -0.02409
v -0.04057 0.03803 -0.02155
v 0.00507 -0.04817 -0.02409
v 0.00507 0.03549 0.01141
v -0.00254 0.06085 -0.01901
v 0.00507 -0.06086 -0.01901
v -0.04057 0.06085 -0.00127
v -0.02789 -0.03043 0.00887
v 0.00507 -0.04564 0.00887
v -0.02028 0.03043 -0.02409
v 0.00253 0.04815 0.01141
v 0.00507 0.06085 -0.01901
v -0.04057 0.02280 0.00887
v 0.00507 0.05832 0.00887
v -0.02535 -0.06086 -0.02409
v -0.04057 0.06085 0.00633
v -0.00254 0.04562 -0.02409
v 0.00253 0.03549 0.01141
v -0.00001 0.05578 -0.02155
v -0.01775 -0.03803 0.00887
v 0.00507 -0.05578 -0.02155
v -0.01522 0.03803 -0.02409
v -0.04057 -0.05832 -0.02409
v 0.02282 -0.05325 -0.03930
v 0.05071 -0.03803 -0.02409
v 0.05071 -0.05578 -0.02409
v 0.04310 -0.04564 -0.03930
v 0.03550 -0.04564 -0.02409
v 0.04310 -0.03803 -0.03170
v 0.03803 -0.05832 -0.02409
v 0.04310 -0.05325 -0.03930
v 0.02790 -0.04564 -0.03677
v 0.05071 -0.03803 -0.02916
v 0.04310 -0.03803 -0.02409
v 0.04817 -0.05832 -0.02662
v 0.04817 -0.05325 -0.03423
v 0.02536 -0.04818 -0.03423
v 0.03550 -0.05578 -0.02409
v 0.03296 -0.04564 -0.03930
v 0.02282 -0.05325 -0.03677
v 0.05071 -0.05325 -0.02916
v 0.02282 -0.05071 -0.03930
v 0.03803 -0.05832 -0.02662
v 0.04817 -0.04311 -0.03423
v 0.05578 -0.02536 0.02409
v 0.00507 -0.04817 -0.02409
v 0.00507 -0.05578 -0.02154
v 0.05071 -0.05832 -0.02409
v 0.05325 -0.01775 -0.02154
v 0.00507 -0.01775 0.00887
v 0.01268 -0.06086 0.00887
v 0.05832 -0.06086 0.00887
v 0.00507 -0.01775 -0.02154
v 0.03296 -0.03804 0.02916
v 0.04564 -0.01775 0.02916
v 0.00507 -0.06086 0.00633
v 0.05832 -0.01775 -0.00380
v 0.03803 -0.06086 -0.02409
v 0.05325 -0.03551 -0.02409
v 0.05578 -0.05832 0.01395
v 0.05832 -0.01775 0.01901
v 0.03549 -0.01775 0.02916
v 0.00507 -0.06086 -0.01647
v 0.00507 -0.05325 0.00887
v 0.05832 -0.06086 0.00380
v 0.04056 -0.03551 0.02916
v 0.02536 -0.06086 0.01141
v 0.05325 -0.04564 -0.02409
v 0.05578 -0.03804 0.02154
v 0.04818 -0.06086 -0.02409
v 0.05578 -0.02536 -0.01647
v 0.05832 -0.03551 0.01901
v 0.03296 -0.02790 0.02916
v 0.05325 -0.02029 0.02662
v 0.05832 -0.04310 -0.00126
v 0.00507 -0.04564 -0.02409
v 0.03549 -0.05832 0.01395
v 0.04564 -0.03551 -0.02409
v 0.05578 -0.06086 0.01141
v 0.03803 -0.03804 0.02916
v 0.05578 -0.01775 -0.01647
v 0.05578 -0.01775 0.02409
v -0.05071 -0.04057 0.00634
v -0.05578 -0.06085 -0.03930
v -0.05578 -0.05832 -0.03930
v -0.04057 -0.06085 -0.02662
v -0.05325 -0.06085 0.00380
v -0.04057 -0.04057 -0.02155
v -0.04057 -0.06085 0.00634
v -0.05832 -0.04057 -0.01648
v -0.04057 -0.04057 0.00634
v -0.05832 -0.06085 -0.00888
v -0.04818 -0.05832 -0.03930
v -0.05578 -0.04057 -0.02155
v -0.05832 -0.06085 -0.03169
v -0.05325 -0.04057 0.00380
v -0.05832 -0.04057 -0.01141
v -0.04564 -0.06085 -0.03676
v -0.04818 -0.06085 0.00634
v -0.04564 -0.05832 -0.03676
v -0.05832 -0.05071 -0.00888
v -0.04057 0.06085 0.00634
v -0.05325 -0.04057 -0.00127
v -0.05325 -0.04057 0.00380
v -0.04057 -0.04057 0.00634
v -0.04057 0.02535 -0.00380
v -0.05071 0.04055 -0.00380
v -0.04818 0.04055 0.00888
v -0.04057 -0.04057 -0.00127
v -0.05071 0.04310 0.00634
v -0.04564 0.06085 -0.00127
v -0.05071 -0.04057 0.00634
v -0.04057 0.02280 0.00888
v -0.04057 0.06085 -0.00127
v -0.05325 -0.00253 0.00127
v -0.04311 0.05577 0.00888
v -0.04564 0.06085 0.00380
v -0.05071 0.04563 -0.00127
v -0.04057 0.04055 -0.00380
v -0.05071 0.02788 -0.00380
v -0.05325 -0.00253 0.00380
v -0.04818 0.02788 0.00888
v -0.04057 0.05577 0.00888
v -0.05325 0.02027 -0.02662
v -0.04564 0.04055 -0.00381
v -0.04057 0.04055 -0.00888
v -0.04057 -0.04057 -0.00634
v -0.05832 -0.04057 -0.01141
v -0.04311 -0.04057 -0.02155
v -0.04564 0.06085 -0.02662
v -0.05325 0.03802 -0.00381
v -0.05325 0.06085 -0.01648
v -0.04057 0.03802 -0.02155
v -0.05578 0.03802 -0.02662
v -0.05325 -0.04057 -0.02155
v -0.04311 0.06085 -0.01141
v -0.05325 -0.04057 -0.00634
v -0.05578 0.03802 -0.01141
v -0.04057 -0.04057 -0.01901
v -0.05832 -0.04057 -0.01648
v -0.04564 0.02788 -0.02662
v -0.04818 0.06085 -0.00888
v -0.05832 -0.02027 -0.01141
v -0.05071 0.06085 -0.02662
v -0.05578 0.02280 -0.02662
v -0.04057 0.01520 -0.00634
v -0.04311 0.06085 -0.02155
v -0.05325 0.03042 -0.00381
v -0.04057 0.02027 -0.02155
v -0.05832 -0.02027 -0.01648
v -0.05578 0.04055 -0.01395
v -0.04564 0.03042 -0.00381
v -0.05325 0.06085 -0.01901
v -0.05071 0.06085 -0.01141
v -0.04564 0.06085 -0.00888
v -0.05325 0.00254 -0.03423
v -0.05578 -0.02282 -0.03423
v -0.05325 -0.03296 -0.03677
v -0.05071 -0.03042 -0.03170
v -0.05071 -0.01268 -0.03677
v -0.05578 0.00254 -0.03677
v -0.05578 -0.01521 -0.03170
v -0.05071 -0.01521 -0.03170
v -0.05071 -0.03296 -0.03677
v -0.05325 -0.03042 -0.03170
v -0.05578 -0.02028 -0.03677
v -0.04564 0.03549 -0.02916
v -0.05578 0.00254 -0.03677
v -0.05325 0.00254 -0.03677
v -0.04818 0.04311 -0.03677
v -0.05578 0.03549 -0.02662
v -0.04818 0.02282 -0.02662
v -0.04564 0.01775 -0.03677
v -0.05578 0.00507 -0.03170
v -0.05325 0.03043 -0.03677
v -0.04564 0.04564 -0.03170
v -0.04564 0.01775 -0.03170
v -0.05071 0.04564 -0.03423
v -0.04818 0.03803 -0.02662
v -0.05578 0.03296 -0.03170
v -0.05578 0.02282 -0.02662
v -0.05071 0.00507 -0.03423
v -0.04564 0.04311 -0.03677
v -0.05071 0.04564 -0.03170
v -0.05071 0.00761 -0.03170
v -0.05578 0.01268 -0.03677
f 310 316 329 
f 301 302 303 
f 300 301 307 
f 304 298 308 
f 298 303 309 
f 303 302 309 
f 299 300 310 
f 304 306 310 
f 302 301 311 
f 305 306 312 
f 301 303 313 
f 307 301 313 
f 309 302 314 
f 303 298 315 
f 298 304 315 
f 304 307 315 
f 305 299 316 
f 310 306 316 
f 302 305 317 
f 305 312 317 
f 314 302 317 
f 306 304 318 
f 304 308 318 
f 308 298 319 
f 298 309 319 
f 314 308 319 
f 309 314 319 
f 300 299 320 
f 301 300 320 
f 299 301 320 
f 300 307 321 
f 307 304 321 
f 310 300 321 
f 304 310 321 
f 299 305 322 
f 305 302 322 
f 311 301 322 
f 302 311 322 
f 313 303 323 
f 307 313 323 
f 303 315 323 
f 315 307 323 
f 308 314 324 
f 314 317 324 
f 324 317 325 
f 312 306 325 
f 317 312 325 
f 308 324 325 
f 301 299 326 
f 299 322 326 
f 322 301 326 
f 306 318 327 
f 318 308 327 
f 325 306 327 
f 308 325 327 
f 306 305 328 
f 305 316 328 
f 316 306 328 
f 299 310 329 
f 316 299 329 
