# Original object name hint: convex_3
v 0.04309 -0.07607 0.03168
v -0.05577 -0.06846 -0.04944
v -0.05577 -0.06593 -0.04944
v 0.04564 -0.07607 -0.04183
v 0.05832 -0.06086 0.00887
v -0.04562 -0.07860 0.00887
v -0.05071 -0.06086 0.00633
v -0.02533 -0.08114 -0.02409
v -0.05071 -0.06086 -0.04437
v 0.04309 -0.06593 -0.03930
v 0.05323 -0.07860 0.01140
v 0.02787 -0.07100 0.03423
v -0.04562 -0.07860 -0.03676
v -0.02280 -0.08114 0.01394
v -0.02533 -0.07607 0.02408
v -0.05832 -0.07100 -0.00635
v 0.04057 -0.07860 -0.03930
v 0.02280 -0.08114 0.01140
v 0.05577 -0.06086 -0.00381
v 0.02533 -0.07860 0.03168
v 0.03802 -0.06593 0.02662
v -0.05832 -0.06086 -0.00887
v 0.05577 -0.07607 -0.00887
v -0.05324 -0.07353 -0.04691
v -0.05577 -0.07607 -0.03168
v 0.05070 -0.06846 -0.03423
v -0.03802 -0.08114 0.00887
v 0.04564 -0.06340 -0.02916
v 0.05577 -0.07607 0.01647
v -0.05832 -0.06086 -0.03930
v 0.04309 -0.06846 -0.04183
v -0.05324 -0.07607 0.00380
v 0.02280 -0.06086 0.01140
v 0.04057 -0.06846 0.03168
v -0.02533 -0.07353 0.02408
v -0.05832 -0.07100 -0.04183
v 0.02280 -0.08114 0.00126
v 0.03802 -0.07860 0.03168
v 0.04564 -0.07860 -0.03423
v -0.04817 -0.07100 -0.04944
v 0.05832 -0.07100 0.00126
v 0.02787 -0.06846 0.03168
v 0.04816 -0.07100 0.02662
v -0.04817 -0.06593 -0.04944
v -0.01267 -0.08114 -0.02409
v 0.02787 -0.07607 0.03423
v -0.04817 -0.07607 0.00887
v -0.02280 -0.07860 0.02154
v -0.05577 -0.06340 0.00126
v 0.05323 -0.07860 -0.00381
v 0.04816 -0.07607 -0.03930
v 0.04816 -0.06593 -0.03676
v 0.05577 -0.06086 0.01140
v 0.05832 -0.06340 0.00126
v -0.05577 -0.07607 -0.01141
v -0.04817 -0.07860 -0.03423
v -0.04817 -0.07860 0.00380
v 0.03043 -0.06593 0.02662
v 0.03802 -0.07607 0.03423
v 0.05070 -0.07353 -0.03423
v 0.04564 -0.07860 0.02408
v -0.03802 -0.08114 0.00126
v 0.05577 -0.06846 0.01647
v 0.04564 -0.07100 -0.04183
v -0.05071 0.06846 -0.03422
v 0.00507 0.07607 0.03423
v 0.00507 0.07100 0.03423
v 0.00507 0.07607 -0.03422
v 0.00507 0.06085 -0.02154
v -0.04564 0.06085 0.00380
v -0.04310 0.07860 0.01901
v -0.04817 0.07860 -0.03422
v 0.00507 0.07860 -0.03169
v -0.05325 0.06085 -0.02154
v -0.04057 0.07100 0.02915
v 0.00507 0.06085 0.00633
v 0.00507 0.07860 0.03169
v -0.05071 0.07607 0.00633
v 0.00507 0.06846 -0.03422
v -0.05071 0.06085 -0.02661
v -0.05325 0.07607 -0.03169
v -0.03296 0.07860 0.02915
v -0.04817 0.07607 -0.03676
v -0.04310 0.06085 0.00633
v -0.05071 0.06846 0.00633
v -0.03043 0.07100 0.03169
v 0.00253 0.06846 0.02915
v -0.04310 0.07607 0.02662
v -0.03802 0.07100 -0.03676
v -0.05325 0.06085 -0.01394
v -0.05071 0.07860 -0.02154
v 0.00253 0.07860 -0.03422
v -0.05325 0.07353 -0.01394
v -0.03043 0.07607 0.03169
v -0.00761 0.07100 0.03423
v -0.04310 0.07100 0.02662
v -0.04310 0.06085 -0.02661
v -0.00507 0.07607 0.03423
v -0.05325 0.06846 -0.03169
v -0.04817 0.07860 0.00380
v -0.05325 0.07607 -0.01901
v -0.03802 0.07607 -0.03676
v -0.04057 0.07607 0.02915
v -0.04817 0.07100 -0.03676
v -0.04817 0.06339 0.00380
v 0.04310 0.04056 -0.03423
v 0.04310 0.05070 0.04944
v 0.04818 0.04563 0.04690
v 0.00507 -0.01774 0.00887
v 0.00507 0.07859 -0.03169
v 0.05832 -0.01774 0.02155
v 0.00507 0.07606 0.03423
v 0.04564 0.07606 -0.00887
v 0.00507 -0.01774 -0.02154
v 0.05578 -0.01774 -0.01901
v 0.03043 0.02537 0.04690
v 0.04056 0.07859 0.02916
v 0.05832 0.02537 0.00381
v 0.03549 -0.01520 0.03168
v 0.03549 0.07859 -0.03169
v 0.05578 0.04056 0.02409
v 0.04818 0.04563 -0.02915
v 0.05325 -0.00760 -0.02662
v 0.00507 0.06845 -0.03423
v 0.02283 0.08114 0.01901
v 0.01014 0.04056 0.03423
v 0.00507 -0.01267 -0.02408
v 0.05832 0.00762 -0.01394
v 0.05578 -0.01774 0.02662
v 0.04564 0.07606 0.02662
v 0.03803 0.08114 0.00128
v 0.04056 0.03548 0.04944
v 0.03296 0.07606 0.03676
v 0.03296 0.04816 0.04944
v 0.02536 0.02537 0.04437
v 0.00507 0.07859 0.03168
v 0.03549 0.07606 -0.03423
v 0.05578 0.04309 0.00635
v 0.05832 0.00255 0.02409
v 0.04056 0.07606 -0.02915
v 0.05071 0.04816 0.04184
v 0.05578 0.00508 -0.02408
v 0.03296 -0.01774 0.02916
v 0.05325 -0.01520 -0.02408
v 0.03803 0.04056 -0.03423
v 0.05832 -0.01774 -0.00379
v 0.03803 0.01776 0.04437
v 0.02283 0.03548 0.04437
v 0.04056 0.07606 0.03423
v 0.02029 0.07606 0.03676
v 0.02029 0.08114 0.00635
v 0.04818 0.04056 0.04690
v 0.00507 0.07099 0.03423
v 0.04310 0.07859 -0.01394
v 0.03296 0.08114 0.02155
v 0.04056 -0.01520 0.03168
v 0.00507 0.07606 -0.03423
v 0.00761 0.04309 0.03168
v 0.03549 0.05070 0.04944
v 0.02536 0.08114 -0.00125
v 0.04310 0.07859 0.02409
v 0.05832 -0.00760 0.02409
v 0.03803 0.07859 0.03168
v 0.04310 0.07606 -0.02154
v 0.05832 -0.00252 -0.01394
v 0.04310 0.03802 0.04944
v 0.04818 0.05070 0.04437
v 0.04564 0.04816 -0.03169
v 0.03296 0.03802 0.04944
v 0.00507 0.06085 0.00633
v -0.04057 -0.06086 -0.02409
v -0.04057 -0.06086 0.00633
v 0.00507 -0.06086 0.00633
v -0.04057 0.05832 0.00887
v 0.00507 0.04562 -0.02409
v -0.04057 0.03803 -0.02155
v 0.00507 -0.04817 -0.02409
v 0.00507 0.03549 0.01141
v -0.00254 0.06085 -0.01901
v 0.00507 -0.06086 -0.01901
v -0.04057 0.06085 -0.00127
v -0.02789 -0.03043 0.00887
v 0.00507 -0.04564 0.00887
v -0.02028 0.03043 -0.02409
v 0.00253 0.04815 0.01141
v 0.00507 0.06085 -0.01901
v -0.04057 0.02280 0.00887
v 0.00507 0.05832 0.00887
v -0.02535 -0.06086 -0.02409
v -0.04057 0.06085 0.00633
v -0.00254 0.04562 -0.02409
v 0.00253 0.03549 0.01141
v -0.00001 0.05578 -0.02155
v -0.01775 -0.03803 0.00887
v 0.00507 -0.05578 -0.02155
v -0.01522 0.03803 -0.02409
v -0.04057 -0.05832 -0.02409
v 0.02282 -0.05325 -0.03930
v 0.05071 -0.03803 -0.02409
v 0.05071 -0.05578 -0.02409
v 0.04310 -0.04564 -0.03930
v 0.03550 -0.04564 -0.02409
v 0.04310 -0.03803 -0.03170
v 0.03803 -0.05832 -0.02409
v 0.04310 -0.05325 -0.03930
v 0.02790 -0.04564 -0.03677
v 0.05071 -0.03803 -0.02916
v 0.04310 -0.03803 -0.02409
v 0.04817 -0.05832 -0.02662
v 0.04817 -0.05325 -0.03423
v 0.02536 -0.04818 -0.03423
v 0.03550 -0.05578 -0.02409
v 0.03296 -0.04564 -0.03930
v 0.02282 -0.05325 -0.03677
v 0.05071 -0.05325 -0.02916
v 0.02282 -0.05071 -0.03930
v 0.03803 -0.05832 -0.02662
v 0.04817 -0.04311 -0.03423
v 0.05578 -0.02536 0.02409
v 0.00507 -0.04817 -0.02409
v 0.00507 -0.05578 -0.02154
v 0.05071 -0.05832 -0.02409
v 0.05325 -0.01775 -0.02154
v 0.00507 -0.01775 0.00887
v 0.01268 -0.06086 0.00887
v 0.05832 -0.06086 0.00887
v 0.00507 -0.01775 -0.02154
v 0.03296 -0.03804 0.02916
v 0.04564 -0.01775 0.02916
v 0.00507 -0.06086 0.00633
v 0.05832 -0.01775 -0.00380
v 0.03803 -0.06086 -0.02409
v 0.05325 -0.03551 -0.02409
v 0.05578 -0.05832 0.01395
v 0.05832 -0.01775 0.01901
v 0.03549 -0.01775 0.02916
v 0.00507 -0.06086 -0.01647
v 0.00507 -0.05325 0.00887
v 0.05832 -0.06086 0.00380
v 0.04056 -0.03551 0.02916
v 0.02536 -0.06086 0.01141
v 0.05325 -0.04564 -0.02409
v 0.05578 -0.03804 0.02154
v 0.04818 -0.06086 -0.02409
v 0.05578 -0.02536 -0.01647
v 0.05832 -0.03551 0.01901
v 0.03296 -0.02790 0.02916
v 0.05325 -0.02029 0.02662
v 0.05832 -0.04310 -0.00126
v 0.00507 -0.04564 -0.02409
v 0.03549 -0.05832 0.01395
v 0.04564 -0.03551 -0.02409
v 0.05578 -0.06086 0.01141
v 0.03803 -0.03804 0.02916
v 0.05578 -0.01775 -0.01647
v 0.05578 -0.01775 0.02409
v -0.05071 -0.04057 0.00634
v -0.05578 -0.06085 -0.03930
v -0.05578 -0.05832 -0.03930
v -0.04057 -0.06085 -0.02662
v -0.05325 -0.06085 0.00380
v -0.04057 -0.04057 -0.02155
v -0.04057 -0.06085 0.00634
v -0.05832 -0.04057 -0.01648
v -0.04057 -0.04057 0.00634
v -0.05832 -0.06085 -0.00888
v -0.04818 -0.05832 -0.03930
v -0.05578 -0.04057 -0.02155
v -0.05832 -0.06085 -0.03169
v -0.05325 -0.04057 0.00380
v -0.05832 -0.04057 -0.01141
v -0.04564 -0.06085 -0.03676
v -0.04818 -0.06085 0.00634
v -0.04564 -0.05832 -0.03676
v -0.05832 -0.05071 -0.00888
v -0.04057 0.06085 0.00634
v -0.05325 -0.04057 -0.00127
v -0.05325 -0.04057 0.00380
v -0.04057 -0.04057 0.00634
v -0.04057 0.02535 -0.00380
v -0.05071 0.04055 -0.00380
v -0.04818 0.04055 0.00888
v -0.04057 -0.04057 -0.00127
v -0.05071 0.04310 0.00634
v -0.04564 0.06085 -0.00127
v -0.05071 -0.04057 0.00634
v -0.04057 0.02280 0.00888
v -0.04057 0.06085 -0.00127
v -0.05325 -0.00253 0.00127
v -0.04311 0.05577 0.00888
v -0.04564 0.06085 0.00380
v -0.05071 0.04563 -0.00127
v -0.04057 0.04055 -0.00380
v -0.05071 0.02788 -0.00380
v -0.05325 -0.00253 0.00380
v -0.04818 0.02788 0.00888
v -0.04057 0.05577 0.00888
v -0.05325 0.02027 -0.02662
v -0.04564 0.04055 -0.00381
v -0.04057 0.04055 -0.00888
v -0.04057 -0.04057 -0.00634
v -0.05832 -0.04057 -0.01141
v -0.04311 -0.04057 -0.02155
v -0.04564 0.06085 -0.02662
v -0.05325 0.03802 -0.00381
v -0.05325 0.06085 -0.01648
v -0.04057 0.03802 -0.02155
v -0.05578 0.03802 -0.02662
v -0.05325 -0.04057 -0.02155
v -0.04311 0.06085 -0.01141
v -0.05325 -0.04057 -0.00634
v -0.05578 0.03802 -0.01141
v -0.04057 -0.04057 -0.01901
v -0.05832 -0.04057 -0.01648
v -0.04564 0.02788 -0.02662
v -0.04818 0.06085 -0.00888
v -0.05832 -0.02027 -0.01141
v -0.05071 0.06085 -0.02662
v -0.05578 0.02280 -0.02662
v -0.04057 0.01520 -0.00634
v -0.04311 0.06085 -0.02155
v -0.05325 0.03042 -0.00381
v -0.04057 0.02027 -0.02155
v -0.05832 -0.02027 -0.01648
v -0.05578 0.04055 -0.01395
v -0.04564 0.03042 -0.00381
v -0.05325 0.06085 -0.01901
v -0.05071 0.06085 -0.01141
v -0.04564 0.06085 -0.00888
v -0.05325 0.00254 -0.03423
v -0.05578 -0.02282 -0.03423
v -0.05325 -0.03296 -0.03677
v -0.05071 -0.03042 -0.03170
v -0.05071 -0.01268 -0.03677
v -0.05578 0.00254 -0.03677
v -0.05578 -0.01521 -0.03170
v -0.05071 -0.01521 -0.03170
v -0.05071 -0.03296 -0.03677
v -0.05325 -0.03042 -0.03170
v -0.05578 -0.02028 -0.03677
v -0.04564 0.03549 -0.02916
v -0.05578 0.00254 -0.03677
v -0.05325 0.00254 -0.03677
v -0.04818 0.04311 -0.03677
v -0.05578 0.03549 -0.02662
v -0.04818 0.02282 -0.02662
v -0.04564 0.01775 -0.03677
v -0.05578 0.00507 -0.03170
v -0.05325 0.03043 -0.03677
v -0.04564 0.04564 -0.03170
v -0.04564 0.01775 -0.03170
v -0.05071 0.04564 -0.03423
v -0.04818 0.03803 -0.02662
v -0.05578 0.03296 -0.03170
v -0.05578 0.02282 -0.02662
v -0.05071 0.00507 -0.03423
v -0.04564 0.04311 -0.03677
v -0.05071 0.04564 -0.03170
v -0.05071 0.00761 -0.03170
v -0.05578 0.01268 -0.03677
f 176 184 197 
f 172 171 173 
f 171 172 174 
f 170 173 175 
f 171 174 176 
f 171 175 177 
f 175 173 177 
f 173 170 178 
f 173 171 180 
f 177 173 180 
f 176 174 181 
f 170 179 181 
f 179 176 181 
f 172 173 183 
f 173 178 183 
f 175 171 184 
f 170 175 186 
f 179 170 186 
f 174 172 187 
f 172 182 187 
f 185 174 187 
f 170 174 188 
f 178 170 188 
f 174 185 188 
f 185 178 188 
f 171 177 189 
f 180 171 189 
f 174 170 190 
f 170 181 190 
f 181 174 190 
f 175 184 191 
f 183 178 192 
f 178 185 192 
f 187 182 192 
f 185 187 192 
f 176 179 193 
f 186 175 193 
f 179 186 193 
f 175 191 193 
f 191 176 193 
f 182 172 194 
f 172 183 194 
f 183 192 194 
f 192 182 194 
f 177 180 195 
f 189 177 195 
f 180 189 195 
f 184 176 196 
f 176 191 196 
f 191 184 196 
f 171 176 197 
f 184 171 197 
