# Original object name hint: convex_2
v 0.04309 -0.07607 0.03168
v -0.05577 -0.06846 -0.04944
v -0.05577 -0.06593 -0.04944
v 0.04564 -0.07607 -0.04183
v 0.05832 -0.06086 0.00887
v -0.04562 -0.07860 0.00887
v -0.05071 -0.06086 0.00633
v -0.02533 -0.08114 -0.02409
v -0.05071 -0.06086 -0.04437
v 0.04309 -0.06593 -0.03930
v 0.05323 -0.07860 0.01140
v 0.02787 -0.07100 0.03423
v -0.04562 -0.07860 -0.03676
v -0.02280 -0.08114 0.01394
v -0.02533 -0.07607 0.02408
v -0.05832 -0.07100 -0.00635
v 0.04057 -0.07860 -0.03930
v 0.02280 -0.08114 0.01140
v 0.05577 -0.06086 -0.00381
v 0.02533 -0.07860 0.03168
v 0.03802 -0.06593 0.02662
v -0.05832 -0.06086 -0.00887
v 0.05577 -0.07607 -0.00887
v -0.05324 -0.07353 -0.04691
v -0.05577 -0.07607 -0.03168
v 0.05070 -0.06846 -0.03423
v -0.03802 -0.08114 0.00887
v 0.04564 -0.06340 -0.02916
v 0.05577 -0.07607 0.01647
v -0.05832 -0.06086 -0.03930
v 0.04309 -0.06846 -0.04183
v -0.05324 -0.07607 0.00380
v 0.02280 -0.06086 0.01140
v 0.04057 -0.06846 0.03168
v -0.02533 -0.07353 0.02408
v -0.05832 -0.07100 -0.04183
v 0.02280 -0.08114 0.00126
v 0.03802 -0.07860 0.03168
v 0.04564 -0.07860 -0.03423
v -0.04817 -0.07100 -0.04944
v 0.05832 -0.07100 0.00126
v 0.02787 -0.06846 0.03168
v 0.04816 -0.07100 0.02662
v -0.04817 -0.06593 -0.04944
v -0.01267 -0.08114 -0.02409
v 0.02787 -0.07607 0.03423
v -0.04817 -0.07607 0.00887
v -0.02280 -0.07860 0.02154
v -0.05577 -0.06340 0.00126
v 0.05323 -0.07860 -0.00381
v 0.04816 -0.07607 -0.03930
v 0.04816 -0.06593 -0.03676
v 0.05577 -0.06086 0.01140
v 0.05832 -0.06340 0.00126
v -0.05577 -0.07607 -0.01141
v -0.04817 -0.07860 -0.03423
v -0.04817 -0.07860 0.00380
v 0.03043 -0.06593 0.02662
v 0.03802 -0.07607 0.03423
v 0.05070 -0.07353 -0.03423
v 0.04564 -0.07860 0.02408
v -0.03802 -0.08114 0.00126
v 0.05577 -0.06846 0.01647
v 0.04564 -0.07100 -0.04183
v -0.05071 0.06846 -0.03422
v 0.00507 0.07607 0.03423
v 0.00507 0.07100 0.03423
v 0.00507 0.07607 -0.03422
v 0.00507 0.06085 -0.02154
v -0.04564 0.06085 0.00380
v -0.04310 0.07860 0.01901
v -0.04817 0.07860 -0.03422
v 0.00507 0.07860 -0.03169
v -0.05325 0.06085 -0.02154
v -0.04057 0.07100 0.02915
v 0.00507 0.06085 0.00633
v 0.00507 0.07860 0.03169
v -0.05071 0.07607 0.00633
v 0.00507 0.06846 -0.03422
v -0.05071 0.06085 -0.02661
v -0.05325 0.07607 -0.03169
v -0.03296 0.07860 0.02915
v -0.04817 0.07607 -0.03676
v -0.04310 0.06085 0.00633
v -0.05071 0.06846 0.00633
v -0.03043 0.07100 0.03169
v 0.00253 0.06846 0.02915
v -0.04310 0.07607 0.02662
v -0.03802 0.07100 -0.03676
v -0.05325 0.06085 -0.01394
v -0.05071 0.07860 -0.02154
v 0.00253 0.07860 -0.03422
v -0.05325 0.07353 -0.01394
v -0.03043 0.07607 0.03169
v -0.00761 0.07100 0.03423
v -0.04310 0.07100 0.02662
v -0.04310 0.06085 -0.02661
v -0.00507 0.07607 0.03423
v -0.05325 0.06846 -0.03169
v -0.04817 0.07860 0.00380
v -0.05325 0.07607 -0.01901
v -0.03802 0.07607 -0.03676
v -0.04057 0.07607 0.02915
v -0.04817 0.07100 -0.03676
v -0.04817 0.06339 0.00380
v 0.04310 0.04056 -0.03423
v 0.04310 0.05070 0.04944
v 0.04818 0.04563 0.04690
v 0.00507 -0.01774 0.00887
v 0.00507 0.07859 -0.03169
v 0.05832 -0.01774 0.02155
v 0.00507 0.07606 0.03423
v 0.04564 0.07606 -0.00887
v 0.00507 -0.01774 -0.02154
v 0.05578 -0.01774 -0.01901
v 0.03043 0.02537 0.04690
v 0.04056 0.07859 0.02916
v 0.05832 0.02537 0.00381
v 0.03549 -0.01520 0.03168
v 0.03549 0.07859 -0.03169
v 0.05578 0.04056 0.02409
v 0.04818 0.04563 -0.02915
v 0.05325 -0.00760 -0.02662
v 0.00507 0.06845 -0.03423
v 0.02283 0.08114 0.01901
v 0.01014 0.04056 0.03423
v 0.00507 -0.01267 -0.02408
v 0.05832 0.00762 -0.01394
v 0.05578 -0.01774 0.02662
v 0.04564 0.07606 0.02662
v 0.03803 0.08114 0.00128
v 0.04056 0.03548 0.04944
v 0.03296 0.07606 0.03676
v 0.03296 0.04816 0.04944
v 0.02536 0.02537 0.04437
v 0.00507 0.07859 0.03168
v 0.03549 0.07606 -0.03423
v 0.05578 0.04309 0.00635
v 0.05832 0.00255 0.02409
v 0.04056 0.07606 -0.02915
v 0.05071 0.04816 0.04184
v 0.05578 0.00508 -0.02408
v 0.03296 -0.01774 0.02916
v 0.05325 -0.01520 -0.02408
v 0.03803 0.04056 -0.03423
v 0.05832 -0.01774 -0.00379
v 0.03803 0.01776 0.04437
v 0.02283 0.03548 0.04437
v 0.04056 0.07606 0.03423
v 0.02029 0.07606 0.03676
v 0.02029 0.08114 0.00635
v 0.04818 0.04056 0.04690
v 0.00507 0.07099 0.03423
v 0.04310 0.07859 -0.01394
v 0.03296 0.08114 0.02155
v 0.04056 -0.01520 0.03168
v 0.00507 0.07606 -0.03423
v 0.00761 0.04309 0.03168
v 0.03549 0.05070 0.04944
v 0.02536 0.08114 -0.00125
v 0.04310 0.07859 0.02409
v 0.05832 -0.00760 0.02409
v 0.03803 0.07859 0.03168
v 0.04310 0.07606 -0.02154
v 0.05832 -0.00252 -0.01394
v 0.04310 0.03802 0.04944
v 0.04818 0.05070 0.04437
v 0.04564 0.04816 -0.03169
v 0.03296 0.03802 0.04944
v 0.00507 0.06085 0.00633
v -0.04057 -0.06086 -0.02409
v -0.04057 -0.06086 0.00633
v 0.00507 -0.06086 0.00633
v -0.04057 0.05832 0.00887
v 0.00507 0.04562 -0.02409
v -0.04057 0.03803 -0.02155
v 0.00507 -0.04817 -0.02409
v 0.00507 0.03549 0.01141
v -0.00254 0.06085 -0.01901
v 0.00507 -0.06086 -0.01901
v -0.04057 0.06085 -0.00127
v -0.02789 -0.03043 0.00887
v 0.00507 -0.04564 0.00887
v -0.02028 0.03043 -0.02409
v 0.00253 0.04815 0.01141
v 0.00507 0.06085 -0.01901
v -0.04057 0.02280 0.00887
v 0.00507 0.05832 0.00887
v -0.02535 -0.06086 -0.02409
v -0.04057 0.06085 0.00633
v -0.00254 0.04562 -0.02409
v 0.00253 0.03549 0.01141
v -0.00001 0.05578 -0.02155
v -0.01775 -0.03803 0.00887
v 0.00507 -0.05578 -0.02155
v -0.01522 0.03803 -0.02409
v -0.04057 -0.05832 -0.02409
v 0.02282 -0.05325 -0.03930
v 0.05071 -0.03803 -0.02409
v 0.05071 -0.05578 -0.02409
v 0.04310 -0.04564 -0.03930
v 0.03550 -0.04564 -0.02409
v 0.04310 -0.03803 -0.03170
v 0.03803 -0.05832 -0.02409
v 0.04310 -0.05325 -0.03930
v 0.02790 -0.04564 -0.03677
v 0.05071 -0.03803 -0.02916
v 0.04310 -0.03803 -0.02409
v 0.04817 -0.05832 -0.02662
v 0.04817 -0.05325 -0.03423
v 0.02536 -0.04818 -0.03423
v 0.03550 -0.05578 -0.02409
v 0.03296 -0.04564 -0.03930
v 0.02282 -0.05325 -0.03677
v 0.05071 -0.05325 -0.02916
v 0.02282 -0.05071 -0.03930
v 0.03803 -0.05832 -0.02662
v 0.04817 -0.04311 -0.03423
v 0.05578 -0.02536 0.02409
v 0.00507 -0.04817 -0.02409
v 0.00507 -0.05578 -0.02154
v 0.05071 -0.05832 -0.02409
v 0.05325 -0.01775 -0.02154
v 0.00507 -0.01775 0.00887
v 0.01268 -0.06086 0.00887
v 0.05832 -0.06086 0.00887
v 0.00507 -0.01775 -0.02154
v 0.03296 -0.03804 0.02916
v 0.04564 -0.01775 0.02916
v 0.00507 -0.06086 0.00633
v 0.05832 -0.01775 -0.00380
v 0.03803 -0.06086 -0.02409
v 0.05325 -0.03551 -0.02409
v 0.05578 -0.05832 0.01395
v 0.05832 -0.01775 0.01901
v 0.03549 -0.01775 0.02916
v 0.00507 -0.06086 -0.01647
v 0.00507 -0.05325 0.00887
v 0.05832 -0.06086 0.00380
v 0.04056 -0.03551 0.02916
v 0.02536 -0.06086 0.01141
v 0.05325 -0.04564 -0.02409
v 0.05578 -0.03804 0.02154
v 0.04818 -0.06086 -0.02409
v 0.05578 -0.02536 -0.01647
v 0.05832 -0.03551 0.01901
v 0.03296 -0.02790 0.02916
v 0.05325 -0.02029 0.02662
v 0.05832 -0.04310 -0.00126
v 0.00507 -0.04564 -0.02409
v 0.03549 -0.05832 0.01395
v 0.04564 -0.03551 -0.02409
v 0.05578 -0.06086 0.01141
v 0.03803 -0.03804 0.02916
v 0.05578 -0.01775 -0.01647
v 0.05578 -0.01775 0.02409
v -0.05071 -0.04057 0.00634
v -0.05578 -0.06085 -0.03930
v -0.05578 -0.05832 -0.03930
v -0.04057 -0.06085 -0.02662
v -0.05325 -0.06085 0.00380
v -0.04057 -0.04057 -0.02155
v -0.04057 -0.06085 0.00634
v -0.05832 -0.04057 -0.01648
v -0.04057 -0.04057 0.00634
v -0.05832 -0.06085 -0.00888
v -0.04818 -0.05832 -0.03930
v -0.05578 -0.04057 -0.02155
v -0.05832 -0.06085 -0.03169
v -0.05325 -0.04057 0.00380
v -0.05832 -0.04057 -0.01141
v -0.04564 -0.06085 -0.03676
v -0.04818 -0.06085 0.00634
v -0.04564 -0.05832 -0.03676
v -0.05832 -0.05071 -0.00888
v -0.04057 0.06085 0.00634
v -0.05325 -0.04057 -0.00127
v -0.05325 -0.04057 0.00380
v -0.04057 -0.04057 0.00634
v -0.04057 0.02535 -0.00380
v -0.05071 0.04055 -0.00380
v -0.04818 0.04055 0.00888
v -0.04057 -0.04057 -0.00127
v -0.05071 0.04310 0.00634
v -0.04564 0.06085 -0.00127
v -0.05071 -0.04057 0.00634
v -0.04057 0.02280 0.00888
v -0.04057 0.06085 -0.00127
v -0.05325 -0.00253 0.00127
v -0.04311 0.05577 0.00888
v -0.04564 0.06085 0.00380
v -0.05071 0.04563 -0.00127
v -0.04057 0.04055 -0.00380
v -0.05071 0.02788 -0.00380
v -0.05325 -0.00253 0.00380
v -0.04818 0.02788 0.00888
v -0.04057 0.05577 0.00888
v -0.05325 0.02027 -0.02662
v -0.04564 0.04055 -0.00381
v -0.04057 0.04055 -0.00888
v -0.04057 -0.04057 -0.00634
v -0.05832 -0.04057 -0.01141
v -0.04311 -0.04057 -0.02155
v -0.04564 0.06085 -0.02662
v -0.05325 0.03802 -0.00381
v -0.05325 0.06085 -0.01648
v -0.04057 0.03802 -0.02155
v -0.05578 0.03802 -0.02662
v -0.05325 -0.04057 -0.02155
v -0.04311 0.06085 -0.01141
v -0.05325 -0.04057 -0.00634
v -0.05578 0.03802 -0.01141
v -0.04057 -0.04057 -0.01901
v -0.05832 -0.04057 -0.01648
v -0.04564 0.02788 -0.02662
v -0.04818 0.06085 -0.00888
v -0.05832 -0.02027 -0.01141
v -0.05071 0.06085 -0.02662
v -0.05578 0.02280 -0.02662
v -0.04057 0.01520 -0.00634
v -0.04311 0.06085 -0.02155
v -0.05325 0.03042 -0.00381
v -0.04057 0.02027 -0.02155
v -0.05832 -0.02027 -0.01648
v -0.05578 0.04055 -0.01395
v -0.04564 0.03042 -0.00381
v -0.05325 0.06085 -0.01901
v -0.05071 0.06085 -0.01141
v -0.04564 0.06085 -0.00888
v -0.05325 0.00254 -0.03423
v -0.05578 -0.02282 -0.03423
v -0.05325 -0.03296 -0.03677
v -0.05071 -0.03042 -0.03170
v -0.05071 -0.01268 -0.03677
v -0.05578 0.00254 -0.03677
v -0.05578 -0.01521 -0.03170
v -0.05071 -0.01521 -0.03170
v -0.05071 -0.03296 -0.03677
v -0.05325 -0.03042 -0.03170
v -0.05578 -0.02028 -0.03677
v -0.04564 0.03549 -0.02916
v -0.05578 0.00254 -0.03677
v -0.05325 0.00254 -0.03677
v -0.04818 0.04311 -0.03677
v -0.05578 0.03549 -0.02662
v -0.04818 0.02282 -0.02662
v -0.04564 0.01775 -0.03677
v -0.05578 0.00507 -0.03170
v -0.05325 0.03043 -0.03677
v -0.04564 0.04564 -0.03170
v -0.04564 0.01775 -0.03170
v -0.05071 0.04564 -0.03423
v -0.04818 0.03803 -0.02662
v -0.05578 0.03296 -0.03170
v -0.05578 0.02282 -0.02662
v -0.05071 0.00507 -0.03423
v -0.04564 0.04311 -0.03677
v -0.05071 0.04564 -0.03170
v -0.05071 0.00761 -0.03170
v -0.05578 0.01268 -0.03677
f 148 116 169 
f 110 109 112 
f 109 110 114 
f 111 109 114 
f 111 114 115 
f 114 110 124 
f 114 124 127 
f 118 111 128 
f 109 111 129 
f 132 107 134 
f 119 116 135 
f 126 109 135 
f 110 112 136 
f 110 120 137 
f 106 124 137 
f 121 118 138 
f 122 113 138 
f 118 128 138 
f 128 122 138 
f 113 130 138 
f 130 121 138 
f 111 118 139 
f 118 121 139 
f 137 120 140 
f 121 130 141 
f 139 121 141 
f 123 106 142 
f 115 123 142 
f 122 128 142 
f 109 129 143 
f 135 109 143 
f 119 135 143 
f 115 114 144 
f 123 115 144 
f 127 123 144 
f 114 127 144 
f 106 123 145 
f 124 106 145 
f 123 127 145 
f 127 124 145 
f 111 115 146 
f 128 111 146 
f 116 119 147 
f 132 116 147 
f 129 132 147 
f 134 112 148 
f 135 116 148 
f 126 135 148 
f 130 117 149 
f 133 107 149 
f 107 133 150 
f 136 112 150 
f 133 136 150 
f 125 131 151 
f 110 136 151 
f 136 125 151 
f 108 107 152 
f 141 108 152 
f 112 109 153 
f 148 112 153 
f 126 148 153 
f 130 113 154 
f 120 131 154 
f 140 120 154 
f 131 125 155 
f 125 136 155 
f 143 129 156 
f 119 143 156 
f 147 119 156 
f 129 147 156 
f 124 110 157 
f 110 137 157 
f 137 124 157 
f 109 126 158 
f 153 109 158 
f 126 153 158 
f 134 107 159 
f 112 134 159 
f 107 150 159 
f 150 112 159 
f 120 110 160 
f 131 120 160 
f 110 151 160 
f 151 131 160 
f 117 130 161 
f 130 154 161 
f 154 131 161 
f 131 155 161 
f 155 117 161 
f 129 111 162 
f 111 139 162 
f 139 141 162 
f 152 129 162 
f 141 152 162 
f 136 133 163 
f 149 117 163 
f 133 149 163 
f 117 155 163 
f 155 136 163 
f 113 122 164 
f 122 140 164 
f 154 113 164 
f 140 154 164 
f 115 142 165 
f 142 128 165 
f 146 115 165 
f 128 146 165 
f 107 132 166 
f 132 129 166 
f 152 107 166 
f 129 152 166 
f 107 108 167 
f 108 141 167 
f 141 130 167 
f 149 107 167 
f 130 149 167 
f 106 137 168 
f 140 122 168 
f 137 140 168 
f 142 106 168 
f 122 142 168 
f 116 132 169 
f 132 134 169 
f 134 148 169 
