# Original object name hint: convex_5
v 0.04309 -0.07607 0.03168
v -0.05577 -0.06846 -0.04944
v -0.05577 -0.06593 -0.04944
v 0.04564 -0.07607 -0.04183
v 0.05832 -0.06086 0.00887
v -0.04562 -0.07860 0.00887
v -0.05071 -0.06086 0.00633
v -0.02533 -0.08114 -0.02409
v -0.05071 -0.06086 -0.04437
v 0.04309 -0.06593 -0.03930
v 0.05323 -0.07860 0.01140
v 0.02787 -0.07100 0.03423
v -0.04562 -0.07860 -0.03676
v -0.02280 -0.08114 0.01394
v -0.02533 -0.07607 0.02408
v -0.05832 -0.07100 -0.00635
v 0.04057 -0.07860 -0.03930
v 0.02280 -0.08114 0.01140
v 0.05577 -0.06086 -0.00381
v 0.02533 -0.07860 0.03168
v 0.03802 -0.06593 0.02662
v -0.05832 -0.06086 -0.00887
v 0.05577 -0.07607 -0.00887
v -0.05324 -0.07353 -0.04691
v -0.05577 -0.07607 -0.03168
v 0.05070 -0.06846 -0.03423
v -0.03802 -0.08114 0.00887
v 0.04564 -0.06340 -0.02916
v 0.05577 -0.07607 0.01647
v -0.05832 -0.06086 -0.03930
v 0.04309 -0.06846 -0.04183
v -0.05324 -0.07607 0.00380
v 0.02280 -0.06086 0.01140
v 0.04057 -0.06846 0.03168
v -0.02533 -0.07353 0.02408
v -0.05832 -0.07100 -0.04183
v 0.02280 -0.08114 0.00126
v 0.03802 -0.07860 0.03168
v 0.04564 -0.07860 -0.03423
v -0.04817 -0.07100 -0.04944
v 0.05832 -0.07100 0.00126
v 0.02787 -0.06846 0.03168
v 0.04816 -0.07100 0.02662
v -0.04817 -0.06593 -0.04944
v -0.01267 -0.08114 -0.02409
v 0.02787 -0.07607 0.03423
v -0.04817 -0.07607 0.00887
v -0.02280 -0.07860 0.02154
v -0.05577 -0.06340 0.00126
v 0.05323 -0.07860 -0.00381
v 0.04816 -0.07607 -0.03930
v 0.04816 -0.06593 -0.03676
v 0.05577 -0.06086 0.01140
v 0.05832 -0.06340 0.00126
v -0.05577 -0.07607 -0.01141
v -0.04817 -0.07860 -0.03423
v -0.04817 -0.07860 0.00380
v 0.03043 -0.06593 0.02662
v 0.03802 -0.07607 0.03423
v 0.05070 -0.07353 -0.03423
v 0.04564 -0.07860 0.02408
v -0.03802 -0.08114 0.00126
v 0.05577 -0.06846 0.01647
v 0.04564 -0.07100 -0.04183
v -0.05071 0.06846 -0.03422
v 0.00507 0.07607 0.03423
v 0.00507 0.07100 0.03423
v 0.00507 0.07607 -0.03422
v 0.00507 0.06085 -0.02154
v -0.04564 0.06085 0.00380
v -0.04310 0.07860 0.01901
v -0.04817 0.07860 -0.03422
v 0.00507 0.07860 -0.03169
v -0.05325 0.06085 -0.02154
v -0.04057 0.07100 0.02915
v 0.00507 0.06085 0.00633
v 0.00507 0.07860 0.03169
v -0.05071 0.07607 0.00633
v 0.00507 0.06846 -0.03422
v -0.05071 0.06085 -0.02661
v -0.05325 0.07607 -0.03169
v -0.03296 0.07860 0.02915
v -0.04817 0.07607 -0.03676
v -0.04310 0.06085 0.00633
v -0.05071 0.06846 0.00633
v -0.03043 0.07100 0.03169
v 0.00253 0.06846 0.02915
v -0.04310 0.07607 0.02662
v -0.03802 0.07100 -0.03676
v -0.05325 0.06085 -0.01394
v -0.05071 0.07860 -0.02154
v 0.00253 0.07860 -0.03422
v -0.05325 0.07353 -0.01394
v -0.03043 0.07607 0.03169
v -0.00761 0.07100 0.03423
v -0.04310 0.07100 0.02662
v -0.04310 0.06085 -0.02661
v -0.00507 0.07607 0.03423
v -0.05325 0.06846 -0.03169
v -0.04817 0.07860 0.00380
v -0.05325 0.07607 -0.01901
v -0.03802 0.07607 -0.03676
v -0.04057 0.07607 0.02915
v -0.04817 0.07100 -0.03676
v -0.04817 0.06339 0.00380
v 0.04310 0.04056 -0.03423
v 0.04310 0.05070 0.04944
v 0.04818 0.04563 0.04690
v 0.00507 -0.01774 0.00887
v 0.00507 0.07859 -0.03169
v 0.05832 -0.01774 0.02155
v 0.00507 0.07606 0.03423
v 0.04564 0.07606 -0.00887
v 0.00507 -0.01774 -0.02154
v 0.05578 -0.01774 -0.01901
v 0.03043 0.02537 0.04690
v 0.04056 0.07859 0.02916
v 0.05832 0.02537 0.00381
v 0.03549 -0.01520 0.03168
v 0.03549 0.07859 -0.03169
v 0.05578 0.04056 0.02409
v 0.04818 0.04563 -0.02915
v 0.05325 -0.00760 -0.02662
v 0.00507 0.06845 -0.03423
v 0.02283 0.08114 0.01901
v 0.01014 0.04056 0.03423
v 0.00507 -0.01267 -0.02408
v 0.05832 0.00762 -0.01394
v 0.05578 -0.01774 0.02662
v 0.04564 0.07606 0.02662
v 0.03803 0.08114 0.00128
v 0.04056 0.03548 0.04944
v 0.03296 0.07606 0.03676
v 0.03296 0.04816 0.04944
v 0.02536 0.02537 0.04437
v 0.00507 0.07859 0.03168
v 0.03549 0.07606 -0.03423
v 0.05578 0.04309 0.00635
v 0.05832 0.00255 0.02409
v 0.04056 0.07606 -0.02915
v 0.05071 0.04816 0.04184
v 0.05578 0.00508 -0.02408
v 0.03296 -0.01774 0.02916
v 0.05325 -0.01520 -0.02408
v 0.03803 0.04056 -0.03423
v 0.05832 -0.01774 -0.00379
v 0.03803 0.01776 0.04437
v 0.02283 0.03548 0.04437
v 0.04056 0.07606 0.03423
v 0.02029 0.07606 0.03676
v 0.02029 0.08114 0.00635
v 0.04818 0.04056 0.04690
v 0.00507 0.07099 0.03423
v 0.04310 0.07859 -0.01394
v 0.03296 0.08114 0.02155
v 0.04056 -0.01520 0.03168
v 0.00507 0.07606 -0.03423
v 0.00761 0.04309 0.03168
v 0.03549 0.05070 0.04944
v 0.02536 0.08114 -0.00125
v 0.04310 0.07859 0.02409
v 0.05832 -0.00760 0.02409
v 0.03803 0.07859 0.03168
v 0.04310 0.07606 -0.02154
v 0.05832 -0.00252 -0.01394
v 0.04310 0.03802 0.04944
v 0.04818 0.05070 0.04437
v 0.04564 0.04816 -0.03169
v 0.03296 0.03802 0.04944
v 0.00507 0.06085 0.00633
v -0.04057 -0.06086 -0.02409
v -0.04057 -0.06086 0.00633
v 0.00507 -0.06086 0.00633
v -0.04057 0.05832 0.00887
v 0.00507 0.04562 -0.02409
v -0.04057 0.03803 -0.02155
v 0.00507 -0.04817 -0.02409
v 0.00507 0.03549 0.01141
v -0.00254 0.06085 -0.01901
v 0.00507 -0.06086 -0.01901
v -0.04057 0.06085 -0.00127
v -0.02789 -0.03043 0.00887
v 0.00507 -0.04564 0.00887
v -0.02028 0.03043 -0.02409
v 0.00253 0.04815 0.01141
v 0.00507 0.06085 -0.01901
v -0.04057 0.02280 0.00887
v 0.00507 0.05832 0.00887
v -0.02535 -0.06086 -0.02409
v -0.04057 0.06085 0.00633
v -0.00254 0.04562 -0.02409
v 0.00253 0.03549 0.01141
v -0.00001 0.05578 -0.02155
v -0.01775 -0.03803 0.00887
v 0.00507 -0.05578 -0.02155
v -0.01522 0.03803 -0.02409
v -0.04057 -0.05832 -0.02409
v 0.02282 -0.05325 -0.03930
v 0.05071 -0.03803 -0.02409
v 0.05071 -0.05578 -0.02409
v 0.04310 -0.04564 -0.03930
v 0.03550 -0.04564 -0.02409
v 0.04310 -0.03803 -0.03170
v 0.03803 -0.05832 -0.02409
v 0.04310 -0.05325 -0.03930
v 0.02790 -0.04564 -0.03677
v 0.05071 -0.03803 -0.02916
v 0.04310 -0.03803 -0.02409
v 0.04817 -0.05832 -0.02662
v 0.04817 -0.05325 -0.03423
v 0.02536 -0.04818 -0.03423
v 0.03550 -0.05578 -0.02409
v 0.03296 -0.04564 -0.03930
v 0.02282 -0.05325 -0.03677
v 0.05071 -0.05325 -0.02916
v 0.02282 -0.05071 -0.03930
v 0.03803 -0.05832 -0.02662
v 0.04817 -0.04311 -0.03423
v 0.05578 -0.02536 0.02409
v 0.00507 -0.04817 -0.02409
v 0.00507 -0.05578 -0.02154
v 0.05071 -0.05832 -0.02409
v 0.05325 -0.01775 -0.02154
v 0.00507 -0.01775 0.00887
v 0.01268 -0.06086 0.00887
v 0.05832 -0.06086 0.00887
v 0.00507 -0.01775 -0.02154
v 0.03296 -0.03804 0.02916
v 0.04564 -0.01775 0.02916
v 0.00507 -0.06086 0.00633
v 0.05832 -0.01775 -0.00380
v 0.03803 -0.06086 -0.02409
v 0.05325 -0.03551 -0.02409
v 0.05578 -0.05832 0.01395
v 0.05832 -0.01775 0.01901
v 0.03549 -0.01775 0.02916
v 0.00507 -0.06086 -0.01647
v 0.00507 -0.05325 0.00887
v 0.05832 -0.06086 0.00380
v 0.04056 -0.03551 0.02916
v 0.02536 -0.06086 0.01141
v 0.05325 -0.04564 -0.02409
v 0.05578 -0.03804 0.02154
v 0.04818 -0.06086 -0.02409
v 0.05578 -0.02536 -0.01647
v 0.05832 -0.03551 0.01901
v 0.03296 -0.02790 0.02916
v 0.05325 -0.02029 0.02662
v 0.05832 -0.04310 -0.00126
v 0.00507 -0.04564 -0.02409
v 0.03549 -0.05832 0.01395
v 0.04564 -0.03551 -0.02409
v 0.05578 -0.06086 0.01141
v 0.03803 -0.03804 0.02916
v 0.05578 -0.01775 -0.01647
v 0.05578 -0.01775 0.02409
v -0.05071 -0.04057 0.00634
v -0.05578 -0.06085 -0.03930
v -0.05578 -0.05832 -0.03930
v -0.04057 -0.06085 -0.02662
v -0.05325 -0.06085 0.00380
v -0.04057 -0.04057 -0.02155
v -0.04057 -0.06085 0.00634
v -0.05832 -0.04057 -0.01648
v -0.04057 -0.04057 0.00634
v -0.05832 -0.06085 -0.00888
v -0.04818 -0.05832 -0.03930
v -0.05578 -0.04057 -0.02155
v -0.05832 -0.06085 -0.03169
v -0.05325 -0.04057 0.00380
v -0.05832 -0.04057 -0.01141
v -0.04564 -0.06085 -0.03676
v -0.04818 -0.06085 0.00634
v -0.04564 -0.05832 -0.03676
v -0.05832 -0.05071 -0.00888
v -0.04057 0.06085 0.00634
v -0.05325 -0.04057 -0.00127
v -0.05325 -0.04057 0.00380
v -0.04057 -0.04057 0.00634
v -0.04057 0.02535 -0.00380
v -0.05071 0.04055 -0.00380
v -0.04818 0.04055 0.00888
v -0.04057 -0.04057 -0.00127
v -0.05071 0.04310 0.00634
v -0.04564 0.06085 -0.00127
v -0.05071 -0.04057 0.00634
v -0.04057 0.02280 0.00888
v -0.04057 0.06085 -0.00127
v -0.05325 -0.00253 0.00127
v -0.04311 0.05577 0.00888
v -0.04564 0.06085 0.00380
v -0.05071 0.04563 -0.00127
v -0.04057 0.04055 -0.00380
v -0.05071 0.02788 -0.00380
v -0.05325 -0.00253 0.00380
v -0.04818 0.02788 0.00888
v -0.04057 0.05577 0.00888
v -0.05325 0.02027 -0.02662
v -0.04564 0.04055 -0.00381
v -0.04057 0.04055 -0.00888
v -0.04057 -0.04057 -0.00634
v -0.05832 -0.04057 -0.01141
v -0.04311 -0.04057 -0.02155
v -0.04564 0.06085 -0.02662
v -0.05325 0.03802 -0.00381
v -0.05325 0.06085 -0.01648
v -0.04057 0.03802 -0.02155
v -0.05578 0.03802 -0.02662
v -0.05325 -0.04057 -0.02155
v -0.04311 0.06085 -0.01141
v -0.05325 -0.04057 -0.00634
v -0.05578 0.03802 -0.01141
v -0.04057 -0.04057 -0.01901
v -0.05832 -0.04057 -0.01648
v -0.04564 0.02788 -0.02662
v -0.04818 0.06085 -0.00888
v -0.05832 -0.02027 -0.01141
v -0.05071 0.06085 -0.02662
v -0.05578 0.02280 -0.02662
v -0.04057 0.01520 -0.00634
v -0.04311 0.06085 -0.02155
v -0.05325 0.03042 -0.00381
v -0.04057 0.02027 -0.02155
v -0.05832 -0.02027 -0.01648
v -0.05578 0.04055 -0.01395
v -0.04564 0.03042 -0.00381
v -0.05325 0.06085 -0.01901
v -0.05071 0.06085 -0.01141
v -0.04564 0.06085 -0.00888
v -0.05325 0.00254 -0.03423
v -0.05578 -0.02282 -0.03423
v -0.05325 -0.03296 -0.03677
v -0.05071 -0.03042 -0.03170
v -0.05071 -0.01268 -0.03677
v -0.05578 0.00254 -0.03677
v -0.05578 -0.01521 -0.03170
v -0.05071 -0.01521 -0.03170
v -0.05071 -0.03296 -0.03677
v -0.05325 -0.03042 -0.03170
v -0.05578 -0.02028 -0.03677
v -0.04564 0.03549 -0.02916
v -0.05578 0.00254 -0.03677
v -0.05325 0.00254 -0.03677
v -0.04818 0.04311 -0.03677
v -0.05578 0.03549 -0.02662
v -0.04818 0.02282 -0.02662
v -0.04564 0.01775 -0.03677
v -0.05578 0.00507 -0.03170
v -0.05325 0.03043 -0.03677
v -0.04564 0.04564 -0.03170
v -0.04564 0.01775 -0.03170
v -0.05071 0.04564 -0.03423
v -0.04818 0.03803 -0.02662
v -0.05578 0.03296 -0.03170
v -0.05578 0.02282 -0.02662
v -0.05071 0.00507 -0.03423
v -0.04564 0.04311 -0.03677
v -0.05071 0.04564 -0.03170
v -0.05071 0.00761 -0.03170
v -0.05578 0.01268 -0.03677
f 229 248 256 
f 220 221 224 
f 220 224 227 
f 224 223 227 
f 223 224 229 
f 224 221 230 
f 226 225 230 
f 225 228 230 
f 223 229 231 
f 221 220 232 
f 220 222 232 
f 226 230 232 
f 222 220 233 
f 227 223 233 
f 226 231 235 
f 231 229 235 
f 229 224 236 
f 228 229 236 
f 230 221 237 
f 221 232 237 
f 232 230 237 
f 228 224 238 
f 224 230 238 
f 230 228 238 
f 231 226 239 
f 226 232 239 
f 229 228 240 
f 225 226 241 
f 228 225 241 
f 222 233 242 
f 239 222 242 
f 240 234 243 
f 232 222 244 
f 222 239 244 
f 239 232 244 
f 242 233 245 
f 234 226 246 
f 235 219 246 
f 226 235 246 
f 243 234 246 
f 219 243 246 
f 224 228 247 
f 236 224 247 
f 228 236 247 
f 229 240 248 
f 243 219 248 
f 240 243 248 
f 231 239 249 
f 239 242 249 
f 245 231 249 
f 242 245 249 
f 220 227 250 
f 233 220 250 
f 234 228 251 
f 228 241 251 
f 241 234 251 
f 227 233 252 
f 250 227 252 
f 233 250 252 
f 226 234 253 
f 241 226 253 
f 234 241 253 
f 228 234 254 
f 240 228 254 
f 234 240 254 
f 223 231 255 
f 233 223 255 
f 231 245 255 
f 245 233 255 
f 219 235 256 
f 235 229 256 
f 248 219 256 
