# Original object name hint: convex_1
v 0.04309 -0.07607 0.03168
v -0.05577 -0.06846 -0.04944
v -0.05577 -0.06593 -0.04944
v 0.04564 -0.07607 -0.04183
v 0.05832 -0.06086 0.00887
v -0.04562 -0.07860 0.00887
v -0.05071 -0.06086 0.00633
v -0.02533 -0.08114 -0.02409
v -0.05071 -0.06086 -0.04437
v 0.04309 -0.06593 -0.03930
v 0.05323 -0.07860 0.01140
v 0.02787 -0.07100 0.03423
v -0.04562 -0.07860 -0.03676
v -0.02280 -0.08114 0.01394
v -0.02533 -0.07607 0.02408
v -0.05832 -0.07100 -0.00635
v 0.04057 -0.07860 -0.03930
v 0.02280 -0.08114 0.01140
v 0.05577 -0.06086 -0.00381
v 0.02533 -0.07860 0.03168
v 0.03802 -0.06593 0.02662
v -0.05832 -0.06086 -0.00887
v 0.05577 -0.07607 -0.00887
v -0.05324 -0.07353 -0.04691
v -0.05577 -0.07607 -0.03168
v 0.05070 -0.06846 -0.03423
v -0.03802 -0.08114 0.00887
v 0.04564 -0.06340 -0.02916
v 0.05577 -0.07607 0.01647
v -0.05832 -0.06086 -0.03930
v 0.04309 -0.06846 -0.04183
v -0.05324 -0.07607 0.00380
v 0.02280 -0.06086 0.01140
v 0.04057 -0.06846 0.03168
v -0.02533 -0.07353 0.02408
v -0.05832 -0.07100 -0.04183
v 0.02280 -0.08114 0.00126
v 0.03802 -0.07860 0.03168
v 0.04564 -0.07860 -0.03423
v -0.04817 -0.07100 -0.04944
v 0.05832 -0.07100 0.00126
v 0.02787 -0.06846 0.03168
v 0.04816 -0.07100 0.02662
v -0.04817 -0.06593 -0.04944
v -0.01267 -0.08114 -0.02409
v 0.02787 -0.07607 0.03423
v -0.04817 -0.07607 0.00887
v -0.02280 -0.07860 0.02154
v -0.05577 -0.06340 0.00126
v 0.05323 -0.07860 -0.00381
v 0.04816 -0.07607 -0.03930
v 0.04816 -0.06593 -0.03676
v 0.05577 -0.06086 0.01140
v 0.05832 -0.06340 0.00126
v -0.05577 -0.07607 -0.01141
v -0.04817 -0.07860 -0.03423
v -0.04817 -0.07860 0.00380
v 0.03043 -0.06593 0.02662
v 0.03802 -0.07607 0.03423
v 0.05070 -0.07353 -0.03423
v 0.04564 -0.07860 0.02408
v -0.03802 -0.08114 0.00126
v 0.05577 -0.06846 0.01647
v 0.04564 -0.07100 -0.04183
v -0.05071 0.06846 -0.03422
v 0.00507 0.07607 0.03423
v 0.00507 0.07100 0.03423
v 0.00507 0.07607 -0.03422
v 0.00507 0.06085 -0.02154
v -0.04564 0.06085 0.00380
v -0.04310 0.07860 0.01901
v -0.04817 0.07860 -0.03422
v 0.00507 0.07860 -0.03169
v -0.05325 0.06085 -0.02154
v -0.04057 0.07100 0.02915
v 0.00507 0.06085 0.00633
v 0.00507 0.07860 0.03169
v -0.05071 0.07607 0.00633
v 0.00507 0.06846 -0.03422
v -0.05071 0.06085 -0.02661
v -0.05325 0.07607 -0.03169
v -0.03296 0.07860 0.02915
v -0.04817 0.07607 -0.03676
v -0.04310 0.06085 0.00633
v -0.05071 0.06846 0.00633
v -0.03043 0.07100 0.03169
v 0.00253 0.06846 0.02915
v -0.04310 0.07607 0.02662
v -0.03802 0.07100 -0.03676
v -0.05325 0.06085 -0.01394
v -0.05071 0.07860 -0.02154
v 0.00253 0.07860 -0.03422
v -0.05325 0.07353 -0.01394
v -0.03043 0.07607 0.03169
v -0.00761 0.07100 0.03423
v -0.04310 0.07100 0.02662
v -0.04310 0.06085 -0.02661
v -0.00507 0.07607 0.03423
v -0.05325 0.06846 -0.03169
v -0.04817 0.07860 0.00380
v -0.05325 0.07607 -0.01901
v -0.03802 0.07607 -0.03676
v -0.04057 0.07607 0.02915
v -0.04817 0.07100 -0.03676
v -0.04817 0.06339 0.00380
v 0.04310 0.04056 -0.03423
v 0.04310 0.05070 0.04944
v 0.04818 0.04563 0.04690
v 0.00507 -0.01774 0.00887
v 0.00507 0.07859 -0.03169
v 0.05832 -0.01774 0.02155
v 0.00507 0.07606 0.03423
v 0.04564 0.07606 -0.00887
v 0.00507 -0.01774 -0.02154
v 0.05578 -0.01774 -0.01901
v 0.03043 0.02537 0.04690
v 0.04056 0.07859 0.02916
v 0.05832 0.02537 0.00381
v 0.03549 -0.01520 0.03168
v 0.03549 0.07859 -0.03169
v 0.05578 0.04056 0.02409
v 0.04818 0.04563 -0.02915
v 0.05325 -0.00760 -0.02662
v 0.00507 0.06845 -0.03423
v 0.02283 0.08114 0.01901
v 0.01014 0.04056 0.03423
v 0.00507 -0.01267 -0.02408
v 0.05832 0.00762 -0.01394
v 0.05578 -0.01774 0.02662
v 0.04564 0.07606 0.02662
v 0.03803 0.08114 0.00128
v 0.04056 0.03548 0.04944
v 0.03296 0.07606 0.03676
v 0.03296 0.04816 0.04944
v 0.02536 0.02537 0.04437
v 0.00507 0.07859 0.03168
v 0.03549 0.07606 -0.03423
v 0.05578 0.04309 0.00635
v 0.05832 0.00255 0.02409
v 0.04056 0.07606 -0.02915
v 0.05071 0.04816 0.04184
v 0.05578 0.00508 -0.02408
v 0.03296 -0.01774 0.02916
v 0.05325 -0.01520 -0.02408
v 0.03803 0.04056 -0.03423
v 0.05832 -0.01774 -0.00379
v 0.03803 0.01776 0.04437
v 0.02283 0.03548 0.04437
v 0.04056 0.07606 0.03423
v 0.02029 0.07606 0.03676
v 0.02029 0.08114 0.00635
v 0.04818 0.04056 0.04690
v 0.00507 0.07099 0.03423
v 0.04310 0.07859 -0.01394
v 0.03296 0.08114 0.02155
v 0.04056 -0.01520 0.03168
v 0.00507 0.07606 -0.03423
v 0.00761 0.04309 0.03168
v 0.03549 0.05070 0.04944
v 0.02536 0.08114 -0.00125
v 0.04310 0.07859 0.02409
v 0.05832 -0.00760 0.02409
v 0.03803 0.07859 0.03168
v 0.04310 0.07606 -0.02154
v 0.05832 -0.00252 -0.01394
v 0.04310 0.03802 0.04944
v 0.04818 0.05070 0.04437
v 0.04564 0.04816 -0.03169
v 0.03296 0.03802 0.04944
v 0.00507 0.06085 0.00633
v -0.04057 -0.06086 -0.02409
v -0.04057 -0.06086 0.00633
v 0.00507 -0.06086 0.00633
v -0.04057 0.05832 0.00887
v 0.00507 0.04562 -0.02409
v -0.04057 0.03803 -0.02155
v 0.00507 -0.04817 -0.02409
v 0.00507 0.03549 0.01141
v -0.00254 0.06085 -0.01901
v 0.00507 -0.06086 -0.01901
v -0.04057 0.06085 -0.00127
v -0.02789 -0.03043 0.00887
v 0.00507 -0.04564 0.00887
v -0.02028 0.03043 -0.02409
v 0.00253 0.04815 0.01141
v 0.00507 0.06085 -0.01901
v -0.04057 0.02280 0.00887
v 0.00507 0.05832 0.00887
v -0.02535 -0.06086 -0.02409
v -0.04057 0.06085 0.00633
v -0.00254 0.04562 -0.02409
v 0.00253 0.03549 0.01141
v -0.00001 0.05578 -0.02155
v -0.01775 -0.03803 0.00887
v 0.00507 -0.05578 -0.02155
v -0.01522 0.03803 -0.02409
v -0.04057 -0.05832 -0.02409
v 0.02282 -0.05325 -0.03930
v 0.05071 -0.03803 -0.02409
v 0.05071 -0.05578 -0.02409
v 0.04310 -0.04564 -0.03930
v 0.03550 -0.04564 -0.02409
v 0.04310 -0.03803 -0.03170
v 0.03803 -0.05832 -0.02409
v 0.04310 -0.05325 -0.03930
v 0.02790 -0.04564 -0.03677
v 0.05071 -0.03803 -0.02916
v 0.04310 -0.03803 -0.02409
v 0.04817 -0.05832 -0.02662
v 0.04817 -0.05325 -0.03423
v 0.02536 -0.04818 -0.03423
v 0.03550 -0.05578 -0.02409
v 0.03296 -0.04564 -0.03930
v 0.02282 -0.05325 -0.03677
v 0.05071 -0.05325 -0.02916
v 0.02282 -0.05071 -0.03930
v 0.03803 -0.05832 -0.02662
v 0.04817 -0.04311 -0.03423
v 0.05578 -0.02536 0.02409
v 0.00507 -0.04817 -0.02409
v 0.00507 -0.05578 -0.02154
v 0.05071 -0.05832 -0.02409
v 0.05325 -0.01775 -0.02154
v 0.00507 -0.01775 0.00887
v 0.01268 -0.06086 0.00887
v 0.05832 -0.06086 0.00887
v 0.00507 -0.01775 -0.02154
v 0.03296 -0.03804 0.02916
v 0.04564 -0.01775 0.02916
v 0.00507 -0.06086 0.00633
v 0.05832 -0.01775 -0.00380
v 0.03803 -0.06086 -0.02409
v 0.05325 -0.03551 -0.02409
v 0.05578 -0.05832 0.01395
v 0.05832 -0.01775 0.01901
v 0.03549 -0.01775 0.02916
v 0.00507 -0.06086 -0.01647
v 0.00507 -0.05325 0.00887
v 0.05832 -0.06086 0.00380
v 0.04056 -0.03551 0.02916
v 0.02536 -0.06086 0.01141
v 0.05325 -0.04564 -0.02409
v 0.05578 -0.03804 0.02154
v 0.04818 -0.06086 -0.02409
v 0.05578 -0.02536 -0.01647
v 0.05832 -0.03551 0.01901
v 0.03296 -0.02790 0.02916
v 0.05325 -0.02029 0.02662
v 0.05832 -0.04310 -0.00126
v 0.00507 -0.04564 -0.02409
v 0.03549 -0.05832 0.01395
v 0.04564 -0.03551 -0.02409
v 0.05578 -0.06086 0.01141
v 0.03803 -0.03804 0.02916
v 0.05578 -0.01775 -0.01647
v 0.05578 -0.01775 0.02409
v -0.05071 -0.04057 0.00634
v -0.05578 -0.06085 -0.03930
v -0.05578 -0.05832 -0.03930
v -0.04057 -0.06085 -0.02662
v -0.05325 -0.06085 0.00380
v -0.04057 -0.04057 -0.02155
v -0.04057 -0.06085 0.00634
v -0.05832 -0.04057 -0.01648
v -0.04057 -0.04057 0.00634
v -0.05832 -0.06085 -0.00888
v -0.04818 -0.05832 -0.03930
v -0.05578 -0.04057 -0.02155
v -0.05832 -0.06085 -0.03169
v -0.05325 -0.04057 0.00380
v -0.05832 -0.04057 -0.01141
v -0.04564 -0.06085 -0.03676
v -0.04818 -0.06085 0.00634
v -0.04564 -0.05832 -0.03676
v -0.05832 -0.05071 -0.00888
v -0.04057 0.06085 0.00634
v -0.05325 -0.04057 -0.00127
v -0.05325 -0.04057 0.00380
v -0.04057 -0.04057 0.00634
v -0.04057 0.02535 -0.00380
v -0.05071 0.04055 -0.00380
v -0.04818 0.04055 0.00888
v -0.04057 -0.04057 -0.00127
v -0.05071 0.04310 0.00634
v -0.04564 0.06085 -0.00127
v -0.05071 -0.04057 0.00634
v -0.04057 0.02280 0.00888
v -0.04057 0.06085 -0.00127
v -0.05325 -0.00253 0.00127
v -0.04311 0.05577 0.00888
v -0.04564 0.06085 0.00380
v -0.05071 0.04563 -0.00127
v -0.04057 0.04055 -0.00380
v -0.05071 0.02788 -0.00380
v -0.05325 -0.00253 0.00380
v -0.04818 0.02788 0.00888
v -0.04057 0.05577 0.00888
v -0.05325 0.02027 -0.02662
v -0.04564 0.04055 -0.00381
v -0.04057 0.04055 -0.00888
v -0.04057 -0.04057 -0.00634
v -0.05832 -0.04057 -0.01141
v -0.04311 -0.04057 -0.02155
v -0.04564 0.06085 -0.02662
v -0.05325 0.03802 -0.00381
v -0.05325 0.06085 -0.01648
v -0.04057 0.03802 -0.02155
v -0.05578 0.03802 -0.02662
v -0.05325 -0.04057 -0.02155
v -0.04311 0.06085 -0.01141
v -0.05325 -0.04057 -0.00634
v -0.05578 0.03802 -0.01141
v -0.04057 -0.04057 -0.01901
v -0.05832 -0.04057 -0.01648
v -0.04564 0.02788 -0.02662
v -0.04818 0.06085 -0.00888
v -0.05832 -0.02027 -0.01141
v -0.05071 0.06085 -0.02662
v -0.05578 0.02280 -0.02662
v -0.04057 0.01520 -0.00634
v -0.04311 0.06085 -0.02155
v -0.05325 0.03042 -0.00381
v -0.04057 0.02027 -0.02155
v -0.05832 -0.02027 -0.01648
v -0.05578 0.04055 -0.01395
v -0.04564 0.03042 -0.00381
v -0.05325 0.06085 -0.01901
v -0.05071 0.06085 -0.01141
v -0.04564 0.06085 -0.00888
v -0.05325 0.00254 -0.03423
v -0.05578 -0.02282 -0.03423
v -0.05325 -0.03296 -0.03677
v -0.05071 -0.03042 -0.03170
v -0.05071 -0.01268 -0.03677
v -0.05578 0.00254 -0.03677
v -0.05578 -0.01521 -0.03170
v -0.05071 -0.01521 -0.03170
v -0.05071 -0.03296 -0.03677
v -0.05325 -0.03042 -0.03170
v -0.05578 -0.02028 -0.03677
v -0.04564 0.03549 -0.02916
v -0.05578 0.00254 -0.03677
v -0.05325 0.00254 -0.03677
v -0.04818 0.04311 -0.03677
v -0.05578 0.03549 -0.02662
v -0.04818 0.02282 -0.02662
v -0.04564 0.01775 -0.03677
v -0.05578 0.00507 -0.03170
v -0.05325 0.03043 -0.03677
v -0.04564 0.04564 -0.03170
v -0.04564 0.01775 -0.03170
v -0.05071 0.04564 -0.03423
v -0.04818 0.03803 -0.02662
v -0.05578 0.03296 -0.03170
v -0.05578 0.02282 -0.02662
v -0.05071 0.00507 -0.03423
v -0.04564 0.04311 -0.03677
v -0.05071 0.04564 -0.03170
v -0.05071 0.00761 -0.03170
v -0.05578 0.01268 -0.03677
f 96 85 105 
f 66 67 68 
f 68 67 69 
f 66 68 73 
f 72 71 73 
f 69 70 74 
f 69 67 76 
f 70 69 76 
f 66 73 77 
f 73 71 77 
f 68 69 79 
f 69 74 80 
f 77 71 82 
f 81 72 83 
f 75 70 84 
f 70 76 84 
f 75 84 86 
f 76 67 87 
f 84 76 87 
f 71 78 88 
f 78 85 88 
f 68 79 89 
f 74 70 90 
f 81 74 90 
f 85 78 90 
f 71 72 91 
f 72 81 91 
f 73 68 92 
f 72 73 92 
f 83 72 92 
f 81 90 93 
f 90 78 93 
f 75 86 94 
f 67 66 95 
f 86 84 95 
f 84 87 95 
f 87 67 95 
f 94 86 95 
f 70 75 96 
f 75 88 96 
f 88 85 96 
f 79 69 97 
f 69 80 97 
f 89 79 97 
f 80 89 97 
f 66 77 98 
f 77 82 98 
f 82 94 98 
f 95 66 98 
f 94 95 98 
f 65 80 99 
f 80 74 99 
f 74 81 99 
f 81 83 99 
f 78 71 100 
f 71 91 100 
f 100 91 101 
f 91 81 101 
f 93 78 101 
f 81 93 101 
f 78 100 101 
f 68 89 102 
f 89 83 102 
f 92 68 102 
f 83 92 102 
f 82 71 103 
f 71 88 103 
f 88 75 103 
f 94 82 103 
f 75 94 103 
f 80 65 104 
f 89 80 104 
f 83 89 104 
f 65 99 104 
f 99 83 104 
f 90 70 105 
f 85 90 105 
f 70 96 105 
