# Created by Open3D 
# object name: convex_2_coll
# number of vertices: 14
# number of triangles: 24
v -0.03729 0.0021475 0.03155
v 0.02581 0.02008 0.01721
v 0.02581 -0.01147 0.01148
v -0.02724 0.015775 0.01148
v -0.023655 -0.002865 0.01148
v 0.02581 0.02008 0.01148
v -0.02868 0.01721 0.03442
v -0.030115 -0.015775 0.03442
v -0.02007 -0.01721 0.03442
v 0.02581 0.00573 0.02581
v -0.01434 0.01721 0.03442
v -0.00574 0.02008 0.01148
v -0.002875 -0.00287 0.03442
v -0.02868 -0.01721 0.02868
f 4 3 5
f 2 3 6
f 3 4 6
f 7 8 9
f 3 2 10
f 7 9 11
f 2 6 12
f 6 4 12
f 1 4 5
f 2 7 11
f 8 7 1
f 11 9 13
f 3 10 9
f 8 1 14
f 1 5 14
f 2 11 10
f 7 4 1
f 14 5 3
f 3 9 14
f 7 2 12
f 14 9 8
f 9 10 13
f 11 13 10
f 12 4 7
