# Created by Open3D 
# object name: convex_0_coll
# number of vertices: 14
# number of triangles: 24
v 0.02581 0.030105 -0.020075
v 0.02581 -0.028675 -0.020075
v 0.02581 0.004305 0.02295
v 0.02581 0.03154 0.00574
v 0.06166 -0.032975 -0.030115
v 0.06309 0.02007 -0.03442
v 0.042315 -0.0329725 0.00574
v 0.06309 0.04588 0.00574
v 0.06883 0.04876 -0.00574
v 0.084605 0.03154 0
v 0.06883 -0.03154 0.01147
v 0.0824525 -0.014335 -0.01362
v 0.09178 0.007175 0.00574
v 0.07672 0.009325 0.018645
f 2 3 1
f 1 3 4
f 6 2 1
f 4 8 9
f 5 12 11
f 7 5 11
f 13 12 6
f 10 13 6
f 9 10 6
f 3 2 7
f 8 4 3
f 10 8 14
f 13 10 14
f 6 12 5
f 5 2 6
f 13 11 12
f 4 9 1
f 10 9 8
f 14 8 3
f 2 5 7
f 11 13 14
f 3 7 11
f 11 14 3
f 9 6 1
