# Created by Open3D 
# object name: convex_1_coll
# number of vertices: 14
# number of triangles: 24
v -0.00718 -0.0545 -0.011475
v 0.02581 -0.0279575 -0.0207875
v 0.02581 -0.01434 0.01147
v 0.02581 0.030115 -0.021505
v 0.00859 0.0545 -0.00287
v 0.02581 0.02581 0.01147
v -0.08604 0.0086 0.01147
v -0.07744 -0.03155 0.0086
v -0.076 0.04302 0.004295
v -0.07456 0.04588 -0.03155
v -0.07098 -0.038715 -0.03155
v -0.00862 -0.02868 -0.02867
v -0.09179 0.015765 -0.017205
v -0.08891 -0.015775 -0.004305
f 3 2 4
f 3 4 6
f 6 7 3
f 7 9 10
f 8 3 7
f 12 4 2
f 5 10 9
f 13 14 7
f 2 1 12
f 14 11 8
f 8 11 1
f 12 1 11
f 13 10 11
f 4 12 10
f 12 11 10
f 4 10 5
f 9 6 5
f 8 7 14
f 13 7 10
f 13 11 14
f 9 7 6
f 6 4 5
f 2 3 1
f 3 8 1
