# Created by Open3D 
# object name: convex_0_coll
# number of vertices: 14
# number of triangles: 24
v 0.06656 0.00104 0.02911
v 0.06447 0.01352 0.03328
v 0.06656 0.02028 -0.0088425
v 0.04576 -0.00104 0.03119
v 0.04576 0.01144 0.03119
v 0.06239 0.04473 -1e-05
v 0.05616 0.04473 -0.02912
v 0.04888 -0.0384725 -0.0005275
v 0.04836 0.0104 -0.0325
v 0.052 -0.03639 -0.03536
v 0.05928 -0.037435 -0.03328
v 0.05616 -0.0468 0.00415
v 0.06239 -0.04055 0.00104
v 0.059795 0.0234012 -0.03718
f 8 9 10
f 9 8 5
f 6 5 2
f 1 3 2
f 5 7 9
f 12 4 8
f 6 7 5
f 13 11 3
f 4 5 8
f 13 3 1
f 10 14 11
f 14 7 6
f 3 14 6
f 9 7 14
f 13 1 12
f 5 4 2
f 3 11 14
f 12 8 10
f 12 10 13
f 10 11 13
f 2 4 1
f 4 12 1
f 9 14 10
f 6 2 3
