# Created by Open3D 
# object name: convex_3_coll
# number of vertices: 14
# number of triangles: 24
v 0.02703 -0.00103 0.02496
v 0.02495 0.003125 0.03952
v 0.02703 0.0156 0.03535
v 0.02703 0.01352 0.02496
v -1e-05 0.0052 0.0208
v -0.02289 -0.01143 0.03639
v -0.02393 0.0052 0.03535
v -0.02289 0.00728 0.03952
v -0.00833 -0.00623 0.03952
v 0.00415 -0.00727 0.0208
v 0.01767 -0.0156 0.03016
v -0.00832 0.01768 0.03535
v 0.01038 0.01976 0.02912
v -0.00832 0.01768 0.0312
f 1 4 3
f 5 6 7
f 2 8 9
f 1 3 2
f 10 5 4
f 1 10 4
f 14 8 12
f 9 8 6
f 11 2 9
f 10 6 5
f 6 10 11
f 8 14 7
f 3 13 14
f 12 3 14
f 10 1 11
f 5 13 4
f 11 9 6
f 13 5 14
f 3 4 13
f 12 2 3
f 2 12 8
f 7 6 8
f 5 7 14
f 11 1 2
