# Created by Open3D 
# object name: convex_4_coll
# number of vertices: 14
# number of triangles: 24
v 0.02808 0.0156 0.02392
v 0.03328 0.01768 0.02496
v 0.02704 -0.00311 0.03328
v 0.02704 -0.00311 0.02704
v 0.04576 -0.00311 0.0208
v 0.04576 0.00936 0.0312
v 0.03536 0.00936 0.0208
v 0.04576 0.00936 0.0208
v 0.02704 0.01352 0.03536
v 0.04576 -0.00103 0.0312
v 0.02808 0.00105 0.03536
v 0.03743 -0.00311 0.0208
v 0.02912 0.00105 0.02288
v 0.03068 0.01768 0.03068
f 3 4 5
f 5 7 8
f 6 5 8
f 4 3 1
f 1 3 9
f 5 6 10
f 6 8 2
f 10 6 11
f 7 5 12
f 5 4 12
f 13 7 12
f 8 7 1
f 7 13 1
f 6 14 9
f 11 6 9
f 1 13 4
f 13 12 4
f 1 9 14
f 2 1 14
f 6 2 14
f 9 3 11
f 5 10 3
f 10 11 3
f 8 1 2
