# Created by Open3D 
# object name: convex_1_coll
# number of vertices: 14
# number of triangles: 24
v 0.01663 -0.031185 0.01144
v -0.002355 -0.00104 0.0205388
v 0.01663 -0.03222 0.00416
v 0.01663 0.0171575 0.00572
v -0.05616 -0.03847 0.00624
v -0.06656 0.00311 0.00832
v -0.01666 0.03848 0.00208
v -0.06136 0.010395 0.01248
v 0.0145462 0.017675 0.0174163
v -0.00417 0.05096 0.00624
v -0.01873 0.05096 0.00832
v -0.02809 -0.04886 0.00416
v -0.03536 -0.05096 0.00832
v -0.06136 -0.0239 0.01248
f 1 3 4
f 6 7 5
f 3 7 4
f 1 4 9
f 4 7 10
f 8 11 6
f 3 12 7
f 12 3 13
f 8 2 11
f 13 14 5
f 13 3 1
f 2 13 1
f 11 2 9
f 10 11 9
f 12 5 7
f 10 7 11
f 7 6 11
f 8 6 14
f 2 8 14
f 4 10 9
f 5 12 13
f 14 6 5
f 13 2 14
f 1 9 2
