# Created by Open3D 
# object name: convex_2_coll
# number of vertices: 14
# number of triangles: 24
v 0.02496 -0.03223 -0
v 0.01664 0.01768 0.00624
v 0.01664 -0.03223 0.00416
v 0.01664 -0.01143 0.01871
v 0.01664 0.01977 0.01456
v 0.04576 -0.0052 0.0208
v 0.04576 -0.006235 0.01144
v 0.04576 0.0156 0.01871
v 0.03535 0.01352 0.0208
v 0.04576 0.01456 0.01144
v 0.01664 -0.03015 0.01248
v 0.04367 0.00936 0.00832
v 0.01664 0.00936 0.01871
v 0.02704 -0.03223 0.00832
f 2 3 4
f 2 4 5
f 6 7 8
f 6 8 9
f 8 7 10
f 4 3 11
f 5 4 13
f 4 9 13
f 9 5 13
f 14 7 6
f 1 7 14
f 3 2 1
f 11 6 4
f 10 12 2
f 7 1 12
f 1 14 3
f 14 11 3
f 7 12 10
f 4 6 9
f 6 11 14
f 9 8 5
f 10 2 8
f 2 5 8
f 12 1 2
