# Original object name hint: convex_5
v 0.07230 -0.06256 -0.04171
v 0.07508 0.05977 0.01391
v 0.07786 0.06534 -0.00279
v 0.05284 0.05142 -0.03336
v 0.06952 -0.05979 0.01391
v 0.08899 0.03196 -0.03336
v 0.05284 -0.06256 -0.03892
v 0.07786 0.04864 -0.05283
v 0.08621 -0.04031 -0.01391
v 0.05284 -0.00417 -0.01112
v 0.07508 -0.03198 -0.05562
v 0.06675 0.05421 0.01391
v 0.08064 0.04864 0.01391
v 0.06675 0.00415 -0.05562
v 0.07508 -0.06812 0.00833
v 0.08621 -0.03754 -0.03615
v 0.08064 -0.04031 0.01391
v 0.08899 -0.00973 -0.01391
v 0.06118 -0.03198 0.00833
v 0.08621 0.04864 -0.04448
v 0.06952 0.06534 -0.02502
v 0.05562 -0.06812 -0.02502
v 0.07508 -0.06812 -0.02780
v 0.05284 0.05142 -0.02224
v 0.06675 0.06534 -0.00279
v 0.08899 0.03473 -0.01947
v 0.06675 -0.03754 -0.05562
v 0.05284 -0.02919 -0.01112
v 0.07230 0.04864 -0.05283
v 0.05284 0.04586 -0.03615
v 0.08064 0.05977 -0.03892
v 0.05840 -0.07090 -0.03336
v 0.06675 -0.06535 0.00833
v 0.08342 0.05698 -0.01391
v 0.08342 0.04308 -0.05004
v 0.06952 0.05977 -0.03892
v 0.08621 -0.04310 -0.02502
v 0.08342 -0.04031 -0.04171
v 0.06118 -0.02642 -0.05004
v 0.08899 0.00415 -0.03336
v 0.06396 -0.07090 -0.01112
v 0.06952 -0.07090 -0.03336
v 0.05840 -0.06812 -0.03892
v 0.06675 -0.05144 0.01391
v 0.08899 0.02917 -0.01391
v 0.07508 -0.04310 -0.05283
v 0.05284 0.04864 -0.01947
v 0.07508 0.01249 -0.05562
v 0.07786 -0.05979 -0.03615
v 0.06952 0.04308 -0.05283
v 0.07786 0.06534 -0.02502
v 0.08621 0.05142 -0.04171
v 0.07786 -0.05422 0.01391
v 0.08342 0.05421 -0.04727
v 0.08621 0.04864 -0.01669
v 0.07230 -0.07090 -0.01391
v 0.07786 -0.02642 -0.05283
v 0.05284 -0.03198 -0.03892
v 0.08621 0.00971 -0.04171
v 0.08064 0.06254 -0.02780
v 0.06952 0.06534 0.00277
v 0.08899 -0.00973 -0.02502
v 0.07230 0.06254 -0.03615
v 0.05284 -0.05979 -0.03059
v 0.06674 -0.04589 0.01669
v 0.08064 -0.00141 0.06118
v 0.07509 -0.00141 0.06118
v 0.07509 -0.01253 0.01669
v 0.07787 -0.05145 0.01947
v 0.08899 -0.00141 0.03893
v 0.06953 -0.00141 0.03338
v 0.07787 -0.03755 0.04449
v 0.08064 -0.04033 0.01391
v 0.06953 -0.03755 0.03893
v 0.08899 -0.00697 0.04449
v 0.06674 -0.02365 0.01391
v 0.06953 -0.00141 0.05005
v 0.06953 -0.05702 0.01391
v 0.08064 -0.01809 0.01391
v 0.08064 -0.03476 0.04449
v 0.06674 -0.03755 0.03060
v 0.07231 -0.03755 0.04449
v 0.07509 -0.05702 0.01947
v 0.08064 -0.00141 0.03060
v 0.07231 -0.00419 0.05840
v 0.06953 -0.05423 0.02225
v 0.08064 -0.00419 0.06118
v 0.08621 -0.00419 0.05283
v 0.07231 -0.01531 0.01391
v 0.07509 -0.05702 0.01391
v 0.06674 -0.02643 0.02781
v 0.08621 -0.00141 0.03338
v 0.07509 -0.00419 0.06118
v 0.07231 -0.00141 0.03060
v 0.08899 -0.00141 0.04727
v 0.08621 -0.01531 0.04727
v 0.07787 -0.01531 0.01391
v 0.08064 -0.03755 0.03893
v 0.08899 -0.00697 0.03893
v -0.05562 -0.04310 -0.04727
v -0.08621 0.00416 -0.05006
v -0.08343 -0.00694 -0.05562
v -0.05006 0.04031 -0.06118
v -0.05006 -0.05145 -0.06118
v -0.06952 0.05144 -0.04727
v -0.07787 0.02917 -0.06118
v -0.07787 -0.05701 -0.04727
v -0.07230 -0.03755 -0.06118
v -0.05006 0.04031 -0.05562
v -0.05562 -0.00694 -0.06396
v -0.08343 0.04309 -0.04727
v -0.05006 -0.05423 -0.05006
v -0.07787 0.04587 -0.05562
v -0.07508 -0.05423 -0.05562
v -0.06119 -0.06258 -0.04727
v -0.08343 0.03195 -0.05562
v -0.05006 0.00972 -0.06396
v -0.07787 -0.01250 -0.06118
v -0.07508 0.03753 -0.06118
v -0.07230 -0.06258 -0.05006
v -0.05006 -0.05701 -0.05840
v -0.06675 0.04587 -0.04727
v -0.08621 0.02640 -0.04727
v -0.08065 -0.04588 -0.05006
v -0.07787 -0.03477 -0.05840
v -0.07787 0.05144 -0.05006
v -0.06675 -0.05423 -0.05840
v -0.08621 0.00416 -0.04727
v -0.06675 -0.04588 -0.06118
v -0.08065 0.04309 -0.05562
v -0.05562 0.00972 -0.06396
v -0.06675 0.04031 -0.06118
v -0.07787 -0.05423 -0.05284
v -0.06952 0.05144 -0.05006
v -0.08621 0.02640 -0.05006
v -0.05006 -0.04588 -0.05006
v -0.05006 -0.00694 -0.06396
v -0.08343 0.04031 -0.05284
v -0.08899 -0.00974 0.02781
v -0.07787 0.01807 0.04171
v -0.07787 0.01807 0.03893
v -0.07509 -0.02364 0.03615
v -0.07509 0.00138 0.02225
v -0.08621 -0.00974 0.04171
v -0.08899 0.00416 0.02225
v -0.07230 -0.00695 0.04171
v -0.08621 -0.01530 0.02225
v -0.08621 0.01251 0.04171
v -0.08065 -0.02643 0.03893
v -0.07509 -0.01252 0.02225
v -0.08899 -0.00695 0.03893
v -0.08343 0.01807 0.03615
v -0.07230 0.00138 0.03615
v -0.08065 0.00694 0.02225
v -0.08899 0.00694 0.03615
v -0.08343 -0.02364 0.03893
v -0.07787 -0.01808 0.02503
v -0.07230 -0.00974 0.03615
v -0.07509 -0.01530 0.04171
v -0.08065 -0.02643 0.03615
v -0.08621 0.01528 0.03615
v -0.07230 0.04032 0.04449
v -0.05840 0.05700 0.04171
v -0.05840 0.05700 0.03893
v -0.07787 0.05422 0.03615
v -0.06674 0.03754 0.03893
v -0.07230 0.05700 0.04449
v -0.05840 0.04588 0.04449
v -0.07787 0.03754 0.04171
v -0.07230 0.04032 0.03615
v -0.05840 0.04310 0.03893
v -0.07787 0.05422 0.04171
v -0.07787 0.04032 0.03615
v -0.06952 0.05422 0.03615
v -0.06118 0.05700 0.04449
v -0.06674 0.03754 0.04171
v -0.07508 0.05144 0.04449
v -0.05562 -0.00141 0.03894
v 0.05284 0.02085 0.04727
v 0.05284 0.00138 0.04727
v 0.04449 -0.00418 0.02225
v -0.03059 -0.02642 0.04449
v -0.02780 0.02085 0.04727
v -0.00002 0.00694 0.02225
v 0.00832 -0.00141 0.05562
v -0.00555 -0.01808 0.02225
v 0.00555 -0.02921 0.04171
v 0.05005 0.02085 0.03338
v -0.03615 0.02085 0.03616
v 0.03893 0.01528 0.05562
v -0.05006 -0.00418 0.04449
v -0.03337 -0.02642 0.03894
v 0.03058 0.00138 0.05562
v 0.00555 -0.02921 0.03616
v 0.05284 -0.00141 0.03616
v 0.04449 0.00694 0.02225
v 0.00832 0.02085 0.03060
v -0.04449 0.00138 0.03338
v 0.00555 0.00972 0.05562
v 0.00832 0.02085 0.05283
v -0.05562 -0.00695 0.03894
v -0.02780 -0.00418 0.05005
v -0.03615 0.02085 0.04449
v -0.02780 0.00972 0.05005
v 0.00555 -0.01808 0.02225
v 0.04171 -0.00695 0.02225
v 0.05284 0.01528 0.03338
v -0.00276 -0.02642 0.04449
v -0.00555 0.00138 0.02225
v 0.05284 -0.00141 0.04449
v -0.00555 -0.02921 0.03616
v 0.03615 -0.00141 0.05283
v 0.03893 0.02085 0.05283
v 0.01111 0.01528 0.05562
v -0.02502 -0.02086 0.04727
v -0.05006 0.00138 0.04449
v -0.05562 -0.00695 0.04171
v -0.04171 0.00694 0.03338
v 0.02224 -0.00141 0.05562
v 0.03893 0.00694 0.05562
v -0.04449 -0.01252 0.03616
v 0.03893 -0.00974 0.03338
v 0.01667 0.02085 0.03060
v -0.02502 -0.02642 0.03616
v -0.05562 -0.00141 0.04171
v -0.04449 -0.00141 0.03338
v -0.03893 0.02085 0.03893
v 0.03337 0.07090 0.04449
v 0.03058 0.06812 0.04727
v 0.05284 0.02085 0.03615
v 0.03893 0.02085 0.05284
v -0.05840 0.05422 0.03893
v 0.03058 0.07090 0.03337
v -0.05840 0.05143 0.04449
v -0.00555 0.02085 0.03337
v 0.01390 0.02085 0.05284
v -0.02780 0.06812 0.04172
v 0.05284 0.03198 0.04727
v -0.03893 0.02085 0.04449
v -0.04727 0.04865 0.03615
v 0.04727 0.02085 0.03337
v 0.02503 0.05422 0.05006
v 0.05284 0.03475 0.03893
v 0.01390 0.06812 0.04727
v -0.05561 0.03754 0.03893
v -0.00002 0.07090 0.03615
v -0.00278 0.05143 0.03337
v -0.03614 0.02085 0.03615
v 0.03614 0.05422 0.05006
v 0.03893 0.06534 0.04449
v -0.05561 0.04032 0.04449
v 0.05284 0.02085 0.04727
v -0.00002 0.07090 0.04449
v 0.03614 0.06812 0.03615
v 0.01390 0.02364 0.05284
v -0.02780 0.02085 0.04727
v 0.02224 0.07090 0.03337
v -0.01111 0.06812 0.03615
v -0.02780 0.06812 0.03893
v 0.05284 0.02641 0.03615
v 0.00277 0.04310 0.05006
v -0.04727 0.04032 0.03615
v -0.04727 0.02641 0.04172
v 0.03337 0.02641 0.05284
v -0.05840 0.04588 0.04449
v -0.04450 0.05143 0.03615
v -0.01111 0.06812 0.04449
v 0.03893 0.06534 0.03893
v -0.05840 0.04310 0.03893
v 0.04171 0.04310 0.05006
v -0.04727 0.02641 0.03893
v -0.05840 0.05422 0.04172
v 0.05840 0.00973 0.03337
v 0.05562 0.02641 0.04728
v 0.05562 0.02918 0.04449
v 0.06674 0.02363 0.04449
v 0.05284 0.00138 0.04728
v 0.06674 0.00138 0.04728
v 0.06674 0.02363 0.03337
v 0.05284 0.02641 0.03615
v 0.06674 -0.00140 0.03894
v 0.05284 0.00138 0.03615
v 0.06674 0.00417 0.03337
v 0.05284 0.02641 0.04728
v 0.05284 -0.00140 0.04449
v 0.06674 0.01807 0.04728
v 0.05284 0.02918 0.03894
v 0.07787 0.03197 0.01391
v 0.07787 0.02085 0.06396
v 0.07509 0.02085 0.06396
v 0.06953 0.05978 0.03616
v 0.06674 -0.00139 0.03616
v 0.08899 -0.00139 0.04727
v 0.07787 0.05699 0.03893
v 0.06674 0.05421 0.01391
v 0.08064 0.04865 0.01391
v 0.07231 -0.00139 0.06117
v 0.06674 0.04865 0.04449
v 0.08621 -0.00139 0.03338
v 0.08899 0.01530 0.04449
v 0.06953 0.03197 0.01391
v 0.07787 0.05143 0.04727
v 0.07231 -0.00139 0.03059
v 0.07787 0.05699 0.01391
v 0.06674 0.00417 0.05006
v 0.07787 -0.00139 0.06396
v 0.08064 0.02364 0.06117
v 0.08899 -0.00139 0.03893
v 0.06953 0.05143 0.04727
v 0.06674 0.03753 0.01391
v 0.07231 0.01530 0.06117
v 0.08342 0.02919 0.05283
v 0.08064 -0.00139 0.03059
v 0.08899 0.01530 0.03893
v 0.08064 0.04865 0.03893
v 0.07787 0.02919 0.06117
v 0.08621 0.01530 0.05283
v 0.06953 0.05699 0.01391
v 0.07509 0.05978 0.02782
v 0.08064 -0.00139 0.06117
v 0.08064 0.04309 0.01391
v 0.06674 0.05421 0.03616
v 0.06674 -0.00139 0.04727
v 0.06674 0.00139 0.03338
v 0.06674 0.01251 0.05006
v 0.08064 0.03474 0.05562
v 0.08342 0.03474 0.04727
v 0.06953 0.05699 0.04171
v -0.05006 0.02363 -0.06118
v -0.01113 0.04866 -0.05562
v -0.01113 0.04031 -0.05562
v -0.05006 0.02363 -0.05562
v -0.05006 0.04031 -0.05562
v -0.01391 0.04866 -0.06118
v -0.05006 0.04031 -0.06118
v -0.01391 0.04031 -0.06118
v -0.02503 0.04866 -0.05562
v -0.04449 0.02363 -0.06118
v -0.04449 0.02363 -0.05562
v -0.02503 0.04866 -0.06118
v -0.01113 0.04587 -0.06118
v -0.08620 -0.02364 -0.04171
v -0.06675 0.05700 -0.00000
v -0.05006 0.04309 -0.01391
v -0.06118 -0.06814 -0.00000
v -0.05006 -0.06258 -0.04449
v -0.06952 0.05420 -0.04727
v -0.08899 0.00415 -0.00557
v -0.07786 -0.05979 -0.04727
v -0.08620 0.04309 -0.04171
v -0.05006 0.05142 -0.03337
v -0.08064 -0.04311 -0.00000
v -0.05006 -0.06814 -0.00835
v -0.08064 0.05420 -0.00000
v -0.06952 0.06812 -0.03058
v -0.07230 -0.06814 -0.01669
v -0.08620 0.03196 -0.04727
v -0.08899 -0.01808 -0.03337
v -0.05841 0.06812 -0.02502
v -0.08899 0.03196 -0.02502
v -0.05006 -0.00973 -0.00835
v -0.08064 -0.05702 -0.02502
v -0.05562 -0.04311 -0.04727
v -0.08064 0.05700 -0.04171
v -0.06952 -0.06814 -0.03615
v -0.08620 -0.01808 -0.00000
v -0.07230 -0.06535 -0.00000
v -0.05841 -0.05702 -0.00000
v -0.05006 -0.04311 -0.04449
v -0.08064 0.05977 -0.01947
v -0.08899 -0.01529 -0.01113
v -0.08899 0.02640 -0.04171
v -0.06675 0.04865 -0.04727
v -0.06118 0.06812 -0.03337
v -0.05006 -0.06814 -0.03615
v -0.07508 0.05977 -0.00278
v -0.08620 -0.00417 -0.04727
v -0.05841 -0.06258 -0.04727
v -0.08342 -0.04589 -0.03893
v -0.08620 0.04588 -0.02225
v -0.07786 0.05420 -0.04727
v -0.07786 -0.06258 -0.01669
v -0.08899 0.02640 -0.01669
v -0.08620 0.01528 -0.00000
v -0.06952 0.06812 -0.02225
v -0.08342 -0.04589 -0.02225
v -0.07230 -0.06535 -0.04449
v -0.07786 -0.06258 -0.03893
v -0.07508 0.06534 -0.03337
v -0.05006 0.05420 -0.02780
v -0.08342 0.05420 -0.03615
v -0.08064 -0.05145 -0.04727
v -0.08899 0.00138 -0.04171
v -0.08342 0.04588 -0.04727
v -0.07786 -0.05702 -0.00557
v -0.08064 -0.05702 -0.03893
v -0.05841 0.06534 -0.03337
v -0.08342 -0.03477 -0.00278
v -0.08620 0.04588 -0.03893
v -0.07230 0.06534 -0.03615
v -0.07508 0.06534 -0.02225
v -0.08342 0.05420 -0.01947
v -0.08064 0.05977 -0.03337
v -0.06952 -0.06814 -0.00278
v -0.07230 -0.06814 -0.03058
v 0.00278 0.00138 -0.06396
v -0.01669 -0.05424 -0.05840
v -0.01669 -0.05424 -0.05562
v 0.01112 -0.04311 -0.06118
v -0.00834 0.02085 -0.05840
v 0.01112 -0.03755 -0.05562
v -0.01112 -0.04311 -0.06396
v -0.01390 0.02085 -0.06396
v 0.00278 -0.04589 -0.06396
v -0.01390 0.02085 -0.05840
v 0.00278 0.00138 -0.05840
v -0.01669 -0.04032 -0.05562
v -0.01669 -0.05145 -0.06118
v -0.00278 -0.05145 -0.05562
v 0.00834 -0.02642 -0.06396
v -0.00278 -0.05145 -0.06118
v -0.00834 0.02085 -0.06396
v 0.00834 -0.04589 -0.05562
v 0.01112 -0.03477 -0.06118
v -0.01112 -0.03477 -0.05562
v -0.01389 -0.07090 -0.03615
v 0.05284 0.01807 -0.02225
v 0.00834 0.00415 -0.00000
v -0.05006 0.01807 -0.03337
v -0.05006 -0.06535 -0.00835
v 0.05005 -0.06813 -0.03615
v 0.01667 -0.03754 -0.04727
v -0.05006 -0.06257 -0.04449
v 0.05005 -0.02365 -0.00835
v -0.05006 0.01807 -0.01391
v 0.05284 0.01807 -0.03615
v -0.00834 -0.06813 -0.01113
v -0.02223 -0.02920 -0.00000
v -0.01667 0.01807 -0.03893
v 0.00556 -0.03476 -0.00000
v -0.02503 0.01807 -0.00557
v 0.00278 -0.06257 -0.04727
v 0.04449 -0.07090 -0.03058
v 0.05284 -0.04866 -0.03893
v -0.05006 -0.04310 -0.04449
v -0.05006 0.00137 -0.00835
v 0.05284 -0.00419 -0.01113
v -0.03059 -0.07090 -0.01391
v 0.05284 -0.02920 -0.01113
v -0.01945 0.00137 -0.00000
v -0.05006 -0.06813 -0.03615
v -0.00556 -0.03754 -0.04727
v 0.01667 0.01807 -0.03893
v -0.02781 -0.06257 -0.04727
v 0.02501 -0.07090 -0.03893
v 0.01945 -0.05145 -0.04727
v -0.01389 0.01807 -0.00557
v 0.05005 -0.06813 -0.03058
v -0.03059 -0.06813 -0.04171
v 0.01112 -0.02642 -0.00000
v 0.05284 -0.03476 -0.03893
v -0.05006 -0.06813 -0.01113
v 0.05284 -0.05978 -0.03337
v -0.00000 -0.03476 -0.04727
v 0.01945 -0.04032 -0.04727
v -0.00556 -0.07090 -0.01391
v 0.05005 -0.01531 -0.00835
v -0.04170 -0.01253 -0.00557
v -0.03615 0.01807 -0.00835
v 0.04449 -0.07090 -0.03615
v 0.05005 0.01527 -0.01947
v 0.01945 -0.06257 -0.04449
v -0.01667 0.00415 -0.00000
v -0.01667 -0.03198 -0.00000
v -0.04448 -0.06535 -0.00835
v -0.02781 -0.05700 -0.04727
v -0.04727 -0.06813 -0.03893
v -0.00556 -0.07090 -0.03893
v -0.03059 -0.07090 -0.01947
v 0.01112 -0.03476 -0.04727
v -0.03893 -0.06535 -0.04449
v -0.04727 0.03476 -0.03614
v -0.00556 0.07090 -0.02502
v 0.00834 0.06812 -0.01947
v 0.05284 0.01807 -0.03614
v -0.03615 0.01807 -0.00835
v 0.00278 0.04865 -0.00278
v -0.04448 0.04865 -0.00835
v 0.05284 0.05143 -0.03336
v -0.01112 0.04865 -0.04449
v 0.05284 0.01807 -0.02225
v -0.05006 0.01807 -0.03336
v -0.05006 0.05421 -0.03336
v 0.05284 0.04865 -0.01947
v 0.00834 0.06812 -0.03336
v -0.01945 0.01807 -0.03892
v -0.00556 0.01807 -0.00835
v -0.02781 0.05143 -0.00278
v -0.05006 0.01807 -0.01391
v -0.02503 0.06812 -0.03058
v 0.05284 0.04587 -0.03614
v -0.00000 0.04032 -0.00278
v 0.02501 0.06533 -0.02502
v 0.05284 0.02642 -0.01947
v -0.05006 0.04865 -0.01391
v 0.01667 0.01807 -0.03892
v -0.02223 0.06812 -0.02502
v -0.03059 0.04310 -0.00278
v -0.00000 0.05143 -0.00278
v -0.01667 0.05421 -0.04171
v -0.05006 0.04587 -0.03614
v -0.00834 0.04587 -0.04449
v -0.00000 0.06533 -0.03614
v -0.04448 0.03198 -0.00835
v -0.04727 0.05143 -0.01391
v 0.05005 0.05421 -0.02502
v 0.01112 0.06255 -0.03614
v 0.01667 0.06812 -0.02780
v -0.01112 0.07090 -0.03058
v -0.05006 0.05421 -0.02780
v -0.00278 0.06812 -0.01947
v -0.05006 0.04587 -0.01113
v -0.01112 0.04587 -0.04449
v -0.00278 0.05421 -0.04171
v -0.01389 0.06812 -0.03336
v -0.01112 0.07090 -0.02502
v -0.04448 0.05143 -0.01113
v 0.04726 0.05421 -0.03336
v -0.02503 0.06812 -0.02780
v 0.04726 0.05421 -0.02225
v 0.05005 0.05421 -0.03058
v -0.01667 0.04032 -0.00278
v 0.00278 0.04310 -0.00278
v -0.06396 0.05144 0.01112
v -0.08065 0.04032 0.00000
v -0.07786 0.03754 0.00000
v -0.07786 0.04032 0.01391
v -0.07786 0.05700 0.00000
v -0.07786 0.05422 0.01391
v -0.06675 0.04310 0.00000
v -0.06675 0.05700 0.00000
v -0.07230 0.03754 0.01112
v -0.06953 0.05700 0.01391
v -0.08065 0.05144 0.00834
v -0.06396 0.04588 0.01112
v -0.06953 0.04310 0.01391
v -0.06396 0.04588 0.00278
v -0.07786 0.05700 0.01112
v -0.07230 0.03754 0.00000
v -0.08065 0.04032 0.00834
v -0.08065 0.05144 0.00000
v -0.07786 0.03754 0.01112
v -0.00834 -0.03477 0.00835
v -0.01945 0.01529 0.01668
v -0.01945 0.01529 0.01113
v 0.04449 0.00415 0.02225
v -0.05006 -0.02364 0.01668
v 0.00556 0.00415 0.00278
v -0.05006 0.00138 0.00835
v 0.03615 -0.02086 0.01946
v -0.03058 0.00138 0.02225
v -0.00278 -0.02364 0.02225
v 0.03615 -0.01808 0.01113
v -0.03615 -0.02920 0.00557
v 0.00833 -0.03199 0.00557
v 0.03893 0.00694 0.01390
v -0.05006 0.00694 0.01668
v -0.03615 0.01529 0.00835
v 0.00277 -0.03199 0.01668
v -0.05006 -0.02920 0.01390
v -0.01390 0.00138 0.00278
v -0.00834 -0.02643 0.00278
v -0.03058 0.01250 0.01946
v 0.00556 0.01250 0.00835
v 0.04171 0.00694 0.02225
v 0.00833 -0.01530 0.00278
v -0.05006 -0.00974 0.01946
v -0.05006 -0.02643 0.00835
v 0.04449 -0.00418 0.02225
v 0.03615 0.00138 0.01113
v 0.04449 -0.00418 0.01668
v 0.00277 -0.03477 0.01113
v -0.03058 -0.03199 0.00557
v -0.02225 -0.01530 0.02225
v -0.03615 0.01529 0.01668
v -0.03336 -0.03199 0.01390
v 0.01945 -0.02920 0.00835
v 0.00556 -0.02364 0.02225
v -0.00555 0.00694 0.02225
v 0.01945 -0.00418 0.00557
v 0.01389 -0.02920 0.00557
v -0.05006 -0.00140 0.01946
v 0.00833 0.01250 0.01668
v 0.03893 -0.01808 0.01390
v 0.00556 0.00972 0.00557
v -0.00278 -0.02920 0.01946
v -0.05006 0.00694 0.01113
v 0.04171 0.00415 0.01390
v 0.01945 -0.02920 0.01390
v 0.01945 -0.01530 0.00557
v -0.03893 0.01529 0.01390
v 0.03893 -0.00974 0.02225
v -0.01390 -0.01808 0.00278
v -0.01112 0.00415 0.00278
v 0.04171 0.00694 0.01668
v -0.03615 -0.01808 0.00557
v 0.00277 -0.02920 0.01946
v -0.01669 -0.04311 -0.05562
v -0.05006 -0.05701 -0.05840
v -0.04727 -0.05979 -0.05840
v -0.04449 -0.01530 -0.06118
v -0.05006 -0.03755 -0.05284
v -0.01669 -0.05145 -0.06118
v -0.03059 -0.05979 -0.05284
v -0.05006 -0.01530 -0.05562
v -0.05006 -0.05423 -0.06118
v -0.01669 -0.04867 -0.05284
v -0.05006 -0.05701 -0.05284
v -0.04449 -0.01530 -0.05562
v -0.01669 -0.04311 -0.06118
v -0.05006 -0.01530 -0.06118
v -0.02781 -0.05701 -0.06118
v -0.01669 -0.05423 -0.05562
v -0.03059 -0.05979 -0.05840
v -0.04727 -0.05979 -0.05284
v -0.01947 0.01250 -0.06396
v -0.05005 -0.01530 -0.06118
v -0.05005 -0.01530 -0.05562
v -0.05005 0.02363 -0.05562
v -0.02225 -0.00418 -0.05840
v -0.05005 0.01250 -0.06396
v -0.03059 -0.01252 -0.06396
v -0.02225 0.02084 -0.05840
v -0.03059 0.02084 -0.06396
v -0.05005 0.02363 -0.06118
v -0.04449 0.02363 -0.05562
v -0.05005 -0.00695 -0.06396
v -0.03059 -0.01252 -0.05840
v -0.01947 0.00416 -0.05840
v -0.02225 -0.00418 -0.06396
v -0.02225 0.02084 -0.06396
v -0.04727 -0.01530 -0.05562
v -0.06953 -0.06535 0.00000
v -0.08065 0.00693 0.02225
v -0.08621 0.00693 0.02225
v -0.08343 0.02083 0.00000
v -0.06953 0.00415 0.00834
v -0.08621 -0.01809 0.00000
v -0.08899 -0.00697 0.02225
v -0.06953 -0.02642 0.01668
v -0.06953 -0.01253 0.00000
v -0.07231 -0.06256 0.00556
v -0.07787 0.02363 0.00834
v -0.07231 -0.00419 0.02225
v -0.08899 0.00415 0.00556
v -0.08065 -0.04310 0.00000
v -0.08621 -0.01531 0.02225
v -0.07787 0.02083 0.00000
v -0.06953 0.00415 0.01668
v -0.07509 -0.01531 0.02225
v -0.08343 0.02363 0.00834
v -0.08899 0.00415 0.02225
v -0.08899 -0.00975 0.01112
v -0.08621 0.01528 0.00000
v -0.06953 -0.06256 0.00556
v -0.07509 0.00415 0.02225
v -0.07231 -0.06535 0.00278
v -0.08065 -0.04310 0.00278
v -0.07787 0.02363 0.00278
v -0.06953 -0.00141 0.01946
v -0.03893 0.01529 0.01113
v 0.00278 0.03475 0.01390
v -0.02224 0.03197 0.01669
v -0.03337 0.03197 0.00835
v 0.00278 0.02363 0.01113
v -0.02224 0.01529 0.01669
v -0.02502 0.01529 0.00835
v -0.03614 0.03475 0.01390
v -0.00835 0.03197 0.00835
v -0.03614 0.01529 0.01669
v -0.04171 0.02919 0.01390
v 0.00278 0.03475 0.01113
v 0.00278 0.02363 0.01390
v -0.03614 0.02919 0.01669
v -0.03614 0.01529 0.00835
v -0.04171 0.02919 0.01113
v -0.03614 0.03475 0.01113
v -0.00835 0.02641 0.00835
v -0.04450 0.04588 0.01112
v 0.00834 0.05144 0.01112
v 0.00834 0.05144 0.00278
v 0.00277 0.03475 0.01391
v -0.00557 0.04310 0.00278
v -0.02780 0.05144 0.01391
v -0.03058 0.03475 0.01391
v 0.00277 0.03475 0.00834
v -0.04171 0.04866 0.00834
v -0.03058 0.03475 0.01112
v 0.00277 0.05144 0.01391
v -0.00557 0.05144 0.00278
v -0.04450 0.04866 0.01391
v -0.04171 0.04588 0.00834
v -0.03058 0.05144 0.00834
v 0.00834 0.04588 0.01112
v 0.00277 0.04310 0.00278
v -0.06674 -0.04868 0.00556
v -0.06952 -0.06536 0.00000
v -0.05840 -0.06536 0.00000
v -0.06952 -0.06258 0.00834
v -0.06952 -0.04589 0.00000
v -0.05840 -0.05980 0.00278
v -0.06396 -0.06258 0.00834
v -0.06674 -0.04589 0.00000
v -0.06118 -0.06536 0.00556
v -0.06396 -0.05702 0.00834
v -0.06952 -0.04868 0.00556
v -0.05006 0.00694 0.01112
v -0.06952 -0.03199 0.00834
v -0.06952 -0.03199 0.01391
v -0.05006 -0.02921 0.01112
v -0.06952 0.00138 0.01669
v -0.06952 -0.00697 0.00556
v -0.05006 -0.02364 0.01669
v -0.05006 0.00694 0.01669
v -0.05006 -0.02643 0.00834
v -0.06952 0.00416 0.01112
v -0.06952 -0.02643 0.01669
v -0.05006 0.00138 0.00834
v -0.06674 -0.02921 0.00556
v -0.06118 -0.03199 0.01391
v -0.06952 0.00138 0.00834
v -0.06118 -0.03199 0.00834
f 201 198 226 
f 184 181 186 
f 183 179 188 
f 183 188 189 
f 180 179 190 
f 190 185 193 
f 179 180 195 
f 181 184 196 
f 184 189 197 
f 189 188 197 
f 196 184 197 
f 185 190 199 
f 179 183 200 
f 178 198 201 
f 185 199 202 
f 189 178 203 
f 183 189 203 
f 191 202 204 
f 202 199 204 
f 183 203 204 
f 186 181 205 
f 194 186 205 
f 194 205 206 
f 181 195 206 
f 205 181 206 
f 188 179 207 
f 179 195 207 
f 195 181 207 
f 181 196 207 
f 196 188 207 
f 182 187 208 
f 184 186 209 
f 186 198 209 
f 180 187 210 
f 195 180 210 
f 187 182 211 
f 182 192 211 
f 186 194 211 
f 194 187 211 
f 187 180 212 
f 190 179 213 
f 179 200 213 
f 200 190 213 
f 199 190 214 
f 200 183 214 
f 190 200 214 
f 183 204 214 
f 204 199 214 
f 191 182 215 
f 185 202 215 
f 202 191 215 
f 182 208 215 
f 191 204 216 
f 204 203 216 
f 182 191 217 
f 192 182 217 
f 178 201 217 
f 201 192 217 
f 191 216 217 
f 189 184 218 
f 178 189 218 
f 198 178 218 
f 184 209 218 
f 209 198 218 
f 193 185 219 
f 208 187 219 
f 187 212 219 
f 212 193 219 
f 185 215 219 
f 215 208 219 
f 180 190 220 
f 190 193 220 
f 212 180 220 
f 193 212 220 
f 186 192 221 
f 192 201 221 
f 201 186 221 
f 187 194 222 
f 194 206 222 
f 206 195 222 
f 210 187 222 
f 195 210 222 
f 188 196 223 
f 197 188 223 
f 196 197 223 
f 192 186 224 
f 211 192 224 
f 186 211 224 
f 203 178 225 
f 216 203 225 
f 178 217 225 
f 217 216 225 
f 198 186 226 
f 186 201 226 
