# Original object name hint: convex_12
v 0.07230 -0.06256 -0.04171
v 0.07508 0.05977 0.01391
v 0.07786 0.06534 -0.00279
v 0.05284 0.05142 -0.03336
v 0.06952 -0.05979 0.01391
v 0.08899 0.03196 -0.03336
v 0.05284 -0.06256 -0.03892
v 0.07786 0.04864 -0.05283
v 0.08621 -0.04031 -0.01391
v 0.05284 -0.00417 -0.01112
v 0.07508 -0.03198 -0.05562
v 0.06675 0.05421 0.01391
v 0.08064 0.04864 0.01391
v 0.06675 0.00415 -0.05562
v 0.07508 -0.06812 0.00833
v 0.08621 -0.03754 -0.03615
v 0.08064 -0.04031 0.01391
v 0.08899 -0.00973 -0.01391
v 0.06118 -0.03198 0.00833
v 0.08621 0.04864 -0.04448
v 0.06952 0.06534 -0.02502
v 0.05562 -0.06812 -0.02502
v 0.07508 -0.06812 -0.02780
v 0.05284 0.05142 -0.02224
v 0.06675 0.06534 -0.00279
v 0.08899 0.03473 -0.01947
v 0.06675 -0.03754 -0.05562
v 0.05284 -0.02919 -0.01112
v 0.07230 0.04864 -0.05283
v 0.05284 0.04586 -0.03615
v 0.08064 0.05977 -0.03892
v 0.05840 -0.07090 -0.03336
v 0.06675 -0.06535 0.00833
v 0.08342 0.05698 -0.01391
v 0.08342 0.04308 -0.05004
v 0.06952 0.05977 -0.03892
v 0.08621 -0.04310 -0.02502
v 0.08342 -0.04031 -0.04171
v 0.06118 -0.02642 -0.05004
v 0.08899 0.00415 -0.03336
v 0.06396 -0.07090 -0.01112
v 0.06952 -0.07090 -0.03336
v 0.05840 -0.06812 -0.03892
v 0.06675 -0.05144 0.01391
v 0.08899 0.02917 -0.01391
v 0.07508 -0.04310 -0.05283
v 0.05284 0.04864 -0.01947
v 0.07508 0.01249 -0.05562
v 0.07786 -0.05979 -0.03615
v 0.06952 0.04308 -0.05283
v 0.07786 0.06534 -0.02502
v 0.08621 0.05142 -0.04171
v 0.07786 -0.05422 0.01391
v 0.08342 0.05421 -0.04727
v 0.08621 0.04864 -0.01669
v 0.07230 -0.07090 -0.01391
v 0.07786 -0.02642 -0.05283
v 0.05284 -0.03198 -0.03892
v 0.08621 0.00971 -0.04171
v 0.08064 0.06254 -0.02780
v 0.06952 0.06534 0.00277
v 0.08899 -0.00973 -0.02502
v 0.07230 0.06254 -0.03615
v 0.05284 -0.05979 -0.03059
v 0.06674 -0.04589 0.01669
v 0.08064 -0.00141 0.06118
v 0.07509 -0.00141 0.06118
v 0.07509 -0.01253 0.01669
v 0.07787 -0.05145 0.01947
v 0.08899 -0.00141 0.03893
v 0.06953 -0.00141 0.03338
v 0.07787 -0.03755 0.04449
v 0.08064 -0.04033 0.01391
v 0.06953 -0.03755 0.03893
v 0.08899 -0.00697 0.04449
v 0.06674 -0.02365 0.01391
v 0.06953 -0.00141 0.05005
v 0.06953 -0.05702 0.01391
v 0.08064 -0.01809 0.01391
v 0.08064 -0.03476 0.04449
v 0.06674 -0.03755 0.03060
v 0.07231 -0.03755 0.04449
v 0.07509 -0.05702 0.01947
v 0.08064 -0.00141 0.03060
v 0.07231 -0.00419 0.05840
v 0.06953 -0.05423 0.02225
v 0.08064 -0.00419 0.06118
v 0.08621 -0.00419 0.05283
v 0.07231 -0.01531 0.01391
v 0.07509 -0.05702 0.01391
v 0.06674 -0.02643 0.02781
v 0.08621 -0.00141 0.03338
v 0.07509 -0.00419 0.06118
v 0.07231 -0.00141 0.03060
v 0.08899 -0.00141 0.04727
v 0.08621 -0.01531 0.04727
v 0.07787 -0.01531 0.01391
v 0.08064 -0.03755 0.03893
v 0.08899 -0.00697 0.03893
v -0.05562 -0.04310 -0.04727
v -0.08621 0.00416 -0.05006
v -0.08343 -0.00694 -0.05562
v -0.05006 0.04031 -0.06118
v -0.05006 -0.05145 -0.06118
v -0.06952 0.05144 -0.04727
v -0.07787 0.02917 -0.06118
v -0.07787 -0.05701 -0.04727
v -0.07230 -0.03755 -0.06118
v -0.05006 0.04031 -0.05562
v -0.05562 -0.00694 -0.06396
v -0.08343 0.04309 -0.04727
v -0.05006 -0.05423 -0.05006
v -0.07787 0.04587 -0.05562
v -0.07508 -0.05423 -0.05562
v -0.06119 -0.06258 -0.04727
v -0.08343 0.03195 -0.05562
v -0.05006 0.00972 -0.06396
v -0.07787 -0.01250 -0.06118
v -0.07508 0.03753 -0.06118
v -0.07230 -0.06258 -0.05006
v -0.05006 -0.05701 -0.05840
v -0.06675 0.04587 -0.04727
v -0.08621 0.02640 -0.04727
v -0.08065 -0.04588 -0.05006
v -0.07787 -0.03477 -0.05840
v -0.07787 0.05144 -0.05006
v -0.06675 -0.05423 -0.05840
v -0.08621 0.00416 -0.04727
v -0.06675 -0.04588 -0.06118
v -0.08065 0.04309 -0.05562
v -0.05562 0.00972 -0.06396
v -0.06675 0.04031 -0.06118
v -0.07787 -0.05423 -0.05284
v -0.06952 0.05144 -0.05006
v -0.08621 0.02640 -0.05006
v -0.05006 -0.04588 -0.05006
v -0.05006 -0.00694 -0.06396
v -0.08343 0.04031 -0.05284
v -0.08899 -0.00974 0.02781
v -0.07787 0.01807 0.04171
v -0.07787 0.01807 0.03893
v -0.07509 -0.02364 0.03615
v -0.07509 0.00138 0.02225
v -0.08621 -0.00974 0.04171
v -0.08899 0.00416 0.02225
v -0.07230 -0.00695 0.04171
v -0.08621 -0.01530 0.02225
v -0.08621 0.01251 0.04171
v -0.08065 -0.02643 0.03893
v -0.07509 -0.01252 0.02225
v -0.08899 -0.00695 0.03893
v -0.08343 0.01807 0.03615
v -0.07230 0.00138 0.03615
v -0.08065 0.00694 0.02225
v -0.08899 0.00694 0.03615
v -0.08343 -0.02364 0.03893
v -0.07787 -0.01808 0.02503
v -0.07230 -0.00974 0.03615
v -0.07509 -0.01530 0.04171
v -0.08065 -0.02643 0.03615
v -0.08621 0.01528 0.03615
v -0.07230 0.04032 0.04449
v -0.05840 0.05700 0.04171
v -0.05840 0.05700 0.03893
v -0.07787 0.05422 0.03615
v -0.06674 0.03754 0.03893
v -0.07230 0.05700 0.04449
v -0.05840 0.04588 0.04449
v -0.07787 0.03754 0.04171
v -0.07230 0.04032 0.03615
v -0.05840 0.04310 0.03893
v -0.07787 0.05422 0.04171
v -0.07787 0.04032 0.03615
v -0.06952 0.05422 0.03615
v -0.06118 0.05700 0.04449
v -0.06674 0.03754 0.04171
v -0.07508 0.05144 0.04449
v -0.05562 -0.00141 0.03894
v 0.05284 0.02085 0.04727
v 0.05284 0.00138 0.04727
v 0.04449 -0.00418 0.02225
v -0.03059 -0.02642 0.04449
v -0.02780 0.02085 0.04727
v -0.00002 0.00694 0.02225
v 0.00832 -0.00141 0.05562
v -0.00555 -0.01808 0.02225
v 0.00555 -0.02921 0.04171
v 0.05005 0.02085 0.03338
v -0.03615 0.02085 0.03616
v 0.03893 0.01528 0.05562
v -0.05006 -0.00418 0.04449
v -0.03337 -0.02642 0.03894
v 0.03058 0.00138 0.05562
v 0.00555 -0.02921 0.03616
v 0.05284 -0.00141 0.03616
v 0.04449 0.00694 0.02225
v 0.00832 0.02085 0.03060
v -0.04449 0.00138 0.03338
v 0.00555 0.00972 0.05562
v 0.00832 0.02085 0.05283
v -0.05562 -0.00695 0.03894
v -0.02780 -0.00418 0.05005
v -0.03615 0.02085 0.04449
v -0.02780 0.00972 0.05005
v 0.00555 -0.01808 0.02225
v 0.04171 -0.00695 0.02225
v 0.05284 0.01528 0.03338
v -0.00276 -0.02642 0.04449
v -0.00555 0.00138 0.02225
v 0.05284 -0.00141 0.04449
v -0.00555 -0.02921 0.03616
v 0.03615 -0.00141 0.05283
v 0.03893 0.02085 0.05283
v 0.01111 0.01528 0.05562
v -0.02502 -0.02086 0.04727
v -0.05006 0.00138 0.04449
v -0.05562 -0.00695 0.04171
v -0.04171 0.00694 0.03338
v 0.02224 -0.00141 0.05562
v 0.03893 0.00694 0.05562
v -0.04449 -0.01252 0.03616
v 0.03893 -0.00974 0.03338
v 0.01667 0.02085 0.03060
v -0.02502 -0.02642 0.03616
v -0.05562 -0.00141 0.04171
v -0.04449 -0.00141 0.03338
v -0.03893 0.02085 0.03893
v 0.03337 0.07090 0.04449
v 0.03058 0.06812 0.04727
v 0.05284 0.02085 0.03615
v 0.03893 0.02085 0.05284
v -0.05840 0.05422 0.03893
v 0.03058 0.07090 0.03337
v -0.05840 0.05143 0.04449
v -0.00555 0.02085 0.03337
v 0.01390 0.02085 0.05284
v -0.02780 0.06812 0.04172
v 0.05284 0.03198 0.04727
v -0.03893 0.02085 0.04449
v -0.04727 0.04865 0.03615
v 0.04727 0.02085 0.03337
v 0.02503 0.05422 0.05006
v 0.05284 0.03475 0.03893
v 0.01390 0.06812 0.04727
v -0.05561 0.03754 0.03893
v -0.00002 0.07090 0.03615
v -0.00278 0.05143 0.03337
v -0.03614 0.02085 0.03615
v 0.03614 0.05422 0.05006
v 0.03893 0.06534 0.04449
v -0.05561 0.04032 0.04449
v 0.05284 0.02085 0.04727
v -0.00002 0.07090 0.04449
v 0.03614 0.06812 0.03615
v 0.01390 0.02364 0.05284
v -0.02780 0.02085 0.04727
v 0.02224 0.07090 0.03337
v -0.01111 0.06812 0.03615
v -0.02780 0.06812 0.03893
v 0.05284 0.02641 0.03615
v 0.00277 0.04310 0.05006
v -0.04727 0.04032 0.03615
v -0.04727 0.02641 0.04172
v 0.03337 0.02641 0.05284
v -0.05840 0.04588 0.04449
v -0.04450 0.05143 0.03615
v -0.01111 0.06812 0.04449
v 0.03893 0.06534 0.03893
v -0.05840 0.04310 0.03893
v 0.04171 0.04310 0.05006
v -0.04727 0.02641 0.03893
v -0.05840 0.05422 0.04172
v 0.05840 0.00973 0.03337
v 0.05562 0.02641 0.04728
v 0.05562 0.02918 0.04449
v 0.06674 0.02363 0.04449
v 0.05284 0.00138 0.04728
v 0.06674 0.00138 0.04728
v 0.06674 0.02363 0.03337
v 0.05284 0.02641 0.03615
v 0.06674 -0.00140 0.03894
v 0.05284 0.00138 0.03615
v 0.06674 0.00417 0.03337
v 0.05284 0.02641 0.04728
v 0.05284 -0.00140 0.04449
v 0.06674 0.01807 0.04728
v 0.05284 0.02918 0.03894
v 0.07787 0.03197 0.01391
v 0.07787 0.02085 0.06396
v 0.07509 0.02085 0.06396
v 0.06953 0.05978 0.03616
v 0.06674 -0.00139 0.03616
v 0.08899 -0.00139 0.04727
v 0.07787 0.05699 0.03893
v 0.06674 0.05421 0.01391
v 0.08064 0.04865 0.01391
v 0.07231 -0.00139 0.06117
v 0.06674 0.04865 0.04449
v 0.08621 -0.00139 0.03338
v 0.08899 0.01530 0.04449
v 0.06953 0.03197 0.01391
v 0.07787 0.05143 0.04727
v 0.07231 -0.00139 0.03059
v 0.07787 0.05699 0.01391
v 0.06674 0.00417 0.05006
v 0.07787 -0.00139 0.06396
v 0.08064 0.02364 0.06117
v 0.08899 -0.00139 0.03893
v 0.06953 0.05143 0.04727
v 0.06674 0.03753 0.01391
v 0.07231 0.01530 0.06117
v 0.08342 0.02919 0.05283
v 0.08064 -0.00139 0.03059
v 0.08899 0.01530 0.03893
v 0.08064 0.04865 0.03893
v 0.07787 0.02919 0.06117
v 0.08621 0.01530 0.05283
v 0.06953 0.05699 0.01391
v 0.07509 0.05978 0.02782
v 0.08064 -0.00139 0.06117
v 0.08064 0.04309 0.01391
v 0.06674 0.05421 0.03616
v 0.06674 -0.00139 0.04727
v 0.06674 0.00139 0.03338
v 0.06674 0.01251 0.05006
v 0.08064 0.03474 0.05562
v 0.08342 0.03474 0.04727
v 0.06953 0.05699 0.04171
v -0.05006 0.02363 -0.06118
v -0.01113 0.04866 -0.05562
v -0.01113 0.04031 -0.05562
v -0.05006 0.02363 -0.05562
v -0.05006 0.04031 -0.05562
v -0.01391 0.04866 -0.06118
v -0.05006 0.04031 -0.06118
v -0.01391 0.04031 -0.06118
v -0.02503 0.04866 -0.05562
v -0.04449 0.02363 -0.06118
v -0.04449 0.02363 -0.05562
v -0.02503 0.04866 -0.06118
v -0.01113 0.04587 -0.06118
v -0.08620 -0.02364 -0.04171
v -0.06675 0.05700 -0.00000
v -0.05006 0.04309 -0.01391
v -0.06118 -0.06814 -0.00000
v -0.05006 -0.06258 -0.04449
v -0.06952 0.05420 -0.04727
v -0.08899 0.00415 -0.00557
v -0.07786 -0.05979 -0.04727
v -0.08620 0.04309 -0.04171
v -0.05006 0.05142 -0.03337
v -0.08064 -0.04311 -0.00000
v -0.05006 -0.06814 -0.00835
v -0.08064 0.05420 -0.00000
v -0.06952 0.06812 -0.03058
v -0.07230 -0.06814 -0.01669
v -0.08620 0.03196 -0.04727
v -0.08899 -0.01808 -0.03337
v -0.05841 0.06812 -0.02502
v -0.08899 0.03196 -0.02502
v -0.05006 -0.00973 -0.00835
v -0.08064 -0.05702 -0.02502
v -0.05562 -0.04311 -0.04727
v -0.08064 0.05700 -0.04171
v -0.06952 -0.06814 -0.03615
v -0.08620 -0.01808 -0.00000
v -0.07230 -0.06535 -0.00000
v -0.05841 -0.05702 -0.00000
v -0.05006 -0.04311 -0.04449
v -0.08064 0.05977 -0.01947
v -0.08899 -0.01529 -0.01113
v -0.08899 0.02640 -0.04171
v -0.06675 0.04865 -0.04727
v -0.06118 0.06812 -0.03337
v -0.05006 -0.06814 -0.03615
v -0.07508 0.05977 -0.00278
v -0.08620 -0.00417 -0.04727
v -0.05841 -0.06258 -0.04727
v -0.08342 -0.04589 -0.03893
v -0.08620 0.04588 -0.02225
v -0.07786 0.05420 -0.04727
v -0.07786 -0.06258 -0.01669
v -0.08899 0.02640 -0.01669
v -0.08620 0.01528 -0.00000
v -0.06952 0.06812 -0.02225
v -0.08342 -0.04589 -0.02225
v -0.07230 -0.06535 -0.04449
v -0.07786 -0.06258 -0.03893
v -0.07508 0.06534 -0.03337
v -0.05006 0.05420 -0.02780
v -0.08342 0.05420 -0.03615
v -0.08064 -0.05145 -0.04727
v -0.08899 0.00138 -0.04171
v -0.08342 0.04588 -0.04727
v -0.07786 -0.05702 -0.00557
v -0.08064 -0.05702 -0.03893
v -0.05841 0.06534 -0.03337
v -0.08342 -0.03477 -0.00278
v -0.08620 0.04588 -0.03893
v -0.07230 0.06534 -0.03615
v -0.07508 0.06534 -0.02225
v -0.08342 0.05420 -0.01947
v -0.08064 0.05977 -0.03337
v -0.06952 -0.06814 -0.00278
v -0.07230 -0.06814 -0.03058
v 0.00278 0.00138 -0.06396
v -0.01669 -0.05424 -0.05840
v -0.01669 -0.05424 -0.05562
v 0.01112 -0.04311 -0.06118
v -0.00834 0.02085 -0.05840
v 0.01112 -0.03755 -0.05562
v -0.01112 -0.04311 -0.06396
v -0.01390 0.02085 -0.06396
v 0.00278 -0.04589 -0.06396
v -0.01390 0.02085 -0.05840
v 0.00278 0.00138 -0.05840
v -0.01669 -0.04032 -0.05562
v -0.01669 -0.05145 -0.06118
v -0.00278 -0.05145 -0.05562
v 0.00834 -0.02642 -0.06396
v -0.00278 -0.05145 -0.06118
v -0.00834 0.02085 -0.06396
v 0.00834 -0.04589 -0.05562
v 0.01112 -0.03477 -0.06118
v -0.01112 -0.03477 -0.05562
v -0.01389 -0.07090 -0.03615
v 0.05284 0.01807 -0.02225
v 0.00834 0.00415 -0.00000
v -0.05006 0.01807 -0.03337
v -0.05006 -0.06535 -0.00835
v 0.05005 -0.06813 -0.03615
v 0.01667 -0.03754 -0.04727
v -0.05006 -0.06257 -0.04449
v 0.05005 -0.02365 -0.00835
v -0.05006 0.01807 -0.01391
v 0.05284 0.01807 -0.03615
v -0.00834 -0.06813 -0.01113
v -0.02223 -0.02920 -0.00000
v -0.01667 0.01807 -0.03893
v 0.00556 -0.03476 -0.00000
v -0.02503 0.01807 -0.00557
v 0.00278 -0.06257 -0.04727
v 0.04449 -0.07090 -0.03058
v 0.05284 -0.04866 -0.03893
v -0.05006 -0.04310 -0.04449
v -0.05006 0.00137 -0.00835
v 0.05284 -0.00419 -0.01113
v -0.03059 -0.07090 -0.01391
v 0.05284 -0.02920 -0.01113
v -0.01945 0.00137 -0.00000
v -0.05006 -0.06813 -0.03615
v -0.00556 -0.03754 -0.04727
v 0.01667 0.01807 -0.03893
v -0.02781 -0.06257 -0.04727
v 0.02501 -0.07090 -0.03893
v 0.01945 -0.05145 -0.04727
v -0.01389 0.01807 -0.00557
v 0.05005 -0.06813 -0.03058
v -0.03059 -0.06813 -0.04171
v 0.01112 -0.02642 -0.00000
v 0.05284 -0.03476 -0.03893
v -0.05006 -0.06813 -0.01113
v 0.05284 -0.05978 -0.03337
v -0.00000 -0.03476 -0.04727
v 0.01945 -0.04032 -0.04727
v -0.00556 -0.07090 -0.01391
v 0.05005 -0.01531 -0.00835
v -0.04170 -0.01253 -0.00557
v -0.03615 0.01807 -0.00835
v 0.04449 -0.07090 -0.03615
v 0.05005 0.01527 -0.01947
v 0.01945 -0.06257 -0.04449
v -0.01667 0.00415 -0.00000
v -0.01667 -0.03198 -0.00000
v -0.04448 -0.06535 -0.00835
v -0.02781 -0.05700 -0.04727
v -0.04727 -0.06813 -0.03893
v -0.00556 -0.07090 -0.03893
v -0.03059 -0.07090 -0.01947
v 0.01112 -0.03476 -0.04727
v -0.03893 -0.06535 -0.04449
v -0.04727 0.03476 -0.03614
v -0.00556 0.07090 -0.02502
v 0.00834 0.06812 -0.01947
v 0.05284 0.01807 -0.03614
v -0.03615 0.01807 -0.00835
v 0.00278 0.04865 -0.00278
v -0.04448 0.04865 -0.00835
v 0.05284 0.05143 -0.03336
v -0.01112 0.04865 -0.04449
v 0.05284 0.01807 -0.02225
v -0.05006 0.01807 -0.03336
v -0.05006 0.05421 -0.03336
v 0.05284 0.04865 -0.01947
v 0.00834 0.06812 -0.03336
v -0.01945 0.01807 -0.03892
v -0.00556 0.01807 -0.00835
v -0.02781 0.05143 -0.00278
v -0.05006 0.01807 -0.01391
v -0.02503 0.06812 -0.03058
v 0.05284 0.04587 -0.03614
v -0.00000 0.04032 -0.00278
v 0.02501 0.06533 -0.02502
v 0.05284 0.02642 -0.01947
v -0.05006 0.04865 -0.01391
v 0.01667 0.01807 -0.03892
v -0.02223 0.06812 -0.02502
v -0.03059 0.04310 -0.00278
v -0.00000 0.05143 -0.00278
v -0.01667 0.05421 -0.04171
v -0.05006 0.04587 -0.03614
v -0.00834 0.04587 -0.04449
v -0.00000 0.06533 -0.03614
v -0.04448 0.03198 -0.00835
v -0.04727 0.05143 -0.01391
v 0.05005 0.05421 -0.02502
v 0.01112 0.06255 -0.03614
v 0.01667 0.06812 -0.02780
v -0.01112 0.07090 -0.03058
v -0.05006 0.05421 -0.02780
v -0.00278 0.06812 -0.01947
v -0.05006 0.04587 -0.01113
v -0.01112 0.04587 -0.04449
v -0.00278 0.05421 -0.04171
v -0.01389 0.06812 -0.03336
v -0.01112 0.07090 -0.02502
v -0.04448 0.05143 -0.01113
v 0.04726 0.05421 -0.03336
v -0.02503 0.06812 -0.02780
v 0.04726 0.05421 -0.02225
v 0.05005 0.05421 -0.03058
v -0.01667 0.04032 -0.00278
v 0.00278 0.04310 -0.00278
v -0.06396 0.05144 0.01112
v -0.08065 0.04032 0.00000
v -0.07786 0.03754 0.00000
v -0.07786 0.04032 0.01391
v -0.07786 0.05700 0.00000
v -0.07786 0.05422 0.01391
v -0.06675 0.04310 0.00000
v -0.06675 0.05700 0.00000
v -0.07230 0.03754 0.01112
v -0.06953 0.05700 0.01391
v -0.08065 0.05144 0.00834
v -0.06396 0.04588 0.01112
v -0.06953 0.04310 0.01391
v -0.06396 0.04588 0.00278
v -0.07786 0.05700 0.01112
v -0.07230 0.03754 0.00000
v -0.08065 0.04032 0.00834
v -0.08065 0.05144 0.00000
v -0.07786 0.03754 0.01112
v -0.00834 -0.03477 0.00835
v -0.01945 0.01529 0.01668
v -0.01945 0.01529 0.01113
v 0.04449 0.00415 0.02225
v -0.05006 -0.02364 0.01668
v 0.00556 0.00415 0.00278
v -0.05006 0.00138 0.00835
v 0.03615 -0.02086 0.01946
v -0.03058 0.00138 0.02225
v -0.00278 -0.02364 0.02225
v 0.03615 -0.01808 0.01113
v -0.03615 -0.02920 0.00557
v 0.00833 -0.03199 0.00557
v 0.03893 0.00694 0.01390
v -0.05006 0.00694 0.01668
v -0.03615 0.01529 0.00835
v 0.00277 -0.03199 0.01668
v -0.05006 -0.02920 0.01390
v -0.01390 0.00138 0.00278
v -0.00834 -0.02643 0.00278
v -0.03058 0.01250 0.01946
v 0.00556 0.01250 0.00835
v 0.04171 0.00694 0.02225
v 0.00833 -0.01530 0.00278
v -0.05006 -0.00974 0.01946
v -0.05006 -0.02643 0.00835
v 0.04449 -0.00418 0.02225
v 0.03615 0.00138 0.01113
v 0.04449 -0.00418 0.01668
v 0.00277 -0.03477 0.01113
v -0.03058 -0.03199 0.00557
v -0.02225 -0.01530 0.02225
v -0.03615 0.01529 0.01668
v -0.03336 -0.03199 0.01390
v 0.01945 -0.02920 0.00835
v 0.00556 -0.02364 0.02225
v -0.00555 0.00694 0.02225
v 0.01945 -0.00418 0.00557
v 0.01389 -0.02920 0.00557
v -0.05006 -0.00140 0.01946
v 0.00833 0.01250 0.01668
v 0.03893 -0.01808 0.01390
v 0.00556 0.00972 0.00557
v -0.00278 -0.02920 0.01946
v -0.05006 0.00694 0.01113
v 0.04171 0.00415 0.01390
v 0.01945 -0.02920 0.01390
v 0.01945 -0.01530 0.00557
v -0.03893 0.01529 0.01390
v 0.03893 -0.00974 0.02225
v -0.01390 -0.01808 0.00278
v -0.01112 0.00415 0.00278
v 0.04171 0.00694 0.01668
v -0.03615 -0.01808 0.00557
v 0.00277 -0.02920 0.01946
v -0.01669 -0.04311 -0.05562
v -0.05006 -0.05701 -0.05840
v -0.04727 -0.05979 -0.05840
v -0.04449 -0.01530 -0.06118
v -0.05006 -0.03755 -0.05284
v -0.01669 -0.05145 -0.06118
v -0.03059 -0.05979 -0.05284
v -0.05006 -0.01530 -0.05562
v -0.05006 -0.05423 -0.06118
v -0.01669 -0.04867 -0.05284
v -0.05006 -0.05701 -0.05284
v -0.04449 -0.01530 -0.05562
v -0.01669 -0.04311 -0.06118
v -0.05006 -0.01530 -0.06118
v -0.02781 -0.05701 -0.06118
v -0.01669 -0.05423 -0.05562
v -0.03059 -0.05979 -0.05840
v -0.04727 -0.05979 -0.05284
v -0.01947 0.01250 -0.06396
v -0.05005 -0.01530 -0.06118
v -0.05005 -0.01530 -0.05562
v -0.05005 0.02363 -0.05562
v -0.02225 -0.00418 -0.05840
v -0.05005 0.01250 -0.06396
v -0.03059 -0.01252 -0.06396
v -0.02225 0.02084 -0.05840
v -0.03059 0.02084 -0.06396
v -0.05005 0.02363 -0.06118
v -0.04449 0.02363 -0.05562
v -0.05005 -0.00695 -0.06396
v -0.03059 -0.01252 -0.05840
v -0.01947 0.00416 -0.05840
v -0.02225 -0.00418 -0.06396
v -0.02225 0.02084 -0.06396
v -0.04727 -0.01530 -0.05562
v -0.06953 -0.06535 0.00000
v -0.08065 0.00693 0.02225
v -0.08621 0.00693 0.02225
v -0.08343 0.02083 0.00000
v -0.06953 0.00415 0.00834
v -0.08621 -0.01809 0.00000
v -0.08899 -0.00697 0.02225
v -0.06953 -0.02642 0.01668
v -0.06953 -0.01253 0.00000
v -0.07231 -0.06256 0.00556
v -0.07787 0.02363 0.00834
v -0.07231 -0.00419 0.02225
v -0.08899 0.00415 0.00556
v -0.08065 -0.04310 0.00000
v -0.08621 -0.01531 0.02225
v -0.07787 0.02083 0.00000
v -0.06953 0.00415 0.01668
v -0.07509 -0.01531 0.02225
v -0.08343 0.02363 0.00834
v -0.08899 0.00415 0.02225
v -0.08899 -0.00975 0.01112
v -0.08621 0.01528 0.00000
v -0.06953 -0.06256 0.00556
v -0.07509 0.00415 0.02225
v -0.07231 -0.06535 0.00278
v -0.08065 -0.04310 0.00278
v -0.07787 0.02363 0.00278
v -0.06953 -0.00141 0.01946
v -0.03893 0.01529 0.01113
v 0.00278 0.03475 0.01390
v -0.02224 0.03197 0.01669
v -0.03337 0.03197 0.00835
v 0.00278 0.02363 0.01113
v -0.02224 0.01529 0.01669
v -0.02502 0.01529 0.00835
v -0.03614 0.03475 0.01390
v -0.00835 0.03197 0.00835
v -0.03614 0.01529 0.01669
v -0.04171 0.02919 0.01390
v 0.00278 0.03475 0.01113
v 0.00278 0.02363 0.01390
v -0.03614 0.02919 0.01669
v -0.03614 0.01529 0.00835
v -0.04171 0.02919 0.01113
v -0.03614 0.03475 0.01113
v -0.00835 0.02641 0.00835
v -0.04450 0.04588 0.01112
v 0.00834 0.05144 0.01112
v 0.00834 0.05144 0.00278
v 0.00277 0.03475 0.01391
v -0.00557 0.04310 0.00278
v -0.02780 0.05144 0.01391
v -0.03058 0.03475 0.01391
v 0.00277 0.03475 0.00834
v -0.04171 0.04866 0.00834
v -0.03058 0.03475 0.01112
v 0.00277 0.05144 0.01391
v -0.00557 0.05144 0.00278
v -0.04450 0.04866 0.01391
v -0.04171 0.04588 0.00834
v -0.03058 0.05144 0.00834
v 0.00834 0.04588 0.01112
v 0.00277 0.04310 0.00278
v -0.06674 -0.04868 0.00556
v -0.06952 -0.06536 0.00000
v -0.05840 -0.06536 0.00000
v -0.06952 -0.06258 0.00834
v -0.06952 -0.04589 0.00000
v -0.05840 -0.05980 0.00278
v -0.06396 -0.06258 0.00834
v -0.06674 -0.04589 0.00000
v -0.06118 -0.06536 0.00556
v -0.06396 -0.05702 0.00834
v -0.06952 -0.04868 0.00556
v -0.05006 0.00694 0.01112
v -0.06952 -0.03199 0.00834
v -0.06952 -0.03199 0.01391
v -0.05006 -0.02921 0.01112
v -0.06952 0.00138 0.01669
v -0.06952 -0.00697 0.00556
v -0.05006 -0.02364 0.01669
v -0.05006 0.00694 0.01669
v -0.05006 -0.02643 0.00834
v -0.06952 0.00416 0.01112
v -0.06952 -0.02643 0.01669
v -0.05006 0.00138 0.00834
v -0.06674 -0.02921 0.00556
v -0.06118 -0.03199 0.01391
v -0.06952 0.00138 0.00834
v -0.06118 -0.03199 0.00834
f 459 477 481 
f 430 429 433 
f 427 429 435 
f 429 430 435 
f 429 427 436 
f 429 436 439 
f 428 438 440 
f 427 435 441 
f 436 427 444 
f 433 429 445 
f 429 439 445 
f 435 430 446 
f 444 427 447 
f 437 430 448 
f 426 443 448 
f 434 440 449 
f 440 437 449 
f 447 434 449 
f 444 447 449 
f 438 428 450 
f 430 433 451 
f 432 442 452 
f 445 439 452 
f 436 432 453 
f 439 436 453 
f 433 445 454 
f 452 442 454 
f 443 426 455 
f 454 442 455 
f 442 432 456 
f 444 431 456 
f 428 427 457 
f 441 428 457 
f 427 441 457 
f 443 431 458 
f 437 443 458 
f 449 437 458 
f 428 440 460 
f 440 434 460 
f 436 444 461 
f 444 456 461 
f 448 430 462 
f 430 451 462 
f 451 448 462 
f 431 444 463 
f 444 449 463 
f 458 431 463 
f 449 458 463 
f 432 452 464 
f 452 439 464 
f 439 453 464 
f 432 436 465 
f 456 432 465 
f 436 461 465 
f 461 456 465 
f 443 437 466 
f 437 448 466 
f 448 443 466 
f 447 428 467 
f 434 447 467 
f 428 460 467 
f 460 434 467 
f 430 438 468 
f 446 430 468 
f 438 450 468 
f 450 446 468 
f 441 435 469 
f 435 446 469 
f 450 441 469 
f 446 450 469 
f 431 443 470 
f 455 442 470 
f 443 455 470 
f 427 428 471 
f 428 447 471 
f 447 427 471 
f 456 431 472 
f 442 456 472 
f 431 470 472 
f 470 442 472 
f 428 441 473 
f 450 428 473 
f 441 450 473 
f 438 430 474 
f 430 440 474 
f 440 438 474 
f 430 437 475 
f 440 430 475 
f 437 440 475 
f 445 452 476 
f 454 445 476 
f 452 454 476 
f 426 451 477 
f 451 433 477 
f 477 459 478 
f 455 426 478 
f 454 455 478 
f 459 454 478 
f 426 477 478 
f 426 448 479 
f 451 426 479 
f 448 451 479 
f 453 432 480 
f 432 464 480 
f 464 453 480 
f 433 454 481 
f 454 459 481 
f 477 433 481 
