# Original object name hint: convex_0
v 0.07230 -0.06256 -0.04171
v 0.07508 0.05977 0.01391
v 0.07786 0.06534 -0.00279
v 0.05284 0.05142 -0.03336
v 0.06952 -0.05979 0.01391
v 0.08899 0.03196 -0.03336
v 0.05284 -0.06256 -0.03892
v 0.07786 0.04864 -0.05283
v 0.08621 -0.04031 -0.01391
v 0.05284 -0.00417 -0.01112
v 0.07508 -0.03198 -0.05562
v 0.06675 0.05421 0.01391
v 0.08064 0.04864 0.01391
v 0.06675 0.00415 -0.05562
v 0.07508 -0.06812 0.00833
v 0.08621 -0.03754 -0.03615
v 0.08064 -0.04031 0.01391
v 0.08899 -0.00973 -0.01391
v 0.06118 -0.03198 0.00833
v 0.08621 0.04864 -0.04448
v 0.06952 0.06534 -0.02502
v 0.05562 -0.06812 -0.02502
v 0.07508 -0.06812 -0.02780
v 0.05284 0.05142 -0.02224
v 0.06675 0.06534 -0.00279
v 0.08899 0.03473 -0.01947
v 0.06675 -0.03754 -0.05562
v 0.05284 -0.02919 -0.01112
v 0.07230 0.04864 -0.05283
v 0.05284 0.04586 -0.03615
v 0.08064 0.05977 -0.03892
v 0.05840 -0.07090 -0.03336
v 0.06675 -0.06535 0.00833
v 0.08342 0.05698 -0.01391
v 0.08342 0.04308 -0.05004
v 0.06952 0.05977 -0.03892
v 0.08621 -0.04310 -0.02502
v 0.08342 -0.04031 -0.04171
v 0.06118 -0.02642 -0.05004
v 0.08899 0.00415 -0.03336
v 0.06396 -0.07090 -0.01112
v 0.06952 -0.07090 -0.03336
v 0.05840 -0.06812 -0.03892
v 0.06675 -0.05144 0.01391
v 0.08899 0.02917 -0.01391
v 0.07508 -0.04310 -0.05283
v 0.05284 0.04864 -0.01947
v 0.07508 0.01249 -0.05562
v 0.07786 -0.05979 -0.03615
v 0.06952 0.04308 -0.05283
v 0.07786 0.06534 -0.02502
v 0.08621 0.05142 -0.04171
v 0.07786 -0.05422 0.01391
v 0.08342 0.05421 -0.04727
v 0.08621 0.04864 -0.01669
v 0.07230 -0.07090 -0.01391
v 0.07786 -0.02642 -0.05283
v 0.05284 -0.03198 -0.03892
v 0.08621 0.00971 -0.04171
v 0.08064 0.06254 -0.02780
v 0.06952 0.06534 0.00277
v 0.08899 -0.00973 -0.02502
v 0.07230 0.06254 -0.03615
v 0.05284 -0.05979 -0.03059
v 0.06674 -0.04589 0.01669
v 0.08064 -0.00141 0.06118
v 0.07509 -0.00141 0.06118
v 0.07509 -0.01253 0.01669
v 0.07787 -0.05145 0.01947
v 0.08899 -0.00141 0.03893
v 0.06953 -0.00141 0.03338
v 0.07787 -0.03755 0.04449
v 0.08064 -0.04033 0.01391
v 0.06953 -0.03755 0.03893
v 0.08899 -0.00697 0.04449
v 0.06674 -0.02365 0.01391
v 0.06953 -0.00141 0.05005
v 0.06953 -0.05702 0.01391
v 0.08064 -0.01809 0.01391
v 0.08064 -0.03476 0.04449
v 0.06674 -0.03755 0.03060
v 0.07231 -0.03755 0.04449
v 0.07509 -0.05702 0.01947
v 0.08064 -0.00141 0.03060
v 0.07231 -0.00419 0.05840
v 0.06953 -0.05423 0.02225
v 0.08064 -0.00419 0.06118
v 0.08621 -0.00419 0.05283
v 0.07231 -0.01531 0.01391
v 0.07509 -0.05702 0.01391
v 0.06674 -0.02643 0.02781
v 0.08621 -0.00141 0.03338
v 0.07509 -0.00419 0.06118
v 0.07231 -0.00141 0.03060
v 0.08899 -0.00141 0.04727
v 0.08621 -0.01531 0.04727
v 0.07787 -0.01531 0.01391
v 0.08064 -0.03755 0.03893
v 0.08899 -0.00697 0.03893
v -0.05562 -0.04310 -0.04727
v -0.08621 0.00416 -0.05006
v -0.08343 -0.00694 -0.05562
v -0.05006 0.04031 -0.06118
v -0.05006 -0.05145 -0.06118
v -0.06952 0.05144 -0.04727
v -0.07787 0.02917 -0.06118
v -0.07787 -0.05701 -0.04727
v -0.07230 -0.03755 -0.06118
v -0.05006 0.04031 -0.05562
v -0.05562 -0.00694 -0.06396
v -0.08343 0.04309 -0.04727
v -0.05006 -0.05423 -0.05006
v -0.07787 0.04587 -0.05562
v -0.07508 -0.05423 -0.05562
v -0.06119 -0.06258 -0.04727
v -0.08343 0.03195 -0.05562
v -0.05006 0.00972 -0.06396
v -0.07787 -0.01250 -0.06118
v -0.07508 0.03753 -0.06118
v -0.07230 -0.06258 -0.05006
v -0.05006 -0.05701 -0.05840
v -0.06675 0.04587 -0.04727
v -0.08621 0.02640 -0.04727
v -0.08065 -0.04588 -0.05006
v -0.07787 -0.03477 -0.05840
v -0.07787 0.05144 -0.05006
v -0.06675 -0.05423 -0.05840
v -0.08621 0.00416 -0.04727
v -0.06675 -0.04588 -0.06118
v -0.08065 0.04309 -0.05562
v -0.05562 0.00972 -0.06396
v -0.06675 0.04031 -0.06118
v -0.07787 -0.05423 -0.05284
v -0.06952 0.05144 -0.05006
v -0.08621 0.02640 -0.05006
v -0.05006 -0.04588 -0.05006
v -0.05006 -0.00694 -0.06396
v -0.08343 0.04031 -0.05284
v -0.08899 -0.00974 0.02781
v -0.07787 0.01807 0.04171
v -0.07787 0.01807 0.03893
v -0.07509 -0.02364 0.03615
v -0.07509 0.00138 0.02225
v -0.08621 -0.00974 0.04171
v -0.08899 0.00416 0.02225
v -0.07230 -0.00695 0.04171
v -0.08621 -0.01530 0.02225
v -0.08621 0.01251 0.04171
v -0.08065 -0.02643 0.03893
v -0.07509 -0.01252 0.02225
v -0.08899 -0.00695 0.03893
v -0.08343 0.01807 0.03615
v -0.07230 0.00138 0.03615
v -0.08065 0.00694 0.02225
v -0.08899 0.00694 0.03615
v -0.08343 -0.02364 0.03893
v -0.07787 -0.01808 0.02503
v -0.07230 -0.00974 0.03615
v -0.07509 -0.01530 0.04171
v -0.08065 -0.02643 0.03615
v -0.08621 0.01528 0.03615
v -0.07230 0.04032 0.04449
v -0.05840 0.05700 0.04171
v -0.05840 0.05700 0.03893
v -0.07787 0.05422 0.03615
v -0.06674 0.03754 0.03893
v -0.07230 0.05700 0.04449
v -0.05840 0.04588 0.04449
v -0.07787 0.03754 0.04171
v -0.07230 0.04032 0.03615
v -0.05840 0.04310 0.03893
v -0.07787 0.05422 0.04171
v -0.07787 0.04032 0.03615
v -0.06952 0.05422 0.03615
v -0.06118 0.05700 0.04449
v -0.06674 0.03754 0.04171
v -0.07508 0.05144 0.04449
v -0.05562 -0.00141 0.03894
v 0.05284 0.02085 0.04727
v 0.05284 0.00138 0.04727
v 0.04449 -0.00418 0.02225
v -0.03059 -0.02642 0.04449
v -0.02780 0.02085 0.04727
v -0.00002 0.00694 0.02225
v 0.00832 -0.00141 0.05562
v -0.00555 -0.01808 0.02225
v 0.00555 -0.02921 0.04171
v 0.05005 0.02085 0.03338
v -0.03615 0.02085 0.03616
v 0.03893 0.01528 0.05562
v -0.05006 -0.00418 0.04449
v -0.03337 -0.02642 0.03894
v 0.03058 0.00138 0.05562
v 0.00555 -0.02921 0.03616
v 0.05284 -0.00141 0.03616
v 0.04449 0.00694 0.02225
v 0.00832 0.02085 0.03060
v -0.04449 0.00138 0.03338
v 0.00555 0.00972 0.05562
v 0.00832 0.02085 0.05283
v -0.05562 -0.00695 0.03894
v -0.02780 -0.00418 0.05005
v -0.03615 0.02085 0.04449
v -0.02780 0.00972 0.05005
v 0.00555 -0.01808 0.02225
v 0.04171 -0.00695 0.02225
v 0.05284 0.01528 0.03338
v -0.00276 -0.02642 0.04449
v -0.00555 0.00138 0.02225
v 0.05284 -0.00141 0.04449
v -0.00555 -0.02921 0.03616
v 0.03615 -0.00141 0.05283
v 0.03893 0.02085 0.05283
v 0.01111 0.01528 0.05562
v -0.02502 -0.02086 0.04727
v -0.05006 0.00138 0.04449
v -0.05562 -0.00695 0.04171
v -0.04171 0.00694 0.03338
v 0.02224 -0.00141 0.05562
v 0.03893 0.00694 0.05562
v -0.04449 -0.01252 0.03616
v 0.03893 -0.00974 0.03338
v 0.01667 0.02085 0.03060
v -0.02502 -0.02642 0.03616
v -0.05562 -0.00141 0.04171
v -0.04449 -0.00141 0.03338
v -0.03893 0.02085 0.03893
v 0.03337 0.07090 0.04449
v 0.03058 0.06812 0.04727
v 0.05284 0.02085 0.03615
v 0.03893 0.02085 0.05284
v -0.05840 0.05422 0.03893
v 0.03058 0.07090 0.03337
v -0.05840 0.05143 0.04449
v -0.00555 0.02085 0.03337
v 0.01390 0.02085 0.05284
v -0.02780 0.06812 0.04172
v 0.05284 0.03198 0.04727
v -0.03893 0.02085 0.04449
v -0.04727 0.04865 0.03615
v 0.04727 0.02085 0.03337
v 0.02503 0.05422 0.05006
v 0.05284 0.03475 0.03893
v 0.01390 0.06812 0.04727
v -0.05561 0.03754 0.03893
v -0.00002 0.07090 0.03615
v -0.00278 0.05143 0.03337
v -0.03614 0.02085 0.03615
v 0.03614 0.05422 0.05006
v 0.03893 0.06534 0.04449
v -0.05561 0.04032 0.04449
v 0.05284 0.02085 0.04727
v -0.00002 0.07090 0.04449
v 0.03614 0.06812 0.03615
v 0.01390 0.02364 0.05284
v -0.02780 0.02085 0.04727
v 0.02224 0.07090 0.03337
v -0.01111 0.06812 0.03615
v -0.02780 0.06812 0.03893
v 0.05284 0.02641 0.03615
v 0.00277 0.04310 0.05006
v -0.04727 0.04032 0.03615
v -0.04727 0.02641 0.04172
v 0.03337 0.02641 0.05284
v -0.05840 0.04588 0.04449
v -0.04450 0.05143 0.03615
v -0.01111 0.06812 0.04449
v 0.03893 0.06534 0.03893
v -0.05840 0.04310 0.03893
v 0.04171 0.04310 0.05006
v -0.04727 0.02641 0.03893
v -0.05840 0.05422 0.04172
v 0.05840 0.00973 0.03337
v 0.05562 0.02641 0.04728
v 0.05562 0.02918 0.04449
v 0.06674 0.02363 0.04449
v 0.05284 0.00138 0.04728
v 0.06674 0.00138 0.04728
v 0.06674 0.02363 0.03337
v 0.05284 0.02641 0.03615
v 0.06674 -0.00140 0.03894
v 0.05284 0.00138 0.03615
v 0.06674 0.00417 0.03337
v 0.05284 0.02641 0.04728
v 0.05284 -0.00140 0.04449
v 0.06674 0.01807 0.04728
v 0.05284 0.02918 0.03894
v 0.07787 0.03197 0.01391
v 0.07787 0.02085 0.06396
v 0.07509 0.02085 0.06396
v 0.06953 0.05978 0.03616
v 0.06674 -0.00139 0.03616
v 0.08899 -0.00139 0.04727
v 0.07787 0.05699 0.03893
v 0.06674 0.05421 0.01391
v 0.08064 0.04865 0.01391
v 0.07231 -0.00139 0.06117
v 0.06674 0.04865 0.04449
v 0.08621 -0.00139 0.03338
v 0.08899 0.01530 0.04449
v 0.06953 0.03197 0.01391
v 0.07787 0.05143 0.04727
v 0.07231 -0.00139 0.03059
v 0.07787 0.05699 0.01391
v 0.06674 0.00417 0.05006
v 0.07787 -0.00139 0.06396
v 0.08064 0.02364 0.06117
v 0.08899 -0.00139 0.03893
v 0.06953 0.05143 0.04727
v 0.06674 0.03753 0.01391
v 0.07231 0.01530 0.06117
v 0.08342 0.02919 0.05283
v 0.08064 -0.00139 0.03059
v 0.08899 0.01530 0.03893
v 0.08064 0.04865 0.03893
v 0.07787 0.02919 0.06117
v 0.08621 0.01530 0.05283
v 0.06953 0.05699 0.01391
v 0.07509 0.05978 0.02782
v 0.08064 -0.00139 0.06117
v 0.08064 0.04309 0.01391
v 0.06674 0.05421 0.03616
v 0.06674 -0.00139 0.04727
v 0.06674 0.00139 0.03338
v 0.06674 0.01251 0.05006
v 0.08064 0.03474 0.05562
v 0.08342 0.03474 0.04727
v 0.06953 0.05699 0.04171
v -0.05006 0.02363 -0.06118
v -0.01113 0.04866 -0.05562
v -0.01113 0.04031 -0.05562
v -0.05006 0.02363 -0.05562
v -0.05006 0.04031 -0.05562
v -0.01391 0.04866 -0.06118
v -0.05006 0.04031 -0.06118
v -0.01391 0.04031 -0.06118
v -0.02503 0.04866 -0.05562
v -0.04449 0.02363 -0.06118
v -0.04449 0.02363 -0.05562
v -0.02503 0.04866 -0.06118
v -0.01113 0.04587 -0.06118
v -0.08620 -0.02364 -0.04171
v -0.06675 0.05700 -0.00000
v -0.05006 0.04309 -0.01391
v -0.06118 -0.06814 -0.00000
v -0.05006 -0.06258 -0.04449
v -0.06952 0.05420 -0.04727
v -0.08899 0.00415 -0.00557
v -0.07786 -0.05979 -0.04727
v -0.08620 0.04309 -0.04171
v -0.05006 0.05142 -0.03337
v -0.08064 -0.04311 -0.00000
v -0.05006 -0.06814 -0.00835
v -0.08064 0.05420 -0.00000
v -0.06952 0.06812 -0.03058
v -0.07230 -0.06814 -0.01669
v -0.08620 0.03196 -0.04727
v -0.08899 -0.01808 -0.03337
v -0.05841 0.06812 -0.02502
v -0.08899 0.03196 -0.02502
v -0.05006 -0.00973 -0.00835
v -0.08064 -0.05702 -0.02502
v -0.05562 -0.04311 -0.04727
v -0.08064 0.05700 -0.04171
v -0.06952 -0.06814 -0.03615
v -0.08620 -0.01808 -0.00000
v -0.07230 -0.06535 -0.00000
v -0.05841 -0.05702 -0.00000
v -0.05006 -0.04311 -0.04449
v -0.08064 0.05977 -0.01947
v -0.08899 -0.01529 -0.01113
v -0.08899 0.02640 -0.04171
v -0.06675 0.04865 -0.04727
v -0.06118 0.06812 -0.03337
v -0.05006 -0.06814 -0.03615
v -0.07508 0.05977 -0.00278
v -0.08620 -0.00417 -0.04727
v -0.05841 -0.06258 -0.04727
v -0.08342 -0.04589 -0.03893
v -0.08620 0.04588 -0.02225
v -0.07786 0.05420 -0.04727
v -0.07786 -0.06258 -0.01669
v -0.08899 0.02640 -0.01669
v -0.08620 0.01528 -0.00000
v -0.06952 0.06812 -0.02225
v -0.08342 -0.04589 -0.02225
v -0.07230 -0.06535 -0.04449
v -0.07786 -0.06258 -0.03893
v -0.07508 0.06534 -0.03337
v -0.05006 0.05420 -0.02780
v -0.08342 0.05420 -0.03615
v -0.08064 -0.05145 -0.04727
v -0.08899 0.00138 -0.04171
v -0.08342 0.04588 -0.04727
v -0.07786 -0.05702 -0.00557
v -0.08064 -0.05702 -0.03893
v -0.05841 0.06534 -0.03337
v -0.08342 -0.03477 -0.00278
v -0.08620 0.04588 -0.03893
v -0.07230 0.06534 -0.03615
v -0.07508 0.06534 -0.02225
v -0.08342 0.05420 -0.01947
v -0.08064 0.05977 -0.03337
v -0.06952 -0.06814 -0.00278
v -0.07230 -0.06814 -0.03058
v 0.00278 0.00138 -0.06396
v -0.01669 -0.05424 -0.05840
v -0.01669 -0.05424 -0.05562
v 0.01112 -0.04311 -0.06118
v -0.00834 0.02085 -0.05840
v 0.01112 -0.03755 -0.05562
v -0.01112 -0.04311 -0.06396
v -0.01390 0.02085 -0.06396
v 0.00278 -0.04589 -0.06396
v -0.01390 0.02085 -0.05840
v 0.00278 0.00138 -0.05840
v -0.01669 -0.04032 -0.05562
v -0.01669 -0.05145 -0.06118
v -0.00278 -0.05145 -0.05562
v 0.00834 -0.02642 -0.06396
v -0.00278 -0.05145 -0.06118
v -0.00834 0.02085 -0.06396
v 0.00834 -0.04589 -0.05562
v 0.01112 -0.03477 -0.06118
v -0.01112 -0.03477 -0.05562
v -0.01389 -0.07090 -0.03615
v 0.05284 0.01807 -0.02225
v 0.00834 0.00415 -0.00000
v -0.05006 0.01807 -0.03337
v -0.05006 -0.06535 -0.00835
v 0.05005 -0.06813 -0.03615
v 0.01667 -0.03754 -0.04727
v -0.05006 -0.06257 -0.04449
v 0.05005 -0.02365 -0.00835
v -0.05006 0.01807 -0.01391
v 0.05284 0.01807 -0.03615
v -0.00834 -0.06813 -0.01113
v -0.02223 -0.02920 -0.00000
v -0.01667 0.01807 -0.03893
v 0.00556 -0.03476 -0.00000
v -0.02503 0.01807 -0.00557
v 0.00278 -0.06257 -0.04727
v 0.04449 -0.07090 -0.03058
v 0.05284 -0.04866 -0.03893
v -0.05006 -0.04310 -0.04449
v -0.05006 0.00137 -0.00835
v 0.05284 -0.00419 -0.01113
v -0.03059 -0.07090 -0.01391
v 0.05284 -0.02920 -0.01113
v -0.01945 0.00137 -0.00000
v -0.05006 -0.06813 -0.03615
v -0.00556 -0.03754 -0.04727
v 0.01667 0.01807 -0.03893
v -0.02781 -0.06257 -0.04727
v 0.02501 -0.07090 -0.03893
v 0.01945 -0.05145 -0.04727
v -0.01389 0.01807 -0.00557
v 0.05005 -0.06813 -0.03058
v -0.03059 -0.06813 -0.04171
v 0.01112 -0.02642 -0.00000
v 0.05284 -0.03476 -0.03893
v -0.05006 -0.06813 -0.01113
v 0.05284 -0.05978 -0.03337
v -0.00000 -0.03476 -0.04727
v 0.01945 -0.04032 -0.04727
v -0.00556 -0.07090 -0.01391
v 0.05005 -0.01531 -0.00835
v -0.04170 -0.01253 -0.00557
v -0.03615 0.01807 -0.00835
v 0.04449 -0.07090 -0.03615
v 0.05005 0.01527 -0.01947
v 0.01945 -0.06257 -0.04449
v -0.01667 0.00415 -0.00000
v -0.01667 -0.03198 -0.00000
v -0.04448 -0.06535 -0.00835
v -0.02781 -0.05700 -0.04727
v -0.04727 -0.06813 -0.03893
v -0.00556 -0.07090 -0.03893
v -0.03059 -0.07090 -0.01947
v 0.01112 -0.03476 -0.04727
v -0.03893 -0.06535 -0.04449
v -0.04727 0.03476 -0.03614
v -0.00556 0.07090 -0.02502
v 0.00834 0.06812 -0.01947
v 0.05284 0.01807 -0.03614
v -0.03615 0.01807 -0.00835
v 0.00278 0.04865 -0.00278
v -0.04448 0.04865 -0.00835
v 0.05284 0.05143 -0.03336
v -0.01112 0.04865 -0.04449
v 0.05284 0.01807 -0.02225
v -0.05006 0.01807 -0.03336
v -0.05006 0.05421 -0.03336
v 0.05284 0.04865 -0.01947
v 0.00834 0.06812 -0.03336
v -0.01945 0.01807 -0.03892
v -0.00556 0.01807 -0.00835
v -0.02781 0.05143 -0.00278
v -0.05006 0.01807 -0.01391
v -0.02503 0.06812 -0.03058
v 0.05284 0.04587 -0.03614
v -0.00000 0.04032 -0.00278
v 0.02501 0.06533 -0.02502
v 0.05284 0.02642 -0.01947
v -0.05006 0.04865 -0.01391
v 0.01667 0.01807 -0.03892
v -0.02223 0.06812 -0.02502
v -0.03059 0.04310 -0.00278
v -0.00000 0.05143 -0.00278
v -0.01667 0.05421 -0.04171
v -0.05006 0.04587 -0.03614
v -0.00834 0.04587 -0.04449
v -0.00000 0.06533 -0.03614
v -0.04448 0.03198 -0.00835
v -0.04727 0.05143 -0.01391
v 0.05005 0.05421 -0.02502
v 0.01112 0.06255 -0.03614
v 0.01667 0.06812 -0.02780
v -0.01112 0.07090 -0.03058
v -0.05006 0.05421 -0.02780
v -0.00278 0.06812 -0.01947
v -0.05006 0.04587 -0.01113
v -0.01112 0.04587 -0.04449
v -0.00278 0.05421 -0.04171
v -0.01389 0.06812 -0.03336
v -0.01112 0.07090 -0.02502
v -0.04448 0.05143 -0.01113
v 0.04726 0.05421 -0.03336
v -0.02503 0.06812 -0.02780
v 0.04726 0.05421 -0.02225
v 0.05005 0.05421 -0.03058
v -0.01667 0.04032 -0.00278
v 0.00278 0.04310 -0.00278
v -0.06396 0.05144 0.01112
v -0.08065 0.04032 0.00000
v -0.07786 0.03754 0.00000
v -0.07786 0.04032 0.01391
v -0.07786 0.05700 0.00000
v -0.07786 0.05422 0.01391
v -0.06675 0.04310 0.00000
v -0.06675 0.05700 0.00000
v -0.07230 0.03754 0.01112
v -0.06953 0.05700 0.01391
v -0.08065 0.05144 0.00834
v -0.06396 0.04588 0.01112
v -0.06953 0.04310 0.01391
v -0.06396 0.04588 0.00278
v -0.07786 0.05700 0.01112
v -0.07230 0.03754 0.00000
v -0.08065 0.04032 0.00834
v -0.08065 0.05144 0.00000
v -0.07786 0.03754 0.01112
v -0.00834 -0.03477 0.00835
v -0.01945 0.01529 0.01668
v -0.01945 0.01529 0.01113
v 0.04449 0.00415 0.02225
v -0.05006 -0.02364 0.01668
v 0.00556 0.00415 0.00278
v -0.05006 0.00138 0.00835
v 0.03615 -0.02086 0.01946
v -0.03058 0.00138 0.02225
v -0.00278 -0.02364 0.02225
v 0.03615 -0.01808 0.01113
v -0.03615 -0.02920 0.00557
v 0.00833 -0.03199 0.00557
v 0.03893 0.00694 0.01390
v -0.05006 0.00694 0.01668
v -0.03615 0.01529 0.00835
v 0.00277 -0.03199 0.01668
v -0.05006 -0.02920 0.01390
v -0.01390 0.00138 0.00278
v -0.00834 -0.02643 0.00278
v -0.03058 0.01250 0.01946
v 0.00556 0.01250 0.00835
v 0.04171 0.00694 0.02225
v 0.00833 -0.01530 0.00278
v -0.05006 -0.00974 0.01946
v -0.05006 -0.02643 0.00835
v 0.04449 -0.00418 0.02225
v 0.03615 0.00138 0.01113
v 0.04449 -0.00418 0.01668
v 0.00277 -0.03477 0.01113
v -0.03058 -0.03199 0.00557
v -0.02225 -0.01530 0.02225
v -0.03615 0.01529 0.01668
v -0.03336 -0.03199 0.01390
v 0.01945 -0.02920 0.00835
v 0.00556 -0.02364 0.02225
v -0.00555 0.00694 0.02225
v 0.01945 -0.00418 0.00557
v 0.01389 -0.02920 0.00557
v -0.05006 -0.00140 0.01946
v 0.00833 0.01250 0.01668
v 0.03893 -0.01808 0.01390
v 0.00556 0.00972 0.00557
v -0.00278 -0.02920 0.01946
v -0.05006 0.00694 0.01113
v 0.04171 0.00415 0.01390
v 0.01945 -0.02920 0.01390
v 0.01945 -0.01530 0.00557
v -0.03893 0.01529 0.01390
v 0.03893 -0.00974 0.02225
v -0.01390 -0.01808 0.00278
v -0.01112 0.00415 0.00278
v 0.04171 0.00694 0.01668
v -0.03615 -0.01808 0.00557
v 0.00277 -0.02920 0.01946
v -0.01669 -0.04311 -0.05562
v -0.05006 -0.05701 -0.05840
v -0.04727 -0.05979 -0.05840
v -0.04449 -0.01530 -0.06118
v -0.05006 -0.03755 -0.05284
v -0.01669 -0.05145 -0.06118
v -0.03059 -0.05979 -0.05284
v -0.05006 -0.01530 -0.05562
v -0.05006 -0.05423 -0.06118
v -0.01669 -0.04867 -0.05284
v -0.05006 -0.05701 -0.05284
v -0.04449 -0.01530 -0.05562
v -0.01669 -0.04311 -0.06118
v -0.05006 -0.01530 -0.06118
v -0.02781 -0.05701 -0.06118
v -0.01669 -0.05423 -0.05562
v -0.03059 -0.05979 -0.05840
v -0.04727 -0.05979 -0.05284
v -0.01947 0.01250 -0.06396
v -0.05005 -0.01530 -0.06118
v -0.05005 -0.01530 -0.05562
v -0.05005 0.02363 -0.05562
v -0.02225 -0.00418 -0.05840
v -0.05005 0.01250 -0.06396
v -0.03059 -0.01252 -0.06396
v -0.02225 0.02084 -0.05840
v -0.03059 0.02084 -0.06396
v -0.05005 0.02363 -0.06118
v -0.04449 0.02363 -0.05562
v -0.05005 -0.00695 -0.06396
v -0.03059 -0.01252 -0.05840
v -0.01947 0.00416 -0.05840
v -0.02225 -0.00418 -0.06396
v -0.02225 0.02084 -0.06396
v -0.04727 -0.01530 -0.05562
v -0.06953 -0.06535 0.00000
v -0.08065 0.00693 0.02225
v -0.08621 0.00693 0.02225
v -0.08343 0.02083 0.00000
v -0.06953 0.00415 0.00834
v -0.08621 -0.01809 0.00000
v -0.08899 -0.00697 0.02225
v -0.06953 -0.02642 0.01668
v -0.06953 -0.01253 0.00000
v -0.07231 -0.06256 0.00556
v -0.07787 0.02363 0.00834
v -0.07231 -0.00419 0.02225
v -0.08899 0.00415 0.00556
v -0.08065 -0.04310 0.00000
v -0.08621 -0.01531 0.02225
v -0.07787 0.02083 0.00000
v -0.06953 0.00415 0.01668
v -0.07509 -0.01531 0.02225
v -0.08343 0.02363 0.00834
v -0.08899 0.00415 0.02225
v -0.08899 -0.00975 0.01112
v -0.08621 0.01528 0.00000
v -0.06953 -0.06256 0.00556
v -0.07509 0.00415 0.02225
v -0.07231 -0.06535 0.00278
v -0.08065 -0.04310 0.00278
v -0.07787 0.02363 0.00278
v -0.06953 -0.00141 0.01946
v -0.03893 0.01529 0.01113
v 0.00278 0.03475 0.01390
v -0.02224 0.03197 0.01669
v -0.03337 0.03197 0.00835
v 0.00278 0.02363 0.01113
v -0.02224 0.01529 0.01669
v -0.02502 0.01529 0.00835
v -0.03614 0.03475 0.01390
v -0.00835 0.03197 0.00835
v -0.03614 0.01529 0.01669
v -0.04171 0.02919 0.01390
v 0.00278 0.03475 0.01113
v 0.00278 0.02363 0.01390
v -0.03614 0.02919 0.01669
v -0.03614 0.01529 0.00835
v -0.04171 0.02919 0.01113
v -0.03614 0.03475 0.01113
v -0.00835 0.02641 0.00835
v -0.04450 0.04588 0.01112
v 0.00834 0.05144 0.01112
v 0.00834 0.05144 0.00278
v 0.00277 0.03475 0.01391
v -0.00557 0.04310 0.00278
v -0.02780 0.05144 0.01391
v -0.03058 0.03475 0.01391
v 0.00277 0.03475 0.00834
v -0.04171 0.04866 0.00834
v -0.03058 0.03475 0.01112
v 0.00277 0.05144 0.01391
v -0.00557 0.05144 0.00278
v -0.04450 0.04866 0.01391
v -0.04171 0.04588 0.00834
v -0.03058 0.05144 0.00834
v 0.00834 0.04588 0.01112
v 0.00277 0.04310 0.00278
v -0.06674 -0.04868 0.00556
v -0.06952 -0.06536 0.00000
v -0.05840 -0.06536 0.00000
v -0.06952 -0.06258 0.00834
v -0.06952 -0.04589 0.00000
v -0.05840 -0.05980 0.00278
v -0.06396 -0.06258 0.00834
v -0.06674 -0.04589 0.00000
v -0.06118 -0.06536 0.00556
v -0.06396 -0.05702 0.00834
v -0.06952 -0.04868 0.00556
v -0.05006 0.00694 0.01112
v -0.06952 -0.03199 0.00834
v -0.06952 -0.03199 0.01391
v -0.05006 -0.02921 0.01112
v -0.06952 0.00138 0.01669
v -0.06952 -0.00697 0.00556
v -0.05006 -0.02364 0.01669
v -0.05006 0.00694 0.01669
v -0.05006 -0.02643 0.00834
v -0.06952 0.00416 0.01112
v -0.06952 -0.02643 0.01669
v -0.05006 0.00138 0.00834
v -0.06674 -0.02921 0.00556
v -0.06118 -0.03199 0.01391
v -0.06952 0.00138 0.00834
v -0.06118 -0.03199 0.00834
f 22 28 64 
f 4 7 10 
f 5 2 12 
f 3 2 13 
f 2 5 13 
f 13 5 17 
f 13 17 18 
f 17 9 18 
f 12 10 19 
f 4 10 24 
f 3 21 25 
f 21 4 25 
f 4 24 25 
f 24 12 25 
f 18 6 26 
f 14 11 27 
f 10 7 28 
f 19 10 28 
f 7 4 30 
f 4 29 30 
f 22 7 32 
f 15 5 33 
f 19 28 33 
f 28 22 33 
f 3 13 34 
f 4 21 36 
f 29 4 36 
f 9 15 37 
f 18 9 37 
f 15 23 37 
f 27 7 39 
f 14 27 39 
f 30 14 39 
f 6 18 40 
f 20 6 40 
f 22 32 41 
f 15 33 41 
f 33 22 41 
f 41 32 42 
f 7 27 43 
f 32 7 43 
f 1 42 43 
f 42 32 43 
f 5 12 44 
f 12 19 44 
f 33 5 44 
f 19 33 44 
f 13 18 45 
f 18 26 45 
f 27 11 46 
f 11 38 46 
f 1 43 46 
f 43 27 46 
f 10 12 47 
f 24 10 47 
f 12 24 47 
f 11 14 48 
f 14 29 48 
f 29 8 48 
f 8 35 48 
f 35 11 48 
f 16 37 49 
f 37 23 49 
f 38 16 49 
f 23 42 49 
f 42 1 49 
f 1 46 49 
f 46 38 49 
f 29 14 50 
f 14 30 50 
f 30 29 50 
f 21 3 51 
f 6 20 52 
f 26 6 52 
f 5 15 53 
f 15 9 53 
f 17 5 53 
f 9 17 53 
f 8 29 54 
f 35 8 54 
f 20 35 54 
f 52 20 54 
f 34 13 55 
f 13 45 55 
f 45 26 55 
f 52 34 55 
f 26 52 55 
f 23 15 56 
f 15 41 56 
f 42 23 56 
f 41 42 56 
f 11 35 57 
f 38 11 57 
f 35 38 57 
f 7 30 58 
f 39 7 58 
f 30 39 58 
f 35 20 59 
f 16 38 59 
f 38 35 59 
f 40 16 59 
f 20 40 59 
f 3 34 60 
f 51 3 60 
f 31 51 60 
f 34 52 60 
f 54 31 60 
f 52 54 60 
f 2 3 61 
f 12 2 61 
f 3 25 61 
f 25 12 61 
f 37 16 62 
f 18 37 62 
f 40 18 62 
f 16 40 62 
f 36 21 63 
f 29 36 63 
f 21 51 63 
f 51 31 63 
f 54 29 63 
f 31 54 63 
f 7 22 64 
f 28 7 64 
