# Original object name hint: convex_0
v -0.06236 -0.03430 0.02651
v -0.00936 0.04366 -0.01402
v 0.00624 0.04054 0.01714
v 0.00624 -0.04366 -0.02027
v -0.09667 0.02805 -0.02027
v -0.06861 -0.03742 -0.03898
v -0.07484 0.03118 0.02651
v 0.00624 -0.02182 0.03586
v 0.00624 0.04054 -0.02651
v -0.09355 -0.03742 0.00467
v -0.06861 0.04366 -0.03586
v -0.08731 0.04054 0.00778
v -0.01248 0.00623 0.03898
v -0.00936 -0.04678 0.00156
v -0.07795 -0.02494 0.02963
v -0.08420 -0.04366 -0.02339
v -0.09979 0.02495 0.00467
v -0.09979 -0.00623 -0.02027
v 0.00624 -0.03430 -0.02651
v 0.00624 -0.03742 0.02651
v -0.06236 -0.04678 0.00467
v -0.00001 0.02805 0.03274
v -0.04990 -0.04678 -0.02963
v -0.07484 0.00623 0.03274
v -0.07795 0.04366 0.00778
v -0.04055 -0.02182 0.03586
v -0.07484 0.03741 -0.03586
v -0.05301 0.04054 -0.03586
v -0.01873 0.03430 0.02963
v -0.05612 0.02495 0.03274
v -0.09355 -0.03430 -0.02339
v -0.09044 0.04054 -0.01402
v -0.08731 -0.00623 0.02338
v 0.00624 0.01871 0.03586
v -0.08731 0.02805 0.02027
v -0.06548 -0.03118 -0.03898
v -0.07172 -0.04054 0.01714
v -0.04055 -0.03118 0.03274
v -0.02184 -0.04054 0.02338
v 0.00624 -0.04366 0.01402
v -0.09355 -0.03118 0.01091
v -0.07484 -0.04678 -0.00467
v -0.05925 -0.04366 -0.03586
v -0.09667 -0.02807 0.00156
v -0.09667 0.01246 -0.02339
v -0.01873 -0.00935 0.03898
v -0.07172 -0.04678 -0.02963
v 0.00310 -0.00311 0.03898
v -0.00936 -0.04678 -0.02027
v -0.09667 0.03430 0.00467
v -0.09979 0.00935 0.00467
v -0.01873 0.04054 0.02027
v 0.00310 -0.02494 0.03586
v -0.07795 -0.03118 0.02651
v -0.09044 -0.04054 0.00467
v 0.00310 -0.04366 -0.02339
v -0.05301 -0.00623 0.03586
v -0.07795 0.02182 0.02963
v -0.09979 0.02805 -0.00467
v -0.04678 0.01246 0.03586
v -0.09044 -0.03430 -0.02651
v -0.09355 0.03741 -0.01714
v -0.07484 0.03430 0.02338
v -0.09355 -0.03742 -0.02027
v 0.09979 0.02495 0.00468
v 0.00624 -0.04366 -0.02027
v 0.06236 -0.04678 -0.02027
v 0.00624 -0.03118 0.03274
v 0.00624 0.04054 -0.02339
v 0.00624 0.03118 0.02962
v 0.06236 0.04054 -0.03274
v 0.09979 -0.03118 -0.00156
v 0.06860 -0.03742 -0.03898
v 0.07172 0.04678 0.00155
v 0.09667 0.02806 -0.01715
v 0.01873 -0.01246 0.03587
v 0.07484 -0.03742 0.01403
v 0.09355 0.02495 0.01090
v 0.00624 -0.04366 0.01403
v 0.09667 -0.03118 -0.02339
v 0.05301 -0.03742 -0.03898
v 0.00937 0.04366 0.01403
v 0.00624 0.03742 -0.02650
v 0.07172 -0.04678 -0.00156
v 0.01560 0.01558 0.03587
v 0.00624 -0.03430 -0.02650
v 0.09355 -0.01558 0.01090
v 0.07484 0.04054 0.01090
v 0.08731 0.01558 -0.02650
v 0.09355 0.03742 -0.01402
v 0.06860 -0.04366 0.01090
v 0.06549 -0.04366 -0.03586
v 0.09979 -0.01558 -0.02027
v 0.08107 -0.04366 -0.02027
v 0.07172 0.04678 -0.00779
v 0.05301 0.04054 -0.03274
v 0.09355 0.03742 0.00155
v 0.08731 0.01246 0.01403
v 0.00624 0.01871 0.03587
v 0.01873 0.04054 0.02027
v 0.01873 -0.03430 0.02962
v 0.09667 -0.03430 0.00155
v 0.09979 0.03118 -0.00779
v 0.06549 0.04366 -0.02650
v 0.09979 -0.00311 0.00779
v 0.05301 -0.03118 -0.03898
v 0.07484 0.03430 -0.02963
v 0.06236 0.04678 -0.00779
v 0.09043 -0.02806 0.01090
v 0.01873 0.01246 0.03587
v 0.01560 0.02495 0.03274
v 0.06860 -0.03118 -0.03898
v 0.05613 -0.04678 0.00155
v 0.07484 0.03430 0.01403
v 0.02496 -0.02182 0.03274
v 0.09667 -0.01246 -0.02339
v 0.00624 -0.02182 0.03587
v 0.08731 -0.00623 0.01403
v 0.00624 0.04054 0.02027
v 0.09667 -0.03430 -0.02027
v 0.01249 -0.03742 0.02649
v 0.05613 -0.04054 -0.03898
v 0.09355 0.03430 0.00779
v 0.01873 0.03430 0.02649
v 0.09355 -0.03742 -0.00156
v 0.09979 -0.02495 0.00468
v 0.08731 -0.03742 0.00779
v 0.07172 -0.04366 -0.03274
f 31 61 64 
f 4 3 8 
f 2 3 9 
f 3 4 9 
f 2 9 11 
f 9 4 19 
f 4 8 20 
f 14 21 23 
f 3 2 25 
f 2 11 25 
f 11 9 28 
f 22 3 29 
f 29 7 30 
f 22 29 30 
f 25 11 32 
f 12 25 32 
f 15 24 33 
f 8 3 34 
f 3 22 34 
f 30 13 34 
f 22 30 34 
f 17 33 35 
f 19 6 36 
f 9 19 36 
f 27 11 36 
f 6 27 36 
f 28 9 36 
f 11 28 36 
f 26 15 38 
f 1 37 39 
f 37 21 39 
f 38 1 39 
f 20 38 39 
f 14 4 40 
f 4 20 40 
f 21 14 40 
f 20 39 40 
f 39 21 40 
f 15 33 41 
f 23 21 42 
f 6 19 43 
f 10 41 44 
f 18 5 45 
f 5 27 45 
f 27 6 45 
f 42 16 47 
f 23 42 47 
f 6 43 47 
f 43 23 47 
f 8 34 48 
f 34 13 48 
f 13 46 48 
f 4 14 49 
f 14 23 49 
f 12 32 50 
f 35 12 50 
f 17 35 50 
f 17 18 51 
f 33 17 51 
f 41 33 51 
f 18 44 51 
f 44 41 51 
f 3 25 52 
f 29 3 52 
f 20 8 53 
f 38 20 53 
f 26 38 53 
f 46 26 53 
f 8 48 53 
f 48 46 53 
f 37 1 54 
f 1 38 54 
f 38 15 54 
f 41 10 54 
f 15 41 54 
f 21 37 55 
f 16 42 55 
f 42 21 55 
f 37 54 55 
f 54 10 55 
f 19 4 56 
f 43 19 56 
f 23 43 56 
f 4 49 56 
f 49 23 56 
f 24 15 57 
f 15 26 57 
f 26 46 57 
f 30 7 58 
f 24 30 58 
f 33 24 58 
f 7 35 58 
f 35 33 58 
f 5 18 59 
f 18 17 59 
f 17 50 59 
f 13 30 60 
f 30 24 60 
f 46 13 60 
f 24 57 60 
f 57 46 60 
f 31 18 61 
f 18 45 61 
f 45 6 61 
f 6 47 61 
f 47 16 61 
f 27 5 62 
f 11 27 62 
f 32 11 62 
f 50 32 62 
f 5 59 62 
f 59 50 62 
f 25 12 63 
f 7 29 63 
f 35 7 63 
f 12 35 63 
f 52 25 63 
f 29 52 63 
f 18 31 64 
f 44 18 64 
f 10 44 64 
f 16 55 64 
f 55 10 64 
f 61 16 64 
