# Original object name hint: convex_1
v -0.06236 -0.03430 0.02651
v -0.00936 0.04366 -0.01402
v 0.00624 0.04054 0.01714
v 0.00624 -0.04366 -0.02027
v -0.09667 0.02805 -0.02027
v -0.06861 -0.03742 -0.03898
v -0.07484 0.03118 0.02651
v 0.00624 -0.02182 0.03586
v 0.00624 0.04054 -0.02651
v -0.09355 -0.03742 0.00467
v -0.06861 0.04366 -0.03586
v -0.08731 0.04054 0.00778
v -0.01248 0.00623 0.03898
v -0.00936 -0.04678 0.00156
v -0.07795 -0.02494 0.02963
v -0.08420 -0.04366 -0.02339
v -0.09979 0.02495 0.00467
v -0.09979 -0.00623 -0.02027
v 0.00624 -0.03430 -0.02651
v 0.00624 -0.03742 0.02651
v -0.06236 -0.04678 0.00467
v -0.00001 0.02805 0.03274
v -0.04990 -0.04678 -0.02963
v -0.07484 0.00623 0.03274
v -0.07795 0.04366 0.00778
v -0.04055 -0.02182 0.03586
v -0.07484 0.03741 -0.03586
v -0.05301 0.04054 -0.03586
v -0.01873 0.03430 0.02963
v -0.05612 0.02495 0.03274
v -0.09355 -0.03430 -0.02339
v -0.09044 0.04054 -0.01402
v -0.08731 -0.00623 0.02338
v 0.00624 0.01871 0.03586
v -0.08731 0.02805 0.02027
v -0.06548 -0.03118 -0.03898
v -0.07172 -0.04054 0.01714
v -0.04055 -0.03118 0.03274
v -0.02184 -0.04054 0.02338
v 0.00624 -0.04366 0.01402
v -0.09355 -0.03118 0.01091
v -0.07484 -0.04678 -0.00467
v -0.05925 -0.04366 -0.03586
v -0.09667 -0.02807 0.00156
v -0.09667 0.01246 -0.02339
v -0.01873 -0.00935 0.03898
v -0.07172 -0.04678 -0.02963
v 0.00310 -0.00311 0.03898
v -0.00936 -0.04678 -0.02027
v -0.09667 0.03430 0.00467
v -0.09979 0.00935 0.00467
v -0.01873 0.04054 0.02027
v 0.00310 -0.02494 0.03586
v -0.07795 -0.03118 0.02651
v -0.09044 -0.04054 0.00467
v 0.00310 -0.04366 -0.02339
v -0.05301 -0.00623 0.03586
v -0.07795 0.02182 0.02963
v -0.09979 0.02805 -0.00467
v -0.04678 0.01246 0.03586
v -0.09044 -0.03430 -0.02651
v -0.09355 0.03741 -0.01714
v -0.07484 0.03430 0.02338
v -0.09355 -0.03742 -0.02027
v 0.09979 0.02495 0.00468
v 0.00624 -0.04366 -0.02027
v 0.06236 -0.04678 -0.02027
v 0.00624 -0.03118 0.03274
v 0.00624 0.04054 -0.02339
v 0.00624 0.03118 0.02962
v 0.06236 0.04054 -0.03274
v 0.09979 -0.03118 -0.00156
v 0.06860 -0.03742 -0.03898
v 0.07172 0.04678 0.00155
v 0.09667 0.02806 -0.01715
v 0.01873 -0.01246 0.03587
v 0.07484 -0.03742 0.01403
v 0.09355 0.02495 0.01090
v 0.00624 -0.04366 0.01403
v 0.09667 -0.03118 -0.02339
v 0.05301 -0.03742 -0.03898
v 0.00937 0.04366 0.01403
v 0.00624 0.03742 -0.02650
v 0.07172 -0.04678 -0.00156
v 0.01560 0.01558 0.03587
v 0.00624 -0.03430 -0.02650
v 0.09355 -0.01558 0.01090
v 0.07484 0.04054 0.01090
v 0.08731 0.01558 -0.02650
v 0.09355 0.03742 -0.01402
v 0.06860 -0.04366 0.01090
v 0.06549 -0.04366 -0.03586
v 0.09979 -0.01558 -0.02027
v 0.08107 -0.04366 -0.02027
v 0.07172 0.04678 -0.00779
v 0.05301 0.04054 -0.03274
v 0.09355 0.03742 0.00155
v 0.08731 0.01246 0.01403
v 0.00624 0.01871 0.03587
v 0.01873 0.04054 0.02027
v 0.01873 -0.03430 0.02962
v 0.09667 -0.03430 0.00155
v 0.09979 0.03118 -0.00779
v 0.06549 0.04366 -0.02650
v 0.09979 -0.00311 0.00779
v 0.05301 -0.03118 -0.03898
v 0.07484 0.03430 -0.02963
v 0.06236 0.04678 -0.00779
v 0.09043 -0.02806 0.01090
v 0.01873 0.01246 0.03587
v 0.01560 0.02495 0.03274
v 0.06860 -0.03118 -0.03898
v 0.05613 -0.04678 0.00155
v 0.07484 0.03430 0.01403
v 0.02496 -0.02182 0.03274
v 0.09667 -0.01246 -0.02339
v 0.00624 -0.02182 0.03587
v 0.08731 -0.00623 0.01403
v 0.00624 0.04054 0.02027
v 0.09667 -0.03430 -0.02027
v 0.01249 -0.03742 0.02649
v 0.05613 -0.04054 -0.03898
v 0.09355 0.03430 0.00779
v 0.01873 0.03430 0.02649
v 0.09355 -0.03742 -0.00156
v 0.09979 -0.02495 0.00468
v 0.08731 -0.03742 0.00779
v 0.07172 -0.04366 -0.03274
f 120 94 128 
f 66 68 69 
f 69 68 70 
f 68 66 79 
f 66 69 83 
f 66 83 86 
f 83 81 86 
f 67 66 92 
f 65 72 93 
f 84 67 94 
f 74 90 95 
f 83 69 96 
f 90 74 97 
f 70 68 99 
f 76 85 99 
f 74 82 100 
f 88 74 100 
f 91 77 101 
f 75 90 103 
f 65 93 103 
f 93 75 103 
f 97 65 103 
f 90 97 103 
f 90 71 104 
f 95 90 104 
f 71 96 104 
f 96 69 104 
f 72 65 105 
f 65 78 105 
f 78 98 105 
f 73 81 106 
f 81 83 106 
f 96 71 106 
f 83 96 106 
f 75 89 107 
f 71 90 107 
f 90 75 107 
f 69 82 108 
f 82 74 108 
f 74 95 108 
f 104 69 108 
f 95 104 108 
f 85 76 110 
f 76 98 110 
f 98 78 110 
f 70 99 111 
f 99 85 111 
f 80 73 112 
f 106 71 112 
f 73 106 112 
f 71 107 112 
f 107 89 112 
f 66 67 113 
f 79 66 113 
f 67 84 113 
f 91 79 113 
f 84 91 113 
f 85 110 114 
f 110 78 114 
f 111 85 114 
f 88 111 114 
f 68 101 115 
f 101 77 115 
f 109 76 115 
f 77 109 115 
f 89 75 116 
f 75 93 116 
f 93 80 116 
f 80 112 116 
f 112 89 116 
f 99 68 117 
f 76 99 117 
f 68 115 117 
f 115 76 117 
f 98 76 118 
f 105 98 118 
f 87 105 118 
f 76 109 118 
f 109 87 118 
f 69 70 119 
f 82 69 119 
f 70 100 119 
f 100 82 119 
f 93 72 120 
f 80 93 120 
f 68 79 121 
f 79 91 121 
f 101 68 121 
f 91 101 121 
f 81 73 122 
f 66 86 122 
f 86 81 122 
f 92 66 122 
f 73 92 122 
f 78 65 123 
f 74 88 123 
f 65 97 123 
f 97 74 123 
f 114 78 123 
f 88 114 123 
f 100 70 124 
f 88 100 124 
f 111 88 124 
f 70 111 124 
f 84 94 125 
f 72 102 125 
f 120 72 125 
f 94 120 125 
f 102 72 126 
f 72 105 126 
f 105 87 126 
f 87 109 126 
f 126 109 127 
f 77 91 127 
f 91 84 127 
f 109 77 127 
f 84 125 127 
f 125 102 127 
f 102 126 127 
f 73 80 128 
f 67 92 128 
f 92 73 128 
f 94 67 128 
f 80 120 128 
