# Created by Open3D 
# object name: convex_8_coll
# number of vertices: 14
# number of triangles: 24
v 0.09923 0.09604 0.10245
v 0.09603 0.10245 0.09924
v 0.00961 -0.08004 0.10245
v 0.00961 -0.08004 0.09605
v 0.10244 -0.08004 0.09924
v 0.00961 0.09923 0.10245
v 0.10244 -0.08004 0.08965
v 0.10244 0.09923 0.08004
v 0.06722 0.10245 0.08004
v 0.00961 0.10245 0.09284
v 0.00961 -0.07043 0.09284
v 0.09923 -0.08004 0.10245
v 0.10244 0.0544 0.08004
v 0.10244 0.09604 0.09924
f 3 4 5
f 4 3 6
f 5 4 7
f 6 3 1
f 5 7 8
f 2 9 10
f 4 6 10
f 10 9 11
f 4 10 11
f 3 5 12
f 1 3 12
f 5 1 12
f 9 8 13
f 1 5 14
f 8 2 14
f 5 8 14
f 4 11 7
f 11 13 7
f 8 7 13
f 1 14 2
f 13 11 9
f 2 10 6
f 9 2 8
f 2 6 1
