# Created by Open3D 
# object name: convex_19_coll
# number of vertices: 14
# number of triangles: 24
v 0.10245 0.06082 -0.03522
v 0.09925 0.03842 -0.03522
v 0.09284 0.03522 -0.08644
v 0.09284 0.07683 -0.08644
v 0.10245 0.07683 -0.08644
v 0.08004 0.03522 -0.07043
v 0.10245 0.03522 -0.04483
v 0.10245 0.03522 -0.08644
v 0.08004 0.05123 -0.03522
v 0.08004 0.05762 -0.06723
v 0.09605 0.07683 -0.07043
v 0.08004 0.05762 -0.03843
v 0.08004 0.03522 -0.06083
v 0.10245 0.07683 -0.07043
f 3 4 5
f 4 3 6
f 3 7 6
f 7 3 8
f 3 5 8
f 5 7 8
f 7 5 1
f 4 6 10
f 6 9 10
f 1 9 2
f 5 4 11
f 9 1 12
f 4 10 12
f 10 9 12
f 11 4 12
f 1 11 12
f 9 6 13
f 6 7 13
f 2 9 13
f 7 2 13
f 1 5 14
f 5 11 14
f 11 1 14
f 7 1 2
