# Created by Open3D 
# object name: convex_18_coll
# number of vertices: 14
# number of triangles: 24
v 0.09285 -0.0032 -0.07044
v 0.09605 -0.04802 -0.06083
v 0.09605 -0.0032 -0.06724
v 0.10245 -0.0032 -0.06724
v 0.10245 -0.04802 -0.06083
v 0.10245 -0.08004 -0.08644
v 0.09285 -0.0032 -0.08644
v 0.08324 -0.08004 -0.08484
v 0.09605 -0.08004 -0.06083
v 0.10245 -0.0032 -0.08644
v 0.08324 -0.06403 -0.08644
v 0.10245 -0.08004 -0.06083
v 0.09285 -0.05442 -0.06403
v 0.08324 -0.06403 -0.08324
f 1 2 3
f 4 5 6
f 4 7 1
f 8 6 9
f 4 6 10
f 6 7 10
f 7 4 10
f 7 6 11
f 1 7 11
f 6 5 12
f 5 9 12
f 9 6 12
f 5 4 2
f 9 5 2
f 9 2 13
f 8 9 13
f 2 1 13
f 13 1 14
f 11 8 14
f 1 11 14
f 8 13 14
f 11 6 8
f 4 1 3
f 2 4 3
