# Created by Open3D 
# object name: convex_17_coll
# number of vertices: 14
# number of triangles: 24
v 0.09605 0.06083 -0.03522
v 0.09605 0.08964 0.07362
v 0.09605 0.035225 -0.006395
v 0.09605 0.08964 0.08003
v 0.10245 0.08964 0.07362
v 0.10245 0.05124 0.08003
v 0.10245 0.06083 -0.03522
v 0.10245 0.03842 -0.03522
v 0.09605 0.05124 0.08003
v 0.10245 0.03522 0.02562
v 0.09605 0.03843 0.04802
v 0.09605 0.03842 -0.03522
v 0.10245 0.08964 0.08003
v 0.10245 0.03843 0.04802
f 5 6 7
f 3 4 1
f 1 7 8
f 7 6 8
f 4 3 9
f 6 4 9
f 3 8 10
f 8 6 10
f 9 3 11
f 6 9 11
f 3 10 11
f 3 1 12
f 1 8 12
f 8 3 12
f 5 4 13
f 6 5 13
f 4 6 13
f 4 5 2
f 1 4 2
f 10 6 14
f 6 11 14
f 11 10 14
f 5 7 1
f 2 5 1
