# Created by Open3D 
# object name: convex_2_coll
# number of vertices: 14
# number of triangles: 24
v -0.10245 -0.08964 0.01281
v 0.09603 -0.08324 0.03841
v 0.10245 -0.08324 0
v -0.10245 -0.09284 0
v -0.09924 -0.10245 0
v -0.10245 -0.09925 0.07043
v 0.09924 -0.10245 0
v 0.10245 -0.08644 0.07043
v 0.09924 -0.10245 0.07043
v -0.10245 -0.08964 0.03841
v -0.05762 -0.08964 0.07043
v -0.09924 -0.10245 0.07043
v -0.10245 -0.09284 0.07043
v 0.10245 -0.09925 0
f 1 2 3
f 4 5 6
f 5 4 7
f 7 4 3
f 8 6 9
f 4 6 10
f 7 9 5
f 6 8 11
f 9 6 12
f 6 5 12
f 5 9 12
f 8 3 2
f 11 8 2
f 10 11 2
f 4 10 1
f 10 2 1
f 10 6 13
f 6 11 13
f 11 10 13
f 3 8 14
f 7 3 14
f 9 7 14
f 14 8 9
f 4 1 3
