# Created by Open3D 
# object name: convex_6_coll
# number of vertices: 14
# number of triangles: 24
v -0.09284 0.10243 1e-05
v -0.09605 -0.059205 0.022415
v -0.10245 -0.03839 1e-05
v -0.10245 0.09922 0.08003
v -0.10245 0.09922 1e-05
v -0.10245 -0.048 0.04802
v -0.09605 -0.03839 1e-05
v -0.09284 0.10243 0.08003
v -0.09605 0.06081 0.08003
v -0.10245 0.06081 0.08003
v -0.10245 -0.06081 0.02562
v -0.09605 -0.06081 0.04162
v -0.09925 0.10243 0.08003
v -0.10245 -0.06081 0.04162
f 3 4 5
f 4 3 6
f 5 1 7
f 8 4 9
f 6 9 10
f 4 6 10
f 9 4 10
f 6 3 11
f 12 11 2
f 8 12 2
f 8 1 13
f 4 8 13
f 5 4 13
f 8 2 1
f 5 7 3
f 9 6 12
f 8 9 12
f 13 1 5
f 12 6 14
f 6 11 14
f 11 12 14
f 3 7 2
f 11 3 2
f 7 1 2
