# Created by Open3D 
# object name: convex_3_coll
# number of vertices: 14
# number of triangles: 24
v 0.10245 -0.09925 0.09604
v 0.09924 -0.10245 0.07044
v -0.10245 -0.09284 0.07044
v 0.10245 -0.08644 0.07044
v 0.09603 -0.10245 0.09924
v -0.09924 -0.10245 0.09924
v -0.10245 -0.08004 0.08644
v -0.09924 -0.08004 0.10245
v 0.09924 -0.08004 0.10245
v 0.09603 -0.08004 0.07684
v 0.09603 -0.09925 0.10245
v -0.09924 -0.10245 0.07044
v -0.09924 -0.09925 0.10245
v -0.10245 -0.09925 0.09924
f 5 6 2
f 3 4 2
f 8 9 7
f 4 3 10
f 9 4 10
f 7 9 10
f 6 5 11
f 6 3 12
f 2 6 12
f 3 2 12
f 11 8 13
f 6 11 13
f 8 11 9
f 4 9 1
f 5 2 1
f 9 11 1
f 11 5 1
f 3 6 14
f 7 3 14
f 8 7 14
f 6 13 14
f 13 8 14
f 7 10 3
f 4 1 2
