# Created by Open3D 
# object name: convex_11_coll
# number of vertices: 14
# number of triangles: 24
v 0.09282 0.08964 0.08003
v 0.10245 0.08964 0.07043
v 0.10245 0.08964 0.08003
v 0.10245 0.09925 0.08003
v -0.09284 0.10245 0.08003
v -0.08321 0.09605 1e-05
v -0.08321 0.10245 1e-05
v 0.09922 0.10245 1e-05
v -0.09284 0.09285 0.08003
v 0.09922 0.09605 1e-05
v 0.09922 0.10245 0.08003
v -0.09284 0.09285 0.07362
v 0.09282 0.08964 0.07043
v -0.09284 0.10245 0.06722
f 1 2 3
f 4 5 1
f 6 7 8
f 7 5 8
f 1 5 9
f 6 8 10
f 5 4 11
f 8 5 11
f 4 8 11
f 8 4 2
f 6 10 2
f 10 8 2
f 9 5 12
f 1 9 12
f 2 1 13
f 6 2 13
f 12 6 13
f 1 12 13
f 7 6 14
f 5 7 14
f 6 12 14
f 12 5 14
f 4 1 3
f 2 4 3
