# Created by Open3D 
# object name: convex_0_coll
# number of vertices: 14
# number of triangles: 24
v -0.10245 -0.09284 0
v -0.08644 -0.09604 0
v -0.08644 -0.10245 -0.09924
v -0.08644 -0.10245 0
v -0.08644 -0.06723 -0.10245
v -0.10245 -0.06723 -0.03202
v -0.10245 -0.09925 -0.08964
v -0.10245 -0.09925 0
v -0.10245 -0.06723 -0.09924
v -0.09605 -0.06723 -0.03202
v -0.09925 -0.10245 0
v -0.09925 -0.10245 -0.08964
v -0.09765 -0.097645 -0.100845
v -0.09925 -0.06723 -0.10245
f 4 3 5
f 6 7 8
f 6 5 9
f 7 6 9
f 5 6 10
f 4 5 2
f 8 4 2
f 3 4 11
f 4 8 11
f 8 7 11
f 6 8 1
f 10 6 1
f 8 2 1
f 3 11 12
f 11 7 12
f 10 2 5
f 7 9 13
f 3 12 13
f 12 7 13
f 9 5 14
f 5 13 14
f 13 9 14
f 13 5 3
f 10 1 2
