# Created by Open3D 
# object name: convex_13_coll
# number of vertices: 13
# number of triangles: 22
v 0.07044 0.07684 -0.09605
v 0.07044 -0.08002 -0.09285
v 0.08004 -0.07362 -0.08644
v 0.09924 -0.08002 -0.10245
v 0.07044 -0.08002 -0.10245
v 0.07044 0.07684 -0.10245
v 0.08004 -0.08002 -0.08644
v 0.09924 0.07684 -0.10245
v 0.10245 0.07684 -0.08644
v 0.10245 -0.08002 -0.08644
v 0.09284 0.07684 -0.08644
v 0.10245 -0.08002 -0.09925
v 0.10245 0.07684 -0.09925
f 1 2 3
f 4 5 6
f 5 4 7
f 4 6 8
f 6 9 8
f 9 7 10
f 7 4 10
f 6 5 1
f 9 6 1
f 7 9 11
f 9 1 11
f 5 7 2
f 1 5 2
f 4 8 12
f 9 10 12
f 10 4 12
f 8 9 13
f 9 12 13
f 12 8 13
f 7 11 3
f 11 1 3
f 2 7 3
