# Created by Open3D 
# object name: convex_9_coll
# number of vertices: 10
# number of triangles: 16
v -0.08644 0.07684 -0.09284
v 0.04162 0.07684 -0.09604
v -0.07683 0.08004 -0.08964
v -0.08644 0.07684 -0.10245
v 0.04162 0.07684 -0.10245
v -0.08644 0.09285 -0.10245
v 0.04162 0.09285 -0.09604
v -0.08322 0.08964 -0.08324
v 0.04162 0.09285 -0.10245
v -0.08644 0.09285 -0.08324
f 1 2 3
f 1 4 5
f 4 1 6
f 5 4 6
f 1 5 2
f 7 8 2
f 5 7 2
f 5 6 9
f 7 5 9
f 6 7 9
f 1 8 10
f 6 1 10
f 8 7 10
f 7 6 10
f 8 1 3
f 2 8 3
