# Created by Open3D 
# object name: convex_5_coll
# number of vertices: 14
# number of triangles: 24
v 0.10083 0.09285 -0.05762
v 0.10245 0.09285 -0.09924
v -0.08644 0.09285 -0.10245
v -0.08644 0.09285 -0.06723
v -0.08644 0.10245 -0.09924
v 0.09921 0.09285 -0.10245
v -0.08322 0.10245 0
v 0.09921 0.10245 -0.09924
v 0.10245 0.09925 -0.06082
v 0.09921 0.10245 0
v 0.09921 0.09605 0
v -0.08322 0.09605 0
v 0.09603 0.09925 -0.10245
v -0.08644 0.09925 -0.10245
f 3 4 5
f 4 3 6
f 5 7 8
f 9 8 10
f 7 11 10
f 11 9 10
f 8 7 10
f 11 7 12
f 11 12 1
f 4 6 1
f 12 4 1
f 6 3 13
f 5 8 13
f 8 6 13
f 3 5 14
f 13 3 14
f 5 13 14
f 6 8 2
f 8 9 2
f 1 6 2
f 5 4 7
f 4 12 7
f 9 11 1
f 2 9 1
