# Created by Open3D 
# object name: convex_4_coll
# number of vertices: 14
# number of triangles: 24
v 0.10245 -0.09925 -0.09604
v 0.09921 -0.10245 0
v 0.09603 -0.10245 -0.09924
v -0.08644 -0.08004 -0.10245
v -0.08644 -0.09925 -0.10245
v -0.08644 -0.10245 0
v 0.10245 -0.08324 0
v 0.10245 -0.08004 -0.05762
v 0.09921 -0.08004 -0.10245
v -0.07043 -0.09284 0
v -0.08644 -0.10245 -0.09924
v -0.08644 -0.08004 -0.09284
v 0.09603 -0.09925 -0.10245
v -0.08644 -0.09605 0
f 1 2 3
f 4 5 6
f 6 3 2
f 7 6 2
f 4 8 9
f 5 4 9
f 6 7 10
f 6 5 11
f 3 6 11
f 5 3 11
f 8 4 12
f 4 6 12
f 8 7 1
f 3 5 13
f 5 9 13
f 1 3 13
f 6 10 14
f 12 6 14
f 10 12 14
f 8 12 7
f 12 10 7
f 1 7 2
f 8 1 9
f 1 13 9
