# Created by Open3D 
# object name: convex_1_coll
# number of vertices: 14
# number of triangles: 24
v -0.09925 0.10245 -0.08964
v -0.10245 0.097625 -0.09284
v -0.10245 -0.06722 -0.09924
v -0.10245 -0.0384 0
v -0.09285 0.10245 0
v -0.10245 0.09923 0
v -0.08644 0.10245 -0.06082
v -0.08644 -0.06722 -0.10245
v -0.08644 0.09602 -0.10245
v -0.09605 -0.0384 0
v -0.09605 -0.06722 -0.03202
v -0.09925 0.08642 -0.10245
v -0.10245 -0.06722 -0.03202
v -0.08644 0.10245 -0.09604
f 2 3 4
f 4 5 6
f 2 4 6
f 7 8 9
f 5 4 10
f 10 4 11
f 3 8 11
f 9 8 12
f 5 7 1
f 10 11 8
f 4 3 13
f 11 4 13
f 3 11 13
f 12 8 3
f 10 8 5
f 7 9 14
f 1 7 14
f 5 1 6
f 3 2 12
f 5 8 7
f 12 2 9
f 2 1 9
f 1 14 9
f 6 1 2
