# Created by Open3D 
# object name: convex_20_coll
# number of vertices: 10
# number of triangles: 16
v 0.09605 0.03522 -0.05122
v 0.09285 0.03522 -0.06403
v 0.09605 0.03201 -0.05122
v 0.10245 0.03522 -0.05122
v 0.10245 0.03522 -0.08644
v 0.10245 -0.0032 -0.06723
v 0.09285 0.03522 -0.08644
v 0.09285 -0.0032 -0.08644
v 0.09285 -0.0032 -0.07043
v 0.10245 -0.0032 -0.08644
f 1 2 3
f 1 4 5
f 5 4 6
f 1 5 7
f 5 8 7
f 8 6 9
f 7 8 9
f 8 5 10
f 6 8 10
f 5 6 10
f 1 7 2
f 7 9 2
f 2 9 3
f 4 1 3
f 6 4 3
f 9 6 3
