# Created by Open3D 
# object name: convex_14_coll
# number of vertices: 14
# number of triangles: 24
v -0.06722 -0.04161 -0.05442
v -0.0528 -0.06562 0
v 0.06401 0.06402 0
v -0.056 0.06242 0
v -0.0512 0.05762 -0.07043
v 0.0744325 0.0520175 -0.06883
v 0.06561 -0.067225 -0.06723
v 0.06881 -0.06562 0
v -0.0512 -0.05442 -0.07043
v 0.07681 0.05441 0
v -0.048 0.07043 -0.038415
v -0.0384 -0.07043 -0.06403
v 0.07681 -0.06722 -0.03042
v -0.064 0.06082 -0.05121
f 2 3 4
f 5 6 7
f 3 2 8
f 1 5 9
f 5 7 9
f 3 8 10
f 2 4 1
f 7 13 8
f 12 7 8
f 1 4 14
f 13 7 6
f 4 3 11
f 14 4 11
f 5 14 11
f 3 10 6
f 13 6 10
f 8 13 10
f 7 12 9
f 12 1 9
f 11 3 6
f 1 14 5
f 2 1 12
f 12 8 2
f 11 6 5
