# Created by Open3D 
# object name: convex_10_coll
# number of vertices: 14
# number of triangles: 24
v 0.04802 0.08964 -0.09604
v 0.09605 0.09285 -0.06723
v 0.04802 0.09285 -0.09604
v 0.04802 0.09285 -0.10245
v 0.09924 0.09285 -0.10245
v 0.09924 0.07684 -0.10245
v 0.05763 0.07684 -0.09604
v 0.10245 0.07684 -0.07684
v 0.05763 0.07684 -0.10245
v 0.10245 0.09285 -0.09925
v 0.10245 0.08964 -0.07043
v 0.09605 0.08964 -0.06723
v 0.09605 0.07684 -0.07684
v 0.10245 0.07684 -0.09925
f 1 2 3
f 4 5 6
f 7 6 8
f 5 4 2
f 4 7 1
f 4 6 9
f 7 4 9
f 6 7 9
f 6 5 10
f 11 8 10
f 5 2 10
f 2 11 10
f 8 11 12
f 11 2 12
f 1 7 12
f 2 1 12
f 7 8 13
f 8 12 13
f 12 7 13
f 8 6 14
f 6 10 14
f 10 8 14
f 2 4 3
f 4 1 3
