# Created by Open3D 
# object name: convex_16_coll
# number of vertices: 11
# number of triangles: 18
v 0.09605 -0.04162 0.04482
v 0.10245 -0.04162 0.04482
v 0.09605 -0.04162 0.03521
v 0.10245 -0.08004 -0.06083
v 0.09605 -0.08004 -0.06083
v 0.10245 -0.05123 -0.06083
v 0.10245 -0.06723 0.04802
v 0.09605 -0.07683 0.03521
v 0.09605 -0.05123 -0.06083
v 0.10245 -0.07683 0.03521
v 0.09605 -0.06723 0.04802
f 1 2 3
f 4 5 6
f 7 4 6
f 1 5 8
f 5 4 8
f 6 5 9
f 5 1 9
f 7 6 2
f 1 7 2
f 4 7 10
f 7 8 10
f 8 4 10
f 7 1 11
f 1 8 11
f 8 7 11
f 6 9 3
f 9 1 3
f 2 6 3
