# Created by Open3D 
# object name: convex_12_coll
# number of vertices: 14
# number of triangles: 24
v -0.0336 0.046405 -0.08964
v 0.07043 -0.08002 -0.09605
v 0.03519 0.05761 -0.09284
v -0.08644 -0.08002 -0.09284
v -0.08644 0.07684 -0.10245
v -0.08644 -0.08002 -0.10245
v 0.07043 -0.08002 -0.10245
v 0.07043 0.07684 -0.09605
v -0.08644 0.07684 -0.09284
v 0.03519 0.06721 -0.09284
v 0.07043 0.07684 -0.10245
v -0.04802 0.06081 -0.08964
v -0.05442 0.07684 -0.09284
v -0.03199 0.06081 -0.08964
f 1 2 3
f 4 5 6
f 7 4 6
f 5 7 6
f 8 5 9
f 5 4 9
f 8 10 2
f 4 7 2
f 7 8 2
f 5 8 11
f 7 5 11
f 8 7 11
f 9 4 12
f 10 8 13
f 8 9 13
f 9 12 13
f 1 10 14
f 12 1 14
f 10 13 14
f 13 12 14
f 12 4 1
f 4 2 1
f 2 10 3
f 10 1 3
