# Created by Open3D 
# object name: convex_15_coll
# number of vertices: 14
# number of triangles: 24
v -0.06082 0.05762 0.06723
v 0.05762 0.06403 0.05442
v 0.06403 0.06403 0
v -0.05282 -0.065615 0
v -0.05602 0.062425 0
v 0.06882 -0.065615 0
v 0.07362 0.05762 0.07043
v -0.05762 0.052815 0.07043
v -0.06082 -0.06402 0.07043
v 0.07684 0.05441 0
v 0.07362 -0.06083 0.07043
v 0.06723 -0.06721 0.06723
v -0.04802 -0.07043 0.06723
v -0.06403 -0.06083 0.06402
f 3 4 5
f 4 3 6
f 7 8 9
f 6 3 10
f 7 9 11
f 6 11 12
f 13 6 12
f 11 13 12
f 3 5 2
f 8 7 1
f 4 9 14
f 3 2 7
f 2 1 7
f 5 14 1
f 9 4 13
f 4 6 13
f 10 7 11
f 9 8 14
f 8 1 14
f 7 10 3
f 4 14 5
f 13 11 9
f 11 6 10
f 2 5 1
