# Created by Open3D 
# object name: convex_7_coll
# number of vertices: 14
# number of triangles: 24
v 0.00959 0.09923 0.10245
v -0.09603 0.10245 0.09924
v -0.09924 0.09604 0.10245
v -0.10245 -0.08004 0.09924
v -0.10245 -0.08004 0.08644
v 0.00959 -0.08004 0.10245
v -0.10245 0.09923 0.08004
v 0.00959 0.10245 0.09284
v 0.00959 -0.07043 0.09284
v -0.06722 0.10245 0.08004
v -0.09924 -0.08004 0.10245
v 0.00319 -0.08004 0.09284
v -0.10245 0.06083 0.08004
v -0.10245 0.09604 0.09924
f 1 2 3
f 4 5 6
f 5 4 7
f 8 6 9
f 6 8 1
f 3 6 1
f 8 9 10
f 4 6 11
f 6 3 11
f 3 4 11
f 10 9 12
f 10 12 13
f 7 10 13
f 4 3 14
f 7 4 14
f 3 2 14
f 6 5 12
f 9 6 12
f 2 8 10
f 13 12 5
f 8 2 1
f 14 2 7
f 2 10 7
f 5 7 13
