# Original object name hint: convex_1
v 0.06491 -0.03124 -0.04207
v 0.07212 0.01922 0.00361
v 0.07452 0.02164 0.00120
v 0.05289 0.02403 -0.03245
v 0.05770 -0.03365 -0.00121
v 0.07212 0.04087 -0.02764
v 0.07452 -0.03846 -0.00842
v 0.05770 0.01682 0.00120
v 0.05289 -0.03365 -0.03245
v 0.06731 0.04327 -0.00601
v 0.07452 -0.03606 -0.02764
v 0.07693 0.03124 -0.01563
v 0.06971 0.00962 -0.03966
v 0.06251 -0.04327 -0.02283
v 0.06971 -0.03365 0.00120
v 0.05289 -0.02884 -0.01804
v 0.06010 0.01682 -0.03966
v 0.05770 -0.00721 0.00361
v 0.05770 -0.03606 -0.03966
v 0.07452 0.02643 -0.03004
v 0.07693 0.00721 -0.00361
v 0.06971 -0.03846 -0.03725
v 0.05289 0.02164 -0.02283
v 0.06971 -0.04327 -0.00842
v 0.06491 0.04087 -0.02764
v 0.07452 0.04087 -0.00842
v 0.05770 -0.03846 -0.00601
v 0.07693 0.01200 -0.02043
v 0.05770 0.01200 0.00361
v 0.07212 -0.04327 -0.02043
v 0.06971 -0.03124 -0.03966
v 0.06971 0.02403 -0.03725
v 0.07452 -0.03365 -0.00361
v 0.07212 0.00240 0.00361
v 0.06491 0.04327 -0.01804
v 0.06010 -0.02164 -0.04207
v 0.07693 0.02643 -0.00361
v 0.07212 0.04087 -0.00361
v 0.07212 0.04327 -0.02524
v 0.06251 0.01922 0.00361
v 0.06251 -0.03365 0.00120
v 0.06251 -0.04087 -0.03485
v 0.05289 0.02403 -0.02524
v 0.06491 0.03846 -0.03004
v 0.06491 0.04087 -0.00842
v 0.06491 -0.04087 -0.00361
v 0.05530 -0.02403 -0.03725
v 0.07212 -0.03606 -0.03485
v 0.07693 0.00480 -0.01563
v 0.06251 -0.04327 -0.01322
v 0.07452 0.04087 -0.02043
v 0.06731 -0.03846 -0.03966
v 0.06971 -0.04087 -0.03485
v 0.06731 -0.00962 0.00361
v 0.05289 -0.03365 -0.02043
v 0.06971 -0.03846 -0.00121
v 0.07212 0.04327 -0.00601
v 0.07452 0.00240 -0.03004
v 0.06731 0.01682 -0.03966
v 0.06731 0.04087 -0.00361
v 0.07452 0.00721 0.00120
v 0.06010 -0.04087 -0.03245
v 0.05289 -0.01922 -0.01804
v 0.07693 0.02643 -0.02043
v -0.07452 0.01200 -0.03486
v -0.06731 -0.02403 0.01082
v -0.06971 -0.02403 0.01082
v -0.06731 0.04327 -0.00361
v -0.05529 -0.02884 -0.03005
v -0.05529 0.03365 -0.00841
v -0.06251 0.04087 -0.03967
v -0.07212 -0.04087 -0.03486
v -0.07693 0.03846 -0.00601
v -0.05529 -0.03365 0.00120
v -0.07693 -0.03365 -0.00841
v -0.05529 0.01922 0.00360
v -0.06251 -0.03606 -0.03967
v -0.07212 0.03846 -0.03967
v -0.07212 0.03365 0.00360
v -0.06491 -0.04087 -0.00361
v -0.07693 0.00721 -0.02764
v -0.06251 -0.04327 -0.03245
v -0.07693 0.00240 -0.00120
v -0.07452 0.04327 -0.02283
v -0.07212 -0.04087 -0.00601
v -0.07693 -0.03365 -0.02283
v -0.06971 -0.03124 -0.03967
v -0.06010 0.03846 -0.00120
v -0.06251 0.04327 -0.03726
v -0.06010 0.03606 -0.03486
v -0.07693 0.03846 -0.02043
v -0.07212 -0.03124 0.00601
v -0.07212 -0.04327 -0.02043
v -0.05529 -0.01682 -0.03005
v -0.05529 -0.02884 0.00360
v -0.07693 0.03124 -0.00120
v -0.07452 -0.03365 -0.03245
v -0.05529 -0.03365 -0.02764
v -0.05529 0.03124 0.00120
v -0.07452 0.04087 -0.00120
v -0.06731 0.03365 0.00360
v -0.07212 0.04327 -0.03726
v -0.06251 -0.04327 -0.02043
v -0.06010 -0.03606 -0.03726
v -0.07212 -0.03365 -0.03726
v -0.06731 -0.02643 0.01082
v -0.06251 0.04327 -0.02283
v -0.06971 -0.04327 -0.03486
v -0.07452 0.03846 -0.03245
v -0.07452 -0.03124 0.00120
v -0.07452 0.04327 -0.00601
v -0.06491 0.03846 0.00120
v -0.07452 -0.00240 -0.03486
v -0.07452 -0.03846 -0.00601
v -0.06010 -0.03365 0.00360
v -0.07693 0.04087 -0.01562
v -0.06251 -0.04087 -0.03726
v -0.06971 -0.04087 -0.03726
v -0.06971 -0.04327 -0.01562
v -0.05529 0.03365 -0.00120
v -0.07212 -0.03846 -0.00120
v -0.07693 -0.03124 -0.00601
v -0.06491 0.04327 -0.00601
v -0.05529 -0.00962 -0.02764
v -0.06971 0.04327 -0.03967
v -0.07452 -0.03606 -0.00120
v -0.07452 -0.03846 -0.03005
v -0.07452 0.03606 0.00120
v 0.03124 -0.01201 0.02523
v -0.03365 -0.02403 -0.04207
v -0.03365 0.02643 -0.04207
v 0.05289 0.02404 -0.03245
v -0.03123 0.02643 0.02283
v -0.05529 -0.03365 0.00119
v 0.05289 -0.03124 -0.03005
v -0.01200 -0.02163 0.04207
v 0.00960 0.03365 0.02043
v -0.05047 0.03605 -0.02764
v 0.02163 0.00961 0.04207
v 0.01201 -0.03846 0.00119
v -0.05288 -0.03365 -0.02764
v -0.05529 0.03124 0.00119
v -0.00001 0.03846 -0.03486
v -0.00001 -0.03124 -0.04207
v 0.04807 0.01682 0.00119
v -0.01682 0.00480 0.04207
v 0.02403 -0.02883 0.02283
v -0.00961 -0.03846 -0.03244
v 0.05047 -0.00480 0.00119
v -0.03605 -0.00480 0.02764
v -0.00961 0.03124 -0.04207
v -0.02644 0.03846 -0.00359
v -0.01442 -0.03605 0.01562
v -0.05529 -0.00720 -0.02764
v 0.01442 0.03605 0.00600
v -0.04567 -0.02403 -0.03967
v -0.02884 -0.03846 -0.00359
v -0.01682 0.03124 0.02283
v 0.03365 -0.01682 -0.03726
v 0.02403 0.02884 0.01803
v 0.05289 -0.03124 -0.02283
v 0.00960 -0.03846 -0.03244
v -0.04567 0.03846 -0.02764
v 0.05289 0.02404 -0.02524
v -0.05529 -0.03124 0.00359
v 0.01681 0.03605 -0.03005
v -0.05288 0.03124 -0.02764
v 0.03365 0.00961 -0.03726
v 0.02163 0.00480 0.04207
v -0.03123 -0.03124 -0.03967
v -0.05529 0.03365 -0.00119
v 0.05289 -0.02884 -0.03245
v 0.00960 -0.03365 0.02043
v 0.01923 0.01201 0.04207
v -0.03846 0.00480 0.02523
v 0.02884 -0.02643 0.02043
v -0.00001 0.03846 -0.00119
v -0.04807 -0.03605 -0.02283
v -0.04567 0.03124 -0.03486
v -0.05529 -0.03124 -0.02764
v -0.02403 0.03605 -0.03726
v -0.05529 0.02403 0.00359
v 0.02403 -0.03605 0.00119
v 0.05047 0.00720 0.00119
v -0.02403 -0.03124 0.02283
v 0.01681 -0.03846 -0.01321
v -0.03365 -0.01682 0.02764
v -0.03365 0.01923 0.02523
v -0.00961 0.03365 0.02043
v 0.02884 0.02163 0.02283
v 0.00960 -0.03605 -0.03726
v -0.00961 -0.02163 0.04207
f 100 96 128 
f 69 70 74 
f 74 70 76 
f 71 77 78 
f 67 66 79 
f 75 73 81 
f 73 75 83 
f 75 81 86 
f 78 77 87 
f 84 68 89 
f 89 70 90 
f 71 89 90 
f 81 73 91 
f 67 83 92 
f 75 86 93 
f 70 69 94 
f 71 90 94 
f 76 66 95 
f 74 76 95 
f 83 67 96 
f 73 83 96 
f 86 81 97 
f 69 74 98 
f 74 82 98 
f 76 70 99 
f 73 96 100 
f 66 76 101 
f 79 66 101 
f 76 99 101 
f 84 89 102 
f 74 80 103 
f 82 74 103 
f 93 82 103 
f 77 71 104 
f 94 69 104 
f 71 94 104 
f 69 98 104 
f 78 87 105 
f 72 97 105 
f 66 67 106 
f 67 92 106 
f 92 80 106 
f 95 66 106 
f 74 95 106 
f 70 89 107 
f 89 68 107 
f 93 72 108 
f 82 93 108 
f 78 65 109 
f 65 81 109 
f 81 91 109 
f 102 78 109 
f 91 102 109 
f 92 83 110 
f 68 84 111 
f 100 68 111 
f 73 100 111 
f 88 68 112 
f 99 88 112 
f 68 100 112 
f 100 79 112 
f 79 101 112 
f 101 99 112 
f 65 78 113 
f 81 65 113 
f 97 81 113 
f 78 105 113 
f 105 97 113 
f 75 93 114 
f 93 85 114 
f 80 74 115 
f 74 106 115 
f 106 80 115 
f 91 73 116 
f 84 102 116 
f 102 91 116 
f 111 84 116 
f 73 111 116 
f 98 82 117 
f 77 104 117 
f 104 98 117 
f 82 108 117 
f 117 108 118 
f 87 77 118 
f 72 105 118 
f 105 87 118 
f 108 72 118 
f 77 117 118 
f 80 85 119 
f 85 93 119 
f 103 80 119 
f 93 103 119 
f 99 70 120 
f 88 99 120 
f 107 88 120 
f 70 107 120 
f 85 80 121 
f 80 92 121 
f 114 85 121 
f 83 75 122 
f 110 83 122 
f 68 88 123 
f 107 68 123 
f 88 107 123 
f 90 70 124 
f 70 94 124 
f 94 90 124 
f 71 78 125 
f 89 71 125 
f 78 102 125 
f 102 89 125 
f 92 110 126 
f 75 114 126 
f 121 92 126 
f 114 121 126 
f 122 75 126 
f 110 122 126 
f 72 93 127 
f 93 86 127 
f 97 72 127 
f 86 97 127 
f 67 79 128 
f 96 67 128 
f 79 100 128 
