# Original object name hint: convex_0
v 0.06491 -0.03124 -0.04207
v 0.07212 0.01922 0.00361
v 0.07452 0.02164 0.00120
v 0.05289 0.02403 -0.03245
v 0.05770 -0.03365 -0.00121
v 0.07212 0.04087 -0.02764
v 0.07452 -0.03846 -0.00842
v 0.05770 0.01682 0.00120
v 0.05289 -0.03365 -0.03245
v 0.06731 0.04327 -0.00601
v 0.07452 -0.03606 -0.02764
v 0.07693 0.03124 -0.01563
v 0.06971 0.00962 -0.03966
v 0.06251 -0.04327 -0.02283
v 0.06971 -0.03365 0.00120
v 0.05289 -0.02884 -0.01804
v 0.06010 0.01682 -0.03966
v 0.05770 -0.00721 0.00361
v 0.05770 -0.03606 -0.03966
v 0.07452 0.02643 -0.03004
v 0.07693 0.00721 -0.00361
v 0.06971 -0.03846 -0.03725
v 0.05289 0.02164 -0.02283
v 0.06971 -0.04327 -0.00842
v 0.06491 0.04087 -0.02764
v 0.07452 0.04087 -0.00842
v 0.05770 -0.03846 -0.00601
v 0.07693 0.01200 -0.02043
v 0.05770 0.01200 0.00361
v 0.07212 -0.04327 -0.02043
v 0.06971 -0.03124 -0.03966
v 0.06971 0.02403 -0.03725
v 0.07452 -0.03365 -0.00361
v 0.07212 0.00240 0.00361
v 0.06491 0.04327 -0.01804
v 0.06010 -0.02164 -0.04207
v 0.07693 0.02643 -0.00361
v 0.07212 0.04087 -0.00361
v 0.07212 0.04327 -0.02524
v 0.06251 0.01922 0.00361
v 0.06251 -0.03365 0.00120
v 0.06251 -0.04087 -0.03485
v 0.05289 0.02403 -0.02524
v 0.06491 0.03846 -0.03004
v 0.06491 0.04087 -0.00842
v 0.06491 -0.04087 -0.00361
v 0.05530 -0.02403 -0.03725
v 0.07212 -0.03606 -0.03485
v 0.07693 0.00480 -0.01563
v 0.06251 -0.04327 -0.01322
v 0.07452 0.04087 -0.02043
v 0.06731 -0.03846 -0.03966
v 0.06971 -0.04087 -0.03485
v 0.06731 -0.00962 0.00361
v 0.05289 -0.03365 -0.02043
v 0.06971 -0.03846 -0.00121
v 0.07212 0.04327 -0.00601
v 0.07452 0.00240 -0.03004
v 0.06731 0.01682 -0.03966
v 0.06731 0.04087 -0.00361
v 0.07452 0.00721 0.00120
v 0.06010 -0.04087 -0.03245
v 0.05289 -0.01922 -0.01804
v 0.07693 0.02643 -0.02043
v -0.07452 0.01200 -0.03486
v -0.06731 -0.02403 0.01082
v -0.06971 -0.02403 0.01082
v -0.06731 0.04327 -0.00361
v -0.05529 -0.02884 -0.03005
v -0.05529 0.03365 -0.00841
v -0.06251 0.04087 -0.03967
v -0.07212 -0.04087 -0.03486
v -0.07693 0.03846 -0.00601
v -0.05529 -0.03365 0.00120
v -0.07693 -0.03365 -0.00841
v -0.05529 0.01922 0.00360
v -0.06251 -0.03606 -0.03967
v -0.07212 0.03846 -0.03967
v -0.07212 0.03365 0.00360
v -0.06491 -0.04087 -0.00361
v -0.07693 0.00721 -0.02764
v -0.06251 -0.04327 -0.03245
v -0.07693 0.00240 -0.00120
v -0.07452 0.04327 -0.02283
v -0.07212 -0.04087 -0.00601
v -0.07693 -0.03365 -0.02283
v -0.06971 -0.03124 -0.03967
v -0.06010 0.03846 -0.00120
v -0.06251 0.04327 -0.03726
v -0.06010 0.03606 -0.03486
v -0.07693 0.03846 -0.02043
v -0.07212 -0.03124 0.00601
v -0.07212 -0.04327 -0.02043
v -0.05529 -0.01682 -0.03005
v -0.05529 -0.02884 0.00360
v -0.07693 0.03124 -0.00120
v -0.07452 -0.03365 -0.03245
v -0.05529 -0.03365 -0.02764
v -0.05529 0.03124 0.00120
v -0.07452 0.04087 -0.00120
v -0.06731 0.03365 0.00360
v -0.07212 0.04327 -0.03726
v -0.06251 -0.04327 -0.02043
v -0.06010 -0.03606 -0.03726
v -0.07212 -0.03365 -0.03726
v -0.06731 -0.02643 0.01082
v -0.06251 0.04327 -0.02283
v -0.06971 -0.04327 -0.03486
v -0.07452 0.03846 -0.03245
v -0.07452 -0.03124 0.00120
v -0.07452 0.04327 -0.00601
v -0.06491 0.03846 0.00120
v -0.07452 -0.00240 -0.03486
v -0.07452 -0.03846 -0.00601
v -0.06010 -0.03365 0.00360
v -0.07693 0.04087 -0.01562
v -0.06251 -0.04087 -0.03726
v -0.06971 -0.04087 -0.03726
v -0.06971 -0.04327 -0.01562
v -0.05529 0.03365 -0.00120
v -0.07212 -0.03846 -0.00120
v -0.07693 -0.03124 -0.00601
v -0.06491 0.04327 -0.00601
v -0.05529 -0.00962 -0.02764
v -0.06971 0.04327 -0.03967
v -0.07452 -0.03606 -0.00120
v -0.07452 -0.03846 -0.03005
v -0.07452 0.03606 0.00120
v 0.03124 -0.01201 0.02523
v -0.03365 -0.02403 -0.04207
v -0.03365 0.02643 -0.04207
v 0.05289 0.02404 -0.03245
v -0.03123 0.02643 0.02283
v -0.05529 -0.03365 0.00119
v 0.05289 -0.03124 -0.03005
v -0.01200 -0.02163 0.04207
v 0.00960 0.03365 0.02043
v -0.05047 0.03605 -0.02764
v 0.02163 0.00961 0.04207
v 0.01201 -0.03846 0.00119
v -0.05288 -0.03365 -0.02764
v -0.05529 0.03124 0.00119
v -0.00001 0.03846 -0.03486
v -0.00001 -0.03124 -0.04207
v 0.04807 0.01682 0.00119
v -0.01682 0.00480 0.04207
v 0.02403 -0.02883 0.02283
v -0.00961 -0.03846 -0.03244
v 0.05047 -0.00480 0.00119
v -0.03605 -0.00480 0.02764
v -0.00961 0.03124 -0.04207
v -0.02644 0.03846 -0.00359
v -0.01442 -0.03605 0.01562
v -0.05529 -0.00720 -0.02764
v 0.01442 0.03605 0.00600
v -0.04567 -0.02403 -0.03967
v -0.02884 -0.03846 -0.00359
v -0.01682 0.03124 0.02283
v 0.03365 -0.01682 -0.03726
v 0.02403 0.02884 0.01803
v 0.05289 -0.03124 -0.02283
v 0.00960 -0.03846 -0.03244
v -0.04567 0.03846 -0.02764
v 0.05289 0.02404 -0.02524
v -0.05529 -0.03124 0.00359
v 0.01681 0.03605 -0.03005
v -0.05288 0.03124 -0.02764
v 0.03365 0.00961 -0.03726
v 0.02163 0.00480 0.04207
v -0.03123 -0.03124 -0.03967
v -0.05529 0.03365 -0.00119
v 0.05289 -0.02884 -0.03245
v 0.00960 -0.03365 0.02043
v 0.01923 0.01201 0.04207
v -0.03846 0.00480 0.02523
v 0.02884 -0.02643 0.02043
v -0.00001 0.03846 -0.00119
v -0.04807 -0.03605 -0.02283
v -0.04567 0.03124 -0.03486
v -0.05529 -0.03124 -0.02764
v -0.02403 0.03605 -0.03726
v -0.05529 0.02403 0.00359
v 0.02403 -0.03605 0.00119
v 0.05047 0.00720 0.00119
v -0.02403 -0.03124 0.02283
v 0.01681 -0.03846 -0.01321
v -0.03365 -0.01682 0.02764
v -0.03365 0.01923 0.02523
v -0.00961 0.03365 0.02043
v 0.02884 0.02163 0.02283
v 0.00960 -0.03605 -0.03726
v -0.00961 -0.02163 0.04207
f 51 12 64 
f 4 9 16 
f 16 5 18 
f 4 16 23 
f 12 21 28 
f 18 2 29 
f 16 18 29 
f 8 23 29 
f 11 7 30 
f 7 24 30 
f 24 14 30 
f 1 13 31 
f 13 20 31 
f 6 20 32 
f 20 13 32 
f 7 21 33 
f 3 2 34 
f 2 18 34 
f 15 33 34 
f 25 4 35 
f 4 17 36 
f 1 19 36 
f 3 21 37 
f 21 12 37 
f 12 26 37 
f 37 26 38 
f 2 3 38 
f 3 37 38 
f 6 25 39 
f 35 10 39 
f 25 35 39 
f 29 2 40 
f 8 29 40 
f 2 38 40 
f 18 5 41 
f 4 23 43 
f 23 8 43 
f 35 4 43 
f 17 4 44 
f 25 6 44 
f 4 25 44 
f 32 17 44 
f 6 32 44 
f 8 10 45 
f 10 35 45 
f 43 8 45 
f 35 43 45 
f 5 27 46 
f 41 5 46 
f 9 4 47 
f 19 9 47 
f 4 36 47 
f 36 19 47 
f 22 31 48 
f 7 11 49 
f 21 7 49 
f 11 28 49 
f 28 21 49 
f 14 24 50 
f 24 46 50 
f 46 27 50 
f 20 6 51 
f 26 12 51 
f 6 39 51 
f 39 26 51 
f 19 1 52 
f 1 31 52 
f 31 22 52 
f 42 19 52 
f 42 52 53 
f 11 30 53 
f 30 14 53 
f 14 42 53 
f 48 11 53 
f 22 48 53 
f 52 22 53 
f 34 18 54 
f 15 34 54 
f 41 15 54 
f 18 41 54 
f 5 16 55 
f 16 9 55 
f 27 5 55 
f 50 27 55 
f 24 7 56 
f 33 15 56 
f 7 33 56 
f 15 41 56 
f 46 24 56 
f 41 46 56 
f 38 26 57 
f 10 38 57 
f 39 10 57 
f 26 39 57 
f 20 28 58 
f 28 11 58 
f 31 20 58 
f 11 48 58 
f 48 31 58 
f 13 1 59 
f 32 13 59 
f 17 32 59 
f 1 36 59 
f 36 17 59 
f 10 8 60 
f 38 10 60 
f 8 40 60 
f 40 38 60 
f 21 3 61 
f 33 21 61 
f 34 33 61 
f 3 34 61 
f 9 19 62 
f 42 14 62 
f 19 42 62 
f 14 50 62 
f 55 9 62 
f 50 55 62 
f 23 16 63 
f 16 29 63 
f 29 23 63 
f 12 28 64 
f 28 20 64 
f 20 51 64 
