# Original object name hint: convex_2
v 0.06491 -0.03124 -0.04207
v 0.07212 0.01922 0.00361
v 0.07452 0.02164 0.00120
v 0.05289 0.02403 -0.03245
v 0.05770 -0.03365 -0.00121
v 0.07212 0.04087 -0.02764
v 0.07452 -0.03846 -0.00842
v 0.05770 0.01682 0.00120
v 0.05289 -0.03365 -0.03245
v 0.06731 0.04327 -0.00601
v 0.07452 -0.03606 -0.02764
v 0.07693 0.03124 -0.01563
v 0.06971 0.00962 -0.03966
v 0.06251 -0.04327 -0.02283
v 0.06971 -0.03365 0.00120
v 0.05289 -0.02884 -0.01804
v 0.06010 0.01682 -0.03966
v 0.05770 -0.00721 0.00361
v 0.05770 -0.03606 -0.03966
v 0.07452 0.02643 -0.03004
v 0.07693 0.00721 -0.00361
v 0.06971 -0.03846 -0.03725
v 0.05289 0.02164 -0.02283
v 0.06971 -0.04327 -0.00842
v 0.06491 0.04087 -0.02764
v 0.07452 0.04087 -0.00842
v 0.05770 -0.03846 -0.00601
v 0.07693 0.01200 -0.02043
v 0.05770 0.01200 0.00361
v 0.07212 -0.04327 -0.02043
v 0.06971 -0.03124 -0.03966
v 0.06971 0.02403 -0.03725
v 0.07452 -0.03365 -0.00361
v 0.07212 0.00240 0.00361
v 0.06491 0.04327 -0.01804
v 0.06010 -0.02164 -0.04207
v 0.07693 0.02643 -0.00361
v 0.07212 0.04087 -0.00361
v 0.07212 0.04327 -0.02524
v 0.06251 0.01922 0.00361
v 0.06251 -0.03365 0.00120
v 0.06251 -0.04087 -0.03485
v 0.05289 0.02403 -0.02524
v 0.06491 0.03846 -0.03004
v 0.06491 0.04087 -0.00842
v 0.06491 -0.04087 -0.00361
v 0.05530 -0.02403 -0.03725
v 0.07212 -0.03606 -0.03485
v 0.07693 0.00480 -0.01563
v 0.06251 -0.04327 -0.01322
v 0.07452 0.04087 -0.02043
v 0.06731 -0.03846 -0.03966
v 0.06971 -0.04087 -0.03485
v 0.06731 -0.00962 0.00361
v 0.05289 -0.03365 -0.02043
v 0.06971 -0.03846 -0.00121
v 0.07212 0.04327 -0.00601
v 0.07452 0.00240 -0.03004
v 0.06731 0.01682 -0.03966
v 0.06731 0.04087 -0.00361
v 0.07452 0.00721 0.00120
v 0.06010 -0.04087 -0.03245
v 0.05289 -0.01922 -0.01804
v 0.07693 0.02643 -0.02043
v -0.07452 0.01200 -0.03486
v -0.06731 -0.02403 0.01082
v -0.06971 -0.02403 0.01082
v -0.06731 0.04327 -0.00361
v -0.05529 -0.02884 -0.03005
v -0.05529 0.03365 -0.00841
v -0.06251 0.04087 -0.03967
v -0.07212 -0.04087 -0.03486
v -0.07693 0.03846 -0.00601
v -0.05529 -0.03365 0.00120
v -0.07693 -0.03365 -0.00841
v -0.05529 0.01922 0.00360
v -0.06251 -0.03606 -0.03967
v -0.07212 0.03846 -0.03967
v -0.07212 0.03365 0.00360
v -0.06491 -0.04087 -0.00361
v -0.07693 0.00721 -0.02764
v -0.06251 -0.04327 -0.03245
v -0.07693 0.00240 -0.00120
v -0.07452 0.04327 -0.02283
v -0.07212 -0.04087 -0.00601
v -0.07693 -0.03365 -0.02283
v -0.06971 -0.03124 -0.03967
v -0.06010 0.03846 -0.00120
v -0.06251 0.04327 -0.03726
v -0.06010 0.03606 -0.03486
v -0.07693 0.03846 -0.02043
v -0.07212 -0.03124 0.00601
v -0.07212 -0.04327 -0.02043
v -0.05529 -0.01682 -0.03005
v -0.05529 -0.02884 0.00360
v -0.07693 0.03124 -0.00120
v -0.07452 -0.03365 -0.03245
v -0.05529 -0.03365 -0.02764
v -0.05529 0.03124 0.00120
v -0.07452 0.04087 -0.00120
v -0.06731 0.03365 0.00360
v -0.07212 0.04327 -0.03726
v -0.06251 -0.04327 -0.02043
v -0.06010 -0.03606 -0.03726
v -0.07212 -0.03365 -0.03726
v -0.06731 -0.02643 0.01082
v -0.06251 0.04327 -0.02283
v -0.06971 -0.04327 -0.03486
v -0.07452 0.03846 -0.03245
v -0.07452 -0.03124 0.00120
v -0.07452 0.04327 -0.00601
v -0.06491 0.03846 0.00120
v -0.07452 -0.00240 -0.03486
v -0.07452 -0.03846 -0.00601
v -0.06010 -0.03365 0.00360
v -0.07693 0.04087 -0.01562
v -0.06251 -0.04087 -0.03726
v -0.06971 -0.04087 -0.03726
v -0.06971 -0.04327 -0.01562
v -0.05529 0.03365 -0.00120
v -0.07212 -0.03846 -0.00120
v -0.07693 -0.03124 -0.00601
v -0.06491 0.04327 -0.00601
v -0.05529 -0.00962 -0.02764
v -0.06971 0.04327 -0.03967
v -0.07452 -0.03606 -0.00120
v -0.07452 -0.03846 -0.03005
v -0.07452 0.03606 0.00120
v 0.03124 -0.01201 0.02523
v -0.03365 -0.02403 -0.04207
v -0.03365 0.02643 -0.04207
v 0.05289 0.02404 -0.03245
v -0.03123 0.02643 0.02283
v -0.05529 -0.03365 0.00119
v 0.05289 -0.03124 -0.03005
v -0.01200 -0.02163 0.04207
v 0.00960 0.03365 0.02043
v -0.05047 0.03605 -0.02764
v 0.02163 0.00961 0.04207
v 0.01201 -0.03846 0.00119
v -0.05288 -0.03365 -0.02764
v -0.05529 0.03124 0.00119
v -0.00001 0.03846 -0.03486
v -0.00001 -0.03124 -0.04207
v 0.04807 0.01682 0.00119
v -0.01682 0.00480 0.04207
v 0.02403 -0.02883 0.02283
v -0.00961 -0.03846 -0.03244
v 0.05047 -0.00480 0.00119
v -0.03605 -0.00480 0.02764
v -0.00961 0.03124 -0.04207
v -0.02644 0.03846 -0.00359
v -0.01442 -0.03605 0.01562
v -0.05529 -0.00720 -0.02764
v 0.01442 0.03605 0.00600
v -0.04567 -0.02403 -0.03967
v -0.02884 -0.03846 -0.00359
v -0.01682 0.03124 0.02283
v 0.03365 -0.01682 -0.03726
v 0.02403 0.02884 0.01803
v 0.05289 -0.03124 -0.02283
v 0.00960 -0.03846 -0.03244
v -0.04567 0.03846 -0.02764
v 0.05289 0.02404 -0.02524
v -0.05529 -0.03124 0.00359
v 0.01681 0.03605 -0.03005
v -0.05288 0.03124 -0.02764
v 0.03365 0.00961 -0.03726
v 0.02163 0.00480 0.04207
v -0.03123 -0.03124 -0.03967
v -0.05529 0.03365 -0.00119
v 0.05289 -0.02884 -0.03245
v 0.00960 -0.03365 0.02043
v 0.01923 0.01201 0.04207
v -0.03846 0.00480 0.02523
v 0.02884 -0.02643 0.02043
v -0.00001 0.03846 -0.00119
v -0.04807 -0.03605 -0.02283
v -0.04567 0.03124 -0.03486
v -0.05529 -0.03124 -0.02764
v -0.02403 0.03605 -0.03726
v -0.05529 0.02403 0.00359
v 0.02403 -0.03605 0.00119
v 0.05047 0.00720 0.00119
v -0.02403 -0.03124 0.02283
v 0.01681 -0.03846 -0.01321
v -0.03365 -0.01682 0.02764
v -0.03365 0.01923 0.02523
v -0.00961 0.03365 0.02043
v 0.02884 0.02163 0.02283
v 0.00960 -0.03605 -0.03726
v -0.00961 -0.02163 0.04207
f 173 147 192 
f 130 131 144 
f 136 139 146 
f 136 146 150 
f 143 132 151 
f 144 131 151 
f 134 142 154 
f 131 130 156 
f 148 140 157 
f 153 134 157 
f 140 153 157 
f 133 146 158 
f 155 137 160 
f 135 132 161 
f 140 148 162 
f 152 143 163 
f 160 145 164 
f 155 160 164 
f 161 132 164 
f 134 136 165 
f 142 134 165 
f 132 143 166 
f 164 132 166 
f 155 164 166 
f 156 154 167 
f 151 132 168 
f 144 151 168 
f 132 159 168 
f 159 144 168 
f 139 136 169 
f 129 149 169 
f 149 139 169 
f 130 144 170 
f 148 141 170 
f 156 130 170 
f 141 156 170 
f 142 133 171 
f 154 142 171 
f 133 158 171 
f 163 138 171 
f 152 163 171 
f 138 167 171 
f 167 154 171 
f 132 135 172 
f 159 132 172 
f 144 159 172 
f 136 153 173 
f 153 140 173 
f 146 139 174 
f 137 158 174 
f 158 146 174 
f 160 137 174 
f 150 146 175 
f 165 150 175 
f 149 129 176 
f 147 161 176 
f 161 149 176 
f 129 169 176 
f 169 147 176 
f 143 152 177 
f 137 155 177 
f 166 143 177 
f 155 166 177 
f 134 141 178 
f 141 148 178 
f 157 134 178 
f 148 157 178 
f 131 156 179 
f 138 163 179 
f 167 138 179 
f 156 167 179 
f 141 134 180 
f 134 154 180 
f 156 141 180 
f 154 156 180 
f 151 131 181 
f 143 151 181 
f 163 143 181 
f 131 179 181 
f 179 163 181 
f 142 165 182 
f 165 175 182 
f 161 147 183 
f 147 173 183 
f 173 140 183 
f 145 139 184 
f 139 149 184 
f 149 161 184 
f 164 145 184 
f 161 164 184 
f 136 134 185 
f 134 153 185 
f 153 136 185 
f 135 161 186 
f 162 135 186 
f 140 162 186 
f 183 140 186 
f 161 183 186 
f 136 150 187 
f 165 136 187 
f 150 165 187 
f 133 142 188 
f 146 133 188 
f 175 146 188 
f 142 182 188 
f 182 175 188 
f 158 137 189 
f 171 158 189 
f 152 171 189 
f 137 177 189 
f 177 152 189 
f 139 145 190 
f 145 160 190 
f 174 139 190 
f 160 174 190 
f 135 162 191 
f 162 148 191 
f 170 144 191 
f 148 170 191 
f 172 135 191 
f 144 172 191 
f 169 136 192 
f 147 169 192 
f 136 173 192 
