# Original object name hint: convex_3
v 0.02771 -0.06122 0.01271
v -0.03464 -0.05891 -0.04274
v -0.03464 -0.05660 -0.04274
v -0.04851 -0.05429 0.00808
v -0.00232 -0.04274 -0.01502
v 0.03233 -0.06122 -0.03812
v -0.03695 -0.06353 0.00577
v -0.03234 -0.04274 0.00808
v -0.05544 -0.04967 -0.03580
v 0.00462 -0.05198 -0.04043
v 0.02541 -0.06353 -0.04043
v -0.02772 -0.06353 -0.03812
v 0.03465 -0.05891 0.00346
v -0.01155 -0.04274 0.00808
v -0.04851 -0.05891 -0.03812
v 0.03233 -0.06353 0.00577
v 0.03233 -0.05660 -0.03580
v -0.02310 -0.04274 -0.01732
v -0.04851 -0.05891 0.00577
v -0.03464 -0.06122 0.01039
v -0.02540 -0.04274 0.01039
v 0.03697 -0.06353 -0.03118
v 0.01848 -0.05660 -0.04274
v -0.05082 -0.04967 -0.00578
v 0.02309 -0.06353 0.01271
v -0.00232 -0.04274 -0.00809
v 0.02771 -0.05891 0.01271
v -0.02772 -0.06122 -0.04274
v 0.03697 -0.05891 -0.03350
v 0.02309 -0.05429 -0.03812
v -0.05544 -0.05198 -0.03350
v -0.00463 -0.04274 -0.01732
v -0.01616 -0.05429 -0.04274
v -0.04851 -0.05198 0.00808
v 0.03233 -0.05660 -0.02425
v 0.02079 -0.06122 -0.04274
v -0.03695 -0.05429 0.01039
v 0.02771 -0.05660 -0.04043
v -0.03464 -0.06353 0.00808
v 0.03233 -0.05891 0.00808
v -0.03695 -0.06353 -0.00116
v -0.04389 -0.06122 0.00577
v -0.02310 -0.06353 -0.04043
v 0.02079 -0.05891 0.01271
v -0.01847 -0.04274 0.01039
v -0.02540 -0.04274 -0.01502
v -0.05082 -0.05660 -0.00347
v -0.03003 -0.06353 -0.03350
v 0.03465 -0.06122 0.00346
v 0.03697 -0.05891 -0.02425
v -0.04389 -0.05429 -0.04043
v 0.01155 -0.05198 -0.03812
v 0.00924 -0.05429 -0.04274
v -0.04620 -0.05891 0.00808
v -0.04389 -0.04967 -0.03580
v -0.05544 -0.04967 -0.03350
v 0.06238 -0.01732 -0.04043
v 0.07162 0.02886 0.03350
v 0.06469 0.02886 0.03350
v 0.06469 0.05658 -0.02887
v 0.05545 0.00348 0.03119
v 0.07393 -0.02656 -0.00347
v 0.07393 0.03811 -0.03349
v 0.05545 0.03350 -0.02655
v 0.05545 -0.02656 -0.01270
v 0.07162 -0.02656 0.01731
v 0.07393 0.05428 0.00346
v 0.05545 0.02655 0.03119
v 0.06931 -0.03119 -0.03349
v 0.06238 -0.03580 0.00346
v 0.07393 0.01040 0.03119
v 0.06700 0.05891 0.00115
v 0.06469 0.01963 -0.04274
v 0.05776 -0.02888 -0.03349
v 0.07393 0.01500 -0.03811
v 0.05545 0.02195 -0.03349
v 0.05776 -0.02424 0.01501
v 0.06700 -0.03812 -0.01270
v 0.06238 -0.01963 0.02425
v 0.06931 0.05658 -0.02887
v 0.07162 0.00810 0.03350
v 0.06931 -0.00115 -0.04274
v 0.06469 0.05658 -0.00117
v 0.06007 -0.03580 -0.02655
v 0.06469 0.05198 -0.03349
v 0.05776 0.01963 -0.03811
v 0.06931 0.01963 -0.04274
v 0.07393 -0.02656 0.01039
v 0.07162 -0.03349 0.00115
v 0.07393 0.05428 -0.01270
v 0.07162 -0.02424 -0.02887
v 0.07162 0.05891 0.00115
v 0.05545 -0.02656 -0.00347
v 0.07393 0.03118 0.02887
v 0.06007 0.03811 -0.03581
v 0.06700 -0.03119 -0.03581
v 0.06931 0.05198 -0.03349
v 0.06007 -0.03580 -0.00347
v 0.06007 0.01269 0.03350
v 0.06931 -0.03580 0.00346
v 0.06238 -0.02888 0.01501
v 0.07162 -0.01963 0.02194
v 0.06700 -0.03580 -0.02887
v 0.05776 0.00579 -0.03811
v 0.06931 -0.02193 -0.03811
v 0.06238 0.03118 0.03119
v 0.06238 0.05198 -0.02887
v 0.05545 0.03350 -0.01963
v 0.07162 0.05891 -0.01039
v 0.07162 0.04042 0.02194
v 0.06238 -0.03812 -0.00808
v 0.06238 -0.03119 -0.03581
v 0.06700 -0.01963 0.02425
v 0.06469 -0.00115 -0.04274
v 0.07393 -0.02424 0.01501
v 0.07162 -0.03349 -0.00577
v 0.05776 -0.03119 0.00346
v 0.07162 0.02425 -0.04043
v 0.06007 0.00579 -0.04043
v 0.06700 0.05891 -0.01502
v -0.07162 -0.01732 -0.03581
v -0.05544 0.02888 0.01271
v -0.05544 0.03118 0.01039
v -0.07162 0.04735 0.00115
v -0.06006 0.06121 -0.03349
v -0.05544 -0.02888 0.00808
v -0.05776 -0.03118 -0.03581
v -0.06931 -0.02425 0.01039
v -0.06931 0.03118 -0.04505
v -0.07393 0.02194 0.00808
v -0.07162 0.05429 -0.03119
v -0.06699 -0.03812 -0.03349
v -0.06238 0.05429 0.00577
v -0.05544 0.01963 -0.01733
v -0.06469 -0.00346 -0.04505
v -0.07162 -0.02657 -0.01271
v -0.07393 0.01271 -0.02194
v -0.06931 0.05429 0.00577
v -0.06699 0.06353 -0.03349
v -0.06931 0.01963 0.01271
v -0.05544 -0.02194 0.01271
v -0.06006 -0.03812 -0.01963
v -0.06469 0.03118 -0.04505
v -0.06931 -0.01732 -0.04274
v -0.07393 0.00578 0.00808
v -0.07162 0.03349 -0.04043
v -0.05544 -0.01963 -0.01963
v -0.05776 -0.00346 -0.03581
v -0.06699 -0.03580 -0.01271
v -0.06006 -0.03812 -0.03581
v -0.06931 -0.01963 0.01271
v -0.07162 -0.02657 -0.03119
v -0.06931 0.06121 -0.03581
v -0.07393 0.02888 -0.01733
v -0.06238 0.06353 -0.02656
v -0.06238 -0.01963 -0.04274
v -0.06699 -0.02888 0.00808
v -0.07162 -0.00115 -0.04043
v -0.06931 -0.03580 -0.02194
v -0.06006 0.00116 -0.04043
v -0.06931 -0.03118 -0.03812
v -0.07393 0.02888 0.00577
v -0.07162 -0.01963 0.00577
v -0.07162 0.05429 -0.01733
v -0.06931 0.04735 0.00808
v -0.06469 0.05659 -0.03812
v -0.07393 0.00347 -0.01502
v -0.06931 -0.00346 -0.04505
v -0.06006 0.06121 -0.02888
v -0.06931 0.06121 -0.02425
v -0.06469 -0.03580 -0.03812
v -0.06931 -0.03349 -0.01041
v -0.06469 -0.03580 -0.01041
v -0.06699 0.02657 0.01271
v -0.06699 0.06353 -0.02656
v -0.05776 -0.03349 -0.03349
v -0.06006 0.04735 -0.03581
v -0.06699 -0.03812 -0.02194
v -0.06931 -0.03580 -0.03349
v -0.07393 0.02425 -0.02194
v -0.07162 0.02888 0.01039
v -0.06699 -0.02657 0.01039
v -0.05544 -0.02425 -0.01502
v -0.06931 0.05659 -0.03812
v 0.05545 0.02426 -0.01271
v 0.03928 0.01502 -0.01733
v 0.04159 0.01271 -0.01502
v 0.05545 0.01964 -0.02195
v 0.03928 0.02657 -0.01733
v 0.05083 0.01271 -0.01040
v 0.03928 0.02194 -0.01040
v 0.05314 0.02888 -0.02195
v 0.05545 0.02888 -0.01502
v 0.05545 0.01502 -0.01964
v 0.03928 0.01502 -0.01040
v 0.05083 0.02426 -0.01040
v 0.03928 0.02657 -0.01271
v 0.05545 0.01502 -0.01271
v 0.05545 0.02888 -0.02195
v 0.05314 0.01964 -0.02195
v 0.04390 -0.00346 0.00809
v 0.04159 0.02657 0.03350
v 0.03928 0.02657 0.03350
v 0.03928 0.02887 0.00578
v 0.05545 0.03119 0.01040
v 0.05545 0.00347 0.03118
v 0.05545 -0.00577 0.00578
v 0.03928 -0.00577 0.01733
v 0.05545 0.02657 0.03118
v 0.03928 0.01040 0.03350
v 0.03928 0.03119 0.03118
v 0.05545 -0.00809 0.01502
v 0.05545 0.02426 0.00578
v 0.03928 0.01040 0.00578
v 0.03928 0.03119 0.00809
v 0.03928 -0.00577 0.01271
v 0.03928 0.00578 0.03118
v 0.04621 0.03119 0.02887
v 0.05083 -0.00809 0.00809
v 0.04390 0.01270 0.03350
v 0.05545 0.03119 0.01502
v 0.04390 0.02887 0.00578
v 0.03928 0.00116 0.00809
v 0.05314 -0.00577 0.00578
v 0.05083 0.02887 0.03118
v 0.01386 -0.02655 -0.03350
v -0.04389 -0.01732 -0.03350
v -0.04158 -0.01963 -0.03119
v -0.00463 0.04736 -0.02888
v 0.00462 0.02656 -0.03812
v 0.00693 0.00117 -0.02426
v -0.03465 0.03811 -0.02657
v 0.00000 -0.04042 -0.03812
v -0.03696 -0.01963 -0.02657
v 0.00693 -0.03811 -0.02888
v -0.03465 0.04273 -0.03119
v 0.00693 0.03118 -0.02888
v -0.01617 0.03811 -0.03581
v 0.01386 -0.03580 -0.03812
v 0.00462 0.01732 -0.02426
v 0.00693 0.03348 -0.03581
v -0.00231 -0.04042 -0.03119
v -0.04158 -0.01039 -0.02657
v 0.00000 0.02656 -0.03812
v -0.00231 -0.00346 -0.02426
v -0.04389 -0.00808 -0.03350
v 0.01155 -0.04042 -0.03119
v -0.00463 0.04504 -0.03350
v -0.00694 0.01501 -0.02426
v -0.01155 0.04042 -0.02657
v -0.04389 -0.00808 -0.02888
v 0.01386 -0.02886 -0.03119
v 0.00231 -0.02425 -0.02657
v 0.00693 0.01501 -0.02426
v -0.01617 0.04736 -0.02888
v 0.00462 0.03811 -0.03581
v -0.01847 0.04504 -0.03350
v -0.04158 -0.01732 -0.02657
v -0.01847 -0.02425 -0.02657
v -0.00231 -0.03811 -0.02888
v 0.01155 -0.04042 -0.03812
v -0.00925 0.04042 -0.03581
v 0.01386 -0.03580 -0.03119
v -0.01847 0.03348 -0.03581
v -0.03465 0.04273 -0.02888
v -0.00231 -0.04042 -0.03581
v 0.01386 -0.03118 -0.03812
v -0.04158 -0.01963 -0.02888
v 0.00462 0.03811 -0.03119
v -0.01617 0.04736 -0.03119
v 0.00924 -0.03580 -0.02888
v 0.00462 0.02887 -0.02657
v -0.00463 0.03811 -0.02657
v 0.00462 -0.00346 -0.02426
v -0.00694 0.00347 -0.02426
v -0.04389 -0.01732 -0.02888
v 0.00692 0.06122 -0.01271
v -0.05543 -0.01963 -0.01502
v -0.05543 -0.01963 -0.00809
v 0.03695 -0.02656 -0.01040
v 0.00923 0.00348 -0.02426
v -0.00923 0.05197 -0.00116
v -0.04619 0.04504 -0.01733
v -0.00923 -0.03811 -0.00347
v -0.02078 -0.04042 -0.01963
v 0.03927 0.02655 -0.01502
v 0.00462 0.06122 -0.02194
v 0.03464 0.01731 -0.00578
v -0.04850 -0.00807 -0.01963
v -0.04619 -0.01038 -0.00347
v -0.04619 0.04504 -0.01040
v 0.00692 -0.00346 -0.00116
v -0.02540 0.04734 -0.02194
v -0.04619 -0.03811 -0.01040
v -0.00000 -0.04274 -0.01733
v 0.03464 -0.02425 -0.00578
v 0.03927 0.01500 -0.01733
v 0.02540 -0.02194 -0.01733
v 0.00462 0.05890 -0.00578
v -0.00463 0.00117 -0.02426
v -0.00463 -0.04274 -0.00578
v -0.05543 0.01731 -0.01502
v -0.00463 0.06122 -0.01040
v -0.01617 -0.00576 -0.00116
v -0.04619 0.03811 -0.00809
v -0.04388 -0.02194 -0.00347
v 0.00231 -0.03811 -0.01963
v 0.00923 0.02424 -0.02426
v -0.02309 -0.04274 -0.00578
v -0.04619 -0.03811 -0.01502
v -0.00232 0.04965 -0.00116
v -0.04619 -0.01963 -0.01963
v -0.05543 0.00117 -0.00809
v 0.03927 0.02655 -0.01733
v 0.03927 0.01963 -0.01040
v -0.02309 0.02194 -0.00116
v -0.03003 -0.04274 -0.01502
v -0.04388 0.03349 -0.01963
v -0.05543 0.00578 -0.01733
v -0.00463 0.06122 -0.01963
v 0.02309 0.01731 -0.00347
v -0.02540 0.05428 -0.01040
v -0.00232 0.02424 -0.02426
v 0.00231 -0.04274 -0.01040
v -0.05543 -0.01732 -0.01733
v -0.02078 -0.03811 -0.00347
v -0.00232 -0.01270 -0.00116
v 0.03695 -0.02656 -0.00809
v 0.03233 -0.02194 -0.01502
v -0.05081 0.03349 -0.01040
v -0.05312 -0.01963 -0.00578
v 0.00462 -0.00115 -0.02426
v -0.03233 0.02655 -0.00347
v -0.04388 0.04734 -0.01502
v -0.00000 0.06122 -0.02194
v -0.05081 0.03349 -0.01733
v -0.00232 0.06122 -0.00809
v 0.00692 0.01500 -0.00116
v 0.00692 0.06122 -0.01733
v -0.05312 -0.00807 -0.00578
v 0.01617 0.01270 0.02195
v -0.05543 -0.02887 0.00347
v -0.04850 -0.03811 0.00347
v -0.00232 0.04965 -0.00116
v 0.03233 -0.01963 0.00578
v -0.04157 0.06122 0.00809
v 0.03927 0.03118 0.01732
v -0.05312 -0.02425 0.01270
v 0.03464 -0.01501 0.01732
v -0.05543 0.02886 0.01270
v -0.00923 -0.04274 0.00347
v 0.03927 0.02886 0.00578
v 0.00231 0.06122 0.00809
v 0.01154 -0.01270 0.02195
v -0.05081 0.03349 0.00347
v -0.02771 -0.04274 0.01040
v -0.00693 0.01039 0.02195
v 0.00923 0.03118 0.01963
v 0.03927 0.00348 0.01963
v 0.00231 0.06122 0.00347
v -0.01154 0.04965 -0.00116
v 0.03695 -0.01732 0.01501
v -0.04157 0.06122 0.00578
v -0.00232 0.04273 -0.00116
v -0.01848 -0.04274 0.01040
v 0.03927 0.00809 0.00578
v -0.05543 0.03118 0.00578
v -0.00693 -0.00346 0.02195
v 0.01617 -0.01732 0.00347
v -0.04850 -0.04042 0.00809
v -0.05543 -0.02194 0.01270
v 0.03927 0.02424 0.01963
v -0.00232 0.01500 0.02195
v -0.03233 -0.04274 0.00347
v -0.05543 0.00809 0.00347
v -0.00923 -0.04274 0.00809
v 0.03464 -0.01963 0.00809
v 0.02772 0.02424 0.00347
v 0.03927 0.03118 0.00809
v 0.03927 -0.00807 0.01270
v -0.05081 0.03349 0.01270
v -0.04850 0.04042 0.00347
v 0.01386 -0.01270 0.02195
v -0.00923 0.04273 -0.00116
v -0.05543 -0.02887 0.01040
v 0.01847 -0.01270 0.00347
v -0.05081 0.04273 0.00809
v 0.01154 0.03118 0.01963
v 0.00231 0.02886 0.01963
v 0.03464 -0.01963 0.01270
v 0.03233 -0.01963 0.01501
v -0.00463 -0.00576 0.02195
v -0.02540 0.05890 0.00347
v 0.03927 -0.00807 0.01732
v 0.03695 -0.01732 0.01040
v -0.04619 -0.03580 0.01040
v -0.05081 -0.03811 0.00578
v -0.02540 -0.00808 0.03581
v 0.02310 0.03581 0.03350
v 0.02540 0.03349 0.03581
v 0.03003 -0.01501 0.02657
v 0.02772 0.01270 0.04505
v 0.03928 0.02425 0.02195
v -0.02309 0.02425 0.04043
v 0.00923 0.01270 0.02195
v -0.01616 -0.01732 0.03812
v 0.00232 0.03581 0.02888
v 0.03234 -0.01501 0.03350
v -0.02540 0.01501 0.03350
v 0.03928 0.02887 0.03350
v -0.02078 -0.01501 0.03350
v -0.02078 0.01039 0.04274
v -0.00923 0.02656 0.04274
v 0.03928 0.00809 0.02195
v 0.00923 0.00578 0.02195
v 0.03928 0.00578 0.03350
v 0.01155 0.03118 0.02426
v 0.00923 -0.01732 0.02888
v -0.02540 -0.00577 0.04043
v 0.03928 0.03118 0.02657
v 0.00232 0.03581 0.03581
v 0.02540 0.01732 0.04505
v 0.03465 -0.01501 0.02888
v 0.01848 0.03581 0.02657
v 0.00001 -0.01501 0.03812
v -0.02540 -0.00115 0.03350
v -0.02309 0.02425 0.03581
v -0.00230 0.02425 0.02657
v 0.00463 0.02656 0.04274
v 0.01617 -0.01501 0.02657
v 0.01848 -0.01732 0.03350
v -0.02540 0.01501 0.04043
v 0.03696 0.03118 0.03350
v 0.01617 0.03581 0.03581
v -0.01616 -0.01732 0.03350
v -0.02078 0.01501 0.04274
v 0.02310 0.01270 0.04505
v -0.00692 0.02656 0.02888
v 0.03003 0.01963 0.04274
v -0.02078 -0.01501 0.03812
v 0.02079 -0.01732 0.02888
v 0.01155 -0.01270 0.02657
v -0.01154 -0.01732 0.03812
v -0.02309 -0.01039 0.03350
v 0.03465 -0.01501 0.03119
v -0.01385 0.02887 0.03812
f 188 194 200 
f 189 186 191 
f 186 189 192 
f 185 188 193 
f 187 186 194 
f 188 185 194 
f 190 187 194 
f 186 187 195 
f 187 190 195 
f 191 186 195 
f 190 191 195 
f 190 185 196 
f 191 190 196 
f 185 193 196 
f 196 193 197 
f 189 191 197 
f 192 189 197 
f 193 192 197 
f 191 196 197 
f 185 190 198 
f 194 185 198 
f 190 194 198 
f 188 192 199 
f 192 193 199 
f 193 188 199 
f 186 192 200 
f 192 188 200 
f 194 186 200 
