# Original object name hint: convex_2
v 0.02771 -0.06122 0.01271
v -0.03464 -0.05891 -0.04274
v -0.03464 -0.05660 -0.04274
v -0.04851 -0.05429 0.00808
v -0.00232 -0.04274 -0.01502
v 0.03233 -0.06122 -0.03812
v -0.03695 -0.06353 0.00577
v -0.03234 -0.04274 0.00808
v -0.05544 -0.04967 -0.03580
v 0.00462 -0.05198 -0.04043
v 0.02541 -0.06353 -0.04043
v -0.02772 -0.06353 -0.03812
v 0.03465 -0.05891 0.00346
v -0.01155 -0.04274 0.00808
v -0.04851 -0.05891 -0.03812
v 0.03233 -0.06353 0.00577
v 0.03233 -0.05660 -0.03580
v -0.02310 -0.04274 -0.01732
v -0.04851 -0.05891 0.00577
v -0.03464 -0.06122 0.01039
v -0.02540 -0.04274 0.01039
v 0.03697 -0.06353 -0.03118
v 0.01848 -0.05660 -0.04274
v -0.05082 -0.04967 -0.00578
v 0.02309 -0.06353 0.01271
v -0.00232 -0.04274 -0.00809
v 0.02771 -0.05891 0.01271
v -0.02772 -0.06122 -0.04274
v 0.03697 -0.05891 -0.03350
v 0.02309 -0.05429 -0.03812
v -0.05544 -0.05198 -0.03350
v -0.00463 -0.04274 -0.01732
v -0.01616 -0.05429 -0.04274
v -0.04851 -0.05198 0.00808
v 0.03233 -0.05660 -0.02425
v 0.02079 -0.06122 -0.04274
v -0.03695 -0.05429 0.01039
v 0.02771 -0.05660 -0.04043
v -0.03464 -0.06353 0.00808
v 0.03233 -0.05891 0.00808
v -0.03695 -0.06353 -0.00116
v -0.04389 -0.06122 0.00577
v -0.02310 -0.06353 -0.04043
v 0.02079 -0.05891 0.01271
v -0.01847 -0.04274 0.01039
v -0.02540 -0.04274 -0.01502
v -0.05082 -0.05660 -0.00347
v -0.03003 -0.06353 -0.03350
v 0.03465 -0.06122 0.00346
v 0.03697 -0.05891 -0.02425
v -0.04389 -0.05429 -0.04043
v 0.01155 -0.05198 -0.03812
v 0.00924 -0.05429 -0.04274
v -0.04620 -0.05891 0.00808
v -0.04389 -0.04967 -0.03580
v -0.05544 -0.04967 -0.03350
v 0.06238 -0.01732 -0.04043
v 0.07162 0.02886 0.03350
v 0.06469 0.02886 0.03350
v 0.06469 0.05658 -0.02887
v 0.05545 0.00348 0.03119
v 0.07393 -0.02656 -0.00347
v 0.07393 0.03811 -0.03349
v 0.05545 0.03350 -0.02655
v 0.05545 -0.02656 -0.01270
v 0.07162 -0.02656 0.01731
v 0.07393 0.05428 0.00346
v 0.05545 0.02655 0.03119
v 0.06931 -0.03119 -0.03349
v 0.06238 -0.03580 0.00346
v 0.07393 0.01040 0.03119
v 0.06700 0.05891 0.00115
v 0.06469 0.01963 -0.04274
v 0.05776 -0.02888 -0.03349
v 0.07393 0.01500 -0.03811
v 0.05545 0.02195 -0.03349
v 0.05776 -0.02424 0.01501
v 0.06700 -0.03812 -0.01270
v 0.06238 -0.01963 0.02425
v 0.06931 0.05658 -0.02887
v 0.07162 0.00810 0.03350
v 0.06931 -0.00115 -0.04274
v 0.06469 0.05658 -0.00117
v 0.06007 -0.03580 -0.02655
v 0.06469 0.05198 -0.03349
v 0.05776 0.01963 -0.03811
v 0.06931 0.01963 -0.04274
v 0.07393 -0.02656 0.01039
v 0.07162 -0.03349 0.00115
v 0.07393 0.05428 -0.01270
v 0.07162 -0.02424 -0.02887
v 0.07162 0.05891 0.00115
v 0.05545 -0.02656 -0.00347
v 0.07393 0.03118 0.02887
v 0.06007 0.03811 -0.03581
v 0.06700 -0.03119 -0.03581
v 0.06931 0.05198 -0.03349
v 0.06007 -0.03580 -0.00347
v 0.06007 0.01269 0.03350
v 0.06931 -0.03580 0.00346
v 0.06238 -0.02888 0.01501
v 0.07162 -0.01963 0.02194
v 0.06700 -0.03580 -0.02887
v 0.05776 0.00579 -0.03811
v 0.06931 -0.02193 -0.03811
v 0.06238 0.03118 0.03119
v 0.06238 0.05198 -0.02887
v 0.05545 0.03350 -0.01963
v 0.07162 0.05891 -0.01039
v 0.07162 0.04042 0.02194
v 0.06238 -0.03812 -0.00808
v 0.06238 -0.03119 -0.03581
v 0.06700 -0.01963 0.02425
v 0.06469 -0.00115 -0.04274
v 0.07393 -0.02424 0.01501
v 0.07162 -0.03349 -0.00577
v 0.05776 -0.03119 0.00346
v 0.07162 0.02425 -0.04043
v 0.06007 0.00579 -0.04043
v 0.06700 0.05891 -0.01502
v -0.07162 -0.01732 -0.03581
v -0.05544 0.02888 0.01271
v -0.05544 0.03118 0.01039
v -0.07162 0.04735 0.00115
v -0.06006 0.06121 -0.03349
v -0.05544 -0.02888 0.00808
v -0.05776 -0.03118 -0.03581
v -0.06931 -0.02425 0.01039
v -0.06931 0.03118 -0.04505
v -0.07393 0.02194 0.00808
v -0.07162 0.05429 -0.03119
v -0.06699 -0.03812 -0.03349
v -0.06238 0.05429 0.00577
v -0.05544 0.01963 -0.01733
v -0.06469 -0.00346 -0.04505
v -0.07162 -0.02657 -0.01271
v -0.07393 0.01271 -0.02194
v -0.06931 0.05429 0.00577
v -0.06699 0.06353 -0.03349
v -0.06931 0.01963 0.01271
v -0.05544 -0.02194 0.01271
v -0.06006 -0.03812 -0.01963
v -0.06469 0.03118 -0.04505
v -0.06931 -0.01732 -0.04274
v -0.07393 0.00578 0.00808
v -0.07162 0.03349 -0.04043
v -0.05544 -0.01963 -0.01963
v -0.05776 -0.00346 -0.03581
v -0.06699 -0.03580 -0.01271
v -0.06006 -0.03812 -0.03581
v -0.06931 -0.01963 0.01271
v -0.07162 -0.02657 -0.03119
v -0.06931 0.06121 -0.03581
v -0.07393 0.02888 -0.01733
v -0.06238 0.06353 -0.02656
v -0.06238 -0.01963 -0.04274
v -0.06699 -0.02888 0.00808
v -0.07162 -0.00115 -0.04043
v -0.06931 -0.03580 -0.02194
v -0.06006 0.00116 -0.04043
v -0.06931 -0.03118 -0.03812
v -0.07393 0.02888 0.00577
v -0.07162 -0.01963 0.00577
v -0.07162 0.05429 -0.01733
v -0.06931 0.04735 0.00808
v -0.06469 0.05659 -0.03812
v -0.07393 0.00347 -0.01502
v -0.06931 -0.00346 -0.04505
v -0.06006 0.06121 -0.02888
v -0.06931 0.06121 -0.02425
v -0.06469 -0.03580 -0.03812
v -0.06931 -0.03349 -0.01041
v -0.06469 -0.03580 -0.01041
v -0.06699 0.02657 0.01271
v -0.06699 0.06353 -0.02656
v -0.05776 -0.03349 -0.03349
v -0.06006 0.04735 -0.03581
v -0.06699 -0.03812 -0.02194
v -0.06931 -0.03580 -0.03349
v -0.07393 0.02425 -0.02194
v -0.07162 0.02888 0.01039
v -0.06699 -0.02657 0.01039
v -0.05544 -0.02425 -0.01502
v -0.06931 0.05659 -0.03812
v 0.05545 0.02426 -0.01271
v 0.03928 0.01502 -0.01733
v 0.04159 0.01271 -0.01502
v 0.05545 0.01964 -0.02195
v 0.03928 0.02657 -0.01733
v 0.05083 0.01271 -0.01040
v 0.03928 0.02194 -0.01040
v 0.05314 0.02888 -0.02195
v 0.05545 0.02888 -0.01502
v 0.05545 0.01502 -0.01964
v 0.03928 0.01502 -0.01040
v 0.05083 0.02426 -0.01040
v 0.03928 0.02657 -0.01271
v 0.05545 0.01502 -0.01271
v 0.05545 0.02888 -0.02195
v 0.05314 0.01964 -0.02195
v 0.04390 -0.00346 0.00809
v 0.04159 0.02657 0.03350
v 0.03928 0.02657 0.03350
v 0.03928 0.02887 0.00578
v 0.05545 0.03119 0.01040
v 0.05545 0.00347 0.03118
v 0.05545 -0.00577 0.00578
v 0.03928 -0.00577 0.01733
v 0.05545 0.02657 0.03118
v 0.03928 0.01040 0.03350
v 0.03928 0.03119 0.03118
v 0.05545 -0.00809 0.01502
v 0.05545 0.02426 0.00578
v 0.03928 0.01040 0.00578
v 0.03928 0.03119 0.00809
v 0.03928 -0.00577 0.01271
v 0.03928 0.00578 0.03118
v 0.04621 0.03119 0.02887
v 0.05083 -0.00809 0.00809
v 0.04390 0.01270 0.03350
v 0.05545 0.03119 0.01502
v 0.04390 0.02887 0.00578
v 0.03928 0.00116 0.00809
v 0.05314 -0.00577 0.00578
v 0.05083 0.02887 0.03118
v 0.01386 -0.02655 -0.03350
v -0.04389 -0.01732 -0.03350
v -0.04158 -0.01963 -0.03119
v -0.00463 0.04736 -0.02888
v 0.00462 0.02656 -0.03812
v 0.00693 0.00117 -0.02426
v -0.03465 0.03811 -0.02657
v 0.00000 -0.04042 -0.03812
v -0.03696 -0.01963 -0.02657
v 0.00693 -0.03811 -0.02888
v -0.03465 0.04273 -0.03119
v 0.00693 0.03118 -0.02888
v -0.01617 0.03811 -0.03581
v 0.01386 -0.03580 -0.03812
v 0.00462 0.01732 -0.02426
v 0.00693 0.03348 -0.03581
v -0.00231 -0.04042 -0.03119
v -0.04158 -0.01039 -0.02657
v 0.00000 0.02656 -0.03812
v -0.00231 -0.00346 -0.02426
v -0.04389 -0.00808 -0.03350
v 0.01155 -0.04042 -0.03119
v -0.00463 0.04504 -0.03350
v -0.00694 0.01501 -0.02426
v -0.01155 0.04042 -0.02657
v -0.04389 -0.00808 -0.02888
v 0.01386 -0.02886 -0.03119
v 0.00231 -0.02425 -0.02657
v 0.00693 0.01501 -0.02426
v -0.01617 0.04736 -0.02888
v 0.00462 0.03811 -0.03581
v -0.01847 0.04504 -0.03350
v -0.04158 -0.01732 -0.02657
v -0.01847 -0.02425 -0.02657
v -0.00231 -0.03811 -0.02888
v 0.01155 -0.04042 -0.03812
v -0.00925 0.04042 -0.03581
v 0.01386 -0.03580 -0.03119
v -0.01847 0.03348 -0.03581
v -0.03465 0.04273 -0.02888
v -0.00231 -0.04042 -0.03581
v 0.01386 -0.03118 -0.03812
v -0.04158 -0.01963 -0.02888
v 0.00462 0.03811 -0.03119
v -0.01617 0.04736 -0.03119
v 0.00924 -0.03580 -0.02888
v 0.00462 0.02887 -0.02657
v -0.00463 0.03811 -0.02657
v 0.00462 -0.00346 -0.02426
v -0.00694 0.00347 -0.02426
v -0.04389 -0.01732 -0.02888
v 0.00692 0.06122 -0.01271
v -0.05543 -0.01963 -0.01502
v -0.05543 -0.01963 -0.00809
v 0.03695 -0.02656 -0.01040
v 0.00923 0.00348 -0.02426
v -0.00923 0.05197 -0.00116
v -0.04619 0.04504 -0.01733
v -0.00923 -0.03811 -0.00347
v -0.02078 -0.04042 -0.01963
v 0.03927 0.02655 -0.01502
v 0.00462 0.06122 -0.02194
v 0.03464 0.01731 -0.00578
v -0.04850 -0.00807 -0.01963
v -0.04619 -0.01038 -0.00347
v -0.04619 0.04504 -0.01040
v 0.00692 -0.00346 -0.00116
v -0.02540 0.04734 -0.02194
v -0.04619 -0.03811 -0.01040
v -0.00000 -0.04274 -0.01733
v 0.03464 -0.02425 -0.00578
v 0.03927 0.01500 -0.01733
v 0.02540 -0.02194 -0.01733
v 0.00462 0.05890 -0.00578
v -0.00463 0.00117 -0.02426
v -0.00463 -0.04274 -0.00578
v -0.05543 0.01731 -0.01502
v -0.00463 0.06122 -0.01040
v -0.01617 -0.00576 -0.00116
v -0.04619 0.03811 -0.00809
v -0.04388 -0.02194 -0.00347
v 0.00231 -0.03811 -0.01963
v 0.00923 0.02424 -0.02426
v -0.02309 -0.04274 -0.00578
v -0.04619 -0.03811 -0.01502
v -0.00232 0.04965 -0.00116
v -0.04619 -0.01963 -0.01963
v -0.05543 0.00117 -0.00809
v 0.03927 0.02655 -0.01733
v 0.03927 0.01963 -0.01040
v -0.02309 0.02194 -0.00116
v -0.03003 -0.04274 -0.01502
v -0.04388 0.03349 -0.01963
v -0.05543 0.00578 -0.01733
v -0.00463 0.06122 -0.01963
v 0.02309 0.01731 -0.00347
v -0.02540 0.05428 -0.01040
v -0.00232 0.02424 -0.02426
v 0.00231 -0.04274 -0.01040
v -0.05543 -0.01732 -0.01733
v -0.02078 -0.03811 -0.00347
v -0.00232 -0.01270 -0.00116
v 0.03695 -0.02656 -0.00809
v 0.03233 -0.02194 -0.01502
v -0.05081 0.03349 -0.01040
v -0.05312 -0.01963 -0.00578
v 0.00462 -0.00115 -0.02426
v -0.03233 0.02655 -0.00347
v -0.04388 0.04734 -0.01502
v -0.00000 0.06122 -0.02194
v -0.05081 0.03349 -0.01733
v -0.00232 0.06122 -0.00809
v 0.00692 0.01500 -0.00116
v 0.00692 0.06122 -0.01733
v -0.05312 -0.00807 -0.00578
v 0.01617 0.01270 0.02195
v -0.05543 -0.02887 0.00347
v -0.04850 -0.03811 0.00347
v -0.00232 0.04965 -0.00116
v 0.03233 -0.01963 0.00578
v -0.04157 0.06122 0.00809
v 0.03927 0.03118 0.01732
v -0.05312 -0.02425 0.01270
v 0.03464 -0.01501 0.01732
v -0.05543 0.02886 0.01270
v -0.00923 -0.04274 0.00347
v 0.03927 0.02886 0.00578
v 0.00231 0.06122 0.00809
v 0.01154 -0.01270 0.02195
v -0.05081 0.03349 0.00347
v -0.02771 -0.04274 0.01040
v -0.00693 0.01039 0.02195
v 0.00923 0.03118 0.01963
v 0.03927 0.00348 0.01963
v 0.00231 0.06122 0.00347
v -0.01154 0.04965 -0.00116
v 0.03695 -0.01732 0.01501
v -0.04157 0.06122 0.00578
v -0.00232 0.04273 -0.00116
v -0.01848 -0.04274 0.01040
v 0.03927 0.00809 0.00578
v -0.05543 0.03118 0.00578
v -0.00693 -0.00346 0.02195
v 0.01617 -0.01732 0.00347
v -0.04850 -0.04042 0.00809
v -0.05543 -0.02194 0.01270
v 0.03927 0.02424 0.01963
v -0.00232 0.01500 0.02195
v -0.03233 -0.04274 0.00347
v -0.05543 0.00809 0.00347
v -0.00923 -0.04274 0.00809
v 0.03464 -0.01963 0.00809
v 0.02772 0.02424 0.00347
v 0.03927 0.03118 0.00809
v 0.03927 -0.00807 0.01270
v -0.05081 0.03349 0.01270
v -0.04850 0.04042 0.00347
v 0.01386 -0.01270 0.02195
v -0.00923 0.04273 -0.00116
v -0.05543 -0.02887 0.01040
v 0.01847 -0.01270 0.00347
v -0.05081 0.04273 0.00809
v 0.01154 0.03118 0.01963
v 0.00231 0.02886 0.01963
v 0.03464 -0.01963 0.01270
v 0.03233 -0.01963 0.01501
v -0.00463 -0.00576 0.02195
v -0.02540 0.05890 0.00347
v 0.03927 -0.00807 0.01732
v 0.03695 -0.01732 0.01040
v -0.04619 -0.03580 0.01040
v -0.05081 -0.03811 0.00578
v -0.02540 -0.00808 0.03581
v 0.02310 0.03581 0.03350
v 0.02540 0.03349 0.03581
v 0.03003 -0.01501 0.02657
v 0.02772 0.01270 0.04505
v 0.03928 0.02425 0.02195
v -0.02309 0.02425 0.04043
v 0.00923 0.01270 0.02195
v -0.01616 -0.01732 0.03812
v 0.00232 0.03581 0.02888
v 0.03234 -0.01501 0.03350
v -0.02540 0.01501 0.03350
v 0.03928 0.02887 0.03350
v -0.02078 -0.01501 0.03350
v -0.02078 0.01039 0.04274
v -0.00923 0.02656 0.04274
v 0.03928 0.00809 0.02195
v 0.00923 0.00578 0.02195
v 0.03928 0.00578 0.03350
v 0.01155 0.03118 0.02426
v 0.00923 -0.01732 0.02888
v -0.02540 -0.00577 0.04043
v 0.03928 0.03118 0.02657
v 0.00232 0.03581 0.03581
v 0.02540 0.01732 0.04505
v 0.03465 -0.01501 0.02888
v 0.01848 0.03581 0.02657
v 0.00001 -0.01501 0.03812
v -0.02540 -0.00115 0.03350
v -0.02309 0.02425 0.03581
v -0.00230 0.02425 0.02657
v 0.00463 0.02656 0.04274
v 0.01617 -0.01501 0.02657
v 0.01848 -0.01732 0.03350
v -0.02540 0.01501 0.04043
v 0.03696 0.03118 0.03350
v 0.01617 0.03581 0.03581
v -0.01616 -0.01732 0.03350
v -0.02078 0.01501 0.04274
v 0.02310 0.01270 0.04505
v -0.00692 0.02656 0.02888
v 0.03003 0.01963 0.04274
v -0.02078 -0.01501 0.03812
v 0.02079 -0.01732 0.02888
v 0.01155 -0.01270 0.02657
v -0.01154 -0.01732 0.03812
v -0.02309 -0.01039 0.03350
v 0.03465 -0.01501 0.03119
v -0.01385 0.02887 0.03812
f 153 166 184 
f 123 122 126 
f 122 123 133 
f 125 123 134 
f 123 126 134 
f 126 122 141 
f 122 140 141 
f 135 129 143 
f 130 137 145 
f 140 130 145 
f 134 126 147 
f 134 147 148 
f 125 134 148 
f 147 127 148 
f 126 142 150 
f 142 132 150 
f 141 140 151 
f 140 145 151 
f 137 121 152 
f 137 130 154 
f 138 133 155 
f 125 139 155 
f 127 150 156 
f 121 137 158 
f 144 121 158 
f 146 129 158 
f 137 146 158 
f 136 152 159 
f 135 143 160 
f 148 127 160 
f 156 135 160 
f 127 156 160 
f 121 144 161 
f 152 121 161 
f 138 124 162 
f 154 130 162 
f 131 154 162 
f 145 136 163 
f 128 151 163 
f 151 145 163 
f 124 138 164 
f 153 131 164 
f 162 124 164 
f 131 162 164 
f 122 133 165 
f 133 138 165 
f 139 125 166 
f 125 143 166 
f 143 129 166 
f 153 139 166 
f 136 145 167 
f 145 137 167 
f 152 136 167 
f 137 152 167 
f 129 135 168 
f 135 156 168 
f 156 144 168 
f 144 158 168 
f 158 129 168 
f 123 125 169 
f 133 123 169 
f 125 155 169 
f 155 133 169 
f 139 153 170 
f 164 138 170 
f 153 164 170 
f 150 132 171 
f 144 156 171 
f 156 150 171 
f 161 144 171 
f 132 161 171 
f 157 128 172 
f 149 157 172 
f 136 159 172 
f 128 163 172 
f 163 136 172 
f 142 126 173 
f 126 157 173 
f 157 149 173 
f 140 122 174 
f 122 165 174 
f 138 155 175 
f 155 139 175 
f 139 170 175 
f 170 138 175 
f 126 150 176 
f 150 127 176 
f 143 125 177 
f 125 148 177 
f 160 143 177 
f 148 160 177 
f 132 142 178 
f 159 132 178 
f 149 172 178 
f 172 159 178 
f 142 173 178 
f 173 149 178 
f 132 159 179 
f 159 152 179 
f 161 132 179 
f 152 161 179 
f 131 146 180 
f 146 137 180 
f 154 131 180 
f 137 154 180 
f 130 140 181 
f 162 130 181 
f 138 162 181 
f 165 138 181 
f 140 174 181 
f 174 165 181 
f 126 141 182 
f 151 128 182 
f 141 151 182 
f 157 126 182 
f 128 157 182 
f 147 126 183 
f 127 147 183 
f 126 176 183 
f 176 127 183 
f 129 146 184 
f 146 131 184 
f 131 153 184 
f 166 129 184 
