# Original object name hint: convex_7
v 0.02771 -0.06122 0.01271
v -0.03464 -0.05891 -0.04274
v -0.03464 -0.05660 -0.04274
v -0.04851 -0.05429 0.00808
v -0.00232 -0.04274 -0.01502
v 0.03233 -0.06122 -0.03812
v -0.03695 -0.06353 0.00577
v -0.03234 -0.04274 0.00808
v -0.05544 -0.04967 -0.03580
v 0.00462 -0.05198 -0.04043
v 0.02541 -0.06353 -0.04043
v -0.02772 -0.06353 -0.03812
v 0.03465 -0.05891 0.00346
v -0.01155 -0.04274 0.00808
v -0.04851 -0.05891 -0.03812
v 0.03233 -0.06353 0.00577
v 0.03233 -0.05660 -0.03580
v -0.02310 -0.04274 -0.01732
v -0.04851 -0.05891 0.00577
v -0.03464 -0.06122 0.01039
v -0.02540 -0.04274 0.01039
v 0.03697 -0.06353 -0.03118
v 0.01848 -0.05660 -0.04274
v -0.05082 -0.04967 -0.00578
v 0.02309 -0.06353 0.01271
v -0.00232 -0.04274 -0.00809
v 0.02771 -0.05891 0.01271
v -0.02772 -0.06122 -0.04274
v 0.03697 -0.05891 -0.03350
v 0.02309 -0.05429 -0.03812
v -0.05544 -0.05198 -0.03350
v -0.00463 -0.04274 -0.01732
v -0.01616 -0.05429 -0.04274
v -0.04851 -0.05198 0.00808
v 0.03233 -0.05660 -0.02425
v 0.02079 -0.06122 -0.04274
v -0.03695 -0.05429 0.01039
v 0.02771 -0.05660 -0.04043
v -0.03464 -0.06353 0.00808
v 0.03233 -0.05891 0.00808
v -0.03695 -0.06353 -0.00116
v -0.04389 -0.06122 0.00577
v -0.02310 -0.06353 -0.04043
v 0.02079 -0.05891 0.01271
v -0.01847 -0.04274 0.01039
v -0.02540 -0.04274 -0.01502
v -0.05082 -0.05660 -0.00347
v -0.03003 -0.06353 -0.03350
v 0.03465 -0.06122 0.00346
v 0.03697 -0.05891 -0.02425
v -0.04389 -0.05429 -0.04043
v 0.01155 -0.05198 -0.03812
v 0.00924 -0.05429 -0.04274
v -0.04620 -0.05891 0.00808
v -0.04389 -0.04967 -0.03580
v -0.05544 -0.04967 -0.03350
v 0.06238 -0.01732 -0.04043
v 0.07162 0.02886 0.03350
v 0.06469 0.02886 0.03350
v 0.06469 0.05658 -0.02887
v 0.05545 0.00348 0.03119
v 0.07393 -0.02656 -0.00347
v 0.07393 0.03811 -0.03349
v 0.05545 0.03350 -0.02655
v 0.05545 -0.02656 -0.01270
v 0.07162 -0.02656 0.01731
v 0.07393 0.05428 0.00346
v 0.05545 0.02655 0.03119
v 0.06931 -0.03119 -0.03349
v 0.06238 -0.03580 0.00346
v 0.07393 0.01040 0.03119
v 0.06700 0.05891 0.00115
v 0.06469 0.01963 -0.04274
v 0.05776 -0.02888 -0.03349
v 0.07393 0.01500 -0.03811
v 0.05545 0.02195 -0.03349
v 0.05776 -0.02424 0.01501
v 0.06700 -0.03812 -0.01270
v 0.06238 -0.01963 0.02425
v 0.06931 0.05658 -0.02887
v 0.07162 0.00810 0.03350
v 0.06931 -0.00115 -0.04274
v 0.06469 0.05658 -0.00117
v 0.06007 -0.03580 -0.02655
v 0.06469 0.05198 -0.03349
v 0.05776 0.01963 -0.03811
v 0.06931 0.01963 -0.04274
v 0.07393 -0.02656 0.01039
v 0.07162 -0.03349 0.00115
v 0.07393 0.05428 -0.01270
v 0.07162 -0.02424 -0.02887
v 0.07162 0.05891 0.00115
v 0.05545 -0.02656 -0.00347
v 0.07393 0.03118 0.02887
v 0.06007 0.03811 -0.03581
v 0.06700 -0.03119 -0.03581
v 0.06931 0.05198 -0.03349
v 0.06007 -0.03580 -0.00347
v 0.06007 0.01269 0.03350
v 0.06931 -0.03580 0.00346
v 0.06238 -0.02888 0.01501
v 0.07162 -0.01963 0.02194
v 0.06700 -0.03580 -0.02887
v 0.05776 0.00579 -0.03811
v 0.06931 -0.02193 -0.03811
v 0.06238 0.03118 0.03119
v 0.06238 0.05198 -0.02887
v 0.05545 0.03350 -0.01963
v 0.07162 0.05891 -0.01039
v 0.07162 0.04042 0.02194
v 0.06238 -0.03812 -0.00808
v 0.06238 -0.03119 -0.03581
v 0.06700 -0.01963 0.02425
v 0.06469 -0.00115 -0.04274
v 0.07393 -0.02424 0.01501
v 0.07162 -0.03349 -0.00577
v 0.05776 -0.03119 0.00346
v 0.07162 0.02425 -0.04043
v 0.06007 0.00579 -0.04043
v 0.06700 0.05891 -0.01502
v -0.07162 -0.01732 -0.03581
v -0.05544 0.02888 0.01271
v -0.05544 0.03118 0.01039
v -0.07162 0.04735 0.00115
v -0.06006 0.06121 -0.03349
v -0.05544 -0.02888 0.00808
v -0.05776 -0.03118 -0.03581
v -0.06931 -0.02425 0.01039
v -0.06931 0.03118 -0.04505
v -0.07393 0.02194 0.00808
v -0.07162 0.05429 -0.03119
v -0.06699 -0.03812 -0.03349
v -0.06238 0.05429 0.00577
v -0.05544 0.01963 -0.01733
v -0.06469 -0.00346 -0.04505
v -0.07162 -0.02657 -0.01271
v -0.07393 0.01271 -0.02194
v -0.06931 0.05429 0.00577
v -0.06699 0.06353 -0.03349
v -0.06931 0.01963 0.01271
v -0.05544 -0.02194 0.01271
v -0.06006 -0.03812 -0.01963
v -0.06469 0.03118 -0.04505
v -0.06931 -0.01732 -0.04274
v -0.07393 0.00578 0.00808
v -0.07162 0.03349 -0.04043
v -0.05544 -0.01963 -0.01963
v -0.05776 -0.00346 -0.03581
v -0.06699 -0.03580 -0.01271
v -0.06006 -0.03812 -0.03581
v -0.06931 -0.01963 0.01271
v -0.07162 -0.02657 -0.03119
v -0.06931 0.06121 -0.03581
v -0.07393 0.02888 -0.01733
v -0.06238 0.06353 -0.02656
v -0.06238 -0.01963 -0.04274
v -0.06699 -0.02888 0.00808
v -0.07162 -0.00115 -0.04043
v -0.06931 -0.03580 -0.02194
v -0.06006 0.00116 -0.04043
v -0.06931 -0.03118 -0.03812
v -0.07393 0.02888 0.00577
v -0.07162 -0.01963 0.00577
v -0.07162 0.05429 -0.01733
v -0.06931 0.04735 0.00808
v -0.06469 0.05659 -0.03812
v -0.07393 0.00347 -0.01502
v -0.06931 -0.00346 -0.04505
v -0.06006 0.06121 -0.02888
v -0.06931 0.06121 -0.02425
v -0.06469 -0.03580 -0.03812
v -0.06931 -0.03349 -0.01041
v -0.06469 -0.03580 -0.01041
v -0.06699 0.02657 0.01271
v -0.06699 0.06353 -0.02656
v -0.05776 -0.03349 -0.03349
v -0.06006 0.04735 -0.03581
v -0.06699 -0.03812 -0.02194
v -0.06931 -0.03580 -0.03349
v -0.07393 0.02425 -0.02194
v -0.07162 0.02888 0.01039
v -0.06699 -0.02657 0.01039
v -0.05544 -0.02425 -0.01502
v -0.06931 0.05659 -0.03812
v 0.05545 0.02426 -0.01271
v 0.03928 0.01502 -0.01733
v 0.04159 0.01271 -0.01502
v 0.05545 0.01964 -0.02195
v 0.03928 0.02657 -0.01733
v 0.05083 0.01271 -0.01040
v 0.03928 0.02194 -0.01040
v 0.05314 0.02888 -0.02195
v 0.05545 0.02888 -0.01502
v 0.05545 0.01502 -0.01964
v 0.03928 0.01502 -0.01040
v 0.05083 0.02426 -0.01040
v 0.03928 0.02657 -0.01271
v 0.05545 0.01502 -0.01271
v 0.05545 0.02888 -0.02195
v 0.05314 0.01964 -0.02195
v 0.04390 -0.00346 0.00809
v 0.04159 0.02657 0.03350
v 0.03928 0.02657 0.03350
v 0.03928 0.02887 0.00578
v 0.05545 0.03119 0.01040
v 0.05545 0.00347 0.03118
v 0.05545 -0.00577 0.00578
v 0.03928 -0.00577 0.01733
v 0.05545 0.02657 0.03118
v 0.03928 0.01040 0.03350
v 0.03928 0.03119 0.03118
v 0.05545 -0.00809 0.01502
v 0.05545 0.02426 0.00578
v 0.03928 0.01040 0.00578
v 0.03928 0.03119 0.00809
v 0.03928 -0.00577 0.01271
v 0.03928 0.00578 0.03118
v 0.04621 0.03119 0.02887
v 0.05083 -0.00809 0.00809
v 0.04390 0.01270 0.03350
v 0.05545 0.03119 0.01502
v 0.04390 0.02887 0.00578
v 0.03928 0.00116 0.00809
v 0.05314 -0.00577 0.00578
v 0.05083 0.02887 0.03118
v 0.01386 -0.02655 -0.03350
v -0.04389 -0.01732 -0.03350
v -0.04158 -0.01963 -0.03119
v -0.00463 0.04736 -0.02888
v 0.00462 0.02656 -0.03812
v 0.00693 0.00117 -0.02426
v -0.03465 0.03811 -0.02657
v 0.00000 -0.04042 -0.03812
v -0.03696 -0.01963 -0.02657
v 0.00693 -0.03811 -0.02888
v -0.03465 0.04273 -0.03119
v 0.00693 0.03118 -0.02888
v -0.01617 0.03811 -0.03581
v 0.01386 -0.03580 -0.03812
v 0.00462 0.01732 -0.02426
v 0.00693 0.03348 -0.03581
v -0.00231 -0.04042 -0.03119
v -0.04158 -0.01039 -0.02657
v 0.00000 0.02656 -0.03812
v -0.00231 -0.00346 -0.02426
v -0.04389 -0.00808 -0.03350
v 0.01155 -0.04042 -0.03119
v -0.00463 0.04504 -0.03350
v -0.00694 0.01501 -0.02426
v -0.01155 0.04042 -0.02657
v -0.04389 -0.00808 -0.02888
v 0.01386 -0.02886 -0.03119
v 0.00231 -0.02425 -0.02657
v 0.00693 0.01501 -0.02426
v -0.01617 0.04736 -0.02888
v 0.00462 0.03811 -0.03581
v -0.01847 0.04504 -0.03350
v -0.04158 -0.01732 -0.02657
v -0.01847 -0.02425 -0.02657
v -0.00231 -0.03811 -0.02888
v 0.01155 -0.04042 -0.03812
v -0.00925 0.04042 -0.03581
v 0.01386 -0.03580 -0.03119
v -0.01847 0.03348 -0.03581
v -0.03465 0.04273 -0.02888
v -0.00231 -0.04042 -0.03581
v 0.01386 -0.03118 -0.03812
v -0.04158 -0.01963 -0.02888
v 0.00462 0.03811 -0.03119
v -0.01617 0.04736 -0.03119
v 0.00924 -0.03580 -0.02888
v 0.00462 0.02887 -0.02657
v -0.00463 0.03811 -0.02657
v 0.00462 -0.00346 -0.02426
v -0.00694 0.00347 -0.02426
v -0.04389 -0.01732 -0.02888
v 0.00692 0.06122 -0.01271
v -0.05543 -0.01963 -0.01502
v -0.05543 -0.01963 -0.00809
v 0.03695 -0.02656 -0.01040
v 0.00923 0.00348 -0.02426
v -0.00923 0.05197 -0.00116
v -0.04619 0.04504 -0.01733
v -0.00923 -0.03811 -0.00347
v -0.02078 -0.04042 -0.01963
v 0.03927 0.02655 -0.01502
v 0.00462 0.06122 -0.02194
v 0.03464 0.01731 -0.00578
v -0.04850 -0.00807 -0.01963
v -0.04619 -0.01038 -0.00347
v -0.04619 0.04504 -0.01040
v 0.00692 -0.00346 -0.00116
v -0.02540 0.04734 -0.02194
v -0.04619 -0.03811 -0.01040
v -0.00000 -0.04274 -0.01733
v 0.03464 -0.02425 -0.00578
v 0.03927 0.01500 -0.01733
v 0.02540 -0.02194 -0.01733
v 0.00462 0.05890 -0.00578
v -0.00463 0.00117 -0.02426
v -0.00463 -0.04274 -0.00578
v -0.05543 0.01731 -0.01502
v -0.00463 0.06122 -0.01040
v -0.01617 -0.00576 -0.00116
v -0.04619 0.03811 -0.00809
v -0.04388 -0.02194 -0.00347
v 0.00231 -0.03811 -0.01963
v 0.00923 0.02424 -0.02426
v -0.02309 -0.04274 -0.00578
v -0.04619 -0.03811 -0.01502
v -0.00232 0.04965 -0.00116
v -0.04619 -0.01963 -0.01963
v -0.05543 0.00117 -0.00809
v 0.03927 0.02655 -0.01733
v 0.03927 0.01963 -0.01040
v -0.02309 0.02194 -0.00116
v -0.03003 -0.04274 -0.01502
v -0.04388 0.03349 -0.01963
v -0.05543 0.00578 -0.01733
v -0.00463 0.06122 -0.01963
v 0.02309 0.01731 -0.00347
v -0.02540 0.05428 -0.01040
v -0.00232 0.02424 -0.02426
v 0.00231 -0.04274 -0.01040
v -0.05543 -0.01732 -0.01733
v -0.02078 -0.03811 -0.00347
v -0.00232 -0.01270 -0.00116
v 0.03695 -0.02656 -0.00809
v 0.03233 -0.02194 -0.01502
v -0.05081 0.03349 -0.01040
v -0.05312 -0.01963 -0.00578
v 0.00462 -0.00115 -0.02426
v -0.03233 0.02655 -0.00347
v -0.04388 0.04734 -0.01502
v -0.00000 0.06122 -0.02194
v -0.05081 0.03349 -0.01733
v -0.00232 0.06122 -0.00809
v 0.00692 0.01500 -0.00116
v 0.00692 0.06122 -0.01733
v -0.05312 -0.00807 -0.00578
v 0.01617 0.01270 0.02195
v -0.05543 -0.02887 0.00347
v -0.04850 -0.03811 0.00347
v -0.00232 0.04965 -0.00116
v 0.03233 -0.01963 0.00578
v -0.04157 0.06122 0.00809
v 0.03927 0.03118 0.01732
v -0.05312 -0.02425 0.01270
v 0.03464 -0.01501 0.01732
v -0.05543 0.02886 0.01270
v -0.00923 -0.04274 0.00347
v 0.03927 0.02886 0.00578
v 0.00231 0.06122 0.00809
v 0.01154 -0.01270 0.02195
v -0.05081 0.03349 0.00347
v -0.02771 -0.04274 0.01040
v -0.00693 0.01039 0.02195
v 0.00923 0.03118 0.01963
v 0.03927 0.00348 0.01963
v 0.00231 0.06122 0.00347
v -0.01154 0.04965 -0.00116
v 0.03695 -0.01732 0.01501
v -0.04157 0.06122 0.00578
v -0.00232 0.04273 -0.00116
v -0.01848 -0.04274 0.01040
v 0.03927 0.00809 0.00578
v -0.05543 0.03118 0.00578
v -0.00693 -0.00346 0.02195
v 0.01617 -0.01732 0.00347
v -0.04850 -0.04042 0.00809
v -0.05543 -0.02194 0.01270
v 0.03927 0.02424 0.01963
v -0.00232 0.01500 0.02195
v -0.03233 -0.04274 0.00347
v -0.05543 0.00809 0.00347
v -0.00923 -0.04274 0.00809
v 0.03464 -0.01963 0.00809
v 0.02772 0.02424 0.00347
v 0.03927 0.03118 0.00809
v 0.03927 -0.00807 0.01270
v -0.05081 0.03349 0.01270
v -0.04850 0.04042 0.00347
v 0.01386 -0.01270 0.02195
v -0.00923 0.04273 -0.00116
v -0.05543 -0.02887 0.01040
v 0.01847 -0.01270 0.00347
v -0.05081 0.04273 0.00809
v 0.01154 0.03118 0.01963
v 0.00231 0.02886 0.01963
v 0.03464 -0.01963 0.01270
v 0.03233 -0.01963 0.01501
v -0.00463 -0.00576 0.02195
v -0.02540 0.05890 0.00347
v 0.03927 -0.00807 0.01732
v 0.03695 -0.01732 0.01040
v -0.04619 -0.03580 0.01040
v -0.05081 -0.03811 0.00578
v -0.02540 -0.00808 0.03581
v 0.02310 0.03581 0.03350
v 0.02540 0.03349 0.03581
v 0.03003 -0.01501 0.02657
v 0.02772 0.01270 0.04505
v 0.03928 0.02425 0.02195
v -0.02309 0.02425 0.04043
v 0.00923 0.01270 0.02195
v -0.01616 -0.01732 0.03812
v 0.00232 0.03581 0.02888
v 0.03234 -0.01501 0.03350
v -0.02540 0.01501 0.03350
v 0.03928 0.02887 0.03350
v -0.02078 -0.01501 0.03350
v -0.02078 0.01039 0.04274
v -0.00923 0.02656 0.04274
v 0.03928 0.00809 0.02195
v 0.00923 0.00578 0.02195
v 0.03928 0.00578 0.03350
v 0.01155 0.03118 0.02426
v 0.00923 -0.01732 0.02888
v -0.02540 -0.00577 0.04043
v 0.03928 0.03118 0.02657
v 0.00232 0.03581 0.03581
v 0.02540 0.01732 0.04505
v 0.03465 -0.01501 0.02888
v 0.01848 0.03581 0.02657
v 0.00001 -0.01501 0.03812
v -0.02540 -0.00115 0.03350
v -0.02309 0.02425 0.03581
v -0.00230 0.02425 0.02657
v 0.00463 0.02656 0.04274
v 0.01617 -0.01501 0.02657
v 0.01848 -0.01732 0.03350
v -0.02540 0.01501 0.04043
v 0.03696 0.03118 0.03350
v 0.01617 0.03581 0.03581
v -0.01616 -0.01732 0.03350
v -0.02078 0.01501 0.04274
v 0.02310 0.01270 0.04505
v -0.00692 0.02656 0.02888
v 0.03003 0.01963 0.04274
v -0.02078 -0.01501 0.03812
v 0.02079 -0.01732 0.02888
v 0.01155 -0.01270 0.02657
v -0.01154 -0.01732 0.03812
v -0.02309 -0.01039 0.03350
v 0.03465 -0.01501 0.03119
v -0.01385 0.02887 0.03812
f 370 385 397 
f 354 348 356 
f 354 341 357 
f 353 346 358 
f 352 347 359 
f 352 344 360 
f 346 353 360 
f 353 347 360 
f 360 344 361 
f 346 360 363 
f 361 344 364 
f 356 351 365 
f 354 356 365 
f 352 359 366 
f 342 350 367 
f 357 350 368 
f 354 357 368 
f 345 351 369 
f 351 364 369 
f 350 342 371 
f 348 368 371 
f 368 350 371 
f 341 359 372 
f 359 347 372 
f 357 341 373 
f 351 356 374 
f 364 351 374 
f 370 343 374 
f 356 370 374 
f 361 342 375 
f 355 361 375 
f 342 367 375 
f 367 355 375 
f 365 351 376 
f 351 345 377 
f 345 366 377 
f 376 351 377 
f 344 352 378 
f 364 344 378 
f 352 366 378 
f 366 345 378 
f 347 352 379 
f 352 360 379 
f 360 347 379 
f 366 359 380 
f 346 350 381 
f 350 357 381 
f 373 346 381 
f 357 373 381 
f 361 355 382 
f 363 361 382 
f 355 367 382 
f 367 363 382 
f 341 354 383 
f 359 341 383 
f 349 359 383 
f 365 349 383 
f 354 365 383 
f 343 342 384 
f 342 361 384 
f 361 364 384 
f 374 343 384 
f 364 374 384 
f 370 348 385 
f 371 342 385 
f 348 371 385 
f 345 369 386 
f 369 364 386 
f 364 378 386 
f 378 345 386 
f 350 346 387 
f 346 363 387 
f 367 350 387 
f 363 367 387 
f 347 353 388 
f 353 358 388 
f 341 372 388 
f 372 347 388 
f 373 341 388 
f 358 373 388 
f 358 346 389 
f 346 373 389 
f 373 358 389 
f 377 362 390 
f 376 377 390 
f 362 349 391 
f 349 365 391 
f 365 376 391 
f 390 362 391 
f 376 390 391 
f 348 354 392 
f 368 348 392 
f 354 368 392 
f 360 361 393 
f 363 360 393 
f 361 363 393 
f 359 349 394 
f 349 362 394 
f 380 359 394 
f 362 380 394 
f 377 366 395 
f 362 377 395 
f 380 362 395 
f 366 380 395 
f 356 348 396 
f 348 370 396 
f 370 356 396 
f 342 343 397 
f 343 370 397 
f 385 342 397 
