# Original object name hint: convex_6
v 0.02771 -0.06122 0.01271
v -0.03464 -0.05891 -0.04274
v -0.03464 -0.05660 -0.04274
v -0.04851 -0.05429 0.00808
v -0.00232 -0.04274 -0.01502
v 0.03233 -0.06122 -0.03812
v -0.03695 -0.06353 0.00577
v -0.03234 -0.04274 0.00808
v -0.05544 -0.04967 -0.03580
v 0.00462 -0.05198 -0.04043
v 0.02541 -0.06353 -0.04043
v -0.02772 -0.06353 -0.03812
v 0.03465 -0.05891 0.00346
v -0.01155 -0.04274 0.00808
v -0.04851 -0.05891 -0.03812
v 0.03233 -0.06353 0.00577
v 0.03233 -0.05660 -0.03580
v -0.02310 -0.04274 -0.01732
v -0.04851 -0.05891 0.00577
v -0.03464 -0.06122 0.01039
v -0.02540 -0.04274 0.01039
v 0.03697 -0.06353 -0.03118
v 0.01848 -0.05660 -0.04274
v -0.05082 -0.04967 -0.00578
v 0.02309 -0.06353 0.01271
v -0.00232 -0.04274 -0.00809
v 0.02771 -0.05891 0.01271
v -0.02772 -0.06122 -0.04274
v 0.03697 -0.05891 -0.03350
v 0.02309 -0.05429 -0.03812
v -0.05544 -0.05198 -0.03350
v -0.00463 -0.04274 -0.01732
v -0.01616 -0.05429 -0.04274
v -0.04851 -0.05198 0.00808
v 0.03233 -0.05660 -0.02425
v 0.02079 -0.06122 -0.04274
v -0.03695 -0.05429 0.01039
v 0.02771 -0.05660 -0.04043
v -0.03464 -0.06353 0.00808
v 0.03233 -0.05891 0.00808
v -0.03695 -0.06353 -0.00116
v -0.04389 -0.06122 0.00577
v -0.02310 -0.06353 -0.04043
v 0.02079 -0.05891 0.01271
v -0.01847 -0.04274 0.01039
v -0.02540 -0.04274 -0.01502
v -0.05082 -0.05660 -0.00347
v -0.03003 -0.06353 -0.03350
v 0.03465 -0.06122 0.00346
v 0.03697 -0.05891 -0.02425
v -0.04389 -0.05429 -0.04043
v 0.01155 -0.05198 -0.03812
v 0.00924 -0.05429 -0.04274
v -0.04620 -0.05891 0.00808
v -0.04389 -0.04967 -0.03580
v -0.05544 -0.04967 -0.03350
v 0.06238 -0.01732 -0.04043
v 0.07162 0.02886 0.03350
v 0.06469 0.02886 0.03350
v 0.06469 0.05658 -0.02887
v 0.05545 0.00348 0.03119
v 0.07393 -0.02656 -0.00347
v 0.07393 0.03811 -0.03349
v 0.05545 0.03350 -0.02655
v 0.05545 -0.02656 -0.01270
v 0.07162 -0.02656 0.01731
v 0.07393 0.05428 0.00346
v 0.05545 0.02655 0.03119
v 0.06931 -0.03119 -0.03349
v 0.06238 -0.03580 0.00346
v 0.07393 0.01040 0.03119
v 0.06700 0.05891 0.00115
v 0.06469 0.01963 -0.04274
v 0.05776 -0.02888 -0.03349
v 0.07393 0.01500 -0.03811
v 0.05545 0.02195 -0.03349
v 0.05776 -0.02424 0.01501
v 0.06700 -0.03812 -0.01270
v 0.06238 -0.01963 0.02425
v 0.06931 0.05658 -0.02887
v 0.07162 0.00810 0.03350
v 0.06931 -0.00115 -0.04274
v 0.06469 0.05658 -0.00117
v 0.06007 -0.03580 -0.02655
v 0.06469 0.05198 -0.03349
v 0.05776 0.01963 -0.03811
v 0.06931 0.01963 -0.04274
v 0.07393 -0.02656 0.01039
v 0.07162 -0.03349 0.00115
v 0.07393 0.05428 -0.01270
v 0.07162 -0.02424 -0.02887
v 0.07162 0.05891 0.00115
v 0.05545 -0.02656 -0.00347
v 0.07393 0.03118 0.02887
v 0.06007 0.03811 -0.03581
v 0.06700 -0.03119 -0.03581
v 0.06931 0.05198 -0.03349
v 0.06007 -0.03580 -0.00347
v 0.06007 0.01269 0.03350
v 0.06931 -0.03580 0.00346
v 0.06238 -0.02888 0.01501
v 0.07162 -0.01963 0.02194
v 0.06700 -0.03580 -0.02887
v 0.05776 0.00579 -0.03811
v 0.06931 -0.02193 -0.03811
v 0.06238 0.03118 0.03119
v 0.06238 0.05198 -0.02887
v 0.05545 0.03350 -0.01963
v 0.07162 0.05891 -0.01039
v 0.07162 0.04042 0.02194
v 0.06238 -0.03812 -0.00808
v 0.06238 -0.03119 -0.03581
v 0.06700 -0.01963 0.02425
v 0.06469 -0.00115 -0.04274
v 0.07393 -0.02424 0.01501
v 0.07162 -0.03349 -0.00577
v 0.05776 -0.03119 0.00346
v 0.07162 0.02425 -0.04043
v 0.06007 0.00579 -0.04043
v 0.06700 0.05891 -0.01502
v -0.07162 -0.01732 -0.03581
v -0.05544 0.02888 0.01271
v -0.05544 0.03118 0.01039
v -0.07162 0.04735 0.00115
v -0.06006 0.06121 -0.03349
v -0.05544 -0.02888 0.00808
v -0.05776 -0.03118 -0.03581
v -0.06931 -0.02425 0.01039
v -0.06931 0.03118 -0.04505
v -0.07393 0.02194 0.00808
v -0.07162 0.05429 -0.03119
v -0.06699 -0.03812 -0.03349
v -0.06238 0.05429 0.00577
v -0.05544 0.01963 -0.01733
v -0.06469 -0.00346 -0.04505
v -0.07162 -0.02657 -0.01271
v -0.07393 0.01271 -0.02194
v -0.06931 0.05429 0.00577
v -0.06699 0.06353 -0.03349
v -0.06931 0.01963 0.01271
v -0.05544 -0.02194 0.01271
v -0.06006 -0.03812 -0.01963
v -0.06469 0.03118 -0.04505
v -0.06931 -0.01732 -0.04274
v -0.07393 0.00578 0.00808
v -0.07162 0.03349 -0.04043
v -0.05544 -0.01963 -0.01963
v -0.05776 -0.00346 -0.03581
v -0.06699 -0.03580 -0.01271
v -0.06006 -0.03812 -0.03581
v -0.06931 -0.01963 0.01271
v -0.07162 -0.02657 -0.03119
v -0.06931 0.06121 -0.03581
v -0.07393 0.02888 -0.01733
v -0.06238 0.06353 -0.02656
v -0.06238 -0.01963 -0.04274
v -0.06699 -0.02888 0.00808
v -0.07162 -0.00115 -0.04043
v -0.06931 -0.03580 -0.02194
v -0.06006 0.00116 -0.04043
v -0.06931 -0.03118 -0.03812
v -0.07393 0.02888 0.00577
v -0.07162 -0.01963 0.00577
v -0.07162 0.05429 -0.01733
v -0.06931 0.04735 0.00808
v -0.06469 0.05659 -0.03812
v -0.07393 0.00347 -0.01502
v -0.06931 -0.00346 -0.04505
v -0.06006 0.06121 -0.02888
v -0.06931 0.06121 -0.02425
v -0.06469 -0.03580 -0.03812
v -0.06931 -0.03349 -0.01041
v -0.06469 -0.03580 -0.01041
v -0.06699 0.02657 0.01271
v -0.06699 0.06353 -0.02656
v -0.05776 -0.03349 -0.03349
v -0.06006 0.04735 -0.03581
v -0.06699 -0.03812 -0.02194
v -0.06931 -0.03580 -0.03349
v -0.07393 0.02425 -0.02194
v -0.07162 0.02888 0.01039
v -0.06699 -0.02657 0.01039
v -0.05544 -0.02425 -0.01502
v -0.06931 0.05659 -0.03812
v 0.05545 0.02426 -0.01271
v 0.03928 0.01502 -0.01733
v 0.04159 0.01271 -0.01502
v 0.05545 0.01964 -0.02195
v 0.03928 0.02657 -0.01733
v 0.05083 0.01271 -0.01040
v 0.03928 0.02194 -0.01040
v 0.05314 0.02888 -0.02195
v 0.05545 0.02888 -0.01502
v 0.05545 0.01502 -0.01964
v 0.03928 0.01502 -0.01040
v 0.05083 0.02426 -0.01040
v 0.03928 0.02657 -0.01271
v 0.05545 0.01502 -0.01271
v 0.05545 0.02888 -0.02195
v 0.05314 0.01964 -0.02195
v 0.04390 -0.00346 0.00809
v 0.04159 0.02657 0.03350
v 0.03928 0.02657 0.03350
v 0.03928 0.02887 0.00578
v 0.05545 0.03119 0.01040
v 0.05545 0.00347 0.03118
v 0.05545 -0.00577 0.00578
v 0.03928 -0.00577 0.01733
v 0.05545 0.02657 0.03118
v 0.03928 0.01040 0.03350
v 0.03928 0.03119 0.03118
v 0.05545 -0.00809 0.01502
v 0.05545 0.02426 0.00578
v 0.03928 0.01040 0.00578
v 0.03928 0.03119 0.00809
v 0.03928 -0.00577 0.01271
v 0.03928 0.00578 0.03118
v 0.04621 0.03119 0.02887
v 0.05083 -0.00809 0.00809
v 0.04390 0.01270 0.03350
v 0.05545 0.03119 0.01502
v 0.04390 0.02887 0.00578
v 0.03928 0.00116 0.00809
v 0.05314 -0.00577 0.00578
v 0.05083 0.02887 0.03118
v 0.01386 -0.02655 -0.03350
v -0.04389 -0.01732 -0.03350
v -0.04158 -0.01963 -0.03119
v -0.00463 0.04736 -0.02888
v 0.00462 0.02656 -0.03812
v 0.00693 0.00117 -0.02426
v -0.03465 0.03811 -0.02657
v 0.00000 -0.04042 -0.03812
v -0.03696 -0.01963 -0.02657
v 0.00693 -0.03811 -0.02888
v -0.03465 0.04273 -0.03119
v 0.00693 0.03118 -0.02888
v -0.01617 0.03811 -0.03581
v 0.01386 -0.03580 -0.03812
v 0.00462 0.01732 -0.02426
v 0.00693 0.03348 -0.03581
v -0.00231 -0.04042 -0.03119
v -0.04158 -0.01039 -0.02657
v 0.00000 0.02656 -0.03812
v -0.00231 -0.00346 -0.02426
v -0.04389 -0.00808 -0.03350
v 0.01155 -0.04042 -0.03119
v -0.00463 0.04504 -0.03350
v -0.00694 0.01501 -0.02426
v -0.01155 0.04042 -0.02657
v -0.04389 -0.00808 -0.02888
v 0.01386 -0.02886 -0.03119
v 0.00231 -0.02425 -0.02657
v 0.00693 0.01501 -0.02426
v -0.01617 0.04736 -0.02888
v 0.00462 0.03811 -0.03581
v -0.01847 0.04504 -0.03350
v -0.04158 -0.01732 -0.02657
v -0.01847 -0.02425 -0.02657
v -0.00231 -0.03811 -0.02888
v 0.01155 -0.04042 -0.03812
v -0.00925 0.04042 -0.03581
v 0.01386 -0.03580 -0.03119
v -0.01847 0.03348 -0.03581
v -0.03465 0.04273 -0.02888
v -0.00231 -0.04042 -0.03581
v 0.01386 -0.03118 -0.03812
v -0.04158 -0.01963 -0.02888
v 0.00462 0.03811 -0.03119
v -0.01617 0.04736 -0.03119
v 0.00924 -0.03580 -0.02888
v 0.00462 0.02887 -0.02657
v -0.00463 0.03811 -0.02657
v 0.00462 -0.00346 -0.02426
v -0.00694 0.00347 -0.02426
v -0.04389 -0.01732 -0.02888
v 0.00692 0.06122 -0.01271
v -0.05543 -0.01963 -0.01502
v -0.05543 -0.01963 -0.00809
v 0.03695 -0.02656 -0.01040
v 0.00923 0.00348 -0.02426
v -0.00923 0.05197 -0.00116
v -0.04619 0.04504 -0.01733
v -0.00923 -0.03811 -0.00347
v -0.02078 -0.04042 -0.01963
v 0.03927 0.02655 -0.01502
v 0.00462 0.06122 -0.02194
v 0.03464 0.01731 -0.00578
v -0.04850 -0.00807 -0.01963
v -0.04619 -0.01038 -0.00347
v -0.04619 0.04504 -0.01040
v 0.00692 -0.00346 -0.00116
v -0.02540 0.04734 -0.02194
v -0.04619 -0.03811 -0.01040
v -0.00000 -0.04274 -0.01733
v 0.03464 -0.02425 -0.00578
v 0.03927 0.01500 -0.01733
v 0.02540 -0.02194 -0.01733
v 0.00462 0.05890 -0.00578
v -0.00463 0.00117 -0.02426
v -0.00463 -0.04274 -0.00578
v -0.05543 0.01731 -0.01502
v -0.00463 0.06122 -0.01040
v -0.01617 -0.00576 -0.00116
v -0.04619 0.03811 -0.00809
v -0.04388 -0.02194 -0.00347
v 0.00231 -0.03811 -0.01963
v 0.00923 0.02424 -0.02426
v -0.02309 -0.04274 -0.00578
v -0.04619 -0.03811 -0.01502
v -0.00232 0.04965 -0.00116
v -0.04619 -0.01963 -0.01963
v -0.05543 0.00117 -0.00809
v 0.03927 0.02655 -0.01733
v 0.03927 0.01963 -0.01040
v -0.02309 0.02194 -0.00116
v -0.03003 -0.04274 -0.01502
v -0.04388 0.03349 -0.01963
v -0.05543 0.00578 -0.01733
v -0.00463 0.06122 -0.01963
v 0.02309 0.01731 -0.00347
v -0.02540 0.05428 -0.01040
v -0.00232 0.02424 -0.02426
v 0.00231 -0.04274 -0.01040
v -0.05543 -0.01732 -0.01733
v -0.02078 -0.03811 -0.00347
v -0.00232 -0.01270 -0.00116
v 0.03695 -0.02656 -0.00809
v 0.03233 -0.02194 -0.01502
v -0.05081 0.03349 -0.01040
v -0.05312 -0.01963 -0.00578
v 0.00462 -0.00115 -0.02426
v -0.03233 0.02655 -0.00347
v -0.04388 0.04734 -0.01502
v -0.00000 0.06122 -0.02194
v -0.05081 0.03349 -0.01733
v -0.00232 0.06122 -0.00809
v 0.00692 0.01500 -0.00116
v 0.00692 0.06122 -0.01733
v -0.05312 -0.00807 -0.00578
v 0.01617 0.01270 0.02195
v -0.05543 -0.02887 0.00347
v -0.04850 -0.03811 0.00347
v -0.00232 0.04965 -0.00116
v 0.03233 -0.01963 0.00578
v -0.04157 0.06122 0.00809
v 0.03927 0.03118 0.01732
v -0.05312 -0.02425 0.01270
v 0.03464 -0.01501 0.01732
v -0.05543 0.02886 0.01270
v -0.00923 -0.04274 0.00347
v 0.03927 0.02886 0.00578
v 0.00231 0.06122 0.00809
v 0.01154 -0.01270 0.02195
v -0.05081 0.03349 0.00347
v -0.02771 -0.04274 0.01040
v -0.00693 0.01039 0.02195
v 0.00923 0.03118 0.01963
v 0.03927 0.00348 0.01963
v 0.00231 0.06122 0.00347
v -0.01154 0.04965 -0.00116
v 0.03695 -0.01732 0.01501
v -0.04157 0.06122 0.00578
v -0.00232 0.04273 -0.00116
v -0.01848 -0.04274 0.01040
v 0.03927 0.00809 0.00578
v -0.05543 0.03118 0.00578
v -0.00693 -0.00346 0.02195
v 0.01617 -0.01732 0.00347
v -0.04850 -0.04042 0.00809
v -0.05543 -0.02194 0.01270
v 0.03927 0.02424 0.01963
v -0.00232 0.01500 0.02195
v -0.03233 -0.04274 0.00347
v -0.05543 0.00809 0.00347
v -0.00923 -0.04274 0.00809
v 0.03464 -0.01963 0.00809
v 0.02772 0.02424 0.00347
v 0.03927 0.03118 0.00809
v 0.03927 -0.00807 0.01270
v -0.05081 0.03349 0.01270
v -0.04850 0.04042 0.00347
v 0.01386 -0.01270 0.02195
v -0.00923 0.04273 -0.00116
v -0.05543 -0.02887 0.01040
v 0.01847 -0.01270 0.00347
v -0.05081 0.04273 0.00809
v 0.01154 0.03118 0.01963
v 0.00231 0.02886 0.01963
v 0.03464 -0.01963 0.01270
v 0.03233 -0.01963 0.01501
v -0.00463 -0.00576 0.02195
v -0.02540 0.05890 0.00347
v 0.03927 -0.00807 0.01732
v 0.03695 -0.01732 0.01040
v -0.04619 -0.03580 0.01040
v -0.05081 -0.03811 0.00578
v -0.02540 -0.00808 0.03581
v 0.02310 0.03581 0.03350
v 0.02540 0.03349 0.03581
v 0.03003 -0.01501 0.02657
v 0.02772 0.01270 0.04505
v 0.03928 0.02425 0.02195
v -0.02309 0.02425 0.04043
v 0.00923 0.01270 0.02195
v -0.01616 -0.01732 0.03812
v 0.00232 0.03581 0.02888
v 0.03234 -0.01501 0.03350
v -0.02540 0.01501 0.03350
v 0.03928 0.02887 0.03350
v -0.02078 -0.01501 0.03350
v -0.02078 0.01039 0.04274
v -0.00923 0.02656 0.04274
v 0.03928 0.00809 0.02195
v 0.00923 0.00578 0.02195
v 0.03928 0.00578 0.03350
v 0.01155 0.03118 0.02426
v 0.00923 -0.01732 0.02888
v -0.02540 -0.00577 0.04043
v 0.03928 0.03118 0.02657
v 0.00232 0.03581 0.03581
v 0.02540 0.01732 0.04505
v 0.03465 -0.01501 0.02888
v 0.01848 0.03581 0.02657
v 0.00001 -0.01501 0.03812
v -0.02540 -0.00115 0.03350
v -0.02309 0.02425 0.03581
v -0.00230 0.02425 0.02657
v 0.00463 0.02656 0.04274
v 0.01617 -0.01501 0.02657
v 0.01848 -0.01732 0.03350
v -0.02540 0.01501 0.04043
v 0.03696 0.03118 0.03350
v 0.01617 0.03581 0.03581
v -0.01616 -0.01732 0.03350
v -0.02078 0.01501 0.04274
v 0.02310 0.01270 0.04505
v -0.00692 0.02656 0.02888
v 0.03003 0.01963 0.04274
v -0.02078 -0.01501 0.03812
v 0.02079 -0.01732 0.02888
v 0.01155 -0.01270 0.02657
v -0.01154 -0.01732 0.03812
v -0.02309 -0.01039 0.03350
v 0.03465 -0.01501 0.03119
v -0.01385 0.02887 0.03812
f 313 331 340 
f 279 278 294 
f 281 297 298 
f 286 277 299 
f 289 293 300 
f 296 284 301 
f 278 279 302 
f 277 287 303 
f 292 282 304 
f 282 291 305 
f 280 295 307 
f 295 285 307 
f 281 298 307 
f 297 281 308 
f 281 300 308 
f 301 284 309 
f 295 301 309 
f 306 294 309 
f 294 278 310 
f 282 292 311 
f 299 282 311 
f 288 299 311 
f 300 285 312 
f 289 300 312 
f 285 310 312 
f 302 279 313 
f 277 286 314 
f 286 297 314 
f 308 287 314 
f 297 308 314 
f 288 296 315 
f 297 286 315 
f 286 299 315 
f 299 288 315 
f 304 282 316 
f 290 306 316 
f 306 304 316 
f 285 295 317 
f 309 294 317 
f 295 309 317 
f 310 285 317 
f 294 310 317 
f 283 293 318 
f 293 289 318 
f 278 302 319 
f 318 289 319 
f 303 287 320 
f 296 288 321 
f 292 296 321 
f 288 311 321 
f 291 282 322 
f 303 320 322 
f 300 293 323 
f 287 308 323 
f 308 300 323 
f 295 280 324 
f 301 295 324 
f 310 278 325 
f 289 312 325 
f 312 310 325 
f 278 319 325 
f 319 289 325 
f 304 306 326 
f 309 284 326 
f 306 309 326 
f 284 296 327 
f 296 292 327 
f 292 304 327 
f 326 284 327 
f 304 326 327 
f 280 297 328 
f 296 301 328 
f 315 296 328 
f 297 315 328 
f 324 280 328 
f 301 324 328 
f 297 280 329 
f 298 297 329 
f 280 307 329 
f 307 298 329 
f 291 283 330 
f 305 291 330 
f 302 313 330 
f 313 305 330 
f 279 294 331 
f 306 290 331 
f 294 306 331 
f 313 279 331 
f 300 281 332 
f 285 300 332 
f 307 285 332 
f 281 307 332 
f 305 290 333 
f 282 305 333 
f 316 282 333 
f 290 316 333 
f 283 291 334 
f 320 283 334 
f 291 322 334 
f 322 320 334 
f 293 283 335 
f 283 320 335 
f 320 287 335 
f 287 323 335 
f 323 293 335 
f 283 318 336 
f 319 302 336 
f 318 319 336 
f 330 283 336 
f 302 330 336 
f 299 277 337 
f 282 299 337 
f 277 303 337 
f 322 282 337 
f 303 322 337 
f 311 292 338 
f 292 321 338 
f 321 311 338 
f 287 277 339 
f 277 314 339 
f 314 287 339 
f 290 305 340 
f 305 313 340 
f 331 290 340 
