# Original object name hint: convex_6
v -0.07106 -0.00229 -0.03438
v -0.05960 0.02520 0.02292
v -0.05960 0.03209 0.02062
v -0.07336 0.04125 0.01603
v -0.06648 0.06419 -0.02521
v -0.05960 -0.02522 0.01374
v -0.07336 -0.01374 0.01833
v -0.06189 -0.01605 -0.02750
v -0.07336 0.03437 -0.03438
v -0.06419 0.02520 -0.04126
v -0.06877 -0.02292 -0.02521
v -0.06648 0.04814 0.01833
v -0.07106 -0.01146 0.02292
v -0.07106 0.05959 -0.01834
v -0.07336 -0.00229 -0.02521
v -0.05960 -0.01605 0.02292
v -0.06877 -0.02292 0.01833
v -0.06877 0.00688 -0.04126
v -0.05960 0.02978 0.01374
v -0.07106 0.01605 0.02292
v -0.07106 0.02750 -0.04126
v -0.07336 0.05042 -0.02521
v -0.06419 0.05042 -0.02521
v -0.06877 -0.02522 -0.00230
v -0.07106 0.04814 0.01603
v -0.07336 0.00688 -0.03438
v -0.06419 -0.02292 -0.02292
v -0.06648 0.06419 -0.02063
v -0.07336 -0.01374 0.00228
v -0.06877 0.06419 -0.02521
v -0.06648 0.03209 -0.04126
v -0.06419 -0.01834 -0.02980
v -0.06419 0.00460 -0.03897
v -0.06419 0.04584 0.01833
v -0.06189 -0.00457 -0.02750
v -0.06419 -0.02522 0.01833
v -0.07106 0.03437 0.02062
v -0.06419 0.03209 -0.03897
v -0.07106 -0.01834 -0.01834
v -0.06877 0.06419 -0.02063
v -0.07106 0.01147 -0.04126
v -0.07106 0.03437 -0.03897
v -0.07336 0.03437 0.01833
v -0.07106 -0.02063 0.01603
v -0.07106 -0.02063 -0.00689
v -0.06877 0.02520 0.02292
v -0.07336 0.04354 0.01374
v -0.05960 -0.02292 0.02062
v -0.06877 -0.01605 0.02292
v -0.07106 0.05959 -0.02521
v -0.06877 -0.02063 -0.02750
v -0.06419 -0.02522 -0.00230
v -0.07106 0.04584 0.01833
v -0.06877 -0.02522 0.00916
v -0.06648 0.00688 -0.04126
v -0.05960 0.03209 0.01603
v -0.07106 0.00460 -0.03897
v -0.07106 -0.01834 0.02062
v -0.06877 0.04814 0.01833
v -0.06877 0.03209 -0.04126
v 0.06190 -0.02980 -0.01834
v 0.06877 0.05502 0.01375
v 0.06648 0.05502 0.01375
v 0.06190 0.04354 -0.02521
v 0.05502 -0.02292 0.01375
v 0.07107 -0.02063 0.01375
v 0.07107 0.02521 -0.02063
v 0.05731 0.03208 -0.02292
v 0.06648 -0.01833 -0.02521
v 0.07336 0.04354 0.00687
v 0.05731 -0.02063 -0.02063
v 0.05960 0.02980 0.01375
v 0.06190 0.00689 -0.02980
v 0.06648 -0.03209 0.01375
v 0.06877 0.04125 -0.02292
v 0.06877 -0.02751 -0.00459
v 0.06648 0.02749 -0.02980
v 0.07336 0.01375 0.01375
v 0.05731 -0.02980 0.00228
v 0.05960 -0.02521 -0.02521
v 0.07336 0.02292 -0.00001
v 0.05731 0.01375 0.01375
v 0.05731 0.02980 -0.02521
v 0.05502 -0.02292 0.00458
v 0.07107 -0.01833 0.00458
v 0.06648 -0.02521 -0.02292
v 0.05731 0.03208 -0.01604
v 0.05960 -0.03209 0.01375
v 0.05502 -0.01374 0.01375
v 0.07107 0.02062 -0.02063
v 0.07336 0.04354 0.01375
v 0.06877 0.01146 -0.02751
v 0.06648 -0.03209 -0.00230
v 0.06877 0.05502 0.00916
v 0.06190 0.04584 -0.02063
v 0.06648 0.04354 -0.02521
v 0.06190 0.02749 -0.02980
v 0.06190 0.04125 0.01375
v 0.06648 -0.00916 -0.02751
v 0.05731 0.01375 -0.02521
v 0.06877 0.03208 -0.02751
v 0.05960 -0.03209 -0.00001
v 0.06877 -0.02980 0.01375
v 0.07336 0.03667 -0.00001
v 0.07107 0.05042 0.00687
v 0.05960 -0.02980 -0.01604
v 0.05960 0.03896 -0.01146
v 0.05960 -0.00916 -0.02751
v 0.06648 0.01375 -0.02980
v 0.06648 -0.02980 -0.01375
v 0.06877 -0.02980 -0.00001
v 0.06419 -0.02521 -0.02521
v 0.07107 0.01603 -0.01834
v 0.05502 -0.01605 0.00458
v 0.07107 0.03208 -0.01834
v 0.05960 0.03438 -0.02751
v 0.07336 0.01375 0.00916
v 0.07336 0.02750 0.03438
v 0.03668 0.00459 0.02063
v 0.03668 0.00459 0.02751
v 0.06648 -0.03209 0.01605
v 0.06877 0.05042 0.01375
v 0.03897 0.02292 0.03897
v 0.06419 -0.00458 0.03667
v 0.03897 0.02521 0.01605
v 0.06648 0.02979 0.04126
v 0.05960 -0.03209 0.01375
v 0.07336 0.01145 0.01375
v 0.03668 0.02979 0.02521
v 0.03897 0.01375 0.03897
v 0.06877 -0.02291 0.02521
v 0.05960 -0.02291 0.02521
v 0.06877 0.01375 0.04126
v 0.07336 0.04354 0.02063
v 0.06648 0.04584 0.02292
v 0.07106 -0.02063 0.01375
v 0.05273 0.01604 0.01375
v 0.05502 0.01145 0.04126
v 0.07336 0.01604 0.03209
v 0.03668 0.00688 0.01834
v 0.03668 0.02979 0.02063
v 0.07336 0.04354 0.01375
v 0.06648 0.05042 0.01605
v 0.06189 -0.01374 0.03209
v 0.07106 0.04584 0.02292
v 0.06419 0.04813 0.01375
v 0.05502 -0.02063 0.01375
v 0.05960 -0.03209 0.01605
v 0.06419 0.03208 0.03897
v 0.07106 0.03208 0.03667
v 0.05273 0.02062 0.04126
v 0.03897 0.01604 0.01605
v 0.06877 -0.02979 0.01375
v 0.06648 0.00917 0.04126
v 0.07106 0.01834 0.03897
v 0.06189 -0.00458 0.03667
v 0.03668 0.01834 0.02980
v 0.03668 0.02750 0.01834
v 0.07106 -0.02063 0.01605
v 0.06877 0.02750 0.04126
v 0.06877 -0.01374 0.02980
v 0.07106 0.01145 0.03667
v 0.06877 0.03208 0.03897
v 0.02979 -0.05731 -0.01834
v -0.05271 -0.05502 -0.03897
v -0.05730 -0.05502 -0.03439
v -0.00001 -0.04585 -0.02751
v -0.05042 -0.05043 0.00916
v -0.04583 -0.06190 0.00916
v 0.02750 -0.06419 -0.02980
v 0.02750 -0.05731 0.00916
v -0.05501 -0.04585 -0.03209
v -0.04583 -0.06190 -0.03209
v 0.00916 -0.05502 -0.03897
v 0.02750 -0.06190 0.00916
v -0.00459 -0.05043 0.00916
v -0.01603 -0.06419 -0.03209
v 0.02750 -0.06419 -0.01605
v 0.02979 -0.05731 -0.02980
v 0.00916 -0.05960 -0.03897
v -0.04125 -0.05043 -0.03897
v -0.04125 -0.05960 -0.03897
v -0.05042 -0.05960 0.00916
v -0.00001 -0.04585 -0.02980
v -0.05730 -0.05043 -0.02522
v -0.01833 -0.06419 -0.02063
v -0.05271 -0.05960 -0.03209
v 0.02521 -0.05731 -0.03439
v 0.02979 -0.06419 -0.02063
v 0.00228 -0.05273 -0.03897
v 0.01375 -0.06190 -0.03667
v -0.05501 -0.04585 -0.02980
v -0.05271 -0.04814 -0.03667
v -0.03437 -0.06190 -0.03667
v -0.05730 -0.05502 -0.02522
v -0.05730 -0.04814 -0.03439
v 0.02521 -0.06190 -0.03439
v -0.04354 -0.04814 -0.03667
v 0.02062 -0.05502 -0.03439
v -0.05730 -0.04814 -0.02751
v -0.01603 -0.06419 -0.01834
v -0.00001 -0.05043 -0.03667
v -0.05042 -0.05731 -0.03897
v 0.02979 -0.06190 -0.02980
v -0.05042 -0.05043 -0.03897
v 0.00229 -0.01376 -0.02751
v -0.00458 -0.04585 -0.02980
v -0.00458 -0.04585 -0.02751
v 0.00459 -0.04126 -0.02980
v -0.00229 -0.03668 -0.03439
v -0.00458 -0.02522 -0.02980
v 0.00229 -0.03897 -0.02522
v -0.00229 -0.02980 -0.02522
v 0.00229 -0.04126 -0.03439
v 0.00229 -0.01376 -0.02980
v 0.00229 -0.04585 -0.02751
v -0.00229 -0.01605 -0.02980
v -0.00458 -0.02522 -0.02751
v 0.00459 -0.03439 -0.02751
v -0.00458 -0.04356 -0.03210
v -0.00229 -0.01605 -0.02751
v 0.00229 -0.03668 -0.03439
v 0.00229 -0.02980 -0.02522
v 0.00459 -0.03439 -0.02980
v -0.04354 -0.06190 0.01604
v -0.01833 -0.04814 0.01834
v -0.01833 -0.04814 0.01375
v 0.02750 -0.06190 0.00917
v -0.05043 -0.05043 0.00917
v 0.02521 -0.06190 0.01834
v -0.04354 -0.05273 0.02063
v -0.04584 -0.06190 0.00917
v 0.02979 -0.05731 0.00917
v -0.03208 -0.06190 0.02063
v -0.02062 -0.04814 0.02063
v 0.02979 -0.05731 0.01604
v -0.00459 -0.05043 0.00917
v -0.05043 -0.05043 0.01834
v -0.05043 -0.05731 0.01834
v -0.00230 -0.05960 0.02063
v -0.02979 -0.04814 0.01146
v 0.02521 -0.05731 0.01834
v -0.05043 -0.05960 0.00917
v -0.03208 -0.04814 0.01834
v -0.04813 -0.05960 0.01834
v -0.04354 -0.05731 0.02063
v 0.02979 -0.05960 0.01604
v 0.03668 0.02520 0.02750
v -0.05959 -0.02749 0.01605
v -0.05729 -0.02979 0.01605
v -0.00000 0.04812 0.01146
v -0.04812 0.06416 0.01834
v 0.02979 -0.01832 0.01375
v 0.00916 0.01375 0.03438
v -0.02062 -0.04814 0.01375
v -0.05959 -0.01604 0.02292
v -0.05959 0.02062 0.01375
v -0.02062 -0.04355 0.02063
v 0.03208 -0.01604 0.02292
v -0.05959 0.02520 0.02292
v 0.03668 0.02520 0.01605
v -0.02292 0.06416 0.01834
v 0.00916 0.02062 0.03438
v -0.05959 -0.02521 0.01375
v 0.03668 0.00916 0.02980
v -0.04812 0.06416 0.01605
v 0.03668 0.02979 0.01834
v -0.04812 -0.03438 0.02063
v 0.03437 -0.01604 0.01605
v -0.00918 0.05042 0.01146
v -0.05271 0.03667 0.02292
v 0.02979 0.02062 0.01375
v -0.02062 -0.04814 0.01834
v 0.03668 0.02979 0.02521
v -0.02750 -0.04814 0.01375
v 0.00686 0.04812 0.01375
v 0.01374 0.02062 0.03438
v 0.01374 0.01375 0.03438
v -0.04812 0.04584 0.01375
v -0.05959 0.03208 0.01605
v -0.02292 0.06416 0.01605
v -0.02750 -0.04355 0.02063
v 0.01603 0.02979 0.02980
v 0.03208 -0.01832 0.02063
v -0.02750 -0.04814 0.01834
v -0.00918 0.04354 0.01146
v 0.03668 0.00001 0.01834
v -0.00000 0.04354 0.01146
v -0.05500 -0.03208 0.01834
v 0.03437 0.02750 0.02750
v 0.03668 0.01833 0.02980
v 0.03437 -0.01604 0.02063
v 0.03208 -0.01832 0.01605
v -0.05959 -0.02521 0.02063
v 0.00686 0.04812 0.01834
v 0.03437 0.00688 0.02980
v -0.04812 0.05271 0.02063
v -0.05271 0.05271 0.01834
v 0.03668 0.00916 0.01605
v -0.05959 0.03208 0.01834
v -0.05500 -0.03208 0.01605
f 275 289 301 
f 249 256 257 
f 256 254 260 
f 257 256 260 
f 260 254 263 
f 262 252 263 
f 250 249 264 
f 249 257 264 
f 261 248 265 
f 252 262 266 
f 248 261 267 
f 254 256 268 
f 264 257 270 
f 252 260 271 
f 260 263 271 
f 253 251 272 
f 251 261 272 
f 261 253 272 
f 259 258 273 
f 248 267 274 
f 255 273 275 
f 261 251 276 
f 267 261 276 
f 274 267 276 
f 263 254 277 
f 262 263 277 
f 254 258 278 
f 277 254 278 
f 265 277 278 
f 257 266 279 
f 270 257 279 
f 266 270 279 
f 257 260 280 
f 266 257 280 
f 266 262 281 
f 251 270 281 
f 270 266 281 
f 276 251 281 
f 262 276 281 
f 258 254 282 
f 254 268 282 
f 273 258 282 
f 262 277 283 
f 273 255 284 
f 259 273 284 
f 275 273 285 
f 282 268 285 
f 273 282 285 
f 270 251 286 
f 264 270 286 
f 255 275 286 
f 275 264 286 
f 261 265 287 
f 251 253 288 
f 253 255 288 
f 286 251 288 
f 255 286 288 
f 249 250 289 
f 285 268 289 
f 275 285 289 
f 248 274 290 
f 274 262 290 
f 262 283 290 
f 283 277 290 
f 265 248 291 
f 277 265 291 
f 248 290 291 
f 290 277 291 
f 265 259 292 
f 284 269 292 
f 259 284 292 
f 287 265 292 
f 269 287 292 
f 255 253 293 
f 253 269 293 
f 284 255 293 
f 269 284 293 
f 256 249 294 
f 268 256 294 
f 249 289 294 
f 289 268 294 
f 262 274 295 
f 276 262 295 
f 274 276 295 
f 258 259 296 
f 259 265 296 
f 278 258 296 
f 265 278 296 
f 263 252 297 
f 252 271 297 
f 271 263 297 
f 260 252 298 
f 252 266 298 
f 266 280 298 
f 253 261 299 
f 269 253 299 
f 261 287 299 
f 287 269 299 
f 280 260 300 
f 260 298 300 
f 298 280 300 
f 250 264 301 
f 264 275 301 
f 289 250 301 
