# Original object name hint: convex_1
v -0.07106 -0.00229 -0.03438
v -0.05960 0.02520 0.02292
v -0.05960 0.03209 0.02062
v -0.07336 0.04125 0.01603
v -0.06648 0.06419 -0.02521
v -0.05960 -0.02522 0.01374
v -0.07336 -0.01374 0.01833
v -0.06189 -0.01605 -0.02750
v -0.07336 0.03437 -0.03438
v -0.06419 0.02520 -0.04126
v -0.06877 -0.02292 -0.02521
v -0.06648 0.04814 0.01833
v -0.07106 -0.01146 0.02292
v -0.07106 0.05959 -0.01834
v -0.07336 -0.00229 -0.02521
v -0.05960 -0.01605 0.02292
v -0.06877 -0.02292 0.01833
v -0.06877 0.00688 -0.04126
v -0.05960 0.02978 0.01374
v -0.07106 0.01605 0.02292
v -0.07106 0.02750 -0.04126
v -0.07336 0.05042 -0.02521
v -0.06419 0.05042 -0.02521
v -0.06877 -0.02522 -0.00230
v -0.07106 0.04814 0.01603
v -0.07336 0.00688 -0.03438
v -0.06419 -0.02292 -0.02292
v -0.06648 0.06419 -0.02063
v -0.07336 -0.01374 0.00228
v -0.06877 0.06419 -0.02521
v -0.06648 0.03209 -0.04126
v -0.06419 -0.01834 -0.02980
v -0.06419 0.00460 -0.03897
v -0.06419 0.04584 0.01833
v -0.06189 -0.00457 -0.02750
v -0.06419 -0.02522 0.01833
v -0.07106 0.03437 0.02062
v -0.06419 0.03209 -0.03897
v -0.07106 -0.01834 -0.01834
v -0.06877 0.06419 -0.02063
v -0.07106 0.01147 -0.04126
v -0.07106 0.03437 -0.03897
v -0.07336 0.03437 0.01833
v -0.07106 -0.02063 0.01603
v -0.07106 -0.02063 -0.00689
v -0.06877 0.02520 0.02292
v -0.07336 0.04354 0.01374
v -0.05960 -0.02292 0.02062
v -0.06877 -0.01605 0.02292
v -0.07106 0.05959 -0.02521
v -0.06877 -0.02063 -0.02750
v -0.06419 -0.02522 -0.00230
v -0.07106 0.04584 0.01833
v -0.06877 -0.02522 0.00916
v -0.06648 0.00688 -0.04126
v -0.05960 0.03209 0.01603
v -0.07106 0.00460 -0.03897
v -0.07106 -0.01834 0.02062
v -0.06877 0.04814 0.01833
v -0.06877 0.03209 -0.04126
v 0.06190 -0.02980 -0.01834
v 0.06877 0.05502 0.01375
v 0.06648 0.05502 0.01375
v 0.06190 0.04354 -0.02521
v 0.05502 -0.02292 0.01375
v 0.07107 -0.02063 0.01375
v 0.07107 0.02521 -0.02063
v 0.05731 0.03208 -0.02292
v 0.06648 -0.01833 -0.02521
v 0.07336 0.04354 0.00687
v 0.05731 -0.02063 -0.02063
v 0.05960 0.02980 0.01375
v 0.06190 0.00689 -0.02980
v 0.06648 -0.03209 0.01375
v 0.06877 0.04125 -0.02292
v 0.06877 -0.02751 -0.00459
v 0.06648 0.02749 -0.02980
v 0.07336 0.01375 0.01375
v 0.05731 -0.02980 0.00228
v 0.05960 -0.02521 -0.02521
v 0.07336 0.02292 -0.00001
v 0.05731 0.01375 0.01375
v 0.05731 0.02980 -0.02521
v 0.05502 -0.02292 0.00458
v 0.07107 -0.01833 0.00458
v 0.06648 -0.02521 -0.02292
v 0.05731 0.03208 -0.01604
v 0.05960 -0.03209 0.01375
v 0.05502 -0.01374 0.01375
v 0.07107 0.02062 -0.02063
v 0.07336 0.04354 0.01375
v 0.06877 0.01146 -0.02751
v 0.06648 -0.03209 -0.00230
v 0.06877 0.05502 0.00916
v 0.06190 0.04584 -0.02063
v 0.06648 0.04354 -0.02521
v 0.06190 0.02749 -0.02980
v 0.06190 0.04125 0.01375
v 0.06648 -0.00916 -0.02751
v 0.05731 0.01375 -0.02521
v 0.06877 0.03208 -0.02751
v 0.05960 -0.03209 -0.00001
v 0.06877 -0.02980 0.01375
v 0.07336 0.03667 -0.00001
v 0.07107 0.05042 0.00687
v 0.05960 -0.02980 -0.01604
v 0.05960 0.03896 -0.01146
v 0.05960 -0.00916 -0.02751
v 0.06648 0.01375 -0.02980
v 0.06648 -0.02980 -0.01375
v 0.06877 -0.02980 -0.00001
v 0.06419 -0.02521 -0.02521
v 0.07107 0.01603 -0.01834
v 0.05502 -0.01605 0.00458
v 0.07107 0.03208 -0.01834
v 0.05960 0.03438 -0.02751
v 0.07336 0.01375 0.00916
v 0.07336 0.02750 0.03438
v 0.03668 0.00459 0.02063
v 0.03668 0.00459 0.02751
v 0.06648 -0.03209 0.01605
v 0.06877 0.05042 0.01375
v 0.03897 0.02292 0.03897
v 0.06419 -0.00458 0.03667
v 0.03897 0.02521 0.01605
v 0.06648 0.02979 0.04126
v 0.05960 -0.03209 0.01375
v 0.07336 0.01145 0.01375
v 0.03668 0.02979 0.02521
v 0.03897 0.01375 0.03897
v 0.06877 -0.02291 0.02521
v 0.05960 -0.02291 0.02521
v 0.06877 0.01375 0.04126
v 0.07336 0.04354 0.02063
v 0.06648 0.04584 0.02292
v 0.07106 -0.02063 0.01375
v 0.05273 0.01604 0.01375
v 0.05502 0.01145 0.04126
v 0.07336 0.01604 0.03209
v 0.03668 0.00688 0.01834
v 0.03668 0.02979 0.02063
v 0.07336 0.04354 0.01375
v 0.06648 0.05042 0.01605
v 0.06189 -0.01374 0.03209
v 0.07106 0.04584 0.02292
v 0.06419 0.04813 0.01375
v 0.05502 -0.02063 0.01375
v 0.05960 -0.03209 0.01605
v 0.06419 0.03208 0.03897
v 0.07106 0.03208 0.03667
v 0.05273 0.02062 0.04126
v 0.03897 0.01604 0.01605
v 0.06877 -0.02979 0.01375
v 0.06648 0.00917 0.04126
v 0.07106 0.01834 0.03897
v 0.06189 -0.00458 0.03667
v 0.03668 0.01834 0.02980
v 0.03668 0.02750 0.01834
v 0.07106 -0.02063 0.01605
v 0.06877 0.02750 0.04126
v 0.06877 -0.01374 0.02980
v 0.07106 0.01145 0.03667
v 0.06877 0.03208 0.03897
v 0.02979 -0.05731 -0.01834
v -0.05271 -0.05502 -0.03897
v -0.05730 -0.05502 -0.03439
v -0.00001 -0.04585 -0.02751
v -0.05042 -0.05043 0.00916
v -0.04583 -0.06190 0.00916
v 0.02750 -0.06419 -0.02980
v 0.02750 -0.05731 0.00916
v -0.05501 -0.04585 -0.03209
v -0.04583 -0.06190 -0.03209
v 0.00916 -0.05502 -0.03897
v 0.02750 -0.06190 0.00916
v -0.00459 -0.05043 0.00916
v -0.01603 -0.06419 -0.03209
v 0.02750 -0.06419 -0.01605
v 0.02979 -0.05731 -0.02980
v 0.00916 -0.05960 -0.03897
v -0.04125 -0.05043 -0.03897
v -0.04125 -0.05960 -0.03897
v -0.05042 -0.05960 0.00916
v -0.00001 -0.04585 -0.02980
v -0.05730 -0.05043 -0.02522
v -0.01833 -0.06419 -0.02063
v -0.05271 -0.05960 -0.03209
v 0.02521 -0.05731 -0.03439
v 0.02979 -0.06419 -0.02063
v 0.00228 -0.05273 -0.03897
v 0.01375 -0.06190 -0.03667
v -0.05501 -0.04585 -0.02980
v -0.05271 -0.04814 -0.03667
v -0.03437 -0.06190 -0.03667
v -0.05730 -0.05502 -0.02522
v -0.05730 -0.04814 -0.03439
v 0.02521 -0.06190 -0.03439
v -0.04354 -0.04814 -0.03667
v 0.02062 -0.05502 -0.03439
v -0.05730 -0.04814 -0.02751
v -0.01603 -0.06419 -0.01834
v -0.00001 -0.05043 -0.03667
v -0.05042 -0.05731 -0.03897
v 0.02979 -0.06190 -0.02980
v -0.05042 -0.05043 -0.03897
v 0.00229 -0.01376 -0.02751
v -0.00458 -0.04585 -0.02980
v -0.00458 -0.04585 -0.02751
v 0.00459 -0.04126 -0.02980
v -0.00229 -0.03668 -0.03439
v -0.00458 -0.02522 -0.02980
v 0.00229 -0.03897 -0.02522
v -0.00229 -0.02980 -0.02522
v 0.00229 -0.04126 -0.03439
v 0.00229 -0.01376 -0.02980
v 0.00229 -0.04585 -0.02751
v -0.00229 -0.01605 -0.02980
v -0.00458 -0.02522 -0.02751
v 0.00459 -0.03439 -0.02751
v -0.00458 -0.04356 -0.03210
v -0.00229 -0.01605 -0.02751
v 0.00229 -0.03668 -0.03439
v 0.00229 -0.02980 -0.02522
v 0.00459 -0.03439 -0.02980
v -0.04354 -0.06190 0.01604
v -0.01833 -0.04814 0.01834
v -0.01833 -0.04814 0.01375
v 0.02750 -0.06190 0.00917
v -0.05043 -0.05043 0.00917
v 0.02521 -0.06190 0.01834
v -0.04354 -0.05273 0.02063
v -0.04584 -0.06190 0.00917
v 0.02979 -0.05731 0.00917
v -0.03208 -0.06190 0.02063
v -0.02062 -0.04814 0.02063
v 0.02979 -0.05731 0.01604
v -0.00459 -0.05043 0.00917
v -0.05043 -0.05043 0.01834
v -0.05043 -0.05731 0.01834
v -0.00230 -0.05960 0.02063
v -0.02979 -0.04814 0.01146
v 0.02521 -0.05731 0.01834
v -0.05043 -0.05960 0.00917
v -0.03208 -0.04814 0.01834
v -0.04813 -0.05960 0.01834
v -0.04354 -0.05731 0.02063
v 0.02979 -0.05960 0.01604
v 0.03668 0.02520 0.02750
v -0.05959 -0.02749 0.01605
v -0.05729 -0.02979 0.01605
v -0.00000 0.04812 0.01146
v -0.04812 0.06416 0.01834
v 0.02979 -0.01832 0.01375
v 0.00916 0.01375 0.03438
v -0.02062 -0.04814 0.01375
v -0.05959 -0.01604 0.02292
v -0.05959 0.02062 0.01375
v -0.02062 -0.04355 0.02063
v 0.03208 -0.01604 0.02292
v -0.05959 0.02520 0.02292
v 0.03668 0.02520 0.01605
v -0.02292 0.06416 0.01834
v 0.00916 0.02062 0.03438
v -0.05959 -0.02521 0.01375
v 0.03668 0.00916 0.02980
v -0.04812 0.06416 0.01605
v 0.03668 0.02979 0.01834
v -0.04812 -0.03438 0.02063
v 0.03437 -0.01604 0.01605
v -0.00918 0.05042 0.01146
v -0.05271 0.03667 0.02292
v 0.02979 0.02062 0.01375
v -0.02062 -0.04814 0.01834
v 0.03668 0.02979 0.02521
v -0.02750 -0.04814 0.01375
v 0.00686 0.04812 0.01375
v 0.01374 0.02062 0.03438
v 0.01374 0.01375 0.03438
v -0.04812 0.04584 0.01375
v -0.05959 0.03208 0.01605
v -0.02292 0.06416 0.01605
v -0.02750 -0.04355 0.02063
v 0.01603 0.02979 0.02980
v 0.03208 -0.01832 0.02063
v -0.02750 -0.04814 0.01834
v -0.00918 0.04354 0.01146
v 0.03668 0.00001 0.01834
v -0.00000 0.04354 0.01146
v -0.05500 -0.03208 0.01834
v 0.03437 0.02750 0.02750
v 0.03668 0.01833 0.02980
v 0.03437 -0.01604 0.02063
v 0.03208 -0.01832 0.01605
v -0.05959 -0.02521 0.02063
v 0.00686 0.04812 0.01834
v 0.03437 0.00688 0.02980
v -0.04812 0.05271 0.02063
v -0.05271 0.05271 0.01834
v 0.03668 0.00916 0.01605
v -0.05959 0.03208 0.01834
v -0.05500 -0.03208 0.01605
f 85 81 117 
f 62 63 65 
f 62 65 66 
f 65 63 72 
f 66 65 74 
f 62 66 78 
f 70 78 81 
f 65 72 82 
f 68 64 83 
f 71 79 84 
f 79 65 84 
f 85 76 86 
f 82 72 87 
f 74 65 88 
f 65 79 88 
f 65 82 89 
f 84 65 89 
f 87 68 89 
f 82 87 89 
f 67 81 90 
f 62 78 91 
f 78 70 91 
f 86 69 92 
f 67 90 92 
f 90 86 92 
f 74 88 93 
f 63 62 94 
f 64 68 95 
f 68 87 95 
f 63 94 95 
f 77 64 96 
f 94 75 96 
f 95 94 96 
f 64 95 96 
f 64 77 97 
f 77 73 97 
f 73 83 97 
f 72 63 98 
f 87 72 98 
f 92 69 99 
f 83 73 100 
f 71 84 100 
f 84 83 100 
f 67 92 101 
f 92 77 101 
f 77 96 101 
f 96 75 101 
f 88 79 102 
f 61 93 102 
f 93 88 102 
f 66 74 103 
f 74 93 103 
f 75 70 104 
f 81 67 104 
f 70 81 104 
f 70 75 105 
f 62 91 105 
f 91 70 105 
f 94 62 105 
f 75 94 105 
f 79 71 106 
f 80 61 106 
f 71 80 106 
f 61 102 106 
f 102 79 106 
f 63 95 107 
f 95 87 107 
f 98 63 107 
f 87 98 107 
f 80 71 108 
f 73 80 108 
f 71 100 108 
f 100 73 108 
f 73 77 109 
f 77 92 109 
f 99 73 109 
f 92 99 109 
f 86 76 110 
f 93 61 110 
f 93 110 111 
f 85 66 111 
f 76 85 111 
f 66 103 111 
f 103 93 111 
f 110 76 111 
f 61 80 112 
f 80 73 112 
f 69 86 112 
f 73 99 112 
f 99 69 112 
f 110 61 112 
f 86 110 112 
f 81 85 113 
f 85 86 113 
f 90 81 113 
f 86 90 113 
f 68 83 114 
f 83 84 114 
f 89 68 114 
f 84 89 114 
f 67 101 115 
f 101 75 115 
f 75 104 115 
f 104 67 115 
f 83 64 116 
f 64 97 116 
f 97 83 116 
f 78 66 117 
f 81 78 117 
f 66 85 117 
