# Original object name hint: convex_5
v -0.07106 -0.00229 -0.03438
v -0.05960 0.02520 0.02292
v -0.05960 0.03209 0.02062
v -0.07336 0.04125 0.01603
v -0.06648 0.06419 -0.02521
v -0.05960 -0.02522 0.01374
v -0.07336 -0.01374 0.01833
v -0.06189 -0.01605 -0.02750
v -0.07336 0.03437 -0.03438
v -0.06419 0.02520 -0.04126
v -0.06877 -0.02292 -0.02521
v -0.06648 0.04814 0.01833
v -0.07106 -0.01146 0.02292
v -0.07106 0.05959 -0.01834
v -0.07336 -0.00229 -0.02521
v -0.05960 -0.01605 0.02292
v -0.06877 -0.02292 0.01833
v -0.06877 0.00688 -0.04126
v -0.05960 0.02978 0.01374
v -0.07106 0.01605 0.02292
v -0.07106 0.02750 -0.04126
v -0.07336 0.05042 -0.02521
v -0.06419 0.05042 -0.02521
v -0.06877 -0.02522 -0.00230
v -0.07106 0.04814 0.01603
v -0.07336 0.00688 -0.03438
v -0.06419 -0.02292 -0.02292
v -0.06648 0.06419 -0.02063
v -0.07336 -0.01374 0.00228
v -0.06877 0.06419 -0.02521
v -0.06648 0.03209 -0.04126
v -0.06419 -0.01834 -0.02980
v -0.06419 0.00460 -0.03897
v -0.06419 0.04584 0.01833
v -0.06189 -0.00457 -0.02750
v -0.06419 -0.02522 0.01833
v -0.07106 0.03437 0.02062
v -0.06419 0.03209 -0.03897
v -0.07106 -0.01834 -0.01834
v -0.06877 0.06419 -0.02063
v -0.07106 0.01147 -0.04126
v -0.07106 0.03437 -0.03897
v -0.07336 0.03437 0.01833
v -0.07106 -0.02063 0.01603
v -0.07106 -0.02063 -0.00689
v -0.06877 0.02520 0.02292
v -0.07336 0.04354 0.01374
v -0.05960 -0.02292 0.02062
v -0.06877 -0.01605 0.02292
v -0.07106 0.05959 -0.02521
v -0.06877 -0.02063 -0.02750
v -0.06419 -0.02522 -0.00230
v -0.07106 0.04584 0.01833
v -0.06877 -0.02522 0.00916
v -0.06648 0.00688 -0.04126
v -0.05960 0.03209 0.01603
v -0.07106 0.00460 -0.03897
v -0.07106 -0.01834 0.02062
v -0.06877 0.04814 0.01833
v -0.06877 0.03209 -0.04126
v 0.06190 -0.02980 -0.01834
v 0.06877 0.05502 0.01375
v 0.06648 0.05502 0.01375
v 0.06190 0.04354 -0.02521
v 0.05502 -0.02292 0.01375
v 0.07107 -0.02063 0.01375
v 0.07107 0.02521 -0.02063
v 0.05731 0.03208 -0.02292
v 0.06648 -0.01833 -0.02521
v 0.07336 0.04354 0.00687
v 0.05731 -0.02063 -0.02063
v 0.05960 0.02980 0.01375
v 0.06190 0.00689 -0.02980
v 0.06648 -0.03209 0.01375
v 0.06877 0.04125 -0.02292
v 0.06877 -0.02751 -0.00459
v 0.06648 0.02749 -0.02980
v 0.07336 0.01375 0.01375
v 0.05731 -0.02980 0.00228
v 0.05960 -0.02521 -0.02521
v 0.07336 0.02292 -0.00001
v 0.05731 0.01375 0.01375
v 0.05731 0.02980 -0.02521
v 0.05502 -0.02292 0.00458
v 0.07107 -0.01833 0.00458
v 0.06648 -0.02521 -0.02292
v 0.05731 0.03208 -0.01604
v 0.05960 -0.03209 0.01375
v 0.05502 -0.01374 0.01375
v 0.07107 0.02062 -0.02063
v 0.07336 0.04354 0.01375
v 0.06877 0.01146 -0.02751
v 0.06648 -0.03209 -0.00230
v 0.06877 0.05502 0.00916
v 0.06190 0.04584 -0.02063
v 0.06648 0.04354 -0.02521
v 0.06190 0.02749 -0.02980
v 0.06190 0.04125 0.01375
v 0.06648 -0.00916 -0.02751
v 0.05731 0.01375 -0.02521
v 0.06877 0.03208 -0.02751
v 0.05960 -0.03209 -0.00001
v 0.06877 -0.02980 0.01375
v 0.07336 0.03667 -0.00001
v 0.07107 0.05042 0.00687
v 0.05960 -0.02980 -0.01604
v 0.05960 0.03896 -0.01146
v 0.05960 -0.00916 -0.02751
v 0.06648 0.01375 -0.02980
v 0.06648 -0.02980 -0.01375
v 0.06877 -0.02980 -0.00001
v 0.06419 -0.02521 -0.02521
v 0.07107 0.01603 -0.01834
v 0.05502 -0.01605 0.00458
v 0.07107 0.03208 -0.01834
v 0.05960 0.03438 -0.02751
v 0.07336 0.01375 0.00916
v 0.07336 0.02750 0.03438
v 0.03668 0.00459 0.02063
v 0.03668 0.00459 0.02751
v 0.06648 -0.03209 0.01605
v 0.06877 0.05042 0.01375
v 0.03897 0.02292 0.03897
v 0.06419 -0.00458 0.03667
v 0.03897 0.02521 0.01605
v 0.06648 0.02979 0.04126
v 0.05960 -0.03209 0.01375
v 0.07336 0.01145 0.01375
v 0.03668 0.02979 0.02521
v 0.03897 0.01375 0.03897
v 0.06877 -0.02291 0.02521
v 0.05960 -0.02291 0.02521
v 0.06877 0.01375 0.04126
v 0.07336 0.04354 0.02063
v 0.06648 0.04584 0.02292
v 0.07106 -0.02063 0.01375
v 0.05273 0.01604 0.01375
v 0.05502 0.01145 0.04126
v 0.07336 0.01604 0.03209
v 0.03668 0.00688 0.01834
v 0.03668 0.02979 0.02063
v 0.07336 0.04354 0.01375
v 0.06648 0.05042 0.01605
v 0.06189 -0.01374 0.03209
v 0.07106 0.04584 0.02292
v 0.06419 0.04813 0.01375
v 0.05502 -0.02063 0.01375
v 0.05960 -0.03209 0.01605
v 0.06419 0.03208 0.03897
v 0.07106 0.03208 0.03667
v 0.05273 0.02062 0.04126
v 0.03897 0.01604 0.01605
v 0.06877 -0.02979 0.01375
v 0.06648 0.00917 0.04126
v 0.07106 0.01834 0.03897
v 0.06189 -0.00458 0.03667
v 0.03668 0.01834 0.02980
v 0.03668 0.02750 0.01834
v 0.07106 -0.02063 0.01605
v 0.06877 0.02750 0.04126
v 0.06877 -0.01374 0.02980
v 0.07106 0.01145 0.03667
v 0.06877 0.03208 0.03897
v 0.02979 -0.05731 -0.01834
v -0.05271 -0.05502 -0.03897
v -0.05730 -0.05502 -0.03439
v -0.00001 -0.04585 -0.02751
v -0.05042 -0.05043 0.00916
v -0.04583 -0.06190 0.00916
v 0.02750 -0.06419 -0.02980
v 0.02750 -0.05731 0.00916
v -0.05501 -0.04585 -0.03209
v -0.04583 -0.06190 -0.03209
v 0.00916 -0.05502 -0.03897
v 0.02750 -0.06190 0.00916
v -0.00459 -0.05043 0.00916
v -0.01603 -0.06419 -0.03209
v 0.02750 -0.06419 -0.01605
v 0.02979 -0.05731 -0.02980
v 0.00916 -0.05960 -0.03897
v -0.04125 -0.05043 -0.03897
v -0.04125 -0.05960 -0.03897
v -0.05042 -0.05960 0.00916
v -0.00001 -0.04585 -0.02980
v -0.05730 -0.05043 -0.02522
v -0.01833 -0.06419 -0.02063
v -0.05271 -0.05960 -0.03209
v 0.02521 -0.05731 -0.03439
v 0.02979 -0.06419 -0.02063
v 0.00228 -0.05273 -0.03897
v 0.01375 -0.06190 -0.03667
v -0.05501 -0.04585 -0.02980
v -0.05271 -0.04814 -0.03667
v -0.03437 -0.06190 -0.03667
v -0.05730 -0.05502 -0.02522
v -0.05730 -0.04814 -0.03439
v 0.02521 -0.06190 -0.03439
v -0.04354 -0.04814 -0.03667
v 0.02062 -0.05502 -0.03439
v -0.05730 -0.04814 -0.02751
v -0.01603 -0.06419 -0.01834
v -0.00001 -0.05043 -0.03667
v -0.05042 -0.05731 -0.03897
v 0.02979 -0.06190 -0.02980
v -0.05042 -0.05043 -0.03897
v 0.00229 -0.01376 -0.02751
v -0.00458 -0.04585 -0.02980
v -0.00458 -0.04585 -0.02751
v 0.00459 -0.04126 -0.02980
v -0.00229 -0.03668 -0.03439
v -0.00458 -0.02522 -0.02980
v 0.00229 -0.03897 -0.02522
v -0.00229 -0.02980 -0.02522
v 0.00229 -0.04126 -0.03439
v 0.00229 -0.01376 -0.02980
v 0.00229 -0.04585 -0.02751
v -0.00229 -0.01605 -0.02980
v -0.00458 -0.02522 -0.02751
v 0.00459 -0.03439 -0.02751
v -0.00458 -0.04356 -0.03210
v -0.00229 -0.01605 -0.02751
v 0.00229 -0.03668 -0.03439
v 0.00229 -0.02980 -0.02522
v 0.00459 -0.03439 -0.02980
v -0.04354 -0.06190 0.01604
v -0.01833 -0.04814 0.01834
v -0.01833 -0.04814 0.01375
v 0.02750 -0.06190 0.00917
v -0.05043 -0.05043 0.00917
v 0.02521 -0.06190 0.01834
v -0.04354 -0.05273 0.02063
v -0.04584 -0.06190 0.00917
v 0.02979 -0.05731 0.00917
v -0.03208 -0.06190 0.02063
v -0.02062 -0.04814 0.02063
v 0.02979 -0.05731 0.01604
v -0.00459 -0.05043 0.00917
v -0.05043 -0.05043 0.01834
v -0.05043 -0.05731 0.01834
v -0.00230 -0.05960 0.02063
v -0.02979 -0.04814 0.01146
v 0.02521 -0.05731 0.01834
v -0.05043 -0.05960 0.00917
v -0.03208 -0.04814 0.01834
v -0.04813 -0.05960 0.01834
v -0.04354 -0.05731 0.02063
v 0.02979 -0.05960 0.01604
v 0.03668 0.02520 0.02750
v -0.05959 -0.02749 0.01605
v -0.05729 -0.02979 0.01605
v -0.00000 0.04812 0.01146
v -0.04812 0.06416 0.01834
v 0.02979 -0.01832 0.01375
v 0.00916 0.01375 0.03438
v -0.02062 -0.04814 0.01375
v -0.05959 -0.01604 0.02292
v -0.05959 0.02062 0.01375
v -0.02062 -0.04355 0.02063
v 0.03208 -0.01604 0.02292
v -0.05959 0.02520 0.02292
v 0.03668 0.02520 0.01605
v -0.02292 0.06416 0.01834
v 0.00916 0.02062 0.03438
v -0.05959 -0.02521 0.01375
v 0.03668 0.00916 0.02980
v -0.04812 0.06416 0.01605
v 0.03668 0.02979 0.01834
v -0.04812 -0.03438 0.02063
v 0.03437 -0.01604 0.01605
v -0.00918 0.05042 0.01146
v -0.05271 0.03667 0.02292
v 0.02979 0.02062 0.01375
v -0.02062 -0.04814 0.01834
v 0.03668 0.02979 0.02521
v -0.02750 -0.04814 0.01375
v 0.00686 0.04812 0.01375
v 0.01374 0.02062 0.03438
v 0.01374 0.01375 0.03438
v -0.04812 0.04584 0.01375
v -0.05959 0.03208 0.01605
v -0.02292 0.06416 0.01605
v -0.02750 -0.04355 0.02063
v 0.01603 0.02979 0.02980
v 0.03208 -0.01832 0.02063
v -0.02750 -0.04814 0.01834
v -0.00918 0.04354 0.01146
v 0.03668 0.00001 0.01834
v -0.00000 0.04354 0.01146
v -0.05500 -0.03208 0.01834
v 0.03437 0.02750 0.02750
v 0.03668 0.01833 0.02980
v 0.03437 -0.01604 0.02063
v 0.03208 -0.01832 0.01605
v -0.05959 -0.02521 0.02063
v 0.00686 0.04812 0.01834
v 0.03437 0.00688 0.02980
v -0.04812 0.05271 0.02063
v -0.05271 0.05271 0.01834
v 0.03668 0.00916 0.01605
v -0.05959 0.03208 0.01834
v -0.05500 -0.03208 0.01605
f 233 236 247 
f 225 228 230 
f 228 225 232 
f 229 228 232 
f 228 229 233 
f 225 230 234 
f 231 234 235 
f 226 227 235 
f 226 235 236 
f 236 233 237 
f 227 226 237 
f 233 229 237 
f 226 236 237 
f 231 235 238 
f 231 238 239 
f 238 229 239 
f 234 230 240 
f 235 234 240 
f 235 227 241 
f 227 237 241 
f 237 229 241 
f 230 236 242 
f 236 235 242 
f 240 230 242 
f 235 240 242 
f 229 232 243 
f 239 229 243 
f 229 238 244 
f 238 235 244 
f 235 241 244 
f 241 229 244 
f 232 225 245 
f 225 234 245 
f 243 232 245 
f 239 243 245 
f 234 231 246 
f 231 239 246 
f 245 234 246 
f 239 245 246 
f 230 228 247 
f 228 233 247 
f 236 230 247 
