# Original object name hint: convex_0
v -0.07106 -0.00229 -0.03438
v -0.05960 0.02520 0.02292
v -0.05960 0.03209 0.02062
v -0.07336 0.04125 0.01603
v -0.06648 0.06419 -0.02521
v -0.05960 -0.02522 0.01374
v -0.07336 -0.01374 0.01833
v -0.06189 -0.01605 -0.02750
v -0.07336 0.03437 -0.03438
v -0.06419 0.02520 -0.04126
v -0.06877 -0.02292 -0.02521
v -0.06648 0.04814 0.01833
v -0.07106 -0.01146 0.02292
v -0.07106 0.05959 -0.01834
v -0.07336 -0.00229 -0.02521
v -0.05960 -0.01605 0.02292
v -0.06877 -0.02292 0.01833
v -0.06877 0.00688 -0.04126
v -0.05960 0.02978 0.01374
v -0.07106 0.01605 0.02292
v -0.07106 0.02750 -0.04126
v -0.07336 0.05042 -0.02521
v -0.06419 0.05042 -0.02521
v -0.06877 -0.02522 -0.00230
v -0.07106 0.04814 0.01603
v -0.07336 0.00688 -0.03438
v -0.06419 -0.02292 -0.02292
v -0.06648 0.06419 -0.02063
v -0.07336 -0.01374 0.00228
v -0.06877 0.06419 -0.02521
v -0.06648 0.03209 -0.04126
v -0.06419 -0.01834 -0.02980
v -0.06419 0.00460 -0.03897
v -0.06419 0.04584 0.01833
v -0.06189 -0.00457 -0.02750
v -0.06419 -0.02522 0.01833
v -0.07106 0.03437 0.02062
v -0.06419 0.03209 -0.03897
v -0.07106 -0.01834 -0.01834
v -0.06877 0.06419 -0.02063
v -0.07106 0.01147 -0.04126
v -0.07106 0.03437 -0.03897
v -0.07336 0.03437 0.01833
v -0.07106 -0.02063 0.01603
v -0.07106 -0.02063 -0.00689
v -0.06877 0.02520 0.02292
v -0.07336 0.04354 0.01374
v -0.05960 -0.02292 0.02062
v -0.06877 -0.01605 0.02292
v -0.07106 0.05959 -0.02521
v -0.06877 -0.02063 -0.02750
v -0.06419 -0.02522 -0.00230
v -0.07106 0.04584 0.01833
v -0.06877 -0.02522 0.00916
v -0.06648 0.00688 -0.04126
v -0.05960 0.03209 0.01603
v -0.07106 0.00460 -0.03897
v -0.07106 -0.01834 0.02062
v -0.06877 0.04814 0.01833
v -0.06877 0.03209 -0.04126
v 0.06190 -0.02980 -0.01834
v 0.06877 0.05502 0.01375
v 0.06648 0.05502 0.01375
v 0.06190 0.04354 -0.02521
v 0.05502 -0.02292 0.01375
v 0.07107 -0.02063 0.01375
v 0.07107 0.02521 -0.02063
v 0.05731 0.03208 -0.02292
v 0.06648 -0.01833 -0.02521
v 0.07336 0.04354 0.00687
v 0.05731 -0.02063 -0.02063
v 0.05960 0.02980 0.01375
v 0.06190 0.00689 -0.02980
v 0.06648 -0.03209 0.01375
v 0.06877 0.04125 -0.02292
v 0.06877 -0.02751 -0.00459
v 0.06648 0.02749 -0.02980
v 0.07336 0.01375 0.01375
v 0.05731 -0.02980 0.00228
v 0.05960 -0.02521 -0.02521
v 0.07336 0.02292 -0.00001
v 0.05731 0.01375 0.01375
v 0.05731 0.02980 -0.02521
v 0.05502 -0.02292 0.00458
v 0.07107 -0.01833 0.00458
v 0.06648 -0.02521 -0.02292
v 0.05731 0.03208 -0.01604
v 0.05960 -0.03209 0.01375
v 0.05502 -0.01374 0.01375
v 0.07107 0.02062 -0.02063
v 0.07336 0.04354 0.01375
v 0.06877 0.01146 -0.02751
v 0.06648 -0.03209 -0.00230
v 0.06877 0.05502 0.00916
v 0.06190 0.04584 -0.02063
v 0.06648 0.04354 -0.02521
v 0.06190 0.02749 -0.02980
v 0.06190 0.04125 0.01375
v 0.06648 -0.00916 -0.02751
v 0.05731 0.01375 -0.02521
v 0.06877 0.03208 -0.02751
v 0.05960 -0.03209 -0.00001
v 0.06877 -0.02980 0.01375
v 0.07336 0.03667 -0.00001
v 0.07107 0.05042 0.00687
v 0.05960 -0.02980 -0.01604
v 0.05960 0.03896 -0.01146
v 0.05960 -0.00916 -0.02751
v 0.06648 0.01375 -0.02980
v 0.06648 -0.02980 -0.01375
v 0.06877 -0.02980 -0.00001
v 0.06419 -0.02521 -0.02521
v 0.07107 0.01603 -0.01834
v 0.05502 -0.01605 0.00458
v 0.07107 0.03208 -0.01834
v 0.05960 0.03438 -0.02751
v 0.07336 0.01375 0.00916
v 0.07336 0.02750 0.03438
v 0.03668 0.00459 0.02063
v 0.03668 0.00459 0.02751
v 0.06648 -0.03209 0.01605
v 0.06877 0.05042 0.01375
v 0.03897 0.02292 0.03897
v 0.06419 -0.00458 0.03667
v 0.03897 0.02521 0.01605
v 0.06648 0.02979 0.04126
v 0.05960 -0.03209 0.01375
v 0.07336 0.01145 0.01375
v 0.03668 0.02979 0.02521
v 0.03897 0.01375 0.03897
v 0.06877 -0.02291 0.02521
v 0.05960 -0.02291 0.02521
v 0.06877 0.01375 0.04126
v 0.07336 0.04354 0.02063
v 0.06648 0.04584 0.02292
v 0.07106 -0.02063 0.01375
v 0.05273 0.01604 0.01375
v 0.05502 0.01145 0.04126
v 0.07336 0.01604 0.03209
v 0.03668 0.00688 0.01834
v 0.03668 0.02979 0.02063
v 0.07336 0.04354 0.01375
v 0.06648 0.05042 0.01605
v 0.06189 -0.01374 0.03209
v 0.07106 0.04584 0.02292
v 0.06419 0.04813 0.01375
v 0.05502 -0.02063 0.01375
v 0.05960 -0.03209 0.01605
v 0.06419 0.03208 0.03897
v 0.07106 0.03208 0.03667
v 0.05273 0.02062 0.04126
v 0.03897 0.01604 0.01605
v 0.06877 -0.02979 0.01375
v 0.06648 0.00917 0.04126
v 0.07106 0.01834 0.03897
v 0.06189 -0.00458 0.03667
v 0.03668 0.01834 0.02980
v 0.03668 0.02750 0.01834
v 0.07106 -0.02063 0.01605
v 0.06877 0.02750 0.04126
v 0.06877 -0.01374 0.02980
v 0.07106 0.01145 0.03667
v 0.06877 0.03208 0.03897
v 0.02979 -0.05731 -0.01834
v -0.05271 -0.05502 -0.03897
v -0.05730 -0.05502 -0.03439
v -0.00001 -0.04585 -0.02751
v -0.05042 -0.05043 0.00916
v -0.04583 -0.06190 0.00916
v 0.02750 -0.06419 -0.02980
v 0.02750 -0.05731 0.00916
v -0.05501 -0.04585 -0.03209
v -0.04583 -0.06190 -0.03209
v 0.00916 -0.05502 -0.03897
v 0.02750 -0.06190 0.00916
v -0.00459 -0.05043 0.00916
v -0.01603 -0.06419 -0.03209
v 0.02750 -0.06419 -0.01605
v 0.02979 -0.05731 -0.02980
v 0.00916 -0.05960 -0.03897
v -0.04125 -0.05043 -0.03897
v -0.04125 -0.05960 -0.03897
v -0.05042 -0.05960 0.00916
v -0.00001 -0.04585 -0.02980
v -0.05730 -0.05043 -0.02522
v -0.01833 -0.06419 -0.02063
v -0.05271 -0.05960 -0.03209
v 0.02521 -0.05731 -0.03439
v 0.02979 -0.06419 -0.02063
v 0.00228 -0.05273 -0.03897
v 0.01375 -0.06190 -0.03667
v -0.05501 -0.04585 -0.02980
v -0.05271 -0.04814 -0.03667
v -0.03437 -0.06190 -0.03667
v -0.05730 -0.05502 -0.02522
v -0.05730 -0.04814 -0.03439
v 0.02521 -0.06190 -0.03439
v -0.04354 -0.04814 -0.03667
v 0.02062 -0.05502 -0.03439
v -0.05730 -0.04814 -0.02751
v -0.01603 -0.06419 -0.01834
v -0.00001 -0.05043 -0.03667
v -0.05042 -0.05731 -0.03897
v 0.02979 -0.06190 -0.02980
v -0.05042 -0.05043 -0.03897
v 0.00229 -0.01376 -0.02751
v -0.00458 -0.04585 -0.02980
v -0.00458 -0.04585 -0.02751
v 0.00459 -0.04126 -0.02980
v -0.00229 -0.03668 -0.03439
v -0.00458 -0.02522 -0.02980
v 0.00229 -0.03897 -0.02522
v -0.00229 -0.02980 -0.02522
v 0.00229 -0.04126 -0.03439
v 0.00229 -0.01376 -0.02980
v 0.00229 -0.04585 -0.02751
v -0.00229 -0.01605 -0.02980
v -0.00458 -0.02522 -0.02751
v 0.00459 -0.03439 -0.02751
v -0.00458 -0.04356 -0.03210
v -0.00229 -0.01605 -0.02751
v 0.00229 -0.03668 -0.03439
v 0.00229 -0.02980 -0.02522
v 0.00459 -0.03439 -0.02980
v -0.04354 -0.06190 0.01604
v -0.01833 -0.04814 0.01834
v -0.01833 -0.04814 0.01375
v 0.02750 -0.06190 0.00917
v -0.05043 -0.05043 0.00917
v 0.02521 -0.06190 0.01834
v -0.04354 -0.05273 0.02063
v -0.04584 -0.06190 0.00917
v 0.02979 -0.05731 0.00917
v -0.03208 -0.06190 0.02063
v -0.02062 -0.04814 0.02063
v 0.02979 -0.05731 0.01604
v -0.00459 -0.05043 0.00917
v -0.05043 -0.05043 0.01834
v -0.05043 -0.05731 0.01834
v -0.00230 -0.05960 0.02063
v -0.02979 -0.04814 0.01146
v 0.02521 -0.05731 0.01834
v -0.05043 -0.05960 0.00917
v -0.03208 -0.04814 0.01834
v -0.04813 -0.05960 0.01834
v -0.04354 -0.05731 0.02063
v 0.02979 -0.05960 0.01604
v 0.03668 0.02520 0.02750
v -0.05959 -0.02749 0.01605
v -0.05729 -0.02979 0.01605
v -0.00000 0.04812 0.01146
v -0.04812 0.06416 0.01834
v 0.02979 -0.01832 0.01375
v 0.00916 0.01375 0.03438
v -0.02062 -0.04814 0.01375
v -0.05959 -0.01604 0.02292
v -0.05959 0.02062 0.01375
v -0.02062 -0.04355 0.02063
v 0.03208 -0.01604 0.02292
v -0.05959 0.02520 0.02292
v 0.03668 0.02520 0.01605
v -0.02292 0.06416 0.01834
v 0.00916 0.02062 0.03438
v -0.05959 -0.02521 0.01375
v 0.03668 0.00916 0.02980
v -0.04812 0.06416 0.01605
v 0.03668 0.02979 0.01834
v -0.04812 -0.03438 0.02063
v 0.03437 -0.01604 0.01605
v -0.00918 0.05042 0.01146
v -0.05271 0.03667 0.02292
v 0.02979 0.02062 0.01375
v -0.02062 -0.04814 0.01834
v 0.03668 0.02979 0.02521
v -0.02750 -0.04814 0.01375
v 0.00686 0.04812 0.01375
v 0.01374 0.02062 0.03438
v 0.01374 0.01375 0.03438
v -0.04812 0.04584 0.01375
v -0.05959 0.03208 0.01605
v -0.02292 0.06416 0.01605
v -0.02750 -0.04355 0.02063
v 0.01603 0.02979 0.02980
v 0.03208 -0.01832 0.02063
v -0.02750 -0.04814 0.01834
v -0.00918 0.04354 0.01146
v 0.03668 0.00001 0.01834
v -0.00000 0.04354 0.01146
v -0.05500 -0.03208 0.01834
v 0.03437 0.02750 0.02750
v 0.03668 0.01833 0.02980
v 0.03437 -0.01604 0.02063
v 0.03208 -0.01832 0.01605
v -0.05959 -0.02521 0.02063
v 0.00686 0.04812 0.01834
v 0.03437 0.00688 0.02980
v -0.04812 0.05271 0.02063
v -0.05271 0.05271 0.01834
v 0.03668 0.00916 0.01605
v -0.05959 0.03208 0.01834
v -0.05500 -0.03208 0.01605
f 42 30 60 
f 3 2 6 
f 7 4 9 
f 7 9 15 
f 6 2 16 
f 2 13 16 
f 3 6 19 
f 6 8 19 
f 13 2 20 
f 7 13 20 
f 10 18 21 
f 9 4 22 
f 15 9 26 
f 11 15 26 
f 9 21 26 
f 8 6 27 
f 3 5 28 
f 7 15 29 
f 28 5 30 
f 10 21 31 
f 30 5 31 
f 8 27 32 
f 27 11 32 
f 10 8 33 
f 8 32 33 
f 2 3 34 
f 12 2 34 
f 3 28 34 
f 28 12 34 
f 8 10 35 
f 19 8 35 
f 24 6 36 
f 5 23 38 
f 23 19 38 
f 31 5 38 
f 10 31 38 
f 35 10 38 
f 19 35 38 
f 15 11 39 
f 29 15 39 
f 14 25 40 
f 12 28 40 
f 30 14 40 
f 28 30 40 
f 21 18 41 
f 26 21 41 
f 21 9 42 
f 4 7 43 
f 7 20 43 
f 20 37 43 
f 7 29 44 
f 11 24 45 
f 39 11 45 
f 29 39 45 
f 24 44 45 
f 44 29 45 
f 2 12 46 
f 20 2 46 
f 37 20 46 
f 22 4 47 
f 14 22 47 
f 4 25 47 
f 25 14 47 
f 6 16 48 
f 36 6 48 
f 36 48 49 
f 16 13 49 
f 17 36 49 
f 48 16 49 
f 9 22 50 
f 22 14 50 
f 14 30 50 
f 42 9 50 
f 30 42 50 
f 26 1 51 
f 11 26 51 
f 18 32 51 
f 32 11 51 
f 24 11 52 
f 6 24 52 
f 27 6 52 
f 11 27 52 
f 25 4 53 
f 4 43 53 
f 43 37 53 
f 37 46 53 
f 36 17 54 
f 24 36 54 
f 17 44 54 
f 44 24 54 
f 18 10 55 
f 32 18 55 
f 10 33 55 
f 33 32 55 
f 5 3 56 
f 3 19 56 
f 23 5 56 
f 19 23 56 
f 1 26 57 
f 41 18 57 
f 26 41 57 
f 51 1 57 
f 18 51 57 
f 13 7 58 
f 7 44 58 
f 44 17 58 
f 49 13 58 
f 17 49 58 
f 12 40 59 
f 40 25 59 
f 46 12 59 
f 25 53 59 
f 53 46 59 
f 31 21 60 
f 30 31 60 
f 21 42 60 
