# Original object name hint: convex_2
v -0.07106 -0.00229 -0.03438
v -0.05960 0.02520 0.02292
v -0.05960 0.03209 0.02062
v -0.07336 0.04125 0.01603
v -0.06648 0.06419 -0.02521
v -0.05960 -0.02522 0.01374
v -0.07336 -0.01374 0.01833
v -0.06189 -0.01605 -0.02750
v -0.07336 0.03437 -0.03438
v -0.06419 0.02520 -0.04126
v -0.06877 -0.02292 -0.02521
v -0.06648 0.04814 0.01833
v -0.07106 -0.01146 0.02292
v -0.07106 0.05959 -0.01834
v -0.07336 -0.00229 -0.02521
v -0.05960 -0.01605 0.02292
v -0.06877 -0.02292 0.01833
v -0.06877 0.00688 -0.04126
v -0.05960 0.02978 0.01374
v -0.07106 0.01605 0.02292
v -0.07106 0.02750 -0.04126
v -0.07336 0.05042 -0.02521
v -0.06419 0.05042 -0.02521
v -0.06877 -0.02522 -0.00230
v -0.07106 0.04814 0.01603
v -0.07336 0.00688 -0.03438
v -0.06419 -0.02292 -0.02292
v -0.06648 0.06419 -0.02063
v -0.07336 -0.01374 0.00228
v -0.06877 0.06419 -0.02521
v -0.06648 0.03209 -0.04126
v -0.06419 -0.01834 -0.02980
v -0.06419 0.00460 -0.03897
v -0.06419 0.04584 0.01833
v -0.06189 -0.00457 -0.02750
v -0.06419 -0.02522 0.01833
v -0.07106 0.03437 0.02062
v -0.06419 0.03209 -0.03897
v -0.07106 -0.01834 -0.01834
v -0.06877 0.06419 -0.02063
v -0.07106 0.01147 -0.04126
v -0.07106 0.03437 -0.03897
v -0.07336 0.03437 0.01833
v -0.07106 -0.02063 0.01603
v -0.07106 -0.02063 -0.00689
v -0.06877 0.02520 0.02292
v -0.07336 0.04354 0.01374
v -0.05960 -0.02292 0.02062
v -0.06877 -0.01605 0.02292
v -0.07106 0.05959 -0.02521
v -0.06877 -0.02063 -0.02750
v -0.06419 -0.02522 -0.00230
v -0.07106 0.04584 0.01833
v -0.06877 -0.02522 0.00916
v -0.06648 0.00688 -0.04126
v -0.05960 0.03209 0.01603
v -0.07106 0.00460 -0.03897
v -0.07106 -0.01834 0.02062
v -0.06877 0.04814 0.01833
v -0.06877 0.03209 -0.04126
v 0.06190 -0.02980 -0.01834
v 0.06877 0.05502 0.01375
v 0.06648 0.05502 0.01375
v 0.06190 0.04354 -0.02521
v 0.05502 -0.02292 0.01375
v 0.07107 -0.02063 0.01375
v 0.07107 0.02521 -0.02063
v 0.05731 0.03208 -0.02292
v 0.06648 -0.01833 -0.02521
v 0.07336 0.04354 0.00687
v 0.05731 -0.02063 -0.02063
v 0.05960 0.02980 0.01375
v 0.06190 0.00689 -0.02980
v 0.06648 -0.03209 0.01375
v 0.06877 0.04125 -0.02292
v 0.06877 -0.02751 -0.00459
v 0.06648 0.02749 -0.02980
v 0.07336 0.01375 0.01375
v 0.05731 -0.02980 0.00228
v 0.05960 -0.02521 -0.02521
v 0.07336 0.02292 -0.00001
v 0.05731 0.01375 0.01375
v 0.05731 0.02980 -0.02521
v 0.05502 -0.02292 0.00458
v 0.07107 -0.01833 0.00458
v 0.06648 -0.02521 -0.02292
v 0.05731 0.03208 -0.01604
v 0.05960 -0.03209 0.01375
v 0.05502 -0.01374 0.01375
v 0.07107 0.02062 -0.02063
v 0.07336 0.04354 0.01375
v 0.06877 0.01146 -0.02751
v 0.06648 -0.03209 -0.00230
v 0.06877 0.05502 0.00916
v 0.06190 0.04584 -0.02063
v 0.06648 0.04354 -0.02521
v 0.06190 0.02749 -0.02980
v 0.06190 0.04125 0.01375
v 0.06648 -0.00916 -0.02751
v 0.05731 0.01375 -0.02521
v 0.06877 0.03208 -0.02751
v 0.05960 -0.03209 -0.00001
v 0.06877 -0.02980 0.01375
v 0.07336 0.03667 -0.00001
v 0.07107 0.05042 0.00687
v 0.05960 -0.02980 -0.01604
v 0.05960 0.03896 -0.01146
v 0.05960 -0.00916 -0.02751
v 0.06648 0.01375 -0.02980
v 0.06648 -0.02980 -0.01375
v 0.06877 -0.02980 -0.00001
v 0.06419 -0.02521 -0.02521
v 0.07107 0.01603 -0.01834
v 0.05502 -0.01605 0.00458
v 0.07107 0.03208 -0.01834
v 0.05960 0.03438 -0.02751
v 0.07336 0.01375 0.00916
v 0.07336 0.02750 0.03438
v 0.03668 0.00459 0.02063
v 0.03668 0.00459 0.02751
v 0.06648 -0.03209 0.01605
v 0.06877 0.05042 0.01375
v 0.03897 0.02292 0.03897
v 0.06419 -0.00458 0.03667
v 0.03897 0.02521 0.01605
v 0.06648 0.02979 0.04126
v 0.05960 -0.03209 0.01375
v 0.07336 0.01145 0.01375
v 0.03668 0.02979 0.02521
v 0.03897 0.01375 0.03897
v 0.06877 -0.02291 0.02521
v 0.05960 -0.02291 0.02521
v 0.06877 0.01375 0.04126
v 0.07336 0.04354 0.02063
v 0.06648 0.04584 0.02292
v 0.07106 -0.02063 0.01375
v 0.05273 0.01604 0.01375
v 0.05502 0.01145 0.04126
v 0.07336 0.01604 0.03209
v 0.03668 0.00688 0.01834
v 0.03668 0.02979 0.02063
v 0.07336 0.04354 0.01375
v 0.06648 0.05042 0.01605
v 0.06189 -0.01374 0.03209
v 0.07106 0.04584 0.02292
v 0.06419 0.04813 0.01375
v 0.05502 -0.02063 0.01375
v 0.05960 -0.03209 0.01605
v 0.06419 0.03208 0.03897
v 0.07106 0.03208 0.03667
v 0.05273 0.02062 0.04126
v 0.03897 0.01604 0.01605
v 0.06877 -0.02979 0.01375
v 0.06648 0.00917 0.04126
v 0.07106 0.01834 0.03897
v 0.06189 -0.00458 0.03667
v 0.03668 0.01834 0.02980
v 0.03668 0.02750 0.01834
v 0.07106 -0.02063 0.01605
v 0.06877 0.02750 0.04126
v 0.06877 -0.01374 0.02980
v 0.07106 0.01145 0.03667
v 0.06877 0.03208 0.03897
v 0.02979 -0.05731 -0.01834
v -0.05271 -0.05502 -0.03897
v -0.05730 -0.05502 -0.03439
v -0.00001 -0.04585 -0.02751
v -0.05042 -0.05043 0.00916
v -0.04583 -0.06190 0.00916
v 0.02750 -0.06419 -0.02980
v 0.02750 -0.05731 0.00916
v -0.05501 -0.04585 -0.03209
v -0.04583 -0.06190 -0.03209
v 0.00916 -0.05502 -0.03897
v 0.02750 -0.06190 0.00916
v -0.00459 -0.05043 0.00916
v -0.01603 -0.06419 -0.03209
v 0.02750 -0.06419 -0.01605
v 0.02979 -0.05731 -0.02980
v 0.00916 -0.05960 -0.03897
v -0.04125 -0.05043 -0.03897
v -0.04125 -0.05960 -0.03897
v -0.05042 -0.05960 0.00916
v -0.00001 -0.04585 -0.02980
v -0.05730 -0.05043 -0.02522
v -0.01833 -0.06419 -0.02063
v -0.05271 -0.05960 -0.03209
v 0.02521 -0.05731 -0.03439
v 0.02979 -0.06419 -0.02063
v 0.00228 -0.05273 -0.03897
v 0.01375 -0.06190 -0.03667
v -0.05501 -0.04585 -0.02980
v -0.05271 -0.04814 -0.03667
v -0.03437 -0.06190 -0.03667
v -0.05730 -0.05502 -0.02522
v -0.05730 -0.04814 -0.03439
v 0.02521 -0.06190 -0.03439
v -0.04354 -0.04814 -0.03667
v 0.02062 -0.05502 -0.03439
v -0.05730 -0.04814 -0.02751
v -0.01603 -0.06419 -0.01834
v -0.00001 -0.05043 -0.03667
v -0.05042 -0.05731 -0.03897
v 0.02979 -0.06190 -0.02980
v -0.05042 -0.05043 -0.03897
v 0.00229 -0.01376 -0.02751
v -0.00458 -0.04585 -0.02980
v -0.00458 -0.04585 -0.02751
v 0.00459 -0.04126 -0.02980
v -0.00229 -0.03668 -0.03439
v -0.00458 -0.02522 -0.02980
v 0.00229 -0.03897 -0.02522
v -0.00229 -0.02980 -0.02522
v 0.00229 -0.04126 -0.03439
v 0.00229 -0.01376 -0.02980
v 0.00229 -0.04585 -0.02751
v -0.00229 -0.01605 -0.02980
v -0.00458 -0.02522 -0.02751
v 0.00459 -0.03439 -0.02751
v -0.00458 -0.04356 -0.03210
v -0.00229 -0.01605 -0.02751
v 0.00229 -0.03668 -0.03439
v 0.00229 -0.02980 -0.02522
v 0.00459 -0.03439 -0.02980
v -0.04354 -0.06190 0.01604
v -0.01833 -0.04814 0.01834
v -0.01833 -0.04814 0.01375
v 0.02750 -0.06190 0.00917
v -0.05043 -0.05043 0.00917
v 0.02521 -0.06190 0.01834
v -0.04354 -0.05273 0.02063
v -0.04584 -0.06190 0.00917
v 0.02979 -0.05731 0.00917
v -0.03208 -0.06190 0.02063
v -0.02062 -0.04814 0.02063
v 0.02979 -0.05731 0.01604
v -0.00459 -0.05043 0.00917
v -0.05043 -0.05043 0.01834
v -0.05043 -0.05731 0.01834
v -0.00230 -0.05960 0.02063
v -0.02979 -0.04814 0.01146
v 0.02521 -0.05731 0.01834
v -0.05043 -0.05960 0.00917
v -0.03208 -0.04814 0.01834
v -0.04813 -0.05960 0.01834
v -0.04354 -0.05731 0.02063
v 0.02979 -0.05960 0.01604
v 0.03668 0.02520 0.02750
v -0.05959 -0.02749 0.01605
v -0.05729 -0.02979 0.01605
v -0.00000 0.04812 0.01146
v -0.04812 0.06416 0.01834
v 0.02979 -0.01832 0.01375
v 0.00916 0.01375 0.03438
v -0.02062 -0.04814 0.01375
v -0.05959 -0.01604 0.02292
v -0.05959 0.02062 0.01375
v -0.02062 -0.04355 0.02063
v 0.03208 -0.01604 0.02292
v -0.05959 0.02520 0.02292
v 0.03668 0.02520 0.01605
v -0.02292 0.06416 0.01834
v 0.00916 0.02062 0.03438
v -0.05959 -0.02521 0.01375
v 0.03668 0.00916 0.02980
v -0.04812 0.06416 0.01605
v 0.03668 0.02979 0.01834
v -0.04812 -0.03438 0.02063
v 0.03437 -0.01604 0.01605
v -0.00918 0.05042 0.01146
v -0.05271 0.03667 0.02292
v 0.02979 0.02062 0.01375
v -0.02062 -0.04814 0.01834
v 0.03668 0.02979 0.02521
v -0.02750 -0.04814 0.01375
v 0.00686 0.04812 0.01375
v 0.01374 0.02062 0.03438
v 0.01374 0.01375 0.03438
v -0.04812 0.04584 0.01375
v -0.05959 0.03208 0.01605
v -0.02292 0.06416 0.01605
v -0.02750 -0.04355 0.02063
v 0.01603 0.02979 0.02980
v 0.03208 -0.01832 0.02063
v -0.02750 -0.04814 0.01834
v -0.00918 0.04354 0.01146
v 0.03668 0.00001 0.01834
v -0.00000 0.04354 0.01146
v -0.05500 -0.03208 0.01834
v 0.03437 0.02750 0.02750
v 0.03668 0.01833 0.02980
v 0.03437 -0.01604 0.02063
v 0.03208 -0.01832 0.01605
v -0.05959 -0.02521 0.02063
v 0.00686 0.04812 0.01834
v 0.03437 0.00688 0.02980
v -0.04812 0.05271 0.02063
v -0.05271 0.05271 0.01834
v 0.03668 0.00916 0.01605
v -0.05959 0.03208 0.01834
v -0.05500 -0.03208 0.01605
f 160 150 163 
f 120 119 127 
f 127 122 128 
f 119 120 129 
f 130 120 132 
f 121 131 132 
f 118 128 134 
f 127 128 136 
f 122 127 137 
f 133 126 138 
f 128 118 139 
f 127 119 140 
f 119 129 140 
f 140 129 141 
f 128 122 142 
f 122 134 142 
f 134 128 142 
f 129 123 143 
f 123 135 143 
f 141 129 143 
f 131 124 144 
f 130 132 144 
f 132 131 144 
f 134 122 145 
f 122 143 145 
f 143 135 145 
f 122 137 146 
f 137 125 146 
f 143 122 146 
f 141 143 146 
f 137 127 147 
f 127 140 147 
f 120 127 148 
f 127 121 148 
f 132 120 148 
f 121 132 148 
f 123 126 149 
f 135 123 149 
f 145 135 149 
f 118 134 150 
f 134 145 150 
f 126 123 151 
f 123 130 151 
f 138 126 151 
f 130 138 151 
f 125 137 152 
f 140 125 152 
f 137 147 152 
f 147 140 152 
f 121 127 153 
f 131 121 153 
f 127 136 153 
f 133 138 154 
f 139 118 155 
f 138 130 156 
f 144 124 156 
f 130 144 156 
f 124 154 156 
f 154 138 156 
f 129 120 157 
f 123 129 157 
f 120 130 157 
f 130 123 157 
f 125 140 158 
f 140 141 158 
f 146 125 158 
f 141 146 158 
f 136 128 159 
f 128 139 159 
f 139 131 159 
f 131 153 159 
f 153 136 159 
f 126 133 160 
f 118 150 160 
f 133 155 160 
f 155 118 160 
f 124 131 161 
f 154 124 161 
f 133 154 161 
f 131 139 162 
f 155 133 162 
f 139 155 162 
f 161 131 162 
f 133 161 162 
f 149 126 163 
f 145 149 163 
f 150 145 163 
f 126 160 163 
