# Original object name hint: convex_0
v 0.05400 -0.04050 -0.03427
v 0.06230 0.01557 0.03219
v 0.06438 0.01764 0.03010
v 0.05608 0.04464 -0.03011
v 0.04569 0.01142 0.03010
v 0.06230 -0.04050 0.00726
v 0.06646 0.01972 -0.01765
v 0.04777 0.00932 -0.03427
v 0.04777 -0.03635 -0.00313
v 0.06230 -0.00726 -0.03842
v 0.06230 0.04464 -0.00105
v 0.05400 -0.03219 0.01764
v 0.06646 0.00102 0.02802
v 0.06230 0.02803 -0.03635
v 0.04569 -0.00104 0.03010
v 0.06230 -0.04050 -0.00727
v 0.05400 -0.04674 0.00310
v 0.05400 0.01557 -0.04049
v 0.06646 0.03218 0.00102
v 0.04777 0.01972 -0.03011
v 0.05192 -0.03635 -0.03635
v 0.05815 0.04464 -0.00105
v 0.05815 -0.04050 -0.03427
v 0.06438 -0.00311 0.03010
v 0.04569 0.01557 0.01141
v 0.06646 0.00517 -0.01350
v 0.04569 -0.00934 0.00726
v 0.04777 -0.03635 -0.00934
v 0.04985 -0.03843 0.00726
v 0.05192 -0.04465 -0.02388
v 0.05815 -0.04674 -0.01142
v 0.06438 0.03634 -0.01558
v 0.06023 -0.00726 -0.04049
v 0.05815 0.02595 0.02179
v 0.04985 0.00102 0.03219
v 0.06023 -0.03219 0.01764
v 0.06023 -0.03635 -0.03219
v 0.04777 0.00102 -0.03427
v 0.06646 -0.00311 0.01141
v 0.06646 0.01764 0.02595
v 0.05815 0.04464 -0.03011
v 0.05400 -0.00934 -0.04049
v 0.04985 0.00932 -0.03842
v 0.06023 0.01764 -0.04049
v 0.04985 0.01972 -0.03635
v 0.04569 0.01557 0.01764
v 0.05815 -0.03843 -0.03635
v 0.04985 -0.04258 -0.00105
v 0.06438 0.00310 0.03219
v 0.06023 -0.00519 0.03010
v 0.05815 -0.04674 0.00310
v 0.06230 0.04464 -0.01142
v 0.06646 0.03011 -0.01142
v 0.05815 0.01557 0.03219
v 0.06230 -0.03219 0.01556
v 0.05400 0.02388 -0.03842
v 0.05400 -0.01973 0.02387
v 0.05815 -0.04465 -0.02388
v 0.06230 0.01764 -0.03842
v 0.04985 -0.00311 -0.03842
v 0.06023 0.04048 -0.03011
v 0.05192 -0.04258 0.00726
v 0.06646 -0.00104 -0.00105
v 0.05192 -0.04258 -0.03011
v 0.01245 0.00518 0.01972
v -0.06646 -0.00726 0.00726
v -0.06022 -0.03427 0.00519
v -0.00416 0.03633 0.00103
v 0.01661 -0.03219 0.00311
v -0.02078 0.05088 0.00726
v -0.03323 -0.04880 0.00934
v -0.06646 0.00310 0.01142
v 0.01661 0.02179 0.00726
v -0.01040 0.00518 0.01972
v 0.01661 -0.01972 0.01557
v -0.02907 -0.04880 0.00311
v -0.06230 -0.02388 0.01142
v -0.01663 0.03841 0.00103
v -0.00209 -0.00934 0.01972
v -0.00625 0.05088 0.00726
v 0.00829 0.02179 0.01765
v -0.05815 0.01556 0.00726
v -0.05607 0.01764 0.01142
v 0.01661 -0.03219 0.00934
v 0.01661 0.01971 0.01557
v 0.01661 0.01141 0.00311
v -0.00625 0.01141 0.01972
v -0.04361 -0.03011 0.00311
v -0.00625 0.04879 0.00311
v -0.06022 -0.01557 0.00519
v -0.02078 0.05088 0.00519
v -0.02907 -0.05088 0.00726
v 0.01037 -0.00934 0.01972
v -0.06646 0.00310 0.00726
v -0.05815 -0.02803 0.01142
v -0.03530 -0.05088 0.00726
v 0.01661 -0.02596 0.01349
v -0.02286 -0.04880 0.00311
v -0.00416 0.03010 0.00103
v -0.01247 -0.01765 0.01765
v 0.00829 -0.01765 0.01765
v -0.01040 -0.00104 0.01972
v -0.06438 -0.01972 0.01142
v -0.06022 -0.03427 0.00726
v 0.01452 -0.00104 0.01972
v -0.03530 -0.05088 0.00519
v -0.01663 0.03217 0.00103
v 0.01661 0.01349 0.01765
v -0.00002 0.01349 0.01972
v 0.01661 0.02179 0.01349
v 0.01661 0.01971 0.00519
v 0.01661 -0.03011 0.01142
v -0.00832 -0.00519 0.01972
v -0.03738 -0.04257 0.00311
v -0.06646 -0.00726 0.01142
v -0.03115 -0.04880 0.00934
v -0.06438 0.00725 0.01142
v -0.04361 -0.02181 0.00311
v 0.00206 0.02179 0.01765
v -0.00625 0.05088 0.00519
v 0.01661 -0.01142 0.01765
v 0.00622 0.01349 0.01972
v -0.02286 -0.04880 0.00726
v -0.06438 -0.01972 0.00726
v -0.03323 -0.04673 0.00311
v -0.00832 0.00933 0.01972
v -0.01040 0.04879 0.00311
v 0.01452 0.02179 0.01557
v 0.00208 -0.00728 0.02180
v 0.03322 0.01765 0.02803
v 0.04569 0.01142 0.02803
v 0.04569 0.01142 0.01973
v 0.00000 0.01557 0.02596
v 0.01662 -0.00728 0.02803
v 0.04569 -0.00312 0.01973
v 0.00208 0.00726 0.01973
v -0.00208 0.00519 0.02803
v 0.04569 -0.00104 0.02803
v 0.00000 -0.00520 0.01973
v 0.02907 0.01765 0.02388
v 0.00416 0.01765 0.02803
v 0.00416 -0.00728 0.02803
v 0.00831 -0.00728 0.01973
v 0.04569 -0.00312 0.02596
v 0.03114 0.01557 0.02180
v 0.00416 0.01765 0.02596
v -0.00208 0.01349 0.02596
v 0.00000 -0.00312 0.02803
v 0.00000 0.00519 0.01973
v 0.03322 0.01765 0.02388
v -0.00208 0.01349 0.02803
v 0.01662 -0.00728 0.02596
v 0.03738 0.01142 0.01973
v 0.00624 -0.01143 0.02803
v 0.01037 0.01972 0.03219
v 0.01452 0.01765 0.03426
v -0.02701 -0.00312 0.03842
v 0.02491 0.00104 0.03842
v 0.04569 0.00934 0.02803
v -0.00830 0.01349 0.02803
v 0.01868 -0.01558 0.03011
v -0.02284 0.00726 0.03842
v -0.02284 -0.01143 0.03634
v 0.04569 -0.00104 0.02803
v -0.02701 -0.00312 0.03426
v -0.00415 0.00311 0.04050
v 0.03322 0.01765 0.02803
v 0.02283 0.00726 0.03842
v -0.00623 0.01557 0.03634
v -0.00830 0.01765 0.03011
v 0.04569 0.00934 0.03011
v 0.04569 -0.00104 0.03011
v -0.00415 -0.00104 0.04050
v -0.02701 0.00311 0.03426
v 0.01452 -0.01558 0.02803
v -0.02492 -0.00935 0.03426
v 0.03322 0.01765 0.03011
v 0.00624 0.01972 0.02803
v -0.00415 -0.00104 0.02803
v -0.00000 -0.00519 0.03842
v -0.00830 0.01765 0.03426
v 0.02491 0.01557 0.03426
v 0.00624 0.01557 0.03634
v -0.02492 -0.00727 0.03842
v -0.00830 0.00726 0.02803
v -0.02284 -0.01143 0.03426
v -0.02701 0.00311 0.03842
v 0.01868 -0.01558 0.02803
v 0.02491 0.00518 0.03842
v -0.01453 0.00934 0.03842
v 0.01660 -0.00519 0.03634
v -0.01662 -0.00727 0.03842
v -0.00623 0.00311 0.04050
v -0.02076 -0.01143 0.03634
v -0.02284 0.00726 0.03426
v 0.01868 0.01349 0.03634
v 0.00832 0.00934 0.03842
v 0.02283 -0.01350 0.03011
v 0.01869 -0.03428 0.00519
v 0.02907 -0.00935 0.01765
v 0.01661 -0.00935 0.01765
v 0.01661 -0.00935 0.00519
v 0.02492 -0.02805 -0.00105
v 0.02492 -0.03012 0.01141
v 0.02907 -0.00935 0.00934
v 0.01661 -0.03012 0.01141
v 0.02700 -0.03012 0.00311
v 0.01661 -0.03220 0.00311
v 0.02700 -0.01558 0.01765
v 0.02492 -0.00935 0.00519
v 0.02284 -0.03220 -0.00105
v 0.02700 -0.03012 0.00934
v 0.02907 -0.01558 0.01557
v 0.02284 -0.03428 0.00519
v 0.01661 -0.01974 0.01557
v 0.01869 -0.02597 0.00103
v 0.02907 -0.01558 0.00934
v 0.02492 -0.03220 -0.00105
v 0.01661 -0.03220 0.00934
v 0.02284 -0.01558 0.01765
v 0.02284 -0.02805 -0.00105
v 0.01661 -0.01974 0.00311
v 0.01869 -0.03428 0.00311
v 0.02700 -0.02805 0.01141
v 0.02492 -0.03220 0.00934
v 0.02077 -0.00312 0.00311
v 0.02077 0.01973 0.01349
v 0.02077 0.01973 0.00934
v 0.04569 -0.00727 0.01765
v 0.01662 -0.00935 0.01765
v 0.04569 0.01349 0.00934
v 0.04569 0.01349 0.01973
v 0.04569 -0.00935 0.00934
v 0.01662 0.01765 0.00519
v 0.01662 0.01142 0.01765
v 0.01662 -0.00935 0.00519
v 0.03115 -0.00312 0.01973
v 0.04361 0.00726 0.00727
v 0.03945 0.01765 0.01142
v 0.01662 0.01973 0.01557
v 0.01869 0.00934 0.00311
v 0.04569 -0.00519 0.01973
v 0.03323 0.01349 0.01973
v 0.01662 -0.00727 0.00311
v 0.04569 0.01557 0.01765
v 0.03115 -0.00935 0.01765
v 0.04361 0.01557 0.00934
v 0.02908 0.00934 0.01973
v 0.01869 0.01973 0.00727
v 0.03945 0.01765 0.01557
v 0.04361 0.00311 0.00727
v 0.04569 -0.00935 0.01349
v 0.01869 0.01765 0.00519
v 0.01869 -0.00727 0.00311
v 0.02077 0.00519 0.00311
v 0.02492 -0.00935 0.00519
v 0.01662 0.00934 0.00311
v 0.04569 0.01557 0.01142
v 0.04153 0.00934 0.00727
f 58 30 64 
f 13 7 19 
f 11 4 22 
f 15 5 25 
f 4 20 25 
f 20 8 25 
f 10 7 26 
f 7 13 26 
f 9 15 27 
f 25 8 27 
f 15 25 27 
f 9 27 28 
f 15 9 29 
f 16 6 31 
f 17 30 31 
f 2 3 34 
f 3 11 34 
f 22 5 34 
f 11 22 34 
f 5 15 35 
f 12 17 36 
f 10 26 37 
f 26 16 37 
f 27 8 38 
f 21 28 38 
f 28 27 38 
f 13 6 39 
f 6 16 39 
f 26 13 39 
f 11 3 40 
f 19 11 40 
f 13 19 40 
f 4 11 41 
f 18 33 42 
f 38 8 43 
f 18 42 43 
f 10 33 44 
f 33 18 44 
f 20 4 45 
f 8 20 45 
f 18 43 45 
f 43 8 45 
f 22 4 46 
f 5 22 46 
f 25 5 46 
f 4 25 46 
f 1 21 47 
f 23 1 47 
f 33 10 47 
f 10 37 47 
f 37 23 47 
f 42 33 47 
f 21 42 47 
f 9 28 48 
f 29 9 48 
f 30 17 48 
f 28 30 48 
f 3 2 49 
f 24 13 49 
f 2 35 49 
f 40 3 49 
f 13 40 49 
f 36 24 50 
f 24 49 50 
f 49 35 50 
f 31 6 51 
f 17 31 51 
f 6 36 51 
f 36 17 51 
f 11 19 52 
f 41 11 52 
f 7 14 53 
f 19 7 53 
f 14 32 53 
f 52 19 53 
f 32 52 53 
f 2 34 54 
f 34 5 54 
f 35 2 54 
f 5 35 54 
f 6 13 55 
f 13 24 55 
f 24 36 55 
f 36 6 55 
f 4 41 56 
f 41 14 56 
f 14 44 56 
f 44 18 56 
f 45 4 56 
f 18 45 56 
f 15 12 57 
f 35 15 57 
f 12 36 57 
f 50 35 57 
f 36 50 57 
f 16 31 58 
f 31 30 58 
f 23 37 58 
f 37 16 58 
f 7 10 59 
f 14 7 59 
f 10 44 59 
f 44 14 59 
f 21 38 60 
f 42 21 60 
f 38 43 60 
f 43 42 60 
f 32 14 61 
f 14 41 61 
f 52 32 61 
f 41 52 61 
f 12 15 62 
f 17 12 62 
f 15 29 62 
f 29 48 62 
f 48 17 62 
f 16 26 63 
f 39 16 63 
f 26 39 63 
f 21 1 64 
f 1 23 64 
f 28 21 64 
f 30 28 64 
f 23 58 64 
