# Original object name hint: convex_3
v 0.05400 -0.04050 -0.03427
v 0.06230 0.01557 0.03219
v 0.06438 0.01764 0.03010
v 0.05608 0.04464 -0.03011
v 0.04569 0.01142 0.03010
v 0.06230 -0.04050 0.00726
v 0.06646 0.01972 -0.01765
v 0.04777 0.00932 -0.03427
v 0.04777 -0.03635 -0.00313
v 0.06230 -0.00726 -0.03842
v 0.06230 0.04464 -0.00105
v 0.05400 -0.03219 0.01764
v 0.06646 0.00102 0.02802
v 0.06230 0.02803 -0.03635
v 0.04569 -0.00104 0.03010
v 0.06230 -0.04050 -0.00727
v 0.05400 -0.04674 0.00310
v 0.05400 0.01557 -0.04049
v 0.06646 0.03218 0.00102
v 0.04777 0.01972 -0.03011
v 0.05192 -0.03635 -0.03635
v 0.05815 0.04464 -0.00105
v 0.05815 -0.04050 -0.03427
v 0.06438 -0.00311 0.03010
v 0.04569 0.01557 0.01141
v 0.06646 0.00517 -0.01350
v 0.04569 -0.00934 0.00726
v 0.04777 -0.03635 -0.00934
v 0.04985 -0.03843 0.00726
v 0.05192 -0.04465 -0.02388
v 0.05815 -0.04674 -0.01142
v 0.06438 0.03634 -0.01558
v 0.06023 -0.00726 -0.04049
v 0.05815 0.02595 0.02179
v 0.04985 0.00102 0.03219
v 0.06023 -0.03219 0.01764
v 0.06023 -0.03635 -0.03219
v 0.04777 0.00102 -0.03427
v 0.06646 -0.00311 0.01141
v 0.06646 0.01764 0.02595
v 0.05815 0.04464 -0.03011
v 0.05400 -0.00934 -0.04049
v 0.04985 0.00932 -0.03842
v 0.06023 0.01764 -0.04049
v 0.04985 0.01972 -0.03635
v 0.04569 0.01557 0.01764
v 0.05815 -0.03843 -0.03635
v 0.04985 -0.04258 -0.00105
v 0.06438 0.00310 0.03219
v 0.06023 -0.00519 0.03010
v 0.05815 -0.04674 0.00310
v 0.06230 0.04464 -0.01142
v 0.06646 0.03011 -0.01142
v 0.05815 0.01557 0.03219
v 0.06230 -0.03219 0.01556
v 0.05400 0.02388 -0.03842
v 0.05400 -0.01973 0.02387
v 0.05815 -0.04465 -0.02388
v 0.06230 0.01764 -0.03842
v 0.04985 -0.00311 -0.03842
v 0.06023 0.04048 -0.03011
v 0.05192 -0.04258 0.00726
v 0.06646 -0.00104 -0.00105
v 0.05192 -0.04258 -0.03011
v 0.01245 0.00518 0.01972
v -0.06646 -0.00726 0.00726
v -0.06022 -0.03427 0.00519
v -0.00416 0.03633 0.00103
v 0.01661 -0.03219 0.00311
v -0.02078 0.05088 0.00726
v -0.03323 -0.04880 0.00934
v -0.06646 0.00310 0.01142
v 0.01661 0.02179 0.00726
v -0.01040 0.00518 0.01972
v 0.01661 -0.01972 0.01557
v -0.02907 -0.04880 0.00311
v -0.06230 -0.02388 0.01142
v -0.01663 0.03841 0.00103
v -0.00209 -0.00934 0.01972
v -0.00625 0.05088 0.00726
v 0.00829 0.02179 0.01765
v -0.05815 0.01556 0.00726
v -0.05607 0.01764 0.01142
v 0.01661 -0.03219 0.00934
v 0.01661 0.01971 0.01557
v 0.01661 0.01141 0.00311
v -0.00625 0.01141 0.01972
v -0.04361 -0.03011 0.00311
v -0.00625 0.04879 0.00311
v -0.06022 -0.01557 0.00519
v -0.02078 0.05088 0.00519
v -0.02907 -0.05088 0.00726
v 0.01037 -0.00934 0.01972
v -0.06646 0.00310 0.00726
v -0.05815 -0.02803 0.01142
v -0.03530 -0.05088 0.00726
v 0.01661 -0.02596 0.01349
v -0.02286 -0.04880 0.00311
v -0.00416 0.03010 0.00103
v -0.01247 -0.01765 0.01765
v 0.00829 -0.01765 0.01765
v -0.01040 -0.00104 0.01972
v -0.06438 -0.01972 0.01142
v -0.06022 -0.03427 0.00726
v 0.01452 -0.00104 0.01972
v -0.03530 -0.05088 0.00519
v -0.01663 0.03217 0.00103
v 0.01661 0.01349 0.01765
v -0.00002 0.01349 0.01972
v 0.01661 0.02179 0.01349
v 0.01661 0.01971 0.00519
v 0.01661 -0.03011 0.01142
v -0.00832 -0.00519 0.01972
v -0.03738 -0.04257 0.00311
v -0.06646 -0.00726 0.01142
v -0.03115 -0.04880 0.00934
v -0.06438 0.00725 0.01142
v -0.04361 -0.02181 0.00311
v 0.00206 0.02179 0.01765
v -0.00625 0.05088 0.00519
v 0.01661 -0.01142 0.01765
v 0.00622 0.01349 0.01972
v -0.02286 -0.04880 0.00726
v -0.06438 -0.01972 0.00726
v -0.03323 -0.04673 0.00311
v -0.00832 0.00933 0.01972
v -0.01040 0.04879 0.00311
v 0.01452 0.02179 0.01557
v 0.00208 -0.00728 0.02180
v 0.03322 0.01765 0.02803
v 0.04569 0.01142 0.02803
v 0.04569 0.01142 0.01973
v 0.00000 0.01557 0.02596
v 0.01662 -0.00728 0.02803
v 0.04569 -0.00312 0.01973
v 0.00208 0.00726 0.01973
v -0.00208 0.00519 0.02803
v 0.04569 -0.00104 0.02803
v 0.00000 -0.00520 0.01973
v 0.02907 0.01765 0.02388
v 0.00416 0.01765 0.02803
v 0.00416 -0.00728 0.02803
v 0.00831 -0.00728 0.01973
v 0.04569 -0.00312 0.02596
v 0.03114 0.01557 0.02180
v 0.00416 0.01765 0.02596
v -0.00208 0.01349 0.02596
v 0.00000 -0.00312 0.02803
v 0.00000 0.00519 0.01973
v 0.03322 0.01765 0.02388
v -0.00208 0.01349 0.02803
v 0.01662 -0.00728 0.02596
v 0.03738 0.01142 0.01973
v 0.00624 -0.01143 0.02803
v 0.01037 0.01972 0.03219
v 0.01452 0.01765 0.03426
v -0.02701 -0.00312 0.03842
v 0.02491 0.00104 0.03842
v 0.04569 0.00934 0.02803
v -0.00830 0.01349 0.02803
v 0.01868 -0.01558 0.03011
v -0.02284 0.00726 0.03842
v -0.02284 -0.01143 0.03634
v 0.04569 -0.00104 0.02803
v -0.02701 -0.00312 0.03426
v -0.00415 0.00311 0.04050
v 0.03322 0.01765 0.02803
v 0.02283 0.00726 0.03842
v -0.00623 0.01557 0.03634
v -0.00830 0.01765 0.03011
v 0.04569 0.00934 0.03011
v 0.04569 -0.00104 0.03011
v -0.00415 -0.00104 0.04050
v -0.02701 0.00311 0.03426
v 0.01452 -0.01558 0.02803
v -0.02492 -0.00935 0.03426
v 0.03322 0.01765 0.03011
v 0.00624 0.01972 0.02803
v -0.00415 -0.00104 0.02803
v -0.00000 -0.00519 0.03842
v -0.00830 0.01765 0.03426
v 0.02491 0.01557 0.03426
v 0.00624 0.01557 0.03634
v -0.02492 -0.00727 0.03842
v -0.00830 0.00726 0.02803
v -0.02284 -0.01143 0.03426
v -0.02701 0.00311 0.03842
v 0.01868 -0.01558 0.02803
v 0.02491 0.00518 0.03842
v -0.01453 0.00934 0.03842
v 0.01660 -0.00519 0.03634
v -0.01662 -0.00727 0.03842
v -0.00623 0.00311 0.04050
v -0.02076 -0.01143 0.03634
v -0.02284 0.00726 0.03426
v 0.01868 0.01349 0.03634
v 0.00832 0.00934 0.03842
v 0.02283 -0.01350 0.03011
v 0.01869 -0.03428 0.00519
v 0.02907 -0.00935 0.01765
v 0.01661 -0.00935 0.01765
v 0.01661 -0.00935 0.00519
v 0.02492 -0.02805 -0.00105
v 0.02492 -0.03012 0.01141
v 0.02907 -0.00935 0.00934
v 0.01661 -0.03012 0.01141
v 0.02700 -0.03012 0.00311
v 0.01661 -0.03220 0.00311
v 0.02700 -0.01558 0.01765
v 0.02492 -0.00935 0.00519
v 0.02284 -0.03220 -0.00105
v 0.02700 -0.03012 0.00934
v 0.02907 -0.01558 0.01557
v 0.02284 -0.03428 0.00519
v 0.01661 -0.01974 0.01557
v 0.01869 -0.02597 0.00103
v 0.02907 -0.01558 0.00934
v 0.02492 -0.03220 -0.00105
v 0.01661 -0.03220 0.00934
v 0.02284 -0.01558 0.01765
v 0.02284 -0.02805 -0.00105
v 0.01661 -0.01974 0.00311
v 0.01869 -0.03428 0.00311
v 0.02700 -0.02805 0.01141
v 0.02492 -0.03220 0.00934
v 0.02077 -0.00312 0.00311
v 0.02077 0.01973 0.01349
v 0.02077 0.01973 0.00934
v 0.04569 -0.00727 0.01765
v 0.01662 -0.00935 0.01765
v 0.04569 0.01349 0.00934
v 0.04569 0.01349 0.01973
v 0.04569 -0.00935 0.00934
v 0.01662 0.01765 0.00519
v 0.01662 0.01142 0.01765
v 0.01662 -0.00935 0.00519
v 0.03115 -0.00312 0.01973
v 0.04361 0.00726 0.00727
v 0.03945 0.01765 0.01142
v 0.01662 0.01973 0.01557
v 0.01869 0.00934 0.00311
v 0.04569 -0.00519 0.01973
v 0.03323 0.01349 0.01973
v 0.01662 -0.00727 0.00311
v 0.04569 0.01557 0.01765
v 0.03115 -0.00935 0.01765
v 0.04361 0.01557 0.00934
v 0.02908 0.00934 0.01973
v 0.01869 0.01973 0.00727
v 0.03945 0.01765 0.01557
v 0.04361 0.00311 0.00727
v 0.04569 -0.00935 0.01349
v 0.01869 0.01765 0.00519
v 0.01869 -0.00727 0.00311
v 0.02077 0.00519 0.00311
v 0.02492 -0.00935 0.00519
v 0.01662 0.00934 0.00311
v 0.04569 0.01557 0.01142
v 0.04153 0.00934 0.00727
f 188 164 198 
f 159 154 160 
f 154 159 164 
f 159 160 167 
f 156 155 169 
f 164 159 171 
f 159 167 171 
f 171 158 172 
f 164 171 172 
f 158 166 173 
f 160 165 174 
f 165 157 174 
f 170 160 174 
f 161 163 175 
f 154 164 175 
f 157 165 176 
f 155 156 177 
f 167 155 177 
f 171 167 177 
f 155 167 178 
f 167 160 178 
f 160 170 178 
f 160 154 179 
f 154 176 179 
f 158 173 180 
f 169 155 181 
f 162 169 181 
f 170 162 181 
f 155 178 181 
f 178 170 181 
f 168 171 182 
f 177 156 182 
f 171 177 182 
f 156 169 183 
f 173 157 184 
f 157 176 184 
f 176 163 184 
f 165 160 185 
f 176 165 185 
f 160 179 185 
f 179 176 185 
f 154 175 186 
f 175 163 186 
f 176 154 186 
f 163 176 186 
f 174 157 187 
f 162 174 187 
f 161 175 188 
f 175 164 188 
f 166 158 189 
f 168 166 189 
f 158 171 189 
f 171 168 189 
f 169 162 190 
f 183 169 190 
f 161 158 191 
f 158 180 191 
f 180 161 191 
f 180 173 192 
f 173 184 192 
f 184 163 192 
f 157 173 193 
f 173 166 193 
f 162 187 193 
f 187 157 193 
f 190 162 193 
f 166 190 193 
f 163 161 194 
f 161 180 194 
f 192 163 194 
f 180 192 194 
f 162 170 195 
f 174 162 195 
f 170 174 195 
f 182 156 196 
f 168 182 196 
f 183 168 196 
f 156 183 196 
f 166 168 197 
f 168 183 197 
f 190 166 197 
f 183 190 197 
f 158 161 198 
f 172 158 198 
f 164 172 198 
f 161 188 198 
