# Original object name hint: convex_1
v 0.05400 -0.04050 -0.03427
v 0.06230 0.01557 0.03219
v 0.06438 0.01764 0.03010
v 0.05608 0.04464 -0.03011
v 0.04569 0.01142 0.03010
v 0.06230 -0.04050 0.00726
v 0.06646 0.01972 -0.01765
v 0.04777 0.00932 -0.03427
v 0.04777 -0.03635 -0.00313
v 0.06230 -0.00726 -0.03842
v 0.06230 0.04464 -0.00105
v 0.05400 -0.03219 0.01764
v 0.06646 0.00102 0.02802
v 0.06230 0.02803 -0.03635
v 0.04569 -0.00104 0.03010
v 0.06230 -0.04050 -0.00727
v 0.05400 -0.04674 0.00310
v 0.05400 0.01557 -0.04049
v 0.06646 0.03218 0.00102
v 0.04777 0.01972 -0.03011
v 0.05192 -0.03635 -0.03635
v 0.05815 0.04464 -0.00105
v 0.05815 -0.04050 -0.03427
v 0.06438 -0.00311 0.03010
v 0.04569 0.01557 0.01141
v 0.06646 0.00517 -0.01350
v 0.04569 -0.00934 0.00726
v 0.04777 -0.03635 -0.00934
v 0.04985 -0.03843 0.00726
v 0.05192 -0.04465 -0.02388
v 0.05815 -0.04674 -0.01142
v 0.06438 0.03634 -0.01558
v 0.06023 -0.00726 -0.04049
v 0.05815 0.02595 0.02179
v 0.04985 0.00102 0.03219
v 0.06023 -0.03219 0.01764
v 0.06023 -0.03635 -0.03219
v 0.04777 0.00102 -0.03427
v 0.06646 -0.00311 0.01141
v 0.06646 0.01764 0.02595
v 0.05815 0.04464 -0.03011
v 0.05400 -0.00934 -0.04049
v 0.04985 0.00932 -0.03842
v 0.06023 0.01764 -0.04049
v 0.04985 0.01972 -0.03635
v 0.04569 0.01557 0.01764
v 0.05815 -0.03843 -0.03635
v 0.04985 -0.04258 -0.00105
v 0.06438 0.00310 0.03219
v 0.06023 -0.00519 0.03010
v 0.05815 -0.04674 0.00310
v 0.06230 0.04464 -0.01142
v 0.06646 0.03011 -0.01142
v 0.05815 0.01557 0.03219
v 0.06230 -0.03219 0.01556
v 0.05400 0.02388 -0.03842
v 0.05400 -0.01973 0.02387
v 0.05815 -0.04465 -0.02388
v 0.06230 0.01764 -0.03842
v 0.04985 -0.00311 -0.03842
v 0.06023 0.04048 -0.03011
v 0.05192 -0.04258 0.00726
v 0.06646 -0.00104 -0.00105
v 0.05192 -0.04258 -0.03011
v 0.01245 0.00518 0.01972
v -0.06646 -0.00726 0.00726
v -0.06022 -0.03427 0.00519
v -0.00416 0.03633 0.00103
v 0.01661 -0.03219 0.00311
v -0.02078 0.05088 0.00726
v -0.03323 -0.04880 0.00934
v -0.06646 0.00310 0.01142
v 0.01661 0.02179 0.00726
v -0.01040 0.00518 0.01972
v 0.01661 -0.01972 0.01557
v -0.02907 -0.04880 0.00311
v -0.06230 -0.02388 0.01142
v -0.01663 0.03841 0.00103
v -0.00209 -0.00934 0.01972
v -0.00625 0.05088 0.00726
v 0.00829 0.02179 0.01765
v -0.05815 0.01556 0.00726
v -0.05607 0.01764 0.01142
v 0.01661 -0.03219 0.00934
v 0.01661 0.01971 0.01557
v 0.01661 0.01141 0.00311
v -0.00625 0.01141 0.01972
v -0.04361 -0.03011 0.00311
v -0.00625 0.04879 0.00311
v -0.06022 -0.01557 0.00519
v -0.02078 0.05088 0.00519
v -0.02907 -0.05088 0.00726
v 0.01037 -0.00934 0.01972
v -0.06646 0.00310 0.00726
v -0.05815 -0.02803 0.01142
v -0.03530 -0.05088 0.00726
v 0.01661 -0.02596 0.01349
v -0.02286 -0.04880 0.00311
v -0.00416 0.03010 0.00103
v -0.01247 -0.01765 0.01765
v 0.00829 -0.01765 0.01765
v -0.01040 -0.00104 0.01972
v -0.06438 -0.01972 0.01142
v -0.06022 -0.03427 0.00726
v 0.01452 -0.00104 0.01972
v -0.03530 -0.05088 0.00519
v -0.01663 0.03217 0.00103
v 0.01661 0.01349 0.01765
v -0.00002 0.01349 0.01972
v 0.01661 0.02179 0.01349
v 0.01661 0.01971 0.00519
v 0.01661 -0.03011 0.01142
v -0.00832 -0.00519 0.01972
v -0.03738 -0.04257 0.00311
v -0.06646 -0.00726 0.01142
v -0.03115 -0.04880 0.00934
v -0.06438 0.00725 0.01142
v -0.04361 -0.02181 0.00311
v 0.00206 0.02179 0.01765
v -0.00625 0.05088 0.00519
v 0.01661 -0.01142 0.01765
v 0.00622 0.01349 0.01972
v -0.02286 -0.04880 0.00726
v -0.06438 -0.01972 0.00726
v -0.03323 -0.04673 0.00311
v -0.00832 0.00933 0.01972
v -0.01040 0.04879 0.00311
v 0.01452 0.02179 0.01557
v 0.00208 -0.00728 0.02180
v 0.03322 0.01765 0.02803
v 0.04569 0.01142 0.02803
v 0.04569 0.01142 0.01973
v 0.00000 0.01557 0.02596
v 0.01662 -0.00728 0.02803
v 0.04569 -0.00312 0.01973
v 0.00208 0.00726 0.01973
v -0.00208 0.00519 0.02803
v 0.04569 -0.00104 0.02803
v 0.00000 -0.00520 0.01973
v 0.02907 0.01765 0.02388
v 0.00416 0.01765 0.02803
v 0.00416 -0.00728 0.02803
v 0.00831 -0.00728 0.01973
v 0.04569 -0.00312 0.02596
v 0.03114 0.01557 0.02180
v 0.00416 0.01765 0.02596
v -0.00208 0.01349 0.02596
v 0.00000 -0.00312 0.02803
v 0.00000 0.00519 0.01973
v 0.03322 0.01765 0.02388
v -0.00208 0.01349 0.02803
v 0.01662 -0.00728 0.02596
v 0.03738 0.01142 0.01973
v 0.00624 -0.01143 0.02803
v 0.01037 0.01972 0.03219
v 0.01452 0.01765 0.03426
v -0.02701 -0.00312 0.03842
v 0.02491 0.00104 0.03842
v 0.04569 0.00934 0.02803
v -0.00830 0.01349 0.02803
v 0.01868 -0.01558 0.03011
v -0.02284 0.00726 0.03842
v -0.02284 -0.01143 0.03634
v 0.04569 -0.00104 0.02803
v -0.02701 -0.00312 0.03426
v -0.00415 0.00311 0.04050
v 0.03322 0.01765 0.02803
v 0.02283 0.00726 0.03842
v -0.00623 0.01557 0.03634
v -0.00830 0.01765 0.03011
v 0.04569 0.00934 0.03011
v 0.04569 -0.00104 0.03011
v -0.00415 -0.00104 0.04050
v -0.02701 0.00311 0.03426
v 0.01452 -0.01558 0.02803
v -0.02492 -0.00935 0.03426
v 0.03322 0.01765 0.03011
v 0.00624 0.01972 0.02803
v -0.00415 -0.00104 0.02803
v -0.00000 -0.00519 0.03842
v -0.00830 0.01765 0.03426
v 0.02491 0.01557 0.03426
v 0.00624 0.01557 0.03634
v -0.02492 -0.00727 0.03842
v -0.00830 0.00726 0.02803
v -0.02284 -0.01143 0.03426
v -0.02701 0.00311 0.03842
v 0.01868 -0.01558 0.02803
v 0.02491 0.00518 0.03842
v -0.01453 0.00934 0.03842
v 0.01660 -0.00519 0.03634
v -0.01662 -0.00727 0.03842
v -0.00623 0.00311 0.04050
v -0.02076 -0.01143 0.03634
v -0.02284 0.00726 0.03426
v 0.01868 0.01349 0.03634
v 0.00832 0.00934 0.03842
v 0.02283 -0.01350 0.03011
v 0.01869 -0.03428 0.00519
v 0.02907 -0.00935 0.01765
v 0.01661 -0.00935 0.01765
v 0.01661 -0.00935 0.00519
v 0.02492 -0.02805 -0.00105
v 0.02492 -0.03012 0.01141
v 0.02907 -0.00935 0.00934
v 0.01661 -0.03012 0.01141
v 0.02700 -0.03012 0.00311
v 0.01661 -0.03220 0.00311
v 0.02700 -0.01558 0.01765
v 0.02492 -0.00935 0.00519
v 0.02284 -0.03220 -0.00105
v 0.02700 -0.03012 0.00934
v 0.02907 -0.01558 0.01557
v 0.02284 -0.03428 0.00519
v 0.01661 -0.01974 0.01557
v 0.01869 -0.02597 0.00103
v 0.02907 -0.01558 0.00934
v 0.02492 -0.03220 -0.00105
v 0.01661 -0.03220 0.00934
v 0.02284 -0.01558 0.01765
v 0.02284 -0.02805 -0.00105
v 0.01661 -0.01974 0.00311
v 0.01869 -0.03428 0.00311
v 0.02700 -0.02805 0.01141
v 0.02492 -0.03220 0.00934
v 0.02077 -0.00312 0.00311
v 0.02077 0.01973 0.01349
v 0.02077 0.01973 0.00934
v 0.04569 -0.00727 0.01765
v 0.01662 -0.00935 0.01765
v 0.04569 0.01349 0.00934
v 0.04569 0.01349 0.01973
v 0.04569 -0.00935 0.00934
v 0.01662 0.01765 0.00519
v 0.01662 0.01142 0.01765
v 0.01662 -0.00935 0.00519
v 0.03115 -0.00312 0.01973
v 0.04361 0.00726 0.00727
v 0.03945 0.01765 0.01142
v 0.01662 0.01973 0.01557
v 0.01869 0.00934 0.00311
v 0.04569 -0.00519 0.01973
v 0.03323 0.01349 0.01973
v 0.01662 -0.00727 0.00311
v 0.04569 0.01557 0.01765
v 0.03115 -0.00935 0.01765
v 0.04361 0.01557 0.00934
v 0.02908 0.00934 0.01973
v 0.01869 0.01973 0.00727
v 0.03945 0.01765 0.01557
v 0.04361 0.00311 0.00727
v 0.04569 -0.00935 0.01349
v 0.01869 0.01765 0.00519
v 0.01869 -0.00727 0.00311
v 0.02077 0.00519 0.00311
v 0.02492 -0.00935 0.00519
v 0.01662 0.00934 0.00311
v 0.04569 0.01557 0.01142
v 0.04153 0.00934 0.00727
f 81 85 128 
f 69 73 75 
f 65 74 79 
f 80 70 81 
f 69 75 84 
f 75 73 85 
f 69 68 86 
f 73 69 86 
f 74 65 87 
f 70 83 87 
f 68 78 89 
f 86 68 89 
f 67 66 90 
f 88 67 90 
f 70 80 91 
f 78 82 91 
f 83 70 91 
f 82 83 91 
f 65 79 93 
f 66 72 94 
f 82 78 94 
f 90 66 94 
f 78 90 94 
f 92 71 96 
f 84 75 97 
f 69 84 98 
f 68 69 99 
f 78 68 99 
f 69 98 99 
f 98 76 99 
f 93 79 100 
f 95 71 100 
f 75 93 101 
f 97 75 101 
f 100 71 101 
f 93 100 101 
f 74 72 102 
f 79 74 102 
f 77 102 103 
f 71 95 104 
f 95 77 104 
f 67 96 104 
f 96 71 104 
f 103 67 104 
f 77 103 104 
f 65 93 105 
f 96 67 106 
f 92 96 106 
f 76 98 106 
f 98 92 106 
f 88 78 107 
f 78 99 107 
f 99 76 107 
f 75 85 108 
f 85 81 108 
f 65 105 108 
f 87 65 109 
f 73 80 110 
f 85 73 110 
f 80 85 110 
f 73 86 111 
f 86 89 111 
f 84 97 112 
f 77 95 113 
f 100 79 113 
f 95 100 113 
f 102 77 113 
f 79 102 113 
f 67 88 114 
f 88 107 114 
f 72 66 115 
f 102 72 115 
f 66 103 115 
f 103 102 115 
f 71 92 116 
f 97 101 116 
f 101 71 116 
f 92 112 116 
f 112 97 116 
f 72 74 117 
f 83 82 117 
f 94 72 117 
f 82 94 117 
f 78 88 118 
f 90 78 118 
f 88 90 118 
f 81 70 119 
f 70 87 119 
f 109 81 119 
f 87 109 119 
f 80 73 120 
f 91 80 120 
f 89 91 120 
f 73 111 120 
f 111 89 120 
f 93 75 121 
f 105 93 121 
f 75 108 121 
f 108 105 121 
f 65 108 122 
f 108 81 122 
f 109 65 122 
f 81 109 122 
f 98 84 123 
f 92 98 123 
f 112 92 123 
f 84 112 123 
f 66 67 124 
f 67 103 124 
f 103 66 124 
f 106 67 125 
f 76 106 125 
f 107 76 125 
f 67 114 125 
f 114 107 125 
f 74 87 126 
f 87 83 126 
f 117 74 126 
f 83 117 126 
f 89 78 127 
f 78 91 127 
f 91 89 127 
f 80 81 128 
f 85 80 128 
