# Original object name hint: convex_2
v 0.05400 -0.04050 -0.03427
v 0.06230 0.01557 0.03219
v 0.06438 0.01764 0.03010
v 0.05608 0.04464 -0.03011
v 0.04569 0.01142 0.03010
v 0.06230 -0.04050 0.00726
v 0.06646 0.01972 -0.01765
v 0.04777 0.00932 -0.03427
v 0.04777 -0.03635 -0.00313
v 0.06230 -0.00726 -0.03842
v 0.06230 0.04464 -0.00105
v 0.05400 -0.03219 0.01764
v 0.06646 0.00102 0.02802
v 0.06230 0.02803 -0.03635
v 0.04569 -0.00104 0.03010
v 0.06230 -0.04050 -0.00727
v 0.05400 -0.04674 0.00310
v 0.05400 0.01557 -0.04049
v 0.06646 0.03218 0.00102
v 0.04777 0.01972 -0.03011
v 0.05192 -0.03635 -0.03635
v 0.05815 0.04464 -0.00105
v 0.05815 -0.04050 -0.03427
v 0.06438 -0.00311 0.03010
v 0.04569 0.01557 0.01141
v 0.06646 0.00517 -0.01350
v 0.04569 -0.00934 0.00726
v 0.04777 -0.03635 -0.00934
v 0.04985 -0.03843 0.00726
v 0.05192 -0.04465 -0.02388
v 0.05815 -0.04674 -0.01142
v 0.06438 0.03634 -0.01558
v 0.06023 -0.00726 -0.04049
v 0.05815 0.02595 0.02179
v 0.04985 0.00102 0.03219
v 0.06023 -0.03219 0.01764
v 0.06023 -0.03635 -0.03219
v 0.04777 0.00102 -0.03427
v 0.06646 -0.00311 0.01141
v 0.06646 0.01764 0.02595
v 0.05815 0.04464 -0.03011
v 0.05400 -0.00934 -0.04049
v 0.04985 0.00932 -0.03842
v 0.06023 0.01764 -0.04049
v 0.04985 0.01972 -0.03635
v 0.04569 0.01557 0.01764
v 0.05815 -0.03843 -0.03635
v 0.04985 -0.04258 -0.00105
v 0.06438 0.00310 0.03219
v 0.06023 -0.00519 0.03010
v 0.05815 -0.04674 0.00310
v 0.06230 0.04464 -0.01142
v 0.06646 0.03011 -0.01142
v 0.05815 0.01557 0.03219
v 0.06230 -0.03219 0.01556
v 0.05400 0.02388 -0.03842
v 0.05400 -0.01973 0.02387
v 0.05815 -0.04465 -0.02388
v 0.06230 0.01764 -0.03842
v 0.04985 -0.00311 -0.03842
v 0.06023 0.04048 -0.03011
v 0.05192 -0.04258 0.00726
v 0.06646 -0.00104 -0.00105
v 0.05192 -0.04258 -0.03011
v 0.01245 0.00518 0.01972
v -0.06646 -0.00726 0.00726
v -0.06022 -0.03427 0.00519
v -0.00416 0.03633 0.00103
v 0.01661 -0.03219 0.00311
v -0.02078 0.05088 0.00726
v -0.03323 -0.04880 0.00934
v -0.06646 0.00310 0.01142
v 0.01661 0.02179 0.00726
v -0.01040 0.00518 0.01972
v 0.01661 -0.01972 0.01557
v -0.02907 -0.04880 0.00311
v -0.06230 -0.02388 0.01142
v -0.01663 0.03841 0.00103
v -0.00209 -0.00934 0.01972
v -0.00625 0.05088 0.00726
v 0.00829 0.02179 0.01765
v -0.05815 0.01556 0.00726
v -0.05607 0.01764 0.01142
v 0.01661 -0.03219 0.00934
v 0.01661 0.01971 0.01557
v 0.01661 0.01141 0.00311
v -0.00625 0.01141 0.01972
v -0.04361 -0.03011 0.00311
v -0.00625 0.04879 0.00311
v -0.06022 -0.01557 0.00519
v -0.02078 0.05088 0.00519
v -0.02907 -0.05088 0.00726
v 0.01037 -0.00934 0.01972
v -0.06646 0.00310 0.00726
v -0.05815 -0.02803 0.01142
v -0.03530 -0.05088 0.00726
v 0.01661 -0.02596 0.01349
v -0.02286 -0.04880 0.00311
v -0.00416 0.03010 0.00103
v -0.01247 -0.01765 0.01765
v 0.00829 -0.01765 0.01765
v -0.01040 -0.00104 0.01972
v -0.06438 -0.01972 0.01142
v -0.06022 -0.03427 0.00726
v 0.01452 -0.00104 0.01972
v -0.03530 -0.05088 0.00519
v -0.01663 0.03217 0.00103
v 0.01661 0.01349 0.01765
v -0.00002 0.01349 0.01972
v 0.01661 0.02179 0.01349
v 0.01661 0.01971 0.00519
v 0.01661 -0.03011 0.01142
v -0.00832 -0.00519 0.01972
v -0.03738 -0.04257 0.00311
v -0.06646 -0.00726 0.01142
v -0.03115 -0.04880 0.00934
v -0.06438 0.00725 0.01142
v -0.04361 -0.02181 0.00311
v 0.00206 0.02179 0.01765
v -0.00625 0.05088 0.00519
v 0.01661 -0.01142 0.01765
v 0.00622 0.01349 0.01972
v -0.02286 -0.04880 0.00726
v -0.06438 -0.01972 0.00726
v -0.03323 -0.04673 0.00311
v -0.00832 0.00933 0.01972
v -0.01040 0.04879 0.00311
v 0.01452 0.02179 0.01557
v 0.00208 -0.00728 0.02180
v 0.03322 0.01765 0.02803
v 0.04569 0.01142 0.02803
v 0.04569 0.01142 0.01973
v 0.00000 0.01557 0.02596
v 0.01662 -0.00728 0.02803
v 0.04569 -0.00312 0.01973
v 0.00208 0.00726 0.01973
v -0.00208 0.00519 0.02803
v 0.04569 -0.00104 0.02803
v 0.00000 -0.00520 0.01973
v 0.02907 0.01765 0.02388
v 0.00416 0.01765 0.02803
v 0.00416 -0.00728 0.02803
v 0.00831 -0.00728 0.01973
v 0.04569 -0.00312 0.02596
v 0.03114 0.01557 0.02180
v 0.00416 0.01765 0.02596
v -0.00208 0.01349 0.02596
v 0.00000 -0.00312 0.02803
v 0.00000 0.00519 0.01973
v 0.03322 0.01765 0.02388
v -0.00208 0.01349 0.02803
v 0.01662 -0.00728 0.02596
v 0.03738 0.01142 0.01973
v 0.00624 -0.01143 0.02803
v 0.01037 0.01972 0.03219
v 0.01452 0.01765 0.03426
v -0.02701 -0.00312 0.03842
v 0.02491 0.00104 0.03842
v 0.04569 0.00934 0.02803
v -0.00830 0.01349 0.02803
v 0.01868 -0.01558 0.03011
v -0.02284 0.00726 0.03842
v -0.02284 -0.01143 0.03634
v 0.04569 -0.00104 0.02803
v -0.02701 -0.00312 0.03426
v -0.00415 0.00311 0.04050
v 0.03322 0.01765 0.02803
v 0.02283 0.00726 0.03842
v -0.00623 0.01557 0.03634
v -0.00830 0.01765 0.03011
v 0.04569 0.00934 0.03011
v 0.04569 -0.00104 0.03011
v -0.00415 -0.00104 0.04050
v -0.02701 0.00311 0.03426
v 0.01452 -0.01558 0.02803
v -0.02492 -0.00935 0.03426
v 0.03322 0.01765 0.03011
v 0.00624 0.01972 0.02803
v -0.00415 -0.00104 0.02803
v -0.00000 -0.00519 0.03842
v -0.00830 0.01765 0.03426
v 0.02491 0.01557 0.03426
v 0.00624 0.01557 0.03634
v -0.02492 -0.00727 0.03842
v -0.00830 0.00726 0.02803
v -0.02284 -0.01143 0.03426
v -0.02701 0.00311 0.03842
v 0.01868 -0.01558 0.02803
v 0.02491 0.00518 0.03842
v -0.01453 0.00934 0.03842
v 0.01660 -0.00519 0.03634
v -0.01662 -0.00727 0.03842
v -0.00623 0.00311 0.04050
v -0.02076 -0.01143 0.03634
v -0.02284 0.00726 0.03426
v 0.01868 0.01349 0.03634
v 0.00832 0.00934 0.03842
v 0.02283 -0.01350 0.03011
v 0.01869 -0.03428 0.00519
v 0.02907 -0.00935 0.01765
v 0.01661 -0.00935 0.01765
v 0.01661 -0.00935 0.00519
v 0.02492 -0.02805 -0.00105
v 0.02492 -0.03012 0.01141
v 0.02907 -0.00935 0.00934
v 0.01661 -0.03012 0.01141
v 0.02700 -0.03012 0.00311
v 0.01661 -0.03220 0.00311
v 0.02700 -0.01558 0.01765
v 0.02492 -0.00935 0.00519
v 0.02284 -0.03220 -0.00105
v 0.02700 -0.03012 0.00934
v 0.02907 -0.01558 0.01557
v 0.02284 -0.03428 0.00519
v 0.01661 -0.01974 0.01557
v 0.01869 -0.02597 0.00103
v 0.02907 -0.01558 0.00934
v 0.02492 -0.03220 -0.00105
v 0.01661 -0.03220 0.00934
v 0.02284 -0.01558 0.01765
v 0.02284 -0.02805 -0.00105
v 0.01661 -0.01974 0.00311
v 0.01869 -0.03428 0.00311
v 0.02700 -0.02805 0.01141
v 0.02492 -0.03220 0.00934
v 0.02077 -0.00312 0.00311
v 0.02077 0.01973 0.01349
v 0.02077 0.01973 0.00934
v 0.04569 -0.00727 0.01765
v 0.01662 -0.00935 0.01765
v 0.04569 0.01349 0.00934
v 0.04569 0.01349 0.01973
v 0.04569 -0.00935 0.00934
v 0.01662 0.01765 0.00519
v 0.01662 0.01142 0.01765
v 0.01662 -0.00935 0.00519
v 0.03115 -0.00312 0.01973
v 0.04361 0.00726 0.00727
v 0.03945 0.01765 0.01142
v 0.01662 0.01973 0.01557
v 0.01869 0.00934 0.00311
v 0.04569 -0.00519 0.01973
v 0.03323 0.01349 0.01973
v 0.01662 -0.00727 0.00311
v 0.04569 0.01557 0.01765
v 0.03115 -0.00935 0.01765
v 0.04361 0.01557 0.00934
v 0.02908 0.00934 0.01973
v 0.01869 0.01973 0.00727
v 0.03945 0.01765 0.01557
v 0.04361 0.00311 0.00727
v 0.04569 -0.00935 0.01349
v 0.01869 0.01765 0.00519
v 0.01869 -0.00727 0.00311
v 0.02077 0.00519 0.00311
v 0.02492 -0.00935 0.00519
v 0.01662 0.00934 0.00311
v 0.04569 0.01557 0.01142
v 0.04153 0.00934 0.00727
f 136 145 153 
f 130 131 132 
f 131 130 134 
f 132 131 135 
f 132 135 136 
f 134 130 137 
f 131 134 138 
f 135 131 138 
f 136 135 139 
f 137 130 141 
f 130 140 141 
f 129 134 142 
f 134 137 142 
f 134 129 143 
f 129 139 143 
f 139 135 143 
f 134 135 144 
f 138 134 144 
f 135 138 144 
f 140 145 146 
f 136 133 146 
f 133 141 146 
f 141 140 146 
f 145 136 146 
f 133 136 147 
f 139 137 147 
f 139 129 148 
f 137 139 148 
f 129 142 148 
f 142 137 148 
f 136 139 149 
f 147 136 149 
f 139 147 149 
f 130 132 150 
f 140 130 150 
f 132 145 150 
f 145 140 150 
f 141 133 151 
f 137 141 151 
f 133 147 151 
f 147 137 151 
f 135 134 152 
f 134 143 152 
f 143 135 152 
f 132 136 153 
f 145 132 153 
