# Original object name hint: convex_5
v 0.05400 -0.04050 -0.03427
v 0.06230 0.01557 0.03219
v 0.06438 0.01764 0.03010
v 0.05608 0.04464 -0.03011
v 0.04569 0.01142 0.03010
v 0.06230 -0.04050 0.00726
v 0.06646 0.01972 -0.01765
v 0.04777 0.00932 -0.03427
v 0.04777 -0.03635 -0.00313
v 0.06230 -0.00726 -0.03842
v 0.06230 0.04464 -0.00105
v 0.05400 -0.03219 0.01764
v 0.06646 0.00102 0.02802
v 0.06230 0.02803 -0.03635
v 0.04569 -0.00104 0.03010
v 0.06230 -0.04050 -0.00727
v 0.05400 -0.04674 0.00310
v 0.05400 0.01557 -0.04049
v 0.06646 0.03218 0.00102
v 0.04777 0.01972 -0.03011
v 0.05192 -0.03635 -0.03635
v 0.05815 0.04464 -0.00105
v 0.05815 -0.04050 -0.03427
v 0.06438 -0.00311 0.03010
v 0.04569 0.01557 0.01141
v 0.06646 0.00517 -0.01350
v 0.04569 -0.00934 0.00726
v 0.04777 -0.03635 -0.00934
v 0.04985 -0.03843 0.00726
v 0.05192 -0.04465 -0.02388
v 0.05815 -0.04674 -0.01142
v 0.06438 0.03634 -0.01558
v 0.06023 -0.00726 -0.04049
v 0.05815 0.02595 0.02179
v 0.04985 0.00102 0.03219
v 0.06023 -0.03219 0.01764
v 0.06023 -0.03635 -0.03219
v 0.04777 0.00102 -0.03427
v 0.06646 -0.00311 0.01141
v 0.06646 0.01764 0.02595
v 0.05815 0.04464 -0.03011
v 0.05400 -0.00934 -0.04049
v 0.04985 0.00932 -0.03842
v 0.06023 0.01764 -0.04049
v 0.04985 0.01972 -0.03635
v 0.04569 0.01557 0.01764
v 0.05815 -0.03843 -0.03635
v 0.04985 -0.04258 -0.00105
v 0.06438 0.00310 0.03219
v 0.06023 -0.00519 0.03010
v 0.05815 -0.04674 0.00310
v 0.06230 0.04464 -0.01142
v 0.06646 0.03011 -0.01142
v 0.05815 0.01557 0.03219
v 0.06230 -0.03219 0.01556
v 0.05400 0.02388 -0.03842
v 0.05400 -0.01973 0.02387
v 0.05815 -0.04465 -0.02388
v 0.06230 0.01764 -0.03842
v 0.04985 -0.00311 -0.03842
v 0.06023 0.04048 -0.03011
v 0.05192 -0.04258 0.00726
v 0.06646 -0.00104 -0.00105
v 0.05192 -0.04258 -0.03011
v 0.01245 0.00518 0.01972
v -0.06646 -0.00726 0.00726
v -0.06022 -0.03427 0.00519
v -0.00416 0.03633 0.00103
v 0.01661 -0.03219 0.00311
v -0.02078 0.05088 0.00726
v -0.03323 -0.04880 0.00934
v -0.06646 0.00310 0.01142
v 0.01661 0.02179 0.00726
v -0.01040 0.00518 0.01972
v 0.01661 -0.01972 0.01557
v -0.02907 -0.04880 0.00311
v -0.06230 -0.02388 0.01142
v -0.01663 0.03841 0.00103
v -0.00209 -0.00934 0.01972
v -0.00625 0.05088 0.00726
v 0.00829 0.02179 0.01765
v -0.05815 0.01556 0.00726
v -0.05607 0.01764 0.01142
v 0.01661 -0.03219 0.00934
v 0.01661 0.01971 0.01557
v 0.01661 0.01141 0.00311
v -0.00625 0.01141 0.01972
v -0.04361 -0.03011 0.00311
v -0.00625 0.04879 0.00311
v -0.06022 -0.01557 0.00519
v -0.02078 0.05088 0.00519
v -0.02907 -0.05088 0.00726
v 0.01037 -0.00934 0.01972
v -0.06646 0.00310 0.00726
v -0.05815 -0.02803 0.01142
v -0.03530 -0.05088 0.00726
v 0.01661 -0.02596 0.01349
v -0.02286 -0.04880 0.00311
v -0.00416 0.03010 0.00103
v -0.01247 -0.01765 0.01765
v 0.00829 -0.01765 0.01765
v -0.01040 -0.00104 0.01972
v -0.06438 -0.01972 0.01142
v -0.06022 -0.03427 0.00726
v 0.01452 -0.00104 0.01972
v -0.03530 -0.05088 0.00519
v -0.01663 0.03217 0.00103
v 0.01661 0.01349 0.01765
v -0.00002 0.01349 0.01972
v 0.01661 0.02179 0.01349
v 0.01661 0.01971 0.00519
v 0.01661 -0.03011 0.01142
v -0.00832 -0.00519 0.01972
v -0.03738 -0.04257 0.00311
v -0.06646 -0.00726 0.01142
v -0.03115 -0.04880 0.00934
v -0.06438 0.00725 0.01142
v -0.04361 -0.02181 0.00311
v 0.00206 0.02179 0.01765
v -0.00625 0.05088 0.00519
v 0.01661 -0.01142 0.01765
v 0.00622 0.01349 0.01972
v -0.02286 -0.04880 0.00726
v -0.06438 -0.01972 0.00726
v -0.03323 -0.04673 0.00311
v -0.00832 0.00933 0.01972
v -0.01040 0.04879 0.00311
v 0.01452 0.02179 0.01557
v 0.00208 -0.00728 0.02180
v 0.03322 0.01765 0.02803
v 0.04569 0.01142 0.02803
v 0.04569 0.01142 0.01973
v 0.00000 0.01557 0.02596
v 0.01662 -0.00728 0.02803
v 0.04569 -0.00312 0.01973
v 0.00208 0.00726 0.01973
v -0.00208 0.00519 0.02803
v 0.04569 -0.00104 0.02803
v 0.00000 -0.00520 0.01973
v 0.02907 0.01765 0.02388
v 0.00416 0.01765 0.02803
v 0.00416 -0.00728 0.02803
v 0.00831 -0.00728 0.01973
v 0.04569 -0.00312 0.02596
v 0.03114 0.01557 0.02180
v 0.00416 0.01765 0.02596
v -0.00208 0.01349 0.02596
v 0.00000 -0.00312 0.02803
v 0.00000 0.00519 0.01973
v 0.03322 0.01765 0.02388
v -0.00208 0.01349 0.02803
v 0.01662 -0.00728 0.02596
v 0.03738 0.01142 0.01973
v 0.00624 -0.01143 0.02803
v 0.01037 0.01972 0.03219
v 0.01452 0.01765 0.03426
v -0.02701 -0.00312 0.03842
v 0.02491 0.00104 0.03842
v 0.04569 0.00934 0.02803
v -0.00830 0.01349 0.02803
v 0.01868 -0.01558 0.03011
v -0.02284 0.00726 0.03842
v -0.02284 -0.01143 0.03634
v 0.04569 -0.00104 0.02803
v -0.02701 -0.00312 0.03426
v -0.00415 0.00311 0.04050
v 0.03322 0.01765 0.02803
v 0.02283 0.00726 0.03842
v -0.00623 0.01557 0.03634
v -0.00830 0.01765 0.03011
v 0.04569 0.00934 0.03011
v 0.04569 -0.00104 0.03011
v -0.00415 -0.00104 0.04050
v -0.02701 0.00311 0.03426
v 0.01452 -0.01558 0.02803
v -0.02492 -0.00935 0.03426
v 0.03322 0.01765 0.03011
v 0.00624 0.01972 0.02803
v -0.00415 -0.00104 0.02803
v -0.00000 -0.00519 0.03842
v -0.00830 0.01765 0.03426
v 0.02491 0.01557 0.03426
v 0.00624 0.01557 0.03634
v -0.02492 -0.00727 0.03842
v -0.00830 0.00726 0.02803
v -0.02284 -0.01143 0.03426
v -0.02701 0.00311 0.03842
v 0.01868 -0.01558 0.02803
v 0.02491 0.00518 0.03842
v -0.01453 0.00934 0.03842
v 0.01660 -0.00519 0.03634
v -0.01662 -0.00727 0.03842
v -0.00623 0.00311 0.04050
v -0.02076 -0.01143 0.03634
v -0.02284 0.00726 0.03426
v 0.01868 0.01349 0.03634
v 0.00832 0.00934 0.03842
v 0.02283 -0.01350 0.03011
v 0.01869 -0.03428 0.00519
v 0.02907 -0.00935 0.01765
v 0.01661 -0.00935 0.01765
v 0.01661 -0.00935 0.00519
v 0.02492 -0.02805 -0.00105
v 0.02492 -0.03012 0.01141
v 0.02907 -0.00935 0.00934
v 0.01661 -0.03012 0.01141
v 0.02700 -0.03012 0.00311
v 0.01661 -0.03220 0.00311
v 0.02700 -0.01558 0.01765
v 0.02492 -0.00935 0.00519
v 0.02284 -0.03220 -0.00105
v 0.02700 -0.03012 0.00934
v 0.02907 -0.01558 0.01557
v 0.02284 -0.03428 0.00519
v 0.01661 -0.01974 0.01557
v 0.01869 -0.02597 0.00103
v 0.02907 -0.01558 0.00934
v 0.02492 -0.03220 -0.00105
v 0.01661 -0.03220 0.00934
v 0.02284 -0.01558 0.01765
v 0.02284 -0.02805 -0.00105
v 0.01661 -0.01974 0.00311
v 0.01869 -0.03428 0.00311
v 0.02700 -0.02805 0.01141
v 0.02492 -0.03220 0.00934
v 0.02077 -0.00312 0.00311
v 0.02077 0.01973 0.01349
v 0.02077 0.01973 0.00934
v 0.04569 -0.00727 0.01765
v 0.01662 -0.00935 0.01765
v 0.04569 0.01349 0.00934
v 0.04569 0.01349 0.01973
v 0.04569 -0.00935 0.00934
v 0.01662 0.01765 0.00519
v 0.01662 0.01142 0.01765
v 0.01662 -0.00935 0.00519
v 0.03115 -0.00312 0.01973
v 0.04361 0.00726 0.00727
v 0.03945 0.01765 0.01142
v 0.01662 0.01973 0.01557
v 0.01869 0.00934 0.00311
v 0.04569 -0.00519 0.01973
v 0.03323 0.01349 0.01973
v 0.01662 -0.00727 0.00311
v 0.04569 0.01557 0.01765
v 0.03115 -0.00935 0.01765
v 0.04361 0.01557 0.00934
v 0.02908 0.00934 0.01973
v 0.01869 0.01973 0.00727
v 0.03945 0.01765 0.01557
v 0.04361 0.00311 0.00727
v 0.04569 -0.00935 0.01349
v 0.01869 0.01765 0.00519
v 0.01869 -0.00727 0.00311
v 0.02077 0.00519 0.00311
v 0.02492 -0.00935 0.00519
v 0.01662 0.00934 0.00311
v 0.04569 0.01557 0.01142
v 0.04153 0.00934 0.00727
f 253 247 259 
f 229 231 232 
f 231 229 233 
f 234 230 235 
f 233 230 236 
f 230 234 236 
f 231 233 238 
f 228 227 239 
f 227 228 240 
f 234 235 240 
f 229 232 242 
f 237 230 242 
f 232 237 242 
f 237 232 243 
f 232 240 243 
f 240 235 243 
f 236 234 244 
f 241 226 244 
f 232 231 245 
f 240 232 245 
f 230 233 246 
f 229 242 246 
f 242 230 246 
f 235 230 248 
f 230 237 248 
f 237 243 248 
f 243 235 248 
f 228 239 249 
f 240 228 249 
f 234 240 249 
f 239 247 249 
f 239 227 250 
f 227 240 250 
f 245 239 250 
f 240 245 250 
f 226 238 251 
f 238 233 251 
f 233 229 252 
f 246 233 252 
f 229 246 252 
f 241 234 253 
f 234 249 253 
f 249 247 253 
f 244 226 254 
f 236 244 254 
f 226 251 254 
f 251 233 254 
f 238 226 255 
f 226 241 255 
f 241 238 255 
f 233 236 256 
f 254 233 256 
f 236 254 256 
f 234 241 257 
f 244 234 257 
f 241 244 257 
f 245 231 258 
f 239 245 258 
f 231 247 258 
f 247 239 258 
f 231 238 259 
f 238 241 259 
f 247 231 259 
f 241 253 259 
