# Created by Open3D 
# object name: convex_1_coll
# number of vertices: 14
# number of triangles: 24
v 0.00711 0.05698 0.01424
v -0.04985 -0.00813 0.02442
v 0.03967 0.01831 0.02442
v -0.05189 0.01627 0.02442
v 0.0345775 -0.010175 0.02442
v -0.016275 -0.04681 0.01628
v -0.0234 -0.04681 0.02238
v -0.04985 0.01831 0.02035
v 0.03356 -0.02034 0.01831
v -0.00915 -0.04681 0.02238
v 0.0289825 0.020845 0.017295
v -0.04578 -0.0122 0.01831
v 0.00507 0.06513 0.01933
v -0.0061075 0.0636 0.01933
f 3 4 2
f 3 2 5
f 7 6 10
f 6 9 10
f 9 11 3
f 5 2 7
f 2 8 12
f 4 3 13
f 9 6 1
f 5 10 9
f 3 1 13
f 12 1 6
f 6 7 2
f 8 1 12
f 1 3 11
f 14 4 13
f 9 1 11
f 1 8 14
f 6 2 12
f 13 1 14
f 7 10 5
f 9 3 5
f 2 4 8
f 4 14 8
