# Created by Open3D 
# object name: convex_0_coll
# number of vertices: 14
# number of triangles: 24
v 0.032555 -0.06004 0.02238
v -0.02341 -0.06411 0.0234
v 0.0325525 -0.06513 0.016775
v -0.00915 -0.04681 0.02238
v 0.03765 -0.05699 0.01627
v -0.02543 -0.04681 0.01627
v 0.00915 -0.06106 -0.03256
v -0.04376 -0.05292 0.00406
v -0.01934 -0.05496 -0.02849
v 0.01322 -0.05292 -0.02849
v -0.02136 -0.06106 -0.027475
v 0.03357 -0.05699 -0.02442
v -0.04376 -0.05292 0.02034
v -0.0412125 -0.06106 0.01169
f 1 2 3
f 4 1 5
f 1 3 5
f 8 6 9
f 6 10 9
f 4 13 2
f 13 8 14
f 8 11 14
f 4 5 12
f 7 3 11
f 11 3 2
f 2 14 11
f 1 4 2
f 6 8 13
f 4 6 13
f 7 10 12
f 8 9 11
f 3 12 5
f 7 11 9
f 7 9 10
f 4 12 10
f 2 13 14
f 10 6 4
f 12 3 7
