# Created by Open3D 
# object name: convex_2_coll
# number of vertices: 14
# number of triangles: 24
v -0.0417225 0.0005125 0.025435
v -0.023405 -0.01424 0.02442
v 0.0295 -0.01526 0.02442
v -0.02748 0.03052 0.02442
v 0.03967 -0.01221 0.03052
v -0.00102 -0.00203 0.03256
v 0.00102 0.02442 0.03256
v 0.048835 0.0167775 0.025435
v 0.05189 0.0183 0.03052
v 0.01321 0.0407 0.02645
v 0.0134738 0.0328163 0.03103
v -0.0259525 0.0310275 0.02645
v 0.0055925 -0.0178075 0.02645
v -0.04376 0.01018 0.02645
f 3 2 4
f 3 4 8
f 7 6 9
f 4 2 1
f 8 4 10
f 7 9 11
f 10 9 8
f 5 8 9
f 4 12 10
f 12 11 10
f 5 2 13
f 6 5 9
f 2 3 13
f 4 1 14
f 12 4 14
f 12 14 7
f 7 14 6
f 9 10 11
f 6 14 1
f 3 8 5
f 3 5 13
f 2 5 6
f 12 7 11
f 2 6 1
