# Created by Open3D 
# object name: convex_16_coll
# number of vertices: 14
# number of triangles: 24
v -0.006585 0.00527 -0.04746
v -0.00791 -0.00132 -0.03164
v 0 -0 -0.03164
v 0.017135 -0.009225 -0.06591
v -0.01318 -0.00527 -0.06591
v -0.01054 0.00527 -0.06591
v 0.01845 -0 -0.05009
v 0.01318 0.003955 -0.06591
v -0.01582 0.00132 -0.050095
v -0.010545 -0.00527 -0.04087
v -0.00527 -0.01054 -0.06591
v 0.009225 -0.009225 -0.052725
v 0.01845 -0.00527 -0.05009
v 0 -0.00264 -0.03164
f 1 2 3
f 4 5 6
f 4 6 8
f 2 9 10
f 1 7 8
f 6 1 8
f 5 4 11
f 10 5 11
f 12 4 13
f 7 3 13
f 8 7 4
f 7 13 4
f 6 9 1
f 11 4 12
f 12 14 10
f 14 2 10
f 11 12 10
f 5 10 9
f 1 9 2
f 3 2 14
f 12 13 14
f 13 3 14
f 6 5 9
f 7 1 3
