# Created by Open3D 
# object name: convex_4_coll
# number of vertices: 14
# number of triangles: 24
v 0.0678875 0.07844 -0.041515
v 0.06195 0.08174 -0.040855
v 0.01846 0.07119 0.07119
v 0.01846 0.07119 -0.04217
v 0.07118 0.07646 -0.00526
v 0.07118 0.06592 -0.03954
v 0.01846 0.08174 0.06327
v 0.04745 0.08174 0.058
v 0.06855 0.06328 0.06854
v 0.06327 0.08174 0.01582
v 0.025055 0.08042 -0.040855
v 0.058 0.07646 0.07119
v 0.0395525 0.076465 -0.04746
v 0.06591 0.07646 0.06327
f 4 3 7
f 8 2 7
f 4 9 3
f 6 5 9
f 2 8 10
f 7 2 11
f 5 14 9
f 14 12 9
f 11 2 13
f 2 1 13
f 4 11 13
f 1 10 5
f 10 8 14
f 5 10 14
f 5 6 1
f 7 3 12
f 8 7 12
f 14 8 12
f 6 4 13
f 4 7 11
f 3 9 12
f 13 1 6
f 4 6 9
f 10 1 2
