# Created by Open3D 
# object name: convex_6_coll
# number of vertices: 14
# number of triangles: 24
v -0.06064 0.06592 0.058
v -0.05272 0.07119 0.01055
v 0.01846 0.07119 0.01055
v -0.05009 0.07778 0.01055
v -0.06064 0.075145 0.06723
v -0.01056 0.0791 0.07119
v -0.047455 0.08174 0.058
v 0.01846 0.08174 0.0132
v 0.01582 0.06856 0.07119
v -0.0520675 0.08042 0.026375
v 0.00526 0.08437 0.06591
v -0.06064 0.06724 0.06723
v 0.01714 0.083055 0.060635
v -0.06064 0.071195 0.032965
f 3 2 4
f 5 6 7
f 3 8 9
f 10 7 11
f 9 12 1
f 9 8 13
f 3 4 8
f 8 4 10
f 11 8 10
f 2 1 14
f 1 3 9
f 7 6 11
f 2 14 4
f 14 10 4
f 14 1 12
f 5 12 9
f 6 5 9
f 6 9 11
f 9 13 11
f 5 10 14
f 12 5 14
f 7 10 5
f 13 8 11
f 3 1 2
