# Created by Open3D 
# object name: convex_15_coll
# number of vertices: 14
# number of triangles: 24
v -0.06592 0.00791 -0.03164
v -0.06064 0.00791 -0.06591
v -0.07383 -0.01054 -0.06591
v -0.07119 -0.01318 -0.06591
v -0.07383 -0.01054 -0.03164
v -0.07383 0.01318 -0.06591
v -0.07383 0.00791 -0.03164
v -0.06592 -0.01054 -0.03164
v -0.07383 0.01582 -0.05009
v -0.06592 0.01582 -0.06591
v -0.06855 -0.01318 -0.03428
v -0.06064 -0.01054 -0.06328
v -0.06328 -0.01318 -0.06591
v -0.06855 0.01582 -0.04746
f 3 4 5
f 4 3 6
f 3 5 6
f 4 6 2
f 6 5 7
f 5 1 7
f 1 5 8
f 6 7 9
f 2 6 10
f 6 9 10
f 5 4 11
f 8 5 11
f 12 8 11
f 4 2 13
f 2 12 13
f 11 4 13
f 12 11 13
f 8 12 1
f 7 1 14
f 9 7 14
f 10 9 14
f 14 1 2
f 10 14 2
f 1 12 2
