# Created by Open3D 
# object name: convex_21_coll
# number of vertices: 14
# number of triangles: 24
v -0.0211 0.07646 -0.00263
v -0.03428 0.0791 0.00264
v -0.01583 0.0791 0.00527
v -0.05273 0.07383 -0.01054
v -0.05273 0.07119 0.01055
v -0.01583 0.0791 0.01055
v -0.04482 0.0791 0.01055
v -0.01583 0.07119 0
v -0.01583 0.07119 0.01055
v -0.03691 0.06856 0.00791
v -0.05273 0.06856 -0.0079
v -0.05273 0.07646 0.01055
v -0.05273 0.06856 0.00791
v -0.03955 0.06856 -0.00527
f 1 2 3
f 5 6 7
f 8 4 1
f 6 5 9
f 8 6 9
f 5 10 9
f 10 8 9
f 5 4 11
f 7 6 2
f 4 7 2
f 1 4 2
f 4 5 12
f 7 4 12
f 5 7 12
f 10 5 13
f 5 11 13
f 11 10 13
f 4 8 14
f 8 10 14
f 11 4 14
f 10 11 14
f 6 8 3
f 8 1 3
f 2 6 3
