# Created by Open3D 
# object name: convex_19_coll
# number of vertices: 14
# number of triangles: 24
v 0.001975 0.00527 0.00659
v 0.00263 -0 -0.03163
v -0.03163 -0.00791 -0
v -0.029 -0.00791 0.00791
v -0.01318 -0.00791 -0.02109
v -0.02636 -0.00527 -0.01581
v 0.03163 0.00132 0.00527
v 0.007905 0.00264 0.01319
v 0.03427 -0.00264 0.007905
v -0.00527 -0.00791 0.01319
v 0.00527 -0.01054 0.00791
v 0.00263 -0.00527 -0.029
v -0.03163 0.00264 0.002635
v -0.019775 0.00264 -0.019765
f 6 2 5
f 3 6 5
f 9 7 8
f 7 1 8
f 2 7 9
f 11 9 10
f 9 8 10
f 2 9 12
f 13 3 4
f 10 8 4
f 8 13 4
f 2 6 14
f 1 2 14
f 6 3 13
f 14 6 13
f 1 14 13
f 11 12 9
f 2 12 5
f 11 3 5
f 12 11 5
f 7 2 1
f 4 3 11
f 10 4 11
f 13 8 1
