# Created by Open3D 
# object name: convex_7_coll
# number of vertices: 14
# number of triangles: 24
v 0.07646 0.00791 0.01845
v 0.07646 -0.00527 0.04218
v 0.07382 0.00791 -0.01054
v 0.07119 -0.01054 -0.01845
v 0.06328 -0.01318 -0.01845
v 0.0646 0.00923 -0.01845
v 0.07382 0.01318 0.01845
v 0.07119 0.01055 -0.01845
v 0.06592 0.00923 0.031635
v 0.06328 0.00527 0.00792
v 0.07646 0.00791 0.04745
v 0.06855 0.01318 0.02373
v 0.0646 -0.002635 0.021095
v 0.07119 -0.00395 0.044815
f 1 2 3
f 4 5 6
f 3 7 1
f 4 6 8
f 6 7 8
f 7 3 8
f 5 10 6
f 10 9 6
f 2 1 11
f 1 7 11
f 6 9 12
f 9 11 12
f 7 6 12
f 11 7 12
f 10 5 13
f 2 11 14
f 10 13 9
f 14 11 9
f 13 14 9
f 4 2 5
f 2 14 5
f 14 13 5
f 4 8 3
f 2 4 3
