# Created by Open3D 
# object name: convex_13_coll
# number of vertices: 14
# number of triangles: 24
v 0.067235 -0.01318 -0.07119
v 0.07382 0.00263 -0.07119
v 0.065915 -0.03428 -0.04745
v 0.05801 0.001315 -0.07119
v 0.06328 -0.03428 -0.0211
v 0.06855 -0.03428 -0.02373
v 0.06855 0.01318 -0.07119
v 0.07119 0.01054 -0.01845
v 0.06328 0.0211 -0.03691
v 0.059325 0.001315 -0.03296
v 0.06328 0.0079 -0.01845
v 0.07382 -0.01054 -0.06855
v 0.06855 0.0211 -0.04482
v 0.06328 0.01846 -0.05932
f 4 3 5
f 3 6 5
f 5 6 8
f 9 10 11
f 3 4 1
f 4 7 1
f 12 6 3
f 8 6 12
f 4 5 10
f 9 13 14
f 1 7 2
f 5 8 11
f 8 2 13
f 4 10 9
f 14 4 9
f 8 12 2
f 2 7 13
f 5 11 10
f 4 14 7
f 14 13 7
f 9 11 8
f 13 9 8
f 12 3 1
f 2 12 1
