# Created by Open3D 
# object name: convex_14_coll
# number of vertices: 14
# number of triangles: 24
v -0.01055 0.06856 -0.06327
v -0.05273 0.06856 -0.06064
v -0.05273 0.07646 -0.06591
v -0.05273 0.07119 -0.06591
v -0.05273 0.06856 -0.02901
v -0.05273 0.0791 -0.05009
v 0.01846 0.0791 -0.02109
v 0.01846 0.07119 -0.02109
v 0.01846 0.0791 -0.04219
v -0.01319 0.0791 -0.06327
v -0.05273 0.07383 -0.02901
v -0.00791 0.073825 -0.06591
v 0.01846 0.07119 -0.04219
v -0.00265 0.06856 -0.04219
f 3 4 5
f 3 5 6
f 7 5 8
f 6 9 10
f 9 6 7
f 5 7 11
f 6 5 11
f 7 6 11
f 4 3 12
f 9 8 13
f 5 4 2
f 1 5 2
f 5 1 14
f 8 5 14
f 1 13 14
f 13 8 14
f 3 10 12
f 10 9 12
f 6 10 3
f 13 12 9
f 8 9 7
f 4 12 1
f 12 13 1
f 2 4 1
