# Created by Open3D 
# object name: convex_1_coll
# number of vertices: 14
# number of triangles: 24
v 0.060645 -0.072505 -0.072495
v 0.06987 -0.08173 -0.047445
v 0.0501 -0.075135 -0.07382
v 0.0501 -0.08437 -0.06326
v 0.0501 -0.0791 0.02636
v 0.07053 -0.077775 0.019105
v 0.07119 -0.065915 -0.05799
v 0.07119 -0.03691 -0.04745
v 0.06328 -0.08437 0.02899
v 0.0501 -0.08437 0.02371
v 0.06328 -0.03428 -0.05008
v 0.06328 -0.03428 -0.01846
v 0.06855 -0.03428 -0.0211
v 0.06196 -0.0791 0.03163
f 3 4 5
f 6 7 8
f 9 4 2
f 5 4 10
f 4 9 10
f 11 12 13
f 12 11 3
f 7 6 2
f 4 3 1
f 12 5 14
f 5 10 14
f 14 10 9
f 9 2 6
f 12 3 5
f 7 1 8
f 3 11 1
f 11 8 1
f 1 7 2
f 13 6 8
f 14 9 6
f 6 13 14
f 13 12 14
f 13 8 11
f 4 1 2
