# Created by Open3D 
# object name: convex_11_coll
# number of vertices: 14
# number of triangles: 24
v -0.0049525 0.00132 -0.08173
v -0.07117 -0.01318 -0.06592
v 0.01317 -0.01186 -0.06592
v -0.07382 0.01318 -0.06592
v 0.01845 0.00264 -0.06592
v 0.04746 0.00791 -0.076465
v -0.02108 0.03428 -0.07119
v 0.04746 -0.0079 -0.076465
v -0.05272 0.03428 -0.07119
v -0.04745 0.03428 -0.07646
v -0.07117 0.01845 -0.07383
v 0.010525 -0.014495 -0.07778
v -0.0606275 -0.0013175 -0.0791
v -0.063265 -0.01846 -0.073825
f 2 3 4
f 4 3 5
f 7 5 6
f 5 3 6
f 7 10 9
f 10 11 9
f 6 3 8
f 13 1 14
f 3 2 14
f 6 10 7
f 14 12 3
f 12 8 3
f 7 9 5
f 1 8 12
f 14 1 12
f 10 6 1
f 9 11 4
f 5 9 4
f 2 4 11
f 10 1 13
f 11 10 13
f 2 11 13
f 13 14 2
f 6 8 1
