# Created by Open3D 
# object name: convex_2_coll
# number of vertices: 14
# number of triangles: 24
v -0.0501 0.0356 -0.07382
v -0.03427 0.06592 -0.06855
v -0.03427 0.06592 -0.07382
v -0.01846 0.06592 -0.07119
v -0.01846 0.06064 -0.07646
v -0.03164 0.06592 -0.07646
v -0.0211 0.04746 -0.07646
v -0.0211 0.03428 -0.07119
v -0.0501 0.03428 -0.07119
v -0.02373 0.05273 -0.06855
v -0.01319 0.0501 -0.07119
v -0.0211 0.03428 -0.07382
v -0.01319 0.0501 -0.07382
v -0.02373 0.06592 -0.06855
f 1 2 3
f 4 5 6
f 2 4 6
f 6 5 7
f 1 8 9
f 2 9 10
f 9 8 10
f 10 8 11
f 8 1 12
f 1 7 12
f 11 8 12
f 5 4 13
f 7 5 13
f 4 11 13
f 12 7 13
f 11 12 13
f 4 2 14
f 2 10 14
f 10 11 14
f 11 4 14
f 1 6 7
f 9 2 1
f 2 6 3
f 6 1 3
