# Created by Open3D 
# object name: convex_18_coll
# number of vertices: 11
# number of triangles: 18
v -0.06328 -0.00527 0
v -0.06064 -0.00791 0.00264
v -0.06064 -0.00791 0.00527
v -0.03164 0.00264 0.00527
v -0.03164 -0 0.00791
v -0.03164 -0.00791 0
v -0.06328 0.00264 0.00527
v -0.06328 0.00264 0
v -0.05537 -0.00527 0.00791
v -0.03164 0.00264 0
v -0.03164 -0.00791 0.00527
f 1 2 3
f 4 5 6
f 5 4 7
f 4 8 7
f 9 5 7
f 4 6 10
f 6 8 10
f 8 4 10
f 6 5 11
f 2 6 11
f 5 9 11
f 6 2 1
f 8 6 1
f 7 8 1
f 7 1 3
f 9 7 3
f 2 11 3
f 11 9 3
