# Created by Open3D 
# object name: convex_12_coll
# number of vertices: 14
# number of triangles: 24
v 0.04746 0.00791 -0.07383
v 0.05273 0 -0.07119
v 0.06591 0.01319 -0.07119
v 0.07119 -0.01054 -0.07119
v 0.04746 0.00791 -0.0791
v 0.06591 -0.00263 -0.0791
v 0.04746 -0.0079 -0.0791
v 0.04746 -0.0079 -0.07383
v 0.06855 0.00791 -0.07646
v 0.07119 -0.01054 -0.07383
v 0.07119 0.00791 -0.07119
v 0.06328 0.00791 -0.0791
v 0.06064 -0.01054 -0.07119
v 0.06064 -0.0079 -0.0791
f 3 2 4
f 6 7 5
f 3 5 1
f 5 7 1
f 2 1 8
f 1 7 8
f 6 9 10
f 10 9 11
f 3 4 11
f 9 3 11
f 4 10 11
f 5 3 12
f 6 5 12
f 3 9 12
f 9 6 12
f 4 2 13
f 2 8 13
f 8 7 13
f 10 4 13
f 7 10 13
f 7 6 14
f 10 7 14
f 6 10 14
f 3 1 2
