# Created by Open3D 
# object name: convex_22_coll
# number of vertices: 11
# number of triangles: 18
v -0.01582 0.07119 -0
v -0.01582 0.0791 0.00527
v -0.01318 0.07646 -0.00264
v 0.01845 0.0791 0.01055
v -0.01582 0.07119 0.01055
v 0.01845 0.07119 0.01055
v 0.01845 0.07119 -0.02109
v 0.01054 0.07383 -0.02109
v 0.01054 0.07646 -0.02109
v 0.01845 0.0791 -0.02109
v -0.01582 0.0791 0.01055
f 1 2 3
f 4 5 6
f 6 5 7
f 8 9 7
f 4 6 7
f 2 4 10
f 9 2 10
f 4 7 10
f 7 9 10
f 5 2 1
f 7 5 1
f 8 7 1
f 5 4 11
f 4 2 11
f 2 5 11
f 9 8 3
f 2 9 3
f 8 1 3
