# Created by Open3D 
# object name: convex_5_coll
# number of vertices: 14
# number of triangles: 24
v 0.07382 0.02373 0.07119
v 0.0791 5.00004e-06 0.054055
v 0.07514 0.00791 0.04747
v 0.07646 -0.01318 0.07119
v 0.06855 -0.01318 0.06592
v 0.07646 -0.00527 0.04747
v 0.05537 -0.01054 0.06855
v 0.05537 0.01582 0.06855
v 0.05537 -0.01054 0.07646
v 0.05537 0.01582 0.07646
v 0.07382 0.00264 0.07646
v 0.07119 0.02373 0.06855
v 0.07119 0.001325 0.04747
v 0.0791 0.00264 0.07119
f 1 2 3
f 4 5 6
f 5 7 6
f 8 7 9
f 10 9 11
f 3 8 12
f 7 8 13
f 3 6 13
f 6 7 13
f 1 14 2
f 4 6 2
f 8 9 10
f 12 8 10
f 12 10 1
f 11 9 4
f 1 10 11
f 14 1 11
f 11 4 14
f 4 2 14
f 5 4 9
f 7 5 9
f 8 3 13
f 12 1 3
f 2 6 3
