# Created by Open3D 
# object name: convex_17_coll
# number of vertices: 14
# number of triangles: 24
v -0.07383 -0.00791 -0.01845
v -0.07119 -0.00527 0.00263
v -0.07119 0 0.00263
v -0.06592 -0.01054 -0.03164
v -0.07383 -0.01054 -0.03164
v -0.06855 0.00791 -0.03164
v -0.06328 -0.00791 0.00527
v -0.07383 0.00527 -0.02372
v -0.06855 0.00264 0.00527
v -0.06592 0.00527 -0.03164
v -0.06328 0 0.00791
v -0.06328 0.00264 -0.00264
v -0.06855 -0.00791 0.00527
v -0.07383 0.00527 -0.03164
f 1 2 3
f 4 5 6
f 5 4 7
f 6 8 9
f 4 6 10
f 11 7 12
f 7 4 12
f 9 11 12
f 6 9 12
f 4 10 12
f 10 6 12
f 7 11 13
f 5 7 13
f 11 9 13
f 9 2 13
f 6 5 14
f 5 8 14
f 8 6 14
f 8 5 1
f 5 13 1
f 13 2 1
f 2 9 3
f 9 8 3
f 8 1 3
