# Created by Open3D 
# object name: convex_20_coll
# number of vertices: 14
# number of triangles: 24
v -0.01318 -0 0.03164
v -0.00263 0.00264 0.01319
v -0.00527 -0.002635 0.01319
v 0.01582 0.00264 0.01319
v -0.00263 0.00264 0.03164
v 0.0079 -0.00791 0.01319
v 0.019775 0.00264 0.02505
v 0.00527 -0.00659 0.031635
v 0.02109 -0.00264 0.02637
v 0.00264 -0 0.03691
v 0.01846 -0.00264 0.01319
v -0.01318 -0.00527 0.029
v -0.00263 -0.00791 0.01319
v -0.00791 -0.00527 0.03427
f 1 2 3
f 3 2 4
f 2 5 4
f 3 4 6
f 4 5 7
f 5 2 1
f 8 9 10
f 9 7 10
f 7 5 10
f 5 1 10
f 6 4 11
f 12 3 13
f 3 6 13
f 6 8 13
f 8 12 13
f 1 12 14
f 8 10 14
f 10 1 14
f 12 8 14
f 6 11 9
f 8 6 9
f 11 4 7
f 9 11 7
f 12 1 3
