# Created by Open3D 
# object name: convex_3_coll
# number of vertices: 13
# number of triangles: 22
v -0.05537 0.07119 -0.06591
v -0.03427 0.06592 -0.06855
v -0.0211 0.06856 -0.06591
v -0.00792 0.07119 -0.06591
v -0.00792 0.07647 -0.06591
v -0.05537 0.07647 -0.06591
v -0.04218 0.07119 -0.07382
v -0.02374 0.07383 -0.07382
v -0.02374 0.06592 -0.07382
v -0.04746 0.07647 -0.07119
v -0.03691 0.06592 -0.07382
v -0.00792 0.07647 -0.06855
v -0.05537 0.07119 -0.06855
f 1 2 3
f 4 5 6
f 7 8 9
f 4 6 1
f 6 5 10
f 8 7 10
f 7 9 11
f 9 2 11
f 2 1 11
f 5 4 12
f 9 8 12
f 4 9 12
f 10 5 12
f 8 10 12
f 1 6 13
f 6 10 13
f 10 7 13
f 7 11 13
f 11 1 13
f 2 9 3
f 9 4 3
f 4 1 3
