# Created by Open3D 
# object name: convex_0_coll
# number of vertices: 14
# number of triangles: 24
v -0.06592 -0.07646 -0.039545
v -0.0626125 -0.074485 0.0006425
v 0.0501 -0.07514 -0.07381
v 0.0501 -0.0791 0.02636
v 0.0501 -0.08437 -0.06326
v 0.0501 -0.08437 0.02636
v -0.04482 -0.08437 0.02899
v -0.0639375 -0.06328 -0.07249
v -0.0369 -0.06064 -0.071175
v -0.056685 -0.06856 -0.00265
v -0.03164 -0.0791 0.03428
v -0.04614 -0.068555 -0.07645
v -0.058 -0.07646 -0.07381
v -0.052725 -0.08305 -0.051405
f 3 4 5
f 5 4 6
f 5 6 7
f 10 9 8
f 3 9 4
f 12 13 8
f 10 4 9
f 5 7 14
f 13 3 5
f 8 13 1
f 7 2 1
f 6 4 11
f 7 6 11
f 3 13 12
f 5 14 13
f 3 12 9
f 10 8 2
f 8 1 2
f 9 12 8
f 14 7 1
f 11 10 7
f 10 2 7
f 13 14 1
f 11 4 10
