# Created by Open3D 
# object name: convex_9_coll
# number of vertices: 14
# number of triangles: 24
v -0.02637 -0.00922 0.0646
v 0.00528 -0.02109 0.0712
v 0 0.01846 0.0712
v 0.05537 0.01581 0.06856
v 0.05537 -0.01054 0.06856
v 0.05537 -0.01054 0.07646
v -0.02637 0.006585 0.06592
v -0.0243875 0.010545 0.076465
v -0.02637 -0.00922 0.07778
v 0.05537 0.01581 0.07646
v 0.0145 0.003955 0.06328
v -0.0019775 0.013185 0.0791
v -0.01186 -0.005265 0.08174
v 0.00528 -0.02109 0.07646
f 5 4 6
f 7 1 8
f 8 1 9
f 4 3 10
f 6 4 10
f 5 6 2
f 10 12 13
f 10 3 12
f 11 1 7
f 3 11 7
f 11 3 4
f 10 13 6
f 14 9 1
f 13 8 9
f 9 14 13
f 7 8 3
f 8 12 3
f 2 6 14
f 2 1 5
f 1 11 5
f 8 13 12
f 11 4 5
f 6 13 14
f 14 1 2
