# Created by Open3D 
# object name: convex_8_coll
# number of vertices: 14
# number of triangles: 24
v -0.04219 -0.03163 0.06592
v -0.076465 -0.01054 0.06065
v -0.0454875 -0.00132 0.0501
v -0.04614 0.01319 0.067235
v -0.02637 0.00791 0.0791
v -0.02637 0.006585 0.06592
v -0.02637 -0.00791 0.06329
v -0.02637 -0.00791 0.0791
v -0.071185 -0.0230625 0.069215
v -0.0791 -0.003955 0.07119
v -0.04615 -0.0309725 0.07185
v -0.0744875 0.0085675 0.0613075
v -0.069865 -0.014495 0.07646
v -0.07383 0.01054 0.07383
f 1 2 3
f 4 5 6
f 5 7 6
f 7 5 8
f 2 9 10
f 3 2 12
f 8 5 13
f 5 4 14
f 7 3 6
f 11 13 9
f 14 12 10
f 12 2 10
f 4 3 12
f 14 4 12
f 4 6 3
f 10 9 13
f 5 14 13
f 14 10 13
f 9 1 11
f 13 11 8
f 7 8 1
f 3 7 1
f 8 11 1
f 1 9 2
