# Created by Open3D 
# object name: convex_10_coll
# number of vertices: 14
# number of triangles: 24
v -0.06592 0.06065 -0.01847
v -0.06196 0.06592 0.00131
v -0.06592 0.061965 -0.043495
v -0.05273 0.06856 -0.06063
v -0.05273 0.0791 -0.05535
v -0.05273 0.06856 0.0079
v -0.06592 0.07383 -0.05272
v -0.06064 0.06065 -0.027685
v -0.05273 0.07383 0.01055
v -0.06592 0.07119 -0.01319
v -0.06064 0.07383 0.00527
v -0.06328 0.07646 -0.058
v -0.05273 0.07646 -0.06591
v -0.06064 0.07119 -0.06591
f 5 6 4
f 7 3 1
f 4 6 8
f 6 5 9
f 7 1 10
f 10 11 12
f 7 10 12
f 8 6 2
f 9 11 2
f 6 9 2
f 5 4 13
f 13 14 12
f 14 7 12
f 3 4 8
f 4 3 14
f 3 7 14
f 13 4 14
f 11 9 5
f 12 11 5
f 13 12 5
f 3 8 1
f 8 2 1
f 11 10 2
f 10 1 2
