# Created by Open3D 
# object name: convex_3_coll
# number of vertices: 14
# number of triangles: 24
v 0.07202 0.05288 0.002245
v 0.0658325 0.05626 0.010115
v 0.05402 0.012375 0.03825
v 0.05402 0.03263 -0.024755
v 0.05402 -0.02813 0.00899
v 0.07202 0.01687 -0.02475
v 0.07202 0.01687 0.027
v 0.06752 0.02588 0.036
v 0.06302 0.02588 -0.03152
v 0.0602075 -0.02025 0.0253075
v 0.066395 -0.036005 0.007865
v 0.068645 -0.0264425 -0.020815
v 0.064145 0.05288 -0.0225
v 0.0579575 -0.0320675 -0.02307
f 3 4 5
f 6 1 7
f 10 5 11
f 8 10 11
f 7 8 11
f 13 4 2
f 4 3 2
f 2 3 8
f 3 10 8
f 14 12 11
f 13 1 6
f 2 1 13
f 5 14 11
f 7 1 8
f 13 6 9
f 5 4 14
f 4 9 14
f 10 3 5
f 9 6 12
f 14 9 12
f 6 7 12
f 7 11 12
f 4 13 9
f 8 1 2
