# Created by Open3D 
# object name: convex_6_coll
# number of vertices: 14
# number of triangles: 24
v 0.03826 0.01688 0.036
v 0.05401 0.01688 0.037125
v 0.03826 0.02813 0.0135
v 0.03826 -0.00337 0.01575
v 0.05401 -0.00788 0.02025
v 0.05401 0.02813 0.01575
v 0.03826 0.01013 0.036
v 0.03826 0.02813 0.02025
v 0.05401 -0.00788 0.0135
v 0.05176 0.006755 0.037125
v 0.03826 0.01463 0.01125
v 0.05401 0.01688 0.01125
v 0.05401 0.02813 0.0225
v 0.03826 -0.00337 0.02025
f 1 3 4
f 2 5 6
f 1 4 7
f 3 1 8
f 6 3 8
f 6 5 9
f 5 2 10
f 4 3 11
f 6 9 12
f 2 6 13
f 6 8 13
f 7 4 14
f 7 14 10
f 12 11 3
f 11 12 9
f 4 11 9
f 14 4 9
f 14 9 5
f 10 14 5
f 1 7 2
f 7 10 2
f 12 3 6
f 8 1 2
f 13 8 2
