# Created by Open3D 
# object name: convex_0_coll
# number of vertices: 14
# number of triangles: 24
v -0.03599 -0.06639 0.03599
v -0.02812 -0.06189 0.03825
v -0.04725 -0.04614 0.01574
v -0.01125 -0.04614 0.01574
v -0.00451 -0.04614 -0.00675
v 0.027 -0.06639 -0.02925
v 0.02925 -0.06639 0.02249
v 0.03826 -0.05739 -0.0225
v -0.00338 -0.0545775 -0.036005
v -0.0405 -0.06189 -0.03825
v 0.03826 -0.05739 0.01349
v -0.05513 -0.05064 -0.02813
v -0.05626 -0.05739 -0.02926
v -0.054 -0.05289 0.01124
f 3 4 5
f 1 6 7
f 4 3 2
f 5 8 9
f 6 1 10
f 4 11 5
f 11 8 5
f 12 13 14
f 11 4 2
f 7 6 8
f 11 7 8
f 9 10 12
f 10 13 12
f 13 1 14
f 3 1 2
f 1 13 10
f 5 12 3
f 10 9 6
f 7 11 2
f 1 7 2
f 3 12 14
f 1 3 14
f 6 9 8
f 9 12 5
