# Created by Open3D 
# object name: convex_5_coll
# number of vertices: 14
# number of triangles: 24
v -0.040495 0.061885 0.01575
v -0.05626 -0.003375 0.02024
v 0.037125 0.02699 0.012375
v 0.03826 0.011235 0.02925
v -0.05626 -0.03263 0.01125
v 0.00674 0.01686 0.02925
v 0.0315 -0.02362 0.00674
v -0.009 -0.04614 0.01575
v -0.04725 -0.04614 0.01575
v 0.03374 -0.01913 0.018
v 0.00449 0.06188 0.01575
v 0.003365 0.05851 0.010125
v -0.054005 0.03262 0.01125
v -0.03599 0.06414 0.01125
f 3 4 7
f 11 3 12
f 5 2 13
f 3 11 4
f 7 8 5
f 8 9 5
f 11 12 1
f 2 1 13
f 8 10 4
f 9 2 5
f 4 11 6
f 11 1 6
f 4 6 2
f 9 4 2
f 7 4 10
f 9 8 4
f 13 14 5
f 14 7 5
f 12 3 7
f 1 12 14
f 12 7 14
f 13 1 14
f 10 8 7
f 6 1 2
