# Created by Open3D 
# object name: convex_4_coll
# number of vertices: 14
# number of triangles: 24
v -0.035435 -0.0405075 -0.001135
v 0.0315 -0.02587 0.00674
v -0.0382475 -0.0005675 0.003365
v -0.05626 -0.01913 -0.01126
v 0.00674 0.0618875 -0.01126
v 0.03826 0.01687 -0.00901
v 0.03826 -0.02587 -0.00226
v -8.74999e-06 0.0278438 -0.01576
v 0.00224 0.05964 0.00224
v -0.0495 0.04162 -0.00226
v -0.005625 -0.0371325 -0.0106975
v 0.00393 -0.043885 -0.00226
v -0.01913 0.060755 -0.00226
v -0.048375 0.042745 -0.010135
f 1 2 3
f 9 2 6
f 6 5 9
f 2 1 12
f 10 3 9
f 14 8 4
f 4 3 10
f 10 13 14
f 3 4 1
f 12 1 11
f 5 8 14
f 6 2 7
f 2 12 7
f 9 13 10
f 6 8 5
f 13 5 14
f 3 2 9
f 1 4 11
f 4 8 11
f 5 13 9
f 12 11 7
f 4 10 14
f 11 8 6
f 7 11 6
