# Created by Open3D 
# object name: convex_7_coll
# number of vertices: 14
# number of triangles: 24
v 0.04726 0.02588 -0.02026
v 0.05176 0.03263 -0.02251
v 0.04951 0.02813 -0.02476
v 0.05401 0.03263 -0.02026
v 0.05401 0.03038 -0.01351
v 0.05401 0.01688 -0.02476
v 0.04951 0.01913 -0.02476
v 0.05176 0.03038 -0.02476
v 0.05401 0.01688 -0.01576
v 0.05176 0.01913 -0.01351
v 0.05176 0.03038 -0.01351
v 0.04726 0.02138 -0.02251
v 0.05176 0.01688 -0.01576
v 0.05401 0.03038 -0.02476
f 1 2 3
f 4 5 6
f 6 7 8
f 6 5 9
f 5 10 9
f 5 4 11
f 10 5 11
f 1 10 11
f 10 1 12
f 11 4 2
f 1 11 2
f 7 6 13
f 6 9 13
f 9 10 13
f 10 12 13
f 12 7 13
f 4 6 14
f 6 8 14
f 2 4 14
f 8 2 14
f 8 7 3
f 12 1 3
f 7 12 3
f 2 8 3
