# Created by Open3D 
# object name: convex_1_coll
# number of vertices: 14
# number of triangles: 24
v 0.04726 -0.06189 -1e-05
v 0.04276 -0.06414 -0.00226
v 0.04051 -0.06189 -0.02026
v 0.03826 -0.06414 -0.009
v 0.03826 -0.06414 0.0135
v 0.03826 -0.05739 -0.01126
v 0.04501 -0.05739 0.00674
v 0.03826 -0.05739 0.01124
v 0.04051 -0.05964 -0.02026
v 0.04726 -0.05964 0.00224
v 0.04276 -0.06414 0.01124
v 0.04501 -0.05964 0.01124
v 0.03826 -0.06189 -0.02026
v 0.04501 -0.05739 -0.00226
f 1 2 3
f 4 5 6
f 7 6 8
f 6 5 8
f 9 10 1
f 5 4 11
f 11 1 12
f 10 7 12
f 7 8 12
f 8 5 12
f 1 10 12
f 5 11 12
f 4 6 13
f 6 9 13
f 7 10 14
f 6 7 14
f 10 9 14
f 9 6 14
f 11 4 2
f 1 11 2
f 9 1 3
f 4 13 3
f 13 9 3
f 2 4 3
