# Created by Open3D 
# object name: convex_8_coll
# number of vertices: 14
# number of triangles: 24
v 0.04726 0.02813 -0.00676
v 0.05401 0.02813 -0.00901
v 0.052885 0.03038 -0.01351
v 0.04951 0.01238 -0.00901
v 0.05401 0.01913 -0.01351
v 0.04951 0.01238 -0.00451
v 0.04726 0.02363 -0.00451
v 0.03826 0.01463 -0.00451
v 0.03826 0.015755 -0.00901
v 0.04951 0.02138 -0.01351
v 0.03826 0.01688 -0.00451
v 0.05401 0.02138 -0.00901
v 0.04501 0.01238 -0.00901
v 0.04726 0.02813 -0.01126
f 1 2 3
f 4 5 6
f 6 2 7
f 8 6 7
f 2 1 7
f 5 9 10
f 3 5 10
f 9 3 10
f 8 7 11
f 7 1 11
f 9 8 11
f 1 9 11
f 6 5 12
f 5 2 12
f 2 6 12
f 8 9 13
f 9 5 13
f 5 4 13
f 6 8 13
f 4 6 13
f 1 3 14
f 3 9 14
f 9 1 14
f 2 5 3
