# Created by Open3D 
# object name: convex_2_coll
# number of vertices: 14
# number of triangles: 24
v -0.064145 -0.002245 -0.032635
v -0.05627 0.01687 0.01799
v -0.05627 -0.03037 0.01574
v -0.06752 0.039375 0.01349
v -0.07202 0.01463 0.01349
v -0.07202 0.03038 -0.02926
v -0.061895 0.0596375 -0.0135075
v -0.05852 -0.02588 -0.027
v -0.059645 0.047255 -0.02588
v -0.066395 -0.00337 0.018555
v -0.06752 0.06188 -0.02476
v -0.06302 0.029245 -0.032635
v -0.06752 -0.02813 0.01349
v -0.06752 -0.033755 -0.022505
f 4 2 7
f 2 3 8
f 9 2 8
f 4 5 10
f 6 11 12
f 13 14 8
f 9 8 1
f 3 2 10
f 6 5 4
f 13 10 5
f 6 4 11
f 13 5 14
f 7 2 9
f 13 8 3
f 11 4 7
f 7 9 11
f 9 12 11
f 1 14 6
f 10 2 4
f 14 1 8
f 6 14 5
f 1 6 12
f 9 1 12
f 3 10 13
