# Original object name hint: convex_3
v 0.06101 0.07692 0.03448
v -0.06366 0.07162 0.00796
v -0.06366 0.07957 0.00796
v 0.06631 0.08222 0.00796
v 0.00000 0.08488 0.04509
v 0.03182 0.06631 0.01061
v -0.05039 0.07162 0.03448
v -0.05836 0.08488 0.02917
v 0.06365 0.08488 0.00796
v 0.05304 0.07427 0.03713
v 0.06365 0.07162 0.00796
v -0.05570 0.08488 0.00796
v 0.05570 0.08488 0.03448
v -0.06100 0.06897 0.00796
v -0.06100 0.07427 0.03448
v 0.01060 0.07957 0.04509
v 0.03182 0.06897 0.02653
v 0.05570 0.07162 0.02917
v -0.05836 0.08222 0.03448
v 0.05570 0.08222 0.03713
v 0.02652 0.07162 0.03448
v 0.02121 0.06631 0.00796
v 0.06365 0.08222 0.02917
v 0.06365 0.07427 0.02917
v 0.02121 0.06631 0.01061
v -0.06100 0.07162 0.03183
v 0.00000 0.07957 0.04509
v 0.06631 0.07427 0.01592
v -0.06100 0.07957 0.03448
v -0.06100 0.06897 0.01061
v 0.00795 0.08488 0.04509
v 0.01326 0.06897 0.02653
v -0.06366 0.07427 0.01592
v -0.05570 0.08488 0.03183
v 0.06631 0.08222 0.01592
v -0.05836 0.08488 0.01327
v -0.06100 0.08222 0.03183
v 0.04243 0.07692 0.03978
v 0.06365 0.07162 0.01061
v 0.06101 0.08488 0.02388
v 0.06101 0.08222 0.03448
v 0.06631 0.07427 0.00796
v 0.04243 0.08222 0.03978
v 0.03713 0.08488 0.03978
v 0.02388 -0.08488 -0.03713
v 0.06895 -0.06367 -0.00796
v 0.06895 -0.07427 -0.00796
v 0.02122 -0.07162 0.00531
v 0.05570 -0.05571 -0.03448
v 0.06365 -0.07692 -0.03978
v 0.02122 -0.06897 -0.03978
v 0.05835 -0.07957 -0.00001
v 0.05570 -0.05571 -0.00266
v 0.02122 -0.07957 0.00265
v 0.02122 -0.06632 0.00265
v 0.04774 -0.08488 -0.02652
v 0.06630 -0.05571 -0.03183
v 0.05835 -0.07427 0.00531
v 0.05835 -0.07162 -0.04244
v 0.02122 -0.07957 -0.04244
v 0.06630 -0.05571 -0.00266
v 0.03979 -0.08488 -0.03978
v 0.06895 -0.07162 -0.03183
v 0.06365 -0.07957 -0.03448
v 0.03449 -0.08488 -0.02122
v 0.06630 -0.07692 -0.00001
v 0.05304 -0.05571 -0.02652
v 0.06365 -0.05836 -0.03713
v 0.02122 -0.07162 -0.04244
v 0.06365 -0.05836 -0.00001
v 0.06895 -0.05836 -0.02652
v 0.06365 -0.07957 -0.00531
v 0.04244 -0.08223 -0.04244
v 0.05835 -0.07692 0.00531
v 0.02122 -0.06632 -0.00796
v 0.02388 -0.08488 -0.02652
v 0.06630 -0.06367 -0.03713
v 0.05835 -0.08223 -0.02917
v 0.02122 -0.07692 0.00531
v 0.04509 -0.07957 0.00265
v 0.02122 -0.08223 -0.03978
v 0.06630 -0.07692 -0.03713
v 0.02388 -0.08223 -0.04244
v 0.04244 -0.08488 -0.02122
v 0.04774 -0.08488 -0.03448
v 0.04244 -0.07162 0.00531
v 0.06630 -0.06632 -0.00001
v 0.05835 -0.07957 -0.03978
v 0.05835 -0.07692 -0.04244
v 0.05304 -0.05571 -0.01857
v 0.06895 -0.05836 -0.01326
v 0.02122 -0.08223 -0.01592
v -0.04244 0.05305 0.00530
v -0.05835 0.07427 -0.04508
v -0.05835 0.07957 -0.04508
v 0.03979 0.07427 -0.04243
v 0.03979 0.08488 0.00796
v -0.05570 0.08488 0.00796
v -0.06896 0.05040 -0.03447
v 0.00529 0.05040 -0.00001
v 0.03979 0.08488 -0.03447
v 0.03979 0.06896 0.00796
v -0.06631 0.07161 0.00796
v -0.00002 0.05040 -0.02121
v -0.06896 0.07692 -0.03713
v -0.06896 0.05040 -0.01327
v -0.06101 0.05040 -0.03713
v -0.05835 0.08222 -0.03978
v 0.03979 0.06896 -0.02652
v -0.07161 0.07161 -0.01856
v -0.05040 0.05040 0.00265
v 0.03979 0.07957 -0.04243
v -0.06631 0.07957 0.00265
v -0.06631 0.06366 -0.04243
v 0.02918 0.06101 -0.00266
v 0.00264 0.05040 0.00265
v -0.07161 0.06366 -0.03713
v -0.06101 0.06632 0.00796
v -0.06631 0.05836 -0.00001
v 0.03446 0.06632 0.00796
v 0.00264 0.05040 -0.01856
v -0.03182 0.08488 -0.00796
v 0.03446 0.06366 0.00530
v -0.06631 0.07957 -0.03713
v -0.06896 0.06366 -0.00001
v -0.07161 0.05836 -0.02652
v -0.06366 0.05570 -0.03978
v 0.03979 0.08222 -0.03978
v 0.03979 0.07161 -0.03713
v -0.06631 0.07692 0.00796
v -0.06631 0.07427 -0.04243
v -0.02652 0.05305 0.00530
v -0.05835 0.06366 -0.04243
v -0.05040 0.07427 -0.04508
v -0.06896 0.07427 -0.00001
v -0.07161 0.07161 -0.03447
v -0.06101 0.08222 -0.03713
v -0.04773 0.07957 -0.04508
v -0.07161 0.06366 -0.01856
v -0.05304 0.08488 0.00265
v -0.06366 0.07957 -0.04243
v -0.06896 0.05305 -0.03713
v 0.03713 0.08488 -0.03447
v -0.06896 0.07692 -0.01327
v 0.03979 0.07427 -0.04244
v 0.07162 0.07692 -0.00531
v 0.07162 0.06631 -0.00531
v 0.03979 0.08488 0.00795
v 0.06366 0.08222 -0.03713
v 0.06100 0.05836 -0.01856
v 0.03979 0.06897 0.00530
v 0.06366 0.08488 0.00795
v 0.03979 0.08488 -0.03447
v 0.06896 0.06366 -0.02917
v 0.06631 0.07162 0.00795
v 0.06631 0.05836 -0.00531
v 0.03979 0.06897 -0.02387
v 0.06366 0.08488 -0.02652
v 0.07162 0.07692 -0.02121
v 0.06631 0.07162 -0.03713
v 0.05040 0.07957 -0.04244
v 0.06100 0.06366 -0.03182
v 0.06896 0.05836 -0.01856
v 0.06896 0.08222 -0.02121
v 0.03979 0.07162 0.00795
v 0.07162 0.06897 -0.02387
v 0.06631 0.07957 -0.03713
v 0.03979 0.07162 -0.03713
v 0.05835 0.08488 -0.03447
v 0.03979 0.08222 -0.03978
v 0.06631 0.08222 0.00795
v 0.06100 0.05836 -0.01061
v 0.06631 0.06631 -0.03447
v 0.06896 0.08222 -0.00531
v 0.06100 0.07427 -0.03978
v 0.06896 0.05836 -0.00797
v 0.05835 0.08222 -0.03978
v 0.06366 0.05836 -0.02121
v 0.06896 0.07957 0.00265
v -0.06101 -0.06896 0.00531
v -0.05835 -0.08223 -0.03713
v -0.06366 -0.07957 -0.03978
v -0.06366 -0.04244 -0.03183
v -0.04244 -0.06896 -0.04244
v -0.04244 -0.06631 0.00531
v -0.06896 -0.04244 -0.00796
v -0.04244 -0.08223 -0.00001
v -0.06896 -0.07692 -0.00796
v -0.07162 -0.06366 -0.03713
v -0.04244 -0.05836 -0.01062
v -0.04244 -0.08223 -0.03713
v -0.05835 -0.08223 -0.00001
v -0.06101 -0.04244 -0.00796
v -0.06631 -0.06631 -0.04244
v -0.06896 -0.04244 -0.03183
v -0.07162 -0.07427 -0.02387
v -0.05835 -0.07957 0.00531
v -0.06896 -0.07162 -0.00266
v -0.04244 -0.05836 -0.01857
v -0.04244 -0.07957 -0.04244
v -0.06366 -0.08223 -0.03183
v -0.06631 -0.07692 -0.04244
v -0.07162 -0.05836 -0.02122
v -0.04244 -0.07957 0.00531
v -0.04244 -0.06101 -0.00001
v -0.07162 -0.07427 -0.03183
v -0.05571 -0.06631 0.00531
v -0.06366 -0.08223 -0.01592
v -0.06101 -0.04244 -0.01857
v -0.06631 -0.07692 -0.00001
v -0.06631 -0.06101 -0.00001
v -0.05305 -0.06631 -0.04244
v -0.07162 -0.06101 -0.01857
v -0.05835 -0.07957 -0.04244
v -0.04510 -0.08223 0.00265
v -0.06366 -0.07957 -0.00001
v -0.07162 -0.07162 -0.01857
v -0.07162 -0.05836 -0.03448
v -0.06101 -0.01325 -0.04244
v -0.05571 0.00529 0.00531
v -0.05571 0.01325 0.00265
v -0.06897 0.01325 -0.00266
v -0.06101 0.05040 -0.03448
v -0.06897 -0.04244 -0.03183
v -0.06897 0.05040 -0.03448
v -0.06101 -0.04244 -0.00796
v -0.05571 -0.00529 -0.04244
v -0.06631 0.05040 -0.01326
v -0.06897 -0.04244 -0.00796
v -0.05836 0.05040 -0.01857
v -0.05571 -0.02387 0.00265
v -0.06631 0.01059 -0.04244
v -0.06631 -0.00529 0.00265
v -0.06366 -0.04244 -0.03183
v -0.05571 0.01059 -0.04244
v -0.05571 -0.02121 -0.02122
v -0.06897 -0.01325 -0.03978
v -0.06897 0.05040 -0.01592
v -0.06631 0.01590 -0.00001
v -0.05571 0.02651 -0.02387
v -0.05836 0.05040 -0.02917
v -0.06366 -0.01856 0.00265
v -0.06631 -0.01325 -0.04244
v -0.06101 -0.04244 -0.01857
v -0.06366 0.05040 -0.01326
v -0.05836 -0.00795 0.00531
v -0.06101 0.01325 0.00265
v -0.06897 0.01325 -0.03978
v -0.06631 0.00266 0.00265
v -0.06897 -0.01060 -0.00266
v -0.05571 0.02651 -0.01592
v -0.05836 -0.02387 0.00265
v -0.05836 0.00529 0.00531
v 0.05040 0.01591 0.00530
v 0.04509 -0.01857 -0.00266
v 0.02122 -0.01061 -0.01856
v 0.05040 0.00265 -0.04244
v 0.02122 0.01326 0.00265
v 0.02122 -0.00795 0.00530
v 0.02122 0.00265 -0.02917
v 0.05040 -0.01591 0.00530
v 0.05040 -0.00530 -0.04244
v 0.04774 0.01326 -0.01856
v 0.03978 -0.00530 -0.04244
v 0.03183 0.00795 0.00795
v 0.03713 0.00265 -0.04244
v 0.03183 0.01591 -0.00266
v 0.02122 0.00795 -0.02121
v 0.05040 -0.00795 0.00795
v 0.04243 -0.01857 0.00265
v 0.02387 -0.00265 -0.03182
v 0.05040 -0.01857 -0.00266
v 0.02122 -0.01061 -0.00001
v 0.05040 0.01060 0.00795
v 0.05040 0.01591 -0.00531
v 0.02387 0.01326 0.00530
v 0.03978 -0.00795 0.00795
v 0.02918 0.01591 0.00265
v 0.02918 -0.00001 0.00795
v 0.04243 -0.01591 0.00530
v 0.02122 -0.00795 -0.02387
v 0.02122 0.01326 -0.00266
v 0.02122 0.01060 0.00530
v 0.05040 0.01326 -0.01856
v 0.03713 0.01060 0.00795
v 0.05570 -0.01062 -0.04243
v 0.05570 0.00529 0.01061
v 0.05305 0.00529 0.01061
v 0.05570 -0.05570 -0.00266
v 0.06631 0.02386 -0.02917
v 0.06631 -0.05570 -0.00531
v 0.06631 -0.05570 -0.03182
v 0.05040 0.00264 -0.04243
v 0.05305 -0.05570 -0.02917
v 0.05040 0.01590 0.00530
v 0.06366 0.02121 -0.00001
v 0.05835 0.02918 -0.02652
v 0.06366 0.01060 -0.04243
v 0.05040 -0.02121 0.00265
v 0.06631 0.02386 -0.01062
v 0.05570 -0.05570 -0.03448
v 0.05835 -0.00001 0.01061
v 0.06366 0.02918 -0.01062
v 0.05040 -0.00797 -0.04243
v 0.06100 0.02651 -0.03448
v 0.05040 0.01325 -0.02387
v 0.06366 -0.03978 -0.03713
v 0.05040 -0.00001 0.01061
v 0.05305 -0.05570 -0.01062
v 0.06366 0.01325 0.00265
v 0.06366 -0.05570 -0.00266
v 0.06631 0.01590 -0.03448
v 0.05835 0.02651 -0.00531
v 0.06366 -0.00267 -0.04243
v 0.05570 0.01590 -0.03978
v 0.06366 0.02918 -0.02917
v 0.05305 0.01590 -0.03448
v 0.06631 0.02121 -0.00796
v 0.06366 -0.05570 -0.03448
v 0.06366 0.02651 -0.03448
v 0.05835 0.02918 -0.01591
v 0.06366 -0.00267 0.00265
v 0.05040 0.01590 -0.00796
v 0.05040 -0.02121 -0.00531
v 0.06100 -0.01062 -0.04243
v 0.05835 0.01590 0.00530
v 0.05835 -0.04243 -0.03713
v 0.05305 -0.05304 -0.03182
v 0.05305 -0.05039 -0.00531
v 0.05570 0.01060 -0.04243
v 0.00265 -0.06366 -0.00001
v -0.01326 -0.07692 -0.04509
v -0.04244 -0.07958 -0.04244
v 0.02122 -0.07958 0.00265
v -0.04244 -0.07958 0.00531
v -0.04244 -0.06366 -0.02122
v 0.01856 -0.06897 -0.04244
v 0.02122 -0.08223 -0.03978
v -0.03182 -0.06366 0.00531
v -0.04244 -0.06897 -0.04244
v 0.02122 -0.06632 0.00265
v -0.04244 -0.08223 -0.00001
v 0.00795 -0.06632 -0.04244
v -0.04244 -0.08223 -0.03713
v 0.02122 -0.07692 0.00531
v -0.04244 -0.06366 0.00265
v 0.02122 -0.08223 -0.01592
v 0.00529 -0.06366 -0.02122
v 0.01060 -0.06897 -0.04509
v 0.02122 -0.06897 -0.03978
v 0.01325 -0.07692 -0.04509
v -0.02387 -0.06366 -0.02652
v -0.01061 -0.06366 0.00531
v -0.00796 -0.06632 -0.04244
v 0.01856 -0.06632 -0.02387
v -0.01326 -0.06897 -0.04509
v 0.02122 -0.07162 0.00531
v -0.04244 -0.06632 0.00531
v -0.00001 -0.06366 -0.02652
v 0.02122 -0.07958 -0.04244
v -0.02122 -0.06632 -0.03978
v -0.03713 -0.08223 -0.00001
v 0.02122 -0.06632 -0.01061
v -0.00266 -0.06366 -0.02387
v 0.00795 -0.04244 -0.01326
v 0.01060 -0.04510 -0.01326
v -0.04244 -0.06366 -0.01061
v -0.02122 -0.04244 -0.02122
v -0.00266 -0.06366 -0.01061
v -0.04244 -0.06366 -0.02122
v 0.01060 -0.04775 -0.02122
v -0.02122 -0.04244 -0.01326
v 0.01060 -0.05836 -0.01592
v -0.04244 -0.05836 -0.01061
v -0.01327 -0.05040 -0.02387
v 0.00530 -0.04244 -0.02122
v -0.02917 -0.06101 -0.02387
v 0.00530 -0.05836 -0.02387
v -0.04244 -0.05836 -0.01857
v -0.00531 -0.05836 -0.01061
v 0.00530 -0.05040 -0.02387
v 0.01060 -0.05570 -0.01326
v -0.04244 -0.06101 -0.02122
v -0.00001 -0.06366 -0.02122
v 0.01060 -0.05570 -0.02122
v -0.02917 -0.04775 -0.01592
v -0.02917 -0.06366 -0.02387
v -0.04244 -0.06366 -0.00530
v -0.00531 -0.04244 0.00265
v -0.00265 -0.04775 0.00265
v -0.02918 -0.06366 0.00531
v -0.00797 -0.06366 -0.00530
v -0.03183 -0.04244 -0.00265
v -0.03448 -0.04244 0.00265
v -0.00797 -0.04244 -0.00265
v -0.00797 -0.06366 0.00265
v -0.04244 -0.06366 0.00265
v -0.02652 -0.05570 -0.00530
v -0.01592 -0.06101 0.00531
v -0.00265 -0.05570 0.00000
v -0.04244 -0.06101 -0.00530
v -0.02387 -0.05836 0.00531
v -0.00265 -0.04775 0.00000
v -0.00265 -0.05570 0.00265
v -0.00531 -0.06366 0.00000
v -0.04244 -0.06101 0.00265
v -0.01592 -0.05570 -0.00530
v -0.05039 -0.03714 0.00000
v -0.01592 0.02652 0.00265
v -0.02917 0.02122 0.00531
v 0.02122 -0.00796 0.00531
v 0.02122 0.00795 -0.00530
v -0.05569 0.01325 -0.00530
v -0.00797 -0.04244 -0.00265
v -0.05569 -0.01325 0.00531
v -0.00797 -0.04244 0.00265
v -0.04508 -0.01856 -0.00530
v -0.05039 0.02652 -0.00265
v 0.02122 0.01060 0.00531
v 0.02122 -0.00796 -0.00530
v -0.05039 0.02652 0.00265
v -0.01856 0.02652 -0.00265
v -0.03447 -0.04244 0.00265
v -0.05569 -0.02387 -0.00265
v -0.03447 -0.04244 -0.00265
v 0.02122 0.01325 -0.00265
v -0.01327 -0.02122 0.00531
v -0.05569 0.00795 0.00531
v 0.00795 -0.02917 0.00265
v -0.04243 0.01856 -0.00530
v -0.05039 -0.03714 0.00265
v -0.05569 -0.01060 -0.00530
v -0.05039 -0.01856 0.00531
v -0.05569 0.01856 0.00000
v 0.01855 0.01060 -0.00530
v 0.02122 0.01325 0.00265
v -0.04774 -0.03448 -0.00265
v -0.05569 -0.02652 0.00265
v 0.00795 -0.02917 0.00000
v 0.00264 -0.01325 -0.00530
v -0.03978 0.02122 0.00531
v 0.00265 0.05039 -0.01326
v -0.01326 0.02652 -0.01857
v -0.01326 0.02652 -0.01592
v -0.01061 0.05039 -0.01326
v -0.00796 0.05039 -0.02122
v 0.00265 0.03978 -0.01857
v -0.00000 0.05039 -0.02122
v -0.00796 0.02652 -0.01592
v -0.00000 0.04244 -0.01326
v -0.01326 0.03714 -0.01857
v -0.00796 0.02652 -0.01857
v -0.00000 0.04509 -0.02122
v 0.00265 0.03978 -0.01592
v -0.01061 0.05039 -0.01857
v -0.05039 0.02652 -0.00000
v 0.00530 0.05039 -0.00000
v 0.00530 0.05039 -0.00530
v -0.05039 0.05039 -0.00000
v -0.01327 0.02652 0.00265
v 0.00264 0.03183 -0.00530
v -0.05039 0.05039 0.00265
v -0.04774 0.02652 -0.00265
v -0.04774 0.05039 -0.00265
v -0.00001 0.05039 0.00265
v 0.00530 0.03448 -0.00000
v -0.05039 0.02652 0.00265
v -0.00797 0.05039 -0.00530
v -0.01858 0.02652 -0.00265
v 0.00264 0.02918 -0.00000
v 0.00264 0.02918 -0.00265
v 0.00529 -0.00796 -0.02653
v -0.05039 0.01326 -0.03448
v -0.05039 0.01326 -0.03979
v -0.05569 -0.00531 -0.03979
v 0.00795 0.00265 -0.03713
v 0.00795 0.00795 -0.02653
v -0.04243 0.00000 -0.02653
v -0.05569 0.00795 -0.02918
v 0.01590 -0.00531 -0.03183
v -0.05039 -0.00265 -0.04244
v -0.05569 0.01061 -0.04244
v -0.03713 -0.00531 -0.02653
v -0.03713 0.01061 -0.02653
v 0.02122 0.00265 -0.02653
v -0.00531 0.01061 -0.02918
v 0.00795 -0.00265 -0.03713
v -0.05569 -0.00531 -0.03448
v 0.00264 0.00530 -0.03713
v -0.05569 0.01326 -0.03183
v -0.02121 -0.00796 -0.02653
v -0.03978 -0.00531 -0.03979
v 0.01590 0.00265 -0.03448
v 0.00529 -0.00796 -0.02918
v -0.01592 0.00265 -0.03979
v 0.01855 0.00530 -0.02918
v -0.05569 0.00265 -0.02918
v 0.01855 -0.00531 -0.02653
v -0.00531 0.01061 -0.02653
v 0.00795 -0.00531 -0.03448
v 0.02122 -0.00265 -0.02918
v -0.05304 0.01061 -0.04244
v -0.00266 0.00795 -0.03448
v 0.01590 -0.00265 -0.03448
v -0.02121 -0.00796 -0.02918
v -0.05569 -0.00265 -0.04244
v -0.05569 -0.02122 -0.01857
v -0.01062 0.02652 -0.01592
v 0.00529 0.01060 -0.00530
v 0.02122 -0.00532 -0.02653
v 0.00529 -0.04244 -0.01326
v -0.05569 0.02387 -0.02387
v -0.05569 0.01325 -0.00796
v -0.02121 -0.04244 -0.02122
v -0.04774 -0.01590 -0.00796
v -0.05569 -0.00532 -0.02653
v 0.02122 -0.00532 -0.00530
v 0.02122 0.00530 -0.02653
v -0.04774 0.02652 -0.01326
v -0.02121 -0.04244 -0.01326
v 0.02122 0.00795 -0.01061
v 0.00264 -0.04244 -0.02122
v -0.03978 -0.00001 -0.00530
v -0.01327 0.01591 -0.02653
v -0.05569 -0.01856 -0.01061
v -0.01062 0.02652 -0.01857
v -0.00001 -0.00796 -0.00530
v -0.05569 0.01591 -0.02653
v 0.02122 -0.01060 -0.01857
v -0.05569 0.02652 -0.02122
v 0.01060 -0.00796 -0.02653
v -0.02121 0.01060 -0.00530
v 0.02122 0.00795 -0.02122
v 0.00529 -0.04244 -0.01857
v -0.05569 -0.00796 -0.00796
v -0.05039 -0.02387 -0.01061
v -0.02386 -0.04244 -0.01592
v -0.02917 0.02652 -0.02122
v -0.02917 0.02652 -0.01326
v -0.05569 -0.01856 -0.02122
v 0.01325 0.00795 -0.00530
v 0.02122 -0.01060 -0.01061
v -0.03713 -0.00796 -0.02653
v -0.05569 0.02652 -0.01592
v 0.01855 -0.00796 -0.00530
v -0.03978 0.00530 -0.00530
v 0.02122 -0.00001 -0.00530
v -0.05569 -0.02122 -0.01326
v -0.04774 0.02122 -0.01061
v -0.04243 0.02387 -0.02387
f 174 171 179 
f 148 145 151 
f 145 148 153 
f 148 152 153 
f 152 148 155 
f 151 145 157 
f 150 151 157 
f 153 152 158 
f 146 147 159 
f 156 150 163 
f 149 158 164 
f 158 152 164 
f 146 159 164 
f 148 151 165 
f 155 148 165 
f 151 156 165 
f 156 155 165 
f 159 147 166 
f 154 160 166 
f 147 163 166 
f 163 154 166 
f 149 164 167 
f 164 159 167 
f 159 166 167 
f 166 160 167 
f 157 145 168 
f 150 157 168 
f 145 162 168 
f 158 149 169 
f 153 158 169 
f 145 153 170 
f 161 145 170 
f 153 169 170 
f 152 155 171 
f 151 150 172 
f 150 156 172 
f 156 151 172 
f 160 154 173 
f 162 145 173 
f 154 162 173 
f 146 164 174 
f 164 152 174 
f 152 171 174 
f 145 161 175 
f 167 160 175 
f 173 145 175 
f 160 173 175 
f 147 155 176 
f 155 156 176 
f 163 147 176 
f 156 163 176 
f 149 167 177 
f 169 149 177 
f 161 170 177 
f 170 169 177 
f 175 161 177 
f 167 175 177 
f 162 154 178 
f 154 163 178 
f 163 150 178 
f 150 168 178 
f 168 162 178 
f 147 146 179 
f 155 147 179 
f 171 155 179 
f 146 174 179 
