# Original object name hint: convex_4
v 0.06101 0.07692 0.03448
v -0.06366 0.07162 0.00796
v -0.06366 0.07957 0.00796
v 0.06631 0.08222 0.00796
v 0.00000 0.08488 0.04509
v 0.03182 0.06631 0.01061
v -0.05039 0.07162 0.03448
v -0.05836 0.08488 0.02917
v 0.06365 0.08488 0.00796
v 0.05304 0.07427 0.03713
v 0.06365 0.07162 0.00796
v -0.05570 0.08488 0.00796
v 0.05570 0.08488 0.03448
v -0.06100 0.06897 0.00796
v -0.06100 0.07427 0.03448
v 0.01060 0.07957 0.04509
v 0.03182 0.06897 0.02653
v 0.05570 0.07162 0.02917
v -0.05836 0.08222 0.03448
v 0.05570 0.08222 0.03713
v 0.02652 0.07162 0.03448
v 0.02121 0.06631 0.00796
v 0.06365 0.08222 0.02917
v 0.06365 0.07427 0.02917
v 0.02121 0.06631 0.01061
v -0.06100 0.07162 0.03183
v 0.00000 0.07957 0.04509
v 0.06631 0.07427 0.01592
v -0.06100 0.07957 0.03448
v -0.06100 0.06897 0.01061
v 0.00795 0.08488 0.04509
v 0.01326 0.06897 0.02653
v -0.06366 0.07427 0.01592
v -0.05570 0.08488 0.03183
v 0.06631 0.08222 0.01592
v -0.05836 0.08488 0.01327
v -0.06100 0.08222 0.03183
v 0.04243 0.07692 0.03978
v 0.06365 0.07162 0.01061
v 0.06101 0.08488 0.02388
v 0.06101 0.08222 0.03448
v 0.06631 0.07427 0.00796
v 0.04243 0.08222 0.03978
v 0.03713 0.08488 0.03978
v 0.02388 -0.08488 -0.03713
v 0.06895 -0.06367 -0.00796
v 0.06895 -0.07427 -0.00796
v 0.02122 -0.07162 0.00531
v 0.05570 -0.05571 -0.03448
v 0.06365 -0.07692 -0.03978
v 0.02122 -0.06897 -0.03978
v 0.05835 -0.07957 -0.00001
v 0.05570 -0.05571 -0.00266
v 0.02122 -0.07957 0.00265
v 0.02122 -0.06632 0.00265
v 0.04774 -0.08488 -0.02652
v 0.06630 -0.05571 -0.03183
v 0.05835 -0.07427 0.00531
v 0.05835 -0.07162 -0.04244
v 0.02122 -0.07957 -0.04244
v 0.06630 -0.05571 -0.00266
v 0.03979 -0.08488 -0.03978
v 0.06895 -0.07162 -0.03183
v 0.06365 -0.07957 -0.03448
v 0.03449 -0.08488 -0.02122
v 0.06630 -0.07692 -0.00001
v 0.05304 -0.05571 -0.02652
v 0.06365 -0.05836 -0.03713
v 0.02122 -0.07162 -0.04244
v 0.06365 -0.05836 -0.00001
v 0.06895 -0.05836 -0.02652
v 0.06365 -0.07957 -0.00531
v 0.04244 -0.08223 -0.04244
v 0.05835 -0.07692 0.00531
v 0.02122 -0.06632 -0.00796
v 0.02388 -0.08488 -0.02652
v 0.06630 -0.06367 -0.03713
v 0.05835 -0.08223 -0.02917
v 0.02122 -0.07692 0.00531
v 0.04509 -0.07957 0.00265
v 0.02122 -0.08223 -0.03978
v 0.06630 -0.07692 -0.03713
v 0.02388 -0.08223 -0.04244
v 0.04244 -0.08488 -0.02122
v 0.04774 -0.08488 -0.03448
v 0.04244 -0.07162 0.00531
v 0.06630 -0.06632 -0.00001
v 0.05835 -0.07957 -0.03978
v 0.05835 -0.07692 -0.04244
v 0.05304 -0.05571 -0.01857
v 0.06895 -0.05836 -0.01326
v 0.02122 -0.08223 -0.01592
v -0.04244 0.05305 0.00530
v -0.05835 0.07427 -0.04508
v -0.05835 0.07957 -0.04508
v 0.03979 0.07427 -0.04243
v 0.03979 0.08488 0.00796
v -0.05570 0.08488 0.00796
v -0.06896 0.05040 -0.03447
v 0.00529 0.05040 -0.00001
v 0.03979 0.08488 -0.03447
v 0.03979 0.06896 0.00796
v -0.06631 0.07161 0.00796
v -0.00002 0.05040 -0.02121
v -0.06896 0.07692 -0.03713
v -0.06896 0.05040 -0.01327
v -0.06101 0.05040 -0.03713
v -0.05835 0.08222 -0.03978
v 0.03979 0.06896 -0.02652
v -0.07161 0.07161 -0.01856
v -0.05040 0.05040 0.00265
v 0.03979 0.07957 -0.04243
v -0.06631 0.07957 0.00265
v -0.06631 0.06366 -0.04243
v 0.02918 0.06101 -0.00266
v 0.00264 0.05040 0.00265
v -0.07161 0.06366 -0.03713
v -0.06101 0.06632 0.00796
v -0.06631 0.05836 -0.00001
v 0.03446 0.06632 0.00796
v 0.00264 0.05040 -0.01856
v -0.03182 0.08488 -0.00796
v 0.03446 0.06366 0.00530
v -0.06631 0.07957 -0.03713
v -0.06896 0.06366 -0.00001
v -0.07161 0.05836 -0.02652
v -0.06366 0.05570 -0.03978
v 0.03979 0.08222 -0.03978
v 0.03979 0.07161 -0.03713
v -0.06631 0.07692 0.00796
v -0.06631 0.07427 -0.04243
v -0.02652 0.05305 0.00530
v -0.05835 0.06366 -0.04243
v -0.05040 0.07427 -0.04508
v -0.06896 0.07427 -0.00001
v -0.07161 0.07161 -0.03447
v -0.06101 0.08222 -0.03713
v -0.04773 0.07957 -0.04508
v -0.07161 0.06366 -0.01856
v -0.05304 0.08488 0.00265
v -0.06366 0.07957 -0.04243
v -0.06896 0.05305 -0.03713
v 0.03713 0.08488 -0.03447
v -0.06896 0.07692 -0.01327
v 0.03979 0.07427 -0.04244
v 0.07162 0.07692 -0.00531
v 0.07162 0.06631 -0.00531
v 0.03979 0.08488 0.00795
v 0.06366 0.08222 -0.03713
v 0.06100 0.05836 -0.01856
v 0.03979 0.06897 0.00530
v 0.06366 0.08488 0.00795
v 0.03979 0.08488 -0.03447
v 0.06896 0.06366 -0.02917
v 0.06631 0.07162 0.00795
v 0.06631 0.05836 -0.00531
v 0.03979 0.06897 -0.02387
v 0.06366 0.08488 -0.02652
v 0.07162 0.07692 -0.02121
v 0.06631 0.07162 -0.03713
v 0.05040 0.07957 -0.04244
v 0.06100 0.06366 -0.03182
v 0.06896 0.05836 -0.01856
v 0.06896 0.08222 -0.02121
v 0.03979 0.07162 0.00795
v 0.07162 0.06897 -0.02387
v 0.06631 0.07957 -0.03713
v 0.03979 0.07162 -0.03713
v 0.05835 0.08488 -0.03447
v 0.03979 0.08222 -0.03978
v 0.06631 0.08222 0.00795
v 0.06100 0.05836 -0.01061
v 0.06631 0.06631 -0.03447
v 0.06896 0.08222 -0.00531
v 0.06100 0.07427 -0.03978
v 0.06896 0.05836 -0.00797
v 0.05835 0.08222 -0.03978
v 0.06366 0.05836 -0.02121
v 0.06896 0.07957 0.00265
v -0.06101 -0.06896 0.00531
v -0.05835 -0.08223 -0.03713
v -0.06366 -0.07957 -0.03978
v -0.06366 -0.04244 -0.03183
v -0.04244 -0.06896 -0.04244
v -0.04244 -0.06631 0.00531
v -0.06896 -0.04244 -0.00796
v -0.04244 -0.08223 -0.00001
v -0.06896 -0.07692 -0.00796
v -0.07162 -0.06366 -0.03713
v -0.04244 -0.05836 -0.01062
v -0.04244 -0.08223 -0.03713
v -0.05835 -0.08223 -0.00001
v -0.06101 -0.04244 -0.00796
v -0.06631 -0.06631 -0.04244
v -0.06896 -0.04244 -0.03183
v -0.07162 -0.07427 -0.02387
v -0.05835 -0.07957 0.00531
v -0.06896 -0.07162 -0.00266
v -0.04244 -0.05836 -0.01857
v -0.04244 -0.07957 -0.04244
v -0.06366 -0.08223 -0.03183
v -0.06631 -0.07692 -0.04244
v -0.07162 -0.05836 -0.02122
v -0.04244 -0.07957 0.00531
v -0.04244 -0.06101 -0.00001
v -0.07162 -0.07427 -0.03183
v -0.05571 -0.06631 0.00531
v -0.06366 -0.08223 -0.01592
v -0.06101 -0.04244 -0.01857
v -0.06631 -0.07692 -0.00001
v -0.06631 -0.06101 -0.00001
v -0.05305 -0.06631 -0.04244
v -0.07162 -0.06101 -0.01857
v -0.05835 -0.07957 -0.04244
v -0.04510 -0.08223 0.00265
v -0.06366 -0.07957 -0.00001
v -0.07162 -0.07162 -0.01857
v -0.07162 -0.05836 -0.03448
v -0.06101 -0.01325 -0.04244
v -0.05571 0.00529 0.00531
v -0.05571 0.01325 0.00265
v -0.06897 0.01325 -0.00266
v -0.06101 0.05040 -0.03448
v -0.06897 -0.04244 -0.03183
v -0.06897 0.05040 -0.03448
v -0.06101 -0.04244 -0.00796
v -0.05571 -0.00529 -0.04244
v -0.06631 0.05040 -0.01326
v -0.06897 -0.04244 -0.00796
v -0.05836 0.05040 -0.01857
v -0.05571 -0.02387 0.00265
v -0.06631 0.01059 -0.04244
v -0.06631 -0.00529 0.00265
v -0.06366 -0.04244 -0.03183
v -0.05571 0.01059 -0.04244
v -0.05571 -0.02121 -0.02122
v -0.06897 -0.01325 -0.03978
v -0.06897 0.05040 -0.01592
v -0.06631 0.01590 -0.00001
v -0.05571 0.02651 -0.02387
v -0.05836 0.05040 -0.02917
v -0.06366 -0.01856 0.00265
v -0.06631 -0.01325 -0.04244
v -0.06101 -0.04244 -0.01857
v -0.06366 0.05040 -0.01326
v -0.05836 -0.00795 0.00531
v -0.06101 0.01325 0.00265
v -0.06897 0.01325 -0.03978
v -0.06631 0.00266 0.00265
v -0.06897 -0.01060 -0.00266
v -0.05571 0.02651 -0.01592
v -0.05836 -0.02387 0.00265
v -0.05836 0.00529 0.00531
v 0.05040 0.01591 0.00530
v 0.04509 -0.01857 -0.00266
v 0.02122 -0.01061 -0.01856
v 0.05040 0.00265 -0.04244
v 0.02122 0.01326 0.00265
v 0.02122 -0.00795 0.00530
v 0.02122 0.00265 -0.02917
v 0.05040 -0.01591 0.00530
v 0.05040 -0.00530 -0.04244
v 0.04774 0.01326 -0.01856
v 0.03978 -0.00530 -0.04244
v 0.03183 0.00795 0.00795
v 0.03713 0.00265 -0.04244
v 0.03183 0.01591 -0.00266
v 0.02122 0.00795 -0.02121
v 0.05040 -0.00795 0.00795
v 0.04243 -0.01857 0.00265
v 0.02387 -0.00265 -0.03182
v 0.05040 -0.01857 -0.00266
v 0.02122 -0.01061 -0.00001
v 0.05040 0.01060 0.00795
v 0.05040 0.01591 -0.00531
v 0.02387 0.01326 0.00530
v 0.03978 -0.00795 0.00795
v 0.02918 0.01591 0.00265
v 0.02918 -0.00001 0.00795
v 0.04243 -0.01591 0.00530
v 0.02122 -0.00795 -0.02387
v 0.02122 0.01326 -0.00266
v 0.02122 0.01060 0.00530
v 0.05040 0.01326 -0.01856
v 0.03713 0.01060 0.00795
v 0.05570 -0.01062 -0.04243
v 0.05570 0.00529 0.01061
v 0.05305 0.00529 0.01061
v 0.05570 -0.05570 -0.00266
v 0.06631 0.02386 -0.02917
v 0.06631 -0.05570 -0.00531
v 0.06631 -0.05570 -0.03182
v 0.05040 0.00264 -0.04243
v 0.05305 -0.05570 -0.02917
v 0.05040 0.01590 0.00530
v 0.06366 0.02121 -0.00001
v 0.05835 0.02918 -0.02652
v 0.06366 0.01060 -0.04243
v 0.05040 -0.02121 0.00265
v 0.06631 0.02386 -0.01062
v 0.05570 -0.05570 -0.03448
v 0.05835 -0.00001 0.01061
v 0.06366 0.02918 -0.01062
v 0.05040 -0.00797 -0.04243
v 0.06100 0.02651 -0.03448
v 0.05040 0.01325 -0.02387
v 0.06366 -0.03978 -0.03713
v 0.05040 -0.00001 0.01061
v 0.05305 -0.05570 -0.01062
v 0.06366 0.01325 0.00265
v 0.06366 -0.05570 -0.00266
v 0.06631 0.01590 -0.03448
v 0.05835 0.02651 -0.00531
v 0.06366 -0.00267 -0.04243
v 0.05570 0.01590 -0.03978
v 0.06366 0.02918 -0.02917
v 0.05305 0.01590 -0.03448
v 0.06631 0.02121 -0.00796
v 0.06366 -0.05570 -0.03448
v 0.06366 0.02651 -0.03448
v 0.05835 0.02918 -0.01591
v 0.06366 -0.00267 0.00265
v 0.05040 0.01590 -0.00796
v 0.05040 -0.02121 -0.00531
v 0.06100 -0.01062 -0.04243
v 0.05835 0.01590 0.00530
v 0.05835 -0.04243 -0.03713
v 0.05305 -0.05304 -0.03182
v 0.05305 -0.05039 -0.00531
v 0.05570 0.01060 -0.04243
v 0.00265 -0.06366 -0.00001
v -0.01326 -0.07692 -0.04509
v -0.04244 -0.07958 -0.04244
v 0.02122 -0.07958 0.00265
v -0.04244 -0.07958 0.00531
v -0.04244 -0.06366 -0.02122
v 0.01856 -0.06897 -0.04244
v 0.02122 -0.08223 -0.03978
v -0.03182 -0.06366 0.00531
v -0.04244 -0.06897 -0.04244
v 0.02122 -0.06632 0.00265
v -0.04244 -0.08223 -0.00001
v 0.00795 -0.06632 -0.04244
v -0.04244 -0.08223 -0.03713
v 0.02122 -0.07692 0.00531
v -0.04244 -0.06366 0.00265
v 0.02122 -0.08223 -0.01592
v 0.00529 -0.06366 -0.02122
v 0.01060 -0.06897 -0.04509
v 0.02122 -0.06897 -0.03978
v 0.01325 -0.07692 -0.04509
v -0.02387 -0.06366 -0.02652
v -0.01061 -0.06366 0.00531
v -0.00796 -0.06632 -0.04244
v 0.01856 -0.06632 -0.02387
v -0.01326 -0.06897 -0.04509
v 0.02122 -0.07162 0.00531
v -0.04244 -0.06632 0.00531
v -0.00001 -0.06366 -0.02652
v 0.02122 -0.07958 -0.04244
v -0.02122 -0.06632 -0.03978
v -0.03713 -0.08223 -0.00001
v 0.02122 -0.06632 -0.01061
v -0.00266 -0.06366 -0.02387
v 0.00795 -0.04244 -0.01326
v 0.01060 -0.04510 -0.01326
v -0.04244 -0.06366 -0.01061
v -0.02122 -0.04244 -0.02122
v -0.00266 -0.06366 -0.01061
v -0.04244 -0.06366 -0.02122
v 0.01060 -0.04775 -0.02122
v -0.02122 -0.04244 -0.01326
v 0.01060 -0.05836 -0.01592
v -0.04244 -0.05836 -0.01061
v -0.01327 -0.05040 -0.02387
v 0.00530 -0.04244 -0.02122
v -0.02917 -0.06101 -0.02387
v 0.00530 -0.05836 -0.02387
v -0.04244 -0.05836 -0.01857
v -0.00531 -0.05836 -0.01061
v 0.00530 -0.05040 -0.02387
v 0.01060 -0.05570 -0.01326
v -0.04244 -0.06101 -0.02122
v -0.00001 -0.06366 -0.02122
v 0.01060 -0.05570 -0.02122
v -0.02917 -0.04775 -0.01592
v -0.02917 -0.06366 -0.02387
v -0.04244 -0.06366 -0.00530
v -0.00531 -0.04244 0.00265
v -0.00265 -0.04775 0.00265
v -0.02918 -0.06366 0.00531
v -0.00797 -0.06366 -0.00530
v -0.03183 -0.04244 -0.00265
v -0.03448 -0.04244 0.00265
v -0.00797 -0.04244 -0.00265
v -0.00797 -0.06366 0.00265
v -0.04244 -0.06366 0.00265
v -0.02652 -0.05570 -0.00530
v -0.01592 -0.06101 0.00531
v -0.00265 -0.05570 0.00000
v -0.04244 -0.06101 -0.00530
v -0.02387 -0.05836 0.00531
v -0.00265 -0.04775 0.00000
v -0.00265 -0.05570 0.00265
v -0.00531 -0.06366 0.00000
v -0.04244 -0.06101 0.00265
v -0.01592 -0.05570 -0.00530
v -0.05039 -0.03714 0.00000
v -0.01592 0.02652 0.00265
v -0.02917 0.02122 0.00531
v 0.02122 -0.00796 0.00531
v 0.02122 0.00795 -0.00530
v -0.05569 0.01325 -0.00530
v -0.00797 -0.04244 -0.00265
v -0.05569 -0.01325 0.00531
v -0.00797 -0.04244 0.00265
v -0.04508 -0.01856 -0.00530
v -0.05039 0.02652 -0.00265
v 0.02122 0.01060 0.00531
v 0.02122 -0.00796 -0.00530
v -0.05039 0.02652 0.00265
v -0.01856 0.02652 -0.00265
v -0.03447 -0.04244 0.00265
v -0.05569 -0.02387 -0.00265
v -0.03447 -0.04244 -0.00265
v 0.02122 0.01325 -0.00265
v -0.01327 -0.02122 0.00531
v -0.05569 0.00795 0.00531
v 0.00795 -0.02917 0.00265
v -0.04243 0.01856 -0.00530
v -0.05039 -0.03714 0.00265
v -0.05569 -0.01060 -0.00530
v -0.05039 -0.01856 0.00531
v -0.05569 0.01856 0.00000
v 0.01855 0.01060 -0.00530
v 0.02122 0.01325 0.00265
v -0.04774 -0.03448 -0.00265
v -0.05569 -0.02652 0.00265
v 0.00795 -0.02917 0.00000
v 0.00264 -0.01325 -0.00530
v -0.03978 0.02122 0.00531
v 0.00265 0.05039 -0.01326
v -0.01326 0.02652 -0.01857
v -0.01326 0.02652 -0.01592
v -0.01061 0.05039 -0.01326
v -0.00796 0.05039 -0.02122
v 0.00265 0.03978 -0.01857
v -0.00000 0.05039 -0.02122
v -0.00796 0.02652 -0.01592
v -0.00000 0.04244 -0.01326
v -0.01326 0.03714 -0.01857
v -0.00796 0.02652 -0.01857
v -0.00000 0.04509 -0.02122
v 0.00265 0.03978 -0.01592
v -0.01061 0.05039 -0.01857
v -0.05039 0.02652 -0.00000
v 0.00530 0.05039 -0.00000
v 0.00530 0.05039 -0.00530
v -0.05039 0.05039 -0.00000
v -0.01327 0.02652 0.00265
v 0.00264 0.03183 -0.00530
v -0.05039 0.05039 0.00265
v -0.04774 0.02652 -0.00265
v -0.04774 0.05039 -0.00265
v -0.00001 0.05039 0.00265
v 0.00530 0.03448 -0.00000
v -0.05039 0.02652 0.00265
v -0.00797 0.05039 -0.00530
v -0.01858 0.02652 -0.00265
v 0.00264 0.02918 -0.00000
v 0.00264 0.02918 -0.00265
v 0.00529 -0.00796 -0.02653
v -0.05039 0.01326 -0.03448
v -0.05039 0.01326 -0.03979
v -0.05569 -0.00531 -0.03979
v 0.00795 0.00265 -0.03713
v 0.00795 0.00795 -0.02653
v -0.04243 0.00000 -0.02653
v -0.05569 0.00795 -0.02918
v 0.01590 -0.00531 -0.03183
v -0.05039 -0.00265 -0.04244
v -0.05569 0.01061 -0.04244
v -0.03713 -0.00531 -0.02653
v -0.03713 0.01061 -0.02653
v 0.02122 0.00265 -0.02653
v -0.00531 0.01061 -0.02918
v 0.00795 -0.00265 -0.03713
v -0.05569 -0.00531 -0.03448
v 0.00264 0.00530 -0.03713
v -0.05569 0.01326 -0.03183
v -0.02121 -0.00796 -0.02653
v -0.03978 -0.00531 -0.03979
v 0.01590 0.00265 -0.03448
v 0.00529 -0.00796 -0.02918
v -0.01592 0.00265 -0.03979
v 0.01855 0.00530 -0.02918
v -0.05569 0.00265 -0.02918
v 0.01855 -0.00531 -0.02653
v -0.00531 0.01061 -0.02653
v 0.00795 -0.00531 -0.03448
v 0.02122 -0.00265 -0.02918
v -0.05304 0.01061 -0.04244
v -0.00266 0.00795 -0.03448
v 0.01590 -0.00265 -0.03448
v -0.02121 -0.00796 -0.02918
v -0.05569 -0.00265 -0.04244
v -0.05569 -0.02122 -0.01857
v -0.01062 0.02652 -0.01592
v 0.00529 0.01060 -0.00530
v 0.02122 -0.00532 -0.02653
v 0.00529 -0.04244 -0.01326
v -0.05569 0.02387 -0.02387
v -0.05569 0.01325 -0.00796
v -0.02121 -0.04244 -0.02122
v -0.04774 -0.01590 -0.00796
v -0.05569 -0.00532 -0.02653
v 0.02122 -0.00532 -0.00530
v 0.02122 0.00530 -0.02653
v -0.04774 0.02652 -0.01326
v -0.02121 -0.04244 -0.01326
v 0.02122 0.00795 -0.01061
v 0.00264 -0.04244 -0.02122
v -0.03978 -0.00001 -0.00530
v -0.01327 0.01591 -0.02653
v -0.05569 -0.01856 -0.01061
v -0.01062 0.02652 -0.01857
v -0.00001 -0.00796 -0.00530
v -0.05569 0.01591 -0.02653
v 0.02122 -0.01060 -0.01857
v -0.05569 0.02652 -0.02122
v 0.01060 -0.00796 -0.02653
v -0.02121 0.01060 -0.00530
v 0.02122 0.00795 -0.02122
v 0.00529 -0.04244 -0.01857
v -0.05569 -0.00796 -0.00796
v -0.05039 -0.02387 -0.01061
v -0.02386 -0.04244 -0.01592
v -0.02917 0.02652 -0.02122
v -0.02917 0.02652 -0.01326
v -0.05569 -0.01856 -0.02122
v 0.01325 0.00795 -0.00530
v 0.02122 -0.01060 -0.01061
v -0.03713 -0.00796 -0.02653
v -0.05569 0.02652 -0.01592
v 0.01855 -0.00796 -0.00530
v -0.03978 0.00530 -0.00530
v 0.02122 -0.00001 -0.00530
v -0.05569 -0.02122 -0.01326
v -0.04774 0.02122 -0.01061
v -0.04243 0.02387 -0.02387
f 203 195 218 
f 184 185 187 
f 185 184 190 
f 187 181 191 
f 184 187 191 
f 181 187 192 
f 183 186 193 
f 186 185 193 
f 194 189 195 
f 186 183 195 
f 183 194 195 
f 185 180 197 
f 184 183 199 
f 190 184 199 
f 193 190 199 
f 191 181 200 
f 184 191 200 
f 194 184 200 
f 182 181 201 
f 181 192 201 
f 189 194 202 
f 194 200 202 
f 182 201 202 
f 186 195 203 
f 189 196 203 
f 187 185 204 
f 185 197 204 
f 185 190 205 
f 193 185 205 
f 190 193 205 
f 188 196 206 
f 196 189 206 
f 201 188 206 
f 202 201 206 
f 189 202 206 
f 180 185 207 
f 186 180 207 
f 185 186 207 
f 201 192 208 
f 188 201 208 
f 183 193 209 
f 199 183 209 
f 193 199 209 
f 197 180 210 
f 180 198 210 
f 198 188 210 
f 180 186 211 
f 198 180 211 
f 186 198 211 
f 183 184 212 
f 194 183 212 
f 184 194 212 
f 198 186 213 
f 186 203 213 
f 203 196 213 
f 181 182 214 
f 200 181 214 
f 182 202 214 
f 202 200 214 
f 192 187 215 
f 197 192 215 
f 187 204 215 
f 204 197 215 
f 192 197 216 
f 188 208 216 
f 208 192 216 
f 210 188 216 
f 197 210 216 
f 196 188 217 
f 188 198 217 
f 198 213 217 
f 213 196 217 
f 195 189 218 
f 189 203 218 
