# Original object name hint: convex_11
v 0.06101 0.07692 0.03448
v -0.06366 0.07162 0.00796
v -0.06366 0.07957 0.00796
v 0.06631 0.08222 0.00796
v 0.00000 0.08488 0.04509
v 0.03182 0.06631 0.01061
v -0.05039 0.07162 0.03448
v -0.05836 0.08488 0.02917
v 0.06365 0.08488 0.00796
v 0.05304 0.07427 0.03713
v 0.06365 0.07162 0.00796
v -0.05570 0.08488 0.00796
v 0.05570 0.08488 0.03448
v -0.06100 0.06897 0.00796
v -0.06100 0.07427 0.03448
v 0.01060 0.07957 0.04509
v 0.03182 0.06897 0.02653
v 0.05570 0.07162 0.02917
v -0.05836 0.08222 0.03448
v 0.05570 0.08222 0.03713
v 0.02652 0.07162 0.03448
v 0.02121 0.06631 0.00796
v 0.06365 0.08222 0.02917
v 0.06365 0.07427 0.02917
v 0.02121 0.06631 0.01061
v -0.06100 0.07162 0.03183
v 0.00000 0.07957 0.04509
v 0.06631 0.07427 0.01592
v -0.06100 0.07957 0.03448
v -0.06100 0.06897 0.01061
v 0.00795 0.08488 0.04509
v 0.01326 0.06897 0.02653
v -0.06366 0.07427 0.01592
v -0.05570 0.08488 0.03183
v 0.06631 0.08222 0.01592
v -0.05836 0.08488 0.01327
v -0.06100 0.08222 0.03183
v 0.04243 0.07692 0.03978
v 0.06365 0.07162 0.01061
v 0.06101 0.08488 0.02388
v 0.06101 0.08222 0.03448
v 0.06631 0.07427 0.00796
v 0.04243 0.08222 0.03978
v 0.03713 0.08488 0.03978
v 0.02388 -0.08488 -0.03713
v 0.06895 -0.06367 -0.00796
v 0.06895 -0.07427 -0.00796
v 0.02122 -0.07162 0.00531
v 0.05570 -0.05571 -0.03448
v 0.06365 -0.07692 -0.03978
v 0.02122 -0.06897 -0.03978
v 0.05835 -0.07957 -0.00001
v 0.05570 -0.05571 -0.00266
v 0.02122 -0.07957 0.00265
v 0.02122 -0.06632 0.00265
v 0.04774 -0.08488 -0.02652
v 0.06630 -0.05571 -0.03183
v 0.05835 -0.07427 0.00531
v 0.05835 -0.07162 -0.04244
v 0.02122 -0.07957 -0.04244
v 0.06630 -0.05571 -0.00266
v 0.03979 -0.08488 -0.03978
v 0.06895 -0.07162 -0.03183
v 0.06365 -0.07957 -0.03448
v 0.03449 -0.08488 -0.02122
v 0.06630 -0.07692 -0.00001
v 0.05304 -0.05571 -0.02652
v 0.06365 -0.05836 -0.03713
v 0.02122 -0.07162 -0.04244
v 0.06365 -0.05836 -0.00001
v 0.06895 -0.05836 -0.02652
v 0.06365 -0.07957 -0.00531
v 0.04244 -0.08223 -0.04244
v 0.05835 -0.07692 0.00531
v 0.02122 -0.06632 -0.00796
v 0.02388 -0.08488 -0.02652
v 0.06630 -0.06367 -0.03713
v 0.05835 -0.08223 -0.02917
v 0.02122 -0.07692 0.00531
v 0.04509 -0.07957 0.00265
v 0.02122 -0.08223 -0.03978
v 0.06630 -0.07692 -0.03713
v 0.02388 -0.08223 -0.04244
v 0.04244 -0.08488 -0.02122
v 0.04774 -0.08488 -0.03448
v 0.04244 -0.07162 0.00531
v 0.06630 -0.06632 -0.00001
v 0.05835 -0.07957 -0.03978
v 0.05835 -0.07692 -0.04244
v 0.05304 -0.05571 -0.01857
v 0.06895 -0.05836 -0.01326
v 0.02122 -0.08223 -0.01592
v -0.04244 0.05305 0.00530
v -0.05835 0.07427 -0.04508
v -0.05835 0.07957 -0.04508
v 0.03979 0.07427 -0.04243
v 0.03979 0.08488 0.00796
v -0.05570 0.08488 0.00796
v -0.06896 0.05040 -0.03447
v 0.00529 0.05040 -0.00001
v 0.03979 0.08488 -0.03447
v 0.03979 0.06896 0.00796
v -0.06631 0.07161 0.00796
v -0.00002 0.05040 -0.02121
v -0.06896 0.07692 -0.03713
v -0.06896 0.05040 -0.01327
v -0.06101 0.05040 -0.03713
v -0.05835 0.08222 -0.03978
v 0.03979 0.06896 -0.02652
v -0.07161 0.07161 -0.01856
v -0.05040 0.05040 0.00265
v 0.03979 0.07957 -0.04243
v -0.06631 0.07957 0.00265
v -0.06631 0.06366 -0.04243
v 0.02918 0.06101 -0.00266
v 0.00264 0.05040 0.00265
v -0.07161 0.06366 -0.03713
v -0.06101 0.06632 0.00796
v -0.06631 0.05836 -0.00001
v 0.03446 0.06632 0.00796
v 0.00264 0.05040 -0.01856
v -0.03182 0.08488 -0.00796
v 0.03446 0.06366 0.00530
v -0.06631 0.07957 -0.03713
v -0.06896 0.06366 -0.00001
v -0.07161 0.05836 -0.02652
v -0.06366 0.05570 -0.03978
v 0.03979 0.08222 -0.03978
v 0.03979 0.07161 -0.03713
v -0.06631 0.07692 0.00796
v -0.06631 0.07427 -0.04243
v -0.02652 0.05305 0.00530
v -0.05835 0.06366 -0.04243
v -0.05040 0.07427 -0.04508
v -0.06896 0.07427 -0.00001
v -0.07161 0.07161 -0.03447
v -0.06101 0.08222 -0.03713
v -0.04773 0.07957 -0.04508
v -0.07161 0.06366 -0.01856
v -0.05304 0.08488 0.00265
v -0.06366 0.07957 -0.04243
v -0.06896 0.05305 -0.03713
v 0.03713 0.08488 -0.03447
v -0.06896 0.07692 -0.01327
v 0.03979 0.07427 -0.04244
v 0.07162 0.07692 -0.00531
v 0.07162 0.06631 -0.00531
v 0.03979 0.08488 0.00795
v 0.06366 0.08222 -0.03713
v 0.06100 0.05836 -0.01856
v 0.03979 0.06897 0.00530
v 0.06366 0.08488 0.00795
v 0.03979 0.08488 -0.03447
v 0.06896 0.06366 -0.02917
v 0.06631 0.07162 0.00795
v 0.06631 0.05836 -0.00531
v 0.03979 0.06897 -0.02387
v 0.06366 0.08488 -0.02652
v 0.07162 0.07692 -0.02121
v 0.06631 0.07162 -0.03713
v 0.05040 0.07957 -0.04244
v 0.06100 0.06366 -0.03182
v 0.06896 0.05836 -0.01856
v 0.06896 0.08222 -0.02121
v 0.03979 0.07162 0.00795
v 0.07162 0.06897 -0.02387
v 0.06631 0.07957 -0.03713
v 0.03979 0.07162 -0.03713
v 0.05835 0.08488 -0.03447
v 0.03979 0.08222 -0.03978
v 0.06631 0.08222 0.00795
v 0.06100 0.05836 -0.01061
v 0.06631 0.06631 -0.03447
v 0.06896 0.08222 -0.00531
v 0.06100 0.07427 -0.03978
v 0.06896 0.05836 -0.00797
v 0.05835 0.08222 -0.03978
v 0.06366 0.05836 -0.02121
v 0.06896 0.07957 0.00265
v -0.06101 -0.06896 0.00531
v -0.05835 -0.08223 -0.03713
v -0.06366 -0.07957 -0.03978
v -0.06366 -0.04244 -0.03183
v -0.04244 -0.06896 -0.04244
v -0.04244 -0.06631 0.00531
v -0.06896 -0.04244 -0.00796
v -0.04244 -0.08223 -0.00001
v -0.06896 -0.07692 -0.00796
v -0.07162 -0.06366 -0.03713
v -0.04244 -0.05836 -0.01062
v -0.04244 -0.08223 -0.03713
v -0.05835 -0.08223 -0.00001
v -0.06101 -0.04244 -0.00796
v -0.06631 -0.06631 -0.04244
v -0.06896 -0.04244 -0.03183
v -0.07162 -0.07427 -0.02387
v -0.05835 -0.07957 0.00531
v -0.06896 -0.07162 -0.00266
v -0.04244 -0.05836 -0.01857
v -0.04244 -0.07957 -0.04244
v -0.06366 -0.08223 -0.03183
v -0.06631 -0.07692 -0.04244
v -0.07162 -0.05836 -0.02122
v -0.04244 -0.07957 0.00531
v -0.04244 -0.06101 -0.00001
v -0.07162 -0.07427 -0.03183
v -0.05571 -0.06631 0.00531
v -0.06366 -0.08223 -0.01592
v -0.06101 -0.04244 -0.01857
v -0.06631 -0.07692 -0.00001
v -0.06631 -0.06101 -0.00001
v -0.05305 -0.06631 -0.04244
v -0.07162 -0.06101 -0.01857
v -0.05835 -0.07957 -0.04244
v -0.04510 -0.08223 0.00265
v -0.06366 -0.07957 -0.00001
v -0.07162 -0.07162 -0.01857
v -0.07162 -0.05836 -0.03448
v -0.06101 -0.01325 -0.04244
v -0.05571 0.00529 0.00531
v -0.05571 0.01325 0.00265
v -0.06897 0.01325 -0.00266
v -0.06101 0.05040 -0.03448
v -0.06897 -0.04244 -0.03183
v -0.06897 0.05040 -0.03448
v -0.06101 -0.04244 -0.00796
v -0.05571 -0.00529 -0.04244
v -0.06631 0.05040 -0.01326
v -0.06897 -0.04244 -0.00796
v -0.05836 0.05040 -0.01857
v -0.05571 -0.02387 0.00265
v -0.06631 0.01059 -0.04244
v -0.06631 -0.00529 0.00265
v -0.06366 -0.04244 -0.03183
v -0.05571 0.01059 -0.04244
v -0.05571 -0.02121 -0.02122
v -0.06897 -0.01325 -0.03978
v -0.06897 0.05040 -0.01592
v -0.06631 0.01590 -0.00001
v -0.05571 0.02651 -0.02387
v -0.05836 0.05040 -0.02917
v -0.06366 -0.01856 0.00265
v -0.06631 -0.01325 -0.04244
v -0.06101 -0.04244 -0.01857
v -0.06366 0.05040 -0.01326
v -0.05836 -0.00795 0.00531
v -0.06101 0.01325 0.00265
v -0.06897 0.01325 -0.03978
v -0.06631 0.00266 0.00265
v -0.06897 -0.01060 -0.00266
v -0.05571 0.02651 -0.01592
v -0.05836 -0.02387 0.00265
v -0.05836 0.00529 0.00531
v 0.05040 0.01591 0.00530
v 0.04509 -0.01857 -0.00266
v 0.02122 -0.01061 -0.01856
v 0.05040 0.00265 -0.04244
v 0.02122 0.01326 0.00265
v 0.02122 -0.00795 0.00530
v 0.02122 0.00265 -0.02917
v 0.05040 -0.01591 0.00530
v 0.05040 -0.00530 -0.04244
v 0.04774 0.01326 -0.01856
v 0.03978 -0.00530 -0.04244
v 0.03183 0.00795 0.00795
v 0.03713 0.00265 -0.04244
v 0.03183 0.01591 -0.00266
v 0.02122 0.00795 -0.02121
v 0.05040 -0.00795 0.00795
v 0.04243 -0.01857 0.00265
v 0.02387 -0.00265 -0.03182
v 0.05040 -0.01857 -0.00266
v 0.02122 -0.01061 -0.00001
v 0.05040 0.01060 0.00795
v 0.05040 0.01591 -0.00531
v 0.02387 0.01326 0.00530
v 0.03978 -0.00795 0.00795
v 0.02918 0.01591 0.00265
v 0.02918 -0.00001 0.00795
v 0.04243 -0.01591 0.00530
v 0.02122 -0.00795 -0.02387
v 0.02122 0.01326 -0.00266
v 0.02122 0.01060 0.00530
v 0.05040 0.01326 -0.01856
v 0.03713 0.01060 0.00795
v 0.05570 -0.01062 -0.04243
v 0.05570 0.00529 0.01061
v 0.05305 0.00529 0.01061
v 0.05570 -0.05570 -0.00266
v 0.06631 0.02386 -0.02917
v 0.06631 -0.05570 -0.00531
v 0.06631 -0.05570 -0.03182
v 0.05040 0.00264 -0.04243
v 0.05305 -0.05570 -0.02917
v 0.05040 0.01590 0.00530
v 0.06366 0.02121 -0.00001
v 0.05835 0.02918 -0.02652
v 0.06366 0.01060 -0.04243
v 0.05040 -0.02121 0.00265
v 0.06631 0.02386 -0.01062
v 0.05570 -0.05570 -0.03448
v 0.05835 -0.00001 0.01061
v 0.06366 0.02918 -0.01062
v 0.05040 -0.00797 -0.04243
v 0.06100 0.02651 -0.03448
v 0.05040 0.01325 -0.02387
v 0.06366 -0.03978 -0.03713
v 0.05040 -0.00001 0.01061
v 0.05305 -0.05570 -0.01062
v 0.06366 0.01325 0.00265
v 0.06366 -0.05570 -0.00266
v 0.06631 0.01590 -0.03448
v 0.05835 0.02651 -0.00531
v 0.06366 -0.00267 -0.04243
v 0.05570 0.01590 -0.03978
v 0.06366 0.02918 -0.02917
v 0.05305 0.01590 -0.03448
v 0.06631 0.02121 -0.00796
v 0.06366 -0.05570 -0.03448
v 0.06366 0.02651 -0.03448
v 0.05835 0.02918 -0.01591
v 0.06366 -0.00267 0.00265
v 0.05040 0.01590 -0.00796
v 0.05040 -0.02121 -0.00531
v 0.06100 -0.01062 -0.04243
v 0.05835 0.01590 0.00530
v 0.05835 -0.04243 -0.03713
v 0.05305 -0.05304 -0.03182
v 0.05305 -0.05039 -0.00531
v 0.05570 0.01060 -0.04243
v 0.00265 -0.06366 -0.00001
v -0.01326 -0.07692 -0.04509
v -0.04244 -0.07958 -0.04244
v 0.02122 -0.07958 0.00265
v -0.04244 -0.07958 0.00531
v -0.04244 -0.06366 -0.02122
v 0.01856 -0.06897 -0.04244
v 0.02122 -0.08223 -0.03978
v -0.03182 -0.06366 0.00531
v -0.04244 -0.06897 -0.04244
v 0.02122 -0.06632 0.00265
v -0.04244 -0.08223 -0.00001
v 0.00795 -0.06632 -0.04244
v -0.04244 -0.08223 -0.03713
v 0.02122 -0.07692 0.00531
v -0.04244 -0.06366 0.00265
v 0.02122 -0.08223 -0.01592
v 0.00529 -0.06366 -0.02122
v 0.01060 -0.06897 -0.04509
v 0.02122 -0.06897 -0.03978
v 0.01325 -0.07692 -0.04509
v -0.02387 -0.06366 -0.02652
v -0.01061 -0.06366 0.00531
v -0.00796 -0.06632 -0.04244
v 0.01856 -0.06632 -0.02387
v -0.01326 -0.06897 -0.04509
v 0.02122 -0.07162 0.00531
v -0.04244 -0.06632 0.00531
v -0.00001 -0.06366 -0.02652
v 0.02122 -0.07958 -0.04244
v -0.02122 -0.06632 -0.03978
v -0.03713 -0.08223 -0.00001
v 0.02122 -0.06632 -0.01061
v -0.00266 -0.06366 -0.02387
v 0.00795 -0.04244 -0.01326
v 0.01060 -0.04510 -0.01326
v -0.04244 -0.06366 -0.01061
v -0.02122 -0.04244 -0.02122
v -0.00266 -0.06366 -0.01061
v -0.04244 -0.06366 -0.02122
v 0.01060 -0.04775 -0.02122
v -0.02122 -0.04244 -0.01326
v 0.01060 -0.05836 -0.01592
v -0.04244 -0.05836 -0.01061
v -0.01327 -0.05040 -0.02387
v 0.00530 -0.04244 -0.02122
v -0.02917 -0.06101 -0.02387
v 0.00530 -0.05836 -0.02387
v -0.04244 -0.05836 -0.01857
v -0.00531 -0.05836 -0.01061
v 0.00530 -0.05040 -0.02387
v 0.01060 -0.05570 -0.01326
v -0.04244 -0.06101 -0.02122
v -0.00001 -0.06366 -0.02122
v 0.01060 -0.05570 -0.02122
v -0.02917 -0.04775 -0.01592
v -0.02917 -0.06366 -0.02387
v -0.04244 -0.06366 -0.00530
v -0.00531 -0.04244 0.00265
v -0.00265 -0.04775 0.00265
v -0.02918 -0.06366 0.00531
v -0.00797 -0.06366 -0.00530
v -0.03183 -0.04244 -0.00265
v -0.03448 -0.04244 0.00265
v -0.00797 -0.04244 -0.00265
v -0.00797 -0.06366 0.00265
v -0.04244 -0.06366 0.00265
v -0.02652 -0.05570 -0.00530
v -0.01592 -0.06101 0.00531
v -0.00265 -0.05570 0.00000
v -0.04244 -0.06101 -0.00530
v -0.02387 -0.05836 0.00531
v -0.00265 -0.04775 0.00000
v -0.00265 -0.05570 0.00265
v -0.00531 -0.06366 0.00000
v -0.04244 -0.06101 0.00265
v -0.01592 -0.05570 -0.00530
v -0.05039 -0.03714 0.00000
v -0.01592 0.02652 0.00265
v -0.02917 0.02122 0.00531
v 0.02122 -0.00796 0.00531
v 0.02122 0.00795 -0.00530
v -0.05569 0.01325 -0.00530
v -0.00797 -0.04244 -0.00265
v -0.05569 -0.01325 0.00531
v -0.00797 -0.04244 0.00265
v -0.04508 -0.01856 -0.00530
v -0.05039 0.02652 -0.00265
v 0.02122 0.01060 0.00531
v 0.02122 -0.00796 -0.00530
v -0.05039 0.02652 0.00265
v -0.01856 0.02652 -0.00265
v -0.03447 -0.04244 0.00265
v -0.05569 -0.02387 -0.00265
v -0.03447 -0.04244 -0.00265
v 0.02122 0.01325 -0.00265
v -0.01327 -0.02122 0.00531
v -0.05569 0.00795 0.00531
v 0.00795 -0.02917 0.00265
v -0.04243 0.01856 -0.00530
v -0.05039 -0.03714 0.00265
v -0.05569 -0.01060 -0.00530
v -0.05039 -0.01856 0.00531
v -0.05569 0.01856 0.00000
v 0.01855 0.01060 -0.00530
v 0.02122 0.01325 0.00265
v -0.04774 -0.03448 -0.00265
v -0.05569 -0.02652 0.00265
v 0.00795 -0.02917 0.00000
v 0.00264 -0.01325 -0.00530
v -0.03978 0.02122 0.00531
v 0.00265 0.05039 -0.01326
v -0.01326 0.02652 -0.01857
v -0.01326 0.02652 -0.01592
v -0.01061 0.05039 -0.01326
v -0.00796 0.05039 -0.02122
v 0.00265 0.03978 -0.01857
v -0.00000 0.05039 -0.02122
v -0.00796 0.02652 -0.01592
v -0.00000 0.04244 -0.01326
v -0.01326 0.03714 -0.01857
v -0.00796 0.02652 -0.01857
v -0.00000 0.04509 -0.02122
v 0.00265 0.03978 -0.01592
v -0.01061 0.05039 -0.01857
v -0.05039 0.02652 -0.00000
v 0.00530 0.05039 -0.00000
v 0.00530 0.05039 -0.00530
v -0.05039 0.05039 -0.00000
v -0.01327 0.02652 0.00265
v 0.00264 0.03183 -0.00530
v -0.05039 0.05039 0.00265
v -0.04774 0.02652 -0.00265
v -0.04774 0.05039 -0.00265
v -0.00001 0.05039 0.00265
v 0.00530 0.03448 -0.00000
v -0.05039 0.02652 0.00265
v -0.00797 0.05039 -0.00530
v -0.01858 0.02652 -0.00265
v 0.00264 0.02918 -0.00000
v 0.00264 0.02918 -0.00265
v 0.00529 -0.00796 -0.02653
v -0.05039 0.01326 -0.03448
v -0.05039 0.01326 -0.03979
v -0.05569 -0.00531 -0.03979
v 0.00795 0.00265 -0.03713
v 0.00795 0.00795 -0.02653
v -0.04243 0.00000 -0.02653
v -0.05569 0.00795 -0.02918
v 0.01590 -0.00531 -0.03183
v -0.05039 -0.00265 -0.04244
v -0.05569 0.01061 -0.04244
v -0.03713 -0.00531 -0.02653
v -0.03713 0.01061 -0.02653
v 0.02122 0.00265 -0.02653
v -0.00531 0.01061 -0.02918
v 0.00795 -0.00265 -0.03713
v -0.05569 -0.00531 -0.03448
v 0.00264 0.00530 -0.03713
v -0.05569 0.01326 -0.03183
v -0.02121 -0.00796 -0.02653
v -0.03978 -0.00531 -0.03979
v 0.01590 0.00265 -0.03448
v 0.00529 -0.00796 -0.02918
v -0.01592 0.00265 -0.03979
v 0.01855 0.00530 -0.02918
v -0.05569 0.00265 -0.02918
v 0.01855 -0.00531 -0.02653
v -0.00531 0.01061 -0.02653
v 0.00795 -0.00531 -0.03448
v 0.02122 -0.00265 -0.02918
v -0.05304 0.01061 -0.04244
v -0.00266 0.00795 -0.03448
v 0.01590 -0.00265 -0.03448
v -0.02121 -0.00796 -0.02918
v -0.05569 -0.00265 -0.04244
v -0.05569 -0.02122 -0.01857
v -0.01062 0.02652 -0.01592
v 0.00529 0.01060 -0.00530
v 0.02122 -0.00532 -0.02653
v 0.00529 -0.04244 -0.01326
v -0.05569 0.02387 -0.02387
v -0.05569 0.01325 -0.00796
v -0.02121 -0.04244 -0.02122
v -0.04774 -0.01590 -0.00796
v -0.05569 -0.00532 -0.02653
v 0.02122 -0.00532 -0.00530
v 0.02122 0.00530 -0.02653
v -0.04774 0.02652 -0.01326
v -0.02121 -0.04244 -0.01326
v 0.02122 0.00795 -0.01061
v 0.00264 -0.04244 -0.02122
v -0.03978 -0.00001 -0.00530
v -0.01327 0.01591 -0.02653
v -0.05569 -0.01856 -0.01061
v -0.01062 0.02652 -0.01857
v -0.00001 -0.00796 -0.00530
v -0.05569 0.01591 -0.02653
v 0.02122 -0.01060 -0.01857
v -0.05569 0.02652 -0.02122
v 0.01060 -0.00796 -0.02653
v -0.02121 0.01060 -0.00530
v 0.02122 0.00795 -0.02122
v 0.00529 -0.04244 -0.01857
v -0.05569 -0.00796 -0.00796
v -0.05039 -0.02387 -0.01061
v -0.02386 -0.04244 -0.01592
v -0.02917 0.02652 -0.02122
v -0.02917 0.02652 -0.01326
v -0.05569 -0.01856 -0.02122
v 0.01325 0.00795 -0.00530
v 0.02122 -0.01060 -0.01061
v -0.03713 -0.00796 -0.02653
v -0.05569 0.02652 -0.01592
v 0.01855 -0.00796 -0.00530
v -0.03978 0.00530 -0.00530
v 0.02122 -0.00001 -0.00530
v -0.05569 -0.02122 -0.01326
v -0.04774 0.02122 -0.01061
v -0.04243 0.02387 -0.02387
f 421 428 441 
f 411 410 415 
f 413 412 417 
f 409 410 419 
f 410 411 419 
f 411 412 419 
f 412 411 420 
f 417 412 420 
f 410 409 421 
f 409 418 421 
f 418 409 422 
f 414 416 423 
f 415 413 424 
f 417 414 425 
f 423 408 425 
f 414 423 425 
f 419 412 426 
f 422 409 426 
f 411 415 427 
f 416 411 427 
f 423 416 427 
f 415 410 428 
f 413 415 428 
f 416 414 429 
f 411 416 429 
f 420 411 429 
f 412 413 430 
f 413 418 430 
f 418 422 430 
f 408 423 431 
f 413 417 432 
f 424 413 432 
f 427 415 433 
f 423 427 433 
f 431 423 433 
f 415 431 433 
f 418 413 434 
f 421 418 434 
f 413 428 434 
f 428 421 434 
f 426 412 435 
f 422 426 435 
f 412 430 435 
f 430 422 435 
f 409 419 436 
f 426 409 436 
f 419 426 436 
f 408 424 437 
f 417 425 437 
f 425 408 437 
f 432 417 437 
f 424 432 437 
f 424 408 438 
f 415 424 438 
f 408 431 438 
f 431 415 438 
f 414 420 439 
f 429 414 439 
f 420 429 439 
f 414 417 440 
f 420 414 440 
f 417 420 440 
f 410 421 441 
f 428 410 441 
