# Original object name hint: convex_2
v 0.06101 0.07692 0.03448
v -0.06366 0.07162 0.00796
v -0.06366 0.07957 0.00796
v 0.06631 0.08222 0.00796
v 0.00000 0.08488 0.04509
v 0.03182 0.06631 0.01061
v -0.05039 0.07162 0.03448
v -0.05836 0.08488 0.02917
v 0.06365 0.08488 0.00796
v 0.05304 0.07427 0.03713
v 0.06365 0.07162 0.00796
v -0.05570 0.08488 0.00796
v 0.05570 0.08488 0.03448
v -0.06100 0.06897 0.00796
v -0.06100 0.07427 0.03448
v 0.01060 0.07957 0.04509
v 0.03182 0.06897 0.02653
v 0.05570 0.07162 0.02917
v -0.05836 0.08222 0.03448
v 0.05570 0.08222 0.03713
v 0.02652 0.07162 0.03448
v 0.02121 0.06631 0.00796
v 0.06365 0.08222 0.02917
v 0.06365 0.07427 0.02917
v 0.02121 0.06631 0.01061
v -0.06100 0.07162 0.03183
v 0.00000 0.07957 0.04509
v 0.06631 0.07427 0.01592
v -0.06100 0.07957 0.03448
v -0.06100 0.06897 0.01061
v 0.00795 0.08488 0.04509
v 0.01326 0.06897 0.02653
v -0.06366 0.07427 0.01592
v -0.05570 0.08488 0.03183
v 0.06631 0.08222 0.01592
v -0.05836 0.08488 0.01327
v -0.06100 0.08222 0.03183
v 0.04243 0.07692 0.03978
v 0.06365 0.07162 0.01061
v 0.06101 0.08488 0.02388
v 0.06101 0.08222 0.03448
v 0.06631 0.07427 0.00796
v 0.04243 0.08222 0.03978
v 0.03713 0.08488 0.03978
v 0.02388 -0.08488 -0.03713
v 0.06895 -0.06367 -0.00796
v 0.06895 -0.07427 -0.00796
v 0.02122 -0.07162 0.00531
v 0.05570 -0.05571 -0.03448
v 0.06365 -0.07692 -0.03978
v 0.02122 -0.06897 -0.03978
v 0.05835 -0.07957 -0.00001
v 0.05570 -0.05571 -0.00266
v 0.02122 -0.07957 0.00265
v 0.02122 -0.06632 0.00265
v 0.04774 -0.08488 -0.02652
v 0.06630 -0.05571 -0.03183
v 0.05835 -0.07427 0.00531
v 0.05835 -0.07162 -0.04244
v 0.02122 -0.07957 -0.04244
v 0.06630 -0.05571 -0.00266
v 0.03979 -0.08488 -0.03978
v 0.06895 -0.07162 -0.03183
v 0.06365 -0.07957 -0.03448
v 0.03449 -0.08488 -0.02122
v 0.06630 -0.07692 -0.00001
v 0.05304 -0.05571 -0.02652
v 0.06365 -0.05836 -0.03713
v 0.02122 -0.07162 -0.04244
v 0.06365 -0.05836 -0.00001
v 0.06895 -0.05836 -0.02652
v 0.06365 -0.07957 -0.00531
v 0.04244 -0.08223 -0.04244
v 0.05835 -0.07692 0.00531
v 0.02122 -0.06632 -0.00796
v 0.02388 -0.08488 -0.02652
v 0.06630 -0.06367 -0.03713
v 0.05835 -0.08223 -0.02917
v 0.02122 -0.07692 0.00531
v 0.04509 -0.07957 0.00265
v 0.02122 -0.08223 -0.03978
v 0.06630 -0.07692 -0.03713
v 0.02388 -0.08223 -0.04244
v 0.04244 -0.08488 -0.02122
v 0.04774 -0.08488 -0.03448
v 0.04244 -0.07162 0.00531
v 0.06630 -0.06632 -0.00001
v 0.05835 -0.07957 -0.03978
v 0.05835 -0.07692 -0.04244
v 0.05304 -0.05571 -0.01857
v 0.06895 -0.05836 -0.01326
v 0.02122 -0.08223 -0.01592
v -0.04244 0.05305 0.00530
v -0.05835 0.07427 -0.04508
v -0.05835 0.07957 -0.04508
v 0.03979 0.07427 -0.04243
v 0.03979 0.08488 0.00796
v -0.05570 0.08488 0.00796
v -0.06896 0.05040 -0.03447
v 0.00529 0.05040 -0.00001
v 0.03979 0.08488 -0.03447
v 0.03979 0.06896 0.00796
v -0.06631 0.07161 0.00796
v -0.00002 0.05040 -0.02121
v -0.06896 0.07692 -0.03713
v -0.06896 0.05040 -0.01327
v -0.06101 0.05040 -0.03713
v -0.05835 0.08222 -0.03978
v 0.03979 0.06896 -0.02652
v -0.07161 0.07161 -0.01856
v -0.05040 0.05040 0.00265
v 0.03979 0.07957 -0.04243
v -0.06631 0.07957 0.00265
v -0.06631 0.06366 -0.04243
v 0.02918 0.06101 -0.00266
v 0.00264 0.05040 0.00265
v -0.07161 0.06366 -0.03713
v -0.06101 0.06632 0.00796
v -0.06631 0.05836 -0.00001
v 0.03446 0.06632 0.00796
v 0.00264 0.05040 -0.01856
v -0.03182 0.08488 -0.00796
v 0.03446 0.06366 0.00530
v -0.06631 0.07957 -0.03713
v -0.06896 0.06366 -0.00001
v -0.07161 0.05836 -0.02652
v -0.06366 0.05570 -0.03978
v 0.03979 0.08222 -0.03978
v 0.03979 0.07161 -0.03713
v -0.06631 0.07692 0.00796
v -0.06631 0.07427 -0.04243
v -0.02652 0.05305 0.00530
v -0.05835 0.06366 -0.04243
v -0.05040 0.07427 -0.04508
v -0.06896 0.07427 -0.00001
v -0.07161 0.07161 -0.03447
v -0.06101 0.08222 -0.03713
v -0.04773 0.07957 -0.04508
v -0.07161 0.06366 -0.01856
v -0.05304 0.08488 0.00265
v -0.06366 0.07957 -0.04243
v -0.06896 0.05305 -0.03713
v 0.03713 0.08488 -0.03447
v -0.06896 0.07692 -0.01327
v 0.03979 0.07427 -0.04244
v 0.07162 0.07692 -0.00531
v 0.07162 0.06631 -0.00531
v 0.03979 0.08488 0.00795
v 0.06366 0.08222 -0.03713
v 0.06100 0.05836 -0.01856
v 0.03979 0.06897 0.00530
v 0.06366 0.08488 0.00795
v 0.03979 0.08488 -0.03447
v 0.06896 0.06366 -0.02917
v 0.06631 0.07162 0.00795
v 0.06631 0.05836 -0.00531
v 0.03979 0.06897 -0.02387
v 0.06366 0.08488 -0.02652
v 0.07162 0.07692 -0.02121
v 0.06631 0.07162 -0.03713
v 0.05040 0.07957 -0.04244
v 0.06100 0.06366 -0.03182
v 0.06896 0.05836 -0.01856
v 0.06896 0.08222 -0.02121
v 0.03979 0.07162 0.00795
v 0.07162 0.06897 -0.02387
v 0.06631 0.07957 -0.03713
v 0.03979 0.07162 -0.03713
v 0.05835 0.08488 -0.03447
v 0.03979 0.08222 -0.03978
v 0.06631 0.08222 0.00795
v 0.06100 0.05836 -0.01061
v 0.06631 0.06631 -0.03447
v 0.06896 0.08222 -0.00531
v 0.06100 0.07427 -0.03978
v 0.06896 0.05836 -0.00797
v 0.05835 0.08222 -0.03978
v 0.06366 0.05836 -0.02121
v 0.06896 0.07957 0.00265
v -0.06101 -0.06896 0.00531
v -0.05835 -0.08223 -0.03713
v -0.06366 -0.07957 -0.03978
v -0.06366 -0.04244 -0.03183
v -0.04244 -0.06896 -0.04244
v -0.04244 -0.06631 0.00531
v -0.06896 -0.04244 -0.00796
v -0.04244 -0.08223 -0.00001
v -0.06896 -0.07692 -0.00796
v -0.07162 -0.06366 -0.03713
v -0.04244 -0.05836 -0.01062
v -0.04244 -0.08223 -0.03713
v -0.05835 -0.08223 -0.00001
v -0.06101 -0.04244 -0.00796
v -0.06631 -0.06631 -0.04244
v -0.06896 -0.04244 -0.03183
v -0.07162 -0.07427 -0.02387
v -0.05835 -0.07957 0.00531
v -0.06896 -0.07162 -0.00266
v -0.04244 -0.05836 -0.01857
v -0.04244 -0.07957 -0.04244
v -0.06366 -0.08223 -0.03183
v -0.06631 -0.07692 -0.04244
v -0.07162 -0.05836 -0.02122
v -0.04244 -0.07957 0.00531
v -0.04244 -0.06101 -0.00001
v -0.07162 -0.07427 -0.03183
v -0.05571 -0.06631 0.00531
v -0.06366 -0.08223 -0.01592
v -0.06101 -0.04244 -0.01857
v -0.06631 -0.07692 -0.00001
v -0.06631 -0.06101 -0.00001
v -0.05305 -0.06631 -0.04244
v -0.07162 -0.06101 -0.01857
v -0.05835 -0.07957 -0.04244
v -0.04510 -0.08223 0.00265
v -0.06366 -0.07957 -0.00001
v -0.07162 -0.07162 -0.01857
v -0.07162 -0.05836 -0.03448
v -0.06101 -0.01325 -0.04244
v -0.05571 0.00529 0.00531
v -0.05571 0.01325 0.00265
v -0.06897 0.01325 -0.00266
v -0.06101 0.05040 -0.03448
v -0.06897 -0.04244 -0.03183
v -0.06897 0.05040 -0.03448
v -0.06101 -0.04244 -0.00796
v -0.05571 -0.00529 -0.04244
v -0.06631 0.05040 -0.01326
v -0.06897 -0.04244 -0.00796
v -0.05836 0.05040 -0.01857
v -0.05571 -0.02387 0.00265
v -0.06631 0.01059 -0.04244
v -0.06631 -0.00529 0.00265
v -0.06366 -0.04244 -0.03183
v -0.05571 0.01059 -0.04244
v -0.05571 -0.02121 -0.02122
v -0.06897 -0.01325 -0.03978
v -0.06897 0.05040 -0.01592
v -0.06631 0.01590 -0.00001
v -0.05571 0.02651 -0.02387
v -0.05836 0.05040 -0.02917
v -0.06366 -0.01856 0.00265
v -0.06631 -0.01325 -0.04244
v -0.06101 -0.04244 -0.01857
v -0.06366 0.05040 -0.01326
v -0.05836 -0.00795 0.00531
v -0.06101 0.01325 0.00265
v -0.06897 0.01325 -0.03978
v -0.06631 0.00266 0.00265
v -0.06897 -0.01060 -0.00266
v -0.05571 0.02651 -0.01592
v -0.05836 -0.02387 0.00265
v -0.05836 0.00529 0.00531
v 0.05040 0.01591 0.00530
v 0.04509 -0.01857 -0.00266
v 0.02122 -0.01061 -0.01856
v 0.05040 0.00265 -0.04244
v 0.02122 0.01326 0.00265
v 0.02122 -0.00795 0.00530
v 0.02122 0.00265 -0.02917
v 0.05040 -0.01591 0.00530
v 0.05040 -0.00530 -0.04244
v 0.04774 0.01326 -0.01856
v 0.03978 -0.00530 -0.04244
v 0.03183 0.00795 0.00795
v 0.03713 0.00265 -0.04244
v 0.03183 0.01591 -0.00266
v 0.02122 0.00795 -0.02121
v 0.05040 -0.00795 0.00795
v 0.04243 -0.01857 0.00265
v 0.02387 -0.00265 -0.03182
v 0.05040 -0.01857 -0.00266
v 0.02122 -0.01061 -0.00001
v 0.05040 0.01060 0.00795
v 0.05040 0.01591 -0.00531
v 0.02387 0.01326 0.00530
v 0.03978 -0.00795 0.00795
v 0.02918 0.01591 0.00265
v 0.02918 -0.00001 0.00795
v 0.04243 -0.01591 0.00530
v 0.02122 -0.00795 -0.02387
v 0.02122 0.01326 -0.00266
v 0.02122 0.01060 0.00530
v 0.05040 0.01326 -0.01856
v 0.03713 0.01060 0.00795
v 0.05570 -0.01062 -0.04243
v 0.05570 0.00529 0.01061
v 0.05305 0.00529 0.01061
v 0.05570 -0.05570 -0.00266
v 0.06631 0.02386 -0.02917
v 0.06631 -0.05570 -0.00531
v 0.06631 -0.05570 -0.03182
v 0.05040 0.00264 -0.04243
v 0.05305 -0.05570 -0.02917
v 0.05040 0.01590 0.00530
v 0.06366 0.02121 -0.00001
v 0.05835 0.02918 -0.02652
v 0.06366 0.01060 -0.04243
v 0.05040 -0.02121 0.00265
v 0.06631 0.02386 -0.01062
v 0.05570 -0.05570 -0.03448
v 0.05835 -0.00001 0.01061
v 0.06366 0.02918 -0.01062
v 0.05040 -0.00797 -0.04243
v 0.06100 0.02651 -0.03448
v 0.05040 0.01325 -0.02387
v 0.06366 -0.03978 -0.03713
v 0.05040 -0.00001 0.01061
v 0.05305 -0.05570 -0.01062
v 0.06366 0.01325 0.00265
v 0.06366 -0.05570 -0.00266
v 0.06631 0.01590 -0.03448
v 0.05835 0.02651 -0.00531
v 0.06366 -0.00267 -0.04243
v 0.05570 0.01590 -0.03978
v 0.06366 0.02918 -0.02917
v 0.05305 0.01590 -0.03448
v 0.06631 0.02121 -0.00796
v 0.06366 -0.05570 -0.03448
v 0.06366 0.02651 -0.03448
v 0.05835 0.02918 -0.01591
v 0.06366 -0.00267 0.00265
v 0.05040 0.01590 -0.00796
v 0.05040 -0.02121 -0.00531
v 0.06100 -0.01062 -0.04243
v 0.05835 0.01590 0.00530
v 0.05835 -0.04243 -0.03713
v 0.05305 -0.05304 -0.03182
v 0.05305 -0.05039 -0.00531
v 0.05570 0.01060 -0.04243
v 0.00265 -0.06366 -0.00001
v -0.01326 -0.07692 -0.04509
v -0.04244 -0.07958 -0.04244
v 0.02122 -0.07958 0.00265
v -0.04244 -0.07958 0.00531
v -0.04244 -0.06366 -0.02122
v 0.01856 -0.06897 -0.04244
v 0.02122 -0.08223 -0.03978
v -0.03182 -0.06366 0.00531
v -0.04244 -0.06897 -0.04244
v 0.02122 -0.06632 0.00265
v -0.04244 -0.08223 -0.00001
v 0.00795 -0.06632 -0.04244
v -0.04244 -0.08223 -0.03713
v 0.02122 -0.07692 0.00531
v -0.04244 -0.06366 0.00265
v 0.02122 -0.08223 -0.01592
v 0.00529 -0.06366 -0.02122
v 0.01060 -0.06897 -0.04509
v 0.02122 -0.06897 -0.03978
v 0.01325 -0.07692 -0.04509
v -0.02387 -0.06366 -0.02652
v -0.01061 -0.06366 0.00531
v -0.00796 -0.06632 -0.04244
v 0.01856 -0.06632 -0.02387
v -0.01326 -0.06897 -0.04509
v 0.02122 -0.07162 0.00531
v -0.04244 -0.06632 0.00531
v -0.00001 -0.06366 -0.02652
v 0.02122 -0.07958 -0.04244
v -0.02122 -0.06632 -0.03978
v -0.03713 -0.08223 -0.00001
v 0.02122 -0.06632 -0.01061
v -0.00266 -0.06366 -0.02387
v 0.00795 -0.04244 -0.01326
v 0.01060 -0.04510 -0.01326
v -0.04244 -0.06366 -0.01061
v -0.02122 -0.04244 -0.02122
v -0.00266 -0.06366 -0.01061
v -0.04244 -0.06366 -0.02122
v 0.01060 -0.04775 -0.02122
v -0.02122 -0.04244 -0.01326
v 0.01060 -0.05836 -0.01592
v -0.04244 -0.05836 -0.01061
v -0.01327 -0.05040 -0.02387
v 0.00530 -0.04244 -0.02122
v -0.02917 -0.06101 -0.02387
v 0.00530 -0.05836 -0.02387
v -0.04244 -0.05836 -0.01857
v -0.00531 -0.05836 -0.01061
v 0.00530 -0.05040 -0.02387
v 0.01060 -0.05570 -0.01326
v -0.04244 -0.06101 -0.02122
v -0.00001 -0.06366 -0.02122
v 0.01060 -0.05570 -0.02122
v -0.02917 -0.04775 -0.01592
v -0.02917 -0.06366 -0.02387
v -0.04244 -0.06366 -0.00530
v -0.00531 -0.04244 0.00265
v -0.00265 -0.04775 0.00265
v -0.02918 -0.06366 0.00531
v -0.00797 -0.06366 -0.00530
v -0.03183 -0.04244 -0.00265
v -0.03448 -0.04244 0.00265
v -0.00797 -0.04244 -0.00265
v -0.00797 -0.06366 0.00265
v -0.04244 -0.06366 0.00265
v -0.02652 -0.05570 -0.00530
v -0.01592 -0.06101 0.00531
v -0.00265 -0.05570 0.00000
v -0.04244 -0.06101 -0.00530
v -0.02387 -0.05836 0.00531
v -0.00265 -0.04775 0.00000
v -0.00265 -0.05570 0.00265
v -0.00531 -0.06366 0.00000
v -0.04244 -0.06101 0.00265
v -0.01592 -0.05570 -0.00530
v -0.05039 -0.03714 0.00000
v -0.01592 0.02652 0.00265
v -0.02917 0.02122 0.00531
v 0.02122 -0.00796 0.00531
v 0.02122 0.00795 -0.00530
v -0.05569 0.01325 -0.00530
v -0.00797 -0.04244 -0.00265
v -0.05569 -0.01325 0.00531
v -0.00797 -0.04244 0.00265
v -0.04508 -0.01856 -0.00530
v -0.05039 0.02652 -0.00265
v 0.02122 0.01060 0.00531
v 0.02122 -0.00796 -0.00530
v -0.05039 0.02652 0.00265
v -0.01856 0.02652 -0.00265
v -0.03447 -0.04244 0.00265
v -0.05569 -0.02387 -0.00265
v -0.03447 -0.04244 -0.00265
v 0.02122 0.01325 -0.00265
v -0.01327 -0.02122 0.00531
v -0.05569 0.00795 0.00531
v 0.00795 -0.02917 0.00265
v -0.04243 0.01856 -0.00530
v -0.05039 -0.03714 0.00265
v -0.05569 -0.01060 -0.00530
v -0.05039 -0.01856 0.00531
v -0.05569 0.01856 0.00000
v 0.01855 0.01060 -0.00530
v 0.02122 0.01325 0.00265
v -0.04774 -0.03448 -0.00265
v -0.05569 -0.02652 0.00265
v 0.00795 -0.02917 0.00000
v 0.00264 -0.01325 -0.00530
v -0.03978 0.02122 0.00531
v 0.00265 0.05039 -0.01326
v -0.01326 0.02652 -0.01857
v -0.01326 0.02652 -0.01592
v -0.01061 0.05039 -0.01326
v -0.00796 0.05039 -0.02122
v 0.00265 0.03978 -0.01857
v -0.00000 0.05039 -0.02122
v -0.00796 0.02652 -0.01592
v -0.00000 0.04244 -0.01326
v -0.01326 0.03714 -0.01857
v -0.00796 0.02652 -0.01857
v -0.00000 0.04509 -0.02122
v 0.00265 0.03978 -0.01592
v -0.01061 0.05039 -0.01857
v -0.05039 0.02652 -0.00000
v 0.00530 0.05039 -0.00000
v 0.00530 0.05039 -0.00530
v -0.05039 0.05039 -0.00000
v -0.01327 0.02652 0.00265
v 0.00264 0.03183 -0.00530
v -0.05039 0.05039 0.00265
v -0.04774 0.02652 -0.00265
v -0.04774 0.05039 -0.00265
v -0.00001 0.05039 0.00265
v 0.00530 0.03448 -0.00000
v -0.05039 0.02652 0.00265
v -0.00797 0.05039 -0.00530
v -0.01858 0.02652 -0.00265
v 0.00264 0.02918 -0.00000
v 0.00264 0.02918 -0.00265
v 0.00529 -0.00796 -0.02653
v -0.05039 0.01326 -0.03448
v -0.05039 0.01326 -0.03979
v -0.05569 -0.00531 -0.03979
v 0.00795 0.00265 -0.03713
v 0.00795 0.00795 -0.02653
v -0.04243 0.00000 -0.02653
v -0.05569 0.00795 -0.02918
v 0.01590 -0.00531 -0.03183
v -0.05039 -0.00265 -0.04244
v -0.05569 0.01061 -0.04244
v -0.03713 -0.00531 -0.02653
v -0.03713 0.01061 -0.02653
v 0.02122 0.00265 -0.02653
v -0.00531 0.01061 -0.02918
v 0.00795 -0.00265 -0.03713
v -0.05569 -0.00531 -0.03448
v 0.00264 0.00530 -0.03713
v -0.05569 0.01326 -0.03183
v -0.02121 -0.00796 -0.02653
v -0.03978 -0.00531 -0.03979
v 0.01590 0.00265 -0.03448
v 0.00529 -0.00796 -0.02918
v -0.01592 0.00265 -0.03979
v 0.01855 0.00530 -0.02918
v -0.05569 0.00265 -0.02918
v 0.01855 -0.00531 -0.02653
v -0.00531 0.01061 -0.02653
v 0.00795 -0.00531 -0.03448
v 0.02122 -0.00265 -0.02918
v -0.05304 0.01061 -0.04244
v -0.00266 0.00795 -0.03448
v 0.01590 -0.00265 -0.03448
v -0.02121 -0.00796 -0.02918
v -0.05569 -0.00265 -0.04244
v -0.05569 -0.02122 -0.01857
v -0.01062 0.02652 -0.01592
v 0.00529 0.01060 -0.00530
v 0.02122 -0.00532 -0.02653
v 0.00529 -0.04244 -0.01326
v -0.05569 0.02387 -0.02387
v -0.05569 0.01325 -0.00796
v -0.02121 -0.04244 -0.02122
v -0.04774 -0.01590 -0.00796
v -0.05569 -0.00532 -0.02653
v 0.02122 -0.00532 -0.00530
v 0.02122 0.00530 -0.02653
v -0.04774 0.02652 -0.01326
v -0.02121 -0.04244 -0.01326
v 0.02122 0.00795 -0.01061
v 0.00264 -0.04244 -0.02122
v -0.03978 -0.00001 -0.00530
v -0.01327 0.01591 -0.02653
v -0.05569 -0.01856 -0.01061
v -0.01062 0.02652 -0.01857
v -0.00001 -0.00796 -0.00530
v -0.05569 0.01591 -0.02653
v 0.02122 -0.01060 -0.01857
v -0.05569 0.02652 -0.02122
v 0.01060 -0.00796 -0.02653
v -0.02121 0.01060 -0.00530
v 0.02122 0.00795 -0.02122
v 0.00529 -0.04244 -0.01857
v -0.05569 -0.00796 -0.00796
v -0.05039 -0.02387 -0.01061
v -0.02386 -0.04244 -0.01592
v -0.02917 0.02652 -0.02122
v -0.02917 0.02652 -0.01326
v -0.05569 -0.01856 -0.02122
v 0.01325 0.00795 -0.00530
v 0.02122 -0.01060 -0.01061
v -0.03713 -0.00796 -0.02653
v -0.05569 0.02652 -0.01592
v 0.01855 -0.00796 -0.00530
v -0.03978 0.00530 -0.00530
v 0.02122 -0.00001 -0.00530
v -0.05569 -0.02122 -0.01326
v -0.04774 0.02122 -0.01061
v -0.04243 0.02387 -0.02387
f 135 113 144 
f 97 96 101 
f 98 97 101 
f 96 97 102 
f 97 98 102 
f 102 98 103 
f 100 99 104 
f 99 100 106 
f 96 104 107 
f 104 99 107 
f 96 102 109 
f 106 100 111 
f 101 96 112 
f 95 94 114 
f 93 111 116 
f 111 100 116 
f 102 103 118 
f 111 93 118 
f 111 118 119 
f 106 111 119 
f 118 103 119 
f 118 93 120 
f 102 118 120 
f 100 104 121 
f 115 100 121 
f 109 115 121 
f 98 101 122 
f 109 102 123 
f 100 115 123 
f 115 109 123 
f 116 100 123 
f 102 120 123 
f 120 116 123 
f 113 98 124 
f 105 113 124 
f 119 103 125 
f 106 119 125 
f 99 106 126 
f 117 99 126 
f 110 117 126 
f 96 107 127 
f 101 112 128 
f 104 96 129 
f 96 109 129 
f 121 104 129 
f 109 121 129 
f 103 98 130 
f 98 113 130 
f 125 103 130 
f 95 114 131 
f 117 105 131 
f 114 117 131 
f 93 116 132 
f 120 93 132 
f 116 120 132 
f 114 94 133 
f 96 127 133 
f 127 114 133 
f 94 95 134 
f 133 94 134 
f 96 133 134 
f 110 125 135 
f 130 113 135 
f 125 130 135 
f 110 105 136 
f 105 117 136 
f 117 110 136 
f 124 98 137 
f 95 101 138 
f 112 96 138 
f 101 128 138 
f 128 112 138 
f 134 95 138 
f 96 134 138 
f 125 110 139 
f 106 125 139 
f 126 106 139 
f 110 126 139 
f 98 122 140 
f 122 108 140 
f 108 137 140 
f 137 98 140 
f 108 95 141 
f 105 124 141 
f 95 131 141 
f 131 105 141 
f 137 108 141 
f 124 137 141 
f 107 99 142 
f 99 117 142 
f 117 114 142 
f 127 107 142 
f 114 127 142 
f 101 95 143 
f 95 108 143 
f 122 101 143 
f 108 122 143 
f 105 110 144 
f 113 105 144 
f 110 135 144 
