# Original object name hint: convex_13
v 0.06101 0.07692 0.03448
v -0.06366 0.07162 0.00796
v -0.06366 0.07957 0.00796
v 0.06631 0.08222 0.00796
v 0.00000 0.08488 0.04509
v 0.03182 0.06631 0.01061
v -0.05039 0.07162 0.03448
v -0.05836 0.08488 0.02917
v 0.06365 0.08488 0.00796
v 0.05304 0.07427 0.03713
v 0.06365 0.07162 0.00796
v -0.05570 0.08488 0.00796
v 0.05570 0.08488 0.03448
v -0.06100 0.06897 0.00796
v -0.06100 0.07427 0.03448
v 0.01060 0.07957 0.04509
v 0.03182 0.06897 0.02653
v 0.05570 0.07162 0.02917
v -0.05836 0.08222 0.03448
v 0.05570 0.08222 0.03713
v 0.02652 0.07162 0.03448
v 0.02121 0.06631 0.00796
v 0.06365 0.08222 0.02917
v 0.06365 0.07427 0.02917
v 0.02121 0.06631 0.01061
v -0.06100 0.07162 0.03183
v 0.00000 0.07957 0.04509
v 0.06631 0.07427 0.01592
v -0.06100 0.07957 0.03448
v -0.06100 0.06897 0.01061
v 0.00795 0.08488 0.04509
v 0.01326 0.06897 0.02653
v -0.06366 0.07427 0.01592
v -0.05570 0.08488 0.03183
v 0.06631 0.08222 0.01592
v -0.05836 0.08488 0.01327
v -0.06100 0.08222 0.03183
v 0.04243 0.07692 0.03978
v 0.06365 0.07162 0.01061
v 0.06101 0.08488 0.02388
v 0.06101 0.08222 0.03448
v 0.06631 0.07427 0.00796
v 0.04243 0.08222 0.03978
v 0.03713 0.08488 0.03978
v 0.02388 -0.08488 -0.03713
v 0.06895 -0.06367 -0.00796
v 0.06895 -0.07427 -0.00796
v 0.02122 -0.07162 0.00531
v 0.05570 -0.05571 -0.03448
v 0.06365 -0.07692 -0.03978
v 0.02122 -0.06897 -0.03978
v 0.05835 -0.07957 -0.00001
v 0.05570 -0.05571 -0.00266
v 0.02122 -0.07957 0.00265
v 0.02122 -0.06632 0.00265
v 0.04774 -0.08488 -0.02652
v 0.06630 -0.05571 -0.03183
v 0.05835 -0.07427 0.00531
v 0.05835 -0.07162 -0.04244
v 0.02122 -0.07957 -0.04244
v 0.06630 -0.05571 -0.00266
v 0.03979 -0.08488 -0.03978
v 0.06895 -0.07162 -0.03183
v 0.06365 -0.07957 -0.03448
v 0.03449 -0.08488 -0.02122
v 0.06630 -0.07692 -0.00001
v 0.05304 -0.05571 -0.02652
v 0.06365 -0.05836 -0.03713
v 0.02122 -0.07162 -0.04244
v 0.06365 -0.05836 -0.00001
v 0.06895 -0.05836 -0.02652
v 0.06365 -0.07957 -0.00531
v 0.04244 -0.08223 -0.04244
v 0.05835 -0.07692 0.00531
v 0.02122 -0.06632 -0.00796
v 0.02388 -0.08488 -0.02652
v 0.06630 -0.06367 -0.03713
v 0.05835 -0.08223 -0.02917
v 0.02122 -0.07692 0.00531
v 0.04509 -0.07957 0.00265
v 0.02122 -0.08223 -0.03978
v 0.06630 -0.07692 -0.03713
v 0.02388 -0.08223 -0.04244
v 0.04244 -0.08488 -0.02122
v 0.04774 -0.08488 -0.03448
v 0.04244 -0.07162 0.00531
v 0.06630 -0.06632 -0.00001
v 0.05835 -0.07957 -0.03978
v 0.05835 -0.07692 -0.04244
v 0.05304 -0.05571 -0.01857
v 0.06895 -0.05836 -0.01326
v 0.02122 -0.08223 -0.01592
v -0.04244 0.05305 0.00530
v -0.05835 0.07427 -0.04508
v -0.05835 0.07957 -0.04508
v 0.03979 0.07427 -0.04243
v 0.03979 0.08488 0.00796
v -0.05570 0.08488 0.00796
v -0.06896 0.05040 -0.03447
v 0.00529 0.05040 -0.00001
v 0.03979 0.08488 -0.03447
v 0.03979 0.06896 0.00796
v -0.06631 0.07161 0.00796
v -0.00002 0.05040 -0.02121
v -0.06896 0.07692 -0.03713
v -0.06896 0.05040 -0.01327
v -0.06101 0.05040 -0.03713
v -0.05835 0.08222 -0.03978
v 0.03979 0.06896 -0.02652
v -0.07161 0.07161 -0.01856
v -0.05040 0.05040 0.00265
v 0.03979 0.07957 -0.04243
v -0.06631 0.07957 0.00265
v -0.06631 0.06366 -0.04243
v 0.02918 0.06101 -0.00266
v 0.00264 0.05040 0.00265
v -0.07161 0.06366 -0.03713
v -0.06101 0.06632 0.00796
v -0.06631 0.05836 -0.00001
v 0.03446 0.06632 0.00796
v 0.00264 0.05040 -0.01856
v -0.03182 0.08488 -0.00796
v 0.03446 0.06366 0.00530
v -0.06631 0.07957 -0.03713
v -0.06896 0.06366 -0.00001
v -0.07161 0.05836 -0.02652
v -0.06366 0.05570 -0.03978
v 0.03979 0.08222 -0.03978
v 0.03979 0.07161 -0.03713
v -0.06631 0.07692 0.00796
v -0.06631 0.07427 -0.04243
v -0.02652 0.05305 0.00530
v -0.05835 0.06366 -0.04243
v -0.05040 0.07427 -0.04508
v -0.06896 0.07427 -0.00001
v -0.07161 0.07161 -0.03447
v -0.06101 0.08222 -0.03713
v -0.04773 0.07957 -0.04508
v -0.07161 0.06366 -0.01856
v -0.05304 0.08488 0.00265
v -0.06366 0.07957 -0.04243
v -0.06896 0.05305 -0.03713
v 0.03713 0.08488 -0.03447
v -0.06896 0.07692 -0.01327
v 0.03979 0.07427 -0.04244
v 0.07162 0.07692 -0.00531
v 0.07162 0.06631 -0.00531
v 0.03979 0.08488 0.00795
v 0.06366 0.08222 -0.03713
v 0.06100 0.05836 -0.01856
v 0.03979 0.06897 0.00530
v 0.06366 0.08488 0.00795
v 0.03979 0.08488 -0.03447
v 0.06896 0.06366 -0.02917
v 0.06631 0.07162 0.00795
v 0.06631 0.05836 -0.00531
v 0.03979 0.06897 -0.02387
v 0.06366 0.08488 -0.02652
v 0.07162 0.07692 -0.02121
v 0.06631 0.07162 -0.03713
v 0.05040 0.07957 -0.04244
v 0.06100 0.06366 -0.03182
v 0.06896 0.05836 -0.01856
v 0.06896 0.08222 -0.02121
v 0.03979 0.07162 0.00795
v 0.07162 0.06897 -0.02387
v 0.06631 0.07957 -0.03713
v 0.03979 0.07162 -0.03713
v 0.05835 0.08488 -0.03447
v 0.03979 0.08222 -0.03978
v 0.06631 0.08222 0.00795
v 0.06100 0.05836 -0.01061
v 0.06631 0.06631 -0.03447
v 0.06896 0.08222 -0.00531
v 0.06100 0.07427 -0.03978
v 0.06896 0.05836 -0.00797
v 0.05835 0.08222 -0.03978
v 0.06366 0.05836 -0.02121
v 0.06896 0.07957 0.00265
v -0.06101 -0.06896 0.00531
v -0.05835 -0.08223 -0.03713
v -0.06366 -0.07957 -0.03978
v -0.06366 -0.04244 -0.03183
v -0.04244 -0.06896 -0.04244
v -0.04244 -0.06631 0.00531
v -0.06896 -0.04244 -0.00796
v -0.04244 -0.08223 -0.00001
v -0.06896 -0.07692 -0.00796
v -0.07162 -0.06366 -0.03713
v -0.04244 -0.05836 -0.01062
v -0.04244 -0.08223 -0.03713
v -0.05835 -0.08223 -0.00001
v -0.06101 -0.04244 -0.00796
v -0.06631 -0.06631 -0.04244
v -0.06896 -0.04244 -0.03183
v -0.07162 -0.07427 -0.02387
v -0.05835 -0.07957 0.00531
v -0.06896 -0.07162 -0.00266
v -0.04244 -0.05836 -0.01857
v -0.04244 -0.07957 -0.04244
v -0.06366 -0.08223 -0.03183
v -0.06631 -0.07692 -0.04244
v -0.07162 -0.05836 -0.02122
v -0.04244 -0.07957 0.00531
v -0.04244 -0.06101 -0.00001
v -0.07162 -0.07427 -0.03183
v -0.05571 -0.06631 0.00531
v -0.06366 -0.08223 -0.01592
v -0.06101 -0.04244 -0.01857
v -0.06631 -0.07692 -0.00001
v -0.06631 -0.06101 -0.00001
v -0.05305 -0.06631 -0.04244
v -0.07162 -0.06101 -0.01857
v -0.05835 -0.07957 -0.04244
v -0.04510 -0.08223 0.00265
v -0.06366 -0.07957 -0.00001
v -0.07162 -0.07162 -0.01857
v -0.07162 -0.05836 -0.03448
v -0.06101 -0.01325 -0.04244
v -0.05571 0.00529 0.00531
v -0.05571 0.01325 0.00265
v -0.06897 0.01325 -0.00266
v -0.06101 0.05040 -0.03448
v -0.06897 -0.04244 -0.03183
v -0.06897 0.05040 -0.03448
v -0.06101 -0.04244 -0.00796
v -0.05571 -0.00529 -0.04244
v -0.06631 0.05040 -0.01326
v -0.06897 -0.04244 -0.00796
v -0.05836 0.05040 -0.01857
v -0.05571 -0.02387 0.00265
v -0.06631 0.01059 -0.04244
v -0.06631 -0.00529 0.00265
v -0.06366 -0.04244 -0.03183
v -0.05571 0.01059 -0.04244
v -0.05571 -0.02121 -0.02122
v -0.06897 -0.01325 -0.03978
v -0.06897 0.05040 -0.01592
v -0.06631 0.01590 -0.00001
v -0.05571 0.02651 -0.02387
v -0.05836 0.05040 -0.02917
v -0.06366 -0.01856 0.00265
v -0.06631 -0.01325 -0.04244
v -0.06101 -0.04244 -0.01857
v -0.06366 0.05040 -0.01326
v -0.05836 -0.00795 0.00531
v -0.06101 0.01325 0.00265
v -0.06897 0.01325 -0.03978
v -0.06631 0.00266 0.00265
v -0.06897 -0.01060 -0.00266
v -0.05571 0.02651 -0.01592
v -0.05836 -0.02387 0.00265
v -0.05836 0.00529 0.00531
v 0.05040 0.01591 0.00530
v 0.04509 -0.01857 -0.00266
v 0.02122 -0.01061 -0.01856
v 0.05040 0.00265 -0.04244
v 0.02122 0.01326 0.00265
v 0.02122 -0.00795 0.00530
v 0.02122 0.00265 -0.02917
v 0.05040 -0.01591 0.00530
v 0.05040 -0.00530 -0.04244
v 0.04774 0.01326 -0.01856
v 0.03978 -0.00530 -0.04244
v 0.03183 0.00795 0.00795
v 0.03713 0.00265 -0.04244
v 0.03183 0.01591 -0.00266
v 0.02122 0.00795 -0.02121
v 0.05040 -0.00795 0.00795
v 0.04243 -0.01857 0.00265
v 0.02387 -0.00265 -0.03182
v 0.05040 -0.01857 -0.00266
v 0.02122 -0.01061 -0.00001
v 0.05040 0.01060 0.00795
v 0.05040 0.01591 -0.00531
v 0.02387 0.01326 0.00530
v 0.03978 -0.00795 0.00795
v 0.02918 0.01591 0.00265
v 0.02918 -0.00001 0.00795
v 0.04243 -0.01591 0.00530
v 0.02122 -0.00795 -0.02387
v 0.02122 0.01326 -0.00266
v 0.02122 0.01060 0.00530
v 0.05040 0.01326 -0.01856
v 0.03713 0.01060 0.00795
v 0.05570 -0.01062 -0.04243
v 0.05570 0.00529 0.01061
v 0.05305 0.00529 0.01061
v 0.05570 -0.05570 -0.00266
v 0.06631 0.02386 -0.02917
v 0.06631 -0.05570 -0.00531
v 0.06631 -0.05570 -0.03182
v 0.05040 0.00264 -0.04243
v 0.05305 -0.05570 -0.02917
v 0.05040 0.01590 0.00530
v 0.06366 0.02121 -0.00001
v 0.05835 0.02918 -0.02652
v 0.06366 0.01060 -0.04243
v 0.05040 -0.02121 0.00265
v 0.06631 0.02386 -0.01062
v 0.05570 -0.05570 -0.03448
v 0.05835 -0.00001 0.01061
v 0.06366 0.02918 -0.01062
v 0.05040 -0.00797 -0.04243
v 0.06100 0.02651 -0.03448
v 0.05040 0.01325 -0.02387
v 0.06366 -0.03978 -0.03713
v 0.05040 -0.00001 0.01061
v 0.05305 -0.05570 -0.01062
v 0.06366 0.01325 0.00265
v 0.06366 -0.05570 -0.00266
v 0.06631 0.01590 -0.03448
v 0.05835 0.02651 -0.00531
v 0.06366 -0.00267 -0.04243
v 0.05570 0.01590 -0.03978
v 0.06366 0.02918 -0.02917
v 0.05305 0.01590 -0.03448
v 0.06631 0.02121 -0.00796
v 0.06366 -0.05570 -0.03448
v 0.06366 0.02651 -0.03448
v 0.05835 0.02918 -0.01591
v 0.06366 -0.00267 0.00265
v 0.05040 0.01590 -0.00796
v 0.05040 -0.02121 -0.00531
v 0.06100 -0.01062 -0.04243
v 0.05835 0.01590 0.00530
v 0.05835 -0.04243 -0.03713
v 0.05305 -0.05304 -0.03182
v 0.05305 -0.05039 -0.00531
v 0.05570 0.01060 -0.04243
v 0.00265 -0.06366 -0.00001
v -0.01326 -0.07692 -0.04509
v -0.04244 -0.07958 -0.04244
v 0.02122 -0.07958 0.00265
v -0.04244 -0.07958 0.00531
v -0.04244 -0.06366 -0.02122
v 0.01856 -0.06897 -0.04244
v 0.02122 -0.08223 -0.03978
v -0.03182 -0.06366 0.00531
v -0.04244 -0.06897 -0.04244
v 0.02122 -0.06632 0.00265
v -0.04244 -0.08223 -0.00001
v 0.00795 -0.06632 -0.04244
v -0.04244 -0.08223 -0.03713
v 0.02122 -0.07692 0.00531
v -0.04244 -0.06366 0.00265
v 0.02122 -0.08223 -0.01592
v 0.00529 -0.06366 -0.02122
v 0.01060 -0.06897 -0.04509
v 0.02122 -0.06897 -0.03978
v 0.01325 -0.07692 -0.04509
v -0.02387 -0.06366 -0.02652
v -0.01061 -0.06366 0.00531
v -0.00796 -0.06632 -0.04244
v 0.01856 -0.06632 -0.02387
v -0.01326 -0.06897 -0.04509
v 0.02122 -0.07162 0.00531
v -0.04244 -0.06632 0.00531
v -0.00001 -0.06366 -0.02652
v 0.02122 -0.07958 -0.04244
v -0.02122 -0.06632 -0.03978
v -0.03713 -0.08223 -0.00001
v 0.02122 -0.06632 -0.01061
v -0.00266 -0.06366 -0.02387
v 0.00795 -0.04244 -0.01326
v 0.01060 -0.04510 -0.01326
v -0.04244 -0.06366 -0.01061
v -0.02122 -0.04244 -0.02122
v -0.00266 -0.06366 -0.01061
v -0.04244 -0.06366 -0.02122
v 0.01060 -0.04775 -0.02122
v -0.02122 -0.04244 -0.01326
v 0.01060 -0.05836 -0.01592
v -0.04244 -0.05836 -0.01061
v -0.01327 -0.05040 -0.02387
v 0.00530 -0.04244 -0.02122
v -0.02917 -0.06101 -0.02387
v 0.00530 -0.05836 -0.02387
v -0.04244 -0.05836 -0.01857
v -0.00531 -0.05836 -0.01061
v 0.00530 -0.05040 -0.02387
v 0.01060 -0.05570 -0.01326
v -0.04244 -0.06101 -0.02122
v -0.00001 -0.06366 -0.02122
v 0.01060 -0.05570 -0.02122
v -0.02917 -0.04775 -0.01592
v -0.02917 -0.06366 -0.02387
v -0.04244 -0.06366 -0.00530
v -0.00531 -0.04244 0.00265
v -0.00265 -0.04775 0.00265
v -0.02918 -0.06366 0.00531
v -0.00797 -0.06366 -0.00530
v -0.03183 -0.04244 -0.00265
v -0.03448 -0.04244 0.00265
v -0.00797 -0.04244 -0.00265
v -0.00797 -0.06366 0.00265
v -0.04244 -0.06366 0.00265
v -0.02652 -0.05570 -0.00530
v -0.01592 -0.06101 0.00531
v -0.00265 -0.05570 0.00000
v -0.04244 -0.06101 -0.00530
v -0.02387 -0.05836 0.00531
v -0.00265 -0.04775 0.00000
v -0.00265 -0.05570 0.00265
v -0.00531 -0.06366 0.00000
v -0.04244 -0.06101 0.00265
v -0.01592 -0.05570 -0.00530
v -0.05039 -0.03714 0.00000
v -0.01592 0.02652 0.00265
v -0.02917 0.02122 0.00531
v 0.02122 -0.00796 0.00531
v 0.02122 0.00795 -0.00530
v -0.05569 0.01325 -0.00530
v -0.00797 -0.04244 -0.00265
v -0.05569 -0.01325 0.00531
v -0.00797 -0.04244 0.00265
v -0.04508 -0.01856 -0.00530
v -0.05039 0.02652 -0.00265
v 0.02122 0.01060 0.00531
v 0.02122 -0.00796 -0.00530
v -0.05039 0.02652 0.00265
v -0.01856 0.02652 -0.00265
v -0.03447 -0.04244 0.00265
v -0.05569 -0.02387 -0.00265
v -0.03447 -0.04244 -0.00265
v 0.02122 0.01325 -0.00265
v -0.01327 -0.02122 0.00531
v -0.05569 0.00795 0.00531
v 0.00795 -0.02917 0.00265
v -0.04243 0.01856 -0.00530
v -0.05039 -0.03714 0.00265
v -0.05569 -0.01060 -0.00530
v -0.05039 -0.01856 0.00531
v -0.05569 0.01856 0.00000
v 0.01855 0.01060 -0.00530
v 0.02122 0.01325 0.00265
v -0.04774 -0.03448 -0.00265
v -0.05569 -0.02652 0.00265
v 0.00795 -0.02917 0.00000
v 0.00264 -0.01325 -0.00530
v -0.03978 0.02122 0.00531
v 0.00265 0.05039 -0.01326
v -0.01326 0.02652 -0.01857
v -0.01326 0.02652 -0.01592
v -0.01061 0.05039 -0.01326
v -0.00796 0.05039 -0.02122
v 0.00265 0.03978 -0.01857
v -0.00000 0.05039 -0.02122
v -0.00796 0.02652 -0.01592
v -0.00000 0.04244 -0.01326
v -0.01326 0.03714 -0.01857
v -0.00796 0.02652 -0.01857
v -0.00000 0.04509 -0.02122
v 0.00265 0.03978 -0.01592
v -0.01061 0.05039 -0.01857
v -0.05039 0.02652 -0.00000
v 0.00530 0.05039 -0.00000
v 0.00530 0.05039 -0.00530
v -0.05039 0.05039 -0.00000
v -0.01327 0.02652 0.00265
v 0.00264 0.03183 -0.00530
v -0.05039 0.05039 0.00265
v -0.04774 0.02652 -0.00265
v -0.04774 0.05039 -0.00265
v -0.00001 0.05039 0.00265
v 0.00530 0.03448 -0.00000
v -0.05039 0.02652 0.00265
v -0.00797 0.05039 -0.00530
v -0.01858 0.02652 -0.00265
v 0.00264 0.02918 -0.00000
v 0.00264 0.02918 -0.00265
v 0.00529 -0.00796 -0.02653
v -0.05039 0.01326 -0.03448
v -0.05039 0.01326 -0.03979
v -0.05569 -0.00531 -0.03979
v 0.00795 0.00265 -0.03713
v 0.00795 0.00795 -0.02653
v -0.04243 0.00000 -0.02653
v -0.05569 0.00795 -0.02918
v 0.01590 -0.00531 -0.03183
v -0.05039 -0.00265 -0.04244
v -0.05569 0.01061 -0.04244
v -0.03713 -0.00531 -0.02653
v -0.03713 0.01061 -0.02653
v 0.02122 0.00265 -0.02653
v -0.00531 0.01061 -0.02918
v 0.00795 -0.00265 -0.03713
v -0.05569 -0.00531 -0.03448
v 0.00264 0.00530 -0.03713
v -0.05569 0.01326 -0.03183
v -0.02121 -0.00796 -0.02653
v -0.03978 -0.00531 -0.03979
v 0.01590 0.00265 -0.03448
v 0.00529 -0.00796 -0.02918
v -0.01592 0.00265 -0.03979
v 0.01855 0.00530 -0.02918
v -0.05569 0.00265 -0.02918
v 0.01855 -0.00531 -0.02653
v -0.00531 0.01061 -0.02653
v 0.00795 -0.00531 -0.03448
v 0.02122 -0.00265 -0.02918
v -0.05304 0.01061 -0.04244
v -0.00266 0.00795 -0.03448
v 0.01590 -0.00265 -0.03448
v -0.02121 -0.00796 -0.02918
v -0.05569 -0.00265 -0.04244
v -0.05569 -0.02122 -0.01857
v -0.01062 0.02652 -0.01592
v 0.00529 0.01060 -0.00530
v 0.02122 -0.00532 -0.02653
v 0.00529 -0.04244 -0.01326
v -0.05569 0.02387 -0.02387
v -0.05569 0.01325 -0.00796
v -0.02121 -0.04244 -0.02122
v -0.04774 -0.01590 -0.00796
v -0.05569 -0.00532 -0.02653
v 0.02122 -0.00532 -0.00530
v 0.02122 0.00530 -0.02653
v -0.04774 0.02652 -0.01326
v -0.02121 -0.04244 -0.01326
v 0.02122 0.00795 -0.01061
v 0.00264 -0.04244 -0.02122
v -0.03978 -0.00001 -0.00530
v -0.01327 0.01591 -0.02653
v -0.05569 -0.01856 -0.01061
v -0.01062 0.02652 -0.01857
v -0.00001 -0.00796 -0.00530
v -0.05569 0.01591 -0.02653
v 0.02122 -0.01060 -0.01857
v -0.05569 0.02652 -0.02122
v 0.01060 -0.00796 -0.02653
v -0.02121 0.01060 -0.00530
v 0.02122 0.00795 -0.02122
v 0.00529 -0.04244 -0.01857
v -0.05569 -0.00796 -0.00796
v -0.05039 -0.02387 -0.01061
v -0.02386 -0.04244 -0.01592
v -0.02917 0.02652 -0.02122
v -0.02917 0.02652 -0.01326
v -0.05569 -0.01856 -0.02122
v 0.01325 0.00795 -0.00530
v 0.02122 -0.01060 -0.01061
v -0.03713 -0.00796 -0.02653
v -0.05569 0.02652 -0.01592
v 0.01855 -0.00796 -0.00530
v -0.03978 0.00530 -0.00530
v 0.02122 -0.00001 -0.00530
v -0.05569 -0.02122 -0.01326
v -0.04774 0.02122 -0.01061
v -0.04243 0.02387 -0.02387
f 466 470 471 
f 457 458 459 
f 457 459 462 
f 459 456 462 
f 456 459 463 
f 460 456 463 
f 459 458 464 
f 463 459 464 
f 457 462 465 
f 462 460 465 
f 458 457 466 
f 461 458 466 
f 457 465 466 
f 456 460 467 
f 462 456 467 
f 460 462 467 
f 458 461 468 
f 461 463 468 
f 463 464 468 
f 464 458 468 
f 460 463 469 
f 463 461 469 
f 465 460 470 
f 466 465 470 
f 461 466 471 
f 460 469 471 
f 469 461 471 
f 470 460 471 
