# Created by Open3D 
# object name: convex_1_coll
# number of vertices: 14
# number of triangles: 24
v 0.060715 -0.03436 -0.008025
v 0.06873 -0.03092 0.01489
v 0.07331 0.04696 0.01489
v 0.05499 0.01716 0.01489
v 0.05728 -0.02634 0.01489
v 0.07331 0.00115 0.01489
v 0.07331 0.02519 -0.01718
v 0.05499 -0.025205 -0.001155
v 0.06873 0.015465 -0.0326475
v 0.05728 0.02863 -0.02864
v 0.069875 -0.021765 -0.021765
v 0.06873 0.05383 -0.02177
v 0.065295 0.05727 0.00916
v 0.06186 -0.0263475 -0.0280675
f 3 4 2
f 2 4 5
f 6 7 3
f 5 4 8
f 14 11 2
f 11 14 9
f 9 14 10
f 14 8 10
f 3 2 6
f 10 12 9
f 12 10 13
f 4 13 10
f 13 3 12
f 4 3 13
f 11 7 6
f 14 2 1
f 1 5 8
f 14 1 8
f 12 7 9
f 11 9 7
f 3 7 12
f 6 2 11
f 10 8 4
f 5 1 2
