# Created by Open3D 
# object name: convex_0_coll
# number of vertices: 14
# number of triangles: 24
v -0.01603 -0.04697 0.01717
v -0.053835 -0.04926 -0.0337925
v 0.02748 -0.063 0.013735
v -0.03665 -0.063 0.01259
v -0.027485 -0.063 -0.034365
v 0.0269075 -0.06071 -0.0317888
v -0.02176 -0.06071 0.01717
v -0.049245 -0.05155 0.016025
v 0.03207 -0.05842 0.01259
v 0.00457 -0.05155 -0.03322
v -0.0481 -0.05842 0.01488
v -0.05269 -0.0555575 -0.032075
v 0.00687 -0.057275 -0.03781
v -0.04581 -0.05842 -0.03781
f 3 4 5
f 3 5 6
f 7 1 8
f 9 6 10
f 2 1 10
f 4 3 7
f 8 11 7
f 6 5 14
f 1 7 9
f 7 3 9
f 2 10 13
f 14 2 13
f 13 10 6
f 8 12 11
f 3 6 9
f 4 7 11
f 6 14 13
f 12 5 4
f 11 12 4
f 12 8 2
f 8 1 2
f 14 12 2
f 1 9 10
f 5 12 14
