# Created by Open3D 
# object name: convex_2_coll
# number of vertices: 14
# number of triangles: 24
v 0.072165 0.01488 0.03551
v 0.06873 -0.02864 0.01489
v 0.07331 0.00115 0.01489
v 0.04354 0.01489 0.01489
v 0.06644 0.04695 0.01489
v 0.03895 0.00345 0.02176
v 0.03895 0.02863 0.01718
v 0.03895 0.017175 0.0378
v 0.07331 0.04237 0.01489
v 0.058415 -0.02749 0.016035
v 0.0658625 0.027485 0.036655
v 0.065295 0.011445 0.04009
v 0.06873 -0.02404 0.02176
v 0.05956 -0.02061 0.02405
f 1 2 3
f 2 4 5
f 4 6 7
f 6 8 7
f 2 5 3
f 3 9 1
f 6 4 10
f 4 2 10
f 8 5 7
f 3 5 9
f 12 13 1
f 1 13 2
f 4 7 5
f 12 14 13
f 14 10 13
f 14 12 8
f 12 11 8
f 9 5 11
f 1 9 11
f 12 1 11
f 5 8 11
f 14 8 10
f 8 6 10
f 13 10 2
