# Created by Open3D 
# object name: convex_4_coll
# number of vertices: 14
# number of triangles: 24
v 0.030925 -0.018315 0.01947
v -0.05957 0.02404 0.02176
v -0.05957 -0.02633 0.0126
v -0.05957 -0.01488 0.02176
v 0.03895 0.02862 0.01718
v 0.03895 0.027475 0.025195
v 0.03895 0.00802 0.02863
v -0.04352 0.063 0.01718
v 0.00228 0.05153 0.01031
v -0.01661 -0.0383625 0.01031
v -0.01603 -0.04695 0.01718
v 0.011445 0.01717 0.03322
v -0.05957 0.02176 0.0126
v 0.02978 -0.02175 0.0126
f 2 3 4
f 5 6 7
f 4 11 12
f 1 7 11
f 10 3 13
f 3 2 13
f 9 10 13
f 6 8 12
f 14 10 9
f 2 4 12
f 10 14 11
f 5 9 6
f 11 14 1
f 14 9 5
f 8 6 9
f 11 7 12
f 11 4 3
f 8 9 13
f 8 13 2
f 8 2 12
f 7 6 12
f 11 3 10
f 14 5 7
f 1 14 7
