# Created by Open3D 
# object name: convex_3_coll
# number of vertices: 14
# number of triangles: 24
v -0.05957 -0.02635 0.01717
v -0.07102 -0.02634 0.008005
v -0.05957 0.026335 0.0188925
v -0.07331 -0.02405 -0.02634
v -0.072165 0.0423725 0.0143075
v -0.072165 0.02062 -0.0378
v -0.07331 -0.01488 0.01717
v -0.072165 0.060705 -0.025195
v -0.06873 -0.00802 0.02176
v -0.0658675 0.01489 -0.0395175
v -0.06644 0.063 -0.02634
v -0.06186 -0.01946 -0.02978
v -0.06644 0.0463875 0.0143075
v -0.06873 -0.03322 -0.02864
f 4 5 6
f 5 4 7
f 6 5 8
f 9 3 5
f 10 11 12
f 3 9 1
f 5 3 13
f 12 11 3
f 7 4 2
f 8 13 11
f 10 12 14
f 6 10 14
f 3 11 13
f 7 9 5
f 12 3 1
f 7 2 9
f 6 8 11
f 14 2 4
f 13 8 5
f 4 6 14
f 9 2 1
f 6 11 10
f 14 12 1
f 14 1 2
