# Original object name hint: convex_0
v 0.05633 -0.00730 -0.03964
v 0.06050 0.01563 0.03337
v 0.06258 0.01773 0.03129
v 0.06050 -0.04485 0.00416
v 0.04590 0.00937 0.03129
v 0.06258 0.04276 -0.01877
v 0.04798 0.00313 -0.03128
v 0.05007 -0.04068 -0.01460
v 0.06676 0.01147 -0.01460
v 0.05633 0.04486 -0.02920
v 0.05841 -0.03651 -0.03546
v 0.05841 0.04486 0.00208
v 0.06676 0.00103 0.02711
v 0.06258 0.01563 -0.03755
v 0.04590 -0.00104 0.03129
v 0.06676 0.03441 -0.00001
v 0.06258 -0.04068 -0.00834
v 0.05007 0.02398 -0.03337
v 0.05216 -0.03651 0.01251
v 0.06050 -0.00521 0.03129
v 0.05216 -0.03859 -0.03337
v 0.04590 0.01563 0.01668
v 0.04590 -0.00937 0.01043
v 0.06258 -0.00312 -0.03755
v 0.05007 -0.04068 0.00416
v 0.06258 -0.03651 0.01251
v 0.05841 -0.04694 -0.01042
v 0.05424 0.01356 -0.03964
v 0.06258 0.02816 -0.03546
v 0.06258 0.04486 0.00208
v 0.06676 0.01563 0.02711
v 0.05007 0.00313 -0.03755
v 0.05424 -0.04694 0.00208
v 0.04798 0.01563 -0.03128
v 0.06676 0.03024 -0.01251
v 0.06676 -0.00312 0.01251
v 0.05633 0.01981 0.02920
v 0.06467 -0.00104 0.03129
v 0.05633 -0.03233 0.01668
v 0.06050 -0.03442 -0.03128
v 0.05841 -0.04276 -0.02920
v 0.05216 -0.04485 -0.01460
v 0.05216 -0.03442 -0.03546
v 0.05633 0.00103 0.03337
v 0.06050 -0.00312 -0.03964
v 0.05841 -0.04694 0.00416
v 0.05841 0.04486 -0.02920
v 0.06258 -0.04068 0.00625
v 0.05633 0.03024 -0.03546
v 0.06467 0.01981 0.02920
v 0.04590 0.01563 0.01251
v 0.06050 0.01356 -0.03964
v 0.06467 0.04068 0.00208
v 0.06050 -0.03233 0.01668
v 0.06467 0.02190 -0.02711
v 0.06676 0.00521 -0.00834
v 0.06258 0.04486 -0.01460
v 0.05424 -0.04276 -0.02920
v 0.05633 -0.00521 0.03129
v 0.05007 -0.03651 0.01043
v 0.06258 0.01356 0.03337
v 0.05424 -0.00521 -0.03964
v 0.05007 0.01981 -0.03546
v 0.05424 -0.04485 0.00625
v 0.01459 0.00104 0.02086
v -0.06676 -0.00728 0.00835
v -0.06467 -0.01981 0.00835
v 0.01669 0.01356 0.00418
v -0.02088 0.05111 0.00835
v -0.02296 -0.04901 0.00418
v -0.01879 0.03649 0.00209
v 0.01669 -0.03233 0.00418
v -0.06467 0.00728 0.01252
v -0.03546 -0.04694 0.01043
v -0.00836 0.00728 0.02086
v -0.06258 -0.02399 0.01252
v -0.00627 0.05111 0.00835
v 0.01669 -0.03233 0.01043
v -0.06049 -0.03442 0.00626
v -0.00002 -0.00728 0.02086
v 0.01669 0.01356 0.01877
v 0.00207 0.01773 0.02086
v -0.05841 0.01564 0.00835
v -0.00418 0.03860 0.00209
v -0.05423 0.01981 0.01252
v -0.04589 -0.02816 0.00418
v 0.01669 0.02191 0.00835
v -0.00627 0.05111 0.00418
v 0.01459 -0.02399 0.01460
v -0.02920 -0.05111 0.00835
v -0.06049 -0.01564 0.00626
v -0.02088 0.05111 0.00626
v -0.03546 -0.04694 0.00418
v -0.06676 0.00311 0.00835
v -0.06676 -0.00728 0.01252
v -0.00418 0.02815 0.00209
v 0.00833 -0.00728 0.02086
v -0.01253 -0.01564 0.01877
v -0.00836 -0.00104 0.02086
v -0.03546 -0.05111 0.00835
v 0.01669 0.02191 0.01252
v -0.02920 -0.04694 0.01043
v 0.01669 -0.00939 0.01877
v 0.00625 0.01773 0.02086
v -0.06049 -0.03442 0.00835
v -0.06049 -0.02608 0.01252
v 0.01251 0.02191 0.01669
v -0.03546 -0.05111 0.00626
v -0.00627 0.01147 0.02086
v -0.06676 0.00311 0.01252
v -0.06467 -0.01981 0.01252
v -0.00210 0.03442 0.00209
v -0.01879 0.03232 0.00209
v 0.01669 0.01981 0.00626
v -0.04589 -0.02190 0.00418
v 0.01041 0.01981 0.01877
v -0.01670 0.03860 0.00209
v -0.05841 0.01564 0.01252
v -0.03129 -0.04901 0.00418
v 0.01669 -0.02816 0.01252
v -0.02296 -0.04901 0.00835
v 0.01669 0.01773 0.01669
v 0.01041 0.01356 0.02086
v 0.01251 -0.00521 0.02086
v -0.00836 0.05111 0.00418
v 0.03338 -0.00313 0.02504
v 0.03546 0.01565 0.02921
v 0.03546 0.01565 0.02504
v 0.04590 -0.00313 0.02712
v 0.02503 -0.00104 0.03338
v 0.04590 0.00730 0.03129
v 0.04590 0.00939 0.02086
v 0.02503 0.01565 0.03338
v 0.03129 0.01147 0.02295
v 0.03755 -0.00313 0.02086
v 0.02503 -0.00104 0.02712
v 0.04590 -0.00104 0.03129
v 0.04590 -0.00313 0.02086
v 0.02503 0.01565 0.02921
v 0.03546 0.00939 0.02086
v 0.02921 0.01356 0.03338
v 0.03129 -0.00104 0.02295
v 0.04590 0.00939 0.02921
v 0.03338 0.01565 0.03129
v 0.03338 0.01356 0.02295
v 0.02503 0.00730 0.02712
v 0.02712 -0.00104 0.03338
v 0.02712 -0.03233 0.00626
v 0.02294 -0.00939 0.01669
v 0.01669 -0.00939 0.01669
v 0.01669 -0.00939 0.00417
v 0.01669 -0.03233 0.01043
v 0.02712 -0.00939 0.00835
v 0.02086 -0.03233 0.00000
v 0.02503 -0.02816 0.00000
v 0.02503 -0.02816 0.01252
v 0.02712 -0.01148 0.01460
v 0.01669 -0.03233 0.00209
v 0.01669 -0.02190 0.01460
v 0.02086 -0.00939 0.00417
v 0.02712 -0.03025 0.01043
v 0.01878 -0.01356 0.01669
v 0.02712 -0.02608 0.00417
v 0.02503 -0.03233 0.00000
v 0.02086 -0.02816 0.00000
v 0.02294 -0.03233 0.01043
v 0.02503 -0.00939 0.00626
v 0.01669 -0.02399 0.00209
v 0.02294 -0.01148 0.01669
v 0.02712 -0.00939 0.01460
v 0.04172 0.01565 0.01877
v 0.01669 -0.00939 0.00417
v 0.02086 -0.00939 0.00417
v 0.01669 0.01773 0.00626
v 0.01669 -0.00730 0.01877
v 0.04589 -0.00730 0.00835
v 0.04589 -0.00312 0.02086
v 0.04589 0.01565 0.01043
v 0.01669 0.01773 0.01669
v 0.03546 0.01147 0.02086
v 0.02086 0.00730 0.00417
v 0.02712 -0.00939 0.01669
v 0.01878 0.01982 0.01460
v 0.04589 0.01147 0.02086
v 0.04381 0.01147 0.00835
v 0.01669 0.00938 0.01877
v 0.03129 -0.00104 0.02086
v 0.01878 0.01982 0.00835
v 0.04589 -0.00521 0.01877
v 0.02086 0.01773 0.00626
v 0.01669 -0.00939 0.01669
v 0.04589 0.01565 0.01669
v 0.04589 0.00730 0.00835
v 0.01669 0.00938 0.00417
v 0.04589 -0.00730 0.01252
v 0.02921 -0.00939 0.01043
v 0.01669 0.01982 0.01460
v 0.04172 0.01356 0.00835
v 0.02921 -0.00730 0.01877
v 0.03129 0.00522 0.02086
v 0.03337 -0.00312 0.02086
v -0.00209 -0.00104 0.03964
v -0.02712 -0.00313 0.03547
v -0.02503 -0.00938 0.03547
v -0.00209 0.01564 0.02921
v -0.02295 0.00730 0.03964
v -0.00209 -0.00104 0.02921
v -0.00209 0.01773 0.03547
v -0.02086 -0.01147 0.03755
v -0.00835 0.01356 0.02921
v -0.02503 -0.00521 0.03964
v -0.00209 -0.00521 0.03130
v -0.00835 0.01773 0.03130
v -0.02712 0.00313 0.03547
v -0.00209 0.00521 0.03964
v -0.00209 -0.00521 0.03755
v -0.00835 0.00521 0.02921
v -0.00835 0.01773 0.03547
v -0.02712 0.00313 0.03964
v -0.01669 -0.00730 0.03964
v -0.02295 -0.01147 0.03547
v -0.00209 0.01356 0.03755
v -0.00418 -0.00104 0.02921
v -0.02503 -0.00938 0.03755
v -0.02295 0.00730 0.03547
v -0.02712 -0.00104 0.03964
v -0.00209 0.01773 0.03130
v 0.01669 -0.00730 0.02921
v 0.01669 0.01773 0.03338
v 0.02295 0.01565 0.03547
v -0.00209 -0.00521 0.03755
v -0.00000 0.00938 0.02086
v -0.00209 0.01773 0.03547
v 0.02503 0.01147 0.02712
v -0.00000 -0.00313 0.02086
v 0.02503 0.00105 0.03547
v 0.02503 -0.00104 0.02712
v 0.00626 0.01147 0.02086
v -0.00209 0.01773 0.02921
v 0.00835 -0.00313 0.02086
v 0.01043 0.00938 0.03755
v 0.02295 -0.00730 0.03129
v 0.02503 0.01565 0.02921
v -0.00209 0.01356 0.03755
v -0.00209 -0.00521 0.03129
v 0.01043 0.00522 0.02086
v 0.01460 0.01773 0.02921
v 0.02295 -0.00730 0.02921
v 0.01877 -0.00313 0.03547
v 0.01043 0.00105 0.03755
v 0.02503 0.01356 0.03547
v -0.00209 0.00313 0.02712
v 0.02503 -0.00313 0.03338
v 0.00208 0.01147 0.02086
v -0.00000 -0.00521 0.03755
v 0.02295 -0.00521 0.03338
v 0.01043 0.00105 0.02086
f 60 25 64 
f 13 9 16 
f 8 7 21 
f 5 12 22 
f 12 10 22 
f 15 5 22 
f 7 8 23 
f 15 22 23 
f 23 8 25 
f 15 23 25 
f 17 4 27 
f 10 12 30 
f 13 16 31 
f 7 23 34 
f 32 7 34 
f 16 9 35 
f 29 6 35 
f 9 13 36 
f 2 3 37 
f 5 2 37 
f 12 5 37 
f 30 12 37 
f 26 13 38 
f 13 31 38 
f 15 19 39 
f 9 17 40 
f 11 24 40 
f 24 9 40 
f 21 11 41 
f 17 27 41 
f 11 40 41 
f 40 17 41 
f 8 21 42 
f 25 8 42 
f 33 25 42 
f 27 33 42 
f 1 11 43 
f 21 7 43 
f 11 21 43 
f 7 32 43 
f 2 5 44 
f 5 15 44 
f 20 38 44 
f 11 1 45 
f 24 11 45 
f 14 24 45 
f 1 28 45 
f 4 26 46 
f 27 4 46 
f 33 27 46 
f 6 29 47 
f 10 30 47 
f 4 17 48 
f 26 4 48 
f 13 26 48 
f 36 13 48 
f 17 36 48 
f 47 29 49 
f 10 47 49 
f 37 3 50 
f 30 37 50 
f 10 18 51 
f 22 10 51 
f 23 22 51 
f 18 34 51 
f 34 23 51 
f 29 14 52 
f 14 45 52 
f 45 28 52 
f 28 49 52 
f 49 29 52 
f 31 16 53 
f 30 50 53 
f 50 31 53 
f 38 20 54 
f 26 38 54 
f 20 39 54 
f 46 26 54 
f 9 24 55 
f 24 14 55 
f 14 29 55 
f 35 9 55 
f 29 35 55 
f 17 9 56 
f 9 36 56 
f 36 17 56 
f 35 6 57 
f 16 35 57 
f 6 47 57 
f 47 30 57 
f 53 16 57 
f 30 53 57 
f 21 41 58 
f 41 27 58 
f 42 21 58 
f 27 42 58 
f 15 39 59 
f 39 20 59 
f 44 15 59 
f 20 44 59 
f 19 15 60 
f 15 25 60 
f 3 2 61 
f 38 31 61 
f 2 44 61 
f 44 38 61 
f 50 3 61 
f 31 50 61 
f 28 1 62 
f 32 28 62 
f 1 43 62 
f 43 32 62 
f 18 10 63 
f 28 32 63 
f 34 18 63 
f 32 34 63 
f 10 49 63 
f 49 28 63 
f 25 33 64 
f 39 19 64 
f 33 46 64 
f 54 39 64 
f 46 54 64 
f 19 60 64 
