# Original object name hint: convex_4
v 0.05633 -0.00730 -0.03964
v 0.06050 0.01563 0.03337
v 0.06258 0.01773 0.03129
v 0.06050 -0.04485 0.00416
v 0.04590 0.00937 0.03129
v 0.06258 0.04276 -0.01877
v 0.04798 0.00313 -0.03128
v 0.05007 -0.04068 -0.01460
v 0.06676 0.01147 -0.01460
v 0.05633 0.04486 -0.02920
v 0.05841 -0.03651 -0.03546
v 0.05841 0.04486 0.00208
v 0.06676 0.00103 0.02711
v 0.06258 0.01563 -0.03755
v 0.04590 -0.00104 0.03129
v 0.06676 0.03441 -0.00001
v 0.06258 -0.04068 -0.00834
v 0.05007 0.02398 -0.03337
v 0.05216 -0.03651 0.01251
v 0.06050 -0.00521 0.03129
v 0.05216 -0.03859 -0.03337
v 0.04590 0.01563 0.01668
v 0.04590 -0.00937 0.01043
v 0.06258 -0.00312 -0.03755
v 0.05007 -0.04068 0.00416
v 0.06258 -0.03651 0.01251
v 0.05841 -0.04694 -0.01042
v 0.05424 0.01356 -0.03964
v 0.06258 0.02816 -0.03546
v 0.06258 0.04486 0.00208
v 0.06676 0.01563 0.02711
v 0.05007 0.00313 -0.03755
v 0.05424 -0.04694 0.00208
v 0.04798 0.01563 -0.03128
v 0.06676 0.03024 -0.01251
v 0.06676 -0.00312 0.01251
v 0.05633 0.01981 0.02920
v 0.06467 -0.00104 0.03129
v 0.05633 -0.03233 0.01668
v 0.06050 -0.03442 -0.03128
v 0.05841 -0.04276 -0.02920
v 0.05216 -0.04485 -0.01460
v 0.05216 -0.03442 -0.03546
v 0.05633 0.00103 0.03337
v 0.06050 -0.00312 -0.03964
v 0.05841 -0.04694 0.00416
v 0.05841 0.04486 -0.02920
v 0.06258 -0.04068 0.00625
v 0.05633 0.03024 -0.03546
v 0.06467 0.01981 0.02920
v 0.04590 0.01563 0.01251
v 0.06050 0.01356 -0.03964
v 0.06467 0.04068 0.00208
v 0.06050 -0.03233 0.01668
v 0.06467 0.02190 -0.02711
v 0.06676 0.00521 -0.00834
v 0.06258 0.04486 -0.01460
v 0.05424 -0.04276 -0.02920
v 0.05633 -0.00521 0.03129
v 0.05007 -0.03651 0.01043
v 0.06258 0.01356 0.03337
v 0.05424 -0.00521 -0.03964
v 0.05007 0.01981 -0.03546
v 0.05424 -0.04485 0.00625
v 0.01459 0.00104 0.02086
v -0.06676 -0.00728 0.00835
v -0.06467 -0.01981 0.00835
v 0.01669 0.01356 0.00418
v -0.02088 0.05111 0.00835
v -0.02296 -0.04901 0.00418
v -0.01879 0.03649 0.00209
v 0.01669 -0.03233 0.00418
v -0.06467 0.00728 0.01252
v -0.03546 -0.04694 0.01043
v -0.00836 0.00728 0.02086
v -0.06258 -0.02399 0.01252
v -0.00627 0.05111 0.00835
v 0.01669 -0.03233 0.01043
v -0.06049 -0.03442 0.00626
v -0.00002 -0.00728 0.02086
v 0.01669 0.01356 0.01877
v 0.00207 0.01773 0.02086
v -0.05841 0.01564 0.00835
v -0.00418 0.03860 0.00209
v -0.05423 0.01981 0.01252
v -0.04589 -0.02816 0.00418
v 0.01669 0.02191 0.00835
v -0.00627 0.05111 0.00418
v 0.01459 -0.02399 0.01460
v -0.02920 -0.05111 0.00835
v -0.06049 -0.01564 0.00626
v -0.02088 0.05111 0.00626
v -0.03546 -0.04694 0.00418
v -0.06676 0.00311 0.00835
v -0.06676 -0.00728 0.01252
v -0.00418 0.02815 0.00209
v 0.00833 -0.00728 0.02086
v -0.01253 -0.01564 0.01877
v -0.00836 -0.00104 0.02086
v -0.03546 -0.05111 0.00835
v 0.01669 0.02191 0.01252
v -0.02920 -0.04694 0.01043
v 0.01669 -0.00939 0.01877
v 0.00625 0.01773 0.02086
v -0.06049 -0.03442 0.00835
v -0.06049 -0.02608 0.01252
v 0.01251 0.02191 0.01669
v -0.03546 -0.05111 0.00626
v -0.00627 0.01147 0.02086
v -0.06676 0.00311 0.01252
v -0.06467 -0.01981 0.01252
v -0.00210 0.03442 0.00209
v -0.01879 0.03232 0.00209
v 0.01669 0.01981 0.00626
v -0.04589 -0.02190 0.00418
v 0.01041 0.01981 0.01877
v -0.01670 0.03860 0.00209
v -0.05841 0.01564 0.01252
v -0.03129 -0.04901 0.00418
v 0.01669 -0.02816 0.01252
v -0.02296 -0.04901 0.00835
v 0.01669 0.01773 0.01669
v 0.01041 0.01356 0.02086
v 0.01251 -0.00521 0.02086
v -0.00836 0.05111 0.00418
v 0.03338 -0.00313 0.02504
v 0.03546 0.01565 0.02921
v 0.03546 0.01565 0.02504
v 0.04590 -0.00313 0.02712
v 0.02503 -0.00104 0.03338
v 0.04590 0.00730 0.03129
v 0.04590 0.00939 0.02086
v 0.02503 0.01565 0.03338
v 0.03129 0.01147 0.02295
v 0.03755 -0.00313 0.02086
v 0.02503 -0.00104 0.02712
v 0.04590 -0.00104 0.03129
v 0.04590 -0.00313 0.02086
v 0.02503 0.01565 0.02921
v 0.03546 0.00939 0.02086
v 0.02921 0.01356 0.03338
v 0.03129 -0.00104 0.02295
v 0.04590 0.00939 0.02921
v 0.03338 0.01565 0.03129
v 0.03338 0.01356 0.02295
v 0.02503 0.00730 0.02712
v 0.02712 -0.00104 0.03338
v 0.02712 -0.03233 0.00626
v 0.02294 -0.00939 0.01669
v 0.01669 -0.00939 0.01669
v 0.01669 -0.00939 0.00417
v 0.01669 -0.03233 0.01043
v 0.02712 -0.00939 0.00835
v 0.02086 -0.03233 0.00000
v 0.02503 -0.02816 0.00000
v 0.02503 -0.02816 0.01252
v 0.02712 -0.01148 0.01460
v 0.01669 -0.03233 0.00209
v 0.01669 -0.02190 0.01460
v 0.02086 -0.00939 0.00417
v 0.02712 -0.03025 0.01043
v 0.01878 -0.01356 0.01669
v 0.02712 -0.02608 0.00417
v 0.02503 -0.03233 0.00000
v 0.02086 -0.02816 0.00000
v 0.02294 -0.03233 0.01043
v 0.02503 -0.00939 0.00626
v 0.01669 -0.02399 0.00209
v 0.02294 -0.01148 0.01669
v 0.02712 -0.00939 0.01460
v 0.04172 0.01565 0.01877
v 0.01669 -0.00939 0.00417
v 0.02086 -0.00939 0.00417
v 0.01669 0.01773 0.00626
v 0.01669 -0.00730 0.01877
v 0.04589 -0.00730 0.00835
v 0.04589 -0.00312 0.02086
v 0.04589 0.01565 0.01043
v 0.01669 0.01773 0.01669
v 0.03546 0.01147 0.02086
v 0.02086 0.00730 0.00417
v 0.02712 -0.00939 0.01669
v 0.01878 0.01982 0.01460
v 0.04589 0.01147 0.02086
v 0.04381 0.01147 0.00835
v 0.01669 0.00938 0.01877
v 0.03129 -0.00104 0.02086
v 0.01878 0.01982 0.00835
v 0.04589 -0.00521 0.01877
v 0.02086 0.01773 0.00626
v 0.01669 -0.00939 0.01669
v 0.04589 0.01565 0.01669
v 0.04589 0.00730 0.00835
v 0.01669 0.00938 0.00417
v 0.04589 -0.00730 0.01252
v 0.02921 -0.00939 0.01043
v 0.01669 0.01982 0.01460
v 0.04172 0.01356 0.00835
v 0.02921 -0.00730 0.01877
v 0.03129 0.00522 0.02086
v 0.03337 -0.00312 0.02086
v -0.00209 -0.00104 0.03964
v -0.02712 -0.00313 0.03547
v -0.02503 -0.00938 0.03547
v -0.00209 0.01564 0.02921
v -0.02295 0.00730 0.03964
v -0.00209 -0.00104 0.02921
v -0.00209 0.01773 0.03547
v -0.02086 -0.01147 0.03755
v -0.00835 0.01356 0.02921
v -0.02503 -0.00521 0.03964
v -0.00209 -0.00521 0.03130
v -0.00835 0.01773 0.03130
v -0.02712 0.00313 0.03547
v -0.00209 0.00521 0.03964
v -0.00209 -0.00521 0.03755
v -0.00835 0.00521 0.02921
v -0.00835 0.01773 0.03547
v -0.02712 0.00313 0.03964
v -0.01669 -0.00730 0.03964
v -0.02295 -0.01147 0.03547
v -0.00209 0.01356 0.03755
v -0.00418 -0.00104 0.02921
v -0.02503 -0.00938 0.03755
v -0.02295 0.00730 0.03547
v -0.02712 -0.00104 0.03964
v -0.00209 0.01773 0.03130
v 0.01669 -0.00730 0.02921
v 0.01669 0.01773 0.03338
v 0.02295 0.01565 0.03547
v -0.00209 -0.00521 0.03755
v -0.00000 0.00938 0.02086
v -0.00209 0.01773 0.03547
v 0.02503 0.01147 0.02712
v -0.00000 -0.00313 0.02086
v 0.02503 0.00105 0.03547
v 0.02503 -0.00104 0.02712
v 0.00626 0.01147 0.02086
v -0.00209 0.01773 0.02921
v 0.00835 -0.00313 0.02086
v 0.01043 0.00938 0.03755
v 0.02295 -0.00730 0.03129
v 0.02503 0.01565 0.02921
v -0.00209 0.01356 0.03755
v -0.00209 -0.00521 0.03129
v 0.01043 0.00522 0.02086
v 0.01460 0.01773 0.02921
v 0.02295 -0.00730 0.02921
v 0.01877 -0.00313 0.03547
v 0.01043 0.00105 0.03755
v 0.02503 0.01356 0.03547
v -0.00209 0.00313 0.02712
v 0.02503 -0.00313 0.03338
v 0.00208 0.01147 0.02086
v -0.00000 -0.00521 0.03755
v 0.02295 -0.00521 0.03338
v 0.01043 0.00105 0.02086
f 177 187 201 
f 174 172 175 
f 177 176 178 
f 174 175 179 
f 171 179 180 
f 173 172 181 
f 176 173 181 
f 172 173 182 
f 177 178 184 
f 180 177 184 
f 171 180 184 
f 179 175 186 
f 180 179 186 
f 177 180 187 
f 186 175 187 
f 183 178 188 
f 176 177 189 
f 174 188 190 
f 188 178 190 
f 175 172 191 
f 172 182 191 
f 182 175 191 
f 183 171 192 
f 178 183 192 
f 171 184 192 
f 184 178 192 
f 178 176 193 
f 176 181 193 
f 185 178 193 
f 181 185 193 
f 172 174 194 
f 181 172 194 
f 174 190 194 
f 190 181 194 
f 176 189 195 
f 189 182 195 
f 173 176 196 
f 182 173 196 
f 176 195 196 
f 195 182 196 
f 174 179 197 
f 179 171 197 
f 171 183 197 
f 188 174 197 
f 183 188 197 
f 178 185 198 
f 185 181 198 
f 181 190 198 
f 190 178 198 
f 177 175 199 
f 175 182 199 
f 189 177 199 
f 182 189 199 
f 180 186 200 
f 187 180 200 
f 186 187 200 
f 175 177 201 
f 187 175 201 
