# Original object name hint: convex_6
v 0.05633 -0.00730 -0.03964
v 0.06050 0.01563 0.03337
v 0.06258 0.01773 0.03129
v 0.06050 -0.04485 0.00416
v 0.04590 0.00937 0.03129
v 0.06258 0.04276 -0.01877
v 0.04798 0.00313 -0.03128
v 0.05007 -0.04068 -0.01460
v 0.06676 0.01147 -0.01460
v 0.05633 0.04486 -0.02920
v 0.05841 -0.03651 -0.03546
v 0.05841 0.04486 0.00208
v 0.06676 0.00103 0.02711
v 0.06258 0.01563 -0.03755
v 0.04590 -0.00104 0.03129
v 0.06676 0.03441 -0.00001
v 0.06258 -0.04068 -0.00834
v 0.05007 0.02398 -0.03337
v 0.05216 -0.03651 0.01251
v 0.06050 -0.00521 0.03129
v 0.05216 -0.03859 -0.03337
v 0.04590 0.01563 0.01668
v 0.04590 -0.00937 0.01043
v 0.06258 -0.00312 -0.03755
v 0.05007 -0.04068 0.00416
v 0.06258 -0.03651 0.01251
v 0.05841 -0.04694 -0.01042
v 0.05424 0.01356 -0.03964
v 0.06258 0.02816 -0.03546
v 0.06258 0.04486 0.00208
v 0.06676 0.01563 0.02711
v 0.05007 0.00313 -0.03755
v 0.05424 -0.04694 0.00208
v 0.04798 0.01563 -0.03128
v 0.06676 0.03024 -0.01251
v 0.06676 -0.00312 0.01251
v 0.05633 0.01981 0.02920
v 0.06467 -0.00104 0.03129
v 0.05633 -0.03233 0.01668
v 0.06050 -0.03442 -0.03128
v 0.05841 -0.04276 -0.02920
v 0.05216 -0.04485 -0.01460
v 0.05216 -0.03442 -0.03546
v 0.05633 0.00103 0.03337
v 0.06050 -0.00312 -0.03964
v 0.05841 -0.04694 0.00416
v 0.05841 0.04486 -0.02920
v 0.06258 -0.04068 0.00625
v 0.05633 0.03024 -0.03546
v 0.06467 0.01981 0.02920
v 0.04590 0.01563 0.01251
v 0.06050 0.01356 -0.03964
v 0.06467 0.04068 0.00208
v 0.06050 -0.03233 0.01668
v 0.06467 0.02190 -0.02711
v 0.06676 0.00521 -0.00834
v 0.06258 0.04486 -0.01460
v 0.05424 -0.04276 -0.02920
v 0.05633 -0.00521 0.03129
v 0.05007 -0.03651 0.01043
v 0.06258 0.01356 0.03337
v 0.05424 -0.00521 -0.03964
v 0.05007 0.01981 -0.03546
v 0.05424 -0.04485 0.00625
v 0.01459 0.00104 0.02086
v -0.06676 -0.00728 0.00835
v -0.06467 -0.01981 0.00835
v 0.01669 0.01356 0.00418
v -0.02088 0.05111 0.00835
v -0.02296 -0.04901 0.00418
v -0.01879 0.03649 0.00209
v 0.01669 -0.03233 0.00418
v -0.06467 0.00728 0.01252
v -0.03546 -0.04694 0.01043
v -0.00836 0.00728 0.02086
v -0.06258 -0.02399 0.01252
v -0.00627 0.05111 0.00835
v 0.01669 -0.03233 0.01043
v -0.06049 -0.03442 0.00626
v -0.00002 -0.00728 0.02086
v 0.01669 0.01356 0.01877
v 0.00207 0.01773 0.02086
v -0.05841 0.01564 0.00835
v -0.00418 0.03860 0.00209
v -0.05423 0.01981 0.01252
v -0.04589 -0.02816 0.00418
v 0.01669 0.02191 0.00835
v -0.00627 0.05111 0.00418
v 0.01459 -0.02399 0.01460
v -0.02920 -0.05111 0.00835
v -0.06049 -0.01564 0.00626
v -0.02088 0.05111 0.00626
v -0.03546 -0.04694 0.00418
v -0.06676 0.00311 0.00835
v -0.06676 -0.00728 0.01252
v -0.00418 0.02815 0.00209
v 0.00833 -0.00728 0.02086
v -0.01253 -0.01564 0.01877
v -0.00836 -0.00104 0.02086
v -0.03546 -0.05111 0.00835
v 0.01669 0.02191 0.01252
v -0.02920 -0.04694 0.01043
v 0.01669 -0.00939 0.01877
v 0.00625 0.01773 0.02086
v -0.06049 -0.03442 0.00835
v -0.06049 -0.02608 0.01252
v 0.01251 0.02191 0.01669
v -0.03546 -0.05111 0.00626
v -0.00627 0.01147 0.02086
v -0.06676 0.00311 0.01252
v -0.06467 -0.01981 0.01252
v -0.00210 0.03442 0.00209
v -0.01879 0.03232 0.00209
v 0.01669 0.01981 0.00626
v -0.04589 -0.02190 0.00418
v 0.01041 0.01981 0.01877
v -0.01670 0.03860 0.00209
v -0.05841 0.01564 0.01252
v -0.03129 -0.04901 0.00418
v 0.01669 -0.02816 0.01252
v -0.02296 -0.04901 0.00835
v 0.01669 0.01773 0.01669
v 0.01041 0.01356 0.02086
v 0.01251 -0.00521 0.02086
v -0.00836 0.05111 0.00418
v 0.03338 -0.00313 0.02504
v 0.03546 0.01565 0.02921
v 0.03546 0.01565 0.02504
v 0.04590 -0.00313 0.02712
v 0.02503 -0.00104 0.03338
v 0.04590 0.00730 0.03129
v 0.04590 0.00939 0.02086
v 0.02503 0.01565 0.03338
v 0.03129 0.01147 0.02295
v 0.03755 -0.00313 0.02086
v 0.02503 -0.00104 0.02712
v 0.04590 -0.00104 0.03129
v 0.04590 -0.00313 0.02086
v 0.02503 0.01565 0.02921
v 0.03546 0.00939 0.02086
v 0.02921 0.01356 0.03338
v 0.03129 -0.00104 0.02295
v 0.04590 0.00939 0.02921
v 0.03338 0.01565 0.03129
v 0.03338 0.01356 0.02295
v 0.02503 0.00730 0.02712
v 0.02712 -0.00104 0.03338
v 0.02712 -0.03233 0.00626
v 0.02294 -0.00939 0.01669
v 0.01669 -0.00939 0.01669
v 0.01669 -0.00939 0.00417
v 0.01669 -0.03233 0.01043
v 0.02712 -0.00939 0.00835
v 0.02086 -0.03233 0.00000
v 0.02503 -0.02816 0.00000
v 0.02503 -0.02816 0.01252
v 0.02712 -0.01148 0.01460
v 0.01669 -0.03233 0.00209
v 0.01669 -0.02190 0.01460
v 0.02086 -0.00939 0.00417
v 0.02712 -0.03025 0.01043
v 0.01878 -0.01356 0.01669
v 0.02712 -0.02608 0.00417
v 0.02503 -0.03233 0.00000
v 0.02086 -0.02816 0.00000
v 0.02294 -0.03233 0.01043
v 0.02503 -0.00939 0.00626
v 0.01669 -0.02399 0.00209
v 0.02294 -0.01148 0.01669
v 0.02712 -0.00939 0.01460
v 0.04172 0.01565 0.01877
v 0.01669 -0.00939 0.00417
v 0.02086 -0.00939 0.00417
v 0.01669 0.01773 0.00626
v 0.01669 -0.00730 0.01877
v 0.04589 -0.00730 0.00835
v 0.04589 -0.00312 0.02086
v 0.04589 0.01565 0.01043
v 0.01669 0.01773 0.01669
v 0.03546 0.01147 0.02086
v 0.02086 0.00730 0.00417
v 0.02712 -0.00939 0.01669
v 0.01878 0.01982 0.01460
v 0.04589 0.01147 0.02086
v 0.04381 0.01147 0.00835
v 0.01669 0.00938 0.01877
v 0.03129 -0.00104 0.02086
v 0.01878 0.01982 0.00835
v 0.04589 -0.00521 0.01877
v 0.02086 0.01773 0.00626
v 0.01669 -0.00939 0.01669
v 0.04589 0.01565 0.01669
v 0.04589 0.00730 0.00835
v 0.01669 0.00938 0.00417
v 0.04589 -0.00730 0.01252
v 0.02921 -0.00939 0.01043
v 0.01669 0.01982 0.01460
v 0.04172 0.01356 0.00835
v 0.02921 -0.00730 0.01877
v 0.03129 0.00522 0.02086
v 0.03337 -0.00312 0.02086
v -0.00209 -0.00104 0.03964
v -0.02712 -0.00313 0.03547
v -0.02503 -0.00938 0.03547
v -0.00209 0.01564 0.02921
v -0.02295 0.00730 0.03964
v -0.00209 -0.00104 0.02921
v -0.00209 0.01773 0.03547
v -0.02086 -0.01147 0.03755
v -0.00835 0.01356 0.02921
v -0.02503 -0.00521 0.03964
v -0.00209 -0.00521 0.03130
v -0.00835 0.01773 0.03130
v -0.02712 0.00313 0.03547
v -0.00209 0.00521 0.03964
v -0.00209 -0.00521 0.03755
v -0.00835 0.00521 0.02921
v -0.00835 0.01773 0.03547
v -0.02712 0.00313 0.03964
v -0.01669 -0.00730 0.03964
v -0.02295 -0.01147 0.03547
v -0.00209 0.01356 0.03755
v -0.00418 -0.00104 0.02921
v -0.02503 -0.00938 0.03755
v -0.02295 0.00730 0.03547
v -0.02712 -0.00104 0.03964
v -0.00209 0.01773 0.03130
v 0.01669 -0.00730 0.02921
v 0.01669 0.01773 0.03338
v 0.02295 0.01565 0.03547
v -0.00209 -0.00521 0.03755
v -0.00000 0.00938 0.02086
v -0.00209 0.01773 0.03547
v 0.02503 0.01147 0.02712
v -0.00000 -0.00313 0.02086
v 0.02503 0.00105 0.03547
v 0.02503 -0.00104 0.02712
v 0.00626 0.01147 0.02086
v -0.00209 0.01773 0.02921
v 0.00835 -0.00313 0.02086
v 0.01043 0.00938 0.03755
v 0.02295 -0.00730 0.03129
v 0.02503 0.01565 0.02921
v -0.00209 0.01356 0.03755
v -0.00209 -0.00521 0.03129
v 0.01043 0.00522 0.02086
v 0.01460 0.01773 0.02921
v 0.02295 -0.00730 0.02921
v 0.01877 -0.00313 0.03547
v 0.01043 0.00105 0.03755
v 0.02503 0.01356 0.03547
v -0.00209 0.00313 0.02712
v 0.02503 -0.00313 0.03338
v 0.00208 0.01147 0.02086
v -0.00000 -0.00521 0.03755
v 0.02295 -0.00521 0.03338
v 0.01043 0.00105 0.02086
f 240 246 257 
f 230 229 233 
f 234 236 237 
f 235 232 238 
f 233 229 239 
f 231 233 239 
f 228 235 240 
f 235 238 240 
f 231 228 242 
f 229 230 243 
f 236 234 243 
f 234 238 243 
f 230 233 244 
f 233 231 244 
f 241 230 244 
f 231 241 244 
f 228 231 245 
f 235 228 245 
f 231 239 245 
f 234 237 246 
f 238 234 246 
f 240 238 246 
f 239 229 247 
f 238 239 247 
f 229 243 247 
f 243 238 247 
f 228 240 248 
f 240 237 248 
f 242 228 248 
f 241 231 250 
f 236 241 250 
f 249 236 250 
f 230 241 251 
f 241 236 251 
f 243 230 251 
f 236 243 251 
f 232 235 252 
f 239 232 252 
f 235 245 252 
f 245 239 252 
f 237 236 253 
f 248 237 253 
f 242 248 253 
f 238 232 254 
f 232 239 254 
f 239 238 254 
f 231 242 255 
f 250 231 255 
f 249 250 255 
f 236 249 256 
f 253 236 256 
f 242 253 256 
f 255 242 256 
f 249 255 256 
f 237 240 257 
f 246 237 257 
