# Original object name hint: convex_2
v 0.05633 -0.00730 -0.03964
v 0.06050 0.01563 0.03337
v 0.06258 0.01773 0.03129
v 0.06050 -0.04485 0.00416
v 0.04590 0.00937 0.03129
v 0.06258 0.04276 -0.01877
v 0.04798 0.00313 -0.03128
v 0.05007 -0.04068 -0.01460
v 0.06676 0.01147 -0.01460
v 0.05633 0.04486 -0.02920
v 0.05841 -0.03651 -0.03546
v 0.05841 0.04486 0.00208
v 0.06676 0.00103 0.02711
v 0.06258 0.01563 -0.03755
v 0.04590 -0.00104 0.03129
v 0.06676 0.03441 -0.00001
v 0.06258 -0.04068 -0.00834
v 0.05007 0.02398 -0.03337
v 0.05216 -0.03651 0.01251
v 0.06050 -0.00521 0.03129
v 0.05216 -0.03859 -0.03337
v 0.04590 0.01563 0.01668
v 0.04590 -0.00937 0.01043
v 0.06258 -0.00312 -0.03755
v 0.05007 -0.04068 0.00416
v 0.06258 -0.03651 0.01251
v 0.05841 -0.04694 -0.01042
v 0.05424 0.01356 -0.03964
v 0.06258 0.02816 -0.03546
v 0.06258 0.04486 0.00208
v 0.06676 0.01563 0.02711
v 0.05007 0.00313 -0.03755
v 0.05424 -0.04694 0.00208
v 0.04798 0.01563 -0.03128
v 0.06676 0.03024 -0.01251
v 0.06676 -0.00312 0.01251
v 0.05633 0.01981 0.02920
v 0.06467 -0.00104 0.03129
v 0.05633 -0.03233 0.01668
v 0.06050 -0.03442 -0.03128
v 0.05841 -0.04276 -0.02920
v 0.05216 -0.04485 -0.01460
v 0.05216 -0.03442 -0.03546
v 0.05633 0.00103 0.03337
v 0.06050 -0.00312 -0.03964
v 0.05841 -0.04694 0.00416
v 0.05841 0.04486 -0.02920
v 0.06258 -0.04068 0.00625
v 0.05633 0.03024 -0.03546
v 0.06467 0.01981 0.02920
v 0.04590 0.01563 0.01251
v 0.06050 0.01356 -0.03964
v 0.06467 0.04068 0.00208
v 0.06050 -0.03233 0.01668
v 0.06467 0.02190 -0.02711
v 0.06676 0.00521 -0.00834
v 0.06258 0.04486 -0.01460
v 0.05424 -0.04276 -0.02920
v 0.05633 -0.00521 0.03129
v 0.05007 -0.03651 0.01043
v 0.06258 0.01356 0.03337
v 0.05424 -0.00521 -0.03964
v 0.05007 0.01981 -0.03546
v 0.05424 -0.04485 0.00625
v 0.01459 0.00104 0.02086
v -0.06676 -0.00728 0.00835
v -0.06467 -0.01981 0.00835
v 0.01669 0.01356 0.00418
v -0.02088 0.05111 0.00835
v -0.02296 -0.04901 0.00418
v -0.01879 0.03649 0.00209
v 0.01669 -0.03233 0.00418
v -0.06467 0.00728 0.01252
v -0.03546 -0.04694 0.01043
v -0.00836 0.00728 0.02086
v -0.06258 -0.02399 0.01252
v -0.00627 0.05111 0.00835
v 0.01669 -0.03233 0.01043
v -0.06049 -0.03442 0.00626
v -0.00002 -0.00728 0.02086
v 0.01669 0.01356 0.01877
v 0.00207 0.01773 0.02086
v -0.05841 0.01564 0.00835
v -0.00418 0.03860 0.00209
v -0.05423 0.01981 0.01252
v -0.04589 -0.02816 0.00418
v 0.01669 0.02191 0.00835
v -0.00627 0.05111 0.00418
v 0.01459 -0.02399 0.01460
v -0.02920 -0.05111 0.00835
v -0.06049 -0.01564 0.00626
v -0.02088 0.05111 0.00626
v -0.03546 -0.04694 0.00418
v -0.06676 0.00311 0.00835
v -0.06676 -0.00728 0.01252
v -0.00418 0.02815 0.00209
v 0.00833 -0.00728 0.02086
v -0.01253 -0.01564 0.01877
v -0.00836 -0.00104 0.02086
v -0.03546 -0.05111 0.00835
v 0.01669 0.02191 0.01252
v -0.02920 -0.04694 0.01043
v 0.01669 -0.00939 0.01877
v 0.00625 0.01773 0.02086
v -0.06049 -0.03442 0.00835
v -0.06049 -0.02608 0.01252
v 0.01251 0.02191 0.01669
v -0.03546 -0.05111 0.00626
v -0.00627 0.01147 0.02086
v -0.06676 0.00311 0.01252
v -0.06467 -0.01981 0.01252
v -0.00210 0.03442 0.00209
v -0.01879 0.03232 0.00209
v 0.01669 0.01981 0.00626
v -0.04589 -0.02190 0.00418
v 0.01041 0.01981 0.01877
v -0.01670 0.03860 0.00209
v -0.05841 0.01564 0.01252
v -0.03129 -0.04901 0.00418
v 0.01669 -0.02816 0.01252
v -0.02296 -0.04901 0.00835
v 0.01669 0.01773 0.01669
v 0.01041 0.01356 0.02086
v 0.01251 -0.00521 0.02086
v -0.00836 0.05111 0.00418
v 0.03338 -0.00313 0.02504
v 0.03546 0.01565 0.02921
v 0.03546 0.01565 0.02504
v 0.04590 -0.00313 0.02712
v 0.02503 -0.00104 0.03338
v 0.04590 0.00730 0.03129
v 0.04590 0.00939 0.02086
v 0.02503 0.01565 0.03338
v 0.03129 0.01147 0.02295
v 0.03755 -0.00313 0.02086
v 0.02503 -0.00104 0.02712
v 0.04590 -0.00104 0.03129
v 0.04590 -0.00313 0.02086
v 0.02503 0.01565 0.02921
v 0.03546 0.00939 0.02086
v 0.02921 0.01356 0.03338
v 0.03129 -0.00104 0.02295
v 0.04590 0.00939 0.02921
v 0.03338 0.01565 0.03129
v 0.03338 0.01356 0.02295
v 0.02503 0.00730 0.02712
v 0.02712 -0.00104 0.03338
v 0.02712 -0.03233 0.00626
v 0.02294 -0.00939 0.01669
v 0.01669 -0.00939 0.01669
v 0.01669 -0.00939 0.00417
v 0.01669 -0.03233 0.01043
v 0.02712 -0.00939 0.00835
v 0.02086 -0.03233 0.00000
v 0.02503 -0.02816 0.00000
v 0.02503 -0.02816 0.01252
v 0.02712 -0.01148 0.01460
v 0.01669 -0.03233 0.00209
v 0.01669 -0.02190 0.01460
v 0.02086 -0.00939 0.00417
v 0.02712 -0.03025 0.01043
v 0.01878 -0.01356 0.01669
v 0.02712 -0.02608 0.00417
v 0.02503 -0.03233 0.00000
v 0.02086 -0.02816 0.00000
v 0.02294 -0.03233 0.01043
v 0.02503 -0.00939 0.00626
v 0.01669 -0.02399 0.00209
v 0.02294 -0.01148 0.01669
v 0.02712 -0.00939 0.01460
v 0.04172 0.01565 0.01877
v 0.01669 -0.00939 0.00417
v 0.02086 -0.00939 0.00417
v 0.01669 0.01773 0.00626
v 0.01669 -0.00730 0.01877
v 0.04589 -0.00730 0.00835
v 0.04589 -0.00312 0.02086
v 0.04589 0.01565 0.01043
v 0.01669 0.01773 0.01669
v 0.03546 0.01147 0.02086
v 0.02086 0.00730 0.00417
v 0.02712 -0.00939 0.01669
v 0.01878 0.01982 0.01460
v 0.04589 0.01147 0.02086
v 0.04381 0.01147 0.00835
v 0.01669 0.00938 0.01877
v 0.03129 -0.00104 0.02086
v 0.01878 0.01982 0.00835
v 0.04589 -0.00521 0.01877
v 0.02086 0.01773 0.00626
v 0.01669 -0.00939 0.01669
v 0.04589 0.01565 0.01669
v 0.04589 0.00730 0.00835
v 0.01669 0.00938 0.00417
v 0.04589 -0.00730 0.01252
v 0.02921 -0.00939 0.01043
v 0.01669 0.01982 0.01460
v 0.04172 0.01356 0.00835
v 0.02921 -0.00730 0.01877
v 0.03129 0.00522 0.02086
v 0.03337 -0.00312 0.02086
v -0.00209 -0.00104 0.03964
v -0.02712 -0.00313 0.03547
v -0.02503 -0.00938 0.03547
v -0.00209 0.01564 0.02921
v -0.02295 0.00730 0.03964
v -0.00209 -0.00104 0.02921
v -0.00209 0.01773 0.03547
v -0.02086 -0.01147 0.03755
v -0.00835 0.01356 0.02921
v -0.02503 -0.00521 0.03964
v -0.00209 -0.00521 0.03130
v -0.00835 0.01773 0.03130
v -0.02712 0.00313 0.03547
v -0.00209 0.00521 0.03964
v -0.00209 -0.00521 0.03755
v -0.00835 0.00521 0.02921
v -0.00835 0.01773 0.03547
v -0.02712 0.00313 0.03964
v -0.01669 -0.00730 0.03964
v -0.02295 -0.01147 0.03547
v -0.00209 0.01356 0.03755
v -0.00418 -0.00104 0.02921
v -0.02503 -0.00938 0.03755
v -0.02295 0.00730 0.03547
v -0.02712 -0.00104 0.03964
v -0.00209 0.01773 0.03130
v 0.01669 -0.00730 0.02921
v 0.01669 0.01773 0.03338
v 0.02295 0.01565 0.03547
v -0.00209 -0.00521 0.03755
v -0.00000 0.00938 0.02086
v -0.00209 0.01773 0.03547
v 0.02503 0.01147 0.02712
v -0.00000 -0.00313 0.02086
v 0.02503 0.00105 0.03547
v 0.02503 -0.00104 0.02712
v 0.00626 0.01147 0.02086
v -0.00209 0.01773 0.02921
v 0.00835 -0.00313 0.02086
v 0.01043 0.00938 0.03755
v 0.02295 -0.00730 0.03129
v 0.02503 0.01565 0.02921
v -0.00209 0.01356 0.03755
v -0.00209 -0.00521 0.03129
v 0.01043 0.00522 0.02086
v 0.01460 0.01773 0.02921
v 0.02295 -0.00730 0.02921
v 0.01877 -0.00313 0.03547
v 0.01043 0.00105 0.03755
v 0.02503 0.01356 0.03547
v -0.00209 0.00313 0.02712
v 0.02503 -0.00313 0.03338
v 0.00208 0.01147 0.02086
v -0.00000 -0.00521 0.03755
v 0.02295 -0.00521 0.03338
v 0.01043 0.00105 0.02086
f 137 141 147 
f 126 129 130 
f 131 129 132 
f 128 127 132 
f 127 128 133 
f 129 126 135 
f 126 130 136 
f 130 133 136 
f 135 126 136 
f 129 131 137 
f 132 129 138 
f 129 135 138 
f 135 132 138 
f 133 128 139 
f 136 133 139 
f 132 135 140 
f 133 130 141 
f 137 131 141 
f 136 134 142 
f 135 136 142 
f 134 140 142 
f 140 135 142 
f 131 132 143 
f 132 127 143 
f 127 133 144 
f 141 131 144 
f 133 141 144 
f 143 127 144 
f 131 143 144 
f 128 132 145 
f 139 128 145 
f 134 139 145 
f 132 140 145 
f 140 134 145 
f 134 136 146 
f 139 134 146 
f 136 139 146 
f 130 129 147 
f 129 137 147 
f 141 130 147 
