# Original object name hint: convex_1
v 0.05633 -0.00730 -0.03964
v 0.06050 0.01563 0.03337
v 0.06258 0.01773 0.03129
v 0.06050 -0.04485 0.00416
v 0.04590 0.00937 0.03129
v 0.06258 0.04276 -0.01877
v 0.04798 0.00313 -0.03128
v 0.05007 -0.04068 -0.01460
v 0.06676 0.01147 -0.01460
v 0.05633 0.04486 -0.02920
v 0.05841 -0.03651 -0.03546
v 0.05841 0.04486 0.00208
v 0.06676 0.00103 0.02711
v 0.06258 0.01563 -0.03755
v 0.04590 -0.00104 0.03129
v 0.06676 0.03441 -0.00001
v 0.06258 -0.04068 -0.00834
v 0.05007 0.02398 -0.03337
v 0.05216 -0.03651 0.01251
v 0.06050 -0.00521 0.03129
v 0.05216 -0.03859 -0.03337
v 0.04590 0.01563 0.01668
v 0.04590 -0.00937 0.01043
v 0.06258 -0.00312 -0.03755
v 0.05007 -0.04068 0.00416
v 0.06258 -0.03651 0.01251
v 0.05841 -0.04694 -0.01042
v 0.05424 0.01356 -0.03964
v 0.06258 0.02816 -0.03546
v 0.06258 0.04486 0.00208
v 0.06676 0.01563 0.02711
v 0.05007 0.00313 -0.03755
v 0.05424 -0.04694 0.00208
v 0.04798 0.01563 -0.03128
v 0.06676 0.03024 -0.01251
v 0.06676 -0.00312 0.01251
v 0.05633 0.01981 0.02920
v 0.06467 -0.00104 0.03129
v 0.05633 -0.03233 0.01668
v 0.06050 -0.03442 -0.03128
v 0.05841 -0.04276 -0.02920
v 0.05216 -0.04485 -0.01460
v 0.05216 -0.03442 -0.03546
v 0.05633 0.00103 0.03337
v 0.06050 -0.00312 -0.03964
v 0.05841 -0.04694 0.00416
v 0.05841 0.04486 -0.02920
v 0.06258 -0.04068 0.00625
v 0.05633 0.03024 -0.03546
v 0.06467 0.01981 0.02920
v 0.04590 0.01563 0.01251
v 0.06050 0.01356 -0.03964
v 0.06467 0.04068 0.00208
v 0.06050 -0.03233 0.01668
v 0.06467 0.02190 -0.02711
v 0.06676 0.00521 -0.00834
v 0.06258 0.04486 -0.01460
v 0.05424 -0.04276 -0.02920
v 0.05633 -0.00521 0.03129
v 0.05007 -0.03651 0.01043
v 0.06258 0.01356 0.03337
v 0.05424 -0.00521 -0.03964
v 0.05007 0.01981 -0.03546
v 0.05424 -0.04485 0.00625
v 0.01459 0.00104 0.02086
v -0.06676 -0.00728 0.00835
v -0.06467 -0.01981 0.00835
v 0.01669 0.01356 0.00418
v -0.02088 0.05111 0.00835
v -0.02296 -0.04901 0.00418
v -0.01879 0.03649 0.00209
v 0.01669 -0.03233 0.00418
v -0.06467 0.00728 0.01252
v -0.03546 -0.04694 0.01043
v -0.00836 0.00728 0.02086
v -0.06258 -0.02399 0.01252
v -0.00627 0.05111 0.00835
v 0.01669 -0.03233 0.01043
v -0.06049 -0.03442 0.00626
v -0.00002 -0.00728 0.02086
v 0.01669 0.01356 0.01877
v 0.00207 0.01773 0.02086
v -0.05841 0.01564 0.00835
v -0.00418 0.03860 0.00209
v -0.05423 0.01981 0.01252
v -0.04589 -0.02816 0.00418
v 0.01669 0.02191 0.00835
v -0.00627 0.05111 0.00418
v 0.01459 -0.02399 0.01460
v -0.02920 -0.05111 0.00835
v -0.06049 -0.01564 0.00626
v -0.02088 0.05111 0.00626
v -0.03546 -0.04694 0.00418
v -0.06676 0.00311 0.00835
v -0.06676 -0.00728 0.01252
v -0.00418 0.02815 0.00209
v 0.00833 -0.00728 0.02086
v -0.01253 -0.01564 0.01877
v -0.00836 -0.00104 0.02086
v -0.03546 -0.05111 0.00835
v 0.01669 0.02191 0.01252
v -0.02920 -0.04694 0.01043
v 0.01669 -0.00939 0.01877
v 0.00625 0.01773 0.02086
v -0.06049 -0.03442 0.00835
v -0.06049 -0.02608 0.01252
v 0.01251 0.02191 0.01669
v -0.03546 -0.05111 0.00626
v -0.00627 0.01147 0.02086
v -0.06676 0.00311 0.01252
v -0.06467 -0.01981 0.01252
v -0.00210 0.03442 0.00209
v -0.01879 0.03232 0.00209
v 0.01669 0.01981 0.00626
v -0.04589 -0.02190 0.00418
v 0.01041 0.01981 0.01877
v -0.01670 0.03860 0.00209
v -0.05841 0.01564 0.01252
v -0.03129 -0.04901 0.00418
v 0.01669 -0.02816 0.01252
v -0.02296 -0.04901 0.00835
v 0.01669 0.01773 0.01669
v 0.01041 0.01356 0.02086
v 0.01251 -0.00521 0.02086
v -0.00836 0.05111 0.00418
v 0.03338 -0.00313 0.02504
v 0.03546 0.01565 0.02921
v 0.03546 0.01565 0.02504
v 0.04590 -0.00313 0.02712
v 0.02503 -0.00104 0.03338
v 0.04590 0.00730 0.03129
v 0.04590 0.00939 0.02086
v 0.02503 0.01565 0.03338
v 0.03129 0.01147 0.02295
v 0.03755 -0.00313 0.02086
v 0.02503 -0.00104 0.02712
v 0.04590 -0.00104 0.03129
v 0.04590 -0.00313 0.02086
v 0.02503 0.01565 0.02921
v 0.03546 0.00939 0.02086
v 0.02921 0.01356 0.03338
v 0.03129 -0.00104 0.02295
v 0.04590 0.00939 0.02921
v 0.03338 0.01565 0.03129
v 0.03338 0.01356 0.02295
v 0.02503 0.00730 0.02712
v 0.02712 -0.00104 0.03338
v 0.02712 -0.03233 0.00626
v 0.02294 -0.00939 0.01669
v 0.01669 -0.00939 0.01669
v 0.01669 -0.00939 0.00417
v 0.01669 -0.03233 0.01043
v 0.02712 -0.00939 0.00835
v 0.02086 -0.03233 0.00000
v 0.02503 -0.02816 0.00000
v 0.02503 -0.02816 0.01252
v 0.02712 -0.01148 0.01460
v 0.01669 -0.03233 0.00209
v 0.01669 -0.02190 0.01460
v 0.02086 -0.00939 0.00417
v 0.02712 -0.03025 0.01043
v 0.01878 -0.01356 0.01669
v 0.02712 -0.02608 0.00417
v 0.02503 -0.03233 0.00000
v 0.02086 -0.02816 0.00000
v 0.02294 -0.03233 0.01043
v 0.02503 -0.00939 0.00626
v 0.01669 -0.02399 0.00209
v 0.02294 -0.01148 0.01669
v 0.02712 -0.00939 0.01460
v 0.04172 0.01565 0.01877
v 0.01669 -0.00939 0.00417
v 0.02086 -0.00939 0.00417
v 0.01669 0.01773 0.00626
v 0.01669 -0.00730 0.01877
v 0.04589 -0.00730 0.00835
v 0.04589 -0.00312 0.02086
v 0.04589 0.01565 0.01043
v 0.01669 0.01773 0.01669
v 0.03546 0.01147 0.02086
v 0.02086 0.00730 0.00417
v 0.02712 -0.00939 0.01669
v 0.01878 0.01982 0.01460
v 0.04589 0.01147 0.02086
v 0.04381 0.01147 0.00835
v 0.01669 0.00938 0.01877
v 0.03129 -0.00104 0.02086
v 0.01878 0.01982 0.00835
v 0.04589 -0.00521 0.01877
v 0.02086 0.01773 0.00626
v 0.01669 -0.00939 0.01669
v 0.04589 0.01565 0.01669
v 0.04589 0.00730 0.00835
v 0.01669 0.00938 0.00417
v 0.04589 -0.00730 0.01252
v 0.02921 -0.00939 0.01043
v 0.01669 0.01982 0.01460
v 0.04172 0.01356 0.00835
v 0.02921 -0.00730 0.01877
v 0.03129 0.00522 0.02086
v 0.03337 -0.00312 0.02086
v -0.00209 -0.00104 0.03964
v -0.02712 -0.00313 0.03547
v -0.02503 -0.00938 0.03547
v -0.00209 0.01564 0.02921
v -0.02295 0.00730 0.03964
v -0.00209 -0.00104 0.02921
v -0.00209 0.01773 0.03547
v -0.02086 -0.01147 0.03755
v -0.00835 0.01356 0.02921
v -0.02503 -0.00521 0.03964
v -0.00209 -0.00521 0.03130
v -0.00835 0.01773 0.03130
v -0.02712 0.00313 0.03547
v -0.00209 0.00521 0.03964
v -0.00209 -0.00521 0.03755
v -0.00835 0.00521 0.02921
v -0.00835 0.01773 0.03547
v -0.02712 0.00313 0.03964
v -0.01669 -0.00730 0.03964
v -0.02295 -0.01147 0.03547
v -0.00209 0.01356 0.03755
v -0.00418 -0.00104 0.02921
v -0.02503 -0.00938 0.03755
v -0.02295 0.00730 0.03547
v -0.02712 -0.00104 0.03964
v -0.00209 0.01773 0.03130
v 0.01669 -0.00730 0.02921
v 0.01669 0.01773 0.03338
v 0.02295 0.01565 0.03547
v -0.00209 -0.00521 0.03755
v -0.00000 0.00938 0.02086
v -0.00209 0.01773 0.03547
v 0.02503 0.01147 0.02712
v -0.00000 -0.00313 0.02086
v 0.02503 0.00105 0.03547
v 0.02503 -0.00104 0.02712
v 0.00626 0.01147 0.02086
v -0.00209 0.01773 0.02921
v 0.00835 -0.00313 0.02086
v 0.01043 0.00938 0.03755
v 0.02295 -0.00730 0.03129
v 0.02503 0.01565 0.02921
v -0.00209 0.01356 0.03755
v -0.00209 -0.00521 0.03129
v 0.01043 0.00522 0.02086
v 0.01460 0.01773 0.02921
v 0.02295 -0.00730 0.02921
v 0.01877 -0.00313 0.03547
v 0.01043 0.00105 0.03755
v 0.02503 0.01356 0.03547
v -0.00209 0.00313 0.02712
v 0.02503 -0.00313 0.03338
v 0.00208 0.01147 0.02086
v -0.00000 -0.00521 0.03755
v 0.02295 -0.00521 0.03338
v 0.01043 0.00105 0.02086
f 117 92 125 
f 72 68 78 
f 70 72 78 
f 67 66 79 
f 65 75 80 
f 78 68 81 
f 75 65 82 
f 77 69 82 
f 82 69 85 
f 81 68 87 
f 69 77 88 
f 68 84 88 
f 77 87 88 
f 79 66 91 
f 86 79 91 
f 71 83 92 
f 85 69 92 
f 83 85 92 
f 69 88 92 
f 79 86 93 
f 83 71 94 
f 73 83 94 
f 91 66 94 
f 71 91 94 
f 66 67 95 
f 94 66 95 
f 72 70 96 
f 71 84 96 
f 65 80 97 
f 97 80 98 
f 80 75 99 
f 75 95 99 
f 98 80 99 
f 90 74 100 
f 81 87 101 
f 87 77 101 
f 90 78 102 
f 74 90 102 
f 89 97 102 
f 98 74 102 
f 97 98 102 
f 81 65 103 
f 78 81 103 
f 82 65 104 
f 77 82 104 
f 67 79 105 
f 100 74 105 
f 79 100 105 
f 74 98 106 
f 99 76 106 
f 98 99 106 
f 76 105 106 
f 105 74 106 
f 70 90 108 
f 79 93 108 
f 100 79 108 
f 90 100 108 
f 75 82 109 
f 82 85 109 
f 73 94 110 
f 95 75 110 
f 94 95 110 
f 109 73 110 
f 75 109 110 
f 95 67 111 
f 99 95 111 
f 76 99 111 
f 67 105 111 
f 105 76 111 
f 68 72 112 
f 84 68 112 
f 72 96 112 
f 96 84 112 
f 86 71 113 
f 93 86 113 
f 71 96 113 
f 87 68 114 
f 68 88 114 
f 88 87 114 
f 71 86 115 
f 91 71 115 
f 86 91 115 
f 104 81 116 
f 77 104 116 
f 107 77 116 
f 81 107 116 
f 84 71 117 
f 88 84 117 
f 71 92 117 
f 83 73 118 
f 85 83 118 
f 73 109 118 
f 109 85 118 
f 96 70 119 
f 70 108 119 
f 108 93 119 
f 93 113 119 
f 113 96 119 
f 102 78 120 
f 89 102 120 
f 78 103 120 
f 103 89 120 
f 70 78 121 
f 90 70 121 
f 78 90 121 
f 101 77 122 
f 81 101 122 
f 77 107 122 
f 107 81 122 
f 65 81 123 
f 104 65 123 
f 81 104 123 
f 65 97 124 
f 97 89 124 
f 103 65 124 
f 89 103 124 
f 92 88 125 
f 88 117 125 
