# Created by Open3D 
# object name: convex_4_coll
# number of vertices: 14
# number of triangles: 24
v 0.05545 0.03119 0.0104
v 0.03928 0.03119 0.03118
v 0.05545 0.02657 0.03118
v 0.05545 0.00347 0.03118
v 0.05545 -0.00577 0.00578
v 0.03928 0.02657 0.0335
v 0.03928 0.03003 0.006935
v 0.03928 -0.00577 0.01733
v 0.03928 0.0104 0.0335
v 0.05545 -0.00809 0.01502
v 0.05545 0.02426 0.00578
v 0.03928 0.0104 0.00578
v 0.03928 -0.002305 0.0104
v 0.05083 -0.00809 0.00809
f 1 2 3
f 1 4 5
f 6 7 8
f 4 1 3
f 6 8 9
f 7 6 2
f 5 4 10
f 4 8 10
f 1 5 11
f 5 7 11
f 7 5 12
f 8 7 12
f 2 1 7
f 8 12 13
f 8 4 9
f 5 10 14
f 10 8 14
f 8 13 14
f 3 6 9
f 4 3 9
f 1 11 7
f 14 13 5
f 13 12 5
f 2 6 3
