# Created by Open3D 
# object name: convex_1_coll
# number of vertices: 14
# number of triangles: 24
v 0.072775 0.056595 -0.001735
v 0.06469 0.05658 -0.02887
v 0.05545 0.00348 0.03119
v 0.05545 0.0335 -0.02655
v 0.05776 -0.02888 -0.03349
v 0.07393 -0.02656 -0.00347
v 0.07393 0.026555 -0.0358
v 0.05545 0.02655 0.03119
v 0.072775 0.03002 0.031185
v 0.06007 -0.0300275 0.009235
v 0.065845 0.057745 -9.99996e-06
v 0.0641125 -0.03696 -0.01905
v 0.0661338 0.00779875 -0.0415831
v 0.072775 -0.0254 0.01616
f 3 4 5
f 6 7 1
f 4 3 8
f 6 1 9
f 6 9 14
f 7 2 1
f 10 3 5
f 13 4 2
f 9 8 3
f 5 6 12
f 5 4 13
f 7 6 13
f 6 5 13
f 8 11 4
f 11 2 4
f 1 11 9
f 11 8 9
f 14 10 12
f 10 14 3
f 14 9 3
f 12 6 14
f 5 12 10
f 2 7 13
f 11 1 2
