# Created by Open3D 
# object name: convex_8_coll
# number of vertices: 14
# number of triangles: 24
v 0.00232 0.03581 0.032345
v -0.02309 0.02425 0.03812
v 0.00923 0.00578 0.02195
v 0.03928 0.01617 0.02195
v 0.03928 0.02887 0.0335
v -0.0254 0.01501 0.0335
v 0.03234 -0.01501 0.0309013
v 0.02656 0.01501 0.04505
v 0.01155 0.03118 0.02426
v -0.0254 -0.00577 0.04043
v 0.0306113 0.033205 0.0306125
v -0.0023 0.02656 0.04274
v -0.01616 -0.01732 0.03812
v -0.02078 -0.01501 0.0335
f 4 7 3
f 8 7 5
f 4 3 9
f 5 4 11
f 2 12 1
f 4 5 7
f 4 9 11
f 9 1 11
f 7 8 13
f 3 6 9
f 3 7 14
f 13 14 7
f 6 10 2
f 1 12 11
f 12 8 11
f 12 2 10
f 8 12 10
f 10 13 8
f 2 1 9
f 6 2 9
f 5 11 8
f 10 14 13
f 10 6 14
f 6 3 14
