# Created by Open3D 
# object name: convex_7_coll
# number of vertices: 14
# number of triangles: 24
v -0.05543 -0.02887 0.00347
v -0.05543 -0.02194 0.0127
v 0.00346125 -0.00404125 0.02195
v -0.023095 -0.04274 0.0104
v 0.00231 0.06122 0.00578
v -0.04157 0.06122 0.006935
v 0.03927 0.03118 0.01732
v 0.03927 0.02886 0.00578
v 0.03695 -0.01732 0.01501
v -0.00693 0.04792 -0.00116
v -0.00923 -0.04274 0.00347
v -0.05543 0.02886 0.0127
v -0.05543 0.03118 0.00578
v 0.03233 -0.01963 0.00578
f 3 2 4
f 5 6 7
f 8 7 9
f 8 10 5
f 1 12 13
f 11 10 14
f 12 1 2
f 3 12 2
f 3 9 7
f 11 4 1
f 10 11 1
f 13 10 1
f 5 7 8
f 3 6 12
f 6 10 13
f 4 9 3
f 10 8 14
f 12 6 13
f 6 3 7
f 11 14 9
f 4 11 9
f 5 10 6
f 8 9 14
f 4 2 1
