# Created by Open3D 
# object name: convex_0_coll
# number of vertices: 14
# number of triangles: 24
v -0.05544 -0.04967 -0.0358
v -0.04851 -0.05198 0.00808
v 0.02541 -0.06353 -0.04043
v -0.03464 -0.06353 0.00808
v -0.02772 -0.06122 -0.04274
v -0.003475 -0.04274 -0.012705
v -0.03234 -0.04274 0.00808
v -0.0167425 -0.04274 0.009235
v 0.02309 -0.06353 0.01271
v 0.03697 -0.05891 -0.0335
v 0.0127025 -0.0540013 -0.0410075
v 0.03118 -0.05891 0.008085
v -0.04851 -0.05891 -0.03812
v -0.04851 -0.05891 0.00577
f 3 4 5
f 6 7 8
f 4 3 9
f 9 3 10
f 6 10 11
f 8 7 2
f 6 12 10
f 5 11 3
f 8 2 4
f 10 3 11
f 6 8 12
f 13 4 14
f 12 8 9
f 8 4 9
f 1 7 6
f 14 2 1
f 13 14 1
f 4 13 5
f 9 10 12
f 5 13 1
f 11 5 1
f 4 2 14
f 6 11 1
f 2 7 1
