# Created by Open3D 
# object name: convex_6_coll
# number of vertices: 14
# number of triangles: 24
v -0.049655 -0.020785 -0.00578
v -0.05543 -0.01732 -0.01733
v -0.04619 -0.03811 -0.01271
v 0.0023 0.002325 -0.02426
v 0.03927 0.02655 -0.01733
v 0.00115 0.06006 -0.006935
v -0.04619 0.04504 -0.01733
v 0.035795 -0.025405 -0.0075125
v -0.0101037 -0.0415825 -0.0063575
v 0.00462 0.06122 -0.02194
v -0.00923 0.05197 -0.00116
v -0.04619 0.041575 -0.009245
v -0.0098125 -0.0404225 -0.019055
v 0.03464 0.01731 -0.00578
f 1 2 3
f 2 7 4
f 4 5 13
f 5 4 10
f 1 3 9
f 14 6 11
f 4 13 2
f 13 3 2
f 5 6 14
f 9 3 13
f 11 8 14
f 12 11 6
f 4 7 10
f 13 8 9
f 11 1 9
f 9 8 11
f 5 14 8
f 8 13 5
f 2 1 12
f 11 12 1
f 12 6 7
f 6 10 7
f 2 12 7
f 5 10 6
