# Created by Open3D 
# object name: convex_5_coll
# number of vertices: 14
# number of triangles: 24
v -0.04158 -0.01732 -0.02657
v 0 -0.04042 -0.03812
v 0.00231 0.02656 -0.03812
v 0.012705 -0.036955 -0.03812
v 0.00693 0.01501 -0.02426
v 0.01386 -0.02886 -0.03119
v 0.005775 0.035795 -0.03581
v -0.04389 -0.01732 -0.0335
v -0.00231 -0.039265 -0.030035
v 0.008085 -0.036955 -0.02888
v -0.03465 0.03811 -0.02657
v -0.00463 0.04736 -0.02888
v -0.03465 0.04273 -0.03119
v -0.01617 0.03811 -0.03581
f 2 3 4
f 5 6 7
f 2 8 3
f 9 2 10
f 11 5 12
f 1 11 8
f 14 13 12
f 5 1 10
f 10 1 9
f 10 2 4
f 7 3 14
f 12 7 14
f 6 5 10
f 4 6 10
f 8 13 14
f 3 8 14
f 8 11 13
f 11 12 13
f 1 8 2
f 9 1 2
f 7 6 4
f 3 7 4
f 12 5 7
f 11 1 5
