# Created by Open3D 
# object name: convex_2_coll
# number of vertices: 14
# number of triangles: 24
v -0.06931 0.06121 -0.03581
v -0.05544 0.02888 0.01271
v -0.05544 -0.02541 0.010395
v -0.06238 0.05429 0.00577
v -0.06006 0.06121 -0.03349
v -0.05544 0 -0.01848
v -0.0664225 -0.0109675 -0.043895
v -0.067 0.03118 -0.04505
v -0.072775 -0.006925 0.006925
v -0.072775 0.0254087 -0.0297437
v -0.06006 -0.03812 -0.03581
v -0.06931 -0.0358 -0.03349
v -0.06815 -0.024255 0.010395
v -0.06931 0.05429 0.00577
f 5 2 6
f 2 3 6
f 6 11 5
f 3 2 13
f 2 9 13
f 14 4 1
f 7 12 10
f 7 8 5
f 11 7 5
f 10 9 14
f 1 10 14
f 2 4 14
f 5 8 1
f 12 9 10
f 10 8 7
f 4 2 5
f 1 4 5
f 12 7 11
f 9 12 13
f 3 13 11
f 13 12 11
f 9 2 14
f 3 11 6
f 8 10 1
