# Created by Open3D 
# object name: convex_3_coll
# number of vertices: 14
# number of triangles: 24
v 0.05545 0.01964 -0.02195
v 0.05545 0.01502 -0.01964
v 0.03928 0.02657 -0.01733
v 0.03928 0.01502 -0.01733
v 0.03928 0.02194 -0.0104
v 0.054295 0.02888 -0.02195
v 0.05545 0.02426 -0.01271
v 0.05545 0.02888 -0.01502
v 0.04159 0.01271 -0.01502
v 0.05083 0.01271 -0.0104
v 0.03928 0.01502 -0.0104
v 0.05083 0.02426 -0.0104
v 0.03928 0.02657 -0.01271
v 0.05545 0.01502 -0.01271
f 3 4 5
f 4 3 6
f 7 1 8
f 9 4 2
f 1 7 2
f 10 9 2
f 4 9 11
f 9 10 11
f 5 4 11
f 10 5 11
f 10 7 12
f 5 10 12
f 7 8 12
f 12 8 13
f 3 5 13
f 6 3 13
f 8 6 13
f 5 12 13
f 7 10 14
f 2 7 14
f 10 2 14
f 8 1 6
f 4 6 1
f 2 4 1
