# Original object name hint: convex_4
v 0.05599 -0.03836 -0.03733
v 0.05599 0.00518 0.03111
v 0.06014 0.01347 0.02904
v 0.05599 0.04667 -0.03111
v 0.04355 0.00518 0.02904
v 0.06636 0.02176 -0.03525
v 0.06014 -0.03836 0.00829
v 0.04563 0.01555 -0.03318
v 0.04770 -0.03421 -0.01451
v 0.06222 0.04667 -0.00001
v 0.06636 0.00725 0.01244
v 0.05185 -0.03836 0.01244
v 0.05599 0.01139 -0.04356
v 0.06014 -0.04043 -0.02488
v 0.04978 -0.03836 -0.03525
v 0.04355 -0.01140 0.00622
v 0.04355 0.01347 0.01451
v 0.06636 0.03836 -0.01451
v 0.05807 0.04667 -0.00001
v 0.05807 -0.02384 0.02281
v 0.06636 -0.00103 -0.01451
v 0.06222 -0.00310 -0.04356
v 0.05185 -0.04458 -0.01243
v 0.06222 0.04250 -0.03318
v 0.04355 -0.00310 0.02904
v 0.06222 -0.00310 0.02696
v 0.06636 0.02384 0.01037
v 0.06636 0.00932 -0.03525
v 0.04978 -0.03836 0.00829
v 0.06222 0.01762 0.02696
v 0.05185 -0.00103 -0.04148
v 0.05807 -0.04458 -0.00209
v 0.04563 0.00518 -0.03318
v 0.05599 0.01762 0.02696
v 0.05807 -0.04043 -0.03525
v 0.06222 0.01139 -0.04356
v 0.05599 0.03421 -0.03733
v 0.05185 -0.01555 0.02696
v 0.06222 0.04667 -0.02696
v 0.05599 -0.00518 -0.04356
v 0.04563 0.01762 -0.03111
v 0.06429 0.04458 -0.00209
v 0.06014 -0.03629 -0.03318
v 0.06014 -0.04250 -0.00828
v 0.05599 -0.04458 -0.02281
v 0.05599 -0.00103 0.03111
v 0.05807 -0.03213 0.01866
v 0.04770 0.00932 -0.03733
v 0.06636 0.00104 -0.00001
v 0.05392 -0.04250 0.00622
v 0.05185 -0.03421 0.01659
v 0.04978 0.01969 -0.03733
v 0.05185 -0.04250 -0.03111
v 0.06222 0.03421 -0.03733
v 0.05599 0.04667 -0.02488
v 0.05807 -0.04043 0.01037
v 0.04978 0.00518 0.03111
v 0.06636 0.00518 -0.03111
v 0.06014 -0.03006 0.01659
v 0.04978 -0.04043 0.00207
v 0.04355 -0.01140 0.01037
v 0.04978 -0.04043 -0.03111
v 0.06014 -0.00518 0.02904
v 0.06636 0.03836 -0.00416
v -0.00416 0.05289 -0.01452
v -0.05600 -0.02592 -0.01659
v -0.03318 -0.02592 -0.02074
v 0.00413 -0.03214 -0.00622
v -0.03733 0.01555 -0.00622
v -0.00001 0.00933 -0.02489
v -0.04562 0.03007 -0.01866
v -0.01660 -0.05081 -0.01866
v -0.02696 -0.04459 -0.00830
v -0.00623 0.04458 -0.00622
v -0.05185 0.03007 -0.01245
v -0.00208 0.04874 -0.02281
v 0.00413 -0.03006 -0.02074
v 0.00413 0.02591 -0.01245
v -0.02075 -0.02384 -0.00415
v -0.05600 -0.02592 -0.01245
v -0.02696 0.03214 -0.02281
v -0.03111 -0.05081 -0.01866
v -0.02696 -0.04459 -0.02074
v 0.00413 0.01968 -0.02281
v -0.02903 -0.05289 -0.01245
v -0.00001 0.05080 -0.01037
v 0.00413 0.00518 -0.00622
v -0.00831 -0.00103 -0.00415
v -0.01453 0.04874 -0.02074
v -0.02696 0.00725 -0.00415
v -0.00831 0.05080 -0.00830
v -0.01660 -0.05081 -0.01037
v 0.00413 -0.03628 -0.01659
v -0.02696 0.03214 -0.00622
v -0.02696 0.00725 -0.02281
v -0.05392 0.01555 -0.01659
v -0.00416 0.00311 -0.02489
v -0.04770 0.03007 -0.01037
v -0.03733 0.00102 -0.00622
v -0.01246 0.05080 -0.01245
v -0.00831 -0.02592 -0.00415
v -0.01038 0.04874 -0.02281
v -0.00001 0.05080 -0.01866
v -0.02903 -0.03006 -0.00622
v -0.02075 -0.04459 -0.02074
v 0.00413 -0.03628 -0.01037
v -0.05185 0.03007 -0.01452
v -0.01868 -0.05289 -0.01659
v -0.05392 0.01762 -0.01245
v 0.00413 0.02799 -0.02074
v -0.00001 0.00311 -0.02489
v -0.01246 0.05080 -0.01866
v -0.01038 0.04458 -0.00622
v -0.01038 -0.03628 -0.00622
v -0.00208 0.03422 -0.00622
v -0.03733 0.03007 -0.02074
v -0.03318 0.03628 -0.00830
v -0.03526 0.03836 -0.01866
v -0.00623 -0.01968 -0.00415
v -0.02490 -0.03628 -0.00622
v -0.02490 0.03628 -0.02281
v -0.03526 0.03836 -0.01037
v -0.02696 -0.05081 -0.01037
v 0.00413 -0.00311 -0.02281
v -0.00416 0.00933 -0.02489
v -0.04148 0.02799 -0.00830
v -0.02282 0.00933 -0.00415
v -0.00623 0.05289 -0.01659
v 0.00415 -0.00104 -0.02281
v 0.02488 -0.03007 0.00000
v 0.02073 -0.03007 0.00000
v 0.00622 0.01140 -0.01037
v 0.02281 0.00103 -0.01866
v 0.00415 -0.03422 -0.01866
v 0.02073 -0.03214 -0.01866
v 0.00415 -0.03422 -0.00830
v 0.00415 0.00103 -0.00622
v 0.00415 0.01762 -0.02281
v 0.01659 0.00725 -0.01037
v 0.02488 -0.03422 -0.01452
v 0.02696 -0.02592 -0.00622
v 0.02488 -0.03422 0.00000
v 0.01037 0.00310 -0.02281
v 0.02281 -0.00519 -0.00830
v 0.01037 -0.03007 -0.02074
v 0.01659 -0.03630 -0.01452
v 0.01244 0.01348 -0.01659
v 0.01452 0.00518 -0.00830
v 0.00415 -0.03630 -0.01037
v 0.02281 -0.02799 -0.01866
v 0.00415 0.01762 -0.01659
v 0.02696 -0.03007 -0.01037
v 0.00830 0.01555 -0.02281
v 0.02073 -0.03422 0.00000
v 0.00415 -0.03007 -0.02074
v 0.02488 -0.03007 -0.01659
v 0.01452 0.01140 -0.01244
v 0.00415 -0.00519 -0.00622
v 0.01659 -0.03630 -0.00830
v 0.02281 0.00103 -0.01659
v 0.02073 -0.00104 -0.00830
v 0.01452 -0.03422 -0.01866
v 0.00622 0.01762 -0.01659
v 0.01244 0.01348 -0.02074
v 0.00415 -0.03630 -0.01452
v 0.01244 -0.02799 -0.02074
v 0.02696 -0.02592 -0.01037
v 0.00415 0.00725 -0.00830
v 0.01659 0.00933 -0.01244
v 0.00622 0.00103 -0.00622
v 0.02488 -0.01970 -0.01659
v 0.01037 0.01140 -0.02281
v -0.02903 -0.02591 0.01452
v -0.00001 0.05081 0.00622
v -0.00624 0.04873 0.00830
v 0.04353 -0.00517 0.01867
v 0.02280 -0.03421 0.00000
v -0.06636 -0.00103 0.00622
v -0.01038 0.00725 0.01867
v -0.04976 0.05081 0.00415
v 0.04353 0.00725 0.00622
v -0.03317 -0.03421 0.00208
v -0.00208 0.05081 0.00208
v 0.02902 -0.02798 0.01659
v -0.06636 -0.01554 0.01037
v -0.03525 -0.04044 0.00622
v 0.04353 0.00932 0.01867
v -0.04976 0.05081 0.00622
v -0.03525 0.03214 0.00208
v -0.00830 -0.01554 0.01867
v -0.06429 0.00312 0.01037
v 0.04353 -0.01140 0.00830
v 0.04353 0.01554 0.01037
v -0.05392 -0.02591 0.00415
v -0.06013 -0.02798 0.01037
v -0.03733 -0.03628 0.01037
v 0.02694 -0.03214 0.01037
v 0.02488 -0.03007 0.00000
v -0.03940 -0.02591 0.00208
v -0.00624 0.00932 0.01867
v -0.06013 -0.02798 0.00622
v -0.05599 0.01762 0.01037
v -0.03525 -0.04044 0.00415
v -0.00416 -0.02591 0.01659
v -0.01244 -0.00933 0.01867
v -0.06636 -0.00103 0.01037
v 0.01451 -0.03421 0.01037
v 0.04353 -0.00933 0.00622
v 0.00829 -0.01762 0.01867
v -0.01038 0.05081 0.00208
v 0.04147 0.01554 0.01452
v -0.05184 0.03628 0.00415
v 0.03109 -0.02798 0.01452
v -0.00001 0.04873 0.00208
v -0.01452 0.04873 0.00830
v 0.02072 -0.03007 0.00000
v 0.02280 -0.03421 0.00622
v -0.03111 -0.04044 0.00622
v -0.06636 -0.01140 0.00622
v -0.01244 0.00518 0.01867
v 0.04353 0.01347 0.00830
v -0.03111 0.03835 0.00208
v -0.01452 -0.03628 0.01037
v 0.02902 -0.03007 0.00830
v -0.00208 0.01762 0.01659
v -0.03940 -0.01554 0.00208
v 0.04353 -0.00933 0.01452
v -0.06221 -0.02591 0.01037
v 0.02488 -0.03214 0.01244
v -0.01452 -0.03007 0.01452
v 0.04353 0.01554 0.01244
v -0.02488 -0.02798 0.01452
v -0.00001 0.05081 0.00415
v 0.02488 -0.03214 0.00000
v -0.06429 -0.01970 0.00622
v 0.02072 -0.02798 0.01659
v -0.02697 -0.01763 0.03526
v 0.02903 -0.00726 0.03111
v 0.02903 -0.00726 0.02696
v 0.02073 -0.02800 0.03111
v 0.00414 -0.00726 0.02282
v -0.00207 -0.00726 0.03941
v -0.02282 -0.02592 0.03319
v -0.02697 -0.00726 0.03319
v 0.02281 -0.02592 0.02696
v -0.00829 -0.02592 0.03733
v 0.02281 -0.02385 0.03319
v -0.02073 -0.00726 0.03941
v 0.01244 -0.02592 0.02696
v 0.02281 -0.00726 0.03526
v -0.02073 -0.02592 0.03733
v 0.02695 -0.00934 0.02489
v 0.00414 -0.00934 0.02282
v -0.02697 -0.01763 0.03319
v 0.02695 -0.01970 0.03111
v 0.02073 -0.01970 0.02489
v -0.00207 -0.00934 0.03941
v 0.01036 -0.02800 0.02904
v -0.02697 -0.00726 0.03733
v 0.02695 -0.01970 0.02696
v -0.02697 -0.01556 0.03733
v -0.01452 -0.01141 0.03941
v 0.01036 -0.00726 0.02282
v 0.02695 -0.01141 0.03319
v 0.02073 -0.02592 0.03319
v 0.02281 -0.00934 0.03526
v 0.02488 -0.02385 0.03111
v 0.01244 -0.01970 0.02489
v 0.00208 -0.00726 0.01867
v 0.02074 0.01970 0.03318
v 0.02074 0.01763 0.03733
v -0.02904 0.00312 0.03940
v 0.02488 -0.00726 0.03526
v 0.04355 0.00726 0.01867
v 0.00208 0.01555 0.02489
v 0.02281 0.00104 0.04356
v -0.02489 -0.00726 0.03940
v 0.04355 -0.00519 0.01867
v 0.04355 0.00312 0.02904
v -0.02904 0.00104 0.03318
v 0.02074 0.01348 0.04356
v -0.02074 0.01141 0.03733
v 0.00000 0.00312 0.01867
v 0.03525 0.01555 0.02489
v -0.02904 -0.00726 0.03318
v 0.00623 0.01970 0.02697
v -0.02489 0.00312 0.04148
v 0.04355 -0.00519 0.02697
v -0.02074 0.01141 0.03318
v 0.00416 0.01970 0.03318
v 0.03525 0.01555 0.02904
v -0.00207 -0.00519 0.04148
v 0.02902 -0.00726 0.02489
v -0.02074 -0.00519 0.04148
v 0.01658 0.01348 0.04356
v 0.01035 0.00104 0.04356
v 0.02281 0.01141 0.04356
v 0.01865 -0.00726 0.03733
v 0.03525 0.00726 0.01867
v 0.01451 0.01970 0.02697
v 0.00000 -0.00519 0.01867
v 0.04355 -0.00104 0.02904
v 0.02488 -0.00104 0.04148
v -0.02904 -0.00726 0.03733
v 0.01865 -0.00311 0.04148
v 0.00208 -0.00726 0.03940
v -0.02489 -0.00104 0.04148
v 0.04355 0.00726 0.02282
v 0.02074 0.01970 0.02904
v 0.01035 0.00726 0.04356
v -0.02904 0.00312 0.03526
v 0.00416 0.01970 0.02904
v -0.01244 0.01141 0.02904
f 253 256 268 
f 238 239 241 
f 238 241 242 
f 242 241 244 
f 242 244 248 
f 238 242 250 
f 237 243 251 
f 240 246 251 
f 244 241 253 
f 249 243 253 
f 243 237 254 
f 237 244 254 
f 244 253 254 
f 253 243 254 
f 239 238 255 
f 245 249 256 
f 242 248 257 
f 250 242 257 
f 245 240 258 
f 243 249 258 
f 249 245 258 
f 251 243 258 
f 240 251 258 
f 244 237 259 
f 248 244 259 
f 252 239 260 
f 239 255 260 
f 245 256 260 
f 256 252 260 
f 237 251 261 
f 251 248 261 
f 259 237 261 
f 248 259 261 
f 251 246 262 
f 248 251 262 
f 246 257 262 
f 257 248 262 
f 241 239 263 
f 239 252 263 
f 253 241 263 
f 252 256 263 
f 256 253 263 
f 238 250 264 
f 255 238 264 
f 247 255 264 
f 246 240 265 
f 257 246 265 
f 247 257 265 
f 257 247 266 
f 250 257 266 
f 264 250 266 
f 247 264 266 
f 240 245 267 
f 255 247 267 
f 260 255 267 
f 245 260 267 
f 265 240 267 
f 247 265 267 
f 249 253 268 
f 256 249 268 
