# Original object name hint: convex_5
v 0.05599 -0.03836 -0.03733
v 0.05599 0.00518 0.03111
v 0.06014 0.01347 0.02904
v 0.05599 0.04667 -0.03111
v 0.04355 0.00518 0.02904
v 0.06636 0.02176 -0.03525
v 0.06014 -0.03836 0.00829
v 0.04563 0.01555 -0.03318
v 0.04770 -0.03421 -0.01451
v 0.06222 0.04667 -0.00001
v 0.06636 0.00725 0.01244
v 0.05185 -0.03836 0.01244
v 0.05599 0.01139 -0.04356
v 0.06014 -0.04043 -0.02488
v 0.04978 -0.03836 -0.03525
v 0.04355 -0.01140 0.00622
v 0.04355 0.01347 0.01451
v 0.06636 0.03836 -0.01451
v 0.05807 0.04667 -0.00001
v 0.05807 -0.02384 0.02281
v 0.06636 -0.00103 -0.01451
v 0.06222 -0.00310 -0.04356
v 0.05185 -0.04458 -0.01243
v 0.06222 0.04250 -0.03318
v 0.04355 -0.00310 0.02904
v 0.06222 -0.00310 0.02696
v 0.06636 0.02384 0.01037
v 0.06636 0.00932 -0.03525
v 0.04978 -0.03836 0.00829
v 0.06222 0.01762 0.02696
v 0.05185 -0.00103 -0.04148
v 0.05807 -0.04458 -0.00209
v 0.04563 0.00518 -0.03318
v 0.05599 0.01762 0.02696
v 0.05807 -0.04043 -0.03525
v 0.06222 0.01139 -0.04356
v 0.05599 0.03421 -0.03733
v 0.05185 -0.01555 0.02696
v 0.06222 0.04667 -0.02696
v 0.05599 -0.00518 -0.04356
v 0.04563 0.01762 -0.03111
v 0.06429 0.04458 -0.00209
v 0.06014 -0.03629 -0.03318
v 0.06014 -0.04250 -0.00828
v 0.05599 -0.04458 -0.02281
v 0.05599 -0.00103 0.03111
v 0.05807 -0.03213 0.01866
v 0.04770 0.00932 -0.03733
v 0.06636 0.00104 -0.00001
v 0.05392 -0.04250 0.00622
v 0.05185 -0.03421 0.01659
v 0.04978 0.01969 -0.03733
v 0.05185 -0.04250 -0.03111
v 0.06222 0.03421 -0.03733
v 0.05599 0.04667 -0.02488
v 0.05807 -0.04043 0.01037
v 0.04978 0.00518 0.03111
v 0.06636 0.00518 -0.03111
v 0.06014 -0.03006 0.01659
v 0.04978 -0.04043 0.00207
v 0.04355 -0.01140 0.01037
v 0.04978 -0.04043 -0.03111
v 0.06014 -0.00518 0.02904
v 0.06636 0.03836 -0.00416
v -0.00416 0.05289 -0.01452
v -0.05600 -0.02592 -0.01659
v -0.03318 -0.02592 -0.02074
v 0.00413 -0.03214 -0.00622
v -0.03733 0.01555 -0.00622
v -0.00001 0.00933 -0.02489
v -0.04562 0.03007 -0.01866
v -0.01660 -0.05081 -0.01866
v -0.02696 -0.04459 -0.00830
v -0.00623 0.04458 -0.00622
v -0.05185 0.03007 -0.01245
v -0.00208 0.04874 -0.02281
v 0.00413 -0.03006 -0.02074
v 0.00413 0.02591 -0.01245
v -0.02075 -0.02384 -0.00415
v -0.05600 -0.02592 -0.01245
v -0.02696 0.03214 -0.02281
v -0.03111 -0.05081 -0.01866
v -0.02696 -0.04459 -0.02074
v 0.00413 0.01968 -0.02281
v -0.02903 -0.05289 -0.01245
v -0.00001 0.05080 -0.01037
v 0.00413 0.00518 -0.00622
v -0.00831 -0.00103 -0.00415
v -0.01453 0.04874 -0.02074
v -0.02696 0.00725 -0.00415
v -0.00831 0.05080 -0.00830
v -0.01660 -0.05081 -0.01037
v 0.00413 -0.03628 -0.01659
v -0.02696 0.03214 -0.00622
v -0.02696 0.00725 -0.02281
v -0.05392 0.01555 -0.01659
v -0.00416 0.00311 -0.02489
v -0.04770 0.03007 -0.01037
v -0.03733 0.00102 -0.00622
v -0.01246 0.05080 -0.01245
v -0.00831 -0.02592 -0.00415
v -0.01038 0.04874 -0.02281
v -0.00001 0.05080 -0.01866
v -0.02903 -0.03006 -0.00622
v -0.02075 -0.04459 -0.02074
v 0.00413 -0.03628 -0.01037
v -0.05185 0.03007 -0.01452
v -0.01868 -0.05289 -0.01659
v -0.05392 0.01762 -0.01245
v 0.00413 0.02799 -0.02074
v -0.00001 0.00311 -0.02489
v -0.01246 0.05080 -0.01866
v -0.01038 0.04458 -0.00622
v -0.01038 -0.03628 -0.00622
v -0.00208 0.03422 -0.00622
v -0.03733 0.03007 -0.02074
v -0.03318 0.03628 -0.00830
v -0.03526 0.03836 -0.01866
v -0.00623 -0.01968 -0.00415
v -0.02490 -0.03628 -0.00622
v -0.02490 0.03628 -0.02281
v -0.03526 0.03836 -0.01037
v -0.02696 -0.05081 -0.01037
v 0.00413 -0.00311 -0.02281
v -0.00416 0.00933 -0.02489
v -0.04148 0.02799 -0.00830
v -0.02282 0.00933 -0.00415
v -0.00623 0.05289 -0.01659
v 0.00415 -0.00104 -0.02281
v 0.02488 -0.03007 0.00000
v 0.02073 -0.03007 0.00000
v 0.00622 0.01140 -0.01037
v 0.02281 0.00103 -0.01866
v 0.00415 -0.03422 -0.01866
v 0.02073 -0.03214 -0.01866
v 0.00415 -0.03422 -0.00830
v 0.00415 0.00103 -0.00622
v 0.00415 0.01762 -0.02281
v 0.01659 0.00725 -0.01037
v 0.02488 -0.03422 -0.01452
v 0.02696 -0.02592 -0.00622
v 0.02488 -0.03422 0.00000
v 0.01037 0.00310 -0.02281
v 0.02281 -0.00519 -0.00830
v 0.01037 -0.03007 -0.02074
v 0.01659 -0.03630 -0.01452
v 0.01244 0.01348 -0.01659
v 0.01452 0.00518 -0.00830
v 0.00415 -0.03630 -0.01037
v 0.02281 -0.02799 -0.01866
v 0.00415 0.01762 -0.01659
v 0.02696 -0.03007 -0.01037
v 0.00830 0.01555 -0.02281
v 0.02073 -0.03422 0.00000
v 0.00415 -0.03007 -0.02074
v 0.02488 -0.03007 -0.01659
v 0.01452 0.01140 -0.01244
v 0.00415 -0.00519 -0.00622
v 0.01659 -0.03630 -0.00830
v 0.02281 0.00103 -0.01659
v 0.02073 -0.00104 -0.00830
v 0.01452 -0.03422 -0.01866
v 0.00622 0.01762 -0.01659
v 0.01244 0.01348 -0.02074
v 0.00415 -0.03630 -0.01452
v 0.01244 -0.02799 -0.02074
v 0.02696 -0.02592 -0.01037
v 0.00415 0.00725 -0.00830
v 0.01659 0.00933 -0.01244
v 0.00622 0.00103 -0.00622
v 0.02488 -0.01970 -0.01659
v 0.01037 0.01140 -0.02281
v -0.02903 -0.02591 0.01452
v -0.00001 0.05081 0.00622
v -0.00624 0.04873 0.00830
v 0.04353 -0.00517 0.01867
v 0.02280 -0.03421 0.00000
v -0.06636 -0.00103 0.00622
v -0.01038 0.00725 0.01867
v -0.04976 0.05081 0.00415
v 0.04353 0.00725 0.00622
v -0.03317 -0.03421 0.00208
v -0.00208 0.05081 0.00208
v 0.02902 -0.02798 0.01659
v -0.06636 -0.01554 0.01037
v -0.03525 -0.04044 0.00622
v 0.04353 0.00932 0.01867
v -0.04976 0.05081 0.00622
v -0.03525 0.03214 0.00208
v -0.00830 -0.01554 0.01867
v -0.06429 0.00312 0.01037
v 0.04353 -0.01140 0.00830
v 0.04353 0.01554 0.01037
v -0.05392 -0.02591 0.00415
v -0.06013 -0.02798 0.01037
v -0.03733 -0.03628 0.01037
v 0.02694 -0.03214 0.01037
v 0.02488 -0.03007 0.00000
v -0.03940 -0.02591 0.00208
v -0.00624 0.00932 0.01867
v -0.06013 -0.02798 0.00622
v -0.05599 0.01762 0.01037
v -0.03525 -0.04044 0.00415
v -0.00416 -0.02591 0.01659
v -0.01244 -0.00933 0.01867
v -0.06636 -0.00103 0.01037
v 0.01451 -0.03421 0.01037
v 0.04353 -0.00933 0.00622
v 0.00829 -0.01762 0.01867
v -0.01038 0.05081 0.00208
v 0.04147 0.01554 0.01452
v -0.05184 0.03628 0.00415
v 0.03109 -0.02798 0.01452
v -0.00001 0.04873 0.00208
v -0.01452 0.04873 0.00830
v 0.02072 -0.03007 0.00000
v 0.02280 -0.03421 0.00622
v -0.03111 -0.04044 0.00622
v -0.06636 -0.01140 0.00622
v -0.01244 0.00518 0.01867
v 0.04353 0.01347 0.00830
v -0.03111 0.03835 0.00208
v -0.01452 -0.03628 0.01037
v 0.02902 -0.03007 0.00830
v -0.00208 0.01762 0.01659
v -0.03940 -0.01554 0.00208
v 0.04353 -0.00933 0.01452
v -0.06221 -0.02591 0.01037
v 0.02488 -0.03214 0.01244
v -0.01452 -0.03007 0.01452
v 0.04353 0.01554 0.01244
v -0.02488 -0.02798 0.01452
v -0.00001 0.05081 0.00415
v 0.02488 -0.03214 0.00000
v -0.06429 -0.01970 0.00622
v 0.02072 -0.02798 0.01659
v -0.02697 -0.01763 0.03526
v 0.02903 -0.00726 0.03111
v 0.02903 -0.00726 0.02696
v 0.02073 -0.02800 0.03111
v 0.00414 -0.00726 0.02282
v -0.00207 -0.00726 0.03941
v -0.02282 -0.02592 0.03319
v -0.02697 -0.00726 0.03319
v 0.02281 -0.02592 0.02696
v -0.00829 -0.02592 0.03733
v 0.02281 -0.02385 0.03319
v -0.02073 -0.00726 0.03941
v 0.01244 -0.02592 0.02696
v 0.02281 -0.00726 0.03526
v -0.02073 -0.02592 0.03733
v 0.02695 -0.00934 0.02489
v 0.00414 -0.00934 0.02282
v -0.02697 -0.01763 0.03319
v 0.02695 -0.01970 0.03111
v 0.02073 -0.01970 0.02489
v -0.00207 -0.00934 0.03941
v 0.01036 -0.02800 0.02904
v -0.02697 -0.00726 0.03733
v 0.02695 -0.01970 0.02696
v -0.02697 -0.01556 0.03733
v -0.01452 -0.01141 0.03941
v 0.01036 -0.00726 0.02282
v 0.02695 -0.01141 0.03319
v 0.02073 -0.02592 0.03319
v 0.02281 -0.00934 0.03526
v 0.02488 -0.02385 0.03111
v 0.01244 -0.01970 0.02489
v 0.00208 -0.00726 0.01867
v 0.02074 0.01970 0.03318
v 0.02074 0.01763 0.03733
v -0.02904 0.00312 0.03940
v 0.02488 -0.00726 0.03526
v 0.04355 0.00726 0.01867
v 0.00208 0.01555 0.02489
v 0.02281 0.00104 0.04356
v -0.02489 -0.00726 0.03940
v 0.04355 -0.00519 0.01867
v 0.04355 0.00312 0.02904
v -0.02904 0.00104 0.03318
v 0.02074 0.01348 0.04356
v -0.02074 0.01141 0.03733
v 0.00000 0.00312 0.01867
v 0.03525 0.01555 0.02489
v -0.02904 -0.00726 0.03318
v 0.00623 0.01970 0.02697
v -0.02489 0.00312 0.04148
v 0.04355 -0.00519 0.02697
v -0.02074 0.01141 0.03318
v 0.00416 0.01970 0.03318
v 0.03525 0.01555 0.02904
v -0.00207 -0.00519 0.04148
v 0.02902 -0.00726 0.02489
v -0.02074 -0.00519 0.04148
v 0.01658 0.01348 0.04356
v 0.01035 0.00104 0.04356
v 0.02281 0.01141 0.04356
v 0.01865 -0.00726 0.03733
v 0.03525 0.00726 0.01867
v 0.01451 0.01970 0.02697
v 0.00000 -0.00519 0.01867
v 0.04355 -0.00104 0.02904
v 0.02488 -0.00104 0.04148
v -0.02904 -0.00726 0.03733
v 0.01865 -0.00311 0.04148
v 0.00208 -0.00726 0.03940
v -0.02489 -0.00104 0.04148
v 0.04355 0.00726 0.02282
v 0.02074 0.01970 0.02904
v 0.01035 0.00726 0.04356
v -0.02904 0.00312 0.03526
v 0.00416 0.01970 0.02904
v -0.01244 0.01141 0.02904
f 283 289 313 
f 269 273 277 
f 269 274 278 
f 278 274 279 
f 274 269 283 
f 269 277 285 
f 272 280 285 
f 280 283 285 
f 282 272 287 
f 278 279 288 
f 272 282 289 
f 283 280 289 
f 286 275 289 
f 271 270 290 
f 270 286 290 
f 289 282 290 
f 270 271 291 
f 271 281 291 
f 284 270 291 
f 274 284 291 
f 273 269 293 
f 269 278 293 
f 288 273 293 
f 278 288 293 
f 292 276 294 
f 277 292 294 
f 281 271 295 
f 276 281 295 
f 282 287 295 
f 271 290 295 
f 290 282 295 
f 294 276 296 
f 276 295 296 
f 276 279 297 
f 281 276 297 
f 279 291 297 
f 291 281 297 
f 277 273 298 
f 274 283 299 
f 283 275 299 
f 286 274 299 
f 275 286 299 
f 284 274 300 
f 274 286 300 
f 286 270 300 
f 283 269 301 
f 269 285 301 
f 285 283 301 
f 279 276 302 
f 288 279 302 
f 288 302 303 
f 273 288 303 
f 298 273 303 
f 302 276 303 
f 285 277 304 
f 272 285 304 
f 276 292 305 
f 298 303 305 
f 303 276 305 
f 292 277 306 
f 277 298 306 
f 305 292 306 
f 298 305 306 
f 287 272 307 
f 277 294 307 
f 296 287 307 
f 294 296 307 
f 272 304 307 
f 304 277 307 
f 279 274 308 
f 274 291 308 
f 291 279 308 
f 270 284 309 
f 300 270 309 
f 284 300 309 
f 295 287 310 
f 287 296 310 
f 296 295 310 
f 280 272 311 
f 272 289 311 
f 289 280 311 
f 286 289 312 
f 290 286 312 
f 289 290 312 
f 275 283 313 
f 289 275 313 
