# Original object name hint: convex_1
v 0.05599 -0.03836 -0.03733
v 0.05599 0.00518 0.03111
v 0.06014 0.01347 0.02904
v 0.05599 0.04667 -0.03111
v 0.04355 0.00518 0.02904
v 0.06636 0.02176 -0.03525
v 0.06014 -0.03836 0.00829
v 0.04563 0.01555 -0.03318
v 0.04770 -0.03421 -0.01451
v 0.06222 0.04667 -0.00001
v 0.06636 0.00725 0.01244
v 0.05185 -0.03836 0.01244
v 0.05599 0.01139 -0.04356
v 0.06014 -0.04043 -0.02488
v 0.04978 -0.03836 -0.03525
v 0.04355 -0.01140 0.00622
v 0.04355 0.01347 0.01451
v 0.06636 0.03836 -0.01451
v 0.05807 0.04667 -0.00001
v 0.05807 -0.02384 0.02281
v 0.06636 -0.00103 -0.01451
v 0.06222 -0.00310 -0.04356
v 0.05185 -0.04458 -0.01243
v 0.06222 0.04250 -0.03318
v 0.04355 -0.00310 0.02904
v 0.06222 -0.00310 0.02696
v 0.06636 0.02384 0.01037
v 0.06636 0.00932 -0.03525
v 0.04978 -0.03836 0.00829
v 0.06222 0.01762 0.02696
v 0.05185 -0.00103 -0.04148
v 0.05807 -0.04458 -0.00209
v 0.04563 0.00518 -0.03318
v 0.05599 0.01762 0.02696
v 0.05807 -0.04043 -0.03525
v 0.06222 0.01139 -0.04356
v 0.05599 0.03421 -0.03733
v 0.05185 -0.01555 0.02696
v 0.06222 0.04667 -0.02696
v 0.05599 -0.00518 -0.04356
v 0.04563 0.01762 -0.03111
v 0.06429 0.04458 -0.00209
v 0.06014 -0.03629 -0.03318
v 0.06014 -0.04250 -0.00828
v 0.05599 -0.04458 -0.02281
v 0.05599 -0.00103 0.03111
v 0.05807 -0.03213 0.01866
v 0.04770 0.00932 -0.03733
v 0.06636 0.00104 -0.00001
v 0.05392 -0.04250 0.00622
v 0.05185 -0.03421 0.01659
v 0.04978 0.01969 -0.03733
v 0.05185 -0.04250 -0.03111
v 0.06222 0.03421 -0.03733
v 0.05599 0.04667 -0.02488
v 0.05807 -0.04043 0.01037
v 0.04978 0.00518 0.03111
v 0.06636 0.00518 -0.03111
v 0.06014 -0.03006 0.01659
v 0.04978 -0.04043 0.00207
v 0.04355 -0.01140 0.01037
v 0.04978 -0.04043 -0.03111
v 0.06014 -0.00518 0.02904
v 0.06636 0.03836 -0.00416
v -0.00416 0.05289 -0.01452
v -0.05600 -0.02592 -0.01659
v -0.03318 -0.02592 -0.02074
v 0.00413 -0.03214 -0.00622
v -0.03733 0.01555 -0.00622
v -0.00001 0.00933 -0.02489
v -0.04562 0.03007 -0.01866
v -0.01660 -0.05081 -0.01866
v -0.02696 -0.04459 -0.00830
v -0.00623 0.04458 -0.00622
v -0.05185 0.03007 -0.01245
v -0.00208 0.04874 -0.02281
v 0.00413 -0.03006 -0.02074
v 0.00413 0.02591 -0.01245
v -0.02075 -0.02384 -0.00415
v -0.05600 -0.02592 -0.01245
v -0.02696 0.03214 -0.02281
v -0.03111 -0.05081 -0.01866
v -0.02696 -0.04459 -0.02074
v 0.00413 0.01968 -0.02281
v -0.02903 -0.05289 -0.01245
v -0.00001 0.05080 -0.01037
v 0.00413 0.00518 -0.00622
v -0.00831 -0.00103 -0.00415
v -0.01453 0.04874 -0.02074
v -0.02696 0.00725 -0.00415
v -0.00831 0.05080 -0.00830
v -0.01660 -0.05081 -0.01037
v 0.00413 -0.03628 -0.01659
v -0.02696 0.03214 -0.00622
v -0.02696 0.00725 -0.02281
v -0.05392 0.01555 -0.01659
v -0.00416 0.00311 -0.02489
v -0.04770 0.03007 -0.01037
v -0.03733 0.00102 -0.00622
v -0.01246 0.05080 -0.01245
v -0.00831 -0.02592 -0.00415
v -0.01038 0.04874 -0.02281
v -0.00001 0.05080 -0.01866
v -0.02903 -0.03006 -0.00622
v -0.02075 -0.04459 -0.02074
v 0.00413 -0.03628 -0.01037
v -0.05185 0.03007 -0.01452
v -0.01868 -0.05289 -0.01659
v -0.05392 0.01762 -0.01245
v 0.00413 0.02799 -0.02074
v -0.00001 0.00311 -0.02489
v -0.01246 0.05080 -0.01866
v -0.01038 0.04458 -0.00622
v -0.01038 -0.03628 -0.00622
v -0.00208 0.03422 -0.00622
v -0.03733 0.03007 -0.02074
v -0.03318 0.03628 -0.00830
v -0.03526 0.03836 -0.01866
v -0.00623 -0.01968 -0.00415
v -0.02490 -0.03628 -0.00622
v -0.02490 0.03628 -0.02281
v -0.03526 0.03836 -0.01037
v -0.02696 -0.05081 -0.01037
v 0.00413 -0.00311 -0.02281
v -0.00416 0.00933 -0.02489
v -0.04148 0.02799 -0.00830
v -0.02282 0.00933 -0.00415
v -0.00623 0.05289 -0.01659
v 0.00415 -0.00104 -0.02281
v 0.02488 -0.03007 0.00000
v 0.02073 -0.03007 0.00000
v 0.00622 0.01140 -0.01037
v 0.02281 0.00103 -0.01866
v 0.00415 -0.03422 -0.01866
v 0.02073 -0.03214 -0.01866
v 0.00415 -0.03422 -0.00830
v 0.00415 0.00103 -0.00622
v 0.00415 0.01762 -0.02281
v 0.01659 0.00725 -0.01037
v 0.02488 -0.03422 -0.01452
v 0.02696 -0.02592 -0.00622
v 0.02488 -0.03422 0.00000
v 0.01037 0.00310 -0.02281
v 0.02281 -0.00519 -0.00830
v 0.01037 -0.03007 -0.02074
v 0.01659 -0.03630 -0.01452
v 0.01244 0.01348 -0.01659
v 0.01452 0.00518 -0.00830
v 0.00415 -0.03630 -0.01037
v 0.02281 -0.02799 -0.01866
v 0.00415 0.01762 -0.01659
v 0.02696 -0.03007 -0.01037
v 0.00830 0.01555 -0.02281
v 0.02073 -0.03422 0.00000
v 0.00415 -0.03007 -0.02074
v 0.02488 -0.03007 -0.01659
v 0.01452 0.01140 -0.01244
v 0.00415 -0.00519 -0.00622
v 0.01659 -0.03630 -0.00830
v 0.02281 0.00103 -0.01659
v 0.02073 -0.00104 -0.00830
v 0.01452 -0.03422 -0.01866
v 0.00622 0.01762 -0.01659
v 0.01244 0.01348 -0.02074
v 0.00415 -0.03630 -0.01452
v 0.01244 -0.02799 -0.02074
v 0.02696 -0.02592 -0.01037
v 0.00415 0.00725 -0.00830
v 0.01659 0.00933 -0.01244
v 0.00622 0.00103 -0.00622
v 0.02488 -0.01970 -0.01659
v 0.01037 0.01140 -0.02281
v -0.02903 -0.02591 0.01452
v -0.00001 0.05081 0.00622
v -0.00624 0.04873 0.00830
v 0.04353 -0.00517 0.01867
v 0.02280 -0.03421 0.00000
v -0.06636 -0.00103 0.00622
v -0.01038 0.00725 0.01867
v -0.04976 0.05081 0.00415
v 0.04353 0.00725 0.00622
v -0.03317 -0.03421 0.00208
v -0.00208 0.05081 0.00208
v 0.02902 -0.02798 0.01659
v -0.06636 -0.01554 0.01037
v -0.03525 -0.04044 0.00622
v 0.04353 0.00932 0.01867
v -0.04976 0.05081 0.00622
v -0.03525 0.03214 0.00208
v -0.00830 -0.01554 0.01867
v -0.06429 0.00312 0.01037
v 0.04353 -0.01140 0.00830
v 0.04353 0.01554 0.01037
v -0.05392 -0.02591 0.00415
v -0.06013 -0.02798 0.01037
v -0.03733 -0.03628 0.01037
v 0.02694 -0.03214 0.01037
v 0.02488 -0.03007 0.00000
v -0.03940 -0.02591 0.00208
v -0.00624 0.00932 0.01867
v -0.06013 -0.02798 0.00622
v -0.05599 0.01762 0.01037
v -0.03525 -0.04044 0.00415
v -0.00416 -0.02591 0.01659
v -0.01244 -0.00933 0.01867
v -0.06636 -0.00103 0.01037
v 0.01451 -0.03421 0.01037
v 0.04353 -0.00933 0.00622
v 0.00829 -0.01762 0.01867
v -0.01038 0.05081 0.00208
v 0.04147 0.01554 0.01452
v -0.05184 0.03628 0.00415
v 0.03109 -0.02798 0.01452
v -0.00001 0.04873 0.00208
v -0.01452 0.04873 0.00830
v 0.02072 -0.03007 0.00000
v 0.02280 -0.03421 0.00622
v -0.03111 -0.04044 0.00622
v -0.06636 -0.01140 0.00622
v -0.01244 0.00518 0.01867
v 0.04353 0.01347 0.00830
v -0.03111 0.03835 0.00208
v -0.01452 -0.03628 0.01037
v 0.02902 -0.03007 0.00830
v -0.00208 0.01762 0.01659
v -0.03940 -0.01554 0.00208
v 0.04353 -0.00933 0.01452
v -0.06221 -0.02591 0.01037
v 0.02488 -0.03214 0.01244
v -0.01452 -0.03007 0.01452
v 0.04353 0.01554 0.01244
v -0.02488 -0.02798 0.01452
v -0.00001 0.05081 0.00415
v 0.02488 -0.03214 0.00000
v -0.06429 -0.01970 0.00622
v 0.02072 -0.02798 0.01659
v -0.02697 -0.01763 0.03526
v 0.02903 -0.00726 0.03111
v 0.02903 -0.00726 0.02696
v 0.02073 -0.02800 0.03111
v 0.00414 -0.00726 0.02282
v -0.00207 -0.00726 0.03941
v -0.02282 -0.02592 0.03319
v -0.02697 -0.00726 0.03319
v 0.02281 -0.02592 0.02696
v -0.00829 -0.02592 0.03733
v 0.02281 -0.02385 0.03319
v -0.02073 -0.00726 0.03941
v 0.01244 -0.02592 0.02696
v 0.02281 -0.00726 0.03526
v -0.02073 -0.02592 0.03733
v 0.02695 -0.00934 0.02489
v 0.00414 -0.00934 0.02282
v -0.02697 -0.01763 0.03319
v 0.02695 -0.01970 0.03111
v 0.02073 -0.01970 0.02489
v -0.00207 -0.00934 0.03941
v 0.01036 -0.02800 0.02904
v -0.02697 -0.00726 0.03733
v 0.02695 -0.01970 0.02696
v -0.02697 -0.01556 0.03733
v -0.01452 -0.01141 0.03941
v 0.01036 -0.00726 0.02282
v 0.02695 -0.01141 0.03319
v 0.02073 -0.02592 0.03319
v 0.02281 -0.00934 0.03526
v 0.02488 -0.02385 0.03111
v 0.01244 -0.01970 0.02489
v 0.00208 -0.00726 0.01867
v 0.02074 0.01970 0.03318
v 0.02074 0.01763 0.03733
v -0.02904 0.00312 0.03940
v 0.02488 -0.00726 0.03526
v 0.04355 0.00726 0.01867
v 0.00208 0.01555 0.02489
v 0.02281 0.00104 0.04356
v -0.02489 -0.00726 0.03940
v 0.04355 -0.00519 0.01867
v 0.04355 0.00312 0.02904
v -0.02904 0.00104 0.03318
v 0.02074 0.01348 0.04356
v -0.02074 0.01141 0.03733
v 0.00000 0.00312 0.01867
v 0.03525 0.01555 0.02489
v -0.02904 -0.00726 0.03318
v 0.00623 0.01970 0.02697
v -0.02489 0.00312 0.04148
v 0.04355 -0.00519 0.02697
v -0.02074 0.01141 0.03318
v 0.00416 0.01970 0.03318
v 0.03525 0.01555 0.02904
v -0.00207 -0.00519 0.04148
v 0.02902 -0.00726 0.02489
v -0.02074 -0.00519 0.04148
v 0.01658 0.01348 0.04356
v 0.01035 0.00104 0.04356
v 0.02281 0.01141 0.04356
v 0.01865 -0.00726 0.03733
v 0.03525 0.00726 0.01867
v 0.01451 0.01970 0.02697
v 0.00000 -0.00519 0.01867
v 0.04355 -0.00104 0.02904
v 0.02488 -0.00104 0.04148
v -0.02904 -0.00726 0.03733
v 0.01865 -0.00311 0.04148
v 0.00208 -0.00726 0.03940
v -0.02489 -0.00104 0.04148
v 0.04355 0.00726 0.02282
v 0.02074 0.01970 0.02904
v 0.01035 0.00726 0.04356
v -0.02904 0.00312 0.03526
v 0.00416 0.01970 0.02904
v -0.01244 0.01141 0.02904
f 102 112 128 
f 68 77 78 
f 66 67 83 
f 82 66 83 
f 72 82 83 
f 70 76 84 
f 78 77 84 
f 80 66 85 
f 66 82 85 
f 68 78 87 
f 78 86 87 
f 79 88 90 
f 86 65 91 
f 74 86 91 
f 77 68 93 
f 72 77 93 
f 69 90 94 
f 67 66 95 
f 83 67 95 
f 71 66 96 
f 95 81 97 
f 83 95 97 
f 69 80 99 
f 90 69 99 
f 79 90 99 
f 91 65 100 
f 88 79 101 
f 76 70 102 
f 65 86 103 
f 99 80 104 
f 79 99 104 
f 77 72 105 
f 72 83 105 
f 83 97 105 
f 68 92 106 
f 93 68 106 
f 71 96 107 
f 75 100 107 
f 82 72 108 
f 85 82 108 
f 92 85 108 
f 72 93 108 
f 106 92 108 
f 93 106 108 
f 66 80 109 
f 80 69 109 
f 96 66 109 
f 98 75 109 
f 69 98 109 
f 107 96 109 
f 75 107 109 
f 84 76 110 
f 78 84 110 
f 86 78 110 
f 76 103 110 
f 103 86 110 
f 70 84 111 
f 97 70 111 
f 77 105 111 
f 105 97 111 
f 102 89 112 
f 107 100 112 
f 74 91 113 
f 94 90 113 
f 92 68 114 
f 73 92 114 
f 68 101 114 
f 86 74 115 
f 87 86 115 
f 74 88 115 
f 88 87 115 
f 66 71 116 
f 95 66 116 
f 81 95 116 
f 113 91 117 
f 94 113 117 
f 102 71 118 
f 89 102 118 
f 71 107 118 
f 112 89 118 
f 107 112 118 
f 68 87 119 
f 87 88 119 
f 101 68 119 
f 88 101 119 
f 80 73 120 
f 101 79 120 
f 79 104 120 
f 104 80 120 
f 73 114 120 
f 114 101 120 
f 71 102 121 
f 116 71 121 
f 81 116 121 
f 75 98 122 
f 100 75 122 
f 91 100 122 
f 117 91 122 
f 98 117 122 
f 73 80 123 
f 80 85 123 
f 92 73 123 
f 85 92 123 
f 84 77 124 
f 111 84 124 
f 77 111 124 
f 70 97 125 
f 97 81 125 
f 102 70 125 
f 81 121 125 
f 121 102 125 
f 69 94 126 
f 98 69 126 
f 117 98 126 
f 94 117 126 
f 88 74 127 
f 90 88 127 
f 74 113 127 
f 113 90 127 
f 100 65 128 
f 76 102 128 
f 65 103 128 
f 103 76 128 
f 112 100 128 
