# Original object name hint: convex_2
v 0.05599 -0.03836 -0.03733
v 0.05599 0.00518 0.03111
v 0.06014 0.01347 0.02904
v 0.05599 0.04667 -0.03111
v 0.04355 0.00518 0.02904
v 0.06636 0.02176 -0.03525
v 0.06014 -0.03836 0.00829
v 0.04563 0.01555 -0.03318
v 0.04770 -0.03421 -0.01451
v 0.06222 0.04667 -0.00001
v 0.06636 0.00725 0.01244
v 0.05185 -0.03836 0.01244
v 0.05599 0.01139 -0.04356
v 0.06014 -0.04043 -0.02488
v 0.04978 -0.03836 -0.03525
v 0.04355 -0.01140 0.00622
v 0.04355 0.01347 0.01451
v 0.06636 0.03836 -0.01451
v 0.05807 0.04667 -0.00001
v 0.05807 -0.02384 0.02281
v 0.06636 -0.00103 -0.01451
v 0.06222 -0.00310 -0.04356
v 0.05185 -0.04458 -0.01243
v 0.06222 0.04250 -0.03318
v 0.04355 -0.00310 0.02904
v 0.06222 -0.00310 0.02696
v 0.06636 0.02384 0.01037
v 0.06636 0.00932 -0.03525
v 0.04978 -0.03836 0.00829
v 0.06222 0.01762 0.02696
v 0.05185 -0.00103 -0.04148
v 0.05807 -0.04458 -0.00209
v 0.04563 0.00518 -0.03318
v 0.05599 0.01762 0.02696
v 0.05807 -0.04043 -0.03525
v 0.06222 0.01139 -0.04356
v 0.05599 0.03421 -0.03733
v 0.05185 -0.01555 0.02696
v 0.06222 0.04667 -0.02696
v 0.05599 -0.00518 -0.04356
v 0.04563 0.01762 -0.03111
v 0.06429 0.04458 -0.00209
v 0.06014 -0.03629 -0.03318
v 0.06014 -0.04250 -0.00828
v 0.05599 -0.04458 -0.02281
v 0.05599 -0.00103 0.03111
v 0.05807 -0.03213 0.01866
v 0.04770 0.00932 -0.03733
v 0.06636 0.00104 -0.00001
v 0.05392 -0.04250 0.00622
v 0.05185 -0.03421 0.01659
v 0.04978 0.01969 -0.03733
v 0.05185 -0.04250 -0.03111
v 0.06222 0.03421 -0.03733
v 0.05599 0.04667 -0.02488
v 0.05807 -0.04043 0.01037
v 0.04978 0.00518 0.03111
v 0.06636 0.00518 -0.03111
v 0.06014 -0.03006 0.01659
v 0.04978 -0.04043 0.00207
v 0.04355 -0.01140 0.01037
v 0.04978 -0.04043 -0.03111
v 0.06014 -0.00518 0.02904
v 0.06636 0.03836 -0.00416
v -0.00416 0.05289 -0.01452
v -0.05600 -0.02592 -0.01659
v -0.03318 -0.02592 -0.02074
v 0.00413 -0.03214 -0.00622
v -0.03733 0.01555 -0.00622
v -0.00001 0.00933 -0.02489
v -0.04562 0.03007 -0.01866
v -0.01660 -0.05081 -0.01866
v -0.02696 -0.04459 -0.00830
v -0.00623 0.04458 -0.00622
v -0.05185 0.03007 -0.01245
v -0.00208 0.04874 -0.02281
v 0.00413 -0.03006 -0.02074
v 0.00413 0.02591 -0.01245
v -0.02075 -0.02384 -0.00415
v -0.05600 -0.02592 -0.01245
v -0.02696 0.03214 -0.02281
v -0.03111 -0.05081 -0.01866
v -0.02696 -0.04459 -0.02074
v 0.00413 0.01968 -0.02281
v -0.02903 -0.05289 -0.01245
v -0.00001 0.05080 -0.01037
v 0.00413 0.00518 -0.00622
v -0.00831 -0.00103 -0.00415
v -0.01453 0.04874 -0.02074
v -0.02696 0.00725 -0.00415
v -0.00831 0.05080 -0.00830
v -0.01660 -0.05081 -0.01037
v 0.00413 -0.03628 -0.01659
v -0.02696 0.03214 -0.00622
v -0.02696 0.00725 -0.02281
v -0.05392 0.01555 -0.01659
v -0.00416 0.00311 -0.02489
v -0.04770 0.03007 -0.01037
v -0.03733 0.00102 -0.00622
v -0.01246 0.05080 -0.01245
v -0.00831 -0.02592 -0.00415
v -0.01038 0.04874 -0.02281
v -0.00001 0.05080 -0.01866
v -0.02903 -0.03006 -0.00622
v -0.02075 -0.04459 -0.02074
v 0.00413 -0.03628 -0.01037
v -0.05185 0.03007 -0.01452
v -0.01868 -0.05289 -0.01659
v -0.05392 0.01762 -0.01245
v 0.00413 0.02799 -0.02074
v -0.00001 0.00311 -0.02489
v -0.01246 0.05080 -0.01866
v -0.01038 0.04458 -0.00622
v -0.01038 -0.03628 -0.00622
v -0.00208 0.03422 -0.00622
v -0.03733 0.03007 -0.02074
v -0.03318 0.03628 -0.00830
v -0.03526 0.03836 -0.01866
v -0.00623 -0.01968 -0.00415
v -0.02490 -0.03628 -0.00622
v -0.02490 0.03628 -0.02281
v -0.03526 0.03836 -0.01037
v -0.02696 -0.05081 -0.01037
v 0.00413 -0.00311 -0.02281
v -0.00416 0.00933 -0.02489
v -0.04148 0.02799 -0.00830
v -0.02282 0.00933 -0.00415
v -0.00623 0.05289 -0.01659
v 0.00415 -0.00104 -0.02281
v 0.02488 -0.03007 0.00000
v 0.02073 -0.03007 0.00000
v 0.00622 0.01140 -0.01037
v 0.02281 0.00103 -0.01866
v 0.00415 -0.03422 -0.01866
v 0.02073 -0.03214 -0.01866
v 0.00415 -0.03422 -0.00830
v 0.00415 0.00103 -0.00622
v 0.00415 0.01762 -0.02281
v 0.01659 0.00725 -0.01037
v 0.02488 -0.03422 -0.01452
v 0.02696 -0.02592 -0.00622
v 0.02488 -0.03422 0.00000
v 0.01037 0.00310 -0.02281
v 0.02281 -0.00519 -0.00830
v 0.01037 -0.03007 -0.02074
v 0.01659 -0.03630 -0.01452
v 0.01244 0.01348 -0.01659
v 0.01452 0.00518 -0.00830
v 0.00415 -0.03630 -0.01037
v 0.02281 -0.02799 -0.01866
v 0.00415 0.01762 -0.01659
v 0.02696 -0.03007 -0.01037
v 0.00830 0.01555 -0.02281
v 0.02073 -0.03422 0.00000
v 0.00415 -0.03007 -0.02074
v 0.02488 -0.03007 -0.01659
v 0.01452 0.01140 -0.01244
v 0.00415 -0.00519 -0.00622
v 0.01659 -0.03630 -0.00830
v 0.02281 0.00103 -0.01659
v 0.02073 -0.00104 -0.00830
v 0.01452 -0.03422 -0.01866
v 0.00622 0.01762 -0.01659
v 0.01244 0.01348 -0.02074
v 0.00415 -0.03630 -0.01452
v 0.01244 -0.02799 -0.02074
v 0.02696 -0.02592 -0.01037
v 0.00415 0.00725 -0.00830
v 0.01659 0.00933 -0.01244
v 0.00622 0.00103 -0.00622
v 0.02488 -0.01970 -0.01659
v 0.01037 0.01140 -0.02281
v -0.02903 -0.02591 0.01452
v -0.00001 0.05081 0.00622
v -0.00624 0.04873 0.00830
v 0.04353 -0.00517 0.01867
v 0.02280 -0.03421 0.00000
v -0.06636 -0.00103 0.00622
v -0.01038 0.00725 0.01867
v -0.04976 0.05081 0.00415
v 0.04353 0.00725 0.00622
v -0.03317 -0.03421 0.00208
v -0.00208 0.05081 0.00208
v 0.02902 -0.02798 0.01659
v -0.06636 -0.01554 0.01037
v -0.03525 -0.04044 0.00622
v 0.04353 0.00932 0.01867
v -0.04976 0.05081 0.00622
v -0.03525 0.03214 0.00208
v -0.00830 -0.01554 0.01867
v -0.06429 0.00312 0.01037
v 0.04353 -0.01140 0.00830
v 0.04353 0.01554 0.01037
v -0.05392 -0.02591 0.00415
v -0.06013 -0.02798 0.01037
v -0.03733 -0.03628 0.01037
v 0.02694 -0.03214 0.01037
v 0.02488 -0.03007 0.00000
v -0.03940 -0.02591 0.00208
v -0.00624 0.00932 0.01867
v -0.06013 -0.02798 0.00622
v -0.05599 0.01762 0.01037
v -0.03525 -0.04044 0.00415
v -0.00416 -0.02591 0.01659
v -0.01244 -0.00933 0.01867
v -0.06636 -0.00103 0.01037
v 0.01451 -0.03421 0.01037
v 0.04353 -0.00933 0.00622
v 0.00829 -0.01762 0.01867
v -0.01038 0.05081 0.00208
v 0.04147 0.01554 0.01452
v -0.05184 0.03628 0.00415
v 0.03109 -0.02798 0.01452
v -0.00001 0.04873 0.00208
v -0.01452 0.04873 0.00830
v 0.02072 -0.03007 0.00000
v 0.02280 -0.03421 0.00622
v -0.03111 -0.04044 0.00622
v -0.06636 -0.01140 0.00622
v -0.01244 0.00518 0.01867
v 0.04353 0.01347 0.00830
v -0.03111 0.03835 0.00208
v -0.01452 -0.03628 0.01037
v 0.02902 -0.03007 0.00830
v -0.00208 0.01762 0.01659
v -0.03940 -0.01554 0.00208
v 0.04353 -0.00933 0.01452
v -0.06221 -0.02591 0.01037
v 0.02488 -0.03214 0.01244
v -0.01452 -0.03007 0.01452
v 0.04353 0.01554 0.01244
v -0.02488 -0.02798 0.01452
v -0.00001 0.05081 0.00415
v 0.02488 -0.03214 0.00000
v -0.06429 -0.01970 0.00622
v 0.02072 -0.02798 0.01659
v -0.02697 -0.01763 0.03526
v 0.02903 -0.00726 0.03111
v 0.02903 -0.00726 0.02696
v 0.02073 -0.02800 0.03111
v 0.00414 -0.00726 0.02282
v -0.00207 -0.00726 0.03941
v -0.02282 -0.02592 0.03319
v -0.02697 -0.00726 0.03319
v 0.02281 -0.02592 0.02696
v -0.00829 -0.02592 0.03733
v 0.02281 -0.02385 0.03319
v -0.02073 -0.00726 0.03941
v 0.01244 -0.02592 0.02696
v 0.02281 -0.00726 0.03526
v -0.02073 -0.02592 0.03733
v 0.02695 -0.00934 0.02489
v 0.00414 -0.00934 0.02282
v -0.02697 -0.01763 0.03319
v 0.02695 -0.01970 0.03111
v 0.02073 -0.01970 0.02489
v -0.00207 -0.00934 0.03941
v 0.01036 -0.02800 0.02904
v -0.02697 -0.00726 0.03733
v 0.02695 -0.01970 0.02696
v -0.02697 -0.01556 0.03733
v -0.01452 -0.01141 0.03941
v 0.01036 -0.00726 0.02282
v 0.02695 -0.01141 0.03319
v 0.02073 -0.02592 0.03319
v 0.02281 -0.00934 0.03526
v 0.02488 -0.02385 0.03111
v 0.01244 -0.01970 0.02489
v 0.00208 -0.00726 0.01867
v 0.02074 0.01970 0.03318
v 0.02074 0.01763 0.03733
v -0.02904 0.00312 0.03940
v 0.02488 -0.00726 0.03526
v 0.04355 0.00726 0.01867
v 0.00208 0.01555 0.02489
v 0.02281 0.00104 0.04356
v -0.02489 -0.00726 0.03940
v 0.04355 -0.00519 0.01867
v 0.04355 0.00312 0.02904
v -0.02904 0.00104 0.03318
v 0.02074 0.01348 0.04356
v -0.02074 0.01141 0.03733
v 0.00000 0.00312 0.01867
v 0.03525 0.01555 0.02489
v -0.02904 -0.00726 0.03318
v 0.00623 0.01970 0.02697
v -0.02489 0.00312 0.04148
v 0.04355 -0.00519 0.02697
v -0.02074 0.01141 0.03318
v 0.00416 0.01970 0.03318
v 0.03525 0.01555 0.02904
v -0.00207 -0.00519 0.04148
v 0.02902 -0.00726 0.02489
v -0.02074 -0.00519 0.04148
v 0.01658 0.01348 0.04356
v 0.01035 0.00104 0.04356
v 0.02281 0.01141 0.04356
v 0.01865 -0.00726 0.03733
v 0.03525 0.00726 0.01867
v 0.01451 0.01970 0.02697
v 0.00000 -0.00519 0.01867
v 0.04355 -0.00104 0.02904
v 0.02488 -0.00104 0.04148
v -0.02904 -0.00726 0.03733
v 0.01865 -0.00311 0.04148
v 0.00208 -0.00726 0.03940
v -0.02489 -0.00104 0.04148
v 0.04355 0.00726 0.02282
v 0.02074 0.01970 0.02904
v 0.01035 0.00726 0.04356
v -0.02904 0.00312 0.03526
v 0.00416 0.01970 0.02904
v -0.01244 0.01141 0.02904
f 143 153 172 
f 129 134 136 
f 131 130 137 
f 129 136 137 
f 129 137 138 
f 130 131 142 
f 141 130 142 
f 129 138 143 
f 130 141 144 
f 129 143 145 
f 140 142 146 
f 136 134 149 
f 143 133 150 
f 138 137 151 
f 142 140 152 
f 141 142 152 
f 143 138 153 
f 131 137 154 
f 142 131 154 
f 136 149 154 
f 134 129 155 
f 129 145 155 
f 145 134 155 
f 140 135 156 
f 150 133 156 
f 135 150 156 
f 152 140 156 
f 132 148 157 
f 148 139 157 
f 137 136 158 
f 154 137 158 
f 136 154 158 
f 146 142 159 
f 149 146 159 
f 142 154 159 
f 154 149 159 
f 141 133 160 
f 144 141 160 
f 130 144 161 
f 148 130 161 
f 139 148 161 
f 144 160 161 
f 135 140 162 
f 134 145 162 
f 145 135 162 
f 146 134 162 
f 140 146 162 
f 151 132 163 
f 138 151 163 
f 153 138 163 
f 157 147 163 
f 132 157 163 
f 133 153 164 
f 147 157 164 
f 153 163 164 
f 163 147 164 
f 134 146 165 
f 149 134 165 
f 146 149 165 
f 135 145 166 
f 145 143 166 
f 150 135 166 
f 143 150 166 
f 133 141 167 
f 141 152 167 
f 152 156 167 
f 148 132 168 
f 132 151 168 
f 151 137 168 
f 157 139 169 
f 160 133 169 
f 139 161 169 
f 161 160 169 
f 133 164 169 
f 164 157 169 
f 137 130 170 
f 130 148 170 
f 168 137 170 
f 148 168 170 
f 156 133 171 
f 133 167 171 
f 167 156 171 
f 133 143 172 
f 153 133 172 
