# Original object name hint: convex_0
v 0.05599 -0.03836 -0.03733
v 0.05599 0.00518 0.03111
v 0.06014 0.01347 0.02904
v 0.05599 0.04667 -0.03111
v 0.04355 0.00518 0.02904
v 0.06636 0.02176 -0.03525
v 0.06014 -0.03836 0.00829
v 0.04563 0.01555 -0.03318
v 0.04770 -0.03421 -0.01451
v 0.06222 0.04667 -0.00001
v 0.06636 0.00725 0.01244
v 0.05185 -0.03836 0.01244
v 0.05599 0.01139 -0.04356
v 0.06014 -0.04043 -0.02488
v 0.04978 -0.03836 -0.03525
v 0.04355 -0.01140 0.00622
v 0.04355 0.01347 0.01451
v 0.06636 0.03836 -0.01451
v 0.05807 0.04667 -0.00001
v 0.05807 -0.02384 0.02281
v 0.06636 -0.00103 -0.01451
v 0.06222 -0.00310 -0.04356
v 0.05185 -0.04458 -0.01243
v 0.06222 0.04250 -0.03318
v 0.04355 -0.00310 0.02904
v 0.06222 -0.00310 0.02696
v 0.06636 0.02384 0.01037
v 0.06636 0.00932 -0.03525
v 0.04978 -0.03836 0.00829
v 0.06222 0.01762 0.02696
v 0.05185 -0.00103 -0.04148
v 0.05807 -0.04458 -0.00209
v 0.04563 0.00518 -0.03318
v 0.05599 0.01762 0.02696
v 0.05807 -0.04043 -0.03525
v 0.06222 0.01139 -0.04356
v 0.05599 0.03421 -0.03733
v 0.05185 -0.01555 0.02696
v 0.06222 0.04667 -0.02696
v 0.05599 -0.00518 -0.04356
v 0.04563 0.01762 -0.03111
v 0.06429 0.04458 -0.00209
v 0.06014 -0.03629 -0.03318
v 0.06014 -0.04250 -0.00828
v 0.05599 -0.04458 -0.02281
v 0.05599 -0.00103 0.03111
v 0.05807 -0.03213 0.01866
v 0.04770 0.00932 -0.03733
v 0.06636 0.00104 -0.00001
v 0.05392 -0.04250 0.00622
v 0.05185 -0.03421 0.01659
v 0.04978 0.01969 -0.03733
v 0.05185 -0.04250 -0.03111
v 0.06222 0.03421 -0.03733
v 0.05599 0.04667 -0.02488
v 0.05807 -0.04043 0.01037
v 0.04978 0.00518 0.03111
v 0.06636 0.00518 -0.03111
v 0.06014 -0.03006 0.01659
v 0.04978 -0.04043 0.00207
v 0.04355 -0.01140 0.01037
v 0.04978 -0.04043 -0.03111
v 0.06014 -0.00518 0.02904
v 0.06636 0.03836 -0.00416
v -0.00416 0.05289 -0.01452
v -0.05600 -0.02592 -0.01659
v -0.03318 -0.02592 -0.02074
v 0.00413 -0.03214 -0.00622
v -0.03733 0.01555 -0.00622
v -0.00001 0.00933 -0.02489
v -0.04562 0.03007 -0.01866
v -0.01660 -0.05081 -0.01866
v -0.02696 -0.04459 -0.00830
v -0.00623 0.04458 -0.00622
v -0.05185 0.03007 -0.01245
v -0.00208 0.04874 -0.02281
v 0.00413 -0.03006 -0.02074
v 0.00413 0.02591 -0.01245
v -0.02075 -0.02384 -0.00415
v -0.05600 -0.02592 -0.01245
v -0.02696 0.03214 -0.02281
v -0.03111 -0.05081 -0.01866
v -0.02696 -0.04459 -0.02074
v 0.00413 0.01968 -0.02281
v -0.02903 -0.05289 -0.01245
v -0.00001 0.05080 -0.01037
v 0.00413 0.00518 -0.00622
v -0.00831 -0.00103 -0.00415
v -0.01453 0.04874 -0.02074
v -0.02696 0.00725 -0.00415
v -0.00831 0.05080 -0.00830
v -0.01660 -0.05081 -0.01037
v 0.00413 -0.03628 -0.01659
v -0.02696 0.03214 -0.00622
v -0.02696 0.00725 -0.02281
v -0.05392 0.01555 -0.01659
v -0.00416 0.00311 -0.02489
v -0.04770 0.03007 -0.01037
v -0.03733 0.00102 -0.00622
v -0.01246 0.05080 -0.01245
v -0.00831 -0.02592 -0.00415
v -0.01038 0.04874 -0.02281
v -0.00001 0.05080 -0.01866
v -0.02903 -0.03006 -0.00622
v -0.02075 -0.04459 -0.02074
v 0.00413 -0.03628 -0.01037
v -0.05185 0.03007 -0.01452
v -0.01868 -0.05289 -0.01659
v -0.05392 0.01762 -0.01245
v 0.00413 0.02799 -0.02074
v -0.00001 0.00311 -0.02489
v -0.01246 0.05080 -0.01866
v -0.01038 0.04458 -0.00622
v -0.01038 -0.03628 -0.00622
v -0.00208 0.03422 -0.00622
v -0.03733 0.03007 -0.02074
v -0.03318 0.03628 -0.00830
v -0.03526 0.03836 -0.01866
v -0.00623 -0.01968 -0.00415
v -0.02490 -0.03628 -0.00622
v -0.02490 0.03628 -0.02281
v -0.03526 0.03836 -0.01037
v -0.02696 -0.05081 -0.01037
v 0.00413 -0.00311 -0.02281
v -0.00416 0.00933 -0.02489
v -0.04148 0.02799 -0.00830
v -0.02282 0.00933 -0.00415
v -0.00623 0.05289 -0.01659
v 0.00415 -0.00104 -0.02281
v 0.02488 -0.03007 0.00000
v 0.02073 -0.03007 0.00000
v 0.00622 0.01140 -0.01037
v 0.02281 0.00103 -0.01866
v 0.00415 -0.03422 -0.01866
v 0.02073 -0.03214 -0.01866
v 0.00415 -0.03422 -0.00830
v 0.00415 0.00103 -0.00622
v 0.00415 0.01762 -0.02281
v 0.01659 0.00725 -0.01037
v 0.02488 -0.03422 -0.01452
v 0.02696 -0.02592 -0.00622
v 0.02488 -0.03422 0.00000
v 0.01037 0.00310 -0.02281
v 0.02281 -0.00519 -0.00830
v 0.01037 -0.03007 -0.02074
v 0.01659 -0.03630 -0.01452
v 0.01244 0.01348 -0.01659
v 0.01452 0.00518 -0.00830
v 0.00415 -0.03630 -0.01037
v 0.02281 -0.02799 -0.01866
v 0.00415 0.01762 -0.01659
v 0.02696 -0.03007 -0.01037
v 0.00830 0.01555 -0.02281
v 0.02073 -0.03422 0.00000
v 0.00415 -0.03007 -0.02074
v 0.02488 -0.03007 -0.01659
v 0.01452 0.01140 -0.01244
v 0.00415 -0.00519 -0.00622
v 0.01659 -0.03630 -0.00830
v 0.02281 0.00103 -0.01659
v 0.02073 -0.00104 -0.00830
v 0.01452 -0.03422 -0.01866
v 0.00622 0.01762 -0.01659
v 0.01244 0.01348 -0.02074
v 0.00415 -0.03630 -0.01452
v 0.01244 -0.02799 -0.02074
v 0.02696 -0.02592 -0.01037
v 0.00415 0.00725 -0.00830
v 0.01659 0.00933 -0.01244
v 0.00622 0.00103 -0.00622
v 0.02488 -0.01970 -0.01659
v 0.01037 0.01140 -0.02281
v -0.02903 -0.02591 0.01452
v -0.00001 0.05081 0.00622
v -0.00624 0.04873 0.00830
v 0.04353 -0.00517 0.01867
v 0.02280 -0.03421 0.00000
v -0.06636 -0.00103 0.00622
v -0.01038 0.00725 0.01867
v -0.04976 0.05081 0.00415
v 0.04353 0.00725 0.00622
v -0.03317 -0.03421 0.00208
v -0.00208 0.05081 0.00208
v 0.02902 -0.02798 0.01659
v -0.06636 -0.01554 0.01037
v -0.03525 -0.04044 0.00622
v 0.04353 0.00932 0.01867
v -0.04976 0.05081 0.00622
v -0.03525 0.03214 0.00208
v -0.00830 -0.01554 0.01867
v -0.06429 0.00312 0.01037
v 0.04353 -0.01140 0.00830
v 0.04353 0.01554 0.01037
v -0.05392 -0.02591 0.00415
v -0.06013 -0.02798 0.01037
v -0.03733 -0.03628 0.01037
v 0.02694 -0.03214 0.01037
v 0.02488 -0.03007 0.00000
v -0.03940 -0.02591 0.00208
v -0.00624 0.00932 0.01867
v -0.06013 -0.02798 0.00622
v -0.05599 0.01762 0.01037
v -0.03525 -0.04044 0.00415
v -0.00416 -0.02591 0.01659
v -0.01244 -0.00933 0.01867
v -0.06636 -0.00103 0.01037
v 0.01451 -0.03421 0.01037
v 0.04353 -0.00933 0.00622
v 0.00829 -0.01762 0.01867
v -0.01038 0.05081 0.00208
v 0.04147 0.01554 0.01452
v -0.05184 0.03628 0.00415
v 0.03109 -0.02798 0.01452
v -0.00001 0.04873 0.00208
v -0.01452 0.04873 0.00830
v 0.02072 -0.03007 0.00000
v 0.02280 -0.03421 0.00622
v -0.03111 -0.04044 0.00622
v -0.06636 -0.01140 0.00622
v -0.01244 0.00518 0.01867
v 0.04353 0.01347 0.00830
v -0.03111 0.03835 0.00208
v -0.01452 -0.03628 0.01037
v 0.02902 -0.03007 0.00830
v -0.00208 0.01762 0.01659
v -0.03940 -0.01554 0.00208
v 0.04353 -0.00933 0.01452
v -0.06221 -0.02591 0.01037
v 0.02488 -0.03214 0.01244
v -0.01452 -0.03007 0.01452
v 0.04353 0.01554 0.01244
v -0.02488 -0.02798 0.01452
v -0.00001 0.05081 0.00415
v 0.02488 -0.03214 0.00000
v -0.06429 -0.01970 0.00622
v 0.02072 -0.02798 0.01659
v -0.02697 -0.01763 0.03526
v 0.02903 -0.00726 0.03111
v 0.02903 -0.00726 0.02696
v 0.02073 -0.02800 0.03111
v 0.00414 -0.00726 0.02282
v -0.00207 -0.00726 0.03941
v -0.02282 -0.02592 0.03319
v -0.02697 -0.00726 0.03319
v 0.02281 -0.02592 0.02696
v -0.00829 -0.02592 0.03733
v 0.02281 -0.02385 0.03319
v -0.02073 -0.00726 0.03941
v 0.01244 -0.02592 0.02696
v 0.02281 -0.00726 0.03526
v -0.02073 -0.02592 0.03733
v 0.02695 -0.00934 0.02489
v 0.00414 -0.00934 0.02282
v -0.02697 -0.01763 0.03319
v 0.02695 -0.01970 0.03111
v 0.02073 -0.01970 0.02489
v -0.00207 -0.00934 0.03941
v 0.01036 -0.02800 0.02904
v -0.02697 -0.00726 0.03733
v 0.02695 -0.01970 0.02696
v -0.02697 -0.01556 0.03733
v -0.01452 -0.01141 0.03941
v 0.01036 -0.00726 0.02282
v 0.02695 -0.01141 0.03319
v 0.02073 -0.02592 0.03319
v 0.02281 -0.00934 0.03526
v 0.02488 -0.02385 0.03111
v 0.01244 -0.01970 0.02489
v 0.00208 -0.00726 0.01867
v 0.02074 0.01970 0.03318
v 0.02074 0.01763 0.03733
v -0.02904 0.00312 0.03940
v 0.02488 -0.00726 0.03526
v 0.04355 0.00726 0.01867
v 0.00208 0.01555 0.02489
v 0.02281 0.00104 0.04356
v -0.02489 -0.00726 0.03940
v 0.04355 -0.00519 0.01867
v 0.04355 0.00312 0.02904
v -0.02904 0.00104 0.03318
v 0.02074 0.01348 0.04356
v -0.02074 0.01141 0.03733
v 0.00000 0.00312 0.01867
v 0.03525 0.01555 0.02489
v -0.02904 -0.00726 0.03318
v 0.00623 0.01970 0.02697
v -0.02489 0.00312 0.04148
v 0.04355 -0.00519 0.02697
v -0.02074 0.01141 0.03318
v 0.00416 0.01970 0.03318
v 0.03525 0.01555 0.02904
v -0.00207 -0.00519 0.04148
v 0.02902 -0.00726 0.02489
v -0.02074 -0.00519 0.04148
v 0.01658 0.01348 0.04356
v 0.01035 0.00104 0.04356
v 0.02281 0.01141 0.04356
v 0.01865 -0.00726 0.03733
v 0.03525 0.00726 0.01867
v 0.01451 0.01970 0.02697
v 0.00000 -0.00519 0.01867
v 0.04355 -0.00104 0.02904
v 0.02488 -0.00104 0.04148
v -0.02904 -0.00726 0.03733
v 0.01865 -0.00311 0.04148
v 0.00208 -0.00726 0.03940
v -0.02489 -0.00104 0.04148
v 0.04355 0.00726 0.02282
v 0.02074 0.01970 0.02904
v 0.01035 0.00726 0.04356
v -0.02904 0.00312 0.03526
v 0.00416 0.01970 0.02904
v -0.01244 0.01141 0.02904
f 42 27 64 
f 15 9 16 
f 16 5 17 
f 8 16 17 
f 11 6 18 
f 10 4 19 
f 17 5 19 
f 6 11 21 
f 18 6 24 
f 5 16 25 
f 11 18 27 
f 6 21 28 
f 22 6 28 
f 10 19 30 
f 3 26 30 
f 26 11 30 
f 11 27 30 
f 16 8 33 
f 15 16 33 
f 19 5 34 
f 3 30 34 
f 30 19 34 
f 1 22 35 
f 22 13 36 
f 6 22 36 
f 36 13 37 
f 4 10 39 
f 24 4 39 
f 18 24 39 
f 1 15 40 
f 22 1 40 
f 13 22 40 
f 31 13 40 
f 15 31 40 
f 4 8 41 
f 17 4 41 
f 8 17 41 
f 10 30 42 
f 30 27 42 
f 39 10 42 
f 18 39 42 
f 22 28 43 
f 35 22 43 
f 14 35 43 
f 14 21 44 
f 7 32 44 
f 44 32 45 
f 32 23 45 
f 35 14 45 
f 14 44 45 
f 3 2 46 
f 25 38 46 
f 20 38 47 
f 13 31 48 
f 31 15 48 
f 33 8 48 
f 15 33 48 
f 11 7 49 
f 21 11 49 
f 7 44 49 
f 44 21 49 
f 12 29 50 
f 23 32 50 
f 29 12 51 
f 25 29 51 
f 38 25 51 
f 47 38 51 
f 8 4 52 
f 4 37 52 
f 37 13 52 
f 13 48 52 
f 48 8 52 
f 15 1 53 
f 1 35 53 
f 45 23 53 
f 35 45 53 
f 4 24 54 
f 24 6 54 
f 6 36 54 
f 36 37 54 
f 37 4 54 
f 4 17 55 
f 19 4 55 
f 17 19 55 
f 32 7 56 
f 7 47 56 
f 12 50 56 
f 50 32 56 
f 51 12 56 
f 47 51 56 
f 2 3 57 
f 5 25 57 
f 3 34 57 
f 34 5 57 
f 46 2 57 
f 25 46 57 
f 21 14 58 
f 28 21 58 
f 14 43 58 
f 43 28 58 
f 7 11 59 
f 11 26 59 
f 47 7 59 
f 26 47 59 
f 50 29 60 
f 23 50 60 
f 16 9 61 
f 25 16 61 
f 29 25 61 
f 9 60 61 
f 60 29 61 
f 9 15 62 
f 15 53 62 
f 53 23 62 
f 60 9 62 
f 23 60 62 
f 26 3 63 
f 38 20 63 
f 3 46 63 
f 46 38 63 
f 47 26 63 
f 20 47 63 
f 27 18 64 
f 18 42 64 
