# Original object name hint: convex_8
v -0.00433 -0.03183 0.08391
v 0.01011 0.03182 0.07523
v 0.01011 0.03182 0.07235
v -0.07957 0.02025 0.07523
v 0.07665 -0.02314 0.05498
v -0.07377 -0.02893 0.05498
v -0.07087 0.02603 0.05498
v 0.06508 0.01736 0.08680
v 0.07665 0.02603 0.05498
v -0.04773 -0.02025 0.08680
v 0.00431 0.01446 0.09260
v 0.07376 -0.02314 0.07812
v 0.01011 -0.01446 0.09260
v -0.07087 -0.02893 0.07812
v 0.07957 0.02603 0.07235
v -0.07377 0.02603 0.07812
v 0.03036 -0.03183 0.06945
v 0.01299 0.02893 0.08391
v -0.06799 -0.03183 0.05788
v -0.07957 -0.01157 0.06077
v -0.07087 0.01736 0.08102
v 0.07086 0.02893 0.07523
v 0.07665 -0.02604 0.07235
v 0.01011 -0.02604 0.08970
v 0.06508 -0.00000 0.08680
v -0.07957 -0.01736 0.07523
v -0.06510 0.02893 0.07523
v 0.07957 -0.01736 0.07523
v -0.07667 0.02025 0.05498
v -0.00723 0.00289 0.09260
v 0.07957 -0.01736 0.05498
v -0.01301 -0.02604 0.08970
v 0.03326 -0.03183 0.07812
v -0.07087 -0.03183 0.07235
v -0.07087 -0.02025 0.08102
v -0.00433 0.02603 0.08680
v 0.07665 0.02603 0.07812
v 0.01879 0.00868 0.09260
v 0.05061 0.02603 0.08391
v 0.07665 -0.02604 0.06077
v 0.04483 -0.01736 0.08680
v -0.06799 0.02893 0.06656
v 0.07957 0.02314 0.05498
v -0.04773 -0.02893 0.08391
v -0.06799 0.02314 0.08102
v 0.03326 -0.02893 0.08391
v 0.07376 0.02893 0.06656
v -0.00433 -0.01157 0.09260
v 0.07086 -0.00289 0.08391
v -0.07957 0.02025 0.06366
v 0.02168 0.02025 0.08970
v -0.07667 0.02603 0.06656
v -0.05930 -0.03183 0.05788
v -0.00433 0.02893 0.08391
v -0.07667 -0.02314 0.05498
v -0.05642 -0.03183 0.07812
v -0.07667 -0.02604 0.06945
v 0.01879 -0.03183 0.06656
v -0.05642 0.01446 0.08391
v -0.07667 0.02025 0.07812
v 0.06798 -0.02604 0.07812
v -0.03327 -0.02893 0.05498
v 0.04483 0.02893 0.08102
v 0.07957 -0.02314 0.07235
v 0.07957 -0.00001 0.02025
v 0.04195 0.01735 0.02025
v 0.04195 0.01735 0.02315
v 0.06220 -0.02893 -0.00868
v 0.07667 0.02314 -0.00868
v 0.06799 -0.02893 0.02315
v 0.07667 -0.02604 -0.00868
v 0.07667 0.02314 0.02315
v 0.06220 0.02314 -0.00868
v 0.04484 0.02025 0.00868
v 0.05932 -0.02604 0.01447
v 0.07667 -0.02604 0.02315
v 0.06509 0.02604 0.01736
v 0.05932 -0.02604 -0.00868
v 0.07957 0.01446 -0.00868
v 0.04195 0.02314 0.02315
v 0.07957 0.01735 0.02315
v 0.05932 -0.02314 0.02315
v 0.07377 -0.02893 -0.00868
v 0.07088 0.02604 0.00579
v 0.06509 0.02604 0.00579
v 0.07957 0.00578 -0.00868
v 0.07377 -0.02893 0.01736
v 0.04195 0.02314 0.02025
v 0.04484 0.01735 0.00868
v 0.06509 -0.02893 0.02025
v 0.05932 -0.02025 -0.00868
v 0.07088 0.02604 0.01736
v 0.06220 -0.02604 0.02315
v 0.07377 0.02604 0.05498
v 0.06510 0.02604 0.05498
v 0.06799 -0.02315 0.05498
v 0.07957 0.01735 0.02315
v 0.05642 0.02314 0.02605
v 0.07957 -0.01446 0.05498
v 0.07667 -0.02604 0.02315
v 0.05642 0.01446 0.04919
v 0.05931 -0.02315 0.03762
v 0.07957 0.02314 0.05498
v 0.07667 0.02314 0.02315
v 0.07377 -0.02604 0.04629
v 0.05931 0.02314 0.02315
v 0.05642 0.02314 0.04919
v 0.07957 -0.00000 0.02315
v 0.05931 -0.02025 0.02605
v 0.07667 -0.02315 0.05498
v 0.06220 0.01157 0.05498
v 0.06220 -0.02315 0.04629
v 0.05642 0.01446 0.02605
v 0.06220 -0.02604 0.03762
v 0.07377 0.02604 0.04919
v 0.07957 0.02314 0.04629
v 0.06220 0.02314 0.05498
v -0.06800 -0.01158 -0.08680
v 0.03616 0.00578 -0.07234
v 0.03327 -0.02314 -0.06077
v -0.07379 0.00578 -0.06077
v -0.06511 -0.03183 -0.06077
v 0.01012 -0.02604 -0.08970
v -0.06511 0.00578 -0.08970
v 0.03616 -0.03183 -0.07812
v 0.03327 0.00578 -0.08391
v -0.05932 -0.03183 -0.07812
v 0.03616 -0.03183 -0.06077
v 0.00722 0.00578 -0.08970
v -0.07379 -0.02025 -0.07234
v -0.04775 0.00578 -0.06077
v -0.06511 -0.02025 -0.08680
v -0.07379 0.00578 -0.07234
v -0.00147 -0.03183 -0.08391
v -0.00436 -0.02604 -0.08970
v -0.07379 -0.02314 -0.06077
v 0.03616 -0.02893 -0.08102
v -0.06511 -0.02893 -0.08102
v -0.07090 -0.02893 -0.06945
v -0.06511 -0.00000 -0.08970
v 0.03616 0.00578 -0.08102
v 0.03037 -0.02604 -0.08391
v -0.06800 -0.02314 -0.08391
v -0.07090 0.00578 -0.08102
v -0.06511 -0.02604 -0.08391
v 0.01012 0.00289 -0.08970
v 0.01012 -0.03183 -0.08391
v -0.07090 -0.01736 -0.08102
v -0.06511 -0.03183 -0.07234
v 0.02747 -0.02893 -0.08391
v 0.01590 0.00578 -0.06945
v -0.07090 -0.02893 -0.06077
v 0.03616 -0.02604 -0.06077
v -0.06800 -0.02893 -0.07812
v -0.00726 -0.02893 -0.08680
v 0.03616 0.02604 -0.05498
v -0.06800 0.01447 -0.09260
v -0.06800 0.02314 -0.09260
v -0.07379 0.00579 -0.05498
v 0.03616 0.00579 -0.08391
v -0.06800 0.03183 -0.05787
v 0.03616 0.02893 -0.08102
v 0.03616 0.00579 -0.06945
v -0.06800 0.00579 -0.08970
v -0.06511 0.03183 -0.08102
v 0.00431 0.01158 -0.05498
v 0.00722 0.00579 -0.08970
v -0.07379 0.02893 -0.05498
v -0.00436 0.03183 -0.06945
v 0.00143 0.02893 -0.08681
v -0.07379 0.02314 -0.07523
v -0.05932 0.02604 -0.09260
v 0.03616 0.02604 -0.08391
v -0.00147 0.03183 -0.08102
v 0.00722 0.02893 -0.05498
v 0.03616 0.02025 -0.05498
v 0.00143 0.01736 -0.08970
v -0.07379 0.00868 -0.07523
v 0.03616 0.02893 -0.06945
v -0.05932 0.00868 -0.09260
v -0.05642 0.00579 -0.05498
v -0.07090 0.02893 -0.08102
v -0.07090 0.01158 -0.08681
v -0.07379 0.02893 -0.06656
v -0.06800 0.02893 -0.08681
v -0.07379 0.00579 -0.07234
v 0.00722 0.01158 -0.08970
v -0.07090 0.02314 -0.08681
v -0.06800 0.03183 -0.07523
v -0.06221 0.03183 -0.05787
v -0.05642 0.01447 -0.09260
v 0.05353 -0.02315 -0.08391
v 0.07667 -0.00868 -0.00868
v 0.06220 -0.00868 -0.00868
v 0.07378 -0.02893 -0.00868
v 0.03616 -0.02893 -0.02026
v 0.03616 -0.00868 -0.07811
v 0.07667 -0.00868 -0.07811
v 0.03616 -0.03183 -0.07523
v 0.07088 -0.02893 -0.07234
v 0.03616 -0.02315 -0.01738
v 0.07667 -0.02604 -0.06075
v 0.06509 -0.03183 -0.04053
v 0.07088 -0.00868 -0.08681
v 0.03616 -0.03183 -0.04053
v 0.05931 -0.03183 -0.07523
v 0.07088 -0.02025 -0.08391
v 0.06220 -0.02893 -0.00868
v 0.03616 -0.02025 -0.08102
v 0.07667 -0.02604 -0.00868
v 0.05642 -0.00868 -0.08681
v 0.03616 -0.00868 -0.07234
v 0.07667 -0.02025 -0.07523
v 0.05931 -0.01736 -0.08681
v 0.03616 -0.02604 -0.08102
v 0.07378 -0.02893 -0.05496
v 0.06799 -0.02315 -0.08391
v 0.05931 -0.01736 -0.00868
v 0.07088 -0.01447 -0.08681
v 0.06220 -0.03183 -0.07234
v 0.03616 -0.02604 -0.01738
v 0.07378 -0.01447 -0.08391
v 0.05931 -0.02604 -0.00868
v 0.07378 -0.02315 -0.07811
v 0.06799 -0.02604 -0.08102
v 0.05642 0.00290 -0.08970
v 0.07957 0.01446 -0.00868
v 0.07957 0.00579 -0.00868
v 0.03616 0.02314 -0.03184
v 0.07088 0.02604 -0.08391
v 0.03616 -0.00868 -0.07812
v 0.07666 -0.00868 -0.08101
v 0.06220 -0.00868 -0.00868
v 0.03616 0.02894 -0.08101
v 0.07088 0.02604 -0.01158
v 0.07666 0.02314 -0.07812
v 0.07666 -0.00868 -0.00868
v 0.05930 0.02314 -0.00868
v 0.07088 -0.00578 -0.08970
v 0.03616 0.01736 -0.03184
v 0.06798 0.02894 -0.07812
v 0.06798 0.02025 -0.08970
v 0.03616 0.02604 -0.03763
v 0.03616 0.02604 -0.08391
v 0.03616 -0.00868 -0.07233
v 0.07666 0.02314 -0.00868
v 0.07666 0.01736 -0.08391
v 0.06220 -0.00868 -0.08970
v 0.03616 0.00579 -0.08391
v 0.03616 0.02894 -0.06945
v 0.07957 0.01157 -0.02606
v 0.05642 0.02025 -0.08970
v 0.06510 0.02604 -0.08681
v 0.07377 0.02604 -0.01447
v 0.06510 0.02894 -0.06654
v 0.06510 0.02604 -0.01158
v 0.05930 0.01157 -0.00868
v 0.07377 0.02604 -0.07812
v 0.07666 -0.00289 -0.08391
v 0.07088 0.01736 -0.08970
v 0.07957 0.00579 -0.02606
v 0.06510 0.02894 -0.08101
v 0.05642 0.02604 -0.08681
v 0.07377 0.02025 -0.08681
v -0.07669 0.00578 -0.03761
v -0.06511 -0.03183 -0.06077
v -0.05065 -0.03183 -0.06077
v -0.05065 -0.02893 0.02315
v -0.05354 0.00578 -0.06077
v -0.07090 0.00578 0.02315
v -0.07090 -0.02604 0.02315
v -0.07669 -0.00869 -0.05787
v -0.05933 0.00578 0.01157
v -0.05065 -0.01446 0.01157
v -0.07379 -0.02314 -0.06077
v -0.07379 0.00578 -0.06077
v -0.06800 -0.03183 -0.04340
v -0.06222 0.00578 0.02315
v -0.05065 -0.01446 -0.06077
v -0.06511 -0.02893 0.02315
v -0.07669 -0.00869 -0.04051
v -0.07379 -0.02314 -0.03182
v -0.07090 -0.02893 -0.06077
v -0.07669 0.00578 -0.05787
v -0.06222 -0.03183 -0.03761
v -0.05065 -0.02314 0.02315
v -0.07090 -0.02893 -0.03182
v -0.05354 0.00578 -0.05787
v -0.05065 -0.03183 -0.05497
v -0.05065 0.01736 -0.05496
v -0.05065 0.02314 0.01735
v -0.05933 0.02314 0.02315
v -0.06222 0.00579 0.02315
v -0.07379 0.02893 -0.05496
v -0.07669 0.00579 -0.05496
v -0.07090 0.02314 0.02315
v -0.05065 0.02893 -0.04628
v -0.05065 0.00868 0.00578
v -0.05933 0.00579 -0.05496
v -0.06800 0.03183 -0.02604
v -0.07090 0.00579 0.02315
v -0.07669 0.01447 -0.03760
v -0.05065 0.02604 0.01445
v -0.07090 0.02604 0.01445
v -0.05644 0.02893 -0.05496
v -0.06222 0.03183 -0.04628
v -0.05065 0.02893 -0.01158
v -0.06222 0.02893 0.00578
v -0.07379 0.02893 -0.03760
v -0.05065 0.00868 0.01156
v -0.06800 0.02604 0.02024
v -0.07669 0.00579 -0.03760
v -0.07669 0.01736 -0.05496
v -0.05065 0.01447 -0.04339
v -0.05933 0.00579 0.01445
v -0.06222 0.03183 -0.02893
v -0.05065 0.02604 -0.05496
v -0.07379 0.02604 -0.02314
v -0.06800 0.03183 -0.04628
v -0.05644 0.00868 -0.05496
v -0.05933 0.02604 0.02024
v -0.05065 0.02025 0.01735
v -0.06511 0.02893 0.00578
v 0.02169 0.02025 0.02315
v -0.02170 0.02025 -0.05496
v -0.05065 0.02025 -0.04918
v -0.03328 0.00579 0.00288
v -0.04775 0.02604 0.01735
v 0.03616 0.02604 -0.05496
v 0.03616 0.01736 -0.05496
v -0.05065 0.02894 -0.04339
v 0.01879 0.02604 0.02315
v -0.05065 0.00579 0.01156
v -0.01303 0.01447 -0.05496
v -0.00146 0.02894 -0.01158
v -0.02170 0.00579 0.00867
v -0.04775 0.02025 0.02315
v -0.02170 0.02894 -0.05496
v 0.01879 0.01736 0.02315
v 0.03616 0.01736 -0.03182
v -0.05065 0.02894 -0.01158
v 0.01301 0.01447 -0.05496
v -0.04775 0.01736 -0.04918
v 0.03616 0.02604 -0.03760
v 0.01012 0.02894 -0.04918
v -0.04775 0.00579 0.00288
v -0.05065 0.02604 0.01445
v 0.01012 0.02894 -0.02893
v -0.01303 0.02604 0.02315
v -0.05065 0.02604 -0.04918
v -0.01013 0.01736 0.02315
v 0.02169 0.02314 0.02315
v -0.00724 0.02894 -0.00869
v -0.04775 0.02314 0.02315
v -0.02170 0.00579 0.00578
v -0.05065 0.01736 -0.04628
v -0.03328 0.00579 0.01156
v 0.03616 0.02314 -0.03182
v 0.00721 0.02894 -0.05496
v -0.05065 0.01736 0.01735
v -0.05065 0.00579 0.00578
v -0.02749 0.02894 -0.00869
v -0.06801 -0.02894 0.02894
v -0.06222 0.00578 0.05498
v -0.07669 0.00578 0.05498
v -0.06222 0.00578 0.02315
v -0.05933 -0.02894 0.05498
v -0.07669 -0.02025 0.05498
v -0.07379 0.00578 0.02894
v -0.05933 -0.02894 0.02315
v -0.07090 -0.02604 0.02315
v -0.05933 -0.01158 0.03183
v -0.07090 -0.02894 0.05498
v -0.07669 -0.01447 0.04629
v -0.07090 0.00578 0.02315
v -0.05933 -0.01158 0.05498
v -0.07379 -0.01736 0.02894
v -0.07379 -0.02604 0.04340
v -0.07669 0.00578 0.04629
v -0.05933 -0.01736 0.02315
v -0.07379 -0.02315 0.03473
v -0.07090 -0.02894 0.04051
v -0.02171 0.02025 0.05498
v -0.07089 0.00579 0.02315
v -0.07089 0.02315 0.02315
v -0.07668 0.02025 0.05498
v -0.07668 0.00579 0.05498
v -0.02171 0.01736 0.03183
v -0.02751 0.01157 0.05498
v -0.03618 0.02604 0.02894
v -0.07089 0.02604 0.05498
v -0.03908 0.02025 0.02315
v -0.06221 0.00579 0.02315
v -0.07089 0.02604 0.02894
v -0.02171 0.02315 0.04340
v -0.06221 0.00579 0.05498
v -0.07379 0.01736 0.02894
v -0.05932 0.02604 0.05498
v -0.02171 0.02315 0.03183
v -0.07668 0.00579 0.04629
v -0.02171 0.01447 0.05498
v -0.07379 0.02604 0.04051
v -0.03908 0.02315 0.02315
v -0.03618 0.02604 0.03762
v -0.06800 0.02604 0.02605
v -0.05932 0.00579 0.04340
v -0.02751 0.01157 0.05208
v -0.07379 0.00579 0.02894
v -0.07668 0.01447 0.04629
v -0.04197 0.01736 0.02315
v 0.05351 0.01736 0.05498
v -0.01591 0.02025 0.02315
v -0.02171 0.01736 0.03183
v 0.00144 0.02604 0.05498
v 0.05641 0.02315 0.02315
v 0.05641 0.01447 0.02315
v -0.00723 0.01157 0.05498
v -0.01302 0.02604 0.02315
v 0.05062 0.02604 0.05498
v -0.02171 0.02025 0.05498
v 0.04483 0.01157 0.05498
v 0.00144 0.01157 0.04051
v 0.04772 0.02604 0.03183
v -0.01013 0.01736 0.02315
v 0.05641 0.01447 0.04919
v -0.02171 0.02315 0.04340
v -0.02171 0.01447 0.05208
v 0.05641 0.02315 0.05208
v -0.00145 0.01447 0.02894
v -0.01591 0.02604 0.03762
v 0.02169 0.02604 0.02315
v -0.02171 0.02315 0.03183
v -0.01591 0.01447 0.03762
v 0.04483 0.01157 0.04919
v 0.04483 0.01447 0.02315
v -0.01302 0.02315 0.05498
v -0.02171 0.01447 0.05498
v 0.01013 0.01157 0.04051
v 0.05062 0.02604 0.03473
v 0.00721 -0.02026 -0.00289
v -0.05065 -0.03183 -0.06077
v -0.05065 -0.03183 -0.04340
v 0.03616 -0.03183 -0.06077
v -0.05065 -0.01736 -0.06077
v 0.00721 -0.03183 -0.00289
v -0.05065 -0.02315 -0.00579
v -0.00146 -0.01447 -0.01736
v 0.03616 -0.02315 -0.05787
v 0.03326 -0.02315 -0.00289
v -0.05065 -0.02893 -0.01158
v 0.01012 -0.01736 -0.04919
v -0.04775 -0.02026 -0.00579
v 0.03326 -0.02893 -0.00289
v -0.01013 -0.01447 -0.01158
v -0.01013 -0.03183 -0.00289
v 0.01301 -0.02026 -0.06077
v 0.03616 -0.02315 -0.01447
v 0.03616 -0.03183 -0.04051
v -0.01881 -0.02026 -0.00289
v -0.05065 -0.02026 -0.00868
v -0.00146 -0.01447 -0.01158
v -0.05065 -0.02604 -0.00579
v 0.03326 -0.02315 -0.06077
v -0.02460 -0.02893 -0.00289
v -0.04485 -0.01736 -0.06077
v 0.03616 -0.02893 -0.01736
v -0.05065 -0.01736 -0.05787
v -0.02171 -0.01736 0.05208
v -0.05933 -0.02894 0.02315
v -0.05933 -0.02894 0.05498
v -0.05064 -0.01447 0.05498
v -0.02171 -0.02604 0.02605
v -0.05933 -0.02026 0.02315
v -0.03329 -0.02894 0.05498
v -0.04485 -0.01447 0.04051
v -0.02750 -0.02315 0.02315
v -0.02171 -0.02604 0.05498
v -0.02461 -0.02894 0.02605
v -0.05933 -0.01736 0.05498
v -0.02750 -0.01447 0.05498
v -0.05933 -0.01736 0.03183
v -0.02171 -0.02315 0.02605
v -0.03329 -0.01447 0.04629
v -0.03040 -0.02894 0.02315
v -0.03618 -0.01736 0.03473
v -0.02750 -0.01447 0.05208
v 0.02747 -0.02025 0.02315
v -0.02170 -0.02893 -0.00289
v -0.02170 -0.02315 -0.00289
v -0.05065 -0.02893 0.02315
v -0.05065 -0.01158 0.01157
v 0.03326 -0.02893 -0.00289
v 0.00433 -0.00868 0.00579
v 0.01879 -0.02893 0.02025
v -0.05065 -0.02315 0.00000
v -0.01013 -0.03183 -0.00289
v 0.03326 -0.02315 -0.00289
v -0.05065 -0.01447 0.00290
v -0.05065 -0.02315 0.02315
v -0.05065 -0.02893 0.00290
v 0.02747 -0.02604 0.02315
v -0.01880 -0.02025 -0.00289
v 0.00433 -0.03183 0.00290
v -0.02459 -0.00868 0.00868
v 0.03326 -0.02893 0.00579
v -0.00147 -0.02025 0.02315
v -0.02459 -0.00868 0.00579
v 0.00433 -0.00868 0.00868
v -0.00725 -0.02893 0.02315
v 0.00722 -0.02025 -0.00289
v -0.02459 -0.01158 0.00290
v 0.03326 -0.02315 0.00868
v -0.05065 -0.01158 0.00579
v 0.00722 -0.03183 -0.00289
v -0.05065 -0.02604 0.00000
v -0.01013 -0.03183 0.00290
v 0.03326 -0.01736 0.04051
v -0.02171 -0.02604 0.02315
v -0.02171 -0.02315 0.02315
v 0.02747 -0.02315 0.02315
v 0.02458 -0.02315 0.04630
v 0.01011 -0.01158 0.04630
v 0.01880 -0.01447 0.02605
v -0.00434 -0.01736 0.04340
v -0.01592 -0.02893 0.02605
v 0.02747 -0.02604 0.03472
v -0.00434 -0.01447 0.02894
v 0.03616 -0.01736 0.02894
v 0.01011 -0.02315 0.04630
v 0.01880 -0.01158 0.04630
v 0.02458 -0.02604 0.02315
v 0.03616 -0.02315 0.03762
v -0.02171 -0.02604 0.02894
v -0.00434 -0.01447 0.04340
v -0.00145 -0.01736 0.02315
v 0.02458 -0.01736 0.02315
v 0.03616 -0.02315 0.02894
v -0.01013 -0.02893 0.02315
v 0.00434 -0.02025 0.04630
v 0.01880 -0.01158 0.04340
v 0.00145 -0.01447 0.02605
v -0.02171 -0.02315 0.02894
v 0.03616 -0.01736 0.03762
v 0.02458 -0.01447 0.04630
v 0.02747 -0.01447 0.03183
v -0.01302 -0.02315 0.04919
v 0.01879 -0.00868 0.05498
v 0.03037 -0.01158 0.05498
v 0.02458 -0.01158 0.04630
v 0.04484 -0.02315 0.05498
v -0.02170 -0.01736 0.05498
v 0.03905 -0.02315 0.04630
v -0.02170 -0.02604 0.05498
v 0.00723 -0.01158 0.04630
v 0.04194 -0.01447 0.04919
v -0.01880 -0.01447 0.05208
v 0.01012 -0.02315 0.04630
v -0.02170 -0.02604 0.05208
v 0.01301 -0.00868 0.04919
v -0.01591 -0.01736 0.04919
v -0.00434 -0.02604 0.05208
v 0.04194 -0.01447 0.05498
v -0.00434 -0.01158 0.05498
v 0.04484 -0.02315 0.04919
v 0.03905 -0.01736 0.04630
v 0.01879 -0.00868 0.04919
v 0.04484 -0.01736 0.04919
v 0.00434 -0.02025 0.04630
v -0.05065 -0.00289 0.00579
v -0.02171 0.00579 0.00868
v -0.02171 0.00579 0.00579
v -0.01014 -0.00868 0.00868
v -0.04775 0.00579 0.01157
v -0.04486 0.00579 0.00289
v -0.01014 -0.00868 0.00579
v -0.04775 -0.00289 0.01157
v -0.03328 0.00579 0.01157
v -0.01014 -0.00289 0.00579
v -0.03328 0.00289 0.00289
v -0.01014 -0.00289 0.00868
v -0.05065 0.00579 0.00868
v -0.03328 -0.00289 0.01157
v -0.01593 -0.00868 0.00579
v -0.04486 0.00289 0.00289
v -0.03328 0.00579 0.00289
v 0.00144 -0.00868 0.00579
v 0.00433 0.00289 0.00868
v 0.00144 0.00289 0.00868
v 0.00433 -0.00868 0.00868
v 0.00433 0.00289 0.00579
f 311 308 323 
f 294 290 295 
f 293 292 296 
f 291 290 297 
f 290 291 298 
f 295 290 299 
f 293 295 299 
f 295 293 301 
f 293 296 301 
f 301 296 302 
f 292 291 303 
f 291 297 303 
f 290 294 305 
f 305 294 306 
f 297 305 306 
f 303 297 307 
f 297 306 307 
f 303 307 308 
f 300 294 309 
f 304 300 309 
f 298 291 310 
f 299 298 310 
f 296 292 311 
f 304 296 311 
f 295 301 312 
f 301 302 312 
f 302 295 312 
f 294 295 313 
f 295 302 313 
f 309 294 313 
f 302 309 313 
f 290 298 314 
f 293 299 315 
f 310 293 315 
f 299 310 315 
f 306 300 316 
f 307 306 316 
f 300 308 316 
f 308 307 316 
f 297 290 317 
f 290 305 317 
f 305 297 317 
f 302 296 318 
f 296 304 318 
f 309 302 318 
f 304 309 318 
f 294 300 319 
f 306 294 319 
f 300 306 319 
f 299 290 320 
f 298 299 320 
f 290 314 320 
f 314 298 320 
f 292 303 321 
f 303 308 321 
f 311 292 321 
f 308 311 321 
f 291 292 322 
f 292 293 322 
f 310 291 322 
f 293 310 322 
f 300 304 323 
f 308 300 323 
f 304 311 323 
