# Original object name hint: convex_3
v -0.00433 -0.03183 0.08391
v 0.01011 0.03182 0.07523
v 0.01011 0.03182 0.07235
v -0.07957 0.02025 0.07523
v 0.07665 -0.02314 0.05498
v -0.07377 -0.02893 0.05498
v -0.07087 0.02603 0.05498
v 0.06508 0.01736 0.08680
v 0.07665 0.02603 0.05498
v -0.04773 -0.02025 0.08680
v 0.00431 0.01446 0.09260
v 0.07376 -0.02314 0.07812
v 0.01011 -0.01446 0.09260
v -0.07087 -0.02893 0.07812
v 0.07957 0.02603 0.07235
v -0.07377 0.02603 0.07812
v 0.03036 -0.03183 0.06945
v 0.01299 0.02893 0.08391
v -0.06799 -0.03183 0.05788
v -0.07957 -0.01157 0.06077
v -0.07087 0.01736 0.08102
v 0.07086 0.02893 0.07523
v 0.07665 -0.02604 0.07235
v 0.01011 -0.02604 0.08970
v 0.06508 -0.00000 0.08680
v -0.07957 -0.01736 0.07523
v -0.06510 0.02893 0.07523
v 0.07957 -0.01736 0.07523
v -0.07667 0.02025 0.05498
v -0.00723 0.00289 0.09260
v 0.07957 -0.01736 0.05498
v -0.01301 -0.02604 0.08970
v 0.03326 -0.03183 0.07812
v -0.07087 -0.03183 0.07235
v -0.07087 -0.02025 0.08102
v -0.00433 0.02603 0.08680
v 0.07665 0.02603 0.07812
v 0.01879 0.00868 0.09260
v 0.05061 0.02603 0.08391
v 0.07665 -0.02604 0.06077
v 0.04483 -0.01736 0.08680
v -0.06799 0.02893 0.06656
v 0.07957 0.02314 0.05498
v -0.04773 -0.02893 0.08391
v -0.06799 0.02314 0.08102
v 0.03326 -0.02893 0.08391
v 0.07376 0.02893 0.06656
v -0.00433 -0.01157 0.09260
v 0.07086 -0.00289 0.08391
v -0.07957 0.02025 0.06366
v 0.02168 0.02025 0.08970
v -0.07667 0.02603 0.06656
v -0.05930 -0.03183 0.05788
v -0.00433 0.02893 0.08391
v -0.07667 -0.02314 0.05498
v -0.05642 -0.03183 0.07812
v -0.07667 -0.02604 0.06945
v 0.01879 -0.03183 0.06656
v -0.05642 0.01446 0.08391
v -0.07667 0.02025 0.07812
v 0.06798 -0.02604 0.07812
v -0.03327 -0.02893 0.05498
v 0.04483 0.02893 0.08102
v 0.07957 -0.02314 0.07235
v 0.07957 -0.00001 0.02025
v 0.04195 0.01735 0.02025
v 0.04195 0.01735 0.02315
v 0.06220 -0.02893 -0.00868
v 0.07667 0.02314 -0.00868
v 0.06799 -0.02893 0.02315
v 0.07667 -0.02604 -0.00868
v 0.07667 0.02314 0.02315
v 0.06220 0.02314 -0.00868
v 0.04484 0.02025 0.00868
v 0.05932 -0.02604 0.01447
v 0.07667 -0.02604 0.02315
v 0.06509 0.02604 0.01736
v 0.05932 -0.02604 -0.00868
v 0.07957 0.01446 -0.00868
v 0.04195 0.02314 0.02315
v 0.07957 0.01735 0.02315
v 0.05932 -0.02314 0.02315
v 0.07377 -0.02893 -0.00868
v 0.07088 0.02604 0.00579
v 0.06509 0.02604 0.00579
v 0.07957 0.00578 -0.00868
v 0.07377 -0.02893 0.01736
v 0.04195 0.02314 0.02025
v 0.04484 0.01735 0.00868
v 0.06509 -0.02893 0.02025
v 0.05932 -0.02025 -0.00868
v 0.07088 0.02604 0.01736
v 0.06220 -0.02604 0.02315
v 0.07377 0.02604 0.05498
v 0.06510 0.02604 0.05498
v 0.06799 -0.02315 0.05498
v 0.07957 0.01735 0.02315
v 0.05642 0.02314 0.02605
v 0.07957 -0.01446 0.05498
v 0.07667 -0.02604 0.02315
v 0.05642 0.01446 0.04919
v 0.05931 -0.02315 0.03762
v 0.07957 0.02314 0.05498
v 0.07667 0.02314 0.02315
v 0.07377 -0.02604 0.04629
v 0.05931 0.02314 0.02315
v 0.05642 0.02314 0.04919
v 0.07957 -0.00000 0.02315
v 0.05931 -0.02025 0.02605
v 0.07667 -0.02315 0.05498
v 0.06220 0.01157 0.05498
v 0.06220 -0.02315 0.04629
v 0.05642 0.01446 0.02605
v 0.06220 -0.02604 0.03762
v 0.07377 0.02604 0.04919
v 0.07957 0.02314 0.04629
v 0.06220 0.02314 0.05498
v -0.06800 -0.01158 -0.08680
v 0.03616 0.00578 -0.07234
v 0.03327 -0.02314 -0.06077
v -0.07379 0.00578 -0.06077
v -0.06511 -0.03183 -0.06077
v 0.01012 -0.02604 -0.08970
v -0.06511 0.00578 -0.08970
v 0.03616 -0.03183 -0.07812
v 0.03327 0.00578 -0.08391
v -0.05932 -0.03183 -0.07812
v 0.03616 -0.03183 -0.06077
v 0.00722 0.00578 -0.08970
v -0.07379 -0.02025 -0.07234
v -0.04775 0.00578 -0.06077
v -0.06511 -0.02025 -0.08680
v -0.07379 0.00578 -0.07234
v -0.00147 -0.03183 -0.08391
v -0.00436 -0.02604 -0.08970
v -0.07379 -0.02314 -0.06077
v 0.03616 -0.02893 -0.08102
v -0.06511 -0.02893 -0.08102
v -0.07090 -0.02893 -0.06945
v -0.06511 -0.00000 -0.08970
v 0.03616 0.00578 -0.08102
v 0.03037 -0.02604 -0.08391
v -0.06800 -0.02314 -0.08391
v -0.07090 0.00578 -0.08102
v -0.06511 -0.02604 -0.08391
v 0.01012 0.00289 -0.08970
v 0.01012 -0.03183 -0.08391
v -0.07090 -0.01736 -0.08102
v -0.06511 -0.03183 -0.07234
v 0.02747 -0.02893 -0.08391
v 0.01590 0.00578 -0.06945
v -0.07090 -0.02893 -0.06077
v 0.03616 -0.02604 -0.06077
v -0.06800 -0.02893 -0.07812
v -0.00726 -0.02893 -0.08680
v 0.03616 0.02604 -0.05498
v -0.06800 0.01447 -0.09260
v -0.06800 0.02314 -0.09260
v -0.07379 0.00579 -0.05498
v 0.03616 0.00579 -0.08391
v -0.06800 0.03183 -0.05787
v 0.03616 0.02893 -0.08102
v 0.03616 0.00579 -0.06945
v -0.06800 0.00579 -0.08970
v -0.06511 0.03183 -0.08102
v 0.00431 0.01158 -0.05498
v 0.00722 0.00579 -0.08970
v -0.07379 0.02893 -0.05498
v -0.00436 0.03183 -0.06945
v 0.00143 0.02893 -0.08681
v -0.07379 0.02314 -0.07523
v -0.05932 0.02604 -0.09260
v 0.03616 0.02604 -0.08391
v -0.00147 0.03183 -0.08102
v 0.00722 0.02893 -0.05498
v 0.03616 0.02025 -0.05498
v 0.00143 0.01736 -0.08970
v -0.07379 0.00868 -0.07523
v 0.03616 0.02893 -0.06945
v -0.05932 0.00868 -0.09260
v -0.05642 0.00579 -0.05498
v -0.07090 0.02893 -0.08102
v -0.07090 0.01158 -0.08681
v -0.07379 0.02893 -0.06656
v -0.06800 0.02893 -0.08681
v -0.07379 0.00579 -0.07234
v 0.00722 0.01158 -0.08970
v -0.07090 0.02314 -0.08681
v -0.06800 0.03183 -0.07523
v -0.06221 0.03183 -0.05787
v -0.05642 0.01447 -0.09260
v 0.05353 -0.02315 -0.08391
v 0.07667 -0.00868 -0.00868
v 0.06220 -0.00868 -0.00868
v 0.07378 -0.02893 -0.00868
v 0.03616 -0.02893 -0.02026
v 0.03616 -0.00868 -0.07811
v 0.07667 -0.00868 -0.07811
v 0.03616 -0.03183 -0.07523
v 0.07088 -0.02893 -0.07234
v 0.03616 -0.02315 -0.01738
v 0.07667 -0.02604 -0.06075
v 0.06509 -0.03183 -0.04053
v 0.07088 -0.00868 -0.08681
v 0.03616 -0.03183 -0.04053
v 0.05931 -0.03183 -0.07523
v 0.07088 -0.02025 -0.08391
v 0.06220 -0.02893 -0.00868
v 0.03616 -0.02025 -0.08102
v 0.07667 -0.02604 -0.00868
v 0.05642 -0.00868 -0.08681
v 0.03616 -0.00868 -0.07234
v 0.07667 -0.02025 -0.07523
v 0.05931 -0.01736 -0.08681
v 0.03616 -0.02604 -0.08102
v 0.07378 -0.02893 -0.05496
v 0.06799 -0.02315 -0.08391
v 0.05931 -0.01736 -0.00868
v 0.07088 -0.01447 -0.08681
v 0.06220 -0.03183 -0.07234
v 0.03616 -0.02604 -0.01738
v 0.07378 -0.01447 -0.08391
v 0.05931 -0.02604 -0.00868
v 0.07378 -0.02315 -0.07811
v 0.06799 -0.02604 -0.08102
v 0.05642 0.00290 -0.08970
v 0.07957 0.01446 -0.00868
v 0.07957 0.00579 -0.00868
v 0.03616 0.02314 -0.03184
v 0.07088 0.02604 -0.08391
v 0.03616 -0.00868 -0.07812
v 0.07666 -0.00868 -0.08101
v 0.06220 -0.00868 -0.00868
v 0.03616 0.02894 -0.08101
v 0.07088 0.02604 -0.01158
v 0.07666 0.02314 -0.07812
v 0.07666 -0.00868 -0.00868
v 0.05930 0.02314 -0.00868
v 0.07088 -0.00578 -0.08970
v 0.03616 0.01736 -0.03184
v 0.06798 0.02894 -0.07812
v 0.06798 0.02025 -0.08970
v 0.03616 0.02604 -0.03763
v 0.03616 0.02604 -0.08391
v 0.03616 -0.00868 -0.07233
v 0.07666 0.02314 -0.00868
v 0.07666 0.01736 -0.08391
v 0.06220 -0.00868 -0.08970
v 0.03616 0.00579 -0.08391
v 0.03616 0.02894 -0.06945
v 0.07957 0.01157 -0.02606
v 0.05642 0.02025 -0.08970
v 0.06510 0.02604 -0.08681
v 0.07377 0.02604 -0.01447
v 0.06510 0.02894 -0.06654
v 0.06510 0.02604 -0.01158
v 0.05930 0.01157 -0.00868
v 0.07377 0.02604 -0.07812
v 0.07666 -0.00289 -0.08391
v 0.07088 0.01736 -0.08970
v 0.07957 0.00579 -0.02606
v 0.06510 0.02894 -0.08101
v 0.05642 0.02604 -0.08681
v 0.07377 0.02025 -0.08681
v -0.07669 0.00578 -0.03761
v -0.06511 -0.03183 -0.06077
v -0.05065 -0.03183 -0.06077
v -0.05065 -0.02893 0.02315
v -0.05354 0.00578 -0.06077
v -0.07090 0.00578 0.02315
v -0.07090 -0.02604 0.02315
v -0.07669 -0.00869 -0.05787
v -0.05933 0.00578 0.01157
v -0.05065 -0.01446 0.01157
v -0.07379 -0.02314 -0.06077
v -0.07379 0.00578 -0.06077
v -0.06800 -0.03183 -0.04340
v -0.06222 0.00578 0.02315
v -0.05065 -0.01446 -0.06077
v -0.06511 -0.02893 0.02315
v -0.07669 -0.00869 -0.04051
v -0.07379 -0.02314 -0.03182
v -0.07090 -0.02893 -0.06077
v -0.07669 0.00578 -0.05787
v -0.06222 -0.03183 -0.03761
v -0.05065 -0.02314 0.02315
v -0.07090 -0.02893 -0.03182
v -0.05354 0.00578 -0.05787
v -0.05065 -0.03183 -0.05497
v -0.05065 0.01736 -0.05496
v -0.05065 0.02314 0.01735
v -0.05933 0.02314 0.02315
v -0.06222 0.00579 0.02315
v -0.07379 0.02893 -0.05496
v -0.07669 0.00579 -0.05496
v -0.07090 0.02314 0.02315
v -0.05065 0.02893 -0.04628
v -0.05065 0.00868 0.00578
v -0.05933 0.00579 -0.05496
v -0.06800 0.03183 -0.02604
v -0.07090 0.00579 0.02315
v -0.07669 0.01447 -0.03760
v -0.05065 0.02604 0.01445
v -0.07090 0.02604 0.01445
v -0.05644 0.02893 -0.05496
v -0.06222 0.03183 -0.04628
v -0.05065 0.02893 -0.01158
v -0.06222 0.02893 0.00578
v -0.07379 0.02893 -0.03760
v -0.05065 0.00868 0.01156
v -0.06800 0.02604 0.02024
v -0.07669 0.00579 -0.03760
v -0.07669 0.01736 -0.05496
v -0.05065 0.01447 -0.04339
v -0.05933 0.00579 0.01445
v -0.06222 0.03183 -0.02893
v -0.05065 0.02604 -0.05496
v -0.07379 0.02604 -0.02314
v -0.06800 0.03183 -0.04628
v -0.05644 0.00868 -0.05496
v -0.05933 0.02604 0.02024
v -0.05065 0.02025 0.01735
v -0.06511 0.02893 0.00578
v 0.02169 0.02025 0.02315
v -0.02170 0.02025 -0.05496
v -0.05065 0.02025 -0.04918
v -0.03328 0.00579 0.00288
v -0.04775 0.02604 0.01735
v 0.03616 0.02604 -0.05496
v 0.03616 0.01736 -0.05496
v -0.05065 0.02894 -0.04339
v 0.01879 0.02604 0.02315
v -0.05065 0.00579 0.01156
v -0.01303 0.01447 -0.05496
v -0.00146 0.02894 -0.01158
v -0.02170 0.00579 0.00867
v -0.04775 0.02025 0.02315
v -0.02170 0.02894 -0.05496
v 0.01879 0.01736 0.02315
v 0.03616 0.01736 -0.03182
v -0.05065 0.02894 -0.01158
v 0.01301 0.01447 -0.05496
v -0.04775 0.01736 -0.04918
v 0.03616 0.02604 -0.03760
v 0.01012 0.02894 -0.04918
v -0.04775 0.00579 0.00288
v -0.05065 0.02604 0.01445
v 0.01012 0.02894 -0.02893
v -0.01303 0.02604 0.02315
v -0.05065 0.02604 -0.04918
v -0.01013 0.01736 0.02315
v 0.02169 0.02314 0.02315
v -0.00724 0.02894 -0.00869
v -0.04775 0.02314 0.02315
v -0.02170 0.00579 0.00578
v -0.05065 0.01736 -0.04628
v -0.03328 0.00579 0.01156
v 0.03616 0.02314 -0.03182
v 0.00721 0.02894 -0.05496
v -0.05065 0.01736 0.01735
v -0.05065 0.00579 0.00578
v -0.02749 0.02894 -0.00869
v -0.06801 -0.02894 0.02894
v -0.06222 0.00578 0.05498
v -0.07669 0.00578 0.05498
v -0.06222 0.00578 0.02315
v -0.05933 -0.02894 0.05498
v -0.07669 -0.02025 0.05498
v -0.07379 0.00578 0.02894
v -0.05933 -0.02894 0.02315
v -0.07090 -0.02604 0.02315
v -0.05933 -0.01158 0.03183
v -0.07090 -0.02894 0.05498
v -0.07669 -0.01447 0.04629
v -0.07090 0.00578 0.02315
v -0.05933 -0.01158 0.05498
v -0.07379 -0.01736 0.02894
v -0.07379 -0.02604 0.04340
v -0.07669 0.00578 0.04629
v -0.05933 -0.01736 0.02315
v -0.07379 -0.02315 0.03473
v -0.07090 -0.02894 0.04051
v -0.02171 0.02025 0.05498
v -0.07089 0.00579 0.02315
v -0.07089 0.02315 0.02315
v -0.07668 0.02025 0.05498
v -0.07668 0.00579 0.05498
v -0.02171 0.01736 0.03183
v -0.02751 0.01157 0.05498
v -0.03618 0.02604 0.02894
v -0.07089 0.02604 0.05498
v -0.03908 0.02025 0.02315
v -0.06221 0.00579 0.02315
v -0.07089 0.02604 0.02894
v -0.02171 0.02315 0.04340
v -0.06221 0.00579 0.05498
v -0.07379 0.01736 0.02894
v -0.05932 0.02604 0.05498
v -0.02171 0.02315 0.03183
v -0.07668 0.00579 0.04629
v -0.02171 0.01447 0.05498
v -0.07379 0.02604 0.04051
v -0.03908 0.02315 0.02315
v -0.03618 0.02604 0.03762
v -0.06800 0.02604 0.02605
v -0.05932 0.00579 0.04340
v -0.02751 0.01157 0.05208
v -0.07379 0.00579 0.02894
v -0.07668 0.01447 0.04629
v -0.04197 0.01736 0.02315
v 0.05351 0.01736 0.05498
v -0.01591 0.02025 0.02315
v -0.02171 0.01736 0.03183
v 0.00144 0.02604 0.05498
v 0.05641 0.02315 0.02315
v 0.05641 0.01447 0.02315
v -0.00723 0.01157 0.05498
v -0.01302 0.02604 0.02315
v 0.05062 0.02604 0.05498
v -0.02171 0.02025 0.05498
v 0.04483 0.01157 0.05498
v 0.00144 0.01157 0.04051
v 0.04772 0.02604 0.03183
v -0.01013 0.01736 0.02315
v 0.05641 0.01447 0.04919
v -0.02171 0.02315 0.04340
v -0.02171 0.01447 0.05208
v 0.05641 0.02315 0.05208
v -0.00145 0.01447 0.02894
v -0.01591 0.02604 0.03762
v 0.02169 0.02604 0.02315
v -0.02171 0.02315 0.03183
v -0.01591 0.01447 0.03762
v 0.04483 0.01157 0.04919
v 0.04483 0.01447 0.02315
v -0.01302 0.02315 0.05498
v -0.02171 0.01447 0.05498
v 0.01013 0.01157 0.04051
v 0.05062 0.02604 0.03473
v 0.00721 -0.02026 -0.00289
v -0.05065 -0.03183 -0.06077
v -0.05065 -0.03183 -0.04340
v 0.03616 -0.03183 -0.06077
v -0.05065 -0.01736 -0.06077
v 0.00721 -0.03183 -0.00289
v -0.05065 -0.02315 -0.00579
v -0.00146 -0.01447 -0.01736
v 0.03616 -0.02315 -0.05787
v 0.03326 -0.02315 -0.00289
v -0.05065 -0.02893 -0.01158
v 0.01012 -0.01736 -0.04919
v -0.04775 -0.02026 -0.00579
v 0.03326 -0.02893 -0.00289
v -0.01013 -0.01447 -0.01158
v -0.01013 -0.03183 -0.00289
v 0.01301 -0.02026 -0.06077
v 0.03616 -0.02315 -0.01447
v 0.03616 -0.03183 -0.04051
v -0.01881 -0.02026 -0.00289
v -0.05065 -0.02026 -0.00868
v -0.00146 -0.01447 -0.01158
v -0.05065 -0.02604 -0.00579
v 0.03326 -0.02315 -0.06077
v -0.02460 -0.02893 -0.00289
v -0.04485 -0.01736 -0.06077
v 0.03616 -0.02893 -0.01736
v -0.05065 -0.01736 -0.05787
v -0.02171 -0.01736 0.05208
v -0.05933 -0.02894 0.02315
v -0.05933 -0.02894 0.05498
v -0.05064 -0.01447 0.05498
v -0.02171 -0.02604 0.02605
v -0.05933 -0.02026 0.02315
v -0.03329 -0.02894 0.05498
v -0.04485 -0.01447 0.04051
v -0.02750 -0.02315 0.02315
v -0.02171 -0.02604 0.05498
v -0.02461 -0.02894 0.02605
v -0.05933 -0.01736 0.05498
v -0.02750 -0.01447 0.05498
v -0.05933 -0.01736 0.03183
v -0.02171 -0.02315 0.02605
v -0.03329 -0.01447 0.04629
v -0.03040 -0.02894 0.02315
v -0.03618 -0.01736 0.03473
v -0.02750 -0.01447 0.05208
v 0.02747 -0.02025 0.02315
v -0.02170 -0.02893 -0.00289
v -0.02170 -0.02315 -0.00289
v -0.05065 -0.02893 0.02315
v -0.05065 -0.01158 0.01157
v 0.03326 -0.02893 -0.00289
v 0.00433 -0.00868 0.00579
v 0.01879 -0.02893 0.02025
v -0.05065 -0.02315 0.00000
v -0.01013 -0.03183 -0.00289
v 0.03326 -0.02315 -0.00289
v -0.05065 -0.01447 0.00290
v -0.05065 -0.02315 0.02315
v -0.05065 -0.02893 0.00290
v 0.02747 -0.02604 0.02315
v -0.01880 -0.02025 -0.00289
v 0.00433 -0.03183 0.00290
v -0.02459 -0.00868 0.00868
v 0.03326 -0.02893 0.00579
v -0.00147 -0.02025 0.02315
v -0.02459 -0.00868 0.00579
v 0.00433 -0.00868 0.00868
v -0.00725 -0.02893 0.02315
v 0.00722 -0.02025 -0.00289
v -0.02459 -0.01158 0.00290
v 0.03326 -0.02315 0.00868
v -0.05065 -0.01158 0.00579
v 0.00722 -0.03183 -0.00289
v -0.05065 -0.02604 0.00000
v -0.01013 -0.03183 0.00290
v 0.03326 -0.01736 0.04051
v -0.02171 -0.02604 0.02315
v -0.02171 -0.02315 0.02315
v 0.02747 -0.02315 0.02315
v 0.02458 -0.02315 0.04630
v 0.01011 -0.01158 0.04630
v 0.01880 -0.01447 0.02605
v -0.00434 -0.01736 0.04340
v -0.01592 -0.02893 0.02605
v 0.02747 -0.02604 0.03472
v -0.00434 -0.01447 0.02894
v 0.03616 -0.01736 0.02894
v 0.01011 -0.02315 0.04630
v 0.01880 -0.01158 0.04630
v 0.02458 -0.02604 0.02315
v 0.03616 -0.02315 0.03762
v -0.02171 -0.02604 0.02894
v -0.00434 -0.01447 0.04340
v -0.00145 -0.01736 0.02315
v 0.02458 -0.01736 0.02315
v 0.03616 -0.02315 0.02894
v -0.01013 -0.02893 0.02315
v 0.00434 -0.02025 0.04630
v 0.01880 -0.01158 0.04340
v 0.00145 -0.01447 0.02605
v -0.02171 -0.02315 0.02894
v 0.03616 -0.01736 0.03762
v 0.02458 -0.01447 0.04630
v 0.02747 -0.01447 0.03183
v -0.01302 -0.02315 0.04919
v 0.01879 -0.00868 0.05498
v 0.03037 -0.01158 0.05498
v 0.02458 -0.01158 0.04630
v 0.04484 -0.02315 0.05498
v -0.02170 -0.01736 0.05498
v 0.03905 -0.02315 0.04630
v -0.02170 -0.02604 0.05498
v 0.00723 -0.01158 0.04630
v 0.04194 -0.01447 0.04919
v -0.01880 -0.01447 0.05208
v 0.01012 -0.02315 0.04630
v -0.02170 -0.02604 0.05208
v 0.01301 -0.00868 0.04919
v -0.01591 -0.01736 0.04919
v -0.00434 -0.02604 0.05208
v 0.04194 -0.01447 0.05498
v -0.00434 -0.01158 0.05498
v 0.04484 -0.02315 0.04919
v 0.03905 -0.01736 0.04630
v 0.01879 -0.00868 0.04919
v 0.04484 -0.01736 0.04919
v 0.00434 -0.02025 0.04630
v -0.05065 -0.00289 0.00579
v -0.02171 0.00579 0.00868
v -0.02171 0.00579 0.00579
v -0.01014 -0.00868 0.00868
v -0.04775 0.00579 0.01157
v -0.04486 0.00579 0.00289
v -0.01014 -0.00868 0.00579
v -0.04775 -0.00289 0.01157
v -0.03328 0.00579 0.01157
v -0.01014 -0.00289 0.00579
v -0.03328 0.00289 0.00289
v -0.01014 -0.00289 0.00868
v -0.05065 0.00579 0.00868
v -0.03328 -0.00289 0.01157
v -0.01593 -0.00868 0.00579
v -0.04486 0.00289 0.00289
v -0.03328 0.00579 0.00289
v 0.00144 -0.00868 0.00579
v 0.00433 0.00289 0.00868
v 0.00144 0.00289 0.00868
v 0.00433 -0.00868 0.00868
v 0.00433 0.00289 0.00579
f 138 145 155 
f 120 121 122 
f 121 119 124 
f 124 119 126 
f 125 122 127 
f 120 122 128 
f 125 119 128 
f 122 125 128 
f 123 124 129 
f 124 126 129 
f 121 120 131 
f 119 121 131 
f 121 124 133 
f 130 121 133 
f 125 127 134 
f 124 123 135 
f 123 134 135 
f 122 121 136 
f 121 130 136 
f 119 125 137 
f 134 127 138 
f 136 130 139 
f 118 124 140 
f 132 118 140 
f 124 135 140 
f 135 132 140 
f 126 119 141 
f 119 137 141 
f 137 126 141 
f 123 126 142 
f 126 137 142 
f 118 132 143 
f 124 118 144 
f 133 124 144 
f 130 133 144 
f 132 135 145 
f 143 132 145 
f 138 143 145 
f 126 123 146 
f 123 129 146 
f 129 126 146 
f 134 123 147 
f 125 134 147 
f 118 143 148 
f 143 130 148 
f 144 118 148 
f 130 144 148 
f 127 122 149 
f 138 127 149 
f 122 139 149 
f 137 125 150 
f 123 142 150 
f 142 137 150 
f 147 123 150 
f 125 147 150 
f 120 119 151 
f 131 120 151 
f 119 131 151 
f 122 136 152 
f 139 122 152 
f 136 139 152 
f 119 120 153 
f 120 128 153 
f 128 119 153 
f 139 130 154 
f 130 143 154 
f 143 138 154 
f 138 149 154 
f 149 139 154 
f 135 134 155 
f 134 138 155 
f 145 135 155 
