# Original object name hint: convex_0
v -0.00433 -0.03183 0.08391
v 0.01011 0.03182 0.07523
v 0.01011 0.03182 0.07235
v -0.07957 0.02025 0.07523
v 0.07665 -0.02314 0.05498
v -0.07377 -0.02893 0.05498
v -0.07087 0.02603 0.05498
v 0.06508 0.01736 0.08680
v 0.07665 0.02603 0.05498
v -0.04773 -0.02025 0.08680
v 0.00431 0.01446 0.09260
v 0.07376 -0.02314 0.07812
v 0.01011 -0.01446 0.09260
v -0.07087 -0.02893 0.07812
v 0.07957 0.02603 0.07235
v -0.07377 0.02603 0.07812
v 0.03036 -0.03183 0.06945
v 0.01299 0.02893 0.08391
v -0.06799 -0.03183 0.05788
v -0.07957 -0.01157 0.06077
v -0.07087 0.01736 0.08102
v 0.07086 0.02893 0.07523
v 0.07665 -0.02604 0.07235
v 0.01011 -0.02604 0.08970
v 0.06508 -0.00000 0.08680
v -0.07957 -0.01736 0.07523
v -0.06510 0.02893 0.07523
v 0.07957 -0.01736 0.07523
v -0.07667 0.02025 0.05498
v -0.00723 0.00289 0.09260
v 0.07957 -0.01736 0.05498
v -0.01301 -0.02604 0.08970
v 0.03326 -0.03183 0.07812
v -0.07087 -0.03183 0.07235
v -0.07087 -0.02025 0.08102
v -0.00433 0.02603 0.08680
v 0.07665 0.02603 0.07812
v 0.01879 0.00868 0.09260
v 0.05061 0.02603 0.08391
v 0.07665 -0.02604 0.06077
v 0.04483 -0.01736 0.08680
v -0.06799 0.02893 0.06656
v 0.07957 0.02314 0.05498
v -0.04773 -0.02893 0.08391
v -0.06799 0.02314 0.08102
v 0.03326 -0.02893 0.08391
v 0.07376 0.02893 0.06656
v -0.00433 -0.01157 0.09260
v 0.07086 -0.00289 0.08391
v -0.07957 0.02025 0.06366
v 0.02168 0.02025 0.08970
v -0.07667 0.02603 0.06656
v -0.05930 -0.03183 0.05788
v -0.00433 0.02893 0.08391
v -0.07667 -0.02314 0.05498
v -0.05642 -0.03183 0.07812
v -0.07667 -0.02604 0.06945
v 0.01879 -0.03183 0.06656
v -0.05642 0.01446 0.08391
v -0.07667 0.02025 0.07812
v 0.06798 -0.02604 0.07812
v -0.03327 -0.02893 0.05498
v 0.04483 0.02893 0.08102
v 0.07957 -0.02314 0.07235
v 0.07957 -0.00001 0.02025
v 0.04195 0.01735 0.02025
v 0.04195 0.01735 0.02315
v 0.06220 -0.02893 -0.00868
v 0.07667 0.02314 -0.00868
v 0.06799 -0.02893 0.02315
v 0.07667 -0.02604 -0.00868
v 0.07667 0.02314 0.02315
v 0.06220 0.02314 -0.00868
v 0.04484 0.02025 0.00868
v 0.05932 -0.02604 0.01447
v 0.07667 -0.02604 0.02315
v 0.06509 0.02604 0.01736
v 0.05932 -0.02604 -0.00868
v 0.07957 0.01446 -0.00868
v 0.04195 0.02314 0.02315
v 0.07957 0.01735 0.02315
v 0.05932 -0.02314 0.02315
v 0.07377 -0.02893 -0.00868
v 0.07088 0.02604 0.00579
v 0.06509 0.02604 0.00579
v 0.07957 0.00578 -0.00868
v 0.07377 -0.02893 0.01736
v 0.04195 0.02314 0.02025
v 0.04484 0.01735 0.00868
v 0.06509 -0.02893 0.02025
v 0.05932 -0.02025 -0.00868
v 0.07088 0.02604 0.01736
v 0.06220 -0.02604 0.02315
v 0.07377 0.02604 0.05498
v 0.06510 0.02604 0.05498
v 0.06799 -0.02315 0.05498
v 0.07957 0.01735 0.02315
v 0.05642 0.02314 0.02605
v 0.07957 -0.01446 0.05498
v 0.07667 -0.02604 0.02315
v 0.05642 0.01446 0.04919
v 0.05931 -0.02315 0.03762
v 0.07957 0.02314 0.05498
v 0.07667 0.02314 0.02315
v 0.07377 -0.02604 0.04629
v 0.05931 0.02314 0.02315
v 0.05642 0.02314 0.04919
v 0.07957 -0.00000 0.02315
v 0.05931 -0.02025 0.02605
v 0.07667 -0.02315 0.05498
v 0.06220 0.01157 0.05498
v 0.06220 -0.02315 0.04629
v 0.05642 0.01446 0.02605
v 0.06220 -0.02604 0.03762
v 0.07377 0.02604 0.04919
v 0.07957 0.02314 0.04629
v 0.06220 0.02314 0.05498
v -0.06800 -0.01158 -0.08680
v 0.03616 0.00578 -0.07234
v 0.03327 -0.02314 -0.06077
v -0.07379 0.00578 -0.06077
v -0.06511 -0.03183 -0.06077
v 0.01012 -0.02604 -0.08970
v -0.06511 0.00578 -0.08970
v 0.03616 -0.03183 -0.07812
v 0.03327 0.00578 -0.08391
v -0.05932 -0.03183 -0.07812
v 0.03616 -0.03183 -0.06077
v 0.00722 0.00578 -0.08970
v -0.07379 -0.02025 -0.07234
v -0.04775 0.00578 -0.06077
v -0.06511 -0.02025 -0.08680
v -0.07379 0.00578 -0.07234
v -0.00147 -0.03183 -0.08391
v -0.00436 -0.02604 -0.08970
v -0.07379 -0.02314 -0.06077
v 0.03616 -0.02893 -0.08102
v -0.06511 -0.02893 -0.08102
v -0.07090 -0.02893 -0.06945
v -0.06511 -0.00000 -0.08970
v 0.03616 0.00578 -0.08102
v 0.03037 -0.02604 -0.08391
v -0.06800 -0.02314 -0.08391
v -0.07090 0.00578 -0.08102
v -0.06511 -0.02604 -0.08391
v 0.01012 0.00289 -0.08970
v 0.01012 -0.03183 -0.08391
v -0.07090 -0.01736 -0.08102
v -0.06511 -0.03183 -0.07234
v 0.02747 -0.02893 -0.08391
v 0.01590 0.00578 -0.06945
v -0.07090 -0.02893 -0.06077
v 0.03616 -0.02604 -0.06077
v -0.06800 -0.02893 -0.07812
v -0.00726 -0.02893 -0.08680
v 0.03616 0.02604 -0.05498
v -0.06800 0.01447 -0.09260
v -0.06800 0.02314 -0.09260
v -0.07379 0.00579 -0.05498
v 0.03616 0.00579 -0.08391
v -0.06800 0.03183 -0.05787
v 0.03616 0.02893 -0.08102
v 0.03616 0.00579 -0.06945
v -0.06800 0.00579 -0.08970
v -0.06511 0.03183 -0.08102
v 0.00431 0.01158 -0.05498
v 0.00722 0.00579 -0.08970
v -0.07379 0.02893 -0.05498
v -0.00436 0.03183 -0.06945
v 0.00143 0.02893 -0.08681
v -0.07379 0.02314 -0.07523
v -0.05932 0.02604 -0.09260
v 0.03616 0.02604 -0.08391
v -0.00147 0.03183 -0.08102
v 0.00722 0.02893 -0.05498
v 0.03616 0.02025 -0.05498
v 0.00143 0.01736 -0.08970
v -0.07379 0.00868 -0.07523
v 0.03616 0.02893 -0.06945
v -0.05932 0.00868 -0.09260
v -0.05642 0.00579 -0.05498
v -0.07090 0.02893 -0.08102
v -0.07090 0.01158 -0.08681
v -0.07379 0.02893 -0.06656
v -0.06800 0.02893 -0.08681
v -0.07379 0.00579 -0.07234
v 0.00722 0.01158 -0.08970
v -0.07090 0.02314 -0.08681
v -0.06800 0.03183 -0.07523
v -0.06221 0.03183 -0.05787
v -0.05642 0.01447 -0.09260
v 0.05353 -0.02315 -0.08391
v 0.07667 -0.00868 -0.00868
v 0.06220 -0.00868 -0.00868
v 0.07378 -0.02893 -0.00868
v 0.03616 -0.02893 -0.02026
v 0.03616 -0.00868 -0.07811
v 0.07667 -0.00868 -0.07811
v 0.03616 -0.03183 -0.07523
v 0.07088 -0.02893 -0.07234
v 0.03616 -0.02315 -0.01738
v 0.07667 -0.02604 -0.06075
v 0.06509 -0.03183 -0.04053
v 0.07088 -0.00868 -0.08681
v 0.03616 -0.03183 -0.04053
v 0.05931 -0.03183 -0.07523
v 0.07088 -0.02025 -0.08391
v 0.06220 -0.02893 -0.00868
v 0.03616 -0.02025 -0.08102
v 0.07667 -0.02604 -0.00868
v 0.05642 -0.00868 -0.08681
v 0.03616 -0.00868 -0.07234
v 0.07667 -0.02025 -0.07523
v 0.05931 -0.01736 -0.08681
v 0.03616 -0.02604 -0.08102
v 0.07378 -0.02893 -0.05496
v 0.06799 -0.02315 -0.08391
v 0.05931 -0.01736 -0.00868
v 0.07088 -0.01447 -0.08681
v 0.06220 -0.03183 -0.07234
v 0.03616 -0.02604 -0.01738
v 0.07378 -0.01447 -0.08391
v 0.05931 -0.02604 -0.00868
v 0.07378 -0.02315 -0.07811
v 0.06799 -0.02604 -0.08102
v 0.05642 0.00290 -0.08970
v 0.07957 0.01446 -0.00868
v 0.07957 0.00579 -0.00868
v 0.03616 0.02314 -0.03184
v 0.07088 0.02604 -0.08391
v 0.03616 -0.00868 -0.07812
v 0.07666 -0.00868 -0.08101
v 0.06220 -0.00868 -0.00868
v 0.03616 0.02894 -0.08101
v 0.07088 0.02604 -0.01158
v 0.07666 0.02314 -0.07812
v 0.07666 -0.00868 -0.00868
v 0.05930 0.02314 -0.00868
v 0.07088 -0.00578 -0.08970
v 0.03616 0.01736 -0.03184
v 0.06798 0.02894 -0.07812
v 0.06798 0.02025 -0.08970
v 0.03616 0.02604 -0.03763
v 0.03616 0.02604 -0.08391
v 0.03616 -0.00868 -0.07233
v 0.07666 0.02314 -0.00868
v 0.07666 0.01736 -0.08391
v 0.06220 -0.00868 -0.08970
v 0.03616 0.00579 -0.08391
v 0.03616 0.02894 -0.06945
v 0.07957 0.01157 -0.02606
v 0.05642 0.02025 -0.08970
v 0.06510 0.02604 -0.08681
v 0.07377 0.02604 -0.01447
v 0.06510 0.02894 -0.06654
v 0.06510 0.02604 -0.01158
v 0.05930 0.01157 -0.00868
v 0.07377 0.02604 -0.07812
v 0.07666 -0.00289 -0.08391
v 0.07088 0.01736 -0.08970
v 0.07957 0.00579 -0.02606
v 0.06510 0.02894 -0.08101
v 0.05642 0.02604 -0.08681
v 0.07377 0.02025 -0.08681
v -0.07669 0.00578 -0.03761
v -0.06511 -0.03183 -0.06077
v -0.05065 -0.03183 -0.06077
v -0.05065 -0.02893 0.02315
v -0.05354 0.00578 -0.06077
v -0.07090 0.00578 0.02315
v -0.07090 -0.02604 0.02315
v -0.07669 -0.00869 -0.05787
v -0.05933 0.00578 0.01157
v -0.05065 -0.01446 0.01157
v -0.07379 -0.02314 -0.06077
v -0.07379 0.00578 -0.06077
v -0.06800 -0.03183 -0.04340
v -0.06222 0.00578 0.02315
v -0.05065 -0.01446 -0.06077
v -0.06511 -0.02893 0.02315
v -0.07669 -0.00869 -0.04051
v -0.07379 -0.02314 -0.03182
v -0.07090 -0.02893 -0.06077
v -0.07669 0.00578 -0.05787
v -0.06222 -0.03183 -0.03761
v -0.05065 -0.02314 0.02315
v -0.07090 -0.02893 -0.03182
v -0.05354 0.00578 -0.05787
v -0.05065 -0.03183 -0.05497
v -0.05065 0.01736 -0.05496
v -0.05065 0.02314 0.01735
v -0.05933 0.02314 0.02315
v -0.06222 0.00579 0.02315
v -0.07379 0.02893 -0.05496
v -0.07669 0.00579 -0.05496
v -0.07090 0.02314 0.02315
v -0.05065 0.02893 -0.04628
v -0.05065 0.00868 0.00578
v -0.05933 0.00579 -0.05496
v -0.06800 0.03183 -0.02604
v -0.07090 0.00579 0.02315
v -0.07669 0.01447 -0.03760
v -0.05065 0.02604 0.01445
v -0.07090 0.02604 0.01445
v -0.05644 0.02893 -0.05496
v -0.06222 0.03183 -0.04628
v -0.05065 0.02893 -0.01158
v -0.06222 0.02893 0.00578
v -0.07379 0.02893 -0.03760
v -0.05065 0.00868 0.01156
v -0.06800 0.02604 0.02024
v -0.07669 0.00579 -0.03760
v -0.07669 0.01736 -0.05496
v -0.05065 0.01447 -0.04339
v -0.05933 0.00579 0.01445
v -0.06222 0.03183 -0.02893
v -0.05065 0.02604 -0.05496
v -0.07379 0.02604 -0.02314
v -0.06800 0.03183 -0.04628
v -0.05644 0.00868 -0.05496
v -0.05933 0.02604 0.02024
v -0.05065 0.02025 0.01735
v -0.06511 0.02893 0.00578
v 0.02169 0.02025 0.02315
v -0.02170 0.02025 -0.05496
v -0.05065 0.02025 -0.04918
v -0.03328 0.00579 0.00288
v -0.04775 0.02604 0.01735
v 0.03616 0.02604 -0.05496
v 0.03616 0.01736 -0.05496
v -0.05065 0.02894 -0.04339
v 0.01879 0.02604 0.02315
v -0.05065 0.00579 0.01156
v -0.01303 0.01447 -0.05496
v -0.00146 0.02894 -0.01158
v -0.02170 0.00579 0.00867
v -0.04775 0.02025 0.02315
v -0.02170 0.02894 -0.05496
v 0.01879 0.01736 0.02315
v 0.03616 0.01736 -0.03182
v -0.05065 0.02894 -0.01158
v 0.01301 0.01447 -0.05496
v -0.04775 0.01736 -0.04918
v 0.03616 0.02604 -0.03760
v 0.01012 0.02894 -0.04918
v -0.04775 0.00579 0.00288
v -0.05065 0.02604 0.01445
v 0.01012 0.02894 -0.02893
v -0.01303 0.02604 0.02315
v -0.05065 0.02604 -0.04918
v -0.01013 0.01736 0.02315
v 0.02169 0.02314 0.02315
v -0.00724 0.02894 -0.00869
v -0.04775 0.02314 0.02315
v -0.02170 0.00579 0.00578
v -0.05065 0.01736 -0.04628
v -0.03328 0.00579 0.01156
v 0.03616 0.02314 -0.03182
v 0.00721 0.02894 -0.05496
v -0.05065 0.01736 0.01735
v -0.05065 0.00579 0.00578
v -0.02749 0.02894 -0.00869
v -0.06801 -0.02894 0.02894
v -0.06222 0.00578 0.05498
v -0.07669 0.00578 0.05498
v -0.06222 0.00578 0.02315
v -0.05933 -0.02894 0.05498
v -0.07669 -0.02025 0.05498
v -0.07379 0.00578 0.02894
v -0.05933 -0.02894 0.02315
v -0.07090 -0.02604 0.02315
v -0.05933 -0.01158 0.03183
v -0.07090 -0.02894 0.05498
v -0.07669 -0.01447 0.04629
v -0.07090 0.00578 0.02315
v -0.05933 -0.01158 0.05498
v -0.07379 -0.01736 0.02894
v -0.07379 -0.02604 0.04340
v -0.07669 0.00578 0.04629
v -0.05933 -0.01736 0.02315
v -0.07379 -0.02315 0.03473
v -0.07090 -0.02894 0.04051
v -0.02171 0.02025 0.05498
v -0.07089 0.00579 0.02315
v -0.07089 0.02315 0.02315
v -0.07668 0.02025 0.05498
v -0.07668 0.00579 0.05498
v -0.02171 0.01736 0.03183
v -0.02751 0.01157 0.05498
v -0.03618 0.02604 0.02894
v -0.07089 0.02604 0.05498
v -0.03908 0.02025 0.02315
v -0.06221 0.00579 0.02315
v -0.07089 0.02604 0.02894
v -0.02171 0.02315 0.04340
v -0.06221 0.00579 0.05498
v -0.07379 0.01736 0.02894
v -0.05932 0.02604 0.05498
v -0.02171 0.02315 0.03183
v -0.07668 0.00579 0.04629
v -0.02171 0.01447 0.05498
v -0.07379 0.02604 0.04051
v -0.03908 0.02315 0.02315
v -0.03618 0.02604 0.03762
v -0.06800 0.02604 0.02605
v -0.05932 0.00579 0.04340
v -0.02751 0.01157 0.05208
v -0.07379 0.00579 0.02894
v -0.07668 0.01447 0.04629
v -0.04197 0.01736 0.02315
v 0.05351 0.01736 0.05498
v -0.01591 0.02025 0.02315
v -0.02171 0.01736 0.03183
v 0.00144 0.02604 0.05498
v 0.05641 0.02315 0.02315
v 0.05641 0.01447 0.02315
v -0.00723 0.01157 0.05498
v -0.01302 0.02604 0.02315
v 0.05062 0.02604 0.05498
v -0.02171 0.02025 0.05498
v 0.04483 0.01157 0.05498
v 0.00144 0.01157 0.04051
v 0.04772 0.02604 0.03183
v -0.01013 0.01736 0.02315
v 0.05641 0.01447 0.04919
v -0.02171 0.02315 0.04340
v -0.02171 0.01447 0.05208
v 0.05641 0.02315 0.05208
v -0.00145 0.01447 0.02894
v -0.01591 0.02604 0.03762
v 0.02169 0.02604 0.02315
v -0.02171 0.02315 0.03183
v -0.01591 0.01447 0.03762
v 0.04483 0.01157 0.04919
v 0.04483 0.01447 0.02315
v -0.01302 0.02315 0.05498
v -0.02171 0.01447 0.05498
v 0.01013 0.01157 0.04051
v 0.05062 0.02604 0.03473
v 0.00721 -0.02026 -0.00289
v -0.05065 -0.03183 -0.06077
v -0.05065 -0.03183 -0.04340
v 0.03616 -0.03183 -0.06077
v -0.05065 -0.01736 -0.06077
v 0.00721 -0.03183 -0.00289
v -0.05065 -0.02315 -0.00579
v -0.00146 -0.01447 -0.01736
v 0.03616 -0.02315 -0.05787
v 0.03326 -0.02315 -0.00289
v -0.05065 -0.02893 -0.01158
v 0.01012 -0.01736 -0.04919
v -0.04775 -0.02026 -0.00579
v 0.03326 -0.02893 -0.00289
v -0.01013 -0.01447 -0.01158
v -0.01013 -0.03183 -0.00289
v 0.01301 -0.02026 -0.06077
v 0.03616 -0.02315 -0.01447
v 0.03616 -0.03183 -0.04051
v -0.01881 -0.02026 -0.00289
v -0.05065 -0.02026 -0.00868
v -0.00146 -0.01447 -0.01158
v -0.05065 -0.02604 -0.00579
v 0.03326 -0.02315 -0.06077
v -0.02460 -0.02893 -0.00289
v -0.04485 -0.01736 -0.06077
v 0.03616 -0.02893 -0.01736
v -0.05065 -0.01736 -0.05787
v -0.02171 -0.01736 0.05208
v -0.05933 -0.02894 0.02315
v -0.05933 -0.02894 0.05498
v -0.05064 -0.01447 0.05498
v -0.02171 -0.02604 0.02605
v -0.05933 -0.02026 0.02315
v -0.03329 -0.02894 0.05498
v -0.04485 -0.01447 0.04051
v -0.02750 -0.02315 0.02315
v -0.02171 -0.02604 0.05498
v -0.02461 -0.02894 0.02605
v -0.05933 -0.01736 0.05498
v -0.02750 -0.01447 0.05498
v -0.05933 -0.01736 0.03183
v -0.02171 -0.02315 0.02605
v -0.03329 -0.01447 0.04629
v -0.03040 -0.02894 0.02315
v -0.03618 -0.01736 0.03473
v -0.02750 -0.01447 0.05208
v 0.02747 -0.02025 0.02315
v -0.02170 -0.02893 -0.00289
v -0.02170 -0.02315 -0.00289
v -0.05065 -0.02893 0.02315
v -0.05065 -0.01158 0.01157
v 0.03326 -0.02893 -0.00289
v 0.00433 -0.00868 0.00579
v 0.01879 -0.02893 0.02025
v -0.05065 -0.02315 0.00000
v -0.01013 -0.03183 -0.00289
v 0.03326 -0.02315 -0.00289
v -0.05065 -0.01447 0.00290
v -0.05065 -0.02315 0.02315
v -0.05065 -0.02893 0.00290
v 0.02747 -0.02604 0.02315
v -0.01880 -0.02025 -0.00289
v 0.00433 -0.03183 0.00290
v -0.02459 -0.00868 0.00868
v 0.03326 -0.02893 0.00579
v -0.00147 -0.02025 0.02315
v -0.02459 -0.00868 0.00579
v 0.00433 -0.00868 0.00868
v -0.00725 -0.02893 0.02315
v 0.00722 -0.02025 -0.00289
v -0.02459 -0.01158 0.00290
v 0.03326 -0.02315 0.00868
v -0.05065 -0.01158 0.00579
v 0.00722 -0.03183 -0.00289
v -0.05065 -0.02604 0.00000
v -0.01013 -0.03183 0.00290
v 0.03326 -0.01736 0.04051
v -0.02171 -0.02604 0.02315
v -0.02171 -0.02315 0.02315
v 0.02747 -0.02315 0.02315
v 0.02458 -0.02315 0.04630
v 0.01011 -0.01158 0.04630
v 0.01880 -0.01447 0.02605
v -0.00434 -0.01736 0.04340
v -0.01592 -0.02893 0.02605
v 0.02747 -0.02604 0.03472
v -0.00434 -0.01447 0.02894
v 0.03616 -0.01736 0.02894
v 0.01011 -0.02315 0.04630
v 0.01880 -0.01158 0.04630
v 0.02458 -0.02604 0.02315
v 0.03616 -0.02315 0.03762
v -0.02171 -0.02604 0.02894
v -0.00434 -0.01447 0.04340
v -0.00145 -0.01736 0.02315
v 0.02458 -0.01736 0.02315
v 0.03616 -0.02315 0.02894
v -0.01013 -0.02893 0.02315
v 0.00434 -0.02025 0.04630
v 0.01880 -0.01158 0.04340
v 0.00145 -0.01447 0.02605
v -0.02171 -0.02315 0.02894
v 0.03616 -0.01736 0.03762
v 0.02458 -0.01447 0.04630
v 0.02747 -0.01447 0.03183
v -0.01302 -0.02315 0.04919
v 0.01879 -0.00868 0.05498
v 0.03037 -0.01158 0.05498
v 0.02458 -0.01158 0.04630
v 0.04484 -0.02315 0.05498
v -0.02170 -0.01736 0.05498
v 0.03905 -0.02315 0.04630
v -0.02170 -0.02604 0.05498
v 0.00723 -0.01158 0.04630
v 0.04194 -0.01447 0.04919
v -0.01880 -0.01447 0.05208
v 0.01012 -0.02315 0.04630
v -0.02170 -0.02604 0.05208
v 0.01301 -0.00868 0.04919
v -0.01591 -0.01736 0.04919
v -0.00434 -0.02604 0.05208
v 0.04194 -0.01447 0.05498
v -0.00434 -0.01158 0.05498
v 0.04484 -0.02315 0.04919
v 0.03905 -0.01736 0.04630
v 0.01879 -0.00868 0.04919
v 0.04484 -0.01736 0.04919
v 0.00434 -0.02025 0.04630
v -0.05065 -0.00289 0.00579
v -0.02171 0.00579 0.00868
v -0.02171 0.00579 0.00579
v -0.01014 -0.00868 0.00868
v -0.04775 0.00579 0.01157
v -0.04486 0.00579 0.00289
v -0.01014 -0.00868 0.00579
v -0.04775 -0.00289 0.01157
v -0.03328 0.00579 0.01157
v -0.01014 -0.00289 0.00579
v -0.03328 0.00289 0.00289
v -0.01014 -0.00289 0.00868
v -0.05065 0.00579 0.00868
v -0.03328 -0.00289 0.01157
v -0.01593 -0.00868 0.00579
v -0.04486 0.00289 0.00289
v -0.03328 0.00579 0.00289
v 0.00144 -0.00868 0.00579
v 0.00433 0.00289 0.00868
v 0.00144 0.00289 0.00868
v 0.00433 -0.00868 0.00868
v 0.00433 0.00289 0.00579
f 23 40 64 
f 5 6 7 
f 7 3 9 
f 5 7 9 
f 17 1 19 
f 4 20 26 
f 7 6 29 
f 13 11 30 
f 5 9 31 
f 15 28 31 
f 1 24 32 
f 24 13 32 
f 1 17 33 
f 6 19 34 
f 19 1 34 
f 14 10 35 
f 10 21 35 
f 26 14 35 
f 15 22 37 
f 28 15 37 
f 8 11 38 
f 11 13 38 
f 25 8 38 
f 13 25 38 
f 8 37 39 
f 5 31 40 
f 33 17 40 
f 23 33 40 
f 13 24 41 
f 25 13 41 
f 12 25 41 
f 2 3 42 
f 3 7 42 
f 27 2 42 
f 16 27 42 
f 9 15 43 
f 31 9 43 
f 15 31 43 
f 10 14 44 
f 1 32 44 
f 32 10 44 
f 11 36 45 
f 36 16 45 
f 24 1 46 
f 1 33 46 
f 41 24 46 
f 3 2 47 
f 9 3 47 
f 15 9 47 
f 2 22 47 
f 22 15 47 
f 30 10 48 
f 13 30 48 
f 10 32 48 
f 32 13 48 
f 8 25 49 
f 25 12 49 
f 12 28 49 
f 37 8 49 
f 28 37 49 
f 20 4 50 
f 29 20 50 
f 11 8 51 
f 36 11 51 
f 18 36 51 
f 8 39 51 
f 39 18 51 
f 4 16 52 
f 7 29 52 
f 42 7 52 
f 16 42 52 
f 50 4 52 
f 29 50 52 
f 19 6 53 
f 17 19 53 
f 5 40 53 
f 18 2 54 
f 2 27 54 
f 27 16 54 
f 16 36 54 
f 36 18 54 
f 26 20 55 
f 29 6 55 
f 20 29 55 
f 34 1 56 
f 14 34 56 
f 44 14 56 
f 1 44 56 
f 14 26 57 
f 34 14 57 
f 6 34 57 
f 55 6 57 
f 26 55 57 
f 40 17 58 
f 17 53 58 
f 53 40 58 
f 21 10 59 
f 10 30 59 
f 30 11 59 
f 45 21 59 
f 11 45 59 
f 16 4 60 
f 4 26 60 
f 35 21 60 
f 26 35 60 
f 45 16 60 
f 21 45 60 
f 23 12 61 
f 33 23 61 
f 12 41 61 
f 46 33 61 
f 41 46 61 
f 6 5 62 
f 5 53 62 
f 53 6 62 
f 2 18 63 
f 22 2 63 
f 37 22 63 
f 18 39 63 
f 39 37 63 
f 12 23 64 
f 28 12 64 
f 31 28 64 
f 40 31 64 
