# Original object name hint: convex_0
v 0.05630 -0.00729 -0.03962
v 0.06047 0.01563 0.03336
v 0.06464 0.01979 0.02919
v 0.06047 -0.04482 0.00417
v 0.04796 0.01146 0.02919
v 0.06256 0.04273 -0.01877
v 0.04796 0.00312 -0.03127
v 0.05005 -0.04065 -0.01459
v 0.06673 0.01146 -0.01459
v 0.05838 -0.03648 -0.03545
v 0.05630 0.04483 -0.02919
v 0.05838 0.04483 0.00208
v 0.04796 -0.00104 0.03128
v 0.06673 0.00104 0.02710
v 0.06256 0.01563 -0.03753
v 0.06256 -0.04065 -0.00834
v 0.06673 0.03440 -0.00001
v 0.05005 0.02397 -0.03336
v 0.05005 -0.03857 0.00834
v 0.06256 -0.03231 0.01667
v 0.05213 -0.03857 -0.03336
v 0.06256 0.00312 0.03336
v 0.06256 -0.00313 -0.03753
v 0.05422 -0.04691 -0.01042
v 0.05422 0.01354 -0.03962
v 0.06256 0.02814 -0.03545
v 0.04796 0.01563 0.01876
v 0.06256 0.04483 0.00208
v 0.04796 -0.01354 0.00834
v 0.05630 -0.03023 0.01876
v 0.05838 -0.04273 -0.02919
v 0.05005 0.00312 -0.03753
v 0.04796 0.01771 -0.02919
v 0.06673 0.02814 -0.01459
v 0.06673 -0.00313 0.01251
v 0.05630 -0.04691 0.00417
v 0.06047 -0.03439 -0.03127
v 0.05630 0.01979 0.02919
v 0.06256 -0.04065 0.00625
v 0.06673 0.01979 0.02293
v 0.05213 -0.03439 -0.03545
v 0.05838 -0.04691 -0.01042
v 0.06256 -0.00313 0.03128
v 0.06047 -0.00313 -0.03962
v 0.05838 0.04483 -0.02919
v 0.05213 -0.04273 -0.02710
v 0.05213 -0.04482 0.00208
v 0.05630 0.03023 -0.03545
v 0.05213 -0.03648 0.01251
v 0.06047 0.01354 -0.03962
v 0.05422 0.00938 0.03336
v 0.06464 -0.00104 0.03128
v 0.06673 0.00938 0.02919
v 0.06464 0.04065 -0.01042
v 0.06673 0.00521 -0.00834
v 0.05213 -0.00313 0.03128
v 0.04796 0.00938 0.03128
v 0.05005 0.01979 -0.03545
v 0.05422 -0.00521 -0.03962
v 0.06464 0.04065 0.00208
v 0.06256 0.04483 -0.01459
v 0.06464 0.02189 -0.02710
v 0.06256 0.01354 0.03336
v 0.05005 -0.04065 0.00417
v 0.01250 0.00938 0.02085
v -0.06673 -0.00729 0.00834
v -0.06463 -0.01980 0.00834
v 0.01667 0.01354 0.00417
v -0.02086 0.05109 0.00834
v -0.02294 -0.04900 0.00417
v -0.01669 0.03858 0.00209
v 0.01667 -0.03232 0.00417
v -0.02918 -0.04692 0.01043
v -0.06673 0.00312 0.01251
v 0.00833 -0.00729 0.02085
v -0.06046 -0.02606 0.01251
v -0.00627 0.01145 0.02085
v -0.06046 -0.03441 0.00626
v -0.00627 0.05109 0.00834
v 0.01667 -0.03232 0.01043
v 0.01667 0.01772 0.01668
v -0.05838 0.01562 0.00834
v -0.05420 0.01980 0.01251
v 0.00208 0.01772 0.02085
v -0.00209 0.03440 0.00209
v -0.04587 -0.02813 0.00417
v -0.00627 0.05109 0.00417
v -0.00835 -0.00103 0.02085
v -0.03544 -0.05109 0.00834
v -0.01252 -0.01562 0.01876
v 0.01667 0.02189 0.00834
v 0.01667 -0.00938 0.01876
v -0.06046 -0.01562 0.00626
v -0.02086 0.05109 0.00626
v -0.03544 -0.04692 0.00417
v -0.06673 0.00312 0.00834
v -0.06463 -0.01980 0.01251
v 0.01458 -0.02396 0.01459
v -0.03544 -0.04692 0.01043
v -0.00418 0.02813 0.00209
v 0.00624 0.01772 0.02085
v -0.02918 -0.05109 0.00834
v -0.06046 -0.03441 0.00834
v 0.01667 0.02189 0.01251
v -0.03544 -0.05109 0.00626
v -0.01669 0.03231 0.00209
v -0.06673 -0.00729 0.01251
v 0.01458 -0.00312 0.02085
v 0.01667 0.01354 0.01876
v 0.01041 0.01980 0.01876
v -0.06463 0.00729 0.01251
v 0.01667 0.01980 0.00626
v -0.04587 -0.02189 0.00417
v -0.00418 0.03858 0.00209
v -0.00835 0.00729 0.02085
v -0.00418 -0.00521 0.02085
v -0.05838 0.01562 0.01251
v -0.03127 -0.04900 0.00417
v 0.01667 -0.02813 0.01251
v -0.02294 -0.04900 0.00834
v -0.03753 -0.04483 0.00417
v 0.01250 0.02189 0.01668
v -0.00835 0.05109 0.00417
v -0.06255 -0.02396 0.01251
v 0.03128 -0.00104 0.02294
v 0.03545 0.01564 0.02919
v 0.04796 0.00938 0.03128
v 0.04796 0.00938 0.02085
v 0.04796 -0.00104 0.03128
v 0.02919 0.00730 0.03128
v 0.04796 -0.00313 0.02085
v 0.02919 0.01355 0.02503
v 0.02919 -0.00104 0.02919
v 0.03545 0.00938 0.02085
v 0.02919 0.01564 0.03128
v 0.03754 -0.00313 0.02085
v 0.03545 0.01564 0.02503
v 0.04587 -0.00313 0.02711
v 0.03337 -0.00313 0.02503
v 0.02919 -0.00104 0.02503
v 0.03128 0.00313 0.03128
v 0.03337 0.01355 0.02294
v 0.03128 0.01564 0.02503
v 0.03128 0.01147 0.02294
v 0.03337 0.01564 0.03128
v 0.04379 -0.00104 0.03128
v 0.02711 -0.03232 0.00626
v 0.02294 -0.00938 0.01668
v 0.01668 -0.00938 0.01668
v 0.02085 -0.00938 0.00417
v 0.01668 -0.03232 0.00209
v 0.01668 -0.03232 0.01042
v 0.02711 -0.00938 0.00834
v 0.02502 -0.02815 0.00000
v 0.01668 -0.00938 0.00417
v 0.02502 -0.02815 0.01251
v 0.02711 -0.01147 0.01459
v 0.01668 -0.02189 0.01459
v 0.02085 -0.03232 0.00000
v 0.02711 -0.03023 0.01042
v 0.01877 -0.01356 0.01668
v 0.02711 -0.02606 0.00417
v 0.02502 -0.03232 0.00000
v 0.02085 -0.02815 0.00000
v 0.02294 -0.03232 0.01042
v 0.02502 -0.00938 0.00626
v 0.01668 -0.02398 0.00209
v 0.02294 -0.01147 0.01668
v 0.02711 -0.00938 0.01459
v 0.04796 -0.00938 0.01251
v 0.01877 0.01981 0.01459
v 0.01877 0.01981 0.00834
v 0.01669 -0.00938 0.00417
v 0.01669 -0.00730 0.01877
v 0.04796 0.00938 0.02085
v 0.04796 0.01355 0.01043
v 0.01669 0.01147 0.01877
v 0.04796 -0.00312 0.02085
v 0.04796 0.00521 0.00834
v 0.01669 0.00938 0.00417
v 0.04796 0.01564 0.01668
v 0.04796 -0.00730 0.00834
v 0.03545 0.01147 0.02085
v 0.02711 -0.00938 0.01668
v 0.02086 0.01772 0.00626
v 0.02086 0.00730 0.00417
v 0.03128 -0.00104 0.02085
v 0.01669 0.01772 0.01668
v 0.04170 0.01564 0.01877
v 0.04587 0.01564 0.01043
v 0.04170 0.01355 0.00834
v 0.02086 -0.00938 0.00417
v 0.01669 -0.00938 0.01668
v 0.01669 0.01981 0.00834
v 0.04796 -0.00938 0.01043
v 0.04796 -0.00521 0.01877
v 0.04587 0.01147 0.02085
v 0.02920 -0.00730 0.01877
v 0.03336 -0.00312 0.02085
v 0.04796 0.01564 0.01251
v 0.01669 0.01772 0.00626
v 0.03128 0.00521 0.02085
v 0.04587 0.00938 0.00834
v -0.00209 -0.00104 0.03962
v -0.02711 -0.00313 0.03545
v -0.02502 -0.00938 0.03545
v -0.00209 0.01564 0.02919
v -0.02293 0.00730 0.03962
v -0.00209 -0.00521 0.03128
v -0.00209 0.01772 0.03545
v -0.00835 0.01355 0.02919
v -0.02293 -0.01147 0.03753
v -0.00835 0.01772 0.03128
v -0.02711 0.00313 0.03545
v -0.02711 -0.00104 0.03962
v -0.00835 0.00521 0.02919
v -0.00209 0.00521 0.03962
v -0.00209 -0.00521 0.03753
v -0.01668 -0.00729 0.03962
v -0.00417 0.00104 0.02919
v -0.00835 0.01772 0.03545
v -0.02085 -0.01147 0.03545
v -0.00209 0.01355 0.03753
v -0.00835 -0.00521 0.03128
v -0.02293 -0.00729 0.03962
v -0.02711 0.00313 0.03962
v -0.02293 0.00730 0.03545
v -0.00209 0.00104 0.02919
v -0.02085 -0.01147 0.03753
v -0.00209 0.01772 0.03128
v 0.01668 -0.00730 0.02919
v 0.01668 0.01772 0.03336
v 0.02293 0.01563 0.03545
v -0.00208 -0.00521 0.03753
v 0.00001 0.00938 0.02085
v -0.00208 0.01772 0.03545
v 0.02919 0.01355 0.02711
v 0.00209 -0.00521 0.02085
v 0.02919 -0.00104 0.03128
v 0.02919 -0.00104 0.02711
v -0.00208 0.01772 0.02919
v 0.02293 -0.00104 0.03545
v 0.01043 0.00521 0.02085
v 0.01043 0.00938 0.03753
v 0.02293 -0.00730 0.03128
v 0.00626 0.01147 0.02085
v 0.02919 0.01355 0.03336
v -0.00208 -0.00521 0.03128
v -0.00208 0.01355 0.03753
v 0.01459 0.01772 0.02919
v 0.00626 -0.00521 0.02085
v 0.02919 0.01563 0.02919
v 0.01251 0.00105 0.03753
v 0.00001 -0.00312 0.02085
v 0.02293 -0.00730 0.02919
v 0.02502 0.00105 0.03545
v -0.00208 0.00313 0.02711
v 0.01043 -0.00104 0.02085
v 0.02293 -0.00521 0.03336
v 0.02502 0.01355 0.03545
v 0.00001 -0.00521 0.03753
v 0.00209 0.01147 0.02085
v 0.02919 0.01563 0.03128
v 0.02919 0.00729 0.03336
f 47 19 64 
f 5 7 13 
f 14 9 17 
f 8 7 21 
f 7 5 27 
f 5 12 27 
f 12 11 27 
f 12 3 28 
f 11 12 28 
f 7 8 29 
f 13 7 29 
f 19 13 29 
f 21 10 31 
f 11 18 33 
f 7 27 33 
f 27 11 33 
f 17 9 34 
f 26 6 34 
f 9 14 35 
f 4 20 36 
f 20 30 36 
f 9 16 37 
f 10 23 37 
f 23 9 37 
f 16 31 37 
f 31 10 37 
f 2 3 38 
f 3 12 38 
f 12 5 38 
f 4 16 39 
f 14 20 39 
f 20 4 39 
f 35 14 39 
f 16 35 39 
f 14 17 40 
f 1 10 41 
f 21 7 41 
f 10 21 41 
f 7 32 41 
f 16 4 42 
f 31 16 42 
f 24 31 42 
f 4 36 42 
f 36 24 42 
f 30 20 43 
f 10 1 44 
f 23 10 44 
f 15 23 44 
f 1 25 44 
f 6 26 45 
f 11 28 45 
f 8 21 46 
f 24 8 46 
f 21 31 46 
f 31 24 46 
f 8 24 47 
f 24 36 47 
f 36 19 47 
f 45 26 48 
f 11 45 48 
f 13 19 49 
f 30 13 49 
f 19 36 49 
f 36 30 49 
f 26 15 50 
f 15 44 50 
f 44 25 50 
f 25 48 50 
f 48 26 50 
f 22 2 51 
f 13 22 51 
f 20 14 52 
f 43 20 52 
f 22 43 52 
f 40 3 53 
f 14 40 53 
f 52 14 53 
f 22 52 53 
f 34 6 54 
f 17 34 54 
f 16 9 55 
f 9 35 55 
f 35 16 55 
f 22 13 56 
f 13 30 56 
f 43 22 56 
f 30 43 56 
f 5 13 57 
f 2 38 57 
f 38 5 57 
f 51 2 57 
f 13 51 57 
f 18 11 58 
f 32 7 58 
f 25 32 58 
f 33 18 58 
f 7 33 58 
f 11 48 58 
f 48 25 58 
f 25 1 59 
f 32 25 59 
f 1 41 59 
f 41 32 59 
f 28 3 60 
f 3 40 60 
f 40 17 60 
f 54 28 60 
f 17 54 60 
f 6 45 61 
f 45 28 61 
f 54 6 61 
f 28 54 61 
f 9 23 62 
f 23 15 62 
f 15 26 62 
f 34 9 62 
f 26 34 62 
f 3 2 63 
f 2 22 63 
f 53 3 63 
f 22 53 63 
f 29 8 64 
f 19 29 64 
f 8 47 64 
