# Original object name hint: convex_3
v 0.05630 -0.00729 -0.03962
v 0.06047 0.01563 0.03336
v 0.06464 0.01979 0.02919
v 0.06047 -0.04482 0.00417
v 0.04796 0.01146 0.02919
v 0.06256 0.04273 -0.01877
v 0.04796 0.00312 -0.03127
v 0.05005 -0.04065 -0.01459
v 0.06673 0.01146 -0.01459
v 0.05838 -0.03648 -0.03545
v 0.05630 0.04483 -0.02919
v 0.05838 0.04483 0.00208
v 0.04796 -0.00104 0.03128
v 0.06673 0.00104 0.02710
v 0.06256 0.01563 -0.03753
v 0.06256 -0.04065 -0.00834
v 0.06673 0.03440 -0.00001
v 0.05005 0.02397 -0.03336
v 0.05005 -0.03857 0.00834
v 0.06256 -0.03231 0.01667
v 0.05213 -0.03857 -0.03336
v 0.06256 0.00312 0.03336
v 0.06256 -0.00313 -0.03753
v 0.05422 -0.04691 -0.01042
v 0.05422 0.01354 -0.03962
v 0.06256 0.02814 -0.03545
v 0.04796 0.01563 0.01876
v 0.06256 0.04483 0.00208
v 0.04796 -0.01354 0.00834
v 0.05630 -0.03023 0.01876
v 0.05838 -0.04273 -0.02919
v 0.05005 0.00312 -0.03753
v 0.04796 0.01771 -0.02919
v 0.06673 0.02814 -0.01459
v 0.06673 -0.00313 0.01251
v 0.05630 -0.04691 0.00417
v 0.06047 -0.03439 -0.03127
v 0.05630 0.01979 0.02919
v 0.06256 -0.04065 0.00625
v 0.06673 0.01979 0.02293
v 0.05213 -0.03439 -0.03545
v 0.05838 -0.04691 -0.01042
v 0.06256 -0.00313 0.03128
v 0.06047 -0.00313 -0.03962
v 0.05838 0.04483 -0.02919
v 0.05213 -0.04273 -0.02710
v 0.05213 -0.04482 0.00208
v 0.05630 0.03023 -0.03545
v 0.05213 -0.03648 0.01251
v 0.06047 0.01354 -0.03962
v 0.05422 0.00938 0.03336
v 0.06464 -0.00104 0.03128
v 0.06673 0.00938 0.02919
v 0.06464 0.04065 -0.01042
v 0.06673 0.00521 -0.00834
v 0.05213 -0.00313 0.03128
v 0.04796 0.00938 0.03128
v 0.05005 0.01979 -0.03545
v 0.05422 -0.00521 -0.03962
v 0.06464 0.04065 0.00208
v 0.06256 0.04483 -0.01459
v 0.06464 0.02189 -0.02710
v 0.06256 0.01354 0.03336
v 0.05005 -0.04065 0.00417
v 0.01250 0.00938 0.02085
v -0.06673 -0.00729 0.00834
v -0.06463 -0.01980 0.00834
v 0.01667 0.01354 0.00417
v -0.02086 0.05109 0.00834
v -0.02294 -0.04900 0.00417
v -0.01669 0.03858 0.00209
v 0.01667 -0.03232 0.00417
v -0.02918 -0.04692 0.01043
v -0.06673 0.00312 0.01251
v 0.00833 -0.00729 0.02085
v -0.06046 -0.02606 0.01251
v -0.00627 0.01145 0.02085
v -0.06046 -0.03441 0.00626
v -0.00627 0.05109 0.00834
v 0.01667 -0.03232 0.01043
v 0.01667 0.01772 0.01668
v -0.05838 0.01562 0.00834
v -0.05420 0.01980 0.01251
v 0.00208 0.01772 0.02085
v -0.00209 0.03440 0.00209
v -0.04587 -0.02813 0.00417
v -0.00627 0.05109 0.00417
v -0.00835 -0.00103 0.02085
v -0.03544 -0.05109 0.00834
v -0.01252 -0.01562 0.01876
v 0.01667 0.02189 0.00834
v 0.01667 -0.00938 0.01876
v -0.06046 -0.01562 0.00626
v -0.02086 0.05109 0.00626
v -0.03544 -0.04692 0.00417
v -0.06673 0.00312 0.00834
v -0.06463 -0.01980 0.01251
v 0.01458 -0.02396 0.01459
v -0.03544 -0.04692 0.01043
v -0.00418 0.02813 0.00209
v 0.00624 0.01772 0.02085
v -0.02918 -0.05109 0.00834
v -0.06046 -0.03441 0.00834
v 0.01667 0.02189 0.01251
v -0.03544 -0.05109 0.00626
v -0.01669 0.03231 0.00209
v -0.06673 -0.00729 0.01251
v 0.01458 -0.00312 0.02085
v 0.01667 0.01354 0.01876
v 0.01041 0.01980 0.01876
v -0.06463 0.00729 0.01251
v 0.01667 0.01980 0.00626
v -0.04587 -0.02189 0.00417
v -0.00418 0.03858 0.00209
v -0.00835 0.00729 0.02085
v -0.00418 -0.00521 0.02085
v -0.05838 0.01562 0.01251
v -0.03127 -0.04900 0.00417
v 0.01667 -0.02813 0.01251
v -0.02294 -0.04900 0.00834
v -0.03753 -0.04483 0.00417
v 0.01250 0.02189 0.01668
v -0.00835 0.05109 0.00417
v -0.06255 -0.02396 0.01251
v 0.03128 -0.00104 0.02294
v 0.03545 0.01564 0.02919
v 0.04796 0.00938 0.03128
v 0.04796 0.00938 0.02085
v 0.04796 -0.00104 0.03128
v 0.02919 0.00730 0.03128
v 0.04796 -0.00313 0.02085
v 0.02919 0.01355 0.02503
v 0.02919 -0.00104 0.02919
v 0.03545 0.00938 0.02085
v 0.02919 0.01564 0.03128
v 0.03754 -0.00313 0.02085
v 0.03545 0.01564 0.02503
v 0.04587 -0.00313 0.02711
v 0.03337 -0.00313 0.02503
v 0.02919 -0.00104 0.02503
v 0.03128 0.00313 0.03128
v 0.03337 0.01355 0.02294
v 0.03128 0.01564 0.02503
v 0.03128 0.01147 0.02294
v 0.03337 0.01564 0.03128
v 0.04379 -0.00104 0.03128
v 0.02711 -0.03232 0.00626
v 0.02294 -0.00938 0.01668
v 0.01668 -0.00938 0.01668
v 0.02085 -0.00938 0.00417
v 0.01668 -0.03232 0.00209
v 0.01668 -0.03232 0.01042
v 0.02711 -0.00938 0.00834
v 0.02502 -0.02815 0.00000
v 0.01668 -0.00938 0.00417
v 0.02502 -0.02815 0.01251
v 0.02711 -0.01147 0.01459
v 0.01668 -0.02189 0.01459
v 0.02085 -0.03232 0.00000
v 0.02711 -0.03023 0.01042
v 0.01877 -0.01356 0.01668
v 0.02711 -0.02606 0.00417
v 0.02502 -0.03232 0.00000
v 0.02085 -0.02815 0.00000
v 0.02294 -0.03232 0.01042
v 0.02502 -0.00938 0.00626
v 0.01668 -0.02398 0.00209
v 0.02294 -0.01147 0.01668
v 0.02711 -0.00938 0.01459
v 0.04796 -0.00938 0.01251
v 0.01877 0.01981 0.01459
v 0.01877 0.01981 0.00834
v 0.01669 -0.00938 0.00417
v 0.01669 -0.00730 0.01877
v 0.04796 0.00938 0.02085
v 0.04796 0.01355 0.01043
v 0.01669 0.01147 0.01877
v 0.04796 -0.00312 0.02085
v 0.04796 0.00521 0.00834
v 0.01669 0.00938 0.00417
v 0.04796 0.01564 0.01668
v 0.04796 -0.00730 0.00834
v 0.03545 0.01147 0.02085
v 0.02711 -0.00938 0.01668
v 0.02086 0.01772 0.00626
v 0.02086 0.00730 0.00417
v 0.03128 -0.00104 0.02085
v 0.01669 0.01772 0.01668
v 0.04170 0.01564 0.01877
v 0.04587 0.01564 0.01043
v 0.04170 0.01355 0.00834
v 0.02086 -0.00938 0.00417
v 0.01669 -0.00938 0.01668
v 0.01669 0.01981 0.00834
v 0.04796 -0.00938 0.01043
v 0.04796 -0.00521 0.01877
v 0.04587 0.01147 0.02085
v 0.02920 -0.00730 0.01877
v 0.03336 -0.00312 0.02085
v 0.04796 0.01564 0.01251
v 0.01669 0.01772 0.00626
v 0.03128 0.00521 0.02085
v 0.04587 0.00938 0.00834
v -0.00209 -0.00104 0.03962
v -0.02711 -0.00313 0.03545
v -0.02502 -0.00938 0.03545
v -0.00209 0.01564 0.02919
v -0.02293 0.00730 0.03962
v -0.00209 -0.00521 0.03128
v -0.00209 0.01772 0.03545
v -0.00835 0.01355 0.02919
v -0.02293 -0.01147 0.03753
v -0.00835 0.01772 0.03128
v -0.02711 0.00313 0.03545
v -0.02711 -0.00104 0.03962
v -0.00835 0.00521 0.02919
v -0.00209 0.00521 0.03962
v -0.00209 -0.00521 0.03753
v -0.01668 -0.00729 0.03962
v -0.00417 0.00104 0.02919
v -0.00835 0.01772 0.03545
v -0.02085 -0.01147 0.03545
v -0.00209 0.01355 0.03753
v -0.00835 -0.00521 0.03128
v -0.02293 -0.00729 0.03962
v -0.02711 0.00313 0.03962
v -0.02293 0.00730 0.03545
v -0.00209 0.00104 0.02919
v -0.02085 -0.01147 0.03753
v -0.00209 0.01772 0.03128
v 0.01668 -0.00730 0.02919
v 0.01668 0.01772 0.03336
v 0.02293 0.01563 0.03545
v -0.00208 -0.00521 0.03753
v 0.00001 0.00938 0.02085
v -0.00208 0.01772 0.03545
v 0.02919 0.01355 0.02711
v 0.00209 -0.00521 0.02085
v 0.02919 -0.00104 0.03128
v 0.02919 -0.00104 0.02711
v -0.00208 0.01772 0.02919
v 0.02293 -0.00104 0.03545
v 0.01043 0.00521 0.02085
v 0.01043 0.00938 0.03753
v 0.02293 -0.00730 0.03128
v 0.00626 0.01147 0.02085
v 0.02919 0.01355 0.03336
v -0.00208 -0.00521 0.03128
v -0.00208 0.01355 0.03753
v 0.01459 0.01772 0.02919
v 0.00626 -0.00521 0.02085
v 0.02919 0.01563 0.02919
v 0.01251 0.00105 0.03753
v 0.00001 -0.00312 0.02085
v 0.02293 -0.00730 0.02919
v 0.02502 0.00105 0.03545
v -0.00208 0.00313 0.02711
v 0.01043 -0.00104 0.02085
v 0.02293 -0.00521 0.03336
v 0.02502 0.01355 0.03545
v 0.00001 -0.00521 0.03753
v 0.00209 0.01147 0.02085
v 0.02919 0.01563 0.03128
v 0.02919 0.00729 0.03336
f 157 153 169 
f 149 148 150 
f 149 151 152 
f 151 147 152 
f 150 148 153 
f 149 150 155 
f 151 149 155 
f 150 154 155 
f 147 153 157 
f 149 152 158 
f 152 156 158 
f 147 151 159 
f 147 157 160 
f 157 156 160 
f 148 149 161 
f 149 158 161 
f 158 156 161 
f 153 147 162 
f 154 153 162 
f 154 162 163 
f 147 159 163 
f 159 154 163 
f 162 147 163 
f 155 154 164 
f 159 151 164 
f 154 159 164 
f 152 147 165 
f 156 152 165 
f 147 160 165 
f 160 156 165 
f 150 153 166 
f 154 150 166 
f 153 154 166 
f 151 155 167 
f 164 151 167 
f 155 164 167 
f 157 148 168 
f 156 157 168 
f 148 161 168 
f 161 156 168 
f 153 148 169 
f 148 157 169 
