# Original object name hint: convex_4
v 0.05630 -0.00729 -0.03962
v 0.06047 0.01563 0.03336
v 0.06464 0.01979 0.02919
v 0.06047 -0.04482 0.00417
v 0.04796 0.01146 0.02919
v 0.06256 0.04273 -0.01877
v 0.04796 0.00312 -0.03127
v 0.05005 -0.04065 -0.01459
v 0.06673 0.01146 -0.01459
v 0.05838 -0.03648 -0.03545
v 0.05630 0.04483 -0.02919
v 0.05838 0.04483 0.00208
v 0.04796 -0.00104 0.03128
v 0.06673 0.00104 0.02710
v 0.06256 0.01563 -0.03753
v 0.06256 -0.04065 -0.00834
v 0.06673 0.03440 -0.00001
v 0.05005 0.02397 -0.03336
v 0.05005 -0.03857 0.00834
v 0.06256 -0.03231 0.01667
v 0.05213 -0.03857 -0.03336
v 0.06256 0.00312 0.03336
v 0.06256 -0.00313 -0.03753
v 0.05422 -0.04691 -0.01042
v 0.05422 0.01354 -0.03962
v 0.06256 0.02814 -0.03545
v 0.04796 0.01563 0.01876
v 0.06256 0.04483 0.00208
v 0.04796 -0.01354 0.00834
v 0.05630 -0.03023 0.01876
v 0.05838 -0.04273 -0.02919
v 0.05005 0.00312 -0.03753
v 0.04796 0.01771 -0.02919
v 0.06673 0.02814 -0.01459
v 0.06673 -0.00313 0.01251
v 0.05630 -0.04691 0.00417
v 0.06047 -0.03439 -0.03127
v 0.05630 0.01979 0.02919
v 0.06256 -0.04065 0.00625
v 0.06673 0.01979 0.02293
v 0.05213 -0.03439 -0.03545
v 0.05838 -0.04691 -0.01042
v 0.06256 -0.00313 0.03128
v 0.06047 -0.00313 -0.03962
v 0.05838 0.04483 -0.02919
v 0.05213 -0.04273 -0.02710
v 0.05213 -0.04482 0.00208
v 0.05630 0.03023 -0.03545
v 0.05213 -0.03648 0.01251
v 0.06047 0.01354 -0.03962
v 0.05422 0.00938 0.03336
v 0.06464 -0.00104 0.03128
v 0.06673 0.00938 0.02919
v 0.06464 0.04065 -0.01042
v 0.06673 0.00521 -0.00834
v 0.05213 -0.00313 0.03128
v 0.04796 0.00938 0.03128
v 0.05005 0.01979 -0.03545
v 0.05422 -0.00521 -0.03962
v 0.06464 0.04065 0.00208
v 0.06256 0.04483 -0.01459
v 0.06464 0.02189 -0.02710
v 0.06256 0.01354 0.03336
v 0.05005 -0.04065 0.00417
v 0.01250 0.00938 0.02085
v -0.06673 -0.00729 0.00834
v -0.06463 -0.01980 0.00834
v 0.01667 0.01354 0.00417
v -0.02086 0.05109 0.00834
v -0.02294 -0.04900 0.00417
v -0.01669 0.03858 0.00209
v 0.01667 -0.03232 0.00417
v -0.02918 -0.04692 0.01043
v -0.06673 0.00312 0.01251
v 0.00833 -0.00729 0.02085
v -0.06046 -0.02606 0.01251
v -0.00627 0.01145 0.02085
v -0.06046 -0.03441 0.00626
v -0.00627 0.05109 0.00834
v 0.01667 -0.03232 0.01043
v 0.01667 0.01772 0.01668
v -0.05838 0.01562 0.00834
v -0.05420 0.01980 0.01251
v 0.00208 0.01772 0.02085
v -0.00209 0.03440 0.00209
v -0.04587 -0.02813 0.00417
v -0.00627 0.05109 0.00417
v -0.00835 -0.00103 0.02085
v -0.03544 -0.05109 0.00834
v -0.01252 -0.01562 0.01876
v 0.01667 0.02189 0.00834
v 0.01667 -0.00938 0.01876
v -0.06046 -0.01562 0.00626
v -0.02086 0.05109 0.00626
v -0.03544 -0.04692 0.00417
v -0.06673 0.00312 0.00834
v -0.06463 -0.01980 0.01251
v 0.01458 -0.02396 0.01459
v -0.03544 -0.04692 0.01043
v -0.00418 0.02813 0.00209
v 0.00624 0.01772 0.02085
v -0.02918 -0.05109 0.00834
v -0.06046 -0.03441 0.00834
v 0.01667 0.02189 0.01251
v -0.03544 -0.05109 0.00626
v -0.01669 0.03231 0.00209
v -0.06673 -0.00729 0.01251
v 0.01458 -0.00312 0.02085
v 0.01667 0.01354 0.01876
v 0.01041 0.01980 0.01876
v -0.06463 0.00729 0.01251
v 0.01667 0.01980 0.00626
v -0.04587 -0.02189 0.00417
v -0.00418 0.03858 0.00209
v -0.00835 0.00729 0.02085
v -0.00418 -0.00521 0.02085
v -0.05838 0.01562 0.01251
v -0.03127 -0.04900 0.00417
v 0.01667 -0.02813 0.01251
v -0.02294 -0.04900 0.00834
v -0.03753 -0.04483 0.00417
v 0.01250 0.02189 0.01668
v -0.00835 0.05109 0.00417
v -0.06255 -0.02396 0.01251
v 0.03128 -0.00104 0.02294
v 0.03545 0.01564 0.02919
v 0.04796 0.00938 0.03128
v 0.04796 0.00938 0.02085
v 0.04796 -0.00104 0.03128
v 0.02919 0.00730 0.03128
v 0.04796 -0.00313 0.02085
v 0.02919 0.01355 0.02503
v 0.02919 -0.00104 0.02919
v 0.03545 0.00938 0.02085
v 0.02919 0.01564 0.03128
v 0.03754 -0.00313 0.02085
v 0.03545 0.01564 0.02503
v 0.04587 -0.00313 0.02711
v 0.03337 -0.00313 0.02503
v 0.02919 -0.00104 0.02503
v 0.03128 0.00313 0.03128
v 0.03337 0.01355 0.02294
v 0.03128 0.01564 0.02503
v 0.03128 0.01147 0.02294
v 0.03337 0.01564 0.03128
v 0.04379 -0.00104 0.03128
v 0.02711 -0.03232 0.00626
v 0.02294 -0.00938 0.01668
v 0.01668 -0.00938 0.01668
v 0.02085 -0.00938 0.00417
v 0.01668 -0.03232 0.00209
v 0.01668 -0.03232 0.01042
v 0.02711 -0.00938 0.00834
v 0.02502 -0.02815 0.00000
v 0.01668 -0.00938 0.00417
v 0.02502 -0.02815 0.01251
v 0.02711 -0.01147 0.01459
v 0.01668 -0.02189 0.01459
v 0.02085 -0.03232 0.00000
v 0.02711 -0.03023 0.01042
v 0.01877 -0.01356 0.01668
v 0.02711 -0.02606 0.00417
v 0.02502 -0.03232 0.00000
v 0.02085 -0.02815 0.00000
v 0.02294 -0.03232 0.01042
v 0.02502 -0.00938 0.00626
v 0.01668 -0.02398 0.00209
v 0.02294 -0.01147 0.01668
v 0.02711 -0.00938 0.01459
v 0.04796 -0.00938 0.01251
v 0.01877 0.01981 0.01459
v 0.01877 0.01981 0.00834
v 0.01669 -0.00938 0.00417
v 0.01669 -0.00730 0.01877
v 0.04796 0.00938 0.02085
v 0.04796 0.01355 0.01043
v 0.01669 0.01147 0.01877
v 0.04796 -0.00312 0.02085
v 0.04796 0.00521 0.00834
v 0.01669 0.00938 0.00417
v 0.04796 0.01564 0.01668
v 0.04796 -0.00730 0.00834
v 0.03545 0.01147 0.02085
v 0.02711 -0.00938 0.01668
v 0.02086 0.01772 0.00626
v 0.02086 0.00730 0.00417
v 0.03128 -0.00104 0.02085
v 0.01669 0.01772 0.01668
v 0.04170 0.01564 0.01877
v 0.04587 0.01564 0.01043
v 0.04170 0.01355 0.00834
v 0.02086 -0.00938 0.00417
v 0.01669 -0.00938 0.01668
v 0.01669 0.01981 0.00834
v 0.04796 -0.00938 0.01043
v 0.04796 -0.00521 0.01877
v 0.04587 0.01147 0.02085
v 0.02920 -0.00730 0.01877
v 0.03336 -0.00312 0.02085
v 0.04796 0.01564 0.01251
v 0.01669 0.01772 0.00626
v 0.03128 0.00521 0.02085
v 0.04587 0.00938 0.00834
v -0.00209 -0.00104 0.03962
v -0.02711 -0.00313 0.03545
v -0.02502 -0.00938 0.03545
v -0.00209 0.01564 0.02919
v -0.02293 0.00730 0.03962
v -0.00209 -0.00521 0.03128
v -0.00209 0.01772 0.03545
v -0.00835 0.01355 0.02919
v -0.02293 -0.01147 0.03753
v -0.00835 0.01772 0.03128
v -0.02711 0.00313 0.03545
v -0.02711 -0.00104 0.03962
v -0.00835 0.00521 0.02919
v -0.00209 0.00521 0.03962
v -0.00209 -0.00521 0.03753
v -0.01668 -0.00729 0.03962
v -0.00417 0.00104 0.02919
v -0.00835 0.01772 0.03545
v -0.02085 -0.01147 0.03545
v -0.00209 0.01355 0.03753
v -0.00835 -0.00521 0.03128
v -0.02293 -0.00729 0.03962
v -0.02711 0.00313 0.03962
v -0.02293 0.00730 0.03545
v -0.00209 0.00104 0.02919
v -0.02085 -0.01147 0.03753
v -0.00209 0.01772 0.03128
v 0.01668 -0.00730 0.02919
v 0.01668 0.01772 0.03336
v 0.02293 0.01563 0.03545
v -0.00208 -0.00521 0.03753
v 0.00001 0.00938 0.02085
v -0.00208 0.01772 0.03545
v 0.02919 0.01355 0.02711
v 0.00209 -0.00521 0.02085
v 0.02919 -0.00104 0.03128
v 0.02919 -0.00104 0.02711
v -0.00208 0.01772 0.02919
v 0.02293 -0.00104 0.03545
v 0.01043 0.00521 0.02085
v 0.01043 0.00938 0.03753
v 0.02293 -0.00730 0.03128
v 0.00626 0.01147 0.02085
v 0.02919 0.01355 0.03336
v -0.00208 -0.00521 0.03128
v -0.00208 0.01355 0.03753
v 0.01459 0.01772 0.02919
v 0.00626 -0.00521 0.02085
v 0.02919 0.01563 0.02919
v 0.01251 0.00105 0.03753
v 0.00001 -0.00312 0.02085
v 0.02293 -0.00730 0.02919
v 0.02502 0.00105 0.03545
v -0.00208 0.00313 0.02711
v 0.01043 -0.00104 0.02085
v 0.02293 -0.00521 0.03336
v 0.02502 0.01355 0.03545
v 0.00001 -0.00521 0.03753
v 0.00209 0.01147 0.02085
v 0.02919 0.01563 0.03128
v 0.02919 0.00729 0.03336
f 186 191 203 
f 175 170 176 
f 173 174 177 
f 170 175 178 
f 176 170 179 
f 173 177 180 
f 172 171 181 
f 175 176 181 
f 179 170 182 
f 178 175 183 
f 173 170 184 
f 180 185 186 
f 173 180 186 
f 179 182 186 
f 177 174 187 
f 178 183 187 
f 180 177 188 
f 177 183 188 
f 188 183 189 
f 181 171 189 
f 171 188 189 
f 185 172 190 
f 185 190 191 
f 186 185 191 
f 190 176 191 
f 170 173 192 
f 173 186 192 
f 186 182 192 
f 174 173 193 
f 173 184 193 
f 184 174 193 
f 171 172 194 
f 172 185 194 
f 188 171 194 
f 180 188 194 
f 182 170 195 
f 170 192 195 
f 192 182 195 
f 170 178 196 
f 184 170 196 
f 175 181 197 
f 183 175 197 
f 189 183 197 
f 181 189 197 
f 178 174 198 
f 174 184 198 
f 196 178 198 
f 184 196 198 
f 174 178 199 
f 187 174 199 
f 178 187 199 
f 172 181 200 
f 181 176 200 
f 176 190 200 
f 190 172 200 
f 185 180 201 
f 194 185 201 
f 180 194 201 
f 183 177 202 
f 177 187 202 
f 187 183 202 
f 176 179 203 
f 179 186 203 
f 191 176 203 
