# Original object name hint: convex_2
v 0.05630 -0.00729 -0.03962
v 0.06047 0.01563 0.03336
v 0.06464 0.01979 0.02919
v 0.06047 -0.04482 0.00417
v 0.04796 0.01146 0.02919
v 0.06256 0.04273 -0.01877
v 0.04796 0.00312 -0.03127
v 0.05005 -0.04065 -0.01459
v 0.06673 0.01146 -0.01459
v 0.05838 -0.03648 -0.03545
v 0.05630 0.04483 -0.02919
v 0.05838 0.04483 0.00208
v 0.04796 -0.00104 0.03128
v 0.06673 0.00104 0.02710
v 0.06256 0.01563 -0.03753
v 0.06256 -0.04065 -0.00834
v 0.06673 0.03440 -0.00001
v 0.05005 0.02397 -0.03336
v 0.05005 -0.03857 0.00834
v 0.06256 -0.03231 0.01667
v 0.05213 -0.03857 -0.03336
v 0.06256 0.00312 0.03336
v 0.06256 -0.00313 -0.03753
v 0.05422 -0.04691 -0.01042
v 0.05422 0.01354 -0.03962
v 0.06256 0.02814 -0.03545
v 0.04796 0.01563 0.01876
v 0.06256 0.04483 0.00208
v 0.04796 -0.01354 0.00834
v 0.05630 -0.03023 0.01876
v 0.05838 -0.04273 -0.02919
v 0.05005 0.00312 -0.03753
v 0.04796 0.01771 -0.02919
v 0.06673 0.02814 -0.01459
v 0.06673 -0.00313 0.01251
v 0.05630 -0.04691 0.00417
v 0.06047 -0.03439 -0.03127
v 0.05630 0.01979 0.02919
v 0.06256 -0.04065 0.00625
v 0.06673 0.01979 0.02293
v 0.05213 -0.03439 -0.03545
v 0.05838 -0.04691 -0.01042
v 0.06256 -0.00313 0.03128
v 0.06047 -0.00313 -0.03962
v 0.05838 0.04483 -0.02919
v 0.05213 -0.04273 -0.02710
v 0.05213 -0.04482 0.00208
v 0.05630 0.03023 -0.03545
v 0.05213 -0.03648 0.01251
v 0.06047 0.01354 -0.03962
v 0.05422 0.00938 0.03336
v 0.06464 -0.00104 0.03128
v 0.06673 0.00938 0.02919
v 0.06464 0.04065 -0.01042
v 0.06673 0.00521 -0.00834
v 0.05213 -0.00313 0.03128
v 0.04796 0.00938 0.03128
v 0.05005 0.01979 -0.03545
v 0.05422 -0.00521 -0.03962
v 0.06464 0.04065 0.00208
v 0.06256 0.04483 -0.01459
v 0.06464 0.02189 -0.02710
v 0.06256 0.01354 0.03336
v 0.05005 -0.04065 0.00417
v 0.01250 0.00938 0.02085
v -0.06673 -0.00729 0.00834
v -0.06463 -0.01980 0.00834
v 0.01667 0.01354 0.00417
v -0.02086 0.05109 0.00834
v -0.02294 -0.04900 0.00417
v -0.01669 0.03858 0.00209
v 0.01667 -0.03232 0.00417
v -0.02918 -0.04692 0.01043
v -0.06673 0.00312 0.01251
v 0.00833 -0.00729 0.02085
v -0.06046 -0.02606 0.01251
v -0.00627 0.01145 0.02085
v -0.06046 -0.03441 0.00626
v -0.00627 0.05109 0.00834
v 0.01667 -0.03232 0.01043
v 0.01667 0.01772 0.01668
v -0.05838 0.01562 0.00834
v -0.05420 0.01980 0.01251
v 0.00208 0.01772 0.02085
v -0.00209 0.03440 0.00209
v -0.04587 -0.02813 0.00417
v -0.00627 0.05109 0.00417
v -0.00835 -0.00103 0.02085
v -0.03544 -0.05109 0.00834
v -0.01252 -0.01562 0.01876
v 0.01667 0.02189 0.00834
v 0.01667 -0.00938 0.01876
v -0.06046 -0.01562 0.00626
v -0.02086 0.05109 0.00626
v -0.03544 -0.04692 0.00417
v -0.06673 0.00312 0.00834
v -0.06463 -0.01980 0.01251
v 0.01458 -0.02396 0.01459
v -0.03544 -0.04692 0.01043
v -0.00418 0.02813 0.00209
v 0.00624 0.01772 0.02085
v -0.02918 -0.05109 0.00834
v -0.06046 -0.03441 0.00834
v 0.01667 0.02189 0.01251
v -0.03544 -0.05109 0.00626
v -0.01669 0.03231 0.00209
v -0.06673 -0.00729 0.01251
v 0.01458 -0.00312 0.02085
v 0.01667 0.01354 0.01876
v 0.01041 0.01980 0.01876
v -0.06463 0.00729 0.01251
v 0.01667 0.01980 0.00626
v -0.04587 -0.02189 0.00417
v -0.00418 0.03858 0.00209
v -0.00835 0.00729 0.02085
v -0.00418 -0.00521 0.02085
v -0.05838 0.01562 0.01251
v -0.03127 -0.04900 0.00417
v 0.01667 -0.02813 0.01251
v -0.02294 -0.04900 0.00834
v -0.03753 -0.04483 0.00417
v 0.01250 0.02189 0.01668
v -0.00835 0.05109 0.00417
v -0.06255 -0.02396 0.01251
v 0.03128 -0.00104 0.02294
v 0.03545 0.01564 0.02919
v 0.04796 0.00938 0.03128
v 0.04796 0.00938 0.02085
v 0.04796 -0.00104 0.03128
v 0.02919 0.00730 0.03128
v 0.04796 -0.00313 0.02085
v 0.02919 0.01355 0.02503
v 0.02919 -0.00104 0.02919
v 0.03545 0.00938 0.02085
v 0.02919 0.01564 0.03128
v 0.03754 -0.00313 0.02085
v 0.03545 0.01564 0.02503
v 0.04587 -0.00313 0.02711
v 0.03337 -0.00313 0.02503
v 0.02919 -0.00104 0.02503
v 0.03128 0.00313 0.03128
v 0.03337 0.01355 0.02294
v 0.03128 0.01564 0.02503
v 0.03128 0.01147 0.02294
v 0.03337 0.01564 0.03128
v 0.04379 -0.00104 0.03128
v 0.02711 -0.03232 0.00626
v 0.02294 -0.00938 0.01668
v 0.01668 -0.00938 0.01668
v 0.02085 -0.00938 0.00417
v 0.01668 -0.03232 0.00209
v 0.01668 -0.03232 0.01042
v 0.02711 -0.00938 0.00834
v 0.02502 -0.02815 0.00000
v 0.01668 -0.00938 0.00417
v 0.02502 -0.02815 0.01251
v 0.02711 -0.01147 0.01459
v 0.01668 -0.02189 0.01459
v 0.02085 -0.03232 0.00000
v 0.02711 -0.03023 0.01042
v 0.01877 -0.01356 0.01668
v 0.02711 -0.02606 0.00417
v 0.02502 -0.03232 0.00000
v 0.02085 -0.02815 0.00000
v 0.02294 -0.03232 0.01042
v 0.02502 -0.00938 0.00626
v 0.01668 -0.02398 0.00209
v 0.02294 -0.01147 0.01668
v 0.02711 -0.00938 0.01459
v 0.04796 -0.00938 0.01251
v 0.01877 0.01981 0.01459
v 0.01877 0.01981 0.00834
v 0.01669 -0.00938 0.00417
v 0.01669 -0.00730 0.01877
v 0.04796 0.00938 0.02085
v 0.04796 0.01355 0.01043
v 0.01669 0.01147 0.01877
v 0.04796 -0.00312 0.02085
v 0.04796 0.00521 0.00834
v 0.01669 0.00938 0.00417
v 0.04796 0.01564 0.01668
v 0.04796 -0.00730 0.00834
v 0.03545 0.01147 0.02085
v 0.02711 -0.00938 0.01668
v 0.02086 0.01772 0.00626
v 0.02086 0.00730 0.00417
v 0.03128 -0.00104 0.02085
v 0.01669 0.01772 0.01668
v 0.04170 0.01564 0.01877
v 0.04587 0.01564 0.01043
v 0.04170 0.01355 0.00834
v 0.02086 -0.00938 0.00417
v 0.01669 -0.00938 0.01668
v 0.01669 0.01981 0.00834
v 0.04796 -0.00938 0.01043
v 0.04796 -0.00521 0.01877
v 0.04587 0.01147 0.02085
v 0.02920 -0.00730 0.01877
v 0.03336 -0.00312 0.02085
v 0.04796 0.01564 0.01251
v 0.01669 0.01772 0.00626
v 0.03128 0.00521 0.02085
v 0.04587 0.00938 0.00834
v -0.00209 -0.00104 0.03962
v -0.02711 -0.00313 0.03545
v -0.02502 -0.00938 0.03545
v -0.00209 0.01564 0.02919
v -0.02293 0.00730 0.03962
v -0.00209 -0.00521 0.03128
v -0.00209 0.01772 0.03545
v -0.00835 0.01355 0.02919
v -0.02293 -0.01147 0.03753
v -0.00835 0.01772 0.03128
v -0.02711 0.00313 0.03545
v -0.02711 -0.00104 0.03962
v -0.00835 0.00521 0.02919
v -0.00209 0.00521 0.03962
v -0.00209 -0.00521 0.03753
v -0.01668 -0.00729 0.03962
v -0.00417 0.00104 0.02919
v -0.00835 0.01772 0.03545
v -0.02085 -0.01147 0.03545
v -0.00209 0.01355 0.03753
v -0.00835 -0.00521 0.03128
v -0.02293 -0.00729 0.03962
v -0.02711 0.00313 0.03962
v -0.02293 0.00730 0.03545
v -0.00209 0.00104 0.02919
v -0.02085 -0.01147 0.03753
v -0.00209 0.01772 0.03128
v 0.01668 -0.00730 0.02919
v 0.01668 0.01772 0.03336
v 0.02293 0.01563 0.03545
v -0.00208 -0.00521 0.03753
v 0.00001 0.00938 0.02085
v -0.00208 0.01772 0.03545
v 0.02919 0.01355 0.02711
v 0.00209 -0.00521 0.02085
v 0.02919 -0.00104 0.03128
v 0.02919 -0.00104 0.02711
v -0.00208 0.01772 0.02919
v 0.02293 -0.00104 0.03545
v 0.01043 0.00521 0.02085
v 0.01043 0.00938 0.03753
v 0.02293 -0.00730 0.03128
v 0.00626 0.01147 0.02085
v 0.02919 0.01355 0.03336
v -0.00208 -0.00521 0.03128
v -0.00208 0.01355 0.03753
v 0.01459 0.01772 0.02919
v 0.00626 -0.00521 0.02085
v 0.02919 0.01563 0.02919
v 0.01251 0.00105 0.03753
v 0.00001 -0.00312 0.02085
v 0.02293 -0.00730 0.02919
v 0.02502 0.00105 0.03545
v -0.00208 0.00313 0.02711
v 0.01043 -0.00104 0.02085
v 0.02293 -0.00521 0.03336
v 0.02502 0.01355 0.03545
v 0.00001 -0.00521 0.03753
v 0.00209 0.01147 0.02085
v 0.02919 0.01563 0.03128
v 0.02919 0.00729 0.03336
f 141 133 146 
f 126 127 128 
f 128 127 129 
f 129 127 130 
f 128 129 131 
f 130 132 133 
f 128 131 134 
f 130 127 135 
f 132 130 135 
f 125 134 136 
f 134 131 136 
f 126 128 137 
f 135 126 137 
f 131 129 138 
f 136 131 138 
f 136 138 139 
f 138 133 139 
f 139 133 140 
f 132 125 140 
f 133 132 140 
f 125 136 140 
f 136 139 140 
f 129 130 141 
f 130 133 141 
f 128 134 142 
f 137 128 142 
f 137 142 143 
f 132 135 143 
f 135 137 143 
f 142 132 143 
f 125 132 144 
f 134 125 144 
f 142 134 144 
f 132 142 144 
f 127 126 145 
f 135 127 145 
f 126 135 145 
f 138 129 146 
f 133 138 146 
f 129 141 146 
