# Original object name hint: convex_6
v 0.05630 -0.00729 -0.03962
v 0.06047 0.01563 0.03336
v 0.06464 0.01979 0.02919
v 0.06047 -0.04482 0.00417
v 0.04796 0.01146 0.02919
v 0.06256 0.04273 -0.01877
v 0.04796 0.00312 -0.03127
v 0.05005 -0.04065 -0.01459
v 0.06673 0.01146 -0.01459
v 0.05838 -0.03648 -0.03545
v 0.05630 0.04483 -0.02919
v 0.05838 0.04483 0.00208
v 0.04796 -0.00104 0.03128
v 0.06673 0.00104 0.02710
v 0.06256 0.01563 -0.03753
v 0.06256 -0.04065 -0.00834
v 0.06673 0.03440 -0.00001
v 0.05005 0.02397 -0.03336
v 0.05005 -0.03857 0.00834
v 0.06256 -0.03231 0.01667
v 0.05213 -0.03857 -0.03336
v 0.06256 0.00312 0.03336
v 0.06256 -0.00313 -0.03753
v 0.05422 -0.04691 -0.01042
v 0.05422 0.01354 -0.03962
v 0.06256 0.02814 -0.03545
v 0.04796 0.01563 0.01876
v 0.06256 0.04483 0.00208
v 0.04796 -0.01354 0.00834
v 0.05630 -0.03023 0.01876
v 0.05838 -0.04273 -0.02919
v 0.05005 0.00312 -0.03753
v 0.04796 0.01771 -0.02919
v 0.06673 0.02814 -0.01459
v 0.06673 -0.00313 0.01251
v 0.05630 -0.04691 0.00417
v 0.06047 -0.03439 -0.03127
v 0.05630 0.01979 0.02919
v 0.06256 -0.04065 0.00625
v 0.06673 0.01979 0.02293
v 0.05213 -0.03439 -0.03545
v 0.05838 -0.04691 -0.01042
v 0.06256 -0.00313 0.03128
v 0.06047 -0.00313 -0.03962
v 0.05838 0.04483 -0.02919
v 0.05213 -0.04273 -0.02710
v 0.05213 -0.04482 0.00208
v 0.05630 0.03023 -0.03545
v 0.05213 -0.03648 0.01251
v 0.06047 0.01354 -0.03962
v 0.05422 0.00938 0.03336
v 0.06464 -0.00104 0.03128
v 0.06673 0.00938 0.02919
v 0.06464 0.04065 -0.01042
v 0.06673 0.00521 -0.00834
v 0.05213 -0.00313 0.03128
v 0.04796 0.00938 0.03128
v 0.05005 0.01979 -0.03545
v 0.05422 -0.00521 -0.03962
v 0.06464 0.04065 0.00208
v 0.06256 0.04483 -0.01459
v 0.06464 0.02189 -0.02710
v 0.06256 0.01354 0.03336
v 0.05005 -0.04065 0.00417
v 0.01250 0.00938 0.02085
v -0.06673 -0.00729 0.00834
v -0.06463 -0.01980 0.00834
v 0.01667 0.01354 0.00417
v -0.02086 0.05109 0.00834
v -0.02294 -0.04900 0.00417
v -0.01669 0.03858 0.00209
v 0.01667 -0.03232 0.00417
v -0.02918 -0.04692 0.01043
v -0.06673 0.00312 0.01251
v 0.00833 -0.00729 0.02085
v -0.06046 -0.02606 0.01251
v -0.00627 0.01145 0.02085
v -0.06046 -0.03441 0.00626
v -0.00627 0.05109 0.00834
v 0.01667 -0.03232 0.01043
v 0.01667 0.01772 0.01668
v -0.05838 0.01562 0.00834
v -0.05420 0.01980 0.01251
v 0.00208 0.01772 0.02085
v -0.00209 0.03440 0.00209
v -0.04587 -0.02813 0.00417
v -0.00627 0.05109 0.00417
v -0.00835 -0.00103 0.02085
v -0.03544 -0.05109 0.00834
v -0.01252 -0.01562 0.01876
v 0.01667 0.02189 0.00834
v 0.01667 -0.00938 0.01876
v -0.06046 -0.01562 0.00626
v -0.02086 0.05109 0.00626
v -0.03544 -0.04692 0.00417
v -0.06673 0.00312 0.00834
v -0.06463 -0.01980 0.01251
v 0.01458 -0.02396 0.01459
v -0.03544 -0.04692 0.01043
v -0.00418 0.02813 0.00209
v 0.00624 0.01772 0.02085
v -0.02918 -0.05109 0.00834
v -0.06046 -0.03441 0.00834
v 0.01667 0.02189 0.01251
v -0.03544 -0.05109 0.00626
v -0.01669 0.03231 0.00209
v -0.06673 -0.00729 0.01251
v 0.01458 -0.00312 0.02085
v 0.01667 0.01354 0.01876
v 0.01041 0.01980 0.01876
v -0.06463 0.00729 0.01251
v 0.01667 0.01980 0.00626
v -0.04587 -0.02189 0.00417
v -0.00418 0.03858 0.00209
v -0.00835 0.00729 0.02085
v -0.00418 -0.00521 0.02085
v -0.05838 0.01562 0.01251
v -0.03127 -0.04900 0.00417
v 0.01667 -0.02813 0.01251
v -0.02294 -0.04900 0.00834
v -0.03753 -0.04483 0.00417
v 0.01250 0.02189 0.01668
v -0.00835 0.05109 0.00417
v -0.06255 -0.02396 0.01251
v 0.03128 -0.00104 0.02294
v 0.03545 0.01564 0.02919
v 0.04796 0.00938 0.03128
v 0.04796 0.00938 0.02085
v 0.04796 -0.00104 0.03128
v 0.02919 0.00730 0.03128
v 0.04796 -0.00313 0.02085
v 0.02919 0.01355 0.02503
v 0.02919 -0.00104 0.02919
v 0.03545 0.00938 0.02085
v 0.02919 0.01564 0.03128
v 0.03754 -0.00313 0.02085
v 0.03545 0.01564 0.02503
v 0.04587 -0.00313 0.02711
v 0.03337 -0.00313 0.02503
v 0.02919 -0.00104 0.02503
v 0.03128 0.00313 0.03128
v 0.03337 0.01355 0.02294
v 0.03128 0.01564 0.02503
v 0.03128 0.01147 0.02294
v 0.03337 0.01564 0.03128
v 0.04379 -0.00104 0.03128
v 0.02711 -0.03232 0.00626
v 0.02294 -0.00938 0.01668
v 0.01668 -0.00938 0.01668
v 0.02085 -0.00938 0.00417
v 0.01668 -0.03232 0.00209
v 0.01668 -0.03232 0.01042
v 0.02711 -0.00938 0.00834
v 0.02502 -0.02815 0.00000
v 0.01668 -0.00938 0.00417
v 0.02502 -0.02815 0.01251
v 0.02711 -0.01147 0.01459
v 0.01668 -0.02189 0.01459
v 0.02085 -0.03232 0.00000
v 0.02711 -0.03023 0.01042
v 0.01877 -0.01356 0.01668
v 0.02711 -0.02606 0.00417
v 0.02502 -0.03232 0.00000
v 0.02085 -0.02815 0.00000
v 0.02294 -0.03232 0.01042
v 0.02502 -0.00938 0.00626
v 0.01668 -0.02398 0.00209
v 0.02294 -0.01147 0.01668
v 0.02711 -0.00938 0.01459
v 0.04796 -0.00938 0.01251
v 0.01877 0.01981 0.01459
v 0.01877 0.01981 0.00834
v 0.01669 -0.00938 0.00417
v 0.01669 -0.00730 0.01877
v 0.04796 0.00938 0.02085
v 0.04796 0.01355 0.01043
v 0.01669 0.01147 0.01877
v 0.04796 -0.00312 0.02085
v 0.04796 0.00521 0.00834
v 0.01669 0.00938 0.00417
v 0.04796 0.01564 0.01668
v 0.04796 -0.00730 0.00834
v 0.03545 0.01147 0.02085
v 0.02711 -0.00938 0.01668
v 0.02086 0.01772 0.00626
v 0.02086 0.00730 0.00417
v 0.03128 -0.00104 0.02085
v 0.01669 0.01772 0.01668
v 0.04170 0.01564 0.01877
v 0.04587 0.01564 0.01043
v 0.04170 0.01355 0.00834
v 0.02086 -0.00938 0.00417
v 0.01669 -0.00938 0.01668
v 0.01669 0.01981 0.00834
v 0.04796 -0.00938 0.01043
v 0.04796 -0.00521 0.01877
v 0.04587 0.01147 0.02085
v 0.02920 -0.00730 0.01877
v 0.03336 -0.00312 0.02085
v 0.04796 0.01564 0.01251
v 0.01669 0.01772 0.00626
v 0.03128 0.00521 0.02085
v 0.04587 0.00938 0.00834
v -0.00209 -0.00104 0.03962
v -0.02711 -0.00313 0.03545
v -0.02502 -0.00938 0.03545
v -0.00209 0.01564 0.02919
v -0.02293 0.00730 0.03962
v -0.00209 -0.00521 0.03128
v -0.00209 0.01772 0.03545
v -0.00835 0.01355 0.02919
v -0.02293 -0.01147 0.03753
v -0.00835 0.01772 0.03128
v -0.02711 0.00313 0.03545
v -0.02711 -0.00104 0.03962
v -0.00835 0.00521 0.02919
v -0.00209 0.00521 0.03962
v -0.00209 -0.00521 0.03753
v -0.01668 -0.00729 0.03962
v -0.00417 0.00104 0.02919
v -0.00835 0.01772 0.03545
v -0.02085 -0.01147 0.03545
v -0.00209 0.01355 0.03753
v -0.00835 -0.00521 0.03128
v -0.02293 -0.00729 0.03962
v -0.02711 0.00313 0.03962
v -0.02293 0.00730 0.03545
v -0.00209 0.00104 0.02919
v -0.02085 -0.01147 0.03753
v -0.00209 0.01772 0.03128
v 0.01668 -0.00730 0.02919
v 0.01668 0.01772 0.03336
v 0.02293 0.01563 0.03545
v -0.00208 -0.00521 0.03753
v 0.00001 0.00938 0.02085
v -0.00208 0.01772 0.03545
v 0.02919 0.01355 0.02711
v 0.00209 -0.00521 0.02085
v 0.02919 -0.00104 0.03128
v 0.02919 -0.00104 0.02711
v -0.00208 0.01772 0.02919
v 0.02293 -0.00104 0.03545
v 0.01043 0.00521 0.02085
v 0.01043 0.00938 0.03753
v 0.02293 -0.00730 0.03128
v 0.00626 0.01147 0.02085
v 0.02919 0.01355 0.03336
v -0.00208 -0.00521 0.03128
v -0.00208 0.01355 0.03753
v 0.01459 0.01772 0.02919
v 0.00626 -0.00521 0.02085
v 0.02919 0.01563 0.02919
v 0.01251 0.00105 0.03753
v 0.00001 -0.00312 0.02085
v 0.02293 -0.00730 0.02919
v 0.02502 0.00105 0.03545
v -0.00208 0.00313 0.02711
v 0.01043 -0.00104 0.02085
v 0.02293 -0.00521 0.03336
v 0.02502 0.01355 0.03545
v 0.00001 -0.00521 0.03753
v 0.00209 0.01147 0.02085
v 0.02919 0.01563 0.03128
v 0.02919 0.00729 0.03336
f 247 256 264 
f 233 232 236 
f 237 239 240 
f 236 232 241 
f 234 236 241 
f 238 235 243 
f 237 240 243 
f 234 231 245 
f 240 239 245 
f 243 235 246 
f 237 243 246 
f 239 237 247 
f 231 234 248 
f 238 231 248 
f 234 241 248 
f 233 236 249 
f 236 234 249 
f 244 233 249 
f 234 244 249 
f 241 232 250 
f 246 241 250 
f 231 238 251 
f 238 243 251 
f 237 246 252 
f 247 237 252 
f 250 232 252 
f 246 250 252 
f 244 234 253 
f 235 238 254 
f 238 248 254 
f 245 231 255 
f 240 245 255 
f 231 251 255 
f 251 240 255 
f 253 242 256 
f 241 235 257 
f 248 241 257 
f 235 254 257 
f 254 248 257 
f 243 240 258 
f 251 243 258 
f 240 251 258 
f 245 239 259 
f 239 256 259 
f 256 242 259 
f 233 244 260 
f 247 233 260 
f 244 253 260 
f 256 247 260 
f 253 256 260 
f 234 245 261 
f 242 253 261 
f 253 234 261 
f 259 242 261 
f 245 259 261 
f 235 241 262 
f 246 235 262 
f 241 246 262 
f 232 233 263 
f 233 247 263 
f 252 232 263 
f 247 252 263 
f 239 247 264 
f 256 239 264 
