# Original object name hint: convex_9
v -0.04876 0.04746 -0.07250
v 0.00922 0.07910 -0.04878
v 0.01712 0.07646 -0.04878
v -0.04876 0.05274 -0.04878
v 0.03558 0.04746 -0.07250
v -0.03822 0.07646 -0.06723
v -0.00923 0.05010 -0.04878
v -0.04876 0.07646 -0.04878
v 0.00131 0.06855 -0.07250
v -0.01449 0.05274 -0.07777
v 0.03558 0.04746 -0.06459
v -0.05140 0.04746 -0.05932
v 0.00658 0.07646 -0.06196
v -0.05405 0.07119 -0.05142
v -0.04349 0.07119 -0.06986
v 0.03294 0.05274 -0.07250
v -0.04085 0.07910 -0.05932
v 0.01712 0.06855 -0.04878
v 0.00131 0.04746 -0.07777
v -0.03558 0.06065 -0.07514
v -0.01449 0.07910 -0.06196
v 0.00131 0.06328 -0.07514
v -0.05140 0.05274 -0.06986
v -0.05405 0.05801 -0.04878
v -0.00397 0.07382 -0.06986
v -0.04349 0.07910 -0.04878
v -0.04876 0.07382 -0.06196
v 0.03031 0.05010 -0.07514
v -0.04349 0.04746 -0.07514
v -0.03822 0.06855 -0.07250
v -0.00133 0.05274 -0.04878
v -0.04876 0.04746 -0.05669
v 0.01712 0.07646 -0.05142
v 0.03558 0.05010 -0.06459
v -0.04349 0.05274 -0.07514
v 0.00131 0.07910 -0.05932
v 0.00395 0.07382 -0.06723
v -0.00133 0.05274 -0.07777
v -0.02767 0.06328 -0.07514
v -0.05140 0.04746 -0.06986
v -0.04876 0.07646 -0.05669
v 0.05668 -0.01317 -0.04613
v 0.05405 0.02109 0.01713
v 0.05405 0.02373 0.00658
v 0.06459 0.01054 0.01713
v 0.05141 -0.04217 0.01185
v 0.05141 0.01845 -0.04613
v 0.05405 -0.04481 -0.03295
v 0.06459 -0.00527 -0.01713
v 0.05932 -0.03162 0.01713
v 0.05141 0.02109 0.01713
v 0.05141 -0.03690 -0.04349
v 0.06195 0.00791 -0.03031
v 0.05405 0.02109 -0.04086
v 0.06459 -0.00791 0.01713
v 0.06459 0.01054 -0.00924
v 0.05668 -0.00001 -0.04876
v 0.05141 -0.03954 0.01713
v 0.06195 -0.00527 -0.03295
v 0.05405 -0.02635 -0.04876
v 0.05405 -0.04481 0.00131
v 0.05141 -0.04481 -0.03295
v 0.05141 0.02373 -0.01977
v 0.05405 0.01582 -0.04876
v 0.06459 -0.00791 -0.00924
v 0.05141 -0.02635 -0.04876
v 0.05405 0.02373 -0.01977
v 0.05405 -0.03954 -0.04086
v 0.05668 -0.03690 -0.02767
v 0.06459 0.00791 -0.01713
v 0.06195 0.00528 -0.03295
v 0.05668 -0.03690 0.01713
v 0.05668 -0.03427 -0.03295
v 0.05141 0.01582 -0.04876
v 0.05141 0.01581 -0.07250
v 0.01714 -0.07907 -0.06196
v 0.01714 -0.07907 -0.04878
v 0.01714 0.04746 -0.06459
v 0.05405 0.01318 -0.04878
v 0.04877 -0.07644 -0.05142
v 0.01714 -0.07116 -0.07514
v 0.03559 0.04217 -0.04878
v 0.04350 -0.07116 -0.07250
v 0.01714 0.02636 -0.07777
v 0.03823 0.04746 -0.07250
v 0.04877 -0.00792 -0.07777
v 0.05405 -0.00792 -0.06723
v 0.01714 -0.05007 -0.04878
v 0.04350 -0.07907 -0.04878
v 0.01977 -0.04480 -0.07777
v 0.04350 0.02372 -0.07777
v 0.01714 0.04746 -0.07514
v 0.04613 0.03426 -0.04878
v 0.05405 -0.02107 -0.04878
v 0.03823 -0.06852 -0.07514
v 0.04877 0.02899 -0.06986
v 0.04086 -0.07644 -0.06723
v 0.04613 -0.06852 -0.06986
v 0.03823 0.04746 -0.06196
v 0.05141 -0.01319 -0.07514
v 0.05141 0.01318 -0.07514
v 0.03296 0.04746 -0.07514
v 0.03559 -0.03689 -0.07777
v 0.02505 -0.07644 -0.06986
v 0.04877 -0.07644 -0.04878
v 0.05405 0.00526 -0.06723
v 0.04086 -0.07380 -0.07250
v 0.05141 0.02372 -0.04878
v 0.04086 0.04217 -0.04878
v 0.04086 -0.07907 -0.05669
v 0.01714 -0.04480 -0.07777
v 0.04877 -0.07116 -0.05669
v -0.04877 -0.07645 0.05141
v 0.02241 -0.02899 0.07250
v -0.02767 -0.04218 0.07513
v 0.01450 -0.07909 0.07250
v 0.02241 -0.07909 0.05141
v -0.04613 -0.03163 0.05405
v -0.04877 -0.07381 0.07250
v -0.06195 -0.02899 0.06986
v 0.02241 -0.03163 0.06196
v -0.03295 -0.08436 0.06722
v -0.04086 -0.03691 0.05141
v 0.02241 -0.07645 0.07250
v -0.03558 -0.07381 0.07513
v -0.06195 -0.02899 0.06196
v 0.02241 -0.06853 0.05141
v -0.05931 -0.02899 0.07250
v 0.00395 -0.08436 0.05932
v -0.04086 -0.08172 0.05141
v -0.03295 -0.02899 0.05668
v -0.05141 -0.04745 0.05141
v -0.01450 -0.06853 0.07513
v -0.05141 -0.07381 0.06459
v -0.00132 -0.08436 0.06986
v -0.04877 -0.05799 0.07513
v 0.01977 -0.08172 0.06459
v -0.03295 -0.08172 0.07250
v -0.04350 -0.08172 0.06722
v -0.05141 -0.07117 0.05141
v -0.06195 -0.03427 0.06986
v 0.01186 -0.08172 0.05141
v 0.02241 -0.02899 0.06459
v -0.01450 -0.05009 0.07513
v -0.03295 -0.08436 0.06196
v -0.04350 -0.04482 0.07513
v 0.00395 -0.08172 0.07250
v -0.04877 -0.03955 0.05141
v -0.06195 -0.03427 0.06459
v -0.01977 -0.07381 0.07513
v -0.05141 -0.02899 0.05668
v 0.02241 -0.07909 0.06986
v -0.03822 -0.03163 0.05405
v -0.05141 -0.07117 0.06986
v 0.00659 -0.08436 0.06722
v 0.02769 -0.06063 0.05668
v 0.04877 -0.07118 0.02769
v 0.04877 -0.07381 0.02769
v 0.02241 -0.07909 0.01715
v 0.03032 -0.07909 0.06986
v 0.04350 -0.06063 0.06986
v 0.04086 -0.06327 0.01715
v 0.02241 -0.06063 0.07250
v 0.02241 -0.06327 0.01715
v 0.04350 -0.07909 0.01715
v 0.02241 -0.07909 0.06986
v 0.04086 -0.07645 0.06722
v 0.04877 -0.06854 0.01715
v 0.04086 -0.06854 0.07250
v 0.04350 -0.07118 0.06722
v 0.04877 -0.07645 0.02505
v 0.02241 -0.07645 0.07250
v 0.03559 -0.07909 0.06458
v 0.04350 -0.06063 0.06195
v 0.04086 -0.06063 0.07250
v 0.04877 -0.07645 0.01715
v 0.04613 -0.06591 0.01715
v 0.00923 0.07645 0.07514
v -0.06723 -0.01580 0.06196
v -0.06459 -0.01580 0.05932
v 0.01714 -0.02898 0.07250
v 0.01714 0.08172 0.05405
v -0.05404 0.06854 0.07250
v -0.04877 0.07908 0.05405
v -0.03295 -0.02898 0.05668
v -0.06195 -0.02898 0.07250
v 0.01714 -0.02898 0.06459
v -0.03031 0.00002 0.07514
v 0.01714 0.08172 0.06986
v 0.01714 -0.01843 0.07514
v -0.05667 0.07118 0.05405
v -0.00660 0.08436 0.06986
v -0.06723 0.00793 0.06986
v 0.01714 0.06327 0.05405
v -0.04612 0.02638 0.05405
v -0.02242 0.07645 0.07514
v -0.04877 -0.02898 0.05668
v -0.05404 0.07381 0.06986
v -0.00924 0.08436 0.05405
v -0.06459 0.00793 0.07250
v -0.05667 0.04217 0.05405
v 0.01714 0.04217 0.07514
v -0.06459 -0.02898 0.06459
v -0.05667 0.07118 0.06723
v -0.03295 0.08172 0.06459
v 0.01449 0.08436 0.05932
v -0.06723 0.00265 0.06196
v -0.06723 -0.01316 0.06986
v -0.02505 0.07381 0.07514
v 0.01714 0.07908 0.07250
v -0.02505 0.08172 0.06986
v -0.01451 0.07908 0.07514
v -0.04612 0.07908 0.06459
v -0.04085 0.02638 0.05405
v -0.01451 0.08436 0.05668
v 0.00659 0.08172 0.07250
v -0.02505 -0.00525 0.07514
v -0.06459 -0.02634 0.06196
v 0.00923 0.08436 0.06723
v -0.06459 -0.01580 0.07250
v -0.04612 0.07381 0.07250
v 0.01186 0.08436 0.05405
v -0.06723 0.00793 0.06459
v 0.06459 -0.00790 0.01713
v 0.04087 0.01582 0.07777
v 0.03033 0.01582 0.07777
v 0.02242 -0.02899 0.07512
v 0.03559 0.03428 0.01978
v 0.06723 0.00528 0.06723
v 0.04087 -0.02899 0.01713
v 0.05931 -0.02899 0.06986
v 0.01714 0.03428 0.06458
v 0.05668 0.03428 0.07250
v 0.01714 -0.02899 0.06458
v 0.06459 0.01055 0.01713
v 0.05931 -0.02899 0.01713
v 0.01714 0.03428 0.07512
v 0.04613 0.03428 0.01713
v 0.06195 -0.00790 0.07512
v 0.03559 0.00264 0.01978
v 0.05931 0.03163 0.06458
v 0.06459 -0.01318 0.06986
v 0.01714 0.01846 0.06195
v 0.04877 -0.02899 0.07512
v 0.05668 0.03163 0.07512
v 0.01714 -0.02109 0.07512
v 0.04350 0.00001 0.07777
v 0.04877 0.03428 0.02241
v 0.03823 0.03428 0.01713
v 0.01714 -0.00527 0.06195
v 0.06195 0.01055 0.07512
v 0.02768 0.00528 0.07777
v 0.06723 0.00001 0.06195
v 0.06459 0.01318 0.02505
v 0.03559 -0.01318 0.02241
v 0.05668 0.03428 0.05931
v 0.05404 0.03428 0.07512
v 0.05931 -0.02636 0.07250
v 0.06459 0.01055 0.07250
v 0.05931 0.03163 0.06986
v 0.01714 -0.02899 0.07250
v 0.06459 -0.00790 0.07250
v 0.04086 0.05537 0.07514
v 0.03822 0.03428 0.01713
v 0.04613 0.03428 0.01713
v 0.01714 0.08173 0.02241
v 0.01714 0.03428 0.07514
v 0.04350 0.07646 0.01713
v 0.05668 0.03428 0.07250
v 0.01714 0.08173 0.06722
v 0.04613 0.07646 0.06195
v 0.01714 0.05801 0.01713
v 0.05404 0.05801 0.07250
v 0.05668 0.04219 0.06195
v 0.02505 0.07646 0.07250
v 0.03296 0.08173 0.04350
v 0.01714 0.03428 0.06459
v 0.01714 0.07909 0.01713
v 0.04877 0.07382 0.05140
v 0.05404 0.03428 0.07514
v 0.04086 0.07909 0.01713
v 0.04350 0.07119 0.07250
v 0.04613 0.05274 0.01713
v 0.01714 0.07646 0.07250
v 0.02769 0.08173 0.06459
v 0.03560 0.03428 0.01978
v 0.01714 0.05537 0.01978
v 0.04877 0.03428 0.02505
v 0.02242 0.05274 0.07514
v 0.05668 0.03428 0.06195
v 0.03822 0.07646 0.06986
v 0.04086 0.07909 0.05931
v 0.05404 0.05801 0.06459
v 0.05140 0.06591 0.06986
v 0.05668 0.04483 0.06986
v 0.03032 0.08173 0.03296
v 0.05140 0.04483 0.07514
v -0.04350 -0.07381 -0.07250
v 0.01714 -0.04745 -0.06196
v 0.01714 -0.05009 -0.04878
v -0.05668 -0.04745 -0.04878
v 0.01714 -0.07908 -0.04878
v 0.01450 -0.04745 -0.07777
v -0.04613 -0.07908 -0.04878
v 0.01714 -0.07381 -0.07514
v -0.04613 -0.04745 -0.07250
v -0.05668 -0.06854 -0.06459
v -0.02240 -0.07908 -0.06723
v -0.02504 -0.06590 -0.07777
v -0.05668 -0.07117 -0.04878
v -0.02504 -0.04745 -0.07777
v -0.00132 -0.07644 -0.07514
v 0.01714 -0.06854 -0.07777
v -0.05668 -0.04745 -0.06196
v 0.01714 -0.07908 -0.06196
v -0.04877 -0.07644 -0.06459
v -0.04877 -0.07117 -0.07250
v -0.05404 -0.05800 -0.06986
v -0.01714 -0.07117 -0.07777
v -0.04086 -0.05536 -0.07514
v 0.01714 -0.04745 -0.07514
v -0.01451 -0.07644 -0.07514
v -0.05404 -0.07381 -0.06196
v -0.03295 -0.07908 -0.06459
v -0.04350 -0.04745 -0.04878
v 0.00395 -0.07908 -0.06723
v -0.04086 -0.06854 -0.07514
v -0.04086 -0.07644 -0.06986
v -0.05141 -0.04745 -0.06986
v -0.04349 0.02109 -0.07777
v -0.06195 -0.02371 -0.05142
v -0.06195 -0.02371 -0.04878
v 0.01713 -0.04743 -0.06459
v 0.01713 0.04745 -0.06459
v -0.02768 -0.04743 -0.07777
v -0.05404 0.03690 -0.04878
v 0.01713 0.02636 -0.07777
v -0.04349 -0.04743 -0.04878
v -0.04876 0.04745 -0.07250
v -0.05404 -0.04743 -0.06723
v 0.01713 -0.04743 -0.07777
v -0.05931 0.02109 -0.06986
v 0.00395 0.04745 -0.07777
v -0.06195 0.03163 -0.04878
v -0.04876 0.04745 -0.05669
v -0.05667 -0.01316 -0.07250
v -0.05931 -0.04480 -0.04878
v -0.06195 -0.00262 -0.06459
v -0.05404 0.04745 -0.06723
v -0.04085 -0.04743 -0.07514
v -0.04612 0.04481 -0.07514
v -0.05404 0.00001 -0.07514
v 0.01713 0.04745 -0.07514
v -0.05667 -0.04480 -0.06459
v -0.01451 0.04745 -0.07777
v -0.05667 0.02636 -0.07250
v -0.04349 0.00263 -0.07777
v -0.04349 -0.04216 -0.04878
v -0.05931 0.02899 -0.06723
v -0.05404 0.04745 -0.05932
v -0.04085 0.04745 -0.05669
v -0.05667 -0.04743 -0.04878
v -0.05404 0.01581 -0.07514
v -0.05931 -0.01053 -0.06986
v -0.06195 0.00791 -0.06459
v -0.04876 -0.04216 -0.07250
v -0.05931 0.03690 -0.04878
v -0.06195 -0.01580 -0.05932
v -0.06195 0.03163 -0.05142
v -0.05140 -0.01316 -0.07514
v -0.05404 0.04481 -0.06986
v -0.05931 -0.04480 -0.05142
v -0.01450 -0.08435 0.03559
v -0.05405 -0.07118 0.01714
v -0.05405 -0.06063 0.01714
v 0.02241 -0.06327 0.01714
v -0.05140 -0.06063 0.05141
v 0.02241 -0.06854 0.05141
v -0.04085 -0.08172 0.05141
v 0.02241 -0.07908 0.01714
v -0.04085 -0.08435 0.01714
v 0.02241 -0.07908 0.05141
v -0.00661 -0.06063 0.03032
v -0.04877 -0.07908 0.04613
v -0.03294 -0.06063 0.05141
v 0.00922 -0.08172 0.05141
v 0.02241 -0.06327 0.02769
v -0.03822 -0.08435 0.04086
v -0.01450 -0.08435 0.02505
v -0.05140 -0.07118 0.05141
v -0.05405 -0.06327 0.04086
v -0.04614 -0.08172 0.01714
v -0.00661 -0.06063 0.02505
v -0.02503 -0.08435 0.01714
v -0.04614 -0.08172 0.04086
v -0.05140 -0.07645 0.03559
v -0.03558 -0.06063 0.01714
v -0.05405 -0.07118 0.02769
v 0.00659 -0.08172 0.02505
v -0.03822 -0.04218 0.05141
v -0.05404 -0.06063 0.01714
v -0.05404 -0.06063 0.04086
v -0.01450 -0.05799 0.02769
v -0.04613 -0.03427 0.02769
v -0.03559 -0.06063 0.05141
v -0.04877 -0.04218 0.05141
v -0.05404 -0.05008 0.01714
v -0.03559 -0.03691 0.02769
v -0.03822 -0.06063 0.01714
v -0.05140 -0.06063 0.05141
v -0.01450 -0.05536 0.03032
v -0.04349 -0.05008 0.01714
v -0.01714 -0.06063 0.03032
v -0.05404 -0.05008 0.03822
v -0.03559 -0.03691 0.03296
v -0.04086 -0.03427 0.03296
v -0.04877 -0.03691 0.03559
v -0.01450 -0.05536 0.02769
v -0.03559 -0.05008 0.05141
v -0.05140 -0.05008 0.05141
v -0.05140 -0.04218 0.03822
v 0.05404 -0.02899 0.05140
v 0.03560 -0.06063 0.02241
v 0.04087 -0.06063 0.02241
v 0.05932 -0.02899 0.01714
v 0.03823 -0.02899 0.01978
v 0.03823 -0.04218 0.05668
v 0.03823 -0.02899 0.05668
v 0.03032 -0.04745 0.02769
v 0.05668 -0.03427 0.04613
v 0.04087 -0.05272 0.05140
v 0.03296 -0.05272 0.01714
v 0.03560 -0.05272 0.05140
v 0.05668 -0.03690 0.01714
v 0.04087 -0.05799 0.01714
v 0.04613 -0.03690 0.05668
v 0.04350 -0.05799 0.02505
v 0.03560 -0.03690 0.01714
v 0.03032 -0.05272 0.02769
v 0.05932 -0.03163 0.03032
v 0.04350 -0.05008 0.05140
v 0.03032 -0.04745 0.02241
v 0.05668 -0.02899 0.04877
v 0.04087 -0.02899 0.01714
v 0.03560 -0.06063 0.02505
v 0.04613 -0.02899 0.05668
v 0.04350 -0.05799 0.01978
v 0.03823 -0.04218 0.05668
v 0.05932 -0.02899 0.06986
v 0.05932 -0.02899 0.06459
v 0.02241 -0.02899 0.06195
v 0.02241 -0.06063 0.07250
v 0.02505 -0.02899 0.07513
v 0.04087 -0.06063 0.05932
v 0.04087 -0.06063 0.07250
v 0.02241 -0.06063 0.05932
v 0.04613 -0.02899 0.05668
v 0.04613 -0.03427 0.07513
v 0.05668 -0.03954 0.06986
v 0.03560 -0.02899 0.05668
v 0.05668 -0.03690 0.06195
v 0.04350 -0.06063 0.06195
v 0.02241 -0.02899 0.07250
v 0.04613 -0.03954 0.05668
v 0.05668 -0.02899 0.07250
v 0.03032 -0.03690 0.07513
v 0.05668 -0.03427 0.07250
v 0.04350 -0.06063 0.06986
v 0.04613 -0.02899 0.07513
v -0.05404 0.02638 0.02768
v -0.02769 0.08173 0.05404
v -0.02769 0.08173 0.02505
v -0.05668 0.07118 0.05404
v -0.03296 0.02110 0.03296
v -0.05404 0.07382 0.01714
v -0.05141 0.03692 0.05404
v -0.02769 0.06591 0.01714
v -0.02769 0.05800 0.05404
v -0.04613 0.01319 0.02768
v -0.05141 0.04746 0.01714
v -0.04877 0.07909 0.05404
v -0.05668 0.03165 0.03559
v -0.04877 0.07909 0.01714
v -0.04087 0.01847 0.02505
v -0.04350 0.03692 0.05404
v -0.02769 0.04220 0.03032
v -0.04613 0.01319 0.03296
v -0.05668 0.03692 0.02768
v -0.05668 0.04746 0.05404
v -0.02769 0.07909 0.01714
v -0.04087 0.04746 0.01714
v -0.05668 0.06854 0.03559
v -0.03296 0.02110 0.03032
v -0.04087 0.01319 0.03296
v -0.05404 0.02638 0.03822
v -0.03296 0.08173 0.05404
v -0.04877 0.01847 0.02505
v -0.03296 0.02374 0.03559
v -0.03823 0.01583 0.02768
v -0.03296 0.08173 0.02768
v -0.05404 0.02901 0.02505
v -0.05404 0.06327 0.01714
v 0.01714 0.06328 0.05404
v -0.02768 0.06592 0.01714
v -0.02768 0.05274 0.03032
v -0.02768 0.08173 0.05404
v 0.01714 0.07909 0.01714
v 0.01714 0.05537 0.02505
v 0.01714 0.08173 0.05404
v -0.02504 0.08173 0.02241
v -0.02768 0.06065 0.05404
v 0.01714 0.05537 0.04086
v 0.01714 0.06592 0.01714
v -0.02768 0.07909 0.01714
v 0.01450 0.08173 0.01978
v -0.02504 0.05274 0.03822
v -0.01714 0.06065 0.05404
v 0.01450 0.05801 0.02241
v 0.04350 -0.07909 -0.01186
v 0.05141 0.00001 0.01713
v 0.04350 0.00001 0.01713
v 0.03032 -0.07909 0.01713
v 0.03296 -0.04216 -0.01186
v 0.05141 0.00001 -0.01186
v 0.05141 -0.07381 0.00922
v 0.03032 -0.07909 -0.01186
v 0.04877 -0.07645 0.01713
v 0.05141 -0.07381 -0.01186
v 0.03032 -0.06589 0.01713
v 0.04350 0.00001 0.00395
v 0.03296 -0.04216 0.00132
v 0.04877 0.00001 -0.01186
v 0.03032 -0.06589 -0.01186
v 0.04350 -0.07909 0.01713
v 0.05141 -0.04216 0.01713
v -0.05405 -0.07380 -0.04878
v -0.05668 -0.01582 -0.01187
v -0.05668 0.00263 -0.01450
v -0.04877 -0.03163 -0.01187
v -0.05405 0.00263 -0.04878
v -0.06195 -0.03690 -0.01187
v -0.06195 0.00263 -0.04878
v -0.04877 -0.07644 -0.01187
v -0.04877 -0.07644 -0.04878
v -0.04877 -0.02636 -0.04878
v -0.05668 -0.07116 -0.04878
v -0.05668 -0.06853 -0.01187
v -0.06195 0.00263 -0.01450
v -0.06195 -0.02636 -0.04878
v -0.05405 0.00263 -0.01714
v -0.04877 -0.02109 -0.03559
v -0.05405 -0.07644 -0.03032
v -0.05932 -0.05799 -0.03295
v -0.06195 -0.03690 -0.03823
v -0.05932 -0.05799 -0.01450
v -0.05668 -0.07116 -0.01978
v -0.05141 -0.07644 -0.01187
v -0.05405 -0.07644 -0.04614
v -0.06195 -0.01582 -0.01187
v -0.06195 0.04481 -0.03823
v -0.03296 0.07910 -0.01187
v -0.03296 0.07910 -0.04878
v -0.05404 0.00264 -0.04878
v -0.06195 0.00264 -0.01450
v -0.05668 0.07118 -0.01187
v -0.03296 0.04481 -0.03559
v -0.05404 0.07381 -0.04878
v -0.05404 0.00264 -0.01714
v -0.06195 0.00264 -0.04878
v -0.03296 0.06064 -0.01187
v -0.03296 0.05799 -0.04878
v -0.04614 0.07910 -0.03032
v -0.06195 0.03428 -0.01450
v -0.05932 0.06591 -0.03823
v -0.06195 0.03428 -0.04878
v -0.04877 0.02901 -0.01187
v -0.05141 0.07646 -0.01187
v -0.03296 0.04481 -0.04086
v -0.04614 0.07910 -0.04878
v -0.05668 0.07381 -0.03559
v -0.05932 0.02901 -0.01187
v -0.05932 0.06591 -0.02505
v -0.05668 0.07118 -0.04614
v -0.05668 0.00264 -0.01450
v -0.04087 0.07910 -0.01450
v -0.06195 0.04481 -0.02769
v 0.02504 0.06855 -0.04614
v -0.03295 0.06065 -0.04878
v -0.03295 0.07910 -0.04878
v -0.03295 0.07910 -0.01187
v 0.02504 0.05801 -0.01187
v -0.02504 0.04482 -0.03559
v 0.02504 0.07910 -0.01187
v -0.03295 0.06065 -0.01187
v -0.00395 0.05010 -0.04878
v 0.01186 0.07910 -0.04878
v 0.02504 0.05537 -0.03823
v -0.01187 0.04482 -0.04350
v 0.02504 0.07910 -0.04086
v -0.01450 0.05801 -0.01187
v -0.01977 0.05010 -0.04878
v -0.03295 0.05538 -0.04350
v 0.02240 0.07645 -0.04878
v -0.01187 0.04482 -0.03823
v -0.02504 0.04482 -0.04086
v 0.02504 0.05537 -0.03295
v -0.03295 0.05538 -0.03295
v 0.01977 0.06855 -0.04878
v 0.02504 0.05801 -0.04086
v 0.00132 -0.05273 -0.01187
v -0.00923 -0.07908 -0.04878
v -0.00923 -0.07908 -0.01187
v 0.03031 -0.07908 -0.04878
v 0.02768 -0.03955 -0.04878
v 0.03031 -0.07908 -0.01187
v -0.00923 -0.04745 -0.04614
v -0.00923 -0.05009 -0.01187
v 0.03031 -0.03955 -0.04086
v 0.03031 -0.06590 -0.01187
v -0.00923 -0.05009 -0.04878
v -0.00923 -0.04745 -0.03823
v 0.03031 -0.03955 -0.04878
v 0.02768 -0.03955 -0.04086
v 0.03032 -0.07909 -0.01187
v 0.05141 -0.00263 -0.01187
v 0.05141 -0.00263 -0.04878
v 0.05141 -0.07381 -0.01187
v 0.04350 -0.07909 -0.04878
v 0.03559 -0.00263 -0.04878
v 0.03032 -0.07909 -0.04878
v 0.03296 -0.04217 -0.01187
v 0.04877 -0.07644 -0.04878
v 0.03032 -0.03691 -0.03823
v 0.03559 -0.00263 -0.04086
v 0.05141 -0.04744 -0.04614
v 0.04877 -0.00263 -0.01187
v 0.04350 -0.07909 -0.01187
v 0.03032 -0.03691 -0.04878
v 0.03032 -0.06589 -0.01187
v -0.03296 0.05536 0.01450
v -0.05932 0.00001 0.00396
v -0.02505 0.00001 0.00396
v -0.03560 0.05536 0.00132
v -0.05404 0.05273 0.01713
v -0.03032 0.00001 0.01186
v -0.05404 0.05536 0.00132
v -0.05932 0.00001 0.01186
v -0.04350 0.02900 0.01713
v -0.02241 0.00265 0.00923
v -0.03032 0.05536 0.00396
v -0.05141 0.02900 0.00132
v -0.03560 0.05536 0.01713
v -0.05668 0.04218 0.00923
v -0.03032 0.05536 0.01186
v -0.05404 0.05536 0.01713
v -0.05141 0.03164 0.01713
v -0.04086 0.02900 0.00132
v -0.02241 0.00001 0.00659
v -0.05932 0.00528 0.00396
v -0.05140 -0.07645 -0.01186
v -0.01713 -0.03954 0.00922
v -0.01713 -0.03954 0.00395
v 0.03032 -0.07909 0.01713
v 0.03032 -0.06590 -0.01186
v -0.05405 -0.07118 0.01713
v -0.05932 -0.03954 -0.01186
v -0.05140 -0.03954 0.01713
v 0.03032 -0.07909 -0.01186
v -0.04086 -0.08436 0.01713
v 0.03032 -0.06590 0.01713
v -0.02241 -0.04218 -0.01186
v -0.03823 -0.08172 -0.01186
v -0.05932 -0.03954 0.01186
v -0.05932 -0.05536 -0.01186
v -0.02503 -0.08436 0.01449
v -0.01187 -0.08172 -0.01186
v -0.04350 -0.03954 0.01713
v -0.05668 -0.06854 -0.01186
v -0.05140 -0.07645 0.01713
v -0.03294 -0.03954 -0.01186
v -0.05932 -0.04745 0.01186
v -0.02241 -0.03954 0.01186
v -0.04613 -0.08172 0.00659
v -0.03030 -0.08436 0.00922
v -0.05668 -0.06327 0.01186
v -0.05405 -0.04482 0.01713
v 0.01186 0.07910 0.01713
v -0.05668 0.05537 -0.01186
v -0.05668 0.05537 0.00395
v 0.01186 0.05801 -0.01186
v -0.03822 0.07910 -0.01186
v -0.04877 0.07910 0.01713
v -0.03559 0.05537 0.01713
v 0.01186 0.07910 -0.01186
v 0.01186 0.06592 0.01713
v -0.05668 0.07119 -0.01186
v 0.01186 0.05801 0.00395
v -0.05404 0.05537 0.01713
v -0.05404 0.07382 0.01713
v -0.05141 0.07646 -0.01186
v -0.03822 0.05537 -0.01186
v -0.05668 0.06855 0.00922
v -0.03031 0.05537 0.00395
v 0.04350 0.00001 0.00395
v 0.04614 0.03955 0.01713
v 0.04087 0.03955 0.01713
v 0.05141 0.02900 -0.01186
v 0.05141 0.00001 0.01713
v 0.03823 0.03955 0.00395
v 0.04877 0.00001 -0.01186
v 0.04087 0.00001 0.01713
v 0.04350 0.01583 -0.01186
v 0.05141 0.02637 0.01713
v 0.05141 0.00001 -0.01186
v 0.03823 0.02373 0.00659
v 0.03823 0.02637 0.01713
v 0.04350 0.02637 -0.01186
v 0.04614 0.03955 0.00395
v 0.04087 0.00001 0.01449
v 0.03823 0.03955 0.01449
v 0.04350 0.07645 0.01713
v 0.01187 0.05801 -0.01186
v 0.01187 0.05801 0.00659
v 0.04613 0.03956 0.00132
v 0.04086 0.07909 -0.01186
v 0.01187 0.07909 0.01713
v 0.03822 0.03956 0.01713
v 0.01187 0.07909 -0.01186
v 0.04613 0.04219 -0.01186
v 0.04613 0.03956 0.01713
v 0.01187 0.06591 0.01713
v 0.03822 0.03956 0.00395
v 0.04613 0.05274 -0.01186
v 0.04086 0.07909 0.01713
v 0.04350 0.07645 -0.01186
v 0.04086 0.04219 -0.01186
v 0.04613 0.05274 0.01713
v 0.01714 0.05801 0.01713
v 0.01450 0.05537 0.00395
v -0.04877 -0.03427 -0.03296
v -0.04877 -0.07908 -0.04878
v -0.00923 -0.07908 -0.04878
v -0.01978 -0.08172 -0.02505
v -0.03295 -0.02109 -0.04086
v -0.00923 -0.06589 -0.02505
v -0.04877 -0.07644 -0.02505
v -0.00923 -0.05009 -0.04878
v -0.04877 -0.03427 -0.04878
v -0.04613 -0.05271 -0.02505
v -0.03295 -0.02109 -0.03559
v -0.00923 -0.04746 -0.03823
v -0.04613 -0.02109 -0.03823
v -0.00923 -0.07908 -0.02505
v -0.01187 -0.08172 -0.04614
v -0.03559 -0.08172 -0.02505
v -0.03559 -0.08172 -0.04086
v -0.04877 -0.07908 -0.02769
v -0.04877 -0.05271 -0.02505
v -0.00923 -0.04746 -0.04614
v -0.03822 -0.02109 -0.03559
v -0.04613 -0.02109 -0.04086
v -0.04613 -0.03427 -0.04878
v -0.00923 -0.05009 -0.03559
v -0.01451 -0.06326 -0.02505
v -0.00923 -0.05009 -0.01187
v -0.04877 -0.07644 -0.02504
v -0.04613 -0.07908 -0.02504
v -0.04877 -0.07644 -0.01187
v -0.04349 -0.02109 -0.01714
v -0.00923 -0.07908 -0.02504
v -0.01187 -0.08172 -0.01187
v -0.01714 -0.02109 -0.01714
v -0.04877 -0.05009 -0.02504
v -0.04877 -0.03427 -0.01187
v -0.00923 -0.06326 -0.02504
v -0.02241 -0.02373 -0.01187
v -0.03822 -0.08172 -0.01977
v -0.01714 -0.08172 -0.02504
v -0.03822 -0.08172 -0.01187
v -0.00923 -0.07908 -0.01187
v -0.04349 -0.02109 -0.01450
v -0.04877 -0.03955 -0.02241
v -0.01714 -0.02109 -0.01450
v -0.00923 -0.05009 -0.01714
v -0.04613 -0.05009 -0.02504
v 0.04614 0.03164 -0.02505
v 0.03559 -0.00263 -0.04878
v 0.05141 -0.00263 -0.04878
v 0.05141 -0.00263 -0.01187
v 0.05141 0.02637 -0.04878
v 0.03296 0.02900 -0.04350
v 0.04350 0.01846 -0.01187
v 0.05141 0.02900 -0.01187
v 0.03296 0.00265 -0.04350
v 0.03559 0.03164 -0.04878
v 0.04350 0.02637 -0.01187
v 0.04877 0.03164 -0.04878
v 0.04877 -0.00263 -0.01187
v 0.03559 0.03164 -0.03559
v 0.03296 0.02373 -0.04086
v 0.03296 0.00265 -0.04878
v 0.03559 0.00001 -0.03823
v 0.04614 0.02900 -0.01187
v 0.03296 0.02900 -0.04878
v 0.04614 0.00528 -0.01187
v 0.03296 0.01056 -0.04086
v 0.03559 -0.00263 -0.04086
v 0.04877 0.03164 -0.04614
v 0.04086 0.07910 -0.01187
v 0.02505 0.07910 -0.01187
v 0.02505 0.07646 -0.04614
v 0.02505 0.05537 -0.01187
v 0.04877 0.04219 -0.01187
v 0.03296 0.03429 -0.04878
v 0.04350 0.07646 -0.03032
v 0.04350 0.03164 -0.02505
v 0.02505 0.04483 -0.04350
v 0.03559 0.07646 -0.04350
v 0.03559 0.03164 -0.03559
v 0.04877 0.05010 -0.03823
v 0.04613 0.03692 -0.04878
v 0.04877 0.05010 -0.01187
v 0.03032 0.07910 -0.04086
v 0.04086 0.04219 -0.01187
v 0.04877 0.03164 -0.02505
v 0.04350 0.07646 -0.01187
v 0.04086 0.04746 -0.04878
v 0.03823 0.07646 -0.04086
v 0.02505 0.04483 -0.03823
v 0.03559 0.03164 -0.04878
v 0.03823 0.07910 -0.03295
v 0.02505 0.07910 -0.04086
v -0.05932 -0.01581 0.00131
v -0.06195 -0.03426 -0.01187
v -0.05932 -0.03954 -0.01187
v -0.04614 -0.03690 -0.01187
v -0.05932 -0.03954 0.00131
v -0.05668 -0.01845 -0.01187
v -0.05405 -0.03954 0.00131
v -0.06195 -0.01581 0.00131
v -0.06195 -0.01845 -0.01187
v -0.05668 -0.01845 0.00131
v -0.04614 -0.03954 -0.00923
v -0.06195 -0.03163 0.00131
v -0.05405 -0.02899 0.00131
v -0.05667 -0.03953 0.01450
v 0.00395 0.00000 0.00659
v 0.00395 0.00000 0.00396
v -0.06194 0.00000 0.00923
v -0.05931 -0.03953 0.00132
v -0.01451 -0.03953 0.00659
v -0.04613 -0.03690 0.01713
v -0.06194 -0.01054 0.00132
v -0.03031 0.00000 0.01186
v 0.00395 -0.02108 0.00923
v 0.00131 -0.02635 0.00396
v -0.03822 -0.03953 0.00132
v 0.00395 -0.00264 0.00923
v -0.06194 0.00000 0.00396
v -0.05931 0.00000 0.01186
v -0.06194 -0.02899 0.01186
v -0.02242 -0.03953 0.01186
v 0.00131 -0.02899 0.00923
v -0.04349 -0.01318 0.01450
v -0.06194 -0.03426 0.00132
v -0.01715 -0.03953 0.00396
v -0.04613 -0.03953 0.01713
v -0.05667 -0.02108 0.01450
v 0.00395 -0.02108 0.00396
v -0.05404 -0.01318 0.00132
v -0.05931 -0.03953 0.01186
v -0.05140 -0.01318 0.01450
v -0.06194 -0.00791 0.01186
v -0.04350 0.04483 -0.01187
v -0.05668 0.03428 -0.01187
v -0.05141 0.03428 -0.01187
v -0.03823 0.05537 0.00131
v -0.05668 0.05537 -0.01187
v -0.05404 0.05010 0.00131
v -0.04087 0.05537 -0.01187
v -0.05668 0.05537 -0.00132
v -0.04350 0.04746 0.00131
v -0.05668 0.03428 -0.00923
v -0.03823 0.05273 0.00131
f 368 354 372 
f 334 333 337 
f 335 330 337 
f 333 334 338 
f 335 333 338 
f 336 332 338 
f 335 338 340 
f 333 335 341 
f 337 333 341 
f 335 337 341 
f 337 330 343 
f 339 334 343 
f 331 332 344 
f 332 336 344 
f 334 339 345 
f 332 331 347 
f 338 332 347 
f 331 344 348 
f 345 339 349 
f 335 340 350 
f 334 337 353 
f 337 343 353 
f 343 334 353 
f 343 330 355 
f 339 343 355 
f 330 351 355 
f 351 339 355 
f 330 335 357 
f 335 350 357 
f 352 330 357 
f 334 336 358 
f 338 334 358 
f 336 338 358 
f 356 342 359 
f 349 344 360 
f 345 349 360 
f 336 334 361 
f 334 345 361 
f 345 336 361 
f 340 338 362 
f 338 347 362 
f 351 330 363 
f 330 352 363 
f 352 342 363 
f 342 356 363 
f 356 351 363 
f 346 340 364 
f 348 342 364 
f 342 352 364 
f 352 346 364 
f 340 354 364 
f 348 344 365 
f 342 348 365 
f 359 342 365 
f 340 346 366 
f 350 340 366 
f 344 336 367 
f 336 345 367 
f 360 344 367 
f 345 360 367 
f 331 348 368 
f 348 364 368 
f 364 354 368 
f 344 349 369 
f 349 359 369 
f 365 344 369 
f 359 365 369 
f 346 352 370 
f 357 350 370 
f 352 357 370 
f 366 346 370 
f 350 366 370 
f 349 339 371 
f 339 351 371 
f 351 356 371 
f 359 349 371 
f 356 359 371 
f 347 331 372 
f 354 340 372 
f 340 362 372 
f 362 347 372 
f 331 368 372 
