# Original object name hint: convex_0
v 0.03368 -0.05717 0.01939
v -0.01939 -0.05921 -0.03164
v -0.01939 -0.05717 -0.03164
v -0.04390 -0.05717 0.01939
v -0.00919 -0.04492 0.01531
v 0.03368 -0.06125 -0.02756
v -0.02552 -0.06534 0.01939
v 0.00713 -0.05105 -0.02756
v 0.03163 -0.06534 0.01531
v -0.04185 -0.05105 0.00714
v -0.02756 -0.06125 -0.02756
v -0.02143 -0.04492 0.02143
v 0.03368 -0.05717 -0.02756
v -0.01122 -0.06534 0.00101
v 0.00101 -0.06125 0.02347
v -0.04185 -0.06125 0.00510
v 0.03776 -0.05717 0.01531
v -0.02143 -0.05513 -0.02960
v -0.02348 -0.04492 0.01531
v 0.02142 -0.06125 -0.03164
v -0.02756 -0.06125 0.02347
v 0.03571 -0.06330 0.01939
v -0.04390 -0.05309 0.00306
v 0.00509 -0.05309 -0.03164
v 0.03163 -0.05717 0.02143
v -0.04390 -0.05309 0.01939
v 0.03163 -0.05513 0.00306
v -0.01122 -0.04492 0.02143
v 0.02959 -0.06534 0.00918
v 0.02755 -0.05513 -0.02551
v 0.03776 -0.06330 0.01122
v 0.00101 -0.05105 -0.02756
v -0.02552 -0.06534 0.01122
v -0.01531 -0.06125 -0.03164
v 0.03163 -0.06330 0.02143
v -0.04185 -0.06125 0.01735
v -0.04390 -0.05921 0.00306
v 0.03163 -0.05513 0.01735
v -0.02756 -0.05717 -0.02756
v -0.00103 -0.05717 0.02347
v 0.03776 -0.05717 0.00306
v -0.02960 -0.06125 -0.02551
v 0.03163 -0.05717 -0.02960
v 0.00101 -0.06534 0.00101
v -0.04185 -0.05105 0.01735
v -0.03573 -0.06330 0.00918
v -0.02552 -0.05717 0.02347
v 0.00918 -0.06534 0.01939
v 0.03163 -0.06125 -0.02960
v -0.03164 -0.06330 0.02143
v -0.01735 -0.05513 -0.03164
v 0.02142 -0.05717 -0.03164
v 0.03776 -0.06125 0.00306
v -0.01735 -0.06534 0.00306
v 0.03163 -0.06534 0.01122
v 0.03368 -0.05921 0.02143
v 0.03776 -0.06330 0.01735
v 0.02959 -0.06534 0.01735
v -0.00919 -0.04492 0.01939
v -0.02348 -0.06125 -0.02960
v -0.04390 -0.05921 0.01735
v -0.02960 -0.05921 -0.02551
v 0.02347 -0.05513 -0.02960
v -0.02348 -0.04492 0.01939
v -0.02553 -0.04288 0.01735
v -0.00103 -0.02450 0.01940
v -0.00103 -0.02450 0.01735
v -0.02757 -0.02450 0.02144
v -0.01124 -0.04492 0.02144
v -0.01124 -0.03267 0.01327
v -0.02553 -0.02450 0.01531
v -0.00920 -0.04492 0.01531
v -0.02348 -0.04492 0.01531
v -0.00307 -0.02450 0.02144
v -0.02144 -0.04492 0.02144
v -0.00307 -0.03675 0.01531
v -0.00307 -0.03675 0.01940
v -0.00511 -0.02450 0.01531
v -0.01532 -0.03675 0.01327
v -0.02757 -0.03675 0.01940
v -0.00715 -0.04492 0.01940
v -0.02757 -0.03675 0.01735
v -0.02553 -0.03675 0.01531
v -0.02757 -0.02450 0.01735
v -0.00307 -0.02859 0.02144
v -0.01124 -0.03675 0.01327
v -0.02553 -0.03675 0.02144
v -0.02553 -0.04288 0.01940
v -0.00307 -0.02859 0.01531
v -0.00103 -0.02655 0.01940
v -0.00715 -0.04492 0.01735
v -0.01532 -0.03267 0.01327
v -0.02756 -0.02450 0.01736
v 0.00509 0.06534 0.01940
v 0.01530 0.02653 0.03164
v 0.03163 -0.01837 0.01532
v -0.05206 0.01635 0.02348
v 0.05206 0.01226 0.02960
v 0.00714 0.04900 0.01327
v -0.00102 -0.00816 0.02960
v 0.05000 0.01839 0.02348
v -0.03164 -0.01429 0.01532
v 0.02550 -0.01633 0.02552
v -0.05001 0.01839 0.01940
v -0.05001 -0.00816 0.02348
v -0.00510 0.01635 0.03164
v -0.00714 0.06329 0.01940
v -0.02347 -0.02245 0.02348
v 0.01734 -0.00203 0.03164
v -0.04797 -0.01224 0.01736
v 0.05206 0.01839 0.02960
v -0.00306 -0.02450 0.01532
v 0.02755 0.02245 0.01532
v -0.01327 0.04492 0.01532
v 0.03980 -0.00408 0.02960
v -0.00102 0.03062 0.02960
v 0.01938 -0.02245 0.02144
v 0.00509 0.06125 0.01532
v -0.02960 0.01431 0.01532
v -0.02960 0.03675 0.02348
v -0.00102 0.00205 0.03164
v -0.00714 0.06329 0.01736
v 0.05206 0.02042 0.02552
v -0.02756 -0.02450 0.02144
v -0.02551 -0.02450 0.01532
v 0.03163 -0.01837 0.02144
v 0.00305 0.04492 0.01327
v 0.01938 0.03266 0.02960
v 0.05206 0.01226 0.02552
v 0.02550 0.01226 0.03164
v 0.00101 -0.02450 0.02144
v -0.05206 0.01431 0.01940
v 0.00714 0.02653 0.03164
v 0.00509 0.06534 0.01736
v 0.00101 -0.02245 0.02348
v 0.00305 0.04900 0.01327
v -0.00510 0.00818 0.03164
v -0.04797 -0.01020 0.02348
v 0.01530 -0.00816 0.02960
v -0.04797 -0.00203 0.01736
v -0.00306 0.06534 0.01940
v 0.01938 -0.02245 0.01736
v 0.00305 0.02449 0.03164
v 0.02959 0.02858 0.01736
v -0.05206 0.00818 0.02348
v -0.05001 -0.00816 0.01940
v 0.00101 0.06125 0.01532
v 0.05206 0.02042 0.02756
v -0.03164 0.00818 0.01532
v -0.04797 -0.01224 0.02144
v 0.02142 0.00001 0.03164
v 0.00101 0.00001 0.03164
v 0.03368 0.02042 0.01736
v -0.04797 0.02042 0.02348
v 0.04797 0.02042 0.02960
v 0.00714 0.04492 0.01327
f 19 45 64 
f 3 2 11 
f 9 7 14 
f 5 8 19 
f 12 5 19 
f 18 10 19 
f 2 3 20 
f 7 15 21 
f 10 18 23 
f 20 3 24 
f 4 21 26 
f 23 4 26 
f 10 23 26 
f 5 12 28 
f 9 14 29 
f 8 5 30 
f 5 27 30 
f 27 13 30 
f 19 8 32 
f 18 19 32 
f 8 24 32 
f 14 7 33 
f 2 20 34 
f 20 14 34 
f 4 23 37 
f 16 36 37 
f 1 17 38 
f 25 1 38 
f 27 5 38 
f 17 27 38 
f 28 25 38 
f 3 11 39 
f 23 18 39 
f 21 15 40 
f 28 12 40 
f 25 28 40 
f 6 13 41 
f 13 27 41 
f 27 17 41 
f 17 31 41 
f 11 33 42 
f 16 37 42 
f 37 23 42 
f 39 11 42 
f 13 6 43 
f 14 20 44 
f 29 14 44 
f 19 10 45 
f 26 12 45 
f 10 26 45 
f 33 7 46 
f 36 16 46 
f 7 36 46 
f 42 33 46 
f 16 42 46 
f 12 26 47 
f 26 21 47 
f 40 12 47 
f 21 40 47 
f 7 9 48 
f 15 7 48 
f 35 15 48 
f 6 29 49 
f 43 6 49 
f 20 43 49 
f 44 20 49 
f 29 44 49 
f 21 4 50 
f 7 21 50 
f 4 36 50 
f 36 7 50 
f 24 3 51 
f 18 32 51 
f 32 24 51 
f 3 39 51 
f 39 18 51 
f 20 24 52 
f 43 20 52 
f 24 43 52 
f 31 6 53 
f 6 41 53 
f 41 31 53 
f 14 33 54 
f 33 11 54 
f 29 6 55 
f 9 29 55 
f 6 31 55 
f 31 9 55 
f 17 1 56 
f 1 25 56 
f 15 35 56 
f 35 22 56 
f 40 15 56 
f 25 40 56 
f 9 31 57 
f 31 17 57 
f 17 56 57 
f 56 22 57 
f 22 35 58 
f 48 9 58 
f 35 48 58 
f 9 57 58 
f 57 22 58 
f 5 28 59 
f 38 5 59 
f 28 38 59 
f 11 2 60 
f 2 34 60 
f 34 14 60 
f 54 11 60 
f 14 54 60 
f 36 4 61 
f 4 37 61 
f 37 36 61 
f 23 39 62 
f 42 23 62 
f 39 42 62 
f 24 8 63 
f 8 30 63 
f 30 13 63 
f 13 43 63 
f 43 24 63 
f 12 19 64 
f 45 12 64 
