# Original object name hint: convex_1
v 0.03368 -0.05717 0.01939
v -0.01939 -0.05921 -0.03164
v -0.01939 -0.05717 -0.03164
v -0.04390 -0.05717 0.01939
v -0.00919 -0.04492 0.01531
v 0.03368 -0.06125 -0.02756
v -0.02552 -0.06534 0.01939
v 0.00713 -0.05105 -0.02756
v 0.03163 -0.06534 0.01531
v -0.04185 -0.05105 0.00714
v -0.02756 -0.06125 -0.02756
v -0.02143 -0.04492 0.02143
v 0.03368 -0.05717 -0.02756
v -0.01122 -0.06534 0.00101
v 0.00101 -0.06125 0.02347
v -0.04185 -0.06125 0.00510
v 0.03776 -0.05717 0.01531
v -0.02143 -0.05513 -0.02960
v -0.02348 -0.04492 0.01531
v 0.02142 -0.06125 -0.03164
v -0.02756 -0.06125 0.02347
v 0.03571 -0.06330 0.01939
v -0.04390 -0.05309 0.00306
v 0.00509 -0.05309 -0.03164
v 0.03163 -0.05717 0.02143
v -0.04390 -0.05309 0.01939
v 0.03163 -0.05513 0.00306
v -0.01122 -0.04492 0.02143
v 0.02959 -0.06534 0.00918
v 0.02755 -0.05513 -0.02551
v 0.03776 -0.06330 0.01122
v 0.00101 -0.05105 -0.02756
v -0.02552 -0.06534 0.01122
v -0.01531 -0.06125 -0.03164
v 0.03163 -0.06330 0.02143
v -0.04185 -0.06125 0.01735
v -0.04390 -0.05921 0.00306
v 0.03163 -0.05513 0.01735
v -0.02756 -0.05717 -0.02756
v -0.00103 -0.05717 0.02347
v 0.03776 -0.05717 0.00306
v -0.02960 -0.06125 -0.02551
v 0.03163 -0.05717 -0.02960
v 0.00101 -0.06534 0.00101
v -0.04185 -0.05105 0.01735
v -0.03573 -0.06330 0.00918
v -0.02552 -0.05717 0.02347
v 0.00918 -0.06534 0.01939
v 0.03163 -0.06125 -0.02960
v -0.03164 -0.06330 0.02143
v -0.01735 -0.05513 -0.03164
v 0.02142 -0.05717 -0.03164
v 0.03776 -0.06125 0.00306
v -0.01735 -0.06534 0.00306
v 0.03163 -0.06534 0.01122
v 0.03368 -0.05921 0.02143
v 0.03776 -0.06330 0.01735
v 0.02959 -0.06534 0.01735
v -0.00919 -0.04492 0.01939
v -0.02348 -0.06125 -0.02960
v -0.04390 -0.05921 0.01735
v -0.02960 -0.05921 -0.02551
v 0.02347 -0.05513 -0.02960
v -0.02348 -0.04492 0.01939
v -0.02553 -0.04288 0.01735
v -0.00103 -0.02450 0.01940
v -0.00103 -0.02450 0.01735
v -0.02757 -0.02450 0.02144
v -0.01124 -0.04492 0.02144
v -0.01124 -0.03267 0.01327
v -0.02553 -0.02450 0.01531
v -0.00920 -0.04492 0.01531
v -0.02348 -0.04492 0.01531
v -0.00307 -0.02450 0.02144
v -0.02144 -0.04492 0.02144
v -0.00307 -0.03675 0.01531
v -0.00307 -0.03675 0.01940
v -0.00511 -0.02450 0.01531
v -0.01532 -0.03675 0.01327
v -0.02757 -0.03675 0.01940
v -0.00715 -0.04492 0.01940
v -0.02757 -0.03675 0.01735
v -0.02553 -0.03675 0.01531
v -0.02757 -0.02450 0.01735
v -0.00307 -0.02859 0.02144
v -0.01124 -0.03675 0.01327
v -0.02553 -0.03675 0.02144
v -0.02553 -0.04288 0.01940
v -0.00307 -0.02859 0.01531
v -0.00103 -0.02655 0.01940
v -0.00715 -0.04492 0.01735
v -0.01532 -0.03267 0.01327
v -0.02756 -0.02450 0.01736
v 0.00509 0.06534 0.01940
v 0.01530 0.02653 0.03164
v 0.03163 -0.01837 0.01532
v -0.05206 0.01635 0.02348
v 0.05206 0.01226 0.02960
v 0.00714 0.04900 0.01327
v -0.00102 -0.00816 0.02960
v 0.05000 0.01839 0.02348
v -0.03164 -0.01429 0.01532
v 0.02550 -0.01633 0.02552
v -0.05001 0.01839 0.01940
v -0.05001 -0.00816 0.02348
v -0.00510 0.01635 0.03164
v -0.00714 0.06329 0.01940
v -0.02347 -0.02245 0.02348
v 0.01734 -0.00203 0.03164
v -0.04797 -0.01224 0.01736
v 0.05206 0.01839 0.02960
v -0.00306 -0.02450 0.01532
v 0.02755 0.02245 0.01532
v -0.01327 0.04492 0.01532
v 0.03980 -0.00408 0.02960
v -0.00102 0.03062 0.02960
v 0.01938 -0.02245 0.02144
v 0.00509 0.06125 0.01532
v -0.02960 0.01431 0.01532
v -0.02960 0.03675 0.02348
v -0.00102 0.00205 0.03164
v -0.00714 0.06329 0.01736
v 0.05206 0.02042 0.02552
v -0.02756 -0.02450 0.02144
v -0.02551 -0.02450 0.01532
v 0.03163 -0.01837 0.02144
v 0.00305 0.04492 0.01327
v 0.01938 0.03266 0.02960
v 0.05206 0.01226 0.02552
v 0.02550 0.01226 0.03164
v 0.00101 -0.02450 0.02144
v -0.05206 0.01431 0.01940
v 0.00714 0.02653 0.03164
v 0.00509 0.06534 0.01736
v 0.00101 -0.02245 0.02348
v 0.00305 0.04900 0.01327
v -0.00510 0.00818 0.03164
v -0.04797 -0.01020 0.02348
v 0.01530 -0.00816 0.02960
v -0.04797 -0.00203 0.01736
v -0.00306 0.06534 0.01940
v 0.01938 -0.02245 0.01736
v 0.00305 0.02449 0.03164
v 0.02959 0.02858 0.01736
v -0.05206 0.00818 0.02348
v -0.05001 -0.00816 0.01940
v 0.00101 0.06125 0.01532
v 0.05206 0.02042 0.02756
v -0.03164 0.00818 0.01532
v -0.04797 -0.01224 0.02144
v 0.02142 0.00001 0.03164
v 0.00101 0.00001 0.03164
v 0.03368 0.02042 0.01736
v -0.04797 0.02042 0.02348
v 0.04797 0.02042 0.02960
v 0.00714 0.04492 0.01327
f 79 71 92 
f 66 67 68 
f 68 67 71 
f 72 69 73 
f 66 68 74 
f 68 69 74 
f 69 68 75 
f 73 69 75 
f 71 67 78 
f 70 71 78 
f 72 73 79 
f 69 72 81 
f 76 77 81 
f 77 69 81 
f 73 65 82 
f 80 68 82 
f 65 80 82 
f 71 79 83 
f 79 73 83 
f 82 71 83 
f 73 82 83 
f 68 71 84 
f 82 68 84 
f 71 82 84 
f 66 74 85 
f 74 69 85 
f 69 77 85 
f 70 76 86 
f 76 72 86 
f 79 70 86 
f 72 79 86 
f 75 68 87 
f 68 80 87 
f 87 80 88 
f 65 73 88 
f 73 75 88 
f 80 65 88 
f 75 87 88 
f 67 76 89 
f 76 70 89 
f 78 67 89 
f 70 78 89 
f 67 66 90 
f 76 67 90 
f 77 76 90 
f 66 85 90 
f 85 77 90 
f 72 76 91 
f 81 72 91 
f 76 81 91 
f 71 70 92 
f 70 79 92 
