# Original object name hint: convex_2
v 0.03368 -0.05717 0.01939
v -0.01939 -0.05921 -0.03164
v -0.01939 -0.05717 -0.03164
v -0.04390 -0.05717 0.01939
v -0.00919 -0.04492 0.01531
v 0.03368 -0.06125 -0.02756
v -0.02552 -0.06534 0.01939
v 0.00713 -0.05105 -0.02756
v 0.03163 -0.06534 0.01531
v -0.04185 -0.05105 0.00714
v -0.02756 -0.06125 -0.02756
v -0.02143 -0.04492 0.02143
v 0.03368 -0.05717 -0.02756
v -0.01122 -0.06534 0.00101
v 0.00101 -0.06125 0.02347
v -0.04185 -0.06125 0.00510
v 0.03776 -0.05717 0.01531
v -0.02143 -0.05513 -0.02960
v -0.02348 -0.04492 0.01531
v 0.02142 -0.06125 -0.03164
v -0.02756 -0.06125 0.02347
v 0.03571 -0.06330 0.01939
v -0.04390 -0.05309 0.00306
v 0.00509 -0.05309 -0.03164
v 0.03163 -0.05717 0.02143
v -0.04390 -0.05309 0.01939
v 0.03163 -0.05513 0.00306
v -0.01122 -0.04492 0.02143
v 0.02959 -0.06534 0.00918
v 0.02755 -0.05513 -0.02551
v 0.03776 -0.06330 0.01122
v 0.00101 -0.05105 -0.02756
v -0.02552 -0.06534 0.01122
v -0.01531 -0.06125 -0.03164
v 0.03163 -0.06330 0.02143
v -0.04185 -0.06125 0.01735
v -0.04390 -0.05921 0.00306
v 0.03163 -0.05513 0.01735
v -0.02756 -0.05717 -0.02756
v -0.00103 -0.05717 0.02347
v 0.03776 -0.05717 0.00306
v -0.02960 -0.06125 -0.02551
v 0.03163 -0.05717 -0.02960
v 0.00101 -0.06534 0.00101
v -0.04185 -0.05105 0.01735
v -0.03573 -0.06330 0.00918
v -0.02552 -0.05717 0.02347
v 0.00918 -0.06534 0.01939
v 0.03163 -0.06125 -0.02960
v -0.03164 -0.06330 0.02143
v -0.01735 -0.05513 -0.03164
v 0.02142 -0.05717 -0.03164
v 0.03776 -0.06125 0.00306
v -0.01735 -0.06534 0.00306
v 0.03163 -0.06534 0.01122
v 0.03368 -0.05921 0.02143
v 0.03776 -0.06330 0.01735
v 0.02959 -0.06534 0.01735
v -0.00919 -0.04492 0.01939
v -0.02348 -0.06125 -0.02960
v -0.04390 -0.05921 0.01735
v -0.02960 -0.05921 -0.02551
v 0.02347 -0.05513 -0.02960
v -0.02348 -0.04492 0.01939
v -0.02553 -0.04288 0.01735
v -0.00103 -0.02450 0.01940
v -0.00103 -0.02450 0.01735
v -0.02757 -0.02450 0.02144
v -0.01124 -0.04492 0.02144
v -0.01124 -0.03267 0.01327
v -0.02553 -0.02450 0.01531
v -0.00920 -0.04492 0.01531
v -0.02348 -0.04492 0.01531
v -0.00307 -0.02450 0.02144
v -0.02144 -0.04492 0.02144
v -0.00307 -0.03675 0.01531
v -0.00307 -0.03675 0.01940
v -0.00511 -0.02450 0.01531
v -0.01532 -0.03675 0.01327
v -0.02757 -0.03675 0.01940
v -0.00715 -0.04492 0.01940
v -0.02757 -0.03675 0.01735
v -0.02553 -0.03675 0.01531
v -0.02757 -0.02450 0.01735
v -0.00307 -0.02859 0.02144
v -0.01124 -0.03675 0.01327
v -0.02553 -0.03675 0.02144
v -0.02553 -0.04288 0.01940
v -0.00307 -0.02859 0.01531
v -0.00103 -0.02655 0.01940
v -0.00715 -0.04492 0.01735
v -0.01532 -0.03267 0.01327
v -0.02756 -0.02450 0.01736
v 0.00509 0.06534 0.01940
v 0.01530 0.02653 0.03164
v 0.03163 -0.01837 0.01532
v -0.05206 0.01635 0.02348
v 0.05206 0.01226 0.02960
v 0.00714 0.04900 0.01327
v -0.00102 -0.00816 0.02960
v 0.05000 0.01839 0.02348
v -0.03164 -0.01429 0.01532
v 0.02550 -0.01633 0.02552
v -0.05001 0.01839 0.01940
v -0.05001 -0.00816 0.02348
v -0.00510 0.01635 0.03164
v -0.00714 0.06329 0.01940
v -0.02347 -0.02245 0.02348
v 0.01734 -0.00203 0.03164
v -0.04797 -0.01224 0.01736
v 0.05206 0.01839 0.02960
v -0.00306 -0.02450 0.01532
v 0.02755 0.02245 0.01532
v -0.01327 0.04492 0.01532
v 0.03980 -0.00408 0.02960
v -0.00102 0.03062 0.02960
v 0.01938 -0.02245 0.02144
v 0.00509 0.06125 0.01532
v -0.02960 0.01431 0.01532
v -0.02960 0.03675 0.02348
v -0.00102 0.00205 0.03164
v -0.00714 0.06329 0.01736
v 0.05206 0.02042 0.02552
v -0.02756 -0.02450 0.02144
v -0.02551 -0.02450 0.01532
v 0.03163 -0.01837 0.02144
v 0.00305 0.04492 0.01327
v 0.01938 0.03266 0.02960
v 0.05206 0.01226 0.02552
v 0.02550 0.01226 0.03164
v 0.00101 -0.02450 0.02144
v -0.05206 0.01431 0.01940
v 0.00714 0.02653 0.03164
v 0.00509 0.06534 0.01736
v 0.00101 -0.02245 0.02348
v 0.00305 0.04900 0.01327
v -0.00510 0.00818 0.03164
v -0.04797 -0.01020 0.02348
v 0.01530 -0.00816 0.02960
v -0.04797 -0.00203 0.01736
v -0.00306 0.06534 0.01940
v 0.01938 -0.02245 0.01736
v 0.00305 0.02449 0.03164
v 0.02959 0.02858 0.01736
v -0.05206 0.00818 0.02348
v -0.05001 -0.00816 0.01940
v 0.00101 0.06125 0.01532
v 0.05206 0.02042 0.02756
v -0.03164 0.00818 0.01532
v -0.04797 -0.01224 0.02144
v 0.02142 0.00001 0.03164
v 0.00101 0.00001 0.03164
v 0.03368 0.02042 0.01736
v -0.04797 0.02042 0.02348
v 0.04797 0.02042 0.02960
v 0.00714 0.04492 0.01327
f 112 127 156 
f 95 106 109 
f 96 99 113 
f 104 114 119 
f 116 107 120 
f 109 106 121 
f 104 97 122 
f 97 107 122 
f 114 104 122 
f 111 98 123 
f 101 118 123 
f 110 93 124 
f 93 112 124 
f 93 110 125 
f 110 102 125 
f 112 93 125 
f 96 98 126 
f 98 115 126 
f 115 103 126 
f 117 96 126 
f 103 117 126 
f 125 102 127 
f 112 125 127 
f 94 95 128 
f 98 96 129 
f 96 101 129 
f 123 98 129 
f 101 123 129 
f 95 109 130 
f 111 95 130 
f 98 111 130 
f 108 124 131 
f 124 112 131 
f 97 104 132 
f 104 119 132 
f 95 94 133 
f 106 95 133 
f 94 123 134 
f 123 118 134 
f 100 108 135 
f 117 103 135 
f 108 131 135 
f 131 117 135 
f 118 99 136 
f 119 114 136 
f 99 127 136 
f 127 102 136 
f 106 97 137 
f 105 121 137 
f 121 106 137 
f 108 100 138 
f 124 108 138 
f 109 100 139 
f 103 115 139 
f 115 109 139 
f 100 135 139 
f 135 103 139 
f 102 110 140 
f 110 132 140 
f 132 119 140 
f 107 116 141 
f 122 107 141 
f 133 94 141 
f 116 133 141 
f 94 134 141 
f 134 122 141 
f 112 96 142 
f 96 117 142 
f 117 131 142 
f 131 112 142 
f 97 106 143 
f 116 120 143 
f 106 133 143 
f 133 116 143 
f 113 99 144 
f 118 101 144 
f 99 118 144 
f 97 132 145 
f 137 97 145 
f 105 137 145 
f 110 105 146 
f 132 110 146 
f 145 132 146 
f 105 145 146 
f 114 122 147 
f 122 134 147 
f 134 118 147 
f 118 136 147 
f 136 114 147 
f 94 111 148 
f 123 94 148 
f 111 123 148 
f 136 102 149 
f 119 136 149 
f 102 140 149 
f 140 119 149 
f 105 110 150 
f 110 124 150 
f 138 105 150 
f 124 138 150 
f 115 98 151 
f 109 115 151 
f 130 109 151 
f 98 130 151 
f 100 109 152 
f 121 105 152 
f 109 121 152 
f 138 100 152 
f 105 138 152 
f 101 96 153 
f 96 113 153 
f 113 144 153 
f 144 101 153 
f 107 97 154 
f 120 107 154 
f 97 143 154 
f 143 120 154 
f 95 111 155 
f 111 94 155 
f 128 95 155 
f 94 128 155 
f 99 96 156 
f 96 112 156 
f 127 99 156 
