# Created by Open3D 
# object name: convex_4_coll
# number of vertices: 14
# number of triangles: 24
v -0.0756 0.0474 0.00128
v -0.080725 0.0256275 -0.001285
v -0.06151 0.04612 0.00128
v -0.07944 -0.02306 0.00128
v -0.05638 -0.04098 -0.032025
v -0.05638 0.04868 -0.03202
v -0.05638 -0.02306 0.00128
v -0.06407 0.04868 -0.0474
v -0.06151 -0.0333 -0.0474
v -0.07944 -0.02817 -0.0474
v -0.07944 0.04355 -0.0474
v -0.073035 -0.0384225 -0.0236975
v -0.06919 0.05636 -0.028815
v -0.074315 -0.03714 -0.03971
f 3 1 4
f 5 6 7
f 3 4 7
f 8 9 10
f 2 11 10
f 8 10 11
f 4 1 2
f 6 8 13
f 6 3 7
f 5 12 14
f 5 14 9
f 10 4 2
f 6 13 3
f 8 6 9
f 1 3 13
f 13 11 1
f 4 10 12
f 7 12 5
f 12 7 4
f 10 9 14
f 9 6 5
f 11 13 8
f 12 10 14
f 1 11 2
