# Created by Open3D 
# object name: convex_8_coll
# number of vertices: 14
# number of triangles: 24
v -0.00865125 0.0560588 -0.03683
v 0.047405 0.04997 -0.02947
v -0.02049 0.05638 -0.0269
v 0.04612 0.05125 -0.02434
v -0.00896 0.04741 -0.04228
v -0.05638 0.02563 -0.03203
v -0.05638 0.04613 -0.03203
v -0.05381 0.02563 -0.02178
v 0.01537 0.02563 -0.03459
v -0.04485 0.04869 -0.02306
v 0.04869 0.0282 -0.02434
v 0.04869 0.0282 -0.02947
v -0.05638 0.04613 -0.02434
v -0.01537 0.05253 -0.040995
f 1 3 4
f 5 6 7
f 8 6 9
f 2 11 12
f 2 12 5
f 10 8 4
f 7 6 13
f 6 5 9
f 1 4 2
f 8 9 11
f 9 12 11
f 13 10 7
f 12 9 5
f 5 7 14
f 1 5 14
f 8 11 4
f 4 3 10
f 13 6 8
f 11 2 4
f 7 10 3
f 1 7 3
f 7 1 14
f 10 13 8
f 2 5 1
