# Created by Open3D 
# object name: convex_11_coll
# number of vertices: 14
# number of triangles: 24
v -0.05638 -0.041 -0.02947
v -0.05638 -0.01537 -0.03203
v -0.05638 -0.041 -0.03715
v -0.05638 -0.02819 -0.02178
v -0.03076 -0.01537 -0.02178
v -0.03076 -0.01537 -0.03203
v -0.03076 -0.03587 -0.03203
v -0.03076 -0.03075 -0.02178
v -0.05638 -0.01537 -0.02178
v -0.04357 -0.03075 -0.03715
v -0.05638 -0.03075 -0.03715
v -0.04101 -0.03587 -0.03715
v -0.03076 -0.03587 -0.02947
v -0.04869 -0.03075 -0.02178
f 2 3 4
f 2 5 6
f 5 7 6
f 5 4 8
f 7 5 8
f 4 3 1
f 5 2 9
f 4 5 9
f 2 4 9
f 2 6 10
f 3 2 11
f 10 3 11
f 2 10 11
f 7 3 12
f 6 7 12
f 3 10 12
f 10 6 12
f 3 7 13
f 7 8 13
f 8 4 14
f 14 4 1
f 8 14 1
f 3 13 1
f 13 8 1
