# Created by Open3D 
# object name: convex_2_coll
# number of vertices: 14
# number of triangles: 24
v -0.06663 0.04869 -0.0474
v -0.04357 0.04357 -0.05637
v -0.02819 0.03075 -0.05765
v -0.02819 -0.03331 -0.05765
v -0.02819 -0.03331 -0.06278
v -0.07047 -0.00768 -0.06278
v -0.06919 0.03332 -0.06278
v -0.0615 -0.03331 -0.0474
v -0.078165 0.04613 -0.0474
v -0.03075 0.03075 -0.06278
v -0.07945 -0.02818 -0.0474
v -0.06791 0.04741 -0.058935
v -0.04357 -0.03844 -0.05509
v -0.06983 -0.0326675 -0.058935
f 3 4 5
f 5 6 7
f 8 1 9
f 3 5 10
f 5 7 10
f 8 4 3
f 3 10 2
f 10 7 12
f 5 4 13
f 8 9 11
f 14 11 6
f 1 12 9
f 8 14 13
f 1 3 2
f 3 1 8
f 13 14 5
f 7 9 12
f 14 8 11
f 11 9 6
f 2 10 12
f 6 5 14
f 13 4 8
f 6 9 7
f 2 12 1
