# Created by Open3D 
# object name: convex_3_coll
# number of vertices: 14
# number of triangles: 24
v 0.01281 -0.03075 -0.06022
v 0.00512 -0.02307 -0.06278
v 0.00256 -0.03844 -0.06278
v -0.02819 -0.01794 -0.06278
v -0.02819 -0.01794 -0.05766
v -0.02819 -0.03331 -0.06278
v -0.02819 -0.03331 -0.05766
v 0.00512 -0.02307 -0.05766
v 0.01537 -0.03331 -0.05509
v -0.01025 -0.041 -0.05509
v -0.01281 -0.041 -0.06022
v 0.00512 -0.041 -0.05509
v 0.00512 -0.041 -0.06022
v 0.01409 -0.03587 -0.05894
f 3 4 2
f 4 5 2
f 4 3 6
f 6 7 5
f 2 5 8
f 9 2 8
f 10 7 11
f 7 6 11
f 9 10 12
f 10 11 12
f 6 5 4
f 11 3 13
f 12 11 13
f 3 14 13
f 8 5 9
f 5 7 10
f 9 5 10
f 9 12 14
f 12 13 14
f 6 3 11
f 3 2 1
f 14 3 1
f 2 9 1
f 9 14 1
