# Created by Open3D 
# object name: convex_6_coll
# number of vertices: 14
# number of triangles: 24
v -0.052535 -0.01793 0.04229
v 0.04869 0.03075 0.02692
v -0.02882 -0.0211325 0.0282
v 0.01281 0.04355 0.02692
v 0.04869 -0.01537 0.02692
v 0.04099 0.00513 0.06023
v 0.0205 0.05382 0.04741
v -0.01537 0.05382 0.04741
v 0.04869 0.030745 0.05126
v -0.052535 0.007695 0.03076
v 0.02818 -0.02306 0.03717
v -0.05638 0.03587 0.04485
v -0.01537 0.007695 0.0551
v -0.053815 0.03779 0.03589
f 2 3 4
f 3 2 5
f 6 7 8
f 5 2 9
f 4 8 7
f 11 1 3
f 8 12 6
f 12 13 6
f 13 12 1
f 12 10 1
f 10 12 14
f 4 3 10
f 1 6 13
f 10 3 1
f 7 6 9
f 8 4 14
f 6 1 11
f 4 7 2
f 10 14 4
f 9 2 7
f 11 3 5
f 5 9 6
f 11 5 6
f 12 8 14
