# Created by Open3D 
# object name: convex_1_coll
# number of vertices: 14
# number of triangles: 24
v -0.05638 0.0333 0.01154
v -0.05638 -0.02305 0.00642
v -0.07944 -0.02305 0.00129
v -0.07432 0.04869 0.00129
v -0.06151 0.04612 0.00129
v -0.07944 0.03843 0.00129
v -0.069195 -0.02818 0.00129
v -0.05638 -0.0128 0.04485
v -0.0570225 0.03779 0.04357
v -0.074315 -0.010235 0.04485
v -0.07688 0.0377925 0.0416475
v -0.06407 -0.02561 0.03972
v -0.0756 -0.02433 0.041005
v -0.08201 -0.00255 0.03972
f 3 4 5
f 4 3 6
f 3 5 7
f 8 2 1
f 8 9 10
f 1 5 9
f 8 1 9
f 10 11 14
f 11 9 4
f 7 5 2
f 10 9 11
f 14 3 13
f 13 12 10
f 12 8 10
f 3 14 6
f 14 11 6
f 12 2 8
f 4 9 5
f 12 7 2
f 12 13 7
f 3 7 13
f 6 11 4
f 13 10 14
f 2 5 1
