# Created by Open3D 
# object name: convex_12_coll
# number of vertices: 14
# number of triangles: 24
v -0.00256 -0.05638 -0.03587
v 0.00513 -0.04484 -0.04484
v 0.041 -0.01537 -0.03459
v -0.03075 -0.01537 -0.02178
v -0.03075 -0.01537 -0.03203
v -0.03075 -0.04869 -0.03843
v -0.03075 -0.03076 -0.02178
v 0.00513 -0.03332 -0.02178
v 0.041 -0.03076 -0.03203
v 0.00257 -0.01537 -0.03715
v 0.002565 -0.03332 -0.04484
v 0.041 -0.01537 -0.02434
v -0.01281 -0.05638 -0.03459
v -0.02562 -0.04612 -0.04228
f 4 3 5
f 4 5 6
f 4 6 7
f 8 4 7
f 8 1 9
f 5 3 10
f 3 4 12
f 9 3 12
f 1 8 13
f 11 10 3
f 4 8 12
f 7 6 13
f 9 2 11
f 3 9 11
f 13 8 7
f 8 9 12
f 11 2 14
f 5 11 14
f 5 14 6
f 11 5 10
f 1 14 2
f 14 1 13
f 6 14 13
f 9 1 2
