# Created by Open3D 
# object name: convex_5_coll
# number of vertices: 14
# number of triangles: 24
v 0.00897 -0.02305 0.02691
v 0.03588 -0.02305 0.00129
v 0.04869 -0.02049 0.01154
v -0.01536 0.04357 0.00129
v 0.0205 0.041 0.02691
v -0.04613 -0.02562 0.00129
v 0.04869 -0.01536 0.02691
v -0.05638 0.03587 0.01666
v -0.05638 0.021775 0.0077
v -0.0550975 -0.0204875 0.0211425
v 0.04869 0.0269 0.01538
v 0.04869 0.03074 0.02691
v 0.00511 -0.02818 0.00129
v -0.053175 0.01281 0.023065
f 1 2 3
f 2 6 4
f 7 5 1
f 8 9 10
f 11 7 3
f 5 7 12
f 7 11 12
f 11 5 12
f 6 2 13
f 5 14 1
f 4 11 2
f 11 3 2
f 8 10 14
f 6 10 9
f 14 5 8
f 4 9 8
f 8 5 4
f 13 1 10
f 11 4 5
f 9 4 6
f 7 1 3
f 1 13 2
f 13 10 6
f 10 1 14
