# Created by Open3D 
# object name: convex_7_coll
# number of vertices: 14
# number of triangles: 24
v -0.05638 -0.02819 -0.02177
v 0.04869 0.02563 -0.014085
v -0.05638 0.02563 -0.01281
v -0.016645 0.02563 0.00129
v 0.00769 -0.03075 -0.02177
v 0.0371475 0.002565 -0.02177
v 0.04869 -0.0205 -0.01665
v 0.00384 0.02563 -0.02177
v 0.03587 -0.024335 0.00129
v -0.05381 -0.0128 0.00129
v 0.04869 -1e-05 -0.00128
v -0.05125 0.01793 -0.02177
v -0.010255 -0.03075 -0.00128
v -0.04869 -0.02562 0.00129
f 2 3 4
f 5 1 6
f 3 2 8
f 6 1 8
f 9 4 10
f 4 9 11
f 8 1 12
f 7 2 11
f 5 13 1
f 9 10 14
f 11 2 4
f 3 1 10
f 5 6 7
f 7 11 9
f 2 7 6
f 9 14 13
f 10 4 3
f 3 8 12
f 12 1 3
f 9 5 7
f 1 13 14
f 10 1 14
f 2 6 8
f 13 5 9
