# Created by Open3D 
# object name: convex_10_coll
# number of vertices: 14
# number of triangles: 24
v 0.04869 -0.01281 -0.02434
v -0.05638 -0.01537 -0.02178
v -0.05381 -0.01537 -0.03203
v 0.04099 -0.01537 -0.03459
v -0.05638 0.02563 -0.03203
v -0.05638 0.02563 -0.02178
v 0.03843 0.02563 -0.02434
v 0.03843 -0.01537 -0.02178
v 0.01537 0.02563 -0.03459
v 0.04869 0.008965 -0.0269
v 0.038435 0.015375 -0.02178
v -0.01023 -0.01537 -0.03459
v 0.03843 0.02563 -0.02946
v 0.04356 -0.00768 -0.03459
f 2 3 4
f 5 2 6
f 7 5 6
f 2 4 8
f 6 2 8
f 5 7 9
f 10 7 11
f 6 8 11
f 3 5 12
f 4 3 12
f 9 4 12
f 7 10 13
f 9 7 13
f 12 5 9
f 4 9 14
f 9 13 14
f 1 4 14
f 1 14 10
f 14 13 10
f 6 11 7
f 2 5 3
f 1 10 11
f 8 1 11
f 8 4 1
