# Created by Open3D 
# object name: convex_9_coll
# number of vertices: 14
# number of triangles: 24
v -0.048045 0.042285 -0.01601
v -0.04356 0.04613 -0.01152
v -0.05381 0.02563 -0.01665
v 0.03075 0.02691 -0.01537
v -0.01536 0.02563 0.00129
v -0.0077 0.04357 0.00129
v -0.02306 0.04357 0.00129
v 0.01025 0.02563 -0.02177
v -0.00257 0.05126 -0.02177
v -0.01536 0.05126 -0.02177
v -0.05125 0.02563 -0.0064
v -0.05125 0.03716 -0.007685
v 0.00512 0.04357 -0.0064
v -0.0115325 0.04805 -0.00512
f 3 4 5
f 5 6 7
f 4 3 8
f 9 8 10
f 3 5 11
f 3 1 10
f 3 11 12
f 6 4 13
f 14 6 13
f 4 8 9
f 2 10 1
f 5 4 6
f 9 14 13
f 7 2 12
f 11 7 12
f 3 12 1
f 14 9 10
f 2 14 10
f 7 6 14
f 2 7 14
f 8 3 10
f 7 11 5
f 9 13 4
f 1 12 2
