# Created by Open3D 
# object name: convex_0_coll
# number of vertices: 14
# number of triangles: 24
v 0.07688 -0.03844 -0.01152
v 0.07431 -0.02562 0.03716
v 0.04869 0.03459 0.0474
v 0.04869 0.04741 -0.02817
v 0.04869 1e-05 0.04996
v 0.056385 -0.035875 -0.03202
v 0.06215 -0.0166575 -0.05251
v 0.07688 -0.03075 -0.04995
v 0.07175 0.05382 -0.03714
v 0.08201 0.0051275 -0.029455
v 0.07944 0.012815 0.051245
v 0.07367 0.0044925 0.061495
v 0.075595 0.04613 -0.04867
v 0.07688 0.04613 0.0474
f 3 4 5
f 5 4 6
f 4 7 6
f 7 4 13
f 6 8 1
f 4 14 9
f 11 10 13
f 14 11 13
f 13 9 14
f 11 12 2
f 14 12 11
f 3 5 14
f 14 5 12
f 14 4 3
f 8 7 13
f 5 1 2
f 5 2 12
f 1 5 6
f 8 13 10
f 11 2 1
f 10 11 1
f 6 7 8
f 4 9 13
f 8 10 1
