# Created by Open3D 
# object name: convex_1_coll
# number of vertices: 14
# number of triangles: 24
v -0.01879 0.03649 0.00209
v -0.02088 0.05111 0.007305
v -0.00627 0.05111 0.006265
v 0.01669 -0.03233 0.00418
v 0.01669 0.0174725 0.00704625
v 0.01669 -0.03233 0.01043
v -0.02296 -0.04901 0.00418
v -0.06676 0.00311 0.00835
v -0.06049 -0.03025 0.0099125
v 0.01564 0.0083425 0.019295
v 0.00625 0.01773 0.02086
v 0.00833 -0.00728 0.02086
v -0.06676 0.00311 0.01252
v -0.03233 -0.05111 0.0078275
f 1 2 3
f 4 5 6
f 7 4 6
f 10 11 12
f 6 5 10
f 3 2 11
f 11 2 13
f 5 1 3
f 1 9 8
f 1 8 2
f 8 13 2
f 9 1 7
f 4 7 1
f 14 12 9
f 12 11 9
f 9 7 14
f 9 11 13
f 8 9 13
f 5 4 1
f 10 3 11
f 12 14 6
f 10 12 6
f 7 6 14
f 5 3 10
