# Created by Open3D 
# object name: convex_3_coll
# number of vertices: 14
# number of triangles: 24
v 0.02712 -0.00939 0.0146
v 0.02712 -0.00939 0.00835
v 0.01669 -0.00939 0.01669
v 0.02294 -0.00939 0.01669
v 0.01669 -0.00939 0.00417
v 0.01669 -0.03233 0.01043
v 0.02712 -0.03233 0.00626
v 0.02503 -0.03233 0
v 0.01669 -0.03233 0.00209
v 0.017735 -0.01773 0.015645
v 0.02503 -0.02816 0.01252
v 0.02503 -0.02816 0
v 0.02712 -0.03025 0.01043
v 0.02086 -0.02816 0
f 3 4 5
f 3 5 6
f 5 4 2
f 7 6 8
f 7 2 1
f 6 5 9
f 8 6 9
f 3 6 10
f 6 11 10
f 7 1 13
f 1 11 13
f 4 3 10
f 12 2 7
f 12 7 8
f 5 12 14
f 12 8 14
f 8 9 14
f 6 7 13
f 11 6 13
f 12 5 2
f 5 14 9
f 11 1 4
f 10 11 4
f 2 4 1
