# Created by Open3D 
# object name: convex_4_coll
# number of vertices: 14
# number of triangles: 24
v 0.04589 -0.00312 0.02086
v 0.03546 0.01147 0.02086
v 0.01669 0.01773 0.00626
v 0.01669 -0.00939 0.00417
v 0.01669 -0.008345 0.01773
v 0.04589 -0.0073 0.00835
v 0.04589 0.01565 0.01043
v 0.01669 0.01982 0.0146
v 0.043805 0.01565 0.01773
v 0.018775 0.00834 0.00417
v 0.02712 -0.00939 0.01669
v 0.04589 0.01147 0.02086
v 0.01669 0.00938 0.01877
v 0.043805 0.01043 0.00835
f 3 4 5
f 1 6 7
f 3 5 8
f 9 8 2
f 6 4 10
f 1 7 12
f 2 1 12
f 9 2 12
f 8 5 13
f 2 8 13
f 13 5 2
f 8 7 3
f 4 11 5
f 7 8 9
f 12 7 9
f 7 6 14
f 6 10 14
f 4 3 10
f 1 11 6
f 4 6 11
f 10 3 14
f 3 7 14
f 1 5 11
f 2 5 1
