# Created by Open3D 
# object name: convex_0_coll
# number of vertices: 14
# number of triangles: 24
v 0.0545012 -0.0427675 0.0059875
v 0.06676 0.00103 0.02711
v 0.06467 0.0385925 -0.01043
v 0.05216 -0.036505 -0.034415
v 0.04798 0.00938 -0.03128
v 0.0459 0.00937 0.03129
v 0.060495 0.04486 0.00208
v 0.05633 0.04486 -0.0292
v 0.0459 -0.00104 0.03129
v 0.06258 -0.03651 0.01251
v 0.06467 0.01981 0.0292
v 0.0547625 0.00626 -0.0391175
v 0.06258 0.01252 -0.036505
v 0.0589325 -0.0391125 -0.031285
f 7 8 6
f 5 4 9
f 9 4 1
f 2 3 11
f 7 6 11
f 9 1 10
f 2 10 14
f 13 2 14
f 10 1 14
f 12 14 4
f 5 12 4
f 11 6 9
f 14 12 13
f 3 13 8
f 8 5 6
f 5 9 6
f 8 13 12
f 11 3 7
f 2 9 10
f 3 2 13
f 8 7 3
f 1 4 14
f 9 2 11
f 12 5 8
