# Created by Open3D 
# object name: convex_6_coll
# number of vertices: 14
# number of triangles: 24
v 0.00835 -0.00313 0.02086
v 0.02399 0.014605 0.03547
v 0.0146 0.01773 0.02921
v -0.00209 0.015645 0.03651
v 0.02503 0.01356 0.028165
v 0.02503 0.00105 0.03547
v 0.02503 -0.00104 0.02712
v -0 -0.00313 0.02086
v -0 0.00938 0.02086
v 0.00626 0.01147 0.02086
v -0.00209 0.01773 0.02921
v -0.00209 -0.00521 0.03755
v 0.02295 -0.0073 0.02921
v 0.01043 0.005215 0.03755
f 2 3 4
f 5 6 7
f 8 9 10
f 4 3 11
f 12 4 11
f 13 8 1
f 8 10 1
f 3 2 5
f 14 2 4
f 12 14 4
f 8 13 12
f 5 7 1
f 10 5 1
f 10 11 3
f 5 10 3
f 1 7 13
f 14 6 2
f 6 5 2
f 9 8 11
f 8 12 11
f 7 6 13
f 11 10 9
f 6 14 12
f 12 13 6
