# Created by Open3D 
# object name: convex_2_coll
# number of vertices: 14
# number of triangles: 24
v 0.0459 -0.00104 0.03129
v 0.02503 0.01565 0.03338
v 0.02503 -0.00104 0.03338
v 0.03755 -0.00313 0.02086
v 0.0459 -0.00313 0.02712
v 0.0459 0.008345 0.03025
v 0.0459 0.00939 0.02086
v 0.03546 0.01565 0.02504
v 0.03442 0.01565 0.03025
v 0.02503 -0.00104 0.02712
v 0.0459 -0.00313 0.02086
v 0.02503 0.01565 0.02921
v 0.0338975 0.0109525 0.021905
v 0.03129 -0.00104 0.02295
f 1 2 3
f 4 5 3
f 6 5 7
f 8 9 7
f 9 8 2
f 4 3 10
f 3 2 10
f 5 6 1
f 7 5 11
f 5 4 11
f 4 7 11
f 2 8 12
f 10 2 12
f 7 4 13
f 1 6 2
f 10 13 14
f 4 10 14
f 13 4 14
f 7 9 6
f 2 6 9
f 8 7 13
f 12 8 13
f 12 13 10
f 5 1 3
