# Created by Open3D 
# object name: convex_5_coll
# number of vertices: 14
# number of triangles: 24
v -0.00835 0.01773 0.0313
v -0.00209 0.01773 0.03547
v -0.00209 0.01564 0.02921
v -0.00209 0.002085 0.03964
v -0.00209 -0.00104 0.02921
v -0.00835 0.01356 0.02921
v -0.025035 0.005215 0.03964
v -0.026075 -0.003125 0.03964
v -0.00209 -0.00521 0.0313
v -0.02712 0.00313 0.03547
v -0.00209 -0.00521 0.03755
v -0.02086 -0.01147 0.03755
v -0.02295 -0.01147 0.03547
v -0.00835 0.01773 0.03547
f 1 2 3
f 3 4 5
f 4 3 2
f 3 5 6
f 4 7 8
f 5 4 9
f 3 6 1
f 1 6 10
f 9 4 11
f 12 9 11
f 13 10 6
f 1 7 14
f 2 1 14
f 4 8 12
f 11 4 12
f 9 12 13
f 7 4 2
f 14 7 2
f 13 6 5
f 9 13 5
f 12 8 13
f 7 1 10
f 7 10 8
f 10 13 8
