# Created by Open3D 
# object name: convex_2_coll
# number of vertices: 14
# number of triangles: 24
v 0.06607 -0.03759 -0.0262
v 0.06834 0.002275 -0.03303
v 0.07176 0.03986 0.01253
v 0.06607 0.03986 0.01481
v 0.0581 -0.04101 0.01481
v 0.0729 -0.01025 0.01481
v 0.0581 0.0091 0.01481
v 0.05468 -0.0336 0.004555
v 0.0729 0.02618 -0.01253
v 0.05696 0.01707 -0.0262
v 0.05924 -0.04215 -0.02164
v 0.06834 -0.04215 0.01253
v 0.06834 0.04328 -0.01708
v 0.065495 0.0324425 -0.02506
f 3 4 5
f 3 5 6
f 5 4 7
f 7 8 5
f 6 9 3
f 8 7 10
f 5 11 12
f 10 2 11
f 10 4 13
f 4 3 13
f 3 9 13
f 1 6 12
f 2 9 6
f 1 2 6
f 10 14 2
f 2 14 9
f 14 13 9
f 11 8 10
f 14 10 13
f 12 11 1
f 5 8 11
f 6 5 12
f 10 7 4
f 11 2 1
