# Created by Open3D 
# object name: convex_3_coll
# number of vertices: 14
# number of triangles: 24
v 0.066635 0.0142275 0.0393
v 0.07005 0.03644 0.01595
v 0.03873 -0.00968 0.022785
v 0.03873 0.00796 0.03759
v 0.03873 0.003405 0.01709
v 0.03873 -0.00115 0.03759
v 0.05695 -0.03758 0.01481
v 0.06834 -0.03987 0.01481
v 0.03873 0.0165025 0.0233525
v 0.0729 -0.01025 0.01481
v 0.0729 0.007965 0.03303
v 0.05923 -0.033025 0.02506
v 0.06834 -0.00115 0.03987
v 0.0672 -0.03075 0.0262
f 3 4 5
f 4 3 6
f 2 8 7
f 5 4 9
f 8 2 10
f 11 10 2
f 4 2 9
f 11 14 8
f 7 3 5
f 7 5 2
f 6 13 4
f 2 5 9
f 8 12 7
f 12 6 3
f 11 1 13
f 14 11 13
f 8 10 11
f 1 11 2
f 12 8 14
f 1 4 13
f 12 3 7
f 14 13 12
f 13 6 12
f 4 1 2
