# Created by Open3D 
# object name: convex_0_coll
# number of vertices: 14
# number of triangles: 24
v -0.06379 0.045555 -0.02506
v -0.06607 0.04214 0.0148
v -0.0729 -0.03532 -0.02392
v -0.07233 0.0250475 0.01765
v -0.07176 0.0130875 -0.041005
v -0.05923 0.00115 0.02392
v -0.05923 -0.02848 0.02164
v -0.0706225 0.0484025 -0.02449
v -0.0729 -0.027335 0.01708
v -0.06493 0.01821 -0.041005
v -0.067775 -0.00797 -0.0415775
v -0.07005 -0.030185 0.01936
v -0.06834 -0.04443 -0.02848
v -0.06379 -0.04443 -0.02506
f 3 4 5
f 5 4 8
f 4 3 9
f 10 1 6
f 12 4 9
f 11 5 10
f 13 11 14
f 10 5 8
f 4 12 6
f 10 14 11
f 14 10 7
f 8 4 2
f 14 7 12
f 14 12 13
f 1 10 8
f 11 3 5
f 3 11 13
f 1 8 2
f 7 10 6
f 12 9 13
f 9 3 13
f 2 4 6
f 7 6 12
f 2 6 1
