# Created by Open3D 
# object name: convex_1_coll
# number of vertices: 14
# number of triangles: 24
v -0.05923 0.00568 0.022785
v -0.03188 0.05125 0.01937
v -0.04327 0.05125 0.01481
v -0.05923 -0.02391 0.01253
v 0 0.03985 0.01253
v -0.01137 -0.04897 0.01253
v -0.05923 -0.022775 0.022785
v -0.02391 -0.05125 0.01937
v -0.00229 0.002275 0.03303
v 0.03873 0.0119425 0.027905
v 0.03531 -0.01708 0.01595
v 0.03303 -0.029605 0.01994
v 0.03644 -0.0148 0.02847
v 0.03645 0.01365 0.01709
f 1 2 3
f 5 6 4
f 1 4 7
f 8 9 7
f 11 6 5
f 5 4 3
f 12 13 8
f 13 9 8
f 5 10 14
f 10 11 14
f 2 9 10
f 5 3 2
f 11 10 13
f 10 9 13
f 8 7 4
f 1 7 9
f 2 10 5
f 4 1 3
f 1 9 2
f 6 8 4
f 6 11 12
f 5 14 11
f 6 12 8
f 13 12 11
