# Created by Open3D 
# object name: convex_1_coll
# number of vertices: 14
# number of triangles: 24
v 0.0101975 -0.0015175 0.03164
v -0.04999 -0.00815 0.02347
v 0.010195 0.02653 0.03164
v -0.05204 0.01632 0.02347
v -0.05204 0.01427 0.01939
v -0.02346 -0.04491 0.01531
v -0.016325 -0.04491 0.02144
v 0.0398 -0.00408 0.0296
v 0.03163 -0.01837 0.01735
v 0.05204 0.0178425 0.027555
v 0.029585 0.02244 0.01633
v 0.0051 0.05714 0.01327
v -0.000515 0.0645475 0.01888
v -0.04796 -0.01225 0.01735
f 4 5 2
f 7 8 1
f 8 9 10
f 11 9 6
f 11 6 12
f 13 4 3
f 10 12 13
f 5 4 13
f 7 2 6
f 11 12 10
f 4 2 3
f 2 1 3
f 8 7 9
f 5 13 12
f 6 14 12
f 6 9 7
f 10 9 11
f 1 10 3
f 12 14 5
f 14 6 2
f 8 10 1
f 2 5 14
f 13 3 10
f 2 7 1
