# Created by Open3D 
# object name: convex_0_coll
# number of vertices: 14
# number of triangles: 24
v -0.04389 -0.05104 0.00714
v -0.0234625 -0.056135 -0.0290825
v -0.02245 -0.06124 -0.02857
v 0.034185 -0.0643 0.01581
v -0.02551 -0.06532 0.01939
v 0.02857 -0.06124 -0.029595
v -0.01632 -0.04491 0.02143
v 0.00432625 -0.05206 -0.0293388
v -0.02959 -0.06124 0.02347
v 0.03214 -0.0607275 0.02143
v -0.04389 -0.05614 0.01939
v 0.034695 -0.056135 0.016325
v 0.03265 -0.05715 -0.02857
v -0.042865 -0.06022 0.00408
f 1 2 3
f 9 5 10
f 12 10 4
f 6 3 8
f 6 5 3
f 13 7 12
f 11 1 14
f 2 7 8
f 12 4 13
f 3 14 1
f 7 9 10
f 12 7 10
f 9 11 5
f 3 5 14
f 7 13 8
f 4 5 6
f 8 3 2
f 9 7 11
f 4 6 13
f 8 13 6
f 10 5 4
f 11 7 1
f 7 2 1
f 11 14 5
