# Original object name hint: convex_15
v -0.02324 -0.07238 0.06462
v 0.05685 0.01809 0.07496
v 0.05685 0.01809 0.06721
v -0.06979 -0.00259 0.06979
v 0.00516 -0.07238 0.07237
v 0.00000 0.01809 0.07755
v 0.06979 -0.01035 0.06462
v -0.06720 -0.00259 0.06462
v -0.06720 -0.02587 0.07237
v -0.04652 0.01809 0.06721
v 0.04911 0.00257 0.07755
v 0.06718 -0.01553 0.07237
v 0.02324 -0.06720 0.06462
v -0.02582 -0.06979 0.07237
v 0.04652 0.01809 0.06462
v 0.01033 -0.00777 0.07755
v -0.06720 -0.02327 0.06462
v -0.04652 0.01809 0.07237
v 0.02324 -0.06461 0.07237
v -0.06979 -0.00517 0.07237
v 0.05685 -0.03100 0.07237
v 0.06979 -0.00001 0.06979
v 0.04911 0.01809 0.07755
v 0.00258 -0.07496 0.06462
v -0.03360 -0.06461 0.06721
v 0.02582 -0.01035 0.07755
v -0.02066 -0.07238 0.07237
v 0.06979 -0.00001 0.06462
v 0.01551 -0.07238 0.06979
v 0.02843 0.01809 0.06462
v 0.05427 -0.03360 0.06721
v -0.01291 -0.07496 0.06979
v -0.06979 -0.01553 0.06462
v 0.02843 -0.06204 0.06979
v -0.06720 -0.02587 0.06721
v 0.06718 0.00257 0.07237
v -0.06979 -0.01811 0.07237
v 0.05945 -0.00777 0.07496
v 0.00516 -0.07496 0.06979
v -0.03100 -0.06720 0.06979
v 0.00000 0.01291 0.07755
v 0.01551 -0.07238 0.06462
v -0.05945 0.02844 0.06721
v 0.01291 0.08271 0.07237
v 0.01291 0.08271 0.06204
v 0.05687 0.01810 0.06721
v -0.05945 0.06203 0.05687
v -0.04652 0.06203 0.07754
v 0.04910 0.01810 0.07754
v 0.04135 0.02327 0.05687
v 0.04910 0.07237 0.05687
v 0.04652 0.05944 0.07754
v -0.04910 0.01810 0.07237
v -0.04910 0.07495 0.05687
v -0.00515 0.07753 0.08013
v -0.05686 0.04136 0.05687
v -0.05686 0.06720 0.07496
v -0.00000 0.01810 0.07754
v -0.04652 0.01810 0.06721
v 0.05168 0.06461 0.07496
v -0.01290 0.08271 0.07496
v -0.06462 0.03361 0.06979
v 0.05687 0.04395 0.07496
v -0.05686 0.03878 0.07496
v -0.01551 0.08012 0.05687
v 0.00775 0.07753 0.08013
v 0.03876 0.07495 0.07237
v -0.05428 0.07237 0.07237
v -0.00515 0.06720 0.08013
v -0.04394 0.02069 0.06462
v 0.03619 0.07753 0.05687
v 0.03100 0.02327 0.05687
v 0.05687 0.01810 0.07496
v 0.04910 0.01810 0.06462
v -0.01290 0.08271 0.06462
v 0.05687 0.03878 0.06721
v -0.04652 0.05686 0.07754
v -0.05945 0.06461 0.07237
v 0.04394 0.02585 0.05687
v 0.05168 0.04136 0.07754
v -0.05686 0.06978 0.05687
v 0.00258 0.08271 0.07754
v 0.04652 0.06978 0.07496
v 0.05427 0.05944 0.06979
v -0.06462 0.04136 0.06721
v -0.01551 0.08012 0.07754
v -0.03877 0.07753 0.06979
v -0.05945 0.04395 0.05687
v 0.04394 0.07495 0.06462
v -0.05945 0.05427 0.07496
v 0.01033 0.06720 0.08013
v -0.06203 0.03103 0.07237
v 0.04910 0.06203 0.05687
v 0.02326 0.08012 0.05687
v 0.04910 0.07237 0.06462
v -0.03877 0.07753 0.05687
v -0.01033 0.06978 0.08013
v -0.04910 0.07237 0.07496
v 0.01291 0.08012 0.07754
v 0.02584 0.01810 0.06462
v -0.06462 0.03361 0.06721
v -0.05686 0.02844 0.06462
v 0.05427 0.05944 0.07496
v 0.02584 0.08012 0.06721
v -0.05945 0.06461 0.05946
v -0.02326 0.01810 -0.07754
v -0.00001 0.06978 -0.04653
v 0.00517 0.06720 -0.04653
v -0.01291 0.01810 -0.04653
v 0.03360 0.01810 -0.06979
v 0.00775 0.05428 -0.07237
v -0.03877 0.04394 -0.06720
v -0.04652 0.01810 -0.05945
v -0.02326 0.06978 -0.04653
v 0.01551 0.01810 -0.04653
v -0.01291 0.05944 -0.06979
v 0.02066 0.04394 -0.04653
v 0.02585 0.03878 -0.07237
v 0.01292 0.02068 -0.07754
v -0.04394 0.02068 -0.07237
v -0.01809 0.04394 -0.07496
v -0.00001 0.06720 -0.05945
v -0.02584 0.05428 -0.06979
v -0.04911 0.02068 -0.06204
v -0.02584 0.06720 -0.04653
v 0.00257 0.03361 -0.07754
v 0.03360 0.02068 -0.06462
v 0.02585 0.04136 -0.06979
v -0.02068 0.06978 -0.05170
v -0.03617 0.03878 -0.07237
v 0.02585 0.04136 -0.05945
v 0.02585 0.01810 -0.07496
v -0.04911 0.01810 -0.06720
v -0.01033 0.06461 -0.06462
v 0.02066 0.03361 -0.07496
v 0.00517 0.06720 -0.05170
v -0.01809 0.05428 -0.07237
v 0.00517 0.04652 -0.07496
v 0.01292 0.05428 -0.06720
v -0.02326 0.06720 -0.05428
v 0.03360 0.01810 -0.06462
v 0.02066 0.03878 -0.04653
v 0.00775 0.06461 -0.04653
v -0.00001 0.06203 -0.06720
v -0.02584 0.06461 -0.04653
v -0.02326 0.02068 -0.07754
v 0.03101 0.02585 -0.07237
v -0.04136 0.03619 -0.06979
v 0.01551 0.04910 -0.07237
v -0.04911 0.02068 -0.06720
v -0.04136 0.03878 -0.06462
v 0.02842 0.03619 -0.06979
v -0.03360 -0.08271 0.02843
v -0.04136 -0.05428 0.01810
v -0.04136 -0.05428 0.01551
v 0.01551 -0.06979 0.02843
v 0.01551 -0.08271 0.01551
v -0.04136 -0.08013 0.01551
v -0.03876 -0.06979 0.03619
v 0.01551 -0.08013 0.03360
v 0.01551 -0.06979 0.01551
v -0.02067 -0.06721 0.03619
v -0.04911 -0.06979 0.01810
v -0.03101 -0.08013 0.03619
v 0.01033 -0.07496 0.03619
v -0.00000 -0.08271 0.03360
v -0.04136 -0.07754 0.03102
v -0.04911 -0.05687 0.01551
v -0.03618 -0.08271 0.01551
v -0.04136 -0.06721 0.03360
v 0.01551 -0.07238 0.03360
v -0.04653 -0.05428 0.01810
v -0.00000 -0.08013 0.03619
v -0.03360 -0.06721 0.03619
v 0.01551 -0.08271 0.02843
v -0.04911 -0.05687 0.01810
v -0.04653 -0.07496 0.01551
v -0.02584 -0.08271 0.03360
v -0.04136 -0.07496 0.03360
v 0.02843 -0.04912 -0.07237
v 0.01551 -0.08271 -0.04394
v 0.01551 -0.08013 -0.05686
v 0.01551 -0.04912 0.01292
v 0.04653 -0.05170 0.01034
v 0.01551 -0.08013 0.03359
v 0.03877 -0.07754 -0.00777
v 0.01551 -0.04912 -0.07496
v 0.03360 -0.07496 0.03359
v 0.02843 -0.06463 -0.06978
v 0.04653 -0.04912 -0.01811
v 0.02843 -0.08271 0.01808
v 0.03618 -0.07754 -0.02842
v 0.03877 -0.04912 0.01808
v 0.02068 -0.07237 0.03619
v 0.02068 -0.07496 -0.06978
v 0.02843 -0.08271 -0.02842
v 0.03360 -0.05170 -0.06720
v 0.03877 -0.07754 0.00775
v 0.01551 -0.08271 0.02584
v 0.01551 -0.07237 -0.07237
v 0.04653 -0.05170 -0.01811
v 0.02585 -0.04912 0.01808
v 0.03360 -0.06979 0.03359
v 0.03102 -0.08013 0.02843
v 0.02585 -0.07496 -0.06204
v 0.03618 -0.07496 0.02843
v 0.02326 -0.06979 -0.07237
v 0.02326 -0.08271 -0.04135
v 0.03618 -0.08013 0.00258
v 0.04653 -0.05429 0.00258
v 0.01551 -0.07237 0.03359
v 0.04653 -0.04912 0.01034
v 0.02843 -0.07754 0.03619
v 0.03360 -0.08013 -0.02842
v 0.03360 -0.04912 -0.06720
v 0.01810 -0.04912 0.01551
v 0.02843 -0.06979 -0.06461
v 0.01810 -0.05687 -0.07496
v 0.03877 -0.07496 -0.02066
v 0.03618 -0.05170 0.02067
v 0.04653 -0.05429 -0.00777
v -0.06462 0.03877 -0.03360
v -0.06204 0.02585 -0.02326
v -0.06462 0.02585 -0.02326
v -0.06204 0.01809 -0.03360
v -0.06204 0.03877 -0.02843
v -0.06462 0.01809 -0.03360
v -0.06462 0.01809 -0.02326
v -0.06204 0.03877 -0.03360
v 0.02585 -0.03877 -0.07496
v 0.02326 0.00516 -0.05170
v 0.03618 0.00516 -0.06204
v 0.01551 0.01292 -0.07754
v 0.01810 -0.04910 -0.05170
v 0.03360 -0.04652 -0.05429
v 0.03877 -0.01809 -0.07237
v 0.01551 -0.04910 -0.07496
v 0.01551 0.01809 -0.05687
v 0.03360 0.01809 -0.07237
v 0.03360 -0.04910 -0.06979
v 0.01551 -0.04910 -0.05429
v 0.02585 0.01809 -0.05687
v 0.03877 -0.00001 -0.06462
v 0.02843 -0.04910 -0.05170
v 0.01810 0.00516 -0.05170
v 0.03618 -0.04394 -0.05945
v 0.03101 0.01033 -0.07496
v 0.01810 -0.01809 -0.07754
v 0.01551 0.01809 -0.07496
v 0.03877 0.00258 -0.07237
v 0.03618 0.01292 -0.06462
v 0.03101 -0.02326 -0.07496
v 0.03101 -0.04910 -0.07237
v 0.03360 -0.04135 -0.05429
v 0.03877 -0.02326 -0.06462
v 0.03618 -0.04135 -0.06979
v 0.01551 0.00516 -0.05429
v 0.01810 0.01292 -0.07754
v 0.03360 0.01809 -0.06462
v 0.03101 0.01550 -0.05945
v 0.02068 -0.04910 -0.07496
v 0.03360 -0.04910 -0.05687
v 0.04911 0.02327 0.01034
v -0.02584 0.06203 -0.04653
v -0.02842 0.01810 -0.03360
v -0.05427 0.06978 0.02326
v 0.03619 0.07495 0.02326
v 0.03101 0.02069 -0.04136
v -0.04652 0.01810 0.01292
v 0.04652 0.01810 0.02326
v 0.00257 0.06978 -0.04653
v 0.03101 0.06203 -0.02843
v -0.05687 0.03878 0.00774
v -0.01550 0.01810 -0.04653
v -0.04135 0.07495 0.01809
v -0.03618 0.06720 -0.03360
v -0.05169 0.04911 0.02326
v 0.04652 0.01810 -0.01034
v 0.04134 0.07237 0.02067
v 0.01808 0.07754 0.01809
v 0.02067 0.04653 -0.04653
v -0.02326 0.06978 -0.04653
v 0.02067 0.01810 -0.04653
v -0.05687 0.06203 0.01034
v -0.01033 0.07754 0.02326
v 0.02583 0.01810 0.02326
v 0.02842 0.06720 -0.02843
v -0.05687 0.04136 0.01809
v -0.04911 0.02069 0.00774
v -0.05169 0.07237 0.01809
v 0.04911 0.02069 -0.00001
v 0.02583 0.06203 -0.03618
v -0.03618 0.06203 -0.03360
v 0.03101 0.07495 0.01292
v 0.03359 0.06203 -0.02067
v -0.05427 0.06720 0.00774
v 0.04134 0.07237 0.02326
v -0.05687 0.06461 0.02326
v -0.01033 0.07754 0.02067
v 0.01033 0.06461 -0.04653
v 0.04652 0.02069 -0.01034
v 0.04911 0.01810 0.01550
v -0.04135 0.07495 0.02326
v -0.03102 0.06978 -0.03618
v -0.05687 0.05169 0.00774
v 0.02326 0.07754 0.02067
v 0.01808 0.06978 -0.03101
v 0.03101 0.01810 -0.04136
v -0.03102 0.07495 0.00774
v 0.03359 0.07237 0.00258
v 0.02842 0.06203 -0.03360
v -0.00259 0.07754 0.01809
v -0.04652 0.01810 0.00517
v -0.05169 0.06978 0.00774
v 0.02583 0.04653 -0.04136
v 0.02067 0.06720 -0.03618
v -0.03360 -0.07754 -0.05428
v 0.01551 -0.03877 -0.05945
v 0.01551 -0.04653 -0.04653
v -0.04653 -0.03877 -0.05945
v 0.01551 -0.07496 -0.07238
v -0.02842 -0.03877 -0.07496
v 0.01033 -0.08271 -0.04653
v -0.04911 -0.05687 -0.04653
v -0.04394 -0.06720 -0.06720
v 0.01551 -0.03877 -0.07496
v -0.01809 -0.07496 -0.07238
v -0.04394 -0.07496 -0.04653
v -0.01809 -0.06720 -0.07496
v -0.04653 -0.04912 -0.04653
v -0.04653 -0.03877 -0.06720
v 0.01551 -0.08013 -0.04653
v -0.01035 -0.08013 -0.06204
v -0.04911 -0.06720 -0.05945
v -0.01035 -0.08271 -0.04653
v 0.01551 -0.06462 -0.07496
v -0.04136 -0.07237 -0.06462
v -0.03618 -0.05687 -0.07238
v 0.01033 -0.07754 -0.06979
v -0.04911 -0.04653 -0.06204
v 0.01551 -0.08013 -0.05945
v -0.04911 -0.06979 -0.04653
v -0.02584 -0.07237 -0.07238
v -0.04394 -0.04136 -0.06979
v -0.03101 -0.07496 -0.06720
v -0.02842 -0.08013 -0.04911
v -0.00000 -0.08271 -0.05170
v -0.04911 -0.06462 -0.06204
v -0.01293 -0.07754 -0.06979
v -0.03360 -0.06462 -0.07238
v -0.04653 -0.07237 -0.05428
v -0.03876 -0.07754 -0.04911
v -0.03876 -0.03877 -0.07238
v -0.02325 -0.06203 -0.07496
v -0.04910 -0.01551 -0.06979
v 0.01551 0.01809 -0.04653
v 0.01551 -0.00518 -0.04653
v 0.01551 0.01550 -0.07755
v 0.01551 -0.03877 -0.07496
v -0.04910 0.01809 -0.05945
v -0.04910 -0.03877 -0.05945
v -0.01551 0.01809 -0.08013
v -0.02325 -0.02068 -0.08013
v 0.01551 -0.03877 -0.05945
v -0.01551 0.01292 -0.04653
v -0.03877 -0.03877 -0.07237
v -0.04910 0.01809 -0.06979
v -0.05687 -0.00000 -0.05945
v -0.00776 -0.01034 -0.04653
v 0.00774 -0.01551 -0.08013
v -0.02584 0.00517 -0.08013
v 0.00257 0.01809 -0.08013
v -0.05428 -0.02068 -0.06462
v -0.04652 -0.00259 -0.07237
v -0.02842 -0.03877 -0.07496
v -0.01294 0.01809 -0.04653
v -0.05687 -0.00259 -0.06462
v -0.01294 -0.00518 -0.04653
v -0.00517 -0.02326 -0.08013
v -0.05687 -0.00776 -0.05945
v -0.04910 -0.03360 -0.06720
v 0.00774 -0.01034 -0.04653
v 0.01551 0.01809 -0.07496
v -0.02584 -0.01551 -0.08013
v 0.01551 -0.02068 -0.07755
v -0.04393 0.01809 -0.07237
v -0.04393 -0.02068 -0.07237
v -0.04652 0.01033 -0.07237
v -0.04910 -0.03877 -0.06462
v -0.05169 -0.03101 -0.05945
v -0.05169 0.01550 -0.06462
v -0.01551 0.00517 -0.04653
v 0.00774 0.00775 -0.08013
v -0.04393 -0.04137 0.01551
v -0.05169 -0.06462 -0.04653
v -0.06461 -0.04395 -0.03877
v 0.01551 -0.03878 -0.04135
v 0.01551 -0.08271 0.01551
v 0.01551 -0.02068 0.01292
v -0.06461 -0.02068 -0.03877
v 0.01551 -0.08271 -0.04653
v -0.04135 -0.08012 0.01551
v -0.06461 -0.02068 0.01034
v -0.01035 -0.02068 -0.03618
v -0.02585 -0.08271 -0.03877
v 0.01551 -0.04395 -0.04653
v -0.06203 -0.05428 -0.00259
v -0.04910 -0.07237 -0.04653
v -0.04910 -0.07237 0.01551
v -0.06203 -0.02327 -0.04135
v -0.03617 -0.08271 0.01551
v -0.05427 -0.06978 -0.02067
v -0.06720 -0.03361 -0.01293
v -0.06203 -0.02068 0.01292
v -0.06461 -0.03878 0.01034
v -0.04910 -0.04912 -0.04653
v -0.04393 -0.07754 -0.03877
v -0.06461 -0.04912 -0.03618
v -0.06720 -0.02068 -0.03102
v -0.03101 -0.08012 -0.04653
v 0.01551 -0.02068 0.00775
v 0.01551 -0.06720 0.01551
v -0.06720 -0.02068 -0.00000
v -0.04651 -0.07754 0.01034
v -0.03617 -0.08271 -0.00775
v -0.05427 -0.06978 -0.00517
v -0.05427 -0.05944 0.01551
v -0.06461 -0.03361 -0.04135
v -0.06203 -0.04912 0.01034
v -0.04651 -0.07754 -0.01551
v -0.06461 -0.04912 -0.01809
v -0.01551 -0.08271 -0.04653
v -0.06720 -0.03361 -0.02843
v -0.05427 -0.04395 0.01551
v -0.06203 -0.04395 0.01292
v -0.04910 -0.07495 -0.02843
v -0.06461 -0.02586 -0.04135
v -0.06203 -0.05428 -0.03618
v -0.06461 -0.04137 0.00775
v -0.03101 -0.08271 -0.02843
v -0.05944 -0.02327 -0.04135
v 0.02069 -0.02068 -0.04394
v 0.06204 -0.02068 0.03359
v 0.05944 -0.02068 0.03619
v 0.04136 -0.04911 -0.03619
v 0.01551 -0.04911 0.01292
v 0.01551 -0.02068 0.01292
v 0.05944 -0.02068 -0.02067
v 0.05686 -0.04394 0.01292
v 0.01551 -0.04911 -0.05170
v 0.03619 -0.03619 -0.04911
v 0.03877 -0.04911 0.01809
v 0.05944 -0.03877 -0.00517
v 0.03877 -0.02327 0.03102
v 0.05686 -0.03619 0.03102
v 0.01551 -0.02068 -0.03876
v 0.03102 -0.02068 -0.04653
v 0.04911 -0.04911 -0.01550
v 0.05169 -0.03877 -0.02843
v 0.03102 -0.04911 -0.05170
v 0.06204 -0.02327 -0.01291
v 0.01810 -0.04911 0.01551
v 0.06204 -0.02844 0.02584
v 0.05428 -0.03102 0.03359
v 0.02843 -0.02585 -0.04911
v 0.04652 -0.04911 0.01292
v 0.04652 -0.02327 -0.03619
v 0.05686 -0.04135 -0.01291
v 0.05944 -0.04135 0.00516
v 0.05944 -0.03619 0.02843
v 0.03877 -0.02068 0.03102
v 0.03102 -0.03877 -0.05170
v 0.03619 -0.04911 -0.04653
v 0.01551 -0.04653 -0.05170
v 0.03360 -0.02844 -0.04911
v 0.02843 -0.04911 0.01809
v 0.06204 -0.02844 -0.00001
v 0.05428 -0.02327 0.03619
v 0.05428 -0.04135 -0.02067
v 0.05686 -0.04394 -0.00517
v 0.06204 -0.02068 -0.01291
v 0.04911 -0.04911 0.00775
v 0.05944 -0.02327 -0.02067
v 0.01551 0.01550 -0.04911
v 0.06720 -0.00001 0.04911
v 0.06462 0.00258 0.04653
v 0.01551 -0.02068 0.01291
v 0.05944 -0.02068 -0.02326
v 0.02586 0.01809 0.04136
v 0.04911 0.01809 -0.01032
v 0.02068 -0.02068 -0.04394
v 0.05944 0.00258 -0.03101
v 0.04911 -0.02068 0.03619
v 0.01551 0.01809 0.01809
v 0.06462 -0.02068 0.02843
v 0.04394 0.01809 0.04653
v 0.06462 0.00258 -0.01292
v 0.02327 -0.00517 -0.05170
v 0.02844 0.01809 -0.04394
v 0.03878 -0.00775 0.04136
v 0.01551 -0.02068 -0.03877
v 0.03361 -0.02068 -0.04394
v 0.05169 0.01809 0.01033
v 0.06462 -0.01292 -0.01549
v 0.06720 -0.00775 0.04911
v 0.03102 0.01550 0.04653
v 0.05944 -0.01292 -0.03101
v 0.06720 0.00258 0.02583
v 0.01551 -0.00517 -0.05170
v 0.02327 0.00517 -0.05170
v 0.06203 0.00775 -0.01032
v 0.01551 0.01809 -0.04652
v 0.04911 -0.01292 0.04394
v 0.06720 -0.01292 0.02326
v 0.06462 -0.02068 -0.00002
v 0.05944 0.00517 -0.02842
v 0.02068 0.01550 0.03360
v 0.06203 -0.01550 0.04394
v 0.04136 -0.02068 0.03360
v 0.05686 -0.00775 -0.03359
v 0.06203 -0.00001 -0.02842
v 0.03361 0.01809 -0.03877
v 0.06203 -0.00775 0.04911
v 0.06203 -0.02068 0.03619
v 0.06720 -0.01292 0.04394
v 0.06462 -0.00517 -0.01808
v 0.06203 -0.01034 -0.02842
v 0.06462 0.00517 0.03100
v 0.02586 0.01550 0.04136
v 0.06203 -0.02068 -0.01808
v 0.01810 0.01033 -0.05170
v 0.05427 -0.01550 0.04394
v 0.03102 0.01809 0.04653
v 0.03102 0.01550 -0.04394
v 0.05169 0.01809 -0.00002
v -0.05945 0.03878 0.03619
v -0.01551 0.07754 0.05686
v -0.01551 0.07754 0.02326
v -0.01551 0.03619 0.04135
v -0.05686 0.06979 0.05686
v -0.05686 0.06462 0.02326
v -0.05686 0.04395 0.05686
v -0.01551 0.05686 0.02326
v -0.05169 0.03360 0.03361
v -0.04652 0.07496 0.02844
v -0.01551 0.06203 0.05686
v -0.03878 0.07754 0.05686
v -0.01551 0.03619 0.03361
v -0.06204 0.04912 0.04652
v -0.05428 0.05428 0.02326
v -0.04394 0.03619 0.03102
v -0.05169 0.07237 0.02326
v -0.05169 0.03360 0.03878
v -0.04911 0.04395 0.05686
v -0.04911 0.07496 0.05686
v -0.05428 0.07237 0.03102
v -0.03361 0.07754 0.03361
v -0.06204 0.04912 0.03878
v -0.05945 0.04653 0.05686
v -0.05945 0.06203 0.04135
v -0.05686 0.03878 0.03102
v -0.05945 0.03878 0.04394
v -0.04135 0.03360 0.03878
v -0.04394 0.07496 0.02326
v -0.06204 0.04395 0.03878
v -0.05945 0.06203 0.05428
v -0.05686 0.06720 0.02585
v -0.04135 0.03619 0.04394
v -0.05686 0.05945 0.02326
v -0.04135 0.05428 0.02326
v 0.01809 0.01809 0.02844
v 0.01809 0.08013 0.05686
v 0.01809 0.08013 0.05428
v -0.01551 0.03360 0.03361
v 0.03618 0.07495 0.02326
v 0.04394 0.02586 0.05686
v -0.01551 0.07754 0.02326
v -0.01551 0.06203 0.05686
v 0.04652 0.01809 0.02326
v 0.04911 0.07236 0.05686
v 0.03360 0.02069 0.05686
v -0.01551 0.07754 0.05686
v -0.01551 0.05687 0.02326
v 0.04394 0.06978 0.02585
v -0.01292 0.03103 0.03878
v 0.02584 0.01809 0.02326
v 0.04652 0.01809 0.03619
v 0.03101 0.07754 0.02844
v 0.02584 0.01809 0.04652
v -0.00775 0.08013 0.05428
v 0.04652 0.07236 0.03619
v 0.03618 0.07754 0.05686
v 0.04394 0.01809 0.04911
v -0.01551 0.03619 0.04135
v 0.02584 0.07754 0.02326
v 0.04911 0.06978 0.04911
v 0.04911 0.06462 0.05686
v 0.01552 0.02586 0.02326
v 0.04135 0.07236 0.02326
v 0.04652 0.02844 0.04911
v 0.04394 0.07495 0.04652
v 0.04652 0.06978 0.03361
v 0.01809 0.01809 0.03361
v 0.01552 0.08013 0.05169
v -0.01292 0.03103 0.03361
v -0.01292 0.03360 0.04135
v 0.04652 0.02327 0.02326
v 0.03360 0.07754 0.03361
v 0.03877 0.07495 0.02585
v -0.06203 0.00517 0.00516
v -0.06462 -0.02068 -0.04136
v -0.06462 0.00517 -0.04136
v -0.05170 -0.01550 -0.01809
v -0.06721 -0.02068 -0.00001
v -0.05170 -0.02068 0.01292
v -0.05945 0.01809 -0.02584
v -0.05170 -0.00258 0.01292
v -0.06721 0.00775 -0.02326
v -0.05687 -0.02068 -0.03877
v -0.06462 -0.00001 0.01033
v -0.05945 0.00258 -0.04136
v -0.06462 0.01809 -0.02067
v -0.06203 -0.02068 0.01292
v -0.06721 -0.02068 -0.03101
v -0.06462 0.01809 -0.03618
v -0.05945 0.01809 -0.03101
v -0.06721 0.00258 -0.03360
v -0.05170 -0.01034 -0.01551
v -0.06721 -0.00517 -0.00001
v -0.06203 0.01550 -0.01293
v -0.05687 -0.00258 -0.03618
v -0.05170 -0.02068 -0.01809
v -0.06462 0.00517 0.00516
v -0.06203 -0.00258 0.01292
v -0.05170 -0.00258 0.00516
v -0.06462 -0.02068 0.01033
v -0.05945 -0.02068 -0.04136
v -0.02843 0.01809 -0.00259
v -0.01552 -0.00517 -0.04653
v -0.02067 0.00258 -0.04394
v -0.05168 -0.02068 -0.00776
v 0.01551 -0.01809 -0.02326
v 0.01551 0.01809 -0.00259
v 0.01551 0.01809 -0.04653
v -0.02843 0.01809 -0.03360
v -0.01552 -0.02068 -0.00517
v 0.01551 -0.01809 -0.03877
v -0.03101 -0.02068 -0.03618
v -0.05168 -0.00517 -0.01293
v -0.01809 0.01292 -0.00000
v 0.01551 0.00775 -0.00259
v -0.01552 0.01809 -0.04653
v 0.01033 -0.01034 -0.04653
v -0.03618 0.01809 -0.00776
v -0.03101 0.00258 -0.03618
v -0.05168 -0.02068 -0.01552
v -0.01035 -0.02068 -0.03877
v -0.04135 -0.02068 -0.00517
v -0.04911 -0.00258 -0.00776
v -0.01035 -0.01034 -0.04653
v -0.01809 -0.00775 -0.00259
v -0.01035 -0.02068 -0.00776
v 0.01551 -0.00775 -0.04653
v -0.03618 0.01809 -0.01293
v -0.02843 0.01550 -0.03618
v -0.05168 -0.01034 -0.01552
v -0.03101 0.01550 -0.00259
v -0.01035 0.01809 -0.00000
v -0.04911 -0.00001 -0.01293
v -0.01035 0.01292 -0.00000
v -0.02843 0.00258 -0.03877
v -0.00776 -0.02068 -0.01034
v -0.05168 -0.01034 -0.00776
v -0.05168 -0.00258 0.00517
v 0.01551 0.01809 0.01551
v 0.01551 0.01809 -0.00000
v 0.01551 -0.02068 0.01292
v -0.04652 0.01809 0.01292
v -0.05168 -0.02068 0.01292
v -0.00518 -0.02068 0.00517
v -0.05168 -0.02068 0.00517
v -0.04652 0.01809 0.00517
v 0.01551 -0.02068 0.00775
v 0.01292 0.00517 0.01551
v 0.01292 0.01292 -0.00000
v -0.02325 0.01809 0.00259
v -0.05168 -0.00001 0.01292
v 0.00775 0.01809 0.01551
v 0.01551 0.01292 -0.00000
f 621 619 637 
f 614 611 615 
f 615 613 617 
f 615 611 619 
f 611 612 621 
f 614 615 623 
f 615 617 623 
f 611 614 624 
f 614 618 624 
f 621 612 625 
f 622 616 625 
f 618 622 625 
f 616 617 626 
f 621 625 626 
f 625 616 626 
f 612 611 627 
f 611 624 627 
f 624 618 627 
f 625 612 627 
f 618 625 627 
f 617 613 628 
f 618 614 629 
f 614 620 629 
f 617 616 630 
f 610 617 630 
f 616 622 630 
f 613 619 631 
f 619 621 631 
f 621 626 631 
f 628 613 631 
f 626 628 631 
f 613 615 632 
f 615 619 632 
f 619 613 632 
f 617 610 633 
f 622 618 633 
f 618 629 633 
f 629 620 633 
f 610 630 633 
f 630 622 633 
f 623 617 634 
f 620 623 634 
f 617 633 634 
f 633 620 634 
f 626 617 635 
f 617 628 635 
f 628 626 635 
f 620 614 636 
f 614 623 636 
f 623 620 636 
f 619 611 637 
f 611 621 637 
