# Original object name hint: convex_12
v -0.02324 -0.07238 0.06462
v 0.05685 0.01809 0.07496
v 0.05685 0.01809 0.06721
v -0.06979 -0.00259 0.06979
v 0.00516 -0.07238 0.07237
v 0.00000 0.01809 0.07755
v 0.06979 -0.01035 0.06462
v -0.06720 -0.00259 0.06462
v -0.06720 -0.02587 0.07237
v -0.04652 0.01809 0.06721
v 0.04911 0.00257 0.07755
v 0.06718 -0.01553 0.07237
v 0.02324 -0.06720 0.06462
v -0.02582 -0.06979 0.07237
v 0.04652 0.01809 0.06462
v 0.01033 -0.00777 0.07755
v -0.06720 -0.02327 0.06462
v -0.04652 0.01809 0.07237
v 0.02324 -0.06461 0.07237
v -0.06979 -0.00517 0.07237
v 0.05685 -0.03100 0.07237
v 0.06979 -0.00001 0.06979
v 0.04911 0.01809 0.07755
v 0.00258 -0.07496 0.06462
v -0.03360 -0.06461 0.06721
v 0.02582 -0.01035 0.07755
v -0.02066 -0.07238 0.07237
v 0.06979 -0.00001 0.06462
v 0.01551 -0.07238 0.06979
v 0.02843 0.01809 0.06462
v 0.05427 -0.03360 0.06721
v -0.01291 -0.07496 0.06979
v -0.06979 -0.01553 0.06462
v 0.02843 -0.06204 0.06979
v -0.06720 -0.02587 0.06721
v 0.06718 0.00257 0.07237
v -0.06979 -0.01811 0.07237
v 0.05945 -0.00777 0.07496
v 0.00516 -0.07496 0.06979
v -0.03100 -0.06720 0.06979
v 0.00000 0.01291 0.07755
v 0.01551 -0.07238 0.06462
v -0.05945 0.02844 0.06721
v 0.01291 0.08271 0.07237
v 0.01291 0.08271 0.06204
v 0.05687 0.01810 0.06721
v -0.05945 0.06203 0.05687
v -0.04652 0.06203 0.07754
v 0.04910 0.01810 0.07754
v 0.04135 0.02327 0.05687
v 0.04910 0.07237 0.05687
v 0.04652 0.05944 0.07754
v -0.04910 0.01810 0.07237
v -0.04910 0.07495 0.05687
v -0.00515 0.07753 0.08013
v -0.05686 0.04136 0.05687
v -0.05686 0.06720 0.07496
v -0.00000 0.01810 0.07754
v -0.04652 0.01810 0.06721
v 0.05168 0.06461 0.07496
v -0.01290 0.08271 0.07496
v -0.06462 0.03361 0.06979
v 0.05687 0.04395 0.07496
v -0.05686 0.03878 0.07496
v -0.01551 0.08012 0.05687
v 0.00775 0.07753 0.08013
v 0.03876 0.07495 0.07237
v -0.05428 0.07237 0.07237
v -0.00515 0.06720 0.08013
v -0.04394 0.02069 0.06462
v 0.03619 0.07753 0.05687
v 0.03100 0.02327 0.05687
v 0.05687 0.01810 0.07496
v 0.04910 0.01810 0.06462
v -0.01290 0.08271 0.06462
v 0.05687 0.03878 0.06721
v -0.04652 0.05686 0.07754
v -0.05945 0.06461 0.07237
v 0.04394 0.02585 0.05687
v 0.05168 0.04136 0.07754
v -0.05686 0.06978 0.05687
v 0.00258 0.08271 0.07754
v 0.04652 0.06978 0.07496
v 0.05427 0.05944 0.06979
v -0.06462 0.04136 0.06721
v -0.01551 0.08012 0.07754
v -0.03877 0.07753 0.06979
v -0.05945 0.04395 0.05687
v 0.04394 0.07495 0.06462
v -0.05945 0.05427 0.07496
v 0.01033 0.06720 0.08013
v -0.06203 0.03103 0.07237
v 0.04910 0.06203 0.05687
v 0.02326 0.08012 0.05687
v 0.04910 0.07237 0.06462
v -0.03877 0.07753 0.05687
v -0.01033 0.06978 0.08013
v -0.04910 0.07237 0.07496
v 0.01291 0.08012 0.07754
v 0.02584 0.01810 0.06462
v -0.06462 0.03361 0.06721
v -0.05686 0.02844 0.06462
v 0.05427 0.05944 0.07496
v 0.02584 0.08012 0.06721
v -0.05945 0.06461 0.05946
v -0.02326 0.01810 -0.07754
v -0.00001 0.06978 -0.04653
v 0.00517 0.06720 -0.04653
v -0.01291 0.01810 -0.04653
v 0.03360 0.01810 -0.06979
v 0.00775 0.05428 -0.07237
v -0.03877 0.04394 -0.06720
v -0.04652 0.01810 -0.05945
v -0.02326 0.06978 -0.04653
v 0.01551 0.01810 -0.04653
v -0.01291 0.05944 -0.06979
v 0.02066 0.04394 -0.04653
v 0.02585 0.03878 -0.07237
v 0.01292 0.02068 -0.07754
v -0.04394 0.02068 -0.07237
v -0.01809 0.04394 -0.07496
v -0.00001 0.06720 -0.05945
v -0.02584 0.05428 -0.06979
v -0.04911 0.02068 -0.06204
v -0.02584 0.06720 -0.04653
v 0.00257 0.03361 -0.07754
v 0.03360 0.02068 -0.06462
v 0.02585 0.04136 -0.06979
v -0.02068 0.06978 -0.05170
v -0.03617 0.03878 -0.07237
v 0.02585 0.04136 -0.05945
v 0.02585 0.01810 -0.07496
v -0.04911 0.01810 -0.06720
v -0.01033 0.06461 -0.06462
v 0.02066 0.03361 -0.07496
v 0.00517 0.06720 -0.05170
v -0.01809 0.05428 -0.07237
v 0.00517 0.04652 -0.07496
v 0.01292 0.05428 -0.06720
v -0.02326 0.06720 -0.05428
v 0.03360 0.01810 -0.06462
v 0.02066 0.03878 -0.04653
v 0.00775 0.06461 -0.04653
v -0.00001 0.06203 -0.06720
v -0.02584 0.06461 -0.04653
v -0.02326 0.02068 -0.07754
v 0.03101 0.02585 -0.07237
v -0.04136 0.03619 -0.06979
v 0.01551 0.04910 -0.07237
v -0.04911 0.02068 -0.06720
v -0.04136 0.03878 -0.06462
v 0.02842 0.03619 -0.06979
v -0.03360 -0.08271 0.02843
v -0.04136 -0.05428 0.01810
v -0.04136 -0.05428 0.01551
v 0.01551 -0.06979 0.02843
v 0.01551 -0.08271 0.01551
v -0.04136 -0.08013 0.01551
v -0.03876 -0.06979 0.03619
v 0.01551 -0.08013 0.03360
v 0.01551 -0.06979 0.01551
v -0.02067 -0.06721 0.03619
v -0.04911 -0.06979 0.01810
v -0.03101 -0.08013 0.03619
v 0.01033 -0.07496 0.03619
v -0.00000 -0.08271 0.03360
v -0.04136 -0.07754 0.03102
v -0.04911 -0.05687 0.01551
v -0.03618 -0.08271 0.01551
v -0.04136 -0.06721 0.03360
v 0.01551 -0.07238 0.03360
v -0.04653 -0.05428 0.01810
v -0.00000 -0.08013 0.03619
v -0.03360 -0.06721 0.03619
v 0.01551 -0.08271 0.02843
v -0.04911 -0.05687 0.01810
v -0.04653 -0.07496 0.01551
v -0.02584 -0.08271 0.03360
v -0.04136 -0.07496 0.03360
v 0.02843 -0.04912 -0.07237
v 0.01551 -0.08271 -0.04394
v 0.01551 -0.08013 -0.05686
v 0.01551 -0.04912 0.01292
v 0.04653 -0.05170 0.01034
v 0.01551 -0.08013 0.03359
v 0.03877 -0.07754 -0.00777
v 0.01551 -0.04912 -0.07496
v 0.03360 -0.07496 0.03359
v 0.02843 -0.06463 -0.06978
v 0.04653 -0.04912 -0.01811
v 0.02843 -0.08271 0.01808
v 0.03618 -0.07754 -0.02842
v 0.03877 -0.04912 0.01808
v 0.02068 -0.07237 0.03619
v 0.02068 -0.07496 -0.06978
v 0.02843 -0.08271 -0.02842
v 0.03360 -0.05170 -0.06720
v 0.03877 -0.07754 0.00775
v 0.01551 -0.08271 0.02584
v 0.01551 -0.07237 -0.07237
v 0.04653 -0.05170 -0.01811
v 0.02585 -0.04912 0.01808
v 0.03360 -0.06979 0.03359
v 0.03102 -0.08013 0.02843
v 0.02585 -0.07496 -0.06204
v 0.03618 -0.07496 0.02843
v 0.02326 -0.06979 -0.07237
v 0.02326 -0.08271 -0.04135
v 0.03618 -0.08013 0.00258
v 0.04653 -0.05429 0.00258
v 0.01551 -0.07237 0.03359
v 0.04653 -0.04912 0.01034
v 0.02843 -0.07754 0.03619
v 0.03360 -0.08013 -0.02842
v 0.03360 -0.04912 -0.06720
v 0.01810 -0.04912 0.01551
v 0.02843 -0.06979 -0.06461
v 0.01810 -0.05687 -0.07496
v 0.03877 -0.07496 -0.02066
v 0.03618 -0.05170 0.02067
v 0.04653 -0.05429 -0.00777
v -0.06462 0.03877 -0.03360
v -0.06204 0.02585 -0.02326
v -0.06462 0.02585 -0.02326
v -0.06204 0.01809 -0.03360
v -0.06204 0.03877 -0.02843
v -0.06462 0.01809 -0.03360
v -0.06462 0.01809 -0.02326
v -0.06204 0.03877 -0.03360
v 0.02585 -0.03877 -0.07496
v 0.02326 0.00516 -0.05170
v 0.03618 0.00516 -0.06204
v 0.01551 0.01292 -0.07754
v 0.01810 -0.04910 -0.05170
v 0.03360 -0.04652 -0.05429
v 0.03877 -0.01809 -0.07237
v 0.01551 -0.04910 -0.07496
v 0.01551 0.01809 -0.05687
v 0.03360 0.01809 -0.07237
v 0.03360 -0.04910 -0.06979
v 0.01551 -0.04910 -0.05429
v 0.02585 0.01809 -0.05687
v 0.03877 -0.00001 -0.06462
v 0.02843 -0.04910 -0.05170
v 0.01810 0.00516 -0.05170
v 0.03618 -0.04394 -0.05945
v 0.03101 0.01033 -0.07496
v 0.01810 -0.01809 -0.07754
v 0.01551 0.01809 -0.07496
v 0.03877 0.00258 -0.07237
v 0.03618 0.01292 -0.06462
v 0.03101 -0.02326 -0.07496
v 0.03101 -0.04910 -0.07237
v 0.03360 -0.04135 -0.05429
v 0.03877 -0.02326 -0.06462
v 0.03618 -0.04135 -0.06979
v 0.01551 0.00516 -0.05429
v 0.01810 0.01292 -0.07754
v 0.03360 0.01809 -0.06462
v 0.03101 0.01550 -0.05945
v 0.02068 -0.04910 -0.07496
v 0.03360 -0.04910 -0.05687
v 0.04911 0.02327 0.01034
v -0.02584 0.06203 -0.04653
v -0.02842 0.01810 -0.03360
v -0.05427 0.06978 0.02326
v 0.03619 0.07495 0.02326
v 0.03101 0.02069 -0.04136
v -0.04652 0.01810 0.01292
v 0.04652 0.01810 0.02326
v 0.00257 0.06978 -0.04653
v 0.03101 0.06203 -0.02843
v -0.05687 0.03878 0.00774
v -0.01550 0.01810 -0.04653
v -0.04135 0.07495 0.01809
v -0.03618 0.06720 -0.03360
v -0.05169 0.04911 0.02326
v 0.04652 0.01810 -0.01034
v 0.04134 0.07237 0.02067
v 0.01808 0.07754 0.01809
v 0.02067 0.04653 -0.04653
v -0.02326 0.06978 -0.04653
v 0.02067 0.01810 -0.04653
v -0.05687 0.06203 0.01034
v -0.01033 0.07754 0.02326
v 0.02583 0.01810 0.02326
v 0.02842 0.06720 -0.02843
v -0.05687 0.04136 0.01809
v -0.04911 0.02069 0.00774
v -0.05169 0.07237 0.01809
v 0.04911 0.02069 -0.00001
v 0.02583 0.06203 -0.03618
v -0.03618 0.06203 -0.03360
v 0.03101 0.07495 0.01292
v 0.03359 0.06203 -0.02067
v -0.05427 0.06720 0.00774
v 0.04134 0.07237 0.02326
v -0.05687 0.06461 0.02326
v -0.01033 0.07754 0.02067
v 0.01033 0.06461 -0.04653
v 0.04652 0.02069 -0.01034
v 0.04911 0.01810 0.01550
v -0.04135 0.07495 0.02326
v -0.03102 0.06978 -0.03618
v -0.05687 0.05169 0.00774
v 0.02326 0.07754 0.02067
v 0.01808 0.06978 -0.03101
v 0.03101 0.01810 -0.04136
v -0.03102 0.07495 0.00774
v 0.03359 0.07237 0.00258
v 0.02842 0.06203 -0.03360
v -0.00259 0.07754 0.01809
v -0.04652 0.01810 0.00517
v -0.05169 0.06978 0.00774
v 0.02583 0.04653 -0.04136
v 0.02067 0.06720 -0.03618
v -0.03360 -0.07754 -0.05428
v 0.01551 -0.03877 -0.05945
v 0.01551 -0.04653 -0.04653
v -0.04653 -0.03877 -0.05945
v 0.01551 -0.07496 -0.07238
v -0.02842 -0.03877 -0.07496
v 0.01033 -0.08271 -0.04653
v -0.04911 -0.05687 -0.04653
v -0.04394 -0.06720 -0.06720
v 0.01551 -0.03877 -0.07496
v -0.01809 -0.07496 -0.07238
v -0.04394 -0.07496 -0.04653
v -0.01809 -0.06720 -0.07496
v -0.04653 -0.04912 -0.04653
v -0.04653 -0.03877 -0.06720
v 0.01551 -0.08013 -0.04653
v -0.01035 -0.08013 -0.06204
v -0.04911 -0.06720 -0.05945
v -0.01035 -0.08271 -0.04653
v 0.01551 -0.06462 -0.07496
v -0.04136 -0.07237 -0.06462
v -0.03618 -0.05687 -0.07238
v 0.01033 -0.07754 -0.06979
v -0.04911 -0.04653 -0.06204
v 0.01551 -0.08013 -0.05945
v -0.04911 -0.06979 -0.04653
v -0.02584 -0.07237 -0.07238
v -0.04394 -0.04136 -0.06979
v -0.03101 -0.07496 -0.06720
v -0.02842 -0.08013 -0.04911
v -0.00000 -0.08271 -0.05170
v -0.04911 -0.06462 -0.06204
v -0.01293 -0.07754 -0.06979
v -0.03360 -0.06462 -0.07238
v -0.04653 -0.07237 -0.05428
v -0.03876 -0.07754 -0.04911
v -0.03876 -0.03877 -0.07238
v -0.02325 -0.06203 -0.07496
v -0.04910 -0.01551 -0.06979
v 0.01551 0.01809 -0.04653
v 0.01551 -0.00518 -0.04653
v 0.01551 0.01550 -0.07755
v 0.01551 -0.03877 -0.07496
v -0.04910 0.01809 -0.05945
v -0.04910 -0.03877 -0.05945
v -0.01551 0.01809 -0.08013
v -0.02325 -0.02068 -0.08013
v 0.01551 -0.03877 -0.05945
v -0.01551 0.01292 -0.04653
v -0.03877 -0.03877 -0.07237
v -0.04910 0.01809 -0.06979
v -0.05687 -0.00000 -0.05945
v -0.00776 -0.01034 -0.04653
v 0.00774 -0.01551 -0.08013
v -0.02584 0.00517 -0.08013
v 0.00257 0.01809 -0.08013
v -0.05428 -0.02068 -0.06462
v -0.04652 -0.00259 -0.07237
v -0.02842 -0.03877 -0.07496
v -0.01294 0.01809 -0.04653
v -0.05687 -0.00259 -0.06462
v -0.01294 -0.00518 -0.04653
v -0.00517 -0.02326 -0.08013
v -0.05687 -0.00776 -0.05945
v -0.04910 -0.03360 -0.06720
v 0.00774 -0.01034 -0.04653
v 0.01551 0.01809 -0.07496
v -0.02584 -0.01551 -0.08013
v 0.01551 -0.02068 -0.07755
v -0.04393 0.01809 -0.07237
v -0.04393 -0.02068 -0.07237
v -0.04652 0.01033 -0.07237
v -0.04910 -0.03877 -0.06462
v -0.05169 -0.03101 -0.05945
v -0.05169 0.01550 -0.06462
v -0.01551 0.00517 -0.04653
v 0.00774 0.00775 -0.08013
v -0.04393 -0.04137 0.01551
v -0.05169 -0.06462 -0.04653
v -0.06461 -0.04395 -0.03877
v 0.01551 -0.03878 -0.04135
v 0.01551 -0.08271 0.01551
v 0.01551 -0.02068 0.01292
v -0.06461 -0.02068 -0.03877
v 0.01551 -0.08271 -0.04653
v -0.04135 -0.08012 0.01551
v -0.06461 -0.02068 0.01034
v -0.01035 -0.02068 -0.03618
v -0.02585 -0.08271 -0.03877
v 0.01551 -0.04395 -0.04653
v -0.06203 -0.05428 -0.00259
v -0.04910 -0.07237 -0.04653
v -0.04910 -0.07237 0.01551
v -0.06203 -0.02327 -0.04135
v -0.03617 -0.08271 0.01551
v -0.05427 -0.06978 -0.02067
v -0.06720 -0.03361 -0.01293
v -0.06203 -0.02068 0.01292
v -0.06461 -0.03878 0.01034
v -0.04910 -0.04912 -0.04653
v -0.04393 -0.07754 -0.03877
v -0.06461 -0.04912 -0.03618
v -0.06720 -0.02068 -0.03102
v -0.03101 -0.08012 -0.04653
v 0.01551 -0.02068 0.00775
v 0.01551 -0.06720 0.01551
v -0.06720 -0.02068 -0.00000
v -0.04651 -0.07754 0.01034
v -0.03617 -0.08271 -0.00775
v -0.05427 -0.06978 -0.00517
v -0.05427 -0.05944 0.01551
v -0.06461 -0.03361 -0.04135
v -0.06203 -0.04912 0.01034
v -0.04651 -0.07754 -0.01551
v -0.06461 -0.04912 -0.01809
v -0.01551 -0.08271 -0.04653
v -0.06720 -0.03361 -0.02843
v -0.05427 -0.04395 0.01551
v -0.06203 -0.04395 0.01292
v -0.04910 -0.07495 -0.02843
v -0.06461 -0.02586 -0.04135
v -0.06203 -0.05428 -0.03618
v -0.06461 -0.04137 0.00775
v -0.03101 -0.08271 -0.02843
v -0.05944 -0.02327 -0.04135
v 0.02069 -0.02068 -0.04394
v 0.06204 -0.02068 0.03359
v 0.05944 -0.02068 0.03619
v 0.04136 -0.04911 -0.03619
v 0.01551 -0.04911 0.01292
v 0.01551 -0.02068 0.01292
v 0.05944 -0.02068 -0.02067
v 0.05686 -0.04394 0.01292
v 0.01551 -0.04911 -0.05170
v 0.03619 -0.03619 -0.04911
v 0.03877 -0.04911 0.01809
v 0.05944 -0.03877 -0.00517
v 0.03877 -0.02327 0.03102
v 0.05686 -0.03619 0.03102
v 0.01551 -0.02068 -0.03876
v 0.03102 -0.02068 -0.04653
v 0.04911 -0.04911 -0.01550
v 0.05169 -0.03877 -0.02843
v 0.03102 -0.04911 -0.05170
v 0.06204 -0.02327 -0.01291
v 0.01810 -0.04911 0.01551
v 0.06204 -0.02844 0.02584
v 0.05428 -0.03102 0.03359
v 0.02843 -0.02585 -0.04911
v 0.04652 -0.04911 0.01292
v 0.04652 -0.02327 -0.03619
v 0.05686 -0.04135 -0.01291
v 0.05944 -0.04135 0.00516
v 0.05944 -0.03619 0.02843
v 0.03877 -0.02068 0.03102
v 0.03102 -0.03877 -0.05170
v 0.03619 -0.04911 -0.04653
v 0.01551 -0.04653 -0.05170
v 0.03360 -0.02844 -0.04911
v 0.02843 -0.04911 0.01809
v 0.06204 -0.02844 -0.00001
v 0.05428 -0.02327 0.03619
v 0.05428 -0.04135 -0.02067
v 0.05686 -0.04394 -0.00517
v 0.06204 -0.02068 -0.01291
v 0.04911 -0.04911 0.00775
v 0.05944 -0.02327 -0.02067
v 0.01551 0.01550 -0.04911
v 0.06720 -0.00001 0.04911
v 0.06462 0.00258 0.04653
v 0.01551 -0.02068 0.01291
v 0.05944 -0.02068 -0.02326
v 0.02586 0.01809 0.04136
v 0.04911 0.01809 -0.01032
v 0.02068 -0.02068 -0.04394
v 0.05944 0.00258 -0.03101
v 0.04911 -0.02068 0.03619
v 0.01551 0.01809 0.01809
v 0.06462 -0.02068 0.02843
v 0.04394 0.01809 0.04653
v 0.06462 0.00258 -0.01292
v 0.02327 -0.00517 -0.05170
v 0.02844 0.01809 -0.04394
v 0.03878 -0.00775 0.04136
v 0.01551 -0.02068 -0.03877
v 0.03361 -0.02068 -0.04394
v 0.05169 0.01809 0.01033
v 0.06462 -0.01292 -0.01549
v 0.06720 -0.00775 0.04911
v 0.03102 0.01550 0.04653
v 0.05944 -0.01292 -0.03101
v 0.06720 0.00258 0.02583
v 0.01551 -0.00517 -0.05170
v 0.02327 0.00517 -0.05170
v 0.06203 0.00775 -0.01032
v 0.01551 0.01809 -0.04652
v 0.04911 -0.01292 0.04394
v 0.06720 -0.01292 0.02326
v 0.06462 -0.02068 -0.00002
v 0.05944 0.00517 -0.02842
v 0.02068 0.01550 0.03360
v 0.06203 -0.01550 0.04394
v 0.04136 -0.02068 0.03360
v 0.05686 -0.00775 -0.03359
v 0.06203 -0.00001 -0.02842
v 0.03361 0.01809 -0.03877
v 0.06203 -0.00775 0.04911
v 0.06203 -0.02068 0.03619
v 0.06720 -0.01292 0.04394
v 0.06462 -0.00517 -0.01808
v 0.06203 -0.01034 -0.02842
v 0.06462 0.00517 0.03100
v 0.02586 0.01550 0.04136
v 0.06203 -0.02068 -0.01808
v 0.01810 0.01033 -0.05170
v 0.05427 -0.01550 0.04394
v 0.03102 0.01809 0.04653
v 0.03102 0.01550 -0.04394
v 0.05169 0.01809 -0.00002
v -0.05945 0.03878 0.03619
v -0.01551 0.07754 0.05686
v -0.01551 0.07754 0.02326
v -0.01551 0.03619 0.04135
v -0.05686 0.06979 0.05686
v -0.05686 0.06462 0.02326
v -0.05686 0.04395 0.05686
v -0.01551 0.05686 0.02326
v -0.05169 0.03360 0.03361
v -0.04652 0.07496 0.02844
v -0.01551 0.06203 0.05686
v -0.03878 0.07754 0.05686
v -0.01551 0.03619 0.03361
v -0.06204 0.04912 0.04652
v -0.05428 0.05428 0.02326
v -0.04394 0.03619 0.03102
v -0.05169 0.07237 0.02326
v -0.05169 0.03360 0.03878
v -0.04911 0.04395 0.05686
v -0.04911 0.07496 0.05686
v -0.05428 0.07237 0.03102
v -0.03361 0.07754 0.03361
v -0.06204 0.04912 0.03878
v -0.05945 0.04653 0.05686
v -0.05945 0.06203 0.04135
v -0.05686 0.03878 0.03102
v -0.05945 0.03878 0.04394
v -0.04135 0.03360 0.03878
v -0.04394 0.07496 0.02326
v -0.06204 0.04395 0.03878
v -0.05945 0.06203 0.05428
v -0.05686 0.06720 0.02585
v -0.04135 0.03619 0.04394
v -0.05686 0.05945 0.02326
v -0.04135 0.05428 0.02326
v 0.01809 0.01809 0.02844
v 0.01809 0.08013 0.05686
v 0.01809 0.08013 0.05428
v -0.01551 0.03360 0.03361
v 0.03618 0.07495 0.02326
v 0.04394 0.02586 0.05686
v -0.01551 0.07754 0.02326
v -0.01551 0.06203 0.05686
v 0.04652 0.01809 0.02326
v 0.04911 0.07236 0.05686
v 0.03360 0.02069 0.05686
v -0.01551 0.07754 0.05686
v -0.01551 0.05687 0.02326
v 0.04394 0.06978 0.02585
v -0.01292 0.03103 0.03878
v 0.02584 0.01809 0.02326
v 0.04652 0.01809 0.03619
v 0.03101 0.07754 0.02844
v 0.02584 0.01809 0.04652
v -0.00775 0.08013 0.05428
v 0.04652 0.07236 0.03619
v 0.03618 0.07754 0.05686
v 0.04394 0.01809 0.04911
v -0.01551 0.03619 0.04135
v 0.02584 0.07754 0.02326
v 0.04911 0.06978 0.04911
v 0.04911 0.06462 0.05686
v 0.01552 0.02586 0.02326
v 0.04135 0.07236 0.02326
v 0.04652 0.02844 0.04911
v 0.04394 0.07495 0.04652
v 0.04652 0.06978 0.03361
v 0.01809 0.01809 0.03361
v 0.01552 0.08013 0.05169
v -0.01292 0.03103 0.03361
v -0.01292 0.03360 0.04135
v 0.04652 0.02327 0.02326
v 0.03360 0.07754 0.03361
v 0.03877 0.07495 0.02585
v -0.06203 0.00517 0.00516
v -0.06462 -0.02068 -0.04136
v -0.06462 0.00517 -0.04136
v -0.05170 -0.01550 -0.01809
v -0.06721 -0.02068 -0.00001
v -0.05170 -0.02068 0.01292
v -0.05945 0.01809 -0.02584
v -0.05170 -0.00258 0.01292
v -0.06721 0.00775 -0.02326
v -0.05687 -0.02068 -0.03877
v -0.06462 -0.00001 0.01033
v -0.05945 0.00258 -0.04136
v -0.06462 0.01809 -0.02067
v -0.06203 -0.02068 0.01292
v -0.06721 -0.02068 -0.03101
v -0.06462 0.01809 -0.03618
v -0.05945 0.01809 -0.03101
v -0.06721 0.00258 -0.03360
v -0.05170 -0.01034 -0.01551
v -0.06721 -0.00517 -0.00001
v -0.06203 0.01550 -0.01293
v -0.05687 -0.00258 -0.03618
v -0.05170 -0.02068 -0.01809
v -0.06462 0.00517 0.00516
v -0.06203 -0.00258 0.01292
v -0.05170 -0.00258 0.00516
v -0.06462 -0.02068 0.01033
v -0.05945 -0.02068 -0.04136
v -0.02843 0.01809 -0.00259
v -0.01552 -0.00517 -0.04653
v -0.02067 0.00258 -0.04394
v -0.05168 -0.02068 -0.00776
v 0.01551 -0.01809 -0.02326
v 0.01551 0.01809 -0.00259
v 0.01551 0.01809 -0.04653
v -0.02843 0.01809 -0.03360
v -0.01552 -0.02068 -0.00517
v 0.01551 -0.01809 -0.03877
v -0.03101 -0.02068 -0.03618
v -0.05168 -0.00517 -0.01293
v -0.01809 0.01292 -0.00000
v 0.01551 0.00775 -0.00259
v -0.01552 0.01809 -0.04653
v 0.01033 -0.01034 -0.04653
v -0.03618 0.01809 -0.00776
v -0.03101 0.00258 -0.03618
v -0.05168 -0.02068 -0.01552
v -0.01035 -0.02068 -0.03877
v -0.04135 -0.02068 -0.00517
v -0.04911 -0.00258 -0.00776
v -0.01035 -0.01034 -0.04653
v -0.01809 -0.00775 -0.00259
v -0.01035 -0.02068 -0.00776
v 0.01551 -0.00775 -0.04653
v -0.03618 0.01809 -0.01293
v -0.02843 0.01550 -0.03618
v -0.05168 -0.01034 -0.01552
v -0.03101 0.01550 -0.00259
v -0.01035 0.01809 -0.00000
v -0.04911 -0.00001 -0.01293
v -0.01035 0.01292 -0.00000
v -0.02843 0.00258 -0.03877
v -0.00776 -0.02068 -0.01034
v -0.05168 -0.01034 -0.00776
v -0.05168 -0.00258 0.00517
v 0.01551 0.01809 0.01551
v 0.01551 0.01809 -0.00000
v 0.01551 -0.02068 0.01292
v -0.04652 0.01809 0.01292
v -0.05168 -0.02068 0.01292
v -0.00518 -0.02068 0.00517
v -0.05168 -0.02068 0.00517
v -0.04652 0.01809 0.00517
v 0.01551 -0.02068 0.00775
v 0.01292 0.00517 0.01551
v 0.01292 0.01292 -0.00000
v -0.02325 0.01809 0.00259
v -0.05168 -0.00001 0.01292
v 0.00775 0.01809 0.01551
v 0.01551 0.01292 -0.00000
f 528 511 535 
f 488 487 491 
f 487 488 493 
f 484 487 494 
f 489 490 494 
f 493 488 495 
f 485 486 496 
f 490 489 496 
f 494 490 499 
f 487 484 501 
f 491 487 501 
f 488 491 502 
f 491 498 502 
f 490 496 503 
f 487 500 506 
f 488 502 507 
f 485 505 508 
f 498 491 509 
f 501 484 509 
f 491 501 509 
f 498 509 510 
f 508 497 511 
f 484 494 512 
f 499 484 512 
f 494 499 512 
f 506 500 513 
f 508 505 514 
f 495 488 515 
f 514 495 515 
f 504 514 515 
f 492 499 516 
f 490 511 516 
f 511 497 516 
f 494 487 517 
f 489 494 517 
f 487 493 519 
f 500 487 519 
f 513 500 519 
f 502 498 520 
f 492 507 520 
f 507 502 520 
f 510 492 520 
f 498 510 520 
f 507 492 521 
f 492 516 521 
f 516 497 521 
f 499 490 522 
f 516 499 522 
f 490 516 522 
f 505 485 523 
f 506 513 523 
f 518 505 523 
f 493 495 524 
f 518 493 524 
f 518 524 525 
f 495 514 525 
f 514 505 525 
f 505 518 525 
f 524 495 525 
f 497 508 526 
f 514 504 526 
f 508 514 526 
f 521 497 526 
f 521 526 527 
f 488 507 527 
f 507 521 527 
f 526 504 527 
f 486 485 528 
f 496 486 528 
f 503 496 528 
f 485 508 528 
f 508 511 528 
f 487 506 529 
f 506 489 529 
f 517 487 529 
f 489 517 529 
f 515 488 530 
f 504 515 530 
f 488 527 530 
f 527 504 530 
f 484 499 531 
f 509 484 531 
f 499 510 531 
f 510 509 531 
f 493 518 532 
f 519 493 532 
f 513 519 532 
f 523 513 532 
f 518 523 532 
f 485 496 533 
f 496 489 533 
f 489 506 533 
f 523 485 533 
f 506 523 533 
f 499 492 534 
f 492 510 534 
f 510 499 534 
f 490 503 535 
f 511 490 535 
f 503 528 535 
