# Original object name hint: convex_4
v -0.02324 -0.07238 0.06462
v 0.05685 0.01809 0.07496
v 0.05685 0.01809 0.06721
v -0.06979 -0.00259 0.06979
v 0.00516 -0.07238 0.07237
v 0.00000 0.01809 0.07755
v 0.06979 -0.01035 0.06462
v -0.06720 -0.00259 0.06462
v -0.06720 -0.02587 0.07237
v -0.04652 0.01809 0.06721
v 0.04911 0.00257 0.07755
v 0.06718 -0.01553 0.07237
v 0.02324 -0.06720 0.06462
v -0.02582 -0.06979 0.07237
v 0.04652 0.01809 0.06462
v 0.01033 -0.00777 0.07755
v -0.06720 -0.02327 0.06462
v -0.04652 0.01809 0.07237
v 0.02324 -0.06461 0.07237
v -0.06979 -0.00517 0.07237
v 0.05685 -0.03100 0.07237
v 0.06979 -0.00001 0.06979
v 0.04911 0.01809 0.07755
v 0.00258 -0.07496 0.06462
v -0.03360 -0.06461 0.06721
v 0.02582 -0.01035 0.07755
v -0.02066 -0.07238 0.07237
v 0.06979 -0.00001 0.06462
v 0.01551 -0.07238 0.06979
v 0.02843 0.01809 0.06462
v 0.05427 -0.03360 0.06721
v -0.01291 -0.07496 0.06979
v -0.06979 -0.01553 0.06462
v 0.02843 -0.06204 0.06979
v -0.06720 -0.02587 0.06721
v 0.06718 0.00257 0.07237
v -0.06979 -0.01811 0.07237
v 0.05945 -0.00777 0.07496
v 0.00516 -0.07496 0.06979
v -0.03100 -0.06720 0.06979
v 0.00000 0.01291 0.07755
v 0.01551 -0.07238 0.06462
v -0.05945 0.02844 0.06721
v 0.01291 0.08271 0.07237
v 0.01291 0.08271 0.06204
v 0.05687 0.01810 0.06721
v -0.05945 0.06203 0.05687
v -0.04652 0.06203 0.07754
v 0.04910 0.01810 0.07754
v 0.04135 0.02327 0.05687
v 0.04910 0.07237 0.05687
v 0.04652 0.05944 0.07754
v -0.04910 0.01810 0.07237
v -0.04910 0.07495 0.05687
v -0.00515 0.07753 0.08013
v -0.05686 0.04136 0.05687
v -0.05686 0.06720 0.07496
v -0.00000 0.01810 0.07754
v -0.04652 0.01810 0.06721
v 0.05168 0.06461 0.07496
v -0.01290 0.08271 0.07496
v -0.06462 0.03361 0.06979
v 0.05687 0.04395 0.07496
v -0.05686 0.03878 0.07496
v -0.01551 0.08012 0.05687
v 0.00775 0.07753 0.08013
v 0.03876 0.07495 0.07237
v -0.05428 0.07237 0.07237
v -0.00515 0.06720 0.08013
v -0.04394 0.02069 0.06462
v 0.03619 0.07753 0.05687
v 0.03100 0.02327 0.05687
v 0.05687 0.01810 0.07496
v 0.04910 0.01810 0.06462
v -0.01290 0.08271 0.06462
v 0.05687 0.03878 0.06721
v -0.04652 0.05686 0.07754
v -0.05945 0.06461 0.07237
v 0.04394 0.02585 0.05687
v 0.05168 0.04136 0.07754
v -0.05686 0.06978 0.05687
v 0.00258 0.08271 0.07754
v 0.04652 0.06978 0.07496
v 0.05427 0.05944 0.06979
v -0.06462 0.04136 0.06721
v -0.01551 0.08012 0.07754
v -0.03877 0.07753 0.06979
v -0.05945 0.04395 0.05687
v 0.04394 0.07495 0.06462
v -0.05945 0.05427 0.07496
v 0.01033 0.06720 0.08013
v -0.06203 0.03103 0.07237
v 0.04910 0.06203 0.05687
v 0.02326 0.08012 0.05687
v 0.04910 0.07237 0.06462
v -0.03877 0.07753 0.05687
v -0.01033 0.06978 0.08013
v -0.04910 0.07237 0.07496
v 0.01291 0.08012 0.07754
v 0.02584 0.01810 0.06462
v -0.06462 0.03361 0.06721
v -0.05686 0.02844 0.06462
v 0.05427 0.05944 0.07496
v 0.02584 0.08012 0.06721
v -0.05945 0.06461 0.05946
v -0.02326 0.01810 -0.07754
v -0.00001 0.06978 -0.04653
v 0.00517 0.06720 -0.04653
v -0.01291 0.01810 -0.04653
v 0.03360 0.01810 -0.06979
v 0.00775 0.05428 -0.07237
v -0.03877 0.04394 -0.06720
v -0.04652 0.01810 -0.05945
v -0.02326 0.06978 -0.04653
v 0.01551 0.01810 -0.04653
v -0.01291 0.05944 -0.06979
v 0.02066 0.04394 -0.04653
v 0.02585 0.03878 -0.07237
v 0.01292 0.02068 -0.07754
v -0.04394 0.02068 -0.07237
v -0.01809 0.04394 -0.07496
v -0.00001 0.06720 -0.05945
v -0.02584 0.05428 -0.06979
v -0.04911 0.02068 -0.06204
v -0.02584 0.06720 -0.04653
v 0.00257 0.03361 -0.07754
v 0.03360 0.02068 -0.06462
v 0.02585 0.04136 -0.06979
v -0.02068 0.06978 -0.05170
v -0.03617 0.03878 -0.07237
v 0.02585 0.04136 -0.05945
v 0.02585 0.01810 -0.07496
v -0.04911 0.01810 -0.06720
v -0.01033 0.06461 -0.06462
v 0.02066 0.03361 -0.07496
v 0.00517 0.06720 -0.05170
v -0.01809 0.05428 -0.07237
v 0.00517 0.04652 -0.07496
v 0.01292 0.05428 -0.06720
v -0.02326 0.06720 -0.05428
v 0.03360 0.01810 -0.06462
v 0.02066 0.03878 -0.04653
v 0.00775 0.06461 -0.04653
v -0.00001 0.06203 -0.06720
v -0.02584 0.06461 -0.04653
v -0.02326 0.02068 -0.07754
v 0.03101 0.02585 -0.07237
v -0.04136 0.03619 -0.06979
v 0.01551 0.04910 -0.07237
v -0.04911 0.02068 -0.06720
v -0.04136 0.03878 -0.06462
v 0.02842 0.03619 -0.06979
v -0.03360 -0.08271 0.02843
v -0.04136 -0.05428 0.01810
v -0.04136 -0.05428 0.01551
v 0.01551 -0.06979 0.02843
v 0.01551 -0.08271 0.01551
v -0.04136 -0.08013 0.01551
v -0.03876 -0.06979 0.03619
v 0.01551 -0.08013 0.03360
v 0.01551 -0.06979 0.01551
v -0.02067 -0.06721 0.03619
v -0.04911 -0.06979 0.01810
v -0.03101 -0.08013 0.03619
v 0.01033 -0.07496 0.03619
v -0.00000 -0.08271 0.03360
v -0.04136 -0.07754 0.03102
v -0.04911 -0.05687 0.01551
v -0.03618 -0.08271 0.01551
v -0.04136 -0.06721 0.03360
v 0.01551 -0.07238 0.03360
v -0.04653 -0.05428 0.01810
v -0.00000 -0.08013 0.03619
v -0.03360 -0.06721 0.03619
v 0.01551 -0.08271 0.02843
v -0.04911 -0.05687 0.01810
v -0.04653 -0.07496 0.01551
v -0.02584 -0.08271 0.03360
v -0.04136 -0.07496 0.03360
v 0.02843 -0.04912 -0.07237
v 0.01551 -0.08271 -0.04394
v 0.01551 -0.08013 -0.05686
v 0.01551 -0.04912 0.01292
v 0.04653 -0.05170 0.01034
v 0.01551 -0.08013 0.03359
v 0.03877 -0.07754 -0.00777
v 0.01551 -0.04912 -0.07496
v 0.03360 -0.07496 0.03359
v 0.02843 -0.06463 -0.06978
v 0.04653 -0.04912 -0.01811
v 0.02843 -0.08271 0.01808
v 0.03618 -0.07754 -0.02842
v 0.03877 -0.04912 0.01808
v 0.02068 -0.07237 0.03619
v 0.02068 -0.07496 -0.06978
v 0.02843 -0.08271 -0.02842
v 0.03360 -0.05170 -0.06720
v 0.03877 -0.07754 0.00775
v 0.01551 -0.08271 0.02584
v 0.01551 -0.07237 -0.07237
v 0.04653 -0.05170 -0.01811
v 0.02585 -0.04912 0.01808
v 0.03360 -0.06979 0.03359
v 0.03102 -0.08013 0.02843
v 0.02585 -0.07496 -0.06204
v 0.03618 -0.07496 0.02843
v 0.02326 -0.06979 -0.07237
v 0.02326 -0.08271 -0.04135
v 0.03618 -0.08013 0.00258
v 0.04653 -0.05429 0.00258
v 0.01551 -0.07237 0.03359
v 0.04653 -0.04912 0.01034
v 0.02843 -0.07754 0.03619
v 0.03360 -0.08013 -0.02842
v 0.03360 -0.04912 -0.06720
v 0.01810 -0.04912 0.01551
v 0.02843 -0.06979 -0.06461
v 0.01810 -0.05687 -0.07496
v 0.03877 -0.07496 -0.02066
v 0.03618 -0.05170 0.02067
v 0.04653 -0.05429 -0.00777
v -0.06462 0.03877 -0.03360
v -0.06204 0.02585 -0.02326
v -0.06462 0.02585 -0.02326
v -0.06204 0.01809 -0.03360
v -0.06204 0.03877 -0.02843
v -0.06462 0.01809 -0.03360
v -0.06462 0.01809 -0.02326
v -0.06204 0.03877 -0.03360
v 0.02585 -0.03877 -0.07496
v 0.02326 0.00516 -0.05170
v 0.03618 0.00516 -0.06204
v 0.01551 0.01292 -0.07754
v 0.01810 -0.04910 -0.05170
v 0.03360 -0.04652 -0.05429
v 0.03877 -0.01809 -0.07237
v 0.01551 -0.04910 -0.07496
v 0.01551 0.01809 -0.05687
v 0.03360 0.01809 -0.07237
v 0.03360 -0.04910 -0.06979
v 0.01551 -0.04910 -0.05429
v 0.02585 0.01809 -0.05687
v 0.03877 -0.00001 -0.06462
v 0.02843 -0.04910 -0.05170
v 0.01810 0.00516 -0.05170
v 0.03618 -0.04394 -0.05945
v 0.03101 0.01033 -0.07496
v 0.01810 -0.01809 -0.07754
v 0.01551 0.01809 -0.07496
v 0.03877 0.00258 -0.07237
v 0.03618 0.01292 -0.06462
v 0.03101 -0.02326 -0.07496
v 0.03101 -0.04910 -0.07237
v 0.03360 -0.04135 -0.05429
v 0.03877 -0.02326 -0.06462
v 0.03618 -0.04135 -0.06979
v 0.01551 0.00516 -0.05429
v 0.01810 0.01292 -0.07754
v 0.03360 0.01809 -0.06462
v 0.03101 0.01550 -0.05945
v 0.02068 -0.04910 -0.07496
v 0.03360 -0.04910 -0.05687
v 0.04911 0.02327 0.01034
v -0.02584 0.06203 -0.04653
v -0.02842 0.01810 -0.03360
v -0.05427 0.06978 0.02326
v 0.03619 0.07495 0.02326
v 0.03101 0.02069 -0.04136
v -0.04652 0.01810 0.01292
v 0.04652 0.01810 0.02326
v 0.00257 0.06978 -0.04653
v 0.03101 0.06203 -0.02843
v -0.05687 0.03878 0.00774
v -0.01550 0.01810 -0.04653
v -0.04135 0.07495 0.01809
v -0.03618 0.06720 -0.03360
v -0.05169 0.04911 0.02326
v 0.04652 0.01810 -0.01034
v 0.04134 0.07237 0.02067
v 0.01808 0.07754 0.01809
v 0.02067 0.04653 -0.04653
v -0.02326 0.06978 -0.04653
v 0.02067 0.01810 -0.04653
v -0.05687 0.06203 0.01034
v -0.01033 0.07754 0.02326
v 0.02583 0.01810 0.02326
v 0.02842 0.06720 -0.02843
v -0.05687 0.04136 0.01809
v -0.04911 0.02069 0.00774
v -0.05169 0.07237 0.01809
v 0.04911 0.02069 -0.00001
v 0.02583 0.06203 -0.03618
v -0.03618 0.06203 -0.03360
v 0.03101 0.07495 0.01292
v 0.03359 0.06203 -0.02067
v -0.05427 0.06720 0.00774
v 0.04134 0.07237 0.02326
v -0.05687 0.06461 0.02326
v -0.01033 0.07754 0.02067
v 0.01033 0.06461 -0.04653
v 0.04652 0.02069 -0.01034
v 0.04911 0.01810 0.01550
v -0.04135 0.07495 0.02326
v -0.03102 0.06978 -0.03618
v -0.05687 0.05169 0.00774
v 0.02326 0.07754 0.02067
v 0.01808 0.06978 -0.03101
v 0.03101 0.01810 -0.04136
v -0.03102 0.07495 0.00774
v 0.03359 0.07237 0.00258
v 0.02842 0.06203 -0.03360
v -0.00259 0.07754 0.01809
v -0.04652 0.01810 0.00517
v -0.05169 0.06978 0.00774
v 0.02583 0.04653 -0.04136
v 0.02067 0.06720 -0.03618
v -0.03360 -0.07754 -0.05428
v 0.01551 -0.03877 -0.05945
v 0.01551 -0.04653 -0.04653
v -0.04653 -0.03877 -0.05945
v 0.01551 -0.07496 -0.07238
v -0.02842 -0.03877 -0.07496
v 0.01033 -0.08271 -0.04653
v -0.04911 -0.05687 -0.04653
v -0.04394 -0.06720 -0.06720
v 0.01551 -0.03877 -0.07496
v -0.01809 -0.07496 -0.07238
v -0.04394 -0.07496 -0.04653
v -0.01809 -0.06720 -0.07496
v -0.04653 -0.04912 -0.04653
v -0.04653 -0.03877 -0.06720
v 0.01551 -0.08013 -0.04653
v -0.01035 -0.08013 -0.06204
v -0.04911 -0.06720 -0.05945
v -0.01035 -0.08271 -0.04653
v 0.01551 -0.06462 -0.07496
v -0.04136 -0.07237 -0.06462
v -0.03618 -0.05687 -0.07238
v 0.01033 -0.07754 -0.06979
v -0.04911 -0.04653 -0.06204
v 0.01551 -0.08013 -0.05945
v -0.04911 -0.06979 -0.04653
v -0.02584 -0.07237 -0.07238
v -0.04394 -0.04136 -0.06979
v -0.03101 -0.07496 -0.06720
v -0.02842 -0.08013 -0.04911
v -0.00000 -0.08271 -0.05170
v -0.04911 -0.06462 -0.06204
v -0.01293 -0.07754 -0.06979
v -0.03360 -0.06462 -0.07238
v -0.04653 -0.07237 -0.05428
v -0.03876 -0.07754 -0.04911
v -0.03876 -0.03877 -0.07238
v -0.02325 -0.06203 -0.07496
v -0.04910 -0.01551 -0.06979
v 0.01551 0.01809 -0.04653
v 0.01551 -0.00518 -0.04653
v 0.01551 0.01550 -0.07755
v 0.01551 -0.03877 -0.07496
v -0.04910 0.01809 -0.05945
v -0.04910 -0.03877 -0.05945
v -0.01551 0.01809 -0.08013
v -0.02325 -0.02068 -0.08013
v 0.01551 -0.03877 -0.05945
v -0.01551 0.01292 -0.04653
v -0.03877 -0.03877 -0.07237
v -0.04910 0.01809 -0.06979
v -0.05687 -0.00000 -0.05945
v -0.00776 -0.01034 -0.04653
v 0.00774 -0.01551 -0.08013
v -0.02584 0.00517 -0.08013
v 0.00257 0.01809 -0.08013
v -0.05428 -0.02068 -0.06462
v -0.04652 -0.00259 -0.07237
v -0.02842 -0.03877 -0.07496
v -0.01294 0.01809 -0.04653
v -0.05687 -0.00259 -0.06462
v -0.01294 -0.00518 -0.04653
v -0.00517 -0.02326 -0.08013
v -0.05687 -0.00776 -0.05945
v -0.04910 -0.03360 -0.06720
v 0.00774 -0.01034 -0.04653
v 0.01551 0.01809 -0.07496
v -0.02584 -0.01551 -0.08013
v 0.01551 -0.02068 -0.07755
v -0.04393 0.01809 -0.07237
v -0.04393 -0.02068 -0.07237
v -0.04652 0.01033 -0.07237
v -0.04910 -0.03877 -0.06462
v -0.05169 -0.03101 -0.05945
v -0.05169 0.01550 -0.06462
v -0.01551 0.00517 -0.04653
v 0.00774 0.00775 -0.08013
v -0.04393 -0.04137 0.01551
v -0.05169 -0.06462 -0.04653
v -0.06461 -0.04395 -0.03877
v 0.01551 -0.03878 -0.04135
v 0.01551 -0.08271 0.01551
v 0.01551 -0.02068 0.01292
v -0.06461 -0.02068 -0.03877
v 0.01551 -0.08271 -0.04653
v -0.04135 -0.08012 0.01551
v -0.06461 -0.02068 0.01034
v -0.01035 -0.02068 -0.03618
v -0.02585 -0.08271 -0.03877
v 0.01551 -0.04395 -0.04653
v -0.06203 -0.05428 -0.00259
v -0.04910 -0.07237 -0.04653
v -0.04910 -0.07237 0.01551
v -0.06203 -0.02327 -0.04135
v -0.03617 -0.08271 0.01551
v -0.05427 -0.06978 -0.02067
v -0.06720 -0.03361 -0.01293
v -0.06203 -0.02068 0.01292
v -0.06461 -0.03878 0.01034
v -0.04910 -0.04912 -0.04653
v -0.04393 -0.07754 -0.03877
v -0.06461 -0.04912 -0.03618
v -0.06720 -0.02068 -0.03102
v -0.03101 -0.08012 -0.04653
v 0.01551 -0.02068 0.00775
v 0.01551 -0.06720 0.01551
v -0.06720 -0.02068 -0.00000
v -0.04651 -0.07754 0.01034
v -0.03617 -0.08271 -0.00775
v -0.05427 -0.06978 -0.00517
v -0.05427 -0.05944 0.01551
v -0.06461 -0.03361 -0.04135
v -0.06203 -0.04912 0.01034
v -0.04651 -0.07754 -0.01551
v -0.06461 -0.04912 -0.01809
v -0.01551 -0.08271 -0.04653
v -0.06720 -0.03361 -0.02843
v -0.05427 -0.04395 0.01551
v -0.06203 -0.04395 0.01292
v -0.04910 -0.07495 -0.02843
v -0.06461 -0.02586 -0.04135
v -0.06203 -0.05428 -0.03618
v -0.06461 -0.04137 0.00775
v -0.03101 -0.08271 -0.02843
v -0.05944 -0.02327 -0.04135
v 0.02069 -0.02068 -0.04394
v 0.06204 -0.02068 0.03359
v 0.05944 -0.02068 0.03619
v 0.04136 -0.04911 -0.03619
v 0.01551 -0.04911 0.01292
v 0.01551 -0.02068 0.01292
v 0.05944 -0.02068 -0.02067
v 0.05686 -0.04394 0.01292
v 0.01551 -0.04911 -0.05170
v 0.03619 -0.03619 -0.04911
v 0.03877 -0.04911 0.01809
v 0.05944 -0.03877 -0.00517
v 0.03877 -0.02327 0.03102
v 0.05686 -0.03619 0.03102
v 0.01551 -0.02068 -0.03876
v 0.03102 -0.02068 -0.04653
v 0.04911 -0.04911 -0.01550
v 0.05169 -0.03877 -0.02843
v 0.03102 -0.04911 -0.05170
v 0.06204 -0.02327 -0.01291
v 0.01810 -0.04911 0.01551
v 0.06204 -0.02844 0.02584
v 0.05428 -0.03102 0.03359
v 0.02843 -0.02585 -0.04911
v 0.04652 -0.04911 0.01292
v 0.04652 -0.02327 -0.03619
v 0.05686 -0.04135 -0.01291
v 0.05944 -0.04135 0.00516
v 0.05944 -0.03619 0.02843
v 0.03877 -0.02068 0.03102
v 0.03102 -0.03877 -0.05170
v 0.03619 -0.04911 -0.04653
v 0.01551 -0.04653 -0.05170
v 0.03360 -0.02844 -0.04911
v 0.02843 -0.04911 0.01809
v 0.06204 -0.02844 -0.00001
v 0.05428 -0.02327 0.03619
v 0.05428 -0.04135 -0.02067
v 0.05686 -0.04394 -0.00517
v 0.06204 -0.02068 -0.01291
v 0.04911 -0.04911 0.00775
v 0.05944 -0.02327 -0.02067
v 0.01551 0.01550 -0.04911
v 0.06720 -0.00001 0.04911
v 0.06462 0.00258 0.04653
v 0.01551 -0.02068 0.01291
v 0.05944 -0.02068 -0.02326
v 0.02586 0.01809 0.04136
v 0.04911 0.01809 -0.01032
v 0.02068 -0.02068 -0.04394
v 0.05944 0.00258 -0.03101
v 0.04911 -0.02068 0.03619
v 0.01551 0.01809 0.01809
v 0.06462 -0.02068 0.02843
v 0.04394 0.01809 0.04653
v 0.06462 0.00258 -0.01292
v 0.02327 -0.00517 -0.05170
v 0.02844 0.01809 -0.04394
v 0.03878 -0.00775 0.04136
v 0.01551 -0.02068 -0.03877
v 0.03361 -0.02068 -0.04394
v 0.05169 0.01809 0.01033
v 0.06462 -0.01292 -0.01549
v 0.06720 -0.00775 0.04911
v 0.03102 0.01550 0.04653
v 0.05944 -0.01292 -0.03101
v 0.06720 0.00258 0.02583
v 0.01551 -0.00517 -0.05170
v 0.02327 0.00517 -0.05170
v 0.06203 0.00775 -0.01032
v 0.01551 0.01809 -0.04652
v 0.04911 -0.01292 0.04394
v 0.06720 -0.01292 0.02326
v 0.06462 -0.02068 -0.00002
v 0.05944 0.00517 -0.02842
v 0.02068 0.01550 0.03360
v 0.06203 -0.01550 0.04394
v 0.04136 -0.02068 0.03360
v 0.05686 -0.00775 -0.03359
v 0.06203 -0.00001 -0.02842
v 0.03361 0.01809 -0.03877
v 0.06203 -0.00775 0.04911
v 0.06203 -0.02068 0.03619
v 0.06720 -0.01292 0.04394
v 0.06462 -0.00517 -0.01808
v 0.06203 -0.01034 -0.02842
v 0.06462 0.00517 0.03100
v 0.02586 0.01550 0.04136
v 0.06203 -0.02068 -0.01808
v 0.01810 0.01033 -0.05170
v 0.05427 -0.01550 0.04394
v 0.03102 0.01809 0.04653
v 0.03102 0.01550 -0.04394
v 0.05169 0.01809 -0.00002
v -0.05945 0.03878 0.03619
v -0.01551 0.07754 0.05686
v -0.01551 0.07754 0.02326
v -0.01551 0.03619 0.04135
v -0.05686 0.06979 0.05686
v -0.05686 0.06462 0.02326
v -0.05686 0.04395 0.05686
v -0.01551 0.05686 0.02326
v -0.05169 0.03360 0.03361
v -0.04652 0.07496 0.02844
v -0.01551 0.06203 0.05686
v -0.03878 0.07754 0.05686
v -0.01551 0.03619 0.03361
v -0.06204 0.04912 0.04652
v -0.05428 0.05428 0.02326
v -0.04394 0.03619 0.03102
v -0.05169 0.07237 0.02326
v -0.05169 0.03360 0.03878
v -0.04911 0.04395 0.05686
v -0.04911 0.07496 0.05686
v -0.05428 0.07237 0.03102
v -0.03361 0.07754 0.03361
v -0.06204 0.04912 0.03878
v -0.05945 0.04653 0.05686
v -0.05945 0.06203 0.04135
v -0.05686 0.03878 0.03102
v -0.05945 0.03878 0.04394
v -0.04135 0.03360 0.03878
v -0.04394 0.07496 0.02326
v -0.06204 0.04395 0.03878
v -0.05945 0.06203 0.05428
v -0.05686 0.06720 0.02585
v -0.04135 0.03619 0.04394
v -0.05686 0.05945 0.02326
v -0.04135 0.05428 0.02326
v 0.01809 0.01809 0.02844
v 0.01809 0.08013 0.05686
v 0.01809 0.08013 0.05428
v -0.01551 0.03360 0.03361
v 0.03618 0.07495 0.02326
v 0.04394 0.02586 0.05686
v -0.01551 0.07754 0.02326
v -0.01551 0.06203 0.05686
v 0.04652 0.01809 0.02326
v 0.04911 0.07236 0.05686
v 0.03360 0.02069 0.05686
v -0.01551 0.07754 0.05686
v -0.01551 0.05687 0.02326
v 0.04394 0.06978 0.02585
v -0.01292 0.03103 0.03878
v 0.02584 0.01809 0.02326
v 0.04652 0.01809 0.03619
v 0.03101 0.07754 0.02844
v 0.02584 0.01809 0.04652
v -0.00775 0.08013 0.05428
v 0.04652 0.07236 0.03619
v 0.03618 0.07754 0.05686
v 0.04394 0.01809 0.04911
v -0.01551 0.03619 0.04135
v 0.02584 0.07754 0.02326
v 0.04911 0.06978 0.04911
v 0.04911 0.06462 0.05686
v 0.01552 0.02586 0.02326
v 0.04135 0.07236 0.02326
v 0.04652 0.02844 0.04911
v 0.04394 0.07495 0.04652
v 0.04652 0.06978 0.03361
v 0.01809 0.01809 0.03361
v 0.01552 0.08013 0.05169
v -0.01292 0.03103 0.03361
v -0.01292 0.03360 0.04135
v 0.04652 0.02327 0.02326
v 0.03360 0.07754 0.03361
v 0.03877 0.07495 0.02585
v -0.06203 0.00517 0.00516
v -0.06462 -0.02068 -0.04136
v -0.06462 0.00517 -0.04136
v -0.05170 -0.01550 -0.01809
v -0.06721 -0.02068 -0.00001
v -0.05170 -0.02068 0.01292
v -0.05945 0.01809 -0.02584
v -0.05170 -0.00258 0.01292
v -0.06721 0.00775 -0.02326
v -0.05687 -0.02068 -0.03877
v -0.06462 -0.00001 0.01033
v -0.05945 0.00258 -0.04136
v -0.06462 0.01809 -0.02067
v -0.06203 -0.02068 0.01292
v -0.06721 -0.02068 -0.03101
v -0.06462 0.01809 -0.03618
v -0.05945 0.01809 -0.03101
v -0.06721 0.00258 -0.03360
v -0.05170 -0.01034 -0.01551
v -0.06721 -0.00517 -0.00001
v -0.06203 0.01550 -0.01293
v -0.05687 -0.00258 -0.03618
v -0.05170 -0.02068 -0.01809
v -0.06462 0.00517 0.00516
v -0.06203 -0.00258 0.01292
v -0.05170 -0.00258 0.00516
v -0.06462 -0.02068 0.01033
v -0.05945 -0.02068 -0.04136
v -0.02843 0.01809 -0.00259
v -0.01552 -0.00517 -0.04653
v -0.02067 0.00258 -0.04394
v -0.05168 -0.02068 -0.00776
v 0.01551 -0.01809 -0.02326
v 0.01551 0.01809 -0.00259
v 0.01551 0.01809 -0.04653
v -0.02843 0.01809 -0.03360
v -0.01552 -0.02068 -0.00517
v 0.01551 -0.01809 -0.03877
v -0.03101 -0.02068 -0.03618
v -0.05168 -0.00517 -0.01293
v -0.01809 0.01292 -0.00000
v 0.01551 0.00775 -0.00259
v -0.01552 0.01809 -0.04653
v 0.01033 -0.01034 -0.04653
v -0.03618 0.01809 -0.00776
v -0.03101 0.00258 -0.03618
v -0.05168 -0.02068 -0.01552
v -0.01035 -0.02068 -0.03877
v -0.04135 -0.02068 -0.00517
v -0.04911 -0.00258 -0.00776
v -0.01035 -0.01034 -0.04653
v -0.01809 -0.00775 -0.00259
v -0.01035 -0.02068 -0.00776
v 0.01551 -0.00775 -0.04653
v -0.03618 0.01809 -0.01293
v -0.02843 0.01550 -0.03618
v -0.05168 -0.01034 -0.01552
v -0.03101 0.01550 -0.00259
v -0.01035 0.01809 -0.00000
v -0.04911 -0.00001 -0.01293
v -0.01035 0.01292 -0.00000
v -0.02843 0.00258 -0.03877
v -0.00776 -0.02068 -0.01034
v -0.05168 -0.01034 -0.00776
v -0.05168 -0.00258 0.00517
v 0.01551 0.01809 0.01551
v 0.01551 0.01809 -0.00000
v 0.01551 -0.02068 0.01292
v -0.04652 0.01809 0.01292
v -0.05168 -0.02068 0.01292
v -0.00518 -0.02068 0.00517
v -0.05168 -0.02068 0.00517
v -0.04652 0.01809 0.00517
v 0.01551 -0.02068 0.00775
v 0.01292 0.00517 0.01551
v 0.01292 0.01292 -0.00000
v -0.02325 0.01809 0.00259
v -0.05168 -0.00001 0.01292
v 0.00775 0.01809 0.01551
v 0.01551 0.01292 -0.00000
f 219 201 221 
f 182 181 183 
f 183 181 185 
f 182 183 187 
f 183 180 187 
f 180 183 190 
f 190 183 193 
f 191 181 196 
f 189 180 197 
f 185 181 199 
f 181 191 199 
f 182 187 200 
f 195 182 200 
f 190 184 201 
f 197 190 201 
f 192 197 201 
f 193 183 202 
f 188 184 203 
f 185 199 204 
f 199 191 204 
f 184 188 206 
f 198 184 206 
f 188 204 206 
f 204 198 206 
f 180 189 207 
f 195 200 207 
f 205 195 207 
f 181 182 208 
f 182 195 208 
f 196 181 208 
f 195 205 208 
f 191 196 209 
f 186 198 209 
f 198 204 209 
f 204 191 209 
f 184 198 210 
f 198 186 210 
f 201 184 210 
f 183 185 211 
f 185 194 211 
f 184 190 212 
f 190 193 212 
f 203 184 212 
f 193 203 212 
f 194 185 213 
f 188 203 213 
f 203 194 213 
f 185 204 213 
f 204 188 213 
f 192 186 214 
f 205 192 214 
f 196 208 214 
f 208 205 214 
f 209 196 214 
f 186 209 214 
f 180 190 215 
f 197 180 215 
f 190 197 215 
f 202 183 216 
f 194 202 216 
f 183 211 216 
f 211 194 216 
f 189 197 217 
f 197 192 217 
f 192 205 217 
f 207 189 217 
f 205 207 217 
f 187 180 218 
f 200 187 218 
f 180 207 218 
f 207 200 218 
f 186 192 219 
f 192 201 219 
f 193 202 220 
f 202 194 220 
f 203 193 220 
f 194 203 220 
f 210 186 221 
f 201 210 221 
f 186 219 221 
