# Original object name hint: convex_1
v -0.02324 -0.07238 0.06462
v 0.05685 0.01809 0.07496
v 0.05685 0.01809 0.06721
v -0.06979 -0.00259 0.06979
v 0.00516 -0.07238 0.07237
v 0.00000 0.01809 0.07755
v 0.06979 -0.01035 0.06462
v -0.06720 -0.00259 0.06462
v -0.06720 -0.02587 0.07237
v -0.04652 0.01809 0.06721
v 0.04911 0.00257 0.07755
v 0.06718 -0.01553 0.07237
v 0.02324 -0.06720 0.06462
v -0.02582 -0.06979 0.07237
v 0.04652 0.01809 0.06462
v 0.01033 -0.00777 0.07755
v -0.06720 -0.02327 0.06462
v -0.04652 0.01809 0.07237
v 0.02324 -0.06461 0.07237
v -0.06979 -0.00517 0.07237
v 0.05685 -0.03100 0.07237
v 0.06979 -0.00001 0.06979
v 0.04911 0.01809 0.07755
v 0.00258 -0.07496 0.06462
v -0.03360 -0.06461 0.06721
v 0.02582 -0.01035 0.07755
v -0.02066 -0.07238 0.07237
v 0.06979 -0.00001 0.06462
v 0.01551 -0.07238 0.06979
v 0.02843 0.01809 0.06462
v 0.05427 -0.03360 0.06721
v -0.01291 -0.07496 0.06979
v -0.06979 -0.01553 0.06462
v 0.02843 -0.06204 0.06979
v -0.06720 -0.02587 0.06721
v 0.06718 0.00257 0.07237
v -0.06979 -0.01811 0.07237
v 0.05945 -0.00777 0.07496
v 0.00516 -0.07496 0.06979
v -0.03100 -0.06720 0.06979
v 0.00000 0.01291 0.07755
v 0.01551 -0.07238 0.06462
v -0.05945 0.02844 0.06721
v 0.01291 0.08271 0.07237
v 0.01291 0.08271 0.06204
v 0.05687 0.01810 0.06721
v -0.05945 0.06203 0.05687
v -0.04652 0.06203 0.07754
v 0.04910 0.01810 0.07754
v 0.04135 0.02327 0.05687
v 0.04910 0.07237 0.05687
v 0.04652 0.05944 0.07754
v -0.04910 0.01810 0.07237
v -0.04910 0.07495 0.05687
v -0.00515 0.07753 0.08013
v -0.05686 0.04136 0.05687
v -0.05686 0.06720 0.07496
v -0.00000 0.01810 0.07754
v -0.04652 0.01810 0.06721
v 0.05168 0.06461 0.07496
v -0.01290 0.08271 0.07496
v -0.06462 0.03361 0.06979
v 0.05687 0.04395 0.07496
v -0.05686 0.03878 0.07496
v -0.01551 0.08012 0.05687
v 0.00775 0.07753 0.08013
v 0.03876 0.07495 0.07237
v -0.05428 0.07237 0.07237
v -0.00515 0.06720 0.08013
v -0.04394 0.02069 0.06462
v 0.03619 0.07753 0.05687
v 0.03100 0.02327 0.05687
v 0.05687 0.01810 0.07496
v 0.04910 0.01810 0.06462
v -0.01290 0.08271 0.06462
v 0.05687 0.03878 0.06721
v -0.04652 0.05686 0.07754
v -0.05945 0.06461 0.07237
v 0.04394 0.02585 0.05687
v 0.05168 0.04136 0.07754
v -0.05686 0.06978 0.05687
v 0.00258 0.08271 0.07754
v 0.04652 0.06978 0.07496
v 0.05427 0.05944 0.06979
v -0.06462 0.04136 0.06721
v -0.01551 0.08012 0.07754
v -0.03877 0.07753 0.06979
v -0.05945 0.04395 0.05687
v 0.04394 0.07495 0.06462
v -0.05945 0.05427 0.07496
v 0.01033 0.06720 0.08013
v -0.06203 0.03103 0.07237
v 0.04910 0.06203 0.05687
v 0.02326 0.08012 0.05687
v 0.04910 0.07237 0.06462
v -0.03877 0.07753 0.05687
v -0.01033 0.06978 0.08013
v -0.04910 0.07237 0.07496
v 0.01291 0.08012 0.07754
v 0.02584 0.01810 0.06462
v -0.06462 0.03361 0.06721
v -0.05686 0.02844 0.06462
v 0.05427 0.05944 0.07496
v 0.02584 0.08012 0.06721
v -0.05945 0.06461 0.05946
v -0.02326 0.01810 -0.07754
v -0.00001 0.06978 -0.04653
v 0.00517 0.06720 -0.04653
v -0.01291 0.01810 -0.04653
v 0.03360 0.01810 -0.06979
v 0.00775 0.05428 -0.07237
v -0.03877 0.04394 -0.06720
v -0.04652 0.01810 -0.05945
v -0.02326 0.06978 -0.04653
v 0.01551 0.01810 -0.04653
v -0.01291 0.05944 -0.06979
v 0.02066 0.04394 -0.04653
v 0.02585 0.03878 -0.07237
v 0.01292 0.02068 -0.07754
v -0.04394 0.02068 -0.07237
v -0.01809 0.04394 -0.07496
v -0.00001 0.06720 -0.05945
v -0.02584 0.05428 -0.06979
v -0.04911 0.02068 -0.06204
v -0.02584 0.06720 -0.04653
v 0.00257 0.03361 -0.07754
v 0.03360 0.02068 -0.06462
v 0.02585 0.04136 -0.06979
v -0.02068 0.06978 -0.05170
v -0.03617 0.03878 -0.07237
v 0.02585 0.04136 -0.05945
v 0.02585 0.01810 -0.07496
v -0.04911 0.01810 -0.06720
v -0.01033 0.06461 -0.06462
v 0.02066 0.03361 -0.07496
v 0.00517 0.06720 -0.05170
v -0.01809 0.05428 -0.07237
v 0.00517 0.04652 -0.07496
v 0.01292 0.05428 -0.06720
v -0.02326 0.06720 -0.05428
v 0.03360 0.01810 -0.06462
v 0.02066 0.03878 -0.04653
v 0.00775 0.06461 -0.04653
v -0.00001 0.06203 -0.06720
v -0.02584 0.06461 -0.04653
v -0.02326 0.02068 -0.07754
v 0.03101 0.02585 -0.07237
v -0.04136 0.03619 -0.06979
v 0.01551 0.04910 -0.07237
v -0.04911 0.02068 -0.06720
v -0.04136 0.03878 -0.06462
v 0.02842 0.03619 -0.06979
v -0.03360 -0.08271 0.02843
v -0.04136 -0.05428 0.01810
v -0.04136 -0.05428 0.01551
v 0.01551 -0.06979 0.02843
v 0.01551 -0.08271 0.01551
v -0.04136 -0.08013 0.01551
v -0.03876 -0.06979 0.03619
v 0.01551 -0.08013 0.03360
v 0.01551 -0.06979 0.01551
v -0.02067 -0.06721 0.03619
v -0.04911 -0.06979 0.01810
v -0.03101 -0.08013 0.03619
v 0.01033 -0.07496 0.03619
v -0.00000 -0.08271 0.03360
v -0.04136 -0.07754 0.03102
v -0.04911 -0.05687 0.01551
v -0.03618 -0.08271 0.01551
v -0.04136 -0.06721 0.03360
v 0.01551 -0.07238 0.03360
v -0.04653 -0.05428 0.01810
v -0.00000 -0.08013 0.03619
v -0.03360 -0.06721 0.03619
v 0.01551 -0.08271 0.02843
v -0.04911 -0.05687 0.01810
v -0.04653 -0.07496 0.01551
v -0.02584 -0.08271 0.03360
v -0.04136 -0.07496 0.03360
v 0.02843 -0.04912 -0.07237
v 0.01551 -0.08271 -0.04394
v 0.01551 -0.08013 -0.05686
v 0.01551 -0.04912 0.01292
v 0.04653 -0.05170 0.01034
v 0.01551 -0.08013 0.03359
v 0.03877 -0.07754 -0.00777
v 0.01551 -0.04912 -0.07496
v 0.03360 -0.07496 0.03359
v 0.02843 -0.06463 -0.06978
v 0.04653 -0.04912 -0.01811
v 0.02843 -0.08271 0.01808
v 0.03618 -0.07754 -0.02842
v 0.03877 -0.04912 0.01808
v 0.02068 -0.07237 0.03619
v 0.02068 -0.07496 -0.06978
v 0.02843 -0.08271 -0.02842
v 0.03360 -0.05170 -0.06720
v 0.03877 -0.07754 0.00775
v 0.01551 -0.08271 0.02584
v 0.01551 -0.07237 -0.07237
v 0.04653 -0.05170 -0.01811
v 0.02585 -0.04912 0.01808
v 0.03360 -0.06979 0.03359
v 0.03102 -0.08013 0.02843
v 0.02585 -0.07496 -0.06204
v 0.03618 -0.07496 0.02843
v 0.02326 -0.06979 -0.07237
v 0.02326 -0.08271 -0.04135
v 0.03618 -0.08013 0.00258
v 0.04653 -0.05429 0.00258
v 0.01551 -0.07237 0.03359
v 0.04653 -0.04912 0.01034
v 0.02843 -0.07754 0.03619
v 0.03360 -0.08013 -0.02842
v 0.03360 -0.04912 -0.06720
v 0.01810 -0.04912 0.01551
v 0.02843 -0.06979 -0.06461
v 0.01810 -0.05687 -0.07496
v 0.03877 -0.07496 -0.02066
v 0.03618 -0.05170 0.02067
v 0.04653 -0.05429 -0.00777
v -0.06462 0.03877 -0.03360
v -0.06204 0.02585 -0.02326
v -0.06462 0.02585 -0.02326
v -0.06204 0.01809 -0.03360
v -0.06204 0.03877 -0.02843
v -0.06462 0.01809 -0.03360
v -0.06462 0.01809 -0.02326
v -0.06204 0.03877 -0.03360
v 0.02585 -0.03877 -0.07496
v 0.02326 0.00516 -0.05170
v 0.03618 0.00516 -0.06204
v 0.01551 0.01292 -0.07754
v 0.01810 -0.04910 -0.05170
v 0.03360 -0.04652 -0.05429
v 0.03877 -0.01809 -0.07237
v 0.01551 -0.04910 -0.07496
v 0.01551 0.01809 -0.05687
v 0.03360 0.01809 -0.07237
v 0.03360 -0.04910 -0.06979
v 0.01551 -0.04910 -0.05429
v 0.02585 0.01809 -0.05687
v 0.03877 -0.00001 -0.06462
v 0.02843 -0.04910 -0.05170
v 0.01810 0.00516 -0.05170
v 0.03618 -0.04394 -0.05945
v 0.03101 0.01033 -0.07496
v 0.01810 -0.01809 -0.07754
v 0.01551 0.01809 -0.07496
v 0.03877 0.00258 -0.07237
v 0.03618 0.01292 -0.06462
v 0.03101 -0.02326 -0.07496
v 0.03101 -0.04910 -0.07237
v 0.03360 -0.04135 -0.05429
v 0.03877 -0.02326 -0.06462
v 0.03618 -0.04135 -0.06979
v 0.01551 0.00516 -0.05429
v 0.01810 0.01292 -0.07754
v 0.03360 0.01809 -0.06462
v 0.03101 0.01550 -0.05945
v 0.02068 -0.04910 -0.07496
v 0.03360 -0.04910 -0.05687
v 0.04911 0.02327 0.01034
v -0.02584 0.06203 -0.04653
v -0.02842 0.01810 -0.03360
v -0.05427 0.06978 0.02326
v 0.03619 0.07495 0.02326
v 0.03101 0.02069 -0.04136
v -0.04652 0.01810 0.01292
v 0.04652 0.01810 0.02326
v 0.00257 0.06978 -0.04653
v 0.03101 0.06203 -0.02843
v -0.05687 0.03878 0.00774
v -0.01550 0.01810 -0.04653
v -0.04135 0.07495 0.01809
v -0.03618 0.06720 -0.03360
v -0.05169 0.04911 0.02326
v 0.04652 0.01810 -0.01034
v 0.04134 0.07237 0.02067
v 0.01808 0.07754 0.01809
v 0.02067 0.04653 -0.04653
v -0.02326 0.06978 -0.04653
v 0.02067 0.01810 -0.04653
v -0.05687 0.06203 0.01034
v -0.01033 0.07754 0.02326
v 0.02583 0.01810 0.02326
v 0.02842 0.06720 -0.02843
v -0.05687 0.04136 0.01809
v -0.04911 0.02069 0.00774
v -0.05169 0.07237 0.01809
v 0.04911 0.02069 -0.00001
v 0.02583 0.06203 -0.03618
v -0.03618 0.06203 -0.03360
v 0.03101 0.07495 0.01292
v 0.03359 0.06203 -0.02067
v -0.05427 0.06720 0.00774
v 0.04134 0.07237 0.02326
v -0.05687 0.06461 0.02326
v -0.01033 0.07754 0.02067
v 0.01033 0.06461 -0.04653
v 0.04652 0.02069 -0.01034
v 0.04911 0.01810 0.01550
v -0.04135 0.07495 0.02326
v -0.03102 0.06978 -0.03618
v -0.05687 0.05169 0.00774
v 0.02326 0.07754 0.02067
v 0.01808 0.06978 -0.03101
v 0.03101 0.01810 -0.04136
v -0.03102 0.07495 0.00774
v 0.03359 0.07237 0.00258
v 0.02842 0.06203 -0.03360
v -0.00259 0.07754 0.01809
v -0.04652 0.01810 0.00517
v -0.05169 0.06978 0.00774
v 0.02583 0.04653 -0.04136
v 0.02067 0.06720 -0.03618
v -0.03360 -0.07754 -0.05428
v 0.01551 -0.03877 -0.05945
v 0.01551 -0.04653 -0.04653
v -0.04653 -0.03877 -0.05945
v 0.01551 -0.07496 -0.07238
v -0.02842 -0.03877 -0.07496
v 0.01033 -0.08271 -0.04653
v -0.04911 -0.05687 -0.04653
v -0.04394 -0.06720 -0.06720
v 0.01551 -0.03877 -0.07496
v -0.01809 -0.07496 -0.07238
v -0.04394 -0.07496 -0.04653
v -0.01809 -0.06720 -0.07496
v -0.04653 -0.04912 -0.04653
v -0.04653 -0.03877 -0.06720
v 0.01551 -0.08013 -0.04653
v -0.01035 -0.08013 -0.06204
v -0.04911 -0.06720 -0.05945
v -0.01035 -0.08271 -0.04653
v 0.01551 -0.06462 -0.07496
v -0.04136 -0.07237 -0.06462
v -0.03618 -0.05687 -0.07238
v 0.01033 -0.07754 -0.06979
v -0.04911 -0.04653 -0.06204
v 0.01551 -0.08013 -0.05945
v -0.04911 -0.06979 -0.04653
v -0.02584 -0.07237 -0.07238
v -0.04394 -0.04136 -0.06979
v -0.03101 -0.07496 -0.06720
v -0.02842 -0.08013 -0.04911
v -0.00000 -0.08271 -0.05170
v -0.04911 -0.06462 -0.06204
v -0.01293 -0.07754 -0.06979
v -0.03360 -0.06462 -0.07238
v -0.04653 -0.07237 -0.05428
v -0.03876 -0.07754 -0.04911
v -0.03876 -0.03877 -0.07238
v -0.02325 -0.06203 -0.07496
v -0.04910 -0.01551 -0.06979
v 0.01551 0.01809 -0.04653
v 0.01551 -0.00518 -0.04653
v 0.01551 0.01550 -0.07755
v 0.01551 -0.03877 -0.07496
v -0.04910 0.01809 -0.05945
v -0.04910 -0.03877 -0.05945
v -0.01551 0.01809 -0.08013
v -0.02325 -0.02068 -0.08013
v 0.01551 -0.03877 -0.05945
v -0.01551 0.01292 -0.04653
v -0.03877 -0.03877 -0.07237
v -0.04910 0.01809 -0.06979
v -0.05687 -0.00000 -0.05945
v -0.00776 -0.01034 -0.04653
v 0.00774 -0.01551 -0.08013
v -0.02584 0.00517 -0.08013
v 0.00257 0.01809 -0.08013
v -0.05428 -0.02068 -0.06462
v -0.04652 -0.00259 -0.07237
v -0.02842 -0.03877 -0.07496
v -0.01294 0.01809 -0.04653
v -0.05687 -0.00259 -0.06462
v -0.01294 -0.00518 -0.04653
v -0.00517 -0.02326 -0.08013
v -0.05687 -0.00776 -0.05945
v -0.04910 -0.03360 -0.06720
v 0.00774 -0.01034 -0.04653
v 0.01551 0.01809 -0.07496
v -0.02584 -0.01551 -0.08013
v 0.01551 -0.02068 -0.07755
v -0.04393 0.01809 -0.07237
v -0.04393 -0.02068 -0.07237
v -0.04652 0.01033 -0.07237
v -0.04910 -0.03877 -0.06462
v -0.05169 -0.03101 -0.05945
v -0.05169 0.01550 -0.06462
v -0.01551 0.00517 -0.04653
v 0.00774 0.00775 -0.08013
v -0.04393 -0.04137 0.01551
v -0.05169 -0.06462 -0.04653
v -0.06461 -0.04395 -0.03877
v 0.01551 -0.03878 -0.04135
v 0.01551 -0.08271 0.01551
v 0.01551 -0.02068 0.01292
v -0.06461 -0.02068 -0.03877
v 0.01551 -0.08271 -0.04653
v -0.04135 -0.08012 0.01551
v -0.06461 -0.02068 0.01034
v -0.01035 -0.02068 -0.03618
v -0.02585 -0.08271 -0.03877
v 0.01551 -0.04395 -0.04653
v -0.06203 -0.05428 -0.00259
v -0.04910 -0.07237 -0.04653
v -0.04910 -0.07237 0.01551
v -0.06203 -0.02327 -0.04135
v -0.03617 -0.08271 0.01551
v -0.05427 -0.06978 -0.02067
v -0.06720 -0.03361 -0.01293
v -0.06203 -0.02068 0.01292
v -0.06461 -0.03878 0.01034
v -0.04910 -0.04912 -0.04653
v -0.04393 -0.07754 -0.03877
v -0.06461 -0.04912 -0.03618
v -0.06720 -0.02068 -0.03102
v -0.03101 -0.08012 -0.04653
v 0.01551 -0.02068 0.00775
v 0.01551 -0.06720 0.01551
v -0.06720 -0.02068 -0.00000
v -0.04651 -0.07754 0.01034
v -0.03617 -0.08271 -0.00775
v -0.05427 -0.06978 -0.00517
v -0.05427 -0.05944 0.01551
v -0.06461 -0.03361 -0.04135
v -0.06203 -0.04912 0.01034
v -0.04651 -0.07754 -0.01551
v -0.06461 -0.04912 -0.01809
v -0.01551 -0.08271 -0.04653
v -0.06720 -0.03361 -0.02843
v -0.05427 -0.04395 0.01551
v -0.06203 -0.04395 0.01292
v -0.04910 -0.07495 -0.02843
v -0.06461 -0.02586 -0.04135
v -0.06203 -0.05428 -0.03618
v -0.06461 -0.04137 0.00775
v -0.03101 -0.08271 -0.02843
v -0.05944 -0.02327 -0.04135
v 0.02069 -0.02068 -0.04394
v 0.06204 -0.02068 0.03359
v 0.05944 -0.02068 0.03619
v 0.04136 -0.04911 -0.03619
v 0.01551 -0.04911 0.01292
v 0.01551 -0.02068 0.01292
v 0.05944 -0.02068 -0.02067
v 0.05686 -0.04394 0.01292
v 0.01551 -0.04911 -0.05170
v 0.03619 -0.03619 -0.04911
v 0.03877 -0.04911 0.01809
v 0.05944 -0.03877 -0.00517
v 0.03877 -0.02327 0.03102
v 0.05686 -0.03619 0.03102
v 0.01551 -0.02068 -0.03876
v 0.03102 -0.02068 -0.04653
v 0.04911 -0.04911 -0.01550
v 0.05169 -0.03877 -0.02843
v 0.03102 -0.04911 -0.05170
v 0.06204 -0.02327 -0.01291
v 0.01810 -0.04911 0.01551
v 0.06204 -0.02844 0.02584
v 0.05428 -0.03102 0.03359
v 0.02843 -0.02585 -0.04911
v 0.04652 -0.04911 0.01292
v 0.04652 -0.02327 -0.03619
v 0.05686 -0.04135 -0.01291
v 0.05944 -0.04135 0.00516
v 0.05944 -0.03619 0.02843
v 0.03877 -0.02068 0.03102
v 0.03102 -0.03877 -0.05170
v 0.03619 -0.04911 -0.04653
v 0.01551 -0.04653 -0.05170
v 0.03360 -0.02844 -0.04911
v 0.02843 -0.04911 0.01809
v 0.06204 -0.02844 -0.00001
v 0.05428 -0.02327 0.03619
v 0.05428 -0.04135 -0.02067
v 0.05686 -0.04394 -0.00517
v 0.06204 -0.02068 -0.01291
v 0.04911 -0.04911 0.00775
v 0.05944 -0.02327 -0.02067
v 0.01551 0.01550 -0.04911
v 0.06720 -0.00001 0.04911
v 0.06462 0.00258 0.04653
v 0.01551 -0.02068 0.01291
v 0.05944 -0.02068 -0.02326
v 0.02586 0.01809 0.04136
v 0.04911 0.01809 -0.01032
v 0.02068 -0.02068 -0.04394
v 0.05944 0.00258 -0.03101
v 0.04911 -0.02068 0.03619
v 0.01551 0.01809 0.01809
v 0.06462 -0.02068 0.02843
v 0.04394 0.01809 0.04653
v 0.06462 0.00258 -0.01292
v 0.02327 -0.00517 -0.05170
v 0.02844 0.01809 -0.04394
v 0.03878 -0.00775 0.04136
v 0.01551 -0.02068 -0.03877
v 0.03361 -0.02068 -0.04394
v 0.05169 0.01809 0.01033
v 0.06462 -0.01292 -0.01549
v 0.06720 -0.00775 0.04911
v 0.03102 0.01550 0.04653
v 0.05944 -0.01292 -0.03101
v 0.06720 0.00258 0.02583
v 0.01551 -0.00517 -0.05170
v 0.02327 0.00517 -0.05170
v 0.06203 0.00775 -0.01032
v 0.01551 0.01809 -0.04652
v 0.04911 -0.01292 0.04394
v 0.06720 -0.01292 0.02326
v 0.06462 -0.02068 -0.00002
v 0.05944 0.00517 -0.02842
v 0.02068 0.01550 0.03360
v 0.06203 -0.01550 0.04394
v 0.04136 -0.02068 0.03360
v 0.05686 -0.00775 -0.03359
v 0.06203 -0.00001 -0.02842
v 0.03361 0.01809 -0.03877
v 0.06203 -0.00775 0.04911
v 0.06203 -0.02068 0.03619
v 0.06720 -0.01292 0.04394
v 0.06462 -0.00517 -0.01808
v 0.06203 -0.01034 -0.02842
v 0.06462 0.00517 0.03100
v 0.02586 0.01550 0.04136
v 0.06203 -0.02068 -0.01808
v 0.01810 0.01033 -0.05170
v 0.05427 -0.01550 0.04394
v 0.03102 0.01809 0.04653
v 0.03102 0.01550 -0.04394
v 0.05169 0.01809 -0.00002
v -0.05945 0.03878 0.03619
v -0.01551 0.07754 0.05686
v -0.01551 0.07754 0.02326
v -0.01551 0.03619 0.04135
v -0.05686 0.06979 0.05686
v -0.05686 0.06462 0.02326
v -0.05686 0.04395 0.05686
v -0.01551 0.05686 0.02326
v -0.05169 0.03360 0.03361
v -0.04652 0.07496 0.02844
v -0.01551 0.06203 0.05686
v -0.03878 0.07754 0.05686
v -0.01551 0.03619 0.03361
v -0.06204 0.04912 0.04652
v -0.05428 0.05428 0.02326
v -0.04394 0.03619 0.03102
v -0.05169 0.07237 0.02326
v -0.05169 0.03360 0.03878
v -0.04911 0.04395 0.05686
v -0.04911 0.07496 0.05686
v -0.05428 0.07237 0.03102
v -0.03361 0.07754 0.03361
v -0.06204 0.04912 0.03878
v -0.05945 0.04653 0.05686
v -0.05945 0.06203 0.04135
v -0.05686 0.03878 0.03102
v -0.05945 0.03878 0.04394
v -0.04135 0.03360 0.03878
v -0.04394 0.07496 0.02326
v -0.06204 0.04395 0.03878
v -0.05945 0.06203 0.05428
v -0.05686 0.06720 0.02585
v -0.04135 0.03619 0.04394
v -0.05686 0.05945 0.02326
v -0.04135 0.05428 0.02326
v 0.01809 0.01809 0.02844
v 0.01809 0.08013 0.05686
v 0.01809 0.08013 0.05428
v -0.01551 0.03360 0.03361
v 0.03618 0.07495 0.02326
v 0.04394 0.02586 0.05686
v -0.01551 0.07754 0.02326
v -0.01551 0.06203 0.05686
v 0.04652 0.01809 0.02326
v 0.04911 0.07236 0.05686
v 0.03360 0.02069 0.05686
v -0.01551 0.07754 0.05686
v -0.01551 0.05687 0.02326
v 0.04394 0.06978 0.02585
v -0.01292 0.03103 0.03878
v 0.02584 0.01809 0.02326
v 0.04652 0.01809 0.03619
v 0.03101 0.07754 0.02844
v 0.02584 0.01809 0.04652
v -0.00775 0.08013 0.05428
v 0.04652 0.07236 0.03619
v 0.03618 0.07754 0.05686
v 0.04394 0.01809 0.04911
v -0.01551 0.03619 0.04135
v 0.02584 0.07754 0.02326
v 0.04911 0.06978 0.04911
v 0.04911 0.06462 0.05686
v 0.01552 0.02586 0.02326
v 0.04135 0.07236 0.02326
v 0.04652 0.02844 0.04911
v 0.04394 0.07495 0.04652
v 0.04652 0.06978 0.03361
v 0.01809 0.01809 0.03361
v 0.01552 0.08013 0.05169
v -0.01292 0.03103 0.03361
v -0.01292 0.03360 0.04135
v 0.04652 0.02327 0.02326
v 0.03360 0.07754 0.03361
v 0.03877 0.07495 0.02585
v -0.06203 0.00517 0.00516
v -0.06462 -0.02068 -0.04136
v -0.06462 0.00517 -0.04136
v -0.05170 -0.01550 -0.01809
v -0.06721 -0.02068 -0.00001
v -0.05170 -0.02068 0.01292
v -0.05945 0.01809 -0.02584
v -0.05170 -0.00258 0.01292
v -0.06721 0.00775 -0.02326
v -0.05687 -0.02068 -0.03877
v -0.06462 -0.00001 0.01033
v -0.05945 0.00258 -0.04136
v -0.06462 0.01809 -0.02067
v -0.06203 -0.02068 0.01292
v -0.06721 -0.02068 -0.03101
v -0.06462 0.01809 -0.03618
v -0.05945 0.01809 -0.03101
v -0.06721 0.00258 -0.03360
v -0.05170 -0.01034 -0.01551
v -0.06721 -0.00517 -0.00001
v -0.06203 0.01550 -0.01293
v -0.05687 -0.00258 -0.03618
v -0.05170 -0.02068 -0.01809
v -0.06462 0.00517 0.00516
v -0.06203 -0.00258 0.01292
v -0.05170 -0.00258 0.00516
v -0.06462 -0.02068 0.01033
v -0.05945 -0.02068 -0.04136
v -0.02843 0.01809 -0.00259
v -0.01552 -0.00517 -0.04653
v -0.02067 0.00258 -0.04394
v -0.05168 -0.02068 -0.00776
v 0.01551 -0.01809 -0.02326
v 0.01551 0.01809 -0.00259
v 0.01551 0.01809 -0.04653
v -0.02843 0.01809 -0.03360
v -0.01552 -0.02068 -0.00517
v 0.01551 -0.01809 -0.03877
v -0.03101 -0.02068 -0.03618
v -0.05168 -0.00517 -0.01293
v -0.01809 0.01292 -0.00000
v 0.01551 0.00775 -0.00259
v -0.01552 0.01809 -0.04653
v 0.01033 -0.01034 -0.04653
v -0.03618 0.01809 -0.00776
v -0.03101 0.00258 -0.03618
v -0.05168 -0.02068 -0.01552
v -0.01035 -0.02068 -0.03877
v -0.04135 -0.02068 -0.00517
v -0.04911 -0.00258 -0.00776
v -0.01035 -0.01034 -0.04653
v -0.01809 -0.00775 -0.00259
v -0.01035 -0.02068 -0.00776
v 0.01551 -0.00775 -0.04653
v -0.03618 0.01809 -0.01293
v -0.02843 0.01550 -0.03618
v -0.05168 -0.01034 -0.01552
v -0.03101 0.01550 -0.00259
v -0.01035 0.01809 -0.00000
v -0.04911 -0.00001 -0.01293
v -0.01035 0.01292 -0.00000
v -0.02843 0.00258 -0.03877
v -0.00776 -0.02068 -0.01034
v -0.05168 -0.01034 -0.00776
v -0.05168 -0.00258 0.00517
v 0.01551 0.01809 0.01551
v 0.01551 0.01809 -0.00000
v 0.01551 -0.02068 0.01292
v -0.04652 0.01809 0.01292
v -0.05168 -0.02068 0.01292
v -0.00518 -0.02068 0.00517
v -0.05168 -0.02068 0.00517
v -0.04652 0.01809 0.00517
v 0.01551 -0.02068 0.00775
v 0.01292 0.00517 0.01551
v 0.01292 0.01292 -0.00000
v -0.02325 0.01809 0.00259
v -0.05168 -0.00001 0.01292
v 0.00775 0.01809 0.01551
v 0.01551 0.01292 -0.00000
f 85 78 105 
f 50 47 51 
f 46 49 53 
f 51 47 54 
f 47 50 56 
f 48 55 57 
f 53 49 58 
f 53 43 59 
f 46 53 59 
f 44 45 61 
f 53 58 64 
f 51 54 65 
f 58 49 69 
f 66 55 69 
f 51 65 71 
f 56 50 72 
f 70 56 72 
f 59 70 72 
f 49 46 73 
f 46 63 73 
f 50 46 74 
f 46 59 74 
f 72 50 74 
f 61 45 75 
f 45 65 75 
f 46 51 76 
f 63 46 76 
f 64 58 77 
f 57 68 78 
f 46 50 79 
f 50 51 79 
f 52 66 80 
f 49 73 80 
f 73 63 80 
f 54 47 81 
f 68 54 81 
f 78 68 81 
f 44 61 82 
f 55 66 82 
f 52 60 83 
f 66 52 83 
f 76 51 84 
f 63 76 84 
f 62 78 85 
f 82 61 86 
f 55 82 86 
f 54 68 87 
f 68 61 87 
f 61 75 87 
f 47 56 88 
f 85 47 88 
f 51 71 89 
f 48 57 90 
f 77 48 90 
f 64 77 90 
f 78 62 90 
f 57 78 90 
f 69 49 91 
f 66 69 91 
f 49 80 91 
f 80 66 91 
f 62 53 92 
f 53 64 92 
f 90 62 92 
f 64 90 92 
f 51 46 93 
f 46 79 93 
f 79 51 93 
f 65 45 94 
f 45 71 94 
f 71 65 94 
f 67 83 95 
f 83 60 95 
f 84 51 95 
f 89 67 95 
f 51 89 95 
f 65 54 96 
f 75 65 96 
f 54 87 96 
f 87 75 96 
f 55 48 97 
f 69 55 97 
f 58 69 97 
f 48 77 97 
f 77 58 97 
f 57 55 98 
f 68 57 98 
f 61 68 98 
f 55 86 98 
f 86 61 98 
f 67 44 99 
f 44 82 99 
f 82 66 99 
f 83 67 99 
f 66 83 99 
f 59 72 100 
f 74 59 100 
f 72 74 100 
f 43 53 101 
f 53 62 101 
f 62 85 101 
f 85 88 101 
f 101 88 102 
f 59 43 102 
f 56 70 102 
f 70 59 102 
f 88 56 102 
f 43 101 102 
f 60 52 103 
f 52 80 103 
f 80 63 103 
f 63 84 103 
f 95 60 103 
f 84 95 103 
f 45 44 104 
f 44 67 104 
f 71 45 104 
f 67 89 104 
f 89 71 104 
f 81 47 105 
f 78 81 105 
f 47 85 105 
