# Original object name hint: convex_1
v 0.06186 -0.01259 -0.03092
v 0.07102 0.05153 0.01489
v 0.06644 0.05153 0.01489
v 0.06873 -0.03091 0.01489
v 0.05499 -0.02175 0.01489
v 0.05728 0.03321 -0.02405
v 0.07331 0.03091 -0.01947
v 0.06873 -0.02862 -0.02405
v 0.06873 0.05382 -0.02176
v 0.05728 -0.02862 -0.01947
v 0.07331 -0.00343 0.01489
v 0.05499 0.01488 0.01489
v 0.06873 0.02633 -0.03322
v 0.06415 0.05841 0.00115
v 0.07331 0.05382 0.00802
v 0.06186 -0.03551 0.00343
v 0.05728 0.02862 -0.02864
v 0.05499 -0.02405 -0.00344
v 0.07102 -0.01946 -0.01718
v 0.06186 0.04466 -0.02634
v 0.06873 0.00344 -0.03322
v 0.06186 -0.03091 -0.02634
v 0.06186 0.02633 -0.03322
v 0.07102 -0.02634 0.01260
v 0.05728 -0.02175 -0.02405
v 0.06873 -0.03320 -0.00344
v 0.07102 0.05841 0.01031
v 0.07331 0.01947 -0.01947
v 0.05728 -0.02862 0.01489
v 0.07331 0.05382 -0.00115
v 0.06415 0.05611 -0.01489
v 0.07102 0.00803 -0.02864
v 0.05957 -0.00571 -0.03092
v 0.06873 0.05841 -0.01030
v 0.06415 0.05611 0.00802
v 0.07331 0.04695 0.01489
v 0.06644 -0.03320 -0.01947
v 0.05957 -0.03320 -0.01947
v 0.05728 -0.03091 0.00802
v 0.06415 -0.02634 -0.02864
v 0.07331 -0.00343 0.00572
v 0.06644 0.04237 -0.02864
v 0.07102 0.02862 -0.02864
v 0.05957 -0.02405 -0.02864
v 0.06186 0.00344 -0.03322
v 0.05728 0.03321 -0.01718
v 0.05728 0.01032 -0.02864
v 0.07102 -0.02634 0.00343
v 0.07102 0.04695 -0.01947
v 0.06186 -0.03320 0.01260
v 0.05499 -0.01717 -0.00344
v 0.06415 -0.03551 -0.00573
v 0.06873 -0.03320 0.00802
v 0.05499 -0.02634 0.00802
v 0.06186 0.04008 0.01489
v 0.06873 -0.02405 -0.02634
v 0.06644 0.05841 0.01031
v 0.07102 0.05841 -0.00344
v 0.05728 -0.03091 -0.01030
v 0.05499 0.01488 0.01260
v 0.06415 0.05841 -0.00573
v 0.06644 0.05382 -0.02176
v 0.06873 0.04008 -0.02864
v 0.05957 0.03091 -0.03092
v 0.07330 0.02634 0.03322
v 0.03895 0.00345 0.01719
v 0.04353 0.00802 0.01489
v 0.06872 -0.02864 0.01489
v 0.07101 0.04696 0.01489
v 0.03895 0.01947 0.03780
v 0.06414 0.01030 0.04009
v 0.03895 0.02863 0.01719
v 0.05956 -0.02405 0.02177
v 0.06185 0.02634 0.03780
v 0.07330 -0.00115 0.01489
v 0.06643 0.04696 0.01719
v 0.03895 0.01488 0.03780
v 0.06872 -0.02405 0.02177
v 0.05727 -0.02634 0.01489
v 0.07101 0.01488 0.03780
v 0.03895 0.00345 0.02635
v 0.07330 0.04237 0.01489
v 0.03895 0.02863 0.02406
v 0.05499 0.01030 0.04009
v 0.07101 0.02863 0.03551
v 0.07330 0.01488 0.03322
v 0.06643 0.02175 0.04009
v 0.07101 -0.02176 0.01719
v 0.05956 -0.01718 0.02635
v 0.04353 0.02175 0.01489
v 0.05956 -0.02864 0.01719
v 0.06643 0.04696 0.01489
v 0.07101 0.04696 0.01719
v 0.05041 0.01718 0.04009
v 0.04124 0.01260 0.03780
v 0.06643 -0.02176 0.02406
v 0.06872 0.01030 0.03780
v 0.07101 0.02405 0.03780
v 0.06185 0.03092 0.03322
v 0.05727 -0.02634 0.01719
v 0.06872 -0.02864 0.01719
v 0.06185 0.02175 0.04009
v 0.02977 -0.05842 -0.01718
v -0.05039 -0.05613 -0.03780
v -0.05039 -0.05155 -0.03780
v -0.02748 -0.06300 -0.01489
v 0.01603 -0.06300 -0.03551
v -0.02061 -0.05384 -0.01489
v 0.00457 -0.05155 -0.03321
v -0.05498 -0.04926 -0.03093
v 0.02748 -0.06300 -0.01489
v -0.02519 -0.06300 -0.03551
v 0.00916 -0.05384 -0.01489
v 0.00916 -0.05613 -0.03780
v 0.02977 -0.05842 -0.03093
v -0.05039 -0.05842 -0.03093
v 0.01145 -0.06071 -0.03780
v 0.02977 -0.06300 -0.02863
v 0.00228 -0.05155 -0.02406
v -0.04581 -0.04926 -0.03551
v 0.02519 -0.05613 -0.02177
v 0.00228 -0.05384 -0.03780
v -0.02748 -0.05842 -0.01489
v -0.05268 -0.05384 -0.02863
v -0.03206 -0.06071 -0.03780
v -0.02977 -0.06300 -0.03321
v 0.02748 -0.05842 -0.03321
v -0.05498 -0.05384 -0.03551
v -0.04581 -0.05842 -0.03780
v -0.00001 -0.05155 -0.03551
v 0.02061 -0.05613 -0.01489
v 0.02519 -0.05613 -0.02863
v 0.02519 -0.06300 -0.03321
v -0.04581 -0.04926 -0.03093
v 0.00457 -0.05155 -0.02635
v -0.05268 -0.04926 -0.03551
v -0.00000 -0.05613 0.01718
v -0.02748 -0.06071 -0.01489
v -0.02748 -0.05842 -0.01489
v 0.02748 -0.06300 -0.01489
v -0.01603 -0.04468 0.01260
v -0.04123 -0.06071 0.01718
v 0.02977 -0.06300 0.01260
v 0.02061 -0.05613 -0.01489
v -0.04811 -0.05155 0.00573
v 0.03207 -0.05842 0.01260
v -0.03665 -0.06300 0.00573
v -0.02061 -0.05384 -0.01489
v -0.02748 -0.04468 0.01718
v -0.04811 -0.05842 0.00573
v -0.02519 -0.06300 -0.01489
v -0.04582 -0.05155 0.01718
v 0.00916 -0.05384 -0.01489
v -0.02748 -0.04468 0.01260
v 0.02520 -0.06300 0.01489
v -0.01603 -0.04468 0.01718
v -0.03665 -0.06300 0.01260
v 0.02748 -0.05842 -0.01489
v 0.02748 -0.05842 0.01489
v -0.04811 -0.05842 0.01489
v -0.04353 -0.05384 -0.00114
v 0.03207 -0.05842 0.00573
v -0.00230 -0.06071 0.01718
v -0.04582 -0.05842 0.00115
v -0.04353 -0.06071 0.00343
v -0.04582 -0.05155 0.00343
v -0.04811 -0.05155 0.01489
v 0.03207 -0.06071 0.00573
v -0.07331 -0.01947 -0.02864
v -0.05956 0.02175 0.02176
v -0.05956 0.02862 0.01946
v -0.07331 0.04467 0.01259
v -0.06644 0.06300 -0.02633
v -0.06186 -0.01947 -0.02864
v -0.07102 -0.02175 0.01718
v -0.07331 0.03320 -0.03550
v -0.05956 -0.02406 0.01718
v -0.06873 -0.03322 -0.02864
v -0.06415 0.02175 -0.03779
v -0.07331 -0.01489 0.01718
v -0.07331 0.05840 -0.02405
v -0.06644 0.04925 0.01259
v -0.07102 0.00803 -0.04009
v -0.07102 0.03320 0.01946
v -0.06873 -0.00802 0.02176
v -0.06415 -0.02863 -0.03092
v -0.05956 0.03092 0.01489
v -0.07102 0.06300 -0.02176
v -0.07102 -0.02634 0.00573
v -0.05956 -0.01489 0.02176
v -0.06644 0.02175 -0.04009
v -0.06415 0.03780 -0.03092
v -0.07331 -0.02406 -0.01946
v -0.07102 0.05840 -0.02864
v -0.06644 0.04467 0.01718
v -0.06873 -0.02863 0.00343
v -0.06644 0.00803 -0.04009
v -0.07102 0.04925 0.01259
v -0.05956 -0.01947 0.01031
v -0.06186 -0.01029 -0.02864
v -0.06644 -0.03322 -0.02633
v -0.06644 0.06300 -0.02176
v -0.07102 0.03320 -0.03779
v -0.06873 -0.03092 -0.03092
v -0.06415 0.04467 0.01489
v -0.07331 -0.02175 0.01031
v -0.06873 0.01717 0.02176
v -0.07331 0.03092 0.01718
v -0.07331 0.00344 -0.03550
v -0.06415 -0.03092 -0.02864
v -0.07102 -0.02634 -0.03092
v -0.06415 0.00803 -0.03779
v -0.05956 0.01261 0.01031
v -0.06644 0.05840 -0.02864
v -0.06644 -0.02406 0.01718
v -0.06415 -0.02175 0.01946
v -0.07331 0.04696 0.01031
v -0.07102 0.02175 -0.04009
v -0.05956 -0.02406 0.01259
v -0.07102 0.04237 0.01718
v -0.06644 0.05612 -0.00345
v -0.07102 -0.01718 0.01946
v -0.06644 -0.02863 0.00343
v -0.07102 -0.02406 0.01489
v -0.07102 0.06300 -0.02633
v -0.05956 0.03092 0.01718
v -0.06644 0.03092 -0.03779
v 0.03895 0.01717 0.02863
v -0.05956 -0.02635 0.01490
v -0.05269 -0.03322 0.01490
v 0.00228 0.05154 0.01031
v 0.02977 -0.02175 0.01260
v -0.04352 0.06300 0.01718
v -0.00459 0.00115 0.03093
v -0.01374 -0.04467 0.01718
v -0.05956 -0.01489 0.02176
v -0.02062 -0.04009 0.01031
v -0.05727 0.03321 0.01260
v 0.03665 0.02863 0.01490
v -0.00688 0.02176 0.03093
v -0.05956 0.02405 0.02176
v 0.03207 -0.01489 0.02176
v -0.02289 0.06300 0.01718
v 0.03895 0.02634 0.02634
v 0.01374 0.01717 0.03322
v -0.02062 0.05154 0.01031
v -0.05956 -0.02405 0.01260
v -0.02748 -0.04467 0.01718
v 0.03895 0.00344 0.01718
v -0.03206 0.06300 0.01260
v 0.00916 -0.00572 0.02863
v 0.03895 0.00802 0.02863
v 0.03436 0.01947 0.01260
v -0.00917 -0.03779 0.01031
v 0.03895 0.02863 0.02405
v -0.05956 0.03321 0.01490
v 0.00687 0.04008 0.01031
v -0.00917 0.00802 0.03093
v -0.02748 -0.04467 0.01260
v 0.03436 -0.01718 0.01718
v -0.01374 -0.04467 0.01260
v -0.05039 -0.03550 0.01718
v 0.01374 0.02405 0.03093
v -0.05039 0.04695 0.01260
v 0.01374 0.01260 0.03322
v -0.05039 -0.03550 0.01260
v 0.02977 -0.02175 0.01718
v 0.03895 0.02863 0.01718
v 0.00228 0.05154 0.01490
v -0.04352 0.06300 0.01490
v -0.02289 -0.03779 0.01031
v -0.05956 0.02176 0.01260
v -0.02289 0.06300 0.01260
v -0.05956 0.03091 0.01948
v -0.00230 0.02405 0.03093
v -0.05039 0.03321 0.02176
v 0.03436 -0.01718 0.01490
v 0.03207 0.02634 0.01260
v 0.03895 0.00344 0.02634
v -0.05956 -0.02635 0.01718
v -0.00917 0.01717 0.03093
v 0.00916 0.01717 0.03322
v 0.03436 0.01260 0.01260
v 0.00228 0.00115 0.03093
v 0.03895 0.00115 0.01948
v 0.02977 -0.01947 0.01948
f 94 87 102 
f 68 67 69 
f 67 66 72 
f 66 70 72 
f 68 69 75 
f 70 66 77 
f 66 67 79 
f 67 68 79 
f 77 66 81 
f 66 79 81 
f 65 75 82 
f 75 69 82 
f 72 70 83 
f 76 72 83 
f 70 76 83 
f 75 65 86 
f 65 80 86 
f 80 78 86 
f 71 80 87 
f 84 71 87 
f 85 74 87 
f 68 75 88 
f 75 86 88 
f 86 78 88 
f 71 84 89 
f 69 67 90 
f 67 72 90 
f 79 68 91 
f 76 69 92 
f 72 76 92 
f 69 90 92 
f 90 72 92 
f 69 76 93 
f 76 74 93 
f 65 82 93 
f 82 69 93 
f 85 65 93 
f 74 85 93 
f 70 77 94 
f 77 84 94 
f 84 87 94 
f 77 73 95 
f 84 77 95 
f 73 89 95 
f 89 84 95 
f 89 73 96 
f 71 89 96 
f 73 91 96 
f 80 71 97 
f 78 80 97 
f 71 96 97 
f 96 78 97 
f 80 65 98 
f 65 85 98 
f 87 80 98 
f 85 87 98 
f 70 74 99 
f 76 70 99 
f 74 76 99 
f 73 77 100 
f 77 81 100 
f 81 79 100 
f 91 73 100 
f 79 91 100 
f 68 88 101 
f 88 78 101 
f 91 68 101 
f 78 96 101 
f 96 91 101 
f 74 70 102 
f 87 74 102 
f 70 94 102 
