# Original object name hint: convex_4
v 0.06186 -0.01259 -0.03092
v 0.07102 0.05153 0.01489
v 0.06644 0.05153 0.01489
v 0.06873 -0.03091 0.01489
v 0.05499 -0.02175 0.01489
v 0.05728 0.03321 -0.02405
v 0.07331 0.03091 -0.01947
v 0.06873 -0.02862 -0.02405
v 0.06873 0.05382 -0.02176
v 0.05728 -0.02862 -0.01947
v 0.07331 -0.00343 0.01489
v 0.05499 0.01488 0.01489
v 0.06873 0.02633 -0.03322
v 0.06415 0.05841 0.00115
v 0.07331 0.05382 0.00802
v 0.06186 -0.03551 0.00343
v 0.05728 0.02862 -0.02864
v 0.05499 -0.02405 -0.00344
v 0.07102 -0.01946 -0.01718
v 0.06186 0.04466 -0.02634
v 0.06873 0.00344 -0.03322
v 0.06186 -0.03091 -0.02634
v 0.06186 0.02633 -0.03322
v 0.07102 -0.02634 0.01260
v 0.05728 -0.02175 -0.02405
v 0.06873 -0.03320 -0.00344
v 0.07102 0.05841 0.01031
v 0.07331 0.01947 -0.01947
v 0.05728 -0.02862 0.01489
v 0.07331 0.05382 -0.00115
v 0.06415 0.05611 -0.01489
v 0.07102 0.00803 -0.02864
v 0.05957 -0.00571 -0.03092
v 0.06873 0.05841 -0.01030
v 0.06415 0.05611 0.00802
v 0.07331 0.04695 0.01489
v 0.06644 -0.03320 -0.01947
v 0.05957 -0.03320 -0.01947
v 0.05728 -0.03091 0.00802
v 0.06415 -0.02634 -0.02864
v 0.07331 -0.00343 0.00572
v 0.06644 0.04237 -0.02864
v 0.07102 0.02862 -0.02864
v 0.05957 -0.02405 -0.02864
v 0.06186 0.00344 -0.03322
v 0.05728 0.03321 -0.01718
v 0.05728 0.01032 -0.02864
v 0.07102 -0.02634 0.00343
v 0.07102 0.04695 -0.01947
v 0.06186 -0.03320 0.01260
v 0.05499 -0.01717 -0.00344
v 0.06415 -0.03551 -0.00573
v 0.06873 -0.03320 0.00802
v 0.05499 -0.02634 0.00802
v 0.06186 0.04008 0.01489
v 0.06873 -0.02405 -0.02634
v 0.06644 0.05841 0.01031
v 0.07102 0.05841 -0.00344
v 0.05728 -0.03091 -0.01030
v 0.05499 0.01488 0.01260
v 0.06415 0.05841 -0.00573
v 0.06644 0.05382 -0.02176
v 0.06873 0.04008 -0.02864
v 0.05957 0.03091 -0.03092
v 0.07330 0.02634 0.03322
v 0.03895 0.00345 0.01719
v 0.04353 0.00802 0.01489
v 0.06872 -0.02864 0.01489
v 0.07101 0.04696 0.01489
v 0.03895 0.01947 0.03780
v 0.06414 0.01030 0.04009
v 0.03895 0.02863 0.01719
v 0.05956 -0.02405 0.02177
v 0.06185 0.02634 0.03780
v 0.07330 -0.00115 0.01489
v 0.06643 0.04696 0.01719
v 0.03895 0.01488 0.03780
v 0.06872 -0.02405 0.02177
v 0.05727 -0.02634 0.01489
v 0.07101 0.01488 0.03780
v 0.03895 0.00345 0.02635
v 0.07330 0.04237 0.01489
v 0.03895 0.02863 0.02406
v 0.05499 0.01030 0.04009
v 0.07101 0.02863 0.03551
v 0.07330 0.01488 0.03322
v 0.06643 0.02175 0.04009
v 0.07101 -0.02176 0.01719
v 0.05956 -0.01718 0.02635
v 0.04353 0.02175 0.01489
v 0.05956 -0.02864 0.01719
v 0.06643 0.04696 0.01489
v 0.07101 0.04696 0.01719
v 0.05041 0.01718 0.04009
v 0.04124 0.01260 0.03780
v 0.06643 -0.02176 0.02406
v 0.06872 0.01030 0.03780
v 0.07101 0.02405 0.03780
v 0.06185 0.03092 0.03322
v 0.05727 -0.02634 0.01719
v 0.06872 -0.02864 0.01719
v 0.06185 0.02175 0.04009
v 0.02977 -0.05842 -0.01718
v -0.05039 -0.05613 -0.03780
v -0.05039 -0.05155 -0.03780
v -0.02748 -0.06300 -0.01489
v 0.01603 -0.06300 -0.03551
v -0.02061 -0.05384 -0.01489
v 0.00457 -0.05155 -0.03321
v -0.05498 -0.04926 -0.03093
v 0.02748 -0.06300 -0.01489
v -0.02519 -0.06300 -0.03551
v 0.00916 -0.05384 -0.01489
v 0.00916 -0.05613 -0.03780
v 0.02977 -0.05842 -0.03093
v -0.05039 -0.05842 -0.03093
v 0.01145 -0.06071 -0.03780
v 0.02977 -0.06300 -0.02863
v 0.00228 -0.05155 -0.02406
v -0.04581 -0.04926 -0.03551
v 0.02519 -0.05613 -0.02177
v 0.00228 -0.05384 -0.03780
v -0.02748 -0.05842 -0.01489
v -0.05268 -0.05384 -0.02863
v -0.03206 -0.06071 -0.03780
v -0.02977 -0.06300 -0.03321
v 0.02748 -0.05842 -0.03321
v -0.05498 -0.05384 -0.03551
v -0.04581 -0.05842 -0.03780
v -0.00001 -0.05155 -0.03551
v 0.02061 -0.05613 -0.01489
v 0.02519 -0.05613 -0.02863
v 0.02519 -0.06300 -0.03321
v -0.04581 -0.04926 -0.03093
v 0.00457 -0.05155 -0.02635
v -0.05268 -0.04926 -0.03551
v -0.00000 -0.05613 0.01718
v -0.02748 -0.06071 -0.01489
v -0.02748 -0.05842 -0.01489
v 0.02748 -0.06300 -0.01489
v -0.01603 -0.04468 0.01260
v -0.04123 -0.06071 0.01718
v 0.02977 -0.06300 0.01260
v 0.02061 -0.05613 -0.01489
v -0.04811 -0.05155 0.00573
v 0.03207 -0.05842 0.01260
v -0.03665 -0.06300 0.00573
v -0.02061 -0.05384 -0.01489
v -0.02748 -0.04468 0.01718
v -0.04811 -0.05842 0.00573
v -0.02519 -0.06300 -0.01489
v -0.04582 -0.05155 0.01718
v 0.00916 -0.05384 -0.01489
v -0.02748 -0.04468 0.01260
v 0.02520 -0.06300 0.01489
v -0.01603 -0.04468 0.01718
v -0.03665 -0.06300 0.01260
v 0.02748 -0.05842 -0.01489
v 0.02748 -0.05842 0.01489
v -0.04811 -0.05842 0.01489
v -0.04353 -0.05384 -0.00114
v 0.03207 -0.05842 0.00573
v -0.00230 -0.06071 0.01718
v -0.04582 -0.05842 0.00115
v -0.04353 -0.06071 0.00343
v -0.04582 -0.05155 0.00343
v -0.04811 -0.05155 0.01489
v 0.03207 -0.06071 0.00573
v -0.07331 -0.01947 -0.02864
v -0.05956 0.02175 0.02176
v -0.05956 0.02862 0.01946
v -0.07331 0.04467 0.01259
v -0.06644 0.06300 -0.02633
v -0.06186 -0.01947 -0.02864
v -0.07102 -0.02175 0.01718
v -0.07331 0.03320 -0.03550
v -0.05956 -0.02406 0.01718
v -0.06873 -0.03322 -0.02864
v -0.06415 0.02175 -0.03779
v -0.07331 -0.01489 0.01718
v -0.07331 0.05840 -0.02405
v -0.06644 0.04925 0.01259
v -0.07102 0.00803 -0.04009
v -0.07102 0.03320 0.01946
v -0.06873 -0.00802 0.02176
v -0.06415 -0.02863 -0.03092
v -0.05956 0.03092 0.01489
v -0.07102 0.06300 -0.02176
v -0.07102 -0.02634 0.00573
v -0.05956 -0.01489 0.02176
v -0.06644 0.02175 -0.04009
v -0.06415 0.03780 -0.03092
v -0.07331 -0.02406 -0.01946
v -0.07102 0.05840 -0.02864
v -0.06644 0.04467 0.01718
v -0.06873 -0.02863 0.00343
v -0.06644 0.00803 -0.04009
v -0.07102 0.04925 0.01259
v -0.05956 -0.01947 0.01031
v -0.06186 -0.01029 -0.02864
v -0.06644 -0.03322 -0.02633
v -0.06644 0.06300 -0.02176
v -0.07102 0.03320 -0.03779
v -0.06873 -0.03092 -0.03092
v -0.06415 0.04467 0.01489
v -0.07331 -0.02175 0.01031
v -0.06873 0.01717 0.02176
v -0.07331 0.03092 0.01718
v -0.07331 0.00344 -0.03550
v -0.06415 -0.03092 -0.02864
v -0.07102 -0.02634 -0.03092
v -0.06415 0.00803 -0.03779
v -0.05956 0.01261 0.01031
v -0.06644 0.05840 -0.02864
v -0.06644 -0.02406 0.01718
v -0.06415 -0.02175 0.01946
v -0.07331 0.04696 0.01031
v -0.07102 0.02175 -0.04009
v -0.05956 -0.02406 0.01259
v -0.07102 0.04237 0.01718
v -0.06644 0.05612 -0.00345
v -0.07102 -0.01718 0.01946
v -0.06644 -0.02863 0.00343
v -0.07102 -0.02406 0.01489
v -0.07102 0.06300 -0.02633
v -0.05956 0.03092 0.01718
v -0.06644 0.03092 -0.03779
v 0.03895 0.01717 0.02863
v -0.05956 -0.02635 0.01490
v -0.05269 -0.03322 0.01490
v 0.00228 0.05154 0.01031
v 0.02977 -0.02175 0.01260
v -0.04352 0.06300 0.01718
v -0.00459 0.00115 0.03093
v -0.01374 -0.04467 0.01718
v -0.05956 -0.01489 0.02176
v -0.02062 -0.04009 0.01031
v -0.05727 0.03321 0.01260
v 0.03665 0.02863 0.01490
v -0.00688 0.02176 0.03093
v -0.05956 0.02405 0.02176
v 0.03207 -0.01489 0.02176
v -0.02289 0.06300 0.01718
v 0.03895 0.02634 0.02634
v 0.01374 0.01717 0.03322
v -0.02062 0.05154 0.01031
v -0.05956 -0.02405 0.01260
v -0.02748 -0.04467 0.01718
v 0.03895 0.00344 0.01718
v -0.03206 0.06300 0.01260
v 0.00916 -0.00572 0.02863
v 0.03895 0.00802 0.02863
v 0.03436 0.01947 0.01260
v -0.00917 -0.03779 0.01031
v 0.03895 0.02863 0.02405
v -0.05956 0.03321 0.01490
v 0.00687 0.04008 0.01031
v -0.00917 0.00802 0.03093
v -0.02748 -0.04467 0.01260
v 0.03436 -0.01718 0.01718
v -0.01374 -0.04467 0.01260
v -0.05039 -0.03550 0.01718
v 0.01374 0.02405 0.03093
v -0.05039 0.04695 0.01260
v 0.01374 0.01260 0.03322
v -0.05039 -0.03550 0.01260
v 0.02977 -0.02175 0.01718
v 0.03895 0.02863 0.01718
v 0.00228 0.05154 0.01490
v -0.04352 0.06300 0.01490
v -0.02289 -0.03779 0.01031
v -0.05956 0.02176 0.01260
v -0.02289 0.06300 0.01260
v -0.05956 0.03091 0.01948
v -0.00230 0.02405 0.03093
v -0.05039 0.03321 0.02176
v 0.03436 -0.01718 0.01490
v 0.03207 0.02634 0.01260
v 0.03895 0.00344 0.02634
v -0.05956 -0.02635 0.01718
v -0.00917 0.01717 0.03093
v 0.00916 0.01717 0.03322
v 0.03436 0.01260 0.01260
v 0.00228 0.00115 0.03093
v 0.03895 0.00115 0.01948
v 0.02977 -0.01947 0.01948
f 203 214 227 
f 169 172 176 
f 171 170 177 
f 172 169 180 
f 176 172 181 
f 171 177 187 
f 177 170 190 
f 170 185 190 
f 173 187 192 
f 180 169 193 
f 178 189 193 
f 176 181 194 
f 170 171 195 
f 184 170 195 
f 189 178 196 
f 191 179 197 
f 183 191 197 
f 195 182 198 
f 187 177 199 
f 174 179 200 
f 179 192 200 
f 192 187 200 
f 199 174 200 
f 196 178 201 
f 187 173 202 
f 173 188 202 
f 176 194 203 
f 186 178 204 
f 197 186 204 
f 183 197 204 
f 195 171 205 
f 182 195 205 
f 180 193 206 
f 193 189 206 
f 170 184 207 
f 185 170 207 
f 180 185 207 
f 172 180 208 
f 207 184 208 
f 180 207 208 
f 169 176 209 
f 176 183 209 
f 186 174 210 
f 178 186 210 
f 177 201 210 
f 201 178 210 
f 193 169 211 
f 178 193 211 
f 204 178 211 
f 183 204 211 
f 169 209 211 
f 209 183 211 
f 179 174 212 
f 174 186 212 
f 197 179 212 
f 186 197 212 
f 187 199 213 
f 200 187 213 
f 199 200 213 
f 173 192 214 
f 192 179 214 
f 194 173 214 
f 203 194 214 
f 196 177 215 
f 177 190 216 
f 215 177 216 
f 175 215 216 
f 181 172 217 
f 188 181 217 
f 172 198 217 
f 198 188 217 
f 183 176 218 
f 191 183 218 
f 176 203 218 
f 203 191 218 
f 174 199 219 
f 199 177 219 
f 210 174 219 
f 177 210 219 
f 184 195 220 
f 198 172 220 
f 195 198 220 
f 172 208 220 
f 208 184 220 
f 188 198 221 
f 198 182 221 
f 202 188 221 
f 182 205 221 
f 205 202 221 
f 180 175 222 
f 185 180 222 
f 190 185 222 
f 175 216 222 
f 216 190 222 
f 177 196 223 
f 201 177 223 
f 196 201 223 
f 175 180 224 
f 189 196 224 
f 180 206 224 
f 206 189 224 
f 215 175 224 
f 196 215 224 
f 181 188 225 
f 188 173 225 
f 194 181 225 
f 173 194 225 
f 171 187 226 
f 187 202 226 
f 205 171 226 
f 202 205 226 
f 179 191 227 
f 191 203 227 
f 214 179 227 
