# Original object name hint: convex_3
v 0.06186 -0.01259 -0.03092
v 0.07102 0.05153 0.01489
v 0.06644 0.05153 0.01489
v 0.06873 -0.03091 0.01489
v 0.05499 -0.02175 0.01489
v 0.05728 0.03321 -0.02405
v 0.07331 0.03091 -0.01947
v 0.06873 -0.02862 -0.02405
v 0.06873 0.05382 -0.02176
v 0.05728 -0.02862 -0.01947
v 0.07331 -0.00343 0.01489
v 0.05499 0.01488 0.01489
v 0.06873 0.02633 -0.03322
v 0.06415 0.05841 0.00115
v 0.07331 0.05382 0.00802
v 0.06186 -0.03551 0.00343
v 0.05728 0.02862 -0.02864
v 0.05499 -0.02405 -0.00344
v 0.07102 -0.01946 -0.01718
v 0.06186 0.04466 -0.02634
v 0.06873 0.00344 -0.03322
v 0.06186 -0.03091 -0.02634
v 0.06186 0.02633 -0.03322
v 0.07102 -0.02634 0.01260
v 0.05728 -0.02175 -0.02405
v 0.06873 -0.03320 -0.00344
v 0.07102 0.05841 0.01031
v 0.07331 0.01947 -0.01947
v 0.05728 -0.02862 0.01489
v 0.07331 0.05382 -0.00115
v 0.06415 0.05611 -0.01489
v 0.07102 0.00803 -0.02864
v 0.05957 -0.00571 -0.03092
v 0.06873 0.05841 -0.01030
v 0.06415 0.05611 0.00802
v 0.07331 0.04695 0.01489
v 0.06644 -0.03320 -0.01947
v 0.05957 -0.03320 -0.01947
v 0.05728 -0.03091 0.00802
v 0.06415 -0.02634 -0.02864
v 0.07331 -0.00343 0.00572
v 0.06644 0.04237 -0.02864
v 0.07102 0.02862 -0.02864
v 0.05957 -0.02405 -0.02864
v 0.06186 0.00344 -0.03322
v 0.05728 0.03321 -0.01718
v 0.05728 0.01032 -0.02864
v 0.07102 -0.02634 0.00343
v 0.07102 0.04695 -0.01947
v 0.06186 -0.03320 0.01260
v 0.05499 -0.01717 -0.00344
v 0.06415 -0.03551 -0.00573
v 0.06873 -0.03320 0.00802
v 0.05499 -0.02634 0.00802
v 0.06186 0.04008 0.01489
v 0.06873 -0.02405 -0.02634
v 0.06644 0.05841 0.01031
v 0.07102 0.05841 -0.00344
v 0.05728 -0.03091 -0.01030
v 0.05499 0.01488 0.01260
v 0.06415 0.05841 -0.00573
v 0.06644 0.05382 -0.02176
v 0.06873 0.04008 -0.02864
v 0.05957 0.03091 -0.03092
v 0.07330 0.02634 0.03322
v 0.03895 0.00345 0.01719
v 0.04353 0.00802 0.01489
v 0.06872 -0.02864 0.01489
v 0.07101 0.04696 0.01489
v 0.03895 0.01947 0.03780
v 0.06414 0.01030 0.04009
v 0.03895 0.02863 0.01719
v 0.05956 -0.02405 0.02177
v 0.06185 0.02634 0.03780
v 0.07330 -0.00115 0.01489
v 0.06643 0.04696 0.01719
v 0.03895 0.01488 0.03780
v 0.06872 -0.02405 0.02177
v 0.05727 -0.02634 0.01489
v 0.07101 0.01488 0.03780
v 0.03895 0.00345 0.02635
v 0.07330 0.04237 0.01489
v 0.03895 0.02863 0.02406
v 0.05499 0.01030 0.04009
v 0.07101 0.02863 0.03551
v 0.07330 0.01488 0.03322
v 0.06643 0.02175 0.04009
v 0.07101 -0.02176 0.01719
v 0.05956 -0.01718 0.02635
v 0.04353 0.02175 0.01489
v 0.05956 -0.02864 0.01719
v 0.06643 0.04696 0.01489
v 0.07101 0.04696 0.01719
v 0.05041 0.01718 0.04009
v 0.04124 0.01260 0.03780
v 0.06643 -0.02176 0.02406
v 0.06872 0.01030 0.03780
v 0.07101 0.02405 0.03780
v 0.06185 0.03092 0.03322
v 0.05727 -0.02634 0.01719
v 0.06872 -0.02864 0.01719
v 0.06185 0.02175 0.04009
v 0.02977 -0.05842 -0.01718
v -0.05039 -0.05613 -0.03780
v -0.05039 -0.05155 -0.03780
v -0.02748 -0.06300 -0.01489
v 0.01603 -0.06300 -0.03551
v -0.02061 -0.05384 -0.01489
v 0.00457 -0.05155 -0.03321
v -0.05498 -0.04926 -0.03093
v 0.02748 -0.06300 -0.01489
v -0.02519 -0.06300 -0.03551
v 0.00916 -0.05384 -0.01489
v 0.00916 -0.05613 -0.03780
v 0.02977 -0.05842 -0.03093
v -0.05039 -0.05842 -0.03093
v 0.01145 -0.06071 -0.03780
v 0.02977 -0.06300 -0.02863
v 0.00228 -0.05155 -0.02406
v -0.04581 -0.04926 -0.03551
v 0.02519 -0.05613 -0.02177
v 0.00228 -0.05384 -0.03780
v -0.02748 -0.05842 -0.01489
v -0.05268 -0.05384 -0.02863
v -0.03206 -0.06071 -0.03780
v -0.02977 -0.06300 -0.03321
v 0.02748 -0.05842 -0.03321
v -0.05498 -0.05384 -0.03551
v -0.04581 -0.05842 -0.03780
v -0.00001 -0.05155 -0.03551
v 0.02061 -0.05613 -0.01489
v 0.02519 -0.05613 -0.02863
v 0.02519 -0.06300 -0.03321
v -0.04581 -0.04926 -0.03093
v 0.00457 -0.05155 -0.02635
v -0.05268 -0.04926 -0.03551
v -0.00000 -0.05613 0.01718
v -0.02748 -0.06071 -0.01489
v -0.02748 -0.05842 -0.01489
v 0.02748 -0.06300 -0.01489
v -0.01603 -0.04468 0.01260
v -0.04123 -0.06071 0.01718
v 0.02977 -0.06300 0.01260
v 0.02061 -0.05613 -0.01489
v -0.04811 -0.05155 0.00573
v 0.03207 -0.05842 0.01260
v -0.03665 -0.06300 0.00573
v -0.02061 -0.05384 -0.01489
v -0.02748 -0.04468 0.01718
v -0.04811 -0.05842 0.00573
v -0.02519 -0.06300 -0.01489
v -0.04582 -0.05155 0.01718
v 0.00916 -0.05384 -0.01489
v -0.02748 -0.04468 0.01260
v 0.02520 -0.06300 0.01489
v -0.01603 -0.04468 0.01718
v -0.03665 -0.06300 0.01260
v 0.02748 -0.05842 -0.01489
v 0.02748 -0.05842 0.01489
v -0.04811 -0.05842 0.01489
v -0.04353 -0.05384 -0.00114
v 0.03207 -0.05842 0.00573
v -0.00230 -0.06071 0.01718
v -0.04582 -0.05842 0.00115
v -0.04353 -0.06071 0.00343
v -0.04582 -0.05155 0.00343
v -0.04811 -0.05155 0.01489
v 0.03207 -0.06071 0.00573
v -0.07331 -0.01947 -0.02864
v -0.05956 0.02175 0.02176
v -0.05956 0.02862 0.01946
v -0.07331 0.04467 0.01259
v -0.06644 0.06300 -0.02633
v -0.06186 -0.01947 -0.02864
v -0.07102 -0.02175 0.01718
v -0.07331 0.03320 -0.03550
v -0.05956 -0.02406 0.01718
v -0.06873 -0.03322 -0.02864
v -0.06415 0.02175 -0.03779
v -0.07331 -0.01489 0.01718
v -0.07331 0.05840 -0.02405
v -0.06644 0.04925 0.01259
v -0.07102 0.00803 -0.04009
v -0.07102 0.03320 0.01946
v -0.06873 -0.00802 0.02176
v -0.06415 -0.02863 -0.03092
v -0.05956 0.03092 0.01489
v -0.07102 0.06300 -0.02176
v -0.07102 -0.02634 0.00573
v -0.05956 -0.01489 0.02176
v -0.06644 0.02175 -0.04009
v -0.06415 0.03780 -0.03092
v -0.07331 -0.02406 -0.01946
v -0.07102 0.05840 -0.02864
v -0.06644 0.04467 0.01718
v -0.06873 -0.02863 0.00343
v -0.06644 0.00803 -0.04009
v -0.07102 0.04925 0.01259
v -0.05956 -0.01947 0.01031
v -0.06186 -0.01029 -0.02864
v -0.06644 -0.03322 -0.02633
v -0.06644 0.06300 -0.02176
v -0.07102 0.03320 -0.03779
v -0.06873 -0.03092 -0.03092
v -0.06415 0.04467 0.01489
v -0.07331 -0.02175 0.01031
v -0.06873 0.01717 0.02176
v -0.07331 0.03092 0.01718
v -0.07331 0.00344 -0.03550
v -0.06415 -0.03092 -0.02864
v -0.07102 -0.02634 -0.03092
v -0.06415 0.00803 -0.03779
v -0.05956 0.01261 0.01031
v -0.06644 0.05840 -0.02864
v -0.06644 -0.02406 0.01718
v -0.06415 -0.02175 0.01946
v -0.07331 0.04696 0.01031
v -0.07102 0.02175 -0.04009
v -0.05956 -0.02406 0.01259
v -0.07102 0.04237 0.01718
v -0.06644 0.05612 -0.00345
v -0.07102 -0.01718 0.01946
v -0.06644 -0.02863 0.00343
v -0.07102 -0.02406 0.01489
v -0.07102 0.06300 -0.02633
v -0.05956 0.03092 0.01718
v -0.06644 0.03092 -0.03779
v 0.03895 0.01717 0.02863
v -0.05956 -0.02635 0.01490
v -0.05269 -0.03322 0.01490
v 0.00228 0.05154 0.01031
v 0.02977 -0.02175 0.01260
v -0.04352 0.06300 0.01718
v -0.00459 0.00115 0.03093
v -0.01374 -0.04467 0.01718
v -0.05956 -0.01489 0.02176
v -0.02062 -0.04009 0.01031
v -0.05727 0.03321 0.01260
v 0.03665 0.02863 0.01490
v -0.00688 0.02176 0.03093
v -0.05956 0.02405 0.02176
v 0.03207 -0.01489 0.02176
v -0.02289 0.06300 0.01718
v 0.03895 0.02634 0.02634
v 0.01374 0.01717 0.03322
v -0.02062 0.05154 0.01031
v -0.05956 -0.02405 0.01260
v -0.02748 -0.04467 0.01718
v 0.03895 0.00344 0.01718
v -0.03206 0.06300 0.01260
v 0.00916 -0.00572 0.02863
v 0.03895 0.00802 0.02863
v 0.03436 0.01947 0.01260
v -0.00917 -0.03779 0.01031
v 0.03895 0.02863 0.02405
v -0.05956 0.03321 0.01490
v 0.00687 0.04008 0.01031
v -0.00917 0.00802 0.03093
v -0.02748 -0.04467 0.01260
v 0.03436 -0.01718 0.01718
v -0.01374 -0.04467 0.01260
v -0.05039 -0.03550 0.01718
v 0.01374 0.02405 0.03093
v -0.05039 0.04695 0.01260
v 0.01374 0.01260 0.03322
v -0.05039 -0.03550 0.01260
v 0.02977 -0.02175 0.01718
v 0.03895 0.02863 0.01718
v 0.00228 0.05154 0.01490
v -0.04352 0.06300 0.01490
v -0.02289 -0.03779 0.01031
v -0.05956 0.02176 0.01260
v -0.02289 0.06300 0.01260
v -0.05956 0.03091 0.01948
v -0.00230 0.02405 0.03093
v -0.05039 0.03321 0.02176
v 0.03436 -0.01718 0.01490
v 0.03207 0.02634 0.01260
v 0.03895 0.00344 0.02634
v -0.05956 -0.02635 0.01718
v -0.00917 0.01717 0.03093
v 0.00916 0.01717 0.03322
v 0.03436 0.01260 0.01260
v 0.00228 0.00115 0.03093
v 0.03895 0.00115 0.01948
v 0.02977 -0.01947 0.01948
f 162 146 168 
f 138 139 140 
f 140 139 144 
f 140 143 147 
f 144 139 148 
f 142 137 149 
f 138 140 151 
f 140 147 151 
f 142 149 152 
f 141 144 153 
f 144 148 153 
f 148 141 153 
f 141 148 154 
f 145 149 154 
f 149 141 154 
f 143 146 155 
f 147 143 155 
f 146 141 156 
f 149 137 156 
f 141 149 156 
f 155 142 157 
f 147 155 157 
f 140 144 158 
f 137 155 159 
f 155 146 159 
f 146 156 159 
f 156 137 159 
f 145 150 160 
f 142 152 160 
f 157 142 160 
f 139 138 161 
f 148 139 161 
f 144 141 162 
f 141 146 162 
f 140 158 162 
f 158 144 162 
f 137 142 163 
f 155 137 163 
f 142 155 163 
f 150 145 164 
f 138 151 164 
f 161 138 164 
f 145 161 164 
f 151 147 165 
f 147 157 165 
f 160 150 165 
f 157 160 165 
f 150 164 165 
f 164 151 165 
f 154 148 166 
f 145 154 166 
f 148 161 166 
f 161 145 166 
f 149 145 167 
f 152 149 167 
f 145 160 167 
f 160 152 167 
f 143 140 168 
f 146 143 168 
f 140 162 168 
