# Original object name hint: convex_0
v 0.06186 -0.01259 -0.03092
v 0.07102 0.05153 0.01489
v 0.06644 0.05153 0.01489
v 0.06873 -0.03091 0.01489
v 0.05499 -0.02175 0.01489
v 0.05728 0.03321 -0.02405
v 0.07331 0.03091 -0.01947
v 0.06873 -0.02862 -0.02405
v 0.06873 0.05382 -0.02176
v 0.05728 -0.02862 -0.01947
v 0.07331 -0.00343 0.01489
v 0.05499 0.01488 0.01489
v 0.06873 0.02633 -0.03322
v 0.06415 0.05841 0.00115
v 0.07331 0.05382 0.00802
v 0.06186 -0.03551 0.00343
v 0.05728 0.02862 -0.02864
v 0.05499 -0.02405 -0.00344
v 0.07102 -0.01946 -0.01718
v 0.06186 0.04466 -0.02634
v 0.06873 0.00344 -0.03322
v 0.06186 -0.03091 -0.02634
v 0.06186 0.02633 -0.03322
v 0.07102 -0.02634 0.01260
v 0.05728 -0.02175 -0.02405
v 0.06873 -0.03320 -0.00344
v 0.07102 0.05841 0.01031
v 0.07331 0.01947 -0.01947
v 0.05728 -0.02862 0.01489
v 0.07331 0.05382 -0.00115
v 0.06415 0.05611 -0.01489
v 0.07102 0.00803 -0.02864
v 0.05957 -0.00571 -0.03092
v 0.06873 0.05841 -0.01030
v 0.06415 0.05611 0.00802
v 0.07331 0.04695 0.01489
v 0.06644 -0.03320 -0.01947
v 0.05957 -0.03320 -0.01947
v 0.05728 -0.03091 0.00802
v 0.06415 -0.02634 -0.02864
v 0.07331 -0.00343 0.00572
v 0.06644 0.04237 -0.02864
v 0.07102 0.02862 -0.02864
v 0.05957 -0.02405 -0.02864
v 0.06186 0.00344 -0.03322
v 0.05728 0.03321 -0.01718
v 0.05728 0.01032 -0.02864
v 0.07102 -0.02634 0.00343
v 0.07102 0.04695 -0.01947
v 0.06186 -0.03320 0.01260
v 0.05499 -0.01717 -0.00344
v 0.06415 -0.03551 -0.00573
v 0.06873 -0.03320 0.00802
v 0.05499 -0.02634 0.00802
v 0.06186 0.04008 0.01489
v 0.06873 -0.02405 -0.02634
v 0.06644 0.05841 0.01031
v 0.07102 0.05841 -0.00344
v 0.05728 -0.03091 -0.01030
v 0.05499 0.01488 0.01260
v 0.06415 0.05841 -0.00573
v 0.06644 0.05382 -0.02176
v 0.06873 0.04008 -0.02864
v 0.05957 0.03091 -0.03092
v 0.07330 0.02634 0.03322
v 0.03895 0.00345 0.01719
v 0.04353 0.00802 0.01489
v 0.06872 -0.02864 0.01489
v 0.07101 0.04696 0.01489
v 0.03895 0.01947 0.03780
v 0.06414 0.01030 0.04009
v 0.03895 0.02863 0.01719
v 0.05956 -0.02405 0.02177
v 0.06185 0.02634 0.03780
v 0.07330 -0.00115 0.01489
v 0.06643 0.04696 0.01719
v 0.03895 0.01488 0.03780
v 0.06872 -0.02405 0.02177
v 0.05727 -0.02634 0.01489
v 0.07101 0.01488 0.03780
v 0.03895 0.00345 0.02635
v 0.07330 0.04237 0.01489
v 0.03895 0.02863 0.02406
v 0.05499 0.01030 0.04009
v 0.07101 0.02863 0.03551
v 0.07330 0.01488 0.03322
v 0.06643 0.02175 0.04009
v 0.07101 -0.02176 0.01719
v 0.05956 -0.01718 0.02635
v 0.04353 0.02175 0.01489
v 0.05956 -0.02864 0.01719
v 0.06643 0.04696 0.01489
v 0.07101 0.04696 0.01719
v 0.05041 0.01718 0.04009
v 0.04124 0.01260 0.03780
v 0.06643 -0.02176 0.02406
v 0.06872 0.01030 0.03780
v 0.07101 0.02405 0.03780
v 0.06185 0.03092 0.03322
v 0.05727 -0.02634 0.01719
v 0.06872 -0.02864 0.01719
v 0.06185 0.02175 0.04009
v 0.02977 -0.05842 -0.01718
v -0.05039 -0.05613 -0.03780
v -0.05039 -0.05155 -0.03780
v -0.02748 -0.06300 -0.01489
v 0.01603 -0.06300 -0.03551
v -0.02061 -0.05384 -0.01489
v 0.00457 -0.05155 -0.03321
v -0.05498 -0.04926 -0.03093
v 0.02748 -0.06300 -0.01489
v -0.02519 -0.06300 -0.03551
v 0.00916 -0.05384 -0.01489
v 0.00916 -0.05613 -0.03780
v 0.02977 -0.05842 -0.03093
v -0.05039 -0.05842 -0.03093
v 0.01145 -0.06071 -0.03780
v 0.02977 -0.06300 -0.02863
v 0.00228 -0.05155 -0.02406
v -0.04581 -0.04926 -0.03551
v 0.02519 -0.05613 -0.02177
v 0.00228 -0.05384 -0.03780
v -0.02748 -0.05842 -0.01489
v -0.05268 -0.05384 -0.02863
v -0.03206 -0.06071 -0.03780
v -0.02977 -0.06300 -0.03321
v 0.02748 -0.05842 -0.03321
v -0.05498 -0.05384 -0.03551
v -0.04581 -0.05842 -0.03780
v -0.00001 -0.05155 -0.03551
v 0.02061 -0.05613 -0.01489
v 0.02519 -0.05613 -0.02863
v 0.02519 -0.06300 -0.03321
v -0.04581 -0.04926 -0.03093
v 0.00457 -0.05155 -0.02635
v -0.05268 -0.04926 -0.03551
v -0.00000 -0.05613 0.01718
v -0.02748 -0.06071 -0.01489
v -0.02748 -0.05842 -0.01489
v 0.02748 -0.06300 -0.01489
v -0.01603 -0.04468 0.01260
v -0.04123 -0.06071 0.01718
v 0.02977 -0.06300 0.01260
v 0.02061 -0.05613 -0.01489
v -0.04811 -0.05155 0.00573
v 0.03207 -0.05842 0.01260
v -0.03665 -0.06300 0.00573
v -0.02061 -0.05384 -0.01489
v -0.02748 -0.04468 0.01718
v -0.04811 -0.05842 0.00573
v -0.02519 -0.06300 -0.01489
v -0.04582 -0.05155 0.01718
v 0.00916 -0.05384 -0.01489
v -0.02748 -0.04468 0.01260
v 0.02520 -0.06300 0.01489
v -0.01603 -0.04468 0.01718
v -0.03665 -0.06300 0.01260
v 0.02748 -0.05842 -0.01489
v 0.02748 -0.05842 0.01489
v -0.04811 -0.05842 0.01489
v -0.04353 -0.05384 -0.00114
v 0.03207 -0.05842 0.00573
v -0.00230 -0.06071 0.01718
v -0.04582 -0.05842 0.00115
v -0.04353 -0.06071 0.00343
v -0.04582 -0.05155 0.00343
v -0.04811 -0.05155 0.01489
v 0.03207 -0.06071 0.00573
v -0.07331 -0.01947 -0.02864
v -0.05956 0.02175 0.02176
v -0.05956 0.02862 0.01946
v -0.07331 0.04467 0.01259
v -0.06644 0.06300 -0.02633
v -0.06186 -0.01947 -0.02864
v -0.07102 -0.02175 0.01718
v -0.07331 0.03320 -0.03550
v -0.05956 -0.02406 0.01718
v -0.06873 -0.03322 -0.02864
v -0.06415 0.02175 -0.03779
v -0.07331 -0.01489 0.01718
v -0.07331 0.05840 -0.02405
v -0.06644 0.04925 0.01259
v -0.07102 0.00803 -0.04009
v -0.07102 0.03320 0.01946
v -0.06873 -0.00802 0.02176
v -0.06415 -0.02863 -0.03092
v -0.05956 0.03092 0.01489
v -0.07102 0.06300 -0.02176
v -0.07102 -0.02634 0.00573
v -0.05956 -0.01489 0.02176
v -0.06644 0.02175 -0.04009
v -0.06415 0.03780 -0.03092
v -0.07331 -0.02406 -0.01946
v -0.07102 0.05840 -0.02864
v -0.06644 0.04467 0.01718
v -0.06873 -0.02863 0.00343
v -0.06644 0.00803 -0.04009
v -0.07102 0.04925 0.01259
v -0.05956 -0.01947 0.01031
v -0.06186 -0.01029 -0.02864
v -0.06644 -0.03322 -0.02633
v -0.06644 0.06300 -0.02176
v -0.07102 0.03320 -0.03779
v -0.06873 -0.03092 -0.03092
v -0.06415 0.04467 0.01489
v -0.07331 -0.02175 0.01031
v -0.06873 0.01717 0.02176
v -0.07331 0.03092 0.01718
v -0.07331 0.00344 -0.03550
v -0.06415 -0.03092 -0.02864
v -0.07102 -0.02634 -0.03092
v -0.06415 0.00803 -0.03779
v -0.05956 0.01261 0.01031
v -0.06644 0.05840 -0.02864
v -0.06644 -0.02406 0.01718
v -0.06415 -0.02175 0.01946
v -0.07331 0.04696 0.01031
v -0.07102 0.02175 -0.04009
v -0.05956 -0.02406 0.01259
v -0.07102 0.04237 0.01718
v -0.06644 0.05612 -0.00345
v -0.07102 -0.01718 0.01946
v -0.06644 -0.02863 0.00343
v -0.07102 -0.02406 0.01489
v -0.07102 0.06300 -0.02633
v -0.05956 0.03092 0.01718
v -0.06644 0.03092 -0.03779
v 0.03895 0.01717 0.02863
v -0.05956 -0.02635 0.01490
v -0.05269 -0.03322 0.01490
v 0.00228 0.05154 0.01031
v 0.02977 -0.02175 0.01260
v -0.04352 0.06300 0.01718
v -0.00459 0.00115 0.03093
v -0.01374 -0.04467 0.01718
v -0.05956 -0.01489 0.02176
v -0.02062 -0.04009 0.01031
v -0.05727 0.03321 0.01260
v 0.03665 0.02863 0.01490
v -0.00688 0.02176 0.03093
v -0.05956 0.02405 0.02176
v 0.03207 -0.01489 0.02176
v -0.02289 0.06300 0.01718
v 0.03895 0.02634 0.02634
v 0.01374 0.01717 0.03322
v -0.02062 0.05154 0.01031
v -0.05956 -0.02405 0.01260
v -0.02748 -0.04467 0.01718
v 0.03895 0.00344 0.01718
v -0.03206 0.06300 0.01260
v 0.00916 -0.00572 0.02863
v 0.03895 0.00802 0.02863
v 0.03436 0.01947 0.01260
v -0.00917 -0.03779 0.01031
v 0.03895 0.02863 0.02405
v -0.05956 0.03321 0.01490
v 0.00687 0.04008 0.01031
v -0.00917 0.00802 0.03093
v -0.02748 -0.04467 0.01260
v 0.03436 -0.01718 0.01718
v -0.01374 -0.04467 0.01260
v -0.05039 -0.03550 0.01718
v 0.01374 0.02405 0.03093
v -0.05039 0.04695 0.01260
v 0.01374 0.01260 0.03322
v -0.05039 -0.03550 0.01260
v 0.02977 -0.02175 0.01718
v 0.03895 0.02863 0.01718
v 0.00228 0.05154 0.01490
v -0.04352 0.06300 0.01490
v -0.02289 -0.03779 0.01031
v -0.05956 0.02176 0.01260
v -0.02289 0.06300 0.01260
v -0.05956 0.03091 0.01948
v -0.00230 0.02405 0.03093
v -0.05039 0.03321 0.02176
v 0.03436 -0.01718 0.01490
v 0.03207 0.02634 0.01260
v 0.03895 0.00344 0.02634
v -0.05956 -0.02635 0.01718
v -0.00917 0.01717 0.03093
v 0.00916 0.01717 0.03322
v 0.03436 0.01260 0.01260
v 0.00228 0.00115 0.03093
v 0.03895 0.00115 0.01948
v 0.02977 -0.01947 0.01948
f 42 23 64 
f 2 3 4 
f 4 3 5 
f 2 4 11 
f 5 3 12 
f 11 7 15 
f 5 12 18 
f 17 6 20 
f 13 21 23 
f 11 4 24 
f 10 18 25 
f 3 2 27 
f 7 11 28 
f 4 5 29 
f 15 7 30 
f 27 15 30 
f 20 6 31 
f 21 13 32 
f 7 28 32 
f 28 19 32 
f 14 27 34 
f 14 12 35 
f 2 11 36 
f 11 15 36 
f 27 2 36 
f 15 27 36 
f 22 8 37 
f 8 26 37 
f 22 37 38 
f 1 21 40 
f 8 22 40 
f 11 24 41 
f 28 11 41 
f 19 28 41 
f 13 23 42 
f 7 32 43 
f 32 13 43 
f 10 25 44 
f 38 10 44 
f 22 38 44 
f 1 40 44 
f 40 22 44 
f 21 1 45 
f 17 23 45 
f 23 21 45 
f 1 44 45 
f 44 33 45 
f 6 12 46 
f 14 6 46 
f 12 14 46 
f 18 17 47 
f 25 18 47 
f 44 25 47 
f 33 44 47 
f 17 45 47 
f 45 33 47 
f 8 19 48 
f 26 8 48 
f 24 26 48 
f 41 24 48 
f 19 41 48 
f 30 7 49 
f 9 30 49 
f 7 43 49 
f 4 29 50 
f 29 39 50 
f 39 16 50 
f 18 12 51 
f 17 18 51 
f 37 26 52 
f 16 38 52 
f 38 37 52 
f 24 4 53 
f 26 24 53 
f 4 50 53 
f 50 16 53 
f 16 52 53 
f 52 26 53 
f 5 18 54 
f 29 5 54 
f 39 29 54 
f 12 3 55 
f 35 12 55 
f 19 8 56 
f 32 19 56 
f 21 32 56 
f 40 21 56 
f 8 40 56 
f 3 27 57 
f 27 14 57 
f 14 35 57 
f 55 3 57 
f 35 55 57 
f 30 9 58 
f 27 30 58 
f 34 27 58 
f 9 34 58 
f 18 10 59 
f 10 38 59 
f 38 16 59 
f 16 39 59 
f 54 18 59 
f 39 54 59 
f 12 6 60 
f 6 17 60 
f 51 12 60 
f 17 51 60 
f 6 14 61 
f 31 6 61 
f 14 34 61 
f 34 31 61 
f 20 31 62 
f 34 9 62 
f 31 34 62 
f 9 42 62 
f 42 20 62 
f 42 9 63 
f 13 42 63 
f 43 13 63 
f 9 49 63 
f 49 43 63 
f 17 20 64 
f 23 17 64 
f 20 42 64 
