# Original object name hint: convex_5
v 0.06186 -0.01259 -0.03092
v 0.07102 0.05153 0.01489
v 0.06644 0.05153 0.01489
v 0.06873 -0.03091 0.01489
v 0.05499 -0.02175 0.01489
v 0.05728 0.03321 -0.02405
v 0.07331 0.03091 -0.01947
v 0.06873 -0.02862 -0.02405
v 0.06873 0.05382 -0.02176
v 0.05728 -0.02862 -0.01947
v 0.07331 -0.00343 0.01489
v 0.05499 0.01488 0.01489
v 0.06873 0.02633 -0.03322
v 0.06415 0.05841 0.00115
v 0.07331 0.05382 0.00802
v 0.06186 -0.03551 0.00343
v 0.05728 0.02862 -0.02864
v 0.05499 -0.02405 -0.00344
v 0.07102 -0.01946 -0.01718
v 0.06186 0.04466 -0.02634
v 0.06873 0.00344 -0.03322
v 0.06186 -0.03091 -0.02634
v 0.06186 0.02633 -0.03322
v 0.07102 -0.02634 0.01260
v 0.05728 -0.02175 -0.02405
v 0.06873 -0.03320 -0.00344
v 0.07102 0.05841 0.01031
v 0.07331 0.01947 -0.01947
v 0.05728 -0.02862 0.01489
v 0.07331 0.05382 -0.00115
v 0.06415 0.05611 -0.01489
v 0.07102 0.00803 -0.02864
v 0.05957 -0.00571 -0.03092
v 0.06873 0.05841 -0.01030
v 0.06415 0.05611 0.00802
v 0.07331 0.04695 0.01489
v 0.06644 -0.03320 -0.01947
v 0.05957 -0.03320 -0.01947
v 0.05728 -0.03091 0.00802
v 0.06415 -0.02634 -0.02864
v 0.07331 -0.00343 0.00572
v 0.06644 0.04237 -0.02864
v 0.07102 0.02862 -0.02864
v 0.05957 -0.02405 -0.02864
v 0.06186 0.00344 -0.03322
v 0.05728 0.03321 -0.01718
v 0.05728 0.01032 -0.02864
v 0.07102 -0.02634 0.00343
v 0.07102 0.04695 -0.01947
v 0.06186 -0.03320 0.01260
v 0.05499 -0.01717 -0.00344
v 0.06415 -0.03551 -0.00573
v 0.06873 -0.03320 0.00802
v 0.05499 -0.02634 0.00802
v 0.06186 0.04008 0.01489
v 0.06873 -0.02405 -0.02634
v 0.06644 0.05841 0.01031
v 0.07102 0.05841 -0.00344
v 0.05728 -0.03091 -0.01030
v 0.05499 0.01488 0.01260
v 0.06415 0.05841 -0.00573
v 0.06644 0.05382 -0.02176
v 0.06873 0.04008 -0.02864
v 0.05957 0.03091 -0.03092
v 0.07330 0.02634 0.03322
v 0.03895 0.00345 0.01719
v 0.04353 0.00802 0.01489
v 0.06872 -0.02864 0.01489
v 0.07101 0.04696 0.01489
v 0.03895 0.01947 0.03780
v 0.06414 0.01030 0.04009
v 0.03895 0.02863 0.01719
v 0.05956 -0.02405 0.02177
v 0.06185 0.02634 0.03780
v 0.07330 -0.00115 0.01489
v 0.06643 0.04696 0.01719
v 0.03895 0.01488 0.03780
v 0.06872 -0.02405 0.02177
v 0.05727 -0.02634 0.01489
v 0.07101 0.01488 0.03780
v 0.03895 0.00345 0.02635
v 0.07330 0.04237 0.01489
v 0.03895 0.02863 0.02406
v 0.05499 0.01030 0.04009
v 0.07101 0.02863 0.03551
v 0.07330 0.01488 0.03322
v 0.06643 0.02175 0.04009
v 0.07101 -0.02176 0.01719
v 0.05956 -0.01718 0.02635
v 0.04353 0.02175 0.01489
v 0.05956 -0.02864 0.01719
v 0.06643 0.04696 0.01489
v 0.07101 0.04696 0.01719
v 0.05041 0.01718 0.04009
v 0.04124 0.01260 0.03780
v 0.06643 -0.02176 0.02406
v 0.06872 0.01030 0.03780
v 0.07101 0.02405 0.03780
v 0.06185 0.03092 0.03322
v 0.05727 -0.02634 0.01719
v 0.06872 -0.02864 0.01719
v 0.06185 0.02175 0.04009
v 0.02977 -0.05842 -0.01718
v -0.05039 -0.05613 -0.03780
v -0.05039 -0.05155 -0.03780
v -0.02748 -0.06300 -0.01489
v 0.01603 -0.06300 -0.03551
v -0.02061 -0.05384 -0.01489
v 0.00457 -0.05155 -0.03321
v -0.05498 -0.04926 -0.03093
v 0.02748 -0.06300 -0.01489
v -0.02519 -0.06300 -0.03551
v 0.00916 -0.05384 -0.01489
v 0.00916 -0.05613 -0.03780
v 0.02977 -0.05842 -0.03093
v -0.05039 -0.05842 -0.03093
v 0.01145 -0.06071 -0.03780
v 0.02977 -0.06300 -0.02863
v 0.00228 -0.05155 -0.02406
v -0.04581 -0.04926 -0.03551
v 0.02519 -0.05613 -0.02177
v 0.00228 -0.05384 -0.03780
v -0.02748 -0.05842 -0.01489
v -0.05268 -0.05384 -0.02863
v -0.03206 -0.06071 -0.03780
v -0.02977 -0.06300 -0.03321
v 0.02748 -0.05842 -0.03321
v -0.05498 -0.05384 -0.03551
v -0.04581 -0.05842 -0.03780
v -0.00001 -0.05155 -0.03551
v 0.02061 -0.05613 -0.01489
v 0.02519 -0.05613 -0.02863
v 0.02519 -0.06300 -0.03321
v -0.04581 -0.04926 -0.03093
v 0.00457 -0.05155 -0.02635
v -0.05268 -0.04926 -0.03551
v -0.00000 -0.05613 0.01718
v -0.02748 -0.06071 -0.01489
v -0.02748 -0.05842 -0.01489
v 0.02748 -0.06300 -0.01489
v -0.01603 -0.04468 0.01260
v -0.04123 -0.06071 0.01718
v 0.02977 -0.06300 0.01260
v 0.02061 -0.05613 -0.01489
v -0.04811 -0.05155 0.00573
v 0.03207 -0.05842 0.01260
v -0.03665 -0.06300 0.00573
v -0.02061 -0.05384 -0.01489
v -0.02748 -0.04468 0.01718
v -0.04811 -0.05842 0.00573
v -0.02519 -0.06300 -0.01489
v -0.04582 -0.05155 0.01718
v 0.00916 -0.05384 -0.01489
v -0.02748 -0.04468 0.01260
v 0.02520 -0.06300 0.01489
v -0.01603 -0.04468 0.01718
v -0.03665 -0.06300 0.01260
v 0.02748 -0.05842 -0.01489
v 0.02748 -0.05842 0.01489
v -0.04811 -0.05842 0.01489
v -0.04353 -0.05384 -0.00114
v 0.03207 -0.05842 0.00573
v -0.00230 -0.06071 0.01718
v -0.04582 -0.05842 0.00115
v -0.04353 -0.06071 0.00343
v -0.04582 -0.05155 0.00343
v -0.04811 -0.05155 0.01489
v 0.03207 -0.06071 0.00573
v -0.07331 -0.01947 -0.02864
v -0.05956 0.02175 0.02176
v -0.05956 0.02862 0.01946
v -0.07331 0.04467 0.01259
v -0.06644 0.06300 -0.02633
v -0.06186 -0.01947 -0.02864
v -0.07102 -0.02175 0.01718
v -0.07331 0.03320 -0.03550
v -0.05956 -0.02406 0.01718
v -0.06873 -0.03322 -0.02864
v -0.06415 0.02175 -0.03779
v -0.07331 -0.01489 0.01718
v -0.07331 0.05840 -0.02405
v -0.06644 0.04925 0.01259
v -0.07102 0.00803 -0.04009
v -0.07102 0.03320 0.01946
v -0.06873 -0.00802 0.02176
v -0.06415 -0.02863 -0.03092
v -0.05956 0.03092 0.01489
v -0.07102 0.06300 -0.02176
v -0.07102 -0.02634 0.00573
v -0.05956 -0.01489 0.02176
v -0.06644 0.02175 -0.04009
v -0.06415 0.03780 -0.03092
v -0.07331 -0.02406 -0.01946
v -0.07102 0.05840 -0.02864
v -0.06644 0.04467 0.01718
v -0.06873 -0.02863 0.00343
v -0.06644 0.00803 -0.04009
v -0.07102 0.04925 0.01259
v -0.05956 -0.01947 0.01031
v -0.06186 -0.01029 -0.02864
v -0.06644 -0.03322 -0.02633
v -0.06644 0.06300 -0.02176
v -0.07102 0.03320 -0.03779
v -0.06873 -0.03092 -0.03092
v -0.06415 0.04467 0.01489
v -0.07331 -0.02175 0.01031
v -0.06873 0.01717 0.02176
v -0.07331 0.03092 0.01718
v -0.07331 0.00344 -0.03550
v -0.06415 -0.03092 -0.02864
v -0.07102 -0.02634 -0.03092
v -0.06415 0.00803 -0.03779
v -0.05956 0.01261 0.01031
v -0.06644 0.05840 -0.02864
v -0.06644 -0.02406 0.01718
v -0.06415 -0.02175 0.01946
v -0.07331 0.04696 0.01031
v -0.07102 0.02175 -0.04009
v -0.05956 -0.02406 0.01259
v -0.07102 0.04237 0.01718
v -0.06644 0.05612 -0.00345
v -0.07102 -0.01718 0.01946
v -0.06644 -0.02863 0.00343
v -0.07102 -0.02406 0.01489
v -0.07102 0.06300 -0.02633
v -0.05956 0.03092 0.01718
v -0.06644 0.03092 -0.03779
v 0.03895 0.01717 0.02863
v -0.05956 -0.02635 0.01490
v -0.05269 -0.03322 0.01490
v 0.00228 0.05154 0.01031
v 0.02977 -0.02175 0.01260
v -0.04352 0.06300 0.01718
v -0.00459 0.00115 0.03093
v -0.01374 -0.04467 0.01718
v -0.05956 -0.01489 0.02176
v -0.02062 -0.04009 0.01031
v -0.05727 0.03321 0.01260
v 0.03665 0.02863 0.01490
v -0.00688 0.02176 0.03093
v -0.05956 0.02405 0.02176
v 0.03207 -0.01489 0.02176
v -0.02289 0.06300 0.01718
v 0.03895 0.02634 0.02634
v 0.01374 0.01717 0.03322
v -0.02062 0.05154 0.01031
v -0.05956 -0.02405 0.01260
v -0.02748 -0.04467 0.01718
v 0.03895 0.00344 0.01718
v -0.03206 0.06300 0.01260
v 0.00916 -0.00572 0.02863
v 0.03895 0.00802 0.02863
v 0.03436 0.01947 0.01260
v -0.00917 -0.03779 0.01031
v 0.03895 0.02863 0.02405
v -0.05956 0.03321 0.01490
v 0.00687 0.04008 0.01031
v -0.00917 0.00802 0.03093
v -0.02748 -0.04467 0.01260
v 0.03436 -0.01718 0.01718
v -0.01374 -0.04467 0.01260
v -0.05039 -0.03550 0.01718
v 0.01374 0.02405 0.03093
v -0.05039 0.04695 0.01260
v 0.01374 0.01260 0.03322
v -0.05039 -0.03550 0.01260
v 0.02977 -0.02175 0.01718
v 0.03895 0.02863 0.01718
v 0.00228 0.05154 0.01490
v -0.04352 0.06300 0.01490
v -0.02289 -0.03779 0.01031
v -0.05956 0.02176 0.01260
v -0.02289 0.06300 0.01260
v -0.05956 0.03091 0.01948
v -0.00230 0.02405 0.03093
v -0.05039 0.03321 0.02176
v 0.03436 -0.01718 0.01490
v 0.03207 0.02634 0.01260
v 0.03895 0.00344 0.02634
v -0.05956 -0.02635 0.01718
v -0.00917 0.01717 0.03093
v 0.00916 0.01717 0.03322
v 0.03436 0.01260 0.01260
v 0.00228 0.00115 0.03093
v 0.03895 0.00115 0.01948
v 0.02977 -0.01947 0.01948
f 267 260 286 
f 229 236 241 
f 228 244 245 
f 231 237 246 
f 229 241 247 
f 235 234 248 
f 234 236 248 
f 244 228 249 
f 233 243 250 
f 231 246 250 
f 235 242 251 
f 228 245 252 
f 249 228 252 
f 251 242 252 
f 237 231 254 
f 243 244 255 
f 244 249 255 
f 247 241 256 
f 254 231 257 
f 232 254 257 
f 236 234 258 
f 241 236 258 
f 235 248 259 
f 232 235 261 
f 254 232 261 
f 237 254 261 
f 259 237 261 
f 235 259 261 
f 248 236 262 
f 259 248 262 
f 243 233 263 
f 244 243 263 
f 245 244 263 
f 246 238 264 
f 250 246 264 
f 238 256 264 
f 252 245 265 
f 251 252 265 
f 230 229 266 
f 229 247 266 
f 237 259 266 
f 262 230 266 
f 259 262 266 
f 235 232 267 
f 232 260 267 
f 239 231 268 
f 253 239 268 
f 249 253 268 
f 231 255 268 
f 255 249 268 
f 231 243 269 
f 255 231 269 
f 243 255 269 
f 233 250 270 
f 256 233 270 
f 250 264 270 
f 264 256 270 
f 246 237 271 
f 266 247 271 
f 237 266 271 
f 238 246 272 
f 256 238 272 
f 247 256 272 
f 246 271 272 
f 271 247 272 
f 243 231 273 
f 231 250 273 
f 250 243 273 
f 241 233 274 
f 233 256 274 
f 256 241 274 
f 233 240 275 
f 263 233 275 
f 245 263 275 
f 240 233 276 
f 241 240 276 
f 233 241 276 
f 260 232 277 
f 231 239 278 
f 239 253 278 
f 257 231 278 
f 253 257 278 
f 249 252 279 
f 252 242 279 
f 242 260 279 
f 229 230 280 
f 236 229 280 
f 230 262 280 
f 262 236 280 
f 240 241 281 
f 241 258 281 
f 281 258 282 
f 258 234 282 
f 234 265 282 
f 265 245 282 
f 275 240 282 
f 245 275 282 
f 240 281 282 
f 253 249 283 
f 257 253 283 
f 232 257 283 
f 277 232 283 
f 249 277 283 
f 234 235 284 
f 235 251 284 
f 265 234 284 
f 251 265 284 
f 277 249 285 
f 260 277 285 
f 249 279 285 
f 279 260 285 
f 242 235 286 
f 260 242 286 
f 235 267 286 
