# Original object name hint: convex_5
v 0.02474 -0.06189 0.02474
v -0.04050 -0.06189 -0.03825
v -0.03150 -0.06414 -0.03601
v -0.03599 -0.06639 0.03599
v -0.04725 -0.04614 0.01574
v 0.02699 -0.05514 -0.02926
v 0.03150 -0.06639 -0.02700
v -0.05626 -0.05064 -0.02700
v -0.01125 -0.04614 0.01574
v 0.03826 -0.05739 0.01349
v -0.00676 -0.04614 -0.00900
v 0.03374 -0.06639 0.01799
v -0.05175 -0.06189 0.00898
v -0.02474 -0.06189 0.03825
v 0.00899 -0.05739 -0.03825
v -0.02925 -0.06639 -0.02250
v 0.00674 -0.05289 -0.03376
v 0.03826 -0.05739 -0.02250
v -0.04950 -0.06189 -0.02926
v -0.03599 -0.05514 -0.03825
v -0.05400 -0.05289 0.01124
v 0.00224 -0.06414 -0.03825
v 0.03826 -0.06414 -0.02250
v -0.05626 -0.05739 -0.02926
v -0.02025 -0.04614 -0.01125
v 0.02925 -0.05964 0.02249
v -0.01799 -0.06639 0.03599
v -0.01574 -0.06639 -0.03376
v -0.03825 -0.06639 0.00898
v -0.00451 -0.04614 -0.00000
v -0.05626 -0.04839 -0.00450
v 0.02474 -0.06414 -0.03376
v -0.05400 -0.05064 -0.02926
v -0.05626 -0.05739 -0.00000
v 0.03826 -0.06414 0.01574
v -0.03599 -0.06189 0.03599
v 0.02925 -0.05739 -0.03150
v -0.02925 -0.04614 -0.00900
v 0.02925 -0.06639 0.02249
v -0.01349 -0.06189 0.03599
v -0.04725 -0.06414 0.01124
v 0.03599 -0.06639 -0.00225
v 0.03374 -0.06414 -0.02926
v -0.04950 -0.05289 -0.03376
v 0.02250 -0.06639 -0.03150
v -0.05175 -0.05964 0.01349
v 0.02925 -0.05514 -0.02700
v -0.03150 -0.06189 0.03825
v -0.03825 -0.06414 -0.03150
v -0.04275 -0.06414 -0.02026
v -0.04725 -0.04614 0.00898
v 0.02025 -0.06189 -0.03601
v -0.01349 -0.06414 0.03599
v -0.05175 -0.06189 -0.00675
v 0.03150 -0.05739 0.01799
v 0.03150 -0.06189 0.02249
v -0.01574 -0.06414 -0.03825
v -0.00451 -0.04614 -0.00675
v -0.05175 -0.05064 0.01349
v 0.02474 -0.05739 -0.03376
v 0.03826 -0.05964 -0.02476
v -0.01574 -0.04614 -0.01125
v -0.05400 -0.05964 -0.02926
v -0.02474 -0.06414 0.03825
v 0.03826 -0.06414 -0.00900
v 0.04726 -0.05964 0.00224
v 0.04501 -0.05739 0.00674
v 0.03826 -0.06414 0.01350
v 0.03826 -0.05739 -0.01126
v 0.03826 -0.05739 0.01124
v 0.04051 -0.05964 -0.02026
v 0.04726 -0.06189 -0.00001
v 0.04276 -0.06414 0.01124
v 0.04501 -0.05964 0.01124
v 0.03826 -0.06189 -0.02026
v 0.04501 -0.05739 -0.00226
v 0.04276 -0.06414 -0.00226
v 0.04051 -0.06189 -0.02026
v -0.06752 -0.01238 -0.03151
v -0.05627 0.00789 0.02025
v -0.05627 0.01687 0.01799
v -0.07202 0.02137 0.01349
v -0.06077 0.06188 -0.02476
v -0.05852 -0.03263 -0.00900
v -0.06752 -0.02813 0.01349
v -0.07202 0.03038 -0.02926
v -0.05852 -0.02588 -0.02700
v -0.06977 -0.02813 -0.01575
v -0.06752 0.05963 -0.01126
v -0.05627 -0.03037 0.01574
v -0.05627 0.01687 -0.01126
v -0.06527 0.04163 0.01349
v -0.06302 0.02137 -0.03376
v -0.06752 -0.03488 -0.02025
v -0.06752 -0.01687 0.01799
v -0.05852 0.03263 -0.02700
v -0.06752 0.06188 -0.02476
v -0.07202 0.00113 0.00224
v -0.06077 0.05739 -0.01126
v -0.07202 0.03938 -0.01575
v -0.05627 -0.01911 -0.01350
v -0.06977 0.03712 0.01349
v -0.06752 0.01687 0.01799
v -0.06977 0.03712 -0.03151
v -0.07202 0.01463 -0.02700
v -0.06977 -0.01911 0.01124
v -0.06527 -0.03488 -0.00226
v -0.05852 -0.01687 0.02025
v -0.06752 -0.02362 -0.02926
v -0.06077 -0.03488 -0.02025
v -0.06077 -0.01012 -0.03151
v -0.06752 0.00563 -0.03376
v -0.06302 0.00339 0.02025
v -0.07202 0.03263 0.00449
v -0.06077 -0.03037 -0.02700
v -0.07202 0.00789 0.01349
v -0.06977 0.05288 -0.01350
v -0.06977 -0.02588 0.00224
v -0.06302 0.06414 -0.02025
v -0.06077 -0.03037 0.01574
v -0.07202 0.03938 -0.02476
v -0.05627 -0.02588 -0.00676
v -0.06977 -0.02588 -0.02025
v -0.05852 0.04163 -0.00451
v -0.06752 -0.03488 -0.00900
v -0.06302 0.03712 -0.03151
v -0.06077 -0.03488 -0.00226
v -0.06302 0.05963 -0.01126
v -0.06752 0.04163 0.01349
v -0.06527 0.06414 -0.02476
v -0.06752 -0.03263 -0.02476
v -0.05627 0.01913 -0.00900
v -0.05627 -0.01687 0.02025
v -0.06977 0.00789 -0.03151
v -0.06752 0.03263 0.01574
v -0.06302 -0.02588 -0.02926
v -0.07202 0.00113 -0.00451
v -0.06752 0.02137 -0.03376
v -0.06977 0.03938 0.01124
v -0.06077 0.01913 -0.03151
v -0.06302 -0.02362 0.01799
v -0.06302 0.00789 -0.03376
v 0.07202 0.00564 -0.01350
v 0.06302 0.01687 0.03825
v 0.05402 0.01687 0.03825
v 0.06527 0.05739 -0.01350
v 0.05627 -0.03038 -0.02475
v 0.06752 -0.03488 0.00899
v 0.05402 0.03038 -0.02701
v 0.07202 0.03713 0.02024
v 0.06752 -0.00787 -0.03152
v 0.05402 -0.02813 0.00899
v 0.06302 0.05513 0.01124
v 0.06977 0.03938 -0.02475
v 0.07202 0.01687 0.02700
v 0.06302 -0.01913 0.02700
v 0.06752 -0.03038 -0.02475
v 0.07202 0.05288 -0.00225
v 0.05402 0.03038 0.02024
v 0.06077 0.05288 -0.02250
v 0.05852 0.02588 -0.03152
v 0.05852 -0.03713 0.00899
v 0.06752 0.02588 0.03600
v 0.07202 0.01687 -0.02475
v 0.06977 0.05739 0.00899
v 0.06977 -0.02587 0.00899
v 0.06752 0.00788 0.03600
v 0.05402 0.00788 0.03825
v 0.06302 -0.03713 -0.01801
v 0.05852 -0.02813 -0.02926
v 0.06752 0.02588 -0.03152
v 0.06752 -0.02587 0.02024
v 0.05402 0.00788 -0.02701
v 0.06752 0.05288 -0.02250
v 0.05627 -0.02137 0.02249
v 0.06977 -0.02363 -0.01575
v 0.05402 0.03488 -0.01350
v 0.06302 0.05739 0.00674
v 0.06302 0.03038 0.03375
v 0.05402 -0.02813 -0.00675
v 0.05627 -0.03488 -0.01575
v 0.05852 -0.00787 -0.03152
v 0.06302 0.03938 -0.02926
v 0.07202 0.00338 0.01124
v 0.06302 0.00788 0.03825
v 0.06752 -0.03488 -0.01126
v 0.06752 0.05513 0.01349
v 0.06527 -0.02813 -0.02926
v 0.07202 0.03488 -0.02026
v 0.06077 -0.03488 -0.02475
v 0.06977 0.05739 -0.00451
v 0.06527 -0.03713 0.00674
v 0.06977 0.02362 0.03375
v 0.05852 -0.03713 -0.01801
v 0.05852 -0.02137 0.02474
v 0.06977 0.02588 -0.02926
v 0.05627 -0.02813 -0.02701
v 0.05402 -0.02137 0.01800
v 0.06752 -0.02813 -0.02701
v 0.06752 0.03713 -0.02926
v 0.07202 0.05288 0.00674
v 0.06527 0.05513 -0.02250
v 0.05402 0.03488 -0.02250
v 0.06977 -0.02587 -0.00901
v 0.05852 0.03488 -0.02926
v 0.06977 0.05288 0.01349
v 0.00899 0.06189 -0.00901
v -0.05626 -0.02361 -0.00676
v -0.05626 -0.02361 -0.00226
v 0.03826 -0.02587 -0.00226
v -0.01125 0.05738 0.00224
v 0.00449 0.00563 -0.01576
v -0.04725 0.04162 -0.01126
v 0.03150 -0.01913 0.00674
v -0.02025 -0.04388 -0.01126
v -0.04500 0.01913 0.00224
v -0.02025 -0.04388 0.00224
v 0.03826 0.01913 -0.00451
v -0.00002 0.05512 -0.01576
v -0.05626 -0.01913 -0.01126
v 0.00449 0.05738 0.00224
v 0.03826 0.01687 -0.00901
v 0.00449 -0.03938 -0.01126
v -0.03375 -0.01461 0.00449
v -0.04950 0.04162 -0.00226
v -0.00676 0.06639 -0.00901
v -0.02025 0.04162 -0.01576
v 0.01349 -0.04163 -0.00226
v -0.01574 0.03036 0.00449
v -0.04725 -0.03713 -0.00676
v -0.05175 -0.02138 0.00224
v 0.02025 -0.01913 -0.01126
v 0.03150 -0.02587 0.00674
v 0.03150 0.01687 0.00224
v -0.05626 0.01687 -0.00451
v -0.03375 0.05512 -0.00226
v 0.00674 0.06413 -0.00226
v -0.02699 -0.04614 -0.00001
v -0.00451 0.00339 -0.01576
v 0.00224 0.06413 -0.01351
v -0.00451 -0.04614 -0.00001
v 0.00899 0.01013 -0.01576
v -0.03375 0.01013 0.00449
v -0.02474 0.05062 0.00224
v -0.02925 0.05512 -0.01126
v -0.00676 -0.04614 -0.00901
v -0.00451 0.06639 -0.00226
v -0.05626 0.00113 -0.01126
v -0.05626 -0.00561 -0.00001
v -0.04950 0.04387 -0.00901
v -0.04725 -0.03488 -0.00001
v -0.02699 -0.04614 -0.00901
v -0.00900 0.05512 -0.01576
v -0.01574 0.01462 -0.01576
v 0.03826 -0.02587 -0.00001
v -0.04500 0.04162 -0.00001
v 0.01125 -0.04163 -0.00676
v 0.00449 0.04387 -0.01576
v 0.00674 0.05964 -0.01351
v -0.03375 0.05512 -0.00901
v -0.00451 0.06413 -0.01351
v 0.00224 0.05964 0.00224
v 0.02699 -0.01913 0.00674
v -0.02925 -0.03938 -0.01126
v 0.00224 0.06639 -0.00901
v 0.03374 -0.02587 -0.00451
v -0.05175 0.03713 -0.00901
v 0.03374 0.01913 -0.00001
v 0.03826 0.01462 -0.00901
v -0.02025 -0.02361 0.00449
v 0.03826 0.02586 0.02250
v -0.05626 -0.03263 0.01125
v -0.02699 -0.03713 0.00900
v -0.03599 0.06414 0.01125
v 0.00674 0.01011 0.02925
v 0.03150 -0.02362 0.00674
v -0.05626 0.01011 0.02024
v -0.00900 -0.04614 0.01575
v 0.00224 0.05514 0.00900
v 0.03826 0.01011 0.02925
v -0.04725 -0.04614 0.01575
v -0.03599 0.06414 0.01575
v 0.03826 0.02812 0.01350
v 0.00449 0.06188 0.01575
v -0.05175 0.04838 0.01125
v -0.05626 -0.01686 0.02024
v 0.03374 -0.01913 0.01800
v 0.00674 0.01686 0.02925
v -0.01574 0.05288 0.00900
v -0.04725 0.05738 0.01575
v -0.00002 -0.00336 0.02700
v -0.00900 -0.04614 0.01125
v 0.03826 -0.00561 0.01575
v 0.03599 0.02586 0.01125
v -0.04725 -0.04614 0.01125
v 0.00449 0.06188 0.01125
v -0.05626 0.01686 0.01125
v 0.03599 -0.00561 0.02475
v 0.03826 0.01236 0.02925
v -0.04500 0.02812 0.02024
v -0.01125 -0.04164 0.00900
v 0.02699 -0.02137 0.00674
v -0.02025 0.06414 0.01575
v -0.05175 0.04838 0.01575
v 0.02025 -0.01012 0.02475
v -0.05626 -0.03263 0.01575
v 0.01349 0.01686 0.02925
v 0.01125 0.04387 0.00900
v -0.04275 0.06188 0.01125
v 0.02925 -0.02362 0.01575
v 0.03826 0.02812 0.02024
v -0.05400 -0.01913 0.02024
v 0.03826 -0.00561 0.02250
v 0.00224 -0.01237 0.02475
v -0.04275 0.06188 0.01575
v -0.05626 0.01912 0.01800
v -0.02699 -0.03038 0.00900
v 0.03826 0.00565 0.01350
v 0.03150 -0.02137 0.00674
v -0.02250 -0.04164 0.00900
v -0.02025 0.06414 0.01125
v 0.01125 -0.00336 0.02700
v 0.03150 -0.01686 0.02024
v -0.01125 0.05514 0.00900
v -0.04725 0.05738 0.01125
v 0.03150 -0.02362 0.00900
v -0.05400 0.01462 0.02024
v 0.05176 0.00563 0.01125
v 0.05401 0.01463 0.03825
v 0.05401 0.01913 0.03600
v 0.03826 0.01688 0.03600
v 0.03826 0.02813 0.01350
v 0.03826 -0.00337 0.01575
v 0.05401 -0.00788 0.02025
v 0.05401 0.02813 0.01575
v 0.03826 0.01013 0.03600
v 0.03826 0.02813 0.02025
v 0.05401 -0.00788 0.01350
v 0.05401 0.00788 0.03825
v 0.03826 0.01463 0.01125
v 0.05401 0.01688 0.01125
v 0.05401 0.02813 0.02250
v 0.03826 -0.00337 0.02025
v 0.04951 0.00563 0.03600
v 0.04726 0.02363 0.01125
v 0.05176 -0.00788 0.01350
v 0.05176 -0.00788 0.02025
v 0.04951 0.01463 0.03825
v 0.04951 0.02813 0.01350
v 0.03826 0.02138 0.01125
v 0.05176 0.01913 0.03600
v 0.04951 0.01913 -0.02476
v 0.05401 0.03038 -0.01351
v 0.05401 0.03263 -0.02026
v 0.05401 0.01688 -0.02476
v 0.05176 0.01913 -0.01351
v 0.04726 0.02588 -0.02026
v 0.05176 0.03038 -0.02476
v 0.05401 0.01688 -0.01576
v 0.05176 0.03038 -0.01351
v 0.04726 0.02138 -0.02251
v 0.05176 0.03263 -0.02251
v 0.05176 0.01688 -0.01576
v 0.05401 0.03038 -0.02476
v 0.04951 0.02813 -0.02476
v 0.05176 0.02588 -0.00676
v 0.03826 0.01463 -0.00901
v 0.03826 0.01463 -0.00451
v 0.04951 0.01238 -0.00901
v 0.05176 0.03038 -0.01351
v 0.05401 0.01913 -0.01351
v 0.04951 0.01238 -0.00451
v 0.04726 0.02813 -0.00676
v 0.04726 0.02363 -0.00451
v 0.05401 0.02813 -0.00901
v 0.03826 0.01688 -0.00901
v 0.04951 0.02138 -0.01351
v 0.03826 0.01688 -0.00451
v 0.05401 0.02138 -0.00901
v 0.04501 0.01238 -0.00901
v 0.04726 0.02813 -0.01126
v 0.05401 0.03038 -0.01351
f 300 290 327 
f 271 280 283 
f 277 272 286 
f 275 277 286 
f 277 275 288 
f 275 280 288 
f 280 275 291 
f 276 278 292 
f 278 281 292 
f 283 280 293 
f 287 276 293 
f 272 273 295 
f 281 272 295 
f 292 281 295 
f 284 283 296 
f 294 279 296 
f 283 294 296 
f 273 272 297 
f 272 277 297 
f 285 289 297 
f 280 271 299 
f 271 284 299 
f 288 280 299 
f 288 290 300 
f 276 292 301 
f 292 295 301 
f 274 282 303 
f 282 288 303 
f 284 296 303 
f 277 290 304 
f 290 285 304 
f 278 298 305 
f 298 280 305 
f 272 281 306 
f 286 272 306 
f 281 286 306 
f 299 284 307 
f 288 299 307 
f 303 288 307 
f 284 303 307 
f 279 294 308 
f 282 274 309 
f 287 278 310 
f 271 283 311 
f 284 271 311 
f 283 284 311 
f 275 286 312 
f 286 281 312 
f 291 275 312 
f 281 291 312 
f 293 280 313 
f 287 293 313 
f 280 298 313 
f 298 287 313 
f 281 278 314 
f 291 281 314 
f 288 282 315 
f 290 288 315 
f 282 309 315 
f 309 290 315 
f 297 277 316 
f 285 297 316 
f 277 304 316 
f 304 285 316 
f 273 297 317 
f 297 289 317 
f 302 273 317 
f 289 302 317 
f 276 283 318 
f 293 276 318 
f 283 293 318 
f 283 276 319 
f 294 283 319 
f 276 302 319 
f 302 279 319 
f 279 308 319 
f 308 294 319 
f 295 273 320 
f 276 301 320 
f 301 295 320 
f 273 302 320 
f 302 276 320 
f 279 274 321 
f 296 279 321 
f 274 303 321 
f 303 296 321 
f 280 291 322 
f 305 280 322 
f 278 305 322 
f 314 278 322 
f 291 314 322 
f 278 287 323 
f 298 278 323 
f 287 298 323 
f 274 279 324 
f 279 302 324 
f 302 289 324 
f 309 274 324 
f 289 309 324 
f 289 285 325 
f 285 290 325 
f 309 289 325 
f 290 309 325 
f 278 276 326 
f 276 287 326 
f 310 278 326 
f 287 310 326 
f 277 288 327 
f 290 277 327 
f 288 300 327 
