# Original object name hint: convex_1
v 0.02474 -0.06189 0.02474
v -0.04050 -0.06189 -0.03825
v -0.03150 -0.06414 -0.03601
v -0.03599 -0.06639 0.03599
v -0.04725 -0.04614 0.01574
v 0.02699 -0.05514 -0.02926
v 0.03150 -0.06639 -0.02700
v -0.05626 -0.05064 -0.02700
v -0.01125 -0.04614 0.01574
v 0.03826 -0.05739 0.01349
v -0.00676 -0.04614 -0.00900
v 0.03374 -0.06639 0.01799
v -0.05175 -0.06189 0.00898
v -0.02474 -0.06189 0.03825
v 0.00899 -0.05739 -0.03825
v -0.02925 -0.06639 -0.02250
v 0.00674 -0.05289 -0.03376
v 0.03826 -0.05739 -0.02250
v -0.04950 -0.06189 -0.02926
v -0.03599 -0.05514 -0.03825
v -0.05400 -0.05289 0.01124
v 0.00224 -0.06414 -0.03825
v 0.03826 -0.06414 -0.02250
v -0.05626 -0.05739 -0.02926
v -0.02025 -0.04614 -0.01125
v 0.02925 -0.05964 0.02249
v -0.01799 -0.06639 0.03599
v -0.01574 -0.06639 -0.03376
v -0.03825 -0.06639 0.00898
v -0.00451 -0.04614 -0.00000
v -0.05626 -0.04839 -0.00450
v 0.02474 -0.06414 -0.03376
v -0.05400 -0.05064 -0.02926
v -0.05626 -0.05739 -0.00000
v 0.03826 -0.06414 0.01574
v -0.03599 -0.06189 0.03599
v 0.02925 -0.05739 -0.03150
v -0.02925 -0.04614 -0.00900
v 0.02925 -0.06639 0.02249
v -0.01349 -0.06189 0.03599
v -0.04725 -0.06414 0.01124
v 0.03599 -0.06639 -0.00225
v 0.03374 -0.06414 -0.02926
v -0.04950 -0.05289 -0.03376
v 0.02250 -0.06639 -0.03150
v -0.05175 -0.05964 0.01349
v 0.02925 -0.05514 -0.02700
v -0.03150 -0.06189 0.03825
v -0.03825 -0.06414 -0.03150
v -0.04275 -0.06414 -0.02026
v -0.04725 -0.04614 0.00898
v 0.02025 -0.06189 -0.03601
v -0.01349 -0.06414 0.03599
v -0.05175 -0.06189 -0.00675
v 0.03150 -0.05739 0.01799
v 0.03150 -0.06189 0.02249
v -0.01574 -0.06414 -0.03825
v -0.00451 -0.04614 -0.00675
v -0.05175 -0.05064 0.01349
v 0.02474 -0.05739 -0.03376
v 0.03826 -0.05964 -0.02476
v -0.01574 -0.04614 -0.01125
v -0.05400 -0.05964 -0.02926
v -0.02474 -0.06414 0.03825
v 0.03826 -0.06414 -0.00900
v 0.04726 -0.05964 0.00224
v 0.04501 -0.05739 0.00674
v 0.03826 -0.06414 0.01350
v 0.03826 -0.05739 -0.01126
v 0.03826 -0.05739 0.01124
v 0.04051 -0.05964 -0.02026
v 0.04726 -0.06189 -0.00001
v 0.04276 -0.06414 0.01124
v 0.04501 -0.05964 0.01124
v 0.03826 -0.06189 -0.02026
v 0.04501 -0.05739 -0.00226
v 0.04276 -0.06414 -0.00226
v 0.04051 -0.06189 -0.02026
v -0.06752 -0.01238 -0.03151
v -0.05627 0.00789 0.02025
v -0.05627 0.01687 0.01799
v -0.07202 0.02137 0.01349
v -0.06077 0.06188 -0.02476
v -0.05852 -0.03263 -0.00900
v -0.06752 -0.02813 0.01349
v -0.07202 0.03038 -0.02926
v -0.05852 -0.02588 -0.02700
v -0.06977 -0.02813 -0.01575
v -0.06752 0.05963 -0.01126
v -0.05627 -0.03037 0.01574
v -0.05627 0.01687 -0.01126
v -0.06527 0.04163 0.01349
v -0.06302 0.02137 -0.03376
v -0.06752 -0.03488 -0.02025
v -0.06752 -0.01687 0.01799
v -0.05852 0.03263 -0.02700
v -0.06752 0.06188 -0.02476
v -0.07202 0.00113 0.00224
v -0.06077 0.05739 -0.01126
v -0.07202 0.03938 -0.01575
v -0.05627 -0.01911 -0.01350
v -0.06977 0.03712 0.01349
v -0.06752 0.01687 0.01799
v -0.06977 0.03712 -0.03151
v -0.07202 0.01463 -0.02700
v -0.06977 -0.01911 0.01124
v -0.06527 -0.03488 -0.00226
v -0.05852 -0.01687 0.02025
v -0.06752 -0.02362 -0.02926
v -0.06077 -0.03488 -0.02025
v -0.06077 -0.01012 -0.03151
v -0.06752 0.00563 -0.03376
v -0.06302 0.00339 0.02025
v -0.07202 0.03263 0.00449
v -0.06077 -0.03037 -0.02700
v -0.07202 0.00789 0.01349
v -0.06977 0.05288 -0.01350
v -0.06977 -0.02588 0.00224
v -0.06302 0.06414 -0.02025
v -0.06077 -0.03037 0.01574
v -0.07202 0.03938 -0.02476
v -0.05627 -0.02588 -0.00676
v -0.06977 -0.02588 -0.02025
v -0.05852 0.04163 -0.00451
v -0.06752 -0.03488 -0.00900
v -0.06302 0.03712 -0.03151
v -0.06077 -0.03488 -0.00226
v -0.06302 0.05963 -0.01126
v -0.06752 0.04163 0.01349
v -0.06527 0.06414 -0.02476
v -0.06752 -0.03263 -0.02476
v -0.05627 0.01913 -0.00900
v -0.05627 -0.01687 0.02025
v -0.06977 0.00789 -0.03151
v -0.06752 0.03263 0.01574
v -0.06302 -0.02588 -0.02926
v -0.07202 0.00113 -0.00451
v -0.06752 0.02137 -0.03376
v -0.06977 0.03938 0.01124
v -0.06077 0.01913 -0.03151
v -0.06302 -0.02362 0.01799
v -0.06302 0.00789 -0.03376
v 0.07202 0.00564 -0.01350
v 0.06302 0.01687 0.03825
v 0.05402 0.01687 0.03825
v 0.06527 0.05739 -0.01350
v 0.05627 -0.03038 -0.02475
v 0.06752 -0.03488 0.00899
v 0.05402 0.03038 -0.02701
v 0.07202 0.03713 0.02024
v 0.06752 -0.00787 -0.03152
v 0.05402 -0.02813 0.00899
v 0.06302 0.05513 0.01124
v 0.06977 0.03938 -0.02475
v 0.07202 0.01687 0.02700
v 0.06302 -0.01913 0.02700
v 0.06752 -0.03038 -0.02475
v 0.07202 0.05288 -0.00225
v 0.05402 0.03038 0.02024
v 0.06077 0.05288 -0.02250
v 0.05852 0.02588 -0.03152
v 0.05852 -0.03713 0.00899
v 0.06752 0.02588 0.03600
v 0.07202 0.01687 -0.02475
v 0.06977 0.05739 0.00899
v 0.06977 -0.02587 0.00899
v 0.06752 0.00788 0.03600
v 0.05402 0.00788 0.03825
v 0.06302 -0.03713 -0.01801
v 0.05852 -0.02813 -0.02926
v 0.06752 0.02588 -0.03152
v 0.06752 -0.02587 0.02024
v 0.05402 0.00788 -0.02701
v 0.06752 0.05288 -0.02250
v 0.05627 -0.02137 0.02249
v 0.06977 -0.02363 -0.01575
v 0.05402 0.03488 -0.01350
v 0.06302 0.05739 0.00674
v 0.06302 0.03038 0.03375
v 0.05402 -0.02813 -0.00675
v 0.05627 -0.03488 -0.01575
v 0.05852 -0.00787 -0.03152
v 0.06302 0.03938 -0.02926
v 0.07202 0.00338 0.01124
v 0.06302 0.00788 0.03825
v 0.06752 -0.03488 -0.01126
v 0.06752 0.05513 0.01349
v 0.06527 -0.02813 -0.02926
v 0.07202 0.03488 -0.02026
v 0.06077 -0.03488 -0.02475
v 0.06977 0.05739 -0.00451
v 0.06527 -0.03713 0.00674
v 0.06977 0.02362 0.03375
v 0.05852 -0.03713 -0.01801
v 0.05852 -0.02137 0.02474
v 0.06977 0.02588 -0.02926
v 0.05627 -0.02813 -0.02701
v 0.05402 -0.02137 0.01800
v 0.06752 -0.02813 -0.02701
v 0.06752 0.03713 -0.02926
v 0.07202 0.05288 0.00674
v 0.06527 0.05513 -0.02250
v 0.05402 0.03488 -0.02250
v 0.06977 -0.02587 -0.00901
v 0.05852 0.03488 -0.02926
v 0.06977 0.05288 0.01349
v 0.00899 0.06189 -0.00901
v -0.05626 -0.02361 -0.00676
v -0.05626 -0.02361 -0.00226
v 0.03826 -0.02587 -0.00226
v -0.01125 0.05738 0.00224
v 0.00449 0.00563 -0.01576
v -0.04725 0.04162 -0.01126
v 0.03150 -0.01913 0.00674
v -0.02025 -0.04388 -0.01126
v -0.04500 0.01913 0.00224
v -0.02025 -0.04388 0.00224
v 0.03826 0.01913 -0.00451
v -0.00002 0.05512 -0.01576
v -0.05626 -0.01913 -0.01126
v 0.00449 0.05738 0.00224
v 0.03826 0.01687 -0.00901
v 0.00449 -0.03938 -0.01126
v -0.03375 -0.01461 0.00449
v -0.04950 0.04162 -0.00226
v -0.00676 0.06639 -0.00901
v -0.02025 0.04162 -0.01576
v 0.01349 -0.04163 -0.00226
v -0.01574 0.03036 0.00449
v -0.04725 -0.03713 -0.00676
v -0.05175 -0.02138 0.00224
v 0.02025 -0.01913 -0.01126
v 0.03150 -0.02587 0.00674
v 0.03150 0.01687 0.00224
v -0.05626 0.01687 -0.00451
v -0.03375 0.05512 -0.00226
v 0.00674 0.06413 -0.00226
v -0.02699 -0.04614 -0.00001
v -0.00451 0.00339 -0.01576
v 0.00224 0.06413 -0.01351
v -0.00451 -0.04614 -0.00001
v 0.00899 0.01013 -0.01576
v -0.03375 0.01013 0.00449
v -0.02474 0.05062 0.00224
v -0.02925 0.05512 -0.01126
v -0.00676 -0.04614 -0.00901
v -0.00451 0.06639 -0.00226
v -0.05626 0.00113 -0.01126
v -0.05626 -0.00561 -0.00001
v -0.04950 0.04387 -0.00901
v -0.04725 -0.03488 -0.00001
v -0.02699 -0.04614 -0.00901
v -0.00900 0.05512 -0.01576
v -0.01574 0.01462 -0.01576
v 0.03826 -0.02587 -0.00001
v -0.04500 0.04162 -0.00001
v 0.01125 -0.04163 -0.00676
v 0.00449 0.04387 -0.01576
v 0.00674 0.05964 -0.01351
v -0.03375 0.05512 -0.00901
v -0.00451 0.06413 -0.01351
v 0.00224 0.05964 0.00224
v 0.02699 -0.01913 0.00674
v -0.02925 -0.03938 -0.01126
v 0.00224 0.06639 -0.00901
v 0.03374 -0.02587 -0.00451
v -0.05175 0.03713 -0.00901
v 0.03374 0.01913 -0.00001
v 0.03826 0.01462 -0.00901
v -0.02025 -0.02361 0.00449
v 0.03826 0.02586 0.02250
v -0.05626 -0.03263 0.01125
v -0.02699 -0.03713 0.00900
v -0.03599 0.06414 0.01125
v 0.00674 0.01011 0.02925
v 0.03150 -0.02362 0.00674
v -0.05626 0.01011 0.02024
v -0.00900 -0.04614 0.01575
v 0.00224 0.05514 0.00900
v 0.03826 0.01011 0.02925
v -0.04725 -0.04614 0.01575
v -0.03599 0.06414 0.01575
v 0.03826 0.02812 0.01350
v 0.00449 0.06188 0.01575
v -0.05175 0.04838 0.01125
v -0.05626 -0.01686 0.02024
v 0.03374 -0.01913 0.01800
v 0.00674 0.01686 0.02925
v -0.01574 0.05288 0.00900
v -0.04725 0.05738 0.01575
v -0.00002 -0.00336 0.02700
v -0.00900 -0.04614 0.01125
v 0.03826 -0.00561 0.01575
v 0.03599 0.02586 0.01125
v -0.04725 -0.04614 0.01125
v 0.00449 0.06188 0.01125
v -0.05626 0.01686 0.01125
v 0.03599 -0.00561 0.02475
v 0.03826 0.01236 0.02925
v -0.04500 0.02812 0.02024
v -0.01125 -0.04164 0.00900
v 0.02699 -0.02137 0.00674
v -0.02025 0.06414 0.01575
v -0.05175 0.04838 0.01575
v 0.02025 -0.01012 0.02475
v -0.05626 -0.03263 0.01575
v 0.01349 0.01686 0.02925
v 0.01125 0.04387 0.00900
v -0.04275 0.06188 0.01125
v 0.02925 -0.02362 0.01575
v 0.03826 0.02812 0.02024
v -0.05400 -0.01913 0.02024
v 0.03826 -0.00561 0.02250
v 0.00224 -0.01237 0.02475
v -0.04275 0.06188 0.01575
v -0.05626 0.01912 0.01800
v -0.02699 -0.03038 0.00900
v 0.03826 0.00565 0.01350
v 0.03150 -0.02137 0.00674
v -0.02250 -0.04164 0.00900
v -0.02025 0.06414 0.01125
v 0.01125 -0.00336 0.02700
v 0.03150 -0.01686 0.02024
v -0.01125 0.05514 0.00900
v -0.04725 0.05738 0.01125
v 0.03150 -0.02362 0.00900
v -0.05400 0.01462 0.02024
v 0.05176 0.00563 0.01125
v 0.05401 0.01463 0.03825
v 0.05401 0.01913 0.03600
v 0.03826 0.01688 0.03600
v 0.03826 0.02813 0.01350
v 0.03826 -0.00337 0.01575
v 0.05401 -0.00788 0.02025
v 0.05401 0.02813 0.01575
v 0.03826 0.01013 0.03600
v 0.03826 0.02813 0.02025
v 0.05401 -0.00788 0.01350
v 0.05401 0.00788 0.03825
v 0.03826 0.01463 0.01125
v 0.05401 0.01688 0.01125
v 0.05401 0.02813 0.02250
v 0.03826 -0.00337 0.02025
v 0.04951 0.00563 0.03600
v 0.04726 0.02363 0.01125
v 0.05176 -0.00788 0.01350
v 0.05176 -0.00788 0.02025
v 0.04951 0.01463 0.03825
v 0.04951 0.02813 0.01350
v 0.03826 0.02138 0.01125
v 0.05176 0.01913 0.03600
v 0.04951 0.01913 -0.02476
v 0.05401 0.03038 -0.01351
v 0.05401 0.03263 -0.02026
v 0.05401 0.01688 -0.02476
v 0.05176 0.01913 -0.01351
v 0.04726 0.02588 -0.02026
v 0.05176 0.03038 -0.02476
v 0.05401 0.01688 -0.01576
v 0.05176 0.03038 -0.01351
v 0.04726 0.02138 -0.02251
v 0.05176 0.03263 -0.02251
v 0.05176 0.01688 -0.01576
v 0.05401 0.03038 -0.02476
v 0.04951 0.02813 -0.02476
v 0.05176 0.02588 -0.00676
v 0.03826 0.01463 -0.00901
v 0.03826 0.01463 -0.00451
v 0.04951 0.01238 -0.00901
v 0.05176 0.03038 -0.01351
v 0.05401 0.01913 -0.01351
v 0.04951 0.01238 -0.00451
v 0.04726 0.02813 -0.00676
v 0.04726 0.02363 -0.00451
v 0.05401 0.02813 -0.00901
v 0.03826 0.01688 -0.00901
v 0.04951 0.02138 -0.01351
v 0.03826 0.01688 -0.00451
v 0.05401 0.02138 -0.00901
v 0.04501 0.01238 -0.00901
v 0.04726 0.02813 -0.01126
v 0.05401 0.03038 -0.01351
f 72 77 78 
f 65 68 69 
f 67 69 70 
f 69 68 70 
f 71 66 72 
f 68 65 73 
f 73 72 74 
f 66 67 74 
f 67 70 74 
f 70 68 74 
f 72 66 74 
f 68 73 74 
f 65 69 75 
f 69 71 75 
f 67 66 76 
f 69 67 76 
f 66 71 76 
f 71 69 76 
f 73 65 77 
f 72 73 77 
f 71 72 78 
f 65 75 78 
f 75 71 78 
f 77 65 78 
