# Original object name hint: convex_3
v 0.02474 -0.06189 0.02474
v -0.04050 -0.06189 -0.03825
v -0.03150 -0.06414 -0.03601
v -0.03599 -0.06639 0.03599
v -0.04725 -0.04614 0.01574
v 0.02699 -0.05514 -0.02926
v 0.03150 -0.06639 -0.02700
v -0.05626 -0.05064 -0.02700
v -0.01125 -0.04614 0.01574
v 0.03826 -0.05739 0.01349
v -0.00676 -0.04614 -0.00900
v 0.03374 -0.06639 0.01799
v -0.05175 -0.06189 0.00898
v -0.02474 -0.06189 0.03825
v 0.00899 -0.05739 -0.03825
v -0.02925 -0.06639 -0.02250
v 0.00674 -0.05289 -0.03376
v 0.03826 -0.05739 -0.02250
v -0.04950 -0.06189 -0.02926
v -0.03599 -0.05514 -0.03825
v -0.05400 -0.05289 0.01124
v 0.00224 -0.06414 -0.03825
v 0.03826 -0.06414 -0.02250
v -0.05626 -0.05739 -0.02926
v -0.02025 -0.04614 -0.01125
v 0.02925 -0.05964 0.02249
v -0.01799 -0.06639 0.03599
v -0.01574 -0.06639 -0.03376
v -0.03825 -0.06639 0.00898
v -0.00451 -0.04614 -0.00000
v -0.05626 -0.04839 -0.00450
v 0.02474 -0.06414 -0.03376
v -0.05400 -0.05064 -0.02926
v -0.05626 -0.05739 -0.00000
v 0.03826 -0.06414 0.01574
v -0.03599 -0.06189 0.03599
v 0.02925 -0.05739 -0.03150
v -0.02925 -0.04614 -0.00900
v 0.02925 -0.06639 0.02249
v -0.01349 -0.06189 0.03599
v -0.04725 -0.06414 0.01124
v 0.03599 -0.06639 -0.00225
v 0.03374 -0.06414 -0.02926
v -0.04950 -0.05289 -0.03376
v 0.02250 -0.06639 -0.03150
v -0.05175 -0.05964 0.01349
v 0.02925 -0.05514 -0.02700
v -0.03150 -0.06189 0.03825
v -0.03825 -0.06414 -0.03150
v -0.04275 -0.06414 -0.02026
v -0.04725 -0.04614 0.00898
v 0.02025 -0.06189 -0.03601
v -0.01349 -0.06414 0.03599
v -0.05175 -0.06189 -0.00675
v 0.03150 -0.05739 0.01799
v 0.03150 -0.06189 0.02249
v -0.01574 -0.06414 -0.03825
v -0.00451 -0.04614 -0.00675
v -0.05175 -0.05064 0.01349
v 0.02474 -0.05739 -0.03376
v 0.03826 -0.05964 -0.02476
v -0.01574 -0.04614 -0.01125
v -0.05400 -0.05964 -0.02926
v -0.02474 -0.06414 0.03825
v 0.03826 -0.06414 -0.00900
v 0.04726 -0.05964 0.00224
v 0.04501 -0.05739 0.00674
v 0.03826 -0.06414 0.01350
v 0.03826 -0.05739 -0.01126
v 0.03826 -0.05739 0.01124
v 0.04051 -0.05964 -0.02026
v 0.04726 -0.06189 -0.00001
v 0.04276 -0.06414 0.01124
v 0.04501 -0.05964 0.01124
v 0.03826 -0.06189 -0.02026
v 0.04501 -0.05739 -0.00226
v 0.04276 -0.06414 -0.00226
v 0.04051 -0.06189 -0.02026
v -0.06752 -0.01238 -0.03151
v -0.05627 0.00789 0.02025
v -0.05627 0.01687 0.01799
v -0.07202 0.02137 0.01349
v -0.06077 0.06188 -0.02476
v -0.05852 -0.03263 -0.00900
v -0.06752 -0.02813 0.01349
v -0.07202 0.03038 -0.02926
v -0.05852 -0.02588 -0.02700
v -0.06977 -0.02813 -0.01575
v -0.06752 0.05963 -0.01126
v -0.05627 -0.03037 0.01574
v -0.05627 0.01687 -0.01126
v -0.06527 0.04163 0.01349
v -0.06302 0.02137 -0.03376
v -0.06752 -0.03488 -0.02025
v -0.06752 -0.01687 0.01799
v -0.05852 0.03263 -0.02700
v -0.06752 0.06188 -0.02476
v -0.07202 0.00113 0.00224
v -0.06077 0.05739 -0.01126
v -0.07202 0.03938 -0.01575
v -0.05627 -0.01911 -0.01350
v -0.06977 0.03712 0.01349
v -0.06752 0.01687 0.01799
v -0.06977 0.03712 -0.03151
v -0.07202 0.01463 -0.02700
v -0.06977 -0.01911 0.01124
v -0.06527 -0.03488 -0.00226
v -0.05852 -0.01687 0.02025
v -0.06752 -0.02362 -0.02926
v -0.06077 -0.03488 -0.02025
v -0.06077 -0.01012 -0.03151
v -0.06752 0.00563 -0.03376
v -0.06302 0.00339 0.02025
v -0.07202 0.03263 0.00449
v -0.06077 -0.03037 -0.02700
v -0.07202 0.00789 0.01349
v -0.06977 0.05288 -0.01350
v -0.06977 -0.02588 0.00224
v -0.06302 0.06414 -0.02025
v -0.06077 -0.03037 0.01574
v -0.07202 0.03938 -0.02476
v -0.05627 -0.02588 -0.00676
v -0.06977 -0.02588 -0.02025
v -0.05852 0.04163 -0.00451
v -0.06752 -0.03488 -0.00900
v -0.06302 0.03712 -0.03151
v -0.06077 -0.03488 -0.00226
v -0.06302 0.05963 -0.01126
v -0.06752 0.04163 0.01349
v -0.06527 0.06414 -0.02476
v -0.06752 -0.03263 -0.02476
v -0.05627 0.01913 -0.00900
v -0.05627 -0.01687 0.02025
v -0.06977 0.00789 -0.03151
v -0.06752 0.03263 0.01574
v -0.06302 -0.02588 -0.02926
v -0.07202 0.00113 -0.00451
v -0.06752 0.02137 -0.03376
v -0.06977 0.03938 0.01124
v -0.06077 0.01913 -0.03151
v -0.06302 -0.02362 0.01799
v -0.06302 0.00789 -0.03376
v 0.07202 0.00564 -0.01350
v 0.06302 0.01687 0.03825
v 0.05402 0.01687 0.03825
v 0.06527 0.05739 -0.01350
v 0.05627 -0.03038 -0.02475
v 0.06752 -0.03488 0.00899
v 0.05402 0.03038 -0.02701
v 0.07202 0.03713 0.02024
v 0.06752 -0.00787 -0.03152
v 0.05402 -0.02813 0.00899
v 0.06302 0.05513 0.01124
v 0.06977 0.03938 -0.02475
v 0.07202 0.01687 0.02700
v 0.06302 -0.01913 0.02700
v 0.06752 -0.03038 -0.02475
v 0.07202 0.05288 -0.00225
v 0.05402 0.03038 0.02024
v 0.06077 0.05288 -0.02250
v 0.05852 0.02588 -0.03152
v 0.05852 -0.03713 0.00899
v 0.06752 0.02588 0.03600
v 0.07202 0.01687 -0.02475
v 0.06977 0.05739 0.00899
v 0.06977 -0.02587 0.00899
v 0.06752 0.00788 0.03600
v 0.05402 0.00788 0.03825
v 0.06302 -0.03713 -0.01801
v 0.05852 -0.02813 -0.02926
v 0.06752 0.02588 -0.03152
v 0.06752 -0.02587 0.02024
v 0.05402 0.00788 -0.02701
v 0.06752 0.05288 -0.02250
v 0.05627 -0.02137 0.02249
v 0.06977 -0.02363 -0.01575
v 0.05402 0.03488 -0.01350
v 0.06302 0.05739 0.00674
v 0.06302 0.03038 0.03375
v 0.05402 -0.02813 -0.00675
v 0.05627 -0.03488 -0.01575
v 0.05852 -0.00787 -0.03152
v 0.06302 0.03938 -0.02926
v 0.07202 0.00338 0.01124
v 0.06302 0.00788 0.03825
v 0.06752 -0.03488 -0.01126
v 0.06752 0.05513 0.01349
v 0.06527 -0.02813 -0.02926
v 0.07202 0.03488 -0.02026
v 0.06077 -0.03488 -0.02475
v 0.06977 0.05739 -0.00451
v 0.06527 -0.03713 0.00674
v 0.06977 0.02362 0.03375
v 0.05852 -0.03713 -0.01801
v 0.05852 -0.02137 0.02474
v 0.06977 0.02588 -0.02926
v 0.05627 -0.02813 -0.02701
v 0.05402 -0.02137 0.01800
v 0.06752 -0.02813 -0.02701
v 0.06752 0.03713 -0.02926
v 0.07202 0.05288 0.00674
v 0.06527 0.05513 -0.02250
v 0.05402 0.03488 -0.02250
v 0.06977 -0.02587 -0.00901
v 0.05852 0.03488 -0.02926
v 0.06977 0.05288 0.01349
v 0.00899 0.06189 -0.00901
v -0.05626 -0.02361 -0.00676
v -0.05626 -0.02361 -0.00226
v 0.03826 -0.02587 -0.00226
v -0.01125 0.05738 0.00224
v 0.00449 0.00563 -0.01576
v -0.04725 0.04162 -0.01126
v 0.03150 -0.01913 0.00674
v -0.02025 -0.04388 -0.01126
v -0.04500 0.01913 0.00224
v -0.02025 -0.04388 0.00224
v 0.03826 0.01913 -0.00451
v -0.00002 0.05512 -0.01576
v -0.05626 -0.01913 -0.01126
v 0.00449 0.05738 0.00224
v 0.03826 0.01687 -0.00901
v 0.00449 -0.03938 -0.01126
v -0.03375 -0.01461 0.00449
v -0.04950 0.04162 -0.00226
v -0.00676 0.06639 -0.00901
v -0.02025 0.04162 -0.01576
v 0.01349 -0.04163 -0.00226
v -0.01574 0.03036 0.00449
v -0.04725 -0.03713 -0.00676
v -0.05175 -0.02138 0.00224
v 0.02025 -0.01913 -0.01126
v 0.03150 -0.02587 0.00674
v 0.03150 0.01687 0.00224
v -0.05626 0.01687 -0.00451
v -0.03375 0.05512 -0.00226
v 0.00674 0.06413 -0.00226
v -0.02699 -0.04614 -0.00001
v -0.00451 0.00339 -0.01576
v 0.00224 0.06413 -0.01351
v -0.00451 -0.04614 -0.00001
v 0.00899 0.01013 -0.01576
v -0.03375 0.01013 0.00449
v -0.02474 0.05062 0.00224
v -0.02925 0.05512 -0.01126
v -0.00676 -0.04614 -0.00901
v -0.00451 0.06639 -0.00226
v -0.05626 0.00113 -0.01126
v -0.05626 -0.00561 -0.00001
v -0.04950 0.04387 -0.00901
v -0.04725 -0.03488 -0.00001
v -0.02699 -0.04614 -0.00901
v -0.00900 0.05512 -0.01576
v -0.01574 0.01462 -0.01576
v 0.03826 -0.02587 -0.00001
v -0.04500 0.04162 -0.00001
v 0.01125 -0.04163 -0.00676
v 0.00449 0.04387 -0.01576
v 0.00674 0.05964 -0.01351
v -0.03375 0.05512 -0.00901
v -0.00451 0.06413 -0.01351
v 0.00224 0.05964 0.00224
v 0.02699 -0.01913 0.00674
v -0.02925 -0.03938 -0.01126
v 0.00224 0.06639 -0.00901
v 0.03374 -0.02587 -0.00451
v -0.05175 0.03713 -0.00901
v 0.03374 0.01913 -0.00001
v 0.03826 0.01462 -0.00901
v -0.02025 -0.02361 0.00449
v 0.03826 0.02586 0.02250
v -0.05626 -0.03263 0.01125
v -0.02699 -0.03713 0.00900
v -0.03599 0.06414 0.01125
v 0.00674 0.01011 0.02925
v 0.03150 -0.02362 0.00674
v -0.05626 0.01011 0.02024
v -0.00900 -0.04614 0.01575
v 0.00224 0.05514 0.00900
v 0.03826 0.01011 0.02925
v -0.04725 -0.04614 0.01575
v -0.03599 0.06414 0.01575
v 0.03826 0.02812 0.01350
v 0.00449 0.06188 0.01575
v -0.05175 0.04838 0.01125
v -0.05626 -0.01686 0.02024
v 0.03374 -0.01913 0.01800
v 0.00674 0.01686 0.02925
v -0.01574 0.05288 0.00900
v -0.04725 0.05738 0.01575
v -0.00002 -0.00336 0.02700
v -0.00900 -0.04614 0.01125
v 0.03826 -0.00561 0.01575
v 0.03599 0.02586 0.01125
v -0.04725 -0.04614 0.01125
v 0.00449 0.06188 0.01125
v -0.05626 0.01686 0.01125
v 0.03599 -0.00561 0.02475
v 0.03826 0.01236 0.02925
v -0.04500 0.02812 0.02024
v -0.01125 -0.04164 0.00900
v 0.02699 -0.02137 0.00674
v -0.02025 0.06414 0.01575
v -0.05175 0.04838 0.01575
v 0.02025 -0.01012 0.02475
v -0.05626 -0.03263 0.01575
v 0.01349 0.01686 0.02925
v 0.01125 0.04387 0.00900
v -0.04275 0.06188 0.01125
v 0.02925 -0.02362 0.01575
v 0.03826 0.02812 0.02024
v -0.05400 -0.01913 0.02024
v 0.03826 -0.00561 0.02250
v 0.00224 -0.01237 0.02475
v -0.04275 0.06188 0.01575
v -0.05626 0.01912 0.01800
v -0.02699 -0.03038 0.00900
v 0.03826 0.00565 0.01350
v 0.03150 -0.02137 0.00674
v -0.02250 -0.04164 0.00900
v -0.02025 0.06414 0.01125
v 0.01125 -0.00336 0.02700
v 0.03150 -0.01686 0.02024
v -0.01125 0.05514 0.00900
v -0.04725 0.05738 0.01125
v 0.03150 -0.02362 0.00900
v -0.05400 0.01462 0.02024
v 0.05176 0.00563 0.01125
v 0.05401 0.01463 0.03825
v 0.05401 0.01913 0.03600
v 0.03826 0.01688 0.03600
v 0.03826 0.02813 0.01350
v 0.03826 -0.00337 0.01575
v 0.05401 -0.00788 0.02025
v 0.05401 0.02813 0.01575
v 0.03826 0.01013 0.03600
v 0.03826 0.02813 0.02025
v 0.05401 -0.00788 0.01350
v 0.05401 0.00788 0.03825
v 0.03826 0.01463 0.01125
v 0.05401 0.01688 0.01125
v 0.05401 0.02813 0.02250
v 0.03826 -0.00337 0.02025
v 0.04951 0.00563 0.03600
v 0.04726 0.02363 0.01125
v 0.05176 -0.00788 0.01350
v 0.05176 -0.00788 0.02025
v 0.04951 0.01463 0.03825
v 0.04951 0.02813 0.01350
v 0.03826 0.02138 0.01125
v 0.05176 0.01913 0.03600
v 0.04951 0.01913 -0.02476
v 0.05401 0.03038 -0.01351
v 0.05401 0.03263 -0.02026
v 0.05401 0.01688 -0.02476
v 0.05176 0.01913 -0.01351
v 0.04726 0.02588 -0.02026
v 0.05176 0.03038 -0.02476
v 0.05401 0.01688 -0.01576
v 0.05176 0.03038 -0.01351
v 0.04726 0.02138 -0.02251
v 0.05176 0.03263 -0.02251
v 0.05176 0.01688 -0.01576
v 0.05401 0.03038 -0.02476
v 0.04951 0.02813 -0.02476
v 0.05176 0.02588 -0.00676
v 0.03826 0.01463 -0.00901
v 0.03826 0.01463 -0.00451
v 0.04951 0.01238 -0.00901
v 0.05176 0.03038 -0.01351
v 0.05401 0.01913 -0.01351
v 0.04951 0.01238 -0.00451
v 0.04726 0.02813 -0.00676
v 0.04726 0.02363 -0.00451
v 0.05401 0.02813 -0.00901
v 0.03826 0.01688 -0.00901
v 0.04951 0.02138 -0.01351
v 0.03826 0.01688 -0.00451
v 0.05401 0.02138 -0.00901
v 0.04501 0.01238 -0.00901
v 0.04726 0.02813 -0.01126
v 0.05401 0.03038 -0.01351
f 201 165 206 
f 145 149 152 
f 143 150 155 
f 150 143 158 
f 149 145 159 
f 145 153 159 
f 145 144 163 
f 158 143 164 
f 163 144 167 
f 144 145 168 
f 145 152 168 
f 151 161 171 
f 156 162 172 
f 162 148 172 
f 148 166 172 
f 166 155 172 
f 167 156 172 
f 155 167 172 
f 152 149 173 
f 149 161 173 
f 164 143 176 
f 149 159 177 
f 160 177 178 
f 159 153 178 
f 146 160 178 
f 165 146 178 
f 177 159 178 
f 153 145 179 
f 145 163 179 
f 152 173 180 
f 162 152 181 
f 180 147 181 
f 152 180 181 
f 161 151 182 
f 151 170 182 
f 173 161 182 
f 171 161 183 
f 143 155 184 
f 155 166 184 
f 167 144 185 
f 156 167 185 
f 144 168 185 
f 168 156 185 
f 166 148 186 
f 169 157 186 
f 157 176 186 
f 178 153 187 
f 165 178 187 
f 153 179 187 
f 179 163 187 
f 170 151 188 
f 158 164 189 
f 174 158 189 
f 154 174 189 
f 157 169 190 
f 147 170 190 
f 188 157 190 
f 170 188 190 
f 146 165 191 
f 165 158 191 
f 158 174 191 
f 148 162 192 
f 162 169 192 
f 186 148 192 
f 169 186 192 
f 155 150 193 
f 163 167 193 
f 167 155 193 
f 169 162 194 
f 162 181 194 
f 181 147 194 
f 190 169 194 
f 147 190 194 
f 162 156 195 
f 156 168 195 
f 175 162 195 
f 168 175 195 
f 164 151 196 
f 151 171 196 
f 154 189 196 
f 189 164 196 
f 170 147 197 
f 147 180 197 
f 180 173 197 
f 182 170 197 
f 173 182 197 
f 152 162 198 
f 168 152 198 
f 162 175 198 
f 175 168 198 
f 151 164 199 
f 176 157 199 
f 164 176 199 
f 188 151 199 
f 157 188 199 
f 174 154 200 
f 171 183 200 
f 154 196 200 
f 196 171 200 
f 150 158 201 
f 158 165 201 
f 160 146 202 
f 183 160 202 
f 146 191 202 
f 191 174 202 
f 174 200 202 
f 200 183 202 
f 160 149 203 
f 149 177 203 
f 177 160 203 
f 176 143 204 
f 143 184 204 
f 184 166 204 
f 166 186 204 
f 186 176 204 
f 149 160 205 
f 161 149 205 
f 160 183 205 
f 183 161 205 
f 187 163 206 
f 165 187 206 
f 193 150 206 
f 163 193 206 
f 150 201 206 
