# Original object name hint: convex_2
v 0.02474 -0.06189 0.02474
v -0.04050 -0.06189 -0.03825
v -0.03150 -0.06414 -0.03601
v -0.03599 -0.06639 0.03599
v -0.04725 -0.04614 0.01574
v 0.02699 -0.05514 -0.02926
v 0.03150 -0.06639 -0.02700
v -0.05626 -0.05064 -0.02700
v -0.01125 -0.04614 0.01574
v 0.03826 -0.05739 0.01349
v -0.00676 -0.04614 -0.00900
v 0.03374 -0.06639 0.01799
v -0.05175 -0.06189 0.00898
v -0.02474 -0.06189 0.03825
v 0.00899 -0.05739 -0.03825
v -0.02925 -0.06639 -0.02250
v 0.00674 -0.05289 -0.03376
v 0.03826 -0.05739 -0.02250
v -0.04950 -0.06189 -0.02926
v -0.03599 -0.05514 -0.03825
v -0.05400 -0.05289 0.01124
v 0.00224 -0.06414 -0.03825
v 0.03826 -0.06414 -0.02250
v -0.05626 -0.05739 -0.02926
v -0.02025 -0.04614 -0.01125
v 0.02925 -0.05964 0.02249
v -0.01799 -0.06639 0.03599
v -0.01574 -0.06639 -0.03376
v -0.03825 -0.06639 0.00898
v -0.00451 -0.04614 -0.00000
v -0.05626 -0.04839 -0.00450
v 0.02474 -0.06414 -0.03376
v -0.05400 -0.05064 -0.02926
v -0.05626 -0.05739 -0.00000
v 0.03826 -0.06414 0.01574
v -0.03599 -0.06189 0.03599
v 0.02925 -0.05739 -0.03150
v -0.02925 -0.04614 -0.00900
v 0.02925 -0.06639 0.02249
v -0.01349 -0.06189 0.03599
v -0.04725 -0.06414 0.01124
v 0.03599 -0.06639 -0.00225
v 0.03374 -0.06414 -0.02926
v -0.04950 -0.05289 -0.03376
v 0.02250 -0.06639 -0.03150
v -0.05175 -0.05964 0.01349
v 0.02925 -0.05514 -0.02700
v -0.03150 -0.06189 0.03825
v -0.03825 -0.06414 -0.03150
v -0.04275 -0.06414 -0.02026
v -0.04725 -0.04614 0.00898
v 0.02025 -0.06189 -0.03601
v -0.01349 -0.06414 0.03599
v -0.05175 -0.06189 -0.00675
v 0.03150 -0.05739 0.01799
v 0.03150 -0.06189 0.02249
v -0.01574 -0.06414 -0.03825
v -0.00451 -0.04614 -0.00675
v -0.05175 -0.05064 0.01349
v 0.02474 -0.05739 -0.03376
v 0.03826 -0.05964 -0.02476
v -0.01574 -0.04614 -0.01125
v -0.05400 -0.05964 -0.02926
v -0.02474 -0.06414 0.03825
v 0.03826 -0.06414 -0.00900
v 0.04726 -0.05964 0.00224
v 0.04501 -0.05739 0.00674
v 0.03826 -0.06414 0.01350
v 0.03826 -0.05739 -0.01126
v 0.03826 -0.05739 0.01124
v 0.04051 -0.05964 -0.02026
v 0.04726 -0.06189 -0.00001
v 0.04276 -0.06414 0.01124
v 0.04501 -0.05964 0.01124
v 0.03826 -0.06189 -0.02026
v 0.04501 -0.05739 -0.00226
v 0.04276 -0.06414 -0.00226
v 0.04051 -0.06189 -0.02026
v -0.06752 -0.01238 -0.03151
v -0.05627 0.00789 0.02025
v -0.05627 0.01687 0.01799
v -0.07202 0.02137 0.01349
v -0.06077 0.06188 -0.02476
v -0.05852 -0.03263 -0.00900
v -0.06752 -0.02813 0.01349
v -0.07202 0.03038 -0.02926
v -0.05852 -0.02588 -0.02700
v -0.06977 -0.02813 -0.01575
v -0.06752 0.05963 -0.01126
v -0.05627 -0.03037 0.01574
v -0.05627 0.01687 -0.01126
v -0.06527 0.04163 0.01349
v -0.06302 0.02137 -0.03376
v -0.06752 -0.03488 -0.02025
v -0.06752 -0.01687 0.01799
v -0.05852 0.03263 -0.02700
v -0.06752 0.06188 -0.02476
v -0.07202 0.00113 0.00224
v -0.06077 0.05739 -0.01126
v -0.07202 0.03938 -0.01575
v -0.05627 -0.01911 -0.01350
v -0.06977 0.03712 0.01349
v -0.06752 0.01687 0.01799
v -0.06977 0.03712 -0.03151
v -0.07202 0.01463 -0.02700
v -0.06977 -0.01911 0.01124
v -0.06527 -0.03488 -0.00226
v -0.05852 -0.01687 0.02025
v -0.06752 -0.02362 -0.02926
v -0.06077 -0.03488 -0.02025
v -0.06077 -0.01012 -0.03151
v -0.06752 0.00563 -0.03376
v -0.06302 0.00339 0.02025
v -0.07202 0.03263 0.00449
v -0.06077 -0.03037 -0.02700
v -0.07202 0.00789 0.01349
v -0.06977 0.05288 -0.01350
v -0.06977 -0.02588 0.00224
v -0.06302 0.06414 -0.02025
v -0.06077 -0.03037 0.01574
v -0.07202 0.03938 -0.02476
v -0.05627 -0.02588 -0.00676
v -0.06977 -0.02588 -0.02025
v -0.05852 0.04163 -0.00451
v -0.06752 -0.03488 -0.00900
v -0.06302 0.03712 -0.03151
v -0.06077 -0.03488 -0.00226
v -0.06302 0.05963 -0.01126
v -0.06752 0.04163 0.01349
v -0.06527 0.06414 -0.02476
v -0.06752 -0.03263 -0.02476
v -0.05627 0.01913 -0.00900
v -0.05627 -0.01687 0.02025
v -0.06977 0.00789 -0.03151
v -0.06752 0.03263 0.01574
v -0.06302 -0.02588 -0.02926
v -0.07202 0.00113 -0.00451
v -0.06752 0.02137 -0.03376
v -0.06977 0.03938 0.01124
v -0.06077 0.01913 -0.03151
v -0.06302 -0.02362 0.01799
v -0.06302 0.00789 -0.03376
v 0.07202 0.00564 -0.01350
v 0.06302 0.01687 0.03825
v 0.05402 0.01687 0.03825
v 0.06527 0.05739 -0.01350
v 0.05627 -0.03038 -0.02475
v 0.06752 -0.03488 0.00899
v 0.05402 0.03038 -0.02701
v 0.07202 0.03713 0.02024
v 0.06752 -0.00787 -0.03152
v 0.05402 -0.02813 0.00899
v 0.06302 0.05513 0.01124
v 0.06977 0.03938 -0.02475
v 0.07202 0.01687 0.02700
v 0.06302 -0.01913 0.02700
v 0.06752 -0.03038 -0.02475
v 0.07202 0.05288 -0.00225
v 0.05402 0.03038 0.02024
v 0.06077 0.05288 -0.02250
v 0.05852 0.02588 -0.03152
v 0.05852 -0.03713 0.00899
v 0.06752 0.02588 0.03600
v 0.07202 0.01687 -0.02475
v 0.06977 0.05739 0.00899
v 0.06977 -0.02587 0.00899
v 0.06752 0.00788 0.03600
v 0.05402 0.00788 0.03825
v 0.06302 -0.03713 -0.01801
v 0.05852 -0.02813 -0.02926
v 0.06752 0.02588 -0.03152
v 0.06752 -0.02587 0.02024
v 0.05402 0.00788 -0.02701
v 0.06752 0.05288 -0.02250
v 0.05627 -0.02137 0.02249
v 0.06977 -0.02363 -0.01575
v 0.05402 0.03488 -0.01350
v 0.06302 0.05739 0.00674
v 0.06302 0.03038 0.03375
v 0.05402 -0.02813 -0.00675
v 0.05627 -0.03488 -0.01575
v 0.05852 -0.00787 -0.03152
v 0.06302 0.03938 -0.02926
v 0.07202 0.00338 0.01124
v 0.06302 0.00788 0.03825
v 0.06752 -0.03488 -0.01126
v 0.06752 0.05513 0.01349
v 0.06527 -0.02813 -0.02926
v 0.07202 0.03488 -0.02026
v 0.06077 -0.03488 -0.02475
v 0.06977 0.05739 -0.00451
v 0.06527 -0.03713 0.00674
v 0.06977 0.02362 0.03375
v 0.05852 -0.03713 -0.01801
v 0.05852 -0.02137 0.02474
v 0.06977 0.02588 -0.02926
v 0.05627 -0.02813 -0.02701
v 0.05402 -0.02137 0.01800
v 0.06752 -0.02813 -0.02701
v 0.06752 0.03713 -0.02926
v 0.07202 0.05288 0.00674
v 0.06527 0.05513 -0.02250
v 0.05402 0.03488 -0.02250
v 0.06977 -0.02587 -0.00901
v 0.05852 0.03488 -0.02926
v 0.06977 0.05288 0.01349
v 0.00899 0.06189 -0.00901
v -0.05626 -0.02361 -0.00676
v -0.05626 -0.02361 -0.00226
v 0.03826 -0.02587 -0.00226
v -0.01125 0.05738 0.00224
v 0.00449 0.00563 -0.01576
v -0.04725 0.04162 -0.01126
v 0.03150 -0.01913 0.00674
v -0.02025 -0.04388 -0.01126
v -0.04500 0.01913 0.00224
v -0.02025 -0.04388 0.00224
v 0.03826 0.01913 -0.00451
v -0.00002 0.05512 -0.01576
v -0.05626 -0.01913 -0.01126
v 0.00449 0.05738 0.00224
v 0.03826 0.01687 -0.00901
v 0.00449 -0.03938 -0.01126
v -0.03375 -0.01461 0.00449
v -0.04950 0.04162 -0.00226
v -0.00676 0.06639 -0.00901
v -0.02025 0.04162 -0.01576
v 0.01349 -0.04163 -0.00226
v -0.01574 0.03036 0.00449
v -0.04725 -0.03713 -0.00676
v -0.05175 -0.02138 0.00224
v 0.02025 -0.01913 -0.01126
v 0.03150 -0.02587 0.00674
v 0.03150 0.01687 0.00224
v -0.05626 0.01687 -0.00451
v -0.03375 0.05512 -0.00226
v 0.00674 0.06413 -0.00226
v -0.02699 -0.04614 -0.00001
v -0.00451 0.00339 -0.01576
v 0.00224 0.06413 -0.01351
v -0.00451 -0.04614 -0.00001
v 0.00899 0.01013 -0.01576
v -0.03375 0.01013 0.00449
v -0.02474 0.05062 0.00224
v -0.02925 0.05512 -0.01126
v -0.00676 -0.04614 -0.00901
v -0.00451 0.06639 -0.00226
v -0.05626 0.00113 -0.01126
v -0.05626 -0.00561 -0.00001
v -0.04950 0.04387 -0.00901
v -0.04725 -0.03488 -0.00001
v -0.02699 -0.04614 -0.00901
v -0.00900 0.05512 -0.01576
v -0.01574 0.01462 -0.01576
v 0.03826 -0.02587 -0.00001
v -0.04500 0.04162 -0.00001
v 0.01125 -0.04163 -0.00676
v 0.00449 0.04387 -0.01576
v 0.00674 0.05964 -0.01351
v -0.03375 0.05512 -0.00901
v -0.00451 0.06413 -0.01351
v 0.00224 0.05964 0.00224
v 0.02699 -0.01913 0.00674
v -0.02925 -0.03938 -0.01126
v 0.00224 0.06639 -0.00901
v 0.03374 -0.02587 -0.00451
v -0.05175 0.03713 -0.00901
v 0.03374 0.01913 -0.00001
v 0.03826 0.01462 -0.00901
v -0.02025 -0.02361 0.00449
v 0.03826 0.02586 0.02250
v -0.05626 -0.03263 0.01125
v -0.02699 -0.03713 0.00900
v -0.03599 0.06414 0.01125
v 0.00674 0.01011 0.02925
v 0.03150 -0.02362 0.00674
v -0.05626 0.01011 0.02024
v -0.00900 -0.04614 0.01575
v 0.00224 0.05514 0.00900
v 0.03826 0.01011 0.02925
v -0.04725 -0.04614 0.01575
v -0.03599 0.06414 0.01575
v 0.03826 0.02812 0.01350
v 0.00449 0.06188 0.01575
v -0.05175 0.04838 0.01125
v -0.05626 -0.01686 0.02024
v 0.03374 -0.01913 0.01800
v 0.00674 0.01686 0.02925
v -0.01574 0.05288 0.00900
v -0.04725 0.05738 0.01575
v -0.00002 -0.00336 0.02700
v -0.00900 -0.04614 0.01125
v 0.03826 -0.00561 0.01575
v 0.03599 0.02586 0.01125
v -0.04725 -0.04614 0.01125
v 0.00449 0.06188 0.01125
v -0.05626 0.01686 0.01125
v 0.03599 -0.00561 0.02475
v 0.03826 0.01236 0.02925
v -0.04500 0.02812 0.02024
v -0.01125 -0.04164 0.00900
v 0.02699 -0.02137 0.00674
v -0.02025 0.06414 0.01575
v -0.05175 0.04838 0.01575
v 0.02025 -0.01012 0.02475
v -0.05626 -0.03263 0.01575
v 0.01349 0.01686 0.02925
v 0.01125 0.04387 0.00900
v -0.04275 0.06188 0.01125
v 0.02925 -0.02362 0.01575
v 0.03826 0.02812 0.02024
v -0.05400 -0.01913 0.02024
v 0.03826 -0.00561 0.02250
v 0.00224 -0.01237 0.02475
v -0.04275 0.06188 0.01575
v -0.05626 0.01912 0.01800
v -0.02699 -0.03038 0.00900
v 0.03826 0.00565 0.01350
v 0.03150 -0.02137 0.00674
v -0.02250 -0.04164 0.00900
v -0.02025 0.06414 0.01125
v 0.01125 -0.00336 0.02700
v 0.03150 -0.01686 0.02024
v -0.01125 0.05514 0.00900
v -0.04725 0.05738 0.01125
v 0.03150 -0.02362 0.00900
v -0.05400 0.01462 0.02024
v 0.05176 0.00563 0.01125
v 0.05401 0.01463 0.03825
v 0.05401 0.01913 0.03600
v 0.03826 0.01688 0.03600
v 0.03826 0.02813 0.01350
v 0.03826 -0.00337 0.01575
v 0.05401 -0.00788 0.02025
v 0.05401 0.02813 0.01575
v 0.03826 0.01013 0.03600
v 0.03826 0.02813 0.02025
v 0.05401 -0.00788 0.01350
v 0.05401 0.00788 0.03825
v 0.03826 0.01463 0.01125
v 0.05401 0.01688 0.01125
v 0.05401 0.02813 0.02250
v 0.03826 -0.00337 0.02025
v 0.04951 0.00563 0.03600
v 0.04726 0.02363 0.01125
v 0.05176 -0.00788 0.01350
v 0.05176 -0.00788 0.02025
v 0.04951 0.01463 0.03825
v 0.04951 0.02813 0.01350
v 0.03826 0.02138 0.01125
v 0.05176 0.01913 0.03600
v 0.04951 0.01913 -0.02476
v 0.05401 0.03038 -0.01351
v 0.05401 0.03263 -0.02026
v 0.05401 0.01688 -0.02476
v 0.05176 0.01913 -0.01351
v 0.04726 0.02588 -0.02026
v 0.05176 0.03038 -0.02476
v 0.05401 0.01688 -0.01576
v 0.05176 0.03038 -0.01351
v 0.04726 0.02138 -0.02251
v 0.05176 0.03263 -0.02251
v 0.05176 0.01688 -0.01576
v 0.05401 0.03038 -0.02476
v 0.04951 0.02813 -0.02476
v 0.05176 0.02588 -0.00676
v 0.03826 0.01463 -0.00901
v 0.03826 0.01463 -0.00451
v 0.04951 0.01238 -0.00901
v 0.05176 0.03038 -0.01351
v 0.05401 0.01913 -0.01351
v 0.04951 0.01238 -0.00451
v 0.04726 0.02813 -0.00676
v 0.04726 0.02363 -0.00451
v 0.05401 0.02813 -0.00901
v 0.03826 0.01688 -0.00901
v 0.04951 0.02138 -0.01351
v 0.03826 0.01688 -0.00451
v 0.05401 0.02138 -0.00901
v 0.04501 0.01238 -0.00901
v 0.04726 0.02813 -0.01126
v 0.05401 0.03038 -0.01351
f 111 112 142 
f 81 80 90 
f 81 90 91 
f 80 81 92 
f 82 86 98 
f 92 81 99 
f 86 82 100 
f 91 90 101 
f 87 96 101 
f 96 91 101 
f 82 95 103 
f 102 82 103 
f 86 97 104 
f 98 86 105 
f 85 95 106 
f 87 84 110 
f 84 90 110 
f 107 94 110 
f 96 87 111 
f 111 79 112 
f 80 103 113 
f 103 95 113 
f 108 80 113 
f 95 108 113 
f 100 82 114 
f 82 102 114 
f 87 110 115 
f 95 82 116 
f 82 98 116 
f 106 95 116 
f 89 97 117 
f 100 114 117 
f 98 88 118 
f 85 106 118 
f 116 98 118 
f 106 116 118 
f 99 83 119 
f 107 90 120 
f 85 107 120 
f 90 108 120 
f 97 86 121 
f 86 100 121 
f 117 97 121 
f 100 117 121 
f 84 87 122 
f 90 84 122 
f 87 101 122 
f 101 90 122 
f 94 88 123 
f 105 109 123 
f 99 81 124 
f 83 99 124 
f 88 94 125 
f 107 85 125 
f 94 107 125 
f 85 118 125 
f 118 88 125 
f 83 96 126 
f 93 104 126 
f 90 107 127 
f 110 90 127 
f 107 110 127 
f 89 92 128 
f 92 99 128 
f 119 89 128 
f 99 119 128 
f 92 89 129 
f 97 89 130 
f 104 97 130 
f 119 83 130 
f 89 119 130 
f 83 126 130 
f 126 104 130 
f 110 94 131 
f 115 110 131 
f 94 123 131 
f 123 109 131 
f 81 91 132 
f 91 96 132 
f 96 83 132 
f 124 81 132 
f 83 124 132 
f 90 80 133 
f 80 108 133 
f 108 90 133 
f 105 86 134 
f 79 109 134 
f 109 105 134 
f 112 79 134 
f 86 112 134 
f 80 92 135 
f 103 80 135 
f 102 103 135 
f 92 129 135 
f 129 102 135 
f 109 79 136 
f 79 111 136 
f 111 87 136 
f 87 115 136 
f 131 109 136 
f 115 131 136 
f 88 98 137 
f 98 105 137 
f 123 88 137 
f 105 123 137 
f 86 104 138 
f 104 93 138 
f 112 86 138 
f 93 112 138 
f 114 102 139 
f 89 117 139 
f 117 114 139 
f 129 89 139 
f 102 129 139 
f 111 93 140 
f 96 111 140 
f 126 96 140 
f 93 126 140 
f 95 85 141 
f 108 95 141 
f 85 120 141 
f 120 108 141 
f 93 111 142 
f 112 93 142 
