# Original object name hint: convex_0
v 0.02474 -0.06189 0.02474
v -0.04050 -0.06189 -0.03825
v -0.03150 -0.06414 -0.03601
v -0.03599 -0.06639 0.03599
v -0.04725 -0.04614 0.01574
v 0.02699 -0.05514 -0.02926
v 0.03150 -0.06639 -0.02700
v -0.05626 -0.05064 -0.02700
v -0.01125 -0.04614 0.01574
v 0.03826 -0.05739 0.01349
v -0.00676 -0.04614 -0.00900
v 0.03374 -0.06639 0.01799
v -0.05175 -0.06189 0.00898
v -0.02474 -0.06189 0.03825
v 0.00899 -0.05739 -0.03825
v -0.02925 -0.06639 -0.02250
v 0.00674 -0.05289 -0.03376
v 0.03826 -0.05739 -0.02250
v -0.04950 -0.06189 -0.02926
v -0.03599 -0.05514 -0.03825
v -0.05400 -0.05289 0.01124
v 0.00224 -0.06414 -0.03825
v 0.03826 -0.06414 -0.02250
v -0.05626 -0.05739 -0.02926
v -0.02025 -0.04614 -0.01125
v 0.02925 -0.05964 0.02249
v -0.01799 -0.06639 0.03599
v -0.01574 -0.06639 -0.03376
v -0.03825 -0.06639 0.00898
v -0.00451 -0.04614 -0.00000
v -0.05626 -0.04839 -0.00450
v 0.02474 -0.06414 -0.03376
v -0.05400 -0.05064 -0.02926
v -0.05626 -0.05739 -0.00000
v 0.03826 -0.06414 0.01574
v -0.03599 -0.06189 0.03599
v 0.02925 -0.05739 -0.03150
v -0.02925 -0.04614 -0.00900
v 0.02925 -0.06639 0.02249
v -0.01349 -0.06189 0.03599
v -0.04725 -0.06414 0.01124
v 0.03599 -0.06639 -0.00225
v 0.03374 -0.06414 -0.02926
v -0.04950 -0.05289 -0.03376
v 0.02250 -0.06639 -0.03150
v -0.05175 -0.05964 0.01349
v 0.02925 -0.05514 -0.02700
v -0.03150 -0.06189 0.03825
v -0.03825 -0.06414 -0.03150
v -0.04275 -0.06414 -0.02026
v -0.04725 -0.04614 0.00898
v 0.02025 -0.06189 -0.03601
v -0.01349 -0.06414 0.03599
v -0.05175 -0.06189 -0.00675
v 0.03150 -0.05739 0.01799
v 0.03150 -0.06189 0.02249
v -0.01574 -0.06414 -0.03825
v -0.00451 -0.04614 -0.00675
v -0.05175 -0.05064 0.01349
v 0.02474 -0.05739 -0.03376
v 0.03826 -0.05964 -0.02476
v -0.01574 -0.04614 -0.01125
v -0.05400 -0.05964 -0.02926
v -0.02474 -0.06414 0.03825
v 0.03826 -0.06414 -0.00900
v 0.04726 -0.05964 0.00224
v 0.04501 -0.05739 0.00674
v 0.03826 -0.06414 0.01350
v 0.03826 -0.05739 -0.01126
v 0.03826 -0.05739 0.01124
v 0.04051 -0.05964 -0.02026
v 0.04726 -0.06189 -0.00001
v 0.04276 -0.06414 0.01124
v 0.04501 -0.05964 0.01124
v 0.03826 -0.06189 -0.02026
v 0.04501 -0.05739 -0.00226
v 0.04276 -0.06414 -0.00226
v 0.04051 -0.06189 -0.02026
v -0.06752 -0.01238 -0.03151
v -0.05627 0.00789 0.02025
v -0.05627 0.01687 0.01799
v -0.07202 0.02137 0.01349
v -0.06077 0.06188 -0.02476
v -0.05852 -0.03263 -0.00900
v -0.06752 -0.02813 0.01349
v -0.07202 0.03038 -0.02926
v -0.05852 -0.02588 -0.02700
v -0.06977 -0.02813 -0.01575
v -0.06752 0.05963 -0.01126
v -0.05627 -0.03037 0.01574
v -0.05627 0.01687 -0.01126
v -0.06527 0.04163 0.01349
v -0.06302 0.02137 -0.03376
v -0.06752 -0.03488 -0.02025
v -0.06752 -0.01687 0.01799
v -0.05852 0.03263 -0.02700
v -0.06752 0.06188 -0.02476
v -0.07202 0.00113 0.00224
v -0.06077 0.05739 -0.01126
v -0.07202 0.03938 -0.01575
v -0.05627 -0.01911 -0.01350
v -0.06977 0.03712 0.01349
v -0.06752 0.01687 0.01799
v -0.06977 0.03712 -0.03151
v -0.07202 0.01463 -0.02700
v -0.06977 -0.01911 0.01124
v -0.06527 -0.03488 -0.00226
v -0.05852 -0.01687 0.02025
v -0.06752 -0.02362 -0.02926
v -0.06077 -0.03488 -0.02025
v -0.06077 -0.01012 -0.03151
v -0.06752 0.00563 -0.03376
v -0.06302 0.00339 0.02025
v -0.07202 0.03263 0.00449
v -0.06077 -0.03037 -0.02700
v -0.07202 0.00789 0.01349
v -0.06977 0.05288 -0.01350
v -0.06977 -0.02588 0.00224
v -0.06302 0.06414 -0.02025
v -0.06077 -0.03037 0.01574
v -0.07202 0.03938 -0.02476
v -0.05627 -0.02588 -0.00676
v -0.06977 -0.02588 -0.02025
v -0.05852 0.04163 -0.00451
v -0.06752 -0.03488 -0.00900
v -0.06302 0.03712 -0.03151
v -0.06077 -0.03488 -0.00226
v -0.06302 0.05963 -0.01126
v -0.06752 0.04163 0.01349
v -0.06527 0.06414 -0.02476
v -0.06752 -0.03263 -0.02476
v -0.05627 0.01913 -0.00900
v -0.05627 -0.01687 0.02025
v -0.06977 0.00789 -0.03151
v -0.06752 0.03263 0.01574
v -0.06302 -0.02588 -0.02926
v -0.07202 0.00113 -0.00451
v -0.06752 0.02137 -0.03376
v -0.06977 0.03938 0.01124
v -0.06077 0.01913 -0.03151
v -0.06302 -0.02362 0.01799
v -0.06302 0.00789 -0.03376
v 0.07202 0.00564 -0.01350
v 0.06302 0.01687 0.03825
v 0.05402 0.01687 0.03825
v 0.06527 0.05739 -0.01350
v 0.05627 -0.03038 -0.02475
v 0.06752 -0.03488 0.00899
v 0.05402 0.03038 -0.02701
v 0.07202 0.03713 0.02024
v 0.06752 -0.00787 -0.03152
v 0.05402 -0.02813 0.00899
v 0.06302 0.05513 0.01124
v 0.06977 0.03938 -0.02475
v 0.07202 0.01687 0.02700
v 0.06302 -0.01913 0.02700
v 0.06752 -0.03038 -0.02475
v 0.07202 0.05288 -0.00225
v 0.05402 0.03038 0.02024
v 0.06077 0.05288 -0.02250
v 0.05852 0.02588 -0.03152
v 0.05852 -0.03713 0.00899
v 0.06752 0.02588 0.03600
v 0.07202 0.01687 -0.02475
v 0.06977 0.05739 0.00899
v 0.06977 -0.02587 0.00899
v 0.06752 0.00788 0.03600
v 0.05402 0.00788 0.03825
v 0.06302 -0.03713 -0.01801
v 0.05852 -0.02813 -0.02926
v 0.06752 0.02588 -0.03152
v 0.06752 -0.02587 0.02024
v 0.05402 0.00788 -0.02701
v 0.06752 0.05288 -0.02250
v 0.05627 -0.02137 0.02249
v 0.06977 -0.02363 -0.01575
v 0.05402 0.03488 -0.01350
v 0.06302 0.05739 0.00674
v 0.06302 0.03038 0.03375
v 0.05402 -0.02813 -0.00675
v 0.05627 -0.03488 -0.01575
v 0.05852 -0.00787 -0.03152
v 0.06302 0.03938 -0.02926
v 0.07202 0.00338 0.01124
v 0.06302 0.00788 0.03825
v 0.06752 -0.03488 -0.01126
v 0.06752 0.05513 0.01349
v 0.06527 -0.02813 -0.02926
v 0.07202 0.03488 -0.02026
v 0.06077 -0.03488 -0.02475
v 0.06977 0.05739 -0.00451
v 0.06527 -0.03713 0.00674
v 0.06977 0.02362 0.03375
v 0.05852 -0.03713 -0.01801
v 0.05852 -0.02137 0.02474
v 0.06977 0.02588 -0.02926
v 0.05627 -0.02813 -0.02701
v 0.05402 -0.02137 0.01800
v 0.06752 -0.02813 -0.02701
v 0.06752 0.03713 -0.02926
v 0.07202 0.05288 0.00674
v 0.06527 0.05513 -0.02250
v 0.05402 0.03488 -0.02250
v 0.06977 -0.02587 -0.00901
v 0.05852 0.03488 -0.02926
v 0.06977 0.05288 0.01349
v 0.00899 0.06189 -0.00901
v -0.05626 -0.02361 -0.00676
v -0.05626 -0.02361 -0.00226
v 0.03826 -0.02587 -0.00226
v -0.01125 0.05738 0.00224
v 0.00449 0.00563 -0.01576
v -0.04725 0.04162 -0.01126
v 0.03150 -0.01913 0.00674
v -0.02025 -0.04388 -0.01126
v -0.04500 0.01913 0.00224
v -0.02025 -0.04388 0.00224
v 0.03826 0.01913 -0.00451
v -0.00002 0.05512 -0.01576
v -0.05626 -0.01913 -0.01126
v 0.00449 0.05738 0.00224
v 0.03826 0.01687 -0.00901
v 0.00449 -0.03938 -0.01126
v -0.03375 -0.01461 0.00449
v -0.04950 0.04162 -0.00226
v -0.00676 0.06639 -0.00901
v -0.02025 0.04162 -0.01576
v 0.01349 -0.04163 -0.00226
v -0.01574 0.03036 0.00449
v -0.04725 -0.03713 -0.00676
v -0.05175 -0.02138 0.00224
v 0.02025 -0.01913 -0.01126
v 0.03150 -0.02587 0.00674
v 0.03150 0.01687 0.00224
v -0.05626 0.01687 -0.00451
v -0.03375 0.05512 -0.00226
v 0.00674 0.06413 -0.00226
v -0.02699 -0.04614 -0.00001
v -0.00451 0.00339 -0.01576
v 0.00224 0.06413 -0.01351
v -0.00451 -0.04614 -0.00001
v 0.00899 0.01013 -0.01576
v -0.03375 0.01013 0.00449
v -0.02474 0.05062 0.00224
v -0.02925 0.05512 -0.01126
v -0.00676 -0.04614 -0.00901
v -0.00451 0.06639 -0.00226
v -0.05626 0.00113 -0.01126
v -0.05626 -0.00561 -0.00001
v -0.04950 0.04387 -0.00901
v -0.04725 -0.03488 -0.00001
v -0.02699 -0.04614 -0.00901
v -0.00900 0.05512 -0.01576
v -0.01574 0.01462 -0.01576
v 0.03826 -0.02587 -0.00001
v -0.04500 0.04162 -0.00001
v 0.01125 -0.04163 -0.00676
v 0.00449 0.04387 -0.01576
v 0.00674 0.05964 -0.01351
v -0.03375 0.05512 -0.00901
v -0.00451 0.06413 -0.01351
v 0.00224 0.05964 0.00224
v 0.02699 -0.01913 0.00674
v -0.02925 -0.03938 -0.01126
v 0.00224 0.06639 -0.00901
v 0.03374 -0.02587 -0.00451
v -0.05175 0.03713 -0.00901
v 0.03374 0.01913 -0.00001
v 0.03826 0.01462 -0.00901
v -0.02025 -0.02361 0.00449
v 0.03826 0.02586 0.02250
v -0.05626 -0.03263 0.01125
v -0.02699 -0.03713 0.00900
v -0.03599 0.06414 0.01125
v 0.00674 0.01011 0.02925
v 0.03150 -0.02362 0.00674
v -0.05626 0.01011 0.02024
v -0.00900 -0.04614 0.01575
v 0.00224 0.05514 0.00900
v 0.03826 0.01011 0.02925
v -0.04725 -0.04614 0.01575
v -0.03599 0.06414 0.01575
v 0.03826 0.02812 0.01350
v 0.00449 0.06188 0.01575
v -0.05175 0.04838 0.01125
v -0.05626 -0.01686 0.02024
v 0.03374 -0.01913 0.01800
v 0.00674 0.01686 0.02925
v -0.01574 0.05288 0.00900
v -0.04725 0.05738 0.01575
v -0.00002 -0.00336 0.02700
v -0.00900 -0.04614 0.01125
v 0.03826 -0.00561 0.01575
v 0.03599 0.02586 0.01125
v -0.04725 -0.04614 0.01125
v 0.00449 0.06188 0.01125
v -0.05626 0.01686 0.01125
v 0.03599 -0.00561 0.02475
v 0.03826 0.01236 0.02925
v -0.04500 0.02812 0.02024
v -0.01125 -0.04164 0.00900
v 0.02699 -0.02137 0.00674
v -0.02025 0.06414 0.01575
v -0.05175 0.04838 0.01575
v 0.02025 -0.01012 0.02475
v -0.05626 -0.03263 0.01575
v 0.01349 0.01686 0.02925
v 0.01125 0.04387 0.00900
v -0.04275 0.06188 0.01125
v 0.02925 -0.02362 0.01575
v 0.03826 0.02812 0.02024
v -0.05400 -0.01913 0.02024
v 0.03826 -0.00561 0.02250
v 0.00224 -0.01237 0.02475
v -0.04275 0.06188 0.01575
v -0.05626 0.01912 0.01800
v -0.02699 -0.03038 0.00900
v 0.03826 0.00565 0.01350
v 0.03150 -0.02137 0.00674
v -0.02250 -0.04164 0.00900
v -0.02025 0.06414 0.01125
v 0.01125 -0.00336 0.02700
v 0.03150 -0.01686 0.02024
v -0.01125 0.05514 0.00900
v -0.04725 0.05738 0.01125
v 0.03150 -0.02362 0.00900
v -0.05400 0.01462 0.02024
v 0.05176 0.00563 0.01125
v 0.05401 0.01463 0.03825
v 0.05401 0.01913 0.03600
v 0.03826 0.01688 0.03600
v 0.03826 0.02813 0.01350
v 0.03826 -0.00337 0.01575
v 0.05401 -0.00788 0.02025
v 0.05401 0.02813 0.01575
v 0.03826 0.01013 0.03600
v 0.03826 0.02813 0.02025
v 0.05401 -0.00788 0.01350
v 0.05401 0.00788 0.03825
v 0.03826 0.01463 0.01125
v 0.05401 0.01688 0.01125
v 0.05401 0.02813 0.02250
v 0.03826 -0.00337 0.02025
v 0.04951 0.00563 0.03600
v 0.04726 0.02363 0.01125
v 0.05176 -0.00788 0.01350
v 0.05176 -0.00788 0.02025
v 0.04951 0.01463 0.03825
v 0.04951 0.02813 0.01350
v 0.03826 0.02138 0.01125
v 0.05176 0.01913 0.03600
v 0.04951 0.01913 -0.02476
v 0.05401 0.03038 -0.01351
v 0.05401 0.03263 -0.02026
v 0.05401 0.01688 -0.02476
v 0.05176 0.01913 -0.01351
v 0.04726 0.02588 -0.02026
v 0.05176 0.03038 -0.02476
v 0.05401 0.01688 -0.01576
v 0.05176 0.03038 -0.01351
v 0.04726 0.02138 -0.02251
v 0.05176 0.03263 -0.02251
v 0.05176 0.01688 -0.01576
v 0.05401 0.03038 -0.02476
v 0.04951 0.02813 -0.02476
v 0.05176 0.02588 -0.00676
v 0.03826 0.01463 -0.00901
v 0.03826 0.01463 -0.00451
v 0.04951 0.01238 -0.00901
v 0.05176 0.03038 -0.01351
v 0.05401 0.01913 -0.01351
v 0.04951 0.01238 -0.00451
v 0.04726 0.02813 -0.00676
v 0.04726 0.02363 -0.00451
v 0.05401 0.02813 -0.00901
v 0.03826 0.01688 -0.00901
v 0.04951 0.02138 -0.01351
v 0.03826 0.01688 -0.00451
v 0.05401 0.02138 -0.00901
v 0.04501 0.01238 -0.00901
v 0.04726 0.02813 -0.01126
v 0.05401 0.03038 -0.01351
f 27 53 64 
f 5 9 11 
f 4 7 12 
f 9 5 14 
f 7 4 16 
f 11 6 17 
f 15 2 20 
f 17 15 20 
f 2 15 22 
f 18 10 23 
f 5 11 25 
f 4 12 27 
f 7 16 28 
f 16 4 29 
f 9 10 30 
f 11 9 30 
f 10 18 30 
f 8 24 31 
f 24 8 33 
f 24 13 34 
f 21 31 34 
f 31 24 34 
f 23 10 35 
f 21 4 36 
f 5 25 38 
f 33 8 38 
f 25 33 38 
f 27 12 39 
f 12 35 39 
f 9 14 40 
f 26 9 40 
f 1 26 40 
f 4 13 41 
f 29 4 41 
f 12 7 42 
f 7 23 42 
f 35 12 42 
f 23 35 42 
f 23 7 43 
f 7 32 43 
f 20 2 44 
f 17 20 44 
f 2 24 44 
f 33 17 44 
f 24 33 44 
f 7 28 45 
f 28 22 45 
f 32 7 45 
f 22 32 45 
f 13 4 46 
f 4 21 46 
f 34 13 46 
f 21 34 46 
f 6 11 47 
f 37 6 47 
f 18 37 47 
f 14 5 48 
f 36 4 48 
f 5 36 48 
f 2 3 49 
f 19 2 49 
f 3 28 49 
f 28 16 49 
f 16 29 50 
f 41 19 50 
f 29 41 50 
f 19 49 50 
f 49 16 50 
f 31 5 51 
f 8 31 51 
f 5 38 51 
f 38 8 51 
f 22 15 52 
f 32 22 52 
f 39 1 53 
f 27 39 53 
f 40 14 53 
f 1 40 53 
f 13 24 54 
f 41 13 54 
f 19 41 54 
f 10 9 55 
f 9 26 55 
f 26 10 55 
f 10 26 56 
f 26 1 56 
f 35 10 56 
f 1 39 56 
f 39 35 56 
f 3 2 57 
f 2 22 57 
f 28 3 57 
f 22 28 57 
f 11 30 58 
f 30 18 58 
f 47 11 58 
f 18 47 58 
f 5 31 59 
f 31 21 59 
f 36 5 59 
f 21 36 59 
f 17 6 60 
f 15 17 60 
f 6 37 60 
f 43 32 60 
f 37 43 60 
f 52 15 60 
f 32 52 60 
f 18 23 61 
f 37 18 61 
f 23 43 61 
f 43 37 61 
f 11 17 62 
f 25 11 62 
f 17 33 62 
f 33 25 62 
f 2 19 63 
f 24 2 63 
f 19 54 63 
f 54 24 63 
f 4 27 64 
f 48 4 64 
f 14 48 64 
f 53 14 64 
