# Created by Open3D 
# object name: convex_4_coll
# number of vertices: 14
# number of triangles: 24
v 0.06323 0.07587 0.01264
v 0.06885 0.05901 -0.03231
v 0.07166 0.0562 0.02951
v 0.07166 0.07305 0.02951
v 0.04075 0.05339 0.02951
v 0.04075 0.07587 0.02951
v 0.04075 0.06743 -0.02669
v 0.04075 0.05058 0.00702
v 0.07166 0.054795 -0.025285
v 0.04075 0.057605 -0.02669
v 0.06604 0.04777 -0.033715
v 0.06885 0.05058 0.02388
v 0.04075 0.07587 0.01546
v 0.061825 0.04777 0.011235
f 3 4 5
f 5 4 6
f 7 5 6
f 5 7 8
f 4 3 9
f 8 7 10
f 8 10 11
f 3 5 12
f 7 6 13
f 6 1 13
f 8 11 14
f 1 6 4
f 9 3 12
f 11 9 12
f 14 11 12
f 8 14 5
f 14 12 5
f 11 10 7
f 9 11 2
f 11 7 2
f 4 2 1
f 13 1 7
f 4 9 2
f 7 1 2
