# Created by Open3D 
# object name: convex_5_coll
# number of vertices: 14
# number of triangles: 24
v -0.05758 -0.06462 -0.06322
v -0.06601 -0.0253 -0.06884
v -0.07444 0.0028 -0.04637
v 0.06602 0.0028 -0.04637
v -0.01824 0.0028 -0.07727
v 0.06321 -0.06462 -0.05198
v -0.0323 -0.06462 -0.03512
v 0.01546 -0.06462 -0.07446
v 1.00005e-05 0.0028 -0.03512
v 0.0295 0.0028 -0.07446
v 0.06181 -0.05057 -0.04074
v -0.07444 0.0028 -0.06322
v 0.06602 -0.00844 -0.06322
v -0.05196 -0.059 -0.03794
f 3 4 5
f 1 6 7
f 6 1 8
f 4 3 9
f 5 4 10
f 6 11 7
f 3 5 12
f 1 7 14
f 8 2 5
f 14 3 1
f 13 8 10
f 4 9 11
f 3 14 9
f 4 11 6
f 5 10 8
f 6 8 13
f 4 6 13
f 2 12 5
f 10 4 13
f 9 14 7
f 7 11 9
f 12 2 3
f 2 1 3
f 8 1 2
