# Created by Open3D 
# object name: convex_2_coll
# number of vertices: 14
# number of triangles: 24
v 0.036525 -0.0857 0.00843
v 0.03231 -0.0871 -0.0295
v -0.01263 -0.06744 0.00703
v -0.0323 -0.06744 -0.01825
v -0.05198 -0.06744 0.00703
v -0.0393225 -0.0807875 -0.0295
v 0.0295 -0.07587 -0.0295
v -0.02106 -0.08992 -0.0295
v 0.0245825 -0.08851 0.0133425
v -0.02667 -0.08992 0.01264
v -0.02949 -0.0857 0.02108
v -0.047745 -0.08289 0.00843
v 0.03512 -0.077275 0.011235
v 0.03231 -0.07306 0.00421
f 3 4 5
f 6 7 2
f 6 2 8
f 2 9 8
f 8 9 10
f 4 7 6
f 11 5 12
f 3 13 14
f 3 11 13
f 1 2 13
f 5 4 6
f 11 10 9
f 13 11 9
f 1 9 2
f 10 12 6
f 8 10 6
f 7 4 14
f 4 3 14
f 13 7 14
f 13 9 1
f 13 2 7
f 11 3 5
f 12 5 6
f 11 12 10
