# Created by Open3D 
# object name: convex_8_coll
# number of vertices: 14
# number of triangles: 24
v -0.042145 -0.00282 -0.005615
v -0.02949 0.01403 -0.00421
v -0.014045 -0.06744 -0.016855
v -0.02949 0.01403 -0.01826
v -0.00983 0.01403 -0.01826
v -0.0323 -0.06744 -0.01826
v -0.01826 -0.059 -0.00421
v -0.01264 0.01123 -0.00421
v -0.044955 -0.05057 -0.005615
v -0.03933 -0.064625 -0.0091275
v -0.04355 -0.00844 -0.01545
v -0.00983 0.01403 -0.00702
v -0.01264 -0.06461 -0.00702
v -0.04636 -0.04214 -0.01264
f 3 4 5
f 4 3 6
f 5 4 2
f 7 8 2
f 7 2 9
f 6 3 10
f 11 1 4
f 3 12 13
f 9 14 10
f 14 6 10
f 2 8 12
f 5 2 12
f 9 2 1
f 12 3 5
f 14 11 6
f 11 4 6
f 10 7 9
f 7 10 13
f 10 3 13
f 7 13 8
f 13 12 8
f 1 11 14
f 9 1 14
f 4 1 2
