# Created by Open3D 
# object name: convex_3_coll
# number of vertices: 14
# number of triangles: 24
v -0.07305 0.046365 -0.03792
v -0.070235 0.0667275 0.026695
v -0.04916 0.07587 0.02951
v -0.06321 0.05339 0.02951
v 0.04075 0.07587 0.02951
v -0.04073 0.03934 -0.06883
v 0.0196675 0.040745 -0.06321
v -0.03791 0.03934 0.00983
v 0.04075 0.061815 -0.0295
v 0.022475 0.03934 0.011235
v -0.019655 0.06743 -0.056185
v 0.0006975 0.0625125 -0.0639125
v 0.03513 0.049175 0.0281
v -0.07305 0.059005 -0.037925
f 3 4 5
f 6 7 8
f 4 3 2
f 8 7 10
f 5 4 13
f 9 5 13
f 2 14 1
f 7 9 10
f 6 8 1
f 4 8 13
f 6 1 14
f 11 6 14
f 1 8 4
f 13 8 10
f 1 4 2
f 5 11 3
f 7 6 12
f 3 14 2
f 9 11 5
f 11 14 3
f 9 7 12
f 11 9 12
f 10 9 13
f 12 6 11
