# Created by Open3D 
# object name: convex_6_coll
# number of vertices: 14
# number of triangles: 24
v 0.01756 0.03863 -0.07165
v -0.00703 0.00281 -0.07727
v 0.02951 0.00281 -0.07305
v 0.0267 0.03933 -0.03793
v -0.02387 0.03933 -0.07446
v -0.02107 0.03933 -0.0295
v -0.071645 0.00281 -0.044955
v 0.03232 0.00281 -0.04075
v -0.07305 0.00562 -0.06462
v -0.04354 0.03793 -0.0660275
v 0.008435 0.02107 -0.0295
v 0.02106 0.03933 -0.03231
v -0.01827 0.00281 -0.03512
v -0.07164 0.01967 -0.04636
f 4 5 6
f 2 3 7
f 7 3 8
f 5 4 1
f 2 7 9
f 6 5 10
f 4 6 12
f 6 7 13
f 7 8 13
f 6 11 12
f 9 14 10
f 3 2 1
f 3 1 4
f 10 14 6
f 1 2 5
f 9 10 5
f 7 14 9
f 5 2 9
f 6 14 7
f 4 12 8
f 3 4 8
f 12 11 8
f 6 13 11
f 13 8 11
