# Created by Open3D 
# object name: convex_0_coll
# number of vertices: 14
# number of triangles: 24
v 0.0663725 0.07551 0.0649763
v -0.07022 0.0667375 0.02951
v 0.07446 0.06463 0.02951
v 0.06322 0.07867 0.02951
v -0.06319 0.05339 0.02951
v 0.06884 0.05339 0.02951
v -0.04072 0.080075 0.030915
v -0.058275 0.05901 0.07165
v 0.06883 0.057605 0.064625
v 0.00071 0.08992 0.0681375
v 0.01264 0.08429 0.07727
v 0.060405 0.0611175 0.073055
v -0.06741 0.066035 0.06884
v -0.05898 0.077265 0.06603
f 3 2 4
f 2 3 5
f 5 3 6
f 8 6 9
f 1 10 11
f 9 12 8
f 4 2 7
f 8 13 5
f 9 1 12
f 8 12 11
f 13 14 2
f 6 3 9
f 14 10 7
f 10 1 4
f 1 3 4
f 7 10 4
f 10 14 11
f 8 5 6
f 8 11 14
f 8 14 13
f 3 1 9
f 7 2 14
f 1 11 12
f 5 13 2
