# Created by Open3D 
# object name: convex_9_coll
# number of vertices: 14
# number of triangles: 24
v 0.0007075 0.023885 -0.0295
v -0.02949 0.01405 -0.01826
v -0.01544 0.03934 -0.0295
v -0.02668 0.03934 -0.00703
v 0.01827 0.03934 -0.02107
v -0.03231 0.01405 -0.00703
v 0.00422 0.01405 -0.01826
v -0.01544 0.01405 -0.00422
v 0.01545 0.03934 -0.00422
v -0.02668 0.03934 -0.01826
v -0.01826 0.03934 -0.00422
v 0.00422 0.03934 -0.0295
v -0.03231 0.01967 -0.01546
v 0.00702 0.01686 -0.00984
f 1 2 3
f 3 4 5
f 6 7 8
f 7 6 2
f 7 2 1
f 5 4 9
f 4 3 10
f 9 4 11
f 8 9 11
f 3 5 12
f 1 3 12
f 6 4 13
f 3 2 13
f 2 6 13
f 4 10 13
f 10 3 13
f 11 4 6
f 8 11 6
f 8 14 9
f 12 5 1
f 7 1 5
f 5 9 14
f 7 5 14
f 14 8 7
