# Created by Open3D 
# object name: convex_1_coll
# number of vertices: 14
# number of triangles: 24
v 0.06042 -0.0843 -0.05339
v 0.02389 -0.08992 -0.0295
v 0.0288 -0.089215 -0.06322
v 0.061825 -0.06463 -0.04917
v -0.0379125 -0.06463 -0.0709475
v -0.04916 -0.06463 -0.03793
v 0.01826 -0.06463 -0.07446
v 0.03512 -0.07868 -0.0295
v -0.04073 -0.0843 -0.0295
v 0.004225 -0.06463 -0.03653
v -0.0330025 -0.08851 -0.0625175
v -0.01825 -0.0843 -0.07446
v -0.07165 -0.077275 -0.059005
v -0.07165 -0.08149 -0.04918
f 1 2 3
f 4 5 6
f 5 4 7
f 2 8 9
f 4 6 10
f 3 2 11
f 5 7 12
f 10 8 4
f 3 12 7
f 14 13 11
f 1 4 8
f 6 5 13
f 5 12 13
f 11 2 14
f 12 3 11
f 6 9 10
f 13 12 11
f 1 3 7
f 9 14 2
f 4 1 7
f 6 13 14
f 9 6 14
f 1 8 2
f 8 10 9
