# Created by Open3D 
# object name: convex_7_coll
# number of vertices: 14
# number of triangles: 24
v 0.02107 0.03934 0.00562
v 0.01545 0.03934 0.01265
v -0.0576 -0.04495 0.00983
v -0.05196 -0.06742 0.00141
v -0.03651 0.03934 0.0035175
v 0.01826 0.03652 -0.0014
v -0.0351 0.03934 0.00983
v -0.0576 -0.01685 0.00983
v -0.01265 -0.06742 0.00141
v 0.02669 -0.0309 0.00843
v -0.030895 -0.06321 0.00983
v -0.05477 -0.01125 0.00141
v 0.0295 -0.009845 0.01265
v 0.02669 -0.01966 0.00422
f 5 2 6
f 2 5 7
f 8 2 7
f 6 2 1
f 10 11 9
f 6 12 5
f 13 3 11
f 13 2 8
f 9 4 6
f 14 9 6
f 1 13 14
f 6 1 14
f 9 14 10
f 3 8 12
f 11 3 4
f 9 11 4
f 13 8 3
f 11 10 13
f 10 14 13
f 3 12 4
f 12 6 4
f 8 7 5
f 12 8 5
f 13 1 2
