# Created by Open3D 
# object name: convex_3_coll
# number of vertices: 14
# number of triangles: 24
v -0.04057 0.03803 -0.02155
v -0.01775 0.03423 -0.02409
v -0.04057 -0.06086 -0.02409
v -0.04057 -0.06086 0.00633
v 0.00507 -0.06086 0.00633
v -0.04057 0.05832 0.00887
v 0.00507 0.06085 0.00633
v 0.00507 0.04562 -0.02409
v 0.00507 -0.04817 -0.02409
v 0.0038 0.04182 0.01141
v 0.00507 -0.06086 -0.01901
v -0.04057 0.06085 -0.00127
v 0.001265 0.06085 -0.01901
v -0.02789 -0.03043 0.00887
f 1 2 3
f 4 3 5
f 3 4 6
f 7 5 8
f 3 6 1
f 3 8 9
f 8 5 9
f 5 7 10
f 5 3 11
f 9 5 11
f 1 6 12
f 7 13 12
f 13 1 12
f 8 3 2
f 7 8 13
f 4 14 6
f 6 10 7
f 7 12 6
f 6 14 10
f 8 1 13
f 4 5 14
f 5 10 14
f 3 9 11
f 1 8 2
