# Created by Open3D 
# object name: convex_10_coll
# number of vertices: 14
# number of triangles: 24
v -0.05578 0.03296 -0.0317
v -0.05325 0.03043 -0.03677
v -0.05578 0.00254 -0.03677
v -0.04564 0.04311 -0.03677
v -0.04564 0.01775 -0.03677
v -0.05578 0.00507 -0.0317
v -0.05578 0.03549 -0.02662
v -0.04564 0.04564 -0.0317
v -0.04818 0.02282 -0.02662
v -0.04564 0.01775 -0.0317
v -0.05071 0.04564 -0.032965
v -0.04818 0.03803 -0.02662
v -0.05578 0.02282 -0.02662
v -0.05071 0.00634 -0.032965
f 1 2 3
f 3 4 5
f 7 3 6
f 4 3 2
f 8 9 10
f 5 8 10
f 4 2 11
f 7 9 12
f 9 8 12
f 3 7 1
f 11 2 1
f 7 11 1
f 9 7 13
f 7 6 13
f 6 9 13
f 3 5 14
f 6 3 14
f 5 10 14
f 8 5 4
f 11 8 4
f 7 12 11
f 12 8 11
f 9 6 14
f 10 9 14
