# Created by Open3D 
# object name: convex_8_coll
# number of vertices: 14
# number of triangles: 24
v -0.04501 0.06085 -0.010145
v -0.04057 -0.04057 -0.00634
v -0.05832 -0.04057 -0.013945
v -0.04184 -0.04057 -0.02028
v -0.04057 0.04055 -0.00888
v -0.04184 0.049435 -0.02155
v -0.048175 0.06085 -0.02662
v -0.05578 0.03041 -0.02662
v -0.05325 -0.04057 -0.02155
v -0.04564 0.04055 -0.00381
v -0.05325 0.06085 -0.017745
v -0.05325 -0.04057 -0.00634
v -0.05325 0.03802 -0.00381
v -0.04564 0.02788 -0.02662
f 2 3 4
f 5 2 6
f 8 4 9
f 4 3 9
f 10 5 1
f 7 11 1
f 3 2 12
f 6 2 4
f 4 8 14
f 8 7 14
f 7 6 14
f 13 10 1
f 13 11 3
f 9 3 8
f 10 2 5
f 1 5 6
f 7 1 6
f 12 2 13
f 3 12 13
f 4 14 6
f 8 3 11
f 13 2 10
f 7 8 11
f 13 1 11
