# Created by Open3D 
# object name: convex_0_coll
# number of vertices: 14
# number of triangles: 24
v 0.0453125 -0.0662463 -0.0364462
v 0.04564 -0.07607 -0.04183
v -0.05071 -0.06086 0.00633
v 0.05832 -0.06086 0.00887
v -0.05071 -0.06086 -0.04437
v -0.0329475 -0.07987 -0.0297925
v -0.03802 -0.08114 0.00887
v 0.03802 -0.0786 0.03168
v -0.057045 -0.06213 -0.003805
v -0.05577 -0.06593 -0.04944
v 0.05577 -0.07607 0.01647
v 0.03422 -0.06973 0.032955
v -0.02533 -0.07607 0.02408
v -0.057045 -0.073535 -0.036755
f 3 4 5
f 7 6 8
f 3 5 9
f 2 6 10
f 5 4 1
f 9 5 10
f 12 3 13
f 9 10 14
f 12 8 11
f 5 1 10
f 2 8 6
f 12 13 8
f 7 13 3
f 7 8 13
f 8 2 11
f 3 12 4
f 12 11 4
f 3 9 14
f 14 10 6
f 14 6 7
f 3 14 7
f 1 4 2
f 4 11 2
f 10 1 2
