# Created by Open3D 
# object name: convex_2_coll
# number of vertices: 14
# number of triangles: 24
v 0.027895 0.02537 0.045635
v 0.00507 0.0754225 -0.03296
v 0.00507 -0.01774 0.00887
v 0.00507 0.077325 0.032955
v 0.00507 -0.01774 -0.02154
v 0.05705 -0.01774 -0.005065
v 0.05705 0.00635 -0.01901
v 0.05578 -0.01774 0.02662
v 0.0421512 0.0446775 0.048805
v 0.038025 -0.0152 0.03168
v 0.0389775 0.0770087 -0.0266188
v 0.05325 -0.0114 -0.02535
v 0.04564 0.07606 0.02662
v 0.032645 0.08114 0.0091975
f 2 3 4
f 3 2 5
f 6 3 5
f 3 6 8
f 12 2 11
f 11 13 7
f 6 7 8
f 7 13 8
f 6 12 7
f 3 8 10
f 1 3 10
f 6 5 12
f 5 2 12
f 9 1 10
f 8 9 10
f 9 4 1
f 4 9 13
f 2 4 14
f 3 1 4
f 11 2 14
f 11 14 13
f 13 9 8
f 14 4 13
f 12 11 7
