# Created by Open3D 
# object name: convex_5_coll
# number of vertices: 14
# number of triangles: 24
v 0.03549 -0.01775 0.02916
v 0.055785 -0.01902 0.022815
v 0.00507 -0.046905 -0.02409
v 0.00507 -0.06086 -0.01647
v 0.00507 -0.01775 0.00887
v 0.00507 -0.01775 -0.02154
v 0.05325 -0.01775 -0.02154
v 0.00507 -0.06086 0.00633
v 0.05832 -0.06086 0.006335
v 0.03296 -0.03804 0.02916
v 0.05832 -0.01775 -0.0038
v 0.049445 -0.05959 -0.02409
v 0.05325 -0.040575 -0.02409
v 0.05578 -0.05832 0.01395
f 3 4 5
f 3 5 6
f 5 7 6
f 7 5 1
f 5 4 8
f 7 1 11
f 4 3 12
f 9 8 12
f 12 3 13
f 6 7 13
f 9 11 2
f 11 1 2
f 12 8 4
f 10 5 8
f 8 9 14
f 10 8 14
f 9 12 13
f 9 2 14
f 1 5 10
f 1 10 2
f 10 14 2
f 13 11 9
f 3 6 13
f 13 7 11
