# Created by Open3D 
# object name: convex_1_coll
# number of vertices: 14
# number of triangles: 24
v -0.041835 0.071 0.027885
v -0.05071 0.07607 0.00633
v -0.04437 0.06085 0.005065
v 0.00507 0.0786 0.03169
v 0.00507 0.071 0.03423
v 0.00507 0.06846 -0.03422
v 0.00507 0.06085 -0.02154
v 0.0038 0.0786 -0.032955
v -0.05071 0.077335 -0.032955
v -0.04627 0.0786 0.00507
v -0.05071 0.06085 -0.02661
v 0.00507 0.06085 0.00633
v -0.031695 0.077335 0.03042
v -0.04817 0.071 -0.03676
f 1 2 3
f 4 5 6
f 6 5 7
f 4 6 8
f 9 10 8
f 7 3 11
f 7 5 12
f 3 7 12
f 8 10 4
f 4 10 13
f 1 3 5
f 3 12 5
f 10 2 1
f 14 9 8
f 9 11 2
f 1 5 13
f 6 7 11
f 14 6 11
f 13 5 4
f 14 11 9
f 10 9 2
f 8 6 14
f 13 10 1
f 2 11 3
