# Created by Open3D 
# object name: convex_9_coll
# number of vertices: 11
# number of triangles: 18
v -0.05578 -0.02282 -0.03423
v -0.05578 0.00254 -0.03677
v -0.05578 -0.02028 -0.03677
v -0.05071 -0.01268 -0.03677
v -0.05325 -0.03296 -0.03677
v -0.05325 0.00254 -0.03423
v -0.05578 -0.01521 -0.0317
v -0.05071 -0.03042 -0.0317
v -0.05071 -0.01521 -0.0317
v -0.05071 -0.03296 -0.03677
v -0.05325 -0.03042 -0.0317
f 1 2 3
f 4 5 2
f 6 4 2
f 6 2 7
f 2 1 7
f 7 8 9
f 4 6 9
f 8 4 9
f 6 7 9
f 8 5 10
f 4 8 10
f 5 4 10
f 1 5 11
f 5 8 11
f 7 1 11
f 8 7 11
f 5 1 3
f 2 5 3
