# Created by Open3D 
# object name: convex_7_coll
# number of vertices: 14
# number of triangles: 24
v -0.04184 0.05577 0.00888
v -0.04057 0.0228 0.00888
v -0.05325 -0.04057 0.0038
v -0.05325 -0.04057 -0.00127
v -0.04057 -0.04057 0.00634
v -0.04057 0.06085 -0.00127
v -0.04057 0.03295 -0.0038
v -0.04057 -0.04057 -0.00127
v -0.05071 -0.04057 0.00634
v -0.04564 0.06085 0.001265
v -0.05071 0.04055 -0.0038
v -0.05325 -0.00253 0.0038
v -0.05071 0.0431 0.00634
v -0.04818 0.04055 0.00888
f 3 4 5
f 6 5 7
f 5 4 8
f 7 5 8
f 4 7 8
f 3 5 9
f 5 6 2
f 9 5 2
f 11 10 6
f 4 3 12
f 11 4 12
f 13 14 1
f 14 2 1
f 13 1 10
f 1 6 10
f 13 10 11
f 11 6 7
f 7 4 11
f 3 14 12
f 14 13 12
f 13 11 12
f 3 9 14
f 9 2 14
f 2 6 1
