# Created by Open3D 
# object name: convex_6_coll
# number of vertices: 14
# number of triangles: 24
v -0.05198 -0.04057 0.00507
v -0.05832 -0.04057 -0.013945
v -0.05832 -0.06085 -0.00888
v -0.05578 -0.06085 -0.0393
v -0.04057 -0.06085 -0.02662
v -0.05325 -0.06085 0.0038
v -0.04057 -0.04057 -0.02155
v -0.04057 -0.06085 0.00634
v -0.04057 -0.04057 0.00634
v -0.05578 -0.05832 -0.0393
v -0.04691 -0.059585 -0.03803
v -0.05578 -0.04057 -0.02155
v -0.05832 -0.06085 -0.03169
v -0.04818 -0.06085 0.00634
f 1 2 3
f 4 5 6
f 5 7 8
f 6 5 8
f 1 7 2
f 7 1 9
f 8 7 9
f 1 8 9
f 4 6 3
f 4 10 11
f 10 7 11
f 7 10 12
f 10 2 12
f 2 7 12
f 10 4 13
f 2 10 13
f 4 3 13
f 3 2 13
f 3 6 1
f 5 4 11
f 1 6 14
f 8 1 14
f 6 8 14
f 7 5 11
