# Created by Open3D 
# object name: convex_4_coll
# number of vertices: 14
# number of triangles: 24
v 0.05071 -0.03803 -0.02916
v 0.04944 -0.05325 -0.031695
v 0.05071 -0.05578 -0.02409
v 0.05071 -0.03803 -0.02409
v 0.0355 -0.04564 -0.02409
v 0.03803 -0.05832 -0.02409
v 0.02282 -0.05325 -0.0393
v 0.0431 -0.04564 -0.0393
v 0.0431 -0.05325 -0.0393
v 0.0431 -0.03803 -0.0317
v 0.0431 -0.03803 -0.02409
v 0.02663 -0.04691 -0.0355
v 0.04817 -0.05832 -0.02662
v 0.02282 -0.05325 -0.03677
f 3 4 5
f 3 5 6
f 7 8 9
f 4 3 1
f 10 4 1
f 8 10 1
f 5 4 11
f 4 10 11
f 10 12 11
f 3 6 13
f 7 9 13
f 13 9 2
f 9 8 2
f 5 11 12
f 12 10 8
f 7 6 14
f 5 12 14
f 6 5 14
f 1 3 2
f 3 13 2
f 12 8 7
f 14 12 7
f 7 13 6
f 2 8 1
