# Created by Open3D 
# object name: convex_9_coll
# number of vertices: 14
# number of triangles: 24
v -0.04244 -0.06366 -0.02122
v -0.02917 -0.06366 -0.02387
v -0.04244 -0.06366 -0.01061
v -0.00266 -0.06366 -0.02387
v -0.00266 -0.06366 -0.01061
v 0.00795 -0.04244 -0.01326
v 0.0106 -0.04775 -0.02122
v -0.02122 -0.04244 -0.02122
v -0.02122 -0.04244 -0.01326
v 0.0106 -0.05703 -0.01459
v -0.04244 -0.05836 -0.01061
v 0.0053 -0.04244 -0.02122
v 0.0053 -0.0504 -0.02387
v 0.00795 -0.05703 -0.022545
f 3 4 5
f 4 3 1
f 6 8 9
f 7 6 10
f 3 5 11
f 1 3 11
f 6 9 11
f 8 6 12
f 6 7 12
f 13 8 12
f 13 4 2
f 8 13 2
f 4 13 14
f 6 11 5
f 12 7 13
f 7 14 13
f 6 5 10
f 8 2 1
f 11 8 1
f 10 5 4
f 14 10 4
f 7 10 14
f 8 11 9
f 4 1 2
