# Created by Open3D 
# object name: convex_11_coll
# number of vertices: 14
# number of triangles: 24
v -0.0424325 0.02387 0.00398
v -0.05569 -0.00265 0.00531
v 0.02122 -0.00796 0.00531
v -0.05569 0.01325 -0.0053
v 0.02122 0.00795 -0.0053
v -0.05569 -0.0106 -0.0053
v -0.01724 0.02652 0
v 0.02122 0.0106 0.00531
v 0.02122 -0.00796 -0.0053
v -0.05039 0.02652 -0.00265
v -0.00797 -0.04244 -0.00265
v -0.00797 -0.04244 0.00265
v -0.05039 -0.03714 0.00265
v 0.00795 -0.02917 0.001325
f 3 1 2
f 4 5 6
f 7 1 8
f 1 3 8
f 3 5 8
f 5 3 9
f 6 5 9
f 7 10 1
f 2 4 6
f 12 13 11
f 12 11 14
f 3 12 14
f 9 3 14
f 5 4 10
f 12 3 2
f 13 12 2
f 1 10 4
f 2 1 4
f 10 7 5
f 5 7 8
f 11 13 6
f 2 6 13
f 11 9 14
f 11 6 9
