# Created by Open3D 
# object name: convex_5_coll
# number of vertices: 14
# number of triangles: 24
v -0.06366 -0.007285 0.003315
v -0.05571 0.00927 0.00398
v -0.06897 -0.04244 -0.03183
v -0.06897 0.01325 -0.00266
v -0.06897 0.0504 -0.03448
v -0.05571 -0.00529 -0.04244
v -0.06101 0.0504 -0.03448
v -0.0669775 0.0504 -0.01459
v -0.06897 -0.04244 -0.00796
v -0.06101 -0.04244 -0.00796
v -0.05836 0.0504 -0.01857
v -0.05571 -0.02387 0.00265
v -0.06764 0.005295 -0.04111
v -0.06366 -0.01325 -0.04244
f 3 4 5
f 7 5 8
f 4 3 9
f 3 10 9
f 7 8 11
f 6 2 12
f 9 10 12
f 5 7 13
f 6 14 13
f 14 6 3
f 13 7 6
f 3 5 13
f 5 4 8
f 2 6 11
f 11 6 7
f 3 13 14
f 6 12 10
f 3 6 10
f 2 11 8
f 12 2 1
f 8 4 2
f 9 1 4
f 1 9 12
f 4 1 2
