# Created by Open3D 
# object name: convex_8_coll
# number of vertices: 14
# number of triangles: 24
v 0.02122 -0.06897 -0.03978
v 0.02122 -0.06632 0.00265
v -0.04244 -0.07958 -0.04244
v -0.04244 -0.080905 0.00265
v -0.04244 -0.06366 -0.02122
v -0.01061 -0.06366 0.00531
v -0.04244 -0.06897 -0.04244
v 0.02122 -0.07692 0.00531
v 0.02122 -0.08223 -0.03978
v -0.04244 -0.08223 -0.03713
v -0.04244 -0.06499 0.00398
v 0.02122 -0.08223 -0.01592
v 0.00264 -0.06366 -0.02387
v -4.99981e-06 -0.06632 -0.04244
f 3 4 5
f 3 5 7
f 8 9 2
f 3 9 10
f 4 3 10
f 9 4 10
f 6 4 8
f 5 4 11
f 6 5 11
f 9 8 12
f 4 9 12
f 5 6 13
f 6 2 13
f 2 9 1
f 14 1 9
f 3 14 9
f 14 13 1
f 3 7 14
f 2 6 8
f 4 6 11
f 14 5 13
f 7 5 14
f 12 8 4
f 1 13 2
