# Created by Open3D 
# object name: convex_15_coll
# number of vertices: 14
# number of triangles: 24
v -0.01062 0.02652 -0.01857
v 0.02122 0.0053 -0.02653
v -0.05569 0.01989 -0.0252
v -0.05569 -0.020555 -0.0165775
v -0.05569 0.01325 -0.00796
v -0.05569 -0.00532 -0.02653
v 0.02122 -0.00532 -0.0053
v -0.02121 -0.04244 -0.02122
v 0.003965 -0.04244 -0.01724
v -0.02121 -0.04244 -0.01326
v 0.02122 0.00795 -0.01061
v 0.00927 0.009275 -0.0053
v -0.0457475 -0.0046425 -0.00663
v -0.04774 0.02652 -0.01326
f 1 2 3
f 3 4 5
f 4 3 6
f 8 9 10
f 7 2 11
f 7 12 13
f 10 9 7
f 13 10 7
f 2 6 3
f 3 5 14
f 9 8 2
f 1 11 2
f 2 7 9
f 5 4 13
f 10 13 4
f 4 8 10
f 3 14 1
f 12 1 14
f 6 8 4
f 11 1 12
f 2 8 6
f 12 5 13
f 11 12 7
f 5 12 14
