# Created by Open3D 
# object name: convex_2_coll
# number of vertices: 14
# number of triangles: 24
v -0.06631 0.074265 0.00796
v 0.03979 0.08488 0.00796
v 0.03979 0.07427 -0.04243
v 0.03979 0.08488 -0.03447
v -0.0557 0.08488 0.00796
v 0.03979 0.06896 0.00796
v 0.00264 0.0504 0.00265
v -0.064985 0.0504 -0.0358
v 0.00131 0.0504 -0.019885
v -0.06896 0.0504 -0.01327
v -0.04642 0.051725 0.003975
v -0.05835 0.07957 -0.04508
v -0.05968 0.08222 -0.038455
v -0.07161 0.067635 -0.0358
f 2 3 4
f 5 2 4
f 3 2 6
f 2 5 6
f 6 5 1
f 7 8 9
f 8 7 10
f 3 9 8
f 10 7 11
f 11 1 10
f 1 11 6
f 6 7 9
f 3 6 9
f 1 5 13
f 14 8 10
f 1 14 10
f 14 13 12
f 7 6 11
f 3 8 12
f 1 13 14
f 4 3 12
f 4 13 5
f 14 12 8
f 12 13 4
