# Created by Open3D 
# object name: convex_12_coll
# number of vertices: 14
# number of triangles: 24
v -0.00796 0.05039 -0.02122
v -0.01326 0.03714 -0.01857
v -0.01061 0.05039 -0.01857
v -0.01061 0.05039 -0.01326
v 0.00265 0.05039 -0.01326
v -0 0.05039 -0.02122
v 0.00265 0.03978 -0.01857
v -0.01326 0.02652 -0.01592
v -0.01326 0.02652 -0.01857
v -0.00796 0.02652 -0.01592
v -0 0.04244 -0.01326
v -0.00796 0.02652 -0.01857
v -0 0.04509 -0.02122
v 0.00265 0.03978 -0.01592
f 1 2 3
f 4 5 1
f 1 5 6
f 5 7 6
f 8 9 10
f 4 8 11
f 5 4 11
f 8 10 11
f 9 8 2
f 8 4 2
f 1 9 2
f 10 9 12
f 7 10 12
f 9 1 13
f 1 6 13
f 6 7 13
f 12 9 13
f 7 12 13
f 7 5 14
f 10 7 14
f 11 10 14
f 5 11 14
f 4 1 3
f 2 4 3
