# Created by Open3D 
# object name: convex_10_coll
# number of vertices: 14
# number of triangles: 24
v -0.01592 -0.0557 -0.0053
v -0.00797 -0.04244 -0.00265
v -0.02918 -0.06366 0.00531
v -0.04244 -0.06366 -0.0053
v -0.00797 -0.06366 -0.0053
v -0.00531 -0.04244 0.00265
v -0.03183 -0.04244 -0.00265
v -0.03448 -0.04244 0.00265
v -0.00664 -0.06366 0.001325
v -0.04244 -0.06366 0.00265
v -0.00265 -0.051725 0.00265
v -0.01592 -0.06101 0.00531
v -0.04244 -0.06101 -0.0053
v -0.00265 -0.051725 0
f 3 4 5
f 6 7 8
f 7 6 2
f 3 5 9
f 4 3 10
f 5 4 1
f 7 2 1
f 11 6 12
f 3 9 12
f 8 7 13
f 4 10 13
f 1 4 13
f 7 1 13
f 6 8 12
f 8 3 12
f 6 11 14
f 2 6 14
f 5 2 14
f 12 9 11
f 14 11 9
f 5 14 9
f 3 8 10
f 8 13 10
f 2 5 1
