# Created by Open3D 
# object name: convex_13_coll
# number of vertices: 14
# number of triangles: 24
v 0.0053 0.03448 -0
v 0.00264 0.02918 -0
v 0.0053 0.05039 -0
v 0.0053 0.05039 -0.0053
v -0.05039 0.05039 -0
v -0.05039 0.05039 0.00265
v -0.05039 0.02652 0.00265
v -0.04774 0.02652 -0.00265
v -0.01327 0.02652 0.00265
v -0.04774 0.05039 -0.00265
v -1e-05 0.05039 0.00265
v 0.00264 0.03183 -0.0053
v -0.00797 0.05039 -0.0053
v -0.01858 0.02652 -0.00265
f 3 4 5
f 3 5 6
f 5 7 6
f 7 5 8
f 9 7 8
f 5 4 10
f 8 5 10
f 3 6 11
f 6 9 11
f 4 3 1
f 12 4 1
f 3 11 1
f 9 6 7
f 4 12 13
f 12 8 13
f 8 10 13
f 10 4 13
f 9 8 14
f 8 12 14
f 11 9 2
f 1 11 2
f 12 1 2
f 9 14 2
f 14 12 2
