# Created by Open3D 
# object name: convex_3_coll
# number of vertices: 14
# number of triangles: 24
v 0.06366 0.08488 0.00795
v 0.03979 0.08488 0.00795
v 0.03979 0.07427 -0.04244
v 0.03979 0.070295 0.006625
v 0.03979 0.08488 -0.03447
v 0.06631 0.07162 0.00795
v 0.06233 0.05836 -0.019885
v 0.061005 0.08488 -0.030495
v 0.07162 0.071615 -0.00531
v 0.07162 0.072945 -0.02254
v 0.06631 0.05836 -0.00531
v 0.06896 0.06101 -0.023865
v 0.06631 0.07957 -0.03713
v 0.06631 0.068965 -0.0358
f 2 3 4
f 3 2 5
f 2 1 5
f 1 2 6
f 5 1 8
f 11 7 12
f 8 1 13
f 9 10 13
f 6 2 4
f 11 6 4
f 12 14 10
f 9 12 10
f 10 14 13
f 7 4 3
f 4 7 11
f 7 3 14
f 12 7 14
f 9 13 1
f 9 6 11
f 12 9 11
f 8 13 3
f 5 8 3
f 13 14 3
f 6 9 1
