# Created by Open3D 
# object name: convex_0_coll
# number of vertices: 14
# number of triangles: 24
v 0.0557 0.08355 0.035805
v 0.003975 0.08488 0.04509
v -0.06366 0.075595 0.00796
v 0.06365 0.08488 0.00796
v -0.05703 0.08488 0.0305
v 0.06365 0.07162 0.00796
v -0.0557 0.08488 0.00796
v -0.061 0.06897 0.00796
v 0.05304 0.07427 0.03713
v 0.04376 0.070295 0.02785
v 0.026515 0.06631 0.009285
v 0.06233 0.075595 0.031825
v 0.0053 0.07957 0.04509
v -0.061 0.07162 0.03183
f 5 2 4
f 3 4 6
f 4 3 7
f 5 4 7
f 4 2 1
f 3 6 8
f 9 12 1
f 13 14 9
f 14 10 9
f 8 6 11
f 9 10 12
f 2 14 13
f 2 5 14
f 14 3 8
f 11 14 8
f 14 11 10
f 12 6 4
f 3 5 7
f 3 14 5
f 10 11 6
f 12 10 6
f 12 4 1
f 2 13 1
f 13 9 1
