# Created by Open3D 
# object name: convex_1_coll
# number of vertices: 14
# number of triangles: 24
v 0.023215 -0.083555 -0.0364675
v 0.02122 -0.07957 0.00265
v 0.02122 -0.06632 0.00265
v 0.02122 -0.070295 -0.04111
v 0.0557 -0.05571 -0.03448
v 0.064975 -0.057035 -0.001335
v 0.0682875 -0.059025 -0.0198925
v 0.04509 -0.08488 -0.02785
v 0.041115 -0.083555 -0.04111
v 0.0663 -0.07692 -1e-05
v 0.067625 -0.07427 -0.03448
v 0.061 -0.06499 -0.039785
v 0.05835 -0.07692 0.00531
v 0.061 -0.0809 -0.031825
f 3 4 2
f 5 6 7
f 8 1 9
f 7 10 11
f 5 7 12
f 5 12 4
f 4 12 9
f 5 4 3
f 8 2 1
f 7 11 12
f 10 8 14
f 13 3 2
f 2 8 13
f 2 4 1
f 10 14 11
f 4 9 1
f 10 13 8
f 13 6 3
f 7 6 10
f 6 13 10
f 11 14 9
f 14 8 9
f 12 11 9
f 3 6 5
