# Created by Open3D 
# object name: convex_4_coll
# number of vertices: 14
# number of triangles: 24
v -0.06896 -0.04244 -0.00796
v -0.06631 -0.04244 -0.03183
v -0.07162 -0.068965 -0.03448
v -0.04244 -0.06896 -0.04244
v -0.04244 -0.06631 0.00531
v -0.04244 -0.0809 0.00265
v -0.04244 -0.05836 -0.01857
v -0.04244 -0.0809 -0.039785
v -0.05835 -0.0809 0.00265
v -0.06101 -0.04244 -0.00796
v -0.06631 -0.07692 -0.04244
v -0.06101 -0.06896 0.00531
v -0.06366 -0.08223 -0.023875
v -0.0679663 -0.0746013 -0.0033225
f 1 2 3
f 4 5 6
f 5 4 7
f 4 6 8
f 8 6 9
f 2 1 10
f 1 5 10
f 11 3 2
f 5 12 9
f 4 2 7
f 11 4 8
f 11 8 13
f 8 9 13
f 5 9 6
f 7 10 5
f 13 14 3
f 11 13 3
f 5 1 12
f 7 2 10
f 9 12 14
f 14 12 1
f 11 2 4
f 13 9 14
f 1 3 14
