# Created by Open3D 
# object name: convex_7_coll
# number of vertices: 14
# number of triangles: 24
v 0.0504 0.00264 -0.04243
v 0.06366 0.0106 -0.04243
v 0.06631 0.01988 -0.031825
v 0.06631 -0.0557 -0.00531
v 0.06631 -0.0557 -0.03182
v 0.0557 -0.0557 -0.00266
v 0.054375 -0.0557 -0.031825
v 0.05835 -1e-05 0.01061
v 0.0504 0.0159 0.0053
v 0.0504 -0.01061 0.00663
v 0.06631 0.022535 -0.00929
v 0.06366 0.01723 0.00132
v 0.061005 0.027845 -0.007965
v 0.0606725 0.0285125 -0.0291725
f 3 4 5
f 4 6 5
f 5 6 7
f 9 1 10
f 4 3 11
f 11 3 13
f 12 11 13
f 8 9 10
f 6 8 10
f 10 7 6
f 8 6 4
f 9 12 13
f 3 5 2
f 13 3 14
f 9 14 1
f 12 4 11
f 3 2 14
f 2 1 14
f 14 9 13
f 8 4 12
f 1 7 10
f 2 5 1
f 9 8 12
f 1 5 7
