# Created by Open3D 
# object name: convex_6_coll
# number of vertices: 14
# number of triangles: 24
v 0.0504 0.01591 0.0053
v 0.0218825 0.012595 0.0026475
v 0.0504 0.0106 0.00795
v 0.02122 -0.01061 -0.01856
v 0.02122 -0.00795 0.0053
v 0.022545 0 -0.030495
v 0.0504 0.00265 -0.04244
v 0.0504 -0.01193 0.006625
v 0.0504 -0.0053 -0.04244
v 0.046415 -0.01857 -5.00004e-06
v 0.04907 0.01326 -0.01856
v 0.03713 0.00265 -0.04244
v 0.02122 0.00795 -0.02121
v 0.030505 0.01591 -5.00004e-06
f 1 2 3
f 2 4 5
f 4 2 6
f 7 1 8
f 7 8 9
f 10 4 9
f 11 7 12
f 7 9 12
f 6 2 13
f 12 6 13
f 11 12 13
f 14 11 13
f 12 9 6
f 9 8 10
f 4 10 5
f 8 1 3
f 11 14 1
f 2 1 14
f 8 3 5
f 5 10 8
f 6 9 4
f 14 13 2
f 5 3 2
f 1 7 11
