# Created by Open3D 
# object name: convex_14_coll
# number of vertices: 14
# number of triangles: 24
v -0.05304 0.011935 -0.041115
v -0.05569 -0.00265 -0.04244
v 0.01855 -0.00531 -0.02653
v -0.00531 0.01061 -0.02653
v -0.03713 -0.00531 -0.02653
v -0.05569 -0.00531 -0.03979
v -0.05569 0.0053 -0.02918
v -0.03713 0.01061 -0.02653
v -0.05569 0.01326 -0.03183
v -0.00796 -0.00796 -0.027855
v 0.00795 -0.00265 -0.03713
v 0.00264 0.0053 -0.03713
v 0.017225 0.003975 -0.03183
v 0.01856 -0.003315 -0.0311675
f 3 4 5
f 6 7 1
f 5 4 8
f 7 5 8
f 1 7 9
f 7 8 9
f 3 5 10
f 5 6 10
f 2 11 6
f 11 12 13
f 4 3 13
f 6 5 7
f 10 14 3
f 1 9 4
f 9 8 4
f 14 10 11
f 10 6 11
f 13 3 14
f 12 11 1
f 11 2 1
f 1 4 12
f 4 13 12
f 11 13 14
f 6 1 2
