# Created by Open3D 
# object name: convex_9_coll
# number of vertices: 14
# number of triangles: 24
v -0.02771 -0.00578 -0.03349
v 0.00461 0.01501 -0.03811
v -0.03002 -0.00578 -0.02657
v 0.00924 -0.00578 -0.03118
v -0.03465 0.04272 -0.03118
v -0.03465 0.0381 -0.02657
v 0.00461 -0.00578 -0.0358
v 0.005765 -0.00462 -0.02541
v 0.00692 0.01501 -0.02425
v -0.01616 0.04966 -0.02887
v -0.00462 0.04734 -0.02887
v -0.01616 0.0381 -0.0358
v 0.00692 0.03348 -0.0358
v 0.005765 0.034635 -0.030025
f 3 1 4
f 1 2 7
f 4 1 7
f 8 9 3
f 2 12 13
f 2 1 12
f 13 14 4
f 9 8 4
f 14 9 4
f 6 3 9
f 10 6 9
f 3 4 8
f 5 3 6
f 3 5 1
f 13 4 2
f 4 7 2
f 13 12 11
f 11 14 13
f 6 10 5
f 11 12 10
f 12 1 5
f 11 10 9
f 14 11 9
f 5 10 12
