# Created by Open3D 
# object name: convex_6_coll
# number of vertices: 14
# number of triangles: 24
v 0.0023 0.050795 0.00115
v -0.05081 0.038105 0.00462
v -0.05312 -0.02194 0.0127
v -0.05312 0.03116 0.0127
v -0.01153 -0.04504 0.00346
v 0.03695 0.02885 0.00578
v 0.03695 0.02885 0.01732
v 0.035215 -0.015 0.0167425
v -0.04157 0.0612 0.00693
v 0.00461 0.0612 0.00577
v 0.012695 0.015 0.02425
v 0.032325 -0.019625 0.00578
v -0.0201925 -0.04504 0.0098125
v -0.0398375 -0.0421475 0.005195
f 2 3 4
f 6 7 8
f 10 9 11
f 5 13 14
f 6 10 7
f 5 12 8
f 13 5 8
f 11 4 3
f 11 9 4
f 14 2 5
f 9 1 2
f 10 1 9
f 8 12 6
f 10 11 7
f 7 11 8
f 12 5 1
f 6 12 1
f 3 2 14
f 4 9 2
f 3 13 8
f 11 3 8
f 14 13 3
f 5 2 1
f 10 6 1
