# Created by Open3D 
# object name: convex_1_coll
# number of vertices: 14
# number of triangles: 24
v 0.07391 0.024245 -0.034645
v 0.069865 -0.0196225 -0.035795
v 0.05543 0.03117 -0.03118
v 0.0580287 -0.0314488 -0.0121275
v 0.05543 0.02655 0.03117
v 0.07391 0.053105 -0.002315
v 0.07275 -0.024815 0.0126925
v 0.07275 0.0138575 0.03233
v 0.05543 0.00348 0.03117
v 0.0664025 0.05426 -0.0305975
v 0.065825 0.05773 -9.99996e-06
v 0.06929 -0.03578 0.00346
v 0.06005 -0.02886 0.01154
v 0.06005 -0.023085 -0.036955
f 3 4 5
f 6 7 1
f 7 6 8
f 5 4 9
f 7 2 1
f 11 10 3
f 5 11 3
f 4 12 13
f 3 14 4
f 8 5 9
f 2 7 12
f 8 6 5
f 6 11 5
f 12 7 13
f 9 4 13
f 11 6 10
f 6 1 10
f 1 2 14
f 4 14 12
f 14 2 12
f 10 1 3
f 7 8 9
f 13 7 9
f 3 1 14
