# Created by Open3D 
# object name: convex_5_coll
# number of vertices: 14
# number of triangles: 24
v -0.001175 -0.04157 -0.018475
v 0.03695 0.02654 -0.01732
v 0.00922 0.00347 -0.02425
v 0.00461 0.0612 -0.02194
v 0.03579 -0.0254 -0.00809
v 0.03579 0.016155 -0.006935
v -0.006925 0.04964 0.00115
v -0.049655 -0.01847 -0.018475
v -0.05312 -0.01963 -0.00578
v -0.04619 0.04502 -0.01732
v -0.012705 -0.04504 -0.006935
v -0.04388 -0.0381 -0.01501
v -0.04388 0.04733 -0.0104
v -0.015 -0.0381 -0.00347
f 2 3 4
f 5 6 7
f 8 3 1
f 5 1 3
f 5 11 1
f 12 9 8
f 9 10 8
f 4 8 10
f 5 3 2
f 7 2 4
f 3 8 4
f 7 4 13
f 9 13 10
f 5 2 6
f 10 13 4
f 5 14 11
f 14 5 7
f 12 11 9
f 11 14 9
f 7 13 9
f 9 14 7
f 2 7 6
f 8 1 12
f 1 11 12
