# Created by Open3D 
# object name: convex_0_coll
# number of vertices: 14
# number of triangles: 24
v -0.0485 -0.05889 -0.03811
v -0.03464 -0.06351 0.00807
v -0.028285 -0.0629325 -0.038685
v 0.033485 -0.062355 -0.034065
v 0.0254 -0.06351 0.0127
v -0.025975 -0.04504 0.009225
v -0.00809 -0.04504 -9.99961e-06
v -0.00693 -0.04504 -0.01732
v -0.0040475 -0.056585 -0.04273
v 0.03464 -0.05889 0.00346
v -0.0485 -0.05197 0.00807
v 0.03233 -0.05658 -0.0358
v -0.05543 -0.04966 -0.0358
v 0.009235 -0.05197 -0.03926
f 2 3 4
f 2 4 5
f 6 7 8
f 11 6 13
f 7 10 12
f 13 14 9
f 9 12 4
f 3 9 4
f 6 11 5
f 8 14 13
f 1 3 2
f 12 9 14
f 5 7 6
f 7 12 8
f 12 14 8
f 7 5 10
f 2 11 13
f 1 2 13
f 5 4 10
f 12 10 4
f 9 3 1
f 13 9 1
f 8 13 6
f 11 2 5
