# Created by Open3D 
# object name: convex_2_coll
# number of vertices: 14
# number of triangles: 24
v -0.068135 -0.024245 0.01038
v -0.06698 -0.03811 -0.01963
v -0.05312 0.03117 0.01269
v -0.05312 -0.024245 0.011535
v -0.06005 0.0612 -0.03348
v -0.05312 -5.00027e-06 -0.01617
v -0.058895 -0.034645 -0.0358
v -0.07391 0.02193 0.00807
v -0.072755 0.00231 -0.02829
v -0.068135 0.062355 -0.03464
v -0.0664025 -0.0069175 -0.0444525
v -0.068135 -0.03695 -0.03348
v -0.06467 0.03117 -0.04503
v -0.06929 0.05427 0.00577
f 3 4 6
f 5 6 7
f 3 8 1
f 3 1 4
f 10 11 9
f 7 4 2
f 5 3 6
f 14 10 9
f 11 10 13
f 5 7 13
f 14 3 5
f 1 12 2
f 12 8 9
f 14 9 8
f 7 11 13
f 8 12 1
f 12 9 11
f 7 12 11
f 14 5 10
f 7 2 12
f 3 14 8
f 5 13 10
f 7 6 4
f 2 4 1
