# Created by Open3D 
# object name: convex_4_coll
# number of vertices: 14
# number of triangles: 24
v 0.05543 -0.00808 0.01501
v 0.05543 0.00578 0.03117
v 0.03695 -0.00808 0.01732
v 0.05543 -0.00577 0.00577
v 0.05543 0.03118 0.01039
v 0.03695 0.02887 0.00577
v 0.03695 0.00578 0.03348
v 0.03695 0.03118 0.03117
v 0.03695 0.02887 0.03348
v 0.05543 0.02656 0.03117
v 0.03695 0.00808 0.00577
v 0.05543 0.02425 0.00577
v 0.03695 -0.00808 0.01271
v 0.03695 0.03118 0.00808
f 1 2 3
f 4 5 2
f 6 3 7
f 8 9 10
f 2 5 10
f 6 4 11
f 3 6 11
f 6 7 8
f 4 2 1
f 4 6 12
f 5 4 12
f 3 11 13
f 1 3 13
f 8 5 14
f 6 8 14
f 9 7 2
f 10 9 2
f 1 13 4
f 8 7 9
f 5 12 6
f 14 5 6
f 4 13 11
f 5 8 10
f 2 7 3
