# Created by Open3D 
# object name: convex_3_coll
# number of vertices: 14
# number of triangles: 24
v 0.054275 0.02887 -0.02194
v 0.05543 0.01963 -0.02194
v 0.03695 0.01501 -0.01732
v 0.03695 0.02656 -0.01732
v 0.05081 0.0127 -0.0104
v 0.05081 0.02425 -0.0104
v 0.03695 0.01732 -0.0104
v 0.03695 0.02656 -0.01271
v 0.05543 0.02887 -0.01502
v 0.03695 0.0127 -0.013865
v 0.05543 0.01501 -0.01271
v 0.05543 0.01501 -0.01963
v 0.0485 0.02887 -0.01502
v 0.05081 0.0127 -0.01502
f 3 4 1
f 5 6 7
f 4 3 7
f 4 7 8
f 6 9 8
f 7 6 8
f 7 3 10
f 9 6 11
f 12 9 11
f 5 12 11
f 6 5 11
f 9 12 2
f 3 12 10
f 9 1 13
f 1 4 13
f 4 8 13
f 8 9 13
f 12 5 14
f 10 12 14
f 5 10 14
f 10 5 7
f 9 2 1
f 12 3 2
f 3 1 2
