# Created by Open3D 
# object name: convex_7_coll
# number of vertices: 14
# number of triangles: 24
v 0.010965 0.03348 0.0259825
v -0.02309 0.02425 0.0381
v -0.02079 -0.01501 0.0381
v 0.03233 -0.01501 0.03349
v 0.01039 0.03579 0.03579
v 0.01847 -0.01501 0.02656
v 0.03695 0.02886 0.02425
v 0.00692 0.00347 0.02425
v -0.02079 -0.01501 0.03349
v 0.03695 0.03117 0.03349
v 0.026555 0.01501 0.04503
v -0.00923 0.02655 0.04272
v 0.03695 0.00808 0.03579
v -0.02541 0.01501 0.03349
f 4 3 6
f 7 8 1
f 6 3 9
f 2 12 5
f 10 11 13
f 11 4 13
f 7 10 13
f 9 3 14
f 9 14 8
f 3 12 2
f 14 3 2
f 5 11 10
f 11 5 12
f 14 2 1
f 11 3 4
f 5 10 7
f 1 5 7
f 7 6 8
f 4 7 13
f 9 8 6
f 14 1 8
f 6 7 4
f 11 12 3
f 5 1 2
