# Created by Open3D 
# object name: convex_8_coll
# number of vertices: 14
# number of triangles: 24
v -0.04388 -0.00809 -0.03349
v -0.03233 -0.00578 -0.02656
v 0.00692 -0.00578 -0.02656
v -0.04388 -0.01733 -0.02656
v -0.01847 -0.00578 -0.0358
v 0.00461 -0.00578 -0.0358
v 0.012695 -0.038105 -0.03811
v -1e-05 -0.04042 -0.03811
v 0.01385 -0.02656 -0.03811
v 0.0023 -0.02425 -0.02656
v 0.01154 -0.04042 -0.03118
v -0.00232 -0.03926 -0.030025
v -0.04388 -0.01733 -0.03349
v 0.01385 -0.031175 -0.03118
f 5 3 6
f 3 5 2
f 4 3 2
f 7 8 9
f 5 6 9
f 3 4 10
f 8 11 12
f 4 13 12
f 7 9 14
f 9 3 14
f 1 8 13
f 4 1 13
f 1 5 8
f 5 9 8
f 3 10 11
f 10 12 11
f 11 8 7
f 3 9 6
f 4 12 10
f 12 13 8
f 11 7 14
f 3 11 14
f 4 2 1
f 5 1 2
