# Created by Open3D 
# object name: convex_1_coll
# number of vertices: 14
# number of triangles: 24
v 0.05101 0.0153 0.02959
v -0.001035 0.0193875 0.03164
v -0.01633 -0.0449 0.01531
v -0.016325 -0.0449 0.02144
v 0.00304 -0.001005 0.03164
v -0.05204 0.01632 0.02347
v -0.05 -0.00815 0.02347
v -0.00052375 0.0645412 0.01888
v 0.03161 -0.01835 0.01735
v 0.02754 0.01836 0.01531
v 0.05101 0.01938 0.025
v 0.005085 0.05715 0.01327
v 0.03978 -0.00407 0.02959
v -0.04797 -0.01223 0.01735
f 10 9 3
f 1 13 9
f 13 5 4
f 3 9 4
f 10 3 12
f 12 11 10
f 11 12 8
f 4 7 3
f 8 1 11
f 6 2 8
f 13 4 9
f 6 7 2
f 7 5 2
f 6 8 12
f 8 2 1
f 3 14 12
f 1 2 5
f 13 1 5
f 12 14 6
f 14 3 7
f 7 6 14
f 1 9 11
f 9 10 11
f 7 4 5
