# Created by Open3D 
# object name: convex_0_coll
# number of vertices: 14
# number of triangles: 24
v -0.0362425 -0.06072 -0.0107125
v -0.0439 -0.05103 0.00714
v -0.01532 -0.06123 -0.03164
v 0.033665 -0.06429 0.01734
v -0.02552 -0.06531 0.01939
v -0.014815 -0.06021 0.02347
v 0.032125 -0.06072 0.02143
v -0.016335 -0.0449 0.02143
v -0.0234725 -0.05613 -0.0290825
v -0.0431325 -0.05664 0.019645
v 0.03468 -0.05613 0.01632
v 0.0043225 -0.05205 -0.0293388
v 0.03264 -0.05715 -0.02857
v 0.03367 -0.06123 -0.02755
f 6 5 7
f 2 8 9
f 11 7 4
f 10 2 1
f 3 1 9
f 5 1 3
f 11 13 8
f 9 8 12
f 11 4 13
f 8 6 7
f 11 8 7
f 6 8 10
f 8 13 12
f 4 5 14
f 5 3 14
f 3 13 14
f 12 3 9
f 7 5 4
f 4 14 13
f 3 12 13
f 10 1 5
f 10 8 2
f 5 6 10
f 2 9 1
