# Created by Open3D 
# object name: convex_3_coll
# number of vertices: 14
# number of triangles: 24
v -0.04944 -0.04237 0.02354
v -0.07062 -0.03531 0.02354
v -0.04944 0.00705 0.02118
v -0.04944 0.00705 0.02589
v -0.07062 0.0047 0.02589
v -0.06826 -0.03295 0.02589
v -0.06826 -0.03766 0.01648
v -0.07533 0.01411 0.01648
v -0.06591 0.01411 0.01648
v -0.04944 -0.04237 0.01883
v -0.07533 -0.00236 0.02118
v -0.04944 -0.03295 0.02589
v -0.07298 0.01176 0.02354
v -0.07298 -0.02589 0.01648
f 1 3 4
f 5 6 4
f 7 8 9
f 4 3 9
f 3 1 10
f 6 1 12
f 1 4 12
f 4 6 12
f 5 4 13
f 11 8 14
f 8 7 14
f 7 2 14
f 14 2 11
f 13 8 11
f 9 3 10
f 4 9 13
f 9 8 13
f 2 6 5
f 11 2 5
f 13 11 5
f 7 10 1
f 6 2 1
f 9 10 7
f 7 1 2
