# Created by Open3D 
# object name: convex_5_coll
# number of vertices: 14
# number of triangles: 24
v 0.00705 0.03296 0.01883
v 0.002355 0.03296 0.02354
v -0.04944 0.00706 0.02589
v -0.04944 -0.04472 0.01883
v -0.04944 -0.0353 0.02589
v 0.05414 -0.01646 0.03296
v 0.05177 0.01882 0.03296
v 0.01412 0.01176 0.03296
v -0.01411 -0.0565 0.01883
v -0.03295 0.02118 0.02589
v 0.05414 -0.01294 0.02354
v 0.05414 0.01412 0.02119
v -0.04944 0.00706 0.02119
v -0.02 -0.0565 0.02354
f 3 4 5
f 6 7 8
f 1 9 4
f 3 8 10
f 11 12 6
f 12 11 9
f 4 3 13
f 1 4 13
f 3 10 13
f 3 5 8
f 6 9 11
f 9 6 14
f 5 14 6
f 8 5 6
f 6 12 7
f 4 9 14
f 10 8 7
f 2 10 7
f 1 13 10
f 1 7 12
f 12 9 1
f 14 5 4
f 10 2 1
f 7 1 2
