# Created by Open3D 
# object name: convex_6_coll
# number of vertices: 14
# number of triangles: 24
v -0.0047 -0.00235 0.04708
v 0.01647 -0.01648 0.04473
v 0.03766 0.01765 0.0412
v 0.03766 0.01765 0.055315
v 0.03766 0.00941 0.0612
v 0.03766 -0.00471 0.04002
v 0.03177 -0.01648 0.0476725
v 0.01413 -0.01648 0.04944
v 0.01883 0.01883 0.04944
v 0.02118 0.01883 0.04238
v 0.02001 0.005885 0.0412
v -0.0023475 0.00706 0.04943
v 0.03059 0.01412 0.0612
v -0.00588 -0.00235 0.05178
f 3 4 5
f 3 5 6
f 7 8 2
f 6 7 2
f 4 3 9
f 5 8 7
f 10 11 12
f 9 3 10
f 14 8 5
f 11 2 1
f 12 11 1
f 13 12 14
f 12 1 14
f 5 13 14
f 13 5 4
f 9 10 12
f 10 3 11
f 3 6 11
f 6 5 7
f 2 11 6
f 9 12 13
f 9 13 4
f 2 8 1
f 8 14 1
