# Created by Open3D 
# object name: convex_0_coll
# number of vertices: 14
# number of triangles: 24
v 0.0353 -0.00469 -0.0565
v 0.03294 0.02118 -0.0565
v -0.0382425 0.0105888 -0.0594375
v 0.001165 -0.02589 -0.0612
v -0.007075 0.04002 -0.053555
v -0.06827 -0.01411 -0.04238
v -0.0659 0.02118 -0.04473
v -0.007075 -0.0391313 -0.0544387
v -0.05649 -0.02589 -0.05414
v -0.0494225 0.0329475 -0.05532
v -0.04707 0.03765 -0.04944
v 0.01882 -0.025885 -0.05179
v -0.065905 -0.01294 -0.05179
v 0.031765 0.007065 -0.05179
f 4 3 2
f 8 6 9
f 11 10 7
f 2 3 10
f 12 6 8
f 6 7 13
f 9 6 13
f 3 4 9
f 9 4 8
f 7 10 3
f 13 7 3
f 13 3 9
f 1 8 4
f 11 5 10
f 5 14 2
f 8 1 12
f 4 2 1
f 6 14 7
f 14 5 7
f 14 6 12
f 2 10 5
f 7 5 11
f 14 12 1
f 2 14 1
