# Created by Open3D 
# object name: convex_2_coll
# number of vertices: 14
# number of triangles: 24
v 0.05886 -0.03765 -0.02118
v 0.0594475 -0.0447175 0.0064725
v 0.05414 -0.0123625 0.0464775
v 0.07533 0.0223525 0.01295
v 0.07533 -9.99996e-06 0.0253025
v 0.05414 0.01647 0.04707
v 0.07297 0.007055 0.0565
v 0.0653275 0.03001 -0.014115
v 0.0565 0.01764 -0.018825
v 0.06709 -0.0400075 0.0276525
v 0.07062 0.01176 -0.02589
v 0.06944 0.0270625 0.02941
v 0.06709 -0.0353 -0.02
v 0.060035 -0.0317675 0.0405925
f 1 2 3
f 8 11 9
f 6 8 9
f 8 4 11
f 7 6 3
f 7 12 6
f 5 7 10
f 7 14 10
f 7 3 14
f 11 5 13
f 8 6 12
f 14 2 10
f 10 2 13
f 1 13 2
f 5 10 13
f 5 4 7
f 4 12 7
f 11 13 1
f 9 11 1
f 3 9 1
f 5 11 4
f 8 12 4
f 9 3 6
f 2 14 3
