# Created by Open3D 
# object name: convex_7_coll
# number of vertices: 14
# number of triangles: 24
v 0.04238 -0.01648 0.04002
v 0.05414 -0.0153 0.043545
v 0.05414 0.01647 0.04708
v 0.05414 -0.01412 0.03296
v 0.04473 0.01647 0.03296
v 0.05414 0.01647 0.03296
v 0.03767 0.01412 0.05414
v 0.03767 0.01883 0.04002
v 0.03767 1e-05 0.05178
v 0.04002 -0.00941 0.03296
v 0.05414 -0.00235 0.04943
v 0.03767 -0.00706 0.03767
v 0.03767 0.01883 0.04943
v 0.04002 0.00471 0.05414
f 3 2 4
f 4 5 6
f 3 4 6
f 7 8 9
f 5 4 10
f 2 3 11
f 9 8 12
f 10 1 12
f 7 3 13
f 7 9 14
f 11 7 14
f 2 11 14
f 5 8 6
f 13 3 6
f 8 13 6
f 7 11 3
f 8 7 13
f 1 4 2
f 5 10 8
f 10 12 8
f 1 10 4
f 12 1 9
f 9 1 2
f 14 9 2
