# Created by Open3D 
# object name: convex_1_coll
# number of vertices: 14
# number of triangles: 24
v -0.07062 -0.03766 0.01648
v -0.07297 -0.037655 -0.0158875
v -0.06356 0.04708 0.01648
v -0.06356 -0.03766 0.01648
v -0.07533 0.01646 0.01648
v -0.05885 -0.03531 0.00235
v -0.05885 -0.05414 -0.02589
v -0.07533 0.01883 -0.02353
v -0.07062 -0.00942 -0.04237
v -0.06121 -0.00706 -0.04237
v -0.06121 0.052965 -0.020005
v -0.06768 -0.050015 -0.023535
v -0.0700325 0.052375 -0.01883
v -0.07062 0.01999 -0.038835
f 4 3 5
f 4 6 3
f 4 5 1
f 9 12 2
f 5 8 2
f 14 13 11
f 2 8 9
f 8 14 9
f 7 10 11
f 10 14 11
f 14 10 9
f 1 5 2
f 9 7 12
f 4 12 7
f 6 4 7
f 3 11 13
f 3 6 11
f 12 4 1
f 7 9 10
f 13 5 3
f 8 13 14
f 5 13 8
f 7 11 6
f 2 12 1
