# Created by Open3D 
# object name: convex_4_coll
# number of vertices: 11
# number of triangles: 18
v -0.07298 0.01413 0.02118
v -0.07062 0.04472 0.02118
v -0.07298 0.0259 0.01883
v -0.07298 0.01413 0.01648
v -0.06592 0.01413 0.01883
v -0.07062 0.04708 0.01648
v -0.06356 0.04237 0.01648
v -0.06356 0.04708 0.01883
v -0.06592 0.04708 0.02118
v -0.06592 0.02354 0.02118
v -0.06592 0.01413 0.01648
f 1 2 3
f 1 4 5
f 4 6 7
f 8 5 7
f 6 8 7
f 8 6 9
f 9 6 2
f 1 9 2
f 1 5 10
f 5 8 10
f 9 1 10
f 8 9 10
f 5 4 11
f 4 7 11
f 7 5 11
f 4 1 3
f 6 4 3
f 2 6 3
