# Created by Open3D 
# object name: convex_16_coll
# number of vertices: 14
# number of triangles: 24
v -0.00874 0.05988 -0.07237
v 0.014965 0.0312 -0.0717475
v -0.05615 0.05988 -0.07362
v -0.05615 -0.00997 -0.06613
v -0.05615 0.05988 -0.06364
v 0.0212 -0.00997 -0.07362
v -0.05615 -0.00997 -0.07362
v -0.016225 -0.002485 -0.07611
v -0.05615 0.00749 -0.06364
v -0.00875 0.047415 -0.06114
v 0.01621 -0.00997 -0.06613
v 0.0287 0.005 -0.06863
v -0.00875 0.06113 -0.064885
v -0.0187 0.06737 -0.06613
f 3 4 5
f 6 4 7
f 3 8 7
f 4 3 7
f 5 4 9
f 10 5 9
f 1 2 8
f 7 8 6
f 11 6 12
f 12 2 13
f 4 6 11
f 9 4 11
f 10 9 11
f 8 2 6
f 6 2 12
f 5 14 3
f 5 10 14
f 1 14 13
f 2 1 13
f 11 12 10
f 12 13 10
f 13 14 10
f 14 1 3
f 1 8 3
