# Created by Open3D 
# object name: convex_21_coll
# number of vertices: 14
# number of triangles: 24
v 0.0237 -0.05989 -0.04616
v 0.04616 -0.06988 -0.04118
v -0.03119 -0.07736 -0.06114
v -0.03119 -0.05989 -0.06114
v 0.04616 -0.06239 -0.06114
v -0.03119 -0.05989 -0.04118
v 0.04616 -0.07986 -0.05615
v 0.002505 -0.071125 -0.0287
v -0.009975 -0.07986 -0.0287
v 0.04616 -0.07986 -0.04368
v -0.03119 -0.06988 -0.0287
v 0.04616 -0.07736 -0.06114
v -0.02869 -0.07986 -0.05116
v -0.03119 -0.07736 -0.0287
f 3 4 5
f 4 3 6
f 7 5 2
f 4 6 1
f 2 1 8
f 9 7 10
f 7 2 10
f 6 3 11
f 9 8 11
f 8 6 11
f 3 5 12
f 5 7 12
f 7 3 12
f 7 9 13
f 11 3 14
f 9 11 14
f 3 13 14
f 13 9 14
f 2 8 10
f 8 9 10
f 3 7 13
f 8 1 6
f 5 4 1
f 2 5 1
