# Created by Open3D 
# object name: convex_10_coll
# number of vertices: 14
# number of triangles: 24
v -0.06925 0.0592625 -0.070495
v -0.07237 0.04117 -0.07237
v -0.05615 -0.00997 -0.07362
v -0.07611 -0.00997 -0.0287
v -0.07112 -0.00997 -0.07362
v -0.05865 0.06737 -0.0287
v -0.07611 0.04741 -0.0287
v -0.06364 -0.00997 -0.0287
v -0.05615 0.06487 -0.07112
v -0.07861 -0.00748 -0.03619
v -0.07861 -0.00997 -0.06862
v -0.07861 0.03743 -0.06613
v -0.0754875 0.05427 -0.04617
v -0.06863 0.06737 -0.0312
f 3 4 5
f 4 6 7
f 4 3 8
f 6 4 8
f 9 3 2
f 10 4 7
f 5 4 11
f 10 12 11
f 4 10 11
f 7 6 14
f 8 3 6
f 11 12 2
f 5 11 2
f 2 3 5
f 7 12 10
f 12 7 13
f 14 6 9
f 1 14 9
f 1 9 2
f 6 3 9
f 7 14 13
f 12 13 1
f 13 14 1
f 2 12 1
