# Created by Open3D 
# object name: convex_9_coll
# number of vertices: 14
# number of triangles: 24
v -0.066125 -0.07236 -0.068625
v -0.03119 -0.07735 -0.06363
v -0.03119 -0.00998 -0.06613
v -0.03119 -0.07236 -0.0287
v -0.06363 -0.00998 -0.0287
v -0.07111 -0.06986 -0.0287
v -0.07486 -0.00998 -0.071115
v -0.03119 -0.06986 -0.07611
v -0.07611 -0.00998 -0.0287
v -0.03119 -0.00998 -0.07361
v -0.062385 -0.0761 -0.0287
v -0.07611 -0.04491 -0.0287
v -0.06862 -0.06238 -0.07361
v -0.07486 -0.0630025 -0.06675
f 2 3 4
f 5 6 4
f 5 3 7
f 3 2 8
f 6 5 9
f 5 7 9
f 7 3 10
f 3 8 10
f 2 4 11
f 3 5 4
f 6 9 12
f 7 12 9
f 13 1 14
f 1 13 8
f 4 6 11
f 1 6 14
f 6 1 11
f 7 10 8
f 8 2 1
f 14 12 7
f 14 6 12
f 14 7 13
f 7 8 13
f 2 11 1
