# Created by Open3D 
# object name: convex_4_coll
# number of vertices: 14
# number of triangles: 24
v 0.04617 -0.028705 -0.0717475
v 0.04617 -0.079235 -0.0492825
v 0.05615 -0.02246 0.01622
v 0.07362 -0.02246 -0.01125
v 0.07362 -0.02246 -0.07112
v 0.04617 -0.06987 -0.07611
v 0.063635 -0.071115 -0.07237
v 0.07362 -0.04492 -0.07112
v 0.062385 -0.02496 0.02121
v 0.06114 -0.07736 0.00873
v 0.06613 -0.07736 0.00873
v 0.06675 -0.07736 -0.0449075
v 0.07112 -0.07611 -0.00625
v 0.06862 -0.03494 -0.07611
f 3 4 5
f 2 1 6
f 7 2 6
f 5 4 8
f 9 10 11
f 2 12 11
f 14 5 8
f 4 3 9
f 8 4 13
f 6 14 7
f 1 5 14
f 8 13 12
f 8 12 7
f 3 10 9
f 3 2 10
f 2 7 12
f 11 10 2
f 3 1 2
f 1 14 6
f 7 14 8
f 13 11 12
f 11 13 9
f 13 4 9
f 1 3 5
