# Created by Open3D 
# object name: convex_1_coll
# number of vertices: 13
# number of triangles: 22
v -0.06613 0.06988 -0.03118
v -0.06114 0.07237 -0.03867
v -0.06613 0.06988 -0.04366
v -0.05615 0.07237 0.04866
v -0.05366 0.07237 0.04866
v -0.05615 0.07237 -0.03867
v -0.05865 0.06738 -0.04366
v -0.05615 0.06738 -0.03368
v -0.06613 0.06738 -0.04366
v -0.05366 0.06988 0.04866
v -0.05865 0.06988 0.04366
v -0.05865 0.07237 0.04366
v -0.06613 0.06738 -0.03118
f 1 2 3
f 4 5 6
f 7 6 8
f 9 7 8
f 4 6 2
f 5 4 10
f 6 5 10
f 4 11 10
f 8 6 10
f 11 4 12
f 1 11 12
f 4 2 12
f 2 1 12
f 11 1 13
f 1 9 13
f 9 8 13
f 10 11 13
f 8 10 13
f 6 7 3
f 7 9 3
f 9 1 3
f 2 6 3
