# Created by Open3D 
# object name: convex_19_coll
# number of vertices: 14
# number of triangles: 24
v 0.00374 -0.02994 0.00374
v -0.00561125 -0.01029 0.01372
v -0.02369 0.02745 0.003745
v -0.04616 0.02745 0.00125
v -0.04865 0.02745 0.00624
v 0.04617 -0.00998 0.01372
v 0.043665 -1e-05 0.012475
v 0.04617 -0.00499 0.00624
v -0.028065 -0.031815 0.00187
v 0.0162 -0.024945 -0.002495
v -0.01372 -1e-05 -0.00374
v 0.019955 0.00124 -0.00374
v -0.05614 -0.02245 0.003745
v -0.05614 -0.004995 0.00873
f 3 4 5
f 7 6 8
f 3 5 7
f 5 2 7
f 2 6 7
f 9 10 1
f 11 12 10
f 13 14 4
f 9 2 13
f 3 7 8
f 5 4 14
f 14 13 2
f 10 6 1
f 4 3 12
f 11 4 12
f 13 4 11
f 12 8 10
f 5 14 2
f 12 3 8
f 6 10 8
f 9 13 11
f 10 9 11
f 9 1 2
f 1 6 2
