# Created by Open3D 
# object name: convex_24_coll
# number of vertices: 14
# number of triangles: 24
v -0.01621 0.02745 -0.04367
v -0.00874 0.044915 -0.03619
v -0.00624 0.0549 -0.04367
v 0.02869 0.04991 -0.04492
v 0.002495 0.02745 -0.053655
v 0.00374 0.02745 -0.04367
v -0.04616 0.04991 -0.038685
v -0.04865 0.04492 -0.038685
v -0.0025 0.04866 -0.05615
v -0.01871 0.049905 -0.0549
v -0.00998 0.0549 -0.05116
v -0.012475 0.02745 -0.053655
v -0.01871 0.03744 -0.05615
v 0.02869 0.04492 -0.04367
f 5 6 1
f 8 2 7
f 9 5 10
f 7 10 8
f 9 10 11
f 10 7 11
f 5 1 12
f 8 13 12
f 1 8 12
f 4 3 2
f 3 7 2
f 4 2 14
f 14 6 5
f 14 5 4
f 10 5 13
f 8 10 13
f 2 1 6
f 14 2 6
f 3 4 11
f 4 9 11
f 4 5 9
f 13 5 12
f 7 3 11
f 8 1 2
