# Created by Open3D 
# object name: convex_6_coll
# number of vertices: 14
# number of triangles: 24
v 0.06239 0.04491 -0.07361
v 0.07361 0.03492 -0.00625
v 0.06114 0.06737 -0.01124
v 0.05865 -0.02246 -0.00625
v 0.07361 -0.02246 -0.01124
v 0.05865 -0.02246 -0.06862
v 0.07361 -0.02246 -0.07112
v 0.069875 0.06737 -0.01124
v 0.059895 0.06737 -0.038685
v 0.05366 1e-05 -0.07611
v 0.05116 0.046155 -0.041175
v 0.07861 0.03742 -0.05863
v 0.069875 0.06737 -0.038685
v 0.07486 0.05115 -0.06987
f 2 3 4
f 5 4 6
f 5 6 7
f 8 9 3
f 6 4 10
f 5 12 2
f 7 10 1
f 9 8 13
f 12 5 7
f 14 13 12
f 13 8 12
f 8 2 12
f 4 3 11
f 4 11 10
f 7 1 14
f 2 4 5
f 9 11 3
f 10 11 1
f 14 9 13
f 3 2 8
f 14 12 7
f 6 10 7
f 11 9 1
f 9 14 1
