# Created by Open3D 
# object name: convex_3_coll
# number of vertices: 14
# number of triangles: 24
v -0.00873 0.07986 0.06363
v -0.05615 0.07237 0.06613
v 0.04865 0.06988 0.04866
v -0.05365 0.06863 0.04866
v -0.001255 0.07986 0.04866
v 0.0549 0.074865 0.04866
v -0.05864 0.06488 0.05615
v 0.01372 0.06488 0.07112
v -0.05864 0.06488 0.06613
v 0.01372 0.07237 0.07112
v 0.05365 0.073615 0.06363
v -0.052405 0.07611 0.04991
v 0.01622 0.06488 0.06114
v 0.052405 0.07736 0.059895
f 3 4 5
f 3 5 6
f 7 8 9
f 10 8 11
f 5 12 1
f 8 7 13
f 5 4 12
f 9 2 7
f 8 10 9
f 10 2 9
f 1 14 5
f 14 6 5
f 6 11 3
f 1 12 2
f 14 1 10
f 3 13 7
f 4 3 7
f 4 7 12
f 7 2 12
f 13 3 8
f 3 11 8
f 6 14 11
f 14 10 11
f 2 10 1
