# Created by Open3D 
# object name: convex_0_coll
# number of vertices: 14
# number of triangles: 24
v -0.06862 -0.004985 0.05615
v 0.0704875 0.00811 0.05865
v -5.00027e-06 0.04492 0.07112
v -0.05489 0.04492 0.063635
v 0.06862 0.03992 0.06863
v 0.002485 -0.03993 0.068625
v 0.06862 -0.01621 0.06551
v -0.04118 -0.03493 0.06114
v 0.00623 0.04492 0.06114
v -0.06862 -0.02495 0.06114
v -0.00187 3.75002e-06 0.07611
v 0.0642525 -0.003735 0.07237
v -0.06363 -0.01996 0.07112
v -0.06737 0.008725 0.07112
f 2 6 8
f 4 3 9
f 8 10 1
f 6 7 12
f 2 8 1
f 9 3 5
f 2 9 5
f 6 2 7
f 13 11 14
f 4 1 14
f 12 3 11
f 11 13 6
f 10 8 13
f 4 14 3
f 3 14 11
f 14 1 10
f 13 14 10
f 2 5 12
f 3 12 5
f 1 4 9
f 2 1 9
f 12 7 2
f 11 6 12
f 6 13 8
