# Created by Open3D 
# object name: convex_2_coll
# number of vertices: 14
# number of triangles: 24
v 0.0262 0.04492 0.07112
v 0.0287 0.04492 0.06613
v 0.01621 0.06488 0.07112
v 0.013715 0.06488 0.06239
v -0.05865 0.06488 0.06613
v -0.05365 0.04492 0.06863
v 0.00624 0.04492 0.06114
v -0.03368 0.06488 0.05865
v -0.05615 0.04492 0.06114
v -0.0287 0.04492 0.07112
v -0.05865 0.06488 0.05865
v -0.05116 0.06488 0.06863
v -0.04117 0.04742 0.05865
v -0.05865 0.04742 0.06613
f 3 4 5
f 2 6 7
f 5 4 8
f 6 2 1
f 7 6 9
f 6 1 10
f 1 3 10
f 2 7 4
f 7 8 4
f 5 8 11
f 5 6 12
f 3 5 12
f 6 10 12
f 10 3 12
f 11 8 13
f 8 7 13
f 9 11 13
f 7 9 13
f 6 5 14
f 9 6 14
f 5 11 14
f 11 9 14
f 4 3 2
f 3 1 2
