# Created by Open3D 
# object name: convex_8_coll
# number of vertices: 12
# number of triangles: 20
v 0.05865 0.06738 -0.03368
v 0.05865 0.07237 -0.03368
v 0.06114 0.06988 -0.03868
v 0.06863 0.06738 -0.01124
v 0.06114 0.06738 -0.00874
v 0.06863 0.06738 -0.03618
v 0.06863 0.06988 -0.01124
v 0.06613 0.07237 -0.03368
v 0.06364 0.07487 -0.00375
v 0.05615 0.07237 -0.00125
v 0.05615 0.07487 -0.00125
v 0.05615 0.07487 -0.00874
f 1 2 3
f 1 4 5
f 4 1 6
f 7 4 6
f 8 7 6
f 4 7 9
f 7 8 9
f 1 5 10
f 5 4 10
f 9 11 10
f 4 9 10
f 8 2 12
f 2 1 12
f 11 9 12
f 9 8 12
f 1 10 12
f 10 11 12
f 6 1 3
f 8 6 3
f 2 8 3
