# Created by Open3D 
# object name: convex_11_coll
# number of vertices: 14
# number of triangles: 24
v -0.07362 0.05739 -0.0287
v -0.06613 0.06738 -0.0262
v -0.06364 0.00749 -0.0287
v -0.07611 0.00749 -0.0287
v -0.07611 0.00749 -0.00375
v -0.05865 0.06738 -0.0287
v -0.07112 0.00998 0.00624
v -0.06613 0.00749 0.00624
v -0.06364 0.04991 0.00124
v -0.07611 0.04741 -0.0262
v -0.07112 0.047415 -4.99998e-06
v -0.05865 0.06738 -0.01871
v -0.06364 0.00749 -0.01622
v -0.06863 0.05489 -0.00375
f 1 3 4
f 4 3 5
f 3 1 6
f 7 8 9
f 1 4 10
f 11 1 10
f 4 5 10
f 12 6 2
f 5 3 13
f 13 3 6
f 5 13 8
f 11 10 5
f 7 9 11
f 9 12 14
f 11 9 14
f 12 2 14
f 13 6 12
f 8 13 12
f 9 8 12
f 5 8 7
f 11 5 7
f 11 14 1
f 14 2 1
f 6 1 2
