# Created by Open3D 
# object name: convex_18_coll
# number of vertices: 14
# number of triangles: 24
v -0.05865 -0.04491 -0.0287
v -0.06114 -0.04741 -0.01871
v -0.07362 -0.04741 -0.0287
v -0.07611 -0.04242 -0.0287
v -0.06364 0.00748 -0.0287
v -0.07611 0.00748 -0.0287
v -0.07611 0.00748 -0.00374
v -0.05615 0.00249 0.003735
v -0.06925 -0.0006325 0.030565
v -0.05615 -0.01996 0.00623
v -0.06364 0.00748 0.00623
v -0.07237 -0.04741 -0.01996
v -0.07112 -0.00749 0.03119
v -0.07611 -0.00749 -0.00374
f 3 4 5
f 5 4 6
f 4 7 6
f 7 5 6
f 8 9 10
f 3 5 1
f 5 7 11
f 8 5 11
f 12 3 2
f 13 12 2
f 7 13 9
f 7 4 14
f 10 2 1
f 10 1 8
f 10 9 13
f 2 10 13
f 4 3 12
f 8 1 5
f 13 14 4
f 12 13 4
f 9 11 7
f 8 11 9
f 13 7 14
f 2 3 1
