# Created by Open3D 
# object name: convex_20_coll
# number of vertices: 14
# number of triangles: 24
v 0.02495 0.005615 0.0155975
v 0.04617 -0.006235 0.01373
v -0.00373 0.0025 0.01373
v -0.00498 -0.00873 0.01373
v 0.03867 0.01123 0.03743
v 0.04117 0.01248 0.03119
v 0.0130975 0.011855 0.0274525
v -0.00124 -0.01497 0.03119
v 0.04117 0.0025 0.03868
v -0.00623 -0.00748 0.03618
v -0.022455 4.99992e-06 0.03369
v -0.02495 -0.00374 0.0293225
v 0.00624 -0.013725 0.01747
v 0.04617 -0.00998 0.01747
f 3 2 4
f 5 6 7
f 8 9 10
f 10 9 5
f 10 11 12
f 1 3 7
f 3 12 7
f 7 12 11
f 4 2 13
f 10 12 8
f 6 5 9
f 2 6 9
f 14 2 9
f 11 5 7
f 10 5 11
f 6 2 1
f 4 13 12
f 13 8 12
f 12 3 4
f 14 8 13
f 1 7 6
f 13 2 14
f 8 14 9
f 2 3 1
