# Created by Open3D 
# object name: convex_14_coll
# number of vertices: 14
# number of triangles: 24
v 0.06364 0.04242 0.02121
v 0.069875 0.05365 -0.00499
v 0.06364 0.0549 -0.00624
v 0.05865 -0.02246 -0.00624
v 0.07112 -0.02246 -0.00499
v 0.06426 0.016845 0.038055
v 0.05865 -0.00248 0.03868
v 0.05865 0.01249 0.03369
v 0.064885 -0.00373 0.03868
v 0.064885 -0.02246 0.018715
v 0.05865 -0.02246 0.02121
v 0.07361 0.02994 -0.00624
v 0.069875 0.032435 0.023705
v 0.069875 0.008745 0.033685
f 1 2 3
f 4 3 5
f 4 7 8
f 6 7 9
f 10 4 5
f 9 10 5
f 7 4 11
f 4 10 11
f 5 3 12
f 8 3 4
f 12 2 13
f 1 6 13
f 8 7 6
f 1 8 6
f 13 14 12
f 6 9 14
f 9 5 14
f 13 6 14
f 1 13 2
f 7 11 9
f 9 11 10
f 12 3 2
f 12 14 5
f 8 1 3
