# Created by Open3D 
# object name: convex_15_coll
# number of vertices: 14
# number of triangles: 24
v 0.04616 -0.07735 -0.06114
v -0.03119 -0.06986 -0.07611
v 0.04616 -0.06986 -0.07611
v 0.01621 -0.00998 -0.06613
v 0.0212 -0.00998 -0.07362
v -0.03119 -0.00998 -0.07362
v -0.03119 -0.0499 -0.06114
v -0.03119 -0.07735 -0.06114
v 0.04616 -0.02995 -0.07362
v -0.03119 -0.00998 -0.06613
v -0.02869 -0.03245 -0.07611
v -0.00124 -0.03744 -0.06114
v 0.04616 -0.029955 -0.06738
v 0.04616 -0.06238 -0.06114
f 1 2 3
f 4 5 6
f 2 7 6
f 7 2 8
f 1 7 8
f 1 3 9
f 4 6 10
f 6 7 10
f 3 2 11
f 7 1 12
f 4 10 12
f 1 9 13
f 11 6 5
f 12 1 14
f 1 13 14
f 13 4 14
f 5 9 3
f 11 5 3
f 2 6 11
f 2 1 8
f 5 4 13
f 9 5 13
f 10 7 12
f 4 12 14
