# Created by Open3D 
# object name: convex_7_coll
# number of vertices: 14
# number of triangles: 24
v 0.02371 0.07736 0.00124
v 0.03868 0.07736 -0.0262
v 0.05615 0.07237 0.00124
v 0.01872 0.07487 0.00124
v 0.02621 0.06988 0.00124
v 0.032445 0.06988 -0.03619
v 0.04866 0.06988 -0.00874
v 0.0312 0.07487 -0.03619
v 0.05365 0.07736 -0.01124
v 0.05365 0.07237 -0.01871
v 0.04367 0.07487 -0.03119
v 0.05365 0.07736 0.00124
v 0.01872 0.07237 -0.00126
v 0.04616 0.06988 0.00124
f 3 4 5
f 5 6 7
f 8 4 1
f 4 3 1
f 9 3 10
f 1 9 2
f 9 10 11
f 8 2 11
f 2 9 11
f 7 10 3
f 3 9 12
f 1 3 12
f 9 1 12
f 8 6 13
f 4 8 13
f 5 4 13
f 6 5 13
f 5 7 14
f 3 5 14
f 7 3 14
f 10 7 6
f 8 11 6
f 11 10 6
f 8 1 2
