# Created by Open3D 
# object name: convex_5_coll
# number of vertices: 14
# number of triangles: 24
v -0.038675 0.07362 0.01498
v -0.04118 0.07736 0.01872
v -0.05365 0.07487 0.04865
v 0.05615 0.07237 0.04865
v 0.01122 0.07986 0.04865
v 0.0187 0.07736 0.00125
v 0.05115 0.07736 0.00125
v -0.05365 0.06988 0.04865
v 0.05115 0.07736 0.04865
v 0.05363 0.07237 0.00125
v 0.02619 0.06738 0.03618
v -0.04118 0.06738 0.033685
v 0.02121 0.06988 0.00125
v -0.02869 0.07986 0.03119
f 3 4 5
f 4 3 8
f 5 4 9
f 6 7 10
f 4 11 10
f 4 8 11
f 6 10 13
f 7 6 14
f 1 12 8
f 11 12 13
f 10 11 13
f 7 9 4
f 10 7 4
f 11 8 12
f 2 1 8
f 3 14 2
f 8 3 2
f 6 13 1
f 13 12 1
f 9 7 5
f 7 14 5
f 3 5 14
f 14 6 2
f 6 1 2
