# Created by Open3D 
# object name: convex_13_coll
# number of vertices: 14
# number of triangles: 24
v 0.05615 -0.02246 -0.00374
v 0.04617 -0.00125 0.00749
v 0.05615 -0.0025 0.00125
v 0.05864 0.00249 0.00624
v 0.05864 0.00748 0.03119
v 0.05864 -0.02246 0.01871
v 0.05864 -0 0.03868
v 0.04617 -0.0025 0.02869
v 0.04617 -0.00998 0.013725
v 0.05116 0.00499 0.03868
v 0.05864 -0.02246 -0.00374
v 0.05615 0.00748 0.0237
v 0.05365 -0 0.03868
v 0.04617 0.00249 0.02869
f 1 2 3
f 4 5 6
f 6 5 7
f 8 2 9
f 7 5 10
f 4 6 11
f 9 1 6
f 8 9 6
f 5 4 12
f 4 2 12
f 10 5 12
f 10 8 13
f 7 10 13
f 6 7 13
f 8 6 13
f 2 8 14
f 8 10 14
f 12 2 14
f 10 12 14
f 1 9 2
f 6 1 11
f 2 4 3
f 11 1 3
f 4 11 3
