# Created by Open3D 
# object name: convex_17_coll
# number of vertices: 14
# number of triangles: 24
v -0.05865 -0.07736 -0.01872
v -0.05865 -0.07486 -0.00374
v -0.06863 -0.07237 -0.0287
v -0.06114 -0.04742 -0.0287
v -0.05615 -0.07736 -0.0287
v -0.05615 -0.06987 -0.00374
v -0.06364 -0.04742 -0.01872
v -0.07362 -0.04742 -0.0287
v -0.05615 -0.05989 -0.0287
v -0.07112 -0.06488 -0.02371
v -0.07112 -0.04742 -0.01872
v -0.06114 -0.04742 -0.02121
v -0.05615 -0.07486 -0.00374
v -0.05615 -0.05989 -0.02121
f 1 2 3
f 3 4 5
f 4 8 7
f 6 5 9
f 5 4 9
f 4 3 8
f 3 2 10
f 8 3 10
f 6 7 11
f 7 8 11
f 8 10 11
f 7 6 12
f 4 7 12
f 9 4 12
f 11 10 2
f 6 11 2
f 2 1 13
f 5 6 13
f 6 2 13
f 1 5 13
f 6 9 14
f 12 6 14
f 9 12 14
f 5 1 3
