# Created by Open3D 
# object name: convex_12_coll
# number of vertices: 14
# number of triangles: 24
v -0.05615 -0.07736 -0.0287
v 0.00124 -0.07985 -0.0287
v -0.05615 -0.06239 -0.0287
v 0.00374 -0.07237 -0.0287
v 0.00624 -0.07985 -0.00624
v -0.04117 -0.07985 0.00374
v -0.00375 -0.06988 -0.0262
v -0.05115 -0.07237 0.00374
v -0.0549 -0.074865 -4.99998e-06
v -0.00375 -0.07237 -0.00125
v -0.001255 -0.078605 -4.99998e-06
v 0.00624 -0.07486 -0.00375
v -0.05615 -0.06239 -0.01871
v -0.051155 -0.06738 -0.00375
f 1 3 4
f 1 4 2
f 2 5 6
f 4 3 7
f 9 6 8
f 10 8 11
f 8 6 11
f 10 11 12
f 13 1 9
f 7 3 13
f 1 13 3
f 6 5 11
f 5 12 11
f 1 2 6
f 9 1 6
f 10 13 14
f 8 10 14
f 2 4 5
f 4 12 5
f 12 4 7
f 10 12 7
f 13 10 7
f 14 13 9
f 8 14 9
