# Created by Open3D 
# object name: convex_23_coll
# number of vertices: 14
# number of triangles: 24
v -0.01123 0.02745 -0.05365
v 0.00374 0.01497 -0.05365
v -0.01372 0.0262 -0.04367
v -0.01372 0.02495 -0.05116
v -0.00125 -0.00998 -0.04866
v -0.00125 -0.00748 -0.04118
v 0.00374 -0.00998 -0.04367
v 0.00374 0.02745 -0.04367
v 0.00624 0.02745 -0.05116
v 0.00374 0.00499 -0.04118
v 0.00374 -0.00998 -0.04866
v 0.00624 0.01248 -0.04617
v 0.00374 0.02745 -0.05365
v 0.00624 0.01248 -0.05116
f 3 4 5
f 3 5 6
f 5 7 6
f 8 9 1
f 5 4 1
f 6 7 10
f 7 5 11
f 5 2 11
f 9 8 12
f 10 7 12
f 8 10 12
f 7 11 12
f 1 4 3
f 8 1 3
f 10 8 3
f 6 10 3
f 9 2 13
f 1 9 13
f 2 1 13
f 2 9 14
f 11 2 14
f 9 12 14
f 12 11 14
f 5 1 2
