# Created by Open3D 
# object name: convex_22_coll
# number of vertices: 14
# number of triangles: 24
v 0.04491 -0.042415 -0.056145
v -0.03119 -0.05989 -0.06114
v -0.03119 -0.05989 -0.04118
v -0.03119 -0.048655 -0.04243
v 0.04116 -0.05989 -0.05365
v 0.00625 -0.00998 -0.04867
v -0.00124 -0.00998 -0.04867
v 0.00126 -0.03742 -0.06114
v 0.042415 -0.05739 -0.04617
v 0.001255 -0.00998 -0.04118
v 0.00872 -0.05739 -0.06114
v 0.04616 -0.043665 -0.04742
v -0.03119 -0.04741 -0.05116
v 0.0018775 -0.02932 -0.03868
f 2 3 4
f 3 2 5
f 6 8 7
f 3 5 9
f 6 7 10
f 7 4 10
f 2 8 11
f 5 2 11
f 12 9 1
f 2 4 13
f 4 7 13
f 7 8 2
f 13 7 2
f 3 14 4
f 1 6 12
f 14 12 10
f 12 6 10
f 10 4 14
f 6 1 8
f 12 14 9
f 3 9 14
f 1 9 5
f 1 5 11
f 8 1 11
