# Created by Open3D 
# object name: convex_5_coll
# number of vertices: 14
# number of triangles: 24
v 0 0.00312 0.01867
v -0.02074 0.01141 0.035255
v 0.00208 -0.00726 0.01867
v 0.021765 -0.00726 0.036295
v -0.02904 -0.00726 0.03318
v 0.04355 0.00726 0.01867
v 0.04355 -0.00519 0.01867
v 0.04355 -0.001035 0.028005
v -0.026965 0.00312 0.04044
v 0.00623 0.0197 0.02697
v 0.01245 0.0197 0.03318
v 0.03525 0.01555 0.026965
v 0.021775 0.012445 0.04356
v 0.02281 0.00104 0.04356
f 3 4 5
f 3 6 7
f 7 6 8
f 6 3 1
f 1 5 2
f 11 13 12
f 4 3 7
f 8 4 7
f 2 9 13
f 11 2 13
f 14 8 13
f 8 12 13
f 1 10 6
f 12 6 10
f 5 1 3
f 4 8 14
f 5 4 14
f 5 14 9
f 12 8 6
f 12 10 11
f 9 14 13
f 9 2 5
f 2 11 10
f 10 1 2
