# Created by Open3D 
# object name: convex_0_coll
# number of vertices: 14
# number of triangles: 24
v 0.0616975 0.04407 -0.0015675
v 0.06636 0.015545 0.011405
v 0.04978 -0.03836 -0.03525
v 0.046665 -0.0253975 0.0067375
v 0.04355 0.00518 0.02904
v 0.04563 0.01762 -0.03111
v 0.06429 0.0098425 -0.039405
v 0.05599 0.04667 -0.03111
v 0.06222 0.01762 0.02696
v 0.06118 -0.00414 0.028
v 0.05703 -0.039395 -0.03629
v 0.05599 0.003105 -0.04356
v 0.0585862 -0.0406913 0.00569625
v 0.05496 -0.03317 0.017625
f 6 4 5
f 2 7 1
f 1 7 8
f 10 2 9
f 3 4 6
f 1 5 9
f 7 12 8
f 11 3 12
f 7 11 12
f 5 8 6
f 9 2 1
f 11 13 3
f 3 6 12
f 14 4 13
f 5 4 14
f 10 5 14
f 12 6 8
f 5 1 8
f 10 9 5
f 2 13 7
f 13 11 7
f 2 10 13
f 10 14 13
f 3 13 4
