# Created by Open3D 
# object name: convex_4_coll
# number of vertices: 14
# number of triangles: 24
v 0.005695 -0.0083 0.02282
v 0.02281 -0.02592 0.02696
v 0.0114 -0.02696 0.028
v 0.02903 -0.00726 0.03111
v 0.02799 -0.0083 0.025925
v -0.00207 -0.00726 0.03941
v -0.02697 -0.00726 0.03319
v -0.02073 -0.00726 0.03941
v 0.02281 -0.00726 0.03526
v -0.02697 -0.01556 0.03733
v -0.02282 -0.02592 0.03319
v -0.02073 -0.02592 0.03733
v 0.02125 -0.0264425 0.03215
v 0.0264325 -0.0207375 0.029035
f 1 2 3
f 4 5 1
f 4 1 6
f 6 1 7
f 6 7 8
f 4 6 9
f 10 11 12
f 3 11 1
f 10 7 11
f 7 1 11
f 5 4 14
f 2 13 3
f 12 11 3
f 13 12 3
f 2 5 14
f 12 8 10
f 8 7 10
f 12 6 8
f 5 2 1
f 13 14 4
f 6 12 13
f 6 13 9
f 13 4 9
f 13 2 14
