# Created by Open3D 
# object name: convex_2_coll
# number of vertices: 14
# number of triangles: 24
v 0.01037 0.014515 -0.021775
v 0.00415 0.01762 -0.02281
v 0.00415 -0.032145 -0.0197
v 0.00415 -0.03422 -0.0083
v 0.02073 -0.03422 0
v 0.02488 -0.03422 0
v 0.00415 0.00103 -0.00622
v 0.02696 -0.027995 -0.008295
v 0.02281 -0.00519 -0.0083
v 0.014515 -0.031105 -0.0197
v 0.02488 -0.03422 -0.01452
v 0.02281 0.00103 -0.01866
v 0.005185 0.009325 -0.009335
v 0.015555 0.010365 -0.01244
f 2 3 4
f 5 6 7
f 2 4 7
f 6 8 9
f 2 1 10
f 6 11 8
f 2 10 3
f 10 12 11
f 4 5 7
f 4 11 6
f 5 4 6
f 9 8 12
f 13 6 9
f 14 13 9
f 11 3 10
f 14 1 2
f 13 14 2
f 3 11 4
f 1 12 10
f 2 7 13
f 9 12 14
f 12 1 14
f 6 13 7
f 12 8 11
