# Created by Open3D 
# object name: convex_3_coll
# number of vertices: 14
# number of triangles: 24
v -0.025925 -0.0316125 0.0129625
v 0.02902 -0.02798 0.01659
v -0.04976 0.05081 0.00415
v -0.003125 0.04977 0.00726
v -0.00208 0.05081 0.00208
v 0.04353 0.00932 0.01867
v -0.00624 0.00932 0.01867
v 0.04353 0.0108775 0.0077775
v -0.06636 -0.00103 0.01037
v 0.04353 -0.010365 0.00726
v -0.06117 -0.026945 0.01037
v -0.03525 -0.04044 0.005185
v 0.0228 -0.03421 0
v -0.036285 -0.03006 0.00208
f 3 4 5
f 8 6 10
f 1 7 11
f 11 12 1
f 14 13 12
f 11 14 12
f 13 8 10
f 6 7 2
f 7 1 2
f 14 9 3
f 8 13 5
f 3 7 4
f 13 2 12
f 9 14 11
f 3 9 7
f 5 13 3
f 1 12 2
f 6 4 7
f 3 13 14
f 2 10 6
f 7 9 11
f 8 4 6
f 8 5 4
f 10 2 13
