# Created by Open3D 
# object name: convex_1_coll
# number of vertices: 14
# number of triangles: 24
v -0.00208 0.04874 -0.02281
v -0.0088275 0.051845 -0.0171075
v 0.00413 -0.03214 -0.00622
v 0.00413 -0.03317 -0.01711
v 0.00413 0.00518 -0.00622
v -0.056 -0.02592 -0.01452
v -0.029035 -0.0477 -0.0197
v -0.023335 -0.05237 -0.0150375
v 0.00206 0.01295 -0.02385
v -0.0041575 0.04769 -0.008295
v -0.02334 -0.0321375 -0.005705
v -0.032145 0.0077675 -0.005185
v -0.02593 0.03421 -0.02281
v -0.05185 0.03007 -0.01245
f 3 4 5
f 5 4 9
f 6 7 8
f 11 3 12
f 7 6 13
f 13 6 14
f 7 13 9
f 2 10 1
f 12 6 11
f 4 8 7
f 3 8 4
f 6 12 14
f 10 5 9
f 1 10 9
f 4 7 9
f 11 8 3
f 10 3 5
f 1 13 14
f 2 1 14
f 10 2 14
f 11 6 8
f 13 1 9
f 12 10 14
f 3 10 12
