# Created by Open3D 
# object name: convex_2_coll
# number of vertices: 14
# number of triangles: 24
v 0.026435 -0.02763 0.02163
v -0.010805 -0.02163 0.04207
v -0.04567 -0.02403 -0.03967
v -0.03365 0.02643 -0.04207
v -7.4999e-06 -0.0345488 -0.0378575
v 0.02103 0.007805 0.04207
v -0.01682 0.0048 0.04207
v 0.0084 0.037255 -0.032455
v 0.05289 0.02404 -0.03245
v -0.05529 -0.032445 0.00239
v -0.05529 0.03365 -0.00119
v 0.05289 -0.03004 -0.03125
v -0.0018075 0.0330475 0.02103
v 0.05047 -0.0048 0.00119
f 3 4 5
f 2 6 7
f 8 9 4
f 10 11 3
f 5 12 10
f 12 2 10
f 8 13 6
f 8 6 9
f 5 4 9
f 7 13 11
f 5 9 12
f 2 12 1
f 13 7 6
f 14 6 1
f 12 14 1
f 3 5 10
f 3 11 4
f 11 8 4
f 10 7 11
f 9 6 14
f 12 9 14
f 7 10 2
f 8 11 13
f 1 6 2
