# Created by Open3D 
# object name: convex_1_coll
# number of vertices: 14
# number of triangles: 24
v -0.070315 0.04267 -0.0042075
v -0.074525 0.032445 0.0012
v -0.05529 -0.03365 -0.02764
v -0.0558912 0.0336487 -0.004205
v -0.05529 -0.03365 0.0012
v -0.05529 0.01922 0.0036
v -0.06251 0.04207 -0.038465
v -0.06611 -0.03365 -0.03967
v -0.07212 0.040865 -0.038465
v -0.06851 -0.02523 0.01082
v -0.0761775 -0.0337994 -0.0174256
v -0.07693 0.039665 -0.018025
v -0.069115 -0.0396663 -0.0036075
v -0.06251 -0.04327 -0.03245
f 3 4 5
f 5 4 6
f 7 8 9
f 11 2 12
f 9 1 7
f 6 10 5
f 5 14 3
f 10 6 2
f 6 4 2
f 5 13 14
f 7 3 8
f 13 11 14
f 4 1 2
f 11 12 9
f 8 11 9
f 10 13 5
f 1 9 12
f 2 1 12
f 8 3 14
f 11 8 14
f 10 2 11
f 4 7 1
f 7 4 3
f 10 11 13
