# Created by Open3D 
# object name: convex_0_coll
# number of vertices: 14
# number of triangles: 24
v 0.07212 0.04327 -0.02524
v 0.075725 0.02643 -0.025235
v 0.05289 0.02403 -0.03245
v 0.05289 -0.03365 -0.02644
v 0.0577 -0.036055 -0.00361
v 0.0577 0.01441 0.002405
v 0.074525 0.01802 0
v 0.07332 -0.039665 -0.024035
v 0.072115 -0.0348525 -0.0018075
v 0.06491 -0.04267 -0.01202
v 0.0577 -0.03606 -0.03966
v 0.06971 0.016825 -0.038455
v 0.06851 -0.039665 -0.037255
v 0.06731 0.04327 -0.00601
f 4 5 6
f 9 10 8
f 11 12 13
f 12 2 13
f 1 2 12
f 1 3 14
f 2 14 7
f 7 14 6
f 6 5 9
f 12 3 1
f 3 6 14
f 9 5 10
f 4 3 11
f 9 8 7
f 8 2 7
f 14 2 1
f 8 10 13
f 10 11 13
f 9 7 6
f 10 5 4
f 8 13 2
f 11 3 12
f 10 4 11
f 6 3 4
