# Original object name hint: convex_1
v -0.01065 -0.02394 -0.07983
v -0.00000 0.03193 -0.07185
v 0.00798 0.02927 -0.06919
v -0.05855 -0.01862 -0.06387
v 0.01064 -0.02394 -0.05588
v -0.05855 0.02394 -0.06387
v 0.03726 -0.01064 -0.07717
v -0.01330 0.01862 -0.08516
v 0.01331 0.02394 -0.05588
v 0.03726 0.01862 -0.07717
v -0.05588 -0.01330 -0.07185
v 0.03459 -0.02394 -0.06919
v 0.00798 -0.01596 -0.08516
v -0.00533 -0.03193 -0.07451
v -0.00799 0.02660 -0.05588
v -0.04524 0.02927 -0.07451
v 0.00265 0.02394 -0.08516
v -0.01596 -0.00531 -0.08516
v 0.03459 0.01596 -0.06653
v -0.05588 -0.02394 -0.06919
v 0.02394 -0.02926 -0.07451
v -0.00000 -0.02394 -0.05588
v -0.00267 -0.03193 -0.06653
v 0.01862 0.00531 -0.05588
v -0.05056 0.02128 -0.07451
v -0.01330 0.01596 -0.05588
v -0.02394 0.03193 -0.06653
v 0.01331 0.01330 -0.08516
v -0.05588 -0.02394 -0.06387
v -0.00000 0.03193 -0.07717
v 0.03459 0.02128 -0.06919
v -0.05855 0.02394 -0.06919
v 0.03193 -0.02394 -0.07717
v 0.03726 -0.01064 -0.06919
v 0.02129 -0.02926 -0.06653
v 0.01331 -0.02661 -0.07983
v -0.02394 0.03193 -0.07717
v -0.01330 -0.01064 -0.08516
v 0.03193 -0.00798 -0.07983
v -0.04789 0.02927 -0.06653
v 0.00531 0.02660 -0.05588
v 0.03459 0.02128 -0.07717
v -0.00799 0.02394 -0.08516
v 0.01331 -0.01064 -0.08516
v -0.04789 -0.02394 -0.07185
v 0.01862 0.01862 -0.05588
v 0.03726 0.01862 -0.06919
v -0.05855 -0.01862 -0.06919
v 0.03193 -0.02128 -0.06653
v -0.00267 -0.02661 -0.07983
v 0.00798 -0.03193 -0.07451
v -0.00533 0.03193 -0.06653
v -0.01596 0.01330 -0.08516
v 0.00798 0.02660 -0.08249
v 0.03193 0.01330 -0.07983
v -0.00267 -0.01596 -0.08516
v 0.00531 -0.03193 -0.06653
v -0.05588 0.02394 -0.07185
v 0.03193 -0.02661 -0.06919
v 0.00798 0.02128 -0.08516
v -0.05322 0.02660 -0.06387
v -0.00267 -0.01862 -0.05588
v -0.05056 0.01330 -0.07451
v 0.03459 -0.02394 -0.07451
v 0.02394 0.00266 -0.04524
v -0.03193 0.01862 -0.01597
v -0.03193 0.01862 -0.01331
v -0.01330 -0.02926 -0.01864
v 0.01596 0.01862 0.00000
v -0.01064 0.02660 -0.05588
v -0.00266 -0.02128 -0.05588
v 0.01064 -0.02660 -0.00532
v -0.01596 -0.01330 0.00000
v 0.01862 0.02128 -0.05588
v 0.02394 -0.02128 -0.04257
v -0.01064 0.02660 0.00000
v -0.02661 -0.01862 -0.01864
v 0.02661 0.01596 -0.01331
v 0.00798 0.02927 -0.03193
v -0.00266 -0.03193 -0.04524
v -0.02394 0.02927 -0.01597
v -0.02128 0.01596 -0.04257
v 0.01064 -0.02394 -0.05588
v 0.02394 -0.01330 -0.01597
v 0.01330 -0.01596 0.00000
v -0.01064 -0.02926 -0.00532
v 0.00798 -0.03193 -0.03725
v -0.01596 -0.02128 -0.03992
v 0.00532 0.02660 0.00000
v -0.01330 0.01596 -0.05588
v 0.00266 0.02927 -0.05056
v -0.01862 0.01862 0.00000
v -0.02394 -0.02128 -0.01065
v -0.02128 0.02660 -0.03992
v 0.02394 0.01862 -0.04524
v 0.02128 0.02128 -0.01331
v 0.02661 0.00266 -0.01331
v 0.01862 0.00266 -0.05588
v -0.00798 -0.02394 0.00000
v 0.01862 -0.02660 -0.04524
v 0.01862 0.02394 -0.04524
v -0.00000 0.02927 -0.01065
v 0.00532 -0.02926 -0.00532
v -0.01596 0.02927 -0.04257
v -0.03193 0.02128 -0.01331
v 0.00798 -0.02660 -0.05588
v -0.01862 -0.02660 -0.01864
v -0.02394 0.01596 -0.03725
v 0.02661 0.00266 -0.01864
v 0.02128 0.00798 -0.05322
v -0.01862 0.00266 0.00000
v -0.01064 -0.02660 -0.04257
v 0.00532 -0.02394 0.00000
v 0.01330 0.02660 -0.02129
v 0.00532 -0.03193 -0.04524
v 0.02128 -0.02394 -0.03725
v -0.02128 0.02394 -0.04257
v 0.00798 -0.02926 -0.00799
v -0.02661 -0.01862 -0.01331
v 0.00532 0.02660 -0.05588
v 0.00532 0.02927 -0.01597
v -0.00000 -0.03193 -0.03459
v 0.00798 0.02927 -0.04257
v 0.02128 -0.02394 -0.04524
v 0.00266 -0.02660 -0.05588
v -0.03193 0.02128 -0.01597
v -0.02394 0.02660 -0.01065
v -0.01862 -0.02660 -0.01065
v 0.02128 -0.02128 0.00266
v 0.00265 0.02661 0.00799
v 0.00265 0.02661 0.00000
v -0.04789 -0.02128 0.00799
v 0.01862 -0.01064 0.01863
v -0.02660 0.02128 0.01331
v 0.03192 0.01330 0.01331
v -0.00798 -0.02927 0.00000
v -0.04523 0.01597 0.00532
v -0.00798 -0.02128 0.01863
v 0.01596 0.02395 0.01863
v 0.02394 0.01330 0.00000
v 0.03726 -0.00798 0.01331
v 0.00265 -0.02927 0.01064
v -0.02128 -0.01863 0.00000
v -0.01064 0.00532 0.01863
v 0.03192 0.01597 0.00532
v -0.01595 0.02395 0.00000
v 0.02394 -0.02128 0.01331
v -0.04789 -0.02128 0.00532
v 0.00532 -0.02927 0.00000
v -0.01330 -0.02927 0.01064
v 0.02926 -0.00266 0.00266
v -0.02394 -0.00000 0.01597
v -0.04523 0.01597 0.00799
v -0.00001 0.02395 0.01863
v -0.02394 0.02395 0.01064
v -0.02128 0.01862 0.00000
v 0.00798 -0.02128 0.01863
v 0.02128 -0.01064 0.00000
v 0.01329 0.02395 0.00000
v 0.03726 0.00532 0.01331
v 0.03726 -0.00798 0.01064
v -0.02394 -0.01596 0.01597
v 0.02128 -0.02394 0.00532
v -0.02128 0.01597 0.01597
v -0.00798 0.02661 0.00799
v -0.01595 -0.02927 0.00532
v 0.01862 0.02128 0.01863
v -0.02394 0.02395 0.00532
v -0.02128 -0.02128 0.01597
v 0.02660 -0.01330 0.00266
v -0.00798 0.02661 0.00000
v 0.01862 -0.02394 0.01331
v 0.03192 0.01597 0.01064
v -0.01595 -0.02661 0.01331
v 0.02128 0.02128 0.00266
v 0.01596 -0.02128 0.00000
v 0.03726 0.00532 0.01064
v 0.02128 -0.02394 0.01064
v -0.04789 -0.01596 0.00799
v -0.01064 -0.01863 0.01863
v 0.01862 0.02128 0.00000
v 0.02660 -0.01863 0.00532
v 0.02926 0.01330 0.00266
v 0.00532 -0.02927 0.00799
v -0.04789 -0.01596 0.00532
v -0.02926 0.01862 0.01331
v -0.01330 -0.02661 0.00000
v 0.01063 -0.02394 0.01597
v 0.00001 -0.02395 0.02396
v 0.02660 0.02661 0.04790
v 0.03458 0.02394 0.04790
v 0.01596 0.02394 0.01863
v -0.02661 0.01862 0.03991
v -0.01330 -0.01862 0.04790
v 0.03193 -0.01862 0.02662
v 0.03458 -0.00798 0.04790
v 0.04524 0.01596 0.02396
v -0.00798 -0.01862 0.01863
v -0.01330 0.02394 0.02662
v 0.01596 -0.02128 0.01863
v -0.01862 0.01596 0.04790
v -0.01862 -0.01862 0.03194
v 0.02128 -0.02395 0.02928
v 0.04524 0.01064 0.03991
v 0.00001 0.02394 0.01863
v -0.02394 0.02128 0.03194
v -0.00265 0.02661 0.03726
v -0.01862 -0.01596 0.04790
v 0.04257 0.01862 0.04790
v 0.00001 -0.01862 0.04790
v 0.01064 0.02661 0.04790
v -0.02661 0.01330 0.03460
v -0.00798 0.00265 0.01863
v 0.03724 -0.01064 0.02662
v 0.03458 0.02394 0.03726
v 0.01330 0.02661 0.02662
v 0.02926 -0.02128 0.03194
v -0.00265 -0.02395 0.03194
v 0.02128 -0.01330 0.01863
v 0.02926 -0.02128 0.02396
v 0.04524 0.01064 0.02396
v 0.03991 -0.00532 0.03726
v -0.01596 -0.02128 0.03194
v 0.03991 0.00001 0.04790
v 0.02128 0.02128 0.01863
v -0.00532 0.02661 0.02928
v -0.01596 0.02394 0.03726
v 0.02128 -0.01330 0.04790
v -0.01596 0.01862 0.04790
v 0.01330 -0.02395 0.02129
v -0.00532 -0.02128 0.01863
v 0.04257 0.01862 0.02662
v -0.02128 0.01862 0.02928
v -0.01596 -0.02128 0.03726
v -0.02661 0.01330 0.03991
v -0.02394 0.00798 0.03194
v 0.03724 -0.01064 0.03460
v 0.03991 0.02128 0.03460
v 0.04524 0.01596 0.03991
v 0.01330 -0.02395 0.03194
v 0.03724 -0.00532 0.04790
v 0.04257 0.01064 0.04790
v -0.01862 -0.01862 0.03726
v 0.02394 0.02661 0.03991
v 0.02128 -0.02395 0.02396
v 0.02660 -0.01596 0.02129
v 0.03724 0.02128 0.02928
v 0.03991 -0.00532 0.02928
v 0.02926 -0.01064 0.04790
v -0.02394 0.02128 0.03726
v 0.03991 0.02128 0.04790
v 0.03193 -0.01862 0.03194
v -0.01862 -0.01862 0.04791
v 0.01063 0.03193 0.07185
v 0.01063 0.02926 0.07717
v 0.05855 -0.00266 0.06919
v -0.03990 -0.02394 0.07185
v -0.01862 0.01862 0.04791
v 0.03991 0.02128 0.04791
v -0.04257 0.01596 0.06919
v -0.00265 -0.00798 0.08516
v 0.01595 -0.02927 0.07185
v 0.02926 -0.01064 0.04791
v 0.05855 0.01596 0.07185
v -0.04788 -0.01862 0.06387
v -0.00265 0.01064 0.08516
v 0.05587 -0.00266 0.07451
v -0.03458 0.02394 0.07185
v 0.01063 0.02660 0.04791
v 0.03991 -0.02128 0.07185
v -0.04522 0.00266 0.07185
v 0.01595 -0.02927 0.06653
v 0.03991 0.02660 0.06387
v -0.03192 0.01330 0.05323
v -0.02660 0.02660 0.06387
v -0.04522 -0.02394 0.06387
v -0.00265 -0.02128 0.04791
v 0.00797 0.00798 0.08516
v 0.00001 -0.02927 0.07451
v 0.03991 0.00000 0.04791
v 0.04256 0.02394 0.07451
v 0.03991 -0.02128 0.06653
v 0.00533 -0.00798 0.08516
v -0.01596 0.02660 0.07717
v -0.02394 -0.00798 0.04791
v -0.00798 -0.02927 0.06653
v 0.02660 0.02660 0.04791
v 0.03458 -0.02128 0.07451
v -0.04522 -0.01862 0.07185
v 0.00267 0.03193 0.06653
v 0.05587 0.01330 0.07451
v -0.04257 0.01330 0.06387
v -0.00531 0.00798 0.08516
v -0.03192 0.02128 0.07451
v 0.03724 0.02128 0.07717
v 0.05855 0.01596 0.06919
v 0.00001 0.03193 0.07185
v 0.01330 -0.02394 0.07717
v -0.01063 -0.02394 0.07717
v 0.00533 0.01862 0.08249
v -0.03458 0.02394 0.06653
v 0.00797 -0.01862 0.04791
v -0.03192 -0.01862 0.05323
v -0.04788 -0.01064 0.06387
v 0.03991 0.02660 0.07185
v -0.04788 -0.02128 0.06919
v -0.00798 -0.02128 0.04791
v -0.02394 0.01330 0.04791
v 0.01063 0.03193 0.06653
v 0.03991 -0.01862 0.07451
v -0.03724 0.01064 0.07451
v -0.00531 -0.00532 0.08516
v -0.02394 0.01862 0.05057
v -0.00798 0.02394 0.07983
v -0.00798 -0.02927 0.07185
v -0.04257 0.01330 0.07185
f 93 119 128 
f 71 70 74 
f 73 69 76 
f 67 66 77 
f 71 74 83 
f 69 73 85 
f 72 84 85 
f 68 80 86 
f 76 69 89 
f 70 71 90 
f 71 88 90 
f 88 82 90 
f 81 79 91 
f 73 76 92 
f 69 78 96 
f 89 69 96 
f 78 95 96 
f 78 69 97 
f 84 75 97 
f 85 84 97 
f 69 85 97 
f 83 74 98 
f 85 73 99 
f 73 93 99 
f 93 86 99 
f 95 74 101 
f 96 95 101 
f 81 76 102 
f 79 81 102 
f 76 89 102 
f 99 86 103 
f 91 70 104 
f 81 91 104 
f 94 81 104 
f 70 94 104 
f 66 67 105 
f 67 92 105 
f 71 83 106 
f 80 68 107 
f 77 66 108 
f 88 77 108 
f 82 88 108 
f 75 65 109 
f 65 95 109 
f 95 78 109 
f 97 75 109 
f 78 97 109 
f 65 75 110 
f 95 65 110 
f 74 95 110 
f 98 74 110 
f 75 98 110 
f 92 67 111 
f 73 92 111 
f 93 73 111 
f 71 80 112 
f 88 71 112 
f 77 88 112 
f 80 107 112 
f 107 77 112 
f 72 85 113 
f 85 99 113 
f 103 72 113 
f 99 103 113 
f 89 96 114 
f 101 79 114 
f 96 101 114 
f 87 80 115 
f 100 87 115 
f 80 106 115 
f 106 100 115 
f 84 72 116 
f 75 84 116 
f 70 90 117 
f 90 82 117 
f 94 70 117 
f 82 108 117 
f 87 100 118 
f 72 103 118 
f 103 87 118 
f 116 72 118 
f 100 116 118 
f 67 77 119 
f 77 107 119 
f 111 67 119 
f 93 111 119 
f 74 70 120 
f 70 91 120 
f 91 74 120 
f 79 102 121 
f 102 89 121 
f 114 79 121 
f 89 114 121 
f 86 80 122 
f 80 87 122 
f 103 86 122 
f 87 103 122 
f 74 91 123 
f 91 79 123 
f 101 74 123 
f 79 101 123 
f 98 75 124 
f 83 98 124 
f 106 83 124 
f 100 106 124 
f 75 116 124 
f 116 100 124 
f 80 71 125 
f 71 106 125 
f 106 80 125 
f 81 94 126 
f 66 105 126 
f 105 81 126 
f 108 66 126 
f 94 117 126 
f 117 108 126 
f 76 81 127 
f 92 76 127 
f 81 105 127 
f 105 92 127 
f 68 86 128 
f 86 93 128 
f 107 68 128 
f 119 107 128 
