# Original object name hint: convex_0
v -0.01065 -0.02394 -0.07983
v -0.00000 0.03193 -0.07185
v 0.00798 0.02927 -0.06919
v -0.05855 -0.01862 -0.06387
v 0.01064 -0.02394 -0.05588
v -0.05855 0.02394 -0.06387
v 0.03726 -0.01064 -0.07717
v -0.01330 0.01862 -0.08516
v 0.01331 0.02394 -0.05588
v 0.03726 0.01862 -0.07717
v -0.05588 -0.01330 -0.07185
v 0.03459 -0.02394 -0.06919
v 0.00798 -0.01596 -0.08516
v -0.00533 -0.03193 -0.07451
v -0.00799 0.02660 -0.05588
v -0.04524 0.02927 -0.07451
v 0.00265 0.02394 -0.08516
v -0.01596 -0.00531 -0.08516
v 0.03459 0.01596 -0.06653
v -0.05588 -0.02394 -0.06919
v 0.02394 -0.02926 -0.07451
v -0.00000 -0.02394 -0.05588
v -0.00267 -0.03193 -0.06653
v 0.01862 0.00531 -0.05588
v -0.05056 0.02128 -0.07451
v -0.01330 0.01596 -0.05588
v -0.02394 0.03193 -0.06653
v 0.01331 0.01330 -0.08516
v -0.05588 -0.02394 -0.06387
v -0.00000 0.03193 -0.07717
v 0.03459 0.02128 -0.06919
v -0.05855 0.02394 -0.06919
v 0.03193 -0.02394 -0.07717
v 0.03726 -0.01064 -0.06919
v 0.02129 -0.02926 -0.06653
v 0.01331 -0.02661 -0.07983
v -0.02394 0.03193 -0.07717
v -0.01330 -0.01064 -0.08516
v 0.03193 -0.00798 -0.07983
v -0.04789 0.02927 -0.06653
v 0.00531 0.02660 -0.05588
v 0.03459 0.02128 -0.07717
v -0.00799 0.02394 -0.08516
v 0.01331 -0.01064 -0.08516
v -0.04789 -0.02394 -0.07185
v 0.01862 0.01862 -0.05588
v 0.03726 0.01862 -0.06919
v -0.05855 -0.01862 -0.06919
v 0.03193 -0.02128 -0.06653
v -0.00267 -0.02661 -0.07983
v 0.00798 -0.03193 -0.07451
v -0.00533 0.03193 -0.06653
v -0.01596 0.01330 -0.08516
v 0.00798 0.02660 -0.08249
v 0.03193 0.01330 -0.07983
v -0.00267 -0.01596 -0.08516
v 0.00531 -0.03193 -0.06653
v -0.05588 0.02394 -0.07185
v 0.03193 -0.02661 -0.06919
v 0.00798 0.02128 -0.08516
v -0.05322 0.02660 -0.06387
v -0.00267 -0.01862 -0.05588
v -0.05056 0.01330 -0.07451
v 0.03459 -0.02394 -0.07451
v 0.02394 0.00266 -0.04524
v -0.03193 0.01862 -0.01597
v -0.03193 0.01862 -0.01331
v -0.01330 -0.02926 -0.01864
v 0.01596 0.01862 0.00000
v -0.01064 0.02660 -0.05588
v -0.00266 -0.02128 -0.05588
v 0.01064 -0.02660 -0.00532
v -0.01596 -0.01330 0.00000
v 0.01862 0.02128 -0.05588
v 0.02394 -0.02128 -0.04257
v -0.01064 0.02660 0.00000
v -0.02661 -0.01862 -0.01864
v 0.02661 0.01596 -0.01331
v 0.00798 0.02927 -0.03193
v -0.00266 -0.03193 -0.04524
v -0.02394 0.02927 -0.01597
v -0.02128 0.01596 -0.04257
v 0.01064 -0.02394 -0.05588
v 0.02394 -0.01330 -0.01597
v 0.01330 -0.01596 0.00000
v -0.01064 -0.02926 -0.00532
v 0.00798 -0.03193 -0.03725
v -0.01596 -0.02128 -0.03992
v 0.00532 0.02660 0.00000
v -0.01330 0.01596 -0.05588
v 0.00266 0.02927 -0.05056
v -0.01862 0.01862 0.00000
v -0.02394 -0.02128 -0.01065
v -0.02128 0.02660 -0.03992
v 0.02394 0.01862 -0.04524
v 0.02128 0.02128 -0.01331
v 0.02661 0.00266 -0.01331
v 0.01862 0.00266 -0.05588
v -0.00798 -0.02394 0.00000
v 0.01862 -0.02660 -0.04524
v 0.01862 0.02394 -0.04524
v -0.00000 0.02927 -0.01065
v 0.00532 -0.02926 -0.00532
v -0.01596 0.02927 -0.04257
v -0.03193 0.02128 -0.01331
v 0.00798 -0.02660 -0.05588
v -0.01862 -0.02660 -0.01864
v -0.02394 0.01596 -0.03725
v 0.02661 0.00266 -0.01864
v 0.02128 0.00798 -0.05322
v -0.01862 0.00266 0.00000
v -0.01064 -0.02660 -0.04257
v 0.00532 -0.02394 0.00000
v 0.01330 0.02660 -0.02129
v 0.00532 -0.03193 -0.04524
v 0.02128 -0.02394 -0.03725
v -0.02128 0.02394 -0.04257
v 0.00798 -0.02926 -0.00799
v -0.02661 -0.01862 -0.01331
v 0.00532 0.02660 -0.05588
v 0.00532 0.02927 -0.01597
v -0.00000 -0.03193 -0.03459
v 0.00798 0.02927 -0.04257
v 0.02128 -0.02394 -0.04524
v 0.00266 -0.02660 -0.05588
v -0.03193 0.02128 -0.01597
v -0.02394 0.02660 -0.01065
v -0.01862 -0.02660 -0.01065
v 0.02128 -0.02128 0.00266
v 0.00265 0.02661 0.00799
v 0.00265 0.02661 0.00000
v -0.04789 -0.02128 0.00799
v 0.01862 -0.01064 0.01863
v -0.02660 0.02128 0.01331
v 0.03192 0.01330 0.01331
v -0.00798 -0.02927 0.00000
v -0.04523 0.01597 0.00532
v -0.00798 -0.02128 0.01863
v 0.01596 0.02395 0.01863
v 0.02394 0.01330 0.00000
v 0.03726 -0.00798 0.01331
v 0.00265 -0.02927 0.01064
v -0.02128 -0.01863 0.00000
v -0.01064 0.00532 0.01863
v 0.03192 0.01597 0.00532
v -0.01595 0.02395 0.00000
v 0.02394 -0.02128 0.01331
v -0.04789 -0.02128 0.00532
v 0.00532 -0.02927 0.00000
v -0.01330 -0.02927 0.01064
v 0.02926 -0.00266 0.00266
v -0.02394 -0.00000 0.01597
v -0.04523 0.01597 0.00799
v -0.00001 0.02395 0.01863
v -0.02394 0.02395 0.01064
v -0.02128 0.01862 0.00000
v 0.00798 -0.02128 0.01863
v 0.02128 -0.01064 0.00000
v 0.01329 0.02395 0.00000
v 0.03726 0.00532 0.01331
v 0.03726 -0.00798 0.01064
v -0.02394 -0.01596 0.01597
v 0.02128 -0.02394 0.00532
v -0.02128 0.01597 0.01597
v -0.00798 0.02661 0.00799
v -0.01595 -0.02927 0.00532
v 0.01862 0.02128 0.01863
v -0.02394 0.02395 0.00532
v -0.02128 -0.02128 0.01597
v 0.02660 -0.01330 0.00266
v -0.00798 0.02661 0.00000
v 0.01862 -0.02394 0.01331
v 0.03192 0.01597 0.01064
v -0.01595 -0.02661 0.01331
v 0.02128 0.02128 0.00266
v 0.01596 -0.02128 0.00000
v 0.03726 0.00532 0.01064
v 0.02128 -0.02394 0.01064
v -0.04789 -0.01596 0.00799
v -0.01064 -0.01863 0.01863
v 0.01862 0.02128 0.00000
v 0.02660 -0.01863 0.00532
v 0.02926 0.01330 0.00266
v 0.00532 -0.02927 0.00799
v -0.04789 -0.01596 0.00532
v -0.02926 0.01862 0.01331
v -0.01330 -0.02661 0.00000
v 0.01063 -0.02394 0.01597
v 0.00001 -0.02395 0.02396
v 0.02660 0.02661 0.04790
v 0.03458 0.02394 0.04790
v 0.01596 0.02394 0.01863
v -0.02661 0.01862 0.03991
v -0.01330 -0.01862 0.04790
v 0.03193 -0.01862 0.02662
v 0.03458 -0.00798 0.04790
v 0.04524 0.01596 0.02396
v -0.00798 -0.01862 0.01863
v -0.01330 0.02394 0.02662
v 0.01596 -0.02128 0.01863
v -0.01862 0.01596 0.04790
v -0.01862 -0.01862 0.03194
v 0.02128 -0.02395 0.02928
v 0.04524 0.01064 0.03991
v 0.00001 0.02394 0.01863
v -0.02394 0.02128 0.03194
v -0.00265 0.02661 0.03726
v -0.01862 -0.01596 0.04790
v 0.04257 0.01862 0.04790
v 0.00001 -0.01862 0.04790
v 0.01064 0.02661 0.04790
v -0.02661 0.01330 0.03460
v -0.00798 0.00265 0.01863
v 0.03724 -0.01064 0.02662
v 0.03458 0.02394 0.03726
v 0.01330 0.02661 0.02662
v 0.02926 -0.02128 0.03194
v -0.00265 -0.02395 0.03194
v 0.02128 -0.01330 0.01863
v 0.02926 -0.02128 0.02396
v 0.04524 0.01064 0.02396
v 0.03991 -0.00532 0.03726
v -0.01596 -0.02128 0.03194
v 0.03991 0.00001 0.04790
v 0.02128 0.02128 0.01863
v -0.00532 0.02661 0.02928
v -0.01596 0.02394 0.03726
v 0.02128 -0.01330 0.04790
v -0.01596 0.01862 0.04790
v 0.01330 -0.02395 0.02129
v -0.00532 -0.02128 0.01863
v 0.04257 0.01862 0.02662
v -0.02128 0.01862 0.02928
v -0.01596 -0.02128 0.03726
v -0.02661 0.01330 0.03991
v -0.02394 0.00798 0.03194
v 0.03724 -0.01064 0.03460
v 0.03991 0.02128 0.03460
v 0.04524 0.01596 0.03991
v 0.01330 -0.02395 0.03194
v 0.03724 -0.00532 0.04790
v 0.04257 0.01064 0.04790
v -0.01862 -0.01862 0.03726
v 0.02394 0.02661 0.03991
v 0.02128 -0.02395 0.02396
v 0.02660 -0.01596 0.02129
v 0.03724 0.02128 0.02928
v 0.03991 -0.00532 0.02928
v 0.02926 -0.01064 0.04790
v -0.02394 0.02128 0.03726
v 0.03991 0.02128 0.04790
v 0.03193 -0.01862 0.03194
v -0.01862 -0.01862 0.04791
v 0.01063 0.03193 0.07185
v 0.01063 0.02926 0.07717
v 0.05855 -0.00266 0.06919
v -0.03990 -0.02394 0.07185
v -0.01862 0.01862 0.04791
v 0.03991 0.02128 0.04791
v -0.04257 0.01596 0.06919
v -0.00265 -0.00798 0.08516
v 0.01595 -0.02927 0.07185
v 0.02926 -0.01064 0.04791
v 0.05855 0.01596 0.07185
v -0.04788 -0.01862 0.06387
v -0.00265 0.01064 0.08516
v 0.05587 -0.00266 0.07451
v -0.03458 0.02394 0.07185
v 0.01063 0.02660 0.04791
v 0.03991 -0.02128 0.07185
v -0.04522 0.00266 0.07185
v 0.01595 -0.02927 0.06653
v 0.03991 0.02660 0.06387
v -0.03192 0.01330 0.05323
v -0.02660 0.02660 0.06387
v -0.04522 -0.02394 0.06387
v -0.00265 -0.02128 0.04791
v 0.00797 0.00798 0.08516
v 0.00001 -0.02927 0.07451
v 0.03991 0.00000 0.04791
v 0.04256 0.02394 0.07451
v 0.03991 -0.02128 0.06653
v 0.00533 -0.00798 0.08516
v -0.01596 0.02660 0.07717
v -0.02394 -0.00798 0.04791
v -0.00798 -0.02927 0.06653
v 0.02660 0.02660 0.04791
v 0.03458 -0.02128 0.07451
v -0.04522 -0.01862 0.07185
v 0.00267 0.03193 0.06653
v 0.05587 0.01330 0.07451
v -0.04257 0.01330 0.06387
v -0.00531 0.00798 0.08516
v -0.03192 0.02128 0.07451
v 0.03724 0.02128 0.07717
v 0.05855 0.01596 0.06919
v 0.00001 0.03193 0.07185
v 0.01330 -0.02394 0.07717
v -0.01063 -0.02394 0.07717
v 0.00533 0.01862 0.08249
v -0.03458 0.02394 0.06653
v 0.00797 -0.01862 0.04791
v -0.03192 -0.01862 0.05323
v -0.04788 -0.01064 0.06387
v 0.03991 0.02660 0.07185
v -0.04788 -0.02128 0.06919
v -0.00798 -0.02128 0.04791
v -0.02394 0.01330 0.04791
v 0.01063 0.03193 0.06653
v 0.03991 -0.01862 0.07451
v -0.03724 0.01064 0.07451
v -0.00531 -0.00532 0.08516
v -0.02394 0.01862 0.05057
v -0.00798 0.02394 0.07983
v -0.00798 -0.02927 0.07185
v -0.04257 0.01330 0.07185
f 59 21 64 
f 5 9 15 
f 13 8 17 
f 8 13 18 
f 5 15 22 
f 5 22 23 
f 9 5 24 
f 16 8 25 
f 6 4 26 
f 15 6 26 
f 22 15 26 
f 13 17 28 
f 4 20 29 
f 20 14 29 
f 23 22 29 
f 14 23 29 
f 27 2 30 
f 2 3 31 
f 30 2 31 
f 4 6 32 
f 7 10 34 
f 12 7 34 
f 19 24 34 
f 13 33 36 
f 33 21 36 
f 30 17 37 
f 27 30 37 
f 11 18 38 
f 18 13 38 
f 10 7 39 
f 7 33 39 
f 15 27 40 
f 32 6 40 
f 16 32 40 
f 37 16 40 
f 27 37 40 
f 15 9 41 
f 27 15 41 
f 31 3 41 
f 9 31 41 
f 31 10 42 
f 30 31 42 
f 8 16 43 
f 17 8 43 
f 16 37 43 
f 37 17 43 
f 13 28 44 
f 33 13 44 
f 28 39 44 
f 39 33 44 
f 20 11 45 
f 14 20 45 
f 11 38 45 
f 9 24 46 
f 24 19 46 
f 31 9 47 
f 10 31 47 
f 34 10 47 
f 19 34 47 
f 9 46 47 
f 46 19 47 
f 20 4 48 
f 11 20 48 
f 4 32 48 
f 32 11 48 
f 5 12 49 
f 24 5 49 
f 12 34 49 
f 34 24 49 
f 13 36 50 
f 36 14 50 
f 45 1 50 
f 14 45 50 
f 23 14 51 
f 21 35 51 
f 14 36 51 
f 36 21 51 
f 3 2 52 
f 2 27 52 
f 41 3 52 
f 27 41 52 
f 8 18 53 
f 25 8 53 
f 18 25 53 
f 17 30 54 
f 30 42 54 
f 10 39 55 
f 39 28 55 
f 38 13 56 
f 1 45 56 
f 45 38 56 
f 13 50 56 
f 50 1 56 
f 5 23 57 
f 35 5 57 
f 23 51 57 
f 51 35 57 
f 25 11 58 
f 16 25 58 
f 11 32 58 
f 32 16 58 
f 12 5 59 
f 5 35 59 
f 35 21 59 
f 28 17 60 
f 42 10 60 
f 17 54 60 
f 54 42 60 
f 10 55 60 
f 55 28 60 
f 6 15 61 
f 40 6 61 
f 15 40 61 
f 26 4 62 
f 22 26 62 
f 4 29 62 
f 29 22 62 
f 18 11 63 
f 11 25 63 
f 25 18 63 
f 7 12 64 
f 33 7 64 
f 21 33 64 
f 12 59 64 
