# Original object name hint: convex_2
v -0.01065 -0.02394 -0.07983
v -0.00000 0.03193 -0.07185
v 0.00798 0.02927 -0.06919
v -0.05855 -0.01862 -0.06387
v 0.01064 -0.02394 -0.05588
v -0.05855 0.02394 -0.06387
v 0.03726 -0.01064 -0.07717
v -0.01330 0.01862 -0.08516
v 0.01331 0.02394 -0.05588
v 0.03726 0.01862 -0.07717
v -0.05588 -0.01330 -0.07185
v 0.03459 -0.02394 -0.06919
v 0.00798 -0.01596 -0.08516
v -0.00533 -0.03193 -0.07451
v -0.00799 0.02660 -0.05588
v -0.04524 0.02927 -0.07451
v 0.00265 0.02394 -0.08516
v -0.01596 -0.00531 -0.08516
v 0.03459 0.01596 -0.06653
v -0.05588 -0.02394 -0.06919
v 0.02394 -0.02926 -0.07451
v -0.00000 -0.02394 -0.05588
v -0.00267 -0.03193 -0.06653
v 0.01862 0.00531 -0.05588
v -0.05056 0.02128 -0.07451
v -0.01330 0.01596 -0.05588
v -0.02394 0.03193 -0.06653
v 0.01331 0.01330 -0.08516
v -0.05588 -0.02394 -0.06387
v -0.00000 0.03193 -0.07717
v 0.03459 0.02128 -0.06919
v -0.05855 0.02394 -0.06919
v 0.03193 -0.02394 -0.07717
v 0.03726 -0.01064 -0.06919
v 0.02129 -0.02926 -0.06653
v 0.01331 -0.02661 -0.07983
v -0.02394 0.03193 -0.07717
v -0.01330 -0.01064 -0.08516
v 0.03193 -0.00798 -0.07983
v -0.04789 0.02927 -0.06653
v 0.00531 0.02660 -0.05588
v 0.03459 0.02128 -0.07717
v -0.00799 0.02394 -0.08516
v 0.01331 -0.01064 -0.08516
v -0.04789 -0.02394 -0.07185
v 0.01862 0.01862 -0.05588
v 0.03726 0.01862 -0.06919
v -0.05855 -0.01862 -0.06919
v 0.03193 -0.02128 -0.06653
v -0.00267 -0.02661 -0.07983
v 0.00798 -0.03193 -0.07451
v -0.00533 0.03193 -0.06653
v -0.01596 0.01330 -0.08516
v 0.00798 0.02660 -0.08249
v 0.03193 0.01330 -0.07983
v -0.00267 -0.01596 -0.08516
v 0.00531 -0.03193 -0.06653
v -0.05588 0.02394 -0.07185
v 0.03193 -0.02661 -0.06919
v 0.00798 0.02128 -0.08516
v -0.05322 0.02660 -0.06387
v -0.00267 -0.01862 -0.05588
v -0.05056 0.01330 -0.07451
v 0.03459 -0.02394 -0.07451
v 0.02394 0.00266 -0.04524
v -0.03193 0.01862 -0.01597
v -0.03193 0.01862 -0.01331
v -0.01330 -0.02926 -0.01864
v 0.01596 0.01862 0.00000
v -0.01064 0.02660 -0.05588
v -0.00266 -0.02128 -0.05588
v 0.01064 -0.02660 -0.00532
v -0.01596 -0.01330 0.00000
v 0.01862 0.02128 -0.05588
v 0.02394 -0.02128 -0.04257
v -0.01064 0.02660 0.00000
v -0.02661 -0.01862 -0.01864
v 0.02661 0.01596 -0.01331
v 0.00798 0.02927 -0.03193
v -0.00266 -0.03193 -0.04524
v -0.02394 0.02927 -0.01597
v -0.02128 0.01596 -0.04257
v 0.01064 -0.02394 -0.05588
v 0.02394 -0.01330 -0.01597
v 0.01330 -0.01596 0.00000
v -0.01064 -0.02926 -0.00532
v 0.00798 -0.03193 -0.03725
v -0.01596 -0.02128 -0.03992
v 0.00532 0.02660 0.00000
v -0.01330 0.01596 -0.05588
v 0.00266 0.02927 -0.05056
v -0.01862 0.01862 0.00000
v -0.02394 -0.02128 -0.01065
v -0.02128 0.02660 -0.03992
v 0.02394 0.01862 -0.04524
v 0.02128 0.02128 -0.01331
v 0.02661 0.00266 -0.01331
v 0.01862 0.00266 -0.05588
v -0.00798 -0.02394 0.00000
v 0.01862 -0.02660 -0.04524
v 0.01862 0.02394 -0.04524
v -0.00000 0.02927 -0.01065
v 0.00532 -0.02926 -0.00532
v -0.01596 0.02927 -0.04257
v -0.03193 0.02128 -0.01331
v 0.00798 -0.02660 -0.05588
v -0.01862 -0.02660 -0.01864
v -0.02394 0.01596 -0.03725
v 0.02661 0.00266 -0.01864
v 0.02128 0.00798 -0.05322
v -0.01862 0.00266 0.00000
v -0.01064 -0.02660 -0.04257
v 0.00532 -0.02394 0.00000
v 0.01330 0.02660 -0.02129
v 0.00532 -0.03193 -0.04524
v 0.02128 -0.02394 -0.03725
v -0.02128 0.02394 -0.04257
v 0.00798 -0.02926 -0.00799
v -0.02661 -0.01862 -0.01331
v 0.00532 0.02660 -0.05588
v 0.00532 0.02927 -0.01597
v -0.00000 -0.03193 -0.03459
v 0.00798 0.02927 -0.04257
v 0.02128 -0.02394 -0.04524
v 0.00266 -0.02660 -0.05588
v -0.03193 0.02128 -0.01597
v -0.02394 0.02660 -0.01065
v -0.01862 -0.02660 -0.01065
v 0.02128 -0.02128 0.00266
v 0.00265 0.02661 0.00799
v 0.00265 0.02661 0.00000
v -0.04789 -0.02128 0.00799
v 0.01862 -0.01064 0.01863
v -0.02660 0.02128 0.01331
v 0.03192 0.01330 0.01331
v -0.00798 -0.02927 0.00000
v -0.04523 0.01597 0.00532
v -0.00798 -0.02128 0.01863
v 0.01596 0.02395 0.01863
v 0.02394 0.01330 0.00000
v 0.03726 -0.00798 0.01331
v 0.00265 -0.02927 0.01064
v -0.02128 -0.01863 0.00000
v -0.01064 0.00532 0.01863
v 0.03192 0.01597 0.00532
v -0.01595 0.02395 0.00000
v 0.02394 -0.02128 0.01331
v -0.04789 -0.02128 0.00532
v 0.00532 -0.02927 0.00000
v -0.01330 -0.02927 0.01064
v 0.02926 -0.00266 0.00266
v -0.02394 -0.00000 0.01597
v -0.04523 0.01597 0.00799
v -0.00001 0.02395 0.01863
v -0.02394 0.02395 0.01064
v -0.02128 0.01862 0.00000
v 0.00798 -0.02128 0.01863
v 0.02128 -0.01064 0.00000
v 0.01329 0.02395 0.00000
v 0.03726 0.00532 0.01331
v 0.03726 -0.00798 0.01064
v -0.02394 -0.01596 0.01597
v 0.02128 -0.02394 0.00532
v -0.02128 0.01597 0.01597
v -0.00798 0.02661 0.00799
v -0.01595 -0.02927 0.00532
v 0.01862 0.02128 0.01863
v -0.02394 0.02395 0.00532
v -0.02128 -0.02128 0.01597
v 0.02660 -0.01330 0.00266
v -0.00798 0.02661 0.00000
v 0.01862 -0.02394 0.01331
v 0.03192 0.01597 0.01064
v -0.01595 -0.02661 0.01331
v 0.02128 0.02128 0.00266
v 0.01596 -0.02128 0.00000
v 0.03726 0.00532 0.01064
v 0.02128 -0.02394 0.01064
v -0.04789 -0.01596 0.00799
v -0.01064 -0.01863 0.01863
v 0.01862 0.02128 0.00000
v 0.02660 -0.01863 0.00532
v 0.02926 0.01330 0.00266
v 0.00532 -0.02927 0.00799
v -0.04789 -0.01596 0.00532
v -0.02926 0.01862 0.01331
v -0.01330 -0.02661 0.00000
v 0.01063 -0.02394 0.01597
v 0.00001 -0.02395 0.02396
v 0.02660 0.02661 0.04790
v 0.03458 0.02394 0.04790
v 0.01596 0.02394 0.01863
v -0.02661 0.01862 0.03991
v -0.01330 -0.01862 0.04790
v 0.03193 -0.01862 0.02662
v 0.03458 -0.00798 0.04790
v 0.04524 0.01596 0.02396
v -0.00798 -0.01862 0.01863
v -0.01330 0.02394 0.02662
v 0.01596 -0.02128 0.01863
v -0.01862 0.01596 0.04790
v -0.01862 -0.01862 0.03194
v 0.02128 -0.02395 0.02928
v 0.04524 0.01064 0.03991
v 0.00001 0.02394 0.01863
v -0.02394 0.02128 0.03194
v -0.00265 0.02661 0.03726
v -0.01862 -0.01596 0.04790
v 0.04257 0.01862 0.04790
v 0.00001 -0.01862 0.04790
v 0.01064 0.02661 0.04790
v -0.02661 0.01330 0.03460
v -0.00798 0.00265 0.01863
v 0.03724 -0.01064 0.02662
v 0.03458 0.02394 0.03726
v 0.01330 0.02661 0.02662
v 0.02926 -0.02128 0.03194
v -0.00265 -0.02395 0.03194
v 0.02128 -0.01330 0.01863
v 0.02926 -0.02128 0.02396
v 0.04524 0.01064 0.02396
v 0.03991 -0.00532 0.03726
v -0.01596 -0.02128 0.03194
v 0.03991 0.00001 0.04790
v 0.02128 0.02128 0.01863
v -0.00532 0.02661 0.02928
v -0.01596 0.02394 0.03726
v 0.02128 -0.01330 0.04790
v -0.01596 0.01862 0.04790
v 0.01330 -0.02395 0.02129
v -0.00532 -0.02128 0.01863
v 0.04257 0.01862 0.02662
v -0.02128 0.01862 0.02928
v -0.01596 -0.02128 0.03726
v -0.02661 0.01330 0.03991
v -0.02394 0.00798 0.03194
v 0.03724 -0.01064 0.03460
v 0.03991 0.02128 0.03460
v 0.04524 0.01596 0.03991
v 0.01330 -0.02395 0.03194
v 0.03724 -0.00532 0.04790
v 0.04257 0.01064 0.04790
v -0.01862 -0.01862 0.03726
v 0.02394 0.02661 0.03991
v 0.02128 -0.02395 0.02396
v 0.02660 -0.01596 0.02129
v 0.03724 0.02128 0.02928
v 0.03991 -0.00532 0.02928
v 0.02926 -0.01064 0.04790
v -0.02394 0.02128 0.03726
v 0.03991 0.02128 0.04790
v 0.03193 -0.01862 0.03194
v -0.01862 -0.01862 0.04791
v 0.01063 0.03193 0.07185
v 0.01063 0.02926 0.07717
v 0.05855 -0.00266 0.06919
v -0.03990 -0.02394 0.07185
v -0.01862 0.01862 0.04791
v 0.03991 0.02128 0.04791
v -0.04257 0.01596 0.06919
v -0.00265 -0.00798 0.08516
v 0.01595 -0.02927 0.07185
v 0.02926 -0.01064 0.04791
v 0.05855 0.01596 0.07185
v -0.04788 -0.01862 0.06387
v -0.00265 0.01064 0.08516
v 0.05587 -0.00266 0.07451
v -0.03458 0.02394 0.07185
v 0.01063 0.02660 0.04791
v 0.03991 -0.02128 0.07185
v -0.04522 0.00266 0.07185
v 0.01595 -0.02927 0.06653
v 0.03991 0.02660 0.06387
v -0.03192 0.01330 0.05323
v -0.02660 0.02660 0.06387
v -0.04522 -0.02394 0.06387
v -0.00265 -0.02128 0.04791
v 0.00797 0.00798 0.08516
v 0.00001 -0.02927 0.07451
v 0.03991 0.00000 0.04791
v 0.04256 0.02394 0.07451
v 0.03991 -0.02128 0.06653
v 0.00533 -0.00798 0.08516
v -0.01596 0.02660 0.07717
v -0.02394 -0.00798 0.04791
v -0.00798 -0.02927 0.06653
v 0.02660 0.02660 0.04791
v 0.03458 -0.02128 0.07451
v -0.04522 -0.01862 0.07185
v 0.00267 0.03193 0.06653
v 0.05587 0.01330 0.07451
v -0.04257 0.01330 0.06387
v -0.00531 0.00798 0.08516
v -0.03192 0.02128 0.07451
v 0.03724 0.02128 0.07717
v 0.05855 0.01596 0.06919
v 0.00001 0.03193 0.07185
v 0.01330 -0.02394 0.07717
v -0.01063 -0.02394 0.07717
v 0.00533 0.01862 0.08249
v -0.03458 0.02394 0.06653
v 0.00797 -0.01862 0.04791
v -0.03192 -0.01862 0.05323
v -0.04788 -0.01064 0.06387
v 0.03991 0.02660 0.07185
v -0.04788 -0.02128 0.06919
v -0.00798 -0.02128 0.04791
v -0.02394 0.01330 0.04791
v 0.01063 0.03193 0.06653
v 0.03991 -0.01862 0.07451
v -0.03724 0.01064 0.07451
v -0.00531 -0.00532 0.08516
v -0.02394 0.01862 0.05057
v -0.00798 0.02394 0.07983
v -0.00798 -0.02927 0.07185
v -0.04257 0.01330 0.07185
f 172 157 188 
f 131 130 139 
f 138 133 139 
f 136 131 140 
f 131 136 143 
f 138 139 144 
f 131 143 146 
f 136 140 149 
f 142 136 149 
f 136 142 150 
f 139 130 154 
f 144 139 154 
f 153 134 155 
f 137 153 155 
f 134 154 155 
f 137 146 156 
f 146 143 156 
f 143 148 156 
f 133 138 157 
f 141 133 157 
f 147 141 157 
f 149 140 158 
f 140 151 158 
f 131 139 159 
f 140 131 159 
f 133 141 160 
f 160 141 161 
f 152 132 162 
f 144 152 162 
f 149 129 163 
f 152 144 164 
f 154 134 164 
f 144 154 164 
f 130 131 165 
f 154 130 165 
f 155 154 165 
f 132 148 166 
f 148 136 166 
f 150 132 166 
f 136 150 166 
f 135 139 167 
f 139 133 167 
f 160 135 167 
f 133 160 167 
f 146 137 168 
f 137 155 168 
f 155 165 168 
f 162 132 169 
f 158 151 170 
f 151 161 170 
f 131 146 171 
f 165 131 171 
f 146 168 171 
f 168 165 171 
f 147 157 172 
f 139 135 173 
f 145 139 173 
f 135 160 173 
f 160 145 173 
f 132 150 174 
f 150 142 174 
f 157 138 174 
f 142 157 174 
f 169 132 174 
f 138 169 174 
f 139 145 175 
f 159 139 175 
f 129 149 176 
f 149 158 176 
f 170 129 176 
f 158 170 176 
f 145 160 177 
f 160 161 177 
f 161 151 177 
f 141 147 178 
f 149 163 178 
f 147 172 178 
f 148 132 179 
f 132 152 179 
f 153 137 179 
f 152 153 179 
f 138 144 180 
f 144 162 180 
f 169 138 180 
f 162 169 180 
f 140 159 181 
f 175 145 181 
f 159 175 181 
f 161 141 182 
f 163 129 182 
f 129 170 182 
f 170 161 182 
f 141 178 182 
f 178 163 182 
f 151 140 183 
f 145 177 183 
f 177 151 183 
f 140 181 183 
f 181 145 183 
f 142 149 184 
f 172 142 184 
f 149 178 184 
f 178 172 184 
f 137 156 185 
f 156 148 185 
f 148 179 185 
f 179 137 185 
f 134 153 186 
f 153 152 186 
f 152 164 186 
f 164 134 186 
f 143 136 187 
f 136 148 187 
f 148 143 187 
f 157 142 188 
f 142 172 188 
