# Original object name hint: convex_3
v -0.01065 -0.02394 -0.07983
v -0.00000 0.03193 -0.07185
v 0.00798 0.02927 -0.06919
v -0.05855 -0.01862 -0.06387
v 0.01064 -0.02394 -0.05588
v -0.05855 0.02394 -0.06387
v 0.03726 -0.01064 -0.07717
v -0.01330 0.01862 -0.08516
v 0.01331 0.02394 -0.05588
v 0.03726 0.01862 -0.07717
v -0.05588 -0.01330 -0.07185
v 0.03459 -0.02394 -0.06919
v 0.00798 -0.01596 -0.08516
v -0.00533 -0.03193 -0.07451
v -0.00799 0.02660 -0.05588
v -0.04524 0.02927 -0.07451
v 0.00265 0.02394 -0.08516
v -0.01596 -0.00531 -0.08516
v 0.03459 0.01596 -0.06653
v -0.05588 -0.02394 -0.06919
v 0.02394 -0.02926 -0.07451
v -0.00000 -0.02394 -0.05588
v -0.00267 -0.03193 -0.06653
v 0.01862 0.00531 -0.05588
v -0.05056 0.02128 -0.07451
v -0.01330 0.01596 -0.05588
v -0.02394 0.03193 -0.06653
v 0.01331 0.01330 -0.08516
v -0.05588 -0.02394 -0.06387
v -0.00000 0.03193 -0.07717
v 0.03459 0.02128 -0.06919
v -0.05855 0.02394 -0.06919
v 0.03193 -0.02394 -0.07717
v 0.03726 -0.01064 -0.06919
v 0.02129 -0.02926 -0.06653
v 0.01331 -0.02661 -0.07983
v -0.02394 0.03193 -0.07717
v -0.01330 -0.01064 -0.08516
v 0.03193 -0.00798 -0.07983
v -0.04789 0.02927 -0.06653
v 0.00531 0.02660 -0.05588
v 0.03459 0.02128 -0.07717
v -0.00799 0.02394 -0.08516
v 0.01331 -0.01064 -0.08516
v -0.04789 -0.02394 -0.07185
v 0.01862 0.01862 -0.05588
v 0.03726 0.01862 -0.06919
v -0.05855 -0.01862 -0.06919
v 0.03193 -0.02128 -0.06653
v -0.00267 -0.02661 -0.07983
v 0.00798 -0.03193 -0.07451
v -0.00533 0.03193 -0.06653
v -0.01596 0.01330 -0.08516
v 0.00798 0.02660 -0.08249
v 0.03193 0.01330 -0.07983
v -0.00267 -0.01596 -0.08516
v 0.00531 -0.03193 -0.06653
v -0.05588 0.02394 -0.07185
v 0.03193 -0.02661 -0.06919
v 0.00798 0.02128 -0.08516
v -0.05322 0.02660 -0.06387
v -0.00267 -0.01862 -0.05588
v -0.05056 0.01330 -0.07451
v 0.03459 -0.02394 -0.07451
v 0.02394 0.00266 -0.04524
v -0.03193 0.01862 -0.01597
v -0.03193 0.01862 -0.01331
v -0.01330 -0.02926 -0.01864
v 0.01596 0.01862 0.00000
v -0.01064 0.02660 -0.05588
v -0.00266 -0.02128 -0.05588
v 0.01064 -0.02660 -0.00532
v -0.01596 -0.01330 0.00000
v 0.01862 0.02128 -0.05588
v 0.02394 -0.02128 -0.04257
v -0.01064 0.02660 0.00000
v -0.02661 -0.01862 -0.01864
v 0.02661 0.01596 -0.01331
v 0.00798 0.02927 -0.03193
v -0.00266 -0.03193 -0.04524
v -0.02394 0.02927 -0.01597
v -0.02128 0.01596 -0.04257
v 0.01064 -0.02394 -0.05588
v 0.02394 -0.01330 -0.01597
v 0.01330 -0.01596 0.00000
v -0.01064 -0.02926 -0.00532
v 0.00798 -0.03193 -0.03725
v -0.01596 -0.02128 -0.03992
v 0.00532 0.02660 0.00000
v -0.01330 0.01596 -0.05588
v 0.00266 0.02927 -0.05056
v -0.01862 0.01862 0.00000
v -0.02394 -0.02128 -0.01065
v -0.02128 0.02660 -0.03992
v 0.02394 0.01862 -0.04524
v 0.02128 0.02128 -0.01331
v 0.02661 0.00266 -0.01331
v 0.01862 0.00266 -0.05588
v -0.00798 -0.02394 0.00000
v 0.01862 -0.02660 -0.04524
v 0.01862 0.02394 -0.04524
v -0.00000 0.02927 -0.01065
v 0.00532 -0.02926 -0.00532
v -0.01596 0.02927 -0.04257
v -0.03193 0.02128 -0.01331
v 0.00798 -0.02660 -0.05588
v -0.01862 -0.02660 -0.01864
v -0.02394 0.01596 -0.03725
v 0.02661 0.00266 -0.01864
v 0.02128 0.00798 -0.05322
v -0.01862 0.00266 0.00000
v -0.01064 -0.02660 -0.04257
v 0.00532 -0.02394 0.00000
v 0.01330 0.02660 -0.02129
v 0.00532 -0.03193 -0.04524
v 0.02128 -0.02394 -0.03725
v -0.02128 0.02394 -0.04257
v 0.00798 -0.02926 -0.00799
v -0.02661 -0.01862 -0.01331
v 0.00532 0.02660 -0.05588
v 0.00532 0.02927 -0.01597
v -0.00000 -0.03193 -0.03459
v 0.00798 0.02927 -0.04257
v 0.02128 -0.02394 -0.04524
v 0.00266 -0.02660 -0.05588
v -0.03193 0.02128 -0.01597
v -0.02394 0.02660 -0.01065
v -0.01862 -0.02660 -0.01065
v 0.02128 -0.02128 0.00266
v 0.00265 0.02661 0.00799
v 0.00265 0.02661 0.00000
v -0.04789 -0.02128 0.00799
v 0.01862 -0.01064 0.01863
v -0.02660 0.02128 0.01331
v 0.03192 0.01330 0.01331
v -0.00798 -0.02927 0.00000
v -0.04523 0.01597 0.00532
v -0.00798 -0.02128 0.01863
v 0.01596 0.02395 0.01863
v 0.02394 0.01330 0.00000
v 0.03726 -0.00798 0.01331
v 0.00265 -0.02927 0.01064
v -0.02128 -0.01863 0.00000
v -0.01064 0.00532 0.01863
v 0.03192 0.01597 0.00532
v -0.01595 0.02395 0.00000
v 0.02394 -0.02128 0.01331
v -0.04789 -0.02128 0.00532
v 0.00532 -0.02927 0.00000
v -0.01330 -0.02927 0.01064
v 0.02926 -0.00266 0.00266
v -0.02394 -0.00000 0.01597
v -0.04523 0.01597 0.00799
v -0.00001 0.02395 0.01863
v -0.02394 0.02395 0.01064
v -0.02128 0.01862 0.00000
v 0.00798 -0.02128 0.01863
v 0.02128 -0.01064 0.00000
v 0.01329 0.02395 0.00000
v 0.03726 0.00532 0.01331
v 0.03726 -0.00798 0.01064
v -0.02394 -0.01596 0.01597
v 0.02128 -0.02394 0.00532
v -0.02128 0.01597 0.01597
v -0.00798 0.02661 0.00799
v -0.01595 -0.02927 0.00532
v 0.01862 0.02128 0.01863
v -0.02394 0.02395 0.00532
v -0.02128 -0.02128 0.01597
v 0.02660 -0.01330 0.00266
v -0.00798 0.02661 0.00000
v 0.01862 -0.02394 0.01331
v 0.03192 0.01597 0.01064
v -0.01595 -0.02661 0.01331
v 0.02128 0.02128 0.00266
v 0.01596 -0.02128 0.00000
v 0.03726 0.00532 0.01064
v 0.02128 -0.02394 0.01064
v -0.04789 -0.01596 0.00799
v -0.01064 -0.01863 0.01863
v 0.01862 0.02128 0.00000
v 0.02660 -0.01863 0.00532
v 0.02926 0.01330 0.00266
v 0.00532 -0.02927 0.00799
v -0.04789 -0.01596 0.00532
v -0.02926 0.01862 0.01331
v -0.01330 -0.02661 0.00000
v 0.01063 -0.02394 0.01597
v 0.00001 -0.02395 0.02396
v 0.02660 0.02661 0.04790
v 0.03458 0.02394 0.04790
v 0.01596 0.02394 0.01863
v -0.02661 0.01862 0.03991
v -0.01330 -0.01862 0.04790
v 0.03193 -0.01862 0.02662
v 0.03458 -0.00798 0.04790
v 0.04524 0.01596 0.02396
v -0.00798 -0.01862 0.01863
v -0.01330 0.02394 0.02662
v 0.01596 -0.02128 0.01863
v -0.01862 0.01596 0.04790
v -0.01862 -0.01862 0.03194
v 0.02128 -0.02395 0.02928
v 0.04524 0.01064 0.03991
v 0.00001 0.02394 0.01863
v -0.02394 0.02128 0.03194
v -0.00265 0.02661 0.03726
v -0.01862 -0.01596 0.04790
v 0.04257 0.01862 0.04790
v 0.00001 -0.01862 0.04790
v 0.01064 0.02661 0.04790
v -0.02661 0.01330 0.03460
v -0.00798 0.00265 0.01863
v 0.03724 -0.01064 0.02662
v 0.03458 0.02394 0.03726
v 0.01330 0.02661 0.02662
v 0.02926 -0.02128 0.03194
v -0.00265 -0.02395 0.03194
v 0.02128 -0.01330 0.01863
v 0.02926 -0.02128 0.02396
v 0.04524 0.01064 0.02396
v 0.03991 -0.00532 0.03726
v -0.01596 -0.02128 0.03194
v 0.03991 0.00001 0.04790
v 0.02128 0.02128 0.01863
v -0.00532 0.02661 0.02928
v -0.01596 0.02394 0.03726
v 0.02128 -0.01330 0.04790
v -0.01596 0.01862 0.04790
v 0.01330 -0.02395 0.02129
v -0.00532 -0.02128 0.01863
v 0.04257 0.01862 0.02662
v -0.02128 0.01862 0.02928
v -0.01596 -0.02128 0.03726
v -0.02661 0.01330 0.03991
v -0.02394 0.00798 0.03194
v 0.03724 -0.01064 0.03460
v 0.03991 0.02128 0.03460
v 0.04524 0.01596 0.03991
v 0.01330 -0.02395 0.03194
v 0.03724 -0.00532 0.04790
v 0.04257 0.01064 0.04790
v -0.01862 -0.01862 0.03726
v 0.02394 0.02661 0.03991
v 0.02128 -0.02395 0.02396
v 0.02660 -0.01596 0.02129
v 0.03724 0.02128 0.02928
v 0.03991 -0.00532 0.02928
v 0.02926 -0.01064 0.04790
v -0.02394 0.02128 0.03726
v 0.03991 0.02128 0.04790
v 0.03193 -0.01862 0.03194
v -0.01862 -0.01862 0.04791
v 0.01063 0.03193 0.07185
v 0.01063 0.02926 0.07717
v 0.05855 -0.00266 0.06919
v -0.03990 -0.02394 0.07185
v -0.01862 0.01862 0.04791
v 0.03991 0.02128 0.04791
v -0.04257 0.01596 0.06919
v -0.00265 -0.00798 0.08516
v 0.01595 -0.02927 0.07185
v 0.02926 -0.01064 0.04791
v 0.05855 0.01596 0.07185
v -0.04788 -0.01862 0.06387
v -0.00265 0.01064 0.08516
v 0.05587 -0.00266 0.07451
v -0.03458 0.02394 0.07185
v 0.01063 0.02660 0.04791
v 0.03991 -0.02128 0.07185
v -0.04522 0.00266 0.07185
v 0.01595 -0.02927 0.06653
v 0.03991 0.02660 0.06387
v -0.03192 0.01330 0.05323
v -0.02660 0.02660 0.06387
v -0.04522 -0.02394 0.06387
v -0.00265 -0.02128 0.04791
v 0.00797 0.00798 0.08516
v 0.00001 -0.02927 0.07451
v 0.03991 0.00000 0.04791
v 0.04256 0.02394 0.07451
v 0.03991 -0.02128 0.06653
v 0.00533 -0.00798 0.08516
v -0.01596 0.02660 0.07717
v -0.02394 -0.00798 0.04791
v -0.00798 -0.02927 0.06653
v 0.02660 0.02660 0.04791
v 0.03458 -0.02128 0.07451
v -0.04522 -0.01862 0.07185
v 0.00267 0.03193 0.06653
v 0.05587 0.01330 0.07451
v -0.04257 0.01330 0.06387
v -0.00531 0.00798 0.08516
v -0.03192 0.02128 0.07451
v 0.03724 0.02128 0.07717
v 0.05855 0.01596 0.06919
v 0.00001 0.03193 0.07185
v 0.01330 -0.02394 0.07717
v -0.01063 -0.02394 0.07717
v 0.00533 0.01862 0.08249
v -0.03458 0.02394 0.06653
v 0.00797 -0.01862 0.04791
v -0.03192 -0.01862 0.05323
v -0.04788 -0.01064 0.06387
v 0.03991 0.02660 0.07185
v -0.04788 -0.02128 0.06919
v -0.00798 -0.02128 0.04791
v -0.02394 0.01330 0.04791
v 0.01063 0.03193 0.06653
v 0.03991 -0.01862 0.07451
v -0.03724 0.01064 0.07451
v -0.00531 -0.00532 0.08516
v -0.02394 0.01862 0.05057
v -0.00798 0.02394 0.07983
v -0.00798 -0.02927 0.07185
v -0.04257 0.01330 0.07185
f 237 241 252 
f 191 190 194 
f 191 194 196 
f 198 192 200 
f 194 190 201 
f 192 198 205 
f 201 193 208 
f 194 201 208 
f 191 196 209 
f 196 194 210 
f 201 190 211 
f 190 207 211 
f 193 206 212 
f 205 198 213 
f 190 191 215 
f 192 205 216 
f 207 190 216 
f 215 192 216 
f 210 203 217 
f 189 203 218 
f 210 194 218 
f 200 192 219 
f 214 195 220 
f 195 217 220 
f 217 203 220 
f 197 204 221 
f 219 197 221 
f 214 220 221 
f 221 204 222 
f 202 198 223 
f 189 218 223 
f 209 196 224 
f 222 204 224 
f 192 197 225 
f 219 192 225 
f 197 219 225 
f 205 199 226 
f 199 206 226 
f 216 205 226 
f 207 216 226 
f 211 207 227 
f 226 206 227 
f 207 226 227 
f 196 210 228 
f 210 217 228 
f 193 201 229 
f 201 211 229 
f 211 227 229 
f 203 189 230 
f 198 200 231 
f 189 223 231 
f 223 198 231 
f 230 189 231 
f 200 230 231 
f 197 192 232 
f 199 205 233 
f 206 199 233 
f 212 206 233 
f 213 198 233 
f 205 213 233 
f 194 208 234 
f 218 194 234 
f 202 223 234 
f 223 218 234 
f 208 193 235 
f 212 202 235 
f 193 212 235 
f 198 202 236 
f 202 212 236 
f 233 198 236 
f 212 233 236 
f 195 214 237 
f 214 222 237 
f 215 191 238 
f 197 232 238 
f 204 197 239 
f 209 204 239 
f 197 238 239 
f 203 210 240 
f 218 203 240 
f 210 218 240 
f 224 196 241 
f 222 224 241 
f 237 222 241 
f 204 209 242 
f 209 224 242 
f 224 204 242 
f 234 208 243 
f 202 234 243 
f 208 235 243 
f 235 202 243 
f 190 215 244 
f 216 190 244 
f 215 216 244 
f 200 220 245 
f 220 203 245 
f 230 200 245 
f 203 230 245 
f 200 219 246 
f 220 200 246 
f 219 221 246 
f 221 220 246 
f 192 215 247 
f 232 192 247 
f 215 238 247 
f 238 232 247 
f 214 221 248 
f 222 214 248 
f 221 222 248 
f 217 196 249 
f 196 228 249 
f 228 217 249 
f 206 193 250 
f 227 206 250 
f 193 229 250 
f 229 227 250 
f 191 209 251 
f 238 191 251 
f 209 239 251 
f 239 238 251 
f 217 195 252 
f 196 217 252 
f 195 237 252 
f 241 196 252 
