# Original object name hint: convex_4
v -0.01065 -0.02394 -0.07983
v -0.00000 0.03193 -0.07185
v 0.00798 0.02927 -0.06919
v -0.05855 -0.01862 -0.06387
v 0.01064 -0.02394 -0.05588
v -0.05855 0.02394 -0.06387
v 0.03726 -0.01064 -0.07717
v -0.01330 0.01862 -0.08516
v 0.01331 0.02394 -0.05588
v 0.03726 0.01862 -0.07717
v -0.05588 -0.01330 -0.07185
v 0.03459 -0.02394 -0.06919
v 0.00798 -0.01596 -0.08516
v -0.00533 -0.03193 -0.07451
v -0.00799 0.02660 -0.05588
v -0.04524 0.02927 -0.07451
v 0.00265 0.02394 -0.08516
v -0.01596 -0.00531 -0.08516
v 0.03459 0.01596 -0.06653
v -0.05588 -0.02394 -0.06919
v 0.02394 -0.02926 -0.07451
v -0.00000 -0.02394 -0.05588
v -0.00267 -0.03193 -0.06653
v 0.01862 0.00531 -0.05588
v -0.05056 0.02128 -0.07451
v -0.01330 0.01596 -0.05588
v -0.02394 0.03193 -0.06653
v 0.01331 0.01330 -0.08516
v -0.05588 -0.02394 -0.06387
v -0.00000 0.03193 -0.07717
v 0.03459 0.02128 -0.06919
v -0.05855 0.02394 -0.06919
v 0.03193 -0.02394 -0.07717
v 0.03726 -0.01064 -0.06919
v 0.02129 -0.02926 -0.06653
v 0.01331 -0.02661 -0.07983
v -0.02394 0.03193 -0.07717
v -0.01330 -0.01064 -0.08516
v 0.03193 -0.00798 -0.07983
v -0.04789 0.02927 -0.06653
v 0.00531 0.02660 -0.05588
v 0.03459 0.02128 -0.07717
v -0.00799 0.02394 -0.08516
v 0.01331 -0.01064 -0.08516
v -0.04789 -0.02394 -0.07185
v 0.01862 0.01862 -0.05588
v 0.03726 0.01862 -0.06919
v -0.05855 -0.01862 -0.06919
v 0.03193 -0.02128 -0.06653
v -0.00267 -0.02661 -0.07983
v 0.00798 -0.03193 -0.07451
v -0.00533 0.03193 -0.06653
v -0.01596 0.01330 -0.08516
v 0.00798 0.02660 -0.08249
v 0.03193 0.01330 -0.07983
v -0.00267 -0.01596 -0.08516
v 0.00531 -0.03193 -0.06653
v -0.05588 0.02394 -0.07185
v 0.03193 -0.02661 -0.06919
v 0.00798 0.02128 -0.08516
v -0.05322 0.02660 -0.06387
v -0.00267 -0.01862 -0.05588
v -0.05056 0.01330 -0.07451
v 0.03459 -0.02394 -0.07451
v 0.02394 0.00266 -0.04524
v -0.03193 0.01862 -0.01597
v -0.03193 0.01862 -0.01331
v -0.01330 -0.02926 -0.01864
v 0.01596 0.01862 0.00000
v -0.01064 0.02660 -0.05588
v -0.00266 -0.02128 -0.05588
v 0.01064 -0.02660 -0.00532
v -0.01596 -0.01330 0.00000
v 0.01862 0.02128 -0.05588
v 0.02394 -0.02128 -0.04257
v -0.01064 0.02660 0.00000
v -0.02661 -0.01862 -0.01864
v 0.02661 0.01596 -0.01331
v 0.00798 0.02927 -0.03193
v -0.00266 -0.03193 -0.04524
v -0.02394 0.02927 -0.01597
v -0.02128 0.01596 -0.04257
v 0.01064 -0.02394 -0.05588
v 0.02394 -0.01330 -0.01597
v 0.01330 -0.01596 0.00000
v -0.01064 -0.02926 -0.00532
v 0.00798 -0.03193 -0.03725
v -0.01596 -0.02128 -0.03992
v 0.00532 0.02660 0.00000
v -0.01330 0.01596 -0.05588
v 0.00266 0.02927 -0.05056
v -0.01862 0.01862 0.00000
v -0.02394 -0.02128 -0.01065
v -0.02128 0.02660 -0.03992
v 0.02394 0.01862 -0.04524
v 0.02128 0.02128 -0.01331
v 0.02661 0.00266 -0.01331
v 0.01862 0.00266 -0.05588
v -0.00798 -0.02394 0.00000
v 0.01862 -0.02660 -0.04524
v 0.01862 0.02394 -0.04524
v -0.00000 0.02927 -0.01065
v 0.00532 -0.02926 -0.00532
v -0.01596 0.02927 -0.04257
v -0.03193 0.02128 -0.01331
v 0.00798 -0.02660 -0.05588
v -0.01862 -0.02660 -0.01864
v -0.02394 0.01596 -0.03725
v 0.02661 0.00266 -0.01864
v 0.02128 0.00798 -0.05322
v -0.01862 0.00266 0.00000
v -0.01064 -0.02660 -0.04257
v 0.00532 -0.02394 0.00000
v 0.01330 0.02660 -0.02129
v 0.00532 -0.03193 -0.04524
v 0.02128 -0.02394 -0.03725
v -0.02128 0.02394 -0.04257
v 0.00798 -0.02926 -0.00799
v -0.02661 -0.01862 -0.01331
v 0.00532 0.02660 -0.05588
v 0.00532 0.02927 -0.01597
v -0.00000 -0.03193 -0.03459
v 0.00798 0.02927 -0.04257
v 0.02128 -0.02394 -0.04524
v 0.00266 -0.02660 -0.05588
v -0.03193 0.02128 -0.01597
v -0.02394 0.02660 -0.01065
v -0.01862 -0.02660 -0.01065
v 0.02128 -0.02128 0.00266
v 0.00265 0.02661 0.00799
v 0.00265 0.02661 0.00000
v -0.04789 -0.02128 0.00799
v 0.01862 -0.01064 0.01863
v -0.02660 0.02128 0.01331
v 0.03192 0.01330 0.01331
v -0.00798 -0.02927 0.00000
v -0.04523 0.01597 0.00532
v -0.00798 -0.02128 0.01863
v 0.01596 0.02395 0.01863
v 0.02394 0.01330 0.00000
v 0.03726 -0.00798 0.01331
v 0.00265 -0.02927 0.01064
v -0.02128 -0.01863 0.00000
v -0.01064 0.00532 0.01863
v 0.03192 0.01597 0.00532
v -0.01595 0.02395 0.00000
v 0.02394 -0.02128 0.01331
v -0.04789 -0.02128 0.00532
v 0.00532 -0.02927 0.00000
v -0.01330 -0.02927 0.01064
v 0.02926 -0.00266 0.00266
v -0.02394 -0.00000 0.01597
v -0.04523 0.01597 0.00799
v -0.00001 0.02395 0.01863
v -0.02394 0.02395 0.01064
v -0.02128 0.01862 0.00000
v 0.00798 -0.02128 0.01863
v 0.02128 -0.01064 0.00000
v 0.01329 0.02395 0.00000
v 0.03726 0.00532 0.01331
v 0.03726 -0.00798 0.01064
v -0.02394 -0.01596 0.01597
v 0.02128 -0.02394 0.00532
v -0.02128 0.01597 0.01597
v -0.00798 0.02661 0.00799
v -0.01595 -0.02927 0.00532
v 0.01862 0.02128 0.01863
v -0.02394 0.02395 0.00532
v -0.02128 -0.02128 0.01597
v 0.02660 -0.01330 0.00266
v -0.00798 0.02661 0.00000
v 0.01862 -0.02394 0.01331
v 0.03192 0.01597 0.01064
v -0.01595 -0.02661 0.01331
v 0.02128 0.02128 0.00266
v 0.01596 -0.02128 0.00000
v 0.03726 0.00532 0.01064
v 0.02128 -0.02394 0.01064
v -0.04789 -0.01596 0.00799
v -0.01064 -0.01863 0.01863
v 0.01862 0.02128 0.00000
v 0.02660 -0.01863 0.00532
v 0.02926 0.01330 0.00266
v 0.00532 -0.02927 0.00799
v -0.04789 -0.01596 0.00532
v -0.02926 0.01862 0.01331
v -0.01330 -0.02661 0.00000
v 0.01063 -0.02394 0.01597
v 0.00001 -0.02395 0.02396
v 0.02660 0.02661 0.04790
v 0.03458 0.02394 0.04790
v 0.01596 0.02394 0.01863
v -0.02661 0.01862 0.03991
v -0.01330 -0.01862 0.04790
v 0.03193 -0.01862 0.02662
v 0.03458 -0.00798 0.04790
v 0.04524 0.01596 0.02396
v -0.00798 -0.01862 0.01863
v -0.01330 0.02394 0.02662
v 0.01596 -0.02128 0.01863
v -0.01862 0.01596 0.04790
v -0.01862 -0.01862 0.03194
v 0.02128 -0.02395 0.02928
v 0.04524 0.01064 0.03991
v 0.00001 0.02394 0.01863
v -0.02394 0.02128 0.03194
v -0.00265 0.02661 0.03726
v -0.01862 -0.01596 0.04790
v 0.04257 0.01862 0.04790
v 0.00001 -0.01862 0.04790
v 0.01064 0.02661 0.04790
v -0.02661 0.01330 0.03460
v -0.00798 0.00265 0.01863
v 0.03724 -0.01064 0.02662
v 0.03458 0.02394 0.03726
v 0.01330 0.02661 0.02662
v 0.02926 -0.02128 0.03194
v -0.00265 -0.02395 0.03194
v 0.02128 -0.01330 0.01863
v 0.02926 -0.02128 0.02396
v 0.04524 0.01064 0.02396
v 0.03991 -0.00532 0.03726
v -0.01596 -0.02128 0.03194
v 0.03991 0.00001 0.04790
v 0.02128 0.02128 0.01863
v -0.00532 0.02661 0.02928
v -0.01596 0.02394 0.03726
v 0.02128 -0.01330 0.04790
v -0.01596 0.01862 0.04790
v 0.01330 -0.02395 0.02129
v -0.00532 -0.02128 0.01863
v 0.04257 0.01862 0.02662
v -0.02128 0.01862 0.02928
v -0.01596 -0.02128 0.03726
v -0.02661 0.01330 0.03991
v -0.02394 0.00798 0.03194
v 0.03724 -0.01064 0.03460
v 0.03991 0.02128 0.03460
v 0.04524 0.01596 0.03991
v 0.01330 -0.02395 0.03194
v 0.03724 -0.00532 0.04790
v 0.04257 0.01064 0.04790
v -0.01862 -0.01862 0.03726
v 0.02394 0.02661 0.03991
v 0.02128 -0.02395 0.02396
v 0.02660 -0.01596 0.02129
v 0.03724 0.02128 0.02928
v 0.03991 -0.00532 0.02928
v 0.02926 -0.01064 0.04790
v -0.02394 0.02128 0.03726
v 0.03991 0.02128 0.04790
v 0.03193 -0.01862 0.03194
v -0.01862 -0.01862 0.04791
v 0.01063 0.03193 0.07185
v 0.01063 0.02926 0.07717
v 0.05855 -0.00266 0.06919
v -0.03990 -0.02394 0.07185
v -0.01862 0.01862 0.04791
v 0.03991 0.02128 0.04791
v -0.04257 0.01596 0.06919
v -0.00265 -0.00798 0.08516
v 0.01595 -0.02927 0.07185
v 0.02926 -0.01064 0.04791
v 0.05855 0.01596 0.07185
v -0.04788 -0.01862 0.06387
v -0.00265 0.01064 0.08516
v 0.05587 -0.00266 0.07451
v -0.03458 0.02394 0.07185
v 0.01063 0.02660 0.04791
v 0.03991 -0.02128 0.07185
v -0.04522 0.00266 0.07185
v 0.01595 -0.02927 0.06653
v 0.03991 0.02660 0.06387
v -0.03192 0.01330 0.05323
v -0.02660 0.02660 0.06387
v -0.04522 -0.02394 0.06387
v -0.00265 -0.02128 0.04791
v 0.00797 0.00798 0.08516
v 0.00001 -0.02927 0.07451
v 0.03991 0.00000 0.04791
v 0.04256 0.02394 0.07451
v 0.03991 -0.02128 0.06653
v 0.00533 -0.00798 0.08516
v -0.01596 0.02660 0.07717
v -0.02394 -0.00798 0.04791
v -0.00798 -0.02927 0.06653
v 0.02660 0.02660 0.04791
v 0.03458 -0.02128 0.07451
v -0.04522 -0.01862 0.07185
v 0.00267 0.03193 0.06653
v 0.05587 0.01330 0.07451
v -0.04257 0.01330 0.06387
v -0.00531 0.00798 0.08516
v -0.03192 0.02128 0.07451
v 0.03724 0.02128 0.07717
v 0.05855 0.01596 0.06919
v 0.00001 0.03193 0.07185
v 0.01330 -0.02394 0.07717
v -0.01063 -0.02394 0.07717
v 0.00533 0.01862 0.08249
v -0.03458 0.02394 0.06653
v 0.00797 -0.01862 0.04791
v -0.03192 -0.01862 0.05323
v -0.04788 -0.01064 0.06387
v 0.03991 0.02660 0.07185
v -0.04788 -0.02128 0.06919
v -0.00798 -0.02128 0.04791
v -0.02394 0.01330 0.04791
v 0.01063 0.03193 0.06653
v 0.03991 -0.01862 0.07451
v -0.03724 0.01064 0.07451
v -0.00531 -0.00532 0.08516
v -0.02394 0.01862 0.05057
v -0.00798 0.02394 0.07983
v -0.00798 -0.02927 0.07185
v -0.04257 0.01330 0.07185
f 311 294 316 
f 253 258 259 
f 253 259 263 
f 256 264 267 
f 259 258 269 
f 256 267 270 
f 270 262 272 
f 269 258 275 
f 253 263 277 
f 266 261 278 
f 272 262 279 
f 259 256 280 
f 263 259 280 
f 256 270 282 
f 270 272 282 
f 280 256 282 
f 263 280 282 
f 278 261 283 
f 267 278 283 
f 261 279 283 
f 258 253 285 
f 277 272 286 
f 272 279 286 
f 259 269 287 
f 273 259 287 
f 262 270 288 
f 257 261 289 
f 269 275 290 
f 287 269 290 
f 267 264 291 
f 278 267 291 
f 264 281 291 
f 261 266 293 
f 266 284 294 
f 284 268 294 
f 293 266 294 
f 281 255 295 
f 278 291 295 
f 291 281 295 
f 256 259 296 
f 264 256 296 
f 273 264 296 
f 259 273 296 
f 255 254 297 
f 275 268 297 
f 284 255 297 
f 268 284 297 
f 290 275 297 
f 254 290 297 
f 279 262 298 
f 283 279 298 
f 262 288 298 
f 288 283 298 
f 261 257 299 
f 257 279 299 
f 279 261 299 
f 266 278 300 
f 295 255 300 
f 278 295 300 
f 260 268 301 
f 268 275 301 
f 292 260 301 
f 272 277 302 
f 277 263 302 
f 282 272 302 
f 263 282 302 
f 253 276 303 
f 276 265 303 
f 285 253 303 
f 265 285 303 
f 271 260 304 
f 285 265 304 
f 260 292 304 
f 292 274 304 
f 254 255 305 
f 273 254 305 
f 264 273 305 
f 255 281 305 
f 281 264 305 
f 276 257 306 
f 265 276 306 
f 257 289 306 
f 289 271 306 
f 304 265 306 
f 271 304 306 
f 276 253 307 
f 253 277 307 
f 286 276 307 
f 277 286 307 
f 258 285 308 
f 304 274 308 
f 285 304 308 
f 254 273 309 
f 273 287 309 
f 290 254 309 
f 287 290 309 
f 270 267 310 
f 267 283 310 
f 288 270 310 
f 283 288 310 
f 271 289 311 
f 293 294 311 
f 289 261 312 
f 261 293 312 
f 311 289 312 
f 293 311 312 
f 275 258 313 
f 274 292 313 
f 301 275 313 
f 292 301 313 
f 258 308 313 
f 308 274 313 
f 255 284 314 
f 284 266 314 
f 266 300 314 
f 300 255 314 
f 257 276 315 
f 279 257 315 
f 276 286 315 
f 286 279 315 
f 268 260 316 
f 260 271 316 
f 294 268 316 
f 271 311 316 
