# Original object name hint: convex_2
v -0.03703 -0.05680 -0.04198
v 0.02716 -0.05434 0.02222
v 0.02716 -0.05680 0.02222
v -0.04938 -0.04693 0.01235
v -0.02469 -0.05927 0.02964
v 0.00246 -0.06421 -0.04939
v -0.00742 -0.04693 -0.01728
v -0.03457 -0.06174 -0.02469
v 0.02221 -0.05680 -0.02716
v -0.05185 -0.04693 -0.01975
v -0.00248 -0.05680 -0.04939
v -0.00742 -0.04693 0.01481
v -0.04692 -0.05680 -0.00495
v 0.02469 -0.05927 0.02469
v -0.02469 -0.06421 -0.03704
v -0.00248 -0.05680 0.03211
v 0.02469 -0.05187 0.02222
v -0.03457 -0.06174 -0.04444
v 0.00740 -0.06421 -0.03457
v 0.00740 -0.04940 -0.01728
v 0.01975 -0.06174 -0.02716
v -0.04444 -0.05680 0.01235
v -0.05434 -0.04940 -0.01481
v -0.03950 -0.04693 0.01729
v -0.02963 -0.05680 -0.04692
v -0.00248 -0.05927 0.03211
v -0.04938 -0.04693 -0.02221
v -0.00248 -0.04693 -0.01233
v -0.01975 -0.06421 -0.03209
v 0.02221 -0.05434 0.02716
v -0.03703 -0.05927 0.00988
v -0.00989 -0.06421 -0.04939
v 0.00493 -0.05927 -0.04939
v 0.02469 -0.05187 0.01481
v -0.04692 -0.05680 -0.02221
v -0.03457 -0.04693 -0.02221
v -0.02469 -0.05680 0.02964
v -0.04692 -0.05187 0.01481
v -0.05434 -0.04940 -0.00742
v 0.02221 -0.05927 -0.02716
v -0.02469 -0.04693 0.01729
v 0.00493 -0.06421 -0.03209
v 0.00740 -0.05187 -0.02716
v 0.02221 -0.05927 0.02716
v 0.00246 -0.05680 -0.04692
v -0.05185 -0.05187 -0.01975
v -0.05434 -0.04693 -0.00742
v -0.00989 -0.05680 -0.04939
v 0.02716 -0.05434 0.01481
v -0.01481 -0.04693 -0.01975
v -0.02469 -0.06421 -0.04444
v 0.00246 -0.04940 -0.02221
v -0.02963 -0.06174 -0.04692
v -0.04692 -0.04693 0.01481
v -0.00742 -0.05680 0.03211
v 0.02716 -0.05680 0.01481
v -0.00248 -0.04693 -0.00495
v 0.00493 -0.06421 -0.04692
v 0.01234 -0.05927 0.02964
v -0.04692 -0.05434 0.01235
v -0.04938 -0.04940 0.01235
v 0.01975 -0.06174 -0.01975
v -0.07409 -0.02716 0.01976
v 0.02963 0.06421 0.01976
v 0.02963 0.06421 0.01728
v 0.03952 -0.03210 -0.00740
v -0.06173 0.05679 -0.02962
v -0.02469 0.02469 0.04938
v -0.06173 -0.03209 -0.02962
v 0.03952 0.05433 -0.01727
v 0.02223 -0.02469 0.03704
v -0.07162 0.03951 0.03457
v -0.01483 -0.04198 0.03457
v 0.03952 0.02221 0.03704
v -0.00001 0.06173 0.03704
v -0.05185 -0.04691 -0.01975
v -0.07162 -0.01480 0.03951
v -0.07903 0.02962 0.00495
v 0.03952 -0.02469 -0.01481
v -0.06420 -0.02469 -0.03210
v -0.07162 0.05433 0.00742
v -0.00742 -0.04691 -0.01480
v 0.00494 0.01481 0.04939
v -0.04938 -0.04691 0.01481
v -0.07409 -0.02469 -0.01480
v 0.01975 -0.03950 0.01976
v -0.03704 -0.01727 0.04445
v 0.03952 -0.02715 0.01728
v -0.06420 0.05926 -0.02468
v -0.06914 0.04939 -0.02468
v -0.05679 -0.02222 -0.03210
v -0.07903 -0.01233 0.01976
v -0.07162 0.03209 0.03951
v 0.00988 0.06173 0.03704
v -0.00495 -0.04691 0.01481
v 0.00741 0.05926 -0.01727
v 0.00988 0.02469 0.04939
v 0.00494 -0.03704 -0.01975
v 0.03457 0.00248 0.03951
v -0.03210 0.00741 0.04938
v -0.00248 -0.01480 0.04445
v 0.03952 0.04939 0.01728
v -0.07655 0.02222 0.03457
v -0.06173 -0.04198 -0.01975
v 0.00494 -0.01480 -0.02221
v -0.05433 0.05433 -0.02962
v -0.07903 -0.01974 0.00249
v -0.07903 0.03457 0.01728
v -0.07655 0.04198 -0.00492
v -0.04691 0.04444 0.03951
v -0.06914 0.05433 0.01235
v -0.06420 0.05926 -0.01480
v -0.04691 -0.03209 0.03457
v -0.07655 0.01974 -0.00986
v 0.02716 0.02221 0.04445
v 0.02223 -0.00988 0.04198
v 0.03952 0.03457 0.03211
v 0.01481 0.06421 0.01976
v -0.06667 0.02715 0.04198
v -0.05679 -0.00988 -0.03210
v -0.07162 -0.03209 0.01481
v -0.06914 -0.03457 -0.01975
v 0.03952 0.00495 0.03704
v -0.06914 -0.02222 0.03457
v -0.07409 -0.00246 0.03951
v -0.05679 0.05926 -0.02715
v 0.07162 -0.02963 -0.02963
v 0.04199 0.02715 0.03457
v 0.03952 0.02715 0.03457
v 0.06421 0.05926 -0.02468
v 0.07656 0.03703 0.01975
v 0.03952 -0.02716 -0.01481
v 0.07162 -0.02963 0.01728
v 0.03952 0.05432 -0.01728
v 0.06421 0.06174 0.00988
v 0.03952 -0.02963 0.01235
v 0.07409 0.04938 -0.02715
v 0.06174 -0.00740 -0.03457
v 0.07903 0.01236 0.00000
v 0.04199 0.00495 0.03457
v 0.06915 0.00989 0.02963
v 0.03952 0.04938 0.01482
v 0.07656 -0.02222 0.01482
v 0.06174 0.04444 -0.03210
v 0.05928 -0.03457 -0.02221
v 0.07409 0.05926 0.00493
v 0.07409 -0.02222 -0.02963
v 0.07162 -0.03457 0.00493
v 0.07162 -0.00740 -0.03457
v 0.05928 -0.02716 -0.03210
v 0.06915 0.05432 0.01728
v 0.07903 0.03209 0.01235
v 0.07656 -0.02716 -0.00493
v 0.07656 0.04444 -0.01728
v 0.03952 -0.03210 0.00000
v 0.06668 0.02221 0.02963
v 0.06915 -0.02222 0.02222
v 0.07162 0.06174 -0.01234
v 0.07162 0.04444 -0.03210
v 0.06174 -0.03457 0.00988
v 0.06174 -0.02716 0.01975
v 0.07656 -0.01234 -0.01974
v 0.03952 0.00001 0.03210
v 0.06421 0.06174 -0.01481
v 0.07162 -0.03457 -0.01728
v 0.04199 0.04691 -0.01974
v 0.03952 0.03209 0.03210
v 0.07656 0.00248 0.01975
v 0.07656 0.05185 -0.00740
v 0.06915 -0.02222 -0.03457
v 0.07656 0.05185 0.00988
v 0.06421 0.05432 -0.02963
v 0.07903 0.02715 -0.00246
v 0.03952 0.05432 -0.00987
v 0.06915 0.05926 -0.02468
v 0.07656 0.03456 -0.01974
v 0.06421 0.00989 -0.03457
v 0.07409 -0.01975 0.01975
v 0.07903 0.01480 0.01235
v 0.07409 0.02715 0.02469
v 0.07409 0.05432 0.01482
v 0.03952 -0.03210 -0.00740
v 0.06174 -0.02222 -0.03457
v 0.07162 0.06174 0.00741
v 0.07656 -0.02716 0.00741
v 0.05434 -0.03457 0.00000
v 0.03952 -0.02716 0.01482
v 0.06421 0.00248 0.02963
v 0.05928 -0.03210 -0.02715
v 0.07162 0.03950 0.02222
f 131 181 190 
f 132 129 134 
f 129 132 136 
f 128 129 140 
f 128 140 141 
f 134 129 142 
f 137 147 149 
f 127 147 153 
f 136 132 155 
f 128 141 156 
f 137 149 159 
f 148 133 160 
f 145 148 160 
f 136 155 160 
f 133 157 161 
f 157 140 161 
f 160 133 161 
f 136 160 161 
f 139 153 162 
f 153 147 162 
f 129 136 163 
f 140 129 163 
f 161 140 163 
f 130 134 164 
f 134 135 164 
f 135 158 164 
f 145 127 165 
f 148 145 165 
f 127 153 165 
f 153 148 165 
f 132 134 166 
f 134 144 166 
f 144 138 166 
f 129 128 167 
f 142 129 167 
f 135 142 167 
f 128 151 167 
f 151 135 167 
f 152 131 168 
f 154 137 169 
f 137 158 169 
f 158 146 169 
f 147 127 170 
f 138 149 170 
f 149 147 170 
f 127 150 170 
f 131 152 171 
f 169 146 171 
f 152 169 171 
f 134 130 172 
f 144 134 172 
f 159 144 172 
f 152 139 173 
f 139 162 173 
f 169 152 173 
f 154 169 173 
f 135 134 174 
f 134 142 174 
f 142 135 174 
f 158 137 175 
f 137 159 175 
f 130 164 175 
f 164 158 175 
f 172 130 175 
f 159 172 175 
f 147 137 176 
f 137 154 176 
f 162 147 176 
f 173 162 176 
f 154 173 176 
f 138 144 177 
f 149 138 177 
f 144 159 177 
f 159 149 177 
f 133 143 178 
f 157 133 178 
f 141 157 178 
f 168 141 178 
f 143 168 178 
f 139 152 179 
f 168 143 179 
f 152 168 179 
f 156 141 180 
f 168 131 180 
f 141 168 180 
f 131 171 181 
f 171 146 181 
f 155 132 182 
f 150 132 183 
f 132 166 183 
f 166 138 183 
f 138 170 183 
f 170 150 183 
f 135 151 184 
f 158 135 184 
f 146 158 184 
f 181 146 184 
f 151 181 184 
f 143 133 185 
f 133 148 185 
f 153 139 185 
f 148 153 185 
f 139 179 185 
f 179 143 185 
f 145 160 186 
f 160 155 186 
f 182 145 186 
f 155 182 186 
f 136 161 187 
f 163 136 187 
f 161 163 187 
f 141 140 188 
f 140 157 188 
f 157 141 188 
f 127 145 189 
f 132 150 189 
f 150 127 189 
f 182 132 189 
f 145 182 189 
f 151 128 190 
f 128 156 190 
f 180 131 190 
f 156 180 190 
f 181 151 190 
