# Original object name hint: convex_1
v -0.03703 -0.05680 -0.04198
v 0.02716 -0.05434 0.02222
v 0.02716 -0.05680 0.02222
v -0.04938 -0.04693 0.01235
v -0.02469 -0.05927 0.02964
v 0.00246 -0.06421 -0.04939
v -0.00742 -0.04693 -0.01728
v -0.03457 -0.06174 -0.02469
v 0.02221 -0.05680 -0.02716
v -0.05185 -0.04693 -0.01975
v -0.00248 -0.05680 -0.04939
v -0.00742 -0.04693 0.01481
v -0.04692 -0.05680 -0.00495
v 0.02469 -0.05927 0.02469
v -0.02469 -0.06421 -0.03704
v -0.00248 -0.05680 0.03211
v 0.02469 -0.05187 0.02222
v -0.03457 -0.06174 -0.04444
v 0.00740 -0.06421 -0.03457
v 0.00740 -0.04940 -0.01728
v 0.01975 -0.06174 -0.02716
v -0.04444 -0.05680 0.01235
v -0.05434 -0.04940 -0.01481
v -0.03950 -0.04693 0.01729
v -0.02963 -0.05680 -0.04692
v -0.00248 -0.05927 0.03211
v -0.04938 -0.04693 -0.02221
v -0.00248 -0.04693 -0.01233
v -0.01975 -0.06421 -0.03209
v 0.02221 -0.05434 0.02716
v -0.03703 -0.05927 0.00988
v -0.00989 -0.06421 -0.04939
v 0.00493 -0.05927 -0.04939
v 0.02469 -0.05187 0.01481
v -0.04692 -0.05680 -0.02221
v -0.03457 -0.04693 -0.02221
v -0.02469 -0.05680 0.02964
v -0.04692 -0.05187 0.01481
v -0.05434 -0.04940 -0.00742
v 0.02221 -0.05927 -0.02716
v -0.02469 -0.04693 0.01729
v 0.00493 -0.06421 -0.03209
v 0.00740 -0.05187 -0.02716
v 0.02221 -0.05927 0.02716
v 0.00246 -0.05680 -0.04692
v -0.05185 -0.05187 -0.01975
v -0.05434 -0.04693 -0.00742
v -0.00989 -0.05680 -0.04939
v 0.02716 -0.05434 0.01481
v -0.01481 -0.04693 -0.01975
v -0.02469 -0.06421 -0.04444
v 0.00246 -0.04940 -0.02221
v -0.02963 -0.06174 -0.04692
v -0.04692 -0.04693 0.01481
v -0.00742 -0.05680 0.03211
v 0.02716 -0.05680 0.01481
v -0.00248 -0.04693 -0.00495
v 0.00493 -0.06421 -0.04692
v 0.01234 -0.05927 0.02964
v -0.04692 -0.05434 0.01235
v -0.04938 -0.04940 0.01235
v 0.01975 -0.06174 -0.01975
v -0.07409 -0.02716 0.01976
v 0.02963 0.06421 0.01976
v 0.02963 0.06421 0.01728
v 0.03952 -0.03210 -0.00740
v -0.06173 0.05679 -0.02962
v -0.02469 0.02469 0.04938
v -0.06173 -0.03209 -0.02962
v 0.03952 0.05433 -0.01727
v 0.02223 -0.02469 0.03704
v -0.07162 0.03951 0.03457
v -0.01483 -0.04198 0.03457
v 0.03952 0.02221 0.03704
v -0.00001 0.06173 0.03704
v -0.05185 -0.04691 -0.01975
v -0.07162 -0.01480 0.03951
v -0.07903 0.02962 0.00495
v 0.03952 -0.02469 -0.01481
v -0.06420 -0.02469 -0.03210
v -0.07162 0.05433 0.00742
v -0.00742 -0.04691 -0.01480
v 0.00494 0.01481 0.04939
v -0.04938 -0.04691 0.01481
v -0.07409 -0.02469 -0.01480
v 0.01975 -0.03950 0.01976
v -0.03704 -0.01727 0.04445
v 0.03952 -0.02715 0.01728
v -0.06420 0.05926 -0.02468
v -0.06914 0.04939 -0.02468
v -0.05679 -0.02222 -0.03210
v -0.07903 -0.01233 0.01976
v -0.07162 0.03209 0.03951
v 0.00988 0.06173 0.03704
v -0.00495 -0.04691 0.01481
v 0.00741 0.05926 -0.01727
v 0.00988 0.02469 0.04939
v 0.00494 -0.03704 -0.01975
v 0.03457 0.00248 0.03951
v -0.03210 0.00741 0.04938
v -0.00248 -0.01480 0.04445
v 0.03952 0.04939 0.01728
v -0.07655 0.02222 0.03457
v -0.06173 -0.04198 -0.01975
v 0.00494 -0.01480 -0.02221
v -0.05433 0.05433 -0.02962
v -0.07903 -0.01974 0.00249
v -0.07903 0.03457 0.01728
v -0.07655 0.04198 -0.00492
v -0.04691 0.04444 0.03951
v -0.06914 0.05433 0.01235
v -0.06420 0.05926 -0.01480
v -0.04691 -0.03209 0.03457
v -0.07655 0.01974 -0.00986
v 0.02716 0.02221 0.04445
v 0.02223 -0.00988 0.04198
v 0.03952 0.03457 0.03211
v 0.01481 0.06421 0.01976
v -0.06667 0.02715 0.04198
v -0.05679 -0.00988 -0.03210
v -0.07162 -0.03209 0.01481
v -0.06914 -0.03457 -0.01975
v 0.03952 0.00495 0.03704
v -0.06914 -0.02222 0.03457
v -0.07409 -0.00246 0.03951
v -0.05679 0.05926 -0.02715
v 0.07162 -0.02963 -0.02963
v 0.04199 0.02715 0.03457
v 0.03952 0.02715 0.03457
v 0.06421 0.05926 -0.02468
v 0.07656 0.03703 0.01975
v 0.03952 -0.02716 -0.01481
v 0.07162 -0.02963 0.01728
v 0.03952 0.05432 -0.01728
v 0.06421 0.06174 0.00988
v 0.03952 -0.02963 0.01235
v 0.07409 0.04938 -0.02715
v 0.06174 -0.00740 -0.03457
v 0.07903 0.01236 0.00000
v 0.04199 0.00495 0.03457
v 0.06915 0.00989 0.02963
v 0.03952 0.04938 0.01482
v 0.07656 -0.02222 0.01482
v 0.06174 0.04444 -0.03210
v 0.05928 -0.03457 -0.02221
v 0.07409 0.05926 0.00493
v 0.07409 -0.02222 -0.02963
v 0.07162 -0.03457 0.00493
v 0.07162 -0.00740 -0.03457
v 0.05928 -0.02716 -0.03210
v 0.06915 0.05432 0.01728
v 0.07903 0.03209 0.01235
v 0.07656 -0.02716 -0.00493
v 0.07656 0.04444 -0.01728
v 0.03952 -0.03210 0.00000
v 0.06668 0.02221 0.02963
v 0.06915 -0.02222 0.02222
v 0.07162 0.06174 -0.01234
v 0.07162 0.04444 -0.03210
v 0.06174 -0.03457 0.00988
v 0.06174 -0.02716 0.01975
v 0.07656 -0.01234 -0.01974
v 0.03952 0.00001 0.03210
v 0.06421 0.06174 -0.01481
v 0.07162 -0.03457 -0.01728
v 0.04199 0.04691 -0.01974
v 0.03952 0.03209 0.03210
v 0.07656 0.00248 0.01975
v 0.07656 0.05185 -0.00740
v 0.06915 -0.02222 -0.03457
v 0.07656 0.05185 0.00988
v 0.06421 0.05432 -0.02963
v 0.07903 0.02715 -0.00246
v 0.03952 0.05432 -0.00987
v 0.06915 0.05926 -0.02468
v 0.07656 0.03456 -0.01974
v 0.06421 0.00989 -0.03457
v 0.07409 -0.01975 0.01975
v 0.07903 0.01480 0.01235
v 0.07409 0.02715 0.02469
v 0.07409 0.05432 0.01482
v 0.03952 -0.03210 -0.00740
v 0.06174 -0.02222 -0.03457
v 0.07162 0.06174 0.00741
v 0.07656 -0.02716 0.00741
v 0.05434 -0.03457 0.00000
v 0.03952 -0.02716 0.01482
v 0.06421 0.00248 0.02963
v 0.05928 -0.03210 -0.02715
v 0.07162 0.03950 0.02222
f 89 118 126 
f 65 64 70 
f 66 70 74 
f 70 66 79 
f 76 82 84 
f 71 73 86 
f 82 66 86 
f 66 74 88 
f 86 66 88 
f 71 86 88 
f 67 80 90 
f 80 85 90 
f 89 67 90 
f 69 80 91 
f 63 77 92 
f 64 75 94 
f 73 84 95 
f 84 82 95 
f 86 73 95 
f 82 86 95 
f 65 70 96 
f 75 68 97 
f 68 83 97 
f 94 75 97 
f 76 69 98 
f 79 66 98 
f 66 82 98 
f 82 76 98 
f 69 91 98 
f 83 68 100 
f 77 87 100 
f 73 71 101 
f 87 73 101 
f 83 100 101 
f 100 87 101 
f 70 64 102 
f 74 70 102 
f 93 72 103 
f 69 76 104 
f 76 84 104 
f 70 79 105 
f 91 70 105 
f 79 98 105 
f 98 91 105 
f 67 70 106 
f 63 92 107 
f 92 78 107 
f 72 81 108 
f 78 92 108 
f 103 72 108 
f 92 103 108 
f 81 89 109 
f 89 90 109 
f 108 81 109 
f 78 108 109 
f 75 72 110 
f 68 75 110 
f 72 93 110 
f 72 75 111 
f 81 72 111 
f 89 81 112 
f 111 75 112 
f 81 111 112 
f 84 73 113 
f 73 87 113 
f 87 77 113 
f 90 85 114 
f 107 78 114 
f 85 107 114 
f 109 90 114 
f 78 109 114 
f 94 97 115 
f 99 115 116 
f 97 83 116 
f 71 99 116 
f 101 71 116 
f 83 101 116 
f 115 97 116 
f 64 94 117 
f 102 64 117 
f 74 102 117 
f 115 74 117 
f 94 115 117 
f 64 65 118 
f 75 64 118 
f 112 75 118 
f 89 112 118 
f 100 68 119 
f 68 110 119 
f 110 93 119 
f 80 67 120 
f 70 91 120 
f 91 80 120 
f 67 106 120 
f 106 70 120 
f 104 84 121 
f 63 107 121 
f 121 107 122 
f 80 69 122 
f 85 80 122 
f 69 104 122 
f 107 85 122 
f 104 121 122 
f 88 74 123 
f 71 88 123 
f 99 71 123 
f 74 115 123 
f 115 99 123 
f 77 63 124 
f 113 77 124 
f 84 113 124 
f 63 121 124 
f 121 84 124 
f 92 77 125 
f 77 100 125 
f 103 92 125 
f 93 103 125 
f 119 93 125 
f 100 119 125 
f 70 67 126 
f 67 89 126 
f 96 70 126 
f 65 96 126 
f 118 65 126 
