# Original object name hint: convex_0
v -0.03703 -0.05680 -0.04198
v 0.02716 -0.05434 0.02222
v 0.02716 -0.05680 0.02222
v -0.04938 -0.04693 0.01235
v -0.02469 -0.05927 0.02964
v 0.00246 -0.06421 -0.04939
v -0.00742 -0.04693 -0.01728
v -0.03457 -0.06174 -0.02469
v 0.02221 -0.05680 -0.02716
v -0.05185 -0.04693 -0.01975
v -0.00248 -0.05680 -0.04939
v -0.00742 -0.04693 0.01481
v -0.04692 -0.05680 -0.00495
v 0.02469 -0.05927 0.02469
v -0.02469 -0.06421 -0.03704
v -0.00248 -0.05680 0.03211
v 0.02469 -0.05187 0.02222
v -0.03457 -0.06174 -0.04444
v 0.00740 -0.06421 -0.03457
v 0.00740 -0.04940 -0.01728
v 0.01975 -0.06174 -0.02716
v -0.04444 -0.05680 0.01235
v -0.05434 -0.04940 -0.01481
v -0.03950 -0.04693 0.01729
v -0.02963 -0.05680 -0.04692
v -0.00248 -0.05927 0.03211
v -0.04938 -0.04693 -0.02221
v -0.00248 -0.04693 -0.01233
v -0.01975 -0.06421 -0.03209
v 0.02221 -0.05434 0.02716
v -0.03703 -0.05927 0.00988
v -0.00989 -0.06421 -0.04939
v 0.00493 -0.05927 -0.04939
v 0.02469 -0.05187 0.01481
v -0.04692 -0.05680 -0.02221
v -0.03457 -0.04693 -0.02221
v -0.02469 -0.05680 0.02964
v -0.04692 -0.05187 0.01481
v -0.05434 -0.04940 -0.00742
v 0.02221 -0.05927 -0.02716
v -0.02469 -0.04693 0.01729
v 0.00493 -0.06421 -0.03209
v 0.00740 -0.05187 -0.02716
v 0.02221 -0.05927 0.02716
v 0.00246 -0.05680 -0.04692
v -0.05185 -0.05187 -0.01975
v -0.05434 -0.04693 -0.00742
v -0.00989 -0.05680 -0.04939
v 0.02716 -0.05434 0.01481
v -0.01481 -0.04693 -0.01975
v -0.02469 -0.06421 -0.04444
v 0.00246 -0.04940 -0.02221
v -0.02963 -0.06174 -0.04692
v -0.04692 -0.04693 0.01481
v -0.00742 -0.05680 0.03211
v 0.02716 -0.05680 0.01481
v -0.00248 -0.04693 -0.00495
v 0.00493 -0.06421 -0.04692
v 0.01234 -0.05927 0.02964
v -0.04692 -0.05434 0.01235
v -0.04938 -0.04940 0.01235
v 0.01975 -0.06174 -0.01975
v -0.07409 -0.02716 0.01976
v 0.02963 0.06421 0.01976
v 0.02963 0.06421 0.01728
v 0.03952 -0.03210 -0.00740
v -0.06173 0.05679 -0.02962
v -0.02469 0.02469 0.04938
v -0.06173 -0.03209 -0.02962
v 0.03952 0.05433 -0.01727
v 0.02223 -0.02469 0.03704
v -0.07162 0.03951 0.03457
v -0.01483 -0.04198 0.03457
v 0.03952 0.02221 0.03704
v -0.00001 0.06173 0.03704
v -0.05185 -0.04691 -0.01975
v -0.07162 -0.01480 0.03951
v -0.07903 0.02962 0.00495
v 0.03952 -0.02469 -0.01481
v -0.06420 -0.02469 -0.03210
v -0.07162 0.05433 0.00742
v -0.00742 -0.04691 -0.01480
v 0.00494 0.01481 0.04939
v -0.04938 -0.04691 0.01481
v -0.07409 -0.02469 -0.01480
v 0.01975 -0.03950 0.01976
v -0.03704 -0.01727 0.04445
v 0.03952 -0.02715 0.01728
v -0.06420 0.05926 -0.02468
v -0.06914 0.04939 -0.02468
v -0.05679 -0.02222 -0.03210
v -0.07903 -0.01233 0.01976
v -0.07162 0.03209 0.03951
v 0.00988 0.06173 0.03704
v -0.00495 -0.04691 0.01481
v 0.00741 0.05926 -0.01727
v 0.00988 0.02469 0.04939
v 0.00494 -0.03704 -0.01975
v 0.03457 0.00248 0.03951
v -0.03210 0.00741 0.04938
v -0.00248 -0.01480 0.04445
v 0.03952 0.04939 0.01728
v -0.07655 0.02222 0.03457
v -0.06173 -0.04198 -0.01975
v 0.00494 -0.01480 -0.02221
v -0.05433 0.05433 -0.02962
v -0.07903 -0.01974 0.00249
v -0.07903 0.03457 0.01728
v -0.07655 0.04198 -0.00492
v -0.04691 0.04444 0.03951
v -0.06914 0.05433 0.01235
v -0.06420 0.05926 -0.01480
v -0.04691 -0.03209 0.03457
v -0.07655 0.01974 -0.00986
v 0.02716 0.02221 0.04445
v 0.02223 -0.00988 0.04198
v 0.03952 0.03457 0.03211
v 0.01481 0.06421 0.01976
v -0.06667 0.02715 0.04198
v -0.05679 -0.00988 -0.03210
v -0.07162 -0.03209 0.01481
v -0.06914 -0.03457 -0.01975
v 0.03952 0.00495 0.03704
v -0.06914 -0.02222 0.03457
v -0.07409 -0.00246 0.03951
v -0.05679 0.05926 -0.02715
v 0.07162 -0.02963 -0.02963
v 0.04199 0.02715 0.03457
v 0.03952 0.02715 0.03457
v 0.06421 0.05926 -0.02468
v 0.07656 0.03703 0.01975
v 0.03952 -0.02716 -0.01481
v 0.07162 -0.02963 0.01728
v 0.03952 0.05432 -0.01728
v 0.06421 0.06174 0.00988
v 0.03952 -0.02963 0.01235
v 0.07409 0.04938 -0.02715
v 0.06174 -0.00740 -0.03457
v 0.07903 0.01236 0.00000
v 0.04199 0.00495 0.03457
v 0.06915 0.00989 0.02963
v 0.03952 0.04938 0.01482
v 0.07656 -0.02222 0.01482
v 0.06174 0.04444 -0.03210
v 0.05928 -0.03457 -0.02221
v 0.07409 0.05926 0.00493
v 0.07409 -0.02222 -0.02963
v 0.07162 -0.03457 0.00493
v 0.07162 -0.00740 -0.03457
v 0.05928 -0.02716 -0.03210
v 0.06915 0.05432 0.01728
v 0.07903 0.03209 0.01235
v 0.07656 -0.02716 -0.00493
v 0.07656 0.04444 -0.01728
v 0.03952 -0.03210 0.00000
v 0.06668 0.02221 0.02963
v 0.06915 -0.02222 0.02222
v 0.07162 0.06174 -0.01234
v 0.07162 0.04444 -0.03210
v 0.06174 -0.03457 0.00988
v 0.06174 -0.02716 0.01975
v 0.07656 -0.01234 -0.01974
v 0.03952 0.00001 0.03210
v 0.06421 0.06174 -0.01481
v 0.07162 -0.03457 -0.01728
v 0.04199 0.04691 -0.01974
v 0.03952 0.03209 0.03210
v 0.07656 0.00248 0.01975
v 0.07656 0.05185 -0.00740
v 0.06915 -0.02222 -0.03457
v 0.07656 0.05185 0.00988
v 0.06421 0.05432 -0.02963
v 0.07903 0.02715 -0.00246
v 0.03952 0.05432 -0.00987
v 0.06915 0.05926 -0.02468
v 0.07656 0.03456 -0.01974
v 0.06421 0.00989 -0.03457
v 0.07409 -0.01975 0.01975
v 0.07903 0.01480 0.01235
v 0.07409 0.02715 0.02469
v 0.07409 0.05432 0.01482
v 0.03952 -0.03210 -0.00740
v 0.06174 -0.02222 -0.03457
v 0.07162 0.06174 0.00741
v 0.07656 -0.02716 0.00741
v 0.05434 -0.03457 0.00000
v 0.03952 -0.02716 0.01482
v 0.06421 0.00248 0.02963
v 0.05928 -0.03210 -0.02715
v 0.07162 0.03950 0.02222
f 19 21 62 
f 4 7 10 
f 7 4 12 
f 3 2 14 
f 8 13 18 
f 15 8 18 
f 15 6 19 
f 13 8 22 
f 12 4 24 
f 18 1 25 
f 10 7 27 
f 1 10 27 
f 25 1 27 
f 7 12 28 
f 20 7 28 
f 5 15 29 
f 15 19 29 
f 26 5 29 
f 14 2 30 
f 2 17 30 
f 8 15 31 
f 15 5 31 
f 5 22 31 
f 22 8 31 
f 11 6 32 
f 6 15 32 
f 6 11 33 
f 17 2 34 
f 9 20 34 
f 28 17 34 
f 20 28 34 
f 18 13 35 
f 13 23 35 
f 27 7 36 
f 11 27 36 
f 5 37 38 
f 23 13 39 
f 33 9 40 
f 17 12 41 
f 12 24 41 
f 24 16 41 
f 30 17 41 
f 16 30 41 
f 19 14 42 
f 29 19 42 
f 26 29 42 
f 20 9 43 
f 14 30 44 
f 42 14 44 
f 33 11 45 
f 9 33 45 
f 43 9 45 
f 10 1 46 
f 1 18 46 
f 23 10 46 
f 18 35 46 
f 35 23 46 
f 4 10 47 
f 10 23 47 
f 39 4 47 
f 23 39 47 
f 27 11 48 
f 25 27 48 
f 11 32 48 
f 32 25 48 
f 2 3 49 
f 34 2 49 
f 9 34 49 
f 40 9 49 
f 7 11 50 
f 36 7 50 
f 11 36 50 
f 15 18 51 
f 32 15 51 
f 11 7 52 
f 7 20 52 
f 20 43 52 
f 45 11 52 
f 43 45 52 
f 18 25 53 
f 25 32 53 
f 51 18 53 
f 32 51 53 
f 24 4 54 
f 37 24 54 
f 4 38 54 
f 38 37 54 
f 16 24 55 
f 5 26 55 
f 26 16 55 
f 37 5 55 
f 24 37 55 
f 3 14 56 
f 14 21 56 
f 21 40 56 
f 49 3 56 
f 40 49 56 
f 12 17 57 
f 28 12 57 
f 17 28 57 
f 19 6 58 
f 21 19 58 
f 6 33 58 
f 40 21 58 
f 33 40 58 
f 16 26 59 
f 30 16 59 
f 26 42 59 
f 44 30 59 
f 42 44 59 
f 22 5 60 
f 13 22 60 
f 5 38 60 
f 39 13 60 
f 39 60 61 
f 38 4 61 
f 4 39 61 
f 60 38 61 
f 14 19 62 
f 21 14 62 
