# Original object name hint: convex_3
v 0.05616 -0.01143 -0.03952
v 0.06447 0.01352 0.03328
v 0.06447 0.01975 0.02911
v 0.04576 0.01144 0.03119
v 0.05616 0.04473 -0.02912
v 0.05824 -0.04680 0.00415
v 0.06656 0.01352 -0.01664
v 0.04784 0.00104 -0.03328
v 0.04784 -0.03639 -0.00832
v 0.05824 -0.03848 -0.03536
v 0.06239 0.04473 -0.00001
v 0.06239 -0.04055 0.00831
v 0.06239 0.02808 -0.03536
v 0.05200 -0.03015 0.01871
v 0.04992 0.02393 -0.03328
v 0.06656 0.00104 0.02911
v 0.05200 -0.04263 -0.02912
v 0.06656 0.03224 -0.00415
v 0.04576 -0.00104 0.03119
v 0.06239 -0.00727 -0.03744
v 0.06239 -0.04055 -0.00623
v 0.04576 0.01560 0.01039
v 0.05824 0.04473 -0.00001
v 0.06447 -0.00311 0.03119
v 0.04992 -0.04263 -0.00001
v 0.05408 0.01560 -0.03952
v 0.05200 -0.03639 -0.03536
v 0.06032 -0.03223 0.01871
v 0.04576 -0.00519 0.01039
v 0.06656 -0.00104 0.00207
v 0.06239 0.04473 -0.01040
v 0.05616 0.01768 0.03119
v 0.06656 0.02185 0.02079
v 0.05824 -0.04471 -0.02287
v 0.05408 -0.04680 0.00415
v 0.05408 0.00104 0.03328
v 0.06032 -0.03639 -0.03120
v 0.06032 0.01768 -0.03952
v 0.04784 0.01768 -0.02912
v 0.04992 -0.00104 -0.03744
v 0.04992 -0.03848 0.00831
v 0.05408 -0.01975 0.02495
v 0.04576 0.01560 0.01662
v 0.05824 0.04473 -0.02912
v 0.06656 0.03016 -0.01040
v 0.06656 0.00520 -0.01040
v 0.05408 -0.04680 -0.01040
v 0.04784 -0.03639 -0.00209
v 0.06656 -0.00311 0.02079
v 0.06032 -0.00727 -0.03952
v 0.06239 0.03848 -0.02287
v 0.05408 0.02393 -0.03744
v 0.06239 -0.03223 0.01662
v 0.05616 0.01352 0.03328
v 0.06239 0.01768 -0.03744
v 0.05200 -0.04471 -0.02287
v 0.05408 -0.03223 0.01871
v 0.06032 -0.04471 -0.01040
v 0.06239 0.00104 0.03328
v 0.04992 0.01975 -0.03536
v 0.05824 0.02393 0.02495
v 0.05408 -0.00935 -0.03952
v 0.06656 0.03224 0.00207
v 0.06656 0.01352 0.02911
v 0.01246 0.01768 0.01871
v -0.06656 -0.00935 0.00832
v -0.06032 -0.03015 0.00624
v -0.00417 0.03848 0.00208
v 0.01663 -0.03222 0.00416
v -0.01250 -0.01767 0.01871
v -0.05616 0.01768 0.01248
v -0.03328 -0.04886 0.00416
v -0.01873 0.05096 0.00832
v 0.01663 -0.03015 0.01248
v -0.06240 -0.02390 0.01248
v 0.01663 0.02184 0.00832
v -0.00417 0.01143 0.02080
v -0.03536 -0.05096 0.00832
v -0.01666 0.03848 0.00208
v 0.01038 -0.00935 0.02080
v -0.00417 0.05096 0.00832
v -0.06656 0.00311 0.00832
v -0.05408 -0.02390 0.00416
v -0.06656 0.00311 0.01248
v 0.01663 0.01352 0.00416
v 0.01663 0.01975 0.01664
v -0.00833 -0.00310 0.02080
v -0.00417 0.05096 0.00416
v -0.03536 -0.04679 0.01040
v -0.01873 0.05096 0.00624
v -0.02290 -0.04886 0.00416
v 0.01663 -0.01142 0.01871
v -0.05616 -0.03847 0.00624
v -0.05824 0.01559 0.00832
v -0.00417 0.02807 0.00208
v -0.02704 -0.04679 0.01040
v -0.02290 -0.04886 0.00832
v -0.00417 0.01975 0.01871
v 0.01246 0.00520 0.02080
v -0.05408 -0.03222 0.00416
v -0.05824 -0.02806 0.01248
v -0.05824 -0.03431 0.01040
v -0.06656 -0.00935 0.01248
v 0.01663 -0.03222 0.01040
v -0.00833 0.00727 0.02080
v 0.01038 -0.02183 0.01664
v 0.01038 0.01975 0.01871
v -0.01666 0.03223 0.00208
v -0.01250 0.05096 0.00416
v -0.06448 -0.01974 0.01248
v 0.01663 0.02184 0.01456
v 0.01663 0.01352 0.01871
v -0.03536 -0.05096 0.00624
v 0.01663 0.01975 0.00624
v -0.00210 -0.00935 0.02080
v -0.05824 -0.03638 0.00832
v 0.00623 0.01143 0.02080
v 0.01663 -0.01974 0.01664
v -0.02912 -0.05096 0.00832
v -0.06448 -0.01974 0.00832
v -0.05824 0.01559 0.01248
v -0.05408 -0.03015 0.01248
v -0.03952 -0.04886 0.00832
v -0.00417 -0.01767 0.01871
v 0.01454 -0.02599 0.01456
v -0.05616 -0.03847 0.00832
v 0.01246 -0.00726 0.02080
v 0.03743 0.01768 0.01663
v 0.01664 -0.03223 0.00416
v 0.01872 -0.03223 0.00208
v 0.01664 0.01768 0.00624
v 0.01664 -0.01143 0.01871
v 0.04576 -0.00520 0.01040
v 0.04576 -0.00520 0.02080
v 0.04367 0.00936 0.00832
v 0.01664 0.01768 0.01663
v 0.02496 -0.03223 -0.00000
v 0.02496 -0.03015 0.01248
v 0.04576 0.01144 0.02080
v 0.02912 0.00520 0.02080
v 0.04576 0.01560 0.01248
v 0.01664 0.00936 0.00416
v 0.02704 -0.03223 0.00832
v 0.01664 -0.03015 0.01248
v 0.01872 0.01977 0.00832
v 0.02496 -0.02807 -0.00000
v 0.04576 -0.00727 0.01248
v 0.03535 0.01352 0.02080
v 0.01664 0.00936 0.01871
v 0.01664 -0.01975 0.01663
v 0.01872 -0.03431 0.00832
v 0.01872 0.00936 0.00416
v 0.04367 0.01560 0.01040
v 0.01664 0.01977 0.01456
v 0.04576 0.01560 0.01871
v 0.04576 -0.00727 0.01871
v 0.02496 -0.03431 0.00416
v 0.03743 -0.00520 0.02080
v 0.02288 -0.02807 -0.00000
v 0.02704 -0.01351 0.01871
v 0.01872 0.01768 0.00624
v 0.04367 0.00312 0.00832
v 0.02080 -0.03431 0.00208
v 0.04576 0.01352 0.01040
v 0.02912 0.00104 0.02080
v 0.02496 -0.03223 0.01040
v 0.02080 0.01977 0.01456
v 0.03743 0.01768 0.01456
v 0.02080 -0.01351 0.01871
v 0.02080 0.00728 0.00416
v -0.02497 -0.00519 0.03535
v 0.01038 0.01976 0.03327
v 0.01455 0.01768 0.03535
v 0.00623 -0.00727 0.02080
v 0.02287 -0.01351 0.03120
v 0.02703 0.01352 0.02496
v 0.02495 0.00105 0.03952
v -0.00001 0.00520 0.02080
v -0.02289 0.00728 0.03952
v -0.02289 -0.01143 0.03743
v -0.00832 0.01768 0.03120
v 0.02703 -0.00103 0.02496
v 0.02703 0.01560 0.03535
v 0.01871 -0.01560 0.02912
v 0.00414 0.01768 0.02704
v -0.02497 0.00312 0.03535
v -0.01665 -0.00727 0.03952
v 0.00207 -0.00727 0.02080
v -0.00416 0.01560 0.03743
v 0.00623 0.00936 0.03952
v -0.02289 -0.01143 0.03535
v 0.02703 -0.00311 0.03535
v 0.01871 -0.01560 0.03120
v 0.01038 0.00105 0.02080
v 0.01038 0.01976 0.02912
v -0.00832 0.01768 0.03535
v -0.02497 -0.00519 0.03952
v -0.00001 -0.00519 0.03952
v -0.00001 -0.00519 0.02080
v 0.01455 -0.01560 0.02912
v 0.02495 0.00520 0.03952
v -0.02289 0.00728 0.03535
v 0.02703 0.01560 0.02704
v 0.01871 0.01352 0.03743
v 0.02703 -0.00519 0.02704
v -0.00001 0.01976 0.03120
v 0.02287 -0.01351 0.02912
v 0.00831 0.00520 0.02080
v -0.01873 -0.01143 0.03743
v -0.00416 0.01768 0.02912
v 0.02079 0.01768 0.03120
v 0.02703 0.00105 0.03743
v 0.00623 0.01560 0.03743
v -0.01249 0.00936 0.03952
v -0.02497 0.00312 0.03952
v -0.00832 0.01352 0.02912
v 0.02703 -0.00519 0.03327
v 0.03120 0.01768 0.03120
v 0.02704 -0.00311 0.02704
v 0.02704 -0.00311 0.03328
v 0.04576 -0.00311 0.02704
v 0.03536 0.00936 0.02080
v 0.04576 0.00936 0.03120
v 0.04576 -0.00311 0.02080
v 0.04576 0.00936 0.02080
v 0.02704 0.01560 0.02496
v 0.02704 0.01352 0.03536
v 0.04576 -0.00103 0.03120
v 0.02912 0.00105 0.02288
v 0.03328 0.01768 0.02496
v 0.02912 0.00105 0.03536
v 0.03743 -0.00311 0.02080
v 0.02912 0.01560 0.02288
v 0.02912 0.01352 0.03536
v 0.02704 -0.00103 0.02496
v 0.02912 0.01768 0.03120
v 0.03328 0.01768 0.02912
v 0.02704 0.00105 0.03536
v 0.02912 -0.00311 0.03328
v 0.03536 0.01560 0.02288
f 205 192 217 
f 172 173 183 
f 182 176 183 
f 178 171 186 
f 177 179 187 
f 178 174 188 
f 174 184 188 
f 173 172 189 
f 179 177 190 
f 180 171 191 
f 177 175 192 
f 182 183 192 
f 175 177 193 
f 184 175 193 
f 174 178 194 
f 182 174 194 
f 176 182 194 
f 176 185 195 
f 181 179 196 
f 189 172 196 
f 179 189 196 
f 171 180 197 
f 186 171 197 
f 187 179 197 
f 180 187 197 
f 177 187 198 
f 193 177 198 
f 171 178 199 
f 178 188 199 
f 191 171 199 
f 188 191 199 
f 188 184 200 
f 180 191 200 
f 191 188 200 
f 193 180 200 
f 184 193 200 
f 190 177 201 
f 179 181 202 
f 178 186 202 
f 186 179 202 
f 183 176 203 
f 176 195 203 
f 201 183 204 
f 190 201 204 
f 182 192 205 
f 172 195 206 
f 195 185 206 
f 196 172 206 
f 181 196 206 
f 174 182 207 
f 184 174 207 
f 175 184 207 
f 205 175 207 
f 182 205 207 
f 185 176 208 
f 178 185 208 
f 194 178 208 
f 176 194 208 
f 187 180 209 
f 180 193 209 
f 198 187 209 
f 193 198 209 
f 178 181 210 
f 185 178 210 
f 181 206 210 
f 206 185 210 
f 172 183 211 
f 195 172 211 
f 183 203 211 
f 203 195 211 
f 177 192 212 
f 192 183 212 
f 201 177 212 
f 183 201 212 
f 183 173 213 
f 173 189 213 
f 189 190 213 
f 204 183 213 
f 190 204 213 
f 189 179 214 
f 179 190 214 
f 190 189 214 
f 179 186 215 
f 186 197 215 
f 197 179 215 
f 181 178 216 
f 178 202 216 
f 202 181 216 
f 192 175 217 
f 175 205 217 
