# Original object name hint: convex_1
v 0.05616 -0.01143 -0.03952
v 0.06447 0.01352 0.03328
v 0.06447 0.01975 0.02911
v 0.04576 0.01144 0.03119
v 0.05616 0.04473 -0.02912
v 0.05824 -0.04680 0.00415
v 0.06656 0.01352 -0.01664
v 0.04784 0.00104 -0.03328
v 0.04784 -0.03639 -0.00832
v 0.05824 -0.03848 -0.03536
v 0.06239 0.04473 -0.00001
v 0.06239 -0.04055 0.00831
v 0.06239 0.02808 -0.03536
v 0.05200 -0.03015 0.01871
v 0.04992 0.02393 -0.03328
v 0.06656 0.00104 0.02911
v 0.05200 -0.04263 -0.02912
v 0.06656 0.03224 -0.00415
v 0.04576 -0.00104 0.03119
v 0.06239 -0.00727 -0.03744
v 0.06239 -0.04055 -0.00623
v 0.04576 0.01560 0.01039
v 0.05824 0.04473 -0.00001
v 0.06447 -0.00311 0.03119
v 0.04992 -0.04263 -0.00001
v 0.05408 0.01560 -0.03952
v 0.05200 -0.03639 -0.03536
v 0.06032 -0.03223 0.01871
v 0.04576 -0.00519 0.01039
v 0.06656 -0.00104 0.00207
v 0.06239 0.04473 -0.01040
v 0.05616 0.01768 0.03119
v 0.06656 0.02185 0.02079
v 0.05824 -0.04471 -0.02287
v 0.05408 -0.04680 0.00415
v 0.05408 0.00104 0.03328
v 0.06032 -0.03639 -0.03120
v 0.06032 0.01768 -0.03952
v 0.04784 0.01768 -0.02912
v 0.04992 -0.00104 -0.03744
v 0.04992 -0.03848 0.00831
v 0.05408 -0.01975 0.02495
v 0.04576 0.01560 0.01662
v 0.05824 0.04473 -0.02912
v 0.06656 0.03016 -0.01040
v 0.06656 0.00520 -0.01040
v 0.05408 -0.04680 -0.01040
v 0.04784 -0.03639 -0.00209
v 0.06656 -0.00311 0.02079
v 0.06032 -0.00727 -0.03952
v 0.06239 0.03848 -0.02287
v 0.05408 0.02393 -0.03744
v 0.06239 -0.03223 0.01662
v 0.05616 0.01352 0.03328
v 0.06239 0.01768 -0.03744
v 0.05200 -0.04471 -0.02287
v 0.05408 -0.03223 0.01871
v 0.06032 -0.04471 -0.01040
v 0.06239 0.00104 0.03328
v 0.04992 0.01975 -0.03536
v 0.05824 0.02393 0.02495
v 0.05408 -0.00935 -0.03952
v 0.06656 0.03224 0.00207
v 0.06656 0.01352 0.02911
v 0.01246 0.01768 0.01871
v -0.06656 -0.00935 0.00832
v -0.06032 -0.03015 0.00624
v -0.00417 0.03848 0.00208
v 0.01663 -0.03222 0.00416
v -0.01250 -0.01767 0.01871
v -0.05616 0.01768 0.01248
v -0.03328 -0.04886 0.00416
v -0.01873 0.05096 0.00832
v 0.01663 -0.03015 0.01248
v -0.06240 -0.02390 0.01248
v 0.01663 0.02184 0.00832
v -0.00417 0.01143 0.02080
v -0.03536 -0.05096 0.00832
v -0.01666 0.03848 0.00208
v 0.01038 -0.00935 0.02080
v -0.00417 0.05096 0.00832
v -0.06656 0.00311 0.00832
v -0.05408 -0.02390 0.00416
v -0.06656 0.00311 0.01248
v 0.01663 0.01352 0.00416
v 0.01663 0.01975 0.01664
v -0.00833 -0.00310 0.02080
v -0.00417 0.05096 0.00416
v -0.03536 -0.04679 0.01040
v -0.01873 0.05096 0.00624
v -0.02290 -0.04886 0.00416
v 0.01663 -0.01142 0.01871
v -0.05616 -0.03847 0.00624
v -0.05824 0.01559 0.00832
v -0.00417 0.02807 0.00208
v -0.02704 -0.04679 0.01040
v -0.02290 -0.04886 0.00832
v -0.00417 0.01975 0.01871
v 0.01246 0.00520 0.02080
v -0.05408 -0.03222 0.00416
v -0.05824 -0.02806 0.01248
v -0.05824 -0.03431 0.01040
v -0.06656 -0.00935 0.01248
v 0.01663 -0.03222 0.01040
v -0.00833 0.00727 0.02080
v 0.01038 -0.02183 0.01664
v 0.01038 0.01975 0.01871
v -0.01666 0.03223 0.00208
v -0.01250 0.05096 0.00416
v -0.06448 -0.01974 0.01248
v 0.01663 0.02184 0.01456
v 0.01663 0.01352 0.01871
v -0.03536 -0.05096 0.00624
v 0.01663 0.01975 0.00624
v -0.00210 -0.00935 0.02080
v -0.05824 -0.03638 0.00832
v 0.00623 0.01143 0.02080
v 0.01663 -0.01974 0.01664
v -0.02912 -0.05096 0.00832
v -0.06448 -0.01974 0.00832
v -0.05824 0.01559 0.01248
v -0.05408 -0.03015 0.01248
v -0.03952 -0.04886 0.00832
v -0.00417 -0.01767 0.01871
v 0.01454 -0.02599 0.01456
v -0.05616 -0.03847 0.00832
v 0.01246 -0.00726 0.02080
v 0.03743 0.01768 0.01663
v 0.01664 -0.03223 0.00416
v 0.01872 -0.03223 0.00208
v 0.01664 0.01768 0.00624
v 0.01664 -0.01143 0.01871
v 0.04576 -0.00520 0.01040
v 0.04576 -0.00520 0.02080
v 0.04367 0.00936 0.00832
v 0.01664 0.01768 0.01663
v 0.02496 -0.03223 -0.00000
v 0.02496 -0.03015 0.01248
v 0.04576 0.01144 0.02080
v 0.02912 0.00520 0.02080
v 0.04576 0.01560 0.01248
v 0.01664 0.00936 0.00416
v 0.02704 -0.03223 0.00832
v 0.01664 -0.03015 0.01248
v 0.01872 0.01977 0.00832
v 0.02496 -0.02807 -0.00000
v 0.04576 -0.00727 0.01248
v 0.03535 0.01352 0.02080
v 0.01664 0.00936 0.01871
v 0.01664 -0.01975 0.01663
v 0.01872 -0.03431 0.00832
v 0.01872 0.00936 0.00416
v 0.04367 0.01560 0.01040
v 0.01664 0.01977 0.01456
v 0.04576 0.01560 0.01871
v 0.04576 -0.00727 0.01871
v 0.02496 -0.03431 0.00416
v 0.03743 -0.00520 0.02080
v 0.02288 -0.02807 -0.00000
v 0.02704 -0.01351 0.01871
v 0.01872 0.01768 0.00624
v 0.04367 0.00312 0.00832
v 0.02080 -0.03431 0.00208
v 0.04576 0.01352 0.01040
v 0.02912 0.00104 0.02080
v 0.02496 -0.03223 0.01040
v 0.02080 0.01977 0.01456
v 0.03743 0.01768 0.01456
v 0.02080 -0.01351 0.01871
v 0.02080 0.00728 0.00416
v -0.02497 -0.00519 0.03535
v 0.01038 0.01976 0.03327
v 0.01455 0.01768 0.03535
v 0.00623 -0.00727 0.02080
v 0.02287 -0.01351 0.03120
v 0.02703 0.01352 0.02496
v 0.02495 0.00105 0.03952
v -0.00001 0.00520 0.02080
v -0.02289 0.00728 0.03952
v -0.02289 -0.01143 0.03743
v -0.00832 0.01768 0.03120
v 0.02703 -0.00103 0.02496
v 0.02703 0.01560 0.03535
v 0.01871 -0.01560 0.02912
v 0.00414 0.01768 0.02704
v -0.02497 0.00312 0.03535
v -0.01665 -0.00727 0.03952
v 0.00207 -0.00727 0.02080
v -0.00416 0.01560 0.03743
v 0.00623 0.00936 0.03952
v -0.02289 -0.01143 0.03535
v 0.02703 -0.00311 0.03535
v 0.01871 -0.01560 0.03120
v 0.01038 0.00105 0.02080
v 0.01038 0.01976 0.02912
v -0.00832 0.01768 0.03535
v -0.02497 -0.00519 0.03952
v -0.00001 -0.00519 0.03952
v -0.00001 -0.00519 0.02080
v 0.01455 -0.01560 0.02912
v 0.02495 0.00520 0.03952
v -0.02289 0.00728 0.03535
v 0.02703 0.01560 0.02704
v 0.01871 0.01352 0.03743
v 0.02703 -0.00519 0.02704
v -0.00001 0.01976 0.03120
v 0.02287 -0.01351 0.02912
v 0.00831 0.00520 0.02080
v -0.01873 -0.01143 0.03743
v -0.00416 0.01768 0.02912
v 0.02079 0.01768 0.03120
v 0.02703 0.00105 0.03743
v 0.00623 0.01560 0.03743
v -0.01249 0.00936 0.03952
v -0.02497 0.00312 0.03952
v -0.00832 0.01352 0.02912
v 0.02703 -0.00519 0.03327
v 0.03120 0.01768 0.03120
v 0.02704 -0.00311 0.02704
v 0.02704 -0.00311 0.03328
v 0.04576 -0.00311 0.02704
v 0.03536 0.00936 0.02080
v 0.04576 0.00936 0.03120
v 0.04576 -0.00311 0.02080
v 0.04576 0.00936 0.02080
v 0.02704 0.01560 0.02496
v 0.02704 0.01352 0.03536
v 0.04576 -0.00103 0.03120
v 0.02912 0.00105 0.02288
v 0.03328 0.01768 0.02496
v 0.02912 0.00105 0.03536
v 0.03743 -0.00311 0.02080
v 0.02912 0.01560 0.02288
v 0.02912 0.01352 0.03536
v 0.02704 -0.00103 0.02496
v 0.02912 0.01768 0.03120
v 0.03328 0.01768 0.02912
v 0.02704 0.00105 0.03536
v 0.02912 -0.00311 0.03328
v 0.03536 0.01560 0.02288
f 118 92 127 
f 74 69 76 
f 67 66 82 
f 82 79 83 
f 67 82 83 
f 82 66 84 
f 69 68 85 
f 76 69 85 
f 74 76 86 
f 80 77 87 
f 68 79 88 
f 73 81 88 
f 81 76 88 
f 85 68 88 
f 71 73 90 
f 73 88 90 
f 74 86 92 
f 79 82 94 
f 82 84 94 
f 71 90 94 
f 68 69 95 
f 79 68 95 
f 69 91 95 
f 91 72 95 
f 70 89 96 
f 89 78 96 
f 91 69 97 
f 73 71 98 
f 71 77 98 
f 81 73 98 
f 77 80 99 
f 83 79 100 
f 67 83 100 
f 93 67 100 
f 72 93 100 
f 101 75 102 
f 89 101 102 
f 84 66 103 
f 87 84 103 
f 69 74 104 
f 97 69 104 
f 74 97 104 
f 77 71 105 
f 87 77 105 
f 84 87 105 
f 80 96 106 
f 65 86 107 
f 86 81 107 
f 98 77 107 
f 81 98 107 
f 95 72 108 
f 79 95 108 
f 100 79 108 
f 72 100 108 
f 88 79 109 
f 90 88 109 
f 79 94 109 
f 94 90 109 
f 75 87 110 
f 103 66 110 
f 87 103 110 
f 76 81 111 
f 86 76 111 
f 81 86 111 
f 86 65 112 
f 92 86 112 
f 99 92 112 
f 72 91 113 
f 93 72 113 
f 76 85 114 
f 88 76 114 
f 85 88 114 
f 70 80 115 
f 87 75 115 
f 80 87 115 
f 101 70 115 
f 75 101 115 
f 67 93 116 
f 102 75 116 
f 75 110 116 
f 77 99 117 
f 65 107 117 
f 107 77 117 
f 112 65 117 
f 99 112 117 
f 74 92 118 
f 80 106 118 
f 74 96 119 
f 96 78 119 
f 97 74 119 
f 91 97 119 
f 113 91 119 
f 78 113 119 
f 66 67 120 
f 110 66 120 
f 67 116 120 
f 116 110 120 
f 71 94 121 
f 94 84 121 
f 105 71 121 
f 84 105 121 
f 89 70 122 
f 70 101 122 
f 101 89 122 
f 78 89 123 
f 89 102 123 
f 113 78 123 
f 93 113 123 
f 80 70 124 
f 96 80 124 
f 70 96 124 
f 96 74 125 
f 106 96 125 
f 74 118 125 
f 118 106 125 
f 116 93 126 
f 102 116 126 
f 123 102 126 
f 93 123 126 
f 99 80 127 
f 92 99 127 
f 80 118 127 
