# Original object name hint: convex_2
v 0.05616 -0.01143 -0.03952
v 0.06447 0.01352 0.03328
v 0.06447 0.01975 0.02911
v 0.04576 0.01144 0.03119
v 0.05616 0.04473 -0.02912
v 0.05824 -0.04680 0.00415
v 0.06656 0.01352 -0.01664
v 0.04784 0.00104 -0.03328
v 0.04784 -0.03639 -0.00832
v 0.05824 -0.03848 -0.03536
v 0.06239 0.04473 -0.00001
v 0.06239 -0.04055 0.00831
v 0.06239 0.02808 -0.03536
v 0.05200 -0.03015 0.01871
v 0.04992 0.02393 -0.03328
v 0.06656 0.00104 0.02911
v 0.05200 -0.04263 -0.02912
v 0.06656 0.03224 -0.00415
v 0.04576 -0.00104 0.03119
v 0.06239 -0.00727 -0.03744
v 0.06239 -0.04055 -0.00623
v 0.04576 0.01560 0.01039
v 0.05824 0.04473 -0.00001
v 0.06447 -0.00311 0.03119
v 0.04992 -0.04263 -0.00001
v 0.05408 0.01560 -0.03952
v 0.05200 -0.03639 -0.03536
v 0.06032 -0.03223 0.01871
v 0.04576 -0.00519 0.01039
v 0.06656 -0.00104 0.00207
v 0.06239 0.04473 -0.01040
v 0.05616 0.01768 0.03119
v 0.06656 0.02185 0.02079
v 0.05824 -0.04471 -0.02287
v 0.05408 -0.04680 0.00415
v 0.05408 0.00104 0.03328
v 0.06032 -0.03639 -0.03120
v 0.06032 0.01768 -0.03952
v 0.04784 0.01768 -0.02912
v 0.04992 -0.00104 -0.03744
v 0.04992 -0.03848 0.00831
v 0.05408 -0.01975 0.02495
v 0.04576 0.01560 0.01662
v 0.05824 0.04473 -0.02912
v 0.06656 0.03016 -0.01040
v 0.06656 0.00520 -0.01040
v 0.05408 -0.04680 -0.01040
v 0.04784 -0.03639 -0.00209
v 0.06656 -0.00311 0.02079
v 0.06032 -0.00727 -0.03952
v 0.06239 0.03848 -0.02287
v 0.05408 0.02393 -0.03744
v 0.06239 -0.03223 0.01662
v 0.05616 0.01352 0.03328
v 0.06239 0.01768 -0.03744
v 0.05200 -0.04471 -0.02287
v 0.05408 -0.03223 0.01871
v 0.06032 -0.04471 -0.01040
v 0.06239 0.00104 0.03328
v 0.04992 0.01975 -0.03536
v 0.05824 0.02393 0.02495
v 0.05408 -0.00935 -0.03952
v 0.06656 0.03224 0.00207
v 0.06656 0.01352 0.02911
v 0.01246 0.01768 0.01871
v -0.06656 -0.00935 0.00832
v -0.06032 -0.03015 0.00624
v -0.00417 0.03848 0.00208
v 0.01663 -0.03222 0.00416
v -0.01250 -0.01767 0.01871
v -0.05616 0.01768 0.01248
v -0.03328 -0.04886 0.00416
v -0.01873 0.05096 0.00832
v 0.01663 -0.03015 0.01248
v -0.06240 -0.02390 0.01248
v 0.01663 0.02184 0.00832
v -0.00417 0.01143 0.02080
v -0.03536 -0.05096 0.00832
v -0.01666 0.03848 0.00208
v 0.01038 -0.00935 0.02080
v -0.00417 0.05096 0.00832
v -0.06656 0.00311 0.00832
v -0.05408 -0.02390 0.00416
v -0.06656 0.00311 0.01248
v 0.01663 0.01352 0.00416
v 0.01663 0.01975 0.01664
v -0.00833 -0.00310 0.02080
v -0.00417 0.05096 0.00416
v -0.03536 -0.04679 0.01040
v -0.01873 0.05096 0.00624
v -0.02290 -0.04886 0.00416
v 0.01663 -0.01142 0.01871
v -0.05616 -0.03847 0.00624
v -0.05824 0.01559 0.00832
v -0.00417 0.02807 0.00208
v -0.02704 -0.04679 0.01040
v -0.02290 -0.04886 0.00832
v -0.00417 0.01975 0.01871
v 0.01246 0.00520 0.02080
v -0.05408 -0.03222 0.00416
v -0.05824 -0.02806 0.01248
v -0.05824 -0.03431 0.01040
v -0.06656 -0.00935 0.01248
v 0.01663 -0.03222 0.01040
v -0.00833 0.00727 0.02080
v 0.01038 -0.02183 0.01664
v 0.01038 0.01975 0.01871
v -0.01666 0.03223 0.00208
v -0.01250 0.05096 0.00416
v -0.06448 -0.01974 0.01248
v 0.01663 0.02184 0.01456
v 0.01663 0.01352 0.01871
v -0.03536 -0.05096 0.00624
v 0.01663 0.01975 0.00624
v -0.00210 -0.00935 0.02080
v -0.05824 -0.03638 0.00832
v 0.00623 0.01143 0.02080
v 0.01663 -0.01974 0.01664
v -0.02912 -0.05096 0.00832
v -0.06448 -0.01974 0.00832
v -0.05824 0.01559 0.01248
v -0.05408 -0.03015 0.01248
v -0.03952 -0.04886 0.00832
v -0.00417 -0.01767 0.01871
v 0.01454 -0.02599 0.01456
v -0.05616 -0.03847 0.00832
v 0.01246 -0.00726 0.02080
v 0.03743 0.01768 0.01663
v 0.01664 -0.03223 0.00416
v 0.01872 -0.03223 0.00208
v 0.01664 0.01768 0.00624
v 0.01664 -0.01143 0.01871
v 0.04576 -0.00520 0.01040
v 0.04576 -0.00520 0.02080
v 0.04367 0.00936 0.00832
v 0.01664 0.01768 0.01663
v 0.02496 -0.03223 -0.00000
v 0.02496 -0.03015 0.01248
v 0.04576 0.01144 0.02080
v 0.02912 0.00520 0.02080
v 0.04576 0.01560 0.01248
v 0.01664 0.00936 0.00416
v 0.02704 -0.03223 0.00832
v 0.01664 -0.03015 0.01248
v 0.01872 0.01977 0.00832
v 0.02496 -0.02807 -0.00000
v 0.04576 -0.00727 0.01248
v 0.03535 0.01352 0.02080
v 0.01664 0.00936 0.01871
v 0.01664 -0.01975 0.01663
v 0.01872 -0.03431 0.00832
v 0.01872 0.00936 0.00416
v 0.04367 0.01560 0.01040
v 0.01664 0.01977 0.01456
v 0.04576 0.01560 0.01871
v 0.04576 -0.00727 0.01871
v 0.02496 -0.03431 0.00416
v 0.03743 -0.00520 0.02080
v 0.02288 -0.02807 -0.00000
v 0.02704 -0.01351 0.01871
v 0.01872 0.01768 0.00624
v 0.04367 0.00312 0.00832
v 0.02080 -0.03431 0.00208
v 0.04576 0.01352 0.01040
v 0.02912 0.00104 0.02080
v 0.02496 -0.03223 0.01040
v 0.02080 0.01977 0.01456
v 0.03743 0.01768 0.01456
v 0.02080 -0.01351 0.01871
v 0.02080 0.00728 0.00416
v -0.02497 -0.00519 0.03535
v 0.01038 0.01976 0.03327
v 0.01455 0.01768 0.03535
v 0.00623 -0.00727 0.02080
v 0.02287 -0.01351 0.03120
v 0.02703 0.01352 0.02496
v 0.02495 0.00105 0.03952
v -0.00001 0.00520 0.02080
v -0.02289 0.00728 0.03952
v -0.02289 -0.01143 0.03743
v -0.00832 0.01768 0.03120
v 0.02703 -0.00103 0.02496
v 0.02703 0.01560 0.03535
v 0.01871 -0.01560 0.02912
v 0.00414 0.01768 0.02704
v -0.02497 0.00312 0.03535
v -0.01665 -0.00727 0.03952
v 0.00207 -0.00727 0.02080
v -0.00416 0.01560 0.03743
v 0.00623 0.00936 0.03952
v -0.02289 -0.01143 0.03535
v 0.02703 -0.00311 0.03535
v 0.01871 -0.01560 0.03120
v 0.01038 0.00105 0.02080
v 0.01038 0.01976 0.02912
v -0.00832 0.01768 0.03535
v -0.02497 -0.00519 0.03952
v -0.00001 -0.00519 0.03952
v -0.00001 -0.00519 0.02080
v 0.01455 -0.01560 0.02912
v 0.02495 0.00520 0.03952
v -0.02289 0.00728 0.03535
v 0.02703 0.01560 0.02704
v 0.01871 0.01352 0.03743
v 0.02703 -0.00519 0.02704
v -0.00001 0.01976 0.03120
v 0.02287 -0.01351 0.02912
v 0.00831 0.00520 0.02080
v -0.01873 -0.01143 0.03743
v -0.00416 0.01768 0.02912
v 0.02079 0.01768 0.03120
v 0.02703 0.00105 0.03743
v 0.00623 0.01560 0.03743
v -0.01249 0.00936 0.03952
v -0.02497 0.00312 0.03952
v -0.00832 0.01352 0.02912
v 0.02703 -0.00519 0.03327
v 0.03120 0.01768 0.03120
v 0.02704 -0.00311 0.02704
v 0.02704 -0.00311 0.03328
v 0.04576 -0.00311 0.02704
v 0.03536 0.00936 0.02080
v 0.04576 0.00936 0.03120
v 0.04576 -0.00311 0.02080
v 0.04576 0.00936 0.02080
v 0.02704 0.01560 0.02496
v 0.02704 0.01352 0.03536
v 0.04576 -0.00103 0.03120
v 0.02912 0.00105 0.02288
v 0.03328 0.01768 0.02496
v 0.02912 0.00105 0.03536
v 0.03743 -0.00311 0.02080
v 0.02912 0.01560 0.02288
v 0.02912 0.01352 0.03536
v 0.02704 -0.00103 0.02496
v 0.02912 0.01768 0.03120
v 0.03328 0.01768 0.02912
v 0.02704 0.00105 0.03536
v 0.02912 -0.00311 0.03328
v 0.03536 0.01560 0.02288
f 146 152 170 
f 131 129 132 
f 131 132 136 
f 134 133 139 
f 134 139 140 
f 139 133 141 
f 130 129 142 
f 129 131 142 
f 132 129 144 
f 135 137 146 
f 133 134 147 
f 137 133 147 
f 140 139 148 
f 140 148 149 
f 136 132 149 
f 132 140 149 
f 148 136 149 
f 144 138 150 
f 132 144 150 
f 138 144 151 
f 144 129 151 
f 142 131 152 
f 146 142 152 
f 131 136 154 
f 145 131 154 
f 136 148 154 
f 141 128 155 
f 139 141 155 
f 148 139 155 
f 147 134 156 
f 143 147 156 
f 137 147 157 
f 147 143 157 
f 134 140 158 
f 137 130 159 
f 130 142 159 
f 146 137 159 
f 142 146 159 
f 138 134 160 
f 150 138 160 
f 134 158 160 
f 131 145 161 
f 152 131 161 
f 135 152 161 
f 153 135 161 
f 145 153 161 
f 135 133 162 
f 133 137 162 
f 137 135 162 
f 129 130 163 
f 130 137 163 
f 151 129 163 
f 137 157 163 
f 157 151 163 
f 133 135 164 
f 141 133 164 
f 135 153 164 
f 153 141 164 
f 140 132 165 
f 132 158 165 
f 158 140 165 
f 134 138 166 
f 138 151 166 
f 156 134 166 
f 143 156 166 
f 157 143 166 
f 151 157 166 
f 145 154 167 
f 154 148 167 
f 148 155 167 
f 155 128 167 
f 128 141 168 
f 141 153 168 
f 153 145 168 
f 167 128 168 
f 145 167 168 
f 132 150 169 
f 158 132 169 
f 150 160 169 
f 160 158 169 
f 135 146 170 
f 152 135 170 
