# Original object name hint: convex_0
v 0.05616 -0.01143 -0.03952
v 0.06447 0.01352 0.03328
v 0.06447 0.01975 0.02911
v 0.04576 0.01144 0.03119
v 0.05616 0.04473 -0.02912
v 0.05824 -0.04680 0.00415
v 0.06656 0.01352 -0.01664
v 0.04784 0.00104 -0.03328
v 0.04784 -0.03639 -0.00832
v 0.05824 -0.03848 -0.03536
v 0.06239 0.04473 -0.00001
v 0.06239 -0.04055 0.00831
v 0.06239 0.02808 -0.03536
v 0.05200 -0.03015 0.01871
v 0.04992 0.02393 -0.03328
v 0.06656 0.00104 0.02911
v 0.05200 -0.04263 -0.02912
v 0.06656 0.03224 -0.00415
v 0.04576 -0.00104 0.03119
v 0.06239 -0.00727 -0.03744
v 0.06239 -0.04055 -0.00623
v 0.04576 0.01560 0.01039
v 0.05824 0.04473 -0.00001
v 0.06447 -0.00311 0.03119
v 0.04992 -0.04263 -0.00001
v 0.05408 0.01560 -0.03952
v 0.05200 -0.03639 -0.03536
v 0.06032 -0.03223 0.01871
v 0.04576 -0.00519 0.01039
v 0.06656 -0.00104 0.00207
v 0.06239 0.04473 -0.01040
v 0.05616 0.01768 0.03119
v 0.06656 0.02185 0.02079
v 0.05824 -0.04471 -0.02287
v 0.05408 -0.04680 0.00415
v 0.05408 0.00104 0.03328
v 0.06032 -0.03639 -0.03120
v 0.06032 0.01768 -0.03952
v 0.04784 0.01768 -0.02912
v 0.04992 -0.00104 -0.03744
v 0.04992 -0.03848 0.00831
v 0.05408 -0.01975 0.02495
v 0.04576 0.01560 0.01662
v 0.05824 0.04473 -0.02912
v 0.06656 0.03016 -0.01040
v 0.06656 0.00520 -0.01040
v 0.05408 -0.04680 -0.01040
v 0.04784 -0.03639 -0.00209
v 0.06656 -0.00311 0.02079
v 0.06032 -0.00727 -0.03952
v 0.06239 0.03848 -0.02287
v 0.05408 0.02393 -0.03744
v 0.06239 -0.03223 0.01662
v 0.05616 0.01352 0.03328
v 0.06239 0.01768 -0.03744
v 0.05200 -0.04471 -0.02287
v 0.05408 -0.03223 0.01871
v 0.06032 -0.04471 -0.01040
v 0.06239 0.00104 0.03328
v 0.04992 0.01975 -0.03536
v 0.05824 0.02393 0.02495
v 0.05408 -0.00935 -0.03952
v 0.06656 0.03224 0.00207
v 0.06656 0.01352 0.02911
v 0.01246 0.01768 0.01871
v -0.06656 -0.00935 0.00832
v -0.06032 -0.03015 0.00624
v -0.00417 0.03848 0.00208
v 0.01663 -0.03222 0.00416
v -0.01250 -0.01767 0.01871
v -0.05616 0.01768 0.01248
v -0.03328 -0.04886 0.00416
v -0.01873 0.05096 0.00832
v 0.01663 -0.03015 0.01248
v -0.06240 -0.02390 0.01248
v 0.01663 0.02184 0.00832
v -0.00417 0.01143 0.02080
v -0.03536 -0.05096 0.00832
v -0.01666 0.03848 0.00208
v 0.01038 -0.00935 0.02080
v -0.00417 0.05096 0.00832
v -0.06656 0.00311 0.00832
v -0.05408 -0.02390 0.00416
v -0.06656 0.00311 0.01248
v 0.01663 0.01352 0.00416
v 0.01663 0.01975 0.01664
v -0.00833 -0.00310 0.02080
v -0.00417 0.05096 0.00416
v -0.03536 -0.04679 0.01040
v -0.01873 0.05096 0.00624
v -0.02290 -0.04886 0.00416
v 0.01663 -0.01142 0.01871
v -0.05616 -0.03847 0.00624
v -0.05824 0.01559 0.00832
v -0.00417 0.02807 0.00208
v -0.02704 -0.04679 0.01040
v -0.02290 -0.04886 0.00832
v -0.00417 0.01975 0.01871
v 0.01246 0.00520 0.02080
v -0.05408 -0.03222 0.00416
v -0.05824 -0.02806 0.01248
v -0.05824 -0.03431 0.01040
v -0.06656 -0.00935 0.01248
v 0.01663 -0.03222 0.01040
v -0.00833 0.00727 0.02080
v 0.01038 -0.02183 0.01664
v 0.01038 0.01975 0.01871
v -0.01666 0.03223 0.00208
v -0.01250 0.05096 0.00416
v -0.06448 -0.01974 0.01248
v 0.01663 0.02184 0.01456
v 0.01663 0.01352 0.01871
v -0.03536 -0.05096 0.00624
v 0.01663 0.01975 0.00624
v -0.00210 -0.00935 0.02080
v -0.05824 -0.03638 0.00832
v 0.00623 0.01143 0.02080
v 0.01663 -0.01974 0.01664
v -0.02912 -0.05096 0.00832
v -0.06448 -0.01974 0.00832
v -0.05824 0.01559 0.01248
v -0.05408 -0.03015 0.01248
v -0.03952 -0.04886 0.00832
v -0.00417 -0.01767 0.01871
v 0.01454 -0.02599 0.01456
v -0.05616 -0.03847 0.00832
v 0.01246 -0.00726 0.02080
v 0.03743 0.01768 0.01663
v 0.01664 -0.03223 0.00416
v 0.01872 -0.03223 0.00208
v 0.01664 0.01768 0.00624
v 0.01664 -0.01143 0.01871
v 0.04576 -0.00520 0.01040
v 0.04576 -0.00520 0.02080
v 0.04367 0.00936 0.00832
v 0.01664 0.01768 0.01663
v 0.02496 -0.03223 -0.00000
v 0.02496 -0.03015 0.01248
v 0.04576 0.01144 0.02080
v 0.02912 0.00520 0.02080
v 0.04576 0.01560 0.01248
v 0.01664 0.00936 0.00416
v 0.02704 -0.03223 0.00832
v 0.01664 -0.03015 0.01248
v 0.01872 0.01977 0.00832
v 0.02496 -0.02807 -0.00000
v 0.04576 -0.00727 0.01248
v 0.03535 0.01352 0.02080
v 0.01664 0.00936 0.01871
v 0.01664 -0.01975 0.01663
v 0.01872 -0.03431 0.00832
v 0.01872 0.00936 0.00416
v 0.04367 0.01560 0.01040
v 0.01664 0.01977 0.01456
v 0.04576 0.01560 0.01871
v 0.04576 -0.00727 0.01871
v 0.02496 -0.03431 0.00416
v 0.03743 -0.00520 0.02080
v 0.02288 -0.02807 -0.00000
v 0.02704 -0.01351 0.01871
v 0.01872 0.01768 0.00624
v 0.04367 0.00312 0.00832
v 0.02080 -0.03431 0.00208
v 0.04576 0.01352 0.01040
v 0.02912 0.00104 0.02080
v 0.02496 -0.03223 0.01040
v 0.02080 0.01977 0.01456
v 0.03743 0.01768 0.01456
v 0.02080 -0.01351 0.01871
v 0.02080 0.00728 0.00416
v -0.02497 -0.00519 0.03535
v 0.01038 0.01976 0.03327
v 0.01455 0.01768 0.03535
v 0.00623 -0.00727 0.02080
v 0.02287 -0.01351 0.03120
v 0.02703 0.01352 0.02496
v 0.02495 0.00105 0.03952
v -0.00001 0.00520 0.02080
v -0.02289 0.00728 0.03952
v -0.02289 -0.01143 0.03743
v -0.00832 0.01768 0.03120
v 0.02703 -0.00103 0.02496
v 0.02703 0.01560 0.03535
v 0.01871 -0.01560 0.02912
v 0.00414 0.01768 0.02704
v -0.02497 0.00312 0.03535
v -0.01665 -0.00727 0.03952
v 0.00207 -0.00727 0.02080
v -0.00416 0.01560 0.03743
v 0.00623 0.00936 0.03952
v -0.02289 -0.01143 0.03535
v 0.02703 -0.00311 0.03535
v 0.01871 -0.01560 0.03120
v 0.01038 0.00105 0.02080
v 0.01038 0.01976 0.02912
v -0.00832 0.01768 0.03535
v -0.02497 -0.00519 0.03952
v -0.00001 -0.00519 0.03952
v -0.00001 -0.00519 0.02080
v 0.01455 -0.01560 0.02912
v 0.02495 0.00520 0.03952
v -0.02289 0.00728 0.03535
v 0.02703 0.01560 0.02704
v 0.01871 0.01352 0.03743
v 0.02703 -0.00519 0.02704
v -0.00001 0.01976 0.03120
v 0.02287 -0.01351 0.02912
v 0.00831 0.00520 0.02080
v -0.01873 -0.01143 0.03743
v -0.00416 0.01768 0.02912
v 0.02079 0.01768 0.03120
v 0.02703 0.00105 0.03743
v 0.00623 0.01560 0.03743
v -0.01249 0.00936 0.03952
v -0.02497 0.00312 0.03952
v -0.00832 0.01352 0.02912
v 0.02703 -0.00519 0.03327
v 0.03120 0.01768 0.03120
v 0.02704 -0.00311 0.02704
v 0.02704 -0.00311 0.03328
v 0.04576 -0.00311 0.02704
v 0.03536 0.00936 0.02080
v 0.04576 0.00936 0.03120
v 0.04576 -0.00311 0.02080
v 0.04576 0.00936 0.02080
v 0.02704 0.01560 0.02496
v 0.02704 0.01352 0.03536
v 0.04576 -0.00103 0.03120
v 0.02912 0.00105 0.02288
v 0.03328 0.01768 0.02496
v 0.02912 0.00105 0.03536
v 0.03743 -0.00311 0.02080
v 0.02912 0.01560 0.02288
v 0.02912 0.01352 0.03536
v 0.02704 -0.00103 0.02496
v 0.02912 0.01768 0.03120
v 0.03328 0.01768 0.02912
v 0.02704 0.00105 0.03536
v 0.02912 -0.00311 0.03328
v 0.03536 0.01560 0.02288
f 16 33 64 
f 16 7 18 
f 19 4 22 
f 11 5 23 
f 16 2 24 
f 9 8 27 
f 1 10 27 
f 17 9 27 
f 10 17 27 
f 6 12 28 
f 8 9 29 
f 22 8 29 
f 19 22 29 
f 7 16 30 
f 5 11 31 
f 11 18 31 
f 2 3 32 
f 23 4 32 
f 11 3 33 
f 16 18 33 
f 17 10 34 
f 6 28 35 
f 4 19 36 
f 10 20 37 
f 34 10 37 
f 1 26 38 
f 5 15 39 
f 22 5 39 
f 8 22 39 
f 27 8 40 
f 14 19 41 
f 35 14 41 
f 25 35 41 
f 36 19 42 
f 22 4 43 
f 5 22 43 
f 4 23 43 
f 23 5 43 
f 5 31 44 
f 13 38 44 
f 7 13 45 
f 18 7 45 
f 31 18 45 
f 20 7 46 
f 7 30 46 
f 30 21 46 
f 37 20 46 
f 21 37 46 
f 34 6 47 
f 35 25 47 
f 6 35 47 
f 9 25 48 
f 29 9 48 
f 19 29 48 
f 41 19 48 
f 25 41 48 
f 16 12 49 
f 12 21 49 
f 30 16 49 
f 21 30 49 
f 10 1 50 
f 20 10 50 
f 1 38 50 
f 38 20 50 
f 44 31 51 
f 13 44 51 
f 45 13 51 
f 31 45 51 
f 15 5 52 
f 38 26 52 
f 5 44 52 
f 44 38 52 
f 12 16 53 
f 16 24 53 
f 28 12 53 
f 24 28 53 
f 2 32 54 
f 32 4 54 
f 36 2 54 
f 4 36 54 
f 13 7 55 
f 7 20 55 
f 38 13 55 
f 20 38 55 
f 9 17 56 
f 25 9 56 
f 17 34 56 
f 47 25 56 
f 34 47 56 
f 19 14 57 
f 14 35 57 
f 35 28 57 
f 42 19 57 
f 28 42 57 
f 12 6 58 
f 21 12 58 
f 6 34 58 
f 37 21 58 
f 34 37 58 
f 24 2 59 
f 28 24 59 
f 2 36 59 
f 42 28 59 
f 36 42 59 
f 39 15 60 
f 8 39 60 
f 40 8 60 
f 26 40 60 
f 15 52 60 
f 52 26 60 
f 3 11 61 
f 11 23 61 
f 32 3 61 
f 23 32 61 
f 26 1 62 
f 1 27 62 
f 40 26 62 
f 27 40 62 
f 18 11 63 
f 11 33 63 
f 33 18 63 
f 3 2 64 
f 2 16 64 
f 33 3 64 
