# Original object name hint: convex_4
v 0.05616 -0.01143 -0.03952
v 0.06447 0.01352 0.03328
v 0.06447 0.01975 0.02911
v 0.04576 0.01144 0.03119
v 0.05616 0.04473 -0.02912
v 0.05824 -0.04680 0.00415
v 0.06656 0.01352 -0.01664
v 0.04784 0.00104 -0.03328
v 0.04784 -0.03639 -0.00832
v 0.05824 -0.03848 -0.03536
v 0.06239 0.04473 -0.00001
v 0.06239 -0.04055 0.00831
v 0.06239 0.02808 -0.03536
v 0.05200 -0.03015 0.01871
v 0.04992 0.02393 -0.03328
v 0.06656 0.00104 0.02911
v 0.05200 -0.04263 -0.02912
v 0.06656 0.03224 -0.00415
v 0.04576 -0.00104 0.03119
v 0.06239 -0.00727 -0.03744
v 0.06239 -0.04055 -0.00623
v 0.04576 0.01560 0.01039
v 0.05824 0.04473 -0.00001
v 0.06447 -0.00311 0.03119
v 0.04992 -0.04263 -0.00001
v 0.05408 0.01560 -0.03952
v 0.05200 -0.03639 -0.03536
v 0.06032 -0.03223 0.01871
v 0.04576 -0.00519 0.01039
v 0.06656 -0.00104 0.00207
v 0.06239 0.04473 -0.01040
v 0.05616 0.01768 0.03119
v 0.06656 0.02185 0.02079
v 0.05824 -0.04471 -0.02287
v 0.05408 -0.04680 0.00415
v 0.05408 0.00104 0.03328
v 0.06032 -0.03639 -0.03120
v 0.06032 0.01768 -0.03952
v 0.04784 0.01768 -0.02912
v 0.04992 -0.00104 -0.03744
v 0.04992 -0.03848 0.00831
v 0.05408 -0.01975 0.02495
v 0.04576 0.01560 0.01662
v 0.05824 0.04473 -0.02912
v 0.06656 0.03016 -0.01040
v 0.06656 0.00520 -0.01040
v 0.05408 -0.04680 -0.01040
v 0.04784 -0.03639 -0.00209
v 0.06656 -0.00311 0.02079
v 0.06032 -0.00727 -0.03952
v 0.06239 0.03848 -0.02287
v 0.05408 0.02393 -0.03744
v 0.06239 -0.03223 0.01662
v 0.05616 0.01352 0.03328
v 0.06239 0.01768 -0.03744
v 0.05200 -0.04471 -0.02287
v 0.05408 -0.03223 0.01871
v 0.06032 -0.04471 -0.01040
v 0.06239 0.00104 0.03328
v 0.04992 0.01975 -0.03536
v 0.05824 0.02393 0.02495
v 0.05408 -0.00935 -0.03952
v 0.06656 0.03224 0.00207
v 0.06656 0.01352 0.02911
v 0.01246 0.01768 0.01871
v -0.06656 -0.00935 0.00832
v -0.06032 -0.03015 0.00624
v -0.00417 0.03848 0.00208
v 0.01663 -0.03222 0.00416
v -0.01250 -0.01767 0.01871
v -0.05616 0.01768 0.01248
v -0.03328 -0.04886 0.00416
v -0.01873 0.05096 0.00832
v 0.01663 -0.03015 0.01248
v -0.06240 -0.02390 0.01248
v 0.01663 0.02184 0.00832
v -0.00417 0.01143 0.02080
v -0.03536 -0.05096 0.00832
v -0.01666 0.03848 0.00208
v 0.01038 -0.00935 0.02080
v -0.00417 0.05096 0.00832
v -0.06656 0.00311 0.00832
v -0.05408 -0.02390 0.00416
v -0.06656 0.00311 0.01248
v 0.01663 0.01352 0.00416
v 0.01663 0.01975 0.01664
v -0.00833 -0.00310 0.02080
v -0.00417 0.05096 0.00416
v -0.03536 -0.04679 0.01040
v -0.01873 0.05096 0.00624
v -0.02290 -0.04886 0.00416
v 0.01663 -0.01142 0.01871
v -0.05616 -0.03847 0.00624
v -0.05824 0.01559 0.00832
v -0.00417 0.02807 0.00208
v -0.02704 -0.04679 0.01040
v -0.02290 -0.04886 0.00832
v -0.00417 0.01975 0.01871
v 0.01246 0.00520 0.02080
v -0.05408 -0.03222 0.00416
v -0.05824 -0.02806 0.01248
v -0.05824 -0.03431 0.01040
v -0.06656 -0.00935 0.01248
v 0.01663 -0.03222 0.01040
v -0.00833 0.00727 0.02080
v 0.01038 -0.02183 0.01664
v 0.01038 0.01975 0.01871
v -0.01666 0.03223 0.00208
v -0.01250 0.05096 0.00416
v -0.06448 -0.01974 0.01248
v 0.01663 0.02184 0.01456
v 0.01663 0.01352 0.01871
v -0.03536 -0.05096 0.00624
v 0.01663 0.01975 0.00624
v -0.00210 -0.00935 0.02080
v -0.05824 -0.03638 0.00832
v 0.00623 0.01143 0.02080
v 0.01663 -0.01974 0.01664
v -0.02912 -0.05096 0.00832
v -0.06448 -0.01974 0.00832
v -0.05824 0.01559 0.01248
v -0.05408 -0.03015 0.01248
v -0.03952 -0.04886 0.00832
v -0.00417 -0.01767 0.01871
v 0.01454 -0.02599 0.01456
v -0.05616 -0.03847 0.00832
v 0.01246 -0.00726 0.02080
v 0.03743 0.01768 0.01663
v 0.01664 -0.03223 0.00416
v 0.01872 -0.03223 0.00208
v 0.01664 0.01768 0.00624
v 0.01664 -0.01143 0.01871
v 0.04576 -0.00520 0.01040
v 0.04576 -0.00520 0.02080
v 0.04367 0.00936 0.00832
v 0.01664 0.01768 0.01663
v 0.02496 -0.03223 -0.00000
v 0.02496 -0.03015 0.01248
v 0.04576 0.01144 0.02080
v 0.02912 0.00520 0.02080
v 0.04576 0.01560 0.01248
v 0.01664 0.00936 0.00416
v 0.02704 -0.03223 0.00832
v 0.01664 -0.03015 0.01248
v 0.01872 0.01977 0.00832
v 0.02496 -0.02807 -0.00000
v 0.04576 -0.00727 0.01248
v 0.03535 0.01352 0.02080
v 0.01664 0.00936 0.01871
v 0.01664 -0.01975 0.01663
v 0.01872 -0.03431 0.00832
v 0.01872 0.00936 0.00416
v 0.04367 0.01560 0.01040
v 0.01664 0.01977 0.01456
v 0.04576 0.01560 0.01871
v 0.04576 -0.00727 0.01871
v 0.02496 -0.03431 0.00416
v 0.03743 -0.00520 0.02080
v 0.02288 -0.02807 -0.00000
v 0.02704 -0.01351 0.01871
v 0.01872 0.01768 0.00624
v 0.04367 0.00312 0.00832
v 0.02080 -0.03431 0.00208
v 0.04576 0.01352 0.01040
v 0.02912 0.00104 0.02080
v 0.02496 -0.03223 0.01040
v 0.02080 0.01977 0.01456
v 0.03743 0.01768 0.01456
v 0.02080 -0.01351 0.01871
v 0.02080 0.00728 0.00416
v -0.02497 -0.00519 0.03535
v 0.01038 0.01976 0.03327
v 0.01455 0.01768 0.03535
v 0.00623 -0.00727 0.02080
v 0.02287 -0.01351 0.03120
v 0.02703 0.01352 0.02496
v 0.02495 0.00105 0.03952
v -0.00001 0.00520 0.02080
v -0.02289 0.00728 0.03952
v -0.02289 -0.01143 0.03743
v -0.00832 0.01768 0.03120
v 0.02703 -0.00103 0.02496
v 0.02703 0.01560 0.03535
v 0.01871 -0.01560 0.02912
v 0.00414 0.01768 0.02704
v -0.02497 0.00312 0.03535
v -0.01665 -0.00727 0.03952
v 0.00207 -0.00727 0.02080
v -0.00416 0.01560 0.03743
v 0.00623 0.00936 0.03952
v -0.02289 -0.01143 0.03535
v 0.02703 -0.00311 0.03535
v 0.01871 -0.01560 0.03120
v 0.01038 0.00105 0.02080
v 0.01038 0.01976 0.02912
v -0.00832 0.01768 0.03535
v -0.02497 -0.00519 0.03952
v -0.00001 -0.00519 0.03952
v -0.00001 -0.00519 0.02080
v 0.01455 -0.01560 0.02912
v 0.02495 0.00520 0.03952
v -0.02289 0.00728 0.03535
v 0.02703 0.01560 0.02704
v 0.01871 0.01352 0.03743
v 0.02703 -0.00519 0.02704
v -0.00001 0.01976 0.03120
v 0.02287 -0.01351 0.02912
v 0.00831 0.00520 0.02080
v -0.01873 -0.01143 0.03743
v -0.00416 0.01768 0.02912
v 0.02079 0.01768 0.03120
v 0.02703 0.00105 0.03743
v 0.00623 0.01560 0.03743
v -0.01249 0.00936 0.03952
v -0.02497 0.00312 0.03952
v -0.00832 0.01352 0.02912
v 0.02703 -0.00519 0.03327
v 0.03120 0.01768 0.03120
v 0.02704 -0.00311 0.02704
v 0.02704 -0.00311 0.03328
v 0.04576 -0.00311 0.02704
v 0.03536 0.00936 0.02080
v 0.04576 0.00936 0.03120
v 0.04576 -0.00311 0.02080
v 0.04576 0.00936 0.02080
v 0.02704 0.01560 0.02496
v 0.02704 0.01352 0.03536
v 0.04576 -0.00103 0.03120
v 0.02912 0.00105 0.02288
v 0.03328 0.01768 0.02496
v 0.02912 0.00105 0.03536
v 0.03743 -0.00311 0.02080
v 0.02912 0.01560 0.02288
v 0.02912 0.01352 0.03536
v 0.02704 -0.00103 0.02496
v 0.02912 0.01768 0.03120
v 0.03328 0.01768 0.02912
v 0.02704 0.00105 0.03536
v 0.02912 -0.00311 0.03328
v 0.03536 0.01560 0.02288
f 233 230 240 
f 220 219 221 
f 221 219 224 
f 223 221 224 
f 224 222 225 
f 223 224 225 
f 219 220 226 
f 226 220 227 
f 221 223 228 
f 223 225 230 
f 228 223 231 
f 222 224 232 
f 224 219 232 
f 229 222 232 
f 225 222 233 
f 222 229 233 
f 229 226 233 
f 226 230 233 
f 223 218 234 
f 218 227 234 
f 231 223 234 
f 227 231 234 
f 219 226 235 
f 226 229 235 
f 232 219 235 
f 229 232 235 
f 227 218 236 
f 226 227 236 
f 218 230 236 
f 230 226 236 
f 218 223 237 
f 230 218 237 
f 223 230 237 
f 227 220 238 
f 231 227 238 
f 220 231 238 
f 220 221 239 
f 221 228 239 
f 231 220 239 
f 228 231 239 
f 230 225 240 
f 225 233 240 
