# Created by Open3D 
# object name: convex_1_coll
# number of vertices: 14
# number of triangles: 24
v 0.03931 0.04988 -0.03174
v 0.03628 0.04988 0.02267
v 0.05442 0.031725 0.024185
v 0.05442 -0.03478 0.01965
v 0.05442 0.04912 -0.02947
v 0.03628 -0.039315 -0.02116
v 0.03628 0.01359 0.03477
v 0.03628 -0.0378 0.01662
v 0.03628 -0.01966 -0.03174
v 0.05442 -0.042345 -0.02418
v 0.05442 0.03173 -0.03476
v 0.0370375 -0.010585 0.033255
v 0.05291 -0.04386 0.00755
v 0.0514 0.00452 0.03174
f 3 4 5
f 6 7 2
f 7 6 8
f 6 2 9
f 5 4 10
f 9 2 1
f 1 2 5
f 5 10 11
f 7 8 12
f 1 5 11
f 8 13 4
f 4 3 14
f 12 4 14
f 7 3 2
f 13 8 10
f 8 6 10
f 4 12 8
f 1 11 9
f 5 2 3
f 14 7 12
f 10 4 13
f 11 10 9
f 10 6 9
f 3 7 14
