# Created by Open3D 
# object name: convex_0_coll
# number of vertices: 14
# number of triangles: 24
v -0.07258 0.04383 -0.04082
v 0.03628 0.03777 -0.02268
v 0.03628 0.04988 0.02268
v 0.03628 -0.039315 -0.001515
v 0.021905 -0.00983 0.039305
v 0.00603 -0.037805 0.03476
v 0.00603 -0.0499 -0.03477
v -0.0756 -0.04083 0.03477
v -0.065 0.05894 -0.03628
v -0.08768 0.030975 0.0166275
v -0.07258 0.04686 0.03477
v -0.09676 -0.00606 -0.00605
v -0.070305 -0.0551975 -0.039305
v 0.00301 0.04988 -0.03477
f 2 3 4
f 4 5 6
f 7 2 4
f 11 9 10
f 4 6 8
f 13 12 1
f 10 9 1
f 4 3 5
f 7 4 13
f 4 8 13
f 8 12 13
f 10 12 8
f 9 14 1
f 7 1 14
f 8 5 11
f 7 14 2
f 8 11 10
f 2 14 3
f 14 9 3
f 11 5 3
f 7 13 1
f 1 12 10
f 6 5 8
f 9 11 3
