# Created by Open3D 
# object name: convex_2_coll
# number of vertices: 14
# number of triangles: 24
v 0.08012 0.05138 0.02872
v 0.05442 0.048355 -0.033255
v 0.05442 -0.039305 0.015115
v 0.05442 0.01208 0.02872
v 0.05442 -0.04082 -0.03628
v 0.0854125 -0.038545 -0.0355275
v 0.072565 -0.06047 0.01662
v 0.07257 -0.06198 -0.03174
v 0.0861725 0.0286975 -0.0377925
v 0.06274 0.0453275 0.021155
v 0.0869275 0.012825 0.035525
v 0.071815 0.06198 -0.008315
v 0.076345 -0.0476225 0.029475
v 0.09676 0.02416 -0.00453
f 2 3 4
f 3 2 5
f 6 5 2
f 6 2 9
f 2 4 10
f 10 1 12
f 2 10 12
f 3 7 13
f 4 3 13
f 11 4 13
f 5 6 8
f 10 4 11
f 14 2 12
f 1 14 12
f 13 14 11
f 2 14 9
f 6 9 14
f 14 13 6
f 8 6 13
f 7 8 13
f 3 5 8
f 7 3 8
f 11 14 1
f 10 11 1
