# Created by Open3D 
# object name: convex_2_coll
# number of vertices: 14
# number of triangles: 24
v 0.02602 -0.0333 0.00625
v 0.01665 0.01769 0.00625
v 0.01665 -0.03226 0.00417
v 0.01665 -0.00104 0.01873
v 0.04371 -0.00521 0.02082
v 0.04371 0.00936 0.00833
v 0.04371 0.01457 0.019775
v 0.01665 0.01977 0.01457
v 0.04371 -0.00729 0.01041
v 0.04371 0.01561 0.01041
v 0.01665 -0.03018 0.01249
v 0.02498 -0.03226 0
v 0.0333 0.01353 0.02082
v 0.02498 -0.03018 0.01249
f 2 3 4
f 5 6 7
f 2 4 8
f 6 5 9
f 7 6 10
f 4 3 11
f 13 5 7
f 1 14 11
f 6 12 2
f 9 12 6
f 14 1 5
f 1 9 5
f 3 2 12
f 2 8 10
f 11 14 5
f 12 1 3
f 1 11 3
f 8 4 13
f 7 8 13
f 2 10 6
f 13 4 5
f 4 11 5
f 10 8 7
f 12 9 1
