# Created by Open3D 
# object name: convex_3_coll
# number of vertices: 14
# number of triangles: 24
v 0.033295 0.01561 0.0229
v 0.0333 0.01769 0.02914
v 0.0437 0.00936 0.02914
v 0.00105 -0.00416 0.02914
v 0.0437 0.01144 0.02082
v 0.0437 -0.00312 0.02082
v 1e-05 0.0052 0.02082
v 0.00417 0.01769 0.02914
v 0.00209 -0.0052 0.02082
v 0.0437 -0.00104 0.02914
v 0.011455 -0.00729 0.0281
v -0.00208 0.01353 0.02914
v 0.00417 0.01769 0.02706
v -0.00208 0.00312 0.02706
f 3 2 4
f 2 3 5
f 5 3 6
f 7 5 6
f 4 2 8
f 7 6 9
f 3 4 10
f 6 3 10
f 10 4 11
f 4 8 12
f 8 2 13
f 1 7 13
f 12 8 13
f 11 6 10
f 4 9 11
f 1 13 2
f 14 7 9
f 13 7 12
f 7 14 12
f 12 14 4
f 14 9 4
f 7 1 5
f 6 11 9
f 2 5 1
