# Created by Open3D 
# object name: convex_4_coll
# number of vertices: 14
# number of triangles: 24
v -0.02706 0 0.03538
v 0.01665 -0.01561 0.02914
v 0.00625 0.01977 0.02914
v 0.04371 0.00728 0.03018
v -0.02289 -0.00728 0.03955
v 0.02496 0.00104 0.03955
v -0.02289 0.00728 0.03955
v -0.00831 0.01353 0.02914
v 0.01873 -0.01561 0.03122
v 0.04371 0.00104 0.03018
v 0.03122 0.01769 0.02914
v -0.00831 0.01769 0.03538
v -0.02289 -0.01144 0.03642
v 0.020805 0.01457 0.03642
f 2 3 4
f 5 6 7
f 3 2 8
f 6 9 10
f 4 3 11
f 6 10 4
f 2 9 13
f 2 4 10
f 7 12 1
f 12 8 1
f 3 12 11
f 12 14 11
f 13 1 8
f 2 13 8
f 7 6 14
f 12 7 14
f 14 6 4
f 11 14 4
f 10 9 2
f 6 5 13
f 9 6 13
f 8 12 3
f 7 1 5
f 1 13 5
