# Created by Open3D 
# object name: convex_0_coll
# number of vertices: 14
# number of triangles: 24
v 0.04892 0.0103963 -0.03434
v 0.05204 -0.040055 -0.0306975
v 0.04371 0.00935 0.03121
v 0.0562 0.04475 -0.02914
v 0.065565 0.00207 0.031215
v 0.06661 0.01768 -0.01456
v 0.06452 0.0156 0.032255
v 0.05932 -0.03746 -0.0333
v 0.06036 0.04475 -1e-05
v 0.05412 -0.0437 0.007285
v 0.06244 -0.04058 0.00832
v 0.06244 0.02809 -0.03538
v 0.05776 -0.03225 0.0182
v 0.05776 0.0036425 -0.03955
f 1 2 3
f 4 1 3
f 5 6 7
f 9 7 6
f 12 6 8
f 6 11 8
f 3 10 13
f 8 2 14
f 9 4 3
f 8 10 2
f 11 13 10
f 7 3 5
f 8 14 12
f 14 1 4
f 7 9 3
f 11 10 8
f 11 5 13
f 5 3 13
f 9 6 12
f 12 4 9
f 14 2 1
f 11 6 5
f 4 12 14
f 3 2 10
