# Created by Open3D 
# object name: convex_1_coll
# number of vertices: 14
# number of triangles: 24
v -0.01873 0.03641 0.00208
v -0.0229 -0.04891 0.00417
v -0.0580163 -0.0330363 0.00573
v 0.01665 0.02081 0.01561
v 0.01665 -0.03226 0.00417
v 0.01665 0.017165 0.00573
v 0.01665 -0.03226 0.01041
v -0.06661 0.00311 0.00833
v -0.061405 0.010395 0.01249
v -0.006255 0.009355 0.02082
v -0.01145 0.05099 0.00729
v -0.00209 -0.01352 0.019775
v -0.032255 -0.05099 0.00781
v -0.06452 -0.01977 0.01249
f 1 2 3
f 4 5 6
f 5 4 7
f 6 5 1
f 4 11 10
f 8 1 3
f 2 5 7
f 9 8 14
f 10 9 14
f 11 8 9
f 11 9 10
f 11 6 1
f 8 11 1
f 6 11 4
f 5 2 1
f 3 2 13
f 10 12 7
f 4 10 7
f 8 3 14
f 13 12 14
f 3 13 14
f 2 7 13
f 13 7 12
f 14 12 10
