# Original object name hint: convex_0
v -0.00001 -0.05613 0.01717
v -0.04810 -0.05613 -0.03781
v -0.05268 -0.05613 -0.03551
v -0.01832 -0.04697 0.01030
v 0.02977 -0.05842 -0.03093
v -0.03665 -0.06300 0.01259
v -0.05499 -0.04926 -0.03322
v -0.05039 -0.05155 0.01488
v 0.02977 -0.06300 0.01259
v -0.02520 -0.06300 -0.03551
v -0.00001 -0.05155 -0.03551
v 0.03207 -0.05842 0.01259
v 0.01603 -0.06300 -0.03551
v -0.02748 -0.04697 0.01717
v -0.04581 -0.05842 0.01717
v 0.02519 -0.05613 -0.02634
v 0.02977 -0.06300 -0.02864
v -0.01603 -0.04697 0.01717
v 0.01145 -0.05842 -0.03781
v -0.04581 -0.04926 -0.03551
v 0.02519 -0.06300 0.01488
v -0.04810 -0.05842 -0.03551
v -0.04810 -0.05842 0.01488
v 0.00457 -0.05155 -0.03322
v -0.05499 -0.05384 -0.02864
v -0.04581 -0.05155 -0.03781
v -0.04122 -0.06071 0.01717
v -0.02977 -0.06300 -0.03322
v -0.03206 -0.06071 -0.03781
v 0.02748 -0.05842 0.01488
v 0.00229 -0.05384 -0.03781
v -0.02977 -0.04697 0.01488
v -0.00230 -0.06071 0.01717
v 0.02748 -0.05842 -0.03322
v -0.05039 -0.05613 0.01259
v -0.04810 -0.05155 0.01717
v 0.03207 -0.06071 0.00572
v -0.04352 -0.06071 0.01488
v 0.01145 -0.06071 -0.03781
v -0.03665 -0.06300 0.00572
v -0.05499 -0.04926 -0.03093
v -0.05268 -0.04926 -0.03551
v 0.02519 -0.06300 -0.03322
v 0.02519 -0.05613 -0.02176
v -0.04581 -0.05842 -0.03781
v -0.02748 -0.04697 0.01030
v 0.06644 0.00115 -0.03322
v 0.07102 0.05154 0.01489
v 0.06644 0.05154 0.01489
v 0.06873 -0.03092 0.01489
v 0.05499 -0.02176 0.01489
v 0.05728 0.02863 -0.02864
v 0.05957 -0.03092 -0.02405
v 0.07331 0.03091 -0.01718
v 0.06873 0.05383 -0.02177
v 0.06873 -0.02863 -0.02177
v 0.05499 0.01716 0.01489
v 0.07331 -0.00114 0.01260
v 0.06415 0.05842 0.00114
v 0.07331 0.05383 0.00801
v 0.05499 -0.02406 -0.00345
v 0.06186 -0.03551 0.00343
v 0.06873 0.02176 -0.03322
v 0.07102 -0.01947 -0.01718
v 0.05957 -0.02406 -0.02864
v 0.05728 0.03322 -0.02405
v 0.06186 0.02405 -0.03322
v 0.07102 0.01031 -0.02864
v 0.06415 0.05383 -0.01948
v 0.05728 -0.02176 -0.02405
v 0.06873 -0.02406 -0.02635
v 0.06644 -0.03321 -0.01948
v 0.06415 0.04238 -0.02864
v 0.05728 -0.03092 0.00801
v 0.07102 0.05842 0.00801
v 0.07102 -0.02406 0.01031
v 0.07331 0.04696 0.01489
v 0.07331 0.01259 -0.01260
v 0.06873 -0.03321 -0.00345
v 0.07331 0.05154 -0.00345
v 0.05957 -0.03092 0.01489
v 0.06415 0.05612 0.00801
v 0.06873 0.05842 -0.01031
v 0.06415 -0.02635 -0.02864
v 0.05957 -0.03321 -0.01948
v 0.07102 0.03780 -0.02405
v 0.06873 0.00344 -0.03322
v 0.06186 0.00344 -0.03322
v 0.05728 0.01031 -0.02864
v 0.07331 0.00115 0.01489
v 0.06873 0.03322 -0.03093
v 0.05728 -0.02863 -0.01948
v 0.06415 0.05842 -0.00573
v 0.05728 0.03322 -0.01718
v 0.07102 0.05842 -0.00345
v 0.06644 0.05842 0.01031
v 0.06415 -0.03092 -0.02635
v 0.05499 -0.01718 -0.00345
v 0.07331 -0.00114 0.00572
v 0.06415 -0.03551 -0.00573
v 0.06873 -0.03321 0.00801
v 0.05499 -0.02635 0.00114
v 0.07102 0.02176 -0.02864
v 0.05957 0.03551 -0.02864
v 0.07331 0.01947 -0.01718
v 0.07102 0.04696 -0.01948
v 0.07102 -0.02176 -0.01260
v 0.05499 0.01716 0.01260
v 0.06415 0.04696 0.01489
v 0.06415 -0.03321 0.01260
v 0.07331 0.02863 0.03092
v 0.03895 0.00345 0.01718
v 0.04354 0.00803 0.01489
v 0.06873 -0.02864 0.01489
v 0.03895 0.01488 0.03780
v 0.07102 0.04695 0.01489
v 0.06644 0.01259 0.04009
v 0.03895 0.02863 0.01718
v 0.05956 -0.02404 0.02176
v 0.06185 0.02634 0.03780
v 0.03895 0.01947 0.03780
v 0.07331 0.00115 0.01489
v 0.07331 0.01488 0.03322
v 0.06644 0.04695 0.01718
v 0.05727 -0.02634 0.01489
v 0.06873 -0.02404 0.02176
v 0.05499 0.01030 0.04009
v 0.03895 0.00345 0.02634
v 0.03895 0.02863 0.02406
v 0.06873 0.02634 0.03780
v 0.07331 0.04237 0.01489
v 0.06185 0.02175 0.04009
v 0.04354 0.02175 0.01489
v 0.07102 0.01488 0.03780
v 0.05956 -0.01718 0.02634
v 0.07102 -0.01718 0.01718
v 0.06415 0.01030 0.04009
v 0.05956 -0.02864 0.01718
v 0.07102 0.04695 0.01718
v 0.06644 0.04695 0.01489
v 0.06644 -0.02176 0.02406
v 0.04125 0.01259 0.03780
v 0.05041 0.01717 0.04009
v 0.07102 0.02175 0.03780
v 0.07102 0.03092 0.03322
v 0.06644 0.02175 0.04009
v 0.06185 0.03092 0.03322
v 0.05727 -0.02634 0.01718
v 0.06873 -0.02864 0.01718
v 0.07331 0.00345 0.02176
v -0.07331 -0.02175 -0.02864
v -0.05957 0.02175 0.02176
v -0.05957 0.03092 0.01717
v -0.07331 0.04467 0.01259
v -0.06644 0.06300 -0.02634
v -0.06186 -0.01717 -0.03092
v -0.07102 -0.02175 0.01717
v -0.05957 -0.02635 0.01717
v -0.07331 0.03321 -0.03551
v -0.06873 -0.03322 -0.02864
v -0.06415 0.02175 -0.03780
v -0.07331 -0.01488 0.01717
v -0.07331 0.05841 -0.02405
v -0.07102 0.00803 -0.04009
v -0.06644 0.04925 0.01259
v -0.06873 0.01717 0.02176
v -0.07102 -0.02863 0.00113
v -0.06644 -0.01258 0.02176
v -0.06415 -0.02863 -0.03092
v -0.07102 0.06300 -0.02176
v -0.07102 0.03321 0.01946
v -0.06644 0.02175 -0.04009
v -0.06415 0.03779 -0.03092
v -0.06186 -0.00802 -0.03092
v -0.05957 -0.01258 0.02176
v -0.05957 -0.01947 0.01030
v -0.06644 0.04467 0.01717
v -0.06644 0.00803 -0.04009
v -0.07102 0.05841 -0.02864
v -0.05957 0.03092 0.01488
v -0.07331 -0.02405 -0.00115
v -0.07102 0.04925 0.01259
v -0.06644 0.06300 -0.02176
v -0.07102 0.03321 -0.03780
v -0.06873 -0.03092 -0.03092
v -0.06415 -0.03092 -0.02864
v -0.06415 0.04467 0.01488
v -0.07331 0.03092 0.01717
v -0.07331 0.00345 -0.03551
v -0.06186 -0.02175 -0.02864
v -0.06644 -0.03322 -0.02634
v -0.07102 -0.02405 0.01488
v -0.05957 0.01261 0.01030
v -0.07102 -0.01717 0.01946
v -0.06644 0.05841 -0.02864
v -0.07331 -0.02405 -0.02634
v -0.07331 0.04695 0.01030
v -0.07102 -0.02635 -0.03092
v -0.07102 0.02175 -0.04009
v -0.06415 -0.02175 0.01946
v -0.07102 0.04238 0.01717
v -0.07331 -0.02175 0.01030
v -0.06186 -0.02635 0.01717
v -0.07102 0.06300 -0.02634
v -0.06644 0.03092 -0.03780
v -0.06415 0.00803 -0.03780
v -0.06873 -0.00802 0.02176
v -0.05957 -0.02635 0.01488
v -0.06415 0.04238 0.01717
v -0.06873 -0.02863 0.00343
v 0.03895 0.00116 0.02176
v -0.05957 -0.02633 0.01260
v -0.02520 -0.03779 0.01031
v -0.02290 0.06300 0.01260
v 0.00915 0.01259 0.03322
v -0.05957 0.02404 0.02176
v 0.03207 0.02633 0.01260
v -0.02748 -0.04695 0.01718
v 0.03895 0.02633 0.02634
v -0.05957 -0.01488 0.02176
v -0.04352 0.06300 0.01718
v 0.02978 -0.02175 0.01260
v 0.00228 0.05153 0.01031
v -0.05498 0.03778 0.01260
v 0.03207 -0.01488 0.02176
v -0.01603 -0.04695 0.01718
v 0.03895 0.00802 0.02863
v -0.02290 0.06300 0.01718
v 0.00915 0.01717 0.03322
v -0.02061 0.05153 0.01031
v -0.00917 -0.03779 0.01031
v 0.03895 0.02862 0.01718
v -0.00459 0.00116 0.03092
v -0.00689 0.02176 0.03092
v 0.00915 -0.00571 0.02863
v -0.05957 0.02176 0.01260
v -0.02748 -0.04695 0.01260
v -0.05040 -0.03549 0.01718
v 0.01374 0.02404 0.03092
v 0.00687 0.04008 0.01031
v -0.00917 0.00802 0.03092
v -0.01603 -0.04695 0.01260
v 0.03895 0.02862 0.02405
v -0.03207 0.06300 0.01260
v 0.03436 -0.01717 0.01489
v 0.02978 -0.02175 0.01718
v 0.03436 0.01259 0.01260
v -0.05957 0.03092 0.01947
v 0.03895 0.01947 0.02863
v 0.03895 0.00345 0.01718
v -0.04352 0.06300 0.01489
v -0.05040 -0.03549 0.01260
v 0.00228 0.05153 0.01489
v 0.01374 0.01259 0.03322
v -0.05957 -0.02633 0.01718
v -0.05040 0.04696 0.01260
v -0.05040 0.03321 0.02176
v -0.05957 0.03092 0.01489
v 0.03665 0.02862 0.01489
v 0.03436 -0.01717 0.01718
v -0.00230 0.02404 0.03092
v -0.00917 0.01717 0.03092
v 0.01374 0.01717 0.03322
v -0.02290 -0.04008 0.01031
v 0.00228 0.00116 0.03092
v 0.03895 0.00345 0.02634
v 0.02978 -0.01946 0.01947
f 4 42 46 
f 9 6 10 
f 9 10 13 
f 1 14 15 
f 12 5 16 
f 9 13 17 
f 4 14 18 
f 14 1 18 
f 6 9 21 
f 9 12 21 
f 15 8 23 
f 3 22 23 
f 16 5 24 
f 4 18 24 
f 18 16 24 
f 20 4 24 
f 11 20 24 
f 7 3 25 
f 3 23 25 
f 19 2 26 
f 1 15 27 
f 6 21 27 
f 15 23 27 
f 10 6 28 
f 13 10 29 
f 2 19 29 
f 18 1 30 
f 12 18 30 
f 1 21 30 
f 21 12 30 
f 20 11 31 
f 19 26 31 
f 26 20 31 
f 14 4 32 
f 8 14 32 
f 21 1 33 
f 1 27 33 
f 27 21 33 
f 24 5 34 
f 11 24 34 
f 31 11 34 
f 19 31 34 
f 23 8 35 
f 8 25 35 
f 25 23 35 
f 14 8 36 
f 8 15 36 
f 15 14 36 
f 12 9 37 
f 5 12 37 
f 9 17 37 
f 17 5 37 
f 23 22 38 
f 6 27 38 
f 27 23 38 
f 13 29 39 
f 29 19 39 
f 19 34 39 
f 28 6 40 
f 22 28 40 
f 6 38 40 
f 38 22 40 
f 7 25 41 
f 25 8 41 
f 32 7 41 
f 8 32 41 
f 2 3 42 
f 3 7 42 
f 4 20 42 
f 26 2 42 
f 20 26 42 
f 5 17 43 
f 17 13 43 
f 34 5 43 
f 13 39 43 
f 39 34 43 
f 12 16 44 
f 18 12 44 
f 16 18 44 
f 3 2 45 
f 22 3 45 
f 10 28 45 
f 28 22 45 
f 29 10 45 
f 2 29 45 
f 32 4 46 
f 7 32 46 
f 42 7 46 
