# Original object name hint: convex_4
v -0.00001 -0.05613 0.01717
v -0.04810 -0.05613 -0.03781
v -0.05268 -0.05613 -0.03551
v -0.01832 -0.04697 0.01030
v 0.02977 -0.05842 -0.03093
v -0.03665 -0.06300 0.01259
v -0.05499 -0.04926 -0.03322
v -0.05039 -0.05155 0.01488
v 0.02977 -0.06300 0.01259
v -0.02520 -0.06300 -0.03551
v -0.00001 -0.05155 -0.03551
v 0.03207 -0.05842 0.01259
v 0.01603 -0.06300 -0.03551
v -0.02748 -0.04697 0.01717
v -0.04581 -0.05842 0.01717
v 0.02519 -0.05613 -0.02634
v 0.02977 -0.06300 -0.02864
v -0.01603 -0.04697 0.01717
v 0.01145 -0.05842 -0.03781
v -0.04581 -0.04926 -0.03551
v 0.02519 -0.06300 0.01488
v -0.04810 -0.05842 -0.03551
v -0.04810 -0.05842 0.01488
v 0.00457 -0.05155 -0.03322
v -0.05499 -0.05384 -0.02864
v -0.04581 -0.05155 -0.03781
v -0.04122 -0.06071 0.01717
v -0.02977 -0.06300 -0.03322
v -0.03206 -0.06071 -0.03781
v 0.02748 -0.05842 0.01488
v 0.00229 -0.05384 -0.03781
v -0.02977 -0.04697 0.01488
v -0.00230 -0.06071 0.01717
v 0.02748 -0.05842 -0.03322
v -0.05039 -0.05613 0.01259
v -0.04810 -0.05155 0.01717
v 0.03207 -0.06071 0.00572
v -0.04352 -0.06071 0.01488
v 0.01145 -0.06071 -0.03781
v -0.03665 -0.06300 0.00572
v -0.05499 -0.04926 -0.03093
v -0.05268 -0.04926 -0.03551
v 0.02519 -0.06300 -0.03322
v 0.02519 -0.05613 -0.02176
v -0.04581 -0.05842 -0.03781
v -0.02748 -0.04697 0.01030
v 0.06644 0.00115 -0.03322
v 0.07102 0.05154 0.01489
v 0.06644 0.05154 0.01489
v 0.06873 -0.03092 0.01489
v 0.05499 -0.02176 0.01489
v 0.05728 0.02863 -0.02864
v 0.05957 -0.03092 -0.02405
v 0.07331 0.03091 -0.01718
v 0.06873 0.05383 -0.02177
v 0.06873 -0.02863 -0.02177
v 0.05499 0.01716 0.01489
v 0.07331 -0.00114 0.01260
v 0.06415 0.05842 0.00114
v 0.07331 0.05383 0.00801
v 0.05499 -0.02406 -0.00345
v 0.06186 -0.03551 0.00343
v 0.06873 0.02176 -0.03322
v 0.07102 -0.01947 -0.01718
v 0.05957 -0.02406 -0.02864
v 0.05728 0.03322 -0.02405
v 0.06186 0.02405 -0.03322
v 0.07102 0.01031 -0.02864
v 0.06415 0.05383 -0.01948
v 0.05728 -0.02176 -0.02405
v 0.06873 -0.02406 -0.02635
v 0.06644 -0.03321 -0.01948
v 0.06415 0.04238 -0.02864
v 0.05728 -0.03092 0.00801
v 0.07102 0.05842 0.00801
v 0.07102 -0.02406 0.01031
v 0.07331 0.04696 0.01489
v 0.07331 0.01259 -0.01260
v 0.06873 -0.03321 -0.00345
v 0.07331 0.05154 -0.00345
v 0.05957 -0.03092 0.01489
v 0.06415 0.05612 0.00801
v 0.06873 0.05842 -0.01031
v 0.06415 -0.02635 -0.02864
v 0.05957 -0.03321 -0.01948
v 0.07102 0.03780 -0.02405
v 0.06873 0.00344 -0.03322
v 0.06186 0.00344 -0.03322
v 0.05728 0.01031 -0.02864
v 0.07331 0.00115 0.01489
v 0.06873 0.03322 -0.03093
v 0.05728 -0.02863 -0.01948
v 0.06415 0.05842 -0.00573
v 0.05728 0.03322 -0.01718
v 0.07102 0.05842 -0.00345
v 0.06644 0.05842 0.01031
v 0.06415 -0.03092 -0.02635
v 0.05499 -0.01718 -0.00345
v 0.07331 -0.00114 0.00572
v 0.06415 -0.03551 -0.00573
v 0.06873 -0.03321 0.00801
v 0.05499 -0.02635 0.00114
v 0.07102 0.02176 -0.02864
v 0.05957 0.03551 -0.02864
v 0.07331 0.01947 -0.01718
v 0.07102 0.04696 -0.01948
v 0.07102 -0.02176 -0.01260
v 0.05499 0.01716 0.01260
v 0.06415 0.04696 0.01489
v 0.06415 -0.03321 0.01260
v 0.07331 0.02863 0.03092
v 0.03895 0.00345 0.01718
v 0.04354 0.00803 0.01489
v 0.06873 -0.02864 0.01489
v 0.03895 0.01488 0.03780
v 0.07102 0.04695 0.01489
v 0.06644 0.01259 0.04009
v 0.03895 0.02863 0.01718
v 0.05956 -0.02404 0.02176
v 0.06185 0.02634 0.03780
v 0.03895 0.01947 0.03780
v 0.07331 0.00115 0.01489
v 0.07331 0.01488 0.03322
v 0.06644 0.04695 0.01718
v 0.05727 -0.02634 0.01489
v 0.06873 -0.02404 0.02176
v 0.05499 0.01030 0.04009
v 0.03895 0.00345 0.02634
v 0.03895 0.02863 0.02406
v 0.06873 0.02634 0.03780
v 0.07331 0.04237 0.01489
v 0.06185 0.02175 0.04009
v 0.04354 0.02175 0.01489
v 0.07102 0.01488 0.03780
v 0.05956 -0.01718 0.02634
v 0.07102 -0.01718 0.01718
v 0.06415 0.01030 0.04009
v 0.05956 -0.02864 0.01718
v 0.07102 0.04695 0.01718
v 0.06644 0.04695 0.01489
v 0.06644 -0.02176 0.02406
v 0.04125 0.01259 0.03780
v 0.05041 0.01717 0.04009
v 0.07102 0.02175 0.03780
v 0.07102 0.03092 0.03322
v 0.06644 0.02175 0.04009
v 0.06185 0.03092 0.03322
v 0.05727 -0.02634 0.01718
v 0.06873 -0.02864 0.01718
v 0.07331 0.00345 0.02176
v -0.07331 -0.02175 -0.02864
v -0.05957 0.02175 0.02176
v -0.05957 0.03092 0.01717
v -0.07331 0.04467 0.01259
v -0.06644 0.06300 -0.02634
v -0.06186 -0.01717 -0.03092
v -0.07102 -0.02175 0.01717
v -0.05957 -0.02635 0.01717
v -0.07331 0.03321 -0.03551
v -0.06873 -0.03322 -0.02864
v -0.06415 0.02175 -0.03780
v -0.07331 -0.01488 0.01717
v -0.07331 0.05841 -0.02405
v -0.07102 0.00803 -0.04009
v -0.06644 0.04925 0.01259
v -0.06873 0.01717 0.02176
v -0.07102 -0.02863 0.00113
v -0.06644 -0.01258 0.02176
v -0.06415 -0.02863 -0.03092
v -0.07102 0.06300 -0.02176
v -0.07102 0.03321 0.01946
v -0.06644 0.02175 -0.04009
v -0.06415 0.03779 -0.03092
v -0.06186 -0.00802 -0.03092
v -0.05957 -0.01258 0.02176
v -0.05957 -0.01947 0.01030
v -0.06644 0.04467 0.01717
v -0.06644 0.00803 -0.04009
v -0.07102 0.05841 -0.02864
v -0.05957 0.03092 0.01488
v -0.07331 -0.02405 -0.00115
v -0.07102 0.04925 0.01259
v -0.06644 0.06300 -0.02176
v -0.07102 0.03321 -0.03780
v -0.06873 -0.03092 -0.03092
v -0.06415 -0.03092 -0.02864
v -0.06415 0.04467 0.01488
v -0.07331 0.03092 0.01717
v -0.07331 0.00345 -0.03551
v -0.06186 -0.02175 -0.02864
v -0.06644 -0.03322 -0.02634
v -0.07102 -0.02405 0.01488
v -0.05957 0.01261 0.01030
v -0.07102 -0.01717 0.01946
v -0.06644 0.05841 -0.02864
v -0.07331 -0.02405 -0.02634
v -0.07331 0.04695 0.01030
v -0.07102 -0.02635 -0.03092
v -0.07102 0.02175 -0.04009
v -0.06415 -0.02175 0.01946
v -0.07102 0.04238 0.01717
v -0.07331 -0.02175 0.01030
v -0.06186 -0.02635 0.01717
v -0.07102 0.06300 -0.02634
v -0.06644 0.03092 -0.03780
v -0.06415 0.00803 -0.03780
v -0.06873 -0.00802 0.02176
v -0.05957 -0.02635 0.01488
v -0.06415 0.04238 0.01717
v -0.06873 -0.02863 0.00343
v 0.03895 0.00116 0.02176
v -0.05957 -0.02633 0.01260
v -0.02520 -0.03779 0.01031
v -0.02290 0.06300 0.01260
v 0.00915 0.01259 0.03322
v -0.05957 0.02404 0.02176
v 0.03207 0.02633 0.01260
v -0.02748 -0.04695 0.01718
v 0.03895 0.02633 0.02634
v -0.05957 -0.01488 0.02176
v -0.04352 0.06300 0.01718
v 0.02978 -0.02175 0.01260
v 0.00228 0.05153 0.01031
v -0.05498 0.03778 0.01260
v 0.03207 -0.01488 0.02176
v -0.01603 -0.04695 0.01718
v 0.03895 0.00802 0.02863
v -0.02290 0.06300 0.01718
v 0.00915 0.01717 0.03322
v -0.02061 0.05153 0.01031
v -0.00917 -0.03779 0.01031
v 0.03895 0.02862 0.01718
v -0.00459 0.00116 0.03092
v -0.00689 0.02176 0.03092
v 0.00915 -0.00571 0.02863
v -0.05957 0.02176 0.01260
v -0.02748 -0.04695 0.01260
v -0.05040 -0.03549 0.01718
v 0.01374 0.02404 0.03092
v 0.00687 0.04008 0.01031
v -0.00917 0.00802 0.03092
v -0.01603 -0.04695 0.01260
v 0.03895 0.02862 0.02405
v -0.03207 0.06300 0.01260
v 0.03436 -0.01717 0.01489
v 0.02978 -0.02175 0.01718
v 0.03436 0.01259 0.01260
v -0.05957 0.03092 0.01947
v 0.03895 0.01947 0.02863
v 0.03895 0.00345 0.01718
v -0.04352 0.06300 0.01489
v -0.05040 -0.03549 0.01260
v 0.00228 0.05153 0.01489
v 0.01374 0.01259 0.03322
v -0.05957 -0.02633 0.01718
v -0.05040 0.04696 0.01260
v -0.05040 0.03321 0.02176
v -0.05957 0.03092 0.01489
v 0.03665 0.02862 0.01489
v 0.03436 -0.01717 0.01718
v -0.00230 0.02404 0.03092
v -0.00917 0.01717 0.03092
v 0.01374 0.01717 0.03322
v -0.02290 -0.04008 0.01031
v 0.00228 0.00116 0.03092
v 0.03895 0.00345 0.02634
v 0.02978 -0.01946 0.01947
f 246 225 267 
f 216 212 220 
f 211 219 227 
f 214 221 228 
f 223 214 228 
f 223 213 230 
f 214 223 230 
f 213 223 231 
f 219 211 232 
f 220 218 233 
f 218 226 233 
f 226 225 235 
f 225 227 235 
f 213 212 236 
f 212 216 236 
f 230 213 236 
f 224 230 236 
f 226 218 237 
f 218 220 238 
f 237 218 238 
f 219 228 239 
f 228 221 239 
f 223 217 240 
f 231 223 240 
f 222 231 240 
f 216 220 241 
f 215 229 241 
f 233 215 241 
f 220 233 241 
f 222 226 242 
f 231 222 242 
f 226 237 242 
f 228 219 243 
f 219 232 243 
f 232 223 243 
f 221 214 244 
f 214 230 244 
f 226 222 246 
f 222 245 246 
f 240 217 247 
f 222 240 247 
f 245 222 247 
f 216 221 248 
f 236 216 248 
f 227 219 249 
f 232 211 250 
f 211 245 250 
f 247 232 250 
f 245 247 250 
f 221 244 251 
f 248 221 251 
f 238 212 252 
f 237 238 252 
f 223 228 253 
f 228 243 253 
f 243 223 253 
f 229 215 254 
f 215 233 254 
f 235 227 254 
f 227 249 254 
f 220 212 255 
f 212 238 255 
f 238 220 255 
f 230 224 256 
f 244 230 256 
f 251 244 256 
f 221 216 257 
f 216 234 257 
f 234 221 257 
f 224 236 258 
f 236 248 258 
f 248 251 258 
f 256 224 258 
f 251 256 258 
f 217 223 259 
f 223 232 259 
f 247 217 259 
f 232 247 259 
f 245 211 260 
f 225 246 260 
f 246 245 260 
f 221 234 261 
f 234 229 261 
f 239 221 261 
f 229 239 261 
f 234 216 262 
f 229 234 262 
f 216 241 262 
f 241 229 262 
f 219 239 263 
f 239 229 263 
f 249 219 263 
f 229 254 263 
f 254 249 263 
f 212 213 264 
f 213 231 264 
f 231 242 264 
f 242 237 264 
f 252 212 264 
f 237 252 264 
f 233 226 265 
f 226 235 265 
f 254 233 265 
f 235 254 265 
f 211 227 266 
f 227 225 266 
f 260 211 266 
f 225 260 266 
f 225 226 267 
f 226 246 267 
