# Original object name hint: convex_1
v -0.00001 -0.05613 0.01717
v -0.04810 -0.05613 -0.03781
v -0.05268 -0.05613 -0.03551
v -0.01832 -0.04697 0.01030
v 0.02977 -0.05842 -0.03093
v -0.03665 -0.06300 0.01259
v -0.05499 -0.04926 -0.03322
v -0.05039 -0.05155 0.01488
v 0.02977 -0.06300 0.01259
v -0.02520 -0.06300 -0.03551
v -0.00001 -0.05155 -0.03551
v 0.03207 -0.05842 0.01259
v 0.01603 -0.06300 -0.03551
v -0.02748 -0.04697 0.01717
v -0.04581 -0.05842 0.01717
v 0.02519 -0.05613 -0.02634
v 0.02977 -0.06300 -0.02864
v -0.01603 -0.04697 0.01717
v 0.01145 -0.05842 -0.03781
v -0.04581 -0.04926 -0.03551
v 0.02519 -0.06300 0.01488
v -0.04810 -0.05842 -0.03551
v -0.04810 -0.05842 0.01488
v 0.00457 -0.05155 -0.03322
v -0.05499 -0.05384 -0.02864
v -0.04581 -0.05155 -0.03781
v -0.04122 -0.06071 0.01717
v -0.02977 -0.06300 -0.03322
v -0.03206 -0.06071 -0.03781
v 0.02748 -0.05842 0.01488
v 0.00229 -0.05384 -0.03781
v -0.02977 -0.04697 0.01488
v -0.00230 -0.06071 0.01717
v 0.02748 -0.05842 -0.03322
v -0.05039 -0.05613 0.01259
v -0.04810 -0.05155 0.01717
v 0.03207 -0.06071 0.00572
v -0.04352 -0.06071 0.01488
v 0.01145 -0.06071 -0.03781
v -0.03665 -0.06300 0.00572
v -0.05499 -0.04926 -0.03093
v -0.05268 -0.04926 -0.03551
v 0.02519 -0.06300 -0.03322
v 0.02519 -0.05613 -0.02176
v -0.04581 -0.05842 -0.03781
v -0.02748 -0.04697 0.01030
v 0.06644 0.00115 -0.03322
v 0.07102 0.05154 0.01489
v 0.06644 0.05154 0.01489
v 0.06873 -0.03092 0.01489
v 0.05499 -0.02176 0.01489
v 0.05728 0.02863 -0.02864
v 0.05957 -0.03092 -0.02405
v 0.07331 0.03091 -0.01718
v 0.06873 0.05383 -0.02177
v 0.06873 -0.02863 -0.02177
v 0.05499 0.01716 0.01489
v 0.07331 -0.00114 0.01260
v 0.06415 0.05842 0.00114
v 0.07331 0.05383 0.00801
v 0.05499 -0.02406 -0.00345
v 0.06186 -0.03551 0.00343
v 0.06873 0.02176 -0.03322
v 0.07102 -0.01947 -0.01718
v 0.05957 -0.02406 -0.02864
v 0.05728 0.03322 -0.02405
v 0.06186 0.02405 -0.03322
v 0.07102 0.01031 -0.02864
v 0.06415 0.05383 -0.01948
v 0.05728 -0.02176 -0.02405
v 0.06873 -0.02406 -0.02635
v 0.06644 -0.03321 -0.01948
v 0.06415 0.04238 -0.02864
v 0.05728 -0.03092 0.00801
v 0.07102 0.05842 0.00801
v 0.07102 -0.02406 0.01031
v 0.07331 0.04696 0.01489
v 0.07331 0.01259 -0.01260
v 0.06873 -0.03321 -0.00345
v 0.07331 0.05154 -0.00345
v 0.05957 -0.03092 0.01489
v 0.06415 0.05612 0.00801
v 0.06873 0.05842 -0.01031
v 0.06415 -0.02635 -0.02864
v 0.05957 -0.03321 -0.01948
v 0.07102 0.03780 -0.02405
v 0.06873 0.00344 -0.03322
v 0.06186 0.00344 -0.03322
v 0.05728 0.01031 -0.02864
v 0.07331 0.00115 0.01489
v 0.06873 0.03322 -0.03093
v 0.05728 -0.02863 -0.01948
v 0.06415 0.05842 -0.00573
v 0.05728 0.03322 -0.01718
v 0.07102 0.05842 -0.00345
v 0.06644 0.05842 0.01031
v 0.06415 -0.03092 -0.02635
v 0.05499 -0.01718 -0.00345
v 0.07331 -0.00114 0.00572
v 0.06415 -0.03551 -0.00573
v 0.06873 -0.03321 0.00801
v 0.05499 -0.02635 0.00114
v 0.07102 0.02176 -0.02864
v 0.05957 0.03551 -0.02864
v 0.07331 0.01947 -0.01718
v 0.07102 0.04696 -0.01948
v 0.07102 -0.02176 -0.01260
v 0.05499 0.01716 0.01260
v 0.06415 0.04696 0.01489
v 0.06415 -0.03321 0.01260
v 0.07331 0.02863 0.03092
v 0.03895 0.00345 0.01718
v 0.04354 0.00803 0.01489
v 0.06873 -0.02864 0.01489
v 0.03895 0.01488 0.03780
v 0.07102 0.04695 0.01489
v 0.06644 0.01259 0.04009
v 0.03895 0.02863 0.01718
v 0.05956 -0.02404 0.02176
v 0.06185 0.02634 0.03780
v 0.03895 0.01947 0.03780
v 0.07331 0.00115 0.01489
v 0.07331 0.01488 0.03322
v 0.06644 0.04695 0.01718
v 0.05727 -0.02634 0.01489
v 0.06873 -0.02404 0.02176
v 0.05499 0.01030 0.04009
v 0.03895 0.00345 0.02634
v 0.03895 0.02863 0.02406
v 0.06873 0.02634 0.03780
v 0.07331 0.04237 0.01489
v 0.06185 0.02175 0.04009
v 0.04354 0.02175 0.01489
v 0.07102 0.01488 0.03780
v 0.05956 -0.01718 0.02634
v 0.07102 -0.01718 0.01718
v 0.06415 0.01030 0.04009
v 0.05956 -0.02864 0.01718
v 0.07102 0.04695 0.01718
v 0.06644 0.04695 0.01489
v 0.06644 -0.02176 0.02406
v 0.04125 0.01259 0.03780
v 0.05041 0.01717 0.04009
v 0.07102 0.02175 0.03780
v 0.07102 0.03092 0.03322
v 0.06644 0.02175 0.04009
v 0.06185 0.03092 0.03322
v 0.05727 -0.02634 0.01718
v 0.06873 -0.02864 0.01718
v 0.07331 0.00345 0.02176
v -0.07331 -0.02175 -0.02864
v -0.05957 0.02175 0.02176
v -0.05957 0.03092 0.01717
v -0.07331 0.04467 0.01259
v -0.06644 0.06300 -0.02634
v -0.06186 -0.01717 -0.03092
v -0.07102 -0.02175 0.01717
v -0.05957 -0.02635 0.01717
v -0.07331 0.03321 -0.03551
v -0.06873 -0.03322 -0.02864
v -0.06415 0.02175 -0.03780
v -0.07331 -0.01488 0.01717
v -0.07331 0.05841 -0.02405
v -0.07102 0.00803 -0.04009
v -0.06644 0.04925 0.01259
v -0.06873 0.01717 0.02176
v -0.07102 -0.02863 0.00113
v -0.06644 -0.01258 0.02176
v -0.06415 -0.02863 -0.03092
v -0.07102 0.06300 -0.02176
v -0.07102 0.03321 0.01946
v -0.06644 0.02175 -0.04009
v -0.06415 0.03779 -0.03092
v -0.06186 -0.00802 -0.03092
v -0.05957 -0.01258 0.02176
v -0.05957 -0.01947 0.01030
v -0.06644 0.04467 0.01717
v -0.06644 0.00803 -0.04009
v -0.07102 0.05841 -0.02864
v -0.05957 0.03092 0.01488
v -0.07331 -0.02405 -0.00115
v -0.07102 0.04925 0.01259
v -0.06644 0.06300 -0.02176
v -0.07102 0.03321 -0.03780
v -0.06873 -0.03092 -0.03092
v -0.06415 -0.03092 -0.02864
v -0.06415 0.04467 0.01488
v -0.07331 0.03092 0.01717
v -0.07331 0.00345 -0.03551
v -0.06186 -0.02175 -0.02864
v -0.06644 -0.03322 -0.02634
v -0.07102 -0.02405 0.01488
v -0.05957 0.01261 0.01030
v -0.07102 -0.01717 0.01946
v -0.06644 0.05841 -0.02864
v -0.07331 -0.02405 -0.02634
v -0.07331 0.04695 0.01030
v -0.07102 -0.02635 -0.03092
v -0.07102 0.02175 -0.04009
v -0.06415 -0.02175 0.01946
v -0.07102 0.04238 0.01717
v -0.07331 -0.02175 0.01030
v -0.06186 -0.02635 0.01717
v -0.07102 0.06300 -0.02634
v -0.06644 0.03092 -0.03780
v -0.06415 0.00803 -0.03780
v -0.06873 -0.00802 0.02176
v -0.05957 -0.02635 0.01488
v -0.06415 0.04238 0.01717
v -0.06873 -0.02863 0.00343
v 0.03895 0.00116 0.02176
v -0.05957 -0.02633 0.01260
v -0.02520 -0.03779 0.01031
v -0.02290 0.06300 0.01260
v 0.00915 0.01259 0.03322
v -0.05957 0.02404 0.02176
v 0.03207 0.02633 0.01260
v -0.02748 -0.04695 0.01718
v 0.03895 0.02633 0.02634
v -0.05957 -0.01488 0.02176
v -0.04352 0.06300 0.01718
v 0.02978 -0.02175 0.01260
v 0.00228 0.05153 0.01031
v -0.05498 0.03778 0.01260
v 0.03207 -0.01488 0.02176
v -0.01603 -0.04695 0.01718
v 0.03895 0.00802 0.02863
v -0.02290 0.06300 0.01718
v 0.00915 0.01717 0.03322
v -0.02061 0.05153 0.01031
v -0.00917 -0.03779 0.01031
v 0.03895 0.02862 0.01718
v -0.00459 0.00116 0.03092
v -0.00689 0.02176 0.03092
v 0.00915 -0.00571 0.02863
v -0.05957 0.02176 0.01260
v -0.02748 -0.04695 0.01260
v -0.05040 -0.03549 0.01718
v 0.01374 0.02404 0.03092
v 0.00687 0.04008 0.01031
v -0.00917 0.00802 0.03092
v -0.01603 -0.04695 0.01260
v 0.03895 0.02862 0.02405
v -0.03207 0.06300 0.01260
v 0.03436 -0.01717 0.01489
v 0.02978 -0.02175 0.01718
v 0.03436 0.01259 0.01260
v -0.05957 0.03092 0.01947
v 0.03895 0.01947 0.02863
v 0.03895 0.00345 0.01718
v -0.04352 0.06300 0.01489
v -0.05040 -0.03549 0.01260
v 0.00228 0.05153 0.01489
v 0.01374 0.01259 0.03322
v -0.05957 -0.02633 0.01718
v -0.05040 0.04696 0.01260
v -0.05040 0.03321 0.02176
v -0.05957 0.03092 0.01489
v 0.03665 0.02862 0.01489
v 0.03436 -0.01717 0.01718
v -0.00230 0.02404 0.03092
v -0.00917 0.01717 0.03092
v 0.01374 0.01717 0.03322
v -0.02290 -0.04008 0.01031
v 0.00228 0.00116 0.03092
v 0.03895 0.00345 0.02634
v 0.02978 -0.01946 0.01947
f 62 101 110 
f 48 49 50 
f 50 49 51 
f 51 49 57 
f 58 54 60 
f 51 57 61 
f 63 47 67 
f 64 56 71 
f 68 64 71 
f 69 55 73 
f 48 50 77 
f 58 60 77 
f 75 48 77 
f 60 75 77 
f 54 58 78 
f 72 56 79 
f 60 54 80 
f 50 51 81 
f 51 74 81 
f 74 62 81 
f 59 57 82 
f 55 69 83 
f 59 75 83 
f 65 47 84 
f 62 74 85 
f 47 63 87 
f 63 68 87 
f 68 71 87 
f 84 47 87 
f 71 84 87 
f 47 65 88 
f 52 67 88 
f 67 47 88 
f 61 52 89 
f 70 61 89 
f 65 70 89 
f 88 65 89 
f 52 88 89 
f 50 76 90 
f 76 58 90 
f 77 50 90 
f 58 77 90 
f 63 67 91 
f 73 55 91 
f 67 73 91 
f 55 86 91 
f 65 53 92 
f 61 70 92 
f 70 65 92 
f 53 85 92 
f 66 59 93 
f 69 66 93 
f 83 69 93 
f 59 83 93 
f 57 59 94 
f 66 57 94 
f 59 66 94 
f 75 60 95 
f 80 55 95 
f 60 80 95 
f 55 83 95 
f 83 75 95 
f 49 48 96 
f 48 75 96 
f 75 59 96 
f 59 82 96 
f 53 65 97 
f 71 56 97 
f 56 72 97 
f 65 84 97 
f 84 71 97 
f 85 53 97 
f 72 85 97 
f 52 61 98 
f 61 57 98 
f 58 76 99 
f 78 58 99 
f 64 78 99 
f 72 79 100 
f 62 85 100 
f 85 72 100 
f 76 50 101 
f 79 76 101 
f 62 100 101 
f 100 79 101 
f 51 61 102 
f 74 51 102 
f 85 74 102 
f 61 92 102 
f 92 85 102 
f 68 63 103 
f 54 68 103 
f 86 54 103 
f 63 91 103 
f 91 86 103 
f 52 66 104 
f 67 52 104 
f 66 69 104 
f 73 67 104 
f 69 73 104 
f 68 54 105 
f 64 68 105 
f 54 78 105 
f 78 64 105 
f 80 54 106 
f 55 80 106 
f 86 55 106 
f 54 86 106 
f 56 64 107 
f 79 56 107 
f 76 79 107 
f 99 76 107 
f 64 99 107 
f 66 52 108 
f 57 66 108 
f 52 98 108 
f 98 57 108 
f 57 49 109 
f 82 57 109 
f 49 96 109 
f 96 82 109 
f 50 81 110 
f 81 62 110 
f 101 50 110 
