# Original object name hint: convex_2
v -0.00001 -0.05613 0.01717
v -0.04810 -0.05613 -0.03781
v -0.05268 -0.05613 -0.03551
v -0.01832 -0.04697 0.01030
v 0.02977 -0.05842 -0.03093
v -0.03665 -0.06300 0.01259
v -0.05499 -0.04926 -0.03322
v -0.05039 -0.05155 0.01488
v 0.02977 -0.06300 0.01259
v -0.02520 -0.06300 -0.03551
v -0.00001 -0.05155 -0.03551
v 0.03207 -0.05842 0.01259
v 0.01603 -0.06300 -0.03551
v -0.02748 -0.04697 0.01717
v -0.04581 -0.05842 0.01717
v 0.02519 -0.05613 -0.02634
v 0.02977 -0.06300 -0.02864
v -0.01603 -0.04697 0.01717
v 0.01145 -0.05842 -0.03781
v -0.04581 -0.04926 -0.03551
v 0.02519 -0.06300 0.01488
v -0.04810 -0.05842 -0.03551
v -0.04810 -0.05842 0.01488
v 0.00457 -0.05155 -0.03322
v -0.05499 -0.05384 -0.02864
v -0.04581 -0.05155 -0.03781
v -0.04122 -0.06071 0.01717
v -0.02977 -0.06300 -0.03322
v -0.03206 -0.06071 -0.03781
v 0.02748 -0.05842 0.01488
v 0.00229 -0.05384 -0.03781
v -0.02977 -0.04697 0.01488
v -0.00230 -0.06071 0.01717
v 0.02748 -0.05842 -0.03322
v -0.05039 -0.05613 0.01259
v -0.04810 -0.05155 0.01717
v 0.03207 -0.06071 0.00572
v -0.04352 -0.06071 0.01488
v 0.01145 -0.06071 -0.03781
v -0.03665 -0.06300 0.00572
v -0.05499 -0.04926 -0.03093
v -0.05268 -0.04926 -0.03551
v 0.02519 -0.06300 -0.03322
v 0.02519 -0.05613 -0.02176
v -0.04581 -0.05842 -0.03781
v -0.02748 -0.04697 0.01030
v 0.06644 0.00115 -0.03322
v 0.07102 0.05154 0.01489
v 0.06644 0.05154 0.01489
v 0.06873 -0.03092 0.01489
v 0.05499 -0.02176 0.01489
v 0.05728 0.02863 -0.02864
v 0.05957 -0.03092 -0.02405
v 0.07331 0.03091 -0.01718
v 0.06873 0.05383 -0.02177
v 0.06873 -0.02863 -0.02177
v 0.05499 0.01716 0.01489
v 0.07331 -0.00114 0.01260
v 0.06415 0.05842 0.00114
v 0.07331 0.05383 0.00801
v 0.05499 -0.02406 -0.00345
v 0.06186 -0.03551 0.00343
v 0.06873 0.02176 -0.03322
v 0.07102 -0.01947 -0.01718
v 0.05957 -0.02406 -0.02864
v 0.05728 0.03322 -0.02405
v 0.06186 0.02405 -0.03322
v 0.07102 0.01031 -0.02864
v 0.06415 0.05383 -0.01948
v 0.05728 -0.02176 -0.02405
v 0.06873 -0.02406 -0.02635
v 0.06644 -0.03321 -0.01948
v 0.06415 0.04238 -0.02864
v 0.05728 -0.03092 0.00801
v 0.07102 0.05842 0.00801
v 0.07102 -0.02406 0.01031
v 0.07331 0.04696 0.01489
v 0.07331 0.01259 -0.01260
v 0.06873 -0.03321 -0.00345
v 0.07331 0.05154 -0.00345
v 0.05957 -0.03092 0.01489
v 0.06415 0.05612 0.00801
v 0.06873 0.05842 -0.01031
v 0.06415 -0.02635 -0.02864
v 0.05957 -0.03321 -0.01948
v 0.07102 0.03780 -0.02405
v 0.06873 0.00344 -0.03322
v 0.06186 0.00344 -0.03322
v 0.05728 0.01031 -0.02864
v 0.07331 0.00115 0.01489
v 0.06873 0.03322 -0.03093
v 0.05728 -0.02863 -0.01948
v 0.06415 0.05842 -0.00573
v 0.05728 0.03322 -0.01718
v 0.07102 0.05842 -0.00345
v 0.06644 0.05842 0.01031
v 0.06415 -0.03092 -0.02635
v 0.05499 -0.01718 -0.00345
v 0.07331 -0.00114 0.00572
v 0.06415 -0.03551 -0.00573
v 0.06873 -0.03321 0.00801
v 0.05499 -0.02635 0.00114
v 0.07102 0.02176 -0.02864
v 0.05957 0.03551 -0.02864
v 0.07331 0.01947 -0.01718
v 0.07102 0.04696 -0.01948
v 0.07102 -0.02176 -0.01260
v 0.05499 0.01716 0.01260
v 0.06415 0.04696 0.01489
v 0.06415 -0.03321 0.01260
v 0.07331 0.02863 0.03092
v 0.03895 0.00345 0.01718
v 0.04354 0.00803 0.01489
v 0.06873 -0.02864 0.01489
v 0.03895 0.01488 0.03780
v 0.07102 0.04695 0.01489
v 0.06644 0.01259 0.04009
v 0.03895 0.02863 0.01718
v 0.05956 -0.02404 0.02176
v 0.06185 0.02634 0.03780
v 0.03895 0.01947 0.03780
v 0.07331 0.00115 0.01489
v 0.07331 0.01488 0.03322
v 0.06644 0.04695 0.01718
v 0.05727 -0.02634 0.01489
v 0.06873 -0.02404 0.02176
v 0.05499 0.01030 0.04009
v 0.03895 0.00345 0.02634
v 0.03895 0.02863 0.02406
v 0.06873 0.02634 0.03780
v 0.07331 0.04237 0.01489
v 0.06185 0.02175 0.04009
v 0.04354 0.02175 0.01489
v 0.07102 0.01488 0.03780
v 0.05956 -0.01718 0.02634
v 0.07102 -0.01718 0.01718
v 0.06415 0.01030 0.04009
v 0.05956 -0.02864 0.01718
v 0.07102 0.04695 0.01718
v 0.06644 0.04695 0.01489
v 0.06644 -0.02176 0.02406
v 0.04125 0.01259 0.03780
v 0.05041 0.01717 0.04009
v 0.07102 0.02175 0.03780
v 0.07102 0.03092 0.03322
v 0.06644 0.02175 0.04009
v 0.06185 0.03092 0.03322
v 0.05727 -0.02634 0.01718
v 0.06873 -0.02864 0.01718
v 0.07331 0.00345 0.02176
v -0.07331 -0.02175 -0.02864
v -0.05957 0.02175 0.02176
v -0.05957 0.03092 0.01717
v -0.07331 0.04467 0.01259
v -0.06644 0.06300 -0.02634
v -0.06186 -0.01717 -0.03092
v -0.07102 -0.02175 0.01717
v -0.05957 -0.02635 0.01717
v -0.07331 0.03321 -0.03551
v -0.06873 -0.03322 -0.02864
v -0.06415 0.02175 -0.03780
v -0.07331 -0.01488 0.01717
v -0.07331 0.05841 -0.02405
v -0.07102 0.00803 -0.04009
v -0.06644 0.04925 0.01259
v -0.06873 0.01717 0.02176
v -0.07102 -0.02863 0.00113
v -0.06644 -0.01258 0.02176
v -0.06415 -0.02863 -0.03092
v -0.07102 0.06300 -0.02176
v -0.07102 0.03321 0.01946
v -0.06644 0.02175 -0.04009
v -0.06415 0.03779 -0.03092
v -0.06186 -0.00802 -0.03092
v -0.05957 -0.01258 0.02176
v -0.05957 -0.01947 0.01030
v -0.06644 0.04467 0.01717
v -0.06644 0.00803 -0.04009
v -0.07102 0.05841 -0.02864
v -0.05957 0.03092 0.01488
v -0.07331 -0.02405 -0.00115
v -0.07102 0.04925 0.01259
v -0.06644 0.06300 -0.02176
v -0.07102 0.03321 -0.03780
v -0.06873 -0.03092 -0.03092
v -0.06415 -0.03092 -0.02864
v -0.06415 0.04467 0.01488
v -0.07331 0.03092 0.01717
v -0.07331 0.00345 -0.03551
v -0.06186 -0.02175 -0.02864
v -0.06644 -0.03322 -0.02634
v -0.07102 -0.02405 0.01488
v -0.05957 0.01261 0.01030
v -0.07102 -0.01717 0.01946
v -0.06644 0.05841 -0.02864
v -0.07331 -0.02405 -0.02634
v -0.07331 0.04695 0.01030
v -0.07102 -0.02635 -0.03092
v -0.07102 0.02175 -0.04009
v -0.06415 -0.02175 0.01946
v -0.07102 0.04238 0.01717
v -0.07331 -0.02175 0.01030
v -0.06186 -0.02635 0.01717
v -0.07102 0.06300 -0.02634
v -0.06644 0.03092 -0.03780
v -0.06415 0.00803 -0.03780
v -0.06873 -0.00802 0.02176
v -0.05957 -0.02635 0.01488
v -0.06415 0.04238 0.01717
v -0.06873 -0.02863 0.00343
v 0.03895 0.00116 0.02176
v -0.05957 -0.02633 0.01260
v -0.02520 -0.03779 0.01031
v -0.02290 0.06300 0.01260
v 0.00915 0.01259 0.03322
v -0.05957 0.02404 0.02176
v 0.03207 0.02633 0.01260
v -0.02748 -0.04695 0.01718
v 0.03895 0.02633 0.02634
v -0.05957 -0.01488 0.02176
v -0.04352 0.06300 0.01718
v 0.02978 -0.02175 0.01260
v 0.00228 0.05153 0.01031
v -0.05498 0.03778 0.01260
v 0.03207 -0.01488 0.02176
v -0.01603 -0.04695 0.01718
v 0.03895 0.00802 0.02863
v -0.02290 0.06300 0.01718
v 0.00915 0.01717 0.03322
v -0.02061 0.05153 0.01031
v -0.00917 -0.03779 0.01031
v 0.03895 0.02862 0.01718
v -0.00459 0.00116 0.03092
v -0.00689 0.02176 0.03092
v 0.00915 -0.00571 0.02863
v -0.05957 0.02176 0.01260
v -0.02748 -0.04695 0.01260
v -0.05040 -0.03549 0.01718
v 0.01374 0.02404 0.03092
v 0.00687 0.04008 0.01031
v -0.00917 0.00802 0.03092
v -0.01603 -0.04695 0.01260
v 0.03895 0.02862 0.02405
v -0.03207 0.06300 0.01260
v 0.03436 -0.01717 0.01489
v 0.02978 -0.02175 0.01718
v 0.03436 0.01259 0.01260
v -0.05957 0.03092 0.01947
v 0.03895 0.01947 0.02863
v 0.03895 0.00345 0.01718
v -0.04352 0.06300 0.01489
v -0.05040 -0.03549 0.01260
v 0.00228 0.05153 0.01489
v 0.01374 0.01259 0.03322
v -0.05957 -0.02633 0.01718
v -0.05040 0.04696 0.01260
v -0.05040 0.03321 0.02176
v -0.05957 0.03092 0.01489
v 0.03665 0.02862 0.01489
v 0.03436 -0.01717 0.01718
v -0.00230 0.02404 0.03092
v -0.00917 0.01717 0.03092
v 0.01374 0.01717 0.03322
v -0.02290 -0.04008 0.01031
v 0.00228 0.00116 0.03092
v 0.03895 0.00345 0.02634
v 0.02978 -0.01946 0.01947
f 123 136 150 
f 114 113 116 
f 113 112 118 
f 112 115 118 
f 118 115 121 
f 114 116 122 
f 122 111 123 
f 112 113 125 
f 113 114 125 
f 115 112 128 
f 112 125 128 
f 118 121 129 
f 124 118 129 
f 121 124 129 
f 124 120 130 
f 111 122 131 
f 122 116 131 
f 120 121 132 
f 127 117 132 
f 130 120 132 
f 116 113 133 
f 113 118 133 
f 117 126 134 
f 126 123 134 
f 114 122 136 
f 123 126 136 
f 117 127 137 
f 125 114 138 
f 116 124 139 
f 124 130 139 
f 111 131 139 
f 131 116 139 
f 124 116 140 
f 118 124 140 
f 116 133 140 
f 133 118 140 
f 126 117 141 
f 135 119 141 
f 127 135 141 
f 117 137 141 
f 137 127 141 
f 119 138 141 
f 115 119 142 
f 127 115 142 
f 119 135 142 
f 135 127 142 
f 121 115 143 
f 115 127 143 
f 132 121 143 
f 127 132 143 
f 123 111 144 
f 134 123 144 
f 117 134 144 
f 111 139 145 
f 139 130 145 
f 144 111 145 
f 130 144 145 
f 132 117 146 
f 130 132 146 
f 144 130 146 
f 117 144 146 
f 121 120 147 
f 120 124 147 
f 124 121 147 
f 119 115 148 
f 115 128 148 
f 128 125 148 
f 138 119 148 
f 125 138 148 
f 114 136 149 
f 136 126 149 
f 138 114 149 
f 126 141 149 
f 141 138 149 
f 122 123 150 
f 136 122 150 
