# Original object name hint: convex_3
v -0.00001 -0.05613 0.01717
v -0.04810 -0.05613 -0.03781
v -0.05268 -0.05613 -0.03551
v -0.01832 -0.04697 0.01030
v 0.02977 -0.05842 -0.03093
v -0.03665 -0.06300 0.01259
v -0.05499 -0.04926 -0.03322
v -0.05039 -0.05155 0.01488
v 0.02977 -0.06300 0.01259
v -0.02520 -0.06300 -0.03551
v -0.00001 -0.05155 -0.03551
v 0.03207 -0.05842 0.01259
v 0.01603 -0.06300 -0.03551
v -0.02748 -0.04697 0.01717
v -0.04581 -0.05842 0.01717
v 0.02519 -0.05613 -0.02634
v 0.02977 -0.06300 -0.02864
v -0.01603 -0.04697 0.01717
v 0.01145 -0.05842 -0.03781
v -0.04581 -0.04926 -0.03551
v 0.02519 -0.06300 0.01488
v -0.04810 -0.05842 -0.03551
v -0.04810 -0.05842 0.01488
v 0.00457 -0.05155 -0.03322
v -0.05499 -0.05384 -0.02864
v -0.04581 -0.05155 -0.03781
v -0.04122 -0.06071 0.01717
v -0.02977 -0.06300 -0.03322
v -0.03206 -0.06071 -0.03781
v 0.02748 -0.05842 0.01488
v 0.00229 -0.05384 -0.03781
v -0.02977 -0.04697 0.01488
v -0.00230 -0.06071 0.01717
v 0.02748 -0.05842 -0.03322
v -0.05039 -0.05613 0.01259
v -0.04810 -0.05155 0.01717
v 0.03207 -0.06071 0.00572
v -0.04352 -0.06071 0.01488
v 0.01145 -0.06071 -0.03781
v -0.03665 -0.06300 0.00572
v -0.05499 -0.04926 -0.03093
v -0.05268 -0.04926 -0.03551
v 0.02519 -0.06300 -0.03322
v 0.02519 -0.05613 -0.02176
v -0.04581 -0.05842 -0.03781
v -0.02748 -0.04697 0.01030
v 0.06644 0.00115 -0.03322
v 0.07102 0.05154 0.01489
v 0.06644 0.05154 0.01489
v 0.06873 -0.03092 0.01489
v 0.05499 -0.02176 0.01489
v 0.05728 0.02863 -0.02864
v 0.05957 -0.03092 -0.02405
v 0.07331 0.03091 -0.01718
v 0.06873 0.05383 -0.02177
v 0.06873 -0.02863 -0.02177
v 0.05499 0.01716 0.01489
v 0.07331 -0.00114 0.01260
v 0.06415 0.05842 0.00114
v 0.07331 0.05383 0.00801
v 0.05499 -0.02406 -0.00345
v 0.06186 -0.03551 0.00343
v 0.06873 0.02176 -0.03322
v 0.07102 -0.01947 -0.01718
v 0.05957 -0.02406 -0.02864
v 0.05728 0.03322 -0.02405
v 0.06186 0.02405 -0.03322
v 0.07102 0.01031 -0.02864
v 0.06415 0.05383 -0.01948
v 0.05728 -0.02176 -0.02405
v 0.06873 -0.02406 -0.02635
v 0.06644 -0.03321 -0.01948
v 0.06415 0.04238 -0.02864
v 0.05728 -0.03092 0.00801
v 0.07102 0.05842 0.00801
v 0.07102 -0.02406 0.01031
v 0.07331 0.04696 0.01489
v 0.07331 0.01259 -0.01260
v 0.06873 -0.03321 -0.00345
v 0.07331 0.05154 -0.00345
v 0.05957 -0.03092 0.01489
v 0.06415 0.05612 0.00801
v 0.06873 0.05842 -0.01031
v 0.06415 -0.02635 -0.02864
v 0.05957 -0.03321 -0.01948
v 0.07102 0.03780 -0.02405
v 0.06873 0.00344 -0.03322
v 0.06186 0.00344 -0.03322
v 0.05728 0.01031 -0.02864
v 0.07331 0.00115 0.01489
v 0.06873 0.03322 -0.03093
v 0.05728 -0.02863 -0.01948
v 0.06415 0.05842 -0.00573
v 0.05728 0.03322 -0.01718
v 0.07102 0.05842 -0.00345
v 0.06644 0.05842 0.01031
v 0.06415 -0.03092 -0.02635
v 0.05499 -0.01718 -0.00345
v 0.07331 -0.00114 0.00572
v 0.06415 -0.03551 -0.00573
v 0.06873 -0.03321 0.00801
v 0.05499 -0.02635 0.00114
v 0.07102 0.02176 -0.02864
v 0.05957 0.03551 -0.02864
v 0.07331 0.01947 -0.01718
v 0.07102 0.04696 -0.01948
v 0.07102 -0.02176 -0.01260
v 0.05499 0.01716 0.01260
v 0.06415 0.04696 0.01489
v 0.06415 -0.03321 0.01260
v 0.07331 0.02863 0.03092
v 0.03895 0.00345 0.01718
v 0.04354 0.00803 0.01489
v 0.06873 -0.02864 0.01489
v 0.03895 0.01488 0.03780
v 0.07102 0.04695 0.01489
v 0.06644 0.01259 0.04009
v 0.03895 0.02863 0.01718
v 0.05956 -0.02404 0.02176
v 0.06185 0.02634 0.03780
v 0.03895 0.01947 0.03780
v 0.07331 0.00115 0.01489
v 0.07331 0.01488 0.03322
v 0.06644 0.04695 0.01718
v 0.05727 -0.02634 0.01489
v 0.06873 -0.02404 0.02176
v 0.05499 0.01030 0.04009
v 0.03895 0.00345 0.02634
v 0.03895 0.02863 0.02406
v 0.06873 0.02634 0.03780
v 0.07331 0.04237 0.01489
v 0.06185 0.02175 0.04009
v 0.04354 0.02175 0.01489
v 0.07102 0.01488 0.03780
v 0.05956 -0.01718 0.02634
v 0.07102 -0.01718 0.01718
v 0.06415 0.01030 0.04009
v 0.05956 -0.02864 0.01718
v 0.07102 0.04695 0.01718
v 0.06644 0.04695 0.01489
v 0.06644 -0.02176 0.02406
v 0.04125 0.01259 0.03780
v 0.05041 0.01717 0.04009
v 0.07102 0.02175 0.03780
v 0.07102 0.03092 0.03322
v 0.06644 0.02175 0.04009
v 0.06185 0.03092 0.03322
v 0.05727 -0.02634 0.01718
v 0.06873 -0.02864 0.01718
v 0.07331 0.00345 0.02176
v -0.07331 -0.02175 -0.02864
v -0.05957 0.02175 0.02176
v -0.05957 0.03092 0.01717
v -0.07331 0.04467 0.01259
v -0.06644 0.06300 -0.02634
v -0.06186 -0.01717 -0.03092
v -0.07102 -0.02175 0.01717
v -0.05957 -0.02635 0.01717
v -0.07331 0.03321 -0.03551
v -0.06873 -0.03322 -0.02864
v -0.06415 0.02175 -0.03780
v -0.07331 -0.01488 0.01717
v -0.07331 0.05841 -0.02405
v -0.07102 0.00803 -0.04009
v -0.06644 0.04925 0.01259
v -0.06873 0.01717 0.02176
v -0.07102 -0.02863 0.00113
v -0.06644 -0.01258 0.02176
v -0.06415 -0.02863 -0.03092
v -0.07102 0.06300 -0.02176
v -0.07102 0.03321 0.01946
v -0.06644 0.02175 -0.04009
v -0.06415 0.03779 -0.03092
v -0.06186 -0.00802 -0.03092
v -0.05957 -0.01258 0.02176
v -0.05957 -0.01947 0.01030
v -0.06644 0.04467 0.01717
v -0.06644 0.00803 -0.04009
v -0.07102 0.05841 -0.02864
v -0.05957 0.03092 0.01488
v -0.07331 -0.02405 -0.00115
v -0.07102 0.04925 0.01259
v -0.06644 0.06300 -0.02176
v -0.07102 0.03321 -0.03780
v -0.06873 -0.03092 -0.03092
v -0.06415 -0.03092 -0.02864
v -0.06415 0.04467 0.01488
v -0.07331 0.03092 0.01717
v -0.07331 0.00345 -0.03551
v -0.06186 -0.02175 -0.02864
v -0.06644 -0.03322 -0.02634
v -0.07102 -0.02405 0.01488
v -0.05957 0.01261 0.01030
v -0.07102 -0.01717 0.01946
v -0.06644 0.05841 -0.02864
v -0.07331 -0.02405 -0.02634
v -0.07331 0.04695 0.01030
v -0.07102 -0.02635 -0.03092
v -0.07102 0.02175 -0.04009
v -0.06415 -0.02175 0.01946
v -0.07102 0.04238 0.01717
v -0.07331 -0.02175 0.01030
v -0.06186 -0.02635 0.01717
v -0.07102 0.06300 -0.02634
v -0.06644 0.03092 -0.03780
v -0.06415 0.00803 -0.03780
v -0.06873 -0.00802 0.02176
v -0.05957 -0.02635 0.01488
v -0.06415 0.04238 0.01717
v -0.06873 -0.02863 0.00343
v 0.03895 0.00116 0.02176
v -0.05957 -0.02633 0.01260
v -0.02520 -0.03779 0.01031
v -0.02290 0.06300 0.01260
v 0.00915 0.01259 0.03322
v -0.05957 0.02404 0.02176
v 0.03207 0.02633 0.01260
v -0.02748 -0.04695 0.01718
v 0.03895 0.02633 0.02634
v -0.05957 -0.01488 0.02176
v -0.04352 0.06300 0.01718
v 0.02978 -0.02175 0.01260
v 0.00228 0.05153 0.01031
v -0.05498 0.03778 0.01260
v 0.03207 -0.01488 0.02176
v -0.01603 -0.04695 0.01718
v 0.03895 0.00802 0.02863
v -0.02290 0.06300 0.01718
v 0.00915 0.01717 0.03322
v -0.02061 0.05153 0.01031
v -0.00917 -0.03779 0.01031
v 0.03895 0.02862 0.01718
v -0.00459 0.00116 0.03092
v -0.00689 0.02176 0.03092
v 0.00915 -0.00571 0.02863
v -0.05957 0.02176 0.01260
v -0.02748 -0.04695 0.01260
v -0.05040 -0.03549 0.01718
v 0.01374 0.02404 0.03092
v 0.00687 0.04008 0.01031
v -0.00917 0.00802 0.03092
v -0.01603 -0.04695 0.01260
v 0.03895 0.02862 0.02405
v -0.03207 0.06300 0.01260
v 0.03436 -0.01717 0.01489
v 0.02978 -0.02175 0.01718
v 0.03436 0.01259 0.01260
v -0.05957 0.03092 0.01947
v 0.03895 0.01947 0.02863
v 0.03895 0.00345 0.01718
v -0.04352 0.06300 0.01489
v -0.05040 -0.03549 0.01260
v 0.00228 0.05153 0.01489
v 0.01374 0.01259 0.03322
v -0.05957 -0.02633 0.01718
v -0.05040 0.04696 0.01260
v -0.05040 0.03321 0.02176
v -0.05957 0.03092 0.01489
v 0.03665 0.02862 0.01489
v 0.03436 -0.01717 0.01718
v -0.00230 0.02404 0.03092
v -0.00917 0.01717 0.03092
v 0.01374 0.01717 0.03322
v -0.02290 -0.04008 0.01031
v 0.00228 0.00116 0.03092
v 0.03895 0.00345 0.02634
v 0.02978 -0.01946 0.01947
f 203 167 210 
f 153 152 158 
f 151 154 159 
f 154 151 162 
f 159 154 163 
f 152 166 168 
f 166 152 171 
f 161 173 174 
f 156 161 174 
f 158 152 175 
f 152 168 175 
f 153 158 176 
f 156 174 176 
f 171 152 177 
f 156 169 178 
f 172 161 178 
f 164 172 178 
f 159 163 179 
f 155 153 180 
f 173 155 180 
f 174 173 180 
f 153 176 180 
f 162 151 181 
f 160 167 181 
f 165 170 182 
f 177 165 182 
f 153 155 183 
f 155 170 183 
f 170 165 183 
f 159 179 184 
f 169 160 185 
f 178 169 185 
f 164 178 185 
f 160 169 186 
f 165 177 187 
f 153 183 187 
f 183 165 187 
f 154 162 188 
f 162 166 188 
f 166 171 188 
f 151 159 189 
f 159 164 189 
f 169 156 190 
f 156 176 190 
f 186 169 190 
f 167 160 191 
f 160 186 191 
f 157 162 192 
f 176 174 193 
f 174 180 193 
f 180 176 193 
f 162 157 194 
f 155 173 195 
f 173 161 195 
f 179 155 195 
f 184 179 195 
f 181 151 196 
f 160 181 196 
f 163 154 197 
f 170 163 197 
f 154 182 197 
f 182 170 197 
f 185 160 198 
f 164 185 198 
f 151 189 198 
f 189 164 198 
f 196 151 198 
f 160 196 198 
f 164 159 199 
f 172 164 199 
f 159 184 199 
f 184 172 199 
f 158 175 200 
f 175 168 200 
f 194 157 200 
f 168 194 200 
f 171 177 201 
f 182 154 201 
f 177 182 201 
f 154 188 201 
f 188 171 201 
f 162 181 202 
f 181 167 202 
f 192 162 202 
f 167 192 202 
f 157 192 203 
f 192 167 203 
f 200 157 203 
f 158 200 203 
f 163 170 204 
f 170 155 204 
f 179 163 204 
f 155 179 204 
f 161 172 205 
f 172 184 205 
f 195 161 205 
f 184 195 205 
f 161 156 206 
f 156 178 206 
f 178 161 206 
f 166 162 207 
f 168 166 207 
f 162 194 207 
f 194 168 207 
f 176 158 208 
f 190 176 208 
f 186 190 208 
f 158 191 208 
f 191 186 208 
f 152 153 209 
f 177 152 209 
f 153 187 209 
f 187 177 209 
f 191 158 210 
f 167 191 210 
f 158 203 210 
