# Original object name hint: convex_3
v 0.04774 0.10189 0.03343
v -0.06688 0.07325 -0.04299
v -0.07006 0.04777 -0.03662
v 0.07003 0.04777 -0.03662
v -0.06051 0.06688 0.03343
v 0.06684 0.04777 0.01114
v 0.07003 0.09234 -0.03342
v -0.06369 0.09553 -0.03025
v -0.06051 0.09553 0.03343
v 0.06684 0.07960 0.03980
v -0.07006 0.04777 0.00477
v 0.06684 0.10189 -0.01114
v -0.00000 0.07960 0.04617
v -0.03823 0.10189 0.03343
v -0.07325 0.08279 0.00795
v 0.07320 0.08279 -0.03980
v 0.07641 0.08916 0.00477
v -0.06369 0.08916 -0.04299
v 0.06048 0.09553 0.03980
v -0.03185 0.10189 -0.00159
v 0.07320 0.04777 0.00159
v -0.07325 0.08597 -0.03342
v -0.01275 0.09553 0.04299
v -0.06688 0.07960 0.03343
v 0.07641 0.07006 -0.03025
v -0.07325 0.04777 -0.00476
v 0.06365 0.09234 -0.03662
v -0.05096 0.08916 0.03980
v 0.07003 0.09871 0.02069
v 0.07320 0.08597 0.03024
v -0.06051 0.04777 0.00795
v 0.05411 0.10189 -0.01433
v 0.06365 0.07642 0.03980
v 0.06048 0.08916 0.04299
v 0.07003 0.07006 -0.03980
v 0.07641 0.09234 -0.01114
v -0.06369 0.09234 -0.03980
v -0.06369 0.09553 0.02705
v -0.07325 0.05096 -0.03662
v -0.04458 0.10189 0.02069
v 0.06365 0.09871 -0.02387
v -0.00318 0.08916 0.04617
v -0.07006 0.09234 -0.01433
v 0.01908 0.04777 0.01114
v 0.07320 0.04777 -0.03342
v 0.06684 0.08916 -0.03980
v 0.04137 0.09871 0.03980
v -0.06051 0.07325 0.03661
v 0.07641 0.07325 0.00159
v -0.02230 0.06369 0.03024
v -0.07006 0.07642 0.02705
v 0.06365 0.10189 0.02386
v 0.00952 0.07960 0.04617
v -0.07006 0.08916 0.02069
v -0.05413 0.07325 -0.04299
v -0.00954 0.10189 0.03661
v 0.07320 0.07960 0.03024
v -0.05733 0.09871 0.02705
v 0.07003 0.08916 0.03661
v -0.04458 0.09871 0.03661
v 0.07641 0.08279 -0.03342
v -0.03185 0.09871 -0.02070
v -0.05096 0.08916 -0.04299
v 0.06048 0.08279 0.04299
v 0.04454 -0.08597 0.01433
v 0.04454 -0.08597 -0.04617
v 0.04454 -0.07960 -0.04617
v -0.07641 -0.06369 -0.03343
v 0.07322 -0.05413 0.00159
v -0.06050 -0.08597 0.01114
v -0.06368 -0.09552 -0.03661
v -0.07005 -0.05413 0.00476
v 0.07002 -0.05413 -0.03979
v 0.06684 -0.09871 -0.01433
v -0.02865 -0.10189 -0.00160
v -0.07005 -0.05732 -0.03979
v 0.06364 -0.09871 -0.03661
v -0.07005 -0.09234 -0.00796
v 0.06684 -0.05413 0.00796
v -0.06368 -0.08278 -0.04298
v -0.06368 -0.07005 0.01114
v -0.07323 -0.05413 -0.03661
v 0.06684 -0.07960 0.01114
v -0.00955 -0.10189 -0.03024
v 0.07322 -0.08597 -0.01751
v 0.06046 -0.08915 -0.04617
v -0.00318 -0.09871 0.00476
v -0.07323 -0.07324 0.00159
v -0.07641 -0.07960 -0.03343
v 0.05091 -0.09234 0.00796
v 0.07002 -0.09234 -0.03661
v -0.00003 -0.10189 -0.00160
v -0.06368 -0.09552 -0.00160
v 0.04774 -0.07960 0.01433
v -0.03183 -0.09552 0.00796
v 0.07322 -0.05413 -0.03343
v 0.06364 -0.07642 -0.04617
v -0.06368 -0.07324 -0.04298
v 0.07002 -0.09234 -0.00479
v -0.07641 -0.06369 -0.01433
v -0.03183 -0.10189 -0.01751
v -0.06368 -0.09234 -0.03979
v -0.07641 -0.07960 -0.01433
v -0.07323 -0.07960 -0.03979
v 0.07322 -0.07642 -0.00160
v -0.06686 -0.09552 -0.03024
v -0.07005 -0.08278 0.00476
v 0.00634 -0.10189 -0.02388
v -0.05413 -0.08915 0.01114
v 0.06046 -0.09552 -0.00160
v 0.02862 -0.09234 -0.04298
v 0.03181 -0.07960 0.01433
v -0.06050 -0.08597 -0.04298
v 0.07002 -0.08597 -0.03979
v 0.07322 -0.07324 -0.03343
v -0.07323 -0.05413 -0.00479
v 0.04774 -0.07642 -0.04617
v -0.07005 -0.09234 -0.03343
v 0.07002 -0.09552 -0.03343
v -0.05095 -0.09552 0.00476
v 0.05409 -0.05413 0.00796
v -0.06686 -0.09552 -0.00796
v 0.07002 -0.07960 0.00796
v 0.06684 -0.07005 0.01114
v 0.04774 -0.08915 -0.04617
v 0.06364 -0.09234 0.00159
v -0.07641 -0.06050 -0.02705
v -0.07323 -0.06369 -0.03979
v -0.06687 0.04777 0.00477
v -0.07324 -0.05413 -0.03661
v -0.05732 -0.05413 -0.03661
v -0.06687 -0.05413 0.00477
v 0.02227 0.04777 -0.02388
v 0.02227 -0.05413 0.00477
v -0.07005 0.04777 -0.03661
v 0.02227 0.04777 0.00796
v 0.02227 -0.05413 -0.02388
v 0.00952 0.00318 -0.03024
v -0.07324 0.03821 -0.00160
v -0.07324 0.01274 -0.03980
v -0.05413 0.04457 0.00796
v 0.00634 0.04139 -0.03024
v 0.02227 0.00954 0.00796
v -0.07324 -0.05413 -0.00478
v -0.06369 -0.01910 -0.03980
v 0.00952 -0.02546 -0.03024
v -0.07005 -0.02228 0.00477
v -0.07324 0.04777 -0.03343
v -0.06369 0.00954 -0.03980
v -0.06369 0.04777 -0.03661
v -0.07005 0.03502 0.00477
v -0.07324 0.04777 -0.00478
v 0.01589 0.04777 -0.02706
v -0.07324 -0.04457 -0.00160
v -0.07005 -0.02228 -0.03980
v -0.05413 0.04777 0.00796
v 0.00952 -0.04776 -0.02706
v 0.01908 0.00954 0.00796
v 0.00315 0.04457 -0.03024
v -0.07324 -0.01592 -0.03980
v -0.07324 0.04457 -0.03661
v 0.07003 -0.05413 -0.03980
v 0.06366 0.04777 0.01115
v 0.02547 0.04777 0.01115
v 0.05411 -0.05413 0.00796
v 0.02228 0.04777 -0.02387
v 0.02228 -0.05413 -0.02387
v 0.07322 0.04777 -0.03662
v 0.07322 -0.04776 0.00477
v 0.02228 -0.05413 0.00477
v 0.05730 0.02547 -0.03980
v 0.07322 0.04777 0.00159
v 0.05730 -0.05413 -0.03980
v 0.07322 -0.05413 -0.03662
v 0.02547 -0.04776 -0.02707
v 0.06685 0.01274 0.01115
v 0.02228 0.04777 0.00796
v 0.06685 -0.05413 0.00796
v 0.07322 0.02866 -0.03980
v 0.06048 0.04777 -0.03662
v 0.05411 0.00635 0.01115
v 0.07003 0.04777 0.00796
v 0.07322 -0.05413 0.00159
v 0.06048 0.03502 -0.03980
v 0.02547 0.04457 0.01115
v 0.07003 -0.04776 0.00796
v 0.06366 0.00318 0.01115
v 0.02228 0.00318 0.00796
v 0.07322 -0.01272 -0.03980
v 0.02547 -0.05413 -0.02707
v 0.06685 0.03821 -0.03980
v 0.06685 0.03821 0.01115
f 176 182 192 
f 164 163 166 
f 162 165 167 
f 166 163 168 
f 166 167 170 
f 167 165 170 
f 168 163 172 
f 169 168 172 
f 162 167 173 
f 171 162 173 
f 165 162 174 
f 168 169 174 
f 167 166 175 
f 166 171 175 
f 171 173 175 
f 163 164 176 
f 164 166 177 
f 166 170 177 
f 165 174 178 
f 162 171 179 
f 168 174 179 
f 166 168 180 
f 176 164 181 
f 172 163 182 
f 169 172 182 
f 176 169 182 
f 174 169 183 
f 178 174 183 
f 171 166 184 
f 179 171 184 
f 166 180 184 
f 170 165 185 
f 164 177 185 
f 181 164 185 
f 165 181 185 
f 169 176 186 
f 183 169 186 
f 178 183 186 
f 165 178 187 
f 181 165 187 
f 176 181 187 
f 186 176 187 
f 178 186 187 
f 177 170 188 
f 170 185 188 
f 185 177 188 
f 174 162 189 
f 162 179 189 
f 179 174 189 
f 173 167 190 
f 167 175 190 
f 175 173 190 
f 168 179 191 
f 180 168 191 
f 179 184 191 
f 184 180 191 
f 163 176 192 
f 182 163 192 
