# Original object name hint: convex_0
v 0.04774 0.10189 0.03343
v -0.06688 0.07325 -0.04299
v -0.07006 0.04777 -0.03662
v 0.07003 0.04777 -0.03662
v -0.06051 0.06688 0.03343
v 0.06684 0.04777 0.01114
v 0.07003 0.09234 -0.03342
v -0.06369 0.09553 -0.03025
v -0.06051 0.09553 0.03343
v 0.06684 0.07960 0.03980
v -0.07006 0.04777 0.00477
v 0.06684 0.10189 -0.01114
v -0.00000 0.07960 0.04617
v -0.03823 0.10189 0.03343
v -0.07325 0.08279 0.00795
v 0.07320 0.08279 -0.03980
v 0.07641 0.08916 0.00477
v -0.06369 0.08916 -0.04299
v 0.06048 0.09553 0.03980
v -0.03185 0.10189 -0.00159
v 0.07320 0.04777 0.00159
v -0.07325 0.08597 -0.03342
v -0.01275 0.09553 0.04299
v -0.06688 0.07960 0.03343
v 0.07641 0.07006 -0.03025
v -0.07325 0.04777 -0.00476
v 0.06365 0.09234 -0.03662
v -0.05096 0.08916 0.03980
v 0.07003 0.09871 0.02069
v 0.07320 0.08597 0.03024
v -0.06051 0.04777 0.00795
v 0.05411 0.10189 -0.01433
v 0.06365 0.07642 0.03980
v 0.06048 0.08916 0.04299
v 0.07003 0.07006 -0.03980
v 0.07641 0.09234 -0.01114
v -0.06369 0.09234 -0.03980
v -0.06369 0.09553 0.02705
v -0.07325 0.05096 -0.03662
v -0.04458 0.10189 0.02069
v 0.06365 0.09871 -0.02387
v -0.00318 0.08916 0.04617
v -0.07006 0.09234 -0.01433
v 0.01908 0.04777 0.01114
v 0.07320 0.04777 -0.03342
v 0.06684 0.08916 -0.03980
v 0.04137 0.09871 0.03980
v -0.06051 0.07325 0.03661
v 0.07641 0.07325 0.00159
v -0.02230 0.06369 0.03024
v -0.07006 0.07642 0.02705
v 0.06365 0.10189 0.02386
v 0.00952 0.07960 0.04617
v -0.07006 0.08916 0.02069
v -0.05413 0.07325 -0.04299
v -0.00954 0.10189 0.03661
v 0.07320 0.07960 0.03024
v -0.05733 0.09871 0.02705
v 0.07003 0.08916 0.03661
v -0.04458 0.09871 0.03661
v 0.07641 0.08279 -0.03342
v -0.03185 0.09871 -0.02070
v -0.05096 0.08916 -0.04299
v 0.06048 0.08279 0.04299
v 0.04454 -0.08597 0.01433
v 0.04454 -0.08597 -0.04617
v 0.04454 -0.07960 -0.04617
v -0.07641 -0.06369 -0.03343
v 0.07322 -0.05413 0.00159
v -0.06050 -0.08597 0.01114
v -0.06368 -0.09552 -0.03661
v -0.07005 -0.05413 0.00476
v 0.07002 -0.05413 -0.03979
v 0.06684 -0.09871 -0.01433
v -0.02865 -0.10189 -0.00160
v -0.07005 -0.05732 -0.03979
v 0.06364 -0.09871 -0.03661
v -0.07005 -0.09234 -0.00796
v 0.06684 -0.05413 0.00796
v -0.06368 -0.08278 -0.04298
v -0.06368 -0.07005 0.01114
v -0.07323 -0.05413 -0.03661
v 0.06684 -0.07960 0.01114
v -0.00955 -0.10189 -0.03024
v 0.07322 -0.08597 -0.01751
v 0.06046 -0.08915 -0.04617
v -0.00318 -0.09871 0.00476
v -0.07323 -0.07324 0.00159
v -0.07641 -0.07960 -0.03343
v 0.05091 -0.09234 0.00796
v 0.07002 -0.09234 -0.03661
v -0.00003 -0.10189 -0.00160
v -0.06368 -0.09552 -0.00160
v 0.04774 -0.07960 0.01433
v -0.03183 -0.09552 0.00796
v 0.07322 -0.05413 -0.03343
v 0.06364 -0.07642 -0.04617
v -0.06368 -0.07324 -0.04298
v 0.07002 -0.09234 -0.00479
v -0.07641 -0.06369 -0.01433
v -0.03183 -0.10189 -0.01751
v -0.06368 -0.09234 -0.03979
v -0.07641 -0.07960 -0.01433
v -0.07323 -0.07960 -0.03979
v 0.07322 -0.07642 -0.00160
v -0.06686 -0.09552 -0.03024
v -0.07005 -0.08278 0.00476
v 0.00634 -0.10189 -0.02388
v -0.05413 -0.08915 0.01114
v 0.06046 -0.09552 -0.00160
v 0.02862 -0.09234 -0.04298
v 0.03181 -0.07960 0.01433
v -0.06050 -0.08597 -0.04298
v 0.07002 -0.08597 -0.03979
v 0.07322 -0.07324 -0.03343
v -0.07323 -0.05413 -0.00479
v 0.04774 -0.07642 -0.04617
v -0.07005 -0.09234 -0.03343
v 0.07002 -0.09552 -0.03343
v -0.05095 -0.09552 0.00476
v 0.05409 -0.05413 0.00796
v -0.06686 -0.09552 -0.00796
v 0.07002 -0.07960 0.00796
v 0.06684 -0.07005 0.01114
v 0.04774 -0.08915 -0.04617
v 0.06364 -0.09234 0.00159
v -0.07641 -0.06050 -0.02705
v -0.07323 -0.06369 -0.03979
v -0.06687 0.04777 0.00477
v -0.07324 -0.05413 -0.03661
v -0.05732 -0.05413 -0.03661
v -0.06687 -0.05413 0.00477
v 0.02227 0.04777 -0.02388
v 0.02227 -0.05413 0.00477
v -0.07005 0.04777 -0.03661
v 0.02227 0.04777 0.00796
v 0.02227 -0.05413 -0.02388
v 0.00952 0.00318 -0.03024
v -0.07324 0.03821 -0.00160
v -0.07324 0.01274 -0.03980
v -0.05413 0.04457 0.00796
v 0.00634 0.04139 -0.03024
v 0.02227 0.00954 0.00796
v -0.07324 -0.05413 -0.00478
v -0.06369 -0.01910 -0.03980
v 0.00952 -0.02546 -0.03024
v -0.07005 -0.02228 0.00477
v -0.07324 0.04777 -0.03343
v -0.06369 0.00954 -0.03980
v -0.06369 0.04777 -0.03661
v -0.07005 0.03502 0.00477
v -0.07324 0.04777 -0.00478
v 0.01589 0.04777 -0.02706
v -0.07324 -0.04457 -0.00160
v -0.07005 -0.02228 -0.03980
v -0.05413 0.04777 0.00796
v 0.00952 -0.04776 -0.02706
v 0.01908 0.00954 0.00796
v 0.00315 0.04457 -0.03024
v -0.07324 -0.01592 -0.03980
v -0.07324 0.04457 -0.03661
v 0.07003 -0.05413 -0.03980
v 0.06366 0.04777 0.01115
v 0.02547 0.04777 0.01115
v 0.05411 -0.05413 0.00796
v 0.02228 0.04777 -0.02387
v 0.02228 -0.05413 -0.02387
v 0.07322 0.04777 -0.03662
v 0.07322 -0.04776 0.00477
v 0.02228 -0.05413 0.00477
v 0.05730 0.02547 -0.03980
v 0.07322 0.04777 0.00159
v 0.05730 -0.05413 -0.03980
v 0.07322 -0.05413 -0.03662
v 0.02547 -0.04776 -0.02707
v 0.06685 0.01274 0.01115
v 0.02228 0.04777 0.00796
v 0.06685 -0.05413 0.00796
v 0.07322 0.02866 -0.03980
v 0.06048 0.04777 -0.03662
v 0.05411 0.00635 0.01115
v 0.07003 0.04777 0.00796
v 0.07322 -0.05413 0.00159
v 0.06048 0.03502 -0.03980
v 0.02547 0.04457 0.01115
v 0.07003 -0.04776 0.00796
v 0.06366 0.00318 0.01115
v 0.02228 0.00318 0.00796
v 0.07322 -0.01272 -0.03980
v 0.02547 -0.05413 -0.02707
v 0.06685 0.03821 -0.03980
v 0.06685 0.03821 0.01115
f 34 53 64 
f 3 2 4 
f 3 4 6 
f 3 6 11 
f 1 12 14 
f 14 12 20 
f 6 4 21 
f 10 6 21 
f 18 2 22 
f 3 11 26 
f 15 22 26 
f 9 24 28 
f 17 29 30 
f 11 6 31 
f 5 11 31 
f 20 12 32 
f 6 10 33 
f 16 4 35 
f 7 12 36 
f 17 25 36 
f 12 29 36 
f 29 17 36 
f 22 8 37 
f 18 22 37 
f 8 32 37 
f 2 3 39 
f 22 2 39 
f 3 26 39 
f 26 22 39 
f 20 8 40 
f 14 20 40 
f 12 7 41 
f 7 27 41 
f 32 12 41 
f 27 37 41 
f 37 32 41 
f 28 13 42 
f 23 28 42 
f 8 22 43 
f 22 15 43 
f 5 31 44 
f 31 6 44 
f 4 16 45 
f 21 4 45 
f 25 21 45 
f 7 16 46 
f 27 7 46 
f 19 1 47 
f 34 19 47 
f 23 42 47 
f 42 34 47 
f 5 13 48 
f 24 5 48 
f 13 28 48 
f 28 24 48 
f 25 17 49 
f 21 25 49 
f 13 5 50 
f 5 44 50 
f 44 6 50 
f 11 5 51 
f 5 24 51 
f 26 11 51 
f 15 26 51 
f 12 1 52 
f 1 19 52 
f 29 12 52 
f 19 29 52 
f 6 33 53 
f 42 13 53 
f 34 42 53 
f 13 50 53 
f 50 6 53 
f 24 9 54 
f 9 38 54 
f 43 15 54 
f 38 43 54 
f 51 24 54 
f 15 51 54 
f 4 2 55 
f 2 18 55 
f 35 4 55 
f 16 35 55 
f 1 14 56 
f 47 1 56 
f 23 47 56 
f 10 21 57 
f 17 30 57 
f 49 17 57 
f 21 49 57 
f 9 14 58 
f 38 9 58 
f 14 40 58 
f 40 8 58 
f 8 43 58 
f 43 38 58 
f 29 19 59 
f 30 29 59 
f 19 34 59 
f 34 10 59 
f 10 57 59 
f 57 30 59 
f 14 9 60 
f 9 28 60 
f 28 23 60 
f 56 14 60 
f 23 56 60 
f 16 7 61 
f 7 36 61 
f 36 25 61 
f 45 16 61 
f 25 45 61 
f 8 20 62 
f 32 8 62 
f 20 32 62 
f 18 37 63 
f 37 27 63 
f 46 16 63 
f 27 46 63 
f 55 18 63 
f 16 55 63 
f 33 10 64 
f 10 34 64 
f 53 33 64 
