# Original object name hint: convex_1
v 0.04774 0.10189 0.03343
v -0.06688 0.07325 -0.04299
v -0.07006 0.04777 -0.03662
v 0.07003 0.04777 -0.03662
v -0.06051 0.06688 0.03343
v 0.06684 0.04777 0.01114
v 0.07003 0.09234 -0.03342
v -0.06369 0.09553 -0.03025
v -0.06051 0.09553 0.03343
v 0.06684 0.07960 0.03980
v -0.07006 0.04777 0.00477
v 0.06684 0.10189 -0.01114
v -0.00000 0.07960 0.04617
v -0.03823 0.10189 0.03343
v -0.07325 0.08279 0.00795
v 0.07320 0.08279 -0.03980
v 0.07641 0.08916 0.00477
v -0.06369 0.08916 -0.04299
v 0.06048 0.09553 0.03980
v -0.03185 0.10189 -0.00159
v 0.07320 0.04777 0.00159
v -0.07325 0.08597 -0.03342
v -0.01275 0.09553 0.04299
v -0.06688 0.07960 0.03343
v 0.07641 0.07006 -0.03025
v -0.07325 0.04777 -0.00476
v 0.06365 0.09234 -0.03662
v -0.05096 0.08916 0.03980
v 0.07003 0.09871 0.02069
v 0.07320 0.08597 0.03024
v -0.06051 0.04777 0.00795
v 0.05411 0.10189 -0.01433
v 0.06365 0.07642 0.03980
v 0.06048 0.08916 0.04299
v 0.07003 0.07006 -0.03980
v 0.07641 0.09234 -0.01114
v -0.06369 0.09234 -0.03980
v -0.06369 0.09553 0.02705
v -0.07325 0.05096 -0.03662
v -0.04458 0.10189 0.02069
v 0.06365 0.09871 -0.02387
v -0.00318 0.08916 0.04617
v -0.07006 0.09234 -0.01433
v 0.01908 0.04777 0.01114
v 0.07320 0.04777 -0.03342
v 0.06684 0.08916 -0.03980
v 0.04137 0.09871 0.03980
v -0.06051 0.07325 0.03661
v 0.07641 0.07325 0.00159
v -0.02230 0.06369 0.03024
v -0.07006 0.07642 0.02705
v 0.06365 0.10189 0.02386
v 0.00952 0.07960 0.04617
v -0.07006 0.08916 0.02069
v -0.05413 0.07325 -0.04299
v -0.00954 0.10189 0.03661
v 0.07320 0.07960 0.03024
v -0.05733 0.09871 0.02705
v 0.07003 0.08916 0.03661
v -0.04458 0.09871 0.03661
v 0.07641 0.08279 -0.03342
v -0.03185 0.09871 -0.02070
v -0.05096 0.08916 -0.04299
v 0.06048 0.08279 0.04299
v 0.04454 -0.08597 0.01433
v 0.04454 -0.08597 -0.04617
v 0.04454 -0.07960 -0.04617
v -0.07641 -0.06369 -0.03343
v 0.07322 -0.05413 0.00159
v -0.06050 -0.08597 0.01114
v -0.06368 -0.09552 -0.03661
v -0.07005 -0.05413 0.00476
v 0.07002 -0.05413 -0.03979
v 0.06684 -0.09871 -0.01433
v -0.02865 -0.10189 -0.00160
v -0.07005 -0.05732 -0.03979
v 0.06364 -0.09871 -0.03661
v -0.07005 -0.09234 -0.00796
v 0.06684 -0.05413 0.00796
v -0.06368 -0.08278 -0.04298
v -0.06368 -0.07005 0.01114
v -0.07323 -0.05413 -0.03661
v 0.06684 -0.07960 0.01114
v -0.00955 -0.10189 -0.03024
v 0.07322 -0.08597 -0.01751
v 0.06046 -0.08915 -0.04617
v -0.00318 -0.09871 0.00476
v -0.07323 -0.07324 0.00159
v -0.07641 -0.07960 -0.03343
v 0.05091 -0.09234 0.00796
v 0.07002 -0.09234 -0.03661
v -0.00003 -0.10189 -0.00160
v -0.06368 -0.09552 -0.00160
v 0.04774 -0.07960 0.01433
v -0.03183 -0.09552 0.00796
v 0.07322 -0.05413 -0.03343
v 0.06364 -0.07642 -0.04617
v -0.06368 -0.07324 -0.04298
v 0.07002 -0.09234 -0.00479
v -0.07641 -0.06369 -0.01433
v -0.03183 -0.10189 -0.01751
v -0.06368 -0.09234 -0.03979
v -0.07641 -0.07960 -0.01433
v -0.07323 -0.07960 -0.03979
v 0.07322 -0.07642 -0.00160
v -0.06686 -0.09552 -0.03024
v -0.07005 -0.08278 0.00476
v 0.00634 -0.10189 -0.02388
v -0.05413 -0.08915 0.01114
v 0.06046 -0.09552 -0.00160
v 0.02862 -0.09234 -0.04298
v 0.03181 -0.07960 0.01433
v -0.06050 -0.08597 -0.04298
v 0.07002 -0.08597 -0.03979
v 0.07322 -0.07324 -0.03343
v -0.07323 -0.05413 -0.00479
v 0.04774 -0.07642 -0.04617
v -0.07005 -0.09234 -0.03343
v 0.07002 -0.09552 -0.03343
v -0.05095 -0.09552 0.00476
v 0.05409 -0.05413 0.00796
v -0.06686 -0.09552 -0.00796
v 0.07002 -0.07960 0.00796
v 0.06684 -0.07005 0.01114
v 0.04774 -0.08915 -0.04617
v 0.06364 -0.09234 0.00159
v -0.07641 -0.06050 -0.02705
v -0.07323 -0.06369 -0.03979
v -0.06687 0.04777 0.00477
v -0.07324 -0.05413 -0.03661
v -0.05732 -0.05413 -0.03661
v -0.06687 -0.05413 0.00477
v 0.02227 0.04777 -0.02388
v 0.02227 -0.05413 0.00477
v -0.07005 0.04777 -0.03661
v 0.02227 0.04777 0.00796
v 0.02227 -0.05413 -0.02388
v 0.00952 0.00318 -0.03024
v -0.07324 0.03821 -0.00160
v -0.07324 0.01274 -0.03980
v -0.05413 0.04457 0.00796
v 0.00634 0.04139 -0.03024
v 0.02227 0.00954 0.00796
v -0.07324 -0.05413 -0.00478
v -0.06369 -0.01910 -0.03980
v 0.00952 -0.02546 -0.03024
v -0.07005 -0.02228 0.00477
v -0.07324 0.04777 -0.03343
v -0.06369 0.00954 -0.03980
v -0.06369 0.04777 -0.03661
v -0.07005 0.03502 0.00477
v -0.07324 0.04777 -0.00478
v 0.01589 0.04777 -0.02706
v -0.07324 -0.04457 -0.00160
v -0.07005 -0.02228 -0.03980
v -0.05413 0.04777 0.00796
v 0.00952 -0.04776 -0.02706
v 0.01908 0.00954 0.00796
v 0.00315 0.04457 -0.03024
v -0.07324 -0.01592 -0.03980
v -0.07324 0.04457 -0.03661
v 0.07003 -0.05413 -0.03980
v 0.06366 0.04777 0.01115
v 0.02547 0.04777 0.01115
v 0.05411 -0.05413 0.00796
v 0.02228 0.04777 -0.02387
v 0.02228 -0.05413 -0.02387
v 0.07322 0.04777 -0.03662
v 0.07322 -0.04776 0.00477
v 0.02228 -0.05413 0.00477
v 0.05730 0.02547 -0.03980
v 0.07322 0.04777 0.00159
v 0.05730 -0.05413 -0.03980
v 0.07322 -0.05413 -0.03662
v 0.02547 -0.04776 -0.02707
v 0.06685 0.01274 0.01115
v 0.02228 0.04777 0.00796
v 0.06685 -0.05413 0.00796
v 0.07322 0.02866 -0.03980
v 0.06048 0.04777 -0.03662
v 0.05411 0.00635 0.01115
v 0.07003 0.04777 0.00796
v 0.07322 -0.05413 0.00159
v 0.06048 0.03502 -0.03980
v 0.02547 0.04457 0.01115
v 0.07003 -0.04776 0.00796
v 0.06366 0.00318 0.01115
v 0.02228 0.00318 0.00796
v 0.07322 -0.01272 -0.03980
v 0.02547 -0.05413 -0.02707
v 0.06685 0.03821 -0.03980
v 0.06685 0.03821 0.01115
f 98 104 128 
f 72 69 73 
f 69 72 79 
f 67 66 80 
f 72 73 82 
f 73 76 82 
f 71 77 84 
f 66 67 86 
f 83 65 90 
f 65 87 90 
f 77 86 91 
f 75 84 92 
f 87 75 92 
f 90 87 92 
f 65 83 94 
f 87 65 95 
f 75 87 95 
f 73 69 96 
f 69 85 96 
f 86 67 97 
f 67 80 98 
f 68 89 100 
f 71 84 101 
f 84 75 101 
f 89 78 103 
f 88 100 103 
f 100 89 103 
f 89 68 104 
f 98 80 104 
f 80 102 104 
f 85 69 105 
f 99 85 105 
f 71 101 106 
f 70 81 107 
f 81 72 107 
f 72 88 107 
f 93 70 107 
f 78 93 107 
f 103 78 107 
f 88 103 107 
f 77 74 108 
f 84 77 108 
f 74 92 108 
f 92 84 108 
f 65 70 109 
f 70 93 109 
f 95 65 109 
f 92 74 110 
f 90 92 110 
f 77 71 111 
f 71 102 111 
f 70 65 112 
f 81 70 112 
f 65 94 112 
f 94 79 112 
f 80 66 113 
f 102 80 113 
f 91 86 114 
f 73 96 114 
f 97 73 114 
f 86 97 114 
f 96 85 115 
f 91 114 115 
f 114 96 115 
f 72 82 116 
f 88 72 116 
f 100 88 116 
f 76 73 117 
f 97 67 117 
f 73 97 117 
f 67 98 117 
f 98 76 117 
f 78 89 118 
f 102 71 118 
f 89 104 118 
f 104 102 118 
f 71 106 118 
f 106 78 118 
f 74 77 119 
f 77 91 119 
f 85 99 119 
f 99 74 119 
f 115 85 119 
f 91 115 119 
f 93 75 120 
f 75 95 120 
f 109 93 120 
f 95 109 120 
f 79 72 121 
f 72 81 121 
f 81 112 121 
f 112 79 121 
f 75 93 122 
f 93 78 122 
f 101 75 122 
f 78 106 122 
f 106 101 122 
f 83 99 123 
f 105 69 123 
f 99 105 123 
f 69 79 124 
f 79 94 124 
f 94 83 124 
f 123 69 124 
f 83 123 124 
f 66 86 125 
f 86 77 125 
f 77 111 125 
f 111 102 125 
f 113 66 125 
f 102 113 125 
f 83 90 126 
f 99 83 126 
f 74 99 126 
f 90 110 126 
f 110 74 126 
f 82 68 127 
f 68 100 127 
f 116 82 127 
f 100 116 127 
f 68 82 128 
f 82 76 128 
f 76 98 128 
f 104 68 128 
