# Original object name hint: convex_2
v 0.04774 0.10189 0.03343
v -0.06688 0.07325 -0.04299
v -0.07006 0.04777 -0.03662
v 0.07003 0.04777 -0.03662
v -0.06051 0.06688 0.03343
v 0.06684 0.04777 0.01114
v 0.07003 0.09234 -0.03342
v -0.06369 0.09553 -0.03025
v -0.06051 0.09553 0.03343
v 0.06684 0.07960 0.03980
v -0.07006 0.04777 0.00477
v 0.06684 0.10189 -0.01114
v -0.00000 0.07960 0.04617
v -0.03823 0.10189 0.03343
v -0.07325 0.08279 0.00795
v 0.07320 0.08279 -0.03980
v 0.07641 0.08916 0.00477
v -0.06369 0.08916 -0.04299
v 0.06048 0.09553 0.03980
v -0.03185 0.10189 -0.00159
v 0.07320 0.04777 0.00159
v -0.07325 0.08597 -0.03342
v -0.01275 0.09553 0.04299
v -0.06688 0.07960 0.03343
v 0.07641 0.07006 -0.03025
v -0.07325 0.04777 -0.00476
v 0.06365 0.09234 -0.03662
v -0.05096 0.08916 0.03980
v 0.07003 0.09871 0.02069
v 0.07320 0.08597 0.03024
v -0.06051 0.04777 0.00795
v 0.05411 0.10189 -0.01433
v 0.06365 0.07642 0.03980
v 0.06048 0.08916 0.04299
v 0.07003 0.07006 -0.03980
v 0.07641 0.09234 -0.01114
v -0.06369 0.09234 -0.03980
v -0.06369 0.09553 0.02705
v -0.07325 0.05096 -0.03662
v -0.04458 0.10189 0.02069
v 0.06365 0.09871 -0.02387
v -0.00318 0.08916 0.04617
v -0.07006 0.09234 -0.01433
v 0.01908 0.04777 0.01114
v 0.07320 0.04777 -0.03342
v 0.06684 0.08916 -0.03980
v 0.04137 0.09871 0.03980
v -0.06051 0.07325 0.03661
v 0.07641 0.07325 0.00159
v -0.02230 0.06369 0.03024
v -0.07006 0.07642 0.02705
v 0.06365 0.10189 0.02386
v 0.00952 0.07960 0.04617
v -0.07006 0.08916 0.02069
v -0.05413 0.07325 -0.04299
v -0.00954 0.10189 0.03661
v 0.07320 0.07960 0.03024
v -0.05733 0.09871 0.02705
v 0.07003 0.08916 0.03661
v -0.04458 0.09871 0.03661
v 0.07641 0.08279 -0.03342
v -0.03185 0.09871 -0.02070
v -0.05096 0.08916 -0.04299
v 0.06048 0.08279 0.04299
v 0.04454 -0.08597 0.01433
v 0.04454 -0.08597 -0.04617
v 0.04454 -0.07960 -0.04617
v -0.07641 -0.06369 -0.03343
v 0.07322 -0.05413 0.00159
v -0.06050 -0.08597 0.01114
v -0.06368 -0.09552 -0.03661
v -0.07005 -0.05413 0.00476
v 0.07002 -0.05413 -0.03979
v 0.06684 -0.09871 -0.01433
v -0.02865 -0.10189 -0.00160
v -0.07005 -0.05732 -0.03979
v 0.06364 -0.09871 -0.03661
v -0.07005 -0.09234 -0.00796
v 0.06684 -0.05413 0.00796
v -0.06368 -0.08278 -0.04298
v -0.06368 -0.07005 0.01114
v -0.07323 -0.05413 -0.03661
v 0.06684 -0.07960 0.01114
v -0.00955 -0.10189 -0.03024
v 0.07322 -0.08597 -0.01751
v 0.06046 -0.08915 -0.04617
v -0.00318 -0.09871 0.00476
v -0.07323 -0.07324 0.00159
v -0.07641 -0.07960 -0.03343
v 0.05091 -0.09234 0.00796
v 0.07002 -0.09234 -0.03661
v -0.00003 -0.10189 -0.00160
v -0.06368 -0.09552 -0.00160
v 0.04774 -0.07960 0.01433
v -0.03183 -0.09552 0.00796
v 0.07322 -0.05413 -0.03343
v 0.06364 -0.07642 -0.04617
v -0.06368 -0.07324 -0.04298
v 0.07002 -0.09234 -0.00479
v -0.07641 -0.06369 -0.01433
v -0.03183 -0.10189 -0.01751
v -0.06368 -0.09234 -0.03979
v -0.07641 -0.07960 -0.01433
v -0.07323 -0.07960 -0.03979
v 0.07322 -0.07642 -0.00160
v -0.06686 -0.09552 -0.03024
v -0.07005 -0.08278 0.00476
v 0.00634 -0.10189 -0.02388
v -0.05413 -0.08915 0.01114
v 0.06046 -0.09552 -0.00160
v 0.02862 -0.09234 -0.04298
v 0.03181 -0.07960 0.01433
v -0.06050 -0.08597 -0.04298
v 0.07002 -0.08597 -0.03979
v 0.07322 -0.07324 -0.03343
v -0.07323 -0.05413 -0.00479
v 0.04774 -0.07642 -0.04617
v -0.07005 -0.09234 -0.03343
v 0.07002 -0.09552 -0.03343
v -0.05095 -0.09552 0.00476
v 0.05409 -0.05413 0.00796
v -0.06686 -0.09552 -0.00796
v 0.07002 -0.07960 0.00796
v 0.06684 -0.07005 0.01114
v 0.04774 -0.08915 -0.04617
v 0.06364 -0.09234 0.00159
v -0.07641 -0.06050 -0.02705
v -0.07323 -0.06369 -0.03979
v -0.06687 0.04777 0.00477
v -0.07324 -0.05413 -0.03661
v -0.05732 -0.05413 -0.03661
v -0.06687 -0.05413 0.00477
v 0.02227 0.04777 -0.02388
v 0.02227 -0.05413 0.00477
v -0.07005 0.04777 -0.03661
v 0.02227 0.04777 0.00796
v 0.02227 -0.05413 -0.02388
v 0.00952 0.00318 -0.03024
v -0.07324 0.03821 -0.00160
v -0.07324 0.01274 -0.03980
v -0.05413 0.04457 0.00796
v 0.00634 0.04139 -0.03024
v 0.02227 0.00954 0.00796
v -0.07324 -0.05413 -0.00478
v -0.06369 -0.01910 -0.03980
v 0.00952 -0.02546 -0.03024
v -0.07005 -0.02228 0.00477
v -0.07324 0.04777 -0.03343
v -0.06369 0.00954 -0.03980
v -0.06369 0.04777 -0.03661
v -0.07005 0.03502 0.00477
v -0.07324 0.04777 -0.00478
v 0.01589 0.04777 -0.02706
v -0.07324 -0.04457 -0.00160
v -0.07005 -0.02228 -0.03980
v -0.05413 0.04777 0.00796
v 0.00952 -0.04776 -0.02706
v 0.01908 0.00954 0.00796
v 0.00315 0.04457 -0.03024
v -0.07324 -0.01592 -0.03980
v -0.07324 0.04457 -0.03661
v 0.07003 -0.05413 -0.03980
v 0.06366 0.04777 0.01115
v 0.02547 0.04777 0.01115
v 0.05411 -0.05413 0.00796
v 0.02228 0.04777 -0.02387
v 0.02228 -0.05413 -0.02387
v 0.07322 0.04777 -0.03662
v 0.07322 -0.04776 0.00477
v 0.02228 -0.05413 0.00477
v 0.05730 0.02547 -0.03980
v 0.07322 0.04777 0.00159
v 0.05730 -0.05413 -0.03980
v 0.07322 -0.05413 -0.03662
v 0.02547 -0.04776 -0.02707
v 0.06685 0.01274 0.01115
v 0.02228 0.04777 0.00796
v 0.06685 -0.05413 0.00796
v 0.07322 0.02866 -0.03980
v 0.06048 0.04777 -0.03662
v 0.05411 0.00635 0.01115
v 0.07003 0.04777 0.00796
v 0.07322 -0.05413 0.00159
v 0.06048 0.03502 -0.03980
v 0.02547 0.04457 0.01115
v 0.07003 -0.04776 0.00796
v 0.06366 0.00318 0.01115
v 0.02228 0.00318 0.00796
v 0.07322 -0.01272 -0.03980
v 0.02547 -0.05413 -0.02707
v 0.06685 0.03821 -0.03980
v 0.06685 0.03821 0.01115
f 140 148 161 
f 130 131 132 
f 132 131 134 
f 129 133 135 
f 133 129 136 
f 134 133 136 
f 134 131 137 
f 133 134 137 
f 133 137 138 
f 130 139 140 
f 132 134 143 
f 134 136 143 
f 136 141 143 
f 130 132 144 
f 139 130 144 
f 138 137 146 
f 131 145 146 
f 145 138 146 
f 132 141 147 
f 129 135 148 
f 140 139 148 
f 142 138 149 
f 138 145 149 
f 145 140 149 
f 135 133 150 
f 140 135 150 
f 149 140 150 
f 142 149 150 
f 139 147 151 
f 147 141 151 
f 129 148 152 
f 148 139 152 
f 151 129 152 
f 139 151 152 
f 133 138 153 
f 138 142 153 
f 150 133 153 
f 144 132 154 
f 139 144 154 
f 147 139 154 
f 132 147 154 
f 131 130 155 
f 145 131 155 
f 140 145 155 
f 136 129 156 
f 141 136 156 
f 129 151 156 
f 151 141 156 
f 137 131 157 
f 131 146 157 
f 146 137 157 
f 141 132 158 
f 132 143 158 
f 143 141 158 
f 142 150 159 
f 153 142 159 
f 150 153 159 
f 130 140 160 
f 155 130 160 
f 140 155 160 
f 135 140 161 
f 148 135 161 
