# Created by Open3D 
# object name: convex_0_coll
# number of vertices: 14
# number of triangles: 24
v 0.05563 -0.02911 0.02235
v 0.06291 0.01922 0.02859
v 0.04575 0.0041575 0.02859
v 0.06655 0.00104 0.02807
v 0.06655 0.0176725 -0.005725
v 0.06083 0.04627 -0.00261
v 0.05615 0.03638 -0.03431
v 0.04783 0.01766 -0.03431
v 0.04991 -0.03847 -0.00313
v 0.05095 -0.03847 -0.03535
v 0.06031 -0.03223 -0.03639
v 0.05615 -0.03847 -0.03846
v 0.06135 0.0254675 -0.0395075
v 0.06239 -0.03431 0.00935
f 4 5 2
f 2 3 4
f 3 2 6
f 3 6 8
f 9 1 3
f 12 8 13
f 6 5 13
f 1 4 3
f 8 10 3
f 10 9 3
f 14 9 12
f 9 10 12
f 13 8 7
f 6 13 7
f 12 13 11
f 14 5 4
f 6 2 5
f 8 12 10
f 5 14 11
f 14 12 11
f 14 4 1
f 5 11 13
f 8 6 7
f 9 14 1
