# Created by Open3D 
# object name: convex_3_coll
# number of vertices: 14
# number of triangles: 24
v -0.02704 0.00519 0.03223
v 0.003125 0.01871 0.02496
v 0.00209 0.002075 0.01976
v 0.03846 0.002075 0.01976
v 0.02443 -0.0244325 0.0306775
v 0.02339 0.0057125 0.04263
v -0.015595 -0.02079 0.03639
v 0.00832 0.01975 0.03223
v 0.04575 0.00935 0.02808
v 0.04575 -0.00312 0.026
v 0.0197475 -0.024435 0.02548
v -0.02079 0.00519 0.04055
v 0.033265 0.01663 0.02288
v -0.02079 -0.02391 0.03223
f 5 6 7
f 8 6 9
f 3 4 11
f 8 12 6
f 12 8 1
f 4 3 13
f 3 2 13
f 10 9 6
f 4 13 9
f 4 10 11
f 10 5 11
f 10 6 5
f 9 10 4
f 11 5 14
f 7 12 1
f 14 7 1
f 6 12 7
f 8 13 2
f 14 1 3
f 8 2 1
f 13 8 9
f 14 5 7
f 14 3 11
f 3 1 2
