# Created by Open3D 
# object name: convex_5_coll
# number of vertices: 14
# number of triangles: 24
v -0 -0.02079 0.01455
v 0.02703 -0.02599 0.01143
v -0 -0.03015 0.00104
v -0 0.03015 0.00104
v -0 0.02339 0.011955
v 0.04367 -0.00779 0.0150725
v 0.04575 -0.00623 0.00624
v 0.04471 0.01559 0.0088375
v 0.02288 -0.03015 -0.00104
v 0.00208 0.03431 0.00416
v 0.04471 0.00727 0.0052
v 0.04159 0.002075 0.01767
v 0.00416 0.003635 0.01975
v 0.04367 0.01559 0.01352
f 4 3 5
f 5 3 1
f 6 7 8
f 4 5 10
f 4 11 9
f 3 4 9
f 3 2 1
f 10 8 4
f 5 14 10
f 13 12 14
f 9 7 2
f 12 6 14
f 6 8 14
f 2 7 6
f 8 7 11
f 7 9 11
f 2 3 9
f 10 14 8
f 2 6 1
f 6 12 1
f 13 14 5
f 1 13 5
f 1 12 13
f 4 8 11
