# Created by Open3D 
# object name: convex_4_coll
# number of vertices: 14
# number of triangles: 24
v -0.00208 0.05094 0.0052
v -0.04159 -0.021825 0.00104
v -0.00208 0.042625 0.00104
v -0 -0.03015 0.00104
v -0 0.01143 0.01767
v -0.01872 0.05303 0.0052
v -0.06655 0.00727 0.00936
v -0.01664 0.00519 0.01767
v -0.0312 0.03431 0.00104
v -0 -0.01559 0.01767
v -0.030155 -0.04887 0.00104
v -0.06655 0.00727 0.0052
v -0.031195 -0.05303 0.00468
v -0.06239 -0.0239 0.00936
f 2 3 4
f 6 7 8
f 3 2 9
f 4 5 10
f 2 4 11
f 5 4 3
f 8 10 5
f 14 10 8
f 13 4 10
f 10 14 13
f 7 6 12
f 12 9 2
f 6 5 1
f 3 9 6
f 14 11 13
f 1 5 3
f 5 6 8
f 7 12 14
f 8 7 14
f 11 4 13
f 12 2 14
f 2 11 14
f 6 9 12
f 3 6 1
