# Created by Open3D 
# object name: convex_1_coll
# number of vertices: 14
# number of triangles: 24
v -0.007285 0.051455 -0.00988
v -0.0309387 0.0111713 -0.00624
v 0.00208 0.01142 -0.00728
v 0.00208 -0.03223 -0.00728
v 0.00208 -0.031185 -0.02079
v -0.05563 -0.0218275 -0.015595
v -0.03327 -0.02599 -0.02183
v -0.02704 -0.05095 -0.01767
v -0.0291 0.03222 -0.02392
v -0.00209 0.05093 -0.02392
v -0.05407 0.02182 -0.015595
v -0.026515 0.04522 -0.0179325
v -0.01664 -0.05095 -0.01144
v -0.032225 -0.03223 -0.00728
f 3 4 5
f 6 7 8
f 7 6 9
f 9 10 5
f 1 11 2
f 1 4 3
f 11 12 9
f 12 10 9
f 9 6 11
f 8 14 6
f 6 2 11
f 7 9 5
f 13 5 4
f 14 4 2
f 8 7 5
f 10 12 1
f 5 10 3
f 6 14 2
f 8 5 13
f 11 1 12
f 1 3 10
f 4 14 13
f 14 8 13
f 4 1 2
