# Created by Open3D 
# object name: convex_2_coll
# number of vertices: 14
# number of triangles: 24
v 0.023915 -0.03119 -0.0124725
v 0.02079 -0.03015 -0.00104
v 0.00208 -0.03223 -0.01976
v 0.00208 -0.03223 -0.00728
v 0.00208 0.01144 -0.01872
v 0.00208 0.00936 -0.00728
v 0.01248 0.006235 -0.01872
v 0.016635 -0.02963 -0.01976
v 0.02496 -0.02599 -0.00104
v 0.02496 -0.01975 -0.01351
v 0.00416 0.01352 -0.01144
v 0.01248 -0.03431 -0.013515
v 0.01664 0.004155 -0.0104
v 0.01975 -0.001045 -0.013515
f 3 4 5
f 5 4 6
f 7 8 3
f 6 4 2
f 7 3 5
f 5 6 11
f 4 3 12
f 10 9 1
f 8 10 1
f 7 13 14
f 3 8 12
f 14 10 7
f 13 7 11
f 11 7 5
f 6 9 13
f 9 14 13
f 11 6 13
f 9 6 2
f 14 9 10
f 1 12 8
f 7 10 8
f 4 12 2
f 1 9 2
f 12 1 2
