# Created by Open3D 
# object name: convex_0_coll
# number of vertices: 14
# number of triangles: 24
v -0.01734 -0.05513 -0.03165
v 0.004075 -0.05105 -0.02756
v 0.03061 -0.06534 0.011225
v -0.02551 -0.06534 0.0194
v -0.04388 -0.05309 0.00306
v -0.01122 -0.04492 0.02143
v -0.02755 -0.06125 0.02347
v 0.03368 -0.06125 -0.02756
v 0.032655 -0.05717 -0.02858
v -0.04388 -0.05309 0.0194
v 0.0352125 -0.06074 0.01939
v 0.03777 -0.05717 0.00918
v -0.0296 -0.06125 -0.02552
v -0.04184 -0.06125 0.01735
f 5 6 1
f 2 6 9
f 12 6 11
f 1 6 2
f 10 5 14
f 5 13 14
f 9 6 12
f 5 1 13
f 11 6 7
f 6 5 10
f 13 4 14
f 12 8 9
f 6 10 7
f 7 10 14
f 11 7 4
f 4 7 14
f 1 9 8
f 11 8 12
f 8 11 3
f 4 3 11
f 1 8 13
f 8 3 13
f 3 4 13
f 1 2 9
