# Created by Open3D 
# object name: convex_1_coll
# number of vertices: 14
# number of triangles: 24
v -0.00307 -0.03675 0.01531
v -0.00715 -0.04492 0.0194
v -0.00102 -0.0245 0.01838
v -0.02552 -0.0245 0.01531
v -0.02756 -0.0245 0.02144
v -0.01123 -0.04492 0.02144
v -0.00307 -0.0245 0.02144
v -0.02144 -0.04492 0.02144
v -0.00919 -0.04492 0.01531
v -0.02348 -0.04492 0.01531
v -0.01327 -0.03471 0.01327
v -0.00511 -0.0245 0.01531
v -0.02756 -0.03675 0.01838
v -0.02552 -0.04288 0.0194
f 3 4 5
f 5 6 7
f 3 5 7
f 6 5 8
f 9 6 8
f 9 8 10
f 11 9 10
f 4 3 12
f 9 11 1
f 4 12 11
f 5 4 13
f 6 9 2
f 6 2 7
f 10 14 13
f 4 10 13
f 1 11 12
f 3 1 12
f 5 13 8
f 8 13 14
f 10 8 14
f 10 4 11
f 2 1 3
f 7 2 3
f 9 1 2
