# Created by Open3D 
# object name: convex_2_coll
# number of vertices: 14
# number of triangles: 24
v -0.025515 -0.023465 0.02246
v -0.04798 -0.01223 0.01736
v -0.02551 -0.02449 0.01532
v -0.05206 0.01634 0.02348
v 0.0051 0.02653 0.03165
v 0.03981 -0.00407 0.0296
v 0.03164 -0.01836 0.01532
v 0.00101 0.05103 0.01327
v 0.05206 0.02042 0.02552
v -0.0061275 0.063795 0.01838
v 0.0051 0.064315 0.01787
v 0.05206 0.01532 0.0296
v -0.05002 -0.00815 0.02348
v 0.0102 -0.0229525 0.02195
f 1 2 3
f 7 8 9
f 5 10 4
f 8 10 11
f 7 9 12
f 2 8 3
f 13 6 5
f 12 6 7
f 1 3 14
f 5 11 10
f 1 6 13
f 3 7 14
f 11 5 12
f 8 11 9
f 13 5 4
f 4 8 2
f 13 4 2
f 11 12 9
f 2 1 13
f 4 10 8
f 14 7 6
f 1 14 6
f 7 3 8
f 12 5 6
