# Created by Open3D 
# object name: convex_3_coll
# number of vertices: 14
# number of triangles: 24
v 0.02748 -0.05842 -0.01489
v 0.029775 -0.05842 0.013745
v -0.02519 -0.063 -0.01489
v 0.02748 -0.063 -0.01489
v 0.027485 -0.063 0.013745
v -0.03665 -0.063 0.0126
v -0.02061 -0.05384 -0.01489
v -0.04467 -0.059565 0.016035
v -0.0023 -0.06071 0.01718
v -0.021755 -0.04468 0.01718
v -0.046965 -0.05155 0.016035
v -0.01603 -0.04468 0.0126
v -0.04811 -0.05155 0.00573
v -0.046965 -0.05842 0.00344
f 4 3 1
f 4 5 6
f 1 3 7
f 8 9 10
f 4 6 3
f 8 10 11
f 12 1 7
f 13 10 12
f 2 12 10
f 5 8 6
f 9 5 2
f 10 9 2
f 13 14 8
f 7 3 13
f 12 2 1
f 8 5 9
f 13 3 14
f 3 6 14
f 6 8 14
f 12 7 13
f 10 13 11
f 13 8 11
f 5 4 1
f 2 5 1
