# Created by Open3D 
# object name: convex_2_coll
# number of vertices: 14
# number of triangles: 24
v -0.052685 -0.05613 -0.03322
v -0.05498 -0.04926 -0.03093
v -0.051535 -0.050405 -0.036655
v -0.02748 -0.063 -0.01489
v 0.02061 -0.063 -0.03436
v 0.02748 -0.063 -0.01489
v -0.02061 -0.05384 -0.01489
v -0.02748 -0.063 -0.03436
v 0.00916 -0.05384 -0.01489
v -0.04581 -0.05842 -0.0378
v 0.006865 -0.057275 -0.0378
v 0.02977 -0.05842 -0.01718
v 0.028625 -0.05842 -0.03207
v 0.00228 -0.05155 -0.03436
f 1 2 3
f 4 5 6
f 7 4 6
f 5 4 8
f 2 7 9
f 7 6 9
f 10 3 11
f 5 8 11
f 13 12 6
f 7 2 4
f 1 4 2
f 11 8 10
f 4 1 8
f 3 10 1
f 8 1 10
f 11 3 14
f 13 11 14
f 9 6 12
f 14 12 13
f 13 6 5
f 11 13 5
f 14 3 2
f 12 14 9
f 14 2 9
