# Created by Open3D 
# object name: convex_0_coll
# number of vertices: 14
# number of triangles: 24
v 0.06873 0.05382 -0.02176
v 0.06873 0.014885 -0.03322
v 0.06644 0.05153 0.01489
v 0.06873 -0.03091 0.01489
v 0.05499 0.01488 0.01489
v 0.072165 -0.014885 0.013745
v 0.07331 0.02519 -0.01947
v 0.072165 0.056115 0.00458
v 0.05728 0.030915 -0.026345
v 0.05957 -0.02405 -0.02864
v 0.05957 -0.03091 0.013745
v 0.06415 0.05841 -0.00229
v 0.06873 -0.02862 -0.02405
v 0.0612875 -0.034355 -0.01031
f 4 3 5
f 3 4 6
f 6 7 8
f 4 5 11
f 1 9 12
f 7 13 2
f 12 8 1
f 12 5 3
f 6 8 3
f 10 13 14
f 13 7 6
f 5 12 9
f 10 5 9
f 2 10 9
f 4 13 6
f 8 7 1
f 7 2 1
f 13 4 14
f 11 14 4
f 10 2 13
f 8 12 3
f 5 10 14
f 11 5 14
f 9 1 2
