# Created by Open3D 
# object name: convex_1_coll
# number of vertices: 14
# number of triangles: 24
v 0.059565 0.0103 0.04009
v 0.065285 0.0251925 0.0380862
v 0.06872 -0.02864 0.01489
v 0.04353 0.014885 0.01489
v 0.067575 0.04696 0.01604
v 0.03895 0.00345 0.02177
v 0.03895 0.02863 0.01719
v 0.03895 0.017175 0.0378
v 0.0733 -0.00115 0.01489
v 0.058415 -0.02749 0.01604
v 0.072155 0.017745 0.03551
v 0.0733 0.04237 0.01489
v 0.06872 -0.02405 0.02177
v 0.05956 -0.020615 0.02406
f 3 4 5
f 4 6 7
f 6 8 7
f 3 5 9
f 6 4 10
f 4 3 10
f 11 9 12
f 9 5 12
f 8 5 7
f 1 11 2
f 9 11 3
f 11 13 3
f 4 7 5
f 11 12 5
f 2 11 5
f 14 1 8
f 1 14 13
f 14 10 13
f 1 13 11
f 5 8 2
f 14 8 10
f 8 6 10
f 13 10 3
f 8 1 2
