# Created by Open3D 
# object name: convex_4_coll
# number of vertices: 14
# number of triangles: 24
v -0.06873 0.0163212 -0.0398025
v -0.06644 0.063 -0.02633
v -0.07331 0.0125925 -0.033785
v -0.07331 0.04696 0.01031
v -0.05956 0.02175 0.02176
v -0.05956 -0.02406 0.01718
v -0.0727375 -0.0188975 0.01489
v -0.072165 0.0607 -0.02519
v -0.06873 -0.00802 0.02176
v -0.069875 -0.02863 -0.03092
v -0.067585 -0.03322 -0.027485
v -0.06644 0.04696 0.014885
v -0.07102 0.037785 0.01832
v -0.06186 -0.01947 -0.02864
f 4 3 7
f 3 4 8
f 5 9 6
f 7 3 10
f 11 7 10
f 13 5 12
f 2 5 14
f 3 8 1
f 14 11 10
f 1 14 10
f 5 13 9
f 4 7 13
f 7 9 13
f 6 11 14
f 3 1 10
f 2 14 1
f 6 14 5
f 1 8 2
f 12 4 13
f 8 4 12
f 2 8 12
f 7 6 9
f 11 6 7
f 2 12 5
