# Created by Open3D 
# object name: convex_5_coll
# number of vertices: 14
# number of triangles: 24
v 0.03092 -0.01832 0.01947
v 0.02977 -0.02175 0.0126
v -0.05956 -0.02405 0.0126
v -0.05956 -0.01489 0.02176
v -0.05956 0.02405 0.02176
v 0.03895 0.00802 0.02863
v 0.03895 0.027485 0.025195
v 0.01145 0.01717 0.03322
v 0.00228 0.05154 0.01031
v -0.0154625 -0.038365 0.01031
v -0.01374 -0.04467 0.01718
v 0.0360825 0.0249087 0.01489
v -0.0343512 0.063 0.016035
v -0.058415 0.027485 0.0126
f 3 4 5
f 6 7 8
f 8 4 11
f 7 6 12
f 11 1 6
f 3 5 14
f 2 10 9
f 5 4 8
f 10 2 11
f 7 13 8
f 13 9 14
f 10 11 3
f 11 2 1
f 9 7 12
f 13 7 9
f 9 10 14
f 10 3 14
f 5 13 14
f 13 5 8
f 1 2 6
f 11 4 3
f 2 9 12
f 11 6 8
f 6 2 12
