# Original object name hint: convex_2
v -0.01467 -0.01601 0.05606
v 0.03603 0.02403 0.04272
v 0.03603 0.02403 0.03472
v 0.04405 -0.01601 0.03738
v -0.00400 -0.01334 0.02136
v -0.02269 0.01869 0.05606
v 0.04405 0.01869 0.05874
v 0.01201 0.02403 0.02136
v 0.01735 -0.02136 0.05874
v 0.03871 0.01335 0.02136
v 0.01735 -0.02136 0.02136
v -0.01735 0.01869 0.03204
v -0.01201 -0.01868 0.03204
v -0.02536 0.01068 0.05874
v 0.01735 0.02403 0.05874
v 0.04672 0.01869 0.03204
v 0.04405 -0.01067 0.02670
v -0.00933 -0.02136 0.05874
v 0.04405 0.00534 0.05874
v -0.00933 0.02136 0.02670
v 0.03603 -0.01868 0.02404
v -0.01467 0.02136 0.05874
v 0.03337 -0.01067 0.05874
v 0.00134 -0.02136 0.02136
v 0.04672 -0.00533 0.04272
v 0.03337 0.02136 0.02136
v 0.00134 0.01869 0.02136
v -0.02002 0.01335 0.03738
v 0.02803 -0.02136 0.02937
v 0.04672 0.01335 0.05073
v 0.04138 0.02136 0.05874
v 0.03069 -0.01601 0.02136
v 0.04672 0.00801 0.02937
v -0.02536 0.01068 0.05606
v 0.04405 -0.00266 0.05340
v -0.01735 0.01068 0.03204
v -0.00667 0.01869 0.02404
v -0.00667 -0.02136 0.02937
v 0.03069 0.02403 0.05874
v 0.04405 0.02136 0.03472
v 0.04672 -0.00533 0.03204
v 0.04405 0.01869 0.02670
v -0.02536 0.01602 0.05606
v 0.00935 0.02403 0.02404
v 0.03871 -0.01868 0.03204
v 0.02269 0.02403 0.02136
v 0.04672 0.01869 0.04538
v 0.04405 -0.01601 0.03204
v 0.02269 -0.01868 0.05874
v -0.01467 0.01869 0.02937
v 0.03871 -0.00800 0.05606
v -0.00400 0.00001 0.02136
v 0.04672 0.00267 0.05073
v 0.03871 -0.01334 0.02404
v -0.01467 -0.01601 0.05874
v 0.00935 0.02403 0.03472
v -0.02536 0.01602 0.05874
v 0.03069 -0.01334 0.05874
v 0.04405 -0.01067 0.04538
v 0.03871 0.01869 0.02136
v 0.03871 -0.01868 0.02670
v 0.04138 0.02136 0.02937
v 0.02536 -0.02136 0.02404
v 0.04405 0.02136 0.04272
v -0.01200 -0.02402 0.06408
v 0.01735 0.02937 0.07209
v 0.02000 0.02669 0.07743
v 0.06541 0.00267 0.06942
v 0.00402 -0.00533 0.08544
v -0.02536 0.01868 0.05874
v -0.04672 0.01068 0.07209
v 0.04405 0.02135 0.05874
v 0.02000 -0.02135 0.05874
v 0.04405 -0.02135 0.07209
v -0.04138 -0.02135 0.06942
v 0.06007 0.01335 0.07476
v 0.00134 0.01335 0.08544
v -0.02268 -0.01601 0.05874
v -0.00131 -0.02402 0.07476
v -0.03070 0.02135 0.07209
v 0.04405 -0.02135 0.06408
v -0.04405 0.00001 0.06408
v 0.01201 -0.00533 0.08544
v 0.06541 0.01602 0.07209
v 0.01201 0.02669 0.06141
v 0.04671 0.00800 0.05874
v -0.03871 -0.02135 0.07209
v 0.06007 0.00267 0.07476
v 0.01467 0.01068 0.08544
v 0.00134 0.02669 0.07743
v 0.02000 -0.02402 0.07476
v 0.04671 -0.01601 0.07476
v 0.01201 0.02937 0.06675
v -0.04672 0.01068 0.06675
v -0.04138 -0.02135 0.06675
v -0.04672 0.00267 0.07209
v 0.01735 -0.02402 0.06141
v -0.01200 -0.02135 0.05874
v 0.02000 -0.02135 0.07743
v -0.02802 0.02135 0.06408
v -0.00131 -0.02135 0.07743
v 0.01735 0.02402 0.08009
v 0.06541 0.01602 0.06942
v 0.00134 -0.00266 0.08544
v -0.00667 0.02135 0.08009
v 0.04939 -0.01868 0.07209
v 0.03603 -0.01067 0.05874
v 0.03337 0.02402 0.05874
v 0.04939 0.02135 0.06675
v -0.01734 0.02135 0.05874
v 0.06273 0.00533 0.06675
v -0.02802 0.01335 0.05874
v 0.04671 -0.01868 0.06408
v -0.03871 -0.01868 0.06408
v 0.06541 0.00267 0.07209
v 0.00934 0.02937 0.07209
v 0.02802 -0.02402 0.06675
v -0.04672 0.00001 0.06675
v 0.04939 0.02135 0.07209
v 0.01735 0.02937 0.06675
v 0.01201 0.01335 0.08544
v -0.03604 0.01868 0.06675
v 0.04671 -0.02135 0.06675
v 0.04671 0.01602 0.05874
v 0.00134 0.02402 0.08009
v -0.01468 -0.02402 0.06942
v -0.04405 0.00800 0.06408
v 0.01467 0.00001 0.08544
v -0.03337 0.02670 -0.07476
v -0.06541 -0.01601 -0.06408
v -0.06541 -0.01601 -0.05874
v -0.03337 -0.02402 -0.07208
v -0.03337 0.02402 -0.06408
v -0.06007 0.02402 -0.07208
v -0.06274 0.02670 -0.05874
v -0.05206 -0.01868 -0.05874
v -0.04939 -0.02402 -0.07208
v -0.03605 -0.02402 -0.06408
v -0.06007 -0.00266 -0.07208
v -0.06541 0.02135 -0.06675
v -0.06007 -0.02402 -0.06141
v -0.03605 -0.00266 -0.07476
v -0.05206 0.02402 -0.05874
v -0.04406 0.02402 -0.07476
v -0.06007 -0.02135 -0.06942
v -0.05740 0.02670 -0.07208
v -0.06541 0.02402 -0.05874
v -0.03337 0.00266 -0.06408
v -0.03337 0.02670 -0.06675
v -0.06541 -0.00800 -0.06675
v -0.03337 -0.02402 -0.06675
v -0.06274 0.02670 -0.06675
v -0.05473 -0.02135 -0.05874
v -0.05473 -0.01868 -0.07208
v -0.05473 0.02670 -0.05874
v -0.04406 0.01602 -0.07476
v -0.06007 -0.02402 -0.06675
v -0.03337 -0.00266 -0.07476
v -0.06274 -0.02135 -0.05874
v -0.06274 -0.01334 -0.06942
v -0.06007 0.02135 -0.00535
v -0.06007 -0.02402 -0.05339
v -0.06274 -0.02135 -0.05874
v -0.05473 0.02402 -0.05874
v -0.05740 -0.02135 0.00801
v -0.06541 0.02670 -0.02936
v -0.06541 -0.01334 -0.01869
v -0.05473 -0.02135 -0.05874
v -0.06541 0.02402 -0.05874
v -0.05473 0.02135 -0.01869
v -0.06541 -0.02135 -0.04538
v -0.05473 -0.02402 -0.01869
v -0.06541 0.01868 -0.01335
v -0.06007 -0.02135 0.00801
v -0.05740 -0.00266 0.00801
v -0.05740 0.02670 -0.02670
v -0.06274 -0.02402 -0.02136
v -0.06007 -0.00266 0.00801
v -0.05740 0.02670 -0.05874
v -0.06541 -0.01601 -0.05874
v -0.05740 0.01868 -0.00267
v -0.06541 -0.01868 -0.02403
v -0.06541 0.02670 -0.05339
v -0.06274 0.01868 -0.00535
v -0.05473 -0.02135 -0.01602
v -0.05473 -0.02402 -0.05073
v -0.06274 -0.02402 -0.05073
v -0.06541 0.01067 -0.01335
v -0.05740 0.02135 -0.00535
v -0.05473 0.02402 -0.03203
v -0.06007 0.01868 -0.00267
v -0.06274 0.02135 -0.00801
v -0.06541 -0.02135 -0.03203
v -0.06007 -0.02402 -0.01602
v -0.01468 -0.02403 -0.07742
v 0.00135 0.02937 -0.07209
v 0.00934 0.02670 -0.06675
v 0.03871 -0.02135 -0.07742
v 0.00666 -0.02403 -0.06141
v -0.03337 0.02402 -0.06408
v -0.00133 0.02135 -0.08544
v 0.04138 0.01869 -0.06942
v -0.03337 -0.02669 -0.07209
v 0.02802 0.01601 -0.06141
v 0.03603 -0.02669 -0.06675
v -0.03337 0.02670 -0.07475
v -0.00400 -0.00533 -0.08544
v 0.03871 0.02135 -0.07742
v -0.03337 -0.02669 -0.06675
v 0.02535 -0.02937 -0.07742
v 0.01468 -0.00800 -0.08544
v -0.00667 0.02402 -0.06141
v 0.01201 0.02135 -0.08544
v -0.03337 -0.01601 -0.07475
v 0.00666 -0.02937 -0.06675
v -0.00133 -0.02937 -0.07742
v 0.03603 0.01334 -0.08009
v -0.01468 0.01334 -0.06141
v -0.00667 0.01601 -0.08544
v 0.01201 0.02670 -0.08009
v 0.04138 -0.02135 -0.06942
v 0.04138 0.01869 -0.07742
v -0.03337 0.00267 -0.06408
v 0.01468 -0.02403 -0.06141
v 0.01468 0.02402 -0.06141
v 0.03871 0.02135 -0.06942
v -0.03337 0.02670 -0.06675
v 0.03871 -0.02135 -0.06675
v 0.03336 -0.02937 -0.07475
v -0.00934 0.02670 -0.08009
v 0.00135 -0.02403 -0.08009
v 0.02535 -0.02403 -0.08009
v 0.04138 -0.02135 -0.07475
v -0.01201 -0.02937 -0.06942
v -0.00667 0.02937 -0.07475
v -0.02803 0.00800 -0.07742
v 0.02802 0.00800 -0.06141
v -0.00667 0.00267 -0.08544
v 0.02002 -0.02937 -0.06675
v 0.01468 0.01869 -0.08544
v -0.00133 -0.00800 -0.08544
v -0.03070 -0.02135 -0.07475
v 0.03871 -0.02669 -0.07475
v 0.04138 0.00267 -0.07742
v 0.02269 0.02135 -0.06141
v 0.01735 0.02402 -0.08276
v 0.03336 -0.02937 -0.06942
v 0.00401 -0.02135 -0.06141
v -0.02803 0.02135 -0.07742
v 0.03871 -0.00800 -0.06675
v 0.03336 -0.02669 -0.07742
v 0.01468 0.02670 -0.07742
v 0.03336 -0.00533 -0.08009
v 0.02802 -0.02135 -0.06408
v -0.01468 0.01869 -0.06141
v 0.03871 -0.02669 -0.06942
v 0.03069 -0.01869 -0.08009
v -0.02001 -0.02135 -0.07742
v -0.02269 0.02135 -0.02135
v 0.04138 0.00001 0.01334
v 0.04138 -0.01334 0.01334
v 0.02536 0.00534 -0.06141
v -0.02269 -0.02135 0.01067
v 0.00668 -0.02135 -0.06141
v 0.02002 0.02402 0.02135
v 0.01468 0.02402 -0.06141
v -0.00934 0.01067 -0.06141
v -0.02536 0.01602 0.01067
v 0.01468 -0.02135 0.02135
v 0.02269 -0.02402 -0.04805
v 0.03070 0.01868 -0.04004
v -0.01468 0.02670 -0.01336
v -0.01735 -0.02135 -0.01870
v -0.00400 0.00266 0.02135
v -0.00934 0.02135 -0.06141
v 0.03070 0.01868 0.02135
v -0.02536 0.01334 -0.01603
v 0.01735 -0.02402 0.01067
v -0.00667 -0.02402 -0.04004
v 0.01468 0.02670 -0.03470
v 0.02802 -0.02135 -0.04538
v 0.03870 -0.01868 0.01067
v -0.01200 0.02670 -0.03737
v 0.03337 0.01868 0.01334
v -0.02536 -0.01601 0.00533
v 0.04138 -0.01334 0.00800
v 0.01201 0.02402 0.02135
v -0.00400 -0.01601 0.02135
v -0.02002 0.01602 -0.03737
v -0.00400 -0.02402 0.01334
v -0.02002 0.02135 0.00800
v 0.02269 0.02135 -0.06141
v 0.02536 -0.01601 0.02135
v 0.01468 -0.01868 -0.06141
v -0.00934 -0.02135 -0.04004
v 0.03604 0.01602 0.00533
v 0.00934 0.02670 -0.01069
v 0.03337 -0.02135 -0.01603
v -0.01735 0.02402 -0.04004
v -0.01200 0.01868 0.01601
v 0.00134 -0.02135 0.02135
v -0.00133 0.02402 -0.06141
v -0.01200 -0.02402 -0.01870
v -0.02536 0.01868 0.00800
v 0.02536 0.01868 -0.06141
v 0.00668 0.02670 -0.04271
v 0.04138 -0.00266 0.00800
v -0.02536 0.01868 -0.01603
v 0.02802 0.02135 0.02135
v 0.03870 -0.00800 0.01601
v 0.00668 -0.02402 -0.05071
v 0.02536 0.02135 -0.05071
v -0.02536 0.00534 0.01067
v 0.00401 0.01868 0.02135
v 0.03604 0.01602 0.01334
v -0.02002 0.02402 -0.02402
v -0.02002 0.02135 -0.03737
v 0.03337 0.01868 0.00266
v -0.00400 0.02402 0.01067
v -0.00667 0.02670 -0.00802
v 0.00668 -0.02402 0.01601
v 0.03870 0.00801 0.00533
f 150 139 160 
f 132 129 133 
f 135 131 136 
f 137 132 138 
f 130 131 140 
f 134 139 140 
f 137 138 141 
f 132 137 142 
f 136 133 143 
f 135 136 143 
f 139 134 144 
f 129 142 144 
f 135 129 146 
f 129 144 146 
f 144 134 146 
f 131 135 147 
f 140 131 147 
f 132 133 148 
f 133 136 148 
f 136 138 148 
f 133 129 149 
f 129 135 149 
f 130 140 150 
f 140 139 150 
f 138 132 151 
f 132 148 151 
f 148 138 151 
f 134 140 152 
f 135 146 152 
f 146 134 152 
f 147 135 152 
f 140 147 152 
f 136 131 153 
f 138 136 153 
f 141 138 153 
f 142 137 154 
f 145 139 154 
f 137 145 154 
f 143 133 155 
f 135 143 155 
f 133 149 155 
f 149 135 155 
f 139 144 156 
f 144 142 156 
f 142 154 156 
f 154 139 156 
f 137 141 157 
f 130 145 157 
f 145 137 157 
f 129 132 158 
f 142 129 158 
f 132 142 158 
f 131 130 159 
f 153 131 159 
f 141 153 159 
f 130 157 159 
f 157 141 159 
f 145 130 160 
f 139 145 160 
f 130 150 160 
