# Original object name hint: convex_4
v -0.01467 -0.01601 0.05606
v 0.03603 0.02403 0.04272
v 0.03603 0.02403 0.03472
v 0.04405 -0.01601 0.03738
v -0.00400 -0.01334 0.02136
v -0.02269 0.01869 0.05606
v 0.04405 0.01869 0.05874
v 0.01201 0.02403 0.02136
v 0.01735 -0.02136 0.05874
v 0.03871 0.01335 0.02136
v 0.01735 -0.02136 0.02136
v -0.01735 0.01869 0.03204
v -0.01201 -0.01868 0.03204
v -0.02536 0.01068 0.05874
v 0.01735 0.02403 0.05874
v 0.04672 0.01869 0.03204
v 0.04405 -0.01067 0.02670
v -0.00933 -0.02136 0.05874
v 0.04405 0.00534 0.05874
v -0.00933 0.02136 0.02670
v 0.03603 -0.01868 0.02404
v -0.01467 0.02136 0.05874
v 0.03337 -0.01067 0.05874
v 0.00134 -0.02136 0.02136
v 0.04672 -0.00533 0.04272
v 0.03337 0.02136 0.02136
v 0.00134 0.01869 0.02136
v -0.02002 0.01335 0.03738
v 0.02803 -0.02136 0.02937
v 0.04672 0.01335 0.05073
v 0.04138 0.02136 0.05874
v 0.03069 -0.01601 0.02136
v 0.04672 0.00801 0.02937
v -0.02536 0.01068 0.05606
v 0.04405 -0.00266 0.05340
v -0.01735 0.01068 0.03204
v -0.00667 0.01869 0.02404
v -0.00667 -0.02136 0.02937
v 0.03069 0.02403 0.05874
v 0.04405 0.02136 0.03472
v 0.04672 -0.00533 0.03204
v 0.04405 0.01869 0.02670
v -0.02536 0.01602 0.05606
v 0.00935 0.02403 0.02404
v 0.03871 -0.01868 0.03204
v 0.02269 0.02403 0.02136
v 0.04672 0.01869 0.04538
v 0.04405 -0.01601 0.03204
v 0.02269 -0.01868 0.05874
v -0.01467 0.01869 0.02937
v 0.03871 -0.00800 0.05606
v -0.00400 0.00001 0.02136
v 0.04672 0.00267 0.05073
v 0.03871 -0.01334 0.02404
v -0.01467 -0.01601 0.05874
v 0.00935 0.02403 0.03472
v -0.02536 0.01602 0.05874
v 0.03069 -0.01334 0.05874
v 0.04405 -0.01067 0.04538
v 0.03871 0.01869 0.02136
v 0.03871 -0.01868 0.02670
v 0.04138 0.02136 0.02937
v 0.02536 -0.02136 0.02404
v 0.04405 0.02136 0.04272
v -0.01200 -0.02402 0.06408
v 0.01735 0.02937 0.07209
v 0.02000 0.02669 0.07743
v 0.06541 0.00267 0.06942
v 0.00402 -0.00533 0.08544
v -0.02536 0.01868 0.05874
v -0.04672 0.01068 0.07209
v 0.04405 0.02135 0.05874
v 0.02000 -0.02135 0.05874
v 0.04405 -0.02135 0.07209
v -0.04138 -0.02135 0.06942
v 0.06007 0.01335 0.07476
v 0.00134 0.01335 0.08544
v -0.02268 -0.01601 0.05874
v -0.00131 -0.02402 0.07476
v -0.03070 0.02135 0.07209
v 0.04405 -0.02135 0.06408
v -0.04405 0.00001 0.06408
v 0.01201 -0.00533 0.08544
v 0.06541 0.01602 0.07209
v 0.01201 0.02669 0.06141
v 0.04671 0.00800 0.05874
v -0.03871 -0.02135 0.07209
v 0.06007 0.00267 0.07476
v 0.01467 0.01068 0.08544
v 0.00134 0.02669 0.07743
v 0.02000 -0.02402 0.07476
v 0.04671 -0.01601 0.07476
v 0.01201 0.02937 0.06675
v -0.04672 0.01068 0.06675
v -0.04138 -0.02135 0.06675
v -0.04672 0.00267 0.07209
v 0.01735 -0.02402 0.06141
v -0.01200 -0.02135 0.05874
v 0.02000 -0.02135 0.07743
v -0.02802 0.02135 0.06408
v -0.00131 -0.02135 0.07743
v 0.01735 0.02402 0.08009
v 0.06541 0.01602 0.06942
v 0.00134 -0.00266 0.08544
v -0.00667 0.02135 0.08009
v 0.04939 -0.01868 0.07209
v 0.03603 -0.01067 0.05874
v 0.03337 0.02402 0.05874
v 0.04939 0.02135 0.06675
v -0.01734 0.02135 0.05874
v 0.06273 0.00533 0.06675
v -0.02802 0.01335 0.05874
v 0.04671 -0.01868 0.06408
v -0.03871 -0.01868 0.06408
v 0.06541 0.00267 0.07209
v 0.00934 0.02937 0.07209
v 0.02802 -0.02402 0.06675
v -0.04672 0.00001 0.06675
v 0.04939 0.02135 0.07209
v 0.01735 0.02937 0.06675
v 0.01201 0.01335 0.08544
v -0.03604 0.01868 0.06675
v 0.04671 -0.02135 0.06675
v 0.04671 0.01602 0.05874
v 0.00134 0.02402 0.08009
v -0.01468 -0.02402 0.06942
v -0.04405 0.00800 0.06408
v 0.01467 0.00001 0.08544
v -0.03337 0.02670 -0.07476
v -0.06541 -0.01601 -0.06408
v -0.06541 -0.01601 -0.05874
v -0.03337 -0.02402 -0.07208
v -0.03337 0.02402 -0.06408
v -0.06007 0.02402 -0.07208
v -0.06274 0.02670 -0.05874
v -0.05206 -0.01868 -0.05874
v -0.04939 -0.02402 -0.07208
v -0.03605 -0.02402 -0.06408
v -0.06007 -0.00266 -0.07208
v -0.06541 0.02135 -0.06675
v -0.06007 -0.02402 -0.06141
v -0.03605 -0.00266 -0.07476
v -0.05206 0.02402 -0.05874
v -0.04406 0.02402 -0.07476
v -0.06007 -0.02135 -0.06942
v -0.05740 0.02670 -0.07208
v -0.06541 0.02402 -0.05874
v -0.03337 0.00266 -0.06408
v -0.03337 0.02670 -0.06675
v -0.06541 -0.00800 -0.06675
v -0.03337 -0.02402 -0.06675
v -0.06274 0.02670 -0.06675
v -0.05473 -0.02135 -0.05874
v -0.05473 -0.01868 -0.07208
v -0.05473 0.02670 -0.05874
v -0.04406 0.01602 -0.07476
v -0.06007 -0.02402 -0.06675
v -0.03337 -0.00266 -0.07476
v -0.06274 -0.02135 -0.05874
v -0.06274 -0.01334 -0.06942
v -0.06007 0.02135 -0.00535
v -0.06007 -0.02402 -0.05339
v -0.06274 -0.02135 -0.05874
v -0.05473 0.02402 -0.05874
v -0.05740 -0.02135 0.00801
v -0.06541 0.02670 -0.02936
v -0.06541 -0.01334 -0.01869
v -0.05473 -0.02135 -0.05874
v -0.06541 0.02402 -0.05874
v -0.05473 0.02135 -0.01869
v -0.06541 -0.02135 -0.04538
v -0.05473 -0.02402 -0.01869
v -0.06541 0.01868 -0.01335
v -0.06007 -0.02135 0.00801
v -0.05740 -0.00266 0.00801
v -0.05740 0.02670 -0.02670
v -0.06274 -0.02402 -0.02136
v -0.06007 -0.00266 0.00801
v -0.05740 0.02670 -0.05874
v -0.06541 -0.01601 -0.05874
v -0.05740 0.01868 -0.00267
v -0.06541 -0.01868 -0.02403
v -0.06541 0.02670 -0.05339
v -0.06274 0.01868 -0.00535
v -0.05473 -0.02135 -0.01602
v -0.05473 -0.02402 -0.05073
v -0.06274 -0.02402 -0.05073
v -0.06541 0.01067 -0.01335
v -0.05740 0.02135 -0.00535
v -0.05473 0.02402 -0.03203
v -0.06007 0.01868 -0.00267
v -0.06274 0.02135 -0.00801
v -0.06541 -0.02135 -0.03203
v -0.06007 -0.02402 -0.01602
v -0.01468 -0.02403 -0.07742
v 0.00135 0.02937 -0.07209
v 0.00934 0.02670 -0.06675
v 0.03871 -0.02135 -0.07742
v 0.00666 -0.02403 -0.06141
v -0.03337 0.02402 -0.06408
v -0.00133 0.02135 -0.08544
v 0.04138 0.01869 -0.06942
v -0.03337 -0.02669 -0.07209
v 0.02802 0.01601 -0.06141
v 0.03603 -0.02669 -0.06675
v -0.03337 0.02670 -0.07475
v -0.00400 -0.00533 -0.08544
v 0.03871 0.02135 -0.07742
v -0.03337 -0.02669 -0.06675
v 0.02535 -0.02937 -0.07742
v 0.01468 -0.00800 -0.08544
v -0.00667 0.02402 -0.06141
v 0.01201 0.02135 -0.08544
v -0.03337 -0.01601 -0.07475
v 0.00666 -0.02937 -0.06675
v -0.00133 -0.02937 -0.07742
v 0.03603 0.01334 -0.08009
v -0.01468 0.01334 -0.06141
v -0.00667 0.01601 -0.08544
v 0.01201 0.02670 -0.08009
v 0.04138 -0.02135 -0.06942
v 0.04138 0.01869 -0.07742
v -0.03337 0.00267 -0.06408
v 0.01468 -0.02403 -0.06141
v 0.01468 0.02402 -0.06141
v 0.03871 0.02135 -0.06942
v -0.03337 0.02670 -0.06675
v 0.03871 -0.02135 -0.06675
v 0.03336 -0.02937 -0.07475
v -0.00934 0.02670 -0.08009
v 0.00135 -0.02403 -0.08009
v 0.02535 -0.02403 -0.08009
v 0.04138 -0.02135 -0.07475
v -0.01201 -0.02937 -0.06942
v -0.00667 0.02937 -0.07475
v -0.02803 0.00800 -0.07742
v 0.02802 0.00800 -0.06141
v -0.00667 0.00267 -0.08544
v 0.02002 -0.02937 -0.06675
v 0.01468 0.01869 -0.08544
v -0.00133 -0.00800 -0.08544
v -0.03070 -0.02135 -0.07475
v 0.03871 -0.02669 -0.07475
v 0.04138 0.00267 -0.07742
v 0.02269 0.02135 -0.06141
v 0.01735 0.02402 -0.08276
v 0.03336 -0.02937 -0.06942
v 0.00401 -0.02135 -0.06141
v -0.02803 0.02135 -0.07742
v 0.03871 -0.00800 -0.06675
v 0.03336 -0.02669 -0.07742
v 0.01468 0.02670 -0.07742
v 0.03336 -0.00533 -0.08009
v 0.02802 -0.02135 -0.06408
v -0.01468 0.01869 -0.06141
v 0.03871 -0.02669 -0.06942
v 0.03069 -0.01869 -0.08009
v -0.02001 -0.02135 -0.07742
v -0.02269 0.02135 -0.02135
v 0.04138 0.00001 0.01334
v 0.04138 -0.01334 0.01334
v 0.02536 0.00534 -0.06141
v -0.02269 -0.02135 0.01067
v 0.00668 -0.02135 -0.06141
v 0.02002 0.02402 0.02135
v 0.01468 0.02402 -0.06141
v -0.00934 0.01067 -0.06141
v -0.02536 0.01602 0.01067
v 0.01468 -0.02135 0.02135
v 0.02269 -0.02402 -0.04805
v 0.03070 0.01868 -0.04004
v -0.01468 0.02670 -0.01336
v -0.01735 -0.02135 -0.01870
v -0.00400 0.00266 0.02135
v -0.00934 0.02135 -0.06141
v 0.03070 0.01868 0.02135
v -0.02536 0.01334 -0.01603
v 0.01735 -0.02402 0.01067
v -0.00667 -0.02402 -0.04004
v 0.01468 0.02670 -0.03470
v 0.02802 -0.02135 -0.04538
v 0.03870 -0.01868 0.01067
v -0.01200 0.02670 -0.03737
v 0.03337 0.01868 0.01334
v -0.02536 -0.01601 0.00533
v 0.04138 -0.01334 0.00800
v 0.01201 0.02402 0.02135
v -0.00400 -0.01601 0.02135
v -0.02002 0.01602 -0.03737
v -0.00400 -0.02402 0.01334
v -0.02002 0.02135 0.00800
v 0.02269 0.02135 -0.06141
v 0.02536 -0.01601 0.02135
v 0.01468 -0.01868 -0.06141
v -0.00934 -0.02135 -0.04004
v 0.03604 0.01602 0.00533
v 0.00934 0.02670 -0.01069
v 0.03337 -0.02135 -0.01603
v -0.01735 0.02402 -0.04004
v -0.01200 0.01868 0.01601
v 0.00134 -0.02135 0.02135
v -0.00133 0.02402 -0.06141
v -0.01200 -0.02402 -0.01870
v -0.02536 0.01868 0.00800
v 0.02536 0.01868 -0.06141
v 0.00668 0.02670 -0.04271
v 0.04138 -0.00266 0.00800
v -0.02536 0.01868 -0.01603
v 0.02802 0.02135 0.02135
v 0.03870 -0.00800 0.01601
v 0.00668 -0.02402 -0.05071
v 0.02536 0.02135 -0.05071
v -0.02536 0.00534 0.01067
v 0.00401 0.01868 0.02135
v 0.03604 0.01602 0.01334
v -0.02002 0.02402 -0.02402
v -0.02002 0.02135 -0.03737
v 0.03337 0.01868 0.00266
v -0.00400 0.02402 0.01067
v -0.00667 0.02670 -0.00802
v 0.00668 -0.02402 0.01601
v 0.03870 0.00801 0.00533
f 242 241 258 
f 203 200 206 
f 200 203 209 
f 207 201 211 
f 199 204 212 
f 211 201 213 
f 203 206 214 
f 199 209 215 
f 210 215 216 
f 203 195 216 
f 199 212 218 
f 206 201 219 
f 201 207 219 
f 213 201 220 
f 208 202 222 
f 213 208 222 
f 202 221 222 
f 200 209 223 
f 218 200 223 
f 204 199 224 
f 199 215 224 
f 197 196 225 
f 196 212 225 
f 212 204 225 
f 196 197 226 
f 202 208 226 
f 197 225 226 
f 206 200 227 
f 212 196 227 
f 200 212 227 
f 221 202 228 
f 205 221 228 
f 215 210 229 
f 201 206 230 
f 220 201 230 
f 210 216 231 
f 216 195 231 
f 231 211 232 
f 210 231 232 
f 222 221 233 
f 209 203 234 
f 215 209 234 
f 216 215 234 
f 203 216 234 
f 196 220 235 
f 227 196 235 
f 206 227 235 
f 230 206 235 
f 220 230 235 
f 214 206 236 
f 204 224 237 
f 228 204 237 
f 207 214 238 
f 219 207 238 
f 214 236 238 
f 236 219 238 
f 205 224 239 
f 224 215 239 
f 215 229 239 
f 211 213 240 
f 217 211 240 
f 213 222 240 
f 222 217 240 
f 207 211 241 
f 231 195 241 
f 211 231 241 
f 203 214 242 
f 214 207 242 
f 207 241 242 
f 198 233 243 
f 233 221 243 
f 198 217 244 
f 217 222 244 
f 233 198 244 
f 222 233 244 
f 204 202 245 
f 225 204 245 
f 202 226 245 
f 226 225 245 
f 208 213 246 
f 220 208 246 
f 213 220 246 
f 205 239 247 
f 239 229 247 
f 229 243 247 
f 209 199 248 
f 199 218 248 
f 223 209 248 
f 218 223 248 
f 206 219 249 
f 236 206 249 
f 219 236 249 
f 202 204 250 
f 228 202 250 
f 204 228 250 
f 229 210 251 
f 210 232 251 
f 243 229 251 
f 198 243 251 
f 220 196 252 
f 208 220 252 
f 196 226 252 
f 226 208 252 
f 217 198 253 
f 211 217 253 
f 224 205 254 
f 205 228 254 
f 237 224 254 
f 228 237 254 
f 212 200 255 
f 200 218 255 
f 218 212 255 
f 221 205 256 
f 243 221 256 
f 205 247 256 
f 247 243 256 
f 232 211 257 
f 198 251 257 
f 251 232 257 
f 253 198 257 
f 211 253 257 
f 195 203 258 
f 241 195 258 
f 203 242 258 
