# Original object name hint: convex_3
v -0.01467 -0.01601 0.05606
v 0.03603 0.02403 0.04272
v 0.03603 0.02403 0.03472
v 0.04405 -0.01601 0.03738
v -0.00400 -0.01334 0.02136
v -0.02269 0.01869 0.05606
v 0.04405 0.01869 0.05874
v 0.01201 0.02403 0.02136
v 0.01735 -0.02136 0.05874
v 0.03871 0.01335 0.02136
v 0.01735 -0.02136 0.02136
v -0.01735 0.01869 0.03204
v -0.01201 -0.01868 0.03204
v -0.02536 0.01068 0.05874
v 0.01735 0.02403 0.05874
v 0.04672 0.01869 0.03204
v 0.04405 -0.01067 0.02670
v -0.00933 -0.02136 0.05874
v 0.04405 0.00534 0.05874
v -0.00933 0.02136 0.02670
v 0.03603 -0.01868 0.02404
v -0.01467 0.02136 0.05874
v 0.03337 -0.01067 0.05874
v 0.00134 -0.02136 0.02136
v 0.04672 -0.00533 0.04272
v 0.03337 0.02136 0.02136
v 0.00134 0.01869 0.02136
v -0.02002 0.01335 0.03738
v 0.02803 -0.02136 0.02937
v 0.04672 0.01335 0.05073
v 0.04138 0.02136 0.05874
v 0.03069 -0.01601 0.02136
v 0.04672 0.00801 0.02937
v -0.02536 0.01068 0.05606
v 0.04405 -0.00266 0.05340
v -0.01735 0.01068 0.03204
v -0.00667 0.01869 0.02404
v -0.00667 -0.02136 0.02937
v 0.03069 0.02403 0.05874
v 0.04405 0.02136 0.03472
v 0.04672 -0.00533 0.03204
v 0.04405 0.01869 0.02670
v -0.02536 0.01602 0.05606
v 0.00935 0.02403 0.02404
v 0.03871 -0.01868 0.03204
v 0.02269 0.02403 0.02136
v 0.04672 0.01869 0.04538
v 0.04405 -0.01601 0.03204
v 0.02269 -0.01868 0.05874
v -0.01467 0.01869 0.02937
v 0.03871 -0.00800 0.05606
v -0.00400 0.00001 0.02136
v 0.04672 0.00267 0.05073
v 0.03871 -0.01334 0.02404
v -0.01467 -0.01601 0.05874
v 0.00935 0.02403 0.03472
v -0.02536 0.01602 0.05874
v 0.03069 -0.01334 0.05874
v 0.04405 -0.01067 0.04538
v 0.03871 0.01869 0.02136
v 0.03871 -0.01868 0.02670
v 0.04138 0.02136 0.02937
v 0.02536 -0.02136 0.02404
v 0.04405 0.02136 0.04272
v -0.01200 -0.02402 0.06408
v 0.01735 0.02937 0.07209
v 0.02000 0.02669 0.07743
v 0.06541 0.00267 0.06942
v 0.00402 -0.00533 0.08544
v -0.02536 0.01868 0.05874
v -0.04672 0.01068 0.07209
v 0.04405 0.02135 0.05874
v 0.02000 -0.02135 0.05874
v 0.04405 -0.02135 0.07209
v -0.04138 -0.02135 0.06942
v 0.06007 0.01335 0.07476
v 0.00134 0.01335 0.08544
v -0.02268 -0.01601 0.05874
v -0.00131 -0.02402 0.07476
v -0.03070 0.02135 0.07209
v 0.04405 -0.02135 0.06408
v -0.04405 0.00001 0.06408
v 0.01201 -0.00533 0.08544
v 0.06541 0.01602 0.07209
v 0.01201 0.02669 0.06141
v 0.04671 0.00800 0.05874
v -0.03871 -0.02135 0.07209
v 0.06007 0.00267 0.07476
v 0.01467 0.01068 0.08544
v 0.00134 0.02669 0.07743
v 0.02000 -0.02402 0.07476
v 0.04671 -0.01601 0.07476
v 0.01201 0.02937 0.06675
v -0.04672 0.01068 0.06675
v -0.04138 -0.02135 0.06675
v -0.04672 0.00267 0.07209
v 0.01735 -0.02402 0.06141
v -0.01200 -0.02135 0.05874
v 0.02000 -0.02135 0.07743
v -0.02802 0.02135 0.06408
v -0.00131 -0.02135 0.07743
v 0.01735 0.02402 0.08009
v 0.06541 0.01602 0.06942
v 0.00134 -0.00266 0.08544
v -0.00667 0.02135 0.08009
v 0.04939 -0.01868 0.07209
v 0.03603 -0.01067 0.05874
v 0.03337 0.02402 0.05874
v 0.04939 0.02135 0.06675
v -0.01734 0.02135 0.05874
v 0.06273 0.00533 0.06675
v -0.02802 0.01335 0.05874
v 0.04671 -0.01868 0.06408
v -0.03871 -0.01868 0.06408
v 0.06541 0.00267 0.07209
v 0.00934 0.02937 0.07209
v 0.02802 -0.02402 0.06675
v -0.04672 0.00001 0.06675
v 0.04939 0.02135 0.07209
v 0.01735 0.02937 0.06675
v 0.01201 0.01335 0.08544
v -0.03604 0.01868 0.06675
v 0.04671 -0.02135 0.06675
v 0.04671 0.01602 0.05874
v 0.00134 0.02402 0.08009
v -0.01468 -0.02402 0.06942
v -0.04405 0.00800 0.06408
v 0.01467 0.00001 0.08544
v -0.03337 0.02670 -0.07476
v -0.06541 -0.01601 -0.06408
v -0.06541 -0.01601 -0.05874
v -0.03337 -0.02402 -0.07208
v -0.03337 0.02402 -0.06408
v -0.06007 0.02402 -0.07208
v -0.06274 0.02670 -0.05874
v -0.05206 -0.01868 -0.05874
v -0.04939 -0.02402 -0.07208
v -0.03605 -0.02402 -0.06408
v -0.06007 -0.00266 -0.07208
v -0.06541 0.02135 -0.06675
v -0.06007 -0.02402 -0.06141
v -0.03605 -0.00266 -0.07476
v -0.05206 0.02402 -0.05874
v -0.04406 0.02402 -0.07476
v -0.06007 -0.02135 -0.06942
v -0.05740 0.02670 -0.07208
v -0.06541 0.02402 -0.05874
v -0.03337 0.00266 -0.06408
v -0.03337 0.02670 -0.06675
v -0.06541 -0.00800 -0.06675
v -0.03337 -0.02402 -0.06675
v -0.06274 0.02670 -0.06675
v -0.05473 -0.02135 -0.05874
v -0.05473 -0.01868 -0.07208
v -0.05473 0.02670 -0.05874
v -0.04406 0.01602 -0.07476
v -0.06007 -0.02402 -0.06675
v -0.03337 -0.00266 -0.07476
v -0.06274 -0.02135 -0.05874
v -0.06274 -0.01334 -0.06942
v -0.06007 0.02135 -0.00535
v -0.06007 -0.02402 -0.05339
v -0.06274 -0.02135 -0.05874
v -0.05473 0.02402 -0.05874
v -0.05740 -0.02135 0.00801
v -0.06541 0.02670 -0.02936
v -0.06541 -0.01334 -0.01869
v -0.05473 -0.02135 -0.05874
v -0.06541 0.02402 -0.05874
v -0.05473 0.02135 -0.01869
v -0.06541 -0.02135 -0.04538
v -0.05473 -0.02402 -0.01869
v -0.06541 0.01868 -0.01335
v -0.06007 -0.02135 0.00801
v -0.05740 -0.00266 0.00801
v -0.05740 0.02670 -0.02670
v -0.06274 -0.02402 -0.02136
v -0.06007 -0.00266 0.00801
v -0.05740 0.02670 -0.05874
v -0.06541 -0.01601 -0.05874
v -0.05740 0.01868 -0.00267
v -0.06541 -0.01868 -0.02403
v -0.06541 0.02670 -0.05339
v -0.06274 0.01868 -0.00535
v -0.05473 -0.02135 -0.01602
v -0.05473 -0.02402 -0.05073
v -0.06274 -0.02402 -0.05073
v -0.06541 0.01067 -0.01335
v -0.05740 0.02135 -0.00535
v -0.05473 0.02402 -0.03203
v -0.06007 0.01868 -0.00267
v -0.06274 0.02135 -0.00801
v -0.06541 -0.02135 -0.03203
v -0.06007 -0.02402 -0.01602
v -0.01468 -0.02403 -0.07742
v 0.00135 0.02937 -0.07209
v 0.00934 0.02670 -0.06675
v 0.03871 -0.02135 -0.07742
v 0.00666 -0.02403 -0.06141
v -0.03337 0.02402 -0.06408
v -0.00133 0.02135 -0.08544
v 0.04138 0.01869 -0.06942
v -0.03337 -0.02669 -0.07209
v 0.02802 0.01601 -0.06141
v 0.03603 -0.02669 -0.06675
v -0.03337 0.02670 -0.07475
v -0.00400 -0.00533 -0.08544
v 0.03871 0.02135 -0.07742
v -0.03337 -0.02669 -0.06675
v 0.02535 -0.02937 -0.07742
v 0.01468 -0.00800 -0.08544
v -0.00667 0.02402 -0.06141
v 0.01201 0.02135 -0.08544
v -0.03337 -0.01601 -0.07475
v 0.00666 -0.02937 -0.06675
v -0.00133 -0.02937 -0.07742
v 0.03603 0.01334 -0.08009
v -0.01468 0.01334 -0.06141
v -0.00667 0.01601 -0.08544
v 0.01201 0.02670 -0.08009
v 0.04138 -0.02135 -0.06942
v 0.04138 0.01869 -0.07742
v -0.03337 0.00267 -0.06408
v 0.01468 -0.02403 -0.06141
v 0.01468 0.02402 -0.06141
v 0.03871 0.02135 -0.06942
v -0.03337 0.02670 -0.06675
v 0.03871 -0.02135 -0.06675
v 0.03336 -0.02937 -0.07475
v -0.00934 0.02670 -0.08009
v 0.00135 -0.02403 -0.08009
v 0.02535 -0.02403 -0.08009
v 0.04138 -0.02135 -0.07475
v -0.01201 -0.02937 -0.06942
v -0.00667 0.02937 -0.07475
v -0.02803 0.00800 -0.07742
v 0.02802 0.00800 -0.06141
v -0.00667 0.00267 -0.08544
v 0.02002 -0.02937 -0.06675
v 0.01468 0.01869 -0.08544
v -0.00133 -0.00800 -0.08544
v -0.03070 -0.02135 -0.07475
v 0.03871 -0.02669 -0.07475
v 0.04138 0.00267 -0.07742
v 0.02269 0.02135 -0.06141
v 0.01735 0.02402 -0.08276
v 0.03336 -0.02937 -0.06942
v 0.00401 -0.02135 -0.06141
v -0.02803 0.02135 -0.07742
v 0.03871 -0.00800 -0.06675
v 0.03336 -0.02669 -0.07742
v 0.01468 0.02670 -0.07742
v 0.03336 -0.00533 -0.08009
v 0.02802 -0.02135 -0.06408
v -0.01468 0.01869 -0.06141
v 0.03871 -0.02669 -0.06942
v 0.03069 -0.01869 -0.08009
v -0.02001 -0.02135 -0.07742
v -0.02269 0.02135 -0.02135
v 0.04138 0.00001 0.01334
v 0.04138 -0.01334 0.01334
v 0.02536 0.00534 -0.06141
v -0.02269 -0.02135 0.01067
v 0.00668 -0.02135 -0.06141
v 0.02002 0.02402 0.02135
v 0.01468 0.02402 -0.06141
v -0.00934 0.01067 -0.06141
v -0.02536 0.01602 0.01067
v 0.01468 -0.02135 0.02135
v 0.02269 -0.02402 -0.04805
v 0.03070 0.01868 -0.04004
v -0.01468 0.02670 -0.01336
v -0.01735 -0.02135 -0.01870
v -0.00400 0.00266 0.02135
v -0.00934 0.02135 -0.06141
v 0.03070 0.01868 0.02135
v -0.02536 0.01334 -0.01603
v 0.01735 -0.02402 0.01067
v -0.00667 -0.02402 -0.04004
v 0.01468 0.02670 -0.03470
v 0.02802 -0.02135 -0.04538
v 0.03870 -0.01868 0.01067
v -0.01200 0.02670 -0.03737
v 0.03337 0.01868 0.01334
v -0.02536 -0.01601 0.00533
v 0.04138 -0.01334 0.00800
v 0.01201 0.02402 0.02135
v -0.00400 -0.01601 0.02135
v -0.02002 0.01602 -0.03737
v -0.00400 -0.02402 0.01334
v -0.02002 0.02135 0.00800
v 0.02269 0.02135 -0.06141
v 0.02536 -0.01601 0.02135
v 0.01468 -0.01868 -0.06141
v -0.00934 -0.02135 -0.04004
v 0.03604 0.01602 0.00533
v 0.00934 0.02670 -0.01069
v 0.03337 -0.02135 -0.01603
v -0.01735 0.02402 -0.04004
v -0.01200 0.01868 0.01601
v 0.00134 -0.02135 0.02135
v -0.00133 0.02402 -0.06141
v -0.01200 -0.02402 -0.01870
v -0.02536 0.01868 0.00800
v 0.02536 0.01868 -0.06141
v 0.00668 0.02670 -0.04271
v 0.04138 -0.00266 0.00800
v -0.02536 0.01868 -0.01603
v 0.02802 0.02135 0.02135
v 0.03870 -0.00800 0.01601
v 0.00668 -0.02402 -0.05071
v 0.02536 0.02135 -0.05071
v -0.02536 0.00534 0.01067
v 0.00401 0.01868 0.02135
v 0.03604 0.01602 0.01334
v -0.02002 0.02402 -0.02402
v -0.02002 0.02135 -0.03737
v 0.03337 0.01868 0.00266
v -0.00400 0.02402 0.01067
v -0.00667 0.02670 -0.00802
v 0.00668 -0.02402 0.01601
v 0.03870 0.00801 0.00533
f 174 177 194 
f 162 163 168 
f 163 164 168 
f 164 163 169 
f 167 166 169 
f 168 164 170 
f 167 169 171 
f 168 170 172 
f 166 167 173 
f 174 165 175 
f 166 161 176 
f 162 172 177 
f 173 174 178 
f 174 175 178 
f 164 169 179 
f 176 164 179 
f 166 176 179 
f 169 163 180 
f 163 171 180 
f 171 169 180 
f 175 170 181 
f 178 175 181 
f 167 171 182 
f 174 167 182 
f 169 166 183 
f 179 169 183 
f 166 179 183 
f 173 178 184 
f 165 172 185 
f 172 170 185 
f 170 175 185 
f 175 165 185 
f 162 168 186 
f 172 162 186 
f 168 172 186 
f 163 162 187 
f 171 163 187 
f 162 177 187 
f 177 171 187 
f 173 167 188 
f 167 174 188 
f 174 173 188 
f 176 161 189 
f 170 176 189 
f 181 170 189 
f 161 181 189 
f 170 164 190 
f 164 176 190 
f 176 170 190 
f 181 161 191 
f 178 181 191 
f 184 178 191 
f 184 191 192 
f 161 166 192 
f 166 173 192 
f 173 184 192 
f 191 161 192 
f 171 177 193 
f 177 174 193 
f 182 171 193 
f 174 182 193 
f 172 165 194 
f 165 174 194 
f 177 172 194 
