# Original object name hint: convex_5
v -0.01467 -0.01601 0.05606
v 0.03603 0.02403 0.04272
v 0.03603 0.02403 0.03472
v 0.04405 -0.01601 0.03738
v -0.00400 -0.01334 0.02136
v -0.02269 0.01869 0.05606
v 0.04405 0.01869 0.05874
v 0.01201 0.02403 0.02136
v 0.01735 -0.02136 0.05874
v 0.03871 0.01335 0.02136
v 0.01735 -0.02136 0.02136
v -0.01735 0.01869 0.03204
v -0.01201 -0.01868 0.03204
v -0.02536 0.01068 0.05874
v 0.01735 0.02403 0.05874
v 0.04672 0.01869 0.03204
v 0.04405 -0.01067 0.02670
v -0.00933 -0.02136 0.05874
v 0.04405 0.00534 0.05874
v -0.00933 0.02136 0.02670
v 0.03603 -0.01868 0.02404
v -0.01467 0.02136 0.05874
v 0.03337 -0.01067 0.05874
v 0.00134 -0.02136 0.02136
v 0.04672 -0.00533 0.04272
v 0.03337 0.02136 0.02136
v 0.00134 0.01869 0.02136
v -0.02002 0.01335 0.03738
v 0.02803 -0.02136 0.02937
v 0.04672 0.01335 0.05073
v 0.04138 0.02136 0.05874
v 0.03069 -0.01601 0.02136
v 0.04672 0.00801 0.02937
v -0.02536 0.01068 0.05606
v 0.04405 -0.00266 0.05340
v -0.01735 0.01068 0.03204
v -0.00667 0.01869 0.02404
v -0.00667 -0.02136 0.02937
v 0.03069 0.02403 0.05874
v 0.04405 0.02136 0.03472
v 0.04672 -0.00533 0.03204
v 0.04405 0.01869 0.02670
v -0.02536 0.01602 0.05606
v 0.00935 0.02403 0.02404
v 0.03871 -0.01868 0.03204
v 0.02269 0.02403 0.02136
v 0.04672 0.01869 0.04538
v 0.04405 -0.01601 0.03204
v 0.02269 -0.01868 0.05874
v -0.01467 0.01869 0.02937
v 0.03871 -0.00800 0.05606
v -0.00400 0.00001 0.02136
v 0.04672 0.00267 0.05073
v 0.03871 -0.01334 0.02404
v -0.01467 -0.01601 0.05874
v 0.00935 0.02403 0.03472
v -0.02536 0.01602 0.05874
v 0.03069 -0.01334 0.05874
v 0.04405 -0.01067 0.04538
v 0.03871 0.01869 0.02136
v 0.03871 -0.01868 0.02670
v 0.04138 0.02136 0.02937
v 0.02536 -0.02136 0.02404
v 0.04405 0.02136 0.04272
v -0.01200 -0.02402 0.06408
v 0.01735 0.02937 0.07209
v 0.02000 0.02669 0.07743
v 0.06541 0.00267 0.06942
v 0.00402 -0.00533 0.08544
v -0.02536 0.01868 0.05874
v -0.04672 0.01068 0.07209
v 0.04405 0.02135 0.05874
v 0.02000 -0.02135 0.05874
v 0.04405 -0.02135 0.07209
v -0.04138 -0.02135 0.06942
v 0.06007 0.01335 0.07476
v 0.00134 0.01335 0.08544
v -0.02268 -0.01601 0.05874
v -0.00131 -0.02402 0.07476
v -0.03070 0.02135 0.07209
v 0.04405 -0.02135 0.06408
v -0.04405 0.00001 0.06408
v 0.01201 -0.00533 0.08544
v 0.06541 0.01602 0.07209
v 0.01201 0.02669 0.06141
v 0.04671 0.00800 0.05874
v -0.03871 -0.02135 0.07209
v 0.06007 0.00267 0.07476
v 0.01467 0.01068 0.08544
v 0.00134 0.02669 0.07743
v 0.02000 -0.02402 0.07476
v 0.04671 -0.01601 0.07476
v 0.01201 0.02937 0.06675
v -0.04672 0.01068 0.06675
v -0.04138 -0.02135 0.06675
v -0.04672 0.00267 0.07209
v 0.01735 -0.02402 0.06141
v -0.01200 -0.02135 0.05874
v 0.02000 -0.02135 0.07743
v -0.02802 0.02135 0.06408
v -0.00131 -0.02135 0.07743
v 0.01735 0.02402 0.08009
v 0.06541 0.01602 0.06942
v 0.00134 -0.00266 0.08544
v -0.00667 0.02135 0.08009
v 0.04939 -0.01868 0.07209
v 0.03603 -0.01067 0.05874
v 0.03337 0.02402 0.05874
v 0.04939 0.02135 0.06675
v -0.01734 0.02135 0.05874
v 0.06273 0.00533 0.06675
v -0.02802 0.01335 0.05874
v 0.04671 -0.01868 0.06408
v -0.03871 -0.01868 0.06408
v 0.06541 0.00267 0.07209
v 0.00934 0.02937 0.07209
v 0.02802 -0.02402 0.06675
v -0.04672 0.00001 0.06675
v 0.04939 0.02135 0.07209
v 0.01735 0.02937 0.06675
v 0.01201 0.01335 0.08544
v -0.03604 0.01868 0.06675
v 0.04671 -0.02135 0.06675
v 0.04671 0.01602 0.05874
v 0.00134 0.02402 0.08009
v -0.01468 -0.02402 0.06942
v -0.04405 0.00800 0.06408
v 0.01467 0.00001 0.08544
v -0.03337 0.02670 -0.07476
v -0.06541 -0.01601 -0.06408
v -0.06541 -0.01601 -0.05874
v -0.03337 -0.02402 -0.07208
v -0.03337 0.02402 -0.06408
v -0.06007 0.02402 -0.07208
v -0.06274 0.02670 -0.05874
v -0.05206 -0.01868 -0.05874
v -0.04939 -0.02402 -0.07208
v -0.03605 -0.02402 -0.06408
v -0.06007 -0.00266 -0.07208
v -0.06541 0.02135 -0.06675
v -0.06007 -0.02402 -0.06141
v -0.03605 -0.00266 -0.07476
v -0.05206 0.02402 -0.05874
v -0.04406 0.02402 -0.07476
v -0.06007 -0.02135 -0.06942
v -0.05740 0.02670 -0.07208
v -0.06541 0.02402 -0.05874
v -0.03337 0.00266 -0.06408
v -0.03337 0.02670 -0.06675
v -0.06541 -0.00800 -0.06675
v -0.03337 -0.02402 -0.06675
v -0.06274 0.02670 -0.06675
v -0.05473 -0.02135 -0.05874
v -0.05473 -0.01868 -0.07208
v -0.05473 0.02670 -0.05874
v -0.04406 0.01602 -0.07476
v -0.06007 -0.02402 -0.06675
v -0.03337 -0.00266 -0.07476
v -0.06274 -0.02135 -0.05874
v -0.06274 -0.01334 -0.06942
v -0.06007 0.02135 -0.00535
v -0.06007 -0.02402 -0.05339
v -0.06274 -0.02135 -0.05874
v -0.05473 0.02402 -0.05874
v -0.05740 -0.02135 0.00801
v -0.06541 0.02670 -0.02936
v -0.06541 -0.01334 -0.01869
v -0.05473 -0.02135 -0.05874
v -0.06541 0.02402 -0.05874
v -0.05473 0.02135 -0.01869
v -0.06541 -0.02135 -0.04538
v -0.05473 -0.02402 -0.01869
v -0.06541 0.01868 -0.01335
v -0.06007 -0.02135 0.00801
v -0.05740 -0.00266 0.00801
v -0.05740 0.02670 -0.02670
v -0.06274 -0.02402 -0.02136
v -0.06007 -0.00266 0.00801
v -0.05740 0.02670 -0.05874
v -0.06541 -0.01601 -0.05874
v -0.05740 0.01868 -0.00267
v -0.06541 -0.01868 -0.02403
v -0.06541 0.02670 -0.05339
v -0.06274 0.01868 -0.00535
v -0.05473 -0.02135 -0.01602
v -0.05473 -0.02402 -0.05073
v -0.06274 -0.02402 -0.05073
v -0.06541 0.01067 -0.01335
v -0.05740 0.02135 -0.00535
v -0.05473 0.02402 -0.03203
v -0.06007 0.01868 -0.00267
v -0.06274 0.02135 -0.00801
v -0.06541 -0.02135 -0.03203
v -0.06007 -0.02402 -0.01602
v -0.01468 -0.02403 -0.07742
v 0.00135 0.02937 -0.07209
v 0.00934 0.02670 -0.06675
v 0.03871 -0.02135 -0.07742
v 0.00666 -0.02403 -0.06141
v -0.03337 0.02402 -0.06408
v -0.00133 0.02135 -0.08544
v 0.04138 0.01869 -0.06942
v -0.03337 -0.02669 -0.07209
v 0.02802 0.01601 -0.06141
v 0.03603 -0.02669 -0.06675
v -0.03337 0.02670 -0.07475
v -0.00400 -0.00533 -0.08544
v 0.03871 0.02135 -0.07742
v -0.03337 -0.02669 -0.06675
v 0.02535 -0.02937 -0.07742
v 0.01468 -0.00800 -0.08544
v -0.00667 0.02402 -0.06141
v 0.01201 0.02135 -0.08544
v -0.03337 -0.01601 -0.07475
v 0.00666 -0.02937 -0.06675
v -0.00133 -0.02937 -0.07742
v 0.03603 0.01334 -0.08009
v -0.01468 0.01334 -0.06141
v -0.00667 0.01601 -0.08544
v 0.01201 0.02670 -0.08009
v 0.04138 -0.02135 -0.06942
v 0.04138 0.01869 -0.07742
v -0.03337 0.00267 -0.06408
v 0.01468 -0.02403 -0.06141
v 0.01468 0.02402 -0.06141
v 0.03871 0.02135 -0.06942
v -0.03337 0.02670 -0.06675
v 0.03871 -0.02135 -0.06675
v 0.03336 -0.02937 -0.07475
v -0.00934 0.02670 -0.08009
v 0.00135 -0.02403 -0.08009
v 0.02535 -0.02403 -0.08009
v 0.04138 -0.02135 -0.07475
v -0.01201 -0.02937 -0.06942
v -0.00667 0.02937 -0.07475
v -0.02803 0.00800 -0.07742
v 0.02802 0.00800 -0.06141
v -0.00667 0.00267 -0.08544
v 0.02002 -0.02937 -0.06675
v 0.01468 0.01869 -0.08544
v -0.00133 -0.00800 -0.08544
v -0.03070 -0.02135 -0.07475
v 0.03871 -0.02669 -0.07475
v 0.04138 0.00267 -0.07742
v 0.02269 0.02135 -0.06141
v 0.01735 0.02402 -0.08276
v 0.03336 -0.02937 -0.06942
v 0.00401 -0.02135 -0.06141
v -0.02803 0.02135 -0.07742
v 0.03871 -0.00800 -0.06675
v 0.03336 -0.02669 -0.07742
v 0.01468 0.02670 -0.07742
v 0.03336 -0.00533 -0.08009
v 0.02802 -0.02135 -0.06408
v -0.01468 0.01869 -0.06141
v 0.03871 -0.02669 -0.06942
v 0.03069 -0.01869 -0.08009
v -0.02001 -0.02135 -0.07742
v -0.02269 0.02135 -0.02135
v 0.04138 0.00001 0.01334
v 0.04138 -0.01334 0.01334
v 0.02536 0.00534 -0.06141
v -0.02269 -0.02135 0.01067
v 0.00668 -0.02135 -0.06141
v 0.02002 0.02402 0.02135
v 0.01468 0.02402 -0.06141
v -0.00934 0.01067 -0.06141
v -0.02536 0.01602 0.01067
v 0.01468 -0.02135 0.02135
v 0.02269 -0.02402 -0.04805
v 0.03070 0.01868 -0.04004
v -0.01468 0.02670 -0.01336
v -0.01735 -0.02135 -0.01870
v -0.00400 0.00266 0.02135
v -0.00934 0.02135 -0.06141
v 0.03070 0.01868 0.02135
v -0.02536 0.01334 -0.01603
v 0.01735 -0.02402 0.01067
v -0.00667 -0.02402 -0.04004
v 0.01468 0.02670 -0.03470
v 0.02802 -0.02135 -0.04538
v 0.03870 -0.01868 0.01067
v -0.01200 0.02670 -0.03737
v 0.03337 0.01868 0.01334
v -0.02536 -0.01601 0.00533
v 0.04138 -0.01334 0.00800
v 0.01201 0.02402 0.02135
v -0.00400 -0.01601 0.02135
v -0.02002 0.01602 -0.03737
v -0.00400 -0.02402 0.01334
v -0.02002 0.02135 0.00800
v 0.02269 0.02135 -0.06141
v 0.02536 -0.01601 0.02135
v 0.01468 -0.01868 -0.06141
v -0.00934 -0.02135 -0.04004
v 0.03604 0.01602 0.00533
v 0.00934 0.02670 -0.01069
v 0.03337 -0.02135 -0.01603
v -0.01735 0.02402 -0.04004
v -0.01200 0.01868 0.01601
v 0.00134 -0.02135 0.02135
v -0.00133 0.02402 -0.06141
v -0.01200 -0.02402 -0.01870
v -0.02536 0.01868 0.00800
v 0.02536 0.01868 -0.06141
v 0.00668 0.02670 -0.04271
v 0.04138 -0.00266 0.00800
v -0.02536 0.01868 -0.01603
v 0.02802 0.02135 0.02135
v 0.03870 -0.00800 0.01601
v 0.00668 -0.02402 -0.05071
v 0.02536 0.02135 -0.05071
v -0.02536 0.00534 0.01067
v 0.00401 0.01868 0.02135
v 0.03604 0.01602 0.01334
v -0.02002 0.02402 -0.02402
v -0.02002 0.02135 -0.03737
v 0.03337 0.01868 0.00266
v -0.00400 0.02402 0.01067
v -0.00667 0.02670 -0.00802
v 0.00668 -0.02402 0.01601
v 0.03870 0.00801 0.00533
f 307 271 322 
f 262 264 266 
f 266 264 267 
f 269 265 274 
f 266 267 275 
f 265 269 276 
f 270 278 279 
f 269 278 282 
f 272 280 283 
f 273 263 285 
f 268 277 285 
f 260 261 286 
f 262 271 286 
f 281 262 286 
f 261 282 286 
f 274 265 287 
f 274 268 288 
f 269 274 288 
f 275 267 289 
f 273 285 289 
f 285 277 289 
f 279 278 290 
f 262 266 292 
f 266 280 292 
f 276 269 293 
f 282 261 293 
f 269 282 293 
f 264 262 294 
f 270 264 294 
f 281 270 294 
f 262 281 294 
f 267 264 295 
f 264 279 295 
f 279 273 295 
f 289 267 295 
f 273 289 295 
f 280 272 297 
f 265 280 297 
f 278 270 298 
f 270 281 298 
f 282 278 298 
f 281 286 298 
f 286 282 298 
f 283 275 299 
f 268 274 300 
f 287 291 300 
f 288 263 301 
f 269 288 301 
f 263 290 301 
f 266 275 302 
f 275 283 302 
f 263 273 303 
f 273 279 303 
f 290 263 303 
f 279 290 303 
f 277 268 304 
f 291 272 304 
f 268 300 304 
f 300 291 304 
f 271 262 305 
f 262 292 305 
f 280 266 306 
f 283 280 306 
f 266 302 306 
f 302 283 306 
f 260 286 307 
f 286 271 307 
f 289 277 308 
f 304 259 308 
f 277 304 308 
f 265 276 309 
f 280 265 309 
f 276 284 309 
f 261 260 310 
f 260 276 310 
f 293 261 310 
f 276 293 310 
f 264 270 311 
f 270 279 311 
f 279 264 311 
f 292 280 312 
f 271 305 312 
f 305 292 312 
f 285 263 313 
f 268 285 313 
f 263 288 313 
f 288 268 313 
f 274 287 314 
f 300 274 314 
f 287 300 314 
f 276 260 315 
f 284 276 315 
f 260 296 315 
f 296 284 315 
f 272 283 316 
f 299 259 316 
f 283 299 316 
f 259 304 316 
f 304 272 316 
f 275 289 317 
f 259 299 317 
f 299 275 317 
f 289 308 317 
f 308 259 317 
f 296 271 318 
f 284 296 318 
f 280 309 318 
f 309 284 318 
f 271 312 318 
f 312 280 318 
f 287 272 319 
f 272 291 319 
f 291 287 319 
f 287 265 320 
f 272 287 320 
f 297 272 320 
f 265 297 320 
f 278 269 321 
f 290 278 321 
f 269 301 321 
f 301 290 321 
f 296 260 322 
f 271 296 322 
f 260 307 322 
