# Original object name hint: convex_0
v -0.01467 -0.01601 0.05606
v 0.03603 0.02403 0.04272
v 0.03603 0.02403 0.03472
v 0.04405 -0.01601 0.03738
v -0.00400 -0.01334 0.02136
v -0.02269 0.01869 0.05606
v 0.04405 0.01869 0.05874
v 0.01201 0.02403 0.02136
v 0.01735 -0.02136 0.05874
v 0.03871 0.01335 0.02136
v 0.01735 -0.02136 0.02136
v -0.01735 0.01869 0.03204
v -0.01201 -0.01868 0.03204
v -0.02536 0.01068 0.05874
v 0.01735 0.02403 0.05874
v 0.04672 0.01869 0.03204
v 0.04405 -0.01067 0.02670
v -0.00933 -0.02136 0.05874
v 0.04405 0.00534 0.05874
v -0.00933 0.02136 0.02670
v 0.03603 -0.01868 0.02404
v -0.01467 0.02136 0.05874
v 0.03337 -0.01067 0.05874
v 0.00134 -0.02136 0.02136
v 0.04672 -0.00533 0.04272
v 0.03337 0.02136 0.02136
v 0.00134 0.01869 0.02136
v -0.02002 0.01335 0.03738
v 0.02803 -0.02136 0.02937
v 0.04672 0.01335 0.05073
v 0.04138 0.02136 0.05874
v 0.03069 -0.01601 0.02136
v 0.04672 0.00801 0.02937
v -0.02536 0.01068 0.05606
v 0.04405 -0.00266 0.05340
v -0.01735 0.01068 0.03204
v -0.00667 0.01869 0.02404
v -0.00667 -0.02136 0.02937
v 0.03069 0.02403 0.05874
v 0.04405 0.02136 0.03472
v 0.04672 -0.00533 0.03204
v 0.04405 0.01869 0.02670
v -0.02536 0.01602 0.05606
v 0.00935 0.02403 0.02404
v 0.03871 -0.01868 0.03204
v 0.02269 0.02403 0.02136
v 0.04672 0.01869 0.04538
v 0.04405 -0.01601 0.03204
v 0.02269 -0.01868 0.05874
v -0.01467 0.01869 0.02937
v 0.03871 -0.00800 0.05606
v -0.00400 0.00001 0.02136
v 0.04672 0.00267 0.05073
v 0.03871 -0.01334 0.02404
v -0.01467 -0.01601 0.05874
v 0.00935 0.02403 0.03472
v -0.02536 0.01602 0.05874
v 0.03069 -0.01334 0.05874
v 0.04405 -0.01067 0.04538
v 0.03871 0.01869 0.02136
v 0.03871 -0.01868 0.02670
v 0.04138 0.02136 0.02937
v 0.02536 -0.02136 0.02404
v 0.04405 0.02136 0.04272
v -0.01200 -0.02402 0.06408
v 0.01735 0.02937 0.07209
v 0.02000 0.02669 0.07743
v 0.06541 0.00267 0.06942
v 0.00402 -0.00533 0.08544
v -0.02536 0.01868 0.05874
v -0.04672 0.01068 0.07209
v 0.04405 0.02135 0.05874
v 0.02000 -0.02135 0.05874
v 0.04405 -0.02135 0.07209
v -0.04138 -0.02135 0.06942
v 0.06007 0.01335 0.07476
v 0.00134 0.01335 0.08544
v -0.02268 -0.01601 0.05874
v -0.00131 -0.02402 0.07476
v -0.03070 0.02135 0.07209
v 0.04405 -0.02135 0.06408
v -0.04405 0.00001 0.06408
v 0.01201 -0.00533 0.08544
v 0.06541 0.01602 0.07209
v 0.01201 0.02669 0.06141
v 0.04671 0.00800 0.05874
v -0.03871 -0.02135 0.07209
v 0.06007 0.00267 0.07476
v 0.01467 0.01068 0.08544
v 0.00134 0.02669 0.07743
v 0.02000 -0.02402 0.07476
v 0.04671 -0.01601 0.07476
v 0.01201 0.02937 0.06675
v -0.04672 0.01068 0.06675
v -0.04138 -0.02135 0.06675
v -0.04672 0.00267 0.07209
v 0.01735 -0.02402 0.06141
v -0.01200 -0.02135 0.05874
v 0.02000 -0.02135 0.07743
v -0.02802 0.02135 0.06408
v -0.00131 -0.02135 0.07743
v 0.01735 0.02402 0.08009
v 0.06541 0.01602 0.06942
v 0.00134 -0.00266 0.08544
v -0.00667 0.02135 0.08009
v 0.04939 -0.01868 0.07209
v 0.03603 -0.01067 0.05874
v 0.03337 0.02402 0.05874
v 0.04939 0.02135 0.06675
v -0.01734 0.02135 0.05874
v 0.06273 0.00533 0.06675
v -0.02802 0.01335 0.05874
v 0.04671 -0.01868 0.06408
v -0.03871 -0.01868 0.06408
v 0.06541 0.00267 0.07209
v 0.00934 0.02937 0.07209
v 0.02802 -0.02402 0.06675
v -0.04672 0.00001 0.06675
v 0.04939 0.02135 0.07209
v 0.01735 0.02937 0.06675
v 0.01201 0.01335 0.08544
v -0.03604 0.01868 0.06675
v 0.04671 -0.02135 0.06675
v 0.04671 0.01602 0.05874
v 0.00134 0.02402 0.08009
v -0.01468 -0.02402 0.06942
v -0.04405 0.00800 0.06408
v 0.01467 0.00001 0.08544
v -0.03337 0.02670 -0.07476
v -0.06541 -0.01601 -0.06408
v -0.06541 -0.01601 -0.05874
v -0.03337 -0.02402 -0.07208
v -0.03337 0.02402 -0.06408
v -0.06007 0.02402 -0.07208
v -0.06274 0.02670 -0.05874
v -0.05206 -0.01868 -0.05874
v -0.04939 -0.02402 -0.07208
v -0.03605 -0.02402 -0.06408
v -0.06007 -0.00266 -0.07208
v -0.06541 0.02135 -0.06675
v -0.06007 -0.02402 -0.06141
v -0.03605 -0.00266 -0.07476
v -0.05206 0.02402 -0.05874
v -0.04406 0.02402 -0.07476
v -0.06007 -0.02135 -0.06942
v -0.05740 0.02670 -0.07208
v -0.06541 0.02402 -0.05874
v -0.03337 0.00266 -0.06408
v -0.03337 0.02670 -0.06675
v -0.06541 -0.00800 -0.06675
v -0.03337 -0.02402 -0.06675
v -0.06274 0.02670 -0.06675
v -0.05473 -0.02135 -0.05874
v -0.05473 -0.01868 -0.07208
v -0.05473 0.02670 -0.05874
v -0.04406 0.01602 -0.07476
v -0.06007 -0.02402 -0.06675
v -0.03337 -0.00266 -0.07476
v -0.06274 -0.02135 -0.05874
v -0.06274 -0.01334 -0.06942
v -0.06007 0.02135 -0.00535
v -0.06007 -0.02402 -0.05339
v -0.06274 -0.02135 -0.05874
v -0.05473 0.02402 -0.05874
v -0.05740 -0.02135 0.00801
v -0.06541 0.02670 -0.02936
v -0.06541 -0.01334 -0.01869
v -0.05473 -0.02135 -0.05874
v -0.06541 0.02402 -0.05874
v -0.05473 0.02135 -0.01869
v -0.06541 -0.02135 -0.04538
v -0.05473 -0.02402 -0.01869
v -0.06541 0.01868 -0.01335
v -0.06007 -0.02135 0.00801
v -0.05740 -0.00266 0.00801
v -0.05740 0.02670 -0.02670
v -0.06274 -0.02402 -0.02136
v -0.06007 -0.00266 0.00801
v -0.05740 0.02670 -0.05874
v -0.06541 -0.01601 -0.05874
v -0.05740 0.01868 -0.00267
v -0.06541 -0.01868 -0.02403
v -0.06541 0.02670 -0.05339
v -0.06274 0.01868 -0.00535
v -0.05473 -0.02135 -0.01602
v -0.05473 -0.02402 -0.05073
v -0.06274 -0.02402 -0.05073
v -0.06541 0.01067 -0.01335
v -0.05740 0.02135 -0.00535
v -0.05473 0.02402 -0.03203
v -0.06007 0.01868 -0.00267
v -0.06274 0.02135 -0.00801
v -0.06541 -0.02135 -0.03203
v -0.06007 -0.02402 -0.01602
v -0.01468 -0.02403 -0.07742
v 0.00135 0.02937 -0.07209
v 0.00934 0.02670 -0.06675
v 0.03871 -0.02135 -0.07742
v 0.00666 -0.02403 -0.06141
v -0.03337 0.02402 -0.06408
v -0.00133 0.02135 -0.08544
v 0.04138 0.01869 -0.06942
v -0.03337 -0.02669 -0.07209
v 0.02802 0.01601 -0.06141
v 0.03603 -0.02669 -0.06675
v -0.03337 0.02670 -0.07475
v -0.00400 -0.00533 -0.08544
v 0.03871 0.02135 -0.07742
v -0.03337 -0.02669 -0.06675
v 0.02535 -0.02937 -0.07742
v 0.01468 -0.00800 -0.08544
v -0.00667 0.02402 -0.06141
v 0.01201 0.02135 -0.08544
v -0.03337 -0.01601 -0.07475
v 0.00666 -0.02937 -0.06675
v -0.00133 -0.02937 -0.07742
v 0.03603 0.01334 -0.08009
v -0.01468 0.01334 -0.06141
v -0.00667 0.01601 -0.08544
v 0.01201 0.02670 -0.08009
v 0.04138 -0.02135 -0.06942
v 0.04138 0.01869 -0.07742
v -0.03337 0.00267 -0.06408
v 0.01468 -0.02403 -0.06141
v 0.01468 0.02402 -0.06141
v 0.03871 0.02135 -0.06942
v -0.03337 0.02670 -0.06675
v 0.03871 -0.02135 -0.06675
v 0.03336 -0.02937 -0.07475
v -0.00934 0.02670 -0.08009
v 0.00135 -0.02403 -0.08009
v 0.02535 -0.02403 -0.08009
v 0.04138 -0.02135 -0.07475
v -0.01201 -0.02937 -0.06942
v -0.00667 0.02937 -0.07475
v -0.02803 0.00800 -0.07742
v 0.02802 0.00800 -0.06141
v -0.00667 0.00267 -0.08544
v 0.02002 -0.02937 -0.06675
v 0.01468 0.01869 -0.08544
v -0.00133 -0.00800 -0.08544
v -0.03070 -0.02135 -0.07475
v 0.03871 -0.02669 -0.07475
v 0.04138 0.00267 -0.07742
v 0.02269 0.02135 -0.06141
v 0.01735 0.02402 -0.08276
v 0.03336 -0.02937 -0.06942
v 0.00401 -0.02135 -0.06141
v -0.02803 0.02135 -0.07742
v 0.03871 -0.00800 -0.06675
v 0.03336 -0.02669 -0.07742
v 0.01468 0.02670 -0.07742
v 0.03336 -0.00533 -0.08009
v 0.02802 -0.02135 -0.06408
v -0.01468 0.01869 -0.06141
v 0.03871 -0.02669 -0.06942
v 0.03069 -0.01869 -0.08009
v -0.02001 -0.02135 -0.07742
v -0.02269 0.02135 -0.02135
v 0.04138 0.00001 0.01334
v 0.04138 -0.01334 0.01334
v 0.02536 0.00534 -0.06141
v -0.02269 -0.02135 0.01067
v 0.00668 -0.02135 -0.06141
v 0.02002 0.02402 0.02135
v 0.01468 0.02402 -0.06141
v -0.00934 0.01067 -0.06141
v -0.02536 0.01602 0.01067
v 0.01468 -0.02135 0.02135
v 0.02269 -0.02402 -0.04805
v 0.03070 0.01868 -0.04004
v -0.01468 0.02670 -0.01336
v -0.01735 -0.02135 -0.01870
v -0.00400 0.00266 0.02135
v -0.00934 0.02135 -0.06141
v 0.03070 0.01868 0.02135
v -0.02536 0.01334 -0.01603
v 0.01735 -0.02402 0.01067
v -0.00667 -0.02402 -0.04004
v 0.01468 0.02670 -0.03470
v 0.02802 -0.02135 -0.04538
v 0.03870 -0.01868 0.01067
v -0.01200 0.02670 -0.03737
v 0.03337 0.01868 0.01334
v -0.02536 -0.01601 0.00533
v 0.04138 -0.01334 0.00800
v 0.01201 0.02402 0.02135
v -0.00400 -0.01601 0.02135
v -0.02002 0.01602 -0.03737
v -0.00400 -0.02402 0.01334
v -0.02002 0.02135 0.00800
v 0.02269 0.02135 -0.06141
v 0.02536 -0.01601 0.02135
v 0.01468 -0.01868 -0.06141
v -0.00934 -0.02135 -0.04004
v 0.03604 0.01602 0.00533
v 0.00934 0.02670 -0.01069
v 0.03337 -0.02135 -0.01603
v -0.01735 0.02402 -0.04004
v -0.01200 0.01868 0.01601
v 0.00134 -0.02135 0.02135
v -0.00133 0.02402 -0.06141
v -0.01200 -0.02402 -0.01870
v -0.02536 0.01868 0.00800
v 0.02536 0.01868 -0.06141
v 0.00668 0.02670 -0.04271
v 0.04138 -0.00266 0.00800
v -0.02536 0.01868 -0.01603
v 0.02802 0.02135 0.02135
v 0.03870 -0.00800 0.01601
v 0.00668 -0.02402 -0.05071
v 0.02536 0.02135 -0.05071
v -0.02536 0.00534 0.01067
v 0.00401 0.01868 0.02135
v 0.03604 0.01602 0.01334
v -0.02002 0.02402 -0.02402
v -0.02002 0.02135 -0.03737
v 0.03337 0.01868 0.00266
v -0.00400 0.02402 0.01067
v -0.00667 0.02670 -0.00802
v 0.00668 -0.02402 0.01601
v 0.03870 0.00801 0.00533
f 47 40 64 
f 2 3 8 
f 5 8 10 
f 5 10 11 
f 9 7 14 
f 2 8 15 
f 14 7 15 
f 11 9 18 
f 9 14 18 
f 7 9 19 
f 12 6 20 
f 14 15 22 
f 20 6 22 
f 19 9 23 
f 5 11 24 
f 13 5 24 
f 11 18 24 
f 10 8 26 
f 8 5 27 
f 20 8 27 
f 9 11 29 
f 7 19 30 
f 25 16 30 
f 15 7 31 
f 11 10 32 
f 21 11 32 
f 17 10 33 
f 16 25 33 
f 13 1 34 
f 1 14 34 
f 28 13 34 
f 5 13 36 
f 28 12 36 
f 13 28 36 
f 20 27 37 
f 18 13 38 
f 13 24 38 
f 24 18 38 
f 2 15 39 
f 31 2 39 
f 15 31 39 
f 3 2 40 
f 25 4 41 
f 17 33 41 
f 33 25 41 
f 16 33 42 
f 6 12 43 
f 12 28 43 
f 34 14 43 
f 28 34 43 
f 15 8 44 
f 8 20 44 
f 20 22 44 
f 4 9 45 
f 9 29 45 
f 8 3 46 
f 26 8 46 
f 7 30 47 
f 30 16 47 
f 31 7 47 
f 16 40 47 
f 41 4 48 
f 17 41 48 
f 4 45 48 
f 9 4 49 
f 23 9 49 
f 12 20 50 
f 5 36 50 
f 36 12 50 
f 20 37 50 
f 19 23 51 
f 35 19 51 
f 27 5 52 
f 37 27 52 
f 5 50 52 
f 50 37 52 
f 30 19 53 
f 25 30 53 
f 19 35 53 
f 10 17 54 
f 17 21 54 
f 32 10 54 
f 21 32 54 
f 1 13 55 
f 14 1 55 
f 13 18 55 
f 18 14 55 
f 22 15 56 
f 15 44 56 
f 44 22 56 
f 22 6 57 
f 14 22 57 
f 6 43 57 
f 43 14 57 
f 49 4 58 
f 23 49 58 
f 51 23 58 
f 51 58 59 
f 4 25 59 
f 35 51 59 
f 25 53 59 
f 53 35 59 
f 58 4 59 
f 10 26 60 
f 33 10 60 
f 26 42 60 
f 42 33 60 
f 21 17 61 
f 45 29 61 
f 17 48 61 
f 48 45 61 
f 3 40 62 
f 40 16 62 
f 42 26 62 
f 16 42 62 
f 46 3 62 
f 26 46 62 
f 11 21 63 
f 29 11 63 
f 21 61 63 
f 61 29 63 
f 2 31 64 
f 40 2 64 
f 31 47 64 
