# Original object name hint: convex_30
v -0.04429 -0.06835 -0.05696
v 0.02910 -0.03544 -0.06202
v 0.03163 -0.06329 -0.04683
v 0.01391 -0.06835 -0.06708
v -0.05189 -0.03544 -0.05949
v -0.01645 -0.03544 -0.07215
v -0.02657 -0.07595 -0.04683
v -0.04683 -0.05822 -0.04683
v 0.03418 -0.07341 -0.04937
v -0.04176 -0.06329 -0.06455
v 0.02657 -0.03798 -0.06961
v 0.02404 -0.03544 -0.05949
v -0.01138 -0.07341 -0.06202
v -0.00886 -0.06329 -0.06961
v -0.05189 -0.03798 -0.06455
v -0.04935 -0.06582 -0.04683
v 0.02657 -0.06582 -0.06455
v 0.00632 -0.04810 -0.07215
v 0.02910 -0.07595 -0.04683
v -0.04935 -0.06329 -0.05949
v 0.01644 -0.03544 -0.07215
v 0.02150 -0.06075 -0.04683
v 0.01898 -0.07595 -0.05190
v -0.03923 -0.06835 -0.06202
v -0.01645 -0.06835 -0.06708
v 0.02910 -0.04050 -0.06708
v 0.00885 -0.07341 -0.06202
v 0.02404 -0.06075 -0.06708
v -0.02657 -0.07595 -0.04937
v -0.04429 -0.07088 -0.04937
v 0.03418 -0.06582 -0.04683
v -0.01645 -0.03798 -0.07215
v 0.02910 -0.07595 -0.04937
v 0.00632 -0.06329 -0.06961
v -0.04429 -0.06075 -0.06455
v -0.05189 -0.03544 -0.06455
v 0.02910 -0.03544 -0.06708
v -0.03670 -0.05822 -0.04683
v -0.00634 -0.04810 -0.07215
v -0.02911 0.02025 -0.07468
v -0.06962 -0.00506 -0.04937
v -0.06709 -0.00506 -0.05949
v -0.02658 -0.03544 -0.06202
v -0.02658 0.05316 -0.05949
v -0.04936 0.04302 -0.06455
v -0.05190 -0.03544 -0.06455
v -0.06455 0.02278 -0.04684
v -0.05949 -0.01266 -0.04684
v -0.05949 0.02025 -0.06708
v -0.02658 -0.01771 -0.07468
v -0.05443 -0.00253 -0.06961
v -0.02658 0.04810 -0.06961
v -0.06455 -0.01771 -0.04684
v -0.06962 0.01518 -0.04937
v -0.06455 -0.01517 -0.06202
v -0.05443 -0.03544 -0.05949
v -0.03925 0.05063 -0.05949
v -0.02658 -0.03291 -0.06961
v -0.05190 0.02278 -0.06961
v -0.03418 -0.00759 -0.07468
v -0.06709 0.02278 -0.04684
v -0.06455 0.01771 -0.06202
v -0.02658 0.03796 -0.05949
v -0.02911 0.05316 -0.06708
v -0.06202 0.02025 -0.04684
v -0.06709 -0.01517 -0.04684
v -0.03925 -0.01771 -0.07215
v -0.05949 -0.00759 -0.06708
v -0.02911 0.04810 -0.06961
v -0.04430 0.01771 -0.07215
v -0.03925 -0.03544 -0.05949
v -0.04684 0.04049 -0.06708
v -0.05443 -0.03291 -0.06455
v -0.02658 0.02025 -0.07468
v -0.03165 -0.02530 -0.07215
v -0.05443 0.03543 -0.06455
v -0.06709 0.02278 -0.04937
v -0.06962 -0.00506 -0.04684
v -0.03925 -0.03544 -0.06708
v -0.04936 0.04302 -0.05949
v -0.06709 0.01264 -0.05949
v -0.05949 -0.00253 -0.04684
v -0.06202 -0.01771 -0.04684
v -0.05190 -0.01013 -0.06961
v -0.03925 0.05063 -0.06455
v 0.07215 -0.01772 -0.01139
v 0.04936 -0.07847 0.00885
v 0.05190 -0.07847 0.00885
v 0.05949 -0.01772 0.03417
v 0.05190 -0.01772 -0.03670
v 0.07215 -0.04051 0.03163
v 0.06455 -0.04810 -0.03163
v 0.04936 -0.07087 0.03163
v 0.04936 -0.03545 0.02657
v 0.06961 -0.05569 -0.00126
v 0.04936 -0.07341 -0.01391
v 0.07468 -0.01772 0.02910
v 0.06455 -0.06834 0.01392
v 0.06708 -0.01772 -0.03416
v 0.04936 -0.05062 -0.02910
v 0.06202 -0.07087 -0.00379
v 0.07215 -0.04051 -0.00885
v 0.05443 -0.01772 0.03163
v 0.06961 -0.04051 0.03671
v 0.05190 -0.07594 0.03163
v 0.07468 -0.03545 0.01392
v 0.05443 -0.04051 -0.03670
v 0.05949 -0.02026 -0.03922
v 0.06708 -0.03291 -0.03416
v 0.05190 -0.07594 -0.01139
v 0.07215 -0.04558 0.02657
v 0.05949 -0.04810 -0.03416
v 0.06961 -0.05062 -0.01391
v 0.04936 -0.03798 -0.02151
v 0.07215 -0.01772 0.03417
v 0.07468 -0.01772 0.00632
v 0.06455 -0.03291 0.03671
v 0.05696 -0.07594 0.01898
v 0.06455 -0.03545 -0.03670
v 0.05190 -0.02786 0.03163
v 0.05190 -0.01772 -0.02151
v 0.05696 -0.07594 -0.00126
v 0.07215 -0.04810 0.00379
v 0.07468 -0.03545 0.02404
v 0.05443 -0.04810 -0.03416
v 0.06455 -0.06834 -0.00126
v 0.06961 -0.04304 -0.02151
v 0.07215 -0.04810 0.01898
v 0.06202 -0.06834 -0.00885
v 0.04936 -0.07594 0.03163
v 0.05190 -0.03291 -0.03670
v 0.06961 -0.05062 0.02657
v 0.06708 -0.04558 -0.02910
v 0.05190 -0.02532 0.02910
v 0.07468 0.03543 0.01644
v 0.05696 -0.01772 -0.03922
v 0.06202 -0.01772 -0.03922
v 0.07215 0.00001 0.06201
v 0.04936 0.07088 0.01140
v 0.05696 -0.01772 0.03163
v 0.05949 0.04809 -0.03163
v 0.04936 -0.01518 -0.03669
v 0.07468 -0.01772 0.00634
v 0.06961 0.01014 -0.02910
v 0.04936 0.04556 -0.03416
v 0.06961 0.05062 0.02910
v 0.06455 0.06075 -0.00631
v 0.06961 0.00507 0.06456
v 0.04936 0.06834 0.01644
v 0.07468 0.01014 0.05695
v 0.04936 0.06834 -0.01391
v 0.07468 -0.01772 0.02910
v 0.07215 0.03796 0.04429
v 0.07468 0.01773 -0.00378
v 0.06708 -0.01518 -0.03669
v 0.06961 0.03796 -0.01391
v 0.06202 0.01014 -0.03922
v 0.04936 -0.01518 -0.02910
v 0.04936 0.06075 0.01644
v 0.05696 0.06834 0.00887
v 0.06708 0.01773 -0.03416
v 0.05696 0.06834 -0.00884
v 0.06961 -0.01772 -0.02657
v 0.07468 0.03796 0.03163
v 0.05443 0.01014 -0.03922
v 0.06961 0.05062 0.00127
v 0.07215 -0.01772 0.03416
v 0.07215 0.00255 -0.01897
v 0.05190 -0.01772 -0.02150
v 0.06708 0.04556 -0.01644
v 0.06961 0.03796 0.04429
v 0.07468 0.00001 0.05695
v 0.06455 0.06075 0.01140
v 0.07215 0.04049 0.00127
v 0.05190 0.06834 0.01644
v 0.06708 0.01014 -0.03669
v 0.05949 -0.01772 0.03416
v 0.07215 0.00507 0.06456
v 0.06961 0.00255 0.06456
v 0.07468 0.00255 -0.00378
v 0.06455 0.03796 -0.02910
v 0.05443 0.05062 -0.03163
v 0.07215 0.02280 -0.01391
v 0.07468 0.03543 0.03923
v 0.04936 0.01773 -0.03669
v 0.05190 0.06834 -0.01391
v 0.05190 0.07088 -0.00126
v 0.07215 0.04556 0.03163
v 0.06961 0.04809 0.03416
v 0.06708 0.05316 -0.00884
v 0.03164 0.02785 -0.06962
v -0.02657 -0.03544 -0.06962
v -0.02404 -0.03038 -0.07215
v -0.02657 0.05316 -0.05949
v 0.02151 -0.03544 -0.05949
v -0.02657 0.02278 -0.07468
v 0.02151 -0.02024 -0.07468
v 0.04936 0.00254 -0.06203
v -0.02657 -0.03544 -0.06203
v -0.00126 0.03289 -0.07468
v 0.02910 -0.03544 -0.06962
v -0.00885 0.05316 -0.05949
v 0.04936 0.00254 -0.06962
v -0.00885 -0.01771 -0.07721
v -0.00885 0.05063 -0.06962
v 0.02657 0.01771 -0.07468
v 0.00633 -0.03544 -0.07468
v -0.00632 -0.03544 -0.05949
v 0.00127 0.01518 -0.07721
v -0.02404 0.05063 -0.06962
v 0.04936 -0.00759 -0.06456
v 0.02657 0.03289 -0.06456
v -0.01898 -0.00759 -0.07721
v 0.00633 -0.01266 -0.07721
v -0.02657 -0.02024 -0.07468
v 0.03164 -0.03291 -0.06203
v 0.02910 -0.00759 -0.07468
v 0.01140 0.01771 -0.05949
v -0.00885 0.05316 -0.06709
v 0.02657 0.02785 -0.07215
v -0.00632 -0.03544 -0.07468
v 0.04936 0.00761 -0.06456
v 0.02910 0.02785 -0.06203
v 0.04682 -0.00759 -0.06962
v -0.01138 0.01518 -0.07721
v -0.02657 0.05316 -0.06709
v -0.01898 0.04302 -0.07215
v 0.03164 -0.03544 -0.06709
v 0.04682 0.01011 -0.06962
v 0.04936 -0.00506 -0.06203
v -0.02657 0.04049 -0.05949
v 0.02910 0.01264 -0.07468
v 0.02910 -0.02530 -0.07215
v 0.02910 0.03038 -0.06962
v -0.00379 0.04302 -0.07215
v 0.00633 0.00761 -0.07721
v 0.00886 0.00253 -0.04684
v -0.00886 0.00759 -0.04937
v -0.00886 0.00759 -0.04684
v 0.00126 0.02278 -0.05696
v -0.00380 -0.00253 -0.05949
v -0.00127 -0.01012 -0.04684
v 0.00633 0.00000 -0.05949
v 0.00633 0.01772 -0.04684
v -0.00633 0.02025 -0.05949
v -0.00633 0.02025 -0.04684
v 0.00633 0.01772 -0.05949
v 0.00380 -0.01012 -0.04937
v -0.00633 0.00000 -0.05949
v 0.00886 0.01265 -0.04937
v -0.00633 -0.00253 -0.04684
v -0.00886 0.01772 -0.04937
v 0.00633 -0.00759 -0.04684
v -0.01139 0.05063 -0.05696
v -0.01646 0.04810 -0.05949
v -0.01646 0.05063 -0.05949
v -0.01139 0.04810 -0.05949
v -0.01646 0.04810 -0.05696
v 0.04683 -0.07594 -0.02404
v -0.04936 -0.06835 -0.04683
v -0.04936 -0.05570 -0.04683
v -0.06708 -0.04810 0.01645
v 0.04683 -0.04557 -0.03671
v 0.04936 -0.07848 0.01645
v -0.04683 -0.07848 0.01645
v 0.04936 -0.04557 0.00633
v 0.00379 -0.07848 -0.04430
v -0.06708 -0.04557 -0.03671
v 0.03670 -0.07341 -0.04683
v 0.01898 -0.04557 -0.04683
v -0.06201 -0.06582 -0.01898
v -0.06201 -0.04557 0.01645
v -0.03923 -0.07594 -0.03671
v 0.04936 -0.06582 0.01645
v -0.06962 -0.05063 0.00885
v 0.04936 -0.07848 -0.00634
v -0.01391 -0.07848 -0.04430
v -0.06201 -0.04557 -0.04177
v -0.05696 -0.07088 0.01392
v -0.05442 -0.07341 -0.01393
v -0.01391 -0.04557 0.01392
v 0.03164 -0.07848 -0.03671
v 0.04936 -0.04810 -0.02910
v -0.06708 -0.05570 -0.02404
v -0.02911 -0.07594 -0.04683
v 0.04430 -0.07341 -0.03671
v 0.03417 -0.04557 -0.04430
v -0.06962 -0.04557 0.01392
v 0.04936 -0.04810 0.00885
v 0.03417 -0.07594 -0.04683
v -0.03164 -0.07848 -0.02910
v -0.05696 -0.06582 -0.03671
v -0.00634 -0.04557 -0.04683
v -0.04683 -0.07341 -0.03924
v 0.04936 -0.07088 -0.02151
v -0.06962 -0.04810 -0.01898
v -0.04936 -0.07594 -0.01140
v -0.06455 -0.05063 -0.03924
v 0.03670 -0.06582 -0.04683
v -0.05189 -0.07594 0.01645
v -0.05696 -0.07088 -0.02151
v 0.04683 -0.05317 -0.03671
v -0.06201 -0.06582 -0.00634
v 0.03923 -0.07848 -0.02910
v -0.06708 -0.05063 -0.03417
v 0.04176 -0.07341 -0.04177
v -0.03417 -0.07594 -0.04430
v 0.04176 -0.07594 -0.03671
v -0.04683 -0.07088 -0.04683
v 0.02405 -0.07594 0.04936
v -0.05190 -0.07341 0.01646
v -0.05190 -0.07341 0.01899
v 0.04936 -0.06835 0.01646
v 0.04936 -0.07848 0.01646
v -0.05190 -0.06582 0.01899
v -0.04177 -0.07848 0.03923
v 0.00632 -0.07341 0.05443
v 0.04683 -0.06835 0.03418
v -0.01645 -0.08101 0.02152
v 0.01392 -0.07848 0.05443
v 0.04936 -0.07848 0.03165
v -0.04683 -0.07089 0.03670
v -0.04683 -0.07848 0.01646
v -0.00379 -0.08101 0.03923
v -0.04429 -0.06582 0.01646
v 0.02909 -0.06835 0.03670
v -0.04936 -0.07594 0.03418
v 0.00378 -0.07848 0.05443
v -0.01898 -0.08101 0.03670
v 0.04683 -0.07594 0.03670
v 0.00126 -0.08101 0.02659
v 0.01138 -0.07341 0.05443
v 0.04936 -0.07089 0.03418
v -0.04683 -0.07848 0.03418
v 0.04683 -0.07089 0.03670
v -0.04177 -0.07341 0.03923
v 0.04430 -0.07848 0.03670
v 0.04176 -0.06835 0.03670
v -0.02152 -0.08101 0.02659
v -0.02657 -0.03291 0.06962
v 0.03418 -0.01013 0.07468
v 0.03418 -0.01519 0.07468
v 0.00631 -0.01013 0.06456
v -0.03670 -0.01013 0.07468
v 0.00125 -0.05316 0.06962
v -0.00885 -0.02532 0.07721
v 0.03418 -0.02532 0.06709
v -0.02404 -0.02785 0.06456
v -0.03924 -0.01013 0.06709
v -0.00885 -0.05063 0.07215
v -0.00885 -0.05316 0.06709
v 0.02404 -0.03038 0.07468
v 0.02404 -0.01013 0.07721
v -0.00632 -0.03797 0.06456
v 0.03418 -0.01013 0.06709
v 0.03164 -0.03038 0.07215
v -0.02151 -0.01013 0.07721
v 0.00125 -0.05316 0.06709
v -0.03417 -0.01773 0.07468
v -0.02911 -0.01013 0.06456
v 0.00631 -0.04050 0.07468
v -0.03417 -0.02279 0.06709
v 0.00886 -0.02532 0.07721
v 0.03164 -0.03038 0.06709
v 0.00631 -0.04810 0.07215
v -0.03417 -0.02279 0.07215
v -0.00885 -0.04050 0.07468
v 0.00378 -0.02532 0.06456
v -0.03924 -0.01266 0.07215
v 0.01898 -0.00506 0.05443
v 0.00631 0.04303 0.07468
v 0.00631 0.04303 0.06961
v -0.03924 -0.01012 0.07214
v 0.03670 -0.00759 0.07468
v -0.01646 0.00507 0.05443
v 0.02657 0.01519 0.05443
v -0.02911 0.01519 0.07468
v -0.02152 -0.01012 0.07721
v -0.01392 -0.01012 0.05443
v 0.03417 0.01772 0.07214
v 0.02911 0.01266 0.07721
v -0.03417 0.01013 0.06708
v 0.03670 -0.01012 0.06961
v -0.00126 0.04303 0.06961
v -0.01392 0.02531 0.07721
v -0.03924 -0.01012 0.06708
v 0.01392 0.01772 0.05443
v 0.02657 -0.01012 0.07721
v 0.03924 0.00507 0.06961
v 0.02911 0.00507 0.05443
v 0.03163 0.02024 0.06708
v -0.03670 0.00000 0.07468
v -0.00126 0.04303 0.07468
v 0.00885 0.03037 0.07721
v 0.03924 0.00507 0.07468
v -0.03924 0.00000 0.06708
v -0.02657 0.02024 0.06961
v -0.02152 0.02278 0.06708
v -0.02404 0.01013 0.07721
v 0.03417 -0.01012 0.06708
v 0.03924 -0.00506 0.06961
v -0.03924 0.00000 0.07214
v 0.03163 0.01772 0.07468
v -0.01646 -0.00759 0.05443
v -0.03670 -0.01012 0.07468
v -0.00885 -0.01012 0.05443
v 0.02657 0.00000 0.05443
v 0.02911 0.01013 0.05443
v 0.02152 0.01772 0.05443
v 0.00127 0.05316 0.07468
v -0.00127 0.04304 0.06962
v -0.00127 0.04304 0.07468
v 0.00633 0.04304 0.06962
v 0.00633 0.04304 0.07468
v 0.00633 0.05316 0.06962
v -0.00127 0.05063 0.06962
v 0.01898 0.07595 0.06455
v -0.00633 0.07342 0.05443
v -0.00886 0.07088 0.06455
v 0.03164 0.07088 0.05443
v -0.00633 0.07848 0.05443
v 0.02152 0.07848 0.05443
v 0.03164 0.07088 0.06202
v -0.00126 0.07848 0.06202
v -0.00886 0.07342 0.06708
v -0.00380 0.07088 0.05443
v 0.03164 0.07595 0.05949
v -0.00126 0.07088 0.06708
v 0.01139 0.07848 0.06202
v -0.00633 0.05063 -0.04177
v 0.03416 0.07595 -0.00380
v 0.04936 0.07088 -0.00380
v -0.03924 0.03544 -0.00886
v 0.04936 0.03544 -0.03417
v -0.03924 0.07341 -0.00380
v 0.02657 0.07088 -0.03417
v -0.03924 0.07088 -0.02911
v 0.04936 0.05063 -0.00380
v -0.03924 0.03544 -0.03417
v 0.04936 0.03544 -0.01646
v -0.01138 0.07595 -0.02911
v -0.00885 0.03544 -0.00633
v -0.00885 0.06835 -0.03924
v 0.04936 0.04810 -0.03417
v -0.01391 0.04051 -0.04177
v 0.04936 0.06835 -0.01646
v -0.03924 0.06076 -0.00380
v -0.02658 0.07595 -0.00380
v -0.03924 0.06835 -0.03164
v 0.02151 0.07595 -0.02405
v 0.00631 0.03544 -0.03924
v -0.01391 0.05063 -0.04177
v 0.00381 0.03544 -0.00633
v 0.03923 0.06835 -0.02911
v 0.03669 0.04810 -0.03670
v 0.03164 0.07341 -0.02658
v -0.01645 0.07341 -0.03417
v -0.00633 0.04051 -0.04177
v -0.03924 0.05063 -0.03417
v 0.00631 0.07341 -0.03417
v -0.00633 0.05317 -0.00380
v 0.03164 0.06835 -0.03417
v -0.01897 0.03544 -0.03924
v -0.03163 0.07341 -0.02405
v -0.00633 0.06835 -0.03924
v 0.04936 0.05317 -0.03164
v 0.03164 0.07595 -0.01393
v 0.03669 0.04051 -0.03670
v 0.00631 0.07595 -0.02911
v 0.04936 0.03798 -0.01393
v -0.02405 -0.03291 -0.00633
v -0.06455 -0.04050 -0.04176
v -0.06708 -0.04303 -0.03924
v -0.07215 -0.03291 0.00127
v -0.02405 -0.04557 -0.00633
v -0.06961 -0.04557 0.00127
v -0.02405 -0.04557 -0.03417
v -0.05695 -0.03291 -0.04176
v -0.03418 -0.03291 -0.03417
v -0.06202 -0.04557 -0.04176
v -0.06961 -0.03291 -0.03417
v -0.04178 -0.04303 -0.04176
v -0.05695 -0.04303 0.00127
v -0.06961 -0.04557 -0.02658
v -0.02405 -0.04050 -0.03417
v -0.07215 -0.04050 -0.00886
v -0.05949 -0.03291 0.00127
v -0.02405 -0.03291 -0.01646
v -0.06455 -0.03291 -0.04176
v -0.07215 -0.03291 -0.01646
v -0.04178 -0.04557 -0.04176
v -0.06455 -0.02784 -0.04430
v -0.06203 0.03544 0.00126
v -0.05190 0.01518 -0.01393
v -0.05949 -0.03290 0.00126
v -0.07468 -0.00252 0.00126
v -0.06961 0.03290 -0.03923
v -0.05190 -0.03290 -0.03670
v -0.05190 0.03544 -0.03417
v -0.07215 -0.03290 -0.02152
v -0.07215 0.03544 0.00126
v -0.05949 0.01265 -0.04683
v -0.07215 0.01265 -0.03923
v -0.05190 -0.03290 -0.00887
v -0.07215 -0.03290 0.00126
v -0.06961 -0.01012 -0.04683
v -0.07215 0.03544 -0.02658
v -0.06708 0.02531 -0.04683
v -0.05949 -0.01771 -0.04683
v -0.06708 -0.03290 -0.03923
v -0.05190 0.03544 -0.02658
v -0.07215 -0.00759 -0.03670
v -0.07468 0.00758 -0.00127
v -0.06708 0.03544 -0.03923
v -0.06203 0.02531 -0.04683
v -0.06961 0.02024 -0.04683
v -0.05696 -0.03290 -0.04176
v -0.05696 0.03544 -0.00887
v -0.06961 -0.03290 -0.03417
v -0.07215 0.02783 -0.03417
v -0.05190 -0.02784 -0.00887
v -0.06708 -0.02025 -0.04683
v -0.06203 0.03290 -0.04176
v -0.07468 -0.00252 -0.00127
v -0.07468 -0.02278 0.00633
v -0.06962 0.01519 0.04177
v -0.07215 0.01519 0.04177
v -0.07215 0.03544 0.00127
v -0.05696 -0.04557 0.00380
v -0.05696 0.03544 0.01393
v -0.06708 -0.03291 0.03923
v -0.06456 0.03544 0.03923
v -0.06962 -0.04557 0.00127
v -0.07468 -0.02532 0.03923
v -0.05696 -0.04557 0.01393
v -0.06203 0.03544 0.00127
v -0.07468 0.01519 0.03923
v -0.07215 0.03544 0.03923
v -0.07468 0.01519 0.00127
v -0.06962 -0.04557 0.01646
v -0.05696 0.03544 0.00633
v -0.06708 -0.02278 0.04177
v -0.07215 -0.04050 0.00127
v -0.05949 -0.04557 0.00127
v -0.07215 -0.03544 0.03670
v -0.07215 -0.04303 0.01393
v -0.07468 0.02025 0.00380
v -0.07215 -0.02532 0.04177
v -0.05949 -0.04557 0.01646
v -0.05949 -0.02785 0.00127
v -0.07468 -0.02785 0.02658
v -0.07468 -0.01011 0.00127
v -0.02405 0.01772 0.01645
v -0.05696 -0.04557 0.00633
v -0.02405 -0.04557 0.00633
v -0.05696 0.03544 0.00886
v -0.05696 -0.04557 0.01392
v -0.02405 0.02784 0.00886
v -0.02405 -0.04557 0.01392
v -0.05696 0.03544 0.01392
v -0.03165 -0.02025 0.01645
v -0.02658 0.03544 0.01392
v -0.05443 -0.02532 0.00633
v -0.02912 0.03544 0.00886
v -0.02405 -0.02785 0.01645
v -0.03418 -0.00001 0.01645
v 0.03417 0.01518 0.03924
v -0.02152 -0.01771 0.03671
v -0.02152 -0.01771 0.04177
v 0.03164 -0.03291 0.02911
v 0.00886 0.02531 0.02658
v 0.02405 0.01771 0.05443
v -0.01645 -0.00759 0.05443
v -0.01139 0.02277 0.03924
v 0.02910 -0.00001 0.05443
v -0.00886 -0.00506 0.02658
v -0.01392 -0.03037 0.03924
v 0.03164 -0.03037 0.03671
v 0.03417 0.00506 0.02911
v -0.01645 0.00506 0.05443
v -0.00379 -0.02024 0.02658
v -0.01898 0.01012 0.03671
v 0.01392 0.02785 0.03924
v 0.03671 -0.00506 0.04177
v -0.00886 -0.01012 0.05443
v 0.02151 0.02025 0.02658
v -0.01392 -0.03037 0.03418
v 0.01138 0.01771 0.05443
v 0.02658 -0.00759 0.02658
v 0.02405 -0.00506 0.05443
v 0.03417 0.01012 0.04936
v -0.00126 0.01771 0.02658
v 0.02151 0.02531 0.02911
v 0.03417 -0.03037 0.02911
v -0.02152 -0.00001 0.04430
v 0.03417 -0.00506 0.04936
v 0.03417 0.01518 0.03165
v 0.03671 0.00252 0.03418
v 0.00380 -0.03037 0.03924
v -0.01645 0.01265 0.03418
v 0.00633 0.02785 0.03165
v -0.00886 0.02277 0.03418
v 0.01645 -0.02278 0.02658
v 0.02151 0.02531 0.03671
v -0.02152 -0.00001 0.03671
v 0.03417 -0.03037 0.03418
v 0.02151 -0.03291 0.03418
v 0.00886 0.02785 0.03924
v -0.00886 0.00252 0.02658
v -0.01898 0.01012 0.04177
v 0.02658 -0.03291 0.02911
v 0.02910 0.01771 0.04683
v -0.01898 -0.00506 0.05189
v 0.02910 0.01265 0.05443
v 0.01645 0.02785 0.03165
v -0.01898 -0.01518 0.03418
v 0.02910 0.02025 0.03671
v -0.04177 0.06582 -0.03164
v -0.03924 0.07595 0.02404
v -0.04683 0.07595 0.02404
v -0.04431 0.05569 0.01898
v -0.06456 0.05569 0.00632
v -0.05696 0.06835 -0.02658
v -0.03924 0.05823 -0.01898
v -0.05696 0.06835 0.02404
v -0.03924 0.07088 -0.02658
v -0.05696 0.06329 -0.02910
v -0.03924 0.05569 0.01645
v -0.06456 0.05823 0.01645
v -0.04177 0.07595 0.00632
v -0.04177 0.06329 0.02404
v -0.05696 0.06329 0.02404
v -0.03924 0.06076 -0.02910
v -0.06456 0.05569 0.01645
v -0.05190 0.07341 0.00885
v -0.03924 0.05569 0.00632
v -0.03924 0.06835 -0.03164
v -0.04177 0.05823 -0.01898
v -0.05949 0.06582 0.01645
v -0.06456 0.05823 0.00632
v -0.05696 0.06835 0.03924
v -0.07215 0.03544 0.03671
v -0.07215 0.03544 0.03924
v -0.05696 0.05063 0.03671
v -0.06708 0.05569 0.03164
v -0.06962 0.05063 0.04177
v -0.06455 0.03798 0.04177
v -0.06708 0.03544 0.03164
v -0.05696 0.06582 0.03164
v -0.05696 0.05316 0.04177
v -0.05949 0.06835 0.03418
v -0.05949 0.06582 0.04177
v -0.06962 0.05316 0.03924
v -0.06455 0.03544 0.03924
v -0.06962 0.04810 0.03164
v -0.05696 0.05822 0.03164
v -0.06455 0.03544 0.03418
v -0.04684 0.04810 0.03418
v -0.03924 0.07594 0.04683
v -0.03924 0.07848 0.04177
v -0.05696 0.07088 0.04177
v -0.04936 0.07594 0.02405
v -0.03924 0.06582 0.02405
v -0.05696 0.06582 0.02405
v -0.05696 0.05570 0.04177
v -0.03924 0.05570 0.04177
v -0.03924 0.07848 0.02658
v -0.04430 0.04557 0.03924
v -0.04684 0.06835 0.04683
v -0.05696 0.05317 0.03418
v -0.04430 0.07848 0.04177
v -0.05443 0.07341 0.02405
v -0.03924 0.06835 0.04683
v -0.05443 0.07088 0.04430
v -0.03924 0.05570 0.03418
v -0.04430 0.04557 0.03670
v -0.04430 0.07594 0.04683
v -0.05443 0.07341 0.04177
v -0.04684 0.04557 0.03924
v -0.03670 0.03544 0.00886
v -0.03670 0.05063 0.01392
v -0.03670 0.05063 0.00886
v 0.00380 0.04557 0.00886
v -0.02405 0.03544 0.01392
v 0.00380 0.03544 0.00633
v -0.01140 0.04051 0.01392
v 0.00126 0.04557 0.00633
v -0.03923 0.04051 0.01392
v 0.00380 0.03544 0.00886
v -0.01140 0.04557 0.01392
v -0.03923 0.05063 0.00886
v -0.03670 0.03544 0.01392
v 0.03923 0.07088 0.04430
v -0.03924 0.06076 -0.00380
v -0.03924 0.05316 0.00634
v 0.04936 0.05316 -0.00380
v 0.03416 0.07594 -0.00380
v -0.03924 0.07847 0.04430
v -0.03924 0.05570 0.03923
v -0.02911 0.07594 -0.00380
v 0.02657 0.07847 0.05443
v 0.03416 0.05570 0.03417
v 0.01139 0.08101 0.03164
v -0.00379 0.07088 0.05443
v 0.04936 0.07088 -0.00380
v 0.03164 0.07088 0.05443
v 0.04936 0.05316 0.00886
v -0.03924 0.07847 0.02405
v 0.03416 0.07847 0.04430
v 0.04936 0.06835 0.02153
v 0.00631 0.05570 0.03923
v -0.03924 0.06835 0.04682
v -0.00885 0.07847 0.05443
v -0.00379 0.08101 0.04682
v 0.00128 0.05316 -0.00380
v -0.03924 0.07341 -0.00380
v 0.04429 0.06329 0.03417
v 0.00128 0.07847 0.00634
v 0.03416 0.07847 0.01899
v 0.03164 0.05316 0.01393
v -0.03163 0.07847 0.01393
v 0.01645 0.08101 0.04430
v -0.00379 0.08101 0.03164
v 0.03923 0.07594 0.04177
v 0.02657 0.07847 0.00886
v -0.03924 0.05316 0.01140
v -0.03924 0.07594 0.04682
v 0.03416 0.07594 0.05189
v 0.04936 0.07088 0.01646
v -0.03924 0.05823 0.04177
v -0.03924 0.07594 0.00380
v 0.04936 0.06329 0.02153
v 0.04176 0.06076 0.03417
v 0.04683 -0.04303 -0.02405
v -0.00126 -0.04557 -0.04683
v -0.00885 -0.04557 -0.04430
v -0.00379 -0.03291 -0.04430
v -0.01898 -0.04303 -0.02912
v -0.00632 -0.03291 -0.02659
v 0.04176 -0.04557 -0.03924
v -0.00379 -0.04557 -0.02659
v 0.01140 -0.03291 -0.03924
v -0.02405 -0.04050 -0.03418
v 0.02911 -0.04303 -0.04430
v 0.04176 -0.04050 -0.03671
v 0.04936 -0.04557 -0.02405
v 0.00634 -0.03291 -0.02659
v -0.01645 -0.03291 -0.03165
v -0.02405 -0.04557 -0.03165
v 0.00381 -0.03291 -0.04430
v 0.01391 -0.04557 -0.04683
v -0.01392 -0.03291 -0.03924
v 0.04936 -0.04303 -0.02405
v 0.01140 -0.03291 -0.03165
v -0.01898 -0.04303 -0.03924
v 0.01391 -0.04303 -0.04683
v -0.02405 -0.04050 -0.03165
v 0.04430 0.02784 -0.03670
v 0.02405 -0.00253 -0.03670
v 0.02405 -0.00253 -0.03164
v 0.04936 -0.01266 -0.03164
v 0.04430 0.03544 -0.01646
v 0.02405 0.03544 -0.03670
v 0.04936 0.03544 -0.03164
v 0.04683 0.00507 -0.03924
v 0.04936 0.02784 -0.01646
v 0.02405 0.03544 -0.02911
v 0.02658 -0.01012 -0.03164
v 0.02405 0.00001 -0.03924
v 0.04936 -0.01012 -0.03670
v 0.03924 0.02025 -0.03924
v 0.04683 -0.01012 -0.02911
v 0.02658 -0.01012 -0.03670
v 0.04430 0.03038 -0.01646
v 0.02405 0.02025 -0.03924
v 0.04936 0.03291 -0.03417
v 0.04936 0.03544 -0.01646
v 0.03924 0.03291 -0.01899
v 0.03165 0.03544 -0.03670
v 0.04683 0.02784 -0.01646
v 0.04683 0.01265 -0.03924
v 0.01392 0.00506 0.00380
v -0.02405 -0.04557 0.00633
v -0.02405 -0.04557 0.01392
v -0.02405 0.02532 0.00886
v 0.01898 -0.01264 0.02658
v 0.00632 0.02278 0.02658
v 0.01645 -0.03544 0.00886
v 0.02152 0.01519 0.01139
v -0.00632 -0.01518 0.02658
v 0.00379 0.03544 0.00633
v -0.01645 -0.00506 0.00127
v -0.02405 0.00506 0.01898
v 0.00886 -0.01264 0.00127
v 0.01898 0.02025 0.02658
v 0.02405 -0.00758 0.00886
v 0.01392 -0.02025 0.02658
v -0.02405 0.02532 0.01392
v -0.00380 0.01265 0.00127
v 0.01645 -0.03544 0.01392
v 0.02405 -0.00758 0.02151
v -0.01392 -0.04557 0.01392
v 0.00126 -0.04050 0.00633
v -0.01392 0.01012 0.00127
v -0.00632 0.00252 0.02658
v 0.00126 0.03544 0.00886
v -0.02405 -0.01264 0.01898
v -0.00126 -0.01772 0.00127
v 0.00632 0.01012 0.00127
v 0.02405 0.00759 0.01898
v 0.02152 0.01265 0.00886
v 0.02405 -0.01264 0.01898
v -0.01139 -0.04557 0.00886
v -0.02405 0.01772 0.01645
v 0.01645 0.02278 0.02658
v -0.00380 -0.01772 0.02658
v 0.02405 0.00252 0.00886
v 0.01645 -0.03291 0.01645
v 0.00126 0.03544 0.00633
v -0.01645 0.00506 0.00127
v -0.01645 -0.04557 0.00633
v 0.02405 -0.01264 0.01139
v -0.00886 -0.01518 0.00127
v -0.03924 0.05569 0.01392
v -0.07215 0.03544 -0.00127
v -0.07215 0.03544 0.01645
v -0.04177 0.03544 0.00886
v -0.06455 0.05569 -0.00127
v -0.06708 0.05569 0.01645
v -0.06708 0.03798 0.02152
v -0.03924 0.05569 0.00633
v -0.05949 0.03798 -0.00127
v -0.04177 0.03544 0.01392
v -0.04177 0.05569 0.01645
v -0.07215 0.04557 0.00633
v -0.06961 0.04304 0.02152
v -0.05949 0.05569 0.01898
v -0.06961 0.05063 -0.00127
v -0.03924 0.04051 0.01392
v -0.05949 0.05316 -0.00127
v -0.07215 0.04557 0.01392
v -0.03924 0.04051 0.00886
v 0.01645 -0.04303 -0.00633
v -0.02405 -0.04557 -0.01899
v -0.02405 -0.04050 -0.01899
v -0.01645 -0.04557 -0.00380
v -0.02405 -0.03291 -0.00633
v 0.00633 -0.03291 -0.01645
v 0.00886 -0.03291 -0.00380
v 0.00633 -0.04557 -0.01645
v -0.02405 -0.03291 -0.01645
v 0.00886 -0.04557 -0.00380
v -0.02405 -0.04557 -0.00633
v 0.01645 -0.04557 -0.01139
v -0.01392 -0.03291 -0.00380
v 0.00886 -0.03291 -0.01392
v 0.04683 -0.04304 -0.00886
v 0.04430 -0.04557 -0.02405
v 0.02911 -0.04557 -0.02152
v 0.04936 -0.04557 -0.00886
v 0.04936 -0.04304 -0.02405
v 0.02911 -0.04304 -0.01646
v 0.02911 -0.04557 -0.01646
v 0.02911 -0.04304 -0.02152
v -0.01392 -0.01518 -0.02152
v 0.02405 0.03544 -0.02912
v 0.02405 0.01265 -0.02912
v -0.01140 0.01771 -0.04683
v -0.05188 0.03544 -0.02659
v -0.04682 -0.03290 -0.03418
v 0.00379 -0.03290 -0.04430
v 0.00632 -0.03290 -0.02659
v -0.05188 0.03544 -0.03418
v 0.02405 0.03544 -0.03670
v 0.00885 0.02024 -0.02152
v -0.04936 -0.02784 -0.02659
v 0.02405 0.00000 -0.03924
v 0.00126 0.02531 -0.04683
v 0.00632 -0.02278 -0.02152
v -0.05188 -0.02784 -0.03418
v -0.02151 0.00758 -0.02152
v 0.00885 -0.00505 -0.04683
v -0.00634 -0.00759 -0.04683
v -0.01898 0.03544 -0.02405
v -0.04429 -0.03290 -0.02659
v 0.01391 -0.00505 -0.02152
v -0.01645 0.03544 -0.03924
v 0.00885 -0.03290 -0.02912
v 0.00885 0.01771 -0.04683
v -0.00380 -0.03290 -0.04430
v 0.02405 0.00000 -0.03165
v 0.00632 0.03544 -0.02405
v 0.00885 -0.03290 -0.03924
v -0.00128 -0.02530 -0.02152
v -0.05188 0.00253 -0.02659
v -0.00380 0.02278 -0.02152
v 0.02405 0.02278 -0.03924
v -0.00380 0.02531 -0.04683
v 0.01391 0.01265 -0.02152
v 0.00632 0.03544 -0.03924
v 0.02151 -0.00759 -0.03418
v -0.05188 -0.02784 -0.02912
v -0.02151 -0.00252 -0.02152
v -0.01140 0.01012 -0.04683
v 0.00379 -0.03037 -0.02405
v 0.00379 -0.01265 -0.04683
v -0.01393 -0.01518 0.00127
v 0.00632 0.03544 -0.00886
v 0.00632 0.03544 -0.01645
v -0.05189 0.03544 -0.01645
v 0.00632 -0.02530 -0.02152
v -0.05189 -0.03290 -0.01645
v 0.00885 -0.03290 -0.00380
v -0.04935 0.03290 -0.00886
v 0.01138 0.01012 0.00127
v 0.01644 0.00506 -0.02152
v -0.05189 -0.03290 -0.00886
v -0.01898 0.02024 -0.02152
v 0.02151 0.01012 -0.00633
v -0.00634 0.01518 0.00127
v 0.00885 -0.03290 -0.01392
v -0.05189 0.01518 -0.01898
v -0.00128 0.03037 -0.02152
v 0.02151 -0.00252 -0.01392
v 0.00379 -0.03290 -0.00127
v -0.01898 -0.00759 -0.02152
v -0.01645 0.00758 0.00127
v 0.00379 0.03544 -0.00633
v -0.04682 0.03544 -0.01898
v 0.00885 -0.01518 0.00127
v 0.01897 -0.00505 -0.00380
v -0.04682 0.03544 -0.00886
v 0.02151 0.00758 -0.01392
v -0.00634 -0.03290 -0.00127
v 0.00632 -0.03290 -0.01645
v 0.00379 0.03544 -0.01898
v -0.05189 -0.01265 -0.00886
v -0.00380 -0.02530 -0.02152
v -0.00887 0.03544 -0.00633
v -0.00887 -0.02025 0.00127
v 0.02151 -0.00252 -0.00633
v -0.05189 0.03290 -0.01139
v 0.01392 0.01265 -0.02152
v 0.00632 0.01518 0.00127
v 0.01897 -0.01012 -0.01392
v 0.00379 -0.03037 -0.01898
v -0.05189 0.03037 -0.01898
v -0.01645 -0.00759 0.00127
v 0.01644 -0.00252 -0.00127
v -0.02151 -0.00252 -0.02152
v 0.04430 -0.03797 0.01899
v 0.04936 -0.03544 0.02405
v 0.04936 -0.04050 0.02405
v 0.04936 -0.04050 0.01645
v 0.04430 -0.04050 0.02405
v 0.03924 0.00253 0.01899
v 0.02405 -0.01012 0.01139
v 0.02658 -0.01012 0.01139
v 0.03418 -0.01266 0.01899
v 0.02405 -0.00000 0.02152
v 0.02405 0.00253 0.01139
v 0.04430 -0.01012 0.01645
v 0.03418 0.00759 0.01645
v 0.03671 -0.00506 0.02152
v 0.02405 -0.01012 0.01899
v 0.03671 -0.00000 0.01392
v 0.02912 0.00759 0.01899
v 0.04430 -0.01012 0.01899
v 0.03671 -0.00000 0.02152
v 0.02658 -0.00759 0.02152
v 0.04430 -0.00506 0.01645
v -0.06962 0.05063 -0.00127
v -0.06708 0.03544 -0.03671
v -0.05696 0.03544 -0.03671
v -0.06202 0.05316 -0.03417
v -0.05949 0.03544 -0.00127
v -0.05696 0.05316 -0.00380
v -0.07215 0.03544 -0.00127
v -0.05443 0.05316 -0.03164
v -0.07215 0.03798 -0.02405
v -0.05443 0.03544 -0.02658
v -0.06455 0.05569 -0.00127
v -0.06708 0.05063 -0.03164
v -0.06455 0.05569 -0.01646
v -0.05949 0.05569 -0.00127
v -0.07215 0.04304 -0.00887
v -0.05696 0.03798 -0.00633
v -0.06962 0.03544 -0.03417
v -0.05443 0.05063 -0.03417
v -0.06708 0.04051 -0.03671
v -0.06708 0.05316 -0.02405
v -0.05949 0.05569 -0.01899
v -0.05443 0.03544 -0.03417
v -0.04936 0.05316 -0.02911
v -0.05190 0.03544 -0.03418
v -0.03924 0.03544 -0.03418
v -0.04430 0.03544 -0.00886
v -0.03924 0.04810 -0.01140
v -0.03924 0.05063 -0.03418
v -0.05443 0.05063 -0.02658
v -0.04936 0.03544 -0.01140
v -0.03924 0.03544 -0.00886
v -0.05443 0.04810 -0.03418
v -0.05443 0.03544 -0.02658
v -0.04177 0.04810 -0.01140
v -0.04177 0.05316 -0.03164
v -0.04936 0.03797 -0.01140
f 890 883 906 
f 870 871 872 
f 869 866 873 
f 866 867 874 
f 873 866 874 
f 874 867 877 
f 875 865 879 
f 873 868 880 
f 869 873 880 
f 865 875 881 
f 877 871 882 
f 868 878 882 
f 868 882 883 
f 866 869 884 
f 870 872 885 
f 865 876 885 
f 867 866 886 
f 875 879 886 
f 873 874 887 
f 872 871 888 
f 879 872 888 
f 886 879 888 
f 878 874 889 
f 877 882 889 
f 882 878 889 
f 871 870 890 
f 870 880 890 
f 880 883 890 
f 877 867 891 
f 867 886 891 
f 886 888 891 
f 875 866 892 
f 866 884 892 
f 871 877 893 
f 888 871 893 
f 879 865 894 
f 865 885 894 
f 869 880 895 
f 881 869 895 
f 881 875 896 
f 869 881 896 
f 884 869 896 
f 875 892 896 
f 892 884 896 
f 874 877 897 
f 889 874 897 
f 877 889 897 
f 868 873 898 
f 878 868 898 
f 873 887 898 
f 887 878 898 
f 866 875 899 
f 886 866 899 
f 875 886 899 
f 874 878 900 
f 887 874 900 
f 878 887 900 
f 877 891 901 
f 891 888 901 
f 893 877 901 
f 888 893 901 
f 880 870 902 
f 870 885 902 
f 885 876 902 
f 895 880 902 
f 876 895 902 
f 876 865 903 
f 865 881 903 
f 895 876 903 
f 881 895 903 
f 880 868 904 
f 868 883 904 
f 883 880 904 
f 872 879 905 
f 885 872 905 
f 879 894 905 
f 894 885 905 
f 882 871 906 
f 883 882 906 
f 871 890 906 
