# Created by Open3D 
# object name: convex_2_coll
# number of vertices: 14
# number of triangles: 24
v 0.04776 0.00597 0.01592
v 0.03383 0.01393 0.01592
v 0.0199 0.00995 -0
v 0.0199 0.00398 0.01392
v 0.0199 0.02587 0.00199
v 0.0199 0.02587 0.00994
v 0.02388 -0.00397 0.00398
v 0.04776 0.01194 0.00199
v 0.046765 0.02189 0.004975
v 0.04776 0.00398 0.00398
v 0.046765 0.020895 0.01592
v 0.0199 0.01791 0.01392
v 0.03979 0.02587 0.010445
v 0.0199 0.02189 -0
f 3 4 5
f 5 4 6
f 1 8 9
f 8 1 10
f 1 11 2
f 6 4 12
f 4 2 12
f 1 9 11
f 9 13 11
f 13 5 6
f 7 10 1
f 9 14 5
f 6 12 11
f 12 2 11
f 14 9 8
f 3 5 14
f 8 10 7
f 3 8 7
f 3 7 4
f 7 1 4
f 13 6 11
f 9 5 13
f 14 8 3
f 4 1 2
