# Created by Open3D 
# object name: convex_4_coll
# number of vertices: 14
# number of triangles: 24
v 0.0046025 0.0273625 0.0283531
v -0.00796 0.00995 0.01592
v -0.00796 0.02189 0.03581
v 0.04775 0.00597 0.01592
v -0.0014875 0.0174125 0.01592
v 0.04775 0.02189 0.01592
v 0.04775 0.0199 0.02786
v 0.00399 0.00398 0.01592
v -0.00597 0.00597 0.03382
v 0.04775 0.00995 0.02786
v 0.0378 0.02786 0.02786
v -0.00796 0.02388 0.02587
v 0.02984 0.01194 0.0398
v 0.01989 0.02189 0.04178
f 4 2 5
f 4 5 6
f 4 6 7
f 2 4 8
f 9 8 4
f 3 2 9
f 4 7 10
f 2 3 12
f 1 11 6
f 9 14 3
f 7 13 10
f 11 1 14
f 14 9 13
f 13 7 14
f 7 11 14
f 4 13 9
f 2 12 5
f 2 8 9
f 14 1 3
f 5 12 1
f 5 1 6
f 4 10 13
f 6 11 7
f 12 3 1
