# Created by Open3D 
# object name: convex_1_coll
# number of vertices: 14
# number of triangles: 24
v 0.01789 -0.01591 0.005965
v 0.01989 0.00795 -0
v 0.016905 0.0079575 0.01492
v 0.01939 0.02537 0.00497
v -0.02289 -0.04378 0.00398
v -0.0124475 0.0074575 0.01592
v 0.00198 0.02188 0.01592
v -0.0587 0.01393 0.00199
v -0.06368 0.01393 0.00795
v -0.00685563 0.0144212 -0.00199
v -0.0084675 0.04378 0.00199
v -0.02289 -0.04378 -0
v -0.05771 -0.011935 0.005965
v -0.0482575 0.0303425 0.005965
f 3 2 4
f 5 1 3
f 6 3 7
f 4 2 10
f 13 12 5
f 9 8 13
f 10 2 12
f 1 5 12
f 2 1 12
f 9 6 14
f 14 7 11
f 9 14 8
f 10 12 8
f 11 4 10
f 8 12 13
f 7 3 4
f 13 5 6
f 4 11 7
f 3 6 5
f 13 6 9
f 11 10 8
f 14 11 8
f 14 6 7
f 1 2 3
