# Created by Open3D 
# object name: convex_0_coll
# number of vertices: 14
# number of triangles: 24
v 0.06368 -0.02586 -0.002
v 0.0631825 0.0154125 0.0243675
v 0.06368 -0.00198 -0.03781
v 0.04776 0.00795 0.026855
v 0.04776 0.02189 0.02586
v 0.06368 0.03781 -0.03582
v 0.052735 0.007965 -0.039795
v 0.0522375 0.0273525 -0.036315
v 0.054725 -0.027855 -0.007965
v 0.0597 0.0273525 0.022875
v 0.056715 -0.0243675 -0.0378075
v 0.0582075 -0.02188 0.00994
v 0.05771 0.014915 0.02984
v 0.05771 0.0398 -0.02587
f 2 1 3
f 2 3 6
f 12 2 13
f 9 4 11
f 1 9 11
f 14 5 10
f 13 2 10
f 3 11 6
f 11 7 6
f 7 8 6
f 4 12 13
f 2 6 14
f 10 2 14
f 8 7 4
f 6 8 14
f 12 1 2
f 4 7 11
f 9 1 12
f 1 11 3
f 14 8 5
f 8 4 5
f 10 5 13
f 13 5 4
f 4 9 12
