# Created by Open3D 
# object name: convex_3_coll
# number of vertices: 14
# number of triangles: 24
v -0.00796 0.00796 0.03582
v -0.03185 0.00995 0.03582
v -0.00796 0.01791 0.02388
v -0.00796 0.02388 0.02786
v -0.00796 0.00597 0.02587
v -0.02985 0.01592 0.03582
v -0.00996 0.00995 0.02388
v -0.02189 -0.00199 0.02985
v -0.0293575 0.006965 0.030845
v -0.03085 0.014925 0.03184
v -0.0094575 0.0223875 0.0353225
v -0.010955 0.022885 0.02786
v -0.02189 -0.00398 0.03383
v -0.01792 -0.00398 0.03383
f 3 4 1
f 3 1 5
f 1 6 2
f 3 5 7
f 5 8 7
f 7 9 10
f 1 4 11
f 6 1 11
f 6 12 10
f 13 14 2
f 7 10 3
f 14 5 1
f 8 5 14
f 13 8 14
f 2 9 13
f 4 12 11
f 12 6 11
f 9 2 10
f 2 6 10
f 7 8 9
f 8 13 9
f 4 3 12
f 3 10 12
f 2 14 1
