# Created by Open3D 
# object name: convex_0_coll
# number of vertices: 14
# number of triangles: 24
v -0.091995 -0.03586 -0.02339
v 0.00624 -0.03898 -0.02339
v 0.00624 0.04054 0.01714
v 0.00624 -0.02182 0.03586
v 0.00624 0.04054 -0.02651
v -0.06861 0.04366 -0.03586
v 0.00624 -0.04054 0.020265
v -0.09044 -0.04054 0.00467
v -0.07795 0.04366 0.00778
v 0.00624 0.01871 0.03586
v -0.078735 0.0288375 0.0249475
v -0.0958925 0.0280625 -0.005455
v -0.07795 -0.02806 0.02807
v -0.06861 -0.03742 -0.03898
f 2 3 4
f 3 2 5
f 2 4 7
f 3 5 9
f 5 6 9
f 3 11 10
f 9 6 12
f 4 3 10
f 12 13 11
f 5 2 14
f 6 5 14
f 4 8 7
f 8 2 7
f 12 6 1
f 6 14 1
f 2 8 1
f 14 2 1
f 12 11 9
f 8 13 12
f 1 8 12
f 8 4 13
f 13 10 11
f 13 4 10
f 3 9 11
