# Created by Open3D 
# object name: convex_1_coll
# number of vertices: 14
# number of triangles: 24
v 0.09667 -0.03274 -0.02183
v 0.0701625 -0.04522 -0.01793
v 0.00624 -0.03898 -0.023385
v 0.00624 -0.03508 0.0241675
v 0.00624 0.03898 -0.024945
v 0.007805 0.0421 0.01715
v 0.062365 -0.03898 -0.03898
v 0.09667 0.0327425 -0.0077875
v 0.09979 -0.028065 0.00156
v 0.083415 0.03898 0.0070075
v 0.057685 0.04054 -0.03274
v 0.01873 0 0.03587
v 0.043665 -0.03898 0.02026
v 0.0880925 -0.0163688 0.0116875
f 3 4 5
f 5 4 6
f 5 7 3
f 8 9 1
f 10 8 11
f 9 8 14
f 8 10 14
f 5 11 7
f 8 1 11
f 5 6 11
f 6 10 11
f 14 10 12
f 11 1 7
f 4 3 2
f 13 4 2
f 6 12 10
f 4 13 12
f 13 14 12
f 12 6 4
f 2 3 7
f 2 1 9
f 14 13 9
f 13 2 9
f 7 1 2
