# Original object name hint: convex_1
v 0.03367 -0.05920 0.02143
v -0.01939 -0.05920 -0.03164
v -0.01939 -0.05715 -0.03164
v -0.04389 -0.05308 0.01939
v -0.00918 -0.04491 0.01531
v -0.02551 -0.06532 0.01939
v 0.03367 -0.06124 -0.02755
v 0.02756 -0.05512 -0.02550
v 0.03163 -0.06532 0.01531
v -0.02959 -0.06124 -0.02550
v 0.00509 -0.05104 -0.02755
v -0.04389 -0.05104 0.00714
v 0.03776 -0.05715 0.01531
v -0.02143 -0.04491 0.02143
v -0.00918 -0.06532 0.00102
v -0.04184 -0.06124 0.00510
v -0.02959 -0.06124 0.02347
v 0.02347 -0.06124 -0.03164
v -0.02347 -0.04491 0.01531
v -0.02143 -0.05512 -0.02959
v 0.03163 -0.06328 0.02143
v -0.04389 -0.05920 0.01939
v 0.03776 -0.06328 0.01734
v -0.01121 -0.04491 0.02143
v 0.00509 -0.05308 -0.03164
v 0.03367 -0.05715 -0.02755
v -0.00103 -0.05715 0.02347
v -0.01531 -0.06124 -0.03164
v 0.03163 -0.05512 0.00306
v -0.04389 -0.05920 0.00306
v -0.02754 -0.06532 0.01531
v 0.03163 -0.06532 0.01122
v 0.03163 -0.05512 0.01734
v -0.02754 -0.05715 -0.02755
v 0.00101 -0.05104 -0.02755
v 0.03776 -0.05715 0.00306
v -0.04389 -0.05308 0.00306
v 0.00101 -0.06532 0.00102
v 0.03163 -0.05715 0.02143
v 0.03163 -0.05715 -0.02959
v -0.03368 -0.06328 0.02143
v -0.02754 -0.05715 0.02347
v -0.04184 -0.05104 0.01734
v 0.00101 -0.06124 0.02347
v 0.00918 -0.06532 0.01939
v 0.03776 -0.06328 0.01122
v -0.03572 -0.06328 0.00918
v -0.02347 -0.06532 0.00918
v 0.00714 -0.05104 -0.02550
v -0.04184 -0.06124 0.01734
v -0.02347 -0.06124 -0.02959
v 0.03163 -0.06124 -0.02959
v -0.01734 -0.05512 -0.03164
v -0.03776 -0.05512 0.02143
v 0.03776 -0.06124 0.00306
v 0.02142 -0.05715 -0.03164
v -0.02347 -0.04491 0.01939
v 0.02347 -0.05512 -0.02959
v 0.02959 -0.06532 0.01734
v -0.00918 -0.04491 0.01939
v -0.04389 -0.05104 0.01122
v -0.04184 -0.05104 0.00510
v -0.03572 -0.06328 0.01734
v -0.02959 -0.05920 -0.02550
v 0.02550 0.00817 0.03164
v -0.05204 0.00817 0.01939
v -0.05204 0.00817 0.02347
v -0.00306 0.06532 0.01735
v -0.00918 -0.04491 0.01531
v 0.04999 0.01427 0.02347
v 0.00714 0.05714 0.01327
v -0.02143 -0.04491 0.02144
v -0.00509 0.01632 0.03164
v 0.03163 -0.01837 0.01735
v 0.05204 0.01835 0.02960
v 0.03980 -0.00408 0.02960
v -0.04796 -0.01225 0.01735
v 0.00714 0.03469 0.02960
v 0.00102 0.00002 0.03164
v -0.02959 0.03674 0.02347
v -0.04999 -0.00815 0.02347
v 0.00509 0.06532 0.01939
v -0.02346 -0.04491 0.01531
v 0.02550 0.00614 0.01531
v -0.01122 -0.04491 0.02144
v -0.04999 0.01835 0.01939
v -0.03162 0.00817 0.01531
v 0.05204 0.02039 0.02551
v -0.05204 0.01632 0.02347
v 0.01530 0.02653 0.03164
v 0.03367 0.02039 0.01735
v -0.00714 0.06326 0.01939
v 0.00102 0.05305 0.01327
v 0.01734 -0.00203 0.03164
v 0.03163 -0.01837 0.02144
v 0.05204 0.01224 0.02960
v 0.02143 -0.01225 0.01531
v 0.00714 0.04489 0.01327
v 0.01938 0.03266 0.02960
v 0.00509 0.02653 0.03164
v -0.03162 -0.01428 0.01531
v 0.00509 0.06532 0.01735
v -0.00714 0.06326 0.01735
v -0.02550 -0.04285 0.01939
v 0.04999 0.01835 0.02347
v -0.00509 0.00817 0.03164
v 0.05204 0.01224 0.02551
v 0.02550 0.02449 0.01531
v 0.02959 -0.01837 0.02347
v 0.00306 0.05714 0.01327
v -0.04796 -0.00408 0.01735
v 0.00509 -0.00203 0.03164
v 0.00102 0.04489 0.01327
v -0.00918 -0.04491 0.01939
v -0.00306 0.06532 0.01939
v 0.03367 0.00817 0.01735
v 0.05204 0.02039 0.02755
v 0.01327 0.03469 0.02960
v 0.02346 0.01835 0.03164
v -0.05204 0.01427 0.01939
v 0.00102 0.06326 0.01531
v -0.04796 -0.01225 0.02144
v 0.02143 0.00002 0.03164
v -0.04796 -0.01020 0.02347
v -0.04999 -0.00815 0.01939
v 0.04796 0.02039 0.02960
v -0.04796 0.02039 0.02347
v -0.00714 -0.00612 0.02960
f 79 124 128 
f 65 73 79 
f 67 66 81 
f 69 72 83 
f 72 69 85 
f 66 67 89 
f 67 73 89 
f 73 65 90 
f 65 79 94 
f 72 85 94 
f 85 76 94 
f 69 74 95 
f 75 65 96 
f 88 75 96 
f 95 74 96 
f 76 95 96 
f 74 69 97 
f 84 74 97 
f 84 97 98 
f 69 83 98 
f 71 84 98 
f 93 71 98 
f 97 69 98 
f 89 73 100 
f 73 90 100 
f 90 78 100 
f 92 80 100 
f 83 77 101 
f 77 87 101 
f 87 93 101 
f 68 82 102 
f 88 71 102 
f 82 88 102 
f 86 89 103 
f 92 68 103 
f 89 92 103 
f 72 81 104 
f 83 72 104 
f 77 83 104 
f 88 70 105 
f 71 88 105 
f 70 91 105 
f 91 71 105 
f 73 67 106 
f 79 73 106 
f 67 81 106 
f 81 79 106 
f 74 70 107 
f 70 88 107 
f 96 74 107 
f 88 96 107 
f 84 71 108 
f 71 91 108 
f 91 84 108 
f 76 85 109 
f 95 76 109 
f 85 95 109 
f 71 93 110 
f 86 103 110 
f 77 66 111 
f 87 77 111 
f 79 72 112 
f 72 94 112 
f 94 79 112 
f 98 83 113 
f 93 98 113 
f 83 101 113 
f 101 93 113 
f 85 69 114 
f 69 95 114 
f 95 85 114 
f 82 68 115 
f 78 82 115 
f 68 92 115 
f 100 78 115 
f 92 100 115 
f 70 74 116 
f 74 84 116 
f 91 70 116 
f 84 91 116 
f 82 75 117 
f 75 88 117 
f 88 82 117 
f 82 78 118 
f 78 90 118 
f 99 82 118 
f 90 99 118 
f 65 75 119 
f 90 65 119 
f 75 90 119 
f 66 89 120 
f 89 86 120 
f 93 87 120 
f 110 93 120 
f 86 110 120 
f 111 66 120 
f 87 111 120 
f 68 102 121 
f 102 71 121 
f 103 68 121 
f 71 110 121 
f 110 103 121 
f 81 77 122 
f 77 104 122 
f 104 81 122 
f 65 94 123 
f 94 76 123 
f 96 65 123 
f 76 96 123 
f 81 72 124 
f 79 81 124 
f 66 77 125 
f 81 66 125 
f 77 81 125 
f 75 82 126 
f 90 75 126 
f 82 99 126 
f 99 90 126 
f 80 92 127 
f 92 89 127 
f 89 100 127 
f 100 80 127 
f 72 79 128 
f 124 72 128 
