# Original object name hint: convex_0
v 0.03367 -0.05920 0.02143
v -0.01939 -0.05920 -0.03164
v -0.01939 -0.05715 -0.03164
v -0.04389 -0.05308 0.01939
v -0.00918 -0.04491 0.01531
v -0.02551 -0.06532 0.01939
v 0.03367 -0.06124 -0.02755
v 0.02756 -0.05512 -0.02550
v 0.03163 -0.06532 0.01531
v -0.02959 -0.06124 -0.02550
v 0.00509 -0.05104 -0.02755
v -0.04389 -0.05104 0.00714
v 0.03776 -0.05715 0.01531
v -0.02143 -0.04491 0.02143
v -0.00918 -0.06532 0.00102
v -0.04184 -0.06124 0.00510
v -0.02959 -0.06124 0.02347
v 0.02347 -0.06124 -0.03164
v -0.02347 -0.04491 0.01531
v -0.02143 -0.05512 -0.02959
v 0.03163 -0.06328 0.02143
v -0.04389 -0.05920 0.01939
v 0.03776 -0.06328 0.01734
v -0.01121 -0.04491 0.02143
v 0.00509 -0.05308 -0.03164
v 0.03367 -0.05715 -0.02755
v -0.00103 -0.05715 0.02347
v -0.01531 -0.06124 -0.03164
v 0.03163 -0.05512 0.00306
v -0.04389 -0.05920 0.00306
v -0.02754 -0.06532 0.01531
v 0.03163 -0.06532 0.01122
v 0.03163 -0.05512 0.01734
v -0.02754 -0.05715 -0.02755
v 0.00101 -0.05104 -0.02755
v 0.03776 -0.05715 0.00306
v -0.04389 -0.05308 0.00306
v 0.00101 -0.06532 0.00102
v 0.03163 -0.05715 0.02143
v 0.03163 -0.05715 -0.02959
v -0.03368 -0.06328 0.02143
v -0.02754 -0.05715 0.02347
v -0.04184 -0.05104 0.01734
v 0.00101 -0.06124 0.02347
v 0.00918 -0.06532 0.01939
v 0.03776 -0.06328 0.01122
v -0.03572 -0.06328 0.00918
v -0.02347 -0.06532 0.00918
v 0.00714 -0.05104 -0.02550
v -0.04184 -0.06124 0.01734
v -0.02347 -0.06124 -0.02959
v 0.03163 -0.06124 -0.02959
v -0.01734 -0.05512 -0.03164
v -0.03776 -0.05512 0.02143
v 0.03776 -0.06124 0.00306
v 0.02142 -0.05715 -0.03164
v -0.02347 -0.04491 0.01939
v 0.02347 -0.05512 -0.02959
v 0.02959 -0.06532 0.01734
v -0.00918 -0.04491 0.01939
v -0.04389 -0.05104 0.01122
v -0.04184 -0.05104 0.00510
v -0.03572 -0.06328 0.01734
v -0.02959 -0.05920 -0.02550
v 0.02550 0.00817 0.03164
v -0.05204 0.00817 0.01939
v -0.05204 0.00817 0.02347
v -0.00306 0.06532 0.01735
v -0.00918 -0.04491 0.01531
v 0.04999 0.01427 0.02347
v 0.00714 0.05714 0.01327
v -0.02143 -0.04491 0.02144
v -0.00509 0.01632 0.03164
v 0.03163 -0.01837 0.01735
v 0.05204 0.01835 0.02960
v 0.03980 -0.00408 0.02960
v -0.04796 -0.01225 0.01735
v 0.00714 0.03469 0.02960
v 0.00102 0.00002 0.03164
v -0.02959 0.03674 0.02347
v -0.04999 -0.00815 0.02347
v 0.00509 0.06532 0.01939
v -0.02346 -0.04491 0.01531
v 0.02550 0.00614 0.01531
v -0.01122 -0.04491 0.02144
v -0.04999 0.01835 0.01939
v -0.03162 0.00817 0.01531
v 0.05204 0.02039 0.02551
v -0.05204 0.01632 0.02347
v 0.01530 0.02653 0.03164
v 0.03367 0.02039 0.01735
v -0.00714 0.06326 0.01939
v 0.00102 0.05305 0.01327
v 0.01734 -0.00203 0.03164
v 0.03163 -0.01837 0.02144
v 0.05204 0.01224 0.02960
v 0.02143 -0.01225 0.01531
v 0.00714 0.04489 0.01327
v 0.01938 0.03266 0.02960
v 0.00509 0.02653 0.03164
v -0.03162 -0.01428 0.01531
v 0.00509 0.06532 0.01735
v -0.00714 0.06326 0.01735
v -0.02550 -0.04285 0.01939
v 0.04999 0.01835 0.02347
v -0.00509 0.00817 0.03164
v 0.05204 0.01224 0.02551
v 0.02550 0.02449 0.01531
v 0.02959 -0.01837 0.02347
v 0.00306 0.05714 0.01327
v -0.04796 -0.00408 0.01735
v 0.00509 -0.00203 0.03164
v 0.00102 0.04489 0.01327
v -0.00918 -0.04491 0.01939
v -0.00306 0.06532 0.01939
v 0.03367 0.00817 0.01735
v 0.05204 0.02039 0.02755
v 0.01327 0.03469 0.02960
v 0.02346 0.01835 0.03164
v -0.05204 0.01427 0.01939
v 0.00102 0.06326 0.01531
v -0.04796 -0.01225 0.02144
v 0.02143 0.00002 0.03164
v -0.04796 -0.01020 0.02347
v -0.04999 -0.00815 0.01939
v 0.04796 0.02039 0.02960
v -0.04796 0.02039 0.02347
v -0.00714 -0.00612 0.02960
f 37 34 64 
f 9 6 15 
f 2 3 18 
f 5 11 19 
f 14 5 19 
f 17 6 21 
f 4 12 22 
f 13 1 23 
f 1 21 23 
f 5 14 24 
f 18 3 25 
f 24 14 27 
f 2 18 28 
f 18 15 28 
f 8 5 29 
f 26 8 29 
f 10 16 30 
f 22 12 30 
f 16 22 30 
f 15 6 31 
f 9 15 32 
f 23 9 32 
f 29 5 33 
f 13 29 33 
f 20 3 34 
f 12 20 34 
f 19 11 35 
f 20 19 35 
f 11 25 35 
f 13 23 36 
f 7 26 36 
f 29 13 36 
f 26 29 36 
f 10 30 37 
f 30 12 37 
f 12 34 37 
f 15 18 38 
f 32 15 38 
f 1 13 39 
f 27 1 39 
f 24 27 39 
f 13 33 39 
f 33 24 39 
f 8 26 40 
f 26 7 40 
f 6 17 41 
f 17 22 41 
f 27 14 42 
f 17 27 42 
f 4 14 43 
f 21 1 44 
f 17 21 44 
f 27 17 44 
f 1 27 44 
f 6 9 45 
f 21 6 45 
f 32 7 46 
f 23 32 46 
f 36 23 46 
f 16 10 47 
f 10 31 47 
f 15 31 48 
f 31 10 48 
f 5 8 49 
f 11 5 49 
f 8 11 49 
f 22 16 50 
f 41 22 50 
f 16 47 50 
f 3 2 51 
f 2 28 51 
f 28 15 51 
f 34 3 51 
f 10 34 51 
f 48 10 51 
f 15 48 51 
f 7 32 52 
f 38 18 52 
f 32 38 52 
f 40 7 52 
f 18 40 52 
f 3 20 53 
f 25 3 53 
f 20 35 53 
f 35 25 53 
f 14 4 54 
f 4 22 54 
f 22 17 54 
f 42 14 54 
f 17 42 54 
f 7 36 55 
f 46 7 55 
f 36 46 55 
f 18 25 56 
f 40 18 56 
f 25 40 56 
f 19 12 57 
f 14 19 57 
f 43 14 57 
f 11 8 58 
f 25 11 58 
f 8 40 58 
f 40 25 58 
f 9 23 59 
f 23 21 59 
f 45 9 59 
f 21 45 59 
f 5 24 60 
f 24 33 60 
f 33 5 60 
f 12 4 61 
f 4 43 61 
f 57 12 61 
f 43 57 61 
f 12 19 62 
f 20 12 62 
f 19 20 62 
f 31 6 63 
f 6 41 63 
f 47 31 63 
f 41 50 63 
f 50 47 63 
f 34 10 64 
f 10 37 64 
