# Created by Open3D 
# object name: convex_3_coll
# number of vertices: 14
# number of triangles: 24
v 0.06685 0.03821 0.01115
v 0.02547 0.04777 0.01115
v 0.02228 0.04777 -0.02387
v 0.0573 -0.05413 -0.0398
v 0.06685 -0.05413 0.00796
v 0.023875 -0.05413 -0.02547
v 0.07322 0.04777 -0.03662
v 0.02228 -0.05413 0.00477
v 0.07322 0.04777 0.00159
v 0.07322 -0.050945 0.00318
v 0.05889 0.030245 -0.0398
v 0.07322 -0.05413 -0.03662
v 0.02228 0.04777 0.00796
v 0.07322 0.02866 -0.0398
f 4 5 6
f 3 2 7
f 3 6 8
f 6 5 8
f 7 2 9
f 10 7 9
f 5 4 12
f 7 10 12
f 3 11 6
f 11 4 6
f 2 3 13
f 3 8 13
f 4 11 14
f 7 12 14
f 1 2 5
f 9 2 1
f 10 9 1
f 5 12 10
f 3 7 11
f 8 5 2
f 10 1 5
f 2 13 8
f 12 4 14
f 7 14 11
