# Created by Open3D 
# object name: convex_2_coll
# number of vertices: 14
# number of triangles: 24
v -0.07324 0.01274 -0.0398
v -0.068465 0.04777 -0.03502
v -0.07324 -0.05413 -0.03661
v -0.06687 -0.05413 0.00477
v 0.02227 -0.05413 0.00477
v -0.06687 0.04777 0.00477
v 0.02227 0.04777 -0.02388
v 0.02227 0.04777 0.00796
v 0.02227 -0.05413 -0.02388
v 0.00952 -0.02546 -0.03024
v -0.07324 0.04777 -0.00478
v -0.05413 0.04777 0.00796
v -0.07324 -0.05413 -0.00478
v 0.004745 0.04298 -0.03024
f 4 3 5
f 6 7 2
f 7 6 8
f 5 7 8
f 5 3 9
f 7 5 9
f 7 9 10
f 3 11 1
f 4 5 8
f 3 4 13
f 11 3 13
f 3 1 10
f 1 11 2
f 14 10 1
f 14 1 2
f 11 4 6
f 4 12 6
f 6 2 11
f 10 14 7
f 4 11 13
f 8 6 12
f 3 10 9
f 12 4 8
f 2 7 14
