# Created by Open3D 
# object name: convex_0_coll
# number of vertices: 14
# number of triangles: 24
v 0.06048 0.09553 0.0398
v -0 0.0796 0.04617
v -0.07006 0.04777 -0.03662
v -0.065285 0.081205 -0.04299
v 0.07003 0.04777 -0.03662
v 0.07002 0.04777 0.006365
v -0.07006 0.04777 0.00477
v 0.06684 0.10189 -0.01114
v -0.03823 0.10189 0.03343
v 0.0676325 0.0804 0.0366125
v -0.06369 0.093935 -0.035025
v -0.0700625 0.0819925 0.02228
v 0.0692225 0.08677 -0.039005
v -0.06051 0.06688 0.03343
f 3 4 5
f 3 5 6
f 3 6 7
f 1 8 9
f 12 11 7
f 9 12 2
f 13 1 10
f 8 1 13
f 11 4 3
f 7 11 3
f 13 11 8
f 14 7 6
f 13 6 5
f 2 12 14
f 7 14 12
f 6 10 2
f 14 6 2
f 9 11 12
f 13 5 4
f 2 1 9
f 6 13 10
f 9 8 11
f 11 13 4
f 2 10 1
