# Created by Open3D 
# object name: convex_1_coll
# number of vertices: 14
# number of triangles: 24
v -0.06209 -0.079605 -0.04298
v -0.06368 -0.09552 -0.03661
v -0.07323 -0.05413 -0.03661
v -0.07005 -0.05413 0.00476
v 0.07003 -0.05413 0.004775
v 0.07002 -0.05413 -0.03979
v 0.06046 -0.08915 -0.04617
v 0.06683 -0.097115 -0.03502
v -0.00955 -0.10189 -0.03024
v 0.057285 -0.0811925 0.01194
v 0.06684 -0.09871 -0.01433
v -0.02865 -0.10189 -0.0016
v -0.074025 -0.078805 -0.0055775
v -0.057315 -0.08756 0.01114
f 1 2 3
f 4 5 6
f 4 6 3
f 2 8 9
f 10 12 11
f 3 2 13
f 2 9 12
f 14 4 13
f 8 11 9
f 11 12 9
f 12 10 14
f 8 2 7
f 4 14 10
f 7 6 8
f 6 5 8
f 3 6 7
f 1 3 7
f 5 11 8
f 4 10 5
f 13 2 14
f 2 12 14
f 11 5 10
f 2 1 7
f 13 4 3
