# Created by Open3D 
# object name: convex_3_coll
# number of vertices: 14
# number of triangles: 24
v -0.02793 0.05853 0.00399
v 0.00133 -0.01063 0.01197
v 0.00399 0.01329 0.01197
v -0.02793 -0.05053 0.00664
v -0.02793 0.05053 -0.03857
v 0.00399 -0.05053 -0.04123
v 0.00399 -0.05053 0.00664
v -0.02793 -0.05053 -0.02261
v 0.00399 0.05853 0.00664
v -0.01463 0.05853 -0.03325
v 0.00399 0.01861 -0.04123
v -0.00931 -0.05053 -0.04123
v -0.0266 0.00399 -0.03724
v 0.00266 0.05453 -0.034575
f 1 2 3
f 4 1 5
f 6 3 7
f 4 6 7
f 6 4 8
f 4 5 8
f 10 1 9
f 3 6 9
f 9 6 11
f 6 12 11
f 6 8 12
f 12 8 13
f 8 5 13
f 10 9 14
f 9 11 14
f 5 10 14
f 1 4 2
f 7 3 2
f 4 7 2
f 5 12 13
f 12 5 11
f 5 14 11
f 1 3 9
f 10 5 1
