# Created by Open3D 
# object name: convex_5_coll
# number of vertices: 14
# number of triangles: 24
v -0.05187 -0.05054 -0.00133
v -0.0532 -0.049205 0.00399
v -0.02793 0.02128 0.00399
v -0.02793 -0.05054 0.00665
v -0.02793 0.02128 -0.00133
v -0.04921 0.02128 -0.00133
v -0.05187 -0.01596 0.00665
v -0.02793 0.01595 0.00665
v -0.02793 -0.05054 -0.00399
v -0.04921 0.02128 0.00399
v -0.06252 -0.00267 0.00399
v -0.06252 -0.02926 -0.00133
v -0.06252 -0.00267 -0.00133
v -0.06252 -0.02659 0.00399
f 3 4 5
f 6 3 5
f 7 4 8
f 5 4 9
f 6 5 9
f 3 6 10
f 11 7 10
f 6 11 10
f 8 3 10
f 7 8 10
f 9 12 13
f 12 11 13
f 11 6 13
f 9 4 1
f 7 11 14
f 12 2 14
f 11 12 14
f 2 7 14
f 4 3 8
f 7 2 4
f 13 6 9
f 1 4 2
f 12 9 1
f 2 12 1
