# Created by Open3D 
# object name: convex_7_coll
# number of vertices: 14
# number of triangles: 24
v -0.06118 -0.038555 -0.04123
v -0.06118 0.01329 -0.04389
v -0.04921 0.05853 -0.02793
v -0.06118 0.05719 -0.02793
v -0.05321 -0.045205 -0.02793
v -0.04921 0.05853 -0.03857
v -0.06384 -0.039885 -0.02793
v -0.06517 -0.02925 -0.03857
v -0.06517 0.02526 -0.0399
v -0.06517 0.03723 -0.02793
v -0.05188 -0.05053 -0.03857
v -0.05852 -0.049195 -0.035915
v -0.04921 0.02127 -0.03857
v -0.05852 0.05719 -0.03857
f 3 4 5
f 4 3 6
f 5 4 7
f 8 7 9
f 9 7 10
f 7 4 10
f 6 3 13
f 6 13 2
f 13 11 2
f 12 8 1
f 9 10 4
f 14 9 4
f 3 5 13
f 5 7 12
f 4 6 14
f 6 2 14
f 13 5 11
f 5 12 11
f 1 8 2
f 8 12 7
f 14 2 9
f 2 8 9
f 11 12 1
f 2 11 1
