# Created by Open3D 
# object name: convex_8_coll
# number of vertices: 14
# number of triangles: 24
v -0.03592 0.01065 -0.03059
v -0.04655 0.01065 -0.03857
v -0.02793 0.00532 -0.03059
v -0.04921 0.01862 -0.03857
v -0.03326 0.03724 -0.03857
v -0.02793 0.02394 -0.03059
v -0.02793 0.00532 -0.03591
v -0.04921 0.04256 -0.03325
v -0.04921 0.02129 -0.03325
v -0.04921 0.04256 -0.03857
v -0.03326 0.04256 -0.03325
v -0.03592 0.03192 -0.03059
v -0.02793 0.02394 -0.03591
v -0.03326 0.02129 -0.03857
f 1 2 3
f 2 4 5
f 6 3 7
f 8 4 9
f 5 4 10
f 4 8 10
f 10 8 11
f 3 6 12
f 8 9 12
f 11 8 12
f 6 11 12
f 3 12 1
f 12 9 1
f 7 5 13
f 6 7 13
f 11 6 13
f 2 5 14
f 7 2 14
f 5 7 14
f 9 4 2
f 1 9 2
f 5 10 11
f 13 5 11
f 2 7 3
