# Created by Open3D 
# object name: convex_0_coll
# number of vertices: 14
# number of triangles: 24
v -0.04654 -0.07714 -0.03857
v -0.03191 -0.08513 -0.00133
v 0.03324 -0.05054 -0.04123
v -0.055855 -0.05054 -0.00532
v 0.05986 -0.05054 0.02261
v -0.05585 -0.05054 -0.0399
v -0.04654 -0.07182 0.02793
v 0.02259 -0.05054 0.03059
v 0.05451 -0.07448 0.03324
v 0.05919 -0.06118 -0.0053225
v -0.003995 -0.079805 0.03192
v 0.02792 -0.070495 -0.04655
v 0.03856 -0.08247 -0.03591
v 0.0465325 -0.0704937 -0.037235
f 3 4 5
f 4 3 6
f 4 7 8
f 5 4 8
f 3 5 10
f 9 8 11
f 11 7 2
f 7 11 8
f 11 2 9
f 6 3 12
f 13 2 1
f 3 10 14
f 10 5 9
f 13 10 9
f 6 12 1
f 12 13 1
f 13 9 2
f 12 14 13
f 10 13 14
f 6 1 4
f 4 1 7
f 5 8 9
f 12 3 14
f 7 1 2
