# Created by Open3D 
# object name: convex_4_coll
# number of vertices: 14
# number of triangles: 24
v -0.06518 -0.02659 -0.00931
v -0.06251 0.05053 -0.01463
v -0.06518 0.03723 -0.02394
v -0.05985 -0.05053 -0.02793
v -0.06518 -0.03456 -0.02793
v -0.06118 0.05719 -0.02793
v -0.02793 -0.05053 -0.02261
v -0.02793 0.03191 -0.01197
v -0.02793 -0.05053 -0.00931
v -0.05719 0.05853 -0.00931
v -0.0439 0.05853 -0.02793
v -0.02793 0.03457 -0.02261
v -0.04124 0.05853 -0.00931
v -0.05985 -0.05053 -0.01197
f 1 2 3
f 4 5 6
f 7 8 9
f 10 1 9
f 4 6 11
f 8 7 12
f 7 11 12
f 10 9 13
f 11 10 13
f 7 9 14
f 5 1 3
f 7 14 4
f 13 9 8
f 9 1 14
f 6 5 3
f 4 11 7
f 6 3 2
f 10 11 6
f 13 12 11
f 5 4 14
f 1 5 14
f 10 2 1
f 12 13 8
f 6 2 10
