# Created by Open3D 
# object name: convex_9_coll
# number of vertices: 11
# number of triangles: 18
v -0.0306 0.04789 -0.03325
v -0.03326 0.04257 -0.03325
v -0.02793 0.05055 -0.03591
v -0.04655 0.05853 -0.03857
v -0.03326 0.04257 -0.03857
v -0.04921 0.04257 -0.03857
v -0.02793 0.05055 -0.03857
v -0.04655 0.05853 -0.02793
v -0.04921 0.04257 -0.03325
v -0.04921 0.05586 -0.02793
v -0.04921 0.05853 -0.03857
f 1 2 3
f 4 5 6
f 5 4 7
f 4 8 7
f 6 5 2
f 5 7 2
f 6 2 9
f 9 2 10
f 2 8 10
f 6 9 10
f 8 2 1
f 8 4 11
f 4 6 11
f 10 8 11
f 6 10 11
f 7 8 3
f 2 7 3
f 8 1 3
