# Created by Open3D 
# object name: convex_6_coll
# number of vertices: 14
# number of triangles: 24
v -0.04921 0.02129 0.00399
v -0.05719 0.03991 0.00399
v -0.05719 0.03193 0.00399
v -0.02793 0.05853 -0.00665
v -0.02793 0.05853 0.00399
v -0.02793 0.02129 0.00399
v -0.05719 0.05853 -0.00931
v -0.05719 0.03193 -0.00133
v -0.02793 0.02129 -0.00133
v -0.04921 0.05853 0.00399
v -0.03857 0.05586 -0.00931
v -0.04921 0.02129 -0.00133
v -0.05719 0.05586 -0.00931
v -0.05719 0.05853 -0.00665
f 1 2 3
f 4 5 6
f 5 4 7
f 6 5 2
f 7 8 2
f 4 6 9
f 5 7 10
f 2 5 10
f 6 2 1
f 9 6 1
f 7 4 11
f 4 9 11
f 11 9 12
f 9 1 12
f 12 8 13
f 8 7 13
f 7 11 13
f 11 12 13
f 7 2 14
f 10 7 14
f 2 10 14
f 8 12 3
f 2 8 3
f 12 1 3
