# Created by Open3D 
# object name: convex_2_coll
# number of vertices: 14
# number of triangles: 24
v 0.06518 0.02261 0.0053175
v 0.05985 0.0578625 0.003325
v 0.00399 -0.05053 -0.04122
v 0.05985 -0.05053 0.02527
v 0.00399 -0.05053 0.00665
v 0.00399 0.05853 -0.03058
v 0.04389 0.05853 -0.0359
v 0.007985 0.05853 0.017285
v 0.03857 -0.05053 -0.04122
v 0.02262 -0.05053 0.03058
v 0.02262 0.00797 0.04655
v 0.033255 0.05853 0.0359
v 0.05985 0.0212825 0.0352425
v 0.05985 -0.00133 -0.03857
f 3 4 5
f 6 3 5
f 7 6 8
f 4 3 9
f 5 4 10
f 7 8 2
f 6 5 8
f 2 8 12
f 12 11 13
f 2 12 13
f 3 6 7
f 14 4 9
f 13 11 4
f 11 10 4
f 1 2 13
f 1 13 4
f 7 14 3
f 14 9 3
f 11 12 8
f 4 14 1
f 1 14 2
f 2 14 7
f 11 8 5
f 10 11 5
