# Created by Open3D 
# object name: convex_1_coll
# number of vertices: 14
# number of triangles: 24
v 0.03191 0.08513 -0.033245
v 0.0511925 0.0791425 -0.0226025
v -0.05718 0.05853 -0.03857
v 0.043875 0.05853 -0.03457
v 0.035235 0.05853 0.0339075
v 0.03856 0.08513 0.03324
v -0.05718 0.05853 -0.00398
v -0.04122 0.08513 0.02527
v 0.0511925 0.0818025 0.023275
v 0.05986 0.05853 0.00133
v 0.03589 0.0798 -0.04123
v -0.05186 0.0798 -0.04123
v -0.04388 0.07714 0.03324
v 0.027915 0.07714 0.04123
f 3 4 5
f 3 5 7
f 6 1 8
f 1 6 9
f 5 4 10
f 13 5 14
f 4 11 2
f 1 9 2
f 13 8 7
f 10 4 2
f 3 7 12
f 1 11 12
f 9 14 10
f 1 12 8
f 5 10 14
f 13 7 5
f 14 9 6
f 12 11 3
f 11 4 3
f 10 2 9
f 14 6 13
f 6 8 13
f 7 8 12
f 2 11 1
