# Original object name hint: convex_1
v 0.03368 -0.05717 0.01940
v -0.01939 -0.05921 -0.03165
v -0.01939 -0.05717 -0.03165
v -0.04388 -0.05309 0.01940
v -0.02551 -0.06534 0.01940
v -0.01122 -0.04492 0.02143
v 0.03368 -0.06125 -0.02756
v 0.00714 -0.05105 -0.02756
v 0.03163 -0.06534 0.01530
v -0.02960 -0.06125 -0.02552
v -0.04184 -0.05105 0.00715
v 0.03777 -0.05717 0.00306
v -0.00918 -0.06534 0.00101
v 0.00101 -0.06125 0.02347
v -0.04184 -0.06125 0.00510
v -0.02347 -0.04492 0.01530
v -0.02143 -0.05513 -0.02960
v 0.03163 -0.05717 -0.02960
v -0.02755 -0.06125 0.02347
v 0.03777 -0.06329 0.01735
v 0.02143 -0.06125 -0.03165
v -0.00918 -0.04492 0.01530
v 0.02756 -0.05513 -0.02552
v -0.04388 -0.05309 0.00306
v 0.03163 -0.06329 0.02143
v -0.04184 -0.06125 0.01735
v 0.00509 -0.05309 -0.03165
v 0.03163 -0.05513 0.01735
v -0.01530 -0.06125 -0.03165
v 0.03163 -0.05717 0.02143
v 0.02959 -0.06534 0.00919
v 0.00101 -0.05105 -0.02756
v -0.02143 -0.04492 0.02143
v -0.02551 -0.06534 0.01122
v -0.04388 -0.05921 0.00306
v 0.03163 -0.05513 0.00306
v -0.02755 -0.05717 -0.02756
v -0.00103 -0.05717 0.02347
v 0.03777 -0.05717 0.01530
v -0.04184 -0.05105 0.01735
v -0.03572 -0.06329 0.00919
v 0.03368 -0.05717 -0.02756
v 0.00101 -0.06534 0.00101
v -0.02551 -0.05717 0.02347
v -0.04388 -0.05717 0.01940
v 0.00918 -0.06534 0.01940
v 0.03777 -0.06329 0.01122
v 0.03163 -0.06125 -0.02960
v -0.03164 -0.06329 0.02143
v -0.02755 -0.06125 -0.02756
v -0.01734 -0.05513 -0.03165
v -0.01939 -0.06534 0.00510
v 0.03368 -0.05921 0.02143
v 0.02143 -0.05717 -0.03165
v 0.03777 -0.06125 0.00306
v 0.03163 -0.06534 0.01122
v 0.02959 -0.06534 0.01735
v -0.00918 -0.04492 0.01940
v -0.02347 -0.06125 -0.02960
v -0.02960 -0.05921 -0.02552
v -0.04388 -0.05921 0.01735
v 0.02347 -0.05513 -0.02960
v -0.02347 -0.04492 0.01940
v -0.00103 -0.05309 -0.03165
v -0.02552 -0.04288 0.01736
v -0.00102 -0.02450 0.01940
v -0.00102 -0.02450 0.01736
v -0.02756 -0.02450 0.01736
v -0.01123 -0.03675 0.01327
v -0.01123 -0.04492 0.02144
v -0.02756 -0.02450 0.02144
v -0.00919 -0.04492 0.01531
v -0.02552 -0.02450 0.01531
v -0.00307 -0.02450 0.02144
v -0.02144 -0.04492 0.02144
v -0.02348 -0.04492 0.01531
v -0.00307 -0.03675 0.01940
v -0.00511 -0.02450 0.01531
v -0.00307 -0.03675 0.01531
v -0.01531 -0.03267 0.01327
v -0.02756 -0.03675 0.01940
v -0.00715 -0.04492 0.01940
v -0.02552 -0.03675 0.01531
v -0.00307 -0.02859 0.02144
v -0.02756 -0.03675 0.01736
v -0.00307 -0.02859 0.01531
v -0.02552 -0.03675 0.02144
v -0.02552 -0.04288 0.01940
v -0.01531 -0.03675 0.01327
v -0.01123 -0.03267 0.01327
v -0.00102 -0.02655 0.01940
v -0.00715 -0.04492 0.01736
v -0.02756 -0.02040 0.02348
v 0.00510 0.06534 0.01940
v 0.01327 0.03470 0.02960
v 0.03164 -0.01836 0.01532
v 0.05206 0.01226 0.02960
v -0.05206 0.01430 0.01940
v 0.00714 0.04899 0.01327
v -0.02551 -0.02449 0.01532
v -0.00510 0.01634 0.03165
v 0.03981 -0.00407 0.02960
v 0.05001 0.01838 0.02348
v -0.05206 0.01634 0.02348
v -0.05002 -0.00815 0.02348
v 0.01939 -0.02244 0.02144
v -0.00715 0.06328 0.01940
v 0.01121 -0.00203 0.03165
v -0.04798 -0.01223 0.01736
v 0.00101 0.05103 0.01327
v 0.00510 0.02653 0.03165
v 0.05206 0.01838 0.02960
v 0.02755 0.02245 0.01532
v 0.00101 -0.02244 0.02348
v -0.02960 0.03674 0.02348
v -0.00715 0.06328 0.01736
v -0.03164 0.00817 0.01532
v 0.00510 0.06124 0.01532
v -0.02756 -0.02449 0.02144
v 0.00101 0.00001 0.03165
v 0.05206 0.02042 0.02552
v -0.00306 -0.02449 0.01532
v 0.02551 0.00817 0.03165
v 0.02960 -0.01836 0.02348
v 0.05206 0.01226 0.02552
v 0.01939 0.02449 0.03165
v 0.02347 -0.01223 0.02756
v -0.00101 -0.00815 0.02960
v -0.03164 -0.01428 0.01532
v 0.00101 0.04491 0.01327
v -0.05002 0.01838 0.01940
v -0.00510 0.00817 0.03165
v 0.00510 0.06534 0.01736
v 0.03164 -0.01836 0.02144
v 0.00101 -0.02449 0.02144
v -0.02347 -0.02244 0.02348
v -0.00306 0.06534 0.01940
v -0.04798 -0.01019 0.02348
v 0.01939 -0.02244 0.01736
v 0.01939 0.03266 0.02960
v 0.01734 -0.00203 0.03165
v 0.02960 0.02857 0.01736
v -0.05206 0.00817 0.02348
v -0.04798 -0.00407 0.01736
v -0.02960 0.01430 0.01532
v -0.05002 -0.00815 0.01940
v 0.05206 0.02042 0.02756
v -0.04798 -0.01223 0.02144
v -0.01327 0.04491 0.01532
v 0.02551 -0.01632 0.02552
v 0.01530 -0.00815 0.02960
v 0.03368 0.02042 0.01736
v 0.00714 0.04491 0.01327
v 0.00714 0.03470 0.02960
v 0.02143 0.00001 0.03165
v -0.02756 -0.02449 0.01736
f 79 82 92 
f 66 67 68 
f 66 68 71 
f 68 67 73 
f 71 70 74 
f 66 71 74 
f 70 71 75 
f 72 70 75 
f 72 75 76 
f 69 72 76 
f 73 67 78 
f 72 69 79 
f 73 78 80 
f 71 68 81 
f 70 72 82 
f 79 77 82 
f 68 73 83 
f 73 80 83 
f 66 74 84 
f 74 70 84 
f 70 82 84 
f 82 77 84 
f 76 65 85 
f 65 81 85 
f 81 68 85 
f 68 83 85 
f 83 76 85 
f 78 67 86 
f 79 69 86 
f 67 79 86 
f 75 71 87 
f 71 81 87 
f 87 81 88 
f 76 75 88 
f 65 76 88 
f 81 65 88 
f 75 87 88 
f 69 76 89 
f 80 69 89 
f 76 83 89 
f 83 80 89 
f 69 80 90 
f 80 78 90 
f 78 86 90 
f 86 69 90 
f 67 66 91 
f 79 67 91 
f 77 79 91 
f 66 84 91 
f 84 77 91 
f 72 79 92 
f 82 72 92 
