# Original object name hint: convex_0
v 0.03368 -0.05717 0.01940
v -0.01939 -0.05921 -0.03165
v -0.01939 -0.05717 -0.03165
v -0.04388 -0.05309 0.01940
v -0.02551 -0.06534 0.01940
v -0.01122 -0.04492 0.02143
v 0.03368 -0.06125 -0.02756
v 0.00714 -0.05105 -0.02756
v 0.03163 -0.06534 0.01530
v -0.02960 -0.06125 -0.02552
v -0.04184 -0.05105 0.00715
v 0.03777 -0.05717 0.00306
v -0.00918 -0.06534 0.00101
v 0.00101 -0.06125 0.02347
v -0.04184 -0.06125 0.00510
v -0.02347 -0.04492 0.01530
v -0.02143 -0.05513 -0.02960
v 0.03163 -0.05717 -0.02960
v -0.02755 -0.06125 0.02347
v 0.03777 -0.06329 0.01735
v 0.02143 -0.06125 -0.03165
v -0.00918 -0.04492 0.01530
v 0.02756 -0.05513 -0.02552
v -0.04388 -0.05309 0.00306
v 0.03163 -0.06329 0.02143
v -0.04184 -0.06125 0.01735
v 0.00509 -0.05309 -0.03165
v 0.03163 -0.05513 0.01735
v -0.01530 -0.06125 -0.03165
v 0.03163 -0.05717 0.02143
v 0.02959 -0.06534 0.00919
v 0.00101 -0.05105 -0.02756
v -0.02143 -0.04492 0.02143
v -0.02551 -0.06534 0.01122
v -0.04388 -0.05921 0.00306
v 0.03163 -0.05513 0.00306
v -0.02755 -0.05717 -0.02756
v -0.00103 -0.05717 0.02347
v 0.03777 -0.05717 0.01530
v -0.04184 -0.05105 0.01735
v -0.03572 -0.06329 0.00919
v 0.03368 -0.05717 -0.02756
v 0.00101 -0.06534 0.00101
v -0.02551 -0.05717 0.02347
v -0.04388 -0.05717 0.01940
v 0.00918 -0.06534 0.01940
v 0.03777 -0.06329 0.01122
v 0.03163 -0.06125 -0.02960
v -0.03164 -0.06329 0.02143
v -0.02755 -0.06125 -0.02756
v -0.01734 -0.05513 -0.03165
v -0.01939 -0.06534 0.00510
v 0.03368 -0.05921 0.02143
v 0.02143 -0.05717 -0.03165
v 0.03777 -0.06125 0.00306
v 0.03163 -0.06534 0.01122
v 0.02959 -0.06534 0.01735
v -0.00918 -0.04492 0.01940
v -0.02347 -0.06125 -0.02960
v -0.02960 -0.05921 -0.02552
v -0.04388 -0.05921 0.01735
v 0.02347 -0.05513 -0.02960
v -0.02347 -0.04492 0.01940
v -0.00103 -0.05309 -0.03165
v -0.02552 -0.04288 0.01736
v -0.00102 -0.02450 0.01940
v -0.00102 -0.02450 0.01736
v -0.02756 -0.02450 0.01736
v -0.01123 -0.03675 0.01327
v -0.01123 -0.04492 0.02144
v -0.02756 -0.02450 0.02144
v -0.00919 -0.04492 0.01531
v -0.02552 -0.02450 0.01531
v -0.00307 -0.02450 0.02144
v -0.02144 -0.04492 0.02144
v -0.02348 -0.04492 0.01531
v -0.00307 -0.03675 0.01940
v -0.00511 -0.02450 0.01531
v -0.00307 -0.03675 0.01531
v -0.01531 -0.03267 0.01327
v -0.02756 -0.03675 0.01940
v -0.00715 -0.04492 0.01940
v -0.02552 -0.03675 0.01531
v -0.00307 -0.02859 0.02144
v -0.02756 -0.03675 0.01736
v -0.00307 -0.02859 0.01531
v -0.02552 -0.03675 0.02144
v -0.02552 -0.04288 0.01940
v -0.01531 -0.03675 0.01327
v -0.01123 -0.03267 0.01327
v -0.00102 -0.02655 0.01940
v -0.00715 -0.04492 0.01736
v -0.02756 -0.02040 0.02348
v 0.00510 0.06534 0.01940
v 0.01327 0.03470 0.02960
v 0.03164 -0.01836 0.01532
v 0.05206 0.01226 0.02960
v -0.05206 0.01430 0.01940
v 0.00714 0.04899 0.01327
v -0.02551 -0.02449 0.01532
v -0.00510 0.01634 0.03165
v 0.03981 -0.00407 0.02960
v 0.05001 0.01838 0.02348
v -0.05206 0.01634 0.02348
v -0.05002 -0.00815 0.02348
v 0.01939 -0.02244 0.02144
v -0.00715 0.06328 0.01940
v 0.01121 -0.00203 0.03165
v -0.04798 -0.01223 0.01736
v 0.00101 0.05103 0.01327
v 0.00510 0.02653 0.03165
v 0.05206 0.01838 0.02960
v 0.02755 0.02245 0.01532
v 0.00101 -0.02244 0.02348
v -0.02960 0.03674 0.02348
v -0.00715 0.06328 0.01736
v -0.03164 0.00817 0.01532
v 0.00510 0.06124 0.01532
v -0.02756 -0.02449 0.02144
v 0.00101 0.00001 0.03165
v 0.05206 0.02042 0.02552
v -0.00306 -0.02449 0.01532
v 0.02551 0.00817 0.03165
v 0.02960 -0.01836 0.02348
v 0.05206 0.01226 0.02552
v 0.01939 0.02449 0.03165
v 0.02347 -0.01223 0.02756
v -0.00101 -0.00815 0.02960
v -0.03164 -0.01428 0.01532
v 0.00101 0.04491 0.01327
v -0.05002 0.01838 0.01940
v -0.00510 0.00817 0.03165
v 0.00510 0.06534 0.01736
v 0.03164 -0.01836 0.02144
v 0.00101 -0.02449 0.02144
v -0.02347 -0.02244 0.02348
v -0.00306 0.06534 0.01940
v -0.04798 -0.01019 0.02348
v 0.01939 -0.02244 0.01736
v 0.01939 0.03266 0.02960
v 0.01734 -0.00203 0.03165
v 0.02960 0.02857 0.01736
v -0.05206 0.00817 0.02348
v -0.04798 -0.00407 0.01736
v -0.02960 0.01430 0.01532
v -0.05002 -0.00815 0.01940
v 0.05206 0.02042 0.02756
v -0.04798 -0.01223 0.02144
v -0.01327 0.04491 0.01532
v 0.02551 -0.01632 0.02552
v 0.01530 -0.00815 0.02960
v 0.03368 0.02042 0.01736
v 0.00714 0.04491 0.01327
v 0.00714 0.03470 0.02960
v 0.02143 0.00001 0.03165
v -0.02756 -0.02449 0.01736
f 51 32 64 
f 9 5 13 
f 11 16 17 
f 5 14 19 
f 2 3 21 
f 16 6 22 
f 8 16 22 
f 8 22 23 
f 4 11 24 
f 11 17 24 
f 21 3 27 
f 2 21 29 
f 21 13 29 
f 1 28 30 
f 28 6 30 
f 9 13 31 
f 16 8 32 
f 17 16 32 
f 8 27 32 
f 6 16 33 
f 13 5 34 
f 10 15 35 
f 4 24 35 
f 24 10 35 
f 15 26 35 
f 23 22 36 
f 28 12 36 
f 22 28 36 
f 3 2 37 
f 24 17 37 
f 19 14 38 
f 30 6 38 
f 6 33 38 
f 20 12 39 
f 28 1 39 
f 12 28 39 
f 11 4 40 
f 16 11 40 
f 4 33 40 
f 15 10 41 
f 26 15 41 
f 5 26 41 
f 34 5 41 
f 10 34 41 
f 12 7 42 
f 7 18 42 
f 36 12 42 
f 23 36 42 
f 13 21 43 
f 31 13 43 
f 4 19 44 
f 33 4 44 
f 19 38 44 
f 38 33 44 
f 19 4 45 
f 4 35 45 
f 5 9 46 
f 14 5 46 
f 25 14 46 
f 20 9 47 
f 12 20 47 
f 18 7 48 
f 21 18 48 
f 7 31 48 
f 43 21 48 
f 31 43 48 
f 5 19 49 
f 26 5 49 
f 19 45 49 
f 45 26 49 
f 37 2 50 
f 10 37 50 
f 27 3 51 
f 17 32 51 
f 3 37 51 
f 37 17 51 
f 13 34 52 
f 34 10 52 
f 10 50 52 
f 14 25 53 
f 25 20 53 
f 1 30 53 
f 38 14 53 
f 30 38 53 
f 39 1 53 
f 20 39 53 
f 18 21 54 
f 27 18 54 
f 21 27 54 
f 7 12 55 
f 47 7 55 
f 12 47 55 
f 31 7 56 
f 9 31 56 
f 7 47 56 
f 47 9 56 
f 9 20 57 
f 20 25 57 
f 46 9 57 
f 25 46 57 
f 22 6 58 
f 6 28 58 
f 28 22 58 
f 2 29 59 
f 29 13 59 
f 50 2 59 
f 13 52 59 
f 52 50 59 
f 10 24 60 
f 37 10 60 
f 24 37 60 
f 35 26 61 
f 26 45 61 
f 45 35 61 
f 8 23 62 
f 27 8 62 
f 18 27 62 
f 42 18 62 
f 23 42 62 
f 33 16 63 
f 16 40 63 
f 40 33 63 
f 32 27 64 
f 27 51 64 
