# Original object name hint: convex_2
v 0.03368 -0.05717 0.01940
v -0.01939 -0.05921 -0.03165
v -0.01939 -0.05717 -0.03165
v -0.04388 -0.05309 0.01940
v -0.02551 -0.06534 0.01940
v -0.01122 -0.04492 0.02143
v 0.03368 -0.06125 -0.02756
v 0.00714 -0.05105 -0.02756
v 0.03163 -0.06534 0.01530
v -0.02960 -0.06125 -0.02552
v -0.04184 -0.05105 0.00715
v 0.03777 -0.05717 0.00306
v -0.00918 -0.06534 0.00101
v 0.00101 -0.06125 0.02347
v -0.04184 -0.06125 0.00510
v -0.02347 -0.04492 0.01530
v -0.02143 -0.05513 -0.02960
v 0.03163 -0.05717 -0.02960
v -0.02755 -0.06125 0.02347
v 0.03777 -0.06329 0.01735
v 0.02143 -0.06125 -0.03165
v -0.00918 -0.04492 0.01530
v 0.02756 -0.05513 -0.02552
v -0.04388 -0.05309 0.00306
v 0.03163 -0.06329 0.02143
v -0.04184 -0.06125 0.01735
v 0.00509 -0.05309 -0.03165
v 0.03163 -0.05513 0.01735
v -0.01530 -0.06125 -0.03165
v 0.03163 -0.05717 0.02143
v 0.02959 -0.06534 0.00919
v 0.00101 -0.05105 -0.02756
v -0.02143 -0.04492 0.02143
v -0.02551 -0.06534 0.01122
v -0.04388 -0.05921 0.00306
v 0.03163 -0.05513 0.00306
v -0.02755 -0.05717 -0.02756
v -0.00103 -0.05717 0.02347
v 0.03777 -0.05717 0.01530
v -0.04184 -0.05105 0.01735
v -0.03572 -0.06329 0.00919
v 0.03368 -0.05717 -0.02756
v 0.00101 -0.06534 0.00101
v -0.02551 -0.05717 0.02347
v -0.04388 -0.05717 0.01940
v 0.00918 -0.06534 0.01940
v 0.03777 -0.06329 0.01122
v 0.03163 -0.06125 -0.02960
v -0.03164 -0.06329 0.02143
v -0.02755 -0.06125 -0.02756
v -0.01734 -0.05513 -0.03165
v -0.01939 -0.06534 0.00510
v 0.03368 -0.05921 0.02143
v 0.02143 -0.05717 -0.03165
v 0.03777 -0.06125 0.00306
v 0.03163 -0.06534 0.01122
v 0.02959 -0.06534 0.01735
v -0.00918 -0.04492 0.01940
v -0.02347 -0.06125 -0.02960
v -0.02960 -0.05921 -0.02552
v -0.04388 -0.05921 0.01735
v 0.02347 -0.05513 -0.02960
v -0.02347 -0.04492 0.01940
v -0.00103 -0.05309 -0.03165
v -0.02552 -0.04288 0.01736
v -0.00102 -0.02450 0.01940
v -0.00102 -0.02450 0.01736
v -0.02756 -0.02450 0.01736
v -0.01123 -0.03675 0.01327
v -0.01123 -0.04492 0.02144
v -0.02756 -0.02450 0.02144
v -0.00919 -0.04492 0.01531
v -0.02552 -0.02450 0.01531
v -0.00307 -0.02450 0.02144
v -0.02144 -0.04492 0.02144
v -0.02348 -0.04492 0.01531
v -0.00307 -0.03675 0.01940
v -0.00511 -0.02450 0.01531
v -0.00307 -0.03675 0.01531
v -0.01531 -0.03267 0.01327
v -0.02756 -0.03675 0.01940
v -0.00715 -0.04492 0.01940
v -0.02552 -0.03675 0.01531
v -0.00307 -0.02859 0.02144
v -0.02756 -0.03675 0.01736
v -0.00307 -0.02859 0.01531
v -0.02552 -0.03675 0.02144
v -0.02552 -0.04288 0.01940
v -0.01531 -0.03675 0.01327
v -0.01123 -0.03267 0.01327
v -0.00102 -0.02655 0.01940
v -0.00715 -0.04492 0.01736
v -0.02756 -0.02040 0.02348
v 0.00510 0.06534 0.01940
v 0.01327 0.03470 0.02960
v 0.03164 -0.01836 0.01532
v 0.05206 0.01226 0.02960
v -0.05206 0.01430 0.01940
v 0.00714 0.04899 0.01327
v -0.02551 -0.02449 0.01532
v -0.00510 0.01634 0.03165
v 0.03981 -0.00407 0.02960
v 0.05001 0.01838 0.02348
v -0.05206 0.01634 0.02348
v -0.05002 -0.00815 0.02348
v 0.01939 -0.02244 0.02144
v -0.00715 0.06328 0.01940
v 0.01121 -0.00203 0.03165
v -0.04798 -0.01223 0.01736
v 0.00101 0.05103 0.01327
v 0.00510 0.02653 0.03165
v 0.05206 0.01838 0.02960
v 0.02755 0.02245 0.01532
v 0.00101 -0.02244 0.02348
v -0.02960 0.03674 0.02348
v -0.00715 0.06328 0.01736
v -0.03164 0.00817 0.01532
v 0.00510 0.06124 0.01532
v -0.02756 -0.02449 0.02144
v 0.00101 0.00001 0.03165
v 0.05206 0.02042 0.02552
v -0.00306 -0.02449 0.01532
v 0.02551 0.00817 0.03165
v 0.02960 -0.01836 0.02348
v 0.05206 0.01226 0.02552
v 0.01939 0.02449 0.03165
v 0.02347 -0.01223 0.02756
v -0.00101 -0.00815 0.02960
v -0.03164 -0.01428 0.01532
v 0.00101 0.04491 0.01327
v -0.05002 0.01838 0.01940
v -0.00510 0.00817 0.03165
v 0.00510 0.06534 0.01736
v 0.03164 -0.01836 0.02144
v 0.00101 -0.02449 0.02144
v -0.02347 -0.02244 0.02348
v -0.00306 0.06534 0.01940
v -0.04798 -0.01019 0.02348
v 0.01939 -0.02244 0.01736
v 0.01939 0.03266 0.02960
v 0.01734 -0.00203 0.03165
v 0.02960 0.02857 0.01736
v -0.05206 0.00817 0.02348
v -0.04798 -0.00407 0.01736
v -0.02960 0.01430 0.01532
v -0.05002 -0.00815 0.01940
v 0.05206 0.02042 0.02756
v -0.04798 -0.01223 0.02144
v -0.01327 0.04491 0.01532
v 0.02551 -0.01632 0.02552
v 0.01530 -0.00815 0.02960
v 0.03368 0.02042 0.01736
v 0.00714 0.04491 0.01327
v 0.00714 0.03470 0.02960
v 0.02143 0.00001 0.03165
v -0.02756 -0.02449 0.01736
f 119 109 156 
f 104 101 111 
f 101 108 111 
f 96 99 113 
f 107 104 115 
f 104 111 115 
f 111 107 115 
f 104 107 116 
f 99 110 118 
f 110 116 118 
f 108 101 120 
f 112 97 121 
f 103 118 121 
f 119 100 122 
f 111 108 123 
f 97 112 123 
f 97 96 125 
f 96 103 125 
f 121 97 125 
f 103 121 125 
f 95 111 126 
f 111 123 126 
f 123 112 126 
f 108 120 128 
f 100 109 129 
f 109 117 129 
f 117 110 129 
f 110 99 130 
f 122 100 130 
f 100 129 130 
f 129 110 130 
f 98 104 131 
f 104 116 131 
f 101 104 132 
f 120 101 132 
f 105 120 132 
f 118 116 133 
f 94 121 133 
f 121 118 133 
f 96 97 134 
f 97 102 134 
f 106 96 134 
f 102 124 134 
f 124 106 134 
f 106 114 135 
f 114 119 135 
f 119 122 135 
f 93 119 136 
f 119 114 136 
f 128 93 136 
f 114 128 136 
f 95 94 137 
f 107 111 137 
f 116 107 137 
f 94 133 137 
f 133 116 137 
f 119 93 138 
f 120 105 138 
f 93 128 138 
f 128 120 138 
f 96 106 139 
f 122 96 139 
f 106 135 139 
f 135 122 139 
f 94 95 140 
f 112 94 140 
f 95 126 140 
f 126 112 140 
f 123 108 141 
f 108 128 141 
f 113 99 142 
f 118 103 142 
f 99 118 142 
f 104 98 143 
f 132 104 143 
f 105 132 143 
f 109 98 144 
f 117 109 144 
f 117 144 145 
f 110 117 145 
f 98 131 145 
f 131 110 145 
f 144 98 145 
f 98 109 146 
f 109 105 146 
f 143 98 146 
f 105 143 146 
f 94 112 147 
f 121 94 147 
f 112 121 147 
f 105 109 148 
f 109 119 148 
f 138 105 148 
f 119 138 148 
f 116 110 149 
f 110 131 149 
f 131 116 149 
f 114 106 150 
f 124 102 150 
f 106 124 150 
f 102 127 150 
f 127 114 150 
f 127 102 151 
f 114 127 151 
f 128 114 151 
f 102 141 151 
f 141 128 151 
f 103 96 152 
f 96 113 152 
f 113 142 152 
f 142 103 152 
f 99 96 153 
f 96 122 153 
f 130 99 153 
f 122 130 153 
f 111 95 154 
f 95 137 154 
f 137 111 154 
f 102 97 155 
f 97 123 155 
f 141 102 155 
f 123 141 155 
f 109 100 156 
f 100 119 156 
