# Original object name hint: convex_2
v 0.06602 0.07025 0.07165
v -0.07163 0.06182 0.02951
v -0.07163 0.06463 0.02951
v 0.07446 0.06182 0.02951
v -0.00419 0.08992 0.06041
v -0.05477 0.05620 0.07165
v 0.06322 0.07867 0.02951
v 0.03231 0.05058 0.03232
v -0.05757 0.07586 0.07165
v 0.06602 0.05620 0.06322
v -0.03791 0.08148 0.03232
v 0.01264 0.08429 0.07727
v -0.06319 0.05339 0.02951
v 0.06602 0.07867 0.06041
v 0.05478 0.06182 0.07446
v -0.06039 0.06463 0.07446
v 0.06884 0.05339 0.02951
v 0.00702 0.08992 0.07165
v -0.06319 0.07586 0.06322
v -0.06881 0.06182 0.06603
v -0.06319 0.07305 0.02951
v 0.07446 0.07305 0.05199
v 0.02388 0.08429 0.03794
v 0.07164 0.05901 0.06603
v 0.00983 0.05620 0.07165
v -0.00981 0.07025 0.07727
v 0.05478 0.07867 0.07165
v -0.00701 0.08429 0.07727
v -0.00701 0.08992 0.06884
v 0.00983 0.08992 0.06603
v -0.00139 0.05901 0.07446
v -0.06881 0.07025 0.06603
v -0.05477 0.07867 0.05479
v 0.01545 0.05058 0.02951
v 0.07164 0.07586 0.03513
v 0.07164 0.07305 0.06603
v 0.05760 0.07305 0.07446
v -0.06039 0.05339 0.03794
v -0.06319 0.05620 0.06603
v -0.04353 0.07867 0.02951
v -0.06881 0.05620 0.03513
v 0.06322 0.05901 0.07165
v 0.01545 0.07025 0.07727
v -0.06881 0.07025 0.02951
v -0.05477 0.07867 0.06884
v 0.07446 0.05901 0.04356
v -0.04071 0.08148 0.03513
v 0.06602 0.07867 0.03232
v -0.00981 0.08429 0.03794
v -0.00981 0.08710 0.07446
v 0.01545 0.05058 0.03232
v 0.00702 0.08992 0.06041
v -0.05757 0.06182 0.07446
v 0.06884 0.05339 0.03513
v 0.07446 0.06744 0.02951
v -0.05757 0.07025 0.07446
v -0.06601 0.07025 0.07165
v -0.06601 0.06182 0.07165
v 0.07446 0.06463 0.05760
v -0.06039 0.07586 0.04075
v 0.06040 0.06463 0.07446
v -0.07163 0.06182 0.03794
v 0.06602 0.07586 0.06884
v 0.07164 0.07586 0.06041
v -0.02385 -0.08992 -0.03232
v -0.02385 -0.06744 -0.07446
v -0.02385 -0.06463 -0.07446
v 0.06323 -0.06463 -0.05198
v 0.02670 -0.08710 -0.07165
v -0.04916 -0.06463 -0.03793
v -0.07165 -0.08149 -0.05760
v 0.03230 -0.08710 -0.02950
v -0.02385 -0.08710 -0.07165
v 0.06042 -0.08430 -0.05760
v 0.02951 -0.07587 -0.02950
v 0.01826 -0.06463 -0.07446
v -0.04073 -0.08430 -0.02950
v -0.05479 -0.06463 -0.06603
v 0.03512 -0.08992 -0.05760
v 0.02951 -0.06463 -0.03793
v -0.07165 -0.07306 -0.04918
v -0.02668 -0.08992 -0.06041
v -0.02948 -0.07306 -0.02950
v 0.06042 -0.08149 -0.04636
v -0.01825 -0.08430 -0.07446
v 0.02389 -0.08992 -0.02950
v -0.05757 -0.07868 -0.06603
v 0.06042 -0.06463 -0.04636
v -0.06602 -0.08430 -0.05198
v -0.00982 -0.06463 -0.03513
v 0.02106 -0.08430 -0.07446
v -0.07165 -0.07306 -0.06041
v 0.05198 -0.08710 -0.04918
v 0.01826 -0.08992 -0.06603
v -0.07165 -0.08149 -0.04918
v -0.05197 -0.07306 -0.03513
v -0.05197 -0.08710 -0.05760
v 0.06042 -0.07587 -0.05760
v 0.03512 -0.07868 -0.02950
v -0.05757 -0.06463 -0.05478
v 0.02951 -0.07587 -0.07165
v -0.03511 -0.08992 -0.04636
v -0.03511 -0.08710 -0.02950
v -0.06321 -0.08149 -0.06322
v -0.04916 -0.07587 -0.06884
v -0.04916 -0.06463 -0.06884
v -0.05197 -0.08710 -0.04636
v 0.06323 -0.07868 -0.04918
v 0.06042 -0.08430 -0.04918
v -0.03793 -0.07587 -0.02950
v -0.01544 -0.08992 -0.06603
v -0.03230 -0.06463 -0.03513
v -0.04916 -0.08710 -0.06041
v -0.05197 -0.08149 -0.03513
v 0.02951 -0.08430 -0.07165
v -0.02105 -0.08992 -0.02950
v 0.02670 -0.06744 -0.07165
v 0.06323 -0.07868 -0.05478
v -0.06883 -0.07868 -0.04636
v 0.03512 -0.08430 -0.02950
v -0.01262 -0.07306 -0.02950
v 0.03512 -0.08992 -0.04918
v 0.02388 -0.08992 0.00703
v -0.04073 -0.08430 -0.02950
v -0.04634 -0.08430 -0.00702
v -0.01263 -0.06744 0.00703
v 0.02950 -0.07587 -0.02950
v -0.03230 -0.06744 -0.01825
v -0.02949 -0.08710 0.02108
v 0.03512 -0.07587 0.00983
v -0.05198 -0.06744 0.00703
v 0.02107 -0.08992 -0.02950
v -0.02106 -0.08992 -0.02950
v 0.03231 -0.08710 0.01545
v 0.03231 -0.08710 -0.02950
v -0.02667 -0.08992 0.01264
v -0.03510 -0.07587 -0.02950
v 0.02668 -0.07306 -0.02107
v -0.02106 -0.08430 0.02108
v -0.04634 -0.08430 0.00983
v 0.03793 -0.08430 -0.00141
v 0.03231 -0.07306 0.00421
v -0.01544 -0.06744 -0.01825
v 0.02388 -0.08430 0.01826
v -0.05198 -0.06744 0.00140
v -0.04073 -0.08710 -0.00141
v 0.03793 -0.07868 -0.00141
v -0.04915 -0.08148 -0.00421
v -0.04073 -0.07868 -0.02950
v 0.02388 -0.08710 0.01826
v 0.03512 -0.08710 0.00983
v 0.03231 -0.07587 -0.02388
v 0.02668 -0.08992 -0.00421
v -0.03510 -0.08710 -0.02950
v 0.03512 -0.07868 0.01264
v 0.03231 -0.07306 -0.00141
v 0.03793 -0.08430 0.00703
v 0.03231 -0.07868 -0.02950
v 0.02107 -0.08992 0.00983
v -0.04634 -0.07025 0.00983
v -0.04634 -0.08148 -0.01545
v -0.04915 -0.08148 0.00703
v -0.02949 -0.08430 0.02108
v -0.04073 -0.08710 0.00703
v 0.03512 -0.08710 -0.00702
v -0.04916 0.07587 0.02951
v -0.02105 0.03934 -0.07446
v -0.03230 0.03934 -0.07164
v 0.02951 0.04496 0.02669
v 0.04075 0.06743 -0.02950
v -0.06321 0.05339 0.02951
v -0.06602 0.06181 -0.04073
v 0.04075 0.07587 0.02951
v -0.01545 0.06743 -0.05759
v 0.02107 0.03934 -0.06602
v -0.03791 0.03934 0.00983
v -0.07164 0.04496 -0.04354
v -0.07164 0.06462 0.02951
v 0.04075 0.05058 0.00422
v 0.02388 0.03934 0.00983
v -0.00140 0.06181 -0.06602
v -0.02669 0.06181 -0.06602
v 0.04075 0.07587 0.01826
v -0.05758 0.07305 0.00703
v -0.07446 0.05620 -0.04073
v 0.04075 0.05339 0.02951
v 0.01265 0.04496 -0.07164
v 0.04075 0.05620 -0.02950
v -0.06883 0.07024 0.02388
v -0.04073 0.03934 -0.06883
v 0.00420 0.07024 -0.03793
v -0.06883 0.05058 0.00983
v 0.02670 0.03934 -0.04354
v -0.03791 0.07587 0.02107
v -0.07446 0.04777 -0.03230
v -0.01266 0.04777 -0.07446
v 0.03512 0.04496 0.01826
v -0.03230 0.06462 -0.06040
v -0.03230 0.05339 -0.06883
v 0.00420 0.06462 -0.06040
v -0.07164 0.06181 -0.03512
v -0.07164 0.04496 -0.03230
v 0.02107 0.07024 -0.03230
v 0.00701 0.03934 -0.07446
v 0.01265 0.04777 0.02951
v 0.03232 0.06462 -0.04073
v 0.01545 0.04496 0.02669
v -0.07164 0.05620 -0.04354
v -0.06602 0.04777 0.00422
v 0.02107 0.03934 0.01264
v -0.06883 0.05620 0.02951
v -0.06040 0.06462 -0.03512
v -0.02386 0.06743 -0.05478
v -0.00985 0.07024 -0.03793
v -0.06321 0.07305 0.02951
v 0.04075 0.06462 -0.03230
v 0.00420 0.04496 -0.07446
v 0.01545 0.04215 -0.07164
v -0.00421 0.05900 -0.06883
v -0.06602 0.07024 0.00703
v -0.04073 0.04215 -0.06883
v 0.04075 0.07305 -0.00142
v -0.05478 0.07305 0.00422
v 0.00420 0.05900 -0.06602
v -0.00140 0.06743 -0.05478
v 0.04075 0.05058 0.02669
v -0.02386 0.05900 -0.06883
v -0.02949 0.04777 -0.07164
v -0.07164 0.06181 0.02951
v 0.06323 0.05058 -0.03512
v 0.07166 0.07305 0.02951
v 0.07166 0.05620 0.02951
v 0.04075 0.05339 0.02951
v 0.04075 0.06743 -0.02669
v 0.04075 0.07587 0.02951
v 0.06885 0.05901 -0.03231
v 0.06323 0.07587 0.01264
v 0.06604 0.04777 0.00983
v 0.04075 0.05058 0.00702
v 0.07166 0.05058 -0.02669
v 0.04075 0.05620 -0.02388
v 0.06323 0.04777 -0.03231
v 0.06042 0.05058 0.02951
v 0.04075 0.07587 0.01546
v 0.07166 0.07024 0.00702
v 0.05761 0.06743 -0.02107
v 0.05761 0.04777 0.01264
v 0.06885 0.07587 0.02951
v 0.04075 0.05901 -0.02950
v 0.06885 0.04777 -0.03512
v 0.07166 0.05058 0.00702
v 0.04075 0.05058 0.02107
v 0.06885 0.06743 -0.00983
v 0.06885 0.05058 0.02388
v 0.04075 0.06462 -0.02950
v 0.07166 0.05901 -0.02388
v 0.04075 0.07305 -0.00140
v 0.06885 0.05339 -0.03512
v 0.06604 0.07305 0.00421
v 0.04356 0.06743 -0.02669
v 0.06885 0.06182 -0.02669
v -0.05758 -0.06462 -0.06322
v 0.06602 0.00280 -0.04637
v 0.06602 -0.00001 -0.04355
v -0.07444 0.00280 -0.04637
v 0.00703 0.00280 -0.07727
v 0.06321 -0.06462 -0.04637
v -0.03230 -0.06462 -0.03512
v 0.01546 -0.06462 -0.07446
v 0.06602 -0.00844 -0.06322
v -0.06601 -0.00001 -0.06884
v 0.01826 0.00280 -0.03512
v -0.02387 -0.06462 -0.07446
v 0.06041 -0.05338 -0.04074
v -0.07162 -0.03933 -0.04917
v -0.01824 0.00280 -0.03512
v -0.07162 -0.03091 -0.06602
v -0.05196 -0.05900 -0.03794
v 0.06602 -0.04495 -0.05759
v -0.01824 0.00280 -0.07727
v 0.02950 0.00280 -0.07446
v 0.02950 -0.06462 -0.03794
v -0.07444 0.00280 -0.06322
v 0.00421 -0.03091 -0.07727
v -0.05196 -0.03371 -0.03794
v 0.06884 -0.00001 -0.05759
v 0.06321 -0.00282 -0.04074
v 0.06321 -0.06462 -0.05198
v -0.07444 -0.03371 -0.06041
v 0.04635 -0.02811 -0.06884
v -0.06601 -0.02530 -0.06884
v -0.00982 -0.06462 -0.03512
v -0.04915 -0.06462 -0.06884
v 0.06884 -0.00844 -0.04637
v -0.05196 -0.06462 -0.04074
v -0.06882 0.00280 -0.04355
v -0.01824 -0.02249 -0.07727
v -0.06882 -0.05057 -0.05480
v 0.02950 -0.01687 -0.07446
v 0.06321 -0.04776 -0.04074
v -0.07444 -0.01125 -0.04637
v -0.03230 -0.02530 -0.03512
v 0.02387 -0.06462 -0.07165
v 0.06602 -0.05338 -0.04637
v -0.06601 -0.05338 -0.06322
v 0.00983 -0.02530 -0.07727
v 0.06321 -0.02249 -0.06322
v 0.06884 -0.01406 -0.05759
v -0.07444 -0.03371 -0.05198
v -0.05758 -0.06462 -0.05480
v 0.06321 -0.05900 -0.05480
v -0.03510 0.00280 -0.07446
v 0.06602 0.00280 -0.05198
v 0.06602 -0.00001 -0.06041
v -0.03510 -0.05057 -0.03512
v -0.07162 -0.04495 -0.06041
v -0.07162 0.00280 -0.06602
v 0.01826 -0.00001 -0.03512
v -0.00982 -0.03091 -0.07727
v 0.06884 -0.00844 -0.06041
v -0.06882 -0.01406 -0.04355
v -0.07444 -0.02811 -0.06322
v 0.06602 -0.05338 -0.05198
v -0.06319 -0.03371 -0.06884
v -0.00421 0.00843 -0.03231
v -0.01827 0.00281 -0.07727
v -0.03511 0.00281 -0.07446
v -0.02387 0.03933 -0.07446
v -0.07446 0.01686 -0.04917
v 0.02670 0.03933 -0.03793
v 0.03232 0.00281 -0.07164
v -0.02107 0.03933 -0.02950
v -0.06883 0.00281 -0.04355
v 0.03232 0.00281 -0.04075
v 0.01265 0.03933 -0.07446
v -0.07164 0.00281 -0.06602
v -0.04354 0.03933 -0.06602
v 0.00984 0.02247 -0.02950
v 0.02388 0.03653 -0.06884
v -0.01265 0.01967 -0.02950
v 0.02106 0.03933 -0.03231
v 0.01826 0.00281 -0.03512
v 0.00421 0.01124 -0.07727
v -0.07164 0.01967 -0.04636
v -0.07164 0.01405 -0.06322
v 0.03232 0.00843 -0.07164
v -0.01827 0.00281 -0.03512
v -0.04354 0.03933 -0.06041
v 0.02670 0.00281 -0.07446
v -0.07446 0.00281 -0.04636
v -0.07446 0.01686 -0.05760
v -0.07164 0.00843 -0.06602
v 0.00984 0.03933 -0.02950
v -0.04354 0.03653 -0.06884
v -0.06320 0.00562 -0.06884
v 0.02670 0.01405 -0.07446
v 0.02670 0.03933 -0.04636
v -0.02667 0.03933 -0.03512
v -0.01265 0.01405 -0.07727
v -0.02667 0.03653 -0.07446
v -0.07446 0.00281 -0.06322
v -0.03511 0.01124 -0.07446
v -0.06883 0.00843 -0.04355
v 0.03232 0.00562 -0.04075
v 0.00421 0.00281 -0.07727
v 0.02670 0.00281 -0.03793
v -0.01546 0.02247 -0.02950
v 0.02106 0.03933 -0.06884
v 0.00703 0.01967 -0.02950
v 0.02106 0.03653 -0.07164
v 0.02950 -0.00844 0.01265
v -0.05760 -0.04776 0.00422
v -0.05760 -0.04776 0.00703
v -0.03792 0.03934 0.00422
v 0.01826 0.03652 -0.00140
v -0.01265 -0.06742 0.00141
v 0.01264 0.03934 0.01265
v -0.05196 -0.05899 0.00983
v -0.05477 -0.01125 0.00141
v -0.05477 -0.00844 0.00983
v 0.02669 -0.03090 0.00983
v -0.05196 -0.06742 0.00141
v 0.02669 -0.01966 0.00422
v -0.01825 -0.06180 0.00983
v -0.00703 0.03934 -0.00140
v -0.03510 0.03934 0.00983
v 0.02107 0.03934 0.00983
v -0.01265 -0.06742 0.00703
v -0.03510 0.03934 0.00141
v 0.00983 -0.00563 0.01265
v 0.02107 0.03934 0.00141
v -0.04354 -0.06462 0.00983
v -0.05760 -0.01685 0.00983
v 0.01545 0.02808 -0.00140
v 0.02950 -0.00844 0.00703
v 0.02669 -0.03090 0.00703
v -0.05760 -0.01404 0.00422
v -0.05196 -0.06742 0.00703
v -0.05760 -0.04495 0.00983
v 0.02950 -0.01125 0.01265
v -0.05477 -0.05618 0.00141
v -0.03792 0.03934 0.00703
v 0.01545 0.03934 0.01265
v -0.01264 0.01123 -0.00421
v -0.04636 -0.05057 -0.01264
v -0.04636 -0.05057 -0.00702
v -0.01264 -0.06744 -0.00983
v -0.02949 0.01403 -0.01826
v -0.01545 -0.06744 -0.01826
v -0.00983 0.01403 -0.01826
v -0.04355 -0.00282 -0.00702
v -0.03230 -0.06181 -0.00421
v -0.03230 -0.06744 -0.01826
v -0.02949 0.01403 -0.00421
v -0.04355 -0.00844 -0.01545
v -0.01826 -0.05900 -0.00421
v -0.04355 -0.03652 -0.00421
v -0.00983 -0.00844 -0.00702
v -0.03511 -0.06744 -0.00702
v -0.03511 0.01403 -0.01264
v -0.01264 -0.06744 -0.01545
v -0.01264 -0.06461 -0.00702
v -0.04355 -0.06181 -0.01264
v -0.00983 0.01403 -0.00702
v -0.03511 -0.00001 -0.01826
v -0.04074 -0.00282 -0.00421
v -0.00983 -0.00282 -0.01826
v -0.04636 -0.03371 -0.00702
v -0.03511 -0.04776 -0.01826
v -0.04355 -0.05057 -0.00421
v -0.01545 -0.06744 -0.00702
v -0.01264 -0.00563 -0.00421
v -0.04636 -0.03371 -0.01264
v -0.04355 -0.06181 -0.00983
v -0.03511 0.01123 -0.00702
v 0.01827 0.03652 -0.00703
v -0.01544 0.03091 -0.02950
v -0.01544 0.03934 -0.02950
v -0.03231 0.01405 -0.00703
v -0.02668 0.03934 -0.00703
v 0.00422 0.01405 -0.01826
v 0.01545 0.03934 -0.02388
v -0.01544 0.01405 -0.00422
v -0.02949 0.01405 -0.01826
v 0.00141 0.02248 -0.02950
v 0.01545 0.03934 -0.00422
v -0.02668 0.03934 -0.01826
v 0.00702 0.01686 -0.00984
v -0.01826 0.03934 -0.00422
v 0.01827 0.03371 -0.01826
v 0.00422 0.03934 -0.02950
v -0.03231 0.01967 -0.01546
v -0.02668 0.01686 -0.00422
v -0.00702 0.02248 -0.02950
v 0.00984 0.03091 -0.00422
v 0.00422 0.02529 -0.02950
v 0.01827 0.03934 -0.02107
v 0.01545 0.03091 -0.02107
v 0.00984 0.01967 -0.01265
v 0.00422 0.01405 -0.01265
v -0.01263 0.02529 -0.02950
f 151 153 165 
f 126 128 131 
f 124 127 132 
f 124 132 133 
f 132 123 133 
f 132 127 135 
f 133 123 136 
f 127 124 137 
f 128 127 137 
f 129 131 140 
f 126 130 142 
f 127 128 143 
f 128 126 143 
f 138 127 143 
f 126 139 144 
f 131 128 145 
f 133 136 146 
f 140 125 146 
f 141 135 147 
f 142 130 147 
f 124 125 148 
f 125 140 148 
f 131 145 148 
f 137 124 149 
f 128 137 149 
f 145 128 149 
f 129 136 150 
f 139 129 150 
f 134 144 150 
f 144 139 150 
f 134 123 151 
f 127 138 152 
f 123 132 153 
f 132 135 153 
f 151 123 153 
f 125 124 154 
f 124 133 154 
f 146 125 154 
f 133 146 154 
f 130 126 155 
f 126 144 155 
f 144 134 155 
f 126 142 156 
f 138 143 156 
f 143 126 156 
f 142 147 156 
f 152 138 156 
f 147 152 156 
f 147 130 157 
f 141 147 157 
f 134 151 157 
f 151 141 157 
f 130 155 157 
f 155 134 157 
f 135 127 158 
f 147 135 158 
f 127 152 158 
f 152 147 158 
f 123 134 159 
f 136 123 159 
f 134 150 159 
f 150 136 159 
f 126 131 160 
f 139 126 160 
f 124 148 161 
f 148 145 161 
f 149 124 161 
f 145 149 161 
f 140 131 162 
f 148 140 162 
f 131 148 162 
f 131 129 163 
f 129 139 163 
f 160 131 163 
f 139 160 163 
f 136 129 164 
f 129 140 164 
f 146 136 164 
f 140 146 164 
f 135 141 165 
f 141 151 165 
f 153 135 165 
