# Original object name hint: convex_0
v 0.06602 0.07025 0.07165
v -0.07163 0.06182 0.02951
v -0.07163 0.06463 0.02951
v 0.07446 0.06182 0.02951
v -0.00419 0.08992 0.06041
v -0.05477 0.05620 0.07165
v 0.06322 0.07867 0.02951
v 0.03231 0.05058 0.03232
v -0.05757 0.07586 0.07165
v 0.06602 0.05620 0.06322
v -0.03791 0.08148 0.03232
v 0.01264 0.08429 0.07727
v -0.06319 0.05339 0.02951
v 0.06602 0.07867 0.06041
v 0.05478 0.06182 0.07446
v -0.06039 0.06463 0.07446
v 0.06884 0.05339 0.02951
v 0.00702 0.08992 0.07165
v -0.06319 0.07586 0.06322
v -0.06881 0.06182 0.06603
v -0.06319 0.07305 0.02951
v 0.07446 0.07305 0.05199
v 0.02388 0.08429 0.03794
v 0.07164 0.05901 0.06603
v 0.00983 0.05620 0.07165
v -0.00981 0.07025 0.07727
v 0.05478 0.07867 0.07165
v -0.00701 0.08429 0.07727
v -0.00701 0.08992 0.06884
v 0.00983 0.08992 0.06603
v -0.00139 0.05901 0.07446
v -0.06881 0.07025 0.06603
v -0.05477 0.07867 0.05479
v 0.01545 0.05058 0.02951
v 0.07164 0.07586 0.03513
v 0.07164 0.07305 0.06603
v 0.05760 0.07305 0.07446
v -0.06039 0.05339 0.03794
v -0.06319 0.05620 0.06603
v -0.04353 0.07867 0.02951
v -0.06881 0.05620 0.03513
v 0.06322 0.05901 0.07165
v 0.01545 0.07025 0.07727
v -0.06881 0.07025 0.02951
v -0.05477 0.07867 0.06884
v 0.07446 0.05901 0.04356
v -0.04071 0.08148 0.03513
v 0.06602 0.07867 0.03232
v -0.00981 0.08429 0.03794
v -0.00981 0.08710 0.07446
v 0.01545 0.05058 0.03232
v 0.00702 0.08992 0.06041
v -0.05757 0.06182 0.07446
v 0.06884 0.05339 0.03513
v 0.07446 0.06744 0.02951
v -0.05757 0.07025 0.07446
v -0.06601 0.07025 0.07165
v -0.06601 0.06182 0.07165
v 0.07446 0.06463 0.05760
v -0.06039 0.07586 0.04075
v 0.06040 0.06463 0.07446
v -0.07163 0.06182 0.03794
v 0.06602 0.07586 0.06884
v 0.07164 0.07586 0.06041
v -0.02385 -0.08992 -0.03232
v -0.02385 -0.06744 -0.07446
v -0.02385 -0.06463 -0.07446
v 0.06323 -0.06463 -0.05198
v 0.02670 -0.08710 -0.07165
v -0.04916 -0.06463 -0.03793
v -0.07165 -0.08149 -0.05760
v 0.03230 -0.08710 -0.02950
v -0.02385 -0.08710 -0.07165
v 0.06042 -0.08430 -0.05760
v 0.02951 -0.07587 -0.02950
v 0.01826 -0.06463 -0.07446
v -0.04073 -0.08430 -0.02950
v -0.05479 -0.06463 -0.06603
v 0.03512 -0.08992 -0.05760
v 0.02951 -0.06463 -0.03793
v -0.07165 -0.07306 -0.04918
v -0.02668 -0.08992 -0.06041
v -0.02948 -0.07306 -0.02950
v 0.06042 -0.08149 -0.04636
v -0.01825 -0.08430 -0.07446
v 0.02389 -0.08992 -0.02950
v -0.05757 -0.07868 -0.06603
v 0.06042 -0.06463 -0.04636
v -0.06602 -0.08430 -0.05198
v -0.00982 -0.06463 -0.03513
v 0.02106 -0.08430 -0.07446
v -0.07165 -0.07306 -0.06041
v 0.05198 -0.08710 -0.04918
v 0.01826 -0.08992 -0.06603
v -0.07165 -0.08149 -0.04918
v -0.05197 -0.07306 -0.03513
v -0.05197 -0.08710 -0.05760
v 0.06042 -0.07587 -0.05760
v 0.03512 -0.07868 -0.02950
v -0.05757 -0.06463 -0.05478
v 0.02951 -0.07587 -0.07165
v -0.03511 -0.08992 -0.04636
v -0.03511 -0.08710 -0.02950
v -0.06321 -0.08149 -0.06322
v -0.04916 -0.07587 -0.06884
v -0.04916 -0.06463 -0.06884
v -0.05197 -0.08710 -0.04636
v 0.06323 -0.07868 -0.04918
v 0.06042 -0.08430 -0.04918
v -0.03793 -0.07587 -0.02950
v -0.01544 -0.08992 -0.06603
v -0.03230 -0.06463 -0.03513
v -0.04916 -0.08710 -0.06041
v -0.05197 -0.08149 -0.03513
v 0.02951 -0.08430 -0.07165
v -0.02105 -0.08992 -0.02950
v 0.02670 -0.06744 -0.07165
v 0.06323 -0.07868 -0.05478
v -0.06883 -0.07868 -0.04636
v 0.03512 -0.08430 -0.02950
v -0.01262 -0.07306 -0.02950
v 0.03512 -0.08992 -0.04918
v 0.02388 -0.08992 0.00703
v -0.04073 -0.08430 -0.02950
v -0.04634 -0.08430 -0.00702
v -0.01263 -0.06744 0.00703
v 0.02950 -0.07587 -0.02950
v -0.03230 -0.06744 -0.01825
v -0.02949 -0.08710 0.02108
v 0.03512 -0.07587 0.00983
v -0.05198 -0.06744 0.00703
v 0.02107 -0.08992 -0.02950
v -0.02106 -0.08992 -0.02950
v 0.03231 -0.08710 0.01545
v 0.03231 -0.08710 -0.02950
v -0.02667 -0.08992 0.01264
v -0.03510 -0.07587 -0.02950
v 0.02668 -0.07306 -0.02107
v -0.02106 -0.08430 0.02108
v -0.04634 -0.08430 0.00983
v 0.03793 -0.08430 -0.00141
v 0.03231 -0.07306 0.00421
v -0.01544 -0.06744 -0.01825
v 0.02388 -0.08430 0.01826
v -0.05198 -0.06744 0.00140
v -0.04073 -0.08710 -0.00141
v 0.03793 -0.07868 -0.00141
v -0.04915 -0.08148 -0.00421
v -0.04073 -0.07868 -0.02950
v 0.02388 -0.08710 0.01826
v 0.03512 -0.08710 0.00983
v 0.03231 -0.07587 -0.02388
v 0.02668 -0.08992 -0.00421
v -0.03510 -0.08710 -0.02950
v 0.03512 -0.07868 0.01264
v 0.03231 -0.07306 -0.00141
v 0.03793 -0.08430 0.00703
v 0.03231 -0.07868 -0.02950
v 0.02107 -0.08992 0.00983
v -0.04634 -0.07025 0.00983
v -0.04634 -0.08148 -0.01545
v -0.04915 -0.08148 0.00703
v -0.02949 -0.08430 0.02108
v -0.04073 -0.08710 0.00703
v 0.03512 -0.08710 -0.00702
v -0.04916 0.07587 0.02951
v -0.02105 0.03934 -0.07446
v -0.03230 0.03934 -0.07164
v 0.02951 0.04496 0.02669
v 0.04075 0.06743 -0.02950
v -0.06321 0.05339 0.02951
v -0.06602 0.06181 -0.04073
v 0.04075 0.07587 0.02951
v -0.01545 0.06743 -0.05759
v 0.02107 0.03934 -0.06602
v -0.03791 0.03934 0.00983
v -0.07164 0.04496 -0.04354
v -0.07164 0.06462 0.02951
v 0.04075 0.05058 0.00422
v 0.02388 0.03934 0.00983
v -0.00140 0.06181 -0.06602
v -0.02669 0.06181 -0.06602
v 0.04075 0.07587 0.01826
v -0.05758 0.07305 0.00703
v -0.07446 0.05620 -0.04073
v 0.04075 0.05339 0.02951
v 0.01265 0.04496 -0.07164
v 0.04075 0.05620 -0.02950
v -0.06883 0.07024 0.02388
v -0.04073 0.03934 -0.06883
v 0.00420 0.07024 -0.03793
v -0.06883 0.05058 0.00983
v 0.02670 0.03934 -0.04354
v -0.03791 0.07587 0.02107
v -0.07446 0.04777 -0.03230
v -0.01266 0.04777 -0.07446
v 0.03512 0.04496 0.01826
v -0.03230 0.06462 -0.06040
v -0.03230 0.05339 -0.06883
v 0.00420 0.06462 -0.06040
v -0.07164 0.06181 -0.03512
v -0.07164 0.04496 -0.03230
v 0.02107 0.07024 -0.03230
v 0.00701 0.03934 -0.07446
v 0.01265 0.04777 0.02951
v 0.03232 0.06462 -0.04073
v 0.01545 0.04496 0.02669
v -0.07164 0.05620 -0.04354
v -0.06602 0.04777 0.00422
v 0.02107 0.03934 0.01264
v -0.06883 0.05620 0.02951
v -0.06040 0.06462 -0.03512
v -0.02386 0.06743 -0.05478
v -0.00985 0.07024 -0.03793
v -0.06321 0.07305 0.02951
v 0.04075 0.06462 -0.03230
v 0.00420 0.04496 -0.07446
v 0.01545 0.04215 -0.07164
v -0.00421 0.05900 -0.06883
v -0.06602 0.07024 0.00703
v -0.04073 0.04215 -0.06883
v 0.04075 0.07305 -0.00142
v -0.05478 0.07305 0.00422
v 0.00420 0.05900 -0.06602
v -0.00140 0.06743 -0.05478
v 0.04075 0.05058 0.02669
v -0.02386 0.05900 -0.06883
v -0.02949 0.04777 -0.07164
v -0.07164 0.06181 0.02951
v 0.06323 0.05058 -0.03512
v 0.07166 0.07305 0.02951
v 0.07166 0.05620 0.02951
v 0.04075 0.05339 0.02951
v 0.04075 0.06743 -0.02669
v 0.04075 0.07587 0.02951
v 0.06885 0.05901 -0.03231
v 0.06323 0.07587 0.01264
v 0.06604 0.04777 0.00983
v 0.04075 0.05058 0.00702
v 0.07166 0.05058 -0.02669
v 0.04075 0.05620 -0.02388
v 0.06323 0.04777 -0.03231
v 0.06042 0.05058 0.02951
v 0.04075 0.07587 0.01546
v 0.07166 0.07024 0.00702
v 0.05761 0.06743 -0.02107
v 0.05761 0.04777 0.01264
v 0.06885 0.07587 0.02951
v 0.04075 0.05901 -0.02950
v 0.06885 0.04777 -0.03512
v 0.07166 0.05058 0.00702
v 0.04075 0.05058 0.02107
v 0.06885 0.06743 -0.00983
v 0.06885 0.05058 0.02388
v 0.04075 0.06462 -0.02950
v 0.07166 0.05901 -0.02388
v 0.04075 0.07305 -0.00140
v 0.06885 0.05339 -0.03512
v 0.06604 0.07305 0.00421
v 0.04356 0.06743 -0.02669
v 0.06885 0.06182 -0.02669
v -0.05758 -0.06462 -0.06322
v 0.06602 0.00280 -0.04637
v 0.06602 -0.00001 -0.04355
v -0.07444 0.00280 -0.04637
v 0.00703 0.00280 -0.07727
v 0.06321 -0.06462 -0.04637
v -0.03230 -0.06462 -0.03512
v 0.01546 -0.06462 -0.07446
v 0.06602 -0.00844 -0.06322
v -0.06601 -0.00001 -0.06884
v 0.01826 0.00280 -0.03512
v -0.02387 -0.06462 -0.07446
v 0.06041 -0.05338 -0.04074
v -0.07162 -0.03933 -0.04917
v -0.01824 0.00280 -0.03512
v -0.07162 -0.03091 -0.06602
v -0.05196 -0.05900 -0.03794
v 0.06602 -0.04495 -0.05759
v -0.01824 0.00280 -0.07727
v 0.02950 0.00280 -0.07446
v 0.02950 -0.06462 -0.03794
v -0.07444 0.00280 -0.06322
v 0.00421 -0.03091 -0.07727
v -0.05196 -0.03371 -0.03794
v 0.06884 -0.00001 -0.05759
v 0.06321 -0.00282 -0.04074
v 0.06321 -0.06462 -0.05198
v -0.07444 -0.03371 -0.06041
v 0.04635 -0.02811 -0.06884
v -0.06601 -0.02530 -0.06884
v -0.00982 -0.06462 -0.03512
v -0.04915 -0.06462 -0.06884
v 0.06884 -0.00844 -0.04637
v -0.05196 -0.06462 -0.04074
v -0.06882 0.00280 -0.04355
v -0.01824 -0.02249 -0.07727
v -0.06882 -0.05057 -0.05480
v 0.02950 -0.01687 -0.07446
v 0.06321 -0.04776 -0.04074
v -0.07444 -0.01125 -0.04637
v -0.03230 -0.02530 -0.03512
v 0.02387 -0.06462 -0.07165
v 0.06602 -0.05338 -0.04637
v -0.06601 -0.05338 -0.06322
v 0.00983 -0.02530 -0.07727
v 0.06321 -0.02249 -0.06322
v 0.06884 -0.01406 -0.05759
v -0.07444 -0.03371 -0.05198
v -0.05758 -0.06462 -0.05480
v 0.06321 -0.05900 -0.05480
v -0.03510 0.00280 -0.07446
v 0.06602 0.00280 -0.05198
v 0.06602 -0.00001 -0.06041
v -0.03510 -0.05057 -0.03512
v -0.07162 -0.04495 -0.06041
v -0.07162 0.00280 -0.06602
v 0.01826 -0.00001 -0.03512
v -0.00982 -0.03091 -0.07727
v 0.06884 -0.00844 -0.06041
v -0.06882 -0.01406 -0.04355
v -0.07444 -0.02811 -0.06322
v 0.06602 -0.05338 -0.05198
v -0.06319 -0.03371 -0.06884
v -0.00421 0.00843 -0.03231
v -0.01827 0.00281 -0.07727
v -0.03511 0.00281 -0.07446
v -0.02387 0.03933 -0.07446
v -0.07446 0.01686 -0.04917
v 0.02670 0.03933 -0.03793
v 0.03232 0.00281 -0.07164
v -0.02107 0.03933 -0.02950
v -0.06883 0.00281 -0.04355
v 0.03232 0.00281 -0.04075
v 0.01265 0.03933 -0.07446
v -0.07164 0.00281 -0.06602
v -0.04354 0.03933 -0.06602
v 0.00984 0.02247 -0.02950
v 0.02388 0.03653 -0.06884
v -0.01265 0.01967 -0.02950
v 0.02106 0.03933 -0.03231
v 0.01826 0.00281 -0.03512
v 0.00421 0.01124 -0.07727
v -0.07164 0.01967 -0.04636
v -0.07164 0.01405 -0.06322
v 0.03232 0.00843 -0.07164
v -0.01827 0.00281 -0.03512
v -0.04354 0.03933 -0.06041
v 0.02670 0.00281 -0.07446
v -0.07446 0.00281 -0.04636
v -0.07446 0.01686 -0.05760
v -0.07164 0.00843 -0.06602
v 0.00984 0.03933 -0.02950
v -0.04354 0.03653 -0.06884
v -0.06320 0.00562 -0.06884
v 0.02670 0.01405 -0.07446
v 0.02670 0.03933 -0.04636
v -0.02667 0.03933 -0.03512
v -0.01265 0.01405 -0.07727
v -0.02667 0.03653 -0.07446
v -0.07446 0.00281 -0.06322
v -0.03511 0.01124 -0.07446
v -0.06883 0.00843 -0.04355
v 0.03232 0.00562 -0.04075
v 0.00421 0.00281 -0.07727
v 0.02670 0.00281 -0.03793
v -0.01546 0.02247 -0.02950
v 0.02106 0.03933 -0.06884
v 0.00703 0.01967 -0.02950
v 0.02106 0.03653 -0.07164
v 0.02950 -0.00844 0.01265
v -0.05760 -0.04776 0.00422
v -0.05760 -0.04776 0.00703
v -0.03792 0.03934 0.00422
v 0.01826 0.03652 -0.00140
v -0.01265 -0.06742 0.00141
v 0.01264 0.03934 0.01265
v -0.05196 -0.05899 0.00983
v -0.05477 -0.01125 0.00141
v -0.05477 -0.00844 0.00983
v 0.02669 -0.03090 0.00983
v -0.05196 -0.06742 0.00141
v 0.02669 -0.01966 0.00422
v -0.01825 -0.06180 0.00983
v -0.00703 0.03934 -0.00140
v -0.03510 0.03934 0.00983
v 0.02107 0.03934 0.00983
v -0.01265 -0.06742 0.00703
v -0.03510 0.03934 0.00141
v 0.00983 -0.00563 0.01265
v 0.02107 0.03934 0.00141
v -0.04354 -0.06462 0.00983
v -0.05760 -0.01685 0.00983
v 0.01545 0.02808 -0.00140
v 0.02950 -0.00844 0.00703
v 0.02669 -0.03090 0.00703
v -0.05760 -0.01404 0.00422
v -0.05196 -0.06742 0.00703
v -0.05760 -0.04495 0.00983
v 0.02950 -0.01125 0.01265
v -0.05477 -0.05618 0.00141
v -0.03792 0.03934 0.00703
v 0.01545 0.03934 0.01265
v -0.01264 0.01123 -0.00421
v -0.04636 -0.05057 -0.01264
v -0.04636 -0.05057 -0.00702
v -0.01264 -0.06744 -0.00983
v -0.02949 0.01403 -0.01826
v -0.01545 -0.06744 -0.01826
v -0.00983 0.01403 -0.01826
v -0.04355 -0.00282 -0.00702
v -0.03230 -0.06181 -0.00421
v -0.03230 -0.06744 -0.01826
v -0.02949 0.01403 -0.00421
v -0.04355 -0.00844 -0.01545
v -0.01826 -0.05900 -0.00421
v -0.04355 -0.03652 -0.00421
v -0.00983 -0.00844 -0.00702
v -0.03511 -0.06744 -0.00702
v -0.03511 0.01403 -0.01264
v -0.01264 -0.06744 -0.01545
v -0.01264 -0.06461 -0.00702
v -0.04355 -0.06181 -0.01264
v -0.00983 0.01403 -0.00702
v -0.03511 -0.00001 -0.01826
v -0.04074 -0.00282 -0.00421
v -0.00983 -0.00282 -0.01826
v -0.04636 -0.03371 -0.00702
v -0.03511 -0.04776 -0.01826
v -0.04355 -0.05057 -0.00421
v -0.01545 -0.06744 -0.00702
v -0.01264 -0.00563 -0.00421
v -0.04636 -0.03371 -0.01264
v -0.04355 -0.06181 -0.00983
v -0.03511 0.01123 -0.00702
v 0.01827 0.03652 -0.00703
v -0.01544 0.03091 -0.02950
v -0.01544 0.03934 -0.02950
v -0.03231 0.01405 -0.00703
v -0.02668 0.03934 -0.00703
v 0.00422 0.01405 -0.01826
v 0.01545 0.03934 -0.02388
v -0.01544 0.01405 -0.00422
v -0.02949 0.01405 -0.01826
v 0.00141 0.02248 -0.02950
v 0.01545 0.03934 -0.00422
v -0.02668 0.03934 -0.01826
v 0.00702 0.01686 -0.00984
v -0.01826 0.03934 -0.00422
v 0.01827 0.03371 -0.01826
v 0.00422 0.03934 -0.02950
v -0.03231 0.01967 -0.01546
v -0.02668 0.01686 -0.00422
v -0.00702 0.02248 -0.02950
v 0.00984 0.03091 -0.00422
v 0.00422 0.02529 -0.02950
v 0.01827 0.03934 -0.02107
v 0.01545 0.03091 -0.02107
v 0.00984 0.01967 -0.01265
v 0.00422 0.01405 -0.01265
v -0.01263 0.02529 -0.02950
f 63 36 64 
f 2 3 4 
f 4 3 7 
f 2 4 13 
f 13 4 17 
f 7 3 21 
f 7 11 23 
f 6 8 25 
f 8 10 25 
f 18 12 27 
f 14 18 27 
f 12 18 28 
f 26 12 28 
f 16 26 28 
f 18 5 29 
f 5 18 30 
f 18 14 30 
f 6 25 31 
f 25 15 31 
f 17 8 34 
f 13 17 34 
f 1 24 36 
f 27 12 37 
f 13 38 39 
f 38 6 39 
f 11 7 40 
f 7 21 40 
f 21 11 40 
f 2 13 41 
f 13 39 41 
f 39 20 41 
f 24 1 42 
f 10 24 42 
f 25 10 42 
f 15 25 42 
f 12 26 43 
f 31 15 43 
f 26 31 43 
f 21 3 44 
f 32 19 44 
f 3 32 44 
f 19 9 45 
f 33 19 45 
f 29 33 45 
f 17 4 46 
f 4 22 46 
f 5 11 47 
f 11 21 47 
f 29 5 47 
f 33 29 47 
f 30 14 48 
f 35 7 48 
f 14 35 48 
f 11 5 49 
f 23 11 49 
f 5 23 49 
f 9 28 50 
f 28 18 50 
f 18 29 50 
f 45 9 50 
f 29 45 50 
f 8 6 51 
f 34 8 51 
f 13 34 51 
f 38 13 51 
f 6 38 51 
f 7 23 52 
f 23 5 52 
f 5 30 52 
f 48 7 52 
f 30 48 52 
f 26 16 53 
f 6 31 53 
f 31 26 53 
f 10 8 54 
f 8 17 54 
f 24 10 54 
f 17 46 54 
f 46 24 54 
f 4 7 55 
f 22 4 55 
f 7 35 55 
f 35 22 55 
f 28 9 56 
f 16 28 56 
f 9 19 57 
f 19 32 57 
f 32 20 57 
f 56 9 57 
f 16 56 57 
f 39 6 58 
f 20 39 58 
f 53 16 58 
f 6 53 58 
f 16 57 58 
f 57 20 58 
f 22 36 59 
f 36 24 59 
f 46 22 59 
f 24 46 59 
f 19 33 60 
f 21 44 60 
f 44 19 60 
f 47 21 60 
f 33 47 60 
f 1 37 61 
f 37 12 61 
f 42 1 61 
f 15 42 61 
f 12 43 61 
f 43 15 61 
f 3 2 62 
f 32 3 62 
f 20 32 62 
f 2 41 62 
f 41 20 62 
f 14 27 63 
f 1 36 63 
f 37 1 63 
f 27 37 63 
f 35 14 64 
f 22 35 64 
f 36 22 64 
f 14 63 64 
