# Original object name hint: convex_6
v 0.06602 0.07025 0.07165
v -0.07163 0.06182 0.02951
v -0.07163 0.06463 0.02951
v 0.07446 0.06182 0.02951
v -0.00419 0.08992 0.06041
v -0.05477 0.05620 0.07165
v 0.06322 0.07867 0.02951
v 0.03231 0.05058 0.03232
v -0.05757 0.07586 0.07165
v 0.06602 0.05620 0.06322
v -0.03791 0.08148 0.03232
v 0.01264 0.08429 0.07727
v -0.06319 0.05339 0.02951
v 0.06602 0.07867 0.06041
v 0.05478 0.06182 0.07446
v -0.06039 0.06463 0.07446
v 0.06884 0.05339 0.02951
v 0.00702 0.08992 0.07165
v -0.06319 0.07586 0.06322
v -0.06881 0.06182 0.06603
v -0.06319 0.07305 0.02951
v 0.07446 0.07305 0.05199
v 0.02388 0.08429 0.03794
v 0.07164 0.05901 0.06603
v 0.00983 0.05620 0.07165
v -0.00981 0.07025 0.07727
v 0.05478 0.07867 0.07165
v -0.00701 0.08429 0.07727
v -0.00701 0.08992 0.06884
v 0.00983 0.08992 0.06603
v -0.00139 0.05901 0.07446
v -0.06881 0.07025 0.06603
v -0.05477 0.07867 0.05479
v 0.01545 0.05058 0.02951
v 0.07164 0.07586 0.03513
v 0.07164 0.07305 0.06603
v 0.05760 0.07305 0.07446
v -0.06039 0.05339 0.03794
v -0.06319 0.05620 0.06603
v -0.04353 0.07867 0.02951
v -0.06881 0.05620 0.03513
v 0.06322 0.05901 0.07165
v 0.01545 0.07025 0.07727
v -0.06881 0.07025 0.02951
v -0.05477 0.07867 0.06884
v 0.07446 0.05901 0.04356
v -0.04071 0.08148 0.03513
v 0.06602 0.07867 0.03232
v -0.00981 0.08429 0.03794
v -0.00981 0.08710 0.07446
v 0.01545 0.05058 0.03232
v 0.00702 0.08992 0.06041
v -0.05757 0.06182 0.07446
v 0.06884 0.05339 0.03513
v 0.07446 0.06744 0.02951
v -0.05757 0.07025 0.07446
v -0.06601 0.07025 0.07165
v -0.06601 0.06182 0.07165
v 0.07446 0.06463 0.05760
v -0.06039 0.07586 0.04075
v 0.06040 0.06463 0.07446
v -0.07163 0.06182 0.03794
v 0.06602 0.07586 0.06884
v 0.07164 0.07586 0.06041
v -0.02385 -0.08992 -0.03232
v -0.02385 -0.06744 -0.07446
v -0.02385 -0.06463 -0.07446
v 0.06323 -0.06463 -0.05198
v 0.02670 -0.08710 -0.07165
v -0.04916 -0.06463 -0.03793
v -0.07165 -0.08149 -0.05760
v 0.03230 -0.08710 -0.02950
v -0.02385 -0.08710 -0.07165
v 0.06042 -0.08430 -0.05760
v 0.02951 -0.07587 -0.02950
v 0.01826 -0.06463 -0.07446
v -0.04073 -0.08430 -0.02950
v -0.05479 -0.06463 -0.06603
v 0.03512 -0.08992 -0.05760
v 0.02951 -0.06463 -0.03793
v -0.07165 -0.07306 -0.04918
v -0.02668 -0.08992 -0.06041
v -0.02948 -0.07306 -0.02950
v 0.06042 -0.08149 -0.04636
v -0.01825 -0.08430 -0.07446
v 0.02389 -0.08992 -0.02950
v -0.05757 -0.07868 -0.06603
v 0.06042 -0.06463 -0.04636
v -0.06602 -0.08430 -0.05198
v -0.00982 -0.06463 -0.03513
v 0.02106 -0.08430 -0.07446
v -0.07165 -0.07306 -0.06041
v 0.05198 -0.08710 -0.04918
v 0.01826 -0.08992 -0.06603
v -0.07165 -0.08149 -0.04918
v -0.05197 -0.07306 -0.03513
v -0.05197 -0.08710 -0.05760
v 0.06042 -0.07587 -0.05760
v 0.03512 -0.07868 -0.02950
v -0.05757 -0.06463 -0.05478
v 0.02951 -0.07587 -0.07165
v -0.03511 -0.08992 -0.04636
v -0.03511 -0.08710 -0.02950
v -0.06321 -0.08149 -0.06322
v -0.04916 -0.07587 -0.06884
v -0.04916 -0.06463 -0.06884
v -0.05197 -0.08710 -0.04636
v 0.06323 -0.07868 -0.04918
v 0.06042 -0.08430 -0.04918
v -0.03793 -0.07587 -0.02950
v -0.01544 -0.08992 -0.06603
v -0.03230 -0.06463 -0.03513
v -0.04916 -0.08710 -0.06041
v -0.05197 -0.08149 -0.03513
v 0.02951 -0.08430 -0.07165
v -0.02105 -0.08992 -0.02950
v 0.02670 -0.06744 -0.07165
v 0.06323 -0.07868 -0.05478
v -0.06883 -0.07868 -0.04636
v 0.03512 -0.08430 -0.02950
v -0.01262 -0.07306 -0.02950
v 0.03512 -0.08992 -0.04918
v 0.02388 -0.08992 0.00703
v -0.04073 -0.08430 -0.02950
v -0.04634 -0.08430 -0.00702
v -0.01263 -0.06744 0.00703
v 0.02950 -0.07587 -0.02950
v -0.03230 -0.06744 -0.01825
v -0.02949 -0.08710 0.02108
v 0.03512 -0.07587 0.00983
v -0.05198 -0.06744 0.00703
v 0.02107 -0.08992 -0.02950
v -0.02106 -0.08992 -0.02950
v 0.03231 -0.08710 0.01545
v 0.03231 -0.08710 -0.02950
v -0.02667 -0.08992 0.01264
v -0.03510 -0.07587 -0.02950
v 0.02668 -0.07306 -0.02107
v -0.02106 -0.08430 0.02108
v -0.04634 -0.08430 0.00983
v 0.03793 -0.08430 -0.00141
v 0.03231 -0.07306 0.00421
v -0.01544 -0.06744 -0.01825
v 0.02388 -0.08430 0.01826
v -0.05198 -0.06744 0.00140
v -0.04073 -0.08710 -0.00141
v 0.03793 -0.07868 -0.00141
v -0.04915 -0.08148 -0.00421
v -0.04073 -0.07868 -0.02950
v 0.02388 -0.08710 0.01826
v 0.03512 -0.08710 0.00983
v 0.03231 -0.07587 -0.02388
v 0.02668 -0.08992 -0.00421
v -0.03510 -0.08710 -0.02950
v 0.03512 -0.07868 0.01264
v 0.03231 -0.07306 -0.00141
v 0.03793 -0.08430 0.00703
v 0.03231 -0.07868 -0.02950
v 0.02107 -0.08992 0.00983
v -0.04634 -0.07025 0.00983
v -0.04634 -0.08148 -0.01545
v -0.04915 -0.08148 0.00703
v -0.02949 -0.08430 0.02108
v -0.04073 -0.08710 0.00703
v 0.03512 -0.08710 -0.00702
v -0.04916 0.07587 0.02951
v -0.02105 0.03934 -0.07446
v -0.03230 0.03934 -0.07164
v 0.02951 0.04496 0.02669
v 0.04075 0.06743 -0.02950
v -0.06321 0.05339 0.02951
v -0.06602 0.06181 -0.04073
v 0.04075 0.07587 0.02951
v -0.01545 0.06743 -0.05759
v 0.02107 0.03934 -0.06602
v -0.03791 0.03934 0.00983
v -0.07164 0.04496 -0.04354
v -0.07164 0.06462 0.02951
v 0.04075 0.05058 0.00422
v 0.02388 0.03934 0.00983
v -0.00140 0.06181 -0.06602
v -0.02669 0.06181 -0.06602
v 0.04075 0.07587 0.01826
v -0.05758 0.07305 0.00703
v -0.07446 0.05620 -0.04073
v 0.04075 0.05339 0.02951
v 0.01265 0.04496 -0.07164
v 0.04075 0.05620 -0.02950
v -0.06883 0.07024 0.02388
v -0.04073 0.03934 -0.06883
v 0.00420 0.07024 -0.03793
v -0.06883 0.05058 0.00983
v 0.02670 0.03934 -0.04354
v -0.03791 0.07587 0.02107
v -0.07446 0.04777 -0.03230
v -0.01266 0.04777 -0.07446
v 0.03512 0.04496 0.01826
v -0.03230 0.06462 -0.06040
v -0.03230 0.05339 -0.06883
v 0.00420 0.06462 -0.06040
v -0.07164 0.06181 -0.03512
v -0.07164 0.04496 -0.03230
v 0.02107 0.07024 -0.03230
v 0.00701 0.03934 -0.07446
v 0.01265 0.04777 0.02951
v 0.03232 0.06462 -0.04073
v 0.01545 0.04496 0.02669
v -0.07164 0.05620 -0.04354
v -0.06602 0.04777 0.00422
v 0.02107 0.03934 0.01264
v -0.06883 0.05620 0.02951
v -0.06040 0.06462 -0.03512
v -0.02386 0.06743 -0.05478
v -0.00985 0.07024 -0.03793
v -0.06321 0.07305 0.02951
v 0.04075 0.06462 -0.03230
v 0.00420 0.04496 -0.07446
v 0.01545 0.04215 -0.07164
v -0.00421 0.05900 -0.06883
v -0.06602 0.07024 0.00703
v -0.04073 0.04215 -0.06883
v 0.04075 0.07305 -0.00142
v -0.05478 0.07305 0.00422
v 0.00420 0.05900 -0.06602
v -0.00140 0.06743 -0.05478
v 0.04075 0.05058 0.02669
v -0.02386 0.05900 -0.06883
v -0.02949 0.04777 -0.07164
v -0.07164 0.06181 0.02951
v 0.06323 0.05058 -0.03512
v 0.07166 0.07305 0.02951
v 0.07166 0.05620 0.02951
v 0.04075 0.05339 0.02951
v 0.04075 0.06743 -0.02669
v 0.04075 0.07587 0.02951
v 0.06885 0.05901 -0.03231
v 0.06323 0.07587 0.01264
v 0.06604 0.04777 0.00983
v 0.04075 0.05058 0.00702
v 0.07166 0.05058 -0.02669
v 0.04075 0.05620 -0.02388
v 0.06323 0.04777 -0.03231
v 0.06042 0.05058 0.02951
v 0.04075 0.07587 0.01546
v 0.07166 0.07024 0.00702
v 0.05761 0.06743 -0.02107
v 0.05761 0.04777 0.01264
v 0.06885 0.07587 0.02951
v 0.04075 0.05901 -0.02950
v 0.06885 0.04777 -0.03512
v 0.07166 0.05058 0.00702
v 0.04075 0.05058 0.02107
v 0.06885 0.06743 -0.00983
v 0.06885 0.05058 0.02388
v 0.04075 0.06462 -0.02950
v 0.07166 0.05901 -0.02388
v 0.04075 0.07305 -0.00140
v 0.06885 0.05339 -0.03512
v 0.06604 0.07305 0.00421
v 0.04356 0.06743 -0.02669
v 0.06885 0.06182 -0.02669
v -0.05758 -0.06462 -0.06322
v 0.06602 0.00280 -0.04637
v 0.06602 -0.00001 -0.04355
v -0.07444 0.00280 -0.04637
v 0.00703 0.00280 -0.07727
v 0.06321 -0.06462 -0.04637
v -0.03230 -0.06462 -0.03512
v 0.01546 -0.06462 -0.07446
v 0.06602 -0.00844 -0.06322
v -0.06601 -0.00001 -0.06884
v 0.01826 0.00280 -0.03512
v -0.02387 -0.06462 -0.07446
v 0.06041 -0.05338 -0.04074
v -0.07162 -0.03933 -0.04917
v -0.01824 0.00280 -0.03512
v -0.07162 -0.03091 -0.06602
v -0.05196 -0.05900 -0.03794
v 0.06602 -0.04495 -0.05759
v -0.01824 0.00280 -0.07727
v 0.02950 0.00280 -0.07446
v 0.02950 -0.06462 -0.03794
v -0.07444 0.00280 -0.06322
v 0.00421 -0.03091 -0.07727
v -0.05196 -0.03371 -0.03794
v 0.06884 -0.00001 -0.05759
v 0.06321 -0.00282 -0.04074
v 0.06321 -0.06462 -0.05198
v -0.07444 -0.03371 -0.06041
v 0.04635 -0.02811 -0.06884
v -0.06601 -0.02530 -0.06884
v -0.00982 -0.06462 -0.03512
v -0.04915 -0.06462 -0.06884
v 0.06884 -0.00844 -0.04637
v -0.05196 -0.06462 -0.04074
v -0.06882 0.00280 -0.04355
v -0.01824 -0.02249 -0.07727
v -0.06882 -0.05057 -0.05480
v 0.02950 -0.01687 -0.07446
v 0.06321 -0.04776 -0.04074
v -0.07444 -0.01125 -0.04637
v -0.03230 -0.02530 -0.03512
v 0.02387 -0.06462 -0.07165
v 0.06602 -0.05338 -0.04637
v -0.06601 -0.05338 -0.06322
v 0.00983 -0.02530 -0.07727
v 0.06321 -0.02249 -0.06322
v 0.06884 -0.01406 -0.05759
v -0.07444 -0.03371 -0.05198
v -0.05758 -0.06462 -0.05480
v 0.06321 -0.05900 -0.05480
v -0.03510 0.00280 -0.07446
v 0.06602 0.00280 -0.05198
v 0.06602 -0.00001 -0.06041
v -0.03510 -0.05057 -0.03512
v -0.07162 -0.04495 -0.06041
v -0.07162 0.00280 -0.06602
v 0.01826 -0.00001 -0.03512
v -0.00982 -0.03091 -0.07727
v 0.06884 -0.00844 -0.06041
v -0.06882 -0.01406 -0.04355
v -0.07444 -0.02811 -0.06322
v 0.06602 -0.05338 -0.05198
v -0.06319 -0.03371 -0.06884
v -0.00421 0.00843 -0.03231
v -0.01827 0.00281 -0.07727
v -0.03511 0.00281 -0.07446
v -0.02387 0.03933 -0.07446
v -0.07446 0.01686 -0.04917
v 0.02670 0.03933 -0.03793
v 0.03232 0.00281 -0.07164
v -0.02107 0.03933 -0.02950
v -0.06883 0.00281 -0.04355
v 0.03232 0.00281 -0.04075
v 0.01265 0.03933 -0.07446
v -0.07164 0.00281 -0.06602
v -0.04354 0.03933 -0.06602
v 0.00984 0.02247 -0.02950
v 0.02388 0.03653 -0.06884
v -0.01265 0.01967 -0.02950
v 0.02106 0.03933 -0.03231
v 0.01826 0.00281 -0.03512
v 0.00421 0.01124 -0.07727
v -0.07164 0.01967 -0.04636
v -0.07164 0.01405 -0.06322
v 0.03232 0.00843 -0.07164
v -0.01827 0.00281 -0.03512
v -0.04354 0.03933 -0.06041
v 0.02670 0.00281 -0.07446
v -0.07446 0.00281 -0.04636
v -0.07446 0.01686 -0.05760
v -0.07164 0.00843 -0.06602
v 0.00984 0.03933 -0.02950
v -0.04354 0.03653 -0.06884
v -0.06320 0.00562 -0.06884
v 0.02670 0.01405 -0.07446
v 0.02670 0.03933 -0.04636
v -0.02667 0.03933 -0.03512
v -0.01265 0.01405 -0.07727
v -0.02667 0.03653 -0.07446
v -0.07446 0.00281 -0.06322
v -0.03511 0.01124 -0.07446
v -0.06883 0.00843 -0.04355
v 0.03232 0.00562 -0.04075
v 0.00421 0.00281 -0.07727
v 0.02670 0.00281 -0.03793
v -0.01546 0.02247 -0.02950
v 0.02106 0.03933 -0.06884
v 0.00703 0.01967 -0.02950
v 0.02106 0.03653 -0.07164
v 0.02950 -0.00844 0.01265
v -0.05760 -0.04776 0.00422
v -0.05760 -0.04776 0.00703
v -0.03792 0.03934 0.00422
v 0.01826 0.03652 -0.00140
v -0.01265 -0.06742 0.00141
v 0.01264 0.03934 0.01265
v -0.05196 -0.05899 0.00983
v -0.05477 -0.01125 0.00141
v -0.05477 -0.00844 0.00983
v 0.02669 -0.03090 0.00983
v -0.05196 -0.06742 0.00141
v 0.02669 -0.01966 0.00422
v -0.01825 -0.06180 0.00983
v -0.00703 0.03934 -0.00140
v -0.03510 0.03934 0.00983
v 0.02107 0.03934 0.00983
v -0.01265 -0.06742 0.00703
v -0.03510 0.03934 0.00141
v 0.00983 -0.00563 0.01265
v 0.02107 0.03934 0.00141
v -0.04354 -0.06462 0.00983
v -0.05760 -0.01685 0.00983
v 0.01545 0.02808 -0.00140
v 0.02950 -0.00844 0.00703
v 0.02669 -0.03090 0.00703
v -0.05760 -0.01404 0.00422
v -0.05196 -0.06742 0.00703
v -0.05760 -0.04495 0.00983
v 0.02950 -0.01125 0.01265
v -0.05477 -0.05618 0.00141
v -0.03792 0.03934 0.00703
v 0.01545 0.03934 0.01265
v -0.01264 0.01123 -0.00421
v -0.04636 -0.05057 -0.01264
v -0.04636 -0.05057 -0.00702
v -0.01264 -0.06744 -0.00983
v -0.02949 0.01403 -0.01826
v -0.01545 -0.06744 -0.01826
v -0.00983 0.01403 -0.01826
v -0.04355 -0.00282 -0.00702
v -0.03230 -0.06181 -0.00421
v -0.03230 -0.06744 -0.01826
v -0.02949 0.01403 -0.00421
v -0.04355 -0.00844 -0.01545
v -0.01826 -0.05900 -0.00421
v -0.04355 -0.03652 -0.00421
v -0.00983 -0.00844 -0.00702
v -0.03511 -0.06744 -0.00702
v -0.03511 0.01403 -0.01264
v -0.01264 -0.06744 -0.01545
v -0.01264 -0.06461 -0.00702
v -0.04355 -0.06181 -0.01264
v -0.00983 0.01403 -0.00702
v -0.03511 -0.00001 -0.01826
v -0.04074 -0.00282 -0.00421
v -0.00983 -0.00282 -0.01826
v -0.04636 -0.03371 -0.00702
v -0.03511 -0.04776 -0.01826
v -0.04355 -0.05057 -0.00421
v -0.01545 -0.06744 -0.00702
v -0.01264 -0.00563 -0.00421
v -0.04636 -0.03371 -0.01264
v -0.04355 -0.06181 -0.00983
v -0.03511 0.01123 -0.00702
v 0.01827 0.03652 -0.00703
v -0.01544 0.03091 -0.02950
v -0.01544 0.03934 -0.02950
v -0.03231 0.01405 -0.00703
v -0.02668 0.03934 -0.00703
v 0.00422 0.01405 -0.01826
v 0.01545 0.03934 -0.02388
v -0.01544 0.01405 -0.00422
v -0.02949 0.01405 -0.01826
v 0.00141 0.02248 -0.02950
v 0.01545 0.03934 -0.00422
v -0.02668 0.03934 -0.01826
v 0.00702 0.01686 -0.00984
v -0.01826 0.03934 -0.00422
v 0.01827 0.03371 -0.01826
v 0.00422 0.03934 -0.02950
v -0.03231 0.01967 -0.01546
v -0.02668 0.01686 -0.00422
v -0.00702 0.02248 -0.02950
v 0.00984 0.03091 -0.00422
v 0.00422 0.02529 -0.02950
v 0.01827 0.03934 -0.02107
v 0.01545 0.03091 -0.02107
v 0.00984 0.01967 -0.01265
v 0.00422 0.01405 -0.01265
v -0.01263 0.02529 -0.02950
f 368 339 370 
f 327 326 331 
f 330 328 332 
f 327 331 333 
f 333 331 334 
f 328 330 335 
f 327 333 336 
f 332 328 337 
f 338 332 340 
f 330 332 341 
f 333 334 342 
f 334 331 346 
f 325 340 347 
f 340 333 347 
f 342 325 347 
f 333 342 347 
f 332 337 348 
f 337 344 348 
f 331 326 349 
f 346 331 349 
f 336 333 350 
f 344 329 350 
f 329 344 351 
f 344 337 351 
f 350 329 351 
f 351 345 352 
f 332 338 353 
f 341 332 353 
f 338 341 353 
f 337 328 354 
f 351 337 354 
f 345 351 354 
f 352 345 354 
f 327 336 355 
f 336 352 355 
f 343 335 356 
f 349 343 356 
f 346 349 356 
f 335 330 357 
f 330 346 357 
f 346 339 357 
f 344 332 358 
f 332 348 358 
f 348 344 358 
f 328 335 359 
f 343 326 359 
f 335 343 359 
f 354 328 360 
f 352 354 360 
f 355 352 360 
f 359 326 360 
f 328 359 360 
f 336 350 361 
f 350 351 361 
f 352 336 361 
f 351 352 361 
f 326 327 362 
f 327 355 362 
f 360 326 362 
f 355 360 362 
f 333 332 363 
f 332 344 363 
f 350 333 363 
f 344 350 363 
f 330 341 364 
f 341 334 364 
f 346 330 364 
f 334 346 364 
f 326 343 365 
f 349 326 365 
f 343 349 365 
f 334 341 366 
f 341 338 366 
f 342 334 366 
f 338 342 366 
f 332 333 367 
f 333 340 367 
f 340 332 367 
f 335 357 368 
f 357 339 368 
f 340 325 369 
f 338 340 369 
f 325 342 369 
f 342 338 369 
f 339 346 370 
f 356 335 370 
f 346 356 370 
f 335 368 370 
