# Original object name hint: convex_1
v 0.06602 0.07025 0.07165
v -0.07163 0.06182 0.02951
v -0.07163 0.06463 0.02951
v 0.07446 0.06182 0.02951
v -0.00419 0.08992 0.06041
v -0.05477 0.05620 0.07165
v 0.06322 0.07867 0.02951
v 0.03231 0.05058 0.03232
v -0.05757 0.07586 0.07165
v 0.06602 0.05620 0.06322
v -0.03791 0.08148 0.03232
v 0.01264 0.08429 0.07727
v -0.06319 0.05339 0.02951
v 0.06602 0.07867 0.06041
v 0.05478 0.06182 0.07446
v -0.06039 0.06463 0.07446
v 0.06884 0.05339 0.02951
v 0.00702 0.08992 0.07165
v -0.06319 0.07586 0.06322
v -0.06881 0.06182 0.06603
v -0.06319 0.07305 0.02951
v 0.07446 0.07305 0.05199
v 0.02388 0.08429 0.03794
v 0.07164 0.05901 0.06603
v 0.00983 0.05620 0.07165
v -0.00981 0.07025 0.07727
v 0.05478 0.07867 0.07165
v -0.00701 0.08429 0.07727
v -0.00701 0.08992 0.06884
v 0.00983 0.08992 0.06603
v -0.00139 0.05901 0.07446
v -0.06881 0.07025 0.06603
v -0.05477 0.07867 0.05479
v 0.01545 0.05058 0.02951
v 0.07164 0.07586 0.03513
v 0.07164 0.07305 0.06603
v 0.05760 0.07305 0.07446
v -0.06039 0.05339 0.03794
v -0.06319 0.05620 0.06603
v -0.04353 0.07867 0.02951
v -0.06881 0.05620 0.03513
v 0.06322 0.05901 0.07165
v 0.01545 0.07025 0.07727
v -0.06881 0.07025 0.02951
v -0.05477 0.07867 0.06884
v 0.07446 0.05901 0.04356
v -0.04071 0.08148 0.03513
v 0.06602 0.07867 0.03232
v -0.00981 0.08429 0.03794
v -0.00981 0.08710 0.07446
v 0.01545 0.05058 0.03232
v 0.00702 0.08992 0.06041
v -0.05757 0.06182 0.07446
v 0.06884 0.05339 0.03513
v 0.07446 0.06744 0.02951
v -0.05757 0.07025 0.07446
v -0.06601 0.07025 0.07165
v -0.06601 0.06182 0.07165
v 0.07446 0.06463 0.05760
v -0.06039 0.07586 0.04075
v 0.06040 0.06463 0.07446
v -0.07163 0.06182 0.03794
v 0.06602 0.07586 0.06884
v 0.07164 0.07586 0.06041
v -0.02385 -0.08992 -0.03232
v -0.02385 -0.06744 -0.07446
v -0.02385 -0.06463 -0.07446
v 0.06323 -0.06463 -0.05198
v 0.02670 -0.08710 -0.07165
v -0.04916 -0.06463 -0.03793
v -0.07165 -0.08149 -0.05760
v 0.03230 -0.08710 -0.02950
v -0.02385 -0.08710 -0.07165
v 0.06042 -0.08430 -0.05760
v 0.02951 -0.07587 -0.02950
v 0.01826 -0.06463 -0.07446
v -0.04073 -0.08430 -0.02950
v -0.05479 -0.06463 -0.06603
v 0.03512 -0.08992 -0.05760
v 0.02951 -0.06463 -0.03793
v -0.07165 -0.07306 -0.04918
v -0.02668 -0.08992 -0.06041
v -0.02948 -0.07306 -0.02950
v 0.06042 -0.08149 -0.04636
v -0.01825 -0.08430 -0.07446
v 0.02389 -0.08992 -0.02950
v -0.05757 -0.07868 -0.06603
v 0.06042 -0.06463 -0.04636
v -0.06602 -0.08430 -0.05198
v -0.00982 -0.06463 -0.03513
v 0.02106 -0.08430 -0.07446
v -0.07165 -0.07306 -0.06041
v 0.05198 -0.08710 -0.04918
v 0.01826 -0.08992 -0.06603
v -0.07165 -0.08149 -0.04918
v -0.05197 -0.07306 -0.03513
v -0.05197 -0.08710 -0.05760
v 0.06042 -0.07587 -0.05760
v 0.03512 -0.07868 -0.02950
v -0.05757 -0.06463 -0.05478
v 0.02951 -0.07587 -0.07165
v -0.03511 -0.08992 -0.04636
v -0.03511 -0.08710 -0.02950
v -0.06321 -0.08149 -0.06322
v -0.04916 -0.07587 -0.06884
v -0.04916 -0.06463 -0.06884
v -0.05197 -0.08710 -0.04636
v 0.06323 -0.07868 -0.04918
v 0.06042 -0.08430 -0.04918
v -0.03793 -0.07587 -0.02950
v -0.01544 -0.08992 -0.06603
v -0.03230 -0.06463 -0.03513
v -0.04916 -0.08710 -0.06041
v -0.05197 -0.08149 -0.03513
v 0.02951 -0.08430 -0.07165
v -0.02105 -0.08992 -0.02950
v 0.02670 -0.06744 -0.07165
v 0.06323 -0.07868 -0.05478
v -0.06883 -0.07868 -0.04636
v 0.03512 -0.08430 -0.02950
v -0.01262 -0.07306 -0.02950
v 0.03512 -0.08992 -0.04918
v 0.02388 -0.08992 0.00703
v -0.04073 -0.08430 -0.02950
v -0.04634 -0.08430 -0.00702
v -0.01263 -0.06744 0.00703
v 0.02950 -0.07587 -0.02950
v -0.03230 -0.06744 -0.01825
v -0.02949 -0.08710 0.02108
v 0.03512 -0.07587 0.00983
v -0.05198 -0.06744 0.00703
v 0.02107 -0.08992 -0.02950
v -0.02106 -0.08992 -0.02950
v 0.03231 -0.08710 0.01545
v 0.03231 -0.08710 -0.02950
v -0.02667 -0.08992 0.01264
v -0.03510 -0.07587 -0.02950
v 0.02668 -0.07306 -0.02107
v -0.02106 -0.08430 0.02108
v -0.04634 -0.08430 0.00983
v 0.03793 -0.08430 -0.00141
v 0.03231 -0.07306 0.00421
v -0.01544 -0.06744 -0.01825
v 0.02388 -0.08430 0.01826
v -0.05198 -0.06744 0.00140
v -0.04073 -0.08710 -0.00141
v 0.03793 -0.07868 -0.00141
v -0.04915 -0.08148 -0.00421
v -0.04073 -0.07868 -0.02950
v 0.02388 -0.08710 0.01826
v 0.03512 -0.08710 0.00983
v 0.03231 -0.07587 -0.02388
v 0.02668 -0.08992 -0.00421
v -0.03510 -0.08710 -0.02950
v 0.03512 -0.07868 0.01264
v 0.03231 -0.07306 -0.00141
v 0.03793 -0.08430 0.00703
v 0.03231 -0.07868 -0.02950
v 0.02107 -0.08992 0.00983
v -0.04634 -0.07025 0.00983
v -0.04634 -0.08148 -0.01545
v -0.04915 -0.08148 0.00703
v -0.02949 -0.08430 0.02108
v -0.04073 -0.08710 0.00703
v 0.03512 -0.08710 -0.00702
v -0.04916 0.07587 0.02951
v -0.02105 0.03934 -0.07446
v -0.03230 0.03934 -0.07164
v 0.02951 0.04496 0.02669
v 0.04075 0.06743 -0.02950
v -0.06321 0.05339 0.02951
v -0.06602 0.06181 -0.04073
v 0.04075 0.07587 0.02951
v -0.01545 0.06743 -0.05759
v 0.02107 0.03934 -0.06602
v -0.03791 0.03934 0.00983
v -0.07164 0.04496 -0.04354
v -0.07164 0.06462 0.02951
v 0.04075 0.05058 0.00422
v 0.02388 0.03934 0.00983
v -0.00140 0.06181 -0.06602
v -0.02669 0.06181 -0.06602
v 0.04075 0.07587 0.01826
v -0.05758 0.07305 0.00703
v -0.07446 0.05620 -0.04073
v 0.04075 0.05339 0.02951
v 0.01265 0.04496 -0.07164
v 0.04075 0.05620 -0.02950
v -0.06883 0.07024 0.02388
v -0.04073 0.03934 -0.06883
v 0.00420 0.07024 -0.03793
v -0.06883 0.05058 0.00983
v 0.02670 0.03934 -0.04354
v -0.03791 0.07587 0.02107
v -0.07446 0.04777 -0.03230
v -0.01266 0.04777 -0.07446
v 0.03512 0.04496 0.01826
v -0.03230 0.06462 -0.06040
v -0.03230 0.05339 -0.06883
v 0.00420 0.06462 -0.06040
v -0.07164 0.06181 -0.03512
v -0.07164 0.04496 -0.03230
v 0.02107 0.07024 -0.03230
v 0.00701 0.03934 -0.07446
v 0.01265 0.04777 0.02951
v 0.03232 0.06462 -0.04073
v 0.01545 0.04496 0.02669
v -0.07164 0.05620 -0.04354
v -0.06602 0.04777 0.00422
v 0.02107 0.03934 0.01264
v -0.06883 0.05620 0.02951
v -0.06040 0.06462 -0.03512
v -0.02386 0.06743 -0.05478
v -0.00985 0.07024 -0.03793
v -0.06321 0.07305 0.02951
v 0.04075 0.06462 -0.03230
v 0.00420 0.04496 -0.07446
v 0.01545 0.04215 -0.07164
v -0.00421 0.05900 -0.06883
v -0.06602 0.07024 0.00703
v -0.04073 0.04215 -0.06883
v 0.04075 0.07305 -0.00142
v -0.05478 0.07305 0.00422
v 0.00420 0.05900 -0.06602
v -0.00140 0.06743 -0.05478
v 0.04075 0.05058 0.02669
v -0.02386 0.05900 -0.06883
v -0.02949 0.04777 -0.07164
v -0.07164 0.06181 0.02951
v 0.06323 0.05058 -0.03512
v 0.07166 0.07305 0.02951
v 0.07166 0.05620 0.02951
v 0.04075 0.05339 0.02951
v 0.04075 0.06743 -0.02669
v 0.04075 0.07587 0.02951
v 0.06885 0.05901 -0.03231
v 0.06323 0.07587 0.01264
v 0.06604 0.04777 0.00983
v 0.04075 0.05058 0.00702
v 0.07166 0.05058 -0.02669
v 0.04075 0.05620 -0.02388
v 0.06323 0.04777 -0.03231
v 0.06042 0.05058 0.02951
v 0.04075 0.07587 0.01546
v 0.07166 0.07024 0.00702
v 0.05761 0.06743 -0.02107
v 0.05761 0.04777 0.01264
v 0.06885 0.07587 0.02951
v 0.04075 0.05901 -0.02950
v 0.06885 0.04777 -0.03512
v 0.07166 0.05058 0.00702
v 0.04075 0.05058 0.02107
v 0.06885 0.06743 -0.00983
v 0.06885 0.05058 0.02388
v 0.04075 0.06462 -0.02950
v 0.07166 0.05901 -0.02388
v 0.04075 0.07305 -0.00140
v 0.06885 0.05339 -0.03512
v 0.06604 0.07305 0.00421
v 0.04356 0.06743 -0.02669
v 0.06885 0.06182 -0.02669
v -0.05758 -0.06462 -0.06322
v 0.06602 0.00280 -0.04637
v 0.06602 -0.00001 -0.04355
v -0.07444 0.00280 -0.04637
v 0.00703 0.00280 -0.07727
v 0.06321 -0.06462 -0.04637
v -0.03230 -0.06462 -0.03512
v 0.01546 -0.06462 -0.07446
v 0.06602 -0.00844 -0.06322
v -0.06601 -0.00001 -0.06884
v 0.01826 0.00280 -0.03512
v -0.02387 -0.06462 -0.07446
v 0.06041 -0.05338 -0.04074
v -0.07162 -0.03933 -0.04917
v -0.01824 0.00280 -0.03512
v -0.07162 -0.03091 -0.06602
v -0.05196 -0.05900 -0.03794
v 0.06602 -0.04495 -0.05759
v -0.01824 0.00280 -0.07727
v 0.02950 0.00280 -0.07446
v 0.02950 -0.06462 -0.03794
v -0.07444 0.00280 -0.06322
v 0.00421 -0.03091 -0.07727
v -0.05196 -0.03371 -0.03794
v 0.06884 -0.00001 -0.05759
v 0.06321 -0.00282 -0.04074
v 0.06321 -0.06462 -0.05198
v -0.07444 -0.03371 -0.06041
v 0.04635 -0.02811 -0.06884
v -0.06601 -0.02530 -0.06884
v -0.00982 -0.06462 -0.03512
v -0.04915 -0.06462 -0.06884
v 0.06884 -0.00844 -0.04637
v -0.05196 -0.06462 -0.04074
v -0.06882 0.00280 -0.04355
v -0.01824 -0.02249 -0.07727
v -0.06882 -0.05057 -0.05480
v 0.02950 -0.01687 -0.07446
v 0.06321 -0.04776 -0.04074
v -0.07444 -0.01125 -0.04637
v -0.03230 -0.02530 -0.03512
v 0.02387 -0.06462 -0.07165
v 0.06602 -0.05338 -0.04637
v -0.06601 -0.05338 -0.06322
v 0.00983 -0.02530 -0.07727
v 0.06321 -0.02249 -0.06322
v 0.06884 -0.01406 -0.05759
v -0.07444 -0.03371 -0.05198
v -0.05758 -0.06462 -0.05480
v 0.06321 -0.05900 -0.05480
v -0.03510 0.00280 -0.07446
v 0.06602 0.00280 -0.05198
v 0.06602 -0.00001 -0.06041
v -0.03510 -0.05057 -0.03512
v -0.07162 -0.04495 -0.06041
v -0.07162 0.00280 -0.06602
v 0.01826 -0.00001 -0.03512
v -0.00982 -0.03091 -0.07727
v 0.06884 -0.00844 -0.06041
v -0.06882 -0.01406 -0.04355
v -0.07444 -0.02811 -0.06322
v 0.06602 -0.05338 -0.05198
v -0.06319 -0.03371 -0.06884
v -0.00421 0.00843 -0.03231
v -0.01827 0.00281 -0.07727
v -0.03511 0.00281 -0.07446
v -0.02387 0.03933 -0.07446
v -0.07446 0.01686 -0.04917
v 0.02670 0.03933 -0.03793
v 0.03232 0.00281 -0.07164
v -0.02107 0.03933 -0.02950
v -0.06883 0.00281 -0.04355
v 0.03232 0.00281 -0.04075
v 0.01265 0.03933 -0.07446
v -0.07164 0.00281 -0.06602
v -0.04354 0.03933 -0.06602
v 0.00984 0.02247 -0.02950
v 0.02388 0.03653 -0.06884
v -0.01265 0.01967 -0.02950
v 0.02106 0.03933 -0.03231
v 0.01826 0.00281 -0.03512
v 0.00421 0.01124 -0.07727
v -0.07164 0.01967 -0.04636
v -0.07164 0.01405 -0.06322
v 0.03232 0.00843 -0.07164
v -0.01827 0.00281 -0.03512
v -0.04354 0.03933 -0.06041
v 0.02670 0.00281 -0.07446
v -0.07446 0.00281 -0.04636
v -0.07446 0.01686 -0.05760
v -0.07164 0.00843 -0.06602
v 0.00984 0.03933 -0.02950
v -0.04354 0.03653 -0.06884
v -0.06320 0.00562 -0.06884
v 0.02670 0.01405 -0.07446
v 0.02670 0.03933 -0.04636
v -0.02667 0.03933 -0.03512
v -0.01265 0.01405 -0.07727
v -0.02667 0.03653 -0.07446
v -0.07446 0.00281 -0.06322
v -0.03511 0.01124 -0.07446
v -0.06883 0.00843 -0.04355
v 0.03232 0.00562 -0.04075
v 0.00421 0.00281 -0.07727
v 0.02670 0.00281 -0.03793
v -0.01546 0.02247 -0.02950
v 0.02106 0.03933 -0.06884
v 0.00703 0.01967 -0.02950
v 0.02106 0.03653 -0.07164
v 0.02950 -0.00844 0.01265
v -0.05760 -0.04776 0.00422
v -0.05760 -0.04776 0.00703
v -0.03792 0.03934 0.00422
v 0.01826 0.03652 -0.00140
v -0.01265 -0.06742 0.00141
v 0.01264 0.03934 0.01265
v -0.05196 -0.05899 0.00983
v -0.05477 -0.01125 0.00141
v -0.05477 -0.00844 0.00983
v 0.02669 -0.03090 0.00983
v -0.05196 -0.06742 0.00141
v 0.02669 -0.01966 0.00422
v -0.01825 -0.06180 0.00983
v -0.00703 0.03934 -0.00140
v -0.03510 0.03934 0.00983
v 0.02107 0.03934 0.00983
v -0.01265 -0.06742 0.00703
v -0.03510 0.03934 0.00141
v 0.00983 -0.00563 0.01265
v 0.02107 0.03934 0.00141
v -0.04354 -0.06462 0.00983
v -0.05760 -0.01685 0.00983
v 0.01545 0.02808 -0.00140
v 0.02950 -0.00844 0.00703
v 0.02669 -0.03090 0.00703
v -0.05760 -0.01404 0.00422
v -0.05196 -0.06742 0.00703
v -0.05760 -0.04495 0.00983
v 0.02950 -0.01125 0.01265
v -0.05477 -0.05618 0.00141
v -0.03792 0.03934 0.00703
v 0.01545 0.03934 0.01265
v -0.01264 0.01123 -0.00421
v -0.04636 -0.05057 -0.01264
v -0.04636 -0.05057 -0.00702
v -0.01264 -0.06744 -0.00983
v -0.02949 0.01403 -0.01826
v -0.01545 -0.06744 -0.01826
v -0.00983 0.01403 -0.01826
v -0.04355 -0.00282 -0.00702
v -0.03230 -0.06181 -0.00421
v -0.03230 -0.06744 -0.01826
v -0.02949 0.01403 -0.00421
v -0.04355 -0.00844 -0.01545
v -0.01826 -0.05900 -0.00421
v -0.04355 -0.03652 -0.00421
v -0.00983 -0.00844 -0.00702
v -0.03511 -0.06744 -0.00702
v -0.03511 0.01403 -0.01264
v -0.01264 -0.06744 -0.01545
v -0.01264 -0.06461 -0.00702
v -0.04355 -0.06181 -0.01264
v -0.00983 0.01403 -0.00702
v -0.03511 -0.00001 -0.01826
v -0.04074 -0.00282 -0.00421
v -0.00983 -0.00282 -0.01826
v -0.04636 -0.03371 -0.00702
v -0.03511 -0.04776 -0.01826
v -0.04355 -0.05057 -0.00421
v -0.01545 -0.06744 -0.00702
v -0.01264 -0.00563 -0.00421
v -0.04636 -0.03371 -0.01264
v -0.04355 -0.06181 -0.00983
v -0.03511 0.01123 -0.00702
v 0.01827 0.03652 -0.00703
v -0.01544 0.03091 -0.02950
v -0.01544 0.03934 -0.02950
v -0.03231 0.01405 -0.00703
v -0.02668 0.03934 -0.00703
v 0.00422 0.01405 -0.01826
v 0.01545 0.03934 -0.02388
v -0.01544 0.01405 -0.00422
v -0.02949 0.01405 -0.01826
v 0.00141 0.02248 -0.02950
v 0.01545 0.03934 -0.00422
v -0.02668 0.03934 -0.01826
v 0.00702 0.01686 -0.00984
v -0.01826 0.03934 -0.00422
v 0.01827 0.03371 -0.01826
v 0.00422 0.03934 -0.02950
v -0.03231 0.01967 -0.01546
v -0.02668 0.01686 -0.00422
v -0.00702 0.02248 -0.02950
v 0.00984 0.03091 -0.00422
v 0.00422 0.02529 -0.02950
v 0.01827 0.03934 -0.02107
v 0.01545 0.03091 -0.02107
v 0.00984 0.01967 -0.01265
v 0.00422 0.01405 -0.01265
v -0.01263 0.02529 -0.02950
f 93 86 122 
f 68 67 70 
f 66 67 76 
f 67 68 76 
f 72 75 77 
f 70 67 78 
f 69 74 79 
f 68 70 80 
f 79 65 82 
f 77 75 83 
f 69 73 85 
f 66 76 85 
f 72 77 86 
f 65 79 86 
f 68 80 88 
f 80 75 88 
f 80 70 90 
f 75 80 90 
f 69 85 91 
f 85 76 91 
f 71 81 92 
f 79 74 93 
f 73 69 94 
f 69 79 94 
f 79 82 94 
f 81 71 95 
f 71 89 95 
f 70 81 96 
f 89 71 97 
f 75 72 99 
f 88 75 99 
f 84 88 99 
f 70 78 100 
f 81 70 100 
f 92 81 100 
f 78 92 100 
f 91 76 101 
f 98 74 101 
f 82 65 102 
f 97 82 102 
f 86 77 103 
f 77 95 103 
f 95 89 103 
f 85 73 104 
f 87 85 104 
f 71 92 104 
f 92 87 104 
f 67 66 105 
f 66 85 105 
f 85 87 105 
f 105 87 106 
f 78 67 106 
f 92 78 106 
f 87 92 106 
f 67 105 106 
f 89 97 107 
f 102 65 107 
f 97 102 107 
f 103 89 107 
f 68 88 108 
f 88 84 108 
f 84 72 109 
f 72 86 109 
f 93 74 109 
f 86 93 109 
f 74 108 109 
f 108 84 109 
f 83 70 110 
f 77 83 110 
f 70 96 110 
f 96 77 110 
f 73 94 111 
f 94 82 111 
f 70 83 112 
f 90 70 112 
f 83 90 112 
f 97 71 113 
f 82 97 113 
f 104 73 113 
f 71 104 113 
f 73 111 113 
f 111 82 113 
f 95 77 114 
f 77 96 114 
f 74 69 115 
f 69 91 115 
f 101 74 115 
f 91 101 115 
f 65 86 116 
f 86 103 116 
f 107 65 116 
f 103 107 116 
f 76 68 117 
f 68 98 117 
f 101 76 117 
f 98 101 117 
f 98 68 118 
f 74 98 118 
f 68 108 118 
f 108 74 118 
f 81 95 119 
f 96 81 119 
f 95 114 119 
f 114 96 119 
f 72 84 120 
f 99 72 120 
f 84 99 120 
f 83 75 121 
f 75 90 121 
f 90 83 121 
f 86 79 122 
f 79 93 122 
