# Original object name hint: convex_0
v 0.05620 0.01560 -0.03955
v 0.06452 0.01352 0.03330
v 0.06452 0.01768 0.03121
v 0.04371 0.00935 0.03121
v 0.05828 -0.04682 -0.01040
v 0.06452 0.03849 -0.01040
v 0.04788 0.01768 -0.03122
v 0.05204 -0.04265 -0.02914
v 0.06244 -0.00935 -0.03538
v 0.05204 -0.04058 0.01041
v 0.05828 0.04475 -0.00001
v 0.06661 0.00103 0.02913
v 0.05620 0.04475 -0.02914
v 0.04371 -0.00728 0.01248
v 0.06244 -0.04058 0.00832
v 0.06661 0.00935 -0.01456
v 0.06244 0.02809 -0.03538
v 0.05828 -0.03850 -0.03538
v 0.06036 -0.00520 0.03121
v 0.04371 0.01560 0.01041
v 0.04788 0.00103 -0.03330
v 0.04371 -0.00104 0.03121
v 0.04788 -0.03433 -0.00831
v 0.06661 0.03225 0.00207
v 0.06036 -0.03225 0.01872
v 0.06244 -0.03850 -0.00624
v 0.05204 -0.03642 -0.03538
v 0.04996 -0.04265 -0.00001
v 0.06244 0.04475 -0.00001
v 0.06036 -0.00728 -0.03955
v 0.05828 0.02393 0.02497
v 0.05412 -0.04682 0.00416
v 0.04996 0.00935 -0.03746
v 0.06661 -0.00312 0.01248
v 0.06661 0.02601 -0.01456
v 0.06036 -0.03642 -0.03122
v 0.05412 -0.03225 0.01872
v 0.05412 -0.00935 -0.03955
v 0.04371 0.01560 0.01872
v 0.05828 0.04475 -0.02914
v 0.06661 0.01976 0.02289
v 0.06244 0.01768 -0.03746
v 0.06452 0.00311 0.03330
v 0.05620 0.01352 0.03330
v 0.04996 0.01976 -0.03538
v 0.05828 -0.04473 -0.02289
v 0.05204 -0.04473 -0.02289
v 0.05828 -0.04682 0.00416
v 0.05412 0.00103 0.03330
v 0.04788 -0.03433 -0.00001
v 0.06244 -0.00520 -0.03746
v 0.05620 0.03017 -0.03538
v 0.04579 0.01144 0.03121
v 0.06036 -0.04473 -0.00831
v 0.06244 -0.03225 0.01664
v 0.05412 -0.02392 0.02289
v 0.06244 0.03433 -0.02914
v 0.06244 0.04475 -0.01040
v 0.04996 -0.00312 -0.03746
v 0.06661 -0.00104 0.00207
v 0.06036 0.01560 -0.03955
v 0.04996 -0.03850 0.00832
v 0.06452 -0.00312 0.03121
v 0.04371 -0.00520 0.01041
v 0.01249 -0.00520 0.02082
v -0.06661 -0.00936 0.00833
v -0.05620 -0.03226 0.00417
v -0.00417 0.05099 0.00417
v 0.01665 -0.03226 0.00417
v -0.03538 -0.04683 0.01041
v -0.05828 0.01559 0.01249
v 0.01665 0.01977 0.01665
v -0.06244 -0.02393 0.01249
v -0.01873 0.03641 0.00208
v -0.00417 0.01143 0.02082
v -0.01873 0.05099 0.00833
v 0.01665 0.01352 0.00417
v 0.01665 -0.03018 0.01249
v -0.02290 -0.04891 0.00417
v -0.06661 0.00311 0.00833
v -0.01042 -0.01768 0.01873
v -0.00209 0.03018 0.00208
v -0.06661 0.00311 0.01249
v -0.05828 -0.03850 0.00625
v -0.00834 -0.00104 0.02082
v -0.00417 0.05099 0.00833
v -0.01873 0.05099 0.00625
v 0.01040 0.01977 0.01873
v -0.02913 -0.05099 0.00833
v 0.01665 -0.01977 0.01665
v 0.01665 0.02185 0.00833
v -0.05828 0.01559 0.00833
v -0.03330 -0.04891 0.00417
v -0.02706 -0.04683 0.01041
v -0.05620 -0.02602 0.00417
v -0.05828 -0.02809 0.01249
v 0.00624 -0.00936 0.02082
v 0.01665 -0.03226 0.01041
v -0.06035 -0.03641 0.00833
v -0.06661 -0.00936 0.01249
v -0.03538 -0.05099 0.00833
v -0.05620 0.01768 0.01249
v -0.00417 0.01977 0.01873
v 0.01665 0.01352 0.01873
v 0.00832 0.00936 0.02082
v -0.00417 0.03850 0.00208
v -0.00834 0.00728 0.02082
v -0.01249 0.05099 0.00417
v -0.01873 0.03225 0.00208
v -0.05620 -0.03641 0.01041
v 0.01665 0.02185 0.01457
v -0.00417 0.02809 0.00208
v -0.03538 -0.05099 0.00625
v 0.01665 -0.01143 0.01873
v -0.06035 -0.03641 0.00625
v -0.06452 -0.01977 0.01249
v 0.01665 0.01977 0.00625
v -0.05411 -0.03018 0.01249
v -0.02290 -0.04891 0.00833
v 0.00832 -0.01559 0.01873
v -0.05828 -0.03850 0.00833
v 0.01249 0.00520 0.02082
v 0.01456 -0.02602 0.01457
v -0.00417 -0.00520 0.02082
v -0.01666 0.03850 0.00208
v -0.05411 -0.03434 0.00417
v 0.03122 0.01145 0.02082
v 0.01665 -0.03226 0.00417
v 0.01873 -0.03226 0.00209
v 0.01665 0.01769 0.00625
v 0.04371 0.00936 0.00833
v 0.04371 -0.00521 0.02082
v 0.01665 -0.01144 0.01873
v 0.02498 -0.03226 0.00000
v 0.02498 -0.03018 0.01249
v 0.04371 0.01561 0.01873
v 0.01665 0.01769 0.01665
v 0.04371 -0.00729 0.01041
v 0.01665 0.01145 0.00417
v 0.02706 -0.03226 0.00833
v 0.04371 0.01561 0.01041
v 0.01665 -0.03018 0.01249
v 0.02082 0.01977 0.01457
v 0.02498 -0.02810 0.00000
v 0.01665 0.00936 0.01873
v 0.04371 0.01353 0.02082
v 0.01873 -0.03434 0.00833
v 0.01665 -0.01977 0.01665
v 0.01873 0.01145 0.00417
v 0.01873 0.01977 0.00833
v 0.03122 -0.00105 0.02082
v 0.04371 0.00103 0.00833
v 0.04371 -0.00729 0.01873
v 0.02290 -0.02810 0.00000
v 0.02498 -0.03434 0.00417
v 0.03538 0.01769 0.01249
v 0.02706 -0.01352 0.01873
v 0.02082 -0.03434 0.00209
v 0.03330 0.01353 0.02082
v 0.01665 0.01977 0.01457
v 0.01873 0.01769 0.00625
v 0.04163 0.01145 0.00833
v 0.03746 -0.00521 0.02082
v 0.02082 -0.01352 0.01873
v 0.03538 0.01769 0.01665
v 0.02706 -0.03226 0.00625
v 0.00209 -0.00520 0.02914
v 0.03330 0.01769 0.02914
v 0.04370 0.00936 0.02914
v 0.04370 0.01144 0.02082
v 0.00001 0.00520 0.02082
v 0.04370 -0.00312 0.02082
v 0.00417 0.01769 0.02914
v 0.00209 -0.00520 0.02082
v 0.04370 -0.00104 0.02914
v 0.01666 -0.00729 0.02914
v 0.03121 0.01561 0.02290
v -0.00208 0.01353 0.02914
v 0.00417 0.01769 0.02706
v -0.00208 0.00312 0.02706
v 0.04370 -0.00312 0.02706
v 0.00625 -0.00729 0.02706
v 0.01666 -0.00729 0.02706
v 0.03330 0.01769 0.02706
v 0.00001 -0.00312 0.02082
v -0.00208 0.01353 0.02706
v 0.00001 -0.00312 0.02914
v 0.03746 0.01144 0.02082
v 0.00833 -0.00520 0.02082
v 0.03538 0.01561 0.02290
v 0.01457 -0.01561 0.02914
v 0.01040 0.01977 0.03122
v 0.01040 0.01977 0.02914
v -0.02706 -0.00104 0.03538
v 0.02496 0.00104 0.03955
v 0.04371 0.00728 0.02914
v -0.02289 -0.00728 0.03955
v -0.02289 0.00728 0.03955
v -0.00831 0.01353 0.02914
v 0.02496 0.01561 0.03538
v 0.01873 -0.01561 0.03122
v -0.02289 -0.01144 0.03538
v -0.00831 0.01769 0.03538
v 0.04371 0.00104 0.03122
v 0.00208 0.00937 0.03955
v -0.00416 -0.00104 0.02914
v 0.03122 0.01769 0.02914
v 0.04371 0.00728 0.03122
v -0.00831 0.01769 0.03122
v 0.00001 -0.00520 0.03955
v 0.02496 0.00520 0.03955
v -0.02289 -0.01144 0.03746
v 0.04371 0.00104 0.02914
v -0.02289 0.00728 0.03538
v 0.01040 0.01769 0.03538
v 0.03122 0.01769 0.03122
v -0.00831 0.00520 0.02914
v 0.01665 0.01353 0.03746
v -0.02706 0.00104 0.03746
v 0.03122 0.01561 0.03330
v 0.00208 -0.00728 0.02914
v 0.01873 -0.01561 0.02914
v -0.01873 -0.01144 0.03746
v -0.01040 0.00937 0.03955
v 0.00625 0.01977 0.02914
v 0.03538 0.01561 0.03122
v -0.02497 -0.00312 0.03955
v -0.02706 0.00104 0.03538
f 21 23 64 
f 13 7 20 
f 14 4 20 
f 20 7 21 
f 4 14 22 
f 12 16 24 
f 18 8 27 
f 8 23 27 
f 23 21 27 
f 13 11 29 
f 3 29 31 
f 29 11 31 
f 10 28 32 
f 21 7 33 
f 12 15 34 
f 16 12 34 
f 15 26 34 
f 6 24 35 
f 24 16 35 
f 9 16 36 
f 16 26 36 
f 22 10 37 
f 10 25 37 
f 18 27 38 
f 1 30 38 
f 30 18 38 
f 33 1 38 
f 4 11 39 
f 11 13 39 
f 20 4 39 
f 13 20 39 
f 13 29 40 
f 3 2 41 
f 2 12 41 
f 12 24 41 
f 29 3 41 
f 24 29 41 
f 35 16 42 
f 17 35 42 
f 12 2 43 
f 2 3 44 
f 3 31 44 
f 43 2 44 
f 7 13 45 
f 1 33 45 
f 33 7 45 
f 8 18 46 
f 18 36 46 
f 23 8 47 
f 28 23 47 
f 5 32 47 
f 32 28 47 
f 46 5 47 
f 8 46 47 
f 25 10 48 
f 15 25 48 
f 32 5 48 
f 10 32 48 
f 4 22 49 
f 19 43 49 
f 44 4 49 
f 43 44 49 
f 22 14 50 
f 14 23 50 
f 23 28 50 
f 16 9 51 
f 18 30 51 
f 9 36 51 
f 36 18 51 
f 42 16 51 
f 30 42 51 
f 13 40 52 
f 40 17 52 
f 1 45 52 
f 45 13 52 
f 11 4 53 
f 31 11 53 
f 4 44 53 
f 44 31 53 
f 26 15 54 
f 36 26 54 
f 5 46 54 
f 46 36 54 
f 48 5 54 
f 15 48 54 
f 15 12 55 
f 25 15 55 
f 25 19 56 
f 22 37 56 
f 37 25 56 
f 49 22 56 
f 19 49 56 
f 35 17 57 
f 6 35 57 
f 17 40 57 
f 57 40 58 
f 24 6 58 
f 29 24 58 
f 40 29 58 
f 6 57 58 
f 27 21 59 
f 21 33 59 
f 38 27 59 
f 33 38 59 
f 26 16 60 
f 16 34 60 
f 34 26 60 
f 30 1 61 
f 17 42 61 
f 42 30 61 
f 1 52 61 
f 52 17 61 
f 10 22 62 
f 28 10 62 
f 22 50 62 
f 50 28 62 
f 19 25 63 
f 12 43 63 
f 43 19 63 
f 55 12 63 
f 25 55 63 
f 14 20 64 
f 20 21 64 
f 23 14 64 
