# Original object name hint: convex_4
v 0.05620 0.01560 -0.03955
v 0.06452 0.01352 0.03330
v 0.06452 0.01768 0.03121
v 0.04371 0.00935 0.03121
v 0.05828 -0.04682 -0.01040
v 0.06452 0.03849 -0.01040
v 0.04788 0.01768 -0.03122
v 0.05204 -0.04265 -0.02914
v 0.06244 -0.00935 -0.03538
v 0.05204 -0.04058 0.01041
v 0.05828 0.04475 -0.00001
v 0.06661 0.00103 0.02913
v 0.05620 0.04475 -0.02914
v 0.04371 -0.00728 0.01248
v 0.06244 -0.04058 0.00832
v 0.06661 0.00935 -0.01456
v 0.06244 0.02809 -0.03538
v 0.05828 -0.03850 -0.03538
v 0.06036 -0.00520 0.03121
v 0.04371 0.01560 0.01041
v 0.04788 0.00103 -0.03330
v 0.04371 -0.00104 0.03121
v 0.04788 -0.03433 -0.00831
v 0.06661 0.03225 0.00207
v 0.06036 -0.03225 0.01872
v 0.06244 -0.03850 -0.00624
v 0.05204 -0.03642 -0.03538
v 0.04996 -0.04265 -0.00001
v 0.06244 0.04475 -0.00001
v 0.06036 -0.00728 -0.03955
v 0.05828 0.02393 0.02497
v 0.05412 -0.04682 0.00416
v 0.04996 0.00935 -0.03746
v 0.06661 -0.00312 0.01248
v 0.06661 0.02601 -0.01456
v 0.06036 -0.03642 -0.03122
v 0.05412 -0.03225 0.01872
v 0.05412 -0.00935 -0.03955
v 0.04371 0.01560 0.01872
v 0.05828 0.04475 -0.02914
v 0.06661 0.01976 0.02289
v 0.06244 0.01768 -0.03746
v 0.06452 0.00311 0.03330
v 0.05620 0.01352 0.03330
v 0.04996 0.01976 -0.03538
v 0.05828 -0.04473 -0.02289
v 0.05204 -0.04473 -0.02289
v 0.05828 -0.04682 0.00416
v 0.05412 0.00103 0.03330
v 0.04788 -0.03433 -0.00001
v 0.06244 -0.00520 -0.03746
v 0.05620 0.03017 -0.03538
v 0.04579 0.01144 0.03121
v 0.06036 -0.04473 -0.00831
v 0.06244 -0.03225 0.01664
v 0.05412 -0.02392 0.02289
v 0.06244 0.03433 -0.02914
v 0.06244 0.04475 -0.01040
v 0.04996 -0.00312 -0.03746
v 0.06661 -0.00104 0.00207
v 0.06036 0.01560 -0.03955
v 0.04996 -0.03850 0.00832
v 0.06452 -0.00312 0.03121
v 0.04371 -0.00520 0.01041
v 0.01249 -0.00520 0.02082
v -0.06661 -0.00936 0.00833
v -0.05620 -0.03226 0.00417
v -0.00417 0.05099 0.00417
v 0.01665 -0.03226 0.00417
v -0.03538 -0.04683 0.01041
v -0.05828 0.01559 0.01249
v 0.01665 0.01977 0.01665
v -0.06244 -0.02393 0.01249
v -0.01873 0.03641 0.00208
v -0.00417 0.01143 0.02082
v -0.01873 0.05099 0.00833
v 0.01665 0.01352 0.00417
v 0.01665 -0.03018 0.01249
v -0.02290 -0.04891 0.00417
v -0.06661 0.00311 0.00833
v -0.01042 -0.01768 0.01873
v -0.00209 0.03018 0.00208
v -0.06661 0.00311 0.01249
v -0.05828 -0.03850 0.00625
v -0.00834 -0.00104 0.02082
v -0.00417 0.05099 0.00833
v -0.01873 0.05099 0.00625
v 0.01040 0.01977 0.01873
v -0.02913 -0.05099 0.00833
v 0.01665 -0.01977 0.01665
v 0.01665 0.02185 0.00833
v -0.05828 0.01559 0.00833
v -0.03330 -0.04891 0.00417
v -0.02706 -0.04683 0.01041
v -0.05620 -0.02602 0.00417
v -0.05828 -0.02809 0.01249
v 0.00624 -0.00936 0.02082
v 0.01665 -0.03226 0.01041
v -0.06035 -0.03641 0.00833
v -0.06661 -0.00936 0.01249
v -0.03538 -0.05099 0.00833
v -0.05620 0.01768 0.01249
v -0.00417 0.01977 0.01873
v 0.01665 0.01352 0.01873
v 0.00832 0.00936 0.02082
v -0.00417 0.03850 0.00208
v -0.00834 0.00728 0.02082
v -0.01249 0.05099 0.00417
v -0.01873 0.03225 0.00208
v -0.05620 -0.03641 0.01041
v 0.01665 0.02185 0.01457
v -0.00417 0.02809 0.00208
v -0.03538 -0.05099 0.00625
v 0.01665 -0.01143 0.01873
v -0.06035 -0.03641 0.00625
v -0.06452 -0.01977 0.01249
v 0.01665 0.01977 0.00625
v -0.05411 -0.03018 0.01249
v -0.02290 -0.04891 0.00833
v 0.00832 -0.01559 0.01873
v -0.05828 -0.03850 0.00833
v 0.01249 0.00520 0.02082
v 0.01456 -0.02602 0.01457
v -0.00417 -0.00520 0.02082
v -0.01666 0.03850 0.00208
v -0.05411 -0.03434 0.00417
v 0.03122 0.01145 0.02082
v 0.01665 -0.03226 0.00417
v 0.01873 -0.03226 0.00209
v 0.01665 0.01769 0.00625
v 0.04371 0.00936 0.00833
v 0.04371 -0.00521 0.02082
v 0.01665 -0.01144 0.01873
v 0.02498 -0.03226 0.00000
v 0.02498 -0.03018 0.01249
v 0.04371 0.01561 0.01873
v 0.01665 0.01769 0.01665
v 0.04371 -0.00729 0.01041
v 0.01665 0.01145 0.00417
v 0.02706 -0.03226 0.00833
v 0.04371 0.01561 0.01041
v 0.01665 -0.03018 0.01249
v 0.02082 0.01977 0.01457
v 0.02498 -0.02810 0.00000
v 0.01665 0.00936 0.01873
v 0.04371 0.01353 0.02082
v 0.01873 -0.03434 0.00833
v 0.01665 -0.01977 0.01665
v 0.01873 0.01145 0.00417
v 0.01873 0.01977 0.00833
v 0.03122 -0.00105 0.02082
v 0.04371 0.00103 0.00833
v 0.04371 -0.00729 0.01873
v 0.02290 -0.02810 0.00000
v 0.02498 -0.03434 0.00417
v 0.03538 0.01769 0.01249
v 0.02706 -0.01352 0.01873
v 0.02082 -0.03434 0.00209
v 0.03330 0.01353 0.02082
v 0.01665 0.01977 0.01457
v 0.01873 0.01769 0.00625
v 0.04163 0.01145 0.00833
v 0.03746 -0.00521 0.02082
v 0.02082 -0.01352 0.01873
v 0.03538 0.01769 0.01665
v 0.02706 -0.03226 0.00625
v 0.00209 -0.00520 0.02914
v 0.03330 0.01769 0.02914
v 0.04370 0.00936 0.02914
v 0.04370 0.01144 0.02082
v 0.00001 0.00520 0.02082
v 0.04370 -0.00312 0.02082
v 0.00417 0.01769 0.02914
v 0.00209 -0.00520 0.02082
v 0.04370 -0.00104 0.02914
v 0.01666 -0.00729 0.02914
v 0.03121 0.01561 0.02290
v -0.00208 0.01353 0.02914
v 0.00417 0.01769 0.02706
v -0.00208 0.00312 0.02706
v 0.04370 -0.00312 0.02706
v 0.00625 -0.00729 0.02706
v 0.01666 -0.00729 0.02706
v 0.03330 0.01769 0.02706
v 0.00001 -0.00312 0.02082
v -0.00208 0.01353 0.02706
v 0.00001 -0.00312 0.02914
v 0.03746 0.01144 0.02082
v 0.00833 -0.00520 0.02082
v 0.03538 0.01561 0.02290
v 0.01457 -0.01561 0.02914
v 0.01040 0.01977 0.03122
v 0.01040 0.01977 0.02914
v -0.02706 -0.00104 0.03538
v 0.02496 0.00104 0.03955
v 0.04371 0.00728 0.02914
v -0.02289 -0.00728 0.03955
v -0.02289 0.00728 0.03955
v -0.00831 0.01353 0.02914
v 0.02496 0.01561 0.03538
v 0.01873 -0.01561 0.03122
v -0.02289 -0.01144 0.03538
v -0.00831 0.01769 0.03538
v 0.04371 0.00104 0.03122
v 0.00208 0.00937 0.03955
v -0.00416 -0.00104 0.02914
v 0.03122 0.01769 0.02914
v 0.04371 0.00728 0.03122
v -0.00831 0.01769 0.03122
v 0.00001 -0.00520 0.03955
v 0.02496 0.00520 0.03955
v -0.02289 -0.01144 0.03746
v 0.04371 0.00104 0.02914
v -0.02289 0.00728 0.03538
v 0.01040 0.01769 0.03538
v 0.03122 0.01769 0.03122
v -0.00831 0.00520 0.02914
v 0.01665 0.01353 0.03746
v -0.02706 0.00104 0.03746
v 0.03122 0.01561 0.03330
v 0.00208 -0.00728 0.02914
v 0.01873 -0.01561 0.02914
v -0.01873 -0.01144 0.03746
v -0.01040 0.00937 0.03955
v 0.00625 0.01977 0.02914
v 0.03538 0.01561 0.03122
v -0.02497 -0.00312 0.03955
v -0.02706 0.00104 0.03538
f 219 214 228 
f 191 193 196 
f 197 195 198 
f 193 191 199 
f 195 201 204 
f 198 195 205 
f 199 191 206 
f 193 192 207 
f 196 193 207 
f 204 196 208 
f 195 204 208 
f 198 203 209 
f 195 197 210 
f 201 195 210 
f 205 195 211 
f 195 208 211 
f 191 201 212 
f 194 202 212 
f 202 191 212 
f 191 196 213 
f 196 204 213 
f 204 201 213 
f 198 209 214 
f 209 199 214 
f 192 203 215 
f 203 205 215 
f 207 192 216 
f 192 215 216 
f 215 200 216 
f 194 199 217 
f 202 194 217 
f 199 206 217 
f 206 202 217 
f 205 211 218 
f 211 200 218 
f 200 215 218 
f 215 205 218 
f 194 212 219 
f 198 214 219 
f 200 211 220 
f 211 208 220 
f 216 200 220 
f 191 202 221 
f 206 191 221 
f 202 206 221 
f 201 191 222 
f 191 213 222 
f 213 201 222 
f 210 197 223 
f 201 210 223 
f 197 212 223 
f 212 201 223 
f 203 198 224 
f 198 205 224 
f 205 203 224 
f 192 193 225 
f 193 199 225 
f 203 192 225 
f 199 209 225 
f 209 203 225 
f 196 207 226 
f 208 196 226 
f 207 216 226 
f 220 208 226 
f 216 220 226 
f 197 198 227 
f 212 197 227 
f 198 219 227 
f 219 212 227 
f 199 194 228 
f 214 199 228 
f 194 219 228 
