# Original object name hint: convex_3
v 0.05620 0.01560 -0.03955
v 0.06452 0.01352 0.03330
v 0.06452 0.01768 0.03121
v 0.04371 0.00935 0.03121
v 0.05828 -0.04682 -0.01040
v 0.06452 0.03849 -0.01040
v 0.04788 0.01768 -0.03122
v 0.05204 -0.04265 -0.02914
v 0.06244 -0.00935 -0.03538
v 0.05204 -0.04058 0.01041
v 0.05828 0.04475 -0.00001
v 0.06661 0.00103 0.02913
v 0.05620 0.04475 -0.02914
v 0.04371 -0.00728 0.01248
v 0.06244 -0.04058 0.00832
v 0.06661 0.00935 -0.01456
v 0.06244 0.02809 -0.03538
v 0.05828 -0.03850 -0.03538
v 0.06036 -0.00520 0.03121
v 0.04371 0.01560 0.01041
v 0.04788 0.00103 -0.03330
v 0.04371 -0.00104 0.03121
v 0.04788 -0.03433 -0.00831
v 0.06661 0.03225 0.00207
v 0.06036 -0.03225 0.01872
v 0.06244 -0.03850 -0.00624
v 0.05204 -0.03642 -0.03538
v 0.04996 -0.04265 -0.00001
v 0.06244 0.04475 -0.00001
v 0.06036 -0.00728 -0.03955
v 0.05828 0.02393 0.02497
v 0.05412 -0.04682 0.00416
v 0.04996 0.00935 -0.03746
v 0.06661 -0.00312 0.01248
v 0.06661 0.02601 -0.01456
v 0.06036 -0.03642 -0.03122
v 0.05412 -0.03225 0.01872
v 0.05412 -0.00935 -0.03955
v 0.04371 0.01560 0.01872
v 0.05828 0.04475 -0.02914
v 0.06661 0.01976 0.02289
v 0.06244 0.01768 -0.03746
v 0.06452 0.00311 0.03330
v 0.05620 0.01352 0.03330
v 0.04996 0.01976 -0.03538
v 0.05828 -0.04473 -0.02289
v 0.05204 -0.04473 -0.02289
v 0.05828 -0.04682 0.00416
v 0.05412 0.00103 0.03330
v 0.04788 -0.03433 -0.00001
v 0.06244 -0.00520 -0.03746
v 0.05620 0.03017 -0.03538
v 0.04579 0.01144 0.03121
v 0.06036 -0.04473 -0.00831
v 0.06244 -0.03225 0.01664
v 0.05412 -0.02392 0.02289
v 0.06244 0.03433 -0.02914
v 0.06244 0.04475 -0.01040
v 0.04996 -0.00312 -0.03746
v 0.06661 -0.00104 0.00207
v 0.06036 0.01560 -0.03955
v 0.04996 -0.03850 0.00832
v 0.06452 -0.00312 0.03121
v 0.04371 -0.00520 0.01041
v 0.01249 -0.00520 0.02082
v -0.06661 -0.00936 0.00833
v -0.05620 -0.03226 0.00417
v -0.00417 0.05099 0.00417
v 0.01665 -0.03226 0.00417
v -0.03538 -0.04683 0.01041
v -0.05828 0.01559 0.01249
v 0.01665 0.01977 0.01665
v -0.06244 -0.02393 0.01249
v -0.01873 0.03641 0.00208
v -0.00417 0.01143 0.02082
v -0.01873 0.05099 0.00833
v 0.01665 0.01352 0.00417
v 0.01665 -0.03018 0.01249
v -0.02290 -0.04891 0.00417
v -0.06661 0.00311 0.00833
v -0.01042 -0.01768 0.01873
v -0.00209 0.03018 0.00208
v -0.06661 0.00311 0.01249
v -0.05828 -0.03850 0.00625
v -0.00834 -0.00104 0.02082
v -0.00417 0.05099 0.00833
v -0.01873 0.05099 0.00625
v 0.01040 0.01977 0.01873
v -0.02913 -0.05099 0.00833
v 0.01665 -0.01977 0.01665
v 0.01665 0.02185 0.00833
v -0.05828 0.01559 0.00833
v -0.03330 -0.04891 0.00417
v -0.02706 -0.04683 0.01041
v -0.05620 -0.02602 0.00417
v -0.05828 -0.02809 0.01249
v 0.00624 -0.00936 0.02082
v 0.01665 -0.03226 0.01041
v -0.06035 -0.03641 0.00833
v -0.06661 -0.00936 0.01249
v -0.03538 -0.05099 0.00833
v -0.05620 0.01768 0.01249
v -0.00417 0.01977 0.01873
v 0.01665 0.01352 0.01873
v 0.00832 0.00936 0.02082
v -0.00417 0.03850 0.00208
v -0.00834 0.00728 0.02082
v -0.01249 0.05099 0.00417
v -0.01873 0.03225 0.00208
v -0.05620 -0.03641 0.01041
v 0.01665 0.02185 0.01457
v -0.00417 0.02809 0.00208
v -0.03538 -0.05099 0.00625
v 0.01665 -0.01143 0.01873
v -0.06035 -0.03641 0.00625
v -0.06452 -0.01977 0.01249
v 0.01665 0.01977 0.00625
v -0.05411 -0.03018 0.01249
v -0.02290 -0.04891 0.00833
v 0.00832 -0.01559 0.01873
v -0.05828 -0.03850 0.00833
v 0.01249 0.00520 0.02082
v 0.01456 -0.02602 0.01457
v -0.00417 -0.00520 0.02082
v -0.01666 0.03850 0.00208
v -0.05411 -0.03434 0.00417
v 0.03122 0.01145 0.02082
v 0.01665 -0.03226 0.00417
v 0.01873 -0.03226 0.00209
v 0.01665 0.01769 0.00625
v 0.04371 0.00936 0.00833
v 0.04371 -0.00521 0.02082
v 0.01665 -0.01144 0.01873
v 0.02498 -0.03226 0.00000
v 0.02498 -0.03018 0.01249
v 0.04371 0.01561 0.01873
v 0.01665 0.01769 0.01665
v 0.04371 -0.00729 0.01041
v 0.01665 0.01145 0.00417
v 0.02706 -0.03226 0.00833
v 0.04371 0.01561 0.01041
v 0.01665 -0.03018 0.01249
v 0.02082 0.01977 0.01457
v 0.02498 -0.02810 0.00000
v 0.01665 0.00936 0.01873
v 0.04371 0.01353 0.02082
v 0.01873 -0.03434 0.00833
v 0.01665 -0.01977 0.01665
v 0.01873 0.01145 0.00417
v 0.01873 0.01977 0.00833
v 0.03122 -0.00105 0.02082
v 0.04371 0.00103 0.00833
v 0.04371 -0.00729 0.01873
v 0.02290 -0.02810 0.00000
v 0.02498 -0.03434 0.00417
v 0.03538 0.01769 0.01249
v 0.02706 -0.01352 0.01873
v 0.02082 -0.03434 0.00209
v 0.03330 0.01353 0.02082
v 0.01665 0.01977 0.01457
v 0.01873 0.01769 0.00625
v 0.04163 0.01145 0.00833
v 0.03746 -0.00521 0.02082
v 0.02082 -0.01352 0.01873
v 0.03538 0.01769 0.01665
v 0.02706 -0.03226 0.00625
v 0.00209 -0.00520 0.02914
v 0.03330 0.01769 0.02914
v 0.04370 0.00936 0.02914
v 0.04370 0.01144 0.02082
v 0.00001 0.00520 0.02082
v 0.04370 -0.00312 0.02082
v 0.00417 0.01769 0.02914
v 0.00209 -0.00520 0.02082
v 0.04370 -0.00104 0.02914
v 0.01666 -0.00729 0.02914
v 0.03121 0.01561 0.02290
v -0.00208 0.01353 0.02914
v 0.00417 0.01769 0.02706
v -0.00208 0.00312 0.02706
v 0.04370 -0.00312 0.02706
v 0.00625 -0.00729 0.02706
v 0.01666 -0.00729 0.02706
v 0.03330 0.01769 0.02706
v 0.00001 -0.00312 0.02082
v -0.00208 0.01353 0.02706
v 0.00001 -0.00312 0.02914
v 0.03746 0.01144 0.02082
v 0.00833 -0.00520 0.02082
v 0.03538 0.01561 0.02290
v 0.01457 -0.01561 0.02914
v 0.01040 0.01977 0.03122
v 0.01040 0.01977 0.02914
v -0.02706 -0.00104 0.03538
v 0.02496 0.00104 0.03955
v 0.04371 0.00728 0.02914
v -0.02289 -0.00728 0.03955
v -0.02289 0.00728 0.03955
v -0.00831 0.01353 0.02914
v 0.02496 0.01561 0.03538
v 0.01873 -0.01561 0.03122
v -0.02289 -0.01144 0.03538
v -0.00831 0.01769 0.03538
v 0.04371 0.00104 0.03122
v 0.00208 0.00937 0.03955
v -0.00416 -0.00104 0.02914
v 0.03122 0.01769 0.02914
v 0.04371 0.00728 0.03122
v -0.00831 0.01769 0.03122
v 0.00001 -0.00520 0.03955
v 0.02496 0.00520 0.03955
v -0.02289 -0.01144 0.03746
v 0.04371 0.00104 0.02914
v -0.02289 0.00728 0.03538
v 0.01040 0.01769 0.03538
v 0.03122 0.01769 0.03122
v -0.00831 0.00520 0.02914
v 0.01665 0.01353 0.03746
v -0.02706 0.00104 0.03746
v 0.03122 0.01561 0.03330
v 0.00208 -0.00728 0.02914
v 0.01873 -0.01561 0.02914
v -0.01873 -0.01144 0.03746
v -0.01040 0.00937 0.03955
v 0.00625 0.01977 0.02914
v 0.03538 0.01561 0.03122
v -0.02497 -0.00312 0.03955
v -0.02706 0.00104 0.03538
f 177 184 190 
f 169 168 167 
f 168 169 170 
f 170 169 172 
f 171 170 172 
f 167 168 173 
f 171 172 174 
f 169 167 175 
f 172 169 175 
f 175 167 176 
f 167 173 178 
f 173 168 179 
f 177 171 179 
f 178 173 179 
f 172 175 181 
f 176 172 181 
f 175 176 181 
f 167 174 182 
f 176 167 182 
f 176 182 183 
f 172 176 183 
f 182 174 183 
f 168 170 184 
f 179 168 184 
f 177 179 184 
f 174 167 185 
f 171 174 185 
f 180 171 185 
f 179 171 186 
f 178 179 186 
f 171 180 186 
f 180 178 186 
f 167 178 187 
f 178 180 187 
f 185 167 187 
f 180 185 187 
f 170 171 188 
f 177 170 188 
f 171 177 188 
f 174 172 189 
f 172 183 189 
f 183 174 189 
f 170 177 190 
f 184 170 190 
