# Original object name hint: convex_1
v 0.05620 0.01560 -0.03955
v 0.06452 0.01352 0.03330
v 0.06452 0.01768 0.03121
v 0.04371 0.00935 0.03121
v 0.05828 -0.04682 -0.01040
v 0.06452 0.03849 -0.01040
v 0.04788 0.01768 -0.03122
v 0.05204 -0.04265 -0.02914
v 0.06244 -0.00935 -0.03538
v 0.05204 -0.04058 0.01041
v 0.05828 0.04475 -0.00001
v 0.06661 0.00103 0.02913
v 0.05620 0.04475 -0.02914
v 0.04371 -0.00728 0.01248
v 0.06244 -0.04058 0.00832
v 0.06661 0.00935 -0.01456
v 0.06244 0.02809 -0.03538
v 0.05828 -0.03850 -0.03538
v 0.06036 -0.00520 0.03121
v 0.04371 0.01560 0.01041
v 0.04788 0.00103 -0.03330
v 0.04371 -0.00104 0.03121
v 0.04788 -0.03433 -0.00831
v 0.06661 0.03225 0.00207
v 0.06036 -0.03225 0.01872
v 0.06244 -0.03850 -0.00624
v 0.05204 -0.03642 -0.03538
v 0.04996 -0.04265 -0.00001
v 0.06244 0.04475 -0.00001
v 0.06036 -0.00728 -0.03955
v 0.05828 0.02393 0.02497
v 0.05412 -0.04682 0.00416
v 0.04996 0.00935 -0.03746
v 0.06661 -0.00312 0.01248
v 0.06661 0.02601 -0.01456
v 0.06036 -0.03642 -0.03122
v 0.05412 -0.03225 0.01872
v 0.05412 -0.00935 -0.03955
v 0.04371 0.01560 0.01872
v 0.05828 0.04475 -0.02914
v 0.06661 0.01976 0.02289
v 0.06244 0.01768 -0.03746
v 0.06452 0.00311 0.03330
v 0.05620 0.01352 0.03330
v 0.04996 0.01976 -0.03538
v 0.05828 -0.04473 -0.02289
v 0.05204 -0.04473 -0.02289
v 0.05828 -0.04682 0.00416
v 0.05412 0.00103 0.03330
v 0.04788 -0.03433 -0.00001
v 0.06244 -0.00520 -0.03746
v 0.05620 0.03017 -0.03538
v 0.04579 0.01144 0.03121
v 0.06036 -0.04473 -0.00831
v 0.06244 -0.03225 0.01664
v 0.05412 -0.02392 0.02289
v 0.06244 0.03433 -0.02914
v 0.06244 0.04475 -0.01040
v 0.04996 -0.00312 -0.03746
v 0.06661 -0.00104 0.00207
v 0.06036 0.01560 -0.03955
v 0.04996 -0.03850 0.00832
v 0.06452 -0.00312 0.03121
v 0.04371 -0.00520 0.01041
v 0.01249 -0.00520 0.02082
v -0.06661 -0.00936 0.00833
v -0.05620 -0.03226 0.00417
v -0.00417 0.05099 0.00417
v 0.01665 -0.03226 0.00417
v -0.03538 -0.04683 0.01041
v -0.05828 0.01559 0.01249
v 0.01665 0.01977 0.01665
v -0.06244 -0.02393 0.01249
v -0.01873 0.03641 0.00208
v -0.00417 0.01143 0.02082
v -0.01873 0.05099 0.00833
v 0.01665 0.01352 0.00417
v 0.01665 -0.03018 0.01249
v -0.02290 -0.04891 0.00417
v -0.06661 0.00311 0.00833
v -0.01042 -0.01768 0.01873
v -0.00209 0.03018 0.00208
v -0.06661 0.00311 0.01249
v -0.05828 -0.03850 0.00625
v -0.00834 -0.00104 0.02082
v -0.00417 0.05099 0.00833
v -0.01873 0.05099 0.00625
v 0.01040 0.01977 0.01873
v -0.02913 -0.05099 0.00833
v 0.01665 -0.01977 0.01665
v 0.01665 0.02185 0.00833
v -0.05828 0.01559 0.00833
v -0.03330 -0.04891 0.00417
v -0.02706 -0.04683 0.01041
v -0.05620 -0.02602 0.00417
v -0.05828 -0.02809 0.01249
v 0.00624 -0.00936 0.02082
v 0.01665 -0.03226 0.01041
v -0.06035 -0.03641 0.00833
v -0.06661 -0.00936 0.01249
v -0.03538 -0.05099 0.00833
v -0.05620 0.01768 0.01249
v -0.00417 0.01977 0.01873
v 0.01665 0.01352 0.01873
v 0.00832 0.00936 0.02082
v -0.00417 0.03850 0.00208
v -0.00834 0.00728 0.02082
v -0.01249 0.05099 0.00417
v -0.01873 0.03225 0.00208
v -0.05620 -0.03641 0.01041
v 0.01665 0.02185 0.01457
v -0.00417 0.02809 0.00208
v -0.03538 -0.05099 0.00625
v 0.01665 -0.01143 0.01873
v -0.06035 -0.03641 0.00625
v -0.06452 -0.01977 0.01249
v 0.01665 0.01977 0.00625
v -0.05411 -0.03018 0.01249
v -0.02290 -0.04891 0.00833
v 0.00832 -0.01559 0.01873
v -0.05828 -0.03850 0.00833
v 0.01249 0.00520 0.02082
v 0.01456 -0.02602 0.01457
v -0.00417 -0.00520 0.02082
v -0.01666 0.03850 0.00208
v -0.05411 -0.03434 0.00417
v 0.03122 0.01145 0.02082
v 0.01665 -0.03226 0.00417
v 0.01873 -0.03226 0.00209
v 0.01665 0.01769 0.00625
v 0.04371 0.00936 0.00833
v 0.04371 -0.00521 0.02082
v 0.01665 -0.01144 0.01873
v 0.02498 -0.03226 0.00000
v 0.02498 -0.03018 0.01249
v 0.04371 0.01561 0.01873
v 0.01665 0.01769 0.01665
v 0.04371 -0.00729 0.01041
v 0.01665 0.01145 0.00417
v 0.02706 -0.03226 0.00833
v 0.04371 0.01561 0.01041
v 0.01665 -0.03018 0.01249
v 0.02082 0.01977 0.01457
v 0.02498 -0.02810 0.00000
v 0.01665 0.00936 0.01873
v 0.04371 0.01353 0.02082
v 0.01873 -0.03434 0.00833
v 0.01665 -0.01977 0.01665
v 0.01873 0.01145 0.00417
v 0.01873 0.01977 0.00833
v 0.03122 -0.00105 0.02082
v 0.04371 0.00103 0.00833
v 0.04371 -0.00729 0.01873
v 0.02290 -0.02810 0.00000
v 0.02498 -0.03434 0.00417
v 0.03538 0.01769 0.01249
v 0.02706 -0.01352 0.01873
v 0.02082 -0.03434 0.00209
v 0.03330 0.01353 0.02082
v 0.01665 0.01977 0.01457
v 0.01873 0.01769 0.00625
v 0.04163 0.01145 0.00833
v 0.03746 -0.00521 0.02082
v 0.02082 -0.01352 0.01873
v 0.03538 0.01769 0.01665
v 0.02706 -0.03226 0.00625
v 0.00209 -0.00520 0.02914
v 0.03330 0.01769 0.02914
v 0.04370 0.00936 0.02914
v 0.04370 0.01144 0.02082
v 0.00001 0.00520 0.02082
v 0.04370 -0.00312 0.02082
v 0.00417 0.01769 0.02914
v 0.00209 -0.00520 0.02082
v 0.04370 -0.00104 0.02914
v 0.01666 -0.00729 0.02914
v 0.03121 0.01561 0.02290
v -0.00208 0.01353 0.02914
v 0.00417 0.01769 0.02706
v -0.00208 0.00312 0.02706
v 0.04370 -0.00312 0.02706
v 0.00625 -0.00729 0.02706
v 0.01666 -0.00729 0.02706
v 0.03330 0.01769 0.02706
v 0.00001 -0.00312 0.02082
v -0.00208 0.01353 0.02706
v 0.00001 -0.00312 0.02914
v 0.03746 0.01144 0.02082
v 0.00833 -0.00520 0.02082
v 0.03538 0.01561 0.02290
v 0.01457 -0.01561 0.02914
v 0.01040 0.01977 0.03122
v 0.01040 0.01977 0.02914
v -0.02706 -0.00104 0.03538
v 0.02496 0.00104 0.03955
v 0.04371 0.00728 0.02914
v -0.02289 -0.00728 0.03955
v -0.02289 0.00728 0.03955
v -0.00831 0.01353 0.02914
v 0.02496 0.01561 0.03538
v 0.01873 -0.01561 0.03122
v -0.02289 -0.01144 0.03538
v -0.00831 0.01769 0.03538
v 0.04371 0.00104 0.03122
v 0.00208 0.00937 0.03955
v -0.00416 -0.00104 0.02914
v 0.03122 0.01769 0.02914
v 0.04371 0.00728 0.03122
v -0.00831 0.01769 0.03122
v 0.00001 -0.00520 0.03955
v 0.02496 0.00520 0.03955
v -0.02289 -0.01144 0.03746
v 0.04371 0.00104 0.02914
v -0.02289 0.00728 0.03538
v 0.01040 0.01769 0.03538
v 0.03122 0.01769 0.03122
v -0.00831 0.00520 0.02914
v 0.01665 0.01353 0.03746
v -0.02706 0.00104 0.03746
v 0.03122 0.01561 0.03330
v 0.00208 -0.00728 0.02914
v 0.01873 -0.01561 0.02914
v -0.01873 -0.01144 0.03746
v -0.01040 0.00937 0.03955
v 0.00625 0.01977 0.02914
v 0.03538 0.01561 0.03122
v -0.02497 -0.00312 0.03955
v -0.02706 0.00104 0.03538
f 109 93 126 
f 72 69 77 
f 69 72 78 
f 67 66 80 
f 77 69 82 
f 80 66 83 
f 71 80 83 
f 65 75 85 
f 68 76 86 
f 76 68 87 
f 72 86 88 
f 86 76 88 
f 78 72 90 
f 72 77 91 
f 68 86 91 
f 80 71 92 
f 74 80 92 
f 81 70 94 
f 89 78 94 
f 70 89 94 
f 74 67 95 
f 67 80 95 
f 80 74 95 
f 85 73 96 
f 65 85 97 
f 81 94 97 
f 69 78 98 
f 79 69 98 
f 83 66 100 
f 85 83 100 
f 89 70 101 
f 76 87 102 
f 92 71 102 
f 87 92 102 
f 75 88 103 
f 88 76 103 
f 102 75 103 
f 76 102 103 
f 72 88 104 
f 90 72 104 
f 75 65 105 
f 88 75 105 
f 68 77 106 
f 82 74 106 
f 77 82 106 
f 71 83 107 
f 85 75 107 
f 83 85 107 
f 102 71 107 
f 75 102 107 
f 87 68 108 
f 74 92 108 
f 92 87 108 
f 68 106 108 
f 67 74 109 
f 74 82 109 
f 96 73 110 
f 73 99 110 
f 101 70 110 
f 86 72 111 
f 72 91 111 
f 91 86 111 
f 69 79 112 
f 82 69 112 
f 79 93 112 
f 109 82 112 
f 93 109 112 
f 79 89 113 
f 93 79 113 
f 84 93 113 
f 89 101 113 
f 101 84 113 
f 65 97 114 
f 97 90 114 
f 104 65 114 
f 90 104 114 
f 66 67 115 
f 67 84 115 
f 84 99 115 
f 115 99 116 
f 73 85 116 
f 99 73 116 
f 100 66 116 
f 85 100 116 
f 66 115 116 
f 77 68 117 
f 68 91 117 
f 91 77 117 
f 70 81 118 
f 81 96 118 
f 110 70 118 
f 96 110 118 
f 78 89 119 
f 89 79 119 
f 98 78 119 
f 79 98 119 
f 94 90 120 
f 90 97 120 
f 97 94 120 
f 99 84 121 
f 84 101 121 
f 110 99 121 
f 101 110 121 
f 65 104 122 
f 104 88 122 
f 105 65 122 
f 88 105 122 
f 78 90 123 
f 94 78 123 
f 90 94 123 
f 96 81 124 
f 85 96 124 
f 97 85 124 
f 81 97 124 
f 106 74 125 
f 74 108 125 
f 108 106 125 
f 84 67 126 
f 93 84 126 
f 67 109 126 
