# Original object name hint: convex_2
v 0.05620 0.01560 -0.03955
v 0.06452 0.01352 0.03330
v 0.06452 0.01768 0.03121
v 0.04371 0.00935 0.03121
v 0.05828 -0.04682 -0.01040
v 0.06452 0.03849 -0.01040
v 0.04788 0.01768 -0.03122
v 0.05204 -0.04265 -0.02914
v 0.06244 -0.00935 -0.03538
v 0.05204 -0.04058 0.01041
v 0.05828 0.04475 -0.00001
v 0.06661 0.00103 0.02913
v 0.05620 0.04475 -0.02914
v 0.04371 -0.00728 0.01248
v 0.06244 -0.04058 0.00832
v 0.06661 0.00935 -0.01456
v 0.06244 0.02809 -0.03538
v 0.05828 -0.03850 -0.03538
v 0.06036 -0.00520 0.03121
v 0.04371 0.01560 0.01041
v 0.04788 0.00103 -0.03330
v 0.04371 -0.00104 0.03121
v 0.04788 -0.03433 -0.00831
v 0.06661 0.03225 0.00207
v 0.06036 -0.03225 0.01872
v 0.06244 -0.03850 -0.00624
v 0.05204 -0.03642 -0.03538
v 0.04996 -0.04265 -0.00001
v 0.06244 0.04475 -0.00001
v 0.06036 -0.00728 -0.03955
v 0.05828 0.02393 0.02497
v 0.05412 -0.04682 0.00416
v 0.04996 0.00935 -0.03746
v 0.06661 -0.00312 0.01248
v 0.06661 0.02601 -0.01456
v 0.06036 -0.03642 -0.03122
v 0.05412 -0.03225 0.01872
v 0.05412 -0.00935 -0.03955
v 0.04371 0.01560 0.01872
v 0.05828 0.04475 -0.02914
v 0.06661 0.01976 0.02289
v 0.06244 0.01768 -0.03746
v 0.06452 0.00311 0.03330
v 0.05620 0.01352 0.03330
v 0.04996 0.01976 -0.03538
v 0.05828 -0.04473 -0.02289
v 0.05204 -0.04473 -0.02289
v 0.05828 -0.04682 0.00416
v 0.05412 0.00103 0.03330
v 0.04788 -0.03433 -0.00001
v 0.06244 -0.00520 -0.03746
v 0.05620 0.03017 -0.03538
v 0.04579 0.01144 0.03121
v 0.06036 -0.04473 -0.00831
v 0.06244 -0.03225 0.01664
v 0.05412 -0.02392 0.02289
v 0.06244 0.03433 -0.02914
v 0.06244 0.04475 -0.01040
v 0.04996 -0.00312 -0.03746
v 0.06661 -0.00104 0.00207
v 0.06036 0.01560 -0.03955
v 0.04996 -0.03850 0.00832
v 0.06452 -0.00312 0.03121
v 0.04371 -0.00520 0.01041
v 0.01249 -0.00520 0.02082
v -0.06661 -0.00936 0.00833
v -0.05620 -0.03226 0.00417
v -0.00417 0.05099 0.00417
v 0.01665 -0.03226 0.00417
v -0.03538 -0.04683 0.01041
v -0.05828 0.01559 0.01249
v 0.01665 0.01977 0.01665
v -0.06244 -0.02393 0.01249
v -0.01873 0.03641 0.00208
v -0.00417 0.01143 0.02082
v -0.01873 0.05099 0.00833
v 0.01665 0.01352 0.00417
v 0.01665 -0.03018 0.01249
v -0.02290 -0.04891 0.00417
v -0.06661 0.00311 0.00833
v -0.01042 -0.01768 0.01873
v -0.00209 0.03018 0.00208
v -0.06661 0.00311 0.01249
v -0.05828 -0.03850 0.00625
v -0.00834 -0.00104 0.02082
v -0.00417 0.05099 0.00833
v -0.01873 0.05099 0.00625
v 0.01040 0.01977 0.01873
v -0.02913 -0.05099 0.00833
v 0.01665 -0.01977 0.01665
v 0.01665 0.02185 0.00833
v -0.05828 0.01559 0.00833
v -0.03330 -0.04891 0.00417
v -0.02706 -0.04683 0.01041
v -0.05620 -0.02602 0.00417
v -0.05828 -0.02809 0.01249
v 0.00624 -0.00936 0.02082
v 0.01665 -0.03226 0.01041
v -0.06035 -0.03641 0.00833
v -0.06661 -0.00936 0.01249
v -0.03538 -0.05099 0.00833
v -0.05620 0.01768 0.01249
v -0.00417 0.01977 0.01873
v 0.01665 0.01352 0.01873
v 0.00832 0.00936 0.02082
v -0.00417 0.03850 0.00208
v -0.00834 0.00728 0.02082
v -0.01249 0.05099 0.00417
v -0.01873 0.03225 0.00208
v -0.05620 -0.03641 0.01041
v 0.01665 0.02185 0.01457
v -0.00417 0.02809 0.00208
v -0.03538 -0.05099 0.00625
v 0.01665 -0.01143 0.01873
v -0.06035 -0.03641 0.00625
v -0.06452 -0.01977 0.01249
v 0.01665 0.01977 0.00625
v -0.05411 -0.03018 0.01249
v -0.02290 -0.04891 0.00833
v 0.00832 -0.01559 0.01873
v -0.05828 -0.03850 0.00833
v 0.01249 0.00520 0.02082
v 0.01456 -0.02602 0.01457
v -0.00417 -0.00520 0.02082
v -0.01666 0.03850 0.00208
v -0.05411 -0.03434 0.00417
v 0.03122 0.01145 0.02082
v 0.01665 -0.03226 0.00417
v 0.01873 -0.03226 0.00209
v 0.01665 0.01769 0.00625
v 0.04371 0.00936 0.00833
v 0.04371 -0.00521 0.02082
v 0.01665 -0.01144 0.01873
v 0.02498 -0.03226 0.00000
v 0.02498 -0.03018 0.01249
v 0.04371 0.01561 0.01873
v 0.01665 0.01769 0.01665
v 0.04371 -0.00729 0.01041
v 0.01665 0.01145 0.00417
v 0.02706 -0.03226 0.00833
v 0.04371 0.01561 0.01041
v 0.01665 -0.03018 0.01249
v 0.02082 0.01977 0.01457
v 0.02498 -0.02810 0.00000
v 0.01665 0.00936 0.01873
v 0.04371 0.01353 0.02082
v 0.01873 -0.03434 0.00833
v 0.01665 -0.01977 0.01665
v 0.01873 0.01145 0.00417
v 0.01873 0.01977 0.00833
v 0.03122 -0.00105 0.02082
v 0.04371 0.00103 0.00833
v 0.04371 -0.00729 0.01873
v 0.02290 -0.02810 0.00000
v 0.02498 -0.03434 0.00417
v 0.03538 0.01769 0.01249
v 0.02706 -0.01352 0.01873
v 0.02082 -0.03434 0.00209
v 0.03330 0.01353 0.02082
v 0.01665 0.01977 0.01457
v 0.01873 0.01769 0.00625
v 0.04163 0.01145 0.00833
v 0.03746 -0.00521 0.02082
v 0.02082 -0.01352 0.01873
v 0.03538 0.01769 0.01665
v 0.02706 -0.03226 0.00625
v 0.00209 -0.00520 0.02914
v 0.03330 0.01769 0.02914
v 0.04370 0.00936 0.02914
v 0.04370 0.01144 0.02082
v 0.00001 0.00520 0.02082
v 0.04370 -0.00312 0.02082
v 0.00417 0.01769 0.02914
v 0.00209 -0.00520 0.02082
v 0.04370 -0.00104 0.02914
v 0.01666 -0.00729 0.02914
v 0.03121 0.01561 0.02290
v -0.00208 0.01353 0.02914
v 0.00417 0.01769 0.02706
v -0.00208 0.00312 0.02706
v 0.04370 -0.00312 0.02706
v 0.00625 -0.00729 0.02706
v 0.01666 -0.00729 0.02706
v 0.03330 0.01769 0.02706
v 0.00001 -0.00312 0.02082
v -0.00208 0.01353 0.02706
v 0.00001 -0.00312 0.02914
v 0.03746 0.01144 0.02082
v 0.00833 -0.00520 0.02082
v 0.03538 0.01561 0.02290
v 0.01457 -0.01561 0.02914
v 0.01040 0.01977 0.03122
v 0.01040 0.01977 0.02914
v -0.02706 -0.00104 0.03538
v 0.02496 0.00104 0.03955
v 0.04371 0.00728 0.02914
v -0.02289 -0.00728 0.03955
v -0.02289 0.00728 0.03955
v -0.00831 0.01353 0.02914
v 0.02496 0.01561 0.03538
v 0.01873 -0.01561 0.03122
v -0.02289 -0.01144 0.03538
v -0.00831 0.01769 0.03538
v 0.04371 0.00104 0.03122
v 0.00208 0.00937 0.03955
v -0.00416 -0.00104 0.02914
v 0.03122 0.01769 0.02914
v 0.04371 0.00728 0.03122
v -0.00831 0.01769 0.03122
v 0.00001 -0.00520 0.03955
v 0.02496 0.00520 0.03955
v -0.02289 -0.01144 0.03746
v 0.04371 0.00104 0.02914
v -0.02289 0.00728 0.03538
v 0.01040 0.01769 0.03538
v 0.03122 0.01769 0.03122
v -0.00831 0.00520 0.02914
v 0.01665 0.01353 0.03746
v -0.02706 0.00104 0.03746
v 0.03122 0.01561 0.03330
v 0.00208 -0.00728 0.02914
v 0.01873 -0.01561 0.02914
v -0.01873 -0.01144 0.03746
v -0.01040 0.00937 0.03955
v 0.00625 0.01977 0.02914
v 0.03538 0.01561 0.03122
v -0.02497 -0.00312 0.03955
v -0.02706 0.00104 0.03538
f 140 155 166 
f 130 128 133 
f 132 131 136 
f 130 133 137 
f 131 132 138 
f 129 128 139 
f 128 130 139 
f 136 131 141 
f 133 128 142 
f 131 134 144 
f 133 127 145 
f 137 133 145 
f 127 132 146 
f 132 136 146 
f 143 137 146 
f 140 135 147 
f 142 128 147 
f 135 142 147 
f 133 142 148 
f 142 135 148 
f 139 130 149 
f 131 144 149 
f 144 139 149 
f 132 127 151 
f 127 133 151 
f 134 131 152 
f 131 138 152 
f 138 134 152 
f 132 135 153 
f 138 132 153 
f 135 140 153 
f 140 138 153 
f 134 129 154 
f 129 139 154 
f 144 134 154 
f 139 144 154 
f 140 147 155 
f 136 141 156 
f 141 150 156 
f 150 143 156 
f 135 132 157 
f 148 135 157 
f 128 129 158 
f 129 134 158 
f 147 128 158 
f 134 155 158 
f 155 147 158 
f 145 127 159 
f 137 145 159 
f 127 146 159 
f 146 137 159 
f 130 137 160 
f 137 143 160 
f 150 130 160 
f 143 150 160 
f 149 130 161 
f 130 150 161 
f 150 141 161 
f 141 131 162 
f 131 149 162 
f 149 161 162 
f 161 141 162 
f 132 151 163 
f 151 133 163 
f 157 132 163 
f 157 163 164 
f 133 148 164 
f 148 157 164 
f 163 133 164 
f 146 136 165 
f 143 146 165 
f 136 156 165 
f 156 143 165 
f 134 138 166 
f 138 140 166 
f 155 134 166 
