# Original object name hint: convex_2
v 0.07744 0.04015 -0.00859
v 0.02581 -0.03441 -0.01721
v 0.02581 -0.03441 -0.00859
v 0.08030 -0.02867 -0.00288
v 0.02581 0.01147 0.02295
v 0.05737 0.02294 -0.03442
v 0.02581 0.03441 -0.01721
v 0.08030 0.01433 0.01721
v 0.06883 -0.03154 0.01147
v 0.06309 -0.03441 -0.02868
v 0.06309 0.04588 0.00574
v 0.08891 0.01433 -0.00859
v 0.02581 -0.00286 0.02295
v 0.02581 -0.02294 -0.02294
v 0.06023 0.04588 -0.01434
v 0.05451 -0.03727 0.00574
v 0.09178 0.00288 0.00574
v 0.02581 0.03154 0.00574
v 0.08317 0.03441 0.00574
v 0.06309 0.00001 -0.03442
v 0.07457 0.00288 0.02008
v 0.05164 -0.03154 -0.03155
v 0.08030 -0.02294 -0.01434
v 0.02581 0.02580 -0.02294
v 0.07170 -0.03727 -0.01434
v 0.06309 0.02007 -0.03442
v 0.03443 -0.03441 0.00287
v 0.06023 0.04876 -0.00288
v 0.07744 -0.02867 0.00861
v 0.07457 0.03727 -0.01721
v 0.07170 0.02007 0.01721
v 0.06883 0.04876 -0.00574
v 0.07170 -0.03727 0.00287
v 0.05164 -0.03727 -0.02008
v 0.08604 0.00574 0.01434
v 0.08891 0.00001 -0.00859
v 0.07170 0.04015 0.00861
v 0.08604 0.02867 -0.00574
v 0.06883 0.04301 -0.01721
v 0.09178 0.01147 0.00574
v 0.08030 0.02580 -0.01721
v 0.02581 -0.02294 0.00861
v 0.02581 0.01720 0.02008
v 0.07457 0.01147 0.02008
v 0.08030 -0.01147 -0.01721
v 0.09178 0.00288 -0.00288
v 0.08317 0.02007 0.01434
v 0.06883 -0.02867 -0.02581
v 0.05737 0.00001 -0.03442
v 0.08317 -0.02294 0.00287
v 0.02581 0.03441 -0.00859
v 0.07170 0.04588 0.00287
v 0.06023 -0.03154 -0.03155
v 0.03155 0.01147 0.02295
v 0.08317 -0.02294 -0.00574
v 0.06023 0.04876 -0.00859
v 0.04590 -0.03727 -0.00574
v 0.08030 0.00001 0.01721
v 0.05164 -0.03441 -0.02868
v 0.06883 -0.03727 -0.02008
v 0.06309 -0.03154 0.01147
v 0.02869 -0.00286 0.02295
v 0.09178 0.01147 -0.00288
v 0.02581 0.03154 -0.02008
v -0.09179 -0.00572 -0.00861
v 0.00859 0.05450 -0.00287
v 0.00859 0.04876 0.00286
v 0.02581 -0.03155 -0.02007
v -0.07456 0.04588 -0.03155
v -0.08604 0.00860 0.01147
v 0.02581 -0.02293 0.00860
v -0.07170 -0.04015 -0.03155
v -0.07456 -0.03728 0.00286
v 0.02581 0.02581 -0.02294
v -0.00287 -0.05450 -0.00861
v -0.07744 0.04588 0.00286
v 0.02581 0.02581 0.01147
v -0.00001 -0.00860 -0.02867
v -0.07744 -0.03155 0.00860
v -0.09179 0.01147 -0.02007
v 0.00859 0.05162 -0.01720
v 0.02581 -0.01434 0.01147
v -0.07744 0.03728 0.00860
v -0.01436 0.03728 -0.02867
v -0.08891 0.02868 0.00286
v -0.01149 -0.05450 -0.01434
v -0.01149 -0.03728 0.00573
v -0.07744 0.04876 -0.01434
v -0.00862 -0.02868 -0.02867
v -0.08891 -0.01721 0.00286
v -0.00862 0.05450 -0.01434
v 0.02581 0.03442 -0.02007
v -0.08604 -0.00860 -0.02581
v -0.07456 -0.04015 -0.02581
v -0.05161 -0.02293 -0.03155
v 0.02581 -0.03442 -0.00861
v -0.00287 -0.05450 -0.01434
v -0.08031 -0.00860 0.01147
v 0.02581 -0.02293 -0.02294
v -0.07456 0.04876 -0.00001
v -0.09179 0.01721 0.00286
v -0.01149 0.04588 -0.02581
v -0.09179 0.02006 -0.01434
v -0.08891 -0.01721 -0.01434
v -0.00001 0.01147 -0.02867
v -0.07456 -0.04015 -0.01147
v -0.00287 -0.04015 -0.02294
v -0.08317 0.01147 -0.02867
v -0.08031 -0.03442 -0.00574
v -0.01149 -0.05450 -0.00861
v -0.06310 -0.04015 -0.03155
v 0.02581 0.03155 0.00573
v -0.07456 -0.03728 -0.03155
v -0.06883 0.04588 -0.03155
v -0.00287 -0.04876 -0.00287
v 0.00859 0.05450 -0.01434
v -0.08317 0.01434 0.01147
v -0.08604 0.02868 0.00860
v 0.00859 0.04302 0.00573
v -0.00574 0.05450 -0.00287
v -0.08891 -0.01434 0.00573
v -0.08031 0.04302 -0.02007
v -0.07744 0.04302 0.00573
v -0.08891 -0.01147 -0.02007
v 0.00286 0.02581 0.01147
v 0.01434 0.04876 -0.00574
v -0.00001 -0.05163 -0.00574
v 0.02581 -0.03442 -0.01720
v -0.03155 -0.01434 0.03442
v 0.02581 0.02008 0.01721
v 0.02581 0.01721 0.02008
v 0.02581 -0.01147 0.01148
v -0.02868 0.01434 0.01148
v -0.02868 0.01721 0.03442
v 0.00859 0.00001 0.03155
v -0.02007 -0.00573 0.01148
v 0.02581 0.02008 0.01148
v -0.02007 -0.01721 0.03442
v 0.02581 -0.00286 0.02295
v -0.03729 0.00001 0.02868
v -0.02868 -0.01721 0.02868
v -0.00574 0.01147 0.03442
v -0.00574 0.02008 0.01148
v 0.02581 0.00860 0.02581
v -0.02868 0.00286 0.01148
v -0.01434 0.01721 0.03442
v -0.03729 0.00286 0.03442
v -0.00860 -0.01147 0.03442
v 0.02581 -0.01147 0.01435
v -0.02580 0.01721 0.01148
v -0.00001 0.00286 0.03442
v 0.00286 -0.00860 0.03155
v -0.03155 -0.01434 0.02868
v -0.03155 0.01434 0.02868
v -0.02580 -0.00286 0.01148
v 0.02581 0.00286 0.02581
v 0.00573 0.01147 0.03155
v -0.03729 0.00286 0.02868
v 0.02294 -0.01147 0.01148
v -0.02007 -0.01721 0.02868
v -0.00574 0.02008 0.01435
v -0.02868 -0.01721 0.03442
v -0.00288 -0.00573 0.03442
v 0.00859 0.00860 0.03155
v -0.02868 0.01721 0.02868
v -0.03729 0.00001 0.03442
f 147 140 166 
f 130 131 132 
f 133 132 136 
f 130 132 137 
f 132 133 137 
f 134 129 138 
f 132 131 139 
f 134 138 142 
f 130 137 143 
f 137 133 143 
f 139 131 144 
f 133 136 145 
f 140 133 145 
f 131 130 146 
f 130 134 146 
f 134 142 146 
f 129 134 147 
f 142 138 148 
f 138 132 149 
f 132 139 149 
f 143 133 150 
f 142 148 151 
f 148 138 152 
f 138 149 152 
f 149 139 152 
f 129 140 153 
f 141 129 153 
f 140 145 153 
f 147 134 154 
f 150 133 154 
f 136 141 155 
f 145 136 155 
f 141 153 155 
f 153 145 155 
f 139 144 156 
f 151 135 156 
f 144 151 156 
f 152 139 156 
f 144 131 157 
f 131 146 157 
f 146 142 157 
f 133 140 158 
f 140 147 158 
f 154 133 158 
f 147 154 158 
f 136 132 159 
f 141 136 159 
f 132 141 159 
f 132 138 160 
f 141 132 160 
f 138 141 160 
f 134 130 161 
f 130 143 161 
f 143 134 161 
f 138 129 162 
f 129 141 162 
f 141 138 162 
f 135 151 163 
f 151 148 163 
f 148 152 163 
f 156 135 163 
f 152 156 163 
f 151 144 164 
f 142 151 164 
f 144 157 164 
f 157 142 164 
f 134 143 165 
f 143 150 165 
f 154 134 165 
f 150 154 165 
f 140 129 166 
f 129 147 166 
