# Original object name hint: convex_0
v 0.07744 0.04015 -0.00859
v 0.02581 -0.03441 -0.01721
v 0.02581 -0.03441 -0.00859
v 0.08030 -0.02867 -0.00288
v 0.02581 0.01147 0.02295
v 0.05737 0.02294 -0.03442
v 0.02581 0.03441 -0.01721
v 0.08030 0.01433 0.01721
v 0.06883 -0.03154 0.01147
v 0.06309 -0.03441 -0.02868
v 0.06309 0.04588 0.00574
v 0.08891 0.01433 -0.00859
v 0.02581 -0.00286 0.02295
v 0.02581 -0.02294 -0.02294
v 0.06023 0.04588 -0.01434
v 0.05451 -0.03727 0.00574
v 0.09178 0.00288 0.00574
v 0.02581 0.03154 0.00574
v 0.08317 0.03441 0.00574
v 0.06309 0.00001 -0.03442
v 0.07457 0.00288 0.02008
v 0.05164 -0.03154 -0.03155
v 0.08030 -0.02294 -0.01434
v 0.02581 0.02580 -0.02294
v 0.07170 -0.03727 -0.01434
v 0.06309 0.02007 -0.03442
v 0.03443 -0.03441 0.00287
v 0.06023 0.04876 -0.00288
v 0.07744 -0.02867 0.00861
v 0.07457 0.03727 -0.01721
v 0.07170 0.02007 0.01721
v 0.06883 0.04876 -0.00574
v 0.07170 -0.03727 0.00287
v 0.05164 -0.03727 -0.02008
v 0.08604 0.00574 0.01434
v 0.08891 0.00001 -0.00859
v 0.07170 0.04015 0.00861
v 0.08604 0.02867 -0.00574
v 0.06883 0.04301 -0.01721
v 0.09178 0.01147 0.00574
v 0.08030 0.02580 -0.01721
v 0.02581 -0.02294 0.00861
v 0.02581 0.01720 0.02008
v 0.07457 0.01147 0.02008
v 0.08030 -0.01147 -0.01721
v 0.09178 0.00288 -0.00288
v 0.08317 0.02007 0.01434
v 0.06883 -0.02867 -0.02581
v 0.05737 0.00001 -0.03442
v 0.08317 -0.02294 0.00287
v 0.02581 0.03441 -0.00859
v 0.07170 0.04588 0.00287
v 0.06023 -0.03154 -0.03155
v 0.03155 0.01147 0.02295
v 0.08317 -0.02294 -0.00574
v 0.06023 0.04876 -0.00859
v 0.04590 -0.03727 -0.00574
v 0.08030 0.00001 0.01721
v 0.05164 -0.03441 -0.02868
v 0.06883 -0.03727 -0.02008
v 0.06309 -0.03154 0.01147
v 0.02869 -0.00286 0.02295
v 0.09178 0.01147 -0.00288
v 0.02581 0.03154 -0.02008
v -0.09179 -0.00572 -0.00861
v 0.00859 0.05450 -0.00287
v 0.00859 0.04876 0.00286
v 0.02581 -0.03155 -0.02007
v -0.07456 0.04588 -0.03155
v -0.08604 0.00860 0.01147
v 0.02581 -0.02293 0.00860
v -0.07170 -0.04015 -0.03155
v -0.07456 -0.03728 0.00286
v 0.02581 0.02581 -0.02294
v -0.00287 -0.05450 -0.00861
v -0.07744 0.04588 0.00286
v 0.02581 0.02581 0.01147
v -0.00001 -0.00860 -0.02867
v -0.07744 -0.03155 0.00860
v -0.09179 0.01147 -0.02007
v 0.00859 0.05162 -0.01720
v 0.02581 -0.01434 0.01147
v -0.07744 0.03728 0.00860
v -0.01436 0.03728 -0.02867
v -0.08891 0.02868 0.00286
v -0.01149 -0.05450 -0.01434
v -0.01149 -0.03728 0.00573
v -0.07744 0.04876 -0.01434
v -0.00862 -0.02868 -0.02867
v -0.08891 -0.01721 0.00286
v -0.00862 0.05450 -0.01434
v 0.02581 0.03442 -0.02007
v -0.08604 -0.00860 -0.02581
v -0.07456 -0.04015 -0.02581
v -0.05161 -0.02293 -0.03155
v 0.02581 -0.03442 -0.00861
v -0.00287 -0.05450 -0.01434
v -0.08031 -0.00860 0.01147
v 0.02581 -0.02293 -0.02294
v -0.07456 0.04876 -0.00001
v -0.09179 0.01721 0.00286
v -0.01149 0.04588 -0.02581
v -0.09179 0.02006 -0.01434
v -0.08891 -0.01721 -0.01434
v -0.00001 0.01147 -0.02867
v -0.07456 -0.04015 -0.01147
v -0.00287 -0.04015 -0.02294
v -0.08317 0.01147 -0.02867
v -0.08031 -0.03442 -0.00574
v -0.01149 -0.05450 -0.00861
v -0.06310 -0.04015 -0.03155
v 0.02581 0.03155 0.00573
v -0.07456 -0.03728 -0.03155
v -0.06883 0.04588 -0.03155
v -0.00287 -0.04876 -0.00287
v 0.00859 0.05450 -0.01434
v -0.08317 0.01434 0.01147
v -0.08604 0.02868 0.00860
v 0.00859 0.04302 0.00573
v -0.00574 0.05450 -0.00287
v -0.08891 -0.01434 0.00573
v -0.08031 0.04302 -0.02007
v -0.07744 0.04302 0.00573
v -0.08891 -0.01147 -0.02007
v 0.00286 0.02581 0.01147
v 0.01434 0.04876 -0.00574
v -0.00001 -0.05163 -0.00574
v 0.02581 -0.03442 -0.01720
v -0.03155 -0.01434 0.03442
v 0.02581 0.02008 0.01721
v 0.02581 0.01721 0.02008
v 0.02581 -0.01147 0.01148
v -0.02868 0.01434 0.01148
v -0.02868 0.01721 0.03442
v 0.00859 0.00001 0.03155
v -0.02007 -0.00573 0.01148
v 0.02581 0.02008 0.01148
v -0.02007 -0.01721 0.03442
v 0.02581 -0.00286 0.02295
v -0.03729 0.00001 0.02868
v -0.02868 -0.01721 0.02868
v -0.00574 0.01147 0.03442
v -0.00574 0.02008 0.01148
v 0.02581 0.00860 0.02581
v -0.02868 0.00286 0.01148
v -0.01434 0.01721 0.03442
v -0.03729 0.00286 0.03442
v -0.00860 -0.01147 0.03442
v 0.02581 -0.01147 0.01435
v -0.02580 0.01721 0.01148
v -0.00001 0.00286 0.03442
v 0.00286 -0.00860 0.03155
v -0.03155 -0.01434 0.02868
v -0.03155 0.01434 0.02868
v -0.02580 -0.00286 0.01148
v 0.02581 0.00286 0.02581
v 0.00573 0.01147 0.03155
v -0.03729 0.00286 0.02868
v 0.02294 -0.01147 0.01148
v -0.02007 -0.01721 0.02868
v -0.00574 0.02008 0.01435
v -0.02868 -0.01721 0.03442
v -0.00288 -0.00573 0.03442
v 0.00859 0.00860 0.03155
v -0.02868 0.01721 0.02868
v -0.03729 0.00001 0.03442
f 24 7 64 
f 2 3 5 
f 2 5 7 
f 5 3 13 
f 2 7 14 
f 7 5 18 
f 2 14 22 
f 14 7 24 
f 6 14 24 
f 20 6 26 
f 3 16 27 
f 16 13 27 
f 18 11 28 
f 19 1 32 
f 28 11 32 
f 9 16 33 
f 25 4 33 
f 16 25 33 
f 4 29 33 
f 29 9 33 
f 25 16 34 
f 29 17 35 
f 11 5 37 
f 1 19 38 
f 30 1 38 
f 6 15 39 
f 26 6 39 
f 1 30 39 
f 30 26 39 
f 32 1 39 
f 15 32 39 
f 35 17 40 
f 38 19 40 
f 20 26 41 
f 26 30 41 
f 12 36 41 
f 38 12 41 
f 30 38 41 
f 13 3 42 
f 3 27 42 
f 27 13 42 
f 5 11 43 
f 18 5 43 
f 11 18 43 
f 35 8 44 
f 21 35 44 
f 36 23 45 
f 20 41 45 
f 41 36 45 
f 36 12 46 
f 23 36 46 
f 40 17 46 
f 8 35 47 
f 19 37 47 
f 37 31 47 
f 40 19 47 
f 35 40 47 
f 31 44 47 
f 44 8 47 
f 20 45 48 
f 45 23 48 
f 14 6 49 
f 6 20 49 
f 22 14 49 
f 20 22 49 
f 29 4 50 
f 17 29 50 
f 46 17 50 
f 7 18 51 
f 28 7 51 
f 18 28 51 
f 19 32 52 
f 32 11 52 
f 11 37 52 
f 37 19 52 
f 10 22 53 
f 22 20 53 
f 48 10 53 
f 20 48 53 
f 5 13 54 
f 37 5 54 
f 31 37 54 
f 21 44 54 
f 44 31 54 
f 4 25 55 
f 25 23 55 
f 23 46 55 
f 50 4 55 
f 46 50 55 
f 15 7 56 
f 7 28 56 
f 28 32 56 
f 32 15 56 
f 3 2 57 
f 16 3 57 
f 2 34 57 
f 34 16 57 
f 21 9 58 
f 9 29 58 
f 35 21 58 
f 29 35 58 
f 2 22 59 
f 22 10 59 
f 34 2 59 
f 10 34 59 
f 23 25 60 
f 34 10 60 
f 25 34 60 
f 10 48 60 
f 48 23 60 
f 9 13 61 
f 16 9 61 
f 13 16 61 
f 13 9 62 
f 9 21 62 
f 54 13 62 
f 21 54 62 
f 12 38 63 
f 38 40 63 
f 46 12 63 
f 40 46 63 
f 15 6 64 
f 7 15 64 
f 6 24 64 
