# Original object name hint: convex_1
v 0.07744 0.04015 -0.00859
v 0.02581 -0.03441 -0.01721
v 0.02581 -0.03441 -0.00859
v 0.08030 -0.02867 -0.00288
v 0.02581 0.01147 0.02295
v 0.05737 0.02294 -0.03442
v 0.02581 0.03441 -0.01721
v 0.08030 0.01433 0.01721
v 0.06883 -0.03154 0.01147
v 0.06309 -0.03441 -0.02868
v 0.06309 0.04588 0.00574
v 0.08891 0.01433 -0.00859
v 0.02581 -0.00286 0.02295
v 0.02581 -0.02294 -0.02294
v 0.06023 0.04588 -0.01434
v 0.05451 -0.03727 0.00574
v 0.09178 0.00288 0.00574
v 0.02581 0.03154 0.00574
v 0.08317 0.03441 0.00574
v 0.06309 0.00001 -0.03442
v 0.07457 0.00288 0.02008
v 0.05164 -0.03154 -0.03155
v 0.08030 -0.02294 -0.01434
v 0.02581 0.02580 -0.02294
v 0.07170 -0.03727 -0.01434
v 0.06309 0.02007 -0.03442
v 0.03443 -0.03441 0.00287
v 0.06023 0.04876 -0.00288
v 0.07744 -0.02867 0.00861
v 0.07457 0.03727 -0.01721
v 0.07170 0.02007 0.01721
v 0.06883 0.04876 -0.00574
v 0.07170 -0.03727 0.00287
v 0.05164 -0.03727 -0.02008
v 0.08604 0.00574 0.01434
v 0.08891 0.00001 -0.00859
v 0.07170 0.04015 0.00861
v 0.08604 0.02867 -0.00574
v 0.06883 0.04301 -0.01721
v 0.09178 0.01147 0.00574
v 0.08030 0.02580 -0.01721
v 0.02581 -0.02294 0.00861
v 0.02581 0.01720 0.02008
v 0.07457 0.01147 0.02008
v 0.08030 -0.01147 -0.01721
v 0.09178 0.00288 -0.00288
v 0.08317 0.02007 0.01434
v 0.06883 -0.02867 -0.02581
v 0.05737 0.00001 -0.03442
v 0.08317 -0.02294 0.00287
v 0.02581 0.03441 -0.00859
v 0.07170 0.04588 0.00287
v 0.06023 -0.03154 -0.03155
v 0.03155 0.01147 0.02295
v 0.08317 -0.02294 -0.00574
v 0.06023 0.04876 -0.00859
v 0.04590 -0.03727 -0.00574
v 0.08030 0.00001 0.01721
v 0.05164 -0.03441 -0.02868
v 0.06883 -0.03727 -0.02008
v 0.06309 -0.03154 0.01147
v 0.02869 -0.00286 0.02295
v 0.09178 0.01147 -0.00288
v 0.02581 0.03154 -0.02008
v -0.09179 -0.00572 -0.00861
v 0.00859 0.05450 -0.00287
v 0.00859 0.04876 0.00286
v 0.02581 -0.03155 -0.02007
v -0.07456 0.04588 -0.03155
v -0.08604 0.00860 0.01147
v 0.02581 -0.02293 0.00860
v -0.07170 -0.04015 -0.03155
v -0.07456 -0.03728 0.00286
v 0.02581 0.02581 -0.02294
v -0.00287 -0.05450 -0.00861
v -0.07744 0.04588 0.00286
v 0.02581 0.02581 0.01147
v -0.00001 -0.00860 -0.02867
v -0.07744 -0.03155 0.00860
v -0.09179 0.01147 -0.02007
v 0.00859 0.05162 -0.01720
v 0.02581 -0.01434 0.01147
v -0.07744 0.03728 0.00860
v -0.01436 0.03728 -0.02867
v -0.08891 0.02868 0.00286
v -0.01149 -0.05450 -0.01434
v -0.01149 -0.03728 0.00573
v -0.07744 0.04876 -0.01434
v -0.00862 -0.02868 -0.02867
v -0.08891 -0.01721 0.00286
v -0.00862 0.05450 -0.01434
v 0.02581 0.03442 -0.02007
v -0.08604 -0.00860 -0.02581
v -0.07456 -0.04015 -0.02581
v -0.05161 -0.02293 -0.03155
v 0.02581 -0.03442 -0.00861
v -0.00287 -0.05450 -0.01434
v -0.08031 -0.00860 0.01147
v 0.02581 -0.02293 -0.02294
v -0.07456 0.04876 -0.00001
v -0.09179 0.01721 0.00286
v -0.01149 0.04588 -0.02581
v -0.09179 0.02006 -0.01434
v -0.08891 -0.01721 -0.01434
v -0.00001 0.01147 -0.02867
v -0.07456 -0.04015 -0.01147
v -0.00287 -0.04015 -0.02294
v -0.08317 0.01147 -0.02867
v -0.08031 -0.03442 -0.00574
v -0.01149 -0.05450 -0.00861
v -0.06310 -0.04015 -0.03155
v 0.02581 0.03155 0.00573
v -0.07456 -0.03728 -0.03155
v -0.06883 0.04588 -0.03155
v -0.00287 -0.04876 -0.00287
v 0.00859 0.05450 -0.01434
v -0.08317 0.01434 0.01147
v -0.08604 0.02868 0.00860
v 0.00859 0.04302 0.00573
v -0.00574 0.05450 -0.00287
v -0.08891 -0.01434 0.00573
v -0.08031 0.04302 -0.02007
v -0.07744 0.04302 0.00573
v -0.08891 -0.01147 -0.02007
v 0.00286 0.02581 0.01147
v 0.01434 0.04876 -0.00574
v -0.00001 -0.05163 -0.00574
v 0.02581 -0.03442 -0.01720
v -0.03155 -0.01434 0.03442
v 0.02581 0.02008 0.01721
v 0.02581 0.01721 0.02008
v 0.02581 -0.01147 0.01148
v -0.02868 0.01434 0.01148
v -0.02868 0.01721 0.03442
v 0.00859 0.00001 0.03155
v -0.02007 -0.00573 0.01148
v 0.02581 0.02008 0.01148
v -0.02007 -0.01721 0.03442
v 0.02581 -0.00286 0.02295
v -0.03729 0.00001 0.02868
v -0.02868 -0.01721 0.02868
v -0.00574 0.01147 0.03442
v -0.00574 0.02008 0.01148
v 0.02581 0.00860 0.02581
v -0.02868 0.00286 0.01148
v -0.01434 0.01721 0.03442
v -0.03729 0.00286 0.03442
v -0.00860 -0.01147 0.03442
v 0.02581 -0.01147 0.01435
v -0.02580 0.01721 0.01148
v -0.00001 0.00286 0.03442
v 0.00286 -0.00860 0.03155
v -0.03155 -0.01434 0.02868
v -0.03155 0.01434 0.02868
v -0.02580 -0.00286 0.01148
v 0.02581 0.00286 0.02581
v 0.00573 0.01147 0.03155
v -0.03729 0.00286 0.02868
v 0.02294 -0.01147 0.01148
v -0.02007 -0.01721 0.02868
v -0.00574 0.02008 0.01435
v -0.02868 -0.01721 0.03442
v -0.00288 -0.00573 0.03442
v 0.00859 0.00860 0.03155
v -0.02868 0.01721 0.02868
v -0.03729 0.00001 0.03442
f 97 68 128 
f 71 68 74 
f 66 67 77 
f 71 74 77 
f 77 70 82 
f 71 77 82 
f 71 82 87 
f 82 79 87 
f 85 76 88 
f 69 88 91 
f 77 74 92 
f 72 86 94 
f 72 69 95 
f 78 89 95 
f 68 71 96 
f 96 75 97 
f 86 72 97 
f 75 86 97 
f 82 70 98 
f 79 82 98 
f 74 68 99 
f 78 74 99 
f 68 89 99 
f 89 78 99 
f 88 76 100 
f 91 88 100 
f 80 65 101 
f 74 84 102 
f 92 74 102 
f 81 92 102 
f 69 80 103 
f 80 101 103 
f 101 85 103 
f 90 65 104 
f 74 78 105 
f 84 74 105 
f 78 95 105 
f 94 86 106 
f 89 68 107 
f 68 97 107 
f 80 69 108 
f 93 80 108 
f 73 79 109 
f 79 90 109 
f 90 104 109 
f 104 94 109 
f 106 73 109 
f 94 106 109 
f 79 73 110 
f 86 75 110 
f 73 106 110 
f 106 86 110 
f 72 95 111 
f 95 89 111 
f 97 72 111 
f 89 107 111 
f 107 97 111 
f 66 77 112 
f 77 92 112 
f 69 72 113 
f 72 94 113 
f 94 104 113 
f 108 69 113 
f 93 108 113 
f 69 91 114 
f 95 69 114 
f 102 84 114 
f 84 105 114 
f 105 95 114 
f 71 87 115 
f 87 79 115 
f 79 110 115 
f 110 75 115 
f 91 66 116 
f 92 81 116 
f 81 102 116 
f 114 91 116 
f 102 114 116 
f 70 77 117 
f 117 83 118 
f 76 85 118 
f 101 70 118 
f 85 101 118 
f 70 117 118 
f 77 67 119 
f 67 83 119 
f 83 77 119 
f 67 66 120 
f 66 91 120 
f 100 76 120 
f 91 100 120 
f 65 90 121 
f 90 79 121 
f 98 70 121 
f 79 98 121 
f 101 65 121 
f 70 101 121 
f 88 69 122 
f 85 88 122 
f 69 103 122 
f 103 85 122 
f 83 67 123 
f 118 83 123 
f 76 118 123 
f 67 120 123 
f 120 76 123 
f 65 80 124 
f 80 93 124 
f 104 65 124 
f 93 113 124 
f 113 104 124 
f 77 83 125 
f 117 77 125 
f 83 117 125 
f 66 112 126 
f 112 92 126 
f 116 66 126 
f 92 116 126 
f 96 71 127 
f 75 96 127 
f 71 115 127 
f 115 75 127 
f 68 96 128 
f 96 97 128 
