# Original object name hint: convex_5
v 0.05283 0.00690 0.01034
v 0.05513 0.01837 0.03790
v 0.05513 0.02067 0.03560
v 0.03446 0.02986 0.02183
v 0.03446 0.00000 0.01953
v 0.05513 0.02986 0.01494
v 0.05513 -0.00459 0.02183
v 0.03905 0.01378 0.03560
v 0.03446 0.02986 0.01264
v 0.03446 0.00000 0.01494
v 0.05513 -0.00459 0.01264
v 0.03905 0.02297 0.03560
v 0.05513 0.02986 0.02412
v 0.05513 0.01607 0.01034
v 0.05283 0.01378 0.03790
v 0.03446 0.00919 0.02641
v 0.03446 0.00919 0.01264
v 0.05283 -0.00459 0.02183
v 0.05053 0.02756 0.01264
v 0.05283 -0.00459 0.01264
v 0.03446 0.01837 0.02641
v 0.05513 0.01378 0.03790
v 0.04365 0.02297 0.03560
v 0.06203 -0.03215 -0.00803
v 0.06891 0.02985 0.03790
v 0.06891 0.05743 0.01033
v 0.05513 0.02066 0.03790
v 0.05743 0.02985 -0.02870
v 0.07121 0.02066 -0.02411
v 0.06891 -0.02756 0.01722
v 0.05513 -0.02296 0.01033
v 0.06432 -0.02526 -0.02870
v 0.07351 0.02985 0.03100
v 0.06661 0.04364 -0.02870
v 0.05743 -0.02066 -0.02411
v 0.07121 -0.02066 0.00344
v 0.05513 0.03215 0.01722
v 0.07351 0.04364 0.00116
v 0.06203 -0.00458 0.03330
v 0.06203 0.04364 -0.02870
v 0.06891 0.01150 0.03790
v 0.06432 0.00231 -0.03331
v 0.05973 -0.03215 0.01262
v 0.06661 -0.02526 -0.02641
v 0.06661 0.05743 0.01033
v 0.07351 0.01150 0.00344
v 0.05513 0.01150 0.03790
v 0.07351 0.01836 0.03100
v 0.05513 -0.02296 0.00116
v 0.05973 -0.02526 -0.02870
v 0.06891 0.03215 -0.03100
v 0.06661 -0.03215 -0.00574
v 0.06203 0.02755 -0.03331
v 0.05973 -0.02296 0.02182
v 0.05973 -0.02985 -0.02181
v 0.06891 0.00690 -0.03100
v 0.06891 -0.02296 0.02182
v 0.06432 0.02985 0.03790
v 0.05513 -0.01837 0.01952
v 0.07351 0.04593 0.01262
v 0.06891 0.05743 0.00574
v 0.07121 -0.02066 0.01262
v 0.06891 0.04134 -0.02641
v 0.06891 -0.02985 -0.00344
v 0.07121 0.01377 -0.02181
v 0.05973 -0.00918 -0.03100
v 0.06661 -0.03215 0.01262
v 0.05513 0.03215 0.02182
v 0.05973 0.03904 -0.02641
v 0.05743 -0.02985 -0.00114
v 0.07351 0.02066 -0.00344
v 0.06661 -0.00918 0.03100
v 0.06661 0.02755 -0.03331
v 0.07121 0.03215 -0.02181
v 0.05513 0.02066 0.01033
v 0.07351 0.00920 0.01952
v 0.05743 0.01150 -0.02870
v 0.06661 0.05743 0.00574
v 0.06432 -0.02985 -0.02181
v 0.07121 -0.01607 -0.00114
v 0.07121 0.02985 0.03560
v 0.06203 -0.01377 0.02870
v 0.07351 0.03674 -0.00344
v 0.06661 -0.00918 -0.03100
v 0.07351 0.04364 0.01722
v 0.06661 0.00920 0.03790
v 0.05743 0.03215 -0.02641
v 0.02986 -0.06432 -0.03101
v -0.05282 -0.05513 -0.04249
v -0.05742 -0.05513 -0.03790
v 0.00688 -0.05054 -0.02872
v -0.04363 -0.06202 -0.01723
v -0.05512 -0.04595 -0.03331
v 0.00458 -0.05284 -0.01723
v 0.00228 -0.05284 -0.04249
v -0.03674 -0.06202 -0.04020
v 0.02756 -0.06202 -0.01723
v 0.02986 -0.05743 -0.03331
v 0.00918 -0.05972 -0.04249
v -0.03445 -0.05513 -0.01723
v -0.01378 -0.06432 -0.02183
v 0.02756 -0.05743 -0.01723
v -0.05282 -0.04824 -0.04020
v 0.00458 -0.05054 -0.03790
v -0.01607 -0.06432 -0.03560
v -0.05742 -0.05054 -0.02872
v -0.04593 -0.06202 -0.03560
v 0.02756 -0.06432 -0.01953
v 0.01377 -0.06202 -0.04020
v -0.02067 -0.05284 -0.01723
v -0.05512 -0.05743 -0.02872
v -0.04134 -0.05972 -0.04249
v -0.05053 -0.04595 -0.03560
v -0.05053 -0.05054 -0.04249
v -0.00001 -0.05054 -0.04020
v -0.04363 -0.05743 -0.01723
v -0.05282 -0.04824 -0.02872
v 0.02756 -0.05743 -0.03560
v 0.02986 -0.05743 -0.02183
v -0.05282 -0.05972 -0.03560
v -0.05742 -0.04824 -0.03790
v 0.02756 -0.06432 -0.03331
v 0.00458 -0.05054 -0.02642
v -0.01837 -0.06432 -0.02412
v 0.00918 -0.05513 -0.04249
v 0.02756 -0.06202 -0.03560
v -0.05742 -0.05513 -0.02872
v 0.02986 -0.06202 -0.01953
v -0.04363 -0.04824 -0.04020
v -0.05053 -0.04595 -0.03331
v 0.00688 -0.05054 -0.03560
v -0.04823 -0.05972 -0.04020
v 0.00918 -0.05284 -0.04020
v 0.02296 -0.05513 -0.02412
v -0.00231 -0.05743 0.01723
v -0.04364 -0.06202 -0.01722
v -0.04593 -0.06202 -0.00574
v -0.02756 -0.04365 0.01263
v 0.02756 -0.05743 -0.01722
v 0.02986 -0.06202 0.01263
v -0.03674 -0.06202 0.01723
v -0.02067 -0.05284 -0.01722
v -0.05053 -0.05054 0.00115
v 0.02756 -0.06202 -0.01722
v 0.02986 -0.05743 0.01263
v -0.05053 -0.05054 0.01493
v -0.01837 -0.04365 0.01493
v 0.00459 -0.05284 -0.01722
v -0.05053 -0.05972 0.01263
v -0.04364 -0.05743 -0.01722
v -0.02067 -0.04824 0.01723
v 0.02756 -0.05743 0.01493
v -0.05053 -0.05743 -0.00344
v 0.02526 -0.06202 0.01493
v -0.04364 -0.05284 0.01723
v 0.02986 -0.05743 0.00115
v -0.04823 -0.05054 -0.00114
v -0.01837 -0.04365 0.01263
v -0.02756 -0.04365 0.01493
v -0.04593 -0.06202 0.01033
v -0.04364 -0.05972 0.01723
v -0.05053 -0.05972 -0.00114
v -0.01837 -0.06202 0.01723
v -0.03445 -0.05513 -0.01722
v -0.05053 -0.05284 -0.00344
v -0.07121 0.00460 -0.04250
v -0.05973 0.02296 0.01953
v -0.05973 0.02296 0.01263
v -0.06891 0.06432 -0.02412
v -0.07351 -0.01148 0.01492
v -0.06202 -0.01608 -0.03100
v -0.07351 0.04134 0.01263
v -0.05973 -0.02297 0.01723
v -0.06432 0.03215 -0.04250
v -0.07351 0.03445 -0.03790
v -0.06891 -0.02297 -0.02871
v -0.06432 0.04593 0.01492
v -0.06662 0.06432 -0.02871
v -0.07351 -0.00228 -0.02871
v -0.07121 0.01610 0.01953
v -0.06891 -0.02527 0.00343
v -0.07351 0.04824 -0.02871
v -0.06662 0.00690 -0.04479
v -0.06891 0.03215 -0.04479
v -0.06891 -0.01378 0.01953
v -0.07121 0.04593 0.01492
v -0.06432 0.05054 -0.02871
v -0.06891 -0.02297 0.01492
v -0.07351 -0.01378 0.00573
v -0.05973 -0.02297 0.01033
v -0.06432 -0.02067 -0.03100
v -0.06432 -0.02527 -0.00345
v -0.06891 0.06432 -0.02871
v -0.06202 -0.00459 -0.03100
v -0.06432 0.01610 -0.04479
v -0.05973 -0.01608 0.01953
v -0.07351 0.00690 -0.03790
v -0.07121 0.02756 -0.04479
v -0.06891 -0.01838 -0.03330
v -0.07351 0.04364 0.01033
v -0.07121 0.04824 0.01263
v -0.06662 0.06432 -0.02412
v -0.07121 0.05743 -0.02181
v -0.07121 -0.02067 0.01033
v -0.07351 0.03445 0.01492
v -0.06891 0.02296 0.01953
v -0.07121 0.01149 -0.04479
v -0.06662 0.03215 -0.04479
v -0.06432 -0.01838 -0.03330
v -0.07121 -0.00688 0.01953
v -0.06432 0.00460 -0.04250
v -0.05973 0.01839 0.01033
v -0.06662 0.04824 0.01263
v -0.07121 -0.02067 -0.00345
v -0.07121 0.03445 -0.04250
v -0.07351 0.04364 -0.03330
v -0.07121 -0.01608 0.01723
v -0.06662 -0.02297 -0.02871
v 0.00458 0.05052 0.01493
v -0.05973 -0.02526 0.01264
v -0.05973 -0.02526 0.01493
v 0.03446 -0.01607 0.01264
v 0.03446 -0.00229 0.02182
v -0.05283 0.03445 0.01952
v -0.00920 0.05052 0.00804
v -0.02067 -0.04364 0.01034
v -0.04824 0.06432 0.01264
v 0.03446 0.02985 0.02182
v -0.02756 -0.04364 0.01723
v -0.05973 -0.01607 0.01952
v 0.02986 0.02296 0.01034
v -0.05973 0.01607 0.01034
v -0.00000 0.03674 0.02182
v -0.02297 0.06432 0.01493
v -0.00920 -0.00688 0.02182
v -0.05973 -0.02296 0.01034
v 0.02527 -0.01147 0.01034
v 0.03446 0.02985 0.01264
v 0.03214 -0.01607 0.01952
v -0.05973 0.02296 0.01952
v -0.00000 0.05052 0.00804
v -0.04824 0.06432 0.01493
v -0.02526 0.01836 0.02182
v -0.01607 -0.04364 0.01493
v -0.04824 -0.03673 0.01264
v -0.04824 0.04593 0.01034
v 0.02297 -0.00918 0.02182
v 0.00229 0.04363 0.00804
v 0.00229 0.05282 0.01034
v -0.05053 -0.03215 0.01723
v -0.02297 0.06432 0.01264
v 0.03446 0.03214 0.01952
v -0.04824 0.03904 0.01952
v -0.01377 -0.04133 0.01034
v 0.01607 0.03674 0.02182
v -0.02067 -0.04364 0.01723
v -0.00920 0.04363 0.00804
v 0.03214 -0.01837 0.01723
v -0.02526 -0.04364 0.01034
v -0.05283 0.05052 0.01264
v -0.00460 -0.00918 0.02182
v 0.03214 -0.01837 0.01264
v 0.03446 0.03214 0.01493
v -0.05973 0.02296 0.01264
v -0.01607 0.02985 0.02182
v -0.04824 0.05282 0.01723
v -0.02526 0.01147 0.02182
v -0.05513 -0.01837 0.01952
v 0.02986 0.01147 0.01034
v -0.04824 -0.03673 0.01493
v -0.02985 -0.04364 0.01264
v 0.03446 -0.01607 0.01723
v -0.01607 -0.04364 0.01264
v -0.04593 -0.03215 0.01034
v 0.00229 0.05282 0.01264
v -0.00919 0.00460 0.02182
v 0.01148 0.03445 0.02412
v 0.01148 0.03445 0.02182
v 0.03446 0.00230 0.02182
v 0.00919 0.01379 0.03101
v 0.03446 0.02756 0.02412
v -0.01148 0.02526 0.02412
v 0.01148 -0.00230 0.02412
v 0.03446 0.00689 0.02642
v 0.01378 0.02297 0.03101
v -0.00919 0.01149 0.02642
v 0.03446 0.02756 0.02182
v -0.00229 0.02297 0.02871
v -0.00459 0.03216 0.02182
v -0.00459 0.00001 0.02412
v 0.01148 -0.00230 0.02182
v -0.00459 0.03216 0.02412
v -0.01378 0.01149 0.02182
v 0.03446 0.02067 0.02642
v 0.02067 -0.00230 0.02412
v 0.01608 0.01608 0.03101
v -0.00229 0.01149 0.02871
v -0.01378 0.01149 0.02412
v 0.00919 0.02297 0.03101
v -0.01378 0.02067 0.02182
v 0.00460 0.03445 0.02412
v -0.01378 0.02067 0.02412
v 0.01378 0.01379 0.03101
v 0.03446 0.00230 0.02412
v -0.00459 0.00001 0.02182
v 0.02067 0.03216 0.02412
v -0.00689 0.01838 0.04250
v 0.01608 0.02986 0.04020
v 0.02067 0.02756 0.04250
v 0.02986 0.01379 0.03561
v 0.00919 0.02297 0.03102
v -0.00229 0.00919 0.04250
v 0.02756 0.01379 0.04250
v 0.02756 0.02527 0.03561
v -0.00459 0.02067 0.04480
v 0.00230 0.02986 0.03790
v 0.00919 0.01838 0.03102
v -0.00459 0.02527 0.03790
v -0.00229 0.00919 0.04020
v 0.02986 0.02067 0.04250
v 0.00689 0.01149 0.04480
v 0.00460 0.02986 0.04250
v 0.01608 0.02986 0.03561
v -0.00689 0.01149 0.04480
v 0.02297 0.01149 0.04020
v 0.01378 0.02297 0.03102
v -0.00459 0.01149 0.04020
v 0.03216 0.02067 0.04020
v 0.00689 0.01838 0.04480
v 0.02986 0.02297 0.03561
v 0.00689 0.02986 0.03561
v -0.00229 0.02756 0.04020
v -0.00459 0.02067 0.03790
v 0.03216 0.01608 0.04020
v 0.02756 0.02527 0.04020
f 252 249 275 
f 223 222 228 
f 220 221 230 
f 220 230 232 
f 223 228 233 
f 223 233 235 
f 232 225 236 
f 220 232 236 
f 228 222 238 
f 222 231 238 
f 232 230 240 
f 225 227 241 
f 238 231 241 
f 234 227 242 
f 233 234 242 
f 240 224 242 
f 235 233 243 
f 224 240 243 
f 240 230 243 
f 229 226 244 
f 221 220 245 
f 220 236 245 
f 227 225 246 
f 225 232 246 
f 232 227 246 
f 223 235 247 
f 239 223 247 
f 225 241 248 
f 241 231 248 
f 238 241 249 
f 230 221 250 
f 227 234 251 
f 241 227 251 
f 234 249 251 
f 249 241 251 
f 219 234 252 
f 234 228 252 
f 228 238 252 
f 226 248 254 
f 248 237 254 
f 233 228 255 
f 228 234 255 
f 234 233 255 
f 229 244 256 
f 247 229 256 
f 239 247 256 
f 236 225 257 
f 225 248 257 
f 248 226 257 
f 256 244 258 
f 239 256 258 
f 226 229 259 
f 257 226 259 
f 227 232 260 
f 242 227 260 
f 240 242 260 
f 247 235 261 
f 229 247 261 
f 237 222 262 
f 254 237 262 
f 222 258 262 
f 258 244 262 
f 238 249 263 
f 252 238 263 
f 249 252 263 
f 232 240 264 
f 260 232 264 
f 240 260 264 
f 224 243 265 
f 243 233 265 
f 253 224 265 
f 233 253 265 
f 242 224 266 
f 233 242 266 
f 224 253 266 
f 253 233 266 
f 230 235 267 
f 243 230 267 
f 235 243 267 
f 235 230 268 
f 230 250 268 
f 250 229 268 
f 229 261 268 
f 261 235 268 
f 231 222 269 
f 222 237 269 
f 237 248 269 
f 248 231 269 
f 221 245 270 
f 250 221 270 
f 229 250 270 
f 259 229 271 
f 245 259 271 
f 270 245 271 
f 229 270 271 
f 222 223 272 
f 223 239 272 
f 258 222 272 
f 239 258 272 
f 244 226 273 
f 226 254 273 
f 254 262 273 
f 262 244 273 
f 245 236 274 
f 236 257 274 
f 259 245 274 
f 257 259 274 
f 234 219 275 
f 249 234 275 
f 219 252 275 
