# Original object name hint: convex_2
v 0.05283 0.00690 0.01034
v 0.05513 0.01837 0.03790
v 0.05513 0.02067 0.03560
v 0.03446 0.02986 0.02183
v 0.03446 0.00000 0.01953
v 0.05513 0.02986 0.01494
v 0.05513 -0.00459 0.02183
v 0.03905 0.01378 0.03560
v 0.03446 0.02986 0.01264
v 0.03446 0.00000 0.01494
v 0.05513 -0.00459 0.01264
v 0.03905 0.02297 0.03560
v 0.05513 0.02986 0.02412
v 0.05513 0.01607 0.01034
v 0.05283 0.01378 0.03790
v 0.03446 0.00919 0.02641
v 0.03446 0.00919 0.01264
v 0.05283 -0.00459 0.02183
v 0.05053 0.02756 0.01264
v 0.05283 -0.00459 0.01264
v 0.03446 0.01837 0.02641
v 0.05513 0.01378 0.03790
v 0.04365 0.02297 0.03560
v 0.06203 -0.03215 -0.00803
v 0.06891 0.02985 0.03790
v 0.06891 0.05743 0.01033
v 0.05513 0.02066 0.03790
v 0.05743 0.02985 -0.02870
v 0.07121 0.02066 -0.02411
v 0.06891 -0.02756 0.01722
v 0.05513 -0.02296 0.01033
v 0.06432 -0.02526 -0.02870
v 0.07351 0.02985 0.03100
v 0.06661 0.04364 -0.02870
v 0.05743 -0.02066 -0.02411
v 0.07121 -0.02066 0.00344
v 0.05513 0.03215 0.01722
v 0.07351 0.04364 0.00116
v 0.06203 -0.00458 0.03330
v 0.06203 0.04364 -0.02870
v 0.06891 0.01150 0.03790
v 0.06432 0.00231 -0.03331
v 0.05973 -0.03215 0.01262
v 0.06661 -0.02526 -0.02641
v 0.06661 0.05743 0.01033
v 0.07351 0.01150 0.00344
v 0.05513 0.01150 0.03790
v 0.07351 0.01836 0.03100
v 0.05513 -0.02296 0.00116
v 0.05973 -0.02526 -0.02870
v 0.06891 0.03215 -0.03100
v 0.06661 -0.03215 -0.00574
v 0.06203 0.02755 -0.03331
v 0.05973 -0.02296 0.02182
v 0.05973 -0.02985 -0.02181
v 0.06891 0.00690 -0.03100
v 0.06891 -0.02296 0.02182
v 0.06432 0.02985 0.03790
v 0.05513 -0.01837 0.01952
v 0.07351 0.04593 0.01262
v 0.06891 0.05743 0.00574
v 0.07121 -0.02066 0.01262
v 0.06891 0.04134 -0.02641
v 0.06891 -0.02985 -0.00344
v 0.07121 0.01377 -0.02181
v 0.05973 -0.00918 -0.03100
v 0.06661 -0.03215 0.01262
v 0.05513 0.03215 0.02182
v 0.05973 0.03904 -0.02641
v 0.05743 -0.02985 -0.00114
v 0.07351 0.02066 -0.00344
v 0.06661 -0.00918 0.03100
v 0.06661 0.02755 -0.03331
v 0.07121 0.03215 -0.02181
v 0.05513 0.02066 0.01033
v 0.07351 0.00920 0.01952
v 0.05743 0.01150 -0.02870
v 0.06661 0.05743 0.00574
v 0.06432 -0.02985 -0.02181
v 0.07121 -0.01607 -0.00114
v 0.07121 0.02985 0.03560
v 0.06203 -0.01377 0.02870
v 0.07351 0.03674 -0.00344
v 0.06661 -0.00918 -0.03100
v 0.07351 0.04364 0.01722
v 0.06661 0.00920 0.03790
v 0.05743 0.03215 -0.02641
v 0.02986 -0.06432 -0.03101
v -0.05282 -0.05513 -0.04249
v -0.05742 -0.05513 -0.03790
v 0.00688 -0.05054 -0.02872
v -0.04363 -0.06202 -0.01723
v -0.05512 -0.04595 -0.03331
v 0.00458 -0.05284 -0.01723
v 0.00228 -0.05284 -0.04249
v -0.03674 -0.06202 -0.04020
v 0.02756 -0.06202 -0.01723
v 0.02986 -0.05743 -0.03331
v 0.00918 -0.05972 -0.04249
v -0.03445 -0.05513 -0.01723
v -0.01378 -0.06432 -0.02183
v 0.02756 -0.05743 -0.01723
v -0.05282 -0.04824 -0.04020
v 0.00458 -0.05054 -0.03790
v -0.01607 -0.06432 -0.03560
v -0.05742 -0.05054 -0.02872
v -0.04593 -0.06202 -0.03560
v 0.02756 -0.06432 -0.01953
v 0.01377 -0.06202 -0.04020
v -0.02067 -0.05284 -0.01723
v -0.05512 -0.05743 -0.02872
v -0.04134 -0.05972 -0.04249
v -0.05053 -0.04595 -0.03560
v -0.05053 -0.05054 -0.04249
v -0.00001 -0.05054 -0.04020
v -0.04363 -0.05743 -0.01723
v -0.05282 -0.04824 -0.02872
v 0.02756 -0.05743 -0.03560
v 0.02986 -0.05743 -0.02183
v -0.05282 -0.05972 -0.03560
v -0.05742 -0.04824 -0.03790
v 0.02756 -0.06432 -0.03331
v 0.00458 -0.05054 -0.02642
v -0.01837 -0.06432 -0.02412
v 0.00918 -0.05513 -0.04249
v 0.02756 -0.06202 -0.03560
v -0.05742 -0.05513 -0.02872
v 0.02986 -0.06202 -0.01953
v -0.04363 -0.04824 -0.04020
v -0.05053 -0.04595 -0.03331
v 0.00688 -0.05054 -0.03560
v -0.04823 -0.05972 -0.04020
v 0.00918 -0.05284 -0.04020
v 0.02296 -0.05513 -0.02412
v -0.00231 -0.05743 0.01723
v -0.04364 -0.06202 -0.01722
v -0.04593 -0.06202 -0.00574
v -0.02756 -0.04365 0.01263
v 0.02756 -0.05743 -0.01722
v 0.02986 -0.06202 0.01263
v -0.03674 -0.06202 0.01723
v -0.02067 -0.05284 -0.01722
v -0.05053 -0.05054 0.00115
v 0.02756 -0.06202 -0.01722
v 0.02986 -0.05743 0.01263
v -0.05053 -0.05054 0.01493
v -0.01837 -0.04365 0.01493
v 0.00459 -0.05284 -0.01722
v -0.05053 -0.05972 0.01263
v -0.04364 -0.05743 -0.01722
v -0.02067 -0.04824 0.01723
v 0.02756 -0.05743 0.01493
v -0.05053 -0.05743 -0.00344
v 0.02526 -0.06202 0.01493
v -0.04364 -0.05284 0.01723
v 0.02986 -0.05743 0.00115
v -0.04823 -0.05054 -0.00114
v -0.01837 -0.04365 0.01263
v -0.02756 -0.04365 0.01493
v -0.04593 -0.06202 0.01033
v -0.04364 -0.05972 0.01723
v -0.05053 -0.05972 -0.00114
v -0.01837 -0.06202 0.01723
v -0.03445 -0.05513 -0.01722
v -0.05053 -0.05284 -0.00344
v -0.07121 0.00460 -0.04250
v -0.05973 0.02296 0.01953
v -0.05973 0.02296 0.01263
v -0.06891 0.06432 -0.02412
v -0.07351 -0.01148 0.01492
v -0.06202 -0.01608 -0.03100
v -0.07351 0.04134 0.01263
v -0.05973 -0.02297 0.01723
v -0.06432 0.03215 -0.04250
v -0.07351 0.03445 -0.03790
v -0.06891 -0.02297 -0.02871
v -0.06432 0.04593 0.01492
v -0.06662 0.06432 -0.02871
v -0.07351 -0.00228 -0.02871
v -0.07121 0.01610 0.01953
v -0.06891 -0.02527 0.00343
v -0.07351 0.04824 -0.02871
v -0.06662 0.00690 -0.04479
v -0.06891 0.03215 -0.04479
v -0.06891 -0.01378 0.01953
v -0.07121 0.04593 0.01492
v -0.06432 0.05054 -0.02871
v -0.06891 -0.02297 0.01492
v -0.07351 -0.01378 0.00573
v -0.05973 -0.02297 0.01033
v -0.06432 -0.02067 -0.03100
v -0.06432 -0.02527 -0.00345
v -0.06891 0.06432 -0.02871
v -0.06202 -0.00459 -0.03100
v -0.06432 0.01610 -0.04479
v -0.05973 -0.01608 0.01953
v -0.07351 0.00690 -0.03790
v -0.07121 0.02756 -0.04479
v -0.06891 -0.01838 -0.03330
v -0.07351 0.04364 0.01033
v -0.07121 0.04824 0.01263
v -0.06662 0.06432 -0.02412
v -0.07121 0.05743 -0.02181
v -0.07121 -0.02067 0.01033
v -0.07351 0.03445 0.01492
v -0.06891 0.02296 0.01953
v -0.07121 0.01149 -0.04479
v -0.06662 0.03215 -0.04479
v -0.06432 -0.01838 -0.03330
v -0.07121 -0.00688 0.01953
v -0.06432 0.00460 -0.04250
v -0.05973 0.01839 0.01033
v -0.06662 0.04824 0.01263
v -0.07121 -0.02067 -0.00345
v -0.07121 0.03445 -0.04250
v -0.07351 0.04364 -0.03330
v -0.07121 -0.01608 0.01723
v -0.06662 -0.02297 -0.02871
v 0.00458 0.05052 0.01493
v -0.05973 -0.02526 0.01264
v -0.05973 -0.02526 0.01493
v 0.03446 -0.01607 0.01264
v 0.03446 -0.00229 0.02182
v -0.05283 0.03445 0.01952
v -0.00920 0.05052 0.00804
v -0.02067 -0.04364 0.01034
v -0.04824 0.06432 0.01264
v 0.03446 0.02985 0.02182
v -0.02756 -0.04364 0.01723
v -0.05973 -0.01607 0.01952
v 0.02986 0.02296 0.01034
v -0.05973 0.01607 0.01034
v -0.00000 0.03674 0.02182
v -0.02297 0.06432 0.01493
v -0.00920 -0.00688 0.02182
v -0.05973 -0.02296 0.01034
v 0.02527 -0.01147 0.01034
v 0.03446 0.02985 0.01264
v 0.03214 -0.01607 0.01952
v -0.05973 0.02296 0.01952
v -0.00000 0.05052 0.00804
v -0.04824 0.06432 0.01493
v -0.02526 0.01836 0.02182
v -0.01607 -0.04364 0.01493
v -0.04824 -0.03673 0.01264
v -0.04824 0.04593 0.01034
v 0.02297 -0.00918 0.02182
v 0.00229 0.04363 0.00804
v 0.00229 0.05282 0.01034
v -0.05053 -0.03215 0.01723
v -0.02297 0.06432 0.01264
v 0.03446 0.03214 0.01952
v -0.04824 0.03904 0.01952
v -0.01377 -0.04133 0.01034
v 0.01607 0.03674 0.02182
v -0.02067 -0.04364 0.01723
v -0.00920 0.04363 0.00804
v 0.03214 -0.01837 0.01723
v -0.02526 -0.04364 0.01034
v -0.05283 0.05052 0.01264
v -0.00460 -0.00918 0.02182
v 0.03214 -0.01837 0.01264
v 0.03446 0.03214 0.01493
v -0.05973 0.02296 0.01264
v -0.01607 0.02985 0.02182
v -0.04824 0.05282 0.01723
v -0.02526 0.01147 0.02182
v -0.05513 -0.01837 0.01952
v 0.02986 0.01147 0.01034
v -0.04824 -0.03673 0.01493
v -0.02985 -0.04364 0.01264
v 0.03446 -0.01607 0.01723
v -0.01607 -0.04364 0.01264
v -0.04593 -0.03215 0.01034
v 0.00229 0.05282 0.01264
v -0.00919 0.00460 0.02182
v 0.01148 0.03445 0.02412
v 0.01148 0.03445 0.02182
v 0.03446 0.00230 0.02182
v 0.00919 0.01379 0.03101
v 0.03446 0.02756 0.02412
v -0.01148 0.02526 0.02412
v 0.01148 -0.00230 0.02412
v 0.03446 0.00689 0.02642
v 0.01378 0.02297 0.03101
v -0.00919 0.01149 0.02642
v 0.03446 0.02756 0.02182
v -0.00229 0.02297 0.02871
v -0.00459 0.03216 0.02182
v -0.00459 0.00001 0.02412
v 0.01148 -0.00230 0.02182
v -0.00459 0.03216 0.02412
v -0.01378 0.01149 0.02182
v 0.03446 0.02067 0.02642
v 0.02067 -0.00230 0.02412
v 0.01608 0.01608 0.03101
v -0.00229 0.01149 0.02871
v -0.01378 0.01149 0.02412
v 0.00919 0.02297 0.03101
v -0.01378 0.02067 0.02182
v 0.00460 0.03445 0.02412
v -0.01378 0.02067 0.02412
v 0.01378 0.01379 0.03101
v 0.03446 0.00230 0.02412
v -0.00459 0.00001 0.02182
v 0.02067 0.03216 0.02412
v -0.00689 0.01838 0.04250
v 0.01608 0.02986 0.04020
v 0.02067 0.02756 0.04250
v 0.02986 0.01379 0.03561
v 0.00919 0.02297 0.03102
v -0.00229 0.00919 0.04250
v 0.02756 0.01379 0.04250
v 0.02756 0.02527 0.03561
v -0.00459 0.02067 0.04480
v 0.00230 0.02986 0.03790
v 0.00919 0.01838 0.03102
v -0.00459 0.02527 0.03790
v -0.00229 0.00919 0.04020
v 0.02986 0.02067 0.04250
v 0.00689 0.01149 0.04480
v 0.00460 0.02986 0.04250
v 0.01608 0.02986 0.03561
v -0.00689 0.01149 0.04480
v 0.02297 0.01149 0.04020
v 0.01378 0.02297 0.03102
v -0.00459 0.01149 0.04020
v 0.03216 0.02067 0.04020
v 0.00689 0.01838 0.04480
v 0.02986 0.02297 0.03561
v 0.00689 0.02986 0.03561
v -0.00229 0.02756 0.04020
v -0.00459 0.02067 0.03790
v 0.03216 0.01608 0.04020
v 0.02756 0.02527 0.04020
f 98 131 134 
f 94 92 97 
f 89 95 99 
f 92 94 100 
f 94 97 102 
f 88 101 105 
f 96 105 107 
f 97 92 108 
f 101 88 108 
f 92 101 108 
f 96 99 109 
f 105 96 109 
f 94 93 110 
f 100 94 110 
f 89 99 112 
f 99 96 112 
f 103 93 113 
f 95 89 114 
f 113 104 115 
f 92 100 116 
f 106 92 116 
f 106 116 117 
f 93 106 117 
f 110 93 117 
f 100 110 117 
f 116 100 117 
f 88 98 119 
f 90 89 120 
f 107 92 120 
f 92 111 120 
f 89 90 121 
f 93 103 121 
f 90 106 121 
f 106 93 121 
f 114 89 121 
f 103 114 121 
f 88 105 122 
f 105 109 122 
f 102 91 123 
f 94 102 123 
f 101 92 124 
f 105 101 124 
f 92 107 124 
f 107 105 124 
f 99 95 125 
f 118 99 125 
f 98 88 126 
f 109 99 126 
f 118 98 126 
f 99 118 126 
f 88 122 126 
f 122 109 126 
f 106 90 127 
f 92 106 127 
f 111 92 127 
f 90 120 127 
f 120 111 127 
f 102 97 128 
f 108 88 128 
f 97 108 128 
f 88 119 128 
f 119 102 128 
f 103 113 129 
f 95 114 129 
f 114 103 129 
f 115 95 129 
f 113 115 129 
f 93 94 130 
f 91 113 130 
f 113 93 130 
f 94 123 130 
f 123 91 130 
f 98 104 131 
f 113 91 131 
f 104 113 131 
f 96 107 132 
f 89 112 132 
f 112 96 132 
f 120 89 132 
f 107 120 132 
f 104 98 133 
f 95 115 133 
f 115 104 133 
f 98 118 133 
f 125 95 133 
f 118 125 133 
f 91 102 134 
f 119 98 134 
f 102 119 134 
f 131 91 134 
