# Original object name hint: convex_6
v 0.05283 0.00690 0.01034
v 0.05513 0.01837 0.03790
v 0.05513 0.02067 0.03560
v 0.03446 0.02986 0.02183
v 0.03446 0.00000 0.01953
v 0.05513 0.02986 0.01494
v 0.05513 -0.00459 0.02183
v 0.03905 0.01378 0.03560
v 0.03446 0.02986 0.01264
v 0.03446 0.00000 0.01494
v 0.05513 -0.00459 0.01264
v 0.03905 0.02297 0.03560
v 0.05513 0.02986 0.02412
v 0.05513 0.01607 0.01034
v 0.05283 0.01378 0.03790
v 0.03446 0.00919 0.02641
v 0.03446 0.00919 0.01264
v 0.05283 -0.00459 0.02183
v 0.05053 0.02756 0.01264
v 0.05283 -0.00459 0.01264
v 0.03446 0.01837 0.02641
v 0.05513 0.01378 0.03790
v 0.04365 0.02297 0.03560
v 0.06203 -0.03215 -0.00803
v 0.06891 0.02985 0.03790
v 0.06891 0.05743 0.01033
v 0.05513 0.02066 0.03790
v 0.05743 0.02985 -0.02870
v 0.07121 0.02066 -0.02411
v 0.06891 -0.02756 0.01722
v 0.05513 -0.02296 0.01033
v 0.06432 -0.02526 -0.02870
v 0.07351 0.02985 0.03100
v 0.06661 0.04364 -0.02870
v 0.05743 -0.02066 -0.02411
v 0.07121 -0.02066 0.00344
v 0.05513 0.03215 0.01722
v 0.07351 0.04364 0.00116
v 0.06203 -0.00458 0.03330
v 0.06203 0.04364 -0.02870
v 0.06891 0.01150 0.03790
v 0.06432 0.00231 -0.03331
v 0.05973 -0.03215 0.01262
v 0.06661 -0.02526 -0.02641
v 0.06661 0.05743 0.01033
v 0.07351 0.01150 0.00344
v 0.05513 0.01150 0.03790
v 0.07351 0.01836 0.03100
v 0.05513 -0.02296 0.00116
v 0.05973 -0.02526 -0.02870
v 0.06891 0.03215 -0.03100
v 0.06661 -0.03215 -0.00574
v 0.06203 0.02755 -0.03331
v 0.05973 -0.02296 0.02182
v 0.05973 -0.02985 -0.02181
v 0.06891 0.00690 -0.03100
v 0.06891 -0.02296 0.02182
v 0.06432 0.02985 0.03790
v 0.05513 -0.01837 0.01952
v 0.07351 0.04593 0.01262
v 0.06891 0.05743 0.00574
v 0.07121 -0.02066 0.01262
v 0.06891 0.04134 -0.02641
v 0.06891 -0.02985 -0.00344
v 0.07121 0.01377 -0.02181
v 0.05973 -0.00918 -0.03100
v 0.06661 -0.03215 0.01262
v 0.05513 0.03215 0.02182
v 0.05973 0.03904 -0.02641
v 0.05743 -0.02985 -0.00114
v 0.07351 0.02066 -0.00344
v 0.06661 -0.00918 0.03100
v 0.06661 0.02755 -0.03331
v 0.07121 0.03215 -0.02181
v 0.05513 0.02066 0.01033
v 0.07351 0.00920 0.01952
v 0.05743 0.01150 -0.02870
v 0.06661 0.05743 0.00574
v 0.06432 -0.02985 -0.02181
v 0.07121 -0.01607 -0.00114
v 0.07121 0.02985 0.03560
v 0.06203 -0.01377 0.02870
v 0.07351 0.03674 -0.00344
v 0.06661 -0.00918 -0.03100
v 0.07351 0.04364 0.01722
v 0.06661 0.00920 0.03790
v 0.05743 0.03215 -0.02641
v 0.02986 -0.06432 -0.03101
v -0.05282 -0.05513 -0.04249
v -0.05742 -0.05513 -0.03790
v 0.00688 -0.05054 -0.02872
v -0.04363 -0.06202 -0.01723
v -0.05512 -0.04595 -0.03331
v 0.00458 -0.05284 -0.01723
v 0.00228 -0.05284 -0.04249
v -0.03674 -0.06202 -0.04020
v 0.02756 -0.06202 -0.01723
v 0.02986 -0.05743 -0.03331
v 0.00918 -0.05972 -0.04249
v -0.03445 -0.05513 -0.01723
v -0.01378 -0.06432 -0.02183
v 0.02756 -0.05743 -0.01723
v -0.05282 -0.04824 -0.04020
v 0.00458 -0.05054 -0.03790
v -0.01607 -0.06432 -0.03560
v -0.05742 -0.05054 -0.02872
v -0.04593 -0.06202 -0.03560
v 0.02756 -0.06432 -0.01953
v 0.01377 -0.06202 -0.04020
v -0.02067 -0.05284 -0.01723
v -0.05512 -0.05743 -0.02872
v -0.04134 -0.05972 -0.04249
v -0.05053 -0.04595 -0.03560
v -0.05053 -0.05054 -0.04249
v -0.00001 -0.05054 -0.04020
v -0.04363 -0.05743 -0.01723
v -0.05282 -0.04824 -0.02872
v 0.02756 -0.05743 -0.03560
v 0.02986 -0.05743 -0.02183
v -0.05282 -0.05972 -0.03560
v -0.05742 -0.04824 -0.03790
v 0.02756 -0.06432 -0.03331
v 0.00458 -0.05054 -0.02642
v -0.01837 -0.06432 -0.02412
v 0.00918 -0.05513 -0.04249
v 0.02756 -0.06202 -0.03560
v -0.05742 -0.05513 -0.02872
v 0.02986 -0.06202 -0.01953
v -0.04363 -0.04824 -0.04020
v -0.05053 -0.04595 -0.03331
v 0.00688 -0.05054 -0.03560
v -0.04823 -0.05972 -0.04020
v 0.00918 -0.05284 -0.04020
v 0.02296 -0.05513 -0.02412
v -0.00231 -0.05743 0.01723
v -0.04364 -0.06202 -0.01722
v -0.04593 -0.06202 -0.00574
v -0.02756 -0.04365 0.01263
v 0.02756 -0.05743 -0.01722
v 0.02986 -0.06202 0.01263
v -0.03674 -0.06202 0.01723
v -0.02067 -0.05284 -0.01722
v -0.05053 -0.05054 0.00115
v 0.02756 -0.06202 -0.01722
v 0.02986 -0.05743 0.01263
v -0.05053 -0.05054 0.01493
v -0.01837 -0.04365 0.01493
v 0.00459 -0.05284 -0.01722
v -0.05053 -0.05972 0.01263
v -0.04364 -0.05743 -0.01722
v -0.02067 -0.04824 0.01723
v 0.02756 -0.05743 0.01493
v -0.05053 -0.05743 -0.00344
v 0.02526 -0.06202 0.01493
v -0.04364 -0.05284 0.01723
v 0.02986 -0.05743 0.00115
v -0.04823 -0.05054 -0.00114
v -0.01837 -0.04365 0.01263
v -0.02756 -0.04365 0.01493
v -0.04593 -0.06202 0.01033
v -0.04364 -0.05972 0.01723
v -0.05053 -0.05972 -0.00114
v -0.01837 -0.06202 0.01723
v -0.03445 -0.05513 -0.01722
v -0.05053 -0.05284 -0.00344
v -0.07121 0.00460 -0.04250
v -0.05973 0.02296 0.01953
v -0.05973 0.02296 0.01263
v -0.06891 0.06432 -0.02412
v -0.07351 -0.01148 0.01492
v -0.06202 -0.01608 -0.03100
v -0.07351 0.04134 0.01263
v -0.05973 -0.02297 0.01723
v -0.06432 0.03215 -0.04250
v -0.07351 0.03445 -0.03790
v -0.06891 -0.02297 -0.02871
v -0.06432 0.04593 0.01492
v -0.06662 0.06432 -0.02871
v -0.07351 -0.00228 -0.02871
v -0.07121 0.01610 0.01953
v -0.06891 -0.02527 0.00343
v -0.07351 0.04824 -0.02871
v -0.06662 0.00690 -0.04479
v -0.06891 0.03215 -0.04479
v -0.06891 -0.01378 0.01953
v -0.07121 0.04593 0.01492
v -0.06432 0.05054 -0.02871
v -0.06891 -0.02297 0.01492
v -0.07351 -0.01378 0.00573
v -0.05973 -0.02297 0.01033
v -0.06432 -0.02067 -0.03100
v -0.06432 -0.02527 -0.00345
v -0.06891 0.06432 -0.02871
v -0.06202 -0.00459 -0.03100
v -0.06432 0.01610 -0.04479
v -0.05973 -0.01608 0.01953
v -0.07351 0.00690 -0.03790
v -0.07121 0.02756 -0.04479
v -0.06891 -0.01838 -0.03330
v -0.07351 0.04364 0.01033
v -0.07121 0.04824 0.01263
v -0.06662 0.06432 -0.02412
v -0.07121 0.05743 -0.02181
v -0.07121 -0.02067 0.01033
v -0.07351 0.03445 0.01492
v -0.06891 0.02296 0.01953
v -0.07121 0.01149 -0.04479
v -0.06662 0.03215 -0.04479
v -0.06432 -0.01838 -0.03330
v -0.07121 -0.00688 0.01953
v -0.06432 0.00460 -0.04250
v -0.05973 0.01839 0.01033
v -0.06662 0.04824 0.01263
v -0.07121 -0.02067 -0.00345
v -0.07121 0.03445 -0.04250
v -0.07351 0.04364 -0.03330
v -0.07121 -0.01608 0.01723
v -0.06662 -0.02297 -0.02871
v 0.00458 0.05052 0.01493
v -0.05973 -0.02526 0.01264
v -0.05973 -0.02526 0.01493
v 0.03446 -0.01607 0.01264
v 0.03446 -0.00229 0.02182
v -0.05283 0.03445 0.01952
v -0.00920 0.05052 0.00804
v -0.02067 -0.04364 0.01034
v -0.04824 0.06432 0.01264
v 0.03446 0.02985 0.02182
v -0.02756 -0.04364 0.01723
v -0.05973 -0.01607 0.01952
v 0.02986 0.02296 0.01034
v -0.05973 0.01607 0.01034
v -0.00000 0.03674 0.02182
v -0.02297 0.06432 0.01493
v -0.00920 -0.00688 0.02182
v -0.05973 -0.02296 0.01034
v 0.02527 -0.01147 0.01034
v 0.03446 0.02985 0.01264
v 0.03214 -0.01607 0.01952
v -0.05973 0.02296 0.01952
v -0.00000 0.05052 0.00804
v -0.04824 0.06432 0.01493
v -0.02526 0.01836 0.02182
v -0.01607 -0.04364 0.01493
v -0.04824 -0.03673 0.01264
v -0.04824 0.04593 0.01034
v 0.02297 -0.00918 0.02182
v 0.00229 0.04363 0.00804
v 0.00229 0.05282 0.01034
v -0.05053 -0.03215 0.01723
v -0.02297 0.06432 0.01264
v 0.03446 0.03214 0.01952
v -0.04824 0.03904 0.01952
v -0.01377 -0.04133 0.01034
v 0.01607 0.03674 0.02182
v -0.02067 -0.04364 0.01723
v -0.00920 0.04363 0.00804
v 0.03214 -0.01837 0.01723
v -0.02526 -0.04364 0.01034
v -0.05283 0.05052 0.01264
v -0.00460 -0.00918 0.02182
v 0.03214 -0.01837 0.01264
v 0.03446 0.03214 0.01493
v -0.05973 0.02296 0.01264
v -0.01607 0.02985 0.02182
v -0.04824 0.05282 0.01723
v -0.02526 0.01147 0.02182
v -0.05513 -0.01837 0.01952
v 0.02986 0.01147 0.01034
v -0.04824 -0.03673 0.01493
v -0.02985 -0.04364 0.01264
v 0.03446 -0.01607 0.01723
v -0.01607 -0.04364 0.01264
v -0.04593 -0.03215 0.01034
v 0.00229 0.05282 0.01264
v -0.00919 0.00460 0.02182
v 0.01148 0.03445 0.02412
v 0.01148 0.03445 0.02182
v 0.03446 0.00230 0.02182
v 0.00919 0.01379 0.03101
v 0.03446 0.02756 0.02412
v -0.01148 0.02526 0.02412
v 0.01148 -0.00230 0.02412
v 0.03446 0.00689 0.02642
v 0.01378 0.02297 0.03101
v -0.00919 0.01149 0.02642
v 0.03446 0.02756 0.02182
v -0.00229 0.02297 0.02871
v -0.00459 0.03216 0.02182
v -0.00459 0.00001 0.02412
v 0.01148 -0.00230 0.02182
v -0.00459 0.03216 0.02412
v -0.01378 0.01149 0.02182
v 0.03446 0.02067 0.02642
v 0.02067 -0.00230 0.02412
v 0.01608 0.01608 0.03101
v -0.00229 0.01149 0.02871
v -0.01378 0.01149 0.02412
v 0.00919 0.02297 0.03101
v -0.01378 0.02067 0.02182
v 0.00460 0.03445 0.02412
v -0.01378 0.02067 0.02412
v 0.01378 0.01379 0.03101
v 0.03446 0.00230 0.02412
v -0.00459 0.00001 0.02182
v 0.02067 0.03216 0.02412
v -0.00689 0.01838 0.04250
v 0.01608 0.02986 0.04020
v 0.02067 0.02756 0.04250
v 0.02986 0.01379 0.03561
v 0.00919 0.02297 0.03102
v -0.00229 0.00919 0.04250
v 0.02756 0.01379 0.04250
v 0.02756 0.02527 0.03561
v -0.00459 0.02067 0.04480
v 0.00230 0.02986 0.03790
v 0.00919 0.01838 0.03102
v -0.00459 0.02527 0.03790
v -0.00229 0.00919 0.04020
v 0.02986 0.02067 0.04250
v 0.00689 0.01149 0.04480
v 0.00460 0.02986 0.04250
v 0.01608 0.02986 0.03561
v -0.00689 0.01149 0.04480
v 0.02297 0.01149 0.04020
v 0.01378 0.02297 0.03102
v -0.00459 0.01149 0.04020
v 0.03216 0.02067 0.04020
v 0.00689 0.01838 0.04480
v 0.02986 0.02297 0.03561
v 0.00689 0.02986 0.03561
v -0.00229 0.02756 0.04020
v -0.00459 0.02067 0.03790
v 0.03216 0.01608 0.04020
v 0.02756 0.02527 0.04020
f 281 287 306 
f 276 278 279 
f 279 281 284 
f 279 278 287 
f 281 279 287 
f 278 276 289 
f 283 280 290 
f 276 279 291 
f 283 290 291 
f 282 288 292 
f 289 282 292 
f 289 276 293 
f 284 281 294 
f 281 285 294 
f 280 283 295 
f 291 279 295 
f 283 291 295 
f 285 280 296 
f 284 294 296 
f 294 285 296 
f 280 288 297 
f 288 286 297 
f 290 280 297 
f 286 290 297 
f 276 290 298 
f 290 286 298 
f 293 276 298 
f 285 277 299 
f 280 285 299 
f 288 280 299 
f 292 288 299 
f 282 289 300 
f 289 293 300 
f 293 298 300 
f 277 278 301 
f 278 289 301 
f 289 292 301 
f 299 277 301 
f 292 299 301 
f 288 282 302 
f 286 288 302 
f 298 286 302 
f 282 300 302 
f 300 298 302 
f 280 295 303 
f 295 284 303 
f 296 280 303 
f 284 296 303 
f 279 284 304 
f 284 295 304 
f 295 279 304 
f 290 276 305 
f 276 291 305 
f 291 290 305 
f 278 277 306 
f 277 285 306 
f 285 281 306 
f 287 278 306 
