# Original object name hint: convex_1
v 0.05283 0.00690 0.01034
v 0.05513 0.01837 0.03790
v 0.05513 0.02067 0.03560
v 0.03446 0.02986 0.02183
v 0.03446 0.00000 0.01953
v 0.05513 0.02986 0.01494
v 0.05513 -0.00459 0.02183
v 0.03905 0.01378 0.03560
v 0.03446 0.02986 0.01264
v 0.03446 0.00000 0.01494
v 0.05513 -0.00459 0.01264
v 0.03905 0.02297 0.03560
v 0.05513 0.02986 0.02412
v 0.05513 0.01607 0.01034
v 0.05283 0.01378 0.03790
v 0.03446 0.00919 0.02641
v 0.03446 0.00919 0.01264
v 0.05283 -0.00459 0.02183
v 0.05053 0.02756 0.01264
v 0.05283 -0.00459 0.01264
v 0.03446 0.01837 0.02641
v 0.05513 0.01378 0.03790
v 0.04365 0.02297 0.03560
v 0.06203 -0.03215 -0.00803
v 0.06891 0.02985 0.03790
v 0.06891 0.05743 0.01033
v 0.05513 0.02066 0.03790
v 0.05743 0.02985 -0.02870
v 0.07121 0.02066 -0.02411
v 0.06891 -0.02756 0.01722
v 0.05513 -0.02296 0.01033
v 0.06432 -0.02526 -0.02870
v 0.07351 0.02985 0.03100
v 0.06661 0.04364 -0.02870
v 0.05743 -0.02066 -0.02411
v 0.07121 -0.02066 0.00344
v 0.05513 0.03215 0.01722
v 0.07351 0.04364 0.00116
v 0.06203 -0.00458 0.03330
v 0.06203 0.04364 -0.02870
v 0.06891 0.01150 0.03790
v 0.06432 0.00231 -0.03331
v 0.05973 -0.03215 0.01262
v 0.06661 -0.02526 -0.02641
v 0.06661 0.05743 0.01033
v 0.07351 0.01150 0.00344
v 0.05513 0.01150 0.03790
v 0.07351 0.01836 0.03100
v 0.05513 -0.02296 0.00116
v 0.05973 -0.02526 -0.02870
v 0.06891 0.03215 -0.03100
v 0.06661 -0.03215 -0.00574
v 0.06203 0.02755 -0.03331
v 0.05973 -0.02296 0.02182
v 0.05973 -0.02985 -0.02181
v 0.06891 0.00690 -0.03100
v 0.06891 -0.02296 0.02182
v 0.06432 0.02985 0.03790
v 0.05513 -0.01837 0.01952
v 0.07351 0.04593 0.01262
v 0.06891 0.05743 0.00574
v 0.07121 -0.02066 0.01262
v 0.06891 0.04134 -0.02641
v 0.06891 -0.02985 -0.00344
v 0.07121 0.01377 -0.02181
v 0.05973 -0.00918 -0.03100
v 0.06661 -0.03215 0.01262
v 0.05513 0.03215 0.02182
v 0.05973 0.03904 -0.02641
v 0.05743 -0.02985 -0.00114
v 0.07351 0.02066 -0.00344
v 0.06661 -0.00918 0.03100
v 0.06661 0.02755 -0.03331
v 0.07121 0.03215 -0.02181
v 0.05513 0.02066 0.01033
v 0.07351 0.00920 0.01952
v 0.05743 0.01150 -0.02870
v 0.06661 0.05743 0.00574
v 0.06432 -0.02985 -0.02181
v 0.07121 -0.01607 -0.00114
v 0.07121 0.02985 0.03560
v 0.06203 -0.01377 0.02870
v 0.07351 0.03674 -0.00344
v 0.06661 -0.00918 -0.03100
v 0.07351 0.04364 0.01722
v 0.06661 0.00920 0.03790
v 0.05743 0.03215 -0.02641
v 0.02986 -0.06432 -0.03101
v -0.05282 -0.05513 -0.04249
v -0.05742 -0.05513 -0.03790
v 0.00688 -0.05054 -0.02872
v -0.04363 -0.06202 -0.01723
v -0.05512 -0.04595 -0.03331
v 0.00458 -0.05284 -0.01723
v 0.00228 -0.05284 -0.04249
v -0.03674 -0.06202 -0.04020
v 0.02756 -0.06202 -0.01723
v 0.02986 -0.05743 -0.03331
v 0.00918 -0.05972 -0.04249
v -0.03445 -0.05513 -0.01723
v -0.01378 -0.06432 -0.02183
v 0.02756 -0.05743 -0.01723
v -0.05282 -0.04824 -0.04020
v 0.00458 -0.05054 -0.03790
v -0.01607 -0.06432 -0.03560
v -0.05742 -0.05054 -0.02872
v -0.04593 -0.06202 -0.03560
v 0.02756 -0.06432 -0.01953
v 0.01377 -0.06202 -0.04020
v -0.02067 -0.05284 -0.01723
v -0.05512 -0.05743 -0.02872
v -0.04134 -0.05972 -0.04249
v -0.05053 -0.04595 -0.03560
v -0.05053 -0.05054 -0.04249
v -0.00001 -0.05054 -0.04020
v -0.04363 -0.05743 -0.01723
v -0.05282 -0.04824 -0.02872
v 0.02756 -0.05743 -0.03560
v 0.02986 -0.05743 -0.02183
v -0.05282 -0.05972 -0.03560
v -0.05742 -0.04824 -0.03790
v 0.02756 -0.06432 -0.03331
v 0.00458 -0.05054 -0.02642
v -0.01837 -0.06432 -0.02412
v 0.00918 -0.05513 -0.04249
v 0.02756 -0.06202 -0.03560
v -0.05742 -0.05513 -0.02872
v 0.02986 -0.06202 -0.01953
v -0.04363 -0.04824 -0.04020
v -0.05053 -0.04595 -0.03331
v 0.00688 -0.05054 -0.03560
v -0.04823 -0.05972 -0.04020
v 0.00918 -0.05284 -0.04020
v 0.02296 -0.05513 -0.02412
v -0.00231 -0.05743 0.01723
v -0.04364 -0.06202 -0.01722
v -0.04593 -0.06202 -0.00574
v -0.02756 -0.04365 0.01263
v 0.02756 -0.05743 -0.01722
v 0.02986 -0.06202 0.01263
v -0.03674 -0.06202 0.01723
v -0.02067 -0.05284 -0.01722
v -0.05053 -0.05054 0.00115
v 0.02756 -0.06202 -0.01722
v 0.02986 -0.05743 0.01263
v -0.05053 -0.05054 0.01493
v -0.01837 -0.04365 0.01493
v 0.00459 -0.05284 -0.01722
v -0.05053 -0.05972 0.01263
v -0.04364 -0.05743 -0.01722
v -0.02067 -0.04824 0.01723
v 0.02756 -0.05743 0.01493
v -0.05053 -0.05743 -0.00344
v 0.02526 -0.06202 0.01493
v -0.04364 -0.05284 0.01723
v 0.02986 -0.05743 0.00115
v -0.04823 -0.05054 -0.00114
v -0.01837 -0.04365 0.01263
v -0.02756 -0.04365 0.01493
v -0.04593 -0.06202 0.01033
v -0.04364 -0.05972 0.01723
v -0.05053 -0.05972 -0.00114
v -0.01837 -0.06202 0.01723
v -0.03445 -0.05513 -0.01722
v -0.05053 -0.05284 -0.00344
v -0.07121 0.00460 -0.04250
v -0.05973 0.02296 0.01953
v -0.05973 0.02296 0.01263
v -0.06891 0.06432 -0.02412
v -0.07351 -0.01148 0.01492
v -0.06202 -0.01608 -0.03100
v -0.07351 0.04134 0.01263
v -0.05973 -0.02297 0.01723
v -0.06432 0.03215 -0.04250
v -0.07351 0.03445 -0.03790
v -0.06891 -0.02297 -0.02871
v -0.06432 0.04593 0.01492
v -0.06662 0.06432 -0.02871
v -0.07351 -0.00228 -0.02871
v -0.07121 0.01610 0.01953
v -0.06891 -0.02527 0.00343
v -0.07351 0.04824 -0.02871
v -0.06662 0.00690 -0.04479
v -0.06891 0.03215 -0.04479
v -0.06891 -0.01378 0.01953
v -0.07121 0.04593 0.01492
v -0.06432 0.05054 -0.02871
v -0.06891 -0.02297 0.01492
v -0.07351 -0.01378 0.00573
v -0.05973 -0.02297 0.01033
v -0.06432 -0.02067 -0.03100
v -0.06432 -0.02527 -0.00345
v -0.06891 0.06432 -0.02871
v -0.06202 -0.00459 -0.03100
v -0.06432 0.01610 -0.04479
v -0.05973 -0.01608 0.01953
v -0.07351 0.00690 -0.03790
v -0.07121 0.02756 -0.04479
v -0.06891 -0.01838 -0.03330
v -0.07351 0.04364 0.01033
v -0.07121 0.04824 0.01263
v -0.06662 0.06432 -0.02412
v -0.07121 0.05743 -0.02181
v -0.07121 -0.02067 0.01033
v -0.07351 0.03445 0.01492
v -0.06891 0.02296 0.01953
v -0.07121 0.01149 -0.04479
v -0.06662 0.03215 -0.04479
v -0.06432 -0.01838 -0.03330
v -0.07121 -0.00688 0.01953
v -0.06432 0.00460 -0.04250
v -0.05973 0.01839 0.01033
v -0.06662 0.04824 0.01263
v -0.07121 -0.02067 -0.00345
v -0.07121 0.03445 -0.04250
v -0.07351 0.04364 -0.03330
v -0.07121 -0.01608 0.01723
v -0.06662 -0.02297 -0.02871
v 0.00458 0.05052 0.01493
v -0.05973 -0.02526 0.01264
v -0.05973 -0.02526 0.01493
v 0.03446 -0.01607 0.01264
v 0.03446 -0.00229 0.02182
v -0.05283 0.03445 0.01952
v -0.00920 0.05052 0.00804
v -0.02067 -0.04364 0.01034
v -0.04824 0.06432 0.01264
v 0.03446 0.02985 0.02182
v -0.02756 -0.04364 0.01723
v -0.05973 -0.01607 0.01952
v 0.02986 0.02296 0.01034
v -0.05973 0.01607 0.01034
v -0.00000 0.03674 0.02182
v -0.02297 0.06432 0.01493
v -0.00920 -0.00688 0.02182
v -0.05973 -0.02296 0.01034
v 0.02527 -0.01147 0.01034
v 0.03446 0.02985 0.01264
v 0.03214 -0.01607 0.01952
v -0.05973 0.02296 0.01952
v -0.00000 0.05052 0.00804
v -0.04824 0.06432 0.01493
v -0.02526 0.01836 0.02182
v -0.01607 -0.04364 0.01493
v -0.04824 -0.03673 0.01264
v -0.04824 0.04593 0.01034
v 0.02297 -0.00918 0.02182
v 0.00229 0.04363 0.00804
v 0.00229 0.05282 0.01034
v -0.05053 -0.03215 0.01723
v -0.02297 0.06432 0.01264
v 0.03446 0.03214 0.01952
v -0.04824 0.03904 0.01952
v -0.01377 -0.04133 0.01034
v 0.01607 0.03674 0.02182
v -0.02067 -0.04364 0.01723
v -0.00920 0.04363 0.00804
v 0.03214 -0.01837 0.01723
v -0.02526 -0.04364 0.01034
v -0.05283 0.05052 0.01264
v -0.00460 -0.00918 0.02182
v 0.03214 -0.01837 0.01264
v 0.03446 0.03214 0.01493
v -0.05973 0.02296 0.01264
v -0.01607 0.02985 0.02182
v -0.04824 0.05282 0.01723
v -0.02526 0.01147 0.02182
v -0.05513 -0.01837 0.01952
v 0.02986 0.01147 0.01034
v -0.04824 -0.03673 0.01493
v -0.02985 -0.04364 0.01264
v 0.03446 -0.01607 0.01723
v -0.01607 -0.04364 0.01264
v -0.04593 -0.03215 0.01034
v 0.00229 0.05282 0.01264
v -0.00919 0.00460 0.02182
v 0.01148 0.03445 0.02412
v 0.01148 0.03445 0.02182
v 0.03446 0.00230 0.02182
v 0.00919 0.01379 0.03101
v 0.03446 0.02756 0.02412
v -0.01148 0.02526 0.02412
v 0.01148 -0.00230 0.02412
v 0.03446 0.00689 0.02642
v 0.01378 0.02297 0.03101
v -0.00919 0.01149 0.02642
v 0.03446 0.02756 0.02182
v -0.00229 0.02297 0.02871
v -0.00459 0.03216 0.02182
v -0.00459 0.00001 0.02412
v 0.01148 -0.00230 0.02182
v -0.00459 0.03216 0.02412
v -0.01378 0.01149 0.02182
v 0.03446 0.02067 0.02642
v 0.02067 -0.00230 0.02412
v 0.01608 0.01608 0.03101
v -0.00229 0.01149 0.02871
v -0.01378 0.01149 0.02412
v 0.00919 0.02297 0.03101
v -0.01378 0.02067 0.02182
v 0.00460 0.03445 0.02412
v -0.01378 0.02067 0.02412
v 0.01378 0.01379 0.03101
v 0.03446 0.00230 0.02412
v -0.00459 0.00001 0.02182
v 0.02067 0.03216 0.02412
v -0.00689 0.01838 0.04250
v 0.01608 0.02986 0.04020
v 0.02067 0.02756 0.04250
v 0.02986 0.01379 0.03561
v 0.00919 0.02297 0.03102
v -0.00229 0.00919 0.04250
v 0.02756 0.01379 0.04250
v 0.02756 0.02527 0.03561
v -0.00459 0.02067 0.04480
v 0.00230 0.02986 0.03790
v 0.00919 0.01838 0.03102
v -0.00459 0.02527 0.03790
v -0.00229 0.00919 0.04020
v 0.02986 0.02067 0.04250
v 0.00689 0.01149 0.04480
v 0.00460 0.02986 0.04250
v 0.01608 0.02986 0.03561
v -0.00689 0.01149 0.04480
v 0.02297 0.01149 0.04020
v 0.01378 0.02297 0.03102
v -0.00459 0.01149 0.04020
v 0.03216 0.02067 0.04020
v 0.00689 0.01838 0.04480
v 0.02986 0.02297 0.03561
v 0.00689 0.02986 0.03561
v -0.00229 0.02756 0.04020
v -0.00459 0.02067 0.03790
v 0.03216 0.01608 0.04020
v 0.02756 0.02527 0.04020
f 37 69 87 
f 31 27 37 
f 25 27 41 
f 25 26 45 
f 38 33 46 
f 27 31 47 
f 41 27 47 
f 46 33 48 
f 31 37 49 
f 42 32 50 
f 43 24 52 
f 40 34 53 
f 28 40 53 
f 43 30 54 
f 24 43 55 
f 49 35 55 
f 50 32 55 
f 35 50 55 
f 51 29 56 
f 48 41 57 
f 54 30 57 
f 27 25 58 
f 25 45 58 
f 45 27 58 
f 31 43 59 
f 47 31 59 
f 43 54 59 
f 54 47 59 
f 33 38 60 
f 60 38 61 
f 34 40 61 
f 45 26 61 
f 26 60 61 
f 57 30 62 
f 48 57 62 
f 51 34 63 
f 61 38 63 
f 34 61 63 
f 44 36 64 
f 62 30 64 
f 36 62 64 
f 44 56 65 
f 56 29 65 
f 50 35 66 
f 42 50 66 
f 53 42 66 
f 30 43 67 
f 43 52 67 
f 64 30 67 
f 52 64 67 
f 37 27 68 
f 27 45 68 
f 45 37 68 
f 40 28 69 
f 43 31 70 
f 31 49 70 
f 55 43 70 
f 49 55 70 
f 38 46 71 
f 65 29 71 
f 57 41 72 
f 34 51 73 
f 53 34 73 
f 42 53 73 
f 56 42 73 
f 51 56 73 
f 29 51 74 
f 63 38 74 
f 51 63 74 
f 37 28 75 
f 28 49 75 
f 49 37 75 
f 36 46 76 
f 46 48 76 
f 62 36 76 
f 48 62 76 
f 35 49 77 
f 49 28 77 
f 28 53 77 
f 66 35 77 
f 53 66 77 
f 37 45 78 
f 61 40 78 
f 45 61 78 
f 69 37 78 
f 40 69 78 
f 32 44 79 
f 52 24 79 
f 24 55 79 
f 55 32 79 
f 44 64 79 
f 64 52 79 
f 36 44 80 
f 46 36 80 
f 44 65 80 
f 71 46 80 
f 65 71 80 
f 26 25 81 
f 25 41 81 
f 48 33 81 
f 41 48 81 
f 39 47 82 
f 47 54 82 
f 54 57 82 
f 72 39 82 
f 57 72 82 
f 71 29 83 
f 38 71 83 
f 29 74 83 
f 74 38 83 
f 32 42 84 
f 44 32 84 
f 42 56 84 
f 56 44 84 
f 60 26 85 
f 33 60 85 
f 26 81 85 
f 81 33 85 
f 41 47 86 
f 47 39 86 
f 39 72 86 
f 72 41 86 
f 28 37 87 
f 69 28 87 
