# Original object name hint: convex_4
v 0.05283 0.00690 0.01034
v 0.05513 0.01837 0.03790
v 0.05513 0.02067 0.03560
v 0.03446 0.02986 0.02183
v 0.03446 0.00000 0.01953
v 0.05513 0.02986 0.01494
v 0.05513 -0.00459 0.02183
v 0.03905 0.01378 0.03560
v 0.03446 0.02986 0.01264
v 0.03446 0.00000 0.01494
v 0.05513 -0.00459 0.01264
v 0.03905 0.02297 0.03560
v 0.05513 0.02986 0.02412
v 0.05513 0.01607 0.01034
v 0.05283 0.01378 0.03790
v 0.03446 0.00919 0.02641
v 0.03446 0.00919 0.01264
v 0.05283 -0.00459 0.02183
v 0.05053 0.02756 0.01264
v 0.05283 -0.00459 0.01264
v 0.03446 0.01837 0.02641
v 0.05513 0.01378 0.03790
v 0.04365 0.02297 0.03560
v 0.06203 -0.03215 -0.00803
v 0.06891 0.02985 0.03790
v 0.06891 0.05743 0.01033
v 0.05513 0.02066 0.03790
v 0.05743 0.02985 -0.02870
v 0.07121 0.02066 -0.02411
v 0.06891 -0.02756 0.01722
v 0.05513 -0.02296 0.01033
v 0.06432 -0.02526 -0.02870
v 0.07351 0.02985 0.03100
v 0.06661 0.04364 -0.02870
v 0.05743 -0.02066 -0.02411
v 0.07121 -0.02066 0.00344
v 0.05513 0.03215 0.01722
v 0.07351 0.04364 0.00116
v 0.06203 -0.00458 0.03330
v 0.06203 0.04364 -0.02870
v 0.06891 0.01150 0.03790
v 0.06432 0.00231 -0.03331
v 0.05973 -0.03215 0.01262
v 0.06661 -0.02526 -0.02641
v 0.06661 0.05743 0.01033
v 0.07351 0.01150 0.00344
v 0.05513 0.01150 0.03790
v 0.07351 0.01836 0.03100
v 0.05513 -0.02296 0.00116
v 0.05973 -0.02526 -0.02870
v 0.06891 0.03215 -0.03100
v 0.06661 -0.03215 -0.00574
v 0.06203 0.02755 -0.03331
v 0.05973 -0.02296 0.02182
v 0.05973 -0.02985 -0.02181
v 0.06891 0.00690 -0.03100
v 0.06891 -0.02296 0.02182
v 0.06432 0.02985 0.03790
v 0.05513 -0.01837 0.01952
v 0.07351 0.04593 0.01262
v 0.06891 0.05743 0.00574
v 0.07121 -0.02066 0.01262
v 0.06891 0.04134 -0.02641
v 0.06891 -0.02985 -0.00344
v 0.07121 0.01377 -0.02181
v 0.05973 -0.00918 -0.03100
v 0.06661 -0.03215 0.01262
v 0.05513 0.03215 0.02182
v 0.05973 0.03904 -0.02641
v 0.05743 -0.02985 -0.00114
v 0.07351 0.02066 -0.00344
v 0.06661 -0.00918 0.03100
v 0.06661 0.02755 -0.03331
v 0.07121 0.03215 -0.02181
v 0.05513 0.02066 0.01033
v 0.07351 0.00920 0.01952
v 0.05743 0.01150 -0.02870
v 0.06661 0.05743 0.00574
v 0.06432 -0.02985 -0.02181
v 0.07121 -0.01607 -0.00114
v 0.07121 0.02985 0.03560
v 0.06203 -0.01377 0.02870
v 0.07351 0.03674 -0.00344
v 0.06661 -0.00918 -0.03100
v 0.07351 0.04364 0.01722
v 0.06661 0.00920 0.03790
v 0.05743 0.03215 -0.02641
v 0.02986 -0.06432 -0.03101
v -0.05282 -0.05513 -0.04249
v -0.05742 -0.05513 -0.03790
v 0.00688 -0.05054 -0.02872
v -0.04363 -0.06202 -0.01723
v -0.05512 -0.04595 -0.03331
v 0.00458 -0.05284 -0.01723
v 0.00228 -0.05284 -0.04249
v -0.03674 -0.06202 -0.04020
v 0.02756 -0.06202 -0.01723
v 0.02986 -0.05743 -0.03331
v 0.00918 -0.05972 -0.04249
v -0.03445 -0.05513 -0.01723
v -0.01378 -0.06432 -0.02183
v 0.02756 -0.05743 -0.01723
v -0.05282 -0.04824 -0.04020
v 0.00458 -0.05054 -0.03790
v -0.01607 -0.06432 -0.03560
v -0.05742 -0.05054 -0.02872
v -0.04593 -0.06202 -0.03560
v 0.02756 -0.06432 -0.01953
v 0.01377 -0.06202 -0.04020
v -0.02067 -0.05284 -0.01723
v -0.05512 -0.05743 -0.02872
v -0.04134 -0.05972 -0.04249
v -0.05053 -0.04595 -0.03560
v -0.05053 -0.05054 -0.04249
v -0.00001 -0.05054 -0.04020
v -0.04363 -0.05743 -0.01723
v -0.05282 -0.04824 -0.02872
v 0.02756 -0.05743 -0.03560
v 0.02986 -0.05743 -0.02183
v -0.05282 -0.05972 -0.03560
v -0.05742 -0.04824 -0.03790
v 0.02756 -0.06432 -0.03331
v 0.00458 -0.05054 -0.02642
v -0.01837 -0.06432 -0.02412
v 0.00918 -0.05513 -0.04249
v 0.02756 -0.06202 -0.03560
v -0.05742 -0.05513 -0.02872
v 0.02986 -0.06202 -0.01953
v -0.04363 -0.04824 -0.04020
v -0.05053 -0.04595 -0.03331
v 0.00688 -0.05054 -0.03560
v -0.04823 -0.05972 -0.04020
v 0.00918 -0.05284 -0.04020
v 0.02296 -0.05513 -0.02412
v -0.00231 -0.05743 0.01723
v -0.04364 -0.06202 -0.01722
v -0.04593 -0.06202 -0.00574
v -0.02756 -0.04365 0.01263
v 0.02756 -0.05743 -0.01722
v 0.02986 -0.06202 0.01263
v -0.03674 -0.06202 0.01723
v -0.02067 -0.05284 -0.01722
v -0.05053 -0.05054 0.00115
v 0.02756 -0.06202 -0.01722
v 0.02986 -0.05743 0.01263
v -0.05053 -0.05054 0.01493
v -0.01837 -0.04365 0.01493
v 0.00459 -0.05284 -0.01722
v -0.05053 -0.05972 0.01263
v -0.04364 -0.05743 -0.01722
v -0.02067 -0.04824 0.01723
v 0.02756 -0.05743 0.01493
v -0.05053 -0.05743 -0.00344
v 0.02526 -0.06202 0.01493
v -0.04364 -0.05284 0.01723
v 0.02986 -0.05743 0.00115
v -0.04823 -0.05054 -0.00114
v -0.01837 -0.04365 0.01263
v -0.02756 -0.04365 0.01493
v -0.04593 -0.06202 0.01033
v -0.04364 -0.05972 0.01723
v -0.05053 -0.05972 -0.00114
v -0.01837 -0.06202 0.01723
v -0.03445 -0.05513 -0.01722
v -0.05053 -0.05284 -0.00344
v -0.07121 0.00460 -0.04250
v -0.05973 0.02296 0.01953
v -0.05973 0.02296 0.01263
v -0.06891 0.06432 -0.02412
v -0.07351 -0.01148 0.01492
v -0.06202 -0.01608 -0.03100
v -0.07351 0.04134 0.01263
v -0.05973 -0.02297 0.01723
v -0.06432 0.03215 -0.04250
v -0.07351 0.03445 -0.03790
v -0.06891 -0.02297 -0.02871
v -0.06432 0.04593 0.01492
v -0.06662 0.06432 -0.02871
v -0.07351 -0.00228 -0.02871
v -0.07121 0.01610 0.01953
v -0.06891 -0.02527 0.00343
v -0.07351 0.04824 -0.02871
v -0.06662 0.00690 -0.04479
v -0.06891 0.03215 -0.04479
v -0.06891 -0.01378 0.01953
v -0.07121 0.04593 0.01492
v -0.06432 0.05054 -0.02871
v -0.06891 -0.02297 0.01492
v -0.07351 -0.01378 0.00573
v -0.05973 -0.02297 0.01033
v -0.06432 -0.02067 -0.03100
v -0.06432 -0.02527 -0.00345
v -0.06891 0.06432 -0.02871
v -0.06202 -0.00459 -0.03100
v -0.06432 0.01610 -0.04479
v -0.05973 -0.01608 0.01953
v -0.07351 0.00690 -0.03790
v -0.07121 0.02756 -0.04479
v -0.06891 -0.01838 -0.03330
v -0.07351 0.04364 0.01033
v -0.07121 0.04824 0.01263
v -0.06662 0.06432 -0.02412
v -0.07121 0.05743 -0.02181
v -0.07121 -0.02067 0.01033
v -0.07351 0.03445 0.01492
v -0.06891 0.02296 0.01953
v -0.07121 0.01149 -0.04479
v -0.06662 0.03215 -0.04479
v -0.06432 -0.01838 -0.03330
v -0.07121 -0.00688 0.01953
v -0.06432 0.00460 -0.04250
v -0.05973 0.01839 0.01033
v -0.06662 0.04824 0.01263
v -0.07121 -0.02067 -0.00345
v -0.07121 0.03445 -0.04250
v -0.07351 0.04364 -0.03330
v -0.07121 -0.01608 0.01723
v -0.06662 -0.02297 -0.02871
v 0.00458 0.05052 0.01493
v -0.05973 -0.02526 0.01264
v -0.05973 -0.02526 0.01493
v 0.03446 -0.01607 0.01264
v 0.03446 -0.00229 0.02182
v -0.05283 0.03445 0.01952
v -0.00920 0.05052 0.00804
v -0.02067 -0.04364 0.01034
v -0.04824 0.06432 0.01264
v 0.03446 0.02985 0.02182
v -0.02756 -0.04364 0.01723
v -0.05973 -0.01607 0.01952
v 0.02986 0.02296 0.01034
v -0.05973 0.01607 0.01034
v -0.00000 0.03674 0.02182
v -0.02297 0.06432 0.01493
v -0.00920 -0.00688 0.02182
v -0.05973 -0.02296 0.01034
v 0.02527 -0.01147 0.01034
v 0.03446 0.02985 0.01264
v 0.03214 -0.01607 0.01952
v -0.05973 0.02296 0.01952
v -0.00000 0.05052 0.00804
v -0.04824 0.06432 0.01493
v -0.02526 0.01836 0.02182
v -0.01607 -0.04364 0.01493
v -0.04824 -0.03673 0.01264
v -0.04824 0.04593 0.01034
v 0.02297 -0.00918 0.02182
v 0.00229 0.04363 0.00804
v 0.00229 0.05282 0.01034
v -0.05053 -0.03215 0.01723
v -0.02297 0.06432 0.01264
v 0.03446 0.03214 0.01952
v -0.04824 0.03904 0.01952
v -0.01377 -0.04133 0.01034
v 0.01607 0.03674 0.02182
v -0.02067 -0.04364 0.01723
v -0.00920 0.04363 0.00804
v 0.03214 -0.01837 0.01723
v -0.02526 -0.04364 0.01034
v -0.05283 0.05052 0.01264
v -0.00460 -0.00918 0.02182
v 0.03214 -0.01837 0.01264
v 0.03446 0.03214 0.01493
v -0.05973 0.02296 0.01264
v -0.01607 0.02985 0.02182
v -0.04824 0.05282 0.01723
v -0.02526 0.01147 0.02182
v -0.05513 -0.01837 0.01952
v 0.02986 0.01147 0.01034
v -0.04824 -0.03673 0.01493
v -0.02985 -0.04364 0.01264
v 0.03446 -0.01607 0.01723
v -0.01607 -0.04364 0.01264
v -0.04593 -0.03215 0.01034
v 0.00229 0.05282 0.01264
v -0.00919 0.00460 0.02182
v 0.01148 0.03445 0.02412
v 0.01148 0.03445 0.02182
v 0.03446 0.00230 0.02182
v 0.00919 0.01379 0.03101
v 0.03446 0.02756 0.02412
v -0.01148 0.02526 0.02412
v 0.01148 -0.00230 0.02412
v 0.03446 0.00689 0.02642
v 0.01378 0.02297 0.03101
v -0.00919 0.01149 0.02642
v 0.03446 0.02756 0.02182
v -0.00229 0.02297 0.02871
v -0.00459 0.03216 0.02182
v -0.00459 0.00001 0.02412
v 0.01148 -0.00230 0.02182
v -0.00459 0.03216 0.02412
v -0.01378 0.01149 0.02182
v 0.03446 0.02067 0.02642
v 0.02067 -0.00230 0.02412
v 0.01608 0.01608 0.03101
v -0.00229 0.01149 0.02871
v -0.01378 0.01149 0.02412
v 0.00919 0.02297 0.03101
v -0.01378 0.02067 0.02182
v 0.00460 0.03445 0.02412
v -0.01378 0.02067 0.02412
v 0.01378 0.01379 0.03101
v 0.03446 0.00230 0.02412
v -0.00459 0.00001 0.02182
v 0.02067 0.03216 0.02412
v -0.00689 0.01838 0.04250
v 0.01608 0.02986 0.04020
v 0.02067 0.02756 0.04250
v 0.02986 0.01379 0.03561
v 0.00919 0.02297 0.03102
v -0.00229 0.00919 0.04250
v 0.02756 0.01379 0.04250
v 0.02756 0.02527 0.03561
v -0.00459 0.02067 0.04480
v 0.00230 0.02986 0.03790
v 0.00919 0.01838 0.03102
v -0.00459 0.02527 0.03790
v -0.00229 0.00919 0.04020
v 0.02986 0.02067 0.04250
v 0.00689 0.01149 0.04480
v 0.00460 0.02986 0.04250
v 0.01608 0.02986 0.03561
v -0.00689 0.01149 0.04480
v 0.02297 0.01149 0.04020
v 0.01378 0.02297 0.03102
v -0.00459 0.01149 0.04020
v 0.03216 0.02067 0.04020
v 0.00689 0.01838 0.04480
v 0.02986 0.02297 0.03561
v 0.00689 0.02986 0.03561
v -0.00229 0.02756 0.04020
v -0.00459 0.02067 0.03790
v 0.03216 0.01608 0.04020
v 0.02756 0.02527 0.04020
f 176 209 218 
f 168 167 173 
f 170 172 175 
f 167 168 178 
f 170 175 179 
f 175 172 182 
f 167 180 185 
f 167 177 186 
f 168 174 187 
f 178 168 187 
f 174 178 187 
f 181 173 188 
f 173 185 188 
f 170 179 189 
f 179 176 189 
f 168 173 190 
f 171 190 191 
f 191 190 192 
f 173 181 192 
f 181 176 192 
f 190 173 192 
f 169 178 193 
f 178 184 193 
f 190 171 194 
f 183 184 195 
f 174 194 195 
f 194 171 195 
f 173 167 196 
f 167 185 196 
f 185 173 196 
f 179 175 197 
f 176 179 197 
f 184 183 198 
f 197 175 198 
f 166 183 199 
f 197 166 199 
f 176 197 199 
f 182 172 200 
f 172 186 201 
f 186 177 201 
f 169 200 201 
f 200 172 201 
f 177 167 202 
f 167 178 202 
f 178 169 202 
f 169 201 202 
f 169 193 203 
f 193 182 203 
f 200 169 203 
f 182 200 203 
f 181 188 204 
f 170 189 204 
f 172 170 205 
f 170 180 205 
f 186 172 205 
f 180 186 205 
f 180 167 206 
f 167 186 206 
f 186 180 206 
f 183 166 207 
f 166 197 207 
f 198 183 207 
f 197 198 207 
f 178 174 208 
f 184 178 208 
f 174 195 208 
f 195 184 208 
f 171 191 209 
f 199 183 209 
f 176 199 209 
f 180 170 210 
f 185 180 210 
f 195 171 211 
f 183 195 211 
f 171 209 211 
f 209 183 211 
f 174 168 212 
f 168 190 212 
f 194 174 212 
f 190 194 212 
f 201 177 213 
f 177 202 213 
f 202 201 213 
f 176 181 214 
f 189 176 214 
f 181 204 214 
f 204 189 214 
f 193 184 215 
f 184 198 215 
f 198 175 215 
f 175 182 216 
f 182 193 216 
f 215 175 216 
f 193 215 216 
f 188 185 217 
f 170 204 217 
f 204 188 217 
f 210 170 217 
f 185 210 217 
f 191 192 218 
f 192 176 218 
f 209 191 218 
