# Original object name hint: convex_1
v 0.02771 -0.06122 0.01271
v -0.03464 -0.05891 -0.04274
v -0.03464 -0.05660 -0.04274
v -0.04850 -0.05429 0.00808
v -0.00232 -0.04274 -0.01501
v 0.03233 -0.06122 -0.03811
v -0.03695 -0.06353 0.00577
v -0.03233 -0.04274 0.00808
v -0.05544 -0.04968 -0.03580
v 0.01154 -0.05429 -0.04274
v 0.02541 -0.06353 -0.04042
v -0.02772 -0.06353 -0.03811
v 0.03464 -0.05891 0.00346
v -0.01154 -0.04274 0.00808
v -0.04850 -0.05891 -0.03811
v 0.03233 -0.06353 0.00577
v 0.03233 -0.05660 -0.03580
v -0.02309 -0.04274 -0.01732
v -0.04850 -0.05891 0.00577
v -0.03464 -0.06122 0.01039
v -0.02540 -0.04274 0.01039
v 0.03696 -0.06353 -0.03118
v 0.00461 -0.05199 -0.04042
v -0.05082 -0.04968 -0.00578
v 0.02309 -0.06353 0.01271
v -0.00232 -0.04274 -0.00809
v 0.02771 -0.05891 0.01271
v 0.01386 -0.05199 -0.03811
v 0.02078 -0.06122 -0.04274
v 0.03696 -0.05891 -0.03349
v -0.05544 -0.05199 -0.03349
v -0.02772 -0.06122 -0.04274
v -0.00463 -0.04274 -0.01732
v -0.04850 -0.05199 0.00808
v 0.02771 -0.05660 -0.04042
v 0.03233 -0.05660 -0.02425
v -0.01617 -0.05429 -0.04274
v -0.03695 -0.05429 0.01039
v 0.03233 -0.05891 0.00808
v -0.03464 -0.06353 0.00808
v -0.03695 -0.06353 -0.00116
v -0.04388 -0.06122 0.00577
v 0.02078 -0.05891 0.01271
v -0.02309 -0.06353 -0.04042
v -0.01847 -0.04274 0.01039
v -0.02540 -0.04274 -0.01501
v 0.02541 -0.05429 -0.03580
v -0.05082 -0.05660 -0.00347
v -0.03002 -0.06353 -0.03349
v 0.03464 -0.06122 0.00346
v 0.03696 -0.05891 -0.02425
v -0.05082 -0.05199 -0.03811
v -0.04619 -0.05891 0.00808
v -0.05544 -0.04968 -0.03349
v -0.04388 -0.05891 -0.04042
v -0.04388 -0.04968 -0.03580
v 0.07162 0.00348 -0.04042
v 0.06931 0.03119 0.03350
v 0.06700 0.03119 0.03350
v 0.06931 -0.03580 0.00346
v 0.05545 0.02887 -0.03118
v 0.05545 -0.02656 -0.00348
v 0.07393 0.05429 -0.01270
v 0.05545 0.02656 0.03118
v 0.06007 -0.02888 -0.03580
v 0.07393 -0.02425 0.01501
v 0.06469 0.05659 -0.02887
v 0.06007 -0.01731 0.02425
v 0.06700 0.05891 0.00114
v 0.06931 -0.03119 -0.03349
v 0.07393 0.01040 0.03118
v 0.07393 0.01963 -0.03811
v 0.06469 0.01963 -0.04273
v 0.05545 0.00348 0.03118
v 0.07393 0.04967 0.01039
v 0.06238 -0.03812 -0.00808
v 0.07393 -0.02656 -0.00348
v 0.06931 0.05198 -0.03349
v 0.05776 -0.03119 -0.03118
v 0.07162 0.00809 0.03350
v 0.05545 0.03349 -0.01963
v 0.05776 0.01963 -0.03811
v 0.05776 -0.02888 0.00808
v 0.06238 -0.01731 -0.04042
v 0.06469 0.05659 -0.00116
v 0.06700 -0.01964 0.02425
v 0.07393 0.02887 0.03118
v 0.06238 0.04274 -0.03580
v 0.06700 -0.03580 -0.02887
v 0.07162 -0.02425 -0.02887
v 0.06238 -0.03350 0.00808
v 0.07162 0.05891 -0.01039
v 0.07393 0.03810 -0.03349
v 0.06931 -0.00114 -0.04273
v 0.05545 0.01963 -0.03349
v 0.06931 0.01963 -0.04273
v 0.05545 -0.02656 -0.01270
v 0.07162 -0.02656 0.01731
v 0.06007 0.01270 0.03350
v 0.07162 -0.03350 -0.00577
v 0.07162 0.05891 0.00114
v 0.05776 0.00578 -0.03811
v 0.06007 -0.03580 -0.02656
v 0.06700 -0.03119 -0.03580
v 0.06238 0.05198 -0.02887
v 0.07393 0.01040 -0.03580
v 0.06931 0.05659 -0.02887
v 0.06700 -0.03812 -0.01270
v 0.05776 -0.02888 -0.03349
v 0.06007 -0.03580 -0.00348
v 0.07162 0.03580 0.02887
v 0.06238 -0.02888 0.01501
v 0.05776 -0.02425 0.01501
v 0.07162 -0.01964 0.02194
v 0.06931 -0.02195 -0.03811
v 0.05776 0.03119 -0.03580
v 0.06700 0.03580 0.02887
v 0.06469 -0.00114 -0.04273
v 0.07162 0.03349 -0.03811
v 0.06238 -0.01964 0.02425
v -0.07162 -0.01732 -0.03580
v -0.05776 0.02657 0.01270
v -0.05776 0.02888 0.01039
v -0.05776 -0.03119 -0.03580
v -0.06238 0.06120 -0.03580
v -0.07393 0.00578 0.00808
v -0.05776 -0.02887 0.00808
v -0.07162 0.05429 -0.01732
v -0.06931 -0.03348 -0.01040
v -0.06931 0.05429 0.00577
v -0.06931 0.03117 -0.04505
v -0.06931 -0.01963 0.01270
v -0.06007 0.06120 -0.03349
v -0.06469 -0.03812 -0.03580
v -0.07393 0.02424 -0.02194
v -0.06238 0.05429 0.00577
v -0.06469 -0.00346 -0.04505
v -0.06931 0.06120 -0.03580
v -0.05776 0.03580 -0.01963
v -0.06931 0.01963 0.01270
v -0.07393 0.02888 0.00577
v -0.07162 -0.02657 -0.03118
v -0.06469 0.03117 -0.04505
v -0.06007 -0.03812 -0.01963
v -0.06931 -0.01732 -0.04273
v -0.07162 0.03348 -0.04042
v -0.05776 -0.02194 0.01270
v -0.06700 0.06353 -0.02656
v -0.07162 -0.01963 0.00577
v -0.05776 -0.00346 -0.03580
v -0.06700 -0.02887 0.00808
v -0.07162 0.05429 -0.03118
v -0.06238 -0.01963 -0.04273
v -0.06931 -0.03580 -0.03349
v -0.07393 0.00348 -0.01502
v -0.07162 -0.00116 -0.04042
v -0.06700 -0.03812 -0.02194
v -0.06007 0.00117 -0.04042
v -0.07162 -0.02657 -0.01272
v -0.06007 -0.03812 -0.03580
v -0.06007 0.06120 -0.02887
v -0.06931 0.04735 0.00808
v -0.06931 -0.00346 -0.04505
v -0.06238 0.06353 -0.02656
v -0.05776 -0.03348 -0.01040
v -0.07162 0.02888 0.01039
v -0.06469 -0.03580 -0.03811
v -0.06469 -0.03580 -0.01040
v -0.06931 0.05660 -0.03811
v -0.06931 0.06120 -0.02425
v -0.07393 0.01271 -0.02194
v -0.06931 -0.03119 -0.03811
v -0.07162 0.04735 0.00115
v -0.06931 -0.02657 0.00808
v -0.06700 0.02657 0.01270
v -0.06007 0.04735 -0.03580
v -0.05776 0.03812 -0.01272
v -0.07393 0.02888 -0.01732
v -0.06238 0.06353 -0.03349
v -0.06700 -0.02657 0.01039
v -0.06238 0.02424 -0.04273
v -0.07393 0.00348 0.00577
v -0.07162 0.04735 -0.03580
v -0.06007 -0.02194 -0.04042
v 0.05545 0.02426 -0.01271
v 0.03928 0.01502 -0.01733
v 0.04159 0.01271 -0.01502
v 0.05545 0.01964 -0.02195
v 0.03928 0.02657 -0.01733
v 0.05083 0.01271 -0.01040
v 0.03928 0.02194 -0.01040
v 0.05314 0.02888 -0.02195
v 0.05545 0.02888 -0.01502
v 0.05545 0.01502 -0.01964
v 0.03928 0.01502 -0.01040
v 0.05083 0.02426 -0.01040
v 0.03928 0.02657 -0.01271
v 0.05545 0.01502 -0.01271
v 0.05545 0.02888 -0.02195
v 0.05314 0.01964 -0.02195
v 0.05545 -0.00578 0.00578
v 0.04159 0.02656 0.03350
v 0.03928 0.02656 0.03350
v 0.03928 0.02888 0.00578
v 0.05545 0.03119 0.01040
v 0.03928 -0.00578 0.01733
v 0.05545 0.00578 0.03119
v 0.05545 0.02656 0.03119
v 0.03928 0.01040 0.03350
v 0.03928 0.00116 0.00809
v 0.03928 0.03119 0.03119
v 0.05545 -0.00809 0.01502
v 0.05545 0.02425 0.00578
v 0.03928 0.03119 0.00809
v 0.05083 -0.00809 0.00809
v 0.03928 0.01040 0.00578
v 0.03928 0.00578 0.03119
v 0.04621 0.03119 0.02888
v 0.03928 -0.00578 0.01271
v 0.04390 0.01270 0.03350
v 0.05545 0.03119 0.01502
v 0.05314 -0.00578 0.00578
v 0.04621 0.00347 0.02888
v 0.05083 0.02888 0.03119
v 0.04390 0.02888 0.00578
v 0.00693 0.03119 -0.02888
v -0.04389 -0.01732 -0.03350
v -0.04158 -0.01964 -0.03119
v 0.01154 -0.04042 -0.03812
v -0.01617 0.03811 -0.03581
v 0.00230 -0.02426 -0.02657
v -0.03465 0.03811 -0.02657
v 0.00461 0.02656 -0.03812
v -0.04158 -0.01732 -0.02657
v 0.00693 0.01501 -0.02426
v -0.00463 0.04736 -0.02888
v 0.01154 -0.04042 -0.03119
v -0.03465 0.04273 -0.03119
v -0.00001 -0.04042 -0.03812
v 0.01386 -0.02655 -0.03812
v -0.00232 -0.03812 -0.02888
v -0.00463 -0.00115 -0.02426
v 0.00461 0.03811 -0.03581
v -0.00001 0.02656 -0.03812
v 0.01386 -0.02655 -0.03119
v -0.04389 -0.00808 -0.03350
v -0.01847 0.04504 -0.03350
v -0.04389 -0.00808 -0.02888
v 0.00693 0.00117 -0.02426
v -0.00232 -0.04042 -0.03119
v -0.01156 0.04043 -0.02657
v -0.00694 0.01501 -0.02426
v 0.00693 0.03348 -0.03581
v -0.01847 -0.02426 -0.02657
v -0.01617 0.04736 -0.02888
v 0.00693 -0.03812 -0.02888
v 0.01386 -0.03580 -0.03119
v -0.00001 0.04043 -0.03581
v -0.00463 0.04736 -0.03119
v -0.01847 0.03348 -0.03581
v -0.03465 0.04273 -0.02888
v -0.00232 -0.00346 -0.02426
v -0.00232 -0.04042 -0.03581
v -0.04158 -0.01964 -0.02888
v -0.04158 -0.01040 -0.02657
v 0.00461 0.03811 -0.03119
v -0.00463 0.01733 -0.02426
v 0.01386 -0.03812 -0.03581
v -0.00463 0.03811 -0.02657
v 0.00461 0.02887 -0.02657
v -0.01617 0.04736 -0.03119
v -0.04389 -0.01732 -0.02888
v -0.03696 -0.01964 -0.02657
v 0.00692 0.06122 -0.01270
v -0.05776 -0.02425 -0.01502
v -0.04619 -0.03811 -0.01502
v -0.01154 0.04504 0.00116
v 0.03695 -0.02656 -0.00809
v 0.00923 0.00347 -0.02426
v -0.04619 0.04504 -0.01733
v -0.04619 -0.01963 -0.00347
v 0.03927 0.02656 -0.01502
v 0.00461 0.06122 -0.02195
v -0.00925 -0.03811 -0.00347
v -0.00232 -0.04042 -0.01963
v -0.05776 -0.01963 -0.01963
v -0.05776 0.01963 -0.01040
v -0.00232 0.04965 0.00116
v -0.02540 0.04734 -0.02195
v 0.03233 -0.02193 -0.01502
v 0.03464 0.01501 -0.00578
v -0.04619 0.04504 -0.01040
v 0.03464 -0.02425 -0.00578
v -0.05776 -0.01963 -0.00578
v 0.03927 0.02656 -0.01733
v -0.00232 -0.01269 -0.00116
v -0.02309 -0.04274 -0.00578
v -0.00232 0.06122 -0.00809
v -0.00463 0.00117 -0.02426
v -0.05776 0.00579 -0.01963
v -0.00001 -0.04274 -0.00809
v 0.00461 0.05890 -0.00578
v -0.02079 -0.04042 -0.01963
v 0.00923 0.02425 -0.02426
v -0.01154 0.04965 0.00116
v -0.05776 -0.00808 -0.00578
v -0.04619 0.03811 -0.00809
v -0.00001 -0.04274 -0.01733
v -0.00463 0.06122 -0.01963
v 0.03927 0.01501 -0.01733
v -0.04619 -0.03811 -0.01040
v -0.03003 -0.04274 -0.01502
v 0.03927 0.01963 -0.01040
v -0.01154 -0.01269 -0.00116
v 0.02540 -0.02193 -0.01733
v 0.00692 -0.00115 -0.00116
v -0.02540 0.05428 -0.01040
v -0.00463 0.01963 -0.02426
v -0.02079 -0.03811 -0.00347
v -0.05776 0.01963 -0.01733
v 0.03695 -0.02656 -0.01040
v 0.00230 -0.03811 -0.01963
v -0.00463 -0.04274 -0.00578
v -0.00001 0.06122 -0.02195
v -0.00232 -0.00115 -0.02426
v -0.04388 0.04734 -0.01502
v -0.00232 0.04273 0.00116
v -0.04851 0.04273 -0.01502
v 0.00230 -0.04274 -0.01040
v 0.00692 0.06122 -0.01733
v -0.02771 0.05197 -0.00809
v -0.00232 0.02425 -0.02426
v -0.03927 0.04273 -0.01963
v 0.03464 0.02193 -0.00809
v -0.05776 -0.02425 -0.01040
v -0.04619 -0.01039 -0.00347
v 0.00461 0.06122 -0.00809
v 0.03927 0.02425 0.01963
v -0.05776 -0.02887 0.00578
v -0.05776 -0.02887 0.00809
v -0.04157 0.06122 0.00578
v 0.03464 -0.01732 0.00578
v -0.00694 -0.00345 0.02195
v 0.00461 0.04965 0.00116
v -0.00925 -0.04274 0.00347
v -0.05776 0.02887 0.01270
v 0.01385 -0.01269 0.02195
v -0.05776 0.00809 0.00347
v 0.03927 0.02887 0.00578
v 0.00230 0.06122 0.00809
v 0.00923 0.03117 0.01963
v -0.02771 -0.04274 0.01040
v 0.03464 -0.01501 0.01732
v -0.05776 -0.02193 0.01270
v -0.04851 -0.03811 0.00347
v -0.00694 0.00579 0.00116
v -0.02079 0.04734 0.00116
v -0.04157 0.06122 0.00809
v -0.00232 0.01501 0.02195
v 0.00230 0.06122 0.00347
v 0.03927 -0.00808 0.01732
v 0.03927 0.03117 0.01732
v -0.00925 -0.04274 0.00809
v 0.00923 0.03811 0.00116
v 0.01616 -0.01732 0.00347
v -0.04851 0.04041 0.00347
v 0.03464 -0.01963 0.01270
v -0.04851 -0.04042 0.00809
v -0.05776 0.02887 0.00578
v -0.05776 -0.02656 0.00347
v 0.03927 0.00809 0.00578
v 0.03927 0.00347 0.01963
v 0.01616 0.01269 0.02195
v -0.01847 -0.04274 0.01040
v -0.03233 -0.04274 0.00347
v 0.02771 0.02425 0.00347
v 0.03927 0.03117 0.00809
v 0.01154 -0.01269 0.02195
v -0.00694 0.01039 0.02195
v 0.03003 -0.02193 0.00578
v -0.02540 0.05890 0.00347
v 0.03695 -0.01732 0.01040
v -0.01154 0.00809 0.00116
v 0.03233 -0.01963 0.01501
v -0.05776 0.03117 0.00809
v -0.04619 -0.03580 0.01040
v -0.01847 0.04965 0.00116
v 0.01154 0.03117 0.01963
v -0.05082 0.03349 0.01270
v 0.00230 0.02887 0.01963
v -0.00463 -0.00577 0.02195
v -0.05312 -0.02425 0.01270
v 0.03927 -0.00808 0.01270
v 0.02771 0.02887 0.00347
v -0.02079 0.04041 0.00116
v -0.04851 -0.04042 0.00578
v -0.02541 -0.00809 0.03581
v 0.02309 0.03581 0.03350
v 0.02309 0.03581 0.02888
v 0.03465 -0.01501 0.03119
v 0.02771 0.01270 0.04505
v -0.02310 0.02425 0.04043
v 0.00923 0.01270 0.02195
v 0.03926 0.02425 0.02195
v -0.01616 -0.01733 0.03812
v 0.01617 -0.01501 0.02657
v 0.00232 0.03581 0.02888
v -0.02541 0.01501 0.03350
v 0.03926 0.02888 0.03350
v -0.02079 0.01039 0.04274
v 0.03926 0.00809 0.02195
v -0.00924 0.02657 0.04274
v -0.02079 -0.01501 0.03350
v 0.03926 0.00578 0.03350
v 0.01154 0.03118 0.02426
v 0.03234 -0.01501 0.03350
v 0.00923 0.00578 0.02195
v 0.01848 0.02425 0.04274
v -0.02541 -0.00577 0.04043
v 0.00232 0.03581 0.03581
v 0.03003 -0.01501 0.02657
v 0.00001 -0.01501 0.03812
v 0.03926 0.03118 0.02657
v 0.02079 -0.01733 0.02888
v -0.02541 -0.00115 0.03350
v -0.02310 0.02425 0.03581
v -0.00230 0.02425 0.02657
v 0.01848 0.03581 0.03581
v 0.02540 0.01732 0.04505
v 0.01848 0.03581 0.02657
v -0.01616 -0.01733 0.03350
v 0.03003 0.02425 0.04043
v -0.02541 0.01501 0.04043
v 0.01848 -0.01733 0.03350
v 0.00693 0.02657 0.04274
v 0.03696 0.03118 0.03350
v 0.03465 -0.01501 0.02888
v -0.02079 0.01501 0.04274
v 0.02309 0.01270 0.04505
v -0.00693 0.02657 0.02888
v -0.02079 -0.01501 0.03812
v 0.01154 -0.01270 0.02657
v -0.01154 -0.01733 0.03812
v -0.02310 -0.01040 0.03350
v 0.03003 0.01963 0.04274
v 0.00923 -0.01733 0.02888
v -0.01385 0.02888 0.03812
f 113 112 120 
f 61 62 64 
f 66 63 71 
f 63 66 72 
f 64 62 74 
f 71 63 75 
f 72 66 77 
f 58 59 80 
f 61 64 81 
f 64 69 85 
f 69 67 85 
f 81 64 85 
f 71 75 87 
f 58 80 87 
f 80 71 87 
f 67 78 88 
f 78 73 88 
f 77 70 90 
f 76 60 91 
f 67 69 92 
f 63 72 93 
f 72 57 94 
f 62 61 95 
f 73 78 96 
f 72 94 96 
f 94 73 96 
f 79 62 97 
f 62 95 97 
f 60 66 98 
f 91 60 98 
f 59 64 99 
f 64 74 99 
f 80 59 99 
f 74 80 99 
f 66 60 100 
f 77 66 100 
f 70 77 100 
f 89 70 100 
f 75 63 101 
f 92 69 101 
f 63 92 101 
f 82 73 102 
f 95 82 102 
f 79 65 103 
f 89 103 104 
f 65 84 104 
f 70 89 104 
f 103 65 104 
f 61 81 105 
f 85 67 105 
f 81 85 105 
f 67 88 105 
f 57 72 106 
f 72 77 106 
f 77 90 106 
f 78 67 107 
f 67 92 107 
f 92 63 107 
f 63 93 107 
f 93 78 107 
f 60 76 108 
f 100 60 108 
f 89 100 108 
f 76 103 108 
f 103 89 108 
f 65 79 109 
f 84 65 109 
f 79 97 109 
f 97 95 109 
f 102 84 109 
f 95 102 109 
f 62 79 110 
f 83 62 110 
f 76 91 110 
f 91 83 110 
f 103 76 110 
f 79 103 110 
f 59 58 111 
f 58 87 111 
f 87 75 111 
f 101 69 111 
f 75 101 111 
f 83 91 112 
f 98 86 112 
f 91 98 112 
f 74 62 113 
f 68 74 113 
f 62 83 113 
f 83 112 113 
f 66 71 114 
f 71 80 114 
f 80 86 114 
f 98 66 114 
f 86 98 114 
f 90 70 115 
f 94 57 115 
f 84 94 115 
f 104 84 115 
f 70 104 115 
f 57 106 115 
f 106 90 115 
f 73 82 116 
f 88 73 116 
f 95 61 116 
f 82 95 116 
f 61 105 116 
f 105 88 116 
f 64 59 117 
f 69 64 117 
f 59 111 117 
f 111 69 117 
f 73 94 118 
f 94 84 118 
f 102 73 118 
f 84 102 118 
f 93 72 119 
f 78 93 119 
f 96 78 119 
f 72 96 119 
f 74 68 120 
f 80 74 120 
f 86 80 120 
f 112 86 120 
f 68 113 120 
