# Original object name hint: convex_6
v 0.02771 -0.06122 0.01271
v -0.03464 -0.05891 -0.04274
v -0.03464 -0.05660 -0.04274
v -0.04850 -0.05429 0.00808
v -0.00232 -0.04274 -0.01501
v 0.03233 -0.06122 -0.03811
v -0.03695 -0.06353 0.00577
v -0.03233 -0.04274 0.00808
v -0.05544 -0.04968 -0.03580
v 0.01154 -0.05429 -0.04274
v 0.02541 -0.06353 -0.04042
v -0.02772 -0.06353 -0.03811
v 0.03464 -0.05891 0.00346
v -0.01154 -0.04274 0.00808
v -0.04850 -0.05891 -0.03811
v 0.03233 -0.06353 0.00577
v 0.03233 -0.05660 -0.03580
v -0.02309 -0.04274 -0.01732
v -0.04850 -0.05891 0.00577
v -0.03464 -0.06122 0.01039
v -0.02540 -0.04274 0.01039
v 0.03696 -0.06353 -0.03118
v 0.00461 -0.05199 -0.04042
v -0.05082 -0.04968 -0.00578
v 0.02309 -0.06353 0.01271
v -0.00232 -0.04274 -0.00809
v 0.02771 -0.05891 0.01271
v 0.01386 -0.05199 -0.03811
v 0.02078 -0.06122 -0.04274
v 0.03696 -0.05891 -0.03349
v -0.05544 -0.05199 -0.03349
v -0.02772 -0.06122 -0.04274
v -0.00463 -0.04274 -0.01732
v -0.04850 -0.05199 0.00808
v 0.02771 -0.05660 -0.04042
v 0.03233 -0.05660 -0.02425
v -0.01617 -0.05429 -0.04274
v -0.03695 -0.05429 0.01039
v 0.03233 -0.05891 0.00808
v -0.03464 -0.06353 0.00808
v -0.03695 -0.06353 -0.00116
v -0.04388 -0.06122 0.00577
v 0.02078 -0.05891 0.01271
v -0.02309 -0.06353 -0.04042
v -0.01847 -0.04274 0.01039
v -0.02540 -0.04274 -0.01501
v 0.02541 -0.05429 -0.03580
v -0.05082 -0.05660 -0.00347
v -0.03002 -0.06353 -0.03349
v 0.03464 -0.06122 0.00346
v 0.03696 -0.05891 -0.02425
v -0.05082 -0.05199 -0.03811
v -0.04619 -0.05891 0.00808
v -0.05544 -0.04968 -0.03349
v -0.04388 -0.05891 -0.04042
v -0.04388 -0.04968 -0.03580
v 0.07162 0.00348 -0.04042
v 0.06931 0.03119 0.03350
v 0.06700 0.03119 0.03350
v 0.06931 -0.03580 0.00346
v 0.05545 0.02887 -0.03118
v 0.05545 -0.02656 -0.00348
v 0.07393 0.05429 -0.01270
v 0.05545 0.02656 0.03118
v 0.06007 -0.02888 -0.03580
v 0.07393 -0.02425 0.01501
v 0.06469 0.05659 -0.02887
v 0.06007 -0.01731 0.02425
v 0.06700 0.05891 0.00114
v 0.06931 -0.03119 -0.03349
v 0.07393 0.01040 0.03118
v 0.07393 0.01963 -0.03811
v 0.06469 0.01963 -0.04273
v 0.05545 0.00348 0.03118
v 0.07393 0.04967 0.01039
v 0.06238 -0.03812 -0.00808
v 0.07393 -0.02656 -0.00348
v 0.06931 0.05198 -0.03349
v 0.05776 -0.03119 -0.03118
v 0.07162 0.00809 0.03350
v 0.05545 0.03349 -0.01963
v 0.05776 0.01963 -0.03811
v 0.05776 -0.02888 0.00808
v 0.06238 -0.01731 -0.04042
v 0.06469 0.05659 -0.00116
v 0.06700 -0.01964 0.02425
v 0.07393 0.02887 0.03118
v 0.06238 0.04274 -0.03580
v 0.06700 -0.03580 -0.02887
v 0.07162 -0.02425 -0.02887
v 0.06238 -0.03350 0.00808
v 0.07162 0.05891 -0.01039
v 0.07393 0.03810 -0.03349
v 0.06931 -0.00114 -0.04273
v 0.05545 0.01963 -0.03349
v 0.06931 0.01963 -0.04273
v 0.05545 -0.02656 -0.01270
v 0.07162 -0.02656 0.01731
v 0.06007 0.01270 0.03350
v 0.07162 -0.03350 -0.00577
v 0.07162 0.05891 0.00114
v 0.05776 0.00578 -0.03811
v 0.06007 -0.03580 -0.02656
v 0.06700 -0.03119 -0.03580
v 0.06238 0.05198 -0.02887
v 0.07393 0.01040 -0.03580
v 0.06931 0.05659 -0.02887
v 0.06700 -0.03812 -0.01270
v 0.05776 -0.02888 -0.03349
v 0.06007 -0.03580 -0.00348
v 0.07162 0.03580 0.02887
v 0.06238 -0.02888 0.01501
v 0.05776 -0.02425 0.01501
v 0.07162 -0.01964 0.02194
v 0.06931 -0.02195 -0.03811
v 0.05776 0.03119 -0.03580
v 0.06700 0.03580 0.02887
v 0.06469 -0.00114 -0.04273
v 0.07162 0.03349 -0.03811
v 0.06238 -0.01964 0.02425
v -0.07162 -0.01732 -0.03580
v -0.05776 0.02657 0.01270
v -0.05776 0.02888 0.01039
v -0.05776 -0.03119 -0.03580
v -0.06238 0.06120 -0.03580
v -0.07393 0.00578 0.00808
v -0.05776 -0.02887 0.00808
v -0.07162 0.05429 -0.01732
v -0.06931 -0.03348 -0.01040
v -0.06931 0.05429 0.00577
v -0.06931 0.03117 -0.04505
v -0.06931 -0.01963 0.01270
v -0.06007 0.06120 -0.03349
v -0.06469 -0.03812 -0.03580
v -0.07393 0.02424 -0.02194
v -0.06238 0.05429 0.00577
v -0.06469 -0.00346 -0.04505
v -0.06931 0.06120 -0.03580
v -0.05776 0.03580 -0.01963
v -0.06931 0.01963 0.01270
v -0.07393 0.02888 0.00577
v -0.07162 -0.02657 -0.03118
v -0.06469 0.03117 -0.04505
v -0.06007 -0.03812 -0.01963
v -0.06931 -0.01732 -0.04273
v -0.07162 0.03348 -0.04042
v -0.05776 -0.02194 0.01270
v -0.06700 0.06353 -0.02656
v -0.07162 -0.01963 0.00577
v -0.05776 -0.00346 -0.03580
v -0.06700 -0.02887 0.00808
v -0.07162 0.05429 -0.03118
v -0.06238 -0.01963 -0.04273
v -0.06931 -0.03580 -0.03349
v -0.07393 0.00348 -0.01502
v -0.07162 -0.00116 -0.04042
v -0.06700 -0.03812 -0.02194
v -0.06007 0.00117 -0.04042
v -0.07162 -0.02657 -0.01272
v -0.06007 -0.03812 -0.03580
v -0.06007 0.06120 -0.02887
v -0.06931 0.04735 0.00808
v -0.06931 -0.00346 -0.04505
v -0.06238 0.06353 -0.02656
v -0.05776 -0.03348 -0.01040
v -0.07162 0.02888 0.01039
v -0.06469 -0.03580 -0.03811
v -0.06469 -0.03580 -0.01040
v -0.06931 0.05660 -0.03811
v -0.06931 0.06120 -0.02425
v -0.07393 0.01271 -0.02194
v -0.06931 -0.03119 -0.03811
v -0.07162 0.04735 0.00115
v -0.06931 -0.02657 0.00808
v -0.06700 0.02657 0.01270
v -0.06007 0.04735 -0.03580
v -0.05776 0.03812 -0.01272
v -0.07393 0.02888 -0.01732
v -0.06238 0.06353 -0.03349
v -0.06700 -0.02657 0.01039
v -0.06238 0.02424 -0.04273
v -0.07393 0.00348 0.00577
v -0.07162 0.04735 -0.03580
v -0.06007 -0.02194 -0.04042
v 0.05545 0.02426 -0.01271
v 0.03928 0.01502 -0.01733
v 0.04159 0.01271 -0.01502
v 0.05545 0.01964 -0.02195
v 0.03928 0.02657 -0.01733
v 0.05083 0.01271 -0.01040
v 0.03928 0.02194 -0.01040
v 0.05314 0.02888 -0.02195
v 0.05545 0.02888 -0.01502
v 0.05545 0.01502 -0.01964
v 0.03928 0.01502 -0.01040
v 0.05083 0.02426 -0.01040
v 0.03928 0.02657 -0.01271
v 0.05545 0.01502 -0.01271
v 0.05545 0.02888 -0.02195
v 0.05314 0.01964 -0.02195
v 0.05545 -0.00578 0.00578
v 0.04159 0.02656 0.03350
v 0.03928 0.02656 0.03350
v 0.03928 0.02888 0.00578
v 0.05545 0.03119 0.01040
v 0.03928 -0.00578 0.01733
v 0.05545 0.00578 0.03119
v 0.05545 0.02656 0.03119
v 0.03928 0.01040 0.03350
v 0.03928 0.00116 0.00809
v 0.03928 0.03119 0.03119
v 0.05545 -0.00809 0.01502
v 0.05545 0.02425 0.00578
v 0.03928 0.03119 0.00809
v 0.05083 -0.00809 0.00809
v 0.03928 0.01040 0.00578
v 0.03928 0.00578 0.03119
v 0.04621 0.03119 0.02888
v 0.03928 -0.00578 0.01271
v 0.04390 0.01270 0.03350
v 0.05545 0.03119 0.01502
v 0.05314 -0.00578 0.00578
v 0.04621 0.00347 0.02888
v 0.05083 0.02888 0.03119
v 0.04390 0.02888 0.00578
v 0.00693 0.03119 -0.02888
v -0.04389 -0.01732 -0.03350
v -0.04158 -0.01964 -0.03119
v 0.01154 -0.04042 -0.03812
v -0.01617 0.03811 -0.03581
v 0.00230 -0.02426 -0.02657
v -0.03465 0.03811 -0.02657
v 0.00461 0.02656 -0.03812
v -0.04158 -0.01732 -0.02657
v 0.00693 0.01501 -0.02426
v -0.00463 0.04736 -0.02888
v 0.01154 -0.04042 -0.03119
v -0.03465 0.04273 -0.03119
v -0.00001 -0.04042 -0.03812
v 0.01386 -0.02655 -0.03812
v -0.00232 -0.03812 -0.02888
v -0.00463 -0.00115 -0.02426
v 0.00461 0.03811 -0.03581
v -0.00001 0.02656 -0.03812
v 0.01386 -0.02655 -0.03119
v -0.04389 -0.00808 -0.03350
v -0.01847 0.04504 -0.03350
v -0.04389 -0.00808 -0.02888
v 0.00693 0.00117 -0.02426
v -0.00232 -0.04042 -0.03119
v -0.01156 0.04043 -0.02657
v -0.00694 0.01501 -0.02426
v 0.00693 0.03348 -0.03581
v -0.01847 -0.02426 -0.02657
v -0.01617 0.04736 -0.02888
v 0.00693 -0.03812 -0.02888
v 0.01386 -0.03580 -0.03119
v -0.00001 0.04043 -0.03581
v -0.00463 0.04736 -0.03119
v -0.01847 0.03348 -0.03581
v -0.03465 0.04273 -0.02888
v -0.00232 -0.00346 -0.02426
v -0.00232 -0.04042 -0.03581
v -0.04158 -0.01964 -0.02888
v -0.04158 -0.01040 -0.02657
v 0.00461 0.03811 -0.03119
v -0.00463 0.01733 -0.02426
v 0.01386 -0.03812 -0.03581
v -0.00463 0.03811 -0.02657
v 0.00461 0.02887 -0.02657
v -0.01617 0.04736 -0.03119
v -0.04389 -0.01732 -0.02888
v -0.03696 -0.01964 -0.02657
v 0.00692 0.06122 -0.01270
v -0.05776 -0.02425 -0.01502
v -0.04619 -0.03811 -0.01502
v -0.01154 0.04504 0.00116
v 0.03695 -0.02656 -0.00809
v 0.00923 0.00347 -0.02426
v -0.04619 0.04504 -0.01733
v -0.04619 -0.01963 -0.00347
v 0.03927 0.02656 -0.01502
v 0.00461 0.06122 -0.02195
v -0.00925 -0.03811 -0.00347
v -0.00232 -0.04042 -0.01963
v -0.05776 -0.01963 -0.01963
v -0.05776 0.01963 -0.01040
v -0.00232 0.04965 0.00116
v -0.02540 0.04734 -0.02195
v 0.03233 -0.02193 -0.01502
v 0.03464 0.01501 -0.00578
v -0.04619 0.04504 -0.01040
v 0.03464 -0.02425 -0.00578
v -0.05776 -0.01963 -0.00578
v 0.03927 0.02656 -0.01733
v -0.00232 -0.01269 -0.00116
v -0.02309 -0.04274 -0.00578
v -0.00232 0.06122 -0.00809
v -0.00463 0.00117 -0.02426
v -0.05776 0.00579 -0.01963
v -0.00001 -0.04274 -0.00809
v 0.00461 0.05890 -0.00578
v -0.02079 -0.04042 -0.01963
v 0.00923 0.02425 -0.02426
v -0.01154 0.04965 0.00116
v -0.05776 -0.00808 -0.00578
v -0.04619 0.03811 -0.00809
v -0.00001 -0.04274 -0.01733
v -0.00463 0.06122 -0.01963
v 0.03927 0.01501 -0.01733
v -0.04619 -0.03811 -0.01040
v -0.03003 -0.04274 -0.01502
v 0.03927 0.01963 -0.01040
v -0.01154 -0.01269 -0.00116
v 0.02540 -0.02193 -0.01733
v 0.00692 -0.00115 -0.00116
v -0.02540 0.05428 -0.01040
v -0.00463 0.01963 -0.02426
v -0.02079 -0.03811 -0.00347
v -0.05776 0.01963 -0.01733
v 0.03695 -0.02656 -0.01040
v 0.00230 -0.03811 -0.01963
v -0.00463 -0.04274 -0.00578
v -0.00001 0.06122 -0.02195
v -0.00232 -0.00115 -0.02426
v -0.04388 0.04734 -0.01502
v -0.00232 0.04273 0.00116
v -0.04851 0.04273 -0.01502
v 0.00230 -0.04274 -0.01040
v 0.00692 0.06122 -0.01733
v -0.02771 0.05197 -0.00809
v -0.00232 0.02425 -0.02426
v -0.03927 0.04273 -0.01963
v 0.03464 0.02193 -0.00809
v -0.05776 -0.02425 -0.01040
v -0.04619 -0.01039 -0.00347
v 0.00461 0.06122 -0.00809
v 0.03927 0.02425 0.01963
v -0.05776 -0.02887 0.00578
v -0.05776 -0.02887 0.00809
v -0.04157 0.06122 0.00578
v 0.03464 -0.01732 0.00578
v -0.00694 -0.00345 0.02195
v 0.00461 0.04965 0.00116
v -0.00925 -0.04274 0.00347
v -0.05776 0.02887 0.01270
v 0.01385 -0.01269 0.02195
v -0.05776 0.00809 0.00347
v 0.03927 0.02887 0.00578
v 0.00230 0.06122 0.00809
v 0.00923 0.03117 0.01963
v -0.02771 -0.04274 0.01040
v 0.03464 -0.01501 0.01732
v -0.05776 -0.02193 0.01270
v -0.04851 -0.03811 0.00347
v -0.00694 0.00579 0.00116
v -0.02079 0.04734 0.00116
v -0.04157 0.06122 0.00809
v -0.00232 0.01501 0.02195
v 0.00230 0.06122 0.00347
v 0.03927 -0.00808 0.01732
v 0.03927 0.03117 0.01732
v -0.00925 -0.04274 0.00809
v 0.00923 0.03811 0.00116
v 0.01616 -0.01732 0.00347
v -0.04851 0.04041 0.00347
v 0.03464 -0.01963 0.01270
v -0.04851 -0.04042 0.00809
v -0.05776 0.02887 0.00578
v -0.05776 -0.02656 0.00347
v 0.03927 0.00809 0.00578
v 0.03927 0.00347 0.01963
v 0.01616 0.01269 0.02195
v -0.01847 -0.04274 0.01040
v -0.03233 -0.04274 0.00347
v 0.02771 0.02425 0.00347
v 0.03927 0.03117 0.00809
v 0.01154 -0.01269 0.02195
v -0.00694 0.01039 0.02195
v 0.03003 -0.02193 0.00578
v -0.02540 0.05890 0.00347
v 0.03695 -0.01732 0.01040
v -0.01154 0.00809 0.00116
v 0.03233 -0.01963 0.01501
v -0.05776 0.03117 0.00809
v -0.04619 -0.03580 0.01040
v -0.01847 0.04965 0.00116
v 0.01154 0.03117 0.01963
v -0.05082 0.03349 0.01270
v 0.00230 0.02887 0.01963
v -0.00463 -0.00577 0.02195
v -0.05312 -0.02425 0.01270
v 0.03927 -0.00808 0.01270
v 0.02771 0.02887 0.00347
v -0.02079 0.04041 0.00116
v -0.04851 -0.04042 0.00578
v -0.02541 -0.00809 0.03581
v 0.02309 0.03581 0.03350
v 0.02309 0.03581 0.02888
v 0.03465 -0.01501 0.03119
v 0.02771 0.01270 0.04505
v -0.02310 0.02425 0.04043
v 0.00923 0.01270 0.02195
v 0.03926 0.02425 0.02195
v -0.01616 -0.01733 0.03812
v 0.01617 -0.01501 0.02657
v 0.00232 0.03581 0.02888
v -0.02541 0.01501 0.03350
v 0.03926 0.02888 0.03350
v -0.02079 0.01039 0.04274
v 0.03926 0.00809 0.02195
v -0.00924 0.02657 0.04274
v -0.02079 -0.01501 0.03350
v 0.03926 0.00578 0.03350
v 0.01154 0.03118 0.02426
v 0.03234 -0.01501 0.03350
v 0.00923 0.00578 0.02195
v 0.01848 0.02425 0.04274
v -0.02541 -0.00577 0.04043
v 0.00232 0.03581 0.03581
v 0.03003 -0.01501 0.02657
v 0.00001 -0.01501 0.03812
v 0.03926 0.03118 0.02657
v 0.02079 -0.01733 0.02888
v -0.02541 -0.00115 0.03350
v -0.02310 0.02425 0.03581
v -0.00230 0.02425 0.02657
v 0.01848 0.03581 0.03581
v 0.02540 0.01732 0.04505
v 0.01848 0.03581 0.02657
v -0.01616 -0.01733 0.03350
v 0.03003 0.02425 0.04043
v -0.02541 0.01501 0.04043
v 0.01848 -0.01733 0.03350
v 0.00693 0.02657 0.04274
v 0.03696 0.03118 0.03350
v 0.03465 -0.01501 0.02888
v -0.02079 0.01501 0.04274
v 0.02309 0.01270 0.04505
v -0.00693 0.02657 0.02888
v -0.02079 -0.01501 0.03812
v 0.01154 -0.01270 0.02657
v -0.01154 -0.01733 0.03812
v -0.02310 -0.01040 0.03350
v 0.03003 0.01963 0.04274
v 0.00923 -0.01733 0.02888
v -0.01385 0.02888 0.03812
f 298 302 337 
f 276 275 286 
f 286 275 287 
f 291 288 293 
f 287 275 294 
f 274 282 295 
f 284 293 296 
f 274 283 298 
f 286 287 300 
f 299 286 300 
f 276 286 303 
f 295 279 304 
f 283 295 304 
f 279 299 304 
f 281 277 305 
f 277 288 305 
f 288 302 305 
f 302 298 305 
f 294 281 306 
f 287 294 306 
f 306 305 307 
f 292 287 307 
f 305 292 307 
f 287 306 307 
f 301 297 308 
f 303 285 308 
f 298 283 309 
f 295 282 310 
f 279 295 310 
f 275 276 311 
f 297 294 311 
f 297 311 312 
f 276 303 312 
f 308 297 312 
f 303 308 312 
f 311 276 312 
f 293 278 313 
f 291 293 313 
f 282 302 313 
f 278 310 313 
f 310 282 313 
f 277 281 314 
f 284 296 314 
f 310 290 315 
f 279 310 315 
f 296 293 316 
f 298 309 317 
f 300 289 318 
f 299 300 318 
f 304 299 318 
f 281 294 319 
f 297 284 319 
f 294 297 319 
f 314 281 319 
f 284 314 319 
f 280 300 320 
f 300 287 320 
f 310 278 321 
f 290 310 321 
f 285 279 322 
f 308 285 322 
f 279 315 322 
f 315 290 322 
f 321 308 322 
f 290 321 322 
f 278 293 323 
f 293 284 323 
f 284 297 323 
f 301 278 323 
f 297 301 323 
f 289 280 324 
f 283 304 324 
f 309 283 324 
f 280 309 324 
f 279 285 325 
f 299 279 325 
f 286 299 325 
f 303 286 325 
f 285 303 325 
f 280 292 326 
f 309 280 326 
f 292 317 326 
f 317 309 326 
f 288 277 327 
f 293 288 327 
f 277 314 327 
f 314 296 327 
f 316 293 327 
f 296 316 327 
f 292 280 328 
f 287 292 328 
f 280 320 328 
f 320 287 328 
f 278 301 329 
f 301 308 329 
f 321 278 329 
f 308 321 329 
f 283 274 330 
f 274 295 330 
f 295 283 330 
f 292 305 331 
f 305 298 331 
f 317 292 331 
f 298 317 331 
f 318 289 332 
f 304 318 332 
f 289 324 332 
f 324 304 332 
f 280 289 333 
f 289 300 333 
f 300 280 333 
f 288 291 334 
f 302 288 334 
f 291 313 334 
f 313 302 334 
f 294 275 335 
f 275 311 335 
f 311 294 335 
f 281 305 336 
f 306 281 336 
f 305 306 336 
f 282 274 337 
f 274 298 337 
f 302 282 337 
