# Original object name hint: convex_0
v 0.02771 -0.06122 0.01271
v -0.03464 -0.05891 -0.04274
v -0.03464 -0.05660 -0.04274
v -0.04850 -0.05429 0.00808
v -0.00232 -0.04274 -0.01501
v 0.03233 -0.06122 -0.03811
v -0.03695 -0.06353 0.00577
v -0.03233 -0.04274 0.00808
v -0.05544 -0.04968 -0.03580
v 0.01154 -0.05429 -0.04274
v 0.02541 -0.06353 -0.04042
v -0.02772 -0.06353 -0.03811
v 0.03464 -0.05891 0.00346
v -0.01154 -0.04274 0.00808
v -0.04850 -0.05891 -0.03811
v 0.03233 -0.06353 0.00577
v 0.03233 -0.05660 -0.03580
v -0.02309 -0.04274 -0.01732
v -0.04850 -0.05891 0.00577
v -0.03464 -0.06122 0.01039
v -0.02540 -0.04274 0.01039
v 0.03696 -0.06353 -0.03118
v 0.00461 -0.05199 -0.04042
v -0.05082 -0.04968 -0.00578
v 0.02309 -0.06353 0.01271
v -0.00232 -0.04274 -0.00809
v 0.02771 -0.05891 0.01271
v 0.01386 -0.05199 -0.03811
v 0.02078 -0.06122 -0.04274
v 0.03696 -0.05891 -0.03349
v -0.05544 -0.05199 -0.03349
v -0.02772 -0.06122 -0.04274
v -0.00463 -0.04274 -0.01732
v -0.04850 -0.05199 0.00808
v 0.02771 -0.05660 -0.04042
v 0.03233 -0.05660 -0.02425
v -0.01617 -0.05429 -0.04274
v -0.03695 -0.05429 0.01039
v 0.03233 -0.05891 0.00808
v -0.03464 -0.06353 0.00808
v -0.03695 -0.06353 -0.00116
v -0.04388 -0.06122 0.00577
v 0.02078 -0.05891 0.01271
v -0.02309 -0.06353 -0.04042
v -0.01847 -0.04274 0.01039
v -0.02540 -0.04274 -0.01501
v 0.02541 -0.05429 -0.03580
v -0.05082 -0.05660 -0.00347
v -0.03002 -0.06353 -0.03349
v 0.03464 -0.06122 0.00346
v 0.03696 -0.05891 -0.02425
v -0.05082 -0.05199 -0.03811
v -0.04619 -0.05891 0.00808
v -0.05544 -0.04968 -0.03349
v -0.04388 -0.05891 -0.04042
v -0.04388 -0.04968 -0.03580
v 0.07162 0.00348 -0.04042
v 0.06931 0.03119 0.03350
v 0.06700 0.03119 0.03350
v 0.06931 -0.03580 0.00346
v 0.05545 0.02887 -0.03118
v 0.05545 -0.02656 -0.00348
v 0.07393 0.05429 -0.01270
v 0.05545 0.02656 0.03118
v 0.06007 -0.02888 -0.03580
v 0.07393 -0.02425 0.01501
v 0.06469 0.05659 -0.02887
v 0.06007 -0.01731 0.02425
v 0.06700 0.05891 0.00114
v 0.06931 -0.03119 -0.03349
v 0.07393 0.01040 0.03118
v 0.07393 0.01963 -0.03811
v 0.06469 0.01963 -0.04273
v 0.05545 0.00348 0.03118
v 0.07393 0.04967 0.01039
v 0.06238 -0.03812 -0.00808
v 0.07393 -0.02656 -0.00348
v 0.06931 0.05198 -0.03349
v 0.05776 -0.03119 -0.03118
v 0.07162 0.00809 0.03350
v 0.05545 0.03349 -0.01963
v 0.05776 0.01963 -0.03811
v 0.05776 -0.02888 0.00808
v 0.06238 -0.01731 -0.04042
v 0.06469 0.05659 -0.00116
v 0.06700 -0.01964 0.02425
v 0.07393 0.02887 0.03118
v 0.06238 0.04274 -0.03580
v 0.06700 -0.03580 -0.02887
v 0.07162 -0.02425 -0.02887
v 0.06238 -0.03350 0.00808
v 0.07162 0.05891 -0.01039
v 0.07393 0.03810 -0.03349
v 0.06931 -0.00114 -0.04273
v 0.05545 0.01963 -0.03349
v 0.06931 0.01963 -0.04273
v 0.05545 -0.02656 -0.01270
v 0.07162 -0.02656 0.01731
v 0.06007 0.01270 0.03350
v 0.07162 -0.03350 -0.00577
v 0.07162 0.05891 0.00114
v 0.05776 0.00578 -0.03811
v 0.06007 -0.03580 -0.02656
v 0.06700 -0.03119 -0.03580
v 0.06238 0.05198 -0.02887
v 0.07393 0.01040 -0.03580
v 0.06931 0.05659 -0.02887
v 0.06700 -0.03812 -0.01270
v 0.05776 -0.02888 -0.03349
v 0.06007 -0.03580 -0.00348
v 0.07162 0.03580 0.02887
v 0.06238 -0.02888 0.01501
v 0.05776 -0.02425 0.01501
v 0.07162 -0.01964 0.02194
v 0.06931 -0.02195 -0.03811
v 0.05776 0.03119 -0.03580
v 0.06700 0.03580 0.02887
v 0.06469 -0.00114 -0.04273
v 0.07162 0.03349 -0.03811
v 0.06238 -0.01964 0.02425
v -0.07162 -0.01732 -0.03580
v -0.05776 0.02657 0.01270
v -0.05776 0.02888 0.01039
v -0.05776 -0.03119 -0.03580
v -0.06238 0.06120 -0.03580
v -0.07393 0.00578 0.00808
v -0.05776 -0.02887 0.00808
v -0.07162 0.05429 -0.01732
v -0.06931 -0.03348 -0.01040
v -0.06931 0.05429 0.00577
v -0.06931 0.03117 -0.04505
v -0.06931 -0.01963 0.01270
v -0.06007 0.06120 -0.03349
v -0.06469 -0.03812 -0.03580
v -0.07393 0.02424 -0.02194
v -0.06238 0.05429 0.00577
v -0.06469 -0.00346 -0.04505
v -0.06931 0.06120 -0.03580
v -0.05776 0.03580 -0.01963
v -0.06931 0.01963 0.01270
v -0.07393 0.02888 0.00577
v -0.07162 -0.02657 -0.03118
v -0.06469 0.03117 -0.04505
v -0.06007 -0.03812 -0.01963
v -0.06931 -0.01732 -0.04273
v -0.07162 0.03348 -0.04042
v -0.05776 -0.02194 0.01270
v -0.06700 0.06353 -0.02656
v -0.07162 -0.01963 0.00577
v -0.05776 -0.00346 -0.03580
v -0.06700 -0.02887 0.00808
v -0.07162 0.05429 -0.03118
v -0.06238 -0.01963 -0.04273
v -0.06931 -0.03580 -0.03349
v -0.07393 0.00348 -0.01502
v -0.07162 -0.00116 -0.04042
v -0.06700 -0.03812 -0.02194
v -0.06007 0.00117 -0.04042
v -0.07162 -0.02657 -0.01272
v -0.06007 -0.03812 -0.03580
v -0.06007 0.06120 -0.02887
v -0.06931 0.04735 0.00808
v -0.06931 -0.00346 -0.04505
v -0.06238 0.06353 -0.02656
v -0.05776 -0.03348 -0.01040
v -0.07162 0.02888 0.01039
v -0.06469 -0.03580 -0.03811
v -0.06469 -0.03580 -0.01040
v -0.06931 0.05660 -0.03811
v -0.06931 0.06120 -0.02425
v -0.07393 0.01271 -0.02194
v -0.06931 -0.03119 -0.03811
v -0.07162 0.04735 0.00115
v -0.06931 -0.02657 0.00808
v -0.06700 0.02657 0.01270
v -0.06007 0.04735 -0.03580
v -0.05776 0.03812 -0.01272
v -0.07393 0.02888 -0.01732
v -0.06238 0.06353 -0.03349
v -0.06700 -0.02657 0.01039
v -0.06238 0.02424 -0.04273
v -0.07393 0.00348 0.00577
v -0.07162 0.04735 -0.03580
v -0.06007 -0.02194 -0.04042
v 0.05545 0.02426 -0.01271
v 0.03928 0.01502 -0.01733
v 0.04159 0.01271 -0.01502
v 0.05545 0.01964 -0.02195
v 0.03928 0.02657 -0.01733
v 0.05083 0.01271 -0.01040
v 0.03928 0.02194 -0.01040
v 0.05314 0.02888 -0.02195
v 0.05545 0.02888 -0.01502
v 0.05545 0.01502 -0.01964
v 0.03928 0.01502 -0.01040
v 0.05083 0.02426 -0.01040
v 0.03928 0.02657 -0.01271
v 0.05545 0.01502 -0.01271
v 0.05545 0.02888 -0.02195
v 0.05314 0.01964 -0.02195
v 0.05545 -0.00578 0.00578
v 0.04159 0.02656 0.03350
v 0.03928 0.02656 0.03350
v 0.03928 0.02888 0.00578
v 0.05545 0.03119 0.01040
v 0.03928 -0.00578 0.01733
v 0.05545 0.00578 0.03119
v 0.05545 0.02656 0.03119
v 0.03928 0.01040 0.03350
v 0.03928 0.00116 0.00809
v 0.03928 0.03119 0.03119
v 0.05545 -0.00809 0.01502
v 0.05545 0.02425 0.00578
v 0.03928 0.03119 0.00809
v 0.05083 -0.00809 0.00809
v 0.03928 0.01040 0.00578
v 0.03928 0.00578 0.03119
v 0.04621 0.03119 0.02888
v 0.03928 -0.00578 0.01271
v 0.04390 0.01270 0.03350
v 0.05545 0.03119 0.01502
v 0.05314 -0.00578 0.00578
v 0.04621 0.00347 0.02888
v 0.05083 0.02888 0.03119
v 0.04390 0.02888 0.00578
v 0.00693 0.03119 -0.02888
v -0.04389 -0.01732 -0.03350
v -0.04158 -0.01964 -0.03119
v 0.01154 -0.04042 -0.03812
v -0.01617 0.03811 -0.03581
v 0.00230 -0.02426 -0.02657
v -0.03465 0.03811 -0.02657
v 0.00461 0.02656 -0.03812
v -0.04158 -0.01732 -0.02657
v 0.00693 0.01501 -0.02426
v -0.00463 0.04736 -0.02888
v 0.01154 -0.04042 -0.03119
v -0.03465 0.04273 -0.03119
v -0.00001 -0.04042 -0.03812
v 0.01386 -0.02655 -0.03812
v -0.00232 -0.03812 -0.02888
v -0.00463 -0.00115 -0.02426
v 0.00461 0.03811 -0.03581
v -0.00001 0.02656 -0.03812
v 0.01386 -0.02655 -0.03119
v -0.04389 -0.00808 -0.03350
v -0.01847 0.04504 -0.03350
v -0.04389 -0.00808 -0.02888
v 0.00693 0.00117 -0.02426
v -0.00232 -0.04042 -0.03119
v -0.01156 0.04043 -0.02657
v -0.00694 0.01501 -0.02426
v 0.00693 0.03348 -0.03581
v -0.01847 -0.02426 -0.02657
v -0.01617 0.04736 -0.02888
v 0.00693 -0.03812 -0.02888
v 0.01386 -0.03580 -0.03119
v -0.00001 0.04043 -0.03581
v -0.00463 0.04736 -0.03119
v -0.01847 0.03348 -0.03581
v -0.03465 0.04273 -0.02888
v -0.00232 -0.00346 -0.02426
v -0.00232 -0.04042 -0.03581
v -0.04158 -0.01964 -0.02888
v -0.04158 -0.01040 -0.02657
v 0.00461 0.03811 -0.03119
v -0.00463 0.01733 -0.02426
v 0.01386 -0.03812 -0.03581
v -0.00463 0.03811 -0.02657
v 0.00461 0.02887 -0.02657
v -0.01617 0.04736 -0.03119
v -0.04389 -0.01732 -0.02888
v -0.03696 -0.01964 -0.02657
v 0.00692 0.06122 -0.01270
v -0.05776 -0.02425 -0.01502
v -0.04619 -0.03811 -0.01502
v -0.01154 0.04504 0.00116
v 0.03695 -0.02656 -0.00809
v 0.00923 0.00347 -0.02426
v -0.04619 0.04504 -0.01733
v -0.04619 -0.01963 -0.00347
v 0.03927 0.02656 -0.01502
v 0.00461 0.06122 -0.02195
v -0.00925 -0.03811 -0.00347
v -0.00232 -0.04042 -0.01963
v -0.05776 -0.01963 -0.01963
v -0.05776 0.01963 -0.01040
v -0.00232 0.04965 0.00116
v -0.02540 0.04734 -0.02195
v 0.03233 -0.02193 -0.01502
v 0.03464 0.01501 -0.00578
v -0.04619 0.04504 -0.01040
v 0.03464 -0.02425 -0.00578
v -0.05776 -0.01963 -0.00578
v 0.03927 0.02656 -0.01733
v -0.00232 -0.01269 -0.00116
v -0.02309 -0.04274 -0.00578
v -0.00232 0.06122 -0.00809
v -0.00463 0.00117 -0.02426
v -0.05776 0.00579 -0.01963
v -0.00001 -0.04274 -0.00809
v 0.00461 0.05890 -0.00578
v -0.02079 -0.04042 -0.01963
v 0.00923 0.02425 -0.02426
v -0.01154 0.04965 0.00116
v -0.05776 -0.00808 -0.00578
v -0.04619 0.03811 -0.00809
v -0.00001 -0.04274 -0.01733
v -0.00463 0.06122 -0.01963
v 0.03927 0.01501 -0.01733
v -0.04619 -0.03811 -0.01040
v -0.03003 -0.04274 -0.01502
v 0.03927 0.01963 -0.01040
v -0.01154 -0.01269 -0.00116
v 0.02540 -0.02193 -0.01733
v 0.00692 -0.00115 -0.00116
v -0.02540 0.05428 -0.01040
v -0.00463 0.01963 -0.02426
v -0.02079 -0.03811 -0.00347
v -0.05776 0.01963 -0.01733
v 0.03695 -0.02656 -0.01040
v 0.00230 -0.03811 -0.01963
v -0.00463 -0.04274 -0.00578
v -0.00001 0.06122 -0.02195
v -0.00232 -0.00115 -0.02426
v -0.04388 0.04734 -0.01502
v -0.00232 0.04273 0.00116
v -0.04851 0.04273 -0.01502
v 0.00230 -0.04274 -0.01040
v 0.00692 0.06122 -0.01733
v -0.02771 0.05197 -0.00809
v -0.00232 0.02425 -0.02426
v -0.03927 0.04273 -0.01963
v 0.03464 0.02193 -0.00809
v -0.05776 -0.02425 -0.01040
v -0.04619 -0.01039 -0.00347
v 0.00461 0.06122 -0.00809
v 0.03927 0.02425 0.01963
v -0.05776 -0.02887 0.00578
v -0.05776 -0.02887 0.00809
v -0.04157 0.06122 0.00578
v 0.03464 -0.01732 0.00578
v -0.00694 -0.00345 0.02195
v 0.00461 0.04965 0.00116
v -0.00925 -0.04274 0.00347
v -0.05776 0.02887 0.01270
v 0.01385 -0.01269 0.02195
v -0.05776 0.00809 0.00347
v 0.03927 0.02887 0.00578
v 0.00230 0.06122 0.00809
v 0.00923 0.03117 0.01963
v -0.02771 -0.04274 0.01040
v 0.03464 -0.01501 0.01732
v -0.05776 -0.02193 0.01270
v -0.04851 -0.03811 0.00347
v -0.00694 0.00579 0.00116
v -0.02079 0.04734 0.00116
v -0.04157 0.06122 0.00809
v -0.00232 0.01501 0.02195
v 0.00230 0.06122 0.00347
v 0.03927 -0.00808 0.01732
v 0.03927 0.03117 0.01732
v -0.00925 -0.04274 0.00809
v 0.00923 0.03811 0.00116
v 0.01616 -0.01732 0.00347
v -0.04851 0.04041 0.00347
v 0.03464 -0.01963 0.01270
v -0.04851 -0.04042 0.00809
v -0.05776 0.02887 0.00578
v -0.05776 -0.02656 0.00347
v 0.03927 0.00809 0.00578
v 0.03927 0.00347 0.01963
v 0.01616 0.01269 0.02195
v -0.01847 -0.04274 0.01040
v -0.03233 -0.04274 0.00347
v 0.02771 0.02425 0.00347
v 0.03927 0.03117 0.00809
v 0.01154 -0.01269 0.02195
v -0.00694 0.01039 0.02195
v 0.03003 -0.02193 0.00578
v -0.02540 0.05890 0.00347
v 0.03695 -0.01732 0.01040
v -0.01154 0.00809 0.00116
v 0.03233 -0.01963 0.01501
v -0.05776 0.03117 0.00809
v -0.04619 -0.03580 0.01040
v -0.01847 0.04965 0.00116
v 0.01154 0.03117 0.01963
v -0.05082 0.03349 0.01270
v 0.00230 0.02887 0.01963
v -0.00463 -0.00577 0.02195
v -0.05312 -0.02425 0.01270
v 0.03927 -0.00808 0.01270
v 0.02771 0.02887 0.00347
v -0.02079 0.04041 0.00116
v -0.04851 -0.04042 0.00578
v -0.02541 -0.00809 0.03581
v 0.02309 0.03581 0.03350
v 0.02309 0.03581 0.02888
v 0.03465 -0.01501 0.03119
v 0.02771 0.01270 0.04505
v -0.02310 0.02425 0.04043
v 0.00923 0.01270 0.02195
v 0.03926 0.02425 0.02195
v -0.01616 -0.01733 0.03812
v 0.01617 -0.01501 0.02657
v 0.00232 0.03581 0.02888
v -0.02541 0.01501 0.03350
v 0.03926 0.02888 0.03350
v -0.02079 0.01039 0.04274
v 0.03926 0.00809 0.02195
v -0.00924 0.02657 0.04274
v -0.02079 -0.01501 0.03350
v 0.03926 0.00578 0.03350
v 0.01154 0.03118 0.02426
v 0.03234 -0.01501 0.03350
v 0.00923 0.00578 0.02195
v 0.01848 0.02425 0.04274
v -0.02541 -0.00577 0.04043
v 0.00232 0.03581 0.03581
v 0.03003 -0.01501 0.02657
v 0.00001 -0.01501 0.03812
v 0.03926 0.03118 0.02657
v 0.02079 -0.01733 0.02888
v -0.02541 -0.00115 0.03350
v -0.02310 0.02425 0.03581
v -0.00230 0.02425 0.02657
v 0.01848 0.03581 0.03581
v 0.02540 0.01732 0.04505
v 0.01848 0.03581 0.02657
v -0.01616 -0.01733 0.03350
v 0.03003 0.02425 0.04043
v -0.02541 0.01501 0.04043
v 0.01848 -0.01733 0.03350
v 0.00693 0.02657 0.04274
v 0.03696 0.03118 0.03350
v 0.03465 -0.01501 0.02888
v -0.02079 0.01501 0.04274
v 0.02309 0.01270 0.04505
v -0.00693 0.02657 0.02888
v -0.02079 -0.01501 0.03812
v 0.01154 -0.01270 0.02657
v -0.01154 -0.01733 0.03812
v -0.02310 -0.01040 0.03350
v 0.03003 0.01963 0.04274
v 0.00923 -0.01733 0.02888
v -0.01385 0.02888 0.03812
f 33 23 56 
f 2 3 10 
f 11 7 12 
f 5 8 14 
f 7 11 16 
f 8 5 18 
f 14 8 21 
f 11 6 22 
f 16 11 22 
f 16 1 25 
f 7 16 25 
f 5 14 26 
f 17 5 26 
f 25 1 27 
f 10 23 28 
f 2 10 29 
f 6 11 29 
f 22 6 30 
f 9 15 31 
f 2 29 32 
f 29 11 32 
f 18 5 33 
f 9 18 33 
f 5 28 33 
f 28 23 33 
f 21 8 34 
f 8 24 34 
f 10 28 35 
f 29 10 35 
f 6 29 35 
f 30 6 35 
f 17 30 35 
f 26 13 36 
f 17 26 36 
f 30 17 36 
f 10 3 37 
f 9 23 37 
f 23 10 37 
f 4 20 38 
f 34 4 38 
f 21 34 38 
f 1 16 39 
f 26 14 39 
f 13 26 39 
f 27 1 39 
f 14 27 39 
f 7 25 40 
f 25 20 40 
f 12 7 41 
f 15 41 42 
f 19 15 42 
f 7 40 42 
f 41 7 42 
f 20 25 43 
f 27 21 43 
f 25 27 43 
f 38 20 43 
f 21 38 43 
f 11 12 44 
f 12 15 44 
f 32 11 44 
f 14 21 45 
f 27 14 45 
f 21 27 45 
f 9 8 46 
f 8 18 46 
f 18 9 46 
f 5 17 47 
f 28 5 47 
f 17 35 47 
f 35 28 47 
f 19 4 48 
f 15 19 48 
f 31 15 48 
f 4 34 48 
f 34 24 48 
f 15 12 49 
f 12 41 49 
f 41 15 49 
f 16 22 50 
f 39 16 50 
f 13 39 50 
f 22 30 51 
f 36 13 51 
f 30 36 51 
f 50 22 51 
f 13 50 51 
f 15 9 52 
f 37 3 52 
f 9 37 52 
f 4 19 53 
f 20 4 53 
f 40 20 53 
f 19 42 53 
f 42 40 53 
f 8 9 54 
f 24 8 54 
f 9 31 54 
f 31 48 54 
f 48 24 54 
f 3 2 55 
f 2 32 55 
f 44 15 55 
f 32 44 55 
f 52 3 55 
f 15 52 55 
f 23 9 56 
f 9 33 56 
