# Original object name hint: convex_7
v 0.02771 -0.06122 0.01271
v -0.03464 -0.05891 -0.04274
v -0.03464 -0.05660 -0.04274
v -0.04850 -0.05429 0.00808
v -0.00232 -0.04274 -0.01501
v 0.03233 -0.06122 -0.03811
v -0.03695 -0.06353 0.00577
v -0.03233 -0.04274 0.00808
v -0.05544 -0.04968 -0.03580
v 0.01154 -0.05429 -0.04274
v 0.02541 -0.06353 -0.04042
v -0.02772 -0.06353 -0.03811
v 0.03464 -0.05891 0.00346
v -0.01154 -0.04274 0.00808
v -0.04850 -0.05891 -0.03811
v 0.03233 -0.06353 0.00577
v 0.03233 -0.05660 -0.03580
v -0.02309 -0.04274 -0.01732
v -0.04850 -0.05891 0.00577
v -0.03464 -0.06122 0.01039
v -0.02540 -0.04274 0.01039
v 0.03696 -0.06353 -0.03118
v 0.00461 -0.05199 -0.04042
v -0.05082 -0.04968 -0.00578
v 0.02309 -0.06353 0.01271
v -0.00232 -0.04274 -0.00809
v 0.02771 -0.05891 0.01271
v 0.01386 -0.05199 -0.03811
v 0.02078 -0.06122 -0.04274
v 0.03696 -0.05891 -0.03349
v -0.05544 -0.05199 -0.03349
v -0.02772 -0.06122 -0.04274
v -0.00463 -0.04274 -0.01732
v -0.04850 -0.05199 0.00808
v 0.02771 -0.05660 -0.04042
v 0.03233 -0.05660 -0.02425
v -0.01617 -0.05429 -0.04274
v -0.03695 -0.05429 0.01039
v 0.03233 -0.05891 0.00808
v -0.03464 -0.06353 0.00808
v -0.03695 -0.06353 -0.00116
v -0.04388 -0.06122 0.00577
v 0.02078 -0.05891 0.01271
v -0.02309 -0.06353 -0.04042
v -0.01847 -0.04274 0.01039
v -0.02540 -0.04274 -0.01501
v 0.02541 -0.05429 -0.03580
v -0.05082 -0.05660 -0.00347
v -0.03002 -0.06353 -0.03349
v 0.03464 -0.06122 0.00346
v 0.03696 -0.05891 -0.02425
v -0.05082 -0.05199 -0.03811
v -0.04619 -0.05891 0.00808
v -0.05544 -0.04968 -0.03349
v -0.04388 -0.05891 -0.04042
v -0.04388 -0.04968 -0.03580
v 0.07162 0.00348 -0.04042
v 0.06931 0.03119 0.03350
v 0.06700 0.03119 0.03350
v 0.06931 -0.03580 0.00346
v 0.05545 0.02887 -0.03118
v 0.05545 -0.02656 -0.00348
v 0.07393 0.05429 -0.01270
v 0.05545 0.02656 0.03118
v 0.06007 -0.02888 -0.03580
v 0.07393 -0.02425 0.01501
v 0.06469 0.05659 -0.02887
v 0.06007 -0.01731 0.02425
v 0.06700 0.05891 0.00114
v 0.06931 -0.03119 -0.03349
v 0.07393 0.01040 0.03118
v 0.07393 0.01963 -0.03811
v 0.06469 0.01963 -0.04273
v 0.05545 0.00348 0.03118
v 0.07393 0.04967 0.01039
v 0.06238 -0.03812 -0.00808
v 0.07393 -0.02656 -0.00348
v 0.06931 0.05198 -0.03349
v 0.05776 -0.03119 -0.03118
v 0.07162 0.00809 0.03350
v 0.05545 0.03349 -0.01963
v 0.05776 0.01963 -0.03811
v 0.05776 -0.02888 0.00808
v 0.06238 -0.01731 -0.04042
v 0.06469 0.05659 -0.00116
v 0.06700 -0.01964 0.02425
v 0.07393 0.02887 0.03118
v 0.06238 0.04274 -0.03580
v 0.06700 -0.03580 -0.02887
v 0.07162 -0.02425 -0.02887
v 0.06238 -0.03350 0.00808
v 0.07162 0.05891 -0.01039
v 0.07393 0.03810 -0.03349
v 0.06931 -0.00114 -0.04273
v 0.05545 0.01963 -0.03349
v 0.06931 0.01963 -0.04273
v 0.05545 -0.02656 -0.01270
v 0.07162 -0.02656 0.01731
v 0.06007 0.01270 0.03350
v 0.07162 -0.03350 -0.00577
v 0.07162 0.05891 0.00114
v 0.05776 0.00578 -0.03811
v 0.06007 -0.03580 -0.02656
v 0.06700 -0.03119 -0.03580
v 0.06238 0.05198 -0.02887
v 0.07393 0.01040 -0.03580
v 0.06931 0.05659 -0.02887
v 0.06700 -0.03812 -0.01270
v 0.05776 -0.02888 -0.03349
v 0.06007 -0.03580 -0.00348
v 0.07162 0.03580 0.02887
v 0.06238 -0.02888 0.01501
v 0.05776 -0.02425 0.01501
v 0.07162 -0.01964 0.02194
v 0.06931 -0.02195 -0.03811
v 0.05776 0.03119 -0.03580
v 0.06700 0.03580 0.02887
v 0.06469 -0.00114 -0.04273
v 0.07162 0.03349 -0.03811
v 0.06238 -0.01964 0.02425
v -0.07162 -0.01732 -0.03580
v -0.05776 0.02657 0.01270
v -0.05776 0.02888 0.01039
v -0.05776 -0.03119 -0.03580
v -0.06238 0.06120 -0.03580
v -0.07393 0.00578 0.00808
v -0.05776 -0.02887 0.00808
v -0.07162 0.05429 -0.01732
v -0.06931 -0.03348 -0.01040
v -0.06931 0.05429 0.00577
v -0.06931 0.03117 -0.04505
v -0.06931 -0.01963 0.01270
v -0.06007 0.06120 -0.03349
v -0.06469 -0.03812 -0.03580
v -0.07393 0.02424 -0.02194
v -0.06238 0.05429 0.00577
v -0.06469 -0.00346 -0.04505
v -0.06931 0.06120 -0.03580
v -0.05776 0.03580 -0.01963
v -0.06931 0.01963 0.01270
v -0.07393 0.02888 0.00577
v -0.07162 -0.02657 -0.03118
v -0.06469 0.03117 -0.04505
v -0.06007 -0.03812 -0.01963
v -0.06931 -0.01732 -0.04273
v -0.07162 0.03348 -0.04042
v -0.05776 -0.02194 0.01270
v -0.06700 0.06353 -0.02656
v -0.07162 -0.01963 0.00577
v -0.05776 -0.00346 -0.03580
v -0.06700 -0.02887 0.00808
v -0.07162 0.05429 -0.03118
v -0.06238 -0.01963 -0.04273
v -0.06931 -0.03580 -0.03349
v -0.07393 0.00348 -0.01502
v -0.07162 -0.00116 -0.04042
v -0.06700 -0.03812 -0.02194
v -0.06007 0.00117 -0.04042
v -0.07162 -0.02657 -0.01272
v -0.06007 -0.03812 -0.03580
v -0.06007 0.06120 -0.02887
v -0.06931 0.04735 0.00808
v -0.06931 -0.00346 -0.04505
v -0.06238 0.06353 -0.02656
v -0.05776 -0.03348 -0.01040
v -0.07162 0.02888 0.01039
v -0.06469 -0.03580 -0.03811
v -0.06469 -0.03580 -0.01040
v -0.06931 0.05660 -0.03811
v -0.06931 0.06120 -0.02425
v -0.07393 0.01271 -0.02194
v -0.06931 -0.03119 -0.03811
v -0.07162 0.04735 0.00115
v -0.06931 -0.02657 0.00808
v -0.06700 0.02657 0.01270
v -0.06007 0.04735 -0.03580
v -0.05776 0.03812 -0.01272
v -0.07393 0.02888 -0.01732
v -0.06238 0.06353 -0.03349
v -0.06700 -0.02657 0.01039
v -0.06238 0.02424 -0.04273
v -0.07393 0.00348 0.00577
v -0.07162 0.04735 -0.03580
v -0.06007 -0.02194 -0.04042
v 0.05545 0.02426 -0.01271
v 0.03928 0.01502 -0.01733
v 0.04159 0.01271 -0.01502
v 0.05545 0.01964 -0.02195
v 0.03928 0.02657 -0.01733
v 0.05083 0.01271 -0.01040
v 0.03928 0.02194 -0.01040
v 0.05314 0.02888 -0.02195
v 0.05545 0.02888 -0.01502
v 0.05545 0.01502 -0.01964
v 0.03928 0.01502 -0.01040
v 0.05083 0.02426 -0.01040
v 0.03928 0.02657 -0.01271
v 0.05545 0.01502 -0.01271
v 0.05545 0.02888 -0.02195
v 0.05314 0.01964 -0.02195
v 0.05545 -0.00578 0.00578
v 0.04159 0.02656 0.03350
v 0.03928 0.02656 0.03350
v 0.03928 0.02888 0.00578
v 0.05545 0.03119 0.01040
v 0.03928 -0.00578 0.01733
v 0.05545 0.00578 0.03119
v 0.05545 0.02656 0.03119
v 0.03928 0.01040 0.03350
v 0.03928 0.00116 0.00809
v 0.03928 0.03119 0.03119
v 0.05545 -0.00809 0.01502
v 0.05545 0.02425 0.00578
v 0.03928 0.03119 0.00809
v 0.05083 -0.00809 0.00809
v 0.03928 0.01040 0.00578
v 0.03928 0.00578 0.03119
v 0.04621 0.03119 0.02888
v 0.03928 -0.00578 0.01271
v 0.04390 0.01270 0.03350
v 0.05545 0.03119 0.01502
v 0.05314 -0.00578 0.00578
v 0.04621 0.00347 0.02888
v 0.05083 0.02888 0.03119
v 0.04390 0.02888 0.00578
v 0.00693 0.03119 -0.02888
v -0.04389 -0.01732 -0.03350
v -0.04158 -0.01964 -0.03119
v 0.01154 -0.04042 -0.03812
v -0.01617 0.03811 -0.03581
v 0.00230 -0.02426 -0.02657
v -0.03465 0.03811 -0.02657
v 0.00461 0.02656 -0.03812
v -0.04158 -0.01732 -0.02657
v 0.00693 0.01501 -0.02426
v -0.00463 0.04736 -0.02888
v 0.01154 -0.04042 -0.03119
v -0.03465 0.04273 -0.03119
v -0.00001 -0.04042 -0.03812
v 0.01386 -0.02655 -0.03812
v -0.00232 -0.03812 -0.02888
v -0.00463 -0.00115 -0.02426
v 0.00461 0.03811 -0.03581
v -0.00001 0.02656 -0.03812
v 0.01386 -0.02655 -0.03119
v -0.04389 -0.00808 -0.03350
v -0.01847 0.04504 -0.03350
v -0.04389 -0.00808 -0.02888
v 0.00693 0.00117 -0.02426
v -0.00232 -0.04042 -0.03119
v -0.01156 0.04043 -0.02657
v -0.00694 0.01501 -0.02426
v 0.00693 0.03348 -0.03581
v -0.01847 -0.02426 -0.02657
v -0.01617 0.04736 -0.02888
v 0.00693 -0.03812 -0.02888
v 0.01386 -0.03580 -0.03119
v -0.00001 0.04043 -0.03581
v -0.00463 0.04736 -0.03119
v -0.01847 0.03348 -0.03581
v -0.03465 0.04273 -0.02888
v -0.00232 -0.00346 -0.02426
v -0.00232 -0.04042 -0.03581
v -0.04158 -0.01964 -0.02888
v -0.04158 -0.01040 -0.02657
v 0.00461 0.03811 -0.03119
v -0.00463 0.01733 -0.02426
v 0.01386 -0.03812 -0.03581
v -0.00463 0.03811 -0.02657
v 0.00461 0.02887 -0.02657
v -0.01617 0.04736 -0.03119
v -0.04389 -0.01732 -0.02888
v -0.03696 -0.01964 -0.02657
v 0.00692 0.06122 -0.01270
v -0.05776 -0.02425 -0.01502
v -0.04619 -0.03811 -0.01502
v -0.01154 0.04504 0.00116
v 0.03695 -0.02656 -0.00809
v 0.00923 0.00347 -0.02426
v -0.04619 0.04504 -0.01733
v -0.04619 -0.01963 -0.00347
v 0.03927 0.02656 -0.01502
v 0.00461 0.06122 -0.02195
v -0.00925 -0.03811 -0.00347
v -0.00232 -0.04042 -0.01963
v -0.05776 -0.01963 -0.01963
v -0.05776 0.01963 -0.01040
v -0.00232 0.04965 0.00116
v -0.02540 0.04734 -0.02195
v 0.03233 -0.02193 -0.01502
v 0.03464 0.01501 -0.00578
v -0.04619 0.04504 -0.01040
v 0.03464 -0.02425 -0.00578
v -0.05776 -0.01963 -0.00578
v 0.03927 0.02656 -0.01733
v -0.00232 -0.01269 -0.00116
v -0.02309 -0.04274 -0.00578
v -0.00232 0.06122 -0.00809
v -0.00463 0.00117 -0.02426
v -0.05776 0.00579 -0.01963
v -0.00001 -0.04274 -0.00809
v 0.00461 0.05890 -0.00578
v -0.02079 -0.04042 -0.01963
v 0.00923 0.02425 -0.02426
v -0.01154 0.04965 0.00116
v -0.05776 -0.00808 -0.00578
v -0.04619 0.03811 -0.00809
v -0.00001 -0.04274 -0.01733
v -0.00463 0.06122 -0.01963
v 0.03927 0.01501 -0.01733
v -0.04619 -0.03811 -0.01040
v -0.03003 -0.04274 -0.01502
v 0.03927 0.01963 -0.01040
v -0.01154 -0.01269 -0.00116
v 0.02540 -0.02193 -0.01733
v 0.00692 -0.00115 -0.00116
v -0.02540 0.05428 -0.01040
v -0.00463 0.01963 -0.02426
v -0.02079 -0.03811 -0.00347
v -0.05776 0.01963 -0.01733
v 0.03695 -0.02656 -0.01040
v 0.00230 -0.03811 -0.01963
v -0.00463 -0.04274 -0.00578
v -0.00001 0.06122 -0.02195
v -0.00232 -0.00115 -0.02426
v -0.04388 0.04734 -0.01502
v -0.00232 0.04273 0.00116
v -0.04851 0.04273 -0.01502
v 0.00230 -0.04274 -0.01040
v 0.00692 0.06122 -0.01733
v -0.02771 0.05197 -0.00809
v -0.00232 0.02425 -0.02426
v -0.03927 0.04273 -0.01963
v 0.03464 0.02193 -0.00809
v -0.05776 -0.02425 -0.01040
v -0.04619 -0.01039 -0.00347
v 0.00461 0.06122 -0.00809
v 0.03927 0.02425 0.01963
v -0.05776 -0.02887 0.00578
v -0.05776 -0.02887 0.00809
v -0.04157 0.06122 0.00578
v 0.03464 -0.01732 0.00578
v -0.00694 -0.00345 0.02195
v 0.00461 0.04965 0.00116
v -0.00925 -0.04274 0.00347
v -0.05776 0.02887 0.01270
v 0.01385 -0.01269 0.02195
v -0.05776 0.00809 0.00347
v 0.03927 0.02887 0.00578
v 0.00230 0.06122 0.00809
v 0.00923 0.03117 0.01963
v -0.02771 -0.04274 0.01040
v 0.03464 -0.01501 0.01732
v -0.05776 -0.02193 0.01270
v -0.04851 -0.03811 0.00347
v -0.00694 0.00579 0.00116
v -0.02079 0.04734 0.00116
v -0.04157 0.06122 0.00809
v -0.00232 0.01501 0.02195
v 0.00230 0.06122 0.00347
v 0.03927 -0.00808 0.01732
v 0.03927 0.03117 0.01732
v -0.00925 -0.04274 0.00809
v 0.00923 0.03811 0.00116
v 0.01616 -0.01732 0.00347
v -0.04851 0.04041 0.00347
v 0.03464 -0.01963 0.01270
v -0.04851 -0.04042 0.00809
v -0.05776 0.02887 0.00578
v -0.05776 -0.02656 0.00347
v 0.03927 0.00809 0.00578
v 0.03927 0.00347 0.01963
v 0.01616 0.01269 0.02195
v -0.01847 -0.04274 0.01040
v -0.03233 -0.04274 0.00347
v 0.02771 0.02425 0.00347
v 0.03927 0.03117 0.00809
v 0.01154 -0.01269 0.02195
v -0.00694 0.01039 0.02195
v 0.03003 -0.02193 0.00578
v -0.02540 0.05890 0.00347
v 0.03695 -0.01732 0.01040
v -0.01154 0.00809 0.00116
v 0.03233 -0.01963 0.01501
v -0.05776 0.03117 0.00809
v -0.04619 -0.03580 0.01040
v -0.01847 0.04965 0.00116
v 0.01154 0.03117 0.01963
v -0.05082 0.03349 0.01270
v 0.00230 0.02887 0.01963
v -0.00463 -0.00577 0.02195
v -0.05312 -0.02425 0.01270
v 0.03927 -0.00808 0.01270
v 0.02771 0.02887 0.00347
v -0.02079 0.04041 0.00116
v -0.04851 -0.04042 0.00578
v -0.02541 -0.00809 0.03581
v 0.02309 0.03581 0.03350
v 0.02309 0.03581 0.02888
v 0.03465 -0.01501 0.03119
v 0.02771 0.01270 0.04505
v -0.02310 0.02425 0.04043
v 0.00923 0.01270 0.02195
v 0.03926 0.02425 0.02195
v -0.01616 -0.01733 0.03812
v 0.01617 -0.01501 0.02657
v 0.00232 0.03581 0.02888
v -0.02541 0.01501 0.03350
v 0.03926 0.02888 0.03350
v -0.02079 0.01039 0.04274
v 0.03926 0.00809 0.02195
v -0.00924 0.02657 0.04274
v -0.02079 -0.01501 0.03350
v 0.03926 0.00578 0.03350
v 0.01154 0.03118 0.02426
v 0.03234 -0.01501 0.03350
v 0.00923 0.00578 0.02195
v 0.01848 0.02425 0.04274
v -0.02541 -0.00577 0.04043
v 0.00232 0.03581 0.03581
v 0.03003 -0.01501 0.02657
v 0.00001 -0.01501 0.03812
v 0.03926 0.03118 0.02657
v 0.02079 -0.01733 0.02888
v -0.02541 -0.00115 0.03350
v -0.02310 0.02425 0.03581
v -0.00230 0.02425 0.02657
v 0.01848 0.03581 0.03581
v 0.02540 0.01732 0.04505
v 0.01848 0.03581 0.02657
v -0.01616 -0.01733 0.03350
v 0.03003 0.02425 0.04043
v -0.02541 0.01501 0.04043
v 0.01848 -0.01733 0.03350
v 0.00693 0.02657 0.04274
v 0.03696 0.03118 0.03350
v 0.03465 -0.01501 0.02888
v -0.02079 0.01501 0.04274
v 0.02309 0.01270 0.04505
v -0.00693 0.02657 0.02888
v -0.02079 -0.01501 0.03812
v 0.01154 -0.01270 0.02657
v -0.01154 -0.01733 0.03812
v -0.02310 -0.01040 0.03350
v 0.03003 0.01963 0.04274
v 0.00923 -0.01733 0.02888
v -0.01385 0.02888 0.03812
f 375 368 396 
f 339 340 346 
f 339 346 348 
f 346 340 354 
f 343 346 354 
f 344 356 357 
f 350 341 358 
f 351 350 358 
f 343 347 359 
f 349 344 360 
f 341 350 360 
f 349 338 361 
f 338 349 362 
f 360 350 362 
f 352 345 363 
f 356 344 364 
f 356 364 365 
f 342 345 365 
f 345 356 365 
f 357 348 366 
f 361 353 367 
f 363 345 367 
f 340 339 368 
f 354 340 368 
f 348 346 369 
f 341 366 369 
f 366 348 369 
f 339 348 370 
f 355 339 370 
f 348 357 370 
f 349 361 371 
f 347 353 372 
f 361 338 372 
f 353 361 372 
f 359 347 373 
f 372 338 373 
f 347 372 373 
f 347 352 374 
f 353 347 374 
f 352 363 374 
f 345 352 375 
f 356 345 375 
f 355 356 375 
f 352 368 375 
f 365 364 376 
f 342 365 376 
f 349 371 376 
f 371 342 376 
f 349 360 377 
f 362 349 377 
f 360 362 377 
f 347 343 378 
f 352 347 378 
f 346 343 379 
f 343 359 379 
f 359 346 379 
f 345 342 380 
f 367 345 380 
f 341 360 381 
f 361 367 382 
f 342 371 382 
f 380 342 382 
f 367 380 382 
f 356 355 383 
f 357 356 383 
f 355 370 383 
f 367 353 384 
f 363 367 384 
f 353 374 384 
f 374 363 384 
f 358 341 385 
f 346 358 385 
f 341 369 385 
f 369 346 385 
f 368 352 386 
f 354 368 386 
f 352 378 386 
f 344 357 387 
f 360 344 387 
f 366 341 387 
f 357 366 387 
f 341 381 387 
f 381 360 387 
f 350 351 388 
f 351 359 388 
f 338 362 388 
f 362 350 388 
f 373 338 388 
f 359 373 388 
f 358 346 389 
f 359 358 389 
f 346 359 389 
f 351 358 390 
f 359 351 390 
f 358 359 390 
f 343 354 391 
f 378 343 391 
f 378 391 392 
f 354 386 392 
f 386 378 392 
f 391 354 392 
f 371 361 393 
f 361 382 393 
f 382 371 393 
f 344 349 394 
f 364 344 394 
f 349 376 394 
f 376 364 394 
f 370 357 395 
f 357 383 395 
f 383 370 395 
f 339 355 396 
f 368 339 396 
f 355 375 396 
