# Original object name hint: convex_5
v 0.02771 -0.06122 0.01271
v -0.03464 -0.05891 -0.04274
v -0.03464 -0.05660 -0.04274
v -0.04850 -0.05429 0.00808
v -0.00232 -0.04274 -0.01501
v 0.03233 -0.06122 -0.03811
v -0.03695 -0.06353 0.00577
v -0.03233 -0.04274 0.00808
v -0.05544 -0.04968 -0.03580
v 0.01154 -0.05429 -0.04274
v 0.02541 -0.06353 -0.04042
v -0.02772 -0.06353 -0.03811
v 0.03464 -0.05891 0.00346
v -0.01154 -0.04274 0.00808
v -0.04850 -0.05891 -0.03811
v 0.03233 -0.06353 0.00577
v 0.03233 -0.05660 -0.03580
v -0.02309 -0.04274 -0.01732
v -0.04850 -0.05891 0.00577
v -0.03464 -0.06122 0.01039
v -0.02540 -0.04274 0.01039
v 0.03696 -0.06353 -0.03118
v 0.00461 -0.05199 -0.04042
v -0.05082 -0.04968 -0.00578
v 0.02309 -0.06353 0.01271
v -0.00232 -0.04274 -0.00809
v 0.02771 -0.05891 0.01271
v 0.01386 -0.05199 -0.03811
v 0.02078 -0.06122 -0.04274
v 0.03696 -0.05891 -0.03349
v -0.05544 -0.05199 -0.03349
v -0.02772 -0.06122 -0.04274
v -0.00463 -0.04274 -0.01732
v -0.04850 -0.05199 0.00808
v 0.02771 -0.05660 -0.04042
v 0.03233 -0.05660 -0.02425
v -0.01617 -0.05429 -0.04274
v -0.03695 -0.05429 0.01039
v 0.03233 -0.05891 0.00808
v -0.03464 -0.06353 0.00808
v -0.03695 -0.06353 -0.00116
v -0.04388 -0.06122 0.00577
v 0.02078 -0.05891 0.01271
v -0.02309 -0.06353 -0.04042
v -0.01847 -0.04274 0.01039
v -0.02540 -0.04274 -0.01501
v 0.02541 -0.05429 -0.03580
v -0.05082 -0.05660 -0.00347
v -0.03002 -0.06353 -0.03349
v 0.03464 -0.06122 0.00346
v 0.03696 -0.05891 -0.02425
v -0.05082 -0.05199 -0.03811
v -0.04619 -0.05891 0.00808
v -0.05544 -0.04968 -0.03349
v -0.04388 -0.05891 -0.04042
v -0.04388 -0.04968 -0.03580
v 0.07162 0.00348 -0.04042
v 0.06931 0.03119 0.03350
v 0.06700 0.03119 0.03350
v 0.06931 -0.03580 0.00346
v 0.05545 0.02887 -0.03118
v 0.05545 -0.02656 -0.00348
v 0.07393 0.05429 -0.01270
v 0.05545 0.02656 0.03118
v 0.06007 -0.02888 -0.03580
v 0.07393 -0.02425 0.01501
v 0.06469 0.05659 -0.02887
v 0.06007 -0.01731 0.02425
v 0.06700 0.05891 0.00114
v 0.06931 -0.03119 -0.03349
v 0.07393 0.01040 0.03118
v 0.07393 0.01963 -0.03811
v 0.06469 0.01963 -0.04273
v 0.05545 0.00348 0.03118
v 0.07393 0.04967 0.01039
v 0.06238 -0.03812 -0.00808
v 0.07393 -0.02656 -0.00348
v 0.06931 0.05198 -0.03349
v 0.05776 -0.03119 -0.03118
v 0.07162 0.00809 0.03350
v 0.05545 0.03349 -0.01963
v 0.05776 0.01963 -0.03811
v 0.05776 -0.02888 0.00808
v 0.06238 -0.01731 -0.04042
v 0.06469 0.05659 -0.00116
v 0.06700 -0.01964 0.02425
v 0.07393 0.02887 0.03118
v 0.06238 0.04274 -0.03580
v 0.06700 -0.03580 -0.02887
v 0.07162 -0.02425 -0.02887
v 0.06238 -0.03350 0.00808
v 0.07162 0.05891 -0.01039
v 0.07393 0.03810 -0.03349
v 0.06931 -0.00114 -0.04273
v 0.05545 0.01963 -0.03349
v 0.06931 0.01963 -0.04273
v 0.05545 -0.02656 -0.01270
v 0.07162 -0.02656 0.01731
v 0.06007 0.01270 0.03350
v 0.07162 -0.03350 -0.00577
v 0.07162 0.05891 0.00114
v 0.05776 0.00578 -0.03811
v 0.06007 -0.03580 -0.02656
v 0.06700 -0.03119 -0.03580
v 0.06238 0.05198 -0.02887
v 0.07393 0.01040 -0.03580
v 0.06931 0.05659 -0.02887
v 0.06700 -0.03812 -0.01270
v 0.05776 -0.02888 -0.03349
v 0.06007 -0.03580 -0.00348
v 0.07162 0.03580 0.02887
v 0.06238 -0.02888 0.01501
v 0.05776 -0.02425 0.01501
v 0.07162 -0.01964 0.02194
v 0.06931 -0.02195 -0.03811
v 0.05776 0.03119 -0.03580
v 0.06700 0.03580 0.02887
v 0.06469 -0.00114 -0.04273
v 0.07162 0.03349 -0.03811
v 0.06238 -0.01964 0.02425
v -0.07162 -0.01732 -0.03580
v -0.05776 0.02657 0.01270
v -0.05776 0.02888 0.01039
v -0.05776 -0.03119 -0.03580
v -0.06238 0.06120 -0.03580
v -0.07393 0.00578 0.00808
v -0.05776 -0.02887 0.00808
v -0.07162 0.05429 -0.01732
v -0.06931 -0.03348 -0.01040
v -0.06931 0.05429 0.00577
v -0.06931 0.03117 -0.04505
v -0.06931 -0.01963 0.01270
v -0.06007 0.06120 -0.03349
v -0.06469 -0.03812 -0.03580
v -0.07393 0.02424 -0.02194
v -0.06238 0.05429 0.00577
v -0.06469 -0.00346 -0.04505
v -0.06931 0.06120 -0.03580
v -0.05776 0.03580 -0.01963
v -0.06931 0.01963 0.01270
v -0.07393 0.02888 0.00577
v -0.07162 -0.02657 -0.03118
v -0.06469 0.03117 -0.04505
v -0.06007 -0.03812 -0.01963
v -0.06931 -0.01732 -0.04273
v -0.07162 0.03348 -0.04042
v -0.05776 -0.02194 0.01270
v -0.06700 0.06353 -0.02656
v -0.07162 -0.01963 0.00577
v -0.05776 -0.00346 -0.03580
v -0.06700 -0.02887 0.00808
v -0.07162 0.05429 -0.03118
v -0.06238 -0.01963 -0.04273
v -0.06931 -0.03580 -0.03349
v -0.07393 0.00348 -0.01502
v -0.07162 -0.00116 -0.04042
v -0.06700 -0.03812 -0.02194
v -0.06007 0.00117 -0.04042
v -0.07162 -0.02657 -0.01272
v -0.06007 -0.03812 -0.03580
v -0.06007 0.06120 -0.02887
v -0.06931 0.04735 0.00808
v -0.06931 -0.00346 -0.04505
v -0.06238 0.06353 -0.02656
v -0.05776 -0.03348 -0.01040
v -0.07162 0.02888 0.01039
v -0.06469 -0.03580 -0.03811
v -0.06469 -0.03580 -0.01040
v -0.06931 0.05660 -0.03811
v -0.06931 0.06120 -0.02425
v -0.07393 0.01271 -0.02194
v -0.06931 -0.03119 -0.03811
v -0.07162 0.04735 0.00115
v -0.06931 -0.02657 0.00808
v -0.06700 0.02657 0.01270
v -0.06007 0.04735 -0.03580
v -0.05776 0.03812 -0.01272
v -0.07393 0.02888 -0.01732
v -0.06238 0.06353 -0.03349
v -0.06700 -0.02657 0.01039
v -0.06238 0.02424 -0.04273
v -0.07393 0.00348 0.00577
v -0.07162 0.04735 -0.03580
v -0.06007 -0.02194 -0.04042
v 0.05545 0.02426 -0.01271
v 0.03928 0.01502 -0.01733
v 0.04159 0.01271 -0.01502
v 0.05545 0.01964 -0.02195
v 0.03928 0.02657 -0.01733
v 0.05083 0.01271 -0.01040
v 0.03928 0.02194 -0.01040
v 0.05314 0.02888 -0.02195
v 0.05545 0.02888 -0.01502
v 0.05545 0.01502 -0.01964
v 0.03928 0.01502 -0.01040
v 0.05083 0.02426 -0.01040
v 0.03928 0.02657 -0.01271
v 0.05545 0.01502 -0.01271
v 0.05545 0.02888 -0.02195
v 0.05314 0.01964 -0.02195
v 0.05545 -0.00578 0.00578
v 0.04159 0.02656 0.03350
v 0.03928 0.02656 0.03350
v 0.03928 0.02888 0.00578
v 0.05545 0.03119 0.01040
v 0.03928 -0.00578 0.01733
v 0.05545 0.00578 0.03119
v 0.05545 0.02656 0.03119
v 0.03928 0.01040 0.03350
v 0.03928 0.00116 0.00809
v 0.03928 0.03119 0.03119
v 0.05545 -0.00809 0.01502
v 0.05545 0.02425 0.00578
v 0.03928 0.03119 0.00809
v 0.05083 -0.00809 0.00809
v 0.03928 0.01040 0.00578
v 0.03928 0.00578 0.03119
v 0.04621 0.03119 0.02888
v 0.03928 -0.00578 0.01271
v 0.04390 0.01270 0.03350
v 0.05545 0.03119 0.01502
v 0.05314 -0.00578 0.00578
v 0.04621 0.00347 0.02888
v 0.05083 0.02888 0.03119
v 0.04390 0.02888 0.00578
v 0.00693 0.03119 -0.02888
v -0.04389 -0.01732 -0.03350
v -0.04158 -0.01964 -0.03119
v 0.01154 -0.04042 -0.03812
v -0.01617 0.03811 -0.03581
v 0.00230 -0.02426 -0.02657
v -0.03465 0.03811 -0.02657
v 0.00461 0.02656 -0.03812
v -0.04158 -0.01732 -0.02657
v 0.00693 0.01501 -0.02426
v -0.00463 0.04736 -0.02888
v 0.01154 -0.04042 -0.03119
v -0.03465 0.04273 -0.03119
v -0.00001 -0.04042 -0.03812
v 0.01386 -0.02655 -0.03812
v -0.00232 -0.03812 -0.02888
v -0.00463 -0.00115 -0.02426
v 0.00461 0.03811 -0.03581
v -0.00001 0.02656 -0.03812
v 0.01386 -0.02655 -0.03119
v -0.04389 -0.00808 -0.03350
v -0.01847 0.04504 -0.03350
v -0.04389 -0.00808 -0.02888
v 0.00693 0.00117 -0.02426
v -0.00232 -0.04042 -0.03119
v -0.01156 0.04043 -0.02657
v -0.00694 0.01501 -0.02426
v 0.00693 0.03348 -0.03581
v -0.01847 -0.02426 -0.02657
v -0.01617 0.04736 -0.02888
v 0.00693 -0.03812 -0.02888
v 0.01386 -0.03580 -0.03119
v -0.00001 0.04043 -0.03581
v -0.00463 0.04736 -0.03119
v -0.01847 0.03348 -0.03581
v -0.03465 0.04273 -0.02888
v -0.00232 -0.00346 -0.02426
v -0.00232 -0.04042 -0.03581
v -0.04158 -0.01964 -0.02888
v -0.04158 -0.01040 -0.02657
v 0.00461 0.03811 -0.03119
v -0.00463 0.01733 -0.02426
v 0.01386 -0.03812 -0.03581
v -0.00463 0.03811 -0.02657
v 0.00461 0.02887 -0.02657
v -0.01617 0.04736 -0.03119
v -0.04389 -0.01732 -0.02888
v -0.03696 -0.01964 -0.02657
v 0.00692 0.06122 -0.01270
v -0.05776 -0.02425 -0.01502
v -0.04619 -0.03811 -0.01502
v -0.01154 0.04504 0.00116
v 0.03695 -0.02656 -0.00809
v 0.00923 0.00347 -0.02426
v -0.04619 0.04504 -0.01733
v -0.04619 -0.01963 -0.00347
v 0.03927 0.02656 -0.01502
v 0.00461 0.06122 -0.02195
v -0.00925 -0.03811 -0.00347
v -0.00232 -0.04042 -0.01963
v -0.05776 -0.01963 -0.01963
v -0.05776 0.01963 -0.01040
v -0.00232 0.04965 0.00116
v -0.02540 0.04734 -0.02195
v 0.03233 -0.02193 -0.01502
v 0.03464 0.01501 -0.00578
v -0.04619 0.04504 -0.01040
v 0.03464 -0.02425 -0.00578
v -0.05776 -0.01963 -0.00578
v 0.03927 0.02656 -0.01733
v -0.00232 -0.01269 -0.00116
v -0.02309 -0.04274 -0.00578
v -0.00232 0.06122 -0.00809
v -0.00463 0.00117 -0.02426
v -0.05776 0.00579 -0.01963
v -0.00001 -0.04274 -0.00809
v 0.00461 0.05890 -0.00578
v -0.02079 -0.04042 -0.01963
v 0.00923 0.02425 -0.02426
v -0.01154 0.04965 0.00116
v -0.05776 -0.00808 -0.00578
v -0.04619 0.03811 -0.00809
v -0.00001 -0.04274 -0.01733
v -0.00463 0.06122 -0.01963
v 0.03927 0.01501 -0.01733
v -0.04619 -0.03811 -0.01040
v -0.03003 -0.04274 -0.01502
v 0.03927 0.01963 -0.01040
v -0.01154 -0.01269 -0.00116
v 0.02540 -0.02193 -0.01733
v 0.00692 -0.00115 -0.00116
v -0.02540 0.05428 -0.01040
v -0.00463 0.01963 -0.02426
v -0.02079 -0.03811 -0.00347
v -0.05776 0.01963 -0.01733
v 0.03695 -0.02656 -0.01040
v 0.00230 -0.03811 -0.01963
v -0.00463 -0.04274 -0.00578
v -0.00001 0.06122 -0.02195
v -0.00232 -0.00115 -0.02426
v -0.04388 0.04734 -0.01502
v -0.00232 0.04273 0.00116
v -0.04851 0.04273 -0.01502
v 0.00230 -0.04274 -0.01040
v 0.00692 0.06122 -0.01733
v -0.02771 0.05197 -0.00809
v -0.00232 0.02425 -0.02426
v -0.03927 0.04273 -0.01963
v 0.03464 0.02193 -0.00809
v -0.05776 -0.02425 -0.01040
v -0.04619 -0.01039 -0.00347
v 0.00461 0.06122 -0.00809
v 0.03927 0.02425 0.01963
v -0.05776 -0.02887 0.00578
v -0.05776 -0.02887 0.00809
v -0.04157 0.06122 0.00578
v 0.03464 -0.01732 0.00578
v -0.00694 -0.00345 0.02195
v 0.00461 0.04965 0.00116
v -0.00925 -0.04274 0.00347
v -0.05776 0.02887 0.01270
v 0.01385 -0.01269 0.02195
v -0.05776 0.00809 0.00347
v 0.03927 0.02887 0.00578
v 0.00230 0.06122 0.00809
v 0.00923 0.03117 0.01963
v -0.02771 -0.04274 0.01040
v 0.03464 -0.01501 0.01732
v -0.05776 -0.02193 0.01270
v -0.04851 -0.03811 0.00347
v -0.00694 0.00579 0.00116
v -0.02079 0.04734 0.00116
v -0.04157 0.06122 0.00809
v -0.00232 0.01501 0.02195
v 0.00230 0.06122 0.00347
v 0.03927 -0.00808 0.01732
v 0.03927 0.03117 0.01732
v -0.00925 -0.04274 0.00809
v 0.00923 0.03811 0.00116
v 0.01616 -0.01732 0.00347
v -0.04851 0.04041 0.00347
v 0.03464 -0.01963 0.01270
v -0.04851 -0.04042 0.00809
v -0.05776 0.02887 0.00578
v -0.05776 -0.02656 0.00347
v 0.03927 0.00809 0.00578
v 0.03927 0.00347 0.01963
v 0.01616 0.01269 0.02195
v -0.01847 -0.04274 0.01040
v -0.03233 -0.04274 0.00347
v 0.02771 0.02425 0.00347
v 0.03927 0.03117 0.00809
v 0.01154 -0.01269 0.02195
v -0.00694 0.01039 0.02195
v 0.03003 -0.02193 0.00578
v -0.02540 0.05890 0.00347
v 0.03695 -0.01732 0.01040
v -0.01154 0.00809 0.00116
v 0.03233 -0.01963 0.01501
v -0.05776 0.03117 0.00809
v -0.04619 -0.03580 0.01040
v -0.01847 0.04965 0.00116
v 0.01154 0.03117 0.01963
v -0.05082 0.03349 0.01270
v 0.00230 0.02887 0.01963
v -0.00463 -0.00577 0.02195
v -0.05312 -0.02425 0.01270
v 0.03927 -0.00808 0.01270
v 0.02771 0.02887 0.00347
v -0.02079 0.04041 0.00116
v -0.04851 -0.04042 0.00578
v -0.02541 -0.00809 0.03581
v 0.02309 0.03581 0.03350
v 0.02309 0.03581 0.02888
v 0.03465 -0.01501 0.03119
v 0.02771 0.01270 0.04505
v -0.02310 0.02425 0.04043
v 0.00923 0.01270 0.02195
v 0.03926 0.02425 0.02195
v -0.01616 -0.01733 0.03812
v 0.01617 -0.01501 0.02657
v 0.00232 0.03581 0.02888
v -0.02541 0.01501 0.03350
v 0.03926 0.02888 0.03350
v -0.02079 0.01039 0.04274
v 0.03926 0.00809 0.02195
v -0.00924 0.02657 0.04274
v -0.02079 -0.01501 0.03350
v 0.03926 0.00578 0.03350
v 0.01154 0.03118 0.02426
v 0.03234 -0.01501 0.03350
v 0.00923 0.00578 0.02195
v 0.01848 0.02425 0.04274
v -0.02541 -0.00577 0.04043
v 0.00232 0.03581 0.03581
v 0.03003 -0.01501 0.02657
v 0.00001 -0.01501 0.03812
v 0.03926 0.03118 0.02657
v 0.02079 -0.01733 0.02888
v -0.02541 -0.00115 0.03350
v -0.02310 0.02425 0.03581
v -0.00230 0.02425 0.02657
v 0.01848 0.03581 0.03581
v 0.02540 0.01732 0.04505
v 0.01848 0.03581 0.02657
v -0.01616 -0.01733 0.03350
v 0.03003 0.02425 0.04043
v -0.02541 0.01501 0.04043
v 0.01848 -0.01733 0.03350
v 0.00693 0.02657 0.04274
v 0.03696 0.03118 0.03350
v 0.03465 -0.01501 0.02888
v -0.02079 0.01501 0.04274
v 0.02309 0.01270 0.04505
v -0.00693 0.02657 0.02888
v -0.02079 -0.01501 0.03812
v 0.01154 -0.01270 0.02657
v -0.01154 -0.01733 0.03812
v -0.02310 -0.01040 0.03350
v 0.03003 0.01963 0.04274
v 0.00923 -0.01733 0.02888
v -0.01385 0.02888 0.03812
f 264 250 273 
f 233 229 239 
f 229 237 239 
f 229 233 240 
f 239 227 244 
f 233 239 244 
f 226 235 245 
f 244 227 246 
f 230 238 247 
f 246 227 248 
f 238 246 248 
f 235 242 249 
f 245 235 249 
f 239 237 250 
f 237 241 250 
f 234 242 252 
f 242 235 252 
f 240 233 253 
f 233 243 253 
f 226 245 253 
f 245 240 253 
f 241 231 254 
f 232 251 255 
f 251 236 255 
f 231 241 256 
f 241 237 256 
f 249 231 256 
f 249 256 257 
f 240 245 257 
f 245 249 257 
f 256 237 257 
f 243 233 258 
f 244 230 258 
f 233 244 258 
f 230 247 258 
f 258 247 259 
f 236 243 259 
f 255 236 259 
f 243 258 259 
f 238 230 260 
f 230 244 260 
f 246 238 260 
f 244 246 260 
f 248 232 261 
f 238 248 261 
f 232 255 261 
f 255 238 261 
f 242 234 262 
f 231 249 262 
f 249 242 262 
f 254 231 262 
f 228 227 263 
f 227 239 263 
f 250 228 263 
f 239 250 263 
f 227 228 264 
f 228 250 264 
f 248 234 265 
f 232 248 265 
f 252 232 265 
f 234 252 265 
f 236 226 266 
f 243 236 266 
f 253 243 266 
f 226 253 266 
f 251 232 267 
f 235 251 267 
f 232 252 267 
f 252 235 267 
f 237 229 268 
f 229 240 268 
f 257 237 268 
f 240 257 268 
f 251 235 269 
f 236 251 269 
f 235 226 270 
f 226 236 270 
f 269 235 270 
f 236 269 270 
f 247 238 271 
f 238 255 271 
f 259 247 271 
f 255 259 271 
f 248 227 272 
f 234 248 272 
f 227 264 272 
f 264 234 272 
f 250 241 273 
f 241 254 273 
f 262 234 273 
f 254 262 273 
f 234 264 273 
