# Created by Open3D 
# object name: convex_1_coll
# number of vertices: 14
# number of triangles: 24
v 0.06541 0.01602 0.07209
v 0.00734 0.0126825 0.08544
v 0.007345 -0.0046625 0.08544
v -0.022015 0.0186825 0.05874
v 0.04405 0.02135 0.05874
v 0.030685 -0.0113425 0.05874
v -0.0073325 -0.02135 0.0607425
v 0.0163437 0.0273625 0.07409
v 0.009345 -0.022685 0.076095
v 0.045385 -0.0206825 0.068085
v -0.04672 0.01068 0.07209
v -0.040045 -0.02135 0.06942
v -0.045385 0.0073425 0.065415
v -0.0307 0.02135 0.07209
f 1 2 3
f 4 5 6
f 4 6 7
f 1 3 10
f 6 10 7
f 10 3 9
f 3 12 9
f 2 11 3
f 11 12 3
f 11 2 14
f 8 5 4
f 14 8 4
f 7 13 4
f 6 1 10
f 13 7 12
f 9 7 10
f 12 11 13
f 1 5 8
f 1 8 2
f 13 11 14
f 4 13 14
f 1 6 5
f 14 2 8
f 9 12 7
