# Created by Open3D 
# object name: convex_3_coll
# number of vertices: 14
# number of triangles: 24
v -0.06007 -0.02135 0.00801
v -0.06274 -0.02402 -0.05073
v -0.064075 -0.01868 -0.05874
v -0.05473 -0.02135 -0.05874
v -0.05473 0.02402 -0.05874
v -0.06541 0.02402 -0.05874
v -0.06541 -0.0166775 -0.02336
v -0.06541 0.0267 -0.02936
v -0.05473 0.02135 -0.01869
v -0.05473 -0.02402 -0.01869
v -0.06541 0.01868 -0.01335
v -0.0574 -0.00266 0.00801
v -0.0594025 0.0203488 -0.0050125
v -0.0574 0.0267 -0.0267
f 2 3 4
f 3 5 4
f 5 3 6
f 7 8 6
f 4 5 9
f 7 6 3
f 4 9 10
f 8 7 11
f 8 13 14
f 11 1 12
f 8 14 5
f 12 9 13
f 8 5 6
f 11 12 13
f 9 12 10
f 12 1 10
f 10 2 4
f 7 1 11
f 9 14 13
f 5 14 9
f 8 11 13
f 3 2 7
f 2 1 7
f 10 1 2
