# Created by Open3D 
# object name: convex_2_coll
# number of vertices: 14
# number of triangles: 24
v -0.06007 -0.00266 -0.07208
v -0.03337 -0.02402 -0.07208
v -0.03337 0.0267 -0.07476
v -0.03337 0.02402 -0.06408
v -0.064075 0.02536 -0.05874
v -0.06541 -0.01601 -0.05874
v -0.05206 -0.01868 -0.05874
v -0.04939 -0.02402 -0.07208
v -0.03471 -0.02402 -0.065415
v -0.06541 0.02135 -0.06675
v -0.0574 0.0267 -0.07208
v -0.061405 -0.022685 -0.060075
v -0.053395 0.02536 -0.05874
v -0.06007 -0.022685 -0.068085
f 2 3 4
f 5 6 7
f 8 2 9
f 11 1 10
f 8 9 12
f 7 4 13
f 5 7 13
f 3 2 11
f 5 3 11
f 10 6 5
f 7 9 4
f 6 10 1
f 2 4 9
f 11 10 5
f 7 6 12
f 9 7 12
f 14 1 8
f 4 3 13
f 3 5 13
f 2 8 11
f 8 1 11
f 8 12 14
f 6 14 12
f 14 6 1
