# Created by Open3D 
# object name: convex_5_coll
# number of vertices: 14
# number of triangles: 24
v 0.03871 0.008015 0.01334
v 0.02803 0.015345 -0.050725
v 0.00668 -0.02135 -0.06141
v 0.01468 0.02402 -0.06141
v -0.00934 0.02135 -0.06141
v 0.013015 -0.02135 0.0170112
v 0.018685 0.022685 0.02135
v -0.02536 0.01735 0.009335
v 0.025355 -0.022685 -0.046715
v -0.008005 -0.022685 -0.04004
v 0.04004 -0.01601 0.012005
v -0.01334 0.0267 -0.025365
v -0.024025 -0.01868 0.008
v -0.0206875 0.01935 -0.0327025
f 2 3 4
f 4 3 5
f 6 7 8
f 9 6 10
f 8 14 13
f 9 2 11
f 10 13 14
f 2 9 3
f 5 3 10
f 14 5 10
f 6 9 11
f 12 5 14
f 8 13 6
f 6 13 10
f 5 12 4
f 11 2 1
f 1 7 11
f 7 6 11
f 9 10 3
f 8 12 14
f 4 7 2
f 7 1 2
f 12 8 7
f 7 4 12
