# Created by Open3D 
# object name: convex_0_coll
# number of vertices: 14
# number of triangles: 24
v 0.04672 0.01869 0.03204
v 0.01201 0.02403 0.02136
v 0.00134 -0.02136 0.02136
v 0.03871 0.01869 0.02136
v 0.01735 -0.02136 0.05874
v 0.0333675 0.0220275 0.05874
v -0.02536 0.01068 0.05874
v -0.00933 -0.02136 0.05874
v 0.04405 0.00534 0.05874
v -0.01735 0.01869 0.03204
v -0.0193475 0.0193575 0.05807
v -0.01201 -0.01868 0.03204
v 0.0300275 -0.0193525 0.0247025
v 0.04405 -0.01334 0.03204
f 3 2 4
f 5 6 7
f 3 5 8
f 5 7 8
f 6 5 9
f 7 6 11
f 5 3 13
f 6 9 1
f 3 4 13
f 1 9 14
f 12 8 7
f 10 12 7
f 3 12 10
f 3 8 12
f 10 7 11
f 10 11 2
f 5 13 14
f 10 2 3
f 13 4 14
f 11 6 2
f 9 5 14
f 1 14 4
f 1 4 2
f 2 6 1
