# Created by Open3D 
# object name: convex_4_coll
# number of vertices: 14
# number of triangles: 24
v -0.03337 -0.02669 -0.07209
v 0.0060075 -0.0073325 -0.08544
v -0.03337 0.02536 -0.065415
v -0.03337 0.0267 -0.07475
v -0.03337 -0.02669 -0.06675
v -0.00133 0.02135 -0.08544
v 0.01067 -0.02403 -0.06141
v 0.02135 0.020015 -0.06141
v 0.02535 -0.02937 -0.07742
v 0.04138 0.01869 -0.07742
v 0.040045 0.02002 -0.06942
v 0.03871 -0.02135 -0.07742
v 0.00135 0.02937 -0.07209
v 0.03737 -0.02402 -0.06675
f 1 3 4
f 3 1 5
f 7 8 3
f 11 12 10
f 13 8 11
f 8 13 3
f 12 11 14
f 1 9 5
f 4 3 13
f 6 4 13
f 2 1 6
f 1 4 6
f 14 7 5
f 10 2 6
f 9 1 2
f 14 5 9
f 3 5 7
f 11 8 14
f 10 6 13
f 11 10 13
f 2 10 12
f 8 7 14
f 9 12 14
f 9 2 12
