# Created by Open3D 
# object name: convex_3_coll
# number of vertices: 14
# number of triangles: 24
v 0.02711 -0.00938 0.01459
v 0.02711 -0.00938 0.00834
v 0.01668 -0.00938 0.01668
v 0.02294 -0.00938 0.01668
v 0.01668 -0.00938 0.00417
v 0.01668 -0.03232 0.00209
v 0.01668 -0.03232 0.01042
v 0.02711 -0.03232 0.00626
v 0.02502 -0.02815 0
v 0.017725 -0.017725 0.015635
v 0.02502 -0.02815 0.01251
v 0.02502 -0.03232 0
v 0.02711 -0.03023 0.01042
v 0.02085 -0.02815 0
f 3 4 5
f 3 6 7
f 6 8 7
f 5 4 2
f 6 3 5
f 8 2 1
f 3 7 10
f 7 11 10
f 8 6 12
f 8 1 13
f 1 11 13
f 4 3 10
f 9 2 8
f 9 8 12
f 5 9 14
f 12 6 14
f 9 12 14
f 7 8 13
f 11 7 13
f 9 5 2
f 5 14 6
f 11 1 4
f 10 11 4
f 2 4 1
