# Created by Open3D 
# object name: convex_4_coll
# number of vertices: 14
# number of triangles: 24
v 0.01669 0.00938 0.00417
v 0.04587 0.01564 0.01043
v 0.04796 0.00521 0.00834
v 0.04796 0.00938 0.02085
v 0.04796 -0.00938 0.01147
v 0.01669 -0.00938 0.00417
v 0.01669 -0.00834 0.017725
v 0.01669 0.01147 0.01877
v 0.04796 -0.00312 0.02085
v 0.0177325 0.018765 0.0073
v 0.01773 0.018765 0.015635
v 0.04483 0.01564 0.017725
v 0.04796 -0.0073 0.00834
v 0.03336 -0.00312 0.02085
f 1 2 3
f 4 5 3
f 6 7 8
f 5 4 9
f 6 8 1
f 10 11 12
f 4 3 12
f 3 5 13
f 6 5 7
f 3 13 1
f 8 7 14
f 9 4 14
f 1 8 11
f 8 4 11
f 11 4 12
f 1 10 2
f 1 13 6
f 1 11 10
f 6 13 5
f 7 5 9
f 7 9 14
f 10 12 2
f 12 3 2
f 4 8 14
