# Created by Open3D 
# object name: convex_1_coll
# number of vertices: 14
# number of triangles: 24
v -0.06046 -0.03441 0.0073
v -0.06046 -0.02606 0.01251
v 0.01458 -0.00312 0.02085
v 0.00416 0.01772 0.02085
v -0.06673 0.00312 0.00834
v 0.01667 -0.03232 0.00417
v 0.01667 0.0174537 0.0070375
v -0.02294 -0.049 0.00417
v 0.01667 0.01563 0.01772
v -0.06673 0.00312 0.01251
v -0.00627 0.05109 0.006255
v -0.02086 0.05109 0.00834
v -0.01669 0.03858 0.00209
v -0.03231 -0.05109 0.00782
f 6 7 9
f 11 12 4
f 12 10 4
f 7 6 13
f 6 9 3
f 13 5 12
f 5 10 12
f 5 1 10
f 3 2 14
f 6 8 13
f 14 2 1
f 11 9 7
f 1 8 14
f 4 3 9
f 5 13 1
f 11 7 13
f 2 3 4
f 3 14 6
f 8 6 14
f 1 13 8
f 11 4 9
f 13 12 11
f 4 10 2
f 10 1 2
