# Created by Open3D 
# object name: convex_2_coll
# number of vertices: 14
# number of triangles: 24
v 0.03128 0.00313 0.03128
v 0.02919 -0.00104 0.02919
v 0.04796 -0.00104 0.03128
v 0.03441 0.01564 0.030235
v 0.04796 0.00938 0.03128
v 0.04796 0.00938 0.02085
v 0.02919 0.01564 0.03128
v 0.04796 -0.00313 0.02085
v 0.02919 0.01355 0.02503
v 0.03545 0.00938 0.02085
v 0.030235 -0.00104 0.023985
v 0.03754 -0.00313 0.02085
v 0.033365 0.01564 0.02503
v 0.04587 -0.00313 0.02711
f 1 2 3
f 4 5 6
f 6 5 3
f 3 5 7
f 6 3 8
f 7 9 2
f 6 8 10
f 11 10 12
f 10 8 12
f 4 6 13
f 7 4 13
f 8 3 14
f 12 8 14
f 14 2 12
f 12 2 11
f 2 9 11
f 3 7 1
f 7 2 1
f 6 10 13
f 9 7 13
f 10 11 9
f 13 10 9
f 7 5 4
f 2 14 3
