# Created by Open3D 
# object name: convex_0_coll
# number of vertices: 14
# number of triangles: 24
v 0.05005 -0.03857 0.00834
v 0.04796 0.00938 0.03128
v 0.049005 0.019795 -0.0317975
v 0.064905 0.00286375 0.0302325
v 0.06673 0.021365 -0.010945
v 0.05213 -0.03648 -0.034405
v 0.06047 0.04483 0.00208
v 0.0563 0.04483 -0.02919
v 0.06464 0.01979 0.02919
v 0.05838 -0.04273 -0.02919
v 0.06256 0.012505 -0.03649
v 0.06256 -0.04065 -0.001045
v 0.06256 -0.03231 0.01667
v 0.05474 0.0062475 -0.0390975
f 7 8 2
f 3 6 2
f 2 8 3
f 11 8 5
f 12 13 1
f 5 12 10
f 11 5 10
f 7 2 9
f 4 13 12
f 4 5 9
f 14 10 6
f 3 14 6
f 12 1 10
f 1 6 10
f 10 14 11
f 13 2 1
f 8 11 14
f 4 9 2
f 4 12 5
f 13 4 2
f 8 14 3
f 9 5 7
f 5 8 7
f 2 6 1
