# Created by Open3D 
# object name: convex_5_coll
# number of vertices: 14
# number of triangles: 24
v -0.00835 0.01772 0.03128
v -0.00209 0.01772 0.03545
v -0.00209 0.01564 0.02919
v -0.00209 0.002085 0.03962
v -0.00209 -0.00521 0.03128
v -0.00835 0.00938 0.02919
v -0.02711 0.00313 0.03545
v -0.026065 -0.006255 0.03545
v -0.02711 0.001045 0.03962
v -0.02293 0.0073 0.03962
v -0.0213675 -0.00938 0.038575
v -0.00209 -0.00521 0.03753
v -0.00835 0.01772 0.03545
v -0.02085 -0.01147 0.03545
f 1 2 3
f 3 4 5
f 4 3 2
f 3 6 1
f 1 6 7
f 6 8 7
f 4 10 9
f 8 11 9
f 7 8 9
f 5 4 12
f 4 9 11
f 12 4 11
f 6 3 5
f 1 10 13
f 2 1 13
f 11 8 14
f 5 12 14
f 10 4 2
f 13 10 2
f 8 6 14
f 6 5 14
f 10 7 9
f 10 1 7
f 14 12 11
