# Created by Open3D 
# object name: convex_6_coll
# number of vertices: 14
# number of triangles: 24
v 0.02606 0.01459 0.034405
v 0.02502 0.00105 0.03545
v 0.01459 0.01772 0.02919
v -0.00208 0.015635 0.03649
v 0.02919 0.01459 0.02815
v 0.02919 -0.00104 0.02711
v -0.00208 0.01772 0.02919
v -0.00208 -0.00521 0.03753
v 0.004175 -0.00521 0.02085
v 1e-05 0.00313 0.02085
v 0.01043 0.002085 0.02085
v 0.02293 -0.0073 0.03128
v 0.004175 0.01147 0.02085
v 0.01147 0.005215 0.03753
f 1 3 4
f 4 3 7
f 8 4 7
f 9 10 11
f 5 6 11
f 11 10 13
f 5 11 13
f 6 5 1
f 9 12 8
f 14 1 4
f 8 14 4
f 13 7 3
f 13 3 5
f 9 8 10
f 9 6 12
f 10 8 7
f 6 9 11
f 6 2 12
f 14 2 1
f 2 14 8
f 12 2 8
f 10 7 13
f 3 1 5
f 2 6 1
