# Created by Open3D 
# object name: convex_4_coll
# number of vertices: 14
# number of triangles: 24
v 0.00527 -0.03425 -0.02371
v 0.006585 0 -0.0191025
v 0.02634 -0.02635 -0.01581
v -0.02107 0 -0.015805
v -0.01843 0 -0.01054
v 0.00264 0 -0.01054
v -0.0158 0 -0.02108
v 0.00527 -0.02371 -0.00263
v 0.00132 -0.02898 -0.00263
v -0.01317 -0.03425 -0.00791
v 0.03162 -0.02898 -0.00791
v -0.0026275 -0.03623 -0.0177825
v -0.02634 -0.02371 -0.01054
v -0.02634 -0.02898 -0.01844
f 1 2 3
f 2 4 5
f 2 5 6
f 4 2 7
f 6 5 8
f 2 6 11
f 6 8 11
f 1 3 11
f 9 10 12
f 4 7 14
f 9 8 5
f 7 1 14
f 9 5 10
f 5 13 10
f 7 2 1
f 3 2 11
f 11 8 9
f 13 5 4
f 14 13 4
f 1 11 12
f 9 12 11
f 14 12 10
f 13 14 10
f 14 1 12
