# Created by Open3D 
# object name: convex_7_coll
# number of vertices: 14
# number of triangles: 24
v -0.0546725 -0.027665 0.0085675
v -0.05665 -0.01186 0.01581
v -0.05797 -0.01581 0.00791
v -0.05269 -0.00791 0.01054
v -0.01318 -0.03162 0.00264
v 0.0138275 -0.0303 0.0039575
v -0.003955 -0.03162 0.01581
v 0.00262 -0.00527 0.00791
v 0.00262 -0.00527 0.01581
v 0.02371 -0.02371 0.00791
v 0.02635 -0.027665 0.01581
v 0.006585 -0.027665 0.02108
v 0.0158 -0.02108 0.02108
v -0.05797 -0.02635 0.01844
f 2 3 1
f 3 2 4
f 1 3 5
f 8 9 10
f 11 7 6
f 7 5 6
f 7 11 12
f 2 1 14
f 13 2 14
f 12 13 14
f 2 13 9
f 12 11 13
f 10 9 11
f 9 13 11
f 12 14 7
f 1 5 7
f 14 1 7
f 5 3 8
f 3 4 8
f 5 8 6
f 11 6 10
f 6 8 10
f 4 2 9
f 4 9 8
