# Created by Open3D 
# object name: convex_11_coll
# number of vertices: 13
# number of triangles: 22
v -0.04216 -0.02108 -0.02108
v -0.02635 -0.02108 -0.01844
v -0.03952 -0.02635 -0.02108
v -0.05533 -0.02635 -0.01317
v -0.02635 -0.02898 -0.01317
v -0.02635 -0.02108 -0.01317
v -0.02635 -0.02898 -0.01844
v -0.05533 -0.02108 -0.01317
v -0.0527 -0.02635 -0.02108
v -0.0527 -0.02372 -0.02108
v -0.05006 -0.02898 -0.02108
v -0.04743 -0.02898 -0.01317
v -0.05533 -0.02108 -0.01844
f 1 2 3
f 4 5 6
f 6 5 7
f 4 6 8
f 8 6 1
f 9 10 1
f 4 9 11
f 7 5 11
f 9 1 11
f 6 7 2
f 1 6 2
f 5 4 12
f 4 11 12
f 11 5 12
f 10 9 13
f 9 4 13
f 4 8 13
f 8 1 13
f 1 10 13
f 7 11 3
f 11 1 3
f 2 7 3
