# Created by Open3D 
# object name: convex_14_coll
# number of vertices: 14
# number of triangles: 24
v -0.030295 0.01581 0.01449
v -0.03425 0.02371 0.01054
v 0.001315 0.01976 0.00264
v 0.00263 0.01054 0.00791
v -0.02898 0.01318 0.01054
v -0.00264 0.01581 0.02108
v 0.009215 0.02503 0.01976
v -0.00264 0.02635 0.02108
v 0.00263 0.02635 0.00791
v 0.009215 0.017125 0.02108
v 0.0079 0.01581 0.00791
v -0.00264 0.01054 0.01581
v 0.0079 0.02371 0.00791
v -0.03161 0.02371 0.01581
f 3 4 5
f 6 7 8
f 7 9 8
f 7 6 10
f 4 11 10
f 5 4 12
f 9 7 13
f 5 12 1
f 12 6 1
f 9 13 3
f 13 11 3
f 2 9 3
f 2 1 14
f 9 2 8
f 2 14 8
f 12 4 10
f 6 12 10
f 3 11 4
f 10 11 7
f 11 13 7
f 14 1 6
f 8 14 6
f 3 5 2
f 5 1 2
