# Created by Open3D 
# object name: convex_8_coll
# number of vertices: 14
# number of triangles: 24
v 0.023705 -0.018445 0.03557
v -0.05005 -0.02635 0.03952
v -0.02634 -0.00527 0.03162
v 0.02634 -0.00527 0.03557
v 0.01712 -0.00527 0.02635
v -0.02371 -0.00527 0.03952
v 0.00526 -0.00527 0.03952
v -0.05005 -0.02108 0.02635
v 0.0158 -0.02635 0.02108
v 0.00263 -0.02898 0.03162
v -0.05005 -0.02898 0.02635
v 0.03161 -0.02108 0.028985
v -0.05203 -0.0217375 0.038205
v 0.02897 -0.007905 0.02767
f 3 4 5
f 4 3 6
f 4 6 7
f 6 2 7
f 8 3 5
f 9 8 5
f 11 10 2
f 10 9 12
f 1 10 12
f 2 6 13
f 11 9 10
f 13 3 8
f 7 1 4
f 8 9 11
f 2 1 7
f 12 4 1
f 4 12 14
f 5 4 14
f 5 14 9
f 14 12 9
f 3 13 6
f 8 11 2
f 13 8 2
f 2 10 1
