# Created by Open3D 
# object name: convex_5_coll
# number of vertices: 14
# number of triangles: 24
v -0.0158 0.01581 -0.02372
v -0.01844 0.03162 -0.02372
v 0.00263 0.01317 -0.02372
v 0.003945 0.0303 -0.02372
v -0.001325 0.019765 -0.04611
v -0.03689 0.027665 -0.03426
v 0.01053 0.0224 -0.025035
v -0.03689 0.027665 -0.03162
v 0.00526 0.01845 -0.04479
v 0.0079 0.02371 -0.04216
v 0.00263 0.02371 -0.04743
v -0.00791 0.01581 -0.03689
v -0.00922 0.03162 -0.03162
v 0.003945 0.02898 -0.04084
f 3 4 1
f 1 4 2
f 4 3 7
f 8 2 6
f 7 9 10
f 5 6 11
f 12 5 9
f 6 2 13
f 13 2 4
f 13 4 14
f 4 7 14
f 7 10 14
f 12 9 3
f 11 6 14
f 6 13 14
f 6 5 12
f 14 10 11
f 9 5 11
f 10 9 11
f 6 1 8
f 12 3 1
f 6 12 1
f 9 7 3
f 8 1 2
