# Created by Open3D 
# object name: convex_3_coll
# number of vertices: 14
# number of triangles: 24
v -0.06587 0.02898 0.03952
v -0.080365 -0.028985 -0.00263
v -0.08168 0.02635 -0.00263
v -0.06587 0.03425 -0.00263
v -0.05797 0.02371 0.03688
v -0.05797 0.02371 0.01055
v -0.05797 -0.02898 0.01055
v -0.06851 -0.03162 -0.00263
v -0.06587 -0.028985 0.036885
v -0.08432 -0.011855 0.0382
v -0.08432 0.0171225 0.030955
v -0.0803625 0.02569 0.0382
v -0.0797075 -0.0296425 0.036885
v -0.07641 0.03689 -0.00263
f 2 3 4
f 4 5 6
f 5 7 6
f 2 4 8
f 9 1 10
f 10 1 12
f 4 6 7
f 8 4 7
f 9 10 13
f 9 2 8
f 4 3 14
f 3 2 11
f 2 9 13
f 4 14 1
f 11 12 3
f 12 14 3
f 9 7 5
f 9 8 7
f 9 5 1
f 13 10 2
f 11 10 12
f 1 14 12
f 4 1 5
f 11 2 10
