# Created by Open3D 
# object name: convex_0_coll
# number of vertices: 14
# number of triangles: 24
v 0.05533 -0.02371 -0.07113
v 0.05533 0.0237 -0.06587
v 0.06588 0.0158 0.07641
v 0.070485 0.04281 0.01185
v 0.07641 0.04479 -0.01052
v 0.061925 -0.0382 -0.003945
v 0.07641 -0.02634 -0.06587
v 0.073775 -0.01317 0.07113
v 0.08168 -0.03424 0.01843
v 0.0731175 -0.04413 0.0065725
v 0.08432 0.02897 0.00263
v 0.0810225 0.0237025 -0.046765
v 0.07378 0.02897 -0.07113
v 0.07905 0.02107 0.07113
f 2 3 4
f 5 2 4
f 6 8 3
f 9 8 10
f 7 12 11
f 3 2 1
f 6 3 1
f 13 7 1
f 3 8 14
f 14 8 9
f 6 7 10
f 14 5 4
f 13 12 7
f 11 12 5
f 1 7 6
f 13 2 5
f 9 10 7
f 14 9 11
f 7 11 9
f 8 6 10
f 1 2 13
f 14 11 5
f 4 3 14
f 13 5 12
