# Created by Open3D 
# object name: convex_1_coll
# number of vertices: 14
# number of triangles: 24
v 0.05531 -0.02371 -0.068505
v 0.01843 -0.03162 -0.07378
v -0.07113 0.02635 -0.07641
v 0.05531 0.01449 -0.07641
v 0.00131 -0.02634 -0.07641
v -0.07113 0.03425 -0.05533
v -0.0764 -0.03162 -0.05533
v 0.05531 0.02107 -0.06587
v 0.00527 -0.03162 -0.0606
v -0.0684925 -0.03096 -0.0691625
v -0.08166 0.02107 -0.05533
v -0.08166 -0.01976 -0.0599425
v -0.00265 0.03161 -0.07378
v -0.0744225 -0.021735 -0.07246
f 3 4 5
f 4 8 1
f 9 7 10
f 7 6 11
f 9 10 2
f 8 9 1
f 1 2 5
f 7 11 12
f 6 8 13
f 1 5 4
f 13 8 4
f 4 3 13
f 12 3 14
f 3 6 13
f 5 10 14
f 10 5 2
f 14 3 5
f 6 3 11
f 10 7 12
f 14 10 12
f 8 6 9
f 2 1 9
f 9 6 7
f 11 3 12
