# Created by Open3D 
# object name: convex_2_coll
# number of vertices: 14
# number of triangles: 24
v -0.06324 0.0348975 -0.0362275
v -0.05534 -0.02898 -0.04215
v -0.06588 0.03424 -0.00264
v -0.079045 0.03029 -0.00264
v -0.08168 -0.02634 -0.00264
v -0.07641 0.03424 -0.05533
v -0.06588 0.03161 -0.05533
v -0.08168 0.02107 -0.05533
v -0.062585 -0.0289725 -0.05467
v -0.08168 -0.02371 -0.05533
v -0.067195 -0.03029 -0.00264
v -0.05534 -0.023705 -0.014495
v -0.0704875 0.0414975 -0.029975
v -0.071145 -0.03689 -0.026345
f 3 4 5
f 6 7 8
f 8 7 9
f 5 8 10
f 8 9 10
f 3 5 11
f 8 5 4
f 1 12 2
f 12 3 11
f 10 14 5
f 4 3 13
f 10 9 14
f 6 13 7
f 2 12 14
f 4 6 8
f 13 6 4
f 1 7 13
f 9 2 14
f 3 12 1
f 13 3 1
f 7 2 9
f 14 12 11
f 5 14 11
f 2 7 1
