# Created by Open3D 
# object name: convex_12_coll
# number of vertices: 14
# number of triangles: 24
v -0.03425 0.01844 0.011855
v -0.04743 0.00264 0.01581
v -0.05006 -0.00263 0.01054
v -0.05269 0.01581 0.00791
v -0.05797 0.00527 0.01054
v -0.05533 0.02898 0.00791
v -0.05797 0.02371 0.01581
v -0.03425 0.02371 0.01581
v -0.03689 0.02898 0.00791
v -0.04216 0.02898 0.01317
v -0.05665 0.005275 0.01581
v -0.04216 0.01581 0.00791
v -0.05533 -0.00263 0.011855
v -0.05797 0.02371 0.01054
f 1 2 3
f 4 5 6
f 7 2 8
f 4 6 9
f 6 10 9
f 10 8 9
f 8 1 9
f 2 7 11
f 3 4 12
f 1 3 12
f 4 9 12
f 9 1 12
f 2 11 13
f 10 6 7
f 8 10 7
f 7 5 11
f 5 13 11
f 5 7 14
f 6 5 14
f 7 6 14
f 8 2 1
f 5 4 13
f 4 3 13
f 2 13 3
