# Created by Open3D 
# object name: convex_6_coll
# number of vertices: 14
# number of triangles: 24
v 0.0019675 0.0296425 -0.010545
v -0.02897 0.03162 -0.01054
v 0.0079 0.0144925 -0.02371
v -0.0237 0.03162 -0.02371
v 0.00263 0 -0.01054
v -0.01845 0 -0.01054
v -0.018445 0 -0.01976
v 0.00526 0 -0.02108
v -0.05006 0.02898 -0.01318
v -0.05006 0.02107 -0.01318
v 0.003945 0.0303 -0.02371
v -0.05006 0.025025 -0.02108
v -0.001325 0.02239 -0.00527
v 0.0158 0.02371 -0.01844
f 5 6 7
f 7 3 8
f 5 7 8
f 1 4 2
f 4 1 11
f 3 4 11
f 13 6 5
f 4 3 12
f 6 13 10
f 13 2 10
f 2 9 10
f 14 3 11
f 11 1 14
f 10 7 6
f 1 2 13
f 4 12 2
f 12 9 2
f 9 12 10
f 12 7 10
f 3 7 12
f 8 3 14
f 14 5 8
f 5 14 1
f 13 5 1
