# Created by Open3D 
# object name: convex_9_coll
# number of vertices: 14
# number of triangles: 24
v 0.003955 0.02635 0.02108
v 0.006585 0.017125 0.02108
v -0.026345 -0.00527 0.038205
v 0.02635 -0.00527 0.02899
v 0.02503 -0.00395 0.03557
v -0.02633 -0.00527 0.03162
v -0.05401 0.0144925 0.03162
v 0.0158 0.01844 0.04216
v 0.00395 0.0019775 0.04084
v -0.05533 0.02371 0.03952
v -0.05533 0.02371 0.030305
v 0.022395 0.01976 0.02767
v 0.00262 0.02898 0.03425
v 0.0197575 0.021735 0.03557
f 3 4 5
f 4 3 6
f 7 2 6
f 10 3 9
f 2 4 6
f 1 7 11
f 10 9 8
f 3 5 9
f 5 8 9
f 12 4 2
f 1 12 2
f 1 11 13
f 1 13 14
f 12 1 14
f 8 5 14
f 8 13 10
f 13 11 10
f 6 3 7
f 7 10 11
f 5 4 12
f 14 5 12
f 3 10 7
f 14 13 8
f 7 1 2
