# Original object name hint: convex_31
v -0.02057 0.02827 -0.06683
v -0.04626 -0.00513 -0.06426
v -0.04626 -0.00513 -0.06169
v -0.01800 -0.00770 -0.06683
v -0.01800 0.02827 -0.06169
v -0.01800 -0.00770 -0.06169
v -0.04369 0.01285 -0.06683
v -0.04369 0.01542 -0.06169
v -0.03855 -0.00770 -0.06683
v -0.03855 -0.01028 -0.06169
v -0.01800 0.02827 -0.06683
v -0.04626 0.00771 -0.06683
v 0.01798 0.01541 -0.06683
v -0.01799 -0.01027 -0.06683
v -0.01799 -0.01027 -0.06169
v 0.00257 -0.03855 -0.06425
v 0.00513 0.01799 -0.05141
v -0.01799 0.02827 -0.06683
v 0.00257 -0.00771 -0.07197
v 0.00770 -0.00514 -0.05141
v -0.00771 0.00514 -0.05141
v 0.01798 -0.01285 -0.06425
v -0.01542 0.03084 -0.06169
v -0.00514 0.01541 -0.07197
v 0.00000 -0.03855 -0.06169
v -0.00257 0.03084 -0.06425
v 0.02056 0.00514 -0.06169
v 0.01798 -0.00257 -0.06940
v -0.01028 -0.00000 -0.07197
v 0.00513 0.01541 -0.07197
v -0.00257 -0.00771 -0.05141
v -0.00257 -0.03340 -0.06683
v 0.01028 -0.02827 -0.06169
v -0.00771 0.01541 -0.05141
v -0.01799 0.02827 -0.06169
v 0.01798 0.01541 -0.06169
v 0.01028 -0.02570 -0.06683
v -0.01799 0.01799 -0.06940
v -0.00514 0.03084 -0.06683
v 0.01798 -0.01285 -0.06169
v 0.01798 0.01284 -0.06940
v -0.00257 0.03084 -0.06169
v 0.00770 0.01541 -0.05141
v -0.01285 -0.02055 -0.06169
v 0.01028 0.02056 -0.06940
v 0.01285 0.02056 -0.06169
v -0.01028 0.02570 -0.06940
v 0.02056 -0.00000 -0.06683
v 0.00770 -0.00257 -0.07197
v -0.01799 -0.00000 -0.06940
v 0.00257 -0.03855 -0.06169
v -0.00771 -0.00514 -0.07197
v 0.00257 -0.03340 -0.06683
v -0.00514 0.01799 -0.05141
v 0.02056 0.01027 -0.06683
v 0.01542 -0.01798 -0.06683
v -0.01028 -0.02312 -0.06683
v 0.06168 -0.05912 -0.04111
v 0.07711 -0.05655 0.03854
v 0.06939 -0.05655 0.03854
v 0.04883 -0.07454 0.03083
v 0.07196 -0.07196 -0.02055
v 0.04369 -0.06426 -0.03854
v 0.04369 -0.07454 -0.03597
v 0.04369 -0.06940 0.03340
v 0.05398 -0.05655 -0.00770
v 0.07454 -0.05655 -0.03597
v 0.06939 -0.07454 0.01027
v 0.07454 -0.06940 0.02826
v 0.06425 -0.07196 -0.03597
v 0.07711 -0.06426 -0.01284
v 0.05655 -0.05655 -0.03854
v 0.06168 -0.07454 -0.03083
v 0.07196 -0.06682 0.03597
v 0.04369 -0.06682 0.02312
v 0.06168 -0.05655 0.02569
v 0.04369 -0.07454 0.03083
v 0.07711 -0.05655 -0.02313
v 0.07711 -0.06682 0.00770
v 0.07454 -0.06426 -0.03083
v 0.06682 -0.07196 0.03083
v 0.05141 -0.07196 -0.03854
v 0.07196 -0.06169 -0.03854
v 0.04369 -0.06426 -0.01799
v 0.05655 -0.05655 0.01027
v 0.06939 -0.06169 0.03854
v 0.05398 -0.05655 -0.03340
v 0.06168 -0.07454 0.02569
v 0.04369 -0.07196 0.03340
v 0.07711 -0.05912 0.03854
v 0.06939 -0.07454 -0.00770
v 0.04369 -0.07196 -0.03854
v 0.06425 -0.05655 -0.04111
v 0.07454 -0.06940 -0.01799
v 0.06682 -0.07196 -0.03340
v 0.06168 -0.06940 -0.03854
v 0.07196 -0.04882 -0.04112
v 0.07453 0.06938 -0.00772
v 0.06425 0.06938 -0.00772
v 0.05398 -0.05652 -0.00772
v 0.04370 0.05139 -0.03341
v 0.07968 -0.05396 -0.00772
v 0.07710 0.05396 -0.03855
v 0.04370 -0.03340 -0.03855
v 0.04370 0.00515 -0.01029
v 0.06682 0.01541 -0.04369
v 0.06169 -0.05652 -0.04112
v 0.07968 0.05910 -0.00772
v 0.07968 0.00515 -0.03598
v 0.04370 -0.04882 -0.03341
v 0.06425 0.06938 -0.02827
v 0.07710 -0.05652 -0.02827
v 0.04370 0.02312 -0.03855
v 0.04370 0.04882 -0.02570
v 0.07453 0.00515 -0.04369
v 0.06939 0.05653 -0.03855
v 0.07453 0.06681 -0.03084
v 0.07968 0.05396 -0.03341
v 0.07453 -0.05396 -0.03855
v 0.07968 -0.04625 -0.02314
v 0.06939 0.06424 -0.03598
v 0.05655 -0.05652 -0.03855
v 0.04370 0.00001 -0.01029
v 0.07710 -0.05652 -0.00772
v 0.07453 0.02055 -0.04369
v 0.06682 -0.00255 -0.04369
v 0.06169 0.06938 -0.02314
v 0.07710 -0.05139 -0.03341
v 0.04370 -0.04882 -0.03598
v 0.07710 0.00259 -0.04112
v 0.04884 0.04882 -0.03598
v 0.07968 0.04882 -0.03598
v 0.07710 0.06681 -0.01029
v 0.04370 0.05139 -0.02827
v 0.06939 0.02055 -0.04369
v 0.07196 0.06938 -0.02827
v 0.06682 -0.05652 -0.04112
v 0.05398 -0.04111 -0.00772
v 0.05398 -0.05652 -0.02570
v 0.06169 0.04882 -0.03855
v 0.07710 0.06167 -0.03341
v 0.06682 0.06681 -0.03341
v -0.01028 -0.03598 0.06169
v 0.02570 -0.00771 0.06939
v 0.02570 -0.00771 0.06426
v -0.02570 -0.00771 0.06169
v -0.00000 -0.01029 0.07197
v -0.00514 -0.04112 0.06682
v 0.01285 -0.03855 0.06169
v -0.02570 -0.00771 0.06682
v 0.01028 -0.03855 0.06682
v 0.01542 -0.00771 0.06169
v 0.01542 -0.01029 0.07197
v -0.02056 -0.02057 0.06682
v 0.00514 -0.04369 0.06169
v -0.00000 -0.00771 0.07197
v 0.02570 -0.01029 0.06939
v -0.02313 -0.01799 0.06169
v 0.01028 -0.01286 0.07197
v -0.00257 -0.04369 0.06169
v 0.00514 -0.04112 0.06682
v 0.07711 -0.05652 -0.00771
v 0.07711 0.01027 0.06168
v 0.07967 0.02312 0.05910
v 0.06426 0.06938 -0.00771
v 0.06168 -0.05652 0.02571
v 0.07967 0.05910 -0.00771
v 0.06683 0.06167 0.03854
v 0.08225 -0.04111 0.03598
v 0.06168 -0.05652 -0.00771
v 0.06168 0.01027 0.04625
v 0.07967 0.06167 0.03854
v 0.07197 -0.05396 0.04112
v 0.08225 0.03340 0.04369
v 0.07967 -0.05396 -0.00771
v 0.06168 0.01284 -0.00771
v 0.07197 -0.00769 0.05910
v 0.07711 -0.05652 0.03854
v 0.08225 -0.01284 0.01800
v 0.07711 0.06681 0.04112
v 0.07967 -0.00769 0.05910
v 0.07197 0.01798 0.05910
v 0.07454 0.06938 -0.00771
v 0.06168 -0.02312 0.04112
v 0.06940 0.06681 0.04112
v 0.06168 0.02312 0.03854
v 0.08225 -0.00769 0.05139
v 0.06683 -0.05139 0.03854
v 0.06940 0.06938 0.03598
v 0.06426 0.06681 0.00772
v 0.07967 0.06424 0.02827
v 0.07967 -0.05652 0.01543
v 0.08225 0.03083 0.03340
v 0.08225 -0.03340 0.01800
v 0.06168 -0.00513 0.04625
v 0.08225 -0.03597 0.04112
v 0.08225 0.02055 0.05139
v 0.07454 0.06938 0.03598
v 0.07454 0.02312 0.05910
v 0.06683 0.06681 0.03340
v 0.07711 0.06681 -0.00771
v 0.07967 -0.05396 0.03340
v 0.06940 -0.05652 0.03854
v 0.07454 0.00259 0.06168
v 0.07967 -0.04625 0.04112
v 0.06940 0.00001 0.05654
v -0.07968 -0.04882 -0.03598
v -0.06169 0.06681 -0.00772
v -0.05655 0.05396 -0.02827
v -0.05655 -0.07197 -0.00772
v -0.05655 -0.06681 -0.04626
v -0.07968 0.05138 -0.00772
v -0.07454 0.05910 -0.03855
v -0.07454 -0.06681 -0.00772
v -0.08225 0.01798 -0.03855
v -0.05912 0.06681 -0.03598
v -0.06683 -0.06167 -0.04883
v -0.07968 -0.04625 -0.00772
v -0.06940 0.00255 -0.04626
v -0.07197 0.06938 -0.01800
v -0.07197 -0.06681 -0.04112
v -0.08225 -0.00002 -0.01543
v -0.07968 0.05396 -0.03084
v -0.08225 -0.01283 -0.03855
v -0.07454 0.00255 -0.04626
v -0.07454 -0.06167 -0.04369
v -0.05655 0.06681 -0.03341
v -0.06169 0.06166 -0.03855
v -0.06169 -0.07197 -0.02571
v -0.06683 0.06938 -0.03598
v -0.07968 -0.05395 -0.03341
v -0.05655 -0.05653 -0.04626
v -0.05655 -0.05395 -0.00772
v -0.08225 0.02826 -0.02571
v -0.07454 0.06424 -0.00772
v -0.07710 0.06166 -0.03084
v -0.07454 -0.06681 -0.03341
v -0.05912 0.06938 -0.02314
v -0.05655 -0.06938 -0.04369
v -0.07197 -0.06938 -0.01286
v -0.08225 -0.01541 -0.02827
v -0.07454 0.02569 -0.04369
v -0.06940 -0.06938 -0.03598
v -0.07968 -0.05395 -0.02314
v -0.07710 0.06166 -0.01286
v -0.07710 0.02054 -0.04369
v -0.07710 0.05138 -0.03855
v -0.06426 -0.05910 -0.04883
v -0.07197 -0.06167 -0.04626
v -0.05655 0.05138 -0.03598
v -0.06940 0.06938 -0.01286
v -0.08225 0.01541 -0.01543
v -0.07710 -0.02055 -0.04369
v -0.06169 -0.07197 -0.00772
v -0.05655 -0.07197 -0.03084
v -0.07710 -0.06167 -0.03598
v -0.07454 0.06681 -0.02571
v -0.07710 -0.05653 -0.04112
v -0.06426 -0.06681 -0.04626
v -0.06940 0.04625 -0.04112
v -0.07968 0.05396 -0.01029
v -0.06169 -0.07197 -0.00771
v -0.06940 -0.01284 0.01799
v -0.06683 0.05653 0.01542
v -0.07968 0.05139 -0.00771
v -0.07968 -0.04368 0.01799
v -0.06169 0.06683 -0.00771
v -0.05912 -0.06425 0.01799
v -0.07968 -0.04626 -0.00771
v -0.07711 0.05653 0.01285
v -0.05912 0.05910 0.00771
v -0.05912 -0.07197 -0.00771
v -0.07454 -0.06425 0.01028
v -0.07454 -0.06682 -0.00771
v -0.06940 0.06683 0.00771
v -0.07968 0.04883 0.01028
v -0.05912 0.04883 0.01285
v -0.06683 -0.06939 0.01285
v -0.07968 -0.01798 0.01799
v -0.05912 0.05397 -0.00000
v -0.07711 0.05910 -0.00771
v -0.07197 -0.06425 0.01799
v -0.05912 -0.03340 0.01799
v -0.06169 0.06425 0.01028
v -0.07454 0.05397 0.01542
v -0.05912 -0.07197 0.00771
v -0.06940 0.06683 -0.00771
v -0.07711 -0.05911 -0.00257
v -0.07711 0.05910 0.00771
v -0.05912 -0.05140 -0.00771
v -0.07197 0.06166 0.01285
v -0.06940 -0.06939 0.00514
v -0.07711 -0.05397 0.01799
v -0.06169 0.06683 0.00257
v -0.07197 -0.06168 0.01799
v -0.06940 0.00513 0.04112
v -0.07454 0.01285 0.03855
v -0.07711 -0.05139 0.03855
v -0.06169 -0.04626 0.03855
v -0.06169 -0.03598 0.01799
v -0.07968 -0.01800 0.01799
v -0.07968 0.01285 0.03855
v -0.06426 -0.00001 0.03598
v -0.07197 -0.01286 0.01799
v -0.07968 -0.04626 0.02313
v -0.06426 -0.06168 0.02056
v -0.07454 -0.04882 0.04112
v -0.07454 0.01285 0.03341
v -0.07968 -0.03855 0.03855
v -0.06683 -0.05397 0.03855
v -0.06683 -0.01800 0.01799
v -0.06426 -0.02570 0.04112
v -0.07711 0.00513 0.04112
v -0.07968 0.01285 0.03341
v -0.07968 -0.04369 0.01799
v -0.06169 -0.03083 0.03855
v -0.07454 -0.05397 0.03855
v -0.06426 -0.04369 0.04112
v -0.06426 -0.06168 0.01799
v -0.06426 -0.00001 0.03855
v -0.07454 -0.05910 0.01799
v -0.07968 -0.04626 0.03598
v -0.07711 -0.03598 0.04112
v -0.06169 -0.04111 0.01799
v -0.04627 -0.00257 0.03598
v -0.04113 0.00257 0.04112
v -0.04370 0.00257 0.04112
v -0.04113 -0.00514 0.04112
v -0.04113 0.00257 0.03598
v -0.06426 0.06939 0.04112
v -0.07968 0.01285 0.03341
v -0.07454 0.01285 0.03341
v -0.07197 0.05654 0.02056
v -0.05655 0.05397 0.03341
v -0.07968 0.05397 0.03341
v -0.07197 0.05140 0.04369
v -0.05655 0.05911 0.04369
v -0.07968 0.01285 0.03855
v -0.05655 0.07196 0.03598
v -0.07710 0.05654 0.02056
v -0.07454 0.06168 0.04112
v -0.07454 0.01285 0.03855
v -0.07197 0.05140 0.02056
v -0.05655 0.05140 0.04112
v -0.05655 0.06939 0.04369
v -0.07710 0.05397 0.04112
v -0.07968 0.05140 0.02570
v -0.07710 0.05911 0.02570
v -0.06940 0.06682 0.03598
v -0.07710 0.05140 0.02056
v -0.06426 0.03342 0.03598
v -0.05655 0.06425 0.03341
v -0.07197 0.05911 0.04369
v -0.05912 0.07196 0.03598
v -0.06426 0.05140 0.04369
v -0.06169 0.04113 0.03341
v -0.05140 0.06425 0.04369
v -0.05655 0.04884 0.03598
v -0.05655 0.04884 0.03855
v -0.04113 0.02314 0.03342
v -0.04113 0.07454 0.03342
v -0.04113 0.02571 0.04112
v -0.05398 0.02571 0.03342
v -0.05655 0.07196 0.03598
v -0.04113 0.07454 0.04112
v -0.05398 0.03342 0.04112
v -0.04627 0.03599 0.03084
v -0.05655 0.06939 0.04369
v -0.04113 0.02571 0.03084
v -0.05398 0.05654 0.03342
v -0.04884 0.02571 0.04112
v -0.05398 0.02571 0.03855
v -0.05655 0.06168 0.04369
v -0.04884 0.02314 0.03855
v -0.04370 0.07454 0.03342
v -0.04627 0.07454 0.04112
v 0.01542 -0.00514 0.04883
v 0.02827 0.02056 0.05141
v 0.03855 0.01285 0.05397
v -0.00514 0.01285 0.05911
v -0.00771 0.01542 0.04883
v -0.00257 -0.00514 0.05397
v 0.04112 0.00000 0.04883
v 0.03597 0.00000 0.05397
v 0.00258 0.00257 0.05911
v 0.03597 0.01799 0.04883
v -0.00771 0.00000 0.04883
v 0.00258 0.02056 0.04883
v 0.03855 -0.00257 0.05141
v 0.00258 0.01285 0.05911
v 0.00258 0.02056 0.05141
v -0.00514 0.00514 0.05911
v -0.00257 -0.00514 0.04883
v 0.00514 -0.00514 0.05397
v 0.04112 0.01285 0.04883
v -0.00771 0.00514 0.05397
v 0.03855 0.00257 0.05397
v -0.02827 -0.00771 0.06169
v 0.00770 0.03341 0.06939
v 0.01285 0.01798 0.07197
v 0.03598 0.00257 0.06169
v -0.00257 0.02313 0.05912
v 0.01798 -0.00771 0.07197
v -0.03084 0.01285 0.06682
v 0.00514 -0.00771 0.05912
v -0.00771 -0.00257 0.07197
v 0.03598 0.01285 0.06682
v -0.02827 0.01798 0.06169
v 0.02570 0.02056 0.06169
v -0.02827 -0.00771 0.06682
v 0.00000 0.03341 0.06426
v -0.02313 0.01542 0.06939
v 0.02826 -0.00771 0.06939
v -0.01541 0.01028 0.05912
v 0.01285 0.02056 0.05912
v 0.00000 0.03341 0.06939
v -0.03341 -0.00514 0.06169
v 0.03341 0.00772 0.06939
v -0.00257 0.01798 0.07197
v 0.02826 -0.00771 0.06426
v -0.03341 -0.00257 0.06682
v 0.00770 0.03341 0.06426
v 0.03598 0.01285 0.06169
v -0.02827 0.01798 0.06682
v -0.03341 0.00772 0.06169
v 0.01285 0.03084 0.06939
v 0.01541 0.00257 0.05912
v -0.00257 -0.00771 0.07197
v -0.00514 -0.00771 0.05912
v 0.03598 0.00257 0.06682
v 0.02055 0.00772 0.07197
v 0.03084 0.01285 0.06939
v 0.05911 -0.02570 0.03084
v 0.04627 0.01284 0.04883
v 0.05911 0.01799 0.04369
v 0.04369 0.01542 0.02056
v 0.04369 -0.01799 0.04112
v 0.06168 0.01542 0.02827
v 0.06168 -0.02313 0.04112
v 0.04369 0.02827 0.03855
v 0.04369 -0.00000 0.02056
v 0.06168 0.00771 0.04626
v 0.04369 -0.00000 0.04883
v 0.06168 -0.01799 0.02827
v 0.05397 0.02570 0.03084
v 0.04884 -0.02570 0.03598
v 0.04884 -0.00000 0.02056
v 0.06168 0.02055 0.03855
v 0.06168 -0.00257 0.04626
v 0.04369 0.02570 0.02827
v 0.04369 0.02055 0.04626
v 0.04369 -0.01542 0.03084
v 0.06168 -0.02827 0.03598
v 0.05141 -0.02313 0.04112
v 0.04627 0.01542 0.02056
v 0.05397 0.02570 0.03855
v 0.06168 0.02055 0.03084
v 0.05141 -0.02570 0.03342
v -0.04113 -0.04113 -0.03598
v -0.04370 -0.07453 -0.02057
v -0.05655 -0.07196 -0.03341
v -0.05655 -0.05655 -0.00771
v -0.05655 -0.04113 -0.03855
v -0.04113 -0.04113 -0.01029
v -0.04113 -0.06682 -0.04626
v -0.04113 -0.07453 -0.00771
v -0.05655 -0.07196 -0.00771
v -0.05655 -0.06682 -0.04626
v -0.04113 -0.07196 -0.04112
v -0.04113 -0.05911 -0.04626
v -0.05655 -0.04113 -0.03084
v -0.04627 -0.04113 -0.01286
v -0.05655 -0.05911 -0.04626
v -0.04113 -0.05398 -0.00771
v -0.04884 -0.07453 -0.00771
v -0.05655 -0.06939 -0.04369
v -0.04113 -0.04370 -0.03855
v -0.04370 -0.06940 0.01799
v -0.04884 -0.07454 -0.00771
v -0.04113 -0.07454 -0.00771
v -0.04113 -0.05141 0.00514
v -0.05912 -0.05141 0.01542
v -0.05912 -0.05398 -0.00771
v -0.05912 -0.07196 0.01028
v -0.04113 -0.07454 0.01542
v -0.04113 -0.05912 -0.00771
v -0.05912 -0.07196 -0.00771
v -0.04113 -0.05141 0.01285
v -0.05912 -0.06682 0.01542
v -0.05141 -0.07454 0.01028
v -0.05912 -0.05141 0.00514
v -0.04627 -0.07454 0.01542
v -0.04113 -0.06940 0.01799
v -0.04113 0.04626 0.01285
v -0.05912 -0.05141 0.00514
v -0.04884 -0.05141 0.00514
v -0.05912 -0.05141 0.01542
v -0.05912 0.05140 0.00514
v -0.04113 -0.04883 0.01542
v -0.04113 0.05140 0.00514
v -0.05912 0.04369 0.01285
v -0.04627 0.03083 0.01542
v -0.04113 -0.05141 0.00771
v -0.05912 0.05140 0.01028
v -0.04113 0.03083 0.01542
v -0.05141 0.02826 0.01542
v -0.04113 0.02055 0.00514
v -0.05912 -0.02312 0.01542
v -0.04113 0.05140 0.01028
v 0.00001 -0.07711 0.00514
v -0.00770 -0.06683 -0.05141
v -0.00770 -0.06169 -0.05141
v 0.04369 -0.06426 -0.03855
v -0.02055 -0.05655 0.00514
v -0.04113 -0.07454 -0.02313
v 0.04369 -0.06683 0.00514
v 0.04369 -0.07454 -0.03597
v -0.04113 -0.05655 -0.04368
v 0.04112 -0.05655 -0.03597
v -0.04113 -0.07454 0.00514
v -0.04113 -0.06939 -0.04626
v -0.04113 -0.05912 0.00514
v 0.04369 -0.07454 0.00514
v 0.00514 -0.07454 -0.04368
v 0.00514 -0.05655 0.00514
v -0.02313 -0.07711 -0.01542
v 0.01027 -0.05655 -0.04883
v 0.02569 -0.07197 -0.04626
v -0.03855 -0.07711 0.00514
v -0.03341 -0.07454 -0.03341
v 0.00514 -0.06939 -0.05141
v -0.04113 -0.05655 -0.00771
v -0.00257 -0.07711 -0.01542
v -0.04113 -0.05912 -0.04626
v 0.00770 -0.06169 -0.05141
v 0.04112 -0.05655 -0.03341
v -0.01285 -0.05655 -0.04883
v -0.04113 -0.07197 -0.04112
v 0.00001 -0.07197 -0.04883
v 0.01799 -0.07454 -0.04368
v 0.02569 -0.06426 -0.04626
v 0.04369 -0.07197 -0.03855
v -0.03341 -0.07711 -0.00771
v -0.00513 -0.06939 -0.05141
v -0.03855 -0.07711 0.01285
v 0.01285 -0.06169 0.01028
v 0.01285 -0.06169 0.00514
v 0.04369 -0.07454 0.00514
v 0.04369 -0.07454 0.02056
v -0.04113 -0.06426 0.01542
v -0.04113 -0.07454 0.00514
v 0.04369 -0.06683 0.02056
v -0.02569 -0.07454 0.02056
v -0.04113 -0.06169 0.00514
v -0.00513 -0.06426 0.02056
v 0.04369 -0.06683 0.00514
v -0.00257 -0.07711 0.00514
v -0.03341 -0.07711 0.01799
v -0.01285 -0.06169 0.01542
v -0.04113 -0.06940 0.01799
v 0.02569 -0.06426 0.02056
v -0.03855 -0.07711 0.00514
v -0.04113 -0.06169 0.01285
v -0.01028 -0.07711 0.01542
v -0.02569 -0.06940 0.02056
v 0.01541 -0.06426 0.04112
v -0.01799 -0.07453 0.02056
v -0.03084 -0.07710 0.03084
v 0.04369 -0.07453 0.03341
v -0.02055 -0.05912 0.02827
v 0.04369 -0.06683 0.02056
v -0.04113 -0.06683 0.03598
v 0.04369 -0.07453 0.02056
v 0.01541 -0.07197 0.04112
v 0.00770 -0.05912 0.03855
v 0.03341 -0.06683 0.04112
v -0.01542 -0.06683 0.02056
v -0.02313 -0.05912 0.03855
v -0.04113 -0.06939 0.03084
v -0.03598 -0.07453 0.03598
v 0.00770 -0.05912 0.02827
v 0.02826 -0.07453 0.03855
v -0.00513 -0.06426 0.02056
v 0.04369 -0.06683 0.03084
v -0.01799 -0.07710 0.03341
v -0.02313 -0.06939 0.03855
v -0.03598 -0.07453 0.02827
v -0.02569 -0.05912 0.03084
v 0.02055 -0.06426 0.02056
v 0.03084 -0.07197 0.04112
v 0.02826 -0.06426 0.04112
v 0.01027 -0.05912 0.03598
v -0.04113 -0.07197 0.03598
v 0.04369 -0.02055 0.00514
v 0.04626 0.01028 0.02056
v 0.04626 0.01028 0.01542
v 0.05140 -0.03598 0.00514
v 0.04883 -0.00000 0.00514
v 0.04626 -0.03598 0.01028
v 0.04369 -0.00000 0.02056
v 0.04369 0.00256 0.00514
v 0.05140 -0.03598 0.01028
v 0.04883 0.00513 0.01542
v 0.04369 0.01028 0.02056
v 0.04626 -0.03598 0.00514
v 0.04369 -0.02313 0.01028
v 0.04883 0.00513 0.00771
v 0.05140 -0.02827 0.00514
v 0.04626 -0.00000 0.02056
v 0.05397 -0.04112 -0.00771
v 0.06168 -0.03855 0.01799
v 0.05911 -0.03855 0.01799
v 0.06168 -0.02056 -0.00771
v 0.06168 -0.05655 -0.00771
v 0.05140 -0.03085 0.01028
v 0.05911 -0.05655 0.01799
v 0.05397 -0.05655 -0.00771
v 0.06168 -0.02313 0.00771
v 0.05911 -0.02056 -0.00771
v 0.05140 -0.03855 0.01028
v 0.06168 -0.05655 0.01799
v 0.05140 -0.03085 0.00514
v 0.05911 -0.03085 0.01542
v 0.05654 -0.05655 0.01028
v 0.05911 -0.02313 0.00771
v -0.04113 0.05398 -0.02828
v -0.05655 -0.04112 -0.03855
v -0.05655 -0.04112 -0.03085
v -0.04113 -0.04112 -0.03598
v -0.05655 0.04882 -0.03598
v -0.04113 0.05140 -0.03598
v -0.04113 -0.03084 -0.02570
v -0.05655 0.05140 -0.02828
v -0.05398 0.01541 -0.02570
v -0.04113 0.04882 -0.02570
v -0.05655 -0.02827 -0.02828
v -0.04113 -0.04112 -0.02828
v -0.05398 -0.03598 -0.03855
v -0.04884 0.05398 -0.03341
v -0.04627 -0.02827 -0.02570
v -0.04627 0.04626 -0.02570
v -0.05398 -0.00256 -0.02570
v 0.00514 -0.04626 -0.02570
v -0.00770 -0.05655 -0.04884
v -0.01799 -0.05655 -0.04626
v -0.00257 -0.03598 -0.04626
v 0.04369 -0.05398 -0.03599
v -0.04113 -0.03598 -0.02828
v 0.04112 -0.03598 -0.03085
v -0.02055 -0.05655 -0.03085
v 0.01541 -0.04626 -0.04884
v -0.04113 -0.05398 -0.03855
v 0.04369 -0.03598 -0.03855
v 0.04112 -0.05655 -0.03342
v -0.04113 -0.03598 -0.03599
v -0.04113 -0.04626 -0.02828
v 0.02055 -0.05655 -0.04626
v 0.00514 -0.03598 -0.02570
v 0.04369 -0.04883 -0.03085
v -0.01799 -0.04626 -0.02570
v -0.00513 -0.04626 -0.04884
v -0.00513 -0.05398 -0.02828
v 0.01285 -0.03598 -0.04626
v -0.04113 -0.04626 -0.03855
v -0.02313 -0.03598 -0.02570
v 0.03855 -0.05398 -0.03085
v 0.04369 -0.04626 -0.03855
v -0.04113 -0.05398 -0.03342
v 0.01541 -0.05398 -0.04884
v 0.00001 -0.04112 -0.04884
v 0.02055 -0.05655 -0.03085
v 0.03855 -0.05655 -0.03855
v -0.02569 -0.05655 -0.04112
v -0.01542 -0.05398 -0.02828
v -0.01799 0.04111 -0.04113
v -0.01799 0.01027 -0.00001
v -0.02057 0.01027 -0.00001
v -0.01799 -0.03598 -0.03598
v -0.04113 0.05140 -0.03598
v -0.04113 -0.03598 -0.01029
v -0.04113 -0.03598 -0.03598
v -0.02828 0.04882 -0.00772
v -0.01799 -0.03598 -0.00772
v -0.04113 0.03854 -0.01029
v -0.01799 0.05140 -0.01029
v -0.01799 0.05397 -0.03855
v -0.02314 0.00258 -0.04113
v -0.04113 0.05397 -0.02827
v -0.03855 0.03340 -0.00772
v -0.01799 -0.00513 -0.04113
v -0.03341 -0.03598 -0.00772
v -0.01799 0.04368 -0.00515
v -0.02057 0.00515 -0.00001
v -0.03341 0.02827 -0.03855
v -0.02314 0.03340 -0.04113
v -0.01799 0.05397 -0.02827
v -0.03855 0.01798 -0.00772
v -0.04113 0.05397 -0.03341
v -0.02571 0.05140 -0.01029
v -0.02057 -0.02312 -0.03855
v 0.00000 -0.01283 -0.05141
v 0.00000 0.06938 0.00514
v -0.00771 0.06938 0.00514
v -0.01285 -0.03598 0.00514
v 0.02569 -0.03598 -0.03084
v 0.02313 0.06938 -0.03084
v -0.01799 0.04882 -0.04112
v 0.01799 -0.00770 0.00514
v -0.01799 -0.03598 -0.03855
v -0.01799 0.01799 0.00514
v 0.01028 0.01543 -0.05141
v 0.02569 -0.03598 -0.04112
v -0.01028 0.06938 -0.03597
v 0.01028 -0.03598 0.00514
v 0.02569 0.05140 -0.03597
v 0.02313 0.01029 -0.00771
v -0.00771 0.02312 -0.05141
v -0.01799 0.05140 -0.00771
v 0.01799 0.01029 0.00514
v -0.01799 -0.03598 -0.00515
v 0.00771 0.06938 -0.03597
v 0.00513 0.06938 0.00256
v 0.00000 -0.03598 -0.04626
v -0.00771 0.07195 -0.00000
v 0.02569 0.01799 -0.04112
v 0.02313 0.06938 -0.02826
v -0.01799 0.00258 -0.04368
v -0.00771 -0.00255 -0.05141
v -0.01285 0.06938 -0.02826
v 0.00771 0.07195 -0.03341
v 0.02569 0.05140 -0.02826
v 0.00771 -0.01027 -0.05141
v 0.00513 0.02312 -0.05141
v 0.01285 -0.03340 0.00514
v -0.01799 -0.01541 0.00514
v 0.00257 0.07195 -0.00000
v -0.00771 0.07195 -0.03084
v 0.02313 -0.00255 -0.00771
v 0.00771 -0.03598 -0.04626
v -0.01799 0.05396 -0.03855
v 0.02569 -0.00770 -0.02570
v -0.01542 0.03854 0.00514
v 0.01799 0.06938 -0.03341
v -0.01799 0.02826 -0.04368
v 0.01028 -0.00513 -0.05141
v 0.01028 0.07195 -0.02570
v 0.04369 0.04882 -0.02570
v 0.02570 -0.03598 -0.04113
v 0.02827 -0.03598 -0.04113
v 0.02570 0.05140 -0.03598
v 0.02570 -0.00513 -0.02570
v 0.04369 -0.03598 -0.03855
v 0.04369 0.00515 -0.04113
v 0.04369 -0.03340 -0.03085
v 0.02570 0.05140 -0.02827
v 0.04369 0.05140 -0.03341
v 0.02570 -0.03598 -0.03085
v 0.02570 0.01541 -0.04113
v 0.03855 0.00258 -0.02570
v 0.03342 0.04882 -0.02570
v 0.04112 -0.03598 -0.03085
v 0.04112 0.02569 -0.03855
v 0.04369 -0.00513 -0.04113
v 0.02570 0.01541 -0.02570
v 0.03598 0.01284 -0.04113
v 0.02827 0.05140 -0.03598
v 0.04369 -0.00256 -0.02827
v 0.03598 -0.00256 -0.02570
v 0.04369 0.00257 -0.01028
v 0.02827 0.00257 -0.02056
v 0.02827 0.00514 -0.02056
v 0.04369 0.00000 -0.01799
v 0.03084 0.00000 -0.01285
v 0.04369 0.00514 -0.01799
v 0.03084 0.00514 -0.01285
v 0.04369 0.01284 0.01285
v -0.04113 -0.06169 0.00514
v 0.00514 -0.06169 0.00514
v -0.00257 0.05398 0.00514
v -0.01028 -0.00512 0.02056
v -0.04113 0.05138 0.01028
v 0.04369 0.01541 0.02056
v 0.00255 -0.05139 0.01799
v 0.04369 -0.01798 0.00514
v -0.04113 -0.04625 0.01542
v 0.00255 0.04368 0.01799
v -0.04113 0.05138 0.00514
v -0.04113 0.03083 0.01542
v 0.04369 -0.02055 0.01028
v 0.01541 0.04882 0.01542
v -0.04113 -0.06169 0.01285
v 0.04369 -0.00001 0.02056
v 0.00514 -0.06169 0.01285
v 0.01027 0.04882 0.00514
v 0.00001 0.02311 0.02056
v 0.04369 0.00256 0.00514
v -0.00257 -0.02055 0.02056
v -0.02827 0.01541 0.01799
v 0.00255 0.05398 0.00771
v -0.00257 -0.05139 0.01799
v 0.01541 0.04882 0.01285
v 0.01027 -0.02055 0.02056
v -0.00770 -0.05910 0.01542
v -0.00513 0.05138 0.01285
v -0.00770 0.01541 0.02056
v 0.04369 0.00769 0.00771
v -0.00257 0.04882 0.01542
v 0.02827 0.07454 0.02056
v 0.02313 0.06940 0.01542
v 0.01799 0.06940 0.01799
v 0.02313 0.07454 0.01542
v 0.01799 0.07454 0.02056
v 0.02827 0.06940 0.02056
v 0.02827 0.07454 0.01542
v 0.04369 0.02826 0.04112
v -0.04113 -0.00770 0.03598
v -0.03341 -0.04111 0.03342
v 0.04369 0.01798 0.02056
v -0.04113 0.05653 0.03342
v 0.04112 -0.00513 0.04883
v 0.01799 -0.05652 0.02827
v -0.00770 -0.00770 0.02056
v -0.01028 0.01541 0.04883
v 0.01799 0.05653 0.04369
v -0.02313 -0.05912 0.03855
v 0.01285 0.04367 0.02313
v -0.04113 0.05653 0.04112
v 0.04369 -0.02055 0.03342
v 0.02055 -0.05395 0.03855
v -0.02055 -0.05912 0.02827
v 0.02055 0.05653 0.03084
v -0.02827 -0.02569 0.04369
v -0.04113 0.02312 0.03084
v 0.04369 -0.00256 0.02056
v -0.00513 0.01798 0.02056
v 0.04369 0.01541 0.04883
v 0.01285 -0.05395 0.02571
v -0.00257 -0.00770 0.04883
v -0.04113 -0.00513 0.04112
v 0.03598 0.04624 0.03855
v 0.00514 0.02826 0.04883
v 0.01285 -0.05138 0.04112
v 0.00001 -0.02055 0.02056
v 0.04369 -0.01541 0.04369
v 0.01285 -0.05912 0.03855
v -0.03084 -0.04881 0.03855
v 0.00514 0.04367 0.02313
v 0.03855 -0.03083 0.03342
v 0.03341 0.04881 0.03342
v 0.02055 0.05395 0.02827
v -0.02827 -0.05395 0.03084
v 0.03341 0.04881 0.04112
v -0.04113 0.03596 0.03084
v -0.00257 0.05653 0.04369
v 0.00001 -0.03854 0.04369
v 0.04369 0.02826 0.03084
v 0.01285 -0.05912 0.02827
v 0.03598 0.02312 0.04883
v 0.02569 0.05653 0.03855
v -0.02827 -0.04367 0.04112
v 0.00001 0.05395 0.02827
v 0.03855 -0.03083 0.03855
v -0.00257 -0.05395 0.02571
v 0.03598 -0.00770 0.04883
v -0.01028 0.00256 0.04883
v 0.02055 -0.05395 0.02827
v -0.01799 -0.04881 0.04112
v 0.03084 0.04624 0.04369
v 0.00514 -0.02055 0.02056
v -0.00770 0.01027 0.02056
v 0.00770 0.02055 0.02056
v -0.02569 -0.05912 0.03084
v -0.03084 -0.05138 0.03598
v 0.02826 0.05138 0.03084
v 0.04369 -0.01027 0.04626
v 0.02312 -0.05138 0.03855
v 0.01541 0.02826 0.04883
v -0.00770 -0.05138 0.04112
v 0.01541 0.07711 0.04369
v 0.01284 0.06940 0.02056
v -0.01027 0.05655 0.03084
v -0.04113 0.07711 0.03341
v 0.01284 0.05655 0.04369
v -0.04113 0.05655 0.04112
v 0.03083 0.07454 0.02313
v -0.00770 0.07711 0.04626
v 0.02569 0.05655 0.03341
v -0.04113 0.05655 0.03341
v 0.03083 0.07196 0.04112
v -0.04113 0.07454 0.04112
v 0.01284 0.07711 0.02570
v -0.03855 0.07454 0.03084
v 0.01284 0.07454 0.02056
v 0.02826 0.06940 0.02056
v 0.03083 0.06169 0.03855
v 0.01027 0.06940 0.04626
v 0.02055 0.05655 0.03084
v 0.02312 0.07711 0.03855
v -0.00001 0.06940 0.04626
v 0.03083 0.06426 0.04112
v 0.01284 0.07454 0.04626
v 0.02312 0.05655 0.04112
v -0.03598 0.07711 0.03084
v -0.04113 0.07711 0.03855
v 0.03083 0.06169 0.03341
v -0.00001 0.05655 0.04369
v 0.03083 0.07454 0.03855
v 0.02055 0.07711 0.02570
v 0.02826 0.07454 0.02056
v -0.03855 0.07196 0.03084
v -0.04113 -0.00771 -0.01285
v -0.05141 -0.02570 -0.01799
v -0.05141 -0.02570 -0.01285
v -0.04113 -0.04112 -0.02056
v -0.04113 -0.04112 -0.01028
v -0.04113 -0.01542 -0.02056
v -0.04627 -0.04112 -0.02056
v -0.04627 -0.01542 -0.01028
v -0.04884 -0.01542 -0.01799
v -0.04884 -0.02057 -0.02056
v -0.04884 -0.03598 -0.01285
v -0.04884 -0.02827 -0.01028
v -0.04113 -0.01285 -0.01028
v -0.04370 -0.00771 -0.01542
v -0.04370 0.01800 -0.01799
v -0.04113 0.03341 -0.01028
v -0.04113 0.04112 -0.01285
v -0.04627 0.03598 -0.01285
v -0.04113 0.03341 -0.02056
v -0.04113 0.01285 -0.01285
v -0.04627 0.03598 -0.01799
v -0.04627 0.02570 -0.01285
v -0.04370 0.02057 -0.01028
v -0.04370 0.04112 -0.01799
v 0.02826 -0.04626 -0.00000
v -0.00257 -0.04883 -0.02313
v -0.00257 -0.04112 -0.02313
v -0.04113 -0.05655 -0.00772
v -0.04113 -0.03598 -0.01028
v 0.03597 -0.05398 -0.00772
v -0.04113 -0.05655 -0.02056
v 0.01798 -0.03598 -0.01028
v -0.04113 -0.03598 -0.02056
v -0.00513 -0.03598 -0.00257
v 0.04111 -0.04626 -0.01028
v 0.00513 -0.05655 -0.01799
v 0.03340 -0.05398 -0.00000
v 0.00770 -0.03598 -0.02056
v 0.03854 -0.04626 -0.00000
v -0.02826 -0.05655 -0.00515
v 0.00770 -0.04626 -0.02313
v 0.03597 -0.05141 -0.01285
v 0.01027 -0.05655 -0.00772
v 0.00513 -0.03598 -0.00257
v -0.03341 -0.03598 -0.00772
v 0.00770 -0.04112 -0.02313
v -0.01285 -0.05655 -0.02056
v 0.02569 -0.05141 -0.00000
v 0.00513 -0.04883 -0.02313
v 0.03854 -0.05141 -0.00000
v 0.01798 -0.03598 -0.00772
v -0.02056 -0.05655 0.00257
v 0.00771 -0.03598 0.00514
v 0.03083 -0.04883 0.00514
v 0.03598 -0.04883 -0.00000
v -0.01542 -0.03598 0.00257
v -0.02056 -0.05655 0.00514
v -0.00000 -0.04626 -0.00000
v 0.00514 -0.05655 0.00514
v -0.01799 -0.03855 0.00514
v 0.03598 -0.05141 -0.00000
v 0.00771 -0.03598 0.00257
v -0.02056 -0.04369 0.00257
v 0.00514 -0.05655 0.00257
v 0.03083 -0.05141 0.00514
f 855 867 878 
f 819 816 827 
f 824 819 827 
f 818 815 828 
f 819 824 831 
f 817 816 833 
f 816 819 833 
f 822 830 833 
f 822 818 834 
f 818 828 834 
f 818 822 835 
f 823 820 836 
f 828 815 836 
f 820 823 838 
f 827 816 839 
f 823 827 839 
f 827 823 841 
f 823 836 841 
f 829 820 842 
f 830 822 843 
f 822 834 843 
f 828 836 844 
f 821 829 845 
f 825 830 845 
f 842 825 845 
f 829 842 845 
f 835 819 847 
f 834 828 848 
f 818 826 850 
f 826 847 850 
f 817 833 851 
f 833 830 851 
f 836 815 852 
f 815 840 852 
f 833 819 853 
f 822 833 853 
f 819 835 853 
f 824 827 854 
f 827 841 854 
f 841 824 854 
f 815 818 856 
f 840 815 856 
f 818 849 856 
f 849 840 856 
f 830 837 857 
f 837 821 857 
f 821 845 857 
f 845 830 857 
f 841 836 858 
f 831 824 859 
f 840 849 859 
f 824 852 859 
f 852 840 859 
f 838 832 860 
f 832 839 860 
f 846 825 860 
f 839 846 860 
f 819 831 861 
f 847 819 861 
f 831 850 861 
f 850 847 861 
f 828 844 862 
f 848 828 862 
f 837 830 863 
f 830 843 863 
f 843 837 863 
f 820 838 864 
f 842 820 864 
f 838 855 864 
f 855 842 864 
f 838 823 865 
f 832 838 865 
f 823 839 865 
f 839 832 865 
f 829 821 866 
f 821 837 866 
f 837 834 866 
f 834 848 866 
f 855 838 867 
f 838 860 867 
f 860 825 867 
f 852 824 868 
f 836 852 868 
f 824 858 868 
f 858 836 868 
f 834 837 869 
f 843 834 869 
f 837 843 869 
f 835 822 870 
f 822 853 870 
f 853 835 870 
f 826 818 871 
f 818 835 871 
f 847 826 871 
f 835 847 871 
f 830 825 872 
f 851 830 872 
f 851 872 873 
f 816 817 873 
f 839 816 873 
f 825 846 873 
f 846 839 873 
f 817 851 873 
f 872 825 873 
f 849 818 874 
f 818 850 874 
f 850 831 874 
f 831 859 874 
f 859 849 874 
f 820 829 875 
f 836 820 875 
f 844 836 875 
f 844 875 876 
f 862 844 876 
f 848 862 876 
f 829 866 876 
f 866 848 876 
f 875 829 876 
f 824 841 877 
f 858 824 877 
f 841 858 877 
f 825 842 878 
f 842 855 878 
f 867 825 878 
