# Original object name hint: convex_6
v -0.02057 0.02827 -0.06683
v -0.04626 -0.00513 -0.06426
v -0.04626 -0.00513 -0.06169
v -0.01800 -0.00770 -0.06683
v -0.01800 0.02827 -0.06169
v -0.01800 -0.00770 -0.06169
v -0.04369 0.01285 -0.06683
v -0.04369 0.01542 -0.06169
v -0.03855 -0.00770 -0.06683
v -0.03855 -0.01028 -0.06169
v -0.01800 0.02827 -0.06683
v -0.04626 0.00771 -0.06683
v 0.01798 0.01541 -0.06683
v -0.01799 -0.01027 -0.06683
v -0.01799 -0.01027 -0.06169
v 0.00257 -0.03855 -0.06425
v 0.00513 0.01799 -0.05141
v -0.01799 0.02827 -0.06683
v 0.00257 -0.00771 -0.07197
v 0.00770 -0.00514 -0.05141
v -0.00771 0.00514 -0.05141
v 0.01798 -0.01285 -0.06425
v -0.01542 0.03084 -0.06169
v -0.00514 0.01541 -0.07197
v 0.00000 -0.03855 -0.06169
v -0.00257 0.03084 -0.06425
v 0.02056 0.00514 -0.06169
v 0.01798 -0.00257 -0.06940
v -0.01028 -0.00000 -0.07197
v 0.00513 0.01541 -0.07197
v -0.00257 -0.00771 -0.05141
v -0.00257 -0.03340 -0.06683
v 0.01028 -0.02827 -0.06169
v -0.00771 0.01541 -0.05141
v -0.01799 0.02827 -0.06169
v 0.01798 0.01541 -0.06169
v 0.01028 -0.02570 -0.06683
v -0.01799 0.01799 -0.06940
v -0.00514 0.03084 -0.06683
v 0.01798 -0.01285 -0.06169
v 0.01798 0.01284 -0.06940
v -0.00257 0.03084 -0.06169
v 0.00770 0.01541 -0.05141
v -0.01285 -0.02055 -0.06169
v 0.01028 0.02056 -0.06940
v 0.01285 0.02056 -0.06169
v -0.01028 0.02570 -0.06940
v 0.02056 -0.00000 -0.06683
v 0.00770 -0.00257 -0.07197
v -0.01799 -0.00000 -0.06940
v 0.00257 -0.03855 -0.06169
v -0.00771 -0.00514 -0.07197
v 0.00257 -0.03340 -0.06683
v -0.00514 0.01799 -0.05141
v 0.02056 0.01027 -0.06683
v 0.01542 -0.01798 -0.06683
v -0.01028 -0.02312 -0.06683
v 0.06168 -0.05912 -0.04111
v 0.07711 -0.05655 0.03854
v 0.06939 -0.05655 0.03854
v 0.04883 -0.07454 0.03083
v 0.07196 -0.07196 -0.02055
v 0.04369 -0.06426 -0.03854
v 0.04369 -0.07454 -0.03597
v 0.04369 -0.06940 0.03340
v 0.05398 -0.05655 -0.00770
v 0.07454 -0.05655 -0.03597
v 0.06939 -0.07454 0.01027
v 0.07454 -0.06940 0.02826
v 0.06425 -0.07196 -0.03597
v 0.07711 -0.06426 -0.01284
v 0.05655 -0.05655 -0.03854
v 0.06168 -0.07454 -0.03083
v 0.07196 -0.06682 0.03597
v 0.04369 -0.06682 0.02312
v 0.06168 -0.05655 0.02569
v 0.04369 -0.07454 0.03083
v 0.07711 -0.05655 -0.02313
v 0.07711 -0.06682 0.00770
v 0.07454 -0.06426 -0.03083
v 0.06682 -0.07196 0.03083
v 0.05141 -0.07196 -0.03854
v 0.07196 -0.06169 -0.03854
v 0.04369 -0.06426 -0.01799
v 0.05655 -0.05655 0.01027
v 0.06939 -0.06169 0.03854
v 0.05398 -0.05655 -0.03340
v 0.06168 -0.07454 0.02569
v 0.04369 -0.07196 0.03340
v 0.07711 -0.05912 0.03854
v 0.06939 -0.07454 -0.00770
v 0.04369 -0.07196 -0.03854
v 0.06425 -0.05655 -0.04111
v 0.07454 -0.06940 -0.01799
v 0.06682 -0.07196 -0.03340
v 0.06168 -0.06940 -0.03854
v 0.07196 -0.04882 -0.04112
v 0.07453 0.06938 -0.00772
v 0.06425 0.06938 -0.00772
v 0.05398 -0.05652 -0.00772
v 0.04370 0.05139 -0.03341
v 0.07968 -0.05396 -0.00772
v 0.07710 0.05396 -0.03855
v 0.04370 -0.03340 -0.03855
v 0.04370 0.00515 -0.01029
v 0.06682 0.01541 -0.04369
v 0.06169 -0.05652 -0.04112
v 0.07968 0.05910 -0.00772
v 0.07968 0.00515 -0.03598
v 0.04370 -0.04882 -0.03341
v 0.06425 0.06938 -0.02827
v 0.07710 -0.05652 -0.02827
v 0.04370 0.02312 -0.03855
v 0.04370 0.04882 -0.02570
v 0.07453 0.00515 -0.04369
v 0.06939 0.05653 -0.03855
v 0.07453 0.06681 -0.03084
v 0.07968 0.05396 -0.03341
v 0.07453 -0.05396 -0.03855
v 0.07968 -0.04625 -0.02314
v 0.06939 0.06424 -0.03598
v 0.05655 -0.05652 -0.03855
v 0.04370 0.00001 -0.01029
v 0.07710 -0.05652 -0.00772
v 0.07453 0.02055 -0.04369
v 0.06682 -0.00255 -0.04369
v 0.06169 0.06938 -0.02314
v 0.07710 -0.05139 -0.03341
v 0.04370 -0.04882 -0.03598
v 0.07710 0.00259 -0.04112
v 0.04884 0.04882 -0.03598
v 0.07968 0.04882 -0.03598
v 0.07710 0.06681 -0.01029
v 0.04370 0.05139 -0.02827
v 0.06939 0.02055 -0.04369
v 0.07196 0.06938 -0.02827
v 0.06682 -0.05652 -0.04112
v 0.05398 -0.04111 -0.00772
v 0.05398 -0.05652 -0.02570
v 0.06169 0.04882 -0.03855
v 0.07710 0.06167 -0.03341
v 0.06682 0.06681 -0.03341
v -0.01028 -0.03598 0.06169
v 0.02570 -0.00771 0.06939
v 0.02570 -0.00771 0.06426
v -0.02570 -0.00771 0.06169
v -0.00000 -0.01029 0.07197
v -0.00514 -0.04112 0.06682
v 0.01285 -0.03855 0.06169
v -0.02570 -0.00771 0.06682
v 0.01028 -0.03855 0.06682
v 0.01542 -0.00771 0.06169
v 0.01542 -0.01029 0.07197
v -0.02056 -0.02057 0.06682
v 0.00514 -0.04369 0.06169
v -0.00000 -0.00771 0.07197
v 0.02570 -0.01029 0.06939
v -0.02313 -0.01799 0.06169
v 0.01028 -0.01286 0.07197
v -0.00257 -0.04369 0.06169
v 0.00514 -0.04112 0.06682
v 0.07711 -0.05652 -0.00771
v 0.07711 0.01027 0.06168
v 0.07967 0.02312 0.05910
v 0.06426 0.06938 -0.00771
v 0.06168 -0.05652 0.02571
v 0.07967 0.05910 -0.00771
v 0.06683 0.06167 0.03854
v 0.08225 -0.04111 0.03598
v 0.06168 -0.05652 -0.00771
v 0.06168 0.01027 0.04625
v 0.07967 0.06167 0.03854
v 0.07197 -0.05396 0.04112
v 0.08225 0.03340 0.04369
v 0.07967 -0.05396 -0.00771
v 0.06168 0.01284 -0.00771
v 0.07197 -0.00769 0.05910
v 0.07711 -0.05652 0.03854
v 0.08225 -0.01284 0.01800
v 0.07711 0.06681 0.04112
v 0.07967 -0.00769 0.05910
v 0.07197 0.01798 0.05910
v 0.07454 0.06938 -0.00771
v 0.06168 -0.02312 0.04112
v 0.06940 0.06681 0.04112
v 0.06168 0.02312 0.03854
v 0.08225 -0.00769 0.05139
v 0.06683 -0.05139 0.03854
v 0.06940 0.06938 0.03598
v 0.06426 0.06681 0.00772
v 0.07967 0.06424 0.02827
v 0.07967 -0.05652 0.01543
v 0.08225 0.03083 0.03340
v 0.08225 -0.03340 0.01800
v 0.06168 -0.00513 0.04625
v 0.08225 -0.03597 0.04112
v 0.08225 0.02055 0.05139
v 0.07454 0.06938 0.03598
v 0.07454 0.02312 0.05910
v 0.06683 0.06681 0.03340
v 0.07711 0.06681 -0.00771
v 0.07967 -0.05396 0.03340
v 0.06940 -0.05652 0.03854
v 0.07454 0.00259 0.06168
v 0.07967 -0.04625 0.04112
v 0.06940 0.00001 0.05654
v -0.07968 -0.04882 -0.03598
v -0.06169 0.06681 -0.00772
v -0.05655 0.05396 -0.02827
v -0.05655 -0.07197 -0.00772
v -0.05655 -0.06681 -0.04626
v -0.07968 0.05138 -0.00772
v -0.07454 0.05910 -0.03855
v -0.07454 -0.06681 -0.00772
v -0.08225 0.01798 -0.03855
v -0.05912 0.06681 -0.03598
v -0.06683 -0.06167 -0.04883
v -0.07968 -0.04625 -0.00772
v -0.06940 0.00255 -0.04626
v -0.07197 0.06938 -0.01800
v -0.07197 -0.06681 -0.04112
v -0.08225 -0.00002 -0.01543
v -0.07968 0.05396 -0.03084
v -0.08225 -0.01283 -0.03855
v -0.07454 0.00255 -0.04626
v -0.07454 -0.06167 -0.04369
v -0.05655 0.06681 -0.03341
v -0.06169 0.06166 -0.03855
v -0.06169 -0.07197 -0.02571
v -0.06683 0.06938 -0.03598
v -0.07968 -0.05395 -0.03341
v -0.05655 -0.05653 -0.04626
v -0.05655 -0.05395 -0.00772
v -0.08225 0.02826 -0.02571
v -0.07454 0.06424 -0.00772
v -0.07710 0.06166 -0.03084
v -0.07454 -0.06681 -0.03341
v -0.05912 0.06938 -0.02314
v -0.05655 -0.06938 -0.04369
v -0.07197 -0.06938 -0.01286
v -0.08225 -0.01541 -0.02827
v -0.07454 0.02569 -0.04369
v -0.06940 -0.06938 -0.03598
v -0.07968 -0.05395 -0.02314
v -0.07710 0.06166 -0.01286
v -0.07710 0.02054 -0.04369
v -0.07710 0.05138 -0.03855
v -0.06426 -0.05910 -0.04883
v -0.07197 -0.06167 -0.04626
v -0.05655 0.05138 -0.03598
v -0.06940 0.06938 -0.01286
v -0.08225 0.01541 -0.01543
v -0.07710 -0.02055 -0.04369
v -0.06169 -0.07197 -0.00772
v -0.05655 -0.07197 -0.03084
v -0.07710 -0.06167 -0.03598
v -0.07454 0.06681 -0.02571
v -0.07710 -0.05653 -0.04112
v -0.06426 -0.06681 -0.04626
v -0.06940 0.04625 -0.04112
v -0.07968 0.05396 -0.01029
v -0.06169 -0.07197 -0.00771
v -0.06940 -0.01284 0.01799
v -0.06683 0.05653 0.01542
v -0.07968 0.05139 -0.00771
v -0.07968 -0.04368 0.01799
v -0.06169 0.06683 -0.00771
v -0.05912 -0.06425 0.01799
v -0.07968 -0.04626 -0.00771
v -0.07711 0.05653 0.01285
v -0.05912 0.05910 0.00771
v -0.05912 -0.07197 -0.00771
v -0.07454 -0.06425 0.01028
v -0.07454 -0.06682 -0.00771
v -0.06940 0.06683 0.00771
v -0.07968 0.04883 0.01028
v -0.05912 0.04883 0.01285
v -0.06683 -0.06939 0.01285
v -0.07968 -0.01798 0.01799
v -0.05912 0.05397 -0.00000
v -0.07711 0.05910 -0.00771
v -0.07197 -0.06425 0.01799
v -0.05912 -0.03340 0.01799
v -0.06169 0.06425 0.01028
v -0.07454 0.05397 0.01542
v -0.05912 -0.07197 0.00771
v -0.06940 0.06683 -0.00771
v -0.07711 -0.05911 -0.00257
v -0.07711 0.05910 0.00771
v -0.05912 -0.05140 -0.00771
v -0.07197 0.06166 0.01285
v -0.06940 -0.06939 0.00514
v -0.07711 -0.05397 0.01799
v -0.06169 0.06683 0.00257
v -0.07197 -0.06168 0.01799
v -0.06940 0.00513 0.04112
v -0.07454 0.01285 0.03855
v -0.07711 -0.05139 0.03855
v -0.06169 -0.04626 0.03855
v -0.06169 -0.03598 0.01799
v -0.07968 -0.01800 0.01799
v -0.07968 0.01285 0.03855
v -0.06426 -0.00001 0.03598
v -0.07197 -0.01286 0.01799
v -0.07968 -0.04626 0.02313
v -0.06426 -0.06168 0.02056
v -0.07454 -0.04882 0.04112
v -0.07454 0.01285 0.03341
v -0.07968 -0.03855 0.03855
v -0.06683 -0.05397 0.03855
v -0.06683 -0.01800 0.01799
v -0.06426 -0.02570 0.04112
v -0.07711 0.00513 0.04112
v -0.07968 0.01285 0.03341
v -0.07968 -0.04369 0.01799
v -0.06169 -0.03083 0.03855
v -0.07454 -0.05397 0.03855
v -0.06426 -0.04369 0.04112
v -0.06426 -0.06168 0.01799
v -0.06426 -0.00001 0.03855
v -0.07454 -0.05910 0.01799
v -0.07968 -0.04626 0.03598
v -0.07711 -0.03598 0.04112
v -0.06169 -0.04111 0.01799
v -0.04627 -0.00257 0.03598
v -0.04113 0.00257 0.04112
v -0.04370 0.00257 0.04112
v -0.04113 -0.00514 0.04112
v -0.04113 0.00257 0.03598
v -0.06426 0.06939 0.04112
v -0.07968 0.01285 0.03341
v -0.07454 0.01285 0.03341
v -0.07197 0.05654 0.02056
v -0.05655 0.05397 0.03341
v -0.07968 0.05397 0.03341
v -0.07197 0.05140 0.04369
v -0.05655 0.05911 0.04369
v -0.07968 0.01285 0.03855
v -0.05655 0.07196 0.03598
v -0.07710 0.05654 0.02056
v -0.07454 0.06168 0.04112
v -0.07454 0.01285 0.03855
v -0.07197 0.05140 0.02056
v -0.05655 0.05140 0.04112
v -0.05655 0.06939 0.04369
v -0.07710 0.05397 0.04112
v -0.07968 0.05140 0.02570
v -0.07710 0.05911 0.02570
v -0.06940 0.06682 0.03598
v -0.07710 0.05140 0.02056
v -0.06426 0.03342 0.03598
v -0.05655 0.06425 0.03341
v -0.07197 0.05911 0.04369
v -0.05912 0.07196 0.03598
v -0.06426 0.05140 0.04369
v -0.06169 0.04113 0.03341
v -0.05140 0.06425 0.04369
v -0.05655 0.04884 0.03598
v -0.05655 0.04884 0.03855
v -0.04113 0.02314 0.03342
v -0.04113 0.07454 0.03342
v -0.04113 0.02571 0.04112
v -0.05398 0.02571 0.03342
v -0.05655 0.07196 0.03598
v -0.04113 0.07454 0.04112
v -0.05398 0.03342 0.04112
v -0.04627 0.03599 0.03084
v -0.05655 0.06939 0.04369
v -0.04113 0.02571 0.03084
v -0.05398 0.05654 0.03342
v -0.04884 0.02571 0.04112
v -0.05398 0.02571 0.03855
v -0.05655 0.06168 0.04369
v -0.04884 0.02314 0.03855
v -0.04370 0.07454 0.03342
v -0.04627 0.07454 0.04112
v 0.01542 -0.00514 0.04883
v 0.02827 0.02056 0.05141
v 0.03855 0.01285 0.05397
v -0.00514 0.01285 0.05911
v -0.00771 0.01542 0.04883
v -0.00257 -0.00514 0.05397
v 0.04112 0.00000 0.04883
v 0.03597 0.00000 0.05397
v 0.00258 0.00257 0.05911
v 0.03597 0.01799 0.04883
v -0.00771 0.00000 0.04883
v 0.00258 0.02056 0.04883
v 0.03855 -0.00257 0.05141
v 0.00258 0.01285 0.05911
v 0.00258 0.02056 0.05141
v -0.00514 0.00514 0.05911
v -0.00257 -0.00514 0.04883
v 0.00514 -0.00514 0.05397
v 0.04112 0.01285 0.04883
v -0.00771 0.00514 0.05397
v 0.03855 0.00257 0.05397
v -0.02827 -0.00771 0.06169
v 0.00770 0.03341 0.06939
v 0.01285 0.01798 0.07197
v 0.03598 0.00257 0.06169
v -0.00257 0.02313 0.05912
v 0.01798 -0.00771 0.07197
v -0.03084 0.01285 0.06682
v 0.00514 -0.00771 0.05912
v -0.00771 -0.00257 0.07197
v 0.03598 0.01285 0.06682
v -0.02827 0.01798 0.06169
v 0.02570 0.02056 0.06169
v -0.02827 -0.00771 0.06682
v 0.00000 0.03341 0.06426
v -0.02313 0.01542 0.06939
v 0.02826 -0.00771 0.06939
v -0.01541 0.01028 0.05912
v 0.01285 0.02056 0.05912
v 0.00000 0.03341 0.06939
v -0.03341 -0.00514 0.06169
v 0.03341 0.00772 0.06939
v -0.00257 0.01798 0.07197
v 0.02826 -0.00771 0.06426
v -0.03341 -0.00257 0.06682
v 0.00770 0.03341 0.06426
v 0.03598 0.01285 0.06169
v -0.02827 0.01798 0.06682
v -0.03341 0.00772 0.06169
v 0.01285 0.03084 0.06939
v 0.01541 0.00257 0.05912
v -0.00257 -0.00771 0.07197
v -0.00514 -0.00771 0.05912
v 0.03598 0.00257 0.06682
v 0.02055 0.00772 0.07197
v 0.03084 0.01285 0.06939
v 0.05911 -0.02570 0.03084
v 0.04627 0.01284 0.04883
v 0.05911 0.01799 0.04369
v 0.04369 0.01542 0.02056
v 0.04369 -0.01799 0.04112
v 0.06168 0.01542 0.02827
v 0.06168 -0.02313 0.04112
v 0.04369 0.02827 0.03855
v 0.04369 -0.00000 0.02056
v 0.06168 0.00771 0.04626
v 0.04369 -0.00000 0.04883
v 0.06168 -0.01799 0.02827
v 0.05397 0.02570 0.03084
v 0.04884 -0.02570 0.03598
v 0.04884 -0.00000 0.02056
v 0.06168 0.02055 0.03855
v 0.06168 -0.00257 0.04626
v 0.04369 0.02570 0.02827
v 0.04369 0.02055 0.04626
v 0.04369 -0.01542 0.03084
v 0.06168 -0.02827 0.03598
v 0.05141 -0.02313 0.04112
v 0.04627 0.01542 0.02056
v 0.05397 0.02570 0.03855
v 0.06168 0.02055 0.03084
v 0.05141 -0.02570 0.03342
v -0.04113 -0.04113 -0.03598
v -0.04370 -0.07453 -0.02057
v -0.05655 -0.07196 -0.03341
v -0.05655 -0.05655 -0.00771
v -0.05655 -0.04113 -0.03855
v -0.04113 -0.04113 -0.01029
v -0.04113 -0.06682 -0.04626
v -0.04113 -0.07453 -0.00771
v -0.05655 -0.07196 -0.00771
v -0.05655 -0.06682 -0.04626
v -0.04113 -0.07196 -0.04112
v -0.04113 -0.05911 -0.04626
v -0.05655 -0.04113 -0.03084
v -0.04627 -0.04113 -0.01286
v -0.05655 -0.05911 -0.04626
v -0.04113 -0.05398 -0.00771
v -0.04884 -0.07453 -0.00771
v -0.05655 -0.06939 -0.04369
v -0.04113 -0.04370 -0.03855
v -0.04370 -0.06940 0.01799
v -0.04884 -0.07454 -0.00771
v -0.04113 -0.07454 -0.00771
v -0.04113 -0.05141 0.00514
v -0.05912 -0.05141 0.01542
v -0.05912 -0.05398 -0.00771
v -0.05912 -0.07196 0.01028
v -0.04113 -0.07454 0.01542
v -0.04113 -0.05912 -0.00771
v -0.05912 -0.07196 -0.00771
v -0.04113 -0.05141 0.01285
v -0.05912 -0.06682 0.01542
v -0.05141 -0.07454 0.01028
v -0.05912 -0.05141 0.00514
v -0.04627 -0.07454 0.01542
v -0.04113 -0.06940 0.01799
v -0.04113 0.04626 0.01285
v -0.05912 -0.05141 0.00514
v -0.04884 -0.05141 0.00514
v -0.05912 -0.05141 0.01542
v -0.05912 0.05140 0.00514
v -0.04113 -0.04883 0.01542
v -0.04113 0.05140 0.00514
v -0.05912 0.04369 0.01285
v -0.04627 0.03083 0.01542
v -0.04113 -0.05141 0.00771
v -0.05912 0.05140 0.01028
v -0.04113 0.03083 0.01542
v -0.05141 0.02826 0.01542
v -0.04113 0.02055 0.00514
v -0.05912 -0.02312 0.01542
v -0.04113 0.05140 0.01028
v 0.00001 -0.07711 0.00514
v -0.00770 -0.06683 -0.05141
v -0.00770 -0.06169 -0.05141
v 0.04369 -0.06426 -0.03855
v -0.02055 -0.05655 0.00514
v -0.04113 -0.07454 -0.02313
v 0.04369 -0.06683 0.00514
v 0.04369 -0.07454 -0.03597
v -0.04113 -0.05655 -0.04368
v 0.04112 -0.05655 -0.03597
v -0.04113 -0.07454 0.00514
v -0.04113 -0.06939 -0.04626
v -0.04113 -0.05912 0.00514
v 0.04369 -0.07454 0.00514
v 0.00514 -0.07454 -0.04368
v 0.00514 -0.05655 0.00514
v -0.02313 -0.07711 -0.01542
v 0.01027 -0.05655 -0.04883
v 0.02569 -0.07197 -0.04626
v -0.03855 -0.07711 0.00514
v -0.03341 -0.07454 -0.03341
v 0.00514 -0.06939 -0.05141
v -0.04113 -0.05655 -0.00771
v -0.00257 -0.07711 -0.01542
v -0.04113 -0.05912 -0.04626
v 0.00770 -0.06169 -0.05141
v 0.04112 -0.05655 -0.03341
v -0.01285 -0.05655 -0.04883
v -0.04113 -0.07197 -0.04112
v 0.00001 -0.07197 -0.04883
v 0.01799 -0.07454 -0.04368
v 0.02569 -0.06426 -0.04626
v 0.04369 -0.07197 -0.03855
v -0.03341 -0.07711 -0.00771
v -0.00513 -0.06939 -0.05141
v -0.03855 -0.07711 0.01285
v 0.01285 -0.06169 0.01028
v 0.01285 -0.06169 0.00514
v 0.04369 -0.07454 0.00514
v 0.04369 -0.07454 0.02056
v -0.04113 -0.06426 0.01542
v -0.04113 -0.07454 0.00514
v 0.04369 -0.06683 0.02056
v -0.02569 -0.07454 0.02056
v -0.04113 -0.06169 0.00514
v -0.00513 -0.06426 0.02056
v 0.04369 -0.06683 0.00514
v -0.00257 -0.07711 0.00514
v -0.03341 -0.07711 0.01799
v -0.01285 -0.06169 0.01542
v -0.04113 -0.06940 0.01799
v 0.02569 -0.06426 0.02056
v -0.03855 -0.07711 0.00514
v -0.04113 -0.06169 0.01285
v -0.01028 -0.07711 0.01542
v -0.02569 -0.06940 0.02056
v 0.01541 -0.06426 0.04112
v -0.01799 -0.07453 0.02056
v -0.03084 -0.07710 0.03084
v 0.04369 -0.07453 0.03341
v -0.02055 -0.05912 0.02827
v 0.04369 -0.06683 0.02056
v -0.04113 -0.06683 0.03598
v 0.04369 -0.07453 0.02056
v 0.01541 -0.07197 0.04112
v 0.00770 -0.05912 0.03855
v 0.03341 -0.06683 0.04112
v -0.01542 -0.06683 0.02056
v -0.02313 -0.05912 0.03855
v -0.04113 -0.06939 0.03084
v -0.03598 -0.07453 0.03598
v 0.00770 -0.05912 0.02827
v 0.02826 -0.07453 0.03855
v -0.00513 -0.06426 0.02056
v 0.04369 -0.06683 0.03084
v -0.01799 -0.07710 0.03341
v -0.02313 -0.06939 0.03855
v -0.03598 -0.07453 0.02827
v -0.02569 -0.05912 0.03084
v 0.02055 -0.06426 0.02056
v 0.03084 -0.07197 0.04112
v 0.02826 -0.06426 0.04112
v 0.01027 -0.05912 0.03598
v -0.04113 -0.07197 0.03598
v 0.04369 -0.02055 0.00514
v 0.04626 0.01028 0.02056
v 0.04626 0.01028 0.01542
v 0.05140 -0.03598 0.00514
v 0.04883 -0.00000 0.00514
v 0.04626 -0.03598 0.01028
v 0.04369 -0.00000 0.02056
v 0.04369 0.00256 0.00514
v 0.05140 -0.03598 0.01028
v 0.04883 0.00513 0.01542
v 0.04369 0.01028 0.02056
v 0.04626 -0.03598 0.00514
v 0.04369 -0.02313 0.01028
v 0.04883 0.00513 0.00771
v 0.05140 -0.02827 0.00514
v 0.04626 -0.00000 0.02056
v 0.05397 -0.04112 -0.00771
v 0.06168 -0.03855 0.01799
v 0.05911 -0.03855 0.01799
v 0.06168 -0.02056 -0.00771
v 0.06168 -0.05655 -0.00771
v 0.05140 -0.03085 0.01028
v 0.05911 -0.05655 0.01799
v 0.05397 -0.05655 -0.00771
v 0.06168 -0.02313 0.00771
v 0.05911 -0.02056 -0.00771
v 0.05140 -0.03855 0.01028
v 0.06168 -0.05655 0.01799
v 0.05140 -0.03085 0.00514
v 0.05911 -0.03085 0.01542
v 0.05654 -0.05655 0.01028
v 0.05911 -0.02313 0.00771
v -0.04113 0.05398 -0.02828
v -0.05655 -0.04112 -0.03855
v -0.05655 -0.04112 -0.03085
v -0.04113 -0.04112 -0.03598
v -0.05655 0.04882 -0.03598
v -0.04113 0.05140 -0.03598
v -0.04113 -0.03084 -0.02570
v -0.05655 0.05140 -0.02828
v -0.05398 0.01541 -0.02570
v -0.04113 0.04882 -0.02570
v -0.05655 -0.02827 -0.02828
v -0.04113 -0.04112 -0.02828
v -0.05398 -0.03598 -0.03855
v -0.04884 0.05398 -0.03341
v -0.04627 -0.02827 -0.02570
v -0.04627 0.04626 -0.02570
v -0.05398 -0.00256 -0.02570
v 0.00514 -0.04626 -0.02570
v -0.00770 -0.05655 -0.04884
v -0.01799 -0.05655 -0.04626
v -0.00257 -0.03598 -0.04626
v 0.04369 -0.05398 -0.03599
v -0.04113 -0.03598 -0.02828
v 0.04112 -0.03598 -0.03085
v -0.02055 -0.05655 -0.03085
v 0.01541 -0.04626 -0.04884
v -0.04113 -0.05398 -0.03855
v 0.04369 -0.03598 -0.03855
v 0.04112 -0.05655 -0.03342
v -0.04113 -0.03598 -0.03599
v -0.04113 -0.04626 -0.02828
v 0.02055 -0.05655 -0.04626
v 0.00514 -0.03598 -0.02570
v 0.04369 -0.04883 -0.03085
v -0.01799 -0.04626 -0.02570
v -0.00513 -0.04626 -0.04884
v -0.00513 -0.05398 -0.02828
v 0.01285 -0.03598 -0.04626
v -0.04113 -0.04626 -0.03855
v -0.02313 -0.03598 -0.02570
v 0.03855 -0.05398 -0.03085
v 0.04369 -0.04626 -0.03855
v -0.04113 -0.05398 -0.03342
v 0.01541 -0.05398 -0.04884
v 0.00001 -0.04112 -0.04884
v 0.02055 -0.05655 -0.03085
v 0.03855 -0.05655 -0.03855
v -0.02569 -0.05655 -0.04112
v -0.01542 -0.05398 -0.02828
v -0.01799 0.04111 -0.04113
v -0.01799 0.01027 -0.00001
v -0.02057 0.01027 -0.00001
v -0.01799 -0.03598 -0.03598
v -0.04113 0.05140 -0.03598
v -0.04113 -0.03598 -0.01029
v -0.04113 -0.03598 -0.03598
v -0.02828 0.04882 -0.00772
v -0.01799 -0.03598 -0.00772
v -0.04113 0.03854 -0.01029
v -0.01799 0.05140 -0.01029
v -0.01799 0.05397 -0.03855
v -0.02314 0.00258 -0.04113
v -0.04113 0.05397 -0.02827
v -0.03855 0.03340 -0.00772
v -0.01799 -0.00513 -0.04113
v -0.03341 -0.03598 -0.00772
v -0.01799 0.04368 -0.00515
v -0.02057 0.00515 -0.00001
v -0.03341 0.02827 -0.03855
v -0.02314 0.03340 -0.04113
v -0.01799 0.05397 -0.02827
v -0.03855 0.01798 -0.00772
v -0.04113 0.05397 -0.03341
v -0.02571 0.05140 -0.01029
v -0.02057 -0.02312 -0.03855
v 0.00000 -0.01283 -0.05141
v 0.00000 0.06938 0.00514
v -0.00771 0.06938 0.00514
v -0.01285 -0.03598 0.00514
v 0.02569 -0.03598 -0.03084
v 0.02313 0.06938 -0.03084
v -0.01799 0.04882 -0.04112
v 0.01799 -0.00770 0.00514
v -0.01799 -0.03598 -0.03855
v -0.01799 0.01799 0.00514
v 0.01028 0.01543 -0.05141
v 0.02569 -0.03598 -0.04112
v -0.01028 0.06938 -0.03597
v 0.01028 -0.03598 0.00514
v 0.02569 0.05140 -0.03597
v 0.02313 0.01029 -0.00771
v -0.00771 0.02312 -0.05141
v -0.01799 0.05140 -0.00771
v 0.01799 0.01029 0.00514
v -0.01799 -0.03598 -0.00515
v 0.00771 0.06938 -0.03597
v 0.00513 0.06938 0.00256
v 0.00000 -0.03598 -0.04626
v -0.00771 0.07195 -0.00000
v 0.02569 0.01799 -0.04112
v 0.02313 0.06938 -0.02826
v -0.01799 0.00258 -0.04368
v -0.00771 -0.00255 -0.05141
v -0.01285 0.06938 -0.02826
v 0.00771 0.07195 -0.03341
v 0.02569 0.05140 -0.02826
v 0.00771 -0.01027 -0.05141
v 0.00513 0.02312 -0.05141
v 0.01285 -0.03340 0.00514
v -0.01799 -0.01541 0.00514
v 0.00257 0.07195 -0.00000
v -0.00771 0.07195 -0.03084
v 0.02313 -0.00255 -0.00771
v 0.00771 -0.03598 -0.04626
v -0.01799 0.05396 -0.03855
v 0.02569 -0.00770 -0.02570
v -0.01542 0.03854 0.00514
v 0.01799 0.06938 -0.03341
v -0.01799 0.02826 -0.04368
v 0.01028 -0.00513 -0.05141
v 0.01028 0.07195 -0.02570
v 0.04369 0.04882 -0.02570
v 0.02570 -0.03598 -0.04113
v 0.02827 -0.03598 -0.04113
v 0.02570 0.05140 -0.03598
v 0.02570 -0.00513 -0.02570
v 0.04369 -0.03598 -0.03855
v 0.04369 0.00515 -0.04113
v 0.04369 -0.03340 -0.03085
v 0.02570 0.05140 -0.02827
v 0.04369 0.05140 -0.03341
v 0.02570 -0.03598 -0.03085
v 0.02570 0.01541 -0.04113
v 0.03855 0.00258 -0.02570
v 0.03342 0.04882 -0.02570
v 0.04112 -0.03598 -0.03085
v 0.04112 0.02569 -0.03855
v 0.04369 -0.00513 -0.04113
v 0.02570 0.01541 -0.02570
v 0.03598 0.01284 -0.04113
v 0.02827 0.05140 -0.03598
v 0.04369 -0.00256 -0.02827
v 0.03598 -0.00256 -0.02570
v 0.04369 0.00257 -0.01028
v 0.02827 0.00257 -0.02056
v 0.02827 0.00514 -0.02056
v 0.04369 0.00000 -0.01799
v 0.03084 0.00000 -0.01285
v 0.04369 0.00514 -0.01799
v 0.03084 0.00514 -0.01285
v 0.04369 0.01284 0.01285
v -0.04113 -0.06169 0.00514
v 0.00514 -0.06169 0.00514
v -0.00257 0.05398 0.00514
v -0.01028 -0.00512 0.02056
v -0.04113 0.05138 0.01028
v 0.04369 0.01541 0.02056
v 0.00255 -0.05139 0.01799
v 0.04369 -0.01798 0.00514
v -0.04113 -0.04625 0.01542
v 0.00255 0.04368 0.01799
v -0.04113 0.05138 0.00514
v -0.04113 0.03083 0.01542
v 0.04369 -0.02055 0.01028
v 0.01541 0.04882 0.01542
v -0.04113 -0.06169 0.01285
v 0.04369 -0.00001 0.02056
v 0.00514 -0.06169 0.01285
v 0.01027 0.04882 0.00514
v 0.00001 0.02311 0.02056
v 0.04369 0.00256 0.00514
v -0.00257 -0.02055 0.02056
v -0.02827 0.01541 0.01799
v 0.00255 0.05398 0.00771
v -0.00257 -0.05139 0.01799
v 0.01541 0.04882 0.01285
v 0.01027 -0.02055 0.02056
v -0.00770 -0.05910 0.01542
v -0.00513 0.05138 0.01285
v -0.00770 0.01541 0.02056
v 0.04369 0.00769 0.00771
v -0.00257 0.04882 0.01542
v 0.02827 0.07454 0.02056
v 0.02313 0.06940 0.01542
v 0.01799 0.06940 0.01799
v 0.02313 0.07454 0.01542
v 0.01799 0.07454 0.02056
v 0.02827 0.06940 0.02056
v 0.02827 0.07454 0.01542
v 0.04369 0.02826 0.04112
v -0.04113 -0.00770 0.03598
v -0.03341 -0.04111 0.03342
v 0.04369 0.01798 0.02056
v -0.04113 0.05653 0.03342
v 0.04112 -0.00513 0.04883
v 0.01799 -0.05652 0.02827
v -0.00770 -0.00770 0.02056
v -0.01028 0.01541 0.04883
v 0.01799 0.05653 0.04369
v -0.02313 -0.05912 0.03855
v 0.01285 0.04367 0.02313
v -0.04113 0.05653 0.04112
v 0.04369 -0.02055 0.03342
v 0.02055 -0.05395 0.03855
v -0.02055 -0.05912 0.02827
v 0.02055 0.05653 0.03084
v -0.02827 -0.02569 0.04369
v -0.04113 0.02312 0.03084
v 0.04369 -0.00256 0.02056
v -0.00513 0.01798 0.02056
v 0.04369 0.01541 0.04883
v 0.01285 -0.05395 0.02571
v -0.00257 -0.00770 0.04883
v -0.04113 -0.00513 0.04112
v 0.03598 0.04624 0.03855
v 0.00514 0.02826 0.04883
v 0.01285 -0.05138 0.04112
v 0.00001 -0.02055 0.02056
v 0.04369 -0.01541 0.04369
v 0.01285 -0.05912 0.03855
v -0.03084 -0.04881 0.03855
v 0.00514 0.04367 0.02313
v 0.03855 -0.03083 0.03342
v 0.03341 0.04881 0.03342
v 0.02055 0.05395 0.02827
v -0.02827 -0.05395 0.03084
v 0.03341 0.04881 0.04112
v -0.04113 0.03596 0.03084
v -0.00257 0.05653 0.04369
v 0.00001 -0.03854 0.04369
v 0.04369 0.02826 0.03084
v 0.01285 -0.05912 0.02827
v 0.03598 0.02312 0.04883
v 0.02569 0.05653 0.03855
v -0.02827 -0.04367 0.04112
v 0.00001 0.05395 0.02827
v 0.03855 -0.03083 0.03855
v -0.00257 -0.05395 0.02571
v 0.03598 -0.00770 0.04883
v -0.01028 0.00256 0.04883
v 0.02055 -0.05395 0.02827
v -0.01799 -0.04881 0.04112
v 0.03084 0.04624 0.04369
v 0.00514 -0.02055 0.02056
v -0.00770 0.01027 0.02056
v 0.00770 0.02055 0.02056
v -0.02569 -0.05912 0.03084
v -0.03084 -0.05138 0.03598
v 0.02826 0.05138 0.03084
v 0.04369 -0.01027 0.04626
v 0.02312 -0.05138 0.03855
v 0.01541 0.02826 0.04883
v -0.00770 -0.05138 0.04112
v 0.01541 0.07711 0.04369
v 0.01284 0.06940 0.02056
v -0.01027 0.05655 0.03084
v -0.04113 0.07711 0.03341
v 0.01284 0.05655 0.04369
v -0.04113 0.05655 0.04112
v 0.03083 0.07454 0.02313
v -0.00770 0.07711 0.04626
v 0.02569 0.05655 0.03341
v -0.04113 0.05655 0.03341
v 0.03083 0.07196 0.04112
v -0.04113 0.07454 0.04112
v 0.01284 0.07711 0.02570
v -0.03855 0.07454 0.03084
v 0.01284 0.07454 0.02056
v 0.02826 0.06940 0.02056
v 0.03083 0.06169 0.03855
v 0.01027 0.06940 0.04626
v 0.02055 0.05655 0.03084
v 0.02312 0.07711 0.03855
v -0.00001 0.06940 0.04626
v 0.03083 0.06426 0.04112
v 0.01284 0.07454 0.04626
v 0.02312 0.05655 0.04112
v -0.03598 0.07711 0.03084
v -0.04113 0.07711 0.03855
v 0.03083 0.06169 0.03341
v -0.00001 0.05655 0.04369
v 0.03083 0.07454 0.03855
v 0.02055 0.07711 0.02570
v 0.02826 0.07454 0.02056
v -0.03855 0.07196 0.03084
v -0.04113 -0.00771 -0.01285
v -0.05141 -0.02570 -0.01799
v -0.05141 -0.02570 -0.01285
v -0.04113 -0.04112 -0.02056
v -0.04113 -0.04112 -0.01028
v -0.04113 -0.01542 -0.02056
v -0.04627 -0.04112 -0.02056
v -0.04627 -0.01542 -0.01028
v -0.04884 -0.01542 -0.01799
v -0.04884 -0.02057 -0.02056
v -0.04884 -0.03598 -0.01285
v -0.04884 -0.02827 -0.01028
v -0.04113 -0.01285 -0.01028
v -0.04370 -0.00771 -0.01542
v -0.04370 0.01800 -0.01799
v -0.04113 0.03341 -0.01028
v -0.04113 0.04112 -0.01285
v -0.04627 0.03598 -0.01285
v -0.04113 0.03341 -0.02056
v -0.04113 0.01285 -0.01285
v -0.04627 0.03598 -0.01799
v -0.04627 0.02570 -0.01285
v -0.04370 0.02057 -0.01028
v -0.04370 0.04112 -0.01799
v 0.02826 -0.04626 -0.00000
v -0.00257 -0.04883 -0.02313
v -0.00257 -0.04112 -0.02313
v -0.04113 -0.05655 -0.00772
v -0.04113 -0.03598 -0.01028
v 0.03597 -0.05398 -0.00772
v -0.04113 -0.05655 -0.02056
v 0.01798 -0.03598 -0.01028
v -0.04113 -0.03598 -0.02056
v -0.00513 -0.03598 -0.00257
v 0.04111 -0.04626 -0.01028
v 0.00513 -0.05655 -0.01799
v 0.03340 -0.05398 -0.00000
v 0.00770 -0.03598 -0.02056
v 0.03854 -0.04626 -0.00000
v -0.02826 -0.05655 -0.00515
v 0.00770 -0.04626 -0.02313
v 0.03597 -0.05141 -0.01285
v 0.01027 -0.05655 -0.00772
v 0.00513 -0.03598 -0.00257
v -0.03341 -0.03598 -0.00772
v 0.00770 -0.04112 -0.02313
v -0.01285 -0.05655 -0.02056
v 0.02569 -0.05141 -0.00000
v 0.00513 -0.04883 -0.02313
v 0.03854 -0.05141 -0.00000
v 0.01798 -0.03598 -0.00772
v -0.02056 -0.05655 0.00257
v 0.00771 -0.03598 0.00514
v 0.03083 -0.04883 0.00514
v 0.03598 -0.04883 -0.00000
v -0.01542 -0.03598 0.00257
v -0.02056 -0.05655 0.00514
v -0.00000 -0.04626 -0.00000
v 0.00514 -0.05655 0.00514
v -0.01799 -0.03855 0.00514
v 0.03598 -0.05141 -0.00000
v 0.00771 -0.03598 0.00257
v -0.02056 -0.04369 0.00257
v 0.00514 -0.05655 0.00257
v 0.03083 -0.05141 0.00514
f 235 245 261 
f 209 210 211 
f 210 208 212 
f 210 212 214 
f 214 212 218 
f 218 212 222 
f 222 215 224 
f 224 215 225 
f 208 209 227 
f 209 211 227 
f 227 216 230 
f 216 228 230 
f 228 213 230 
f 224 207 231 
f 227 211 232 
f 219 228 232 
f 209 208 233 
f 210 209 233 
f 208 210 233 
f 215 222 234 
f 223 215 234 
f 212 208 235 
f 213 223 236 
f 230 213 236 
f 226 221 237 
f 208 227 238 
f 230 220 238 
f 227 230 238 
f 211 210 239 
f 214 237 240 
f 218 222 241 
f 222 224 241 
f 224 231 241 
f 219 225 242 
f 237 221 243 
f 229 240 243 
f 240 237 243 
f 214 218 244 
f 218 241 244 
f 241 231 244 
f 235 220 245 
f 236 223 245 
f 225 215 246 
f 213 242 246 
f 242 225 246 
f 215 223 247 
f 223 213 247 
f 213 246 247 
f 246 215 247 
f 211 217 248 
f 225 219 248 
f 217 225 248 
f 232 211 248 
f 219 232 248 
f 225 217 249 
f 221 226 249 
f 216 227 250 
f 228 216 250 
f 227 232 250 
f 232 228 250 
f 235 208 251 
f 220 235 251 
f 208 238 251 
f 238 220 251 
f 222 212 252 
f 234 222 252 
f 212 234 252 
f 224 225 253 
f 226 224 253 
f 225 249 253 
f 249 226 253 
f 210 214 254 
f 229 210 254 
f 214 240 254 
f 240 229 254 
f 210 229 255 
f 239 210 255 
f 243 239 255 
f 229 243 255 
f 226 237 256 
f 237 214 256 
f 214 244 256 
f 244 231 256 
f 220 230 257 
f 230 236 257 
f 245 220 257 
f 236 245 257 
f 207 224 258 
f 224 226 258 
f 231 207 258 
f 226 256 258 
f 256 231 258 
f 217 211 259 
f 211 239 259 
f 243 221 259 
f 239 243 259 
f 249 217 259 
f 221 249 259 
f 213 228 260 
f 228 219 260 
f 242 213 260 
f 219 242 260 
f 234 212 261 
f 223 234 261 
f 212 235 261 
f 245 223 261 
