# Original object name hint: convex_3
v -0.02057 0.02827 -0.06683
v -0.04626 -0.00513 -0.06426
v -0.04626 -0.00513 -0.06169
v -0.01800 -0.00770 -0.06683
v -0.01800 0.02827 -0.06169
v -0.01800 -0.00770 -0.06169
v -0.04369 0.01285 -0.06683
v -0.04369 0.01542 -0.06169
v -0.03855 -0.00770 -0.06683
v -0.03855 -0.01028 -0.06169
v -0.01800 0.02827 -0.06683
v -0.04626 0.00771 -0.06683
v 0.01798 0.01541 -0.06683
v -0.01799 -0.01027 -0.06683
v -0.01799 -0.01027 -0.06169
v 0.00257 -0.03855 -0.06425
v 0.00513 0.01799 -0.05141
v -0.01799 0.02827 -0.06683
v 0.00257 -0.00771 -0.07197
v 0.00770 -0.00514 -0.05141
v -0.00771 0.00514 -0.05141
v 0.01798 -0.01285 -0.06425
v -0.01542 0.03084 -0.06169
v -0.00514 0.01541 -0.07197
v 0.00000 -0.03855 -0.06169
v -0.00257 0.03084 -0.06425
v 0.02056 0.00514 -0.06169
v 0.01798 -0.00257 -0.06940
v -0.01028 -0.00000 -0.07197
v 0.00513 0.01541 -0.07197
v -0.00257 -0.00771 -0.05141
v -0.00257 -0.03340 -0.06683
v 0.01028 -0.02827 -0.06169
v -0.00771 0.01541 -0.05141
v -0.01799 0.02827 -0.06169
v 0.01798 0.01541 -0.06169
v 0.01028 -0.02570 -0.06683
v -0.01799 0.01799 -0.06940
v -0.00514 0.03084 -0.06683
v 0.01798 -0.01285 -0.06169
v 0.01798 0.01284 -0.06940
v -0.00257 0.03084 -0.06169
v 0.00770 0.01541 -0.05141
v -0.01285 -0.02055 -0.06169
v 0.01028 0.02056 -0.06940
v 0.01285 0.02056 -0.06169
v -0.01028 0.02570 -0.06940
v 0.02056 -0.00000 -0.06683
v 0.00770 -0.00257 -0.07197
v -0.01799 -0.00000 -0.06940
v 0.00257 -0.03855 -0.06169
v -0.00771 -0.00514 -0.07197
v 0.00257 -0.03340 -0.06683
v -0.00514 0.01799 -0.05141
v 0.02056 0.01027 -0.06683
v 0.01542 -0.01798 -0.06683
v -0.01028 -0.02312 -0.06683
v 0.06168 -0.05912 -0.04111
v 0.07711 -0.05655 0.03854
v 0.06939 -0.05655 0.03854
v 0.04883 -0.07454 0.03083
v 0.07196 -0.07196 -0.02055
v 0.04369 -0.06426 -0.03854
v 0.04369 -0.07454 -0.03597
v 0.04369 -0.06940 0.03340
v 0.05398 -0.05655 -0.00770
v 0.07454 -0.05655 -0.03597
v 0.06939 -0.07454 0.01027
v 0.07454 -0.06940 0.02826
v 0.06425 -0.07196 -0.03597
v 0.07711 -0.06426 -0.01284
v 0.05655 -0.05655 -0.03854
v 0.06168 -0.07454 -0.03083
v 0.07196 -0.06682 0.03597
v 0.04369 -0.06682 0.02312
v 0.06168 -0.05655 0.02569
v 0.04369 -0.07454 0.03083
v 0.07711 -0.05655 -0.02313
v 0.07711 -0.06682 0.00770
v 0.07454 -0.06426 -0.03083
v 0.06682 -0.07196 0.03083
v 0.05141 -0.07196 -0.03854
v 0.07196 -0.06169 -0.03854
v 0.04369 -0.06426 -0.01799
v 0.05655 -0.05655 0.01027
v 0.06939 -0.06169 0.03854
v 0.05398 -0.05655 -0.03340
v 0.06168 -0.07454 0.02569
v 0.04369 -0.07196 0.03340
v 0.07711 -0.05912 0.03854
v 0.06939 -0.07454 -0.00770
v 0.04369 -0.07196 -0.03854
v 0.06425 -0.05655 -0.04111
v 0.07454 -0.06940 -0.01799
v 0.06682 -0.07196 -0.03340
v 0.06168 -0.06940 -0.03854
v 0.07196 -0.04882 -0.04112
v 0.07453 0.06938 -0.00772
v 0.06425 0.06938 -0.00772
v 0.05398 -0.05652 -0.00772
v 0.04370 0.05139 -0.03341
v 0.07968 -0.05396 -0.00772
v 0.07710 0.05396 -0.03855
v 0.04370 -0.03340 -0.03855
v 0.04370 0.00515 -0.01029
v 0.06682 0.01541 -0.04369
v 0.06169 -0.05652 -0.04112
v 0.07968 0.05910 -0.00772
v 0.07968 0.00515 -0.03598
v 0.04370 -0.04882 -0.03341
v 0.06425 0.06938 -0.02827
v 0.07710 -0.05652 -0.02827
v 0.04370 0.02312 -0.03855
v 0.04370 0.04882 -0.02570
v 0.07453 0.00515 -0.04369
v 0.06939 0.05653 -0.03855
v 0.07453 0.06681 -0.03084
v 0.07968 0.05396 -0.03341
v 0.07453 -0.05396 -0.03855
v 0.07968 -0.04625 -0.02314
v 0.06939 0.06424 -0.03598
v 0.05655 -0.05652 -0.03855
v 0.04370 0.00001 -0.01029
v 0.07710 -0.05652 -0.00772
v 0.07453 0.02055 -0.04369
v 0.06682 -0.00255 -0.04369
v 0.06169 0.06938 -0.02314
v 0.07710 -0.05139 -0.03341
v 0.04370 -0.04882 -0.03598
v 0.07710 0.00259 -0.04112
v 0.04884 0.04882 -0.03598
v 0.07968 0.04882 -0.03598
v 0.07710 0.06681 -0.01029
v 0.04370 0.05139 -0.02827
v 0.06939 0.02055 -0.04369
v 0.07196 0.06938 -0.02827
v 0.06682 -0.05652 -0.04112
v 0.05398 -0.04111 -0.00772
v 0.05398 -0.05652 -0.02570
v 0.06169 0.04882 -0.03855
v 0.07710 0.06167 -0.03341
v 0.06682 0.06681 -0.03341
v -0.01028 -0.03598 0.06169
v 0.02570 -0.00771 0.06939
v 0.02570 -0.00771 0.06426
v -0.02570 -0.00771 0.06169
v -0.00000 -0.01029 0.07197
v -0.00514 -0.04112 0.06682
v 0.01285 -0.03855 0.06169
v -0.02570 -0.00771 0.06682
v 0.01028 -0.03855 0.06682
v 0.01542 -0.00771 0.06169
v 0.01542 -0.01029 0.07197
v -0.02056 -0.02057 0.06682
v 0.00514 -0.04369 0.06169
v -0.00000 -0.00771 0.07197
v 0.02570 -0.01029 0.06939
v -0.02313 -0.01799 0.06169
v 0.01028 -0.01286 0.07197
v -0.00257 -0.04369 0.06169
v 0.00514 -0.04112 0.06682
v 0.07711 -0.05652 -0.00771
v 0.07711 0.01027 0.06168
v 0.07967 0.02312 0.05910
v 0.06426 0.06938 -0.00771
v 0.06168 -0.05652 0.02571
v 0.07967 0.05910 -0.00771
v 0.06683 0.06167 0.03854
v 0.08225 -0.04111 0.03598
v 0.06168 -0.05652 -0.00771
v 0.06168 0.01027 0.04625
v 0.07967 0.06167 0.03854
v 0.07197 -0.05396 0.04112
v 0.08225 0.03340 0.04369
v 0.07967 -0.05396 -0.00771
v 0.06168 0.01284 -0.00771
v 0.07197 -0.00769 0.05910
v 0.07711 -0.05652 0.03854
v 0.08225 -0.01284 0.01800
v 0.07711 0.06681 0.04112
v 0.07967 -0.00769 0.05910
v 0.07197 0.01798 0.05910
v 0.07454 0.06938 -0.00771
v 0.06168 -0.02312 0.04112
v 0.06940 0.06681 0.04112
v 0.06168 0.02312 0.03854
v 0.08225 -0.00769 0.05139
v 0.06683 -0.05139 0.03854
v 0.06940 0.06938 0.03598
v 0.06426 0.06681 0.00772
v 0.07967 0.06424 0.02827
v 0.07967 -0.05652 0.01543
v 0.08225 0.03083 0.03340
v 0.08225 -0.03340 0.01800
v 0.06168 -0.00513 0.04625
v 0.08225 -0.03597 0.04112
v 0.08225 0.02055 0.05139
v 0.07454 0.06938 0.03598
v 0.07454 0.02312 0.05910
v 0.06683 0.06681 0.03340
v 0.07711 0.06681 -0.00771
v 0.07967 -0.05396 0.03340
v 0.06940 -0.05652 0.03854
v 0.07454 0.00259 0.06168
v 0.07967 -0.04625 0.04112
v 0.06940 0.00001 0.05654
v -0.07968 -0.04882 -0.03598
v -0.06169 0.06681 -0.00772
v -0.05655 0.05396 -0.02827
v -0.05655 -0.07197 -0.00772
v -0.05655 -0.06681 -0.04626
v -0.07968 0.05138 -0.00772
v -0.07454 0.05910 -0.03855
v -0.07454 -0.06681 -0.00772
v -0.08225 0.01798 -0.03855
v -0.05912 0.06681 -0.03598
v -0.06683 -0.06167 -0.04883
v -0.07968 -0.04625 -0.00772
v -0.06940 0.00255 -0.04626
v -0.07197 0.06938 -0.01800
v -0.07197 -0.06681 -0.04112
v -0.08225 -0.00002 -0.01543
v -0.07968 0.05396 -0.03084
v -0.08225 -0.01283 -0.03855
v -0.07454 0.00255 -0.04626
v -0.07454 -0.06167 -0.04369
v -0.05655 0.06681 -0.03341
v -0.06169 0.06166 -0.03855
v -0.06169 -0.07197 -0.02571
v -0.06683 0.06938 -0.03598
v -0.07968 -0.05395 -0.03341
v -0.05655 -0.05653 -0.04626
v -0.05655 -0.05395 -0.00772
v -0.08225 0.02826 -0.02571
v -0.07454 0.06424 -0.00772
v -0.07710 0.06166 -0.03084
v -0.07454 -0.06681 -0.03341
v -0.05912 0.06938 -0.02314
v -0.05655 -0.06938 -0.04369
v -0.07197 -0.06938 -0.01286
v -0.08225 -0.01541 -0.02827
v -0.07454 0.02569 -0.04369
v -0.06940 -0.06938 -0.03598
v -0.07968 -0.05395 -0.02314
v -0.07710 0.06166 -0.01286
v -0.07710 0.02054 -0.04369
v -0.07710 0.05138 -0.03855
v -0.06426 -0.05910 -0.04883
v -0.07197 -0.06167 -0.04626
v -0.05655 0.05138 -0.03598
v -0.06940 0.06938 -0.01286
v -0.08225 0.01541 -0.01543
v -0.07710 -0.02055 -0.04369
v -0.06169 -0.07197 -0.00772
v -0.05655 -0.07197 -0.03084
v -0.07710 -0.06167 -0.03598
v -0.07454 0.06681 -0.02571
v -0.07710 -0.05653 -0.04112
v -0.06426 -0.06681 -0.04626
v -0.06940 0.04625 -0.04112
v -0.07968 0.05396 -0.01029
v -0.06169 -0.07197 -0.00771
v -0.06940 -0.01284 0.01799
v -0.06683 0.05653 0.01542
v -0.07968 0.05139 -0.00771
v -0.07968 -0.04368 0.01799
v -0.06169 0.06683 -0.00771
v -0.05912 -0.06425 0.01799
v -0.07968 -0.04626 -0.00771
v -0.07711 0.05653 0.01285
v -0.05912 0.05910 0.00771
v -0.05912 -0.07197 -0.00771
v -0.07454 -0.06425 0.01028
v -0.07454 -0.06682 -0.00771
v -0.06940 0.06683 0.00771
v -0.07968 0.04883 0.01028
v -0.05912 0.04883 0.01285
v -0.06683 -0.06939 0.01285
v -0.07968 -0.01798 0.01799
v -0.05912 0.05397 -0.00000
v -0.07711 0.05910 -0.00771
v -0.07197 -0.06425 0.01799
v -0.05912 -0.03340 0.01799
v -0.06169 0.06425 0.01028
v -0.07454 0.05397 0.01542
v -0.05912 -0.07197 0.00771
v -0.06940 0.06683 -0.00771
v -0.07711 -0.05911 -0.00257
v -0.07711 0.05910 0.00771
v -0.05912 -0.05140 -0.00771
v -0.07197 0.06166 0.01285
v -0.06940 -0.06939 0.00514
v -0.07711 -0.05397 0.01799
v -0.06169 0.06683 0.00257
v -0.07197 -0.06168 0.01799
v -0.06940 0.00513 0.04112
v -0.07454 0.01285 0.03855
v -0.07711 -0.05139 0.03855
v -0.06169 -0.04626 0.03855
v -0.06169 -0.03598 0.01799
v -0.07968 -0.01800 0.01799
v -0.07968 0.01285 0.03855
v -0.06426 -0.00001 0.03598
v -0.07197 -0.01286 0.01799
v -0.07968 -0.04626 0.02313
v -0.06426 -0.06168 0.02056
v -0.07454 -0.04882 0.04112
v -0.07454 0.01285 0.03341
v -0.07968 -0.03855 0.03855
v -0.06683 -0.05397 0.03855
v -0.06683 -0.01800 0.01799
v -0.06426 -0.02570 0.04112
v -0.07711 0.00513 0.04112
v -0.07968 0.01285 0.03341
v -0.07968 -0.04369 0.01799
v -0.06169 -0.03083 0.03855
v -0.07454 -0.05397 0.03855
v -0.06426 -0.04369 0.04112
v -0.06426 -0.06168 0.01799
v -0.06426 -0.00001 0.03855
v -0.07454 -0.05910 0.01799
v -0.07968 -0.04626 0.03598
v -0.07711 -0.03598 0.04112
v -0.06169 -0.04111 0.01799
v -0.04627 -0.00257 0.03598
v -0.04113 0.00257 0.04112
v -0.04370 0.00257 0.04112
v -0.04113 -0.00514 0.04112
v -0.04113 0.00257 0.03598
v -0.06426 0.06939 0.04112
v -0.07968 0.01285 0.03341
v -0.07454 0.01285 0.03341
v -0.07197 0.05654 0.02056
v -0.05655 0.05397 0.03341
v -0.07968 0.05397 0.03341
v -0.07197 0.05140 0.04369
v -0.05655 0.05911 0.04369
v -0.07968 0.01285 0.03855
v -0.05655 0.07196 0.03598
v -0.07710 0.05654 0.02056
v -0.07454 0.06168 0.04112
v -0.07454 0.01285 0.03855
v -0.07197 0.05140 0.02056
v -0.05655 0.05140 0.04112
v -0.05655 0.06939 0.04369
v -0.07710 0.05397 0.04112
v -0.07968 0.05140 0.02570
v -0.07710 0.05911 0.02570
v -0.06940 0.06682 0.03598
v -0.07710 0.05140 0.02056
v -0.06426 0.03342 0.03598
v -0.05655 0.06425 0.03341
v -0.07197 0.05911 0.04369
v -0.05912 0.07196 0.03598
v -0.06426 0.05140 0.04369
v -0.06169 0.04113 0.03341
v -0.05140 0.06425 0.04369
v -0.05655 0.04884 0.03598
v -0.05655 0.04884 0.03855
v -0.04113 0.02314 0.03342
v -0.04113 0.07454 0.03342
v -0.04113 0.02571 0.04112
v -0.05398 0.02571 0.03342
v -0.05655 0.07196 0.03598
v -0.04113 0.07454 0.04112
v -0.05398 0.03342 0.04112
v -0.04627 0.03599 0.03084
v -0.05655 0.06939 0.04369
v -0.04113 0.02571 0.03084
v -0.05398 0.05654 0.03342
v -0.04884 0.02571 0.04112
v -0.05398 0.02571 0.03855
v -0.05655 0.06168 0.04369
v -0.04884 0.02314 0.03855
v -0.04370 0.07454 0.03342
v -0.04627 0.07454 0.04112
v 0.01542 -0.00514 0.04883
v 0.02827 0.02056 0.05141
v 0.03855 0.01285 0.05397
v -0.00514 0.01285 0.05911
v -0.00771 0.01542 0.04883
v -0.00257 -0.00514 0.05397
v 0.04112 0.00000 0.04883
v 0.03597 0.00000 0.05397
v 0.00258 0.00257 0.05911
v 0.03597 0.01799 0.04883
v -0.00771 0.00000 0.04883
v 0.00258 0.02056 0.04883
v 0.03855 -0.00257 0.05141
v 0.00258 0.01285 0.05911
v 0.00258 0.02056 0.05141
v -0.00514 0.00514 0.05911
v -0.00257 -0.00514 0.04883
v 0.00514 -0.00514 0.05397
v 0.04112 0.01285 0.04883
v -0.00771 0.00514 0.05397
v 0.03855 0.00257 0.05397
v -0.02827 -0.00771 0.06169
v 0.00770 0.03341 0.06939
v 0.01285 0.01798 0.07197
v 0.03598 0.00257 0.06169
v -0.00257 0.02313 0.05912
v 0.01798 -0.00771 0.07197
v -0.03084 0.01285 0.06682
v 0.00514 -0.00771 0.05912
v -0.00771 -0.00257 0.07197
v 0.03598 0.01285 0.06682
v -0.02827 0.01798 0.06169
v 0.02570 0.02056 0.06169
v -0.02827 -0.00771 0.06682
v 0.00000 0.03341 0.06426
v -0.02313 0.01542 0.06939
v 0.02826 -0.00771 0.06939
v -0.01541 0.01028 0.05912
v 0.01285 0.02056 0.05912
v 0.00000 0.03341 0.06939
v -0.03341 -0.00514 0.06169
v 0.03341 0.00772 0.06939
v -0.00257 0.01798 0.07197
v 0.02826 -0.00771 0.06426
v -0.03341 -0.00257 0.06682
v 0.00770 0.03341 0.06426
v 0.03598 0.01285 0.06169
v -0.02827 0.01798 0.06682
v -0.03341 0.00772 0.06169
v 0.01285 0.03084 0.06939
v 0.01541 0.00257 0.05912
v -0.00257 -0.00771 0.07197
v -0.00514 -0.00771 0.05912
v 0.03598 0.00257 0.06682
v 0.02055 0.00772 0.07197
v 0.03084 0.01285 0.06939
v 0.05911 -0.02570 0.03084
v 0.04627 0.01284 0.04883
v 0.05911 0.01799 0.04369
v 0.04369 0.01542 0.02056
v 0.04369 -0.01799 0.04112
v 0.06168 0.01542 0.02827
v 0.06168 -0.02313 0.04112
v 0.04369 0.02827 0.03855
v 0.04369 -0.00000 0.02056
v 0.06168 0.00771 0.04626
v 0.04369 -0.00000 0.04883
v 0.06168 -0.01799 0.02827
v 0.05397 0.02570 0.03084
v 0.04884 -0.02570 0.03598
v 0.04884 -0.00000 0.02056
v 0.06168 0.02055 0.03855
v 0.06168 -0.00257 0.04626
v 0.04369 0.02570 0.02827
v 0.04369 0.02055 0.04626
v 0.04369 -0.01542 0.03084
v 0.06168 -0.02827 0.03598
v 0.05141 -0.02313 0.04112
v 0.04627 0.01542 0.02056
v 0.05397 0.02570 0.03855
v 0.06168 0.02055 0.03084
v 0.05141 -0.02570 0.03342
v -0.04113 -0.04113 -0.03598
v -0.04370 -0.07453 -0.02057
v -0.05655 -0.07196 -0.03341
v -0.05655 -0.05655 -0.00771
v -0.05655 -0.04113 -0.03855
v -0.04113 -0.04113 -0.01029
v -0.04113 -0.06682 -0.04626
v -0.04113 -0.07453 -0.00771
v -0.05655 -0.07196 -0.00771
v -0.05655 -0.06682 -0.04626
v -0.04113 -0.07196 -0.04112
v -0.04113 -0.05911 -0.04626
v -0.05655 -0.04113 -0.03084
v -0.04627 -0.04113 -0.01286
v -0.05655 -0.05911 -0.04626
v -0.04113 -0.05398 -0.00771
v -0.04884 -0.07453 -0.00771
v -0.05655 -0.06939 -0.04369
v -0.04113 -0.04370 -0.03855
v -0.04370 -0.06940 0.01799
v -0.04884 -0.07454 -0.00771
v -0.04113 -0.07454 -0.00771
v -0.04113 -0.05141 0.00514
v -0.05912 -0.05141 0.01542
v -0.05912 -0.05398 -0.00771
v -0.05912 -0.07196 0.01028
v -0.04113 -0.07454 0.01542
v -0.04113 -0.05912 -0.00771
v -0.05912 -0.07196 -0.00771
v -0.04113 -0.05141 0.01285
v -0.05912 -0.06682 0.01542
v -0.05141 -0.07454 0.01028
v -0.05912 -0.05141 0.00514
v -0.04627 -0.07454 0.01542
v -0.04113 -0.06940 0.01799
v -0.04113 0.04626 0.01285
v -0.05912 -0.05141 0.00514
v -0.04884 -0.05141 0.00514
v -0.05912 -0.05141 0.01542
v -0.05912 0.05140 0.00514
v -0.04113 -0.04883 0.01542
v -0.04113 0.05140 0.00514
v -0.05912 0.04369 0.01285
v -0.04627 0.03083 0.01542
v -0.04113 -0.05141 0.00771
v -0.05912 0.05140 0.01028
v -0.04113 0.03083 0.01542
v -0.05141 0.02826 0.01542
v -0.04113 0.02055 0.00514
v -0.05912 -0.02312 0.01542
v -0.04113 0.05140 0.01028
v 0.00001 -0.07711 0.00514
v -0.00770 -0.06683 -0.05141
v -0.00770 -0.06169 -0.05141
v 0.04369 -0.06426 -0.03855
v -0.02055 -0.05655 0.00514
v -0.04113 -0.07454 -0.02313
v 0.04369 -0.06683 0.00514
v 0.04369 -0.07454 -0.03597
v -0.04113 -0.05655 -0.04368
v 0.04112 -0.05655 -0.03597
v -0.04113 -0.07454 0.00514
v -0.04113 -0.06939 -0.04626
v -0.04113 -0.05912 0.00514
v 0.04369 -0.07454 0.00514
v 0.00514 -0.07454 -0.04368
v 0.00514 -0.05655 0.00514
v -0.02313 -0.07711 -0.01542
v 0.01027 -0.05655 -0.04883
v 0.02569 -0.07197 -0.04626
v -0.03855 -0.07711 0.00514
v -0.03341 -0.07454 -0.03341
v 0.00514 -0.06939 -0.05141
v -0.04113 -0.05655 -0.00771
v -0.00257 -0.07711 -0.01542
v -0.04113 -0.05912 -0.04626
v 0.00770 -0.06169 -0.05141
v 0.04112 -0.05655 -0.03341
v -0.01285 -0.05655 -0.04883
v -0.04113 -0.07197 -0.04112
v 0.00001 -0.07197 -0.04883
v 0.01799 -0.07454 -0.04368
v 0.02569 -0.06426 -0.04626
v 0.04369 -0.07197 -0.03855
v -0.03341 -0.07711 -0.00771
v -0.00513 -0.06939 -0.05141
v -0.03855 -0.07711 0.01285
v 0.01285 -0.06169 0.01028
v 0.01285 -0.06169 0.00514
v 0.04369 -0.07454 0.00514
v 0.04369 -0.07454 0.02056
v -0.04113 -0.06426 0.01542
v -0.04113 -0.07454 0.00514
v 0.04369 -0.06683 0.02056
v -0.02569 -0.07454 0.02056
v -0.04113 -0.06169 0.00514
v -0.00513 -0.06426 0.02056
v 0.04369 -0.06683 0.00514
v -0.00257 -0.07711 0.00514
v -0.03341 -0.07711 0.01799
v -0.01285 -0.06169 0.01542
v -0.04113 -0.06940 0.01799
v 0.02569 -0.06426 0.02056
v -0.03855 -0.07711 0.00514
v -0.04113 -0.06169 0.01285
v -0.01028 -0.07711 0.01542
v -0.02569 -0.06940 0.02056
v 0.01541 -0.06426 0.04112
v -0.01799 -0.07453 0.02056
v -0.03084 -0.07710 0.03084
v 0.04369 -0.07453 0.03341
v -0.02055 -0.05912 0.02827
v 0.04369 -0.06683 0.02056
v -0.04113 -0.06683 0.03598
v 0.04369 -0.07453 0.02056
v 0.01541 -0.07197 0.04112
v 0.00770 -0.05912 0.03855
v 0.03341 -0.06683 0.04112
v -0.01542 -0.06683 0.02056
v -0.02313 -0.05912 0.03855
v -0.04113 -0.06939 0.03084
v -0.03598 -0.07453 0.03598
v 0.00770 -0.05912 0.02827
v 0.02826 -0.07453 0.03855
v -0.00513 -0.06426 0.02056
v 0.04369 -0.06683 0.03084
v -0.01799 -0.07710 0.03341
v -0.02313 -0.06939 0.03855
v -0.03598 -0.07453 0.02827
v -0.02569 -0.05912 0.03084
v 0.02055 -0.06426 0.02056
v 0.03084 -0.07197 0.04112
v 0.02826 -0.06426 0.04112
v 0.01027 -0.05912 0.03598
v -0.04113 -0.07197 0.03598
v 0.04369 -0.02055 0.00514
v 0.04626 0.01028 0.02056
v 0.04626 0.01028 0.01542
v 0.05140 -0.03598 0.00514
v 0.04883 -0.00000 0.00514
v 0.04626 -0.03598 0.01028
v 0.04369 -0.00000 0.02056
v 0.04369 0.00256 0.00514
v 0.05140 -0.03598 0.01028
v 0.04883 0.00513 0.01542
v 0.04369 0.01028 0.02056
v 0.04626 -0.03598 0.00514
v 0.04369 -0.02313 0.01028
v 0.04883 0.00513 0.00771
v 0.05140 -0.02827 0.00514
v 0.04626 -0.00000 0.02056
v 0.05397 -0.04112 -0.00771
v 0.06168 -0.03855 0.01799
v 0.05911 -0.03855 0.01799
v 0.06168 -0.02056 -0.00771
v 0.06168 -0.05655 -0.00771
v 0.05140 -0.03085 0.01028
v 0.05911 -0.05655 0.01799
v 0.05397 -0.05655 -0.00771
v 0.06168 -0.02313 0.00771
v 0.05911 -0.02056 -0.00771
v 0.05140 -0.03855 0.01028
v 0.06168 -0.05655 0.01799
v 0.05140 -0.03085 0.00514
v 0.05911 -0.03085 0.01542
v 0.05654 -0.05655 0.01028
v 0.05911 -0.02313 0.00771
v -0.04113 0.05398 -0.02828
v -0.05655 -0.04112 -0.03855
v -0.05655 -0.04112 -0.03085
v -0.04113 -0.04112 -0.03598
v -0.05655 0.04882 -0.03598
v -0.04113 0.05140 -0.03598
v -0.04113 -0.03084 -0.02570
v -0.05655 0.05140 -0.02828
v -0.05398 0.01541 -0.02570
v -0.04113 0.04882 -0.02570
v -0.05655 -0.02827 -0.02828
v -0.04113 -0.04112 -0.02828
v -0.05398 -0.03598 -0.03855
v -0.04884 0.05398 -0.03341
v -0.04627 -0.02827 -0.02570
v -0.04627 0.04626 -0.02570
v -0.05398 -0.00256 -0.02570
v 0.00514 -0.04626 -0.02570
v -0.00770 -0.05655 -0.04884
v -0.01799 -0.05655 -0.04626
v -0.00257 -0.03598 -0.04626
v 0.04369 -0.05398 -0.03599
v -0.04113 -0.03598 -0.02828
v 0.04112 -0.03598 -0.03085
v -0.02055 -0.05655 -0.03085
v 0.01541 -0.04626 -0.04884
v -0.04113 -0.05398 -0.03855
v 0.04369 -0.03598 -0.03855
v 0.04112 -0.05655 -0.03342
v -0.04113 -0.03598 -0.03599
v -0.04113 -0.04626 -0.02828
v 0.02055 -0.05655 -0.04626
v 0.00514 -0.03598 -0.02570
v 0.04369 -0.04883 -0.03085
v -0.01799 -0.04626 -0.02570
v -0.00513 -0.04626 -0.04884
v -0.00513 -0.05398 -0.02828
v 0.01285 -0.03598 -0.04626
v -0.04113 -0.04626 -0.03855
v -0.02313 -0.03598 -0.02570
v 0.03855 -0.05398 -0.03085
v 0.04369 -0.04626 -0.03855
v -0.04113 -0.05398 -0.03342
v 0.01541 -0.05398 -0.04884
v 0.00001 -0.04112 -0.04884
v 0.02055 -0.05655 -0.03085
v 0.03855 -0.05655 -0.03855
v -0.02569 -0.05655 -0.04112
v -0.01542 -0.05398 -0.02828
v -0.01799 0.04111 -0.04113
v -0.01799 0.01027 -0.00001
v -0.02057 0.01027 -0.00001
v -0.01799 -0.03598 -0.03598
v -0.04113 0.05140 -0.03598
v -0.04113 -0.03598 -0.01029
v -0.04113 -0.03598 -0.03598
v -0.02828 0.04882 -0.00772
v -0.01799 -0.03598 -0.00772
v -0.04113 0.03854 -0.01029
v -0.01799 0.05140 -0.01029
v -0.01799 0.05397 -0.03855
v -0.02314 0.00258 -0.04113
v -0.04113 0.05397 -0.02827
v -0.03855 0.03340 -0.00772
v -0.01799 -0.00513 -0.04113
v -0.03341 -0.03598 -0.00772
v -0.01799 0.04368 -0.00515
v -0.02057 0.00515 -0.00001
v -0.03341 0.02827 -0.03855
v -0.02314 0.03340 -0.04113
v -0.01799 0.05397 -0.02827
v -0.03855 0.01798 -0.00772
v -0.04113 0.05397 -0.03341
v -0.02571 0.05140 -0.01029
v -0.02057 -0.02312 -0.03855
v 0.00000 -0.01283 -0.05141
v 0.00000 0.06938 0.00514
v -0.00771 0.06938 0.00514
v -0.01285 -0.03598 0.00514
v 0.02569 -0.03598 -0.03084
v 0.02313 0.06938 -0.03084
v -0.01799 0.04882 -0.04112
v 0.01799 -0.00770 0.00514
v -0.01799 -0.03598 -0.03855
v -0.01799 0.01799 0.00514
v 0.01028 0.01543 -0.05141
v 0.02569 -0.03598 -0.04112
v -0.01028 0.06938 -0.03597
v 0.01028 -0.03598 0.00514
v 0.02569 0.05140 -0.03597
v 0.02313 0.01029 -0.00771
v -0.00771 0.02312 -0.05141
v -0.01799 0.05140 -0.00771
v 0.01799 0.01029 0.00514
v -0.01799 -0.03598 -0.00515
v 0.00771 0.06938 -0.03597
v 0.00513 0.06938 0.00256
v 0.00000 -0.03598 -0.04626
v -0.00771 0.07195 -0.00000
v 0.02569 0.01799 -0.04112
v 0.02313 0.06938 -0.02826
v -0.01799 0.00258 -0.04368
v -0.00771 -0.00255 -0.05141
v -0.01285 0.06938 -0.02826
v 0.00771 0.07195 -0.03341
v 0.02569 0.05140 -0.02826
v 0.00771 -0.01027 -0.05141
v 0.00513 0.02312 -0.05141
v 0.01285 -0.03340 0.00514
v -0.01799 -0.01541 0.00514
v 0.00257 0.07195 -0.00000
v -0.00771 0.07195 -0.03084
v 0.02313 -0.00255 -0.00771
v 0.00771 -0.03598 -0.04626
v -0.01799 0.05396 -0.03855
v 0.02569 -0.00770 -0.02570
v -0.01542 0.03854 0.00514
v 0.01799 0.06938 -0.03341
v -0.01799 0.02826 -0.04368
v 0.01028 -0.00513 -0.05141
v 0.01028 0.07195 -0.02570
v 0.04369 0.04882 -0.02570
v 0.02570 -0.03598 -0.04113
v 0.02827 -0.03598 -0.04113
v 0.02570 0.05140 -0.03598
v 0.02570 -0.00513 -0.02570
v 0.04369 -0.03598 -0.03855
v 0.04369 0.00515 -0.04113
v 0.04369 -0.03340 -0.03085
v 0.02570 0.05140 -0.02827
v 0.04369 0.05140 -0.03341
v 0.02570 -0.03598 -0.03085
v 0.02570 0.01541 -0.04113
v 0.03855 0.00258 -0.02570
v 0.03342 0.04882 -0.02570
v 0.04112 -0.03598 -0.03085
v 0.04112 0.02569 -0.03855
v 0.04369 -0.00513 -0.04113
v 0.02570 0.01541 -0.02570
v 0.03598 0.01284 -0.04113
v 0.02827 0.05140 -0.03598
v 0.04369 -0.00256 -0.02827
v 0.03598 -0.00256 -0.02570
v 0.04369 0.00257 -0.01028
v 0.02827 0.00257 -0.02056
v 0.02827 0.00514 -0.02056
v 0.04369 0.00000 -0.01799
v 0.03084 0.00000 -0.01285
v 0.04369 0.00514 -0.01799
v 0.03084 0.00514 -0.01285
v 0.04369 0.01284 0.01285
v -0.04113 -0.06169 0.00514
v 0.00514 -0.06169 0.00514
v -0.00257 0.05398 0.00514
v -0.01028 -0.00512 0.02056
v -0.04113 0.05138 0.01028
v 0.04369 0.01541 0.02056
v 0.00255 -0.05139 0.01799
v 0.04369 -0.01798 0.00514
v -0.04113 -0.04625 0.01542
v 0.00255 0.04368 0.01799
v -0.04113 0.05138 0.00514
v -0.04113 0.03083 0.01542
v 0.04369 -0.02055 0.01028
v 0.01541 0.04882 0.01542
v -0.04113 -0.06169 0.01285
v 0.04369 -0.00001 0.02056
v 0.00514 -0.06169 0.01285
v 0.01027 0.04882 0.00514
v 0.00001 0.02311 0.02056
v 0.04369 0.00256 0.00514
v -0.00257 -0.02055 0.02056
v -0.02827 0.01541 0.01799
v 0.00255 0.05398 0.00771
v -0.00257 -0.05139 0.01799
v 0.01541 0.04882 0.01285
v 0.01027 -0.02055 0.02056
v -0.00770 -0.05910 0.01542
v -0.00513 0.05138 0.01285
v -0.00770 0.01541 0.02056
v 0.04369 0.00769 0.00771
v -0.00257 0.04882 0.01542
v 0.02827 0.07454 0.02056
v 0.02313 0.06940 0.01542
v 0.01799 0.06940 0.01799
v 0.02313 0.07454 0.01542
v 0.01799 0.07454 0.02056
v 0.02827 0.06940 0.02056
v 0.02827 0.07454 0.01542
v 0.04369 0.02826 0.04112
v -0.04113 -0.00770 0.03598
v -0.03341 -0.04111 0.03342
v 0.04369 0.01798 0.02056
v -0.04113 0.05653 0.03342
v 0.04112 -0.00513 0.04883
v 0.01799 -0.05652 0.02827
v -0.00770 -0.00770 0.02056
v -0.01028 0.01541 0.04883
v 0.01799 0.05653 0.04369
v -0.02313 -0.05912 0.03855
v 0.01285 0.04367 0.02313
v -0.04113 0.05653 0.04112
v 0.04369 -0.02055 0.03342
v 0.02055 -0.05395 0.03855
v -0.02055 -0.05912 0.02827
v 0.02055 0.05653 0.03084
v -0.02827 -0.02569 0.04369
v -0.04113 0.02312 0.03084
v 0.04369 -0.00256 0.02056
v -0.00513 0.01798 0.02056
v 0.04369 0.01541 0.04883
v 0.01285 -0.05395 0.02571
v -0.00257 -0.00770 0.04883
v -0.04113 -0.00513 0.04112
v 0.03598 0.04624 0.03855
v 0.00514 0.02826 0.04883
v 0.01285 -0.05138 0.04112
v 0.00001 -0.02055 0.02056
v 0.04369 -0.01541 0.04369
v 0.01285 -0.05912 0.03855
v -0.03084 -0.04881 0.03855
v 0.00514 0.04367 0.02313
v 0.03855 -0.03083 0.03342
v 0.03341 0.04881 0.03342
v 0.02055 0.05395 0.02827
v -0.02827 -0.05395 0.03084
v 0.03341 0.04881 0.04112
v -0.04113 0.03596 0.03084
v -0.00257 0.05653 0.04369
v 0.00001 -0.03854 0.04369
v 0.04369 0.02826 0.03084
v 0.01285 -0.05912 0.02827
v 0.03598 0.02312 0.04883
v 0.02569 0.05653 0.03855
v -0.02827 -0.04367 0.04112
v 0.00001 0.05395 0.02827
v 0.03855 -0.03083 0.03855
v -0.00257 -0.05395 0.02571
v 0.03598 -0.00770 0.04883
v -0.01028 0.00256 0.04883
v 0.02055 -0.05395 0.02827
v -0.01799 -0.04881 0.04112
v 0.03084 0.04624 0.04369
v 0.00514 -0.02055 0.02056
v -0.00770 0.01027 0.02056
v 0.00770 0.02055 0.02056
v -0.02569 -0.05912 0.03084
v -0.03084 -0.05138 0.03598
v 0.02826 0.05138 0.03084
v 0.04369 -0.01027 0.04626
v 0.02312 -0.05138 0.03855
v 0.01541 0.02826 0.04883
v -0.00770 -0.05138 0.04112
v 0.01541 0.07711 0.04369
v 0.01284 0.06940 0.02056
v -0.01027 0.05655 0.03084
v -0.04113 0.07711 0.03341
v 0.01284 0.05655 0.04369
v -0.04113 0.05655 0.04112
v 0.03083 0.07454 0.02313
v -0.00770 0.07711 0.04626
v 0.02569 0.05655 0.03341
v -0.04113 0.05655 0.03341
v 0.03083 0.07196 0.04112
v -0.04113 0.07454 0.04112
v 0.01284 0.07711 0.02570
v -0.03855 0.07454 0.03084
v 0.01284 0.07454 0.02056
v 0.02826 0.06940 0.02056
v 0.03083 0.06169 0.03855
v 0.01027 0.06940 0.04626
v 0.02055 0.05655 0.03084
v 0.02312 0.07711 0.03855
v -0.00001 0.06940 0.04626
v 0.03083 0.06426 0.04112
v 0.01284 0.07454 0.04626
v 0.02312 0.05655 0.04112
v -0.03598 0.07711 0.03084
v -0.04113 0.07711 0.03855
v 0.03083 0.06169 0.03341
v -0.00001 0.05655 0.04369
v 0.03083 0.07454 0.03855
v 0.02055 0.07711 0.02570
v 0.02826 0.07454 0.02056
v -0.03855 0.07196 0.03084
v -0.04113 -0.00771 -0.01285
v -0.05141 -0.02570 -0.01799
v -0.05141 -0.02570 -0.01285
v -0.04113 -0.04112 -0.02056
v -0.04113 -0.04112 -0.01028
v -0.04113 -0.01542 -0.02056
v -0.04627 -0.04112 -0.02056
v -0.04627 -0.01542 -0.01028
v -0.04884 -0.01542 -0.01799
v -0.04884 -0.02057 -0.02056
v -0.04884 -0.03598 -0.01285
v -0.04884 -0.02827 -0.01028
v -0.04113 -0.01285 -0.01028
v -0.04370 -0.00771 -0.01542
v -0.04370 0.01800 -0.01799
v -0.04113 0.03341 -0.01028
v -0.04113 0.04112 -0.01285
v -0.04627 0.03598 -0.01285
v -0.04113 0.03341 -0.02056
v -0.04113 0.01285 -0.01285
v -0.04627 0.03598 -0.01799
v -0.04627 0.02570 -0.01285
v -0.04370 0.02057 -0.01028
v -0.04370 0.04112 -0.01799
v 0.02826 -0.04626 -0.00000
v -0.00257 -0.04883 -0.02313
v -0.00257 -0.04112 -0.02313
v -0.04113 -0.05655 -0.00772
v -0.04113 -0.03598 -0.01028
v 0.03597 -0.05398 -0.00772
v -0.04113 -0.05655 -0.02056
v 0.01798 -0.03598 -0.01028
v -0.04113 -0.03598 -0.02056
v -0.00513 -0.03598 -0.00257
v 0.04111 -0.04626 -0.01028
v 0.00513 -0.05655 -0.01799
v 0.03340 -0.05398 -0.00000
v 0.00770 -0.03598 -0.02056
v 0.03854 -0.04626 -0.00000
v -0.02826 -0.05655 -0.00515
v 0.00770 -0.04626 -0.02313
v 0.03597 -0.05141 -0.01285
v 0.01027 -0.05655 -0.00772
v 0.00513 -0.03598 -0.00257
v -0.03341 -0.03598 -0.00772
v 0.00770 -0.04112 -0.02313
v -0.01285 -0.05655 -0.02056
v 0.02569 -0.05141 -0.00000
v 0.00513 -0.04883 -0.02313
v 0.03854 -0.05141 -0.00000
v 0.01798 -0.03598 -0.00772
v -0.02056 -0.05655 0.00257
v 0.00771 -0.03598 0.00514
v 0.03083 -0.04883 0.00514
v 0.03598 -0.04883 -0.00000
v -0.01542 -0.03598 0.00257
v -0.02056 -0.05655 0.00514
v -0.00000 -0.04626 -0.00000
v 0.00514 -0.05655 0.00514
v -0.01799 -0.03855 0.00514
v 0.03598 -0.05141 -0.00000
v 0.00771 -0.03598 0.00257
v -0.02056 -0.04369 0.00257
v 0.00514 -0.05655 0.00257
v 0.03083 -0.05141 0.00514
f 136 121 142 
f 98 99 100 
f 98 100 102 
f 101 104 105 
f 98 102 108 
f 108 102 109 
f 105 104 110 
f 99 98 111 
f 100 107 112 
f 104 101 113 
f 106 104 113 
f 105 99 114 
f 101 105 114 
f 108 109 118 
f 97 115 119 
f 109 102 120 
f 102 112 120 
f 103 116 121 
f 107 100 122 
f 100 105 123 
f 110 100 123 
f 105 110 123 
f 102 100 124 
f 100 112 124 
f 112 102 124 
f 115 106 125 
f 116 103 125 
f 104 106 126 
f 107 104 126 
f 106 115 126 
f 99 111 127 
f 111 101 127 
f 112 119 128 
f 119 109 128 
f 109 120 128 
f 120 112 128 
f 104 107 129 
f 100 110 129 
f 110 104 129 
f 107 122 129 
f 109 119 130 
f 119 115 130 
f 115 125 130 
f 113 101 131 
f 101 121 131 
f 121 116 131 
f 103 118 132 
f 118 109 132 
f 125 103 132 
f 109 130 132 
f 130 125 132 
f 98 108 133 
f 117 98 133 
f 108 118 133 
f 114 99 134 
f 101 114 134 
f 99 127 134 
f 127 101 134 
f 106 113 135 
f 125 106 135 
f 116 125 135 
f 111 98 136 
f 98 117 136 
f 117 121 136 
f 112 107 137 
f 115 97 137 
f 97 119 137 
f 119 112 137 
f 107 126 137 
f 126 115 137 
f 100 99 138 
f 99 105 138 
f 105 100 138 
f 122 100 139 
f 100 129 139 
f 129 122 139 
f 113 131 140 
f 131 116 140 
f 135 113 140 
f 116 135 140 
f 118 103 141 
f 103 121 141 
f 121 117 141 
f 117 133 141 
f 133 118 141 
f 101 111 142 
f 121 101 142 
f 111 136 142 
