# Original object name hint: convex_2
v -0.09372 -0.02873 -0.00453
v -0.05744 0.05894 -0.02267
v 0.03628 0.04988 0.02268
v 0.01207 -0.04385 -0.03477
v -0.07258 -0.03176 0.03779
v -0.07258 0.04686 0.03477
v 0.02720 -0.02872 0.03476
v -0.06652 -0.05898 -0.03779
v 0.00301 0.04988 -0.03477
v -0.07258 0.04383 -0.04082
v 0.03628 -0.01361 -0.02872
v 0.01207 0.00754 0.04385
v 0.03628 -0.03781 0.01662
v -0.06652 -0.05293 0.01058
v -0.09372 0.01056 0.02872
v -0.07258 -0.04990 -0.04385
v -0.09676 0.00754 -0.01663
v 0.03628 0.03777 -0.02268
v -0.08164 0.04988 -0.00755
v 0.01812 0.04988 0.03476
v 0.00905 -0.03478 0.03779
v -0.00304 -0.04990 -0.00453
v -0.07560 -0.04083 0.03477
v 0.03628 0.01963 0.03476
v 0.03628 -0.04082 -0.01965
v -0.08164 0.01358 0.03779
v -0.06046 -0.02268 -0.04385
v -0.06954 0.05894 -0.03477
v 0.00301 -0.04083 0.03173
v -0.07258 0.05593 0.00151
v 0.00603 -0.04990 -0.03477
v -0.08768 -0.02571 -0.03173
v -0.08466 -0.04385 0.00453
v -0.08466 -0.03176 0.03173
v -0.08466 0.04383 0.01361
v 0.00301 -0.00756 0.04385
v -0.06046 -0.05595 0.00151
v -0.09676 -0.01966 0.00453
v -0.06652 0.03778 0.03779
v -0.08466 0.01661 -0.03477
v -0.07862 0.04988 -0.03173
v 0.03628 -0.01361 0.03476
v -0.06046 0.05894 -0.03779
v -0.09676 0.01358 0.00453
v -0.05744 -0.05898 -0.02569
v -0.07560 -0.05293 -0.03779
v -0.09070 -0.00453 0.03477
v -0.06046 0.04686 -0.04082
v -0.06046 -0.05293 -0.04385
v -0.07560 -0.05293 0.00151
v 0.00603 0.04686 -0.03477
v -0.00606 0.00450 0.04385
v 0.03022 -0.01059 -0.03174
v -0.09070 0.01963 0.03173
v 0.03628 0.04988 0.01662
v 0.00603 0.04079 0.03779
v -0.07258 -0.01059 -0.04385
v -0.08768 0.03778 -0.00755
v -0.02421 -0.02571 0.04082
v -0.00909 0.04988 0.03477
v 0.01207 -0.00453 0.04385
v -0.06349 0.05894 -0.01663
v -0.09676 -0.00453 -0.01663
v -0.07862 0.00149 -0.04082
v 0.05140 -0.04083 -0.02569
v 0.03931 0.01359 0.03477
v 0.03628 0.01359 0.03477
v 0.03931 0.04988 -0.03174
v 0.05442 0.03777 0.01965
v 0.03628 -0.04083 -0.01965
v 0.05442 -0.03478 0.01965
v 0.05442 0.04684 -0.03476
v 0.03628 0.04988 0.02267
v 0.03628 -0.03780 0.01662
v 0.03628 -0.01966 -0.03174
v 0.05442 -0.04386 -0.02267
v 0.05442 0.02568 0.02872
v 0.03931 -0.01663 0.03174
v 0.03628 0.03777 -0.02267
v 0.05442 0.04988 -0.02569
v 0.05140 -0.04386 0.00755
v 0.05140 0.00452 0.03174
v 0.05442 0.03173 -0.03476
v 0.03931 0.04988 0.02267
v 0.04233 -0.02269 -0.03174
v 0.03628 -0.00454 0.03477
v 0.04837 0.04684 -0.03476
v 0.05442 -0.04083 -0.02569
v 0.05442 -0.04083 0.01360
v 0.05442 -0.00151 0.02872
v 0.03931 0.02568 0.03174
v 0.03628 -0.04083 -0.00755
v 0.04837 -0.04386 -0.01965
v 0.03628 -0.03478 0.01965
v 0.03628 -0.00757 -0.03174
v 0.05442 0.04081 0.01057
v 0.03628 -0.03780 -0.02267
v 0.03931 -0.00454 0.03477
v 0.05442 0.04988 -0.03174
v 0.05442 -0.04386 0.00755
v 0.03628 -0.01663 0.03174
v 0.03931 -0.02269 -0.03174
v 0.04837 0.03475 -0.03476
v 0.05140 0.01359 0.03174
v 0.03628 0.04988 0.01662
v 0.06350 -0.04687 -0.04082
v 0.08466 0.01963 0.04082
v 0.09071 0.01963 0.03476
v 0.05442 0.04987 -0.03174
v 0.05442 -0.03477 0.01965
v 0.09373 -0.02569 -0.02570
v 0.08163 0.05289 -0.03779
v 0.07861 -0.05896 0.01965
v 0.06955 0.05289 0.02570
v 0.05442 0.02567 0.02872
v 0.05442 -0.04687 -0.03477
v 0.09676 0.02567 0.00453
v 0.07861 0.06198 0.00453
v 0.07861 -0.04687 -0.04082
v 0.09373 -0.03175 -0.00453
v 0.06350 -0.06198 -0.02267
v 0.07861 -0.04384 0.03174
v 0.06652 0.04381 -0.04082
v 0.09071 0.02265 -0.03174
v 0.06652 -0.06198 0.01359
v 0.07257 -0.06198 -0.03174
v 0.08163 0.04987 0.02872
v 0.07861 0.00149 0.04082
v 0.08466 0.02265 -0.04082
v 0.08768 -0.04081 -0.03477
v 0.09373 0.00149 0.02267
v 0.06955 0.06198 -0.01663
v 0.05442 0.04079 0.01359
v 0.09676 0.02265 -0.01359
v 0.05442 -0.00151 0.02872
v 0.08163 -0.04687 0.02872
v 0.05442 -0.03477 -0.03779
v 0.06955 0.06198 0.00151
v 0.08768 -0.04687 -0.01359
v 0.07257 -0.04989 0.02872
v 0.05442 -0.04384 0.01058
v 0.09676 -0.00755 -0.00453
v 0.08466 0.05289 -0.02267
v 0.08768 0.00149 0.03779
v 0.07257 0.04684 0.03174
v 0.06047 -0.05896 -0.03477
v 0.08768 -0.04081 0.01663
v 0.07861 0.01963 0.04082
v 0.05442 0.04684 -0.03477
v 0.06955 0.05591 -0.03477
v 0.07861 0.06198 -0.01965
v 0.09373 0.03173 0.01359
v 0.09676 0.00451 0.01058
v 0.07559 -0.06198 -0.01359
v 0.08466 0.04684 -0.03779
v 0.09373 0.02265 0.02570
v 0.08466 0.05289 0.00151
v 0.07861 0.04987 -0.04082
v 0.09676 -0.00453 -0.01663
v 0.09373 -0.03175 -0.01965
v 0.09071 -0.04081 -0.00151
v 0.08768 0.00753 -0.03779
v 0.08466 0.00149 0.04082
v 0.08163 -0.04081 -0.04082
v 0.09071 0.00753 0.03476
v 0.06047 -0.05896 -0.02267
v 0.07861 -0.05593 -0.03174
v 0.08768 0.03173 0.03476
v 0.07861 0.05289 0.02872
f 168 127 169 
f 109 110 115 
f 110 109 116 
f 119 106 123 
f 125 121 126 
f 119 123 129 
f 109 115 133 
f 115 114 133 
f 115 110 135 
f 128 115 135 
f 106 116 137 
f 116 109 137 
f 123 106 137 
f 114 118 138 
f 132 109 138 
f 118 132 138 
f 109 133 138 
f 133 114 138 
f 110 125 140 
f 125 113 140 
f 122 128 140 
f 135 110 140 
f 128 135 140 
f 113 136 140 
f 136 122 140 
f 110 116 141 
f 125 110 141 
f 134 117 142 
f 117 134 143 
f 114 115 145 
f 116 106 146 
f 106 119 146 
f 119 126 146 
f 126 121 146 
f 120 131 147 
f 136 113 147 
f 115 128 148 
f 128 107 148 
f 107 145 148 
f 145 115 148 
f 137 109 149 
f 123 137 149 
f 109 132 150 
f 149 109 150 
f 123 149 150 
f 132 118 151 
f 143 112 151 
f 118 143 151 
f 112 150 151 
f 150 132 151 
f 131 120 153 
f 120 142 153 
f 142 117 153 
f 113 125 154 
f 125 126 154 
f 139 113 154 
f 124 129 155 
f 134 124 155 
f 112 143 155 
f 143 134 155 
f 117 152 156 
f 153 117 156 
f 131 153 156 
f 118 127 157 
f 143 118 157 
f 117 143 157 
f 152 117 157 
f 127 152 157 
f 129 123 158 
f 150 112 158 
f 123 150 158 
f 112 155 158 
f 155 129 158 
f 111 124 159 
f 124 134 159 
f 134 142 159 
f 159 142 160 
f 130 111 160 
f 139 130 160 
f 142 120 160 
f 111 159 160 
f 139 160 161 
f 113 139 161 
f 120 147 161 
f 147 113 161 
f 160 120 161 
f 124 111 162 
f 129 124 162 
f 111 130 162 
f 108 107 163 
f 107 128 163 
f 128 122 163 
f 122 136 163 
f 136 144 163 
f 119 129 164 
f 130 119 164 
f 129 162 164 
f 162 130 164 
f 144 136 165 
f 147 131 165 
f 136 147 165 
f 156 108 165 
f 131 156 165 
f 108 163 165 
f 163 144 165 
f 121 125 166 
f 141 116 166 
f 125 141 166 
f 116 146 166 
f 146 121 166 
f 126 119 167 
f 119 130 167 
f 130 139 167 
f 154 126 167 
f 139 154 167 
f 107 108 168 
f 152 127 168 
f 108 156 168 
f 156 152 168 
f 118 114 169 
f 127 118 169 
f 145 107 169 
f 114 145 169 
f 107 168 169 
