# Original object name hint: convex_0
v -0.09372 -0.02873 -0.00453
v -0.05744 0.05894 -0.02267
v 0.03628 0.04988 0.02268
v 0.01207 -0.04385 -0.03477
v -0.07258 -0.03176 0.03779
v -0.07258 0.04686 0.03477
v 0.02720 -0.02872 0.03476
v -0.06652 -0.05898 -0.03779
v 0.00301 0.04988 -0.03477
v -0.07258 0.04383 -0.04082
v 0.03628 -0.01361 -0.02872
v 0.01207 0.00754 0.04385
v 0.03628 -0.03781 0.01662
v -0.06652 -0.05293 0.01058
v -0.09372 0.01056 0.02872
v -0.07258 -0.04990 -0.04385
v -0.09676 0.00754 -0.01663
v 0.03628 0.03777 -0.02268
v -0.08164 0.04988 -0.00755
v 0.01812 0.04988 0.03476
v 0.00905 -0.03478 0.03779
v -0.00304 -0.04990 -0.00453
v -0.07560 -0.04083 0.03477
v 0.03628 0.01963 0.03476
v 0.03628 -0.04082 -0.01965
v -0.08164 0.01358 0.03779
v -0.06046 -0.02268 -0.04385
v -0.06954 0.05894 -0.03477
v 0.00301 -0.04083 0.03173
v -0.07258 0.05593 0.00151
v 0.00603 -0.04990 -0.03477
v -0.08768 -0.02571 -0.03173
v -0.08466 -0.04385 0.00453
v -0.08466 -0.03176 0.03173
v -0.08466 0.04383 0.01361
v 0.00301 -0.00756 0.04385
v -0.06046 -0.05595 0.00151
v -0.09676 -0.01966 0.00453
v -0.06652 0.03778 0.03779
v -0.08466 0.01661 -0.03477
v -0.07862 0.04988 -0.03173
v 0.03628 -0.01361 0.03476
v -0.06046 0.05894 -0.03779
v -0.09676 0.01358 0.00453
v -0.05744 -0.05898 -0.02569
v -0.07560 -0.05293 -0.03779
v -0.09070 -0.00453 0.03477
v -0.06046 0.04686 -0.04082
v -0.06046 -0.05293 -0.04385
v -0.07560 -0.05293 0.00151
v 0.00603 0.04686 -0.03477
v -0.00606 0.00450 0.04385
v 0.03022 -0.01059 -0.03174
v -0.09070 0.01963 0.03173
v 0.03628 0.04988 0.01662
v 0.00603 0.04079 0.03779
v -0.07258 -0.01059 -0.04385
v -0.08768 0.03778 -0.00755
v -0.02421 -0.02571 0.04082
v -0.00909 0.04988 0.03477
v 0.01207 -0.00453 0.04385
v -0.06349 0.05894 -0.01663
v -0.09676 -0.00453 -0.01663
v -0.07862 0.00149 -0.04082
v 0.05140 -0.04083 -0.02569
v 0.03931 0.01359 0.03477
v 0.03628 0.01359 0.03477
v 0.03931 0.04988 -0.03174
v 0.05442 0.03777 0.01965
v 0.03628 -0.04083 -0.01965
v 0.05442 -0.03478 0.01965
v 0.05442 0.04684 -0.03476
v 0.03628 0.04988 0.02267
v 0.03628 -0.03780 0.01662
v 0.03628 -0.01966 -0.03174
v 0.05442 -0.04386 -0.02267
v 0.05442 0.02568 0.02872
v 0.03931 -0.01663 0.03174
v 0.03628 0.03777 -0.02267
v 0.05442 0.04988 -0.02569
v 0.05140 -0.04386 0.00755
v 0.05140 0.00452 0.03174
v 0.05442 0.03173 -0.03476
v 0.03931 0.04988 0.02267
v 0.04233 -0.02269 -0.03174
v 0.03628 -0.00454 0.03477
v 0.04837 0.04684 -0.03476
v 0.05442 -0.04083 -0.02569
v 0.05442 -0.04083 0.01360
v 0.05442 -0.00151 0.02872
v 0.03931 0.02568 0.03174
v 0.03628 -0.04083 -0.00755
v 0.04837 -0.04386 -0.01965
v 0.03628 -0.03478 0.01965
v 0.03628 -0.00757 -0.03174
v 0.05442 0.04081 0.01057
v 0.03628 -0.03780 -0.02267
v 0.03931 -0.00454 0.03477
v 0.05442 0.04988 -0.03174
v 0.05442 -0.04386 0.00755
v 0.03628 -0.01663 0.03174
v 0.03931 -0.02269 -0.03174
v 0.04837 0.03475 -0.03476
v 0.05140 0.01359 0.03174
v 0.03628 0.04988 0.01662
v 0.06350 -0.04687 -0.04082
v 0.08466 0.01963 0.04082
v 0.09071 0.01963 0.03476
v 0.05442 0.04987 -0.03174
v 0.05442 -0.03477 0.01965
v 0.09373 -0.02569 -0.02570
v 0.08163 0.05289 -0.03779
v 0.07861 -0.05896 0.01965
v 0.06955 0.05289 0.02570
v 0.05442 0.02567 0.02872
v 0.05442 -0.04687 -0.03477
v 0.09676 0.02567 0.00453
v 0.07861 0.06198 0.00453
v 0.07861 -0.04687 -0.04082
v 0.09373 -0.03175 -0.00453
v 0.06350 -0.06198 -0.02267
v 0.07861 -0.04384 0.03174
v 0.06652 0.04381 -0.04082
v 0.09071 0.02265 -0.03174
v 0.06652 -0.06198 0.01359
v 0.07257 -0.06198 -0.03174
v 0.08163 0.04987 0.02872
v 0.07861 0.00149 0.04082
v 0.08466 0.02265 -0.04082
v 0.08768 -0.04081 -0.03477
v 0.09373 0.00149 0.02267
v 0.06955 0.06198 -0.01663
v 0.05442 0.04079 0.01359
v 0.09676 0.02265 -0.01359
v 0.05442 -0.00151 0.02872
v 0.08163 -0.04687 0.02872
v 0.05442 -0.03477 -0.03779
v 0.06955 0.06198 0.00151
v 0.08768 -0.04687 -0.01359
v 0.07257 -0.04989 0.02872
v 0.05442 -0.04384 0.01058
v 0.09676 -0.00755 -0.00453
v 0.08466 0.05289 -0.02267
v 0.08768 0.00149 0.03779
v 0.07257 0.04684 0.03174
v 0.06047 -0.05896 -0.03477
v 0.08768 -0.04081 0.01663
v 0.07861 0.01963 0.04082
v 0.05442 0.04684 -0.03477
v 0.06955 0.05591 -0.03477
v 0.07861 0.06198 -0.01965
v 0.09373 0.03173 0.01359
v 0.09676 0.00451 0.01058
v 0.07559 -0.06198 -0.01359
v 0.08466 0.04684 -0.03779
v 0.09373 0.02265 0.02570
v 0.08466 0.05289 0.00151
v 0.07861 0.04987 -0.04082
v 0.09676 -0.00453 -0.01663
v 0.09373 -0.03175 -0.01965
v 0.09071 -0.04081 -0.00151
v 0.08768 0.00753 -0.03779
v 0.08466 0.00149 0.04082
v 0.08163 -0.04081 -0.04082
v 0.09071 0.00753 0.03476
v 0.06047 -0.05896 -0.02267
v 0.07861 -0.05593 -0.03174
v 0.08768 0.03173 0.03476
v 0.07861 0.05289 0.02872
f 10 57 64 
f 11 3 13 
f 3 11 18 
f 13 7 21 
f 13 3 24 
f 3 20 24 
f 20 12 24 
f 4 11 25 
f 11 13 25 
f 13 22 25 
f 13 21 29 
f 22 13 29 
f 23 14 29 
f 21 23 29 
f 28 19 30 
f 4 25 31 
f 25 22 31 
f 33 23 34 
f 6 30 35 
f 30 19 35 
f 29 14 37 
f 22 29 37 
f 1 33 38 
f 33 34 38 
f 6 26 39 
f 32 17 40 
f 28 10 41 
f 19 28 41 
f 10 40 41 
f 40 17 41 
f 7 13 42 
f 24 12 42 
f 13 24 42 
f 28 2 43 
f 10 28 43 
f 17 38 44 
f 38 15 44 
f 8 31 45 
f 31 22 45 
f 37 8 45 
f 22 37 45 
f 16 8 46 
f 1 32 46 
f 32 16 46 
f 33 1 46 
f 23 5 47 
f 5 26 47 
f 34 23 47 
f 15 38 47 
f 38 34 47 
f 43 9 48 
f 10 43 48 
f 8 16 49 
f 27 4 49 
f 16 27 49 
f 31 8 49 
f 4 31 49 
f 14 23 50 
f 23 33 50 
f 8 37 50 
f 37 14 50 
f 46 8 50 
f 33 46 50 
f 9 18 51 
f 4 27 51 
f 48 9 51 
f 27 48 51 
f 26 5 52 
f 36 12 52 
f 5 36 52 
f 12 39 52 
f 39 26 52 
f 11 4 53 
f 18 11 53 
f 4 51 53 
f 51 18 53 
f 26 6 54 
f 6 35 54 
f 44 15 54 
f 35 44 54 
f 47 26 54 
f 15 47 54 
f 2 3 55 
f 3 18 55 
f 18 9 55 
f 43 2 55 
f 9 43 55 
f 12 20 56 
f 39 12 56 
f 27 16 57 
f 48 27 57 
f 10 48 57 
f 35 19 58 
f 41 17 58 
f 19 41 58 
f 17 44 58 
f 44 35 58 
f 5 23 59 
f 23 21 59 
f 36 5 59 
f 21 36 59 
f 30 6 60 
f 20 30 60 
f 6 39 60 
f 56 20 60 
f 39 56 60 
f 21 7 61 
f 12 36 61 
f 36 21 61 
f 7 42 61 
f 42 12 61 
f 3 2 62 
f 20 3 62 
f 2 28 62 
f 30 20 62 
f 28 30 62 
f 32 1 63 
f 17 32 63 
f 1 38 63 
f 38 17 63 
f 16 32 64 
f 40 10 64 
f 32 40 64 
f 57 16 64 
