# Original object name hint: convex_1
v -0.09372 -0.02873 -0.00453
v -0.05744 0.05894 -0.02267
v 0.03628 0.04988 0.02268
v 0.01207 -0.04385 -0.03477
v -0.07258 -0.03176 0.03779
v -0.07258 0.04686 0.03477
v 0.02720 -0.02872 0.03476
v -0.06652 -0.05898 -0.03779
v 0.00301 0.04988 -0.03477
v -0.07258 0.04383 -0.04082
v 0.03628 -0.01361 -0.02872
v 0.01207 0.00754 0.04385
v 0.03628 -0.03781 0.01662
v -0.06652 -0.05293 0.01058
v -0.09372 0.01056 0.02872
v -0.07258 -0.04990 -0.04385
v -0.09676 0.00754 -0.01663
v 0.03628 0.03777 -0.02268
v -0.08164 0.04988 -0.00755
v 0.01812 0.04988 0.03476
v 0.00905 -0.03478 0.03779
v -0.00304 -0.04990 -0.00453
v -0.07560 -0.04083 0.03477
v 0.03628 0.01963 0.03476
v 0.03628 -0.04082 -0.01965
v -0.08164 0.01358 0.03779
v -0.06046 -0.02268 -0.04385
v -0.06954 0.05894 -0.03477
v 0.00301 -0.04083 0.03173
v -0.07258 0.05593 0.00151
v 0.00603 -0.04990 -0.03477
v -0.08768 -0.02571 -0.03173
v -0.08466 -0.04385 0.00453
v -0.08466 -0.03176 0.03173
v -0.08466 0.04383 0.01361
v 0.00301 -0.00756 0.04385
v -0.06046 -0.05595 0.00151
v -0.09676 -0.01966 0.00453
v -0.06652 0.03778 0.03779
v -0.08466 0.01661 -0.03477
v -0.07862 0.04988 -0.03173
v 0.03628 -0.01361 0.03476
v -0.06046 0.05894 -0.03779
v -0.09676 0.01358 0.00453
v -0.05744 -0.05898 -0.02569
v -0.07560 -0.05293 -0.03779
v -0.09070 -0.00453 0.03477
v -0.06046 0.04686 -0.04082
v -0.06046 -0.05293 -0.04385
v -0.07560 -0.05293 0.00151
v 0.00603 0.04686 -0.03477
v -0.00606 0.00450 0.04385
v 0.03022 -0.01059 -0.03174
v -0.09070 0.01963 0.03173
v 0.03628 0.04988 0.01662
v 0.00603 0.04079 0.03779
v -0.07258 -0.01059 -0.04385
v -0.08768 0.03778 -0.00755
v -0.02421 -0.02571 0.04082
v -0.00909 0.04988 0.03477
v 0.01207 -0.00453 0.04385
v -0.06349 0.05894 -0.01663
v -0.09676 -0.00453 -0.01663
v -0.07862 0.00149 -0.04082
v 0.05140 -0.04083 -0.02569
v 0.03931 0.01359 0.03477
v 0.03628 0.01359 0.03477
v 0.03931 0.04988 -0.03174
v 0.05442 0.03777 0.01965
v 0.03628 -0.04083 -0.01965
v 0.05442 -0.03478 0.01965
v 0.05442 0.04684 -0.03476
v 0.03628 0.04988 0.02267
v 0.03628 -0.03780 0.01662
v 0.03628 -0.01966 -0.03174
v 0.05442 -0.04386 -0.02267
v 0.05442 0.02568 0.02872
v 0.03931 -0.01663 0.03174
v 0.03628 0.03777 -0.02267
v 0.05442 0.04988 -0.02569
v 0.05140 -0.04386 0.00755
v 0.05140 0.00452 0.03174
v 0.05442 0.03173 -0.03476
v 0.03931 0.04988 0.02267
v 0.04233 -0.02269 -0.03174
v 0.03628 -0.00454 0.03477
v 0.04837 0.04684 -0.03476
v 0.05442 -0.04083 -0.02569
v 0.05442 -0.04083 0.01360
v 0.05442 -0.00151 0.02872
v 0.03931 0.02568 0.03174
v 0.03628 -0.04083 -0.00755
v 0.04837 -0.04386 -0.01965
v 0.03628 -0.03478 0.01965
v 0.03628 -0.00757 -0.03174
v 0.05442 0.04081 0.01057
v 0.03628 -0.03780 -0.02267
v 0.03931 -0.00454 0.03477
v 0.05442 0.04988 -0.03174
v 0.05442 -0.04386 0.00755
v 0.03628 -0.01663 0.03174
v 0.03931 -0.02269 -0.03174
v 0.04837 0.03475 -0.03476
v 0.05140 0.01359 0.03174
v 0.03628 0.04988 0.01662
v 0.06350 -0.04687 -0.04082
v 0.08466 0.01963 0.04082
v 0.09071 0.01963 0.03476
v 0.05442 0.04987 -0.03174
v 0.05442 -0.03477 0.01965
v 0.09373 -0.02569 -0.02570
v 0.08163 0.05289 -0.03779
v 0.07861 -0.05896 0.01965
v 0.06955 0.05289 0.02570
v 0.05442 0.02567 0.02872
v 0.05442 -0.04687 -0.03477
v 0.09676 0.02567 0.00453
v 0.07861 0.06198 0.00453
v 0.07861 -0.04687 -0.04082
v 0.09373 -0.03175 -0.00453
v 0.06350 -0.06198 -0.02267
v 0.07861 -0.04384 0.03174
v 0.06652 0.04381 -0.04082
v 0.09071 0.02265 -0.03174
v 0.06652 -0.06198 0.01359
v 0.07257 -0.06198 -0.03174
v 0.08163 0.04987 0.02872
v 0.07861 0.00149 0.04082
v 0.08466 0.02265 -0.04082
v 0.08768 -0.04081 -0.03477
v 0.09373 0.00149 0.02267
v 0.06955 0.06198 -0.01663
v 0.05442 0.04079 0.01359
v 0.09676 0.02265 -0.01359
v 0.05442 -0.00151 0.02872
v 0.08163 -0.04687 0.02872
v 0.05442 -0.03477 -0.03779
v 0.06955 0.06198 0.00151
v 0.08768 -0.04687 -0.01359
v 0.07257 -0.04989 0.02872
v 0.05442 -0.04384 0.01058
v 0.09676 -0.00755 -0.00453
v 0.08466 0.05289 -0.02267
v 0.08768 0.00149 0.03779
v 0.07257 0.04684 0.03174
v 0.06047 -0.05896 -0.03477
v 0.08768 -0.04081 0.01663
v 0.07861 0.01963 0.04082
v 0.05442 0.04684 -0.03477
v 0.06955 0.05591 -0.03477
v 0.07861 0.06198 -0.01965
v 0.09373 0.03173 0.01359
v 0.09676 0.00451 0.01058
v 0.07559 -0.06198 -0.01359
v 0.08466 0.04684 -0.03779
v 0.09373 0.02265 0.02570
v 0.08466 0.05289 0.00151
v 0.07861 0.04987 -0.04082
v 0.09676 -0.00453 -0.01663
v 0.09373 -0.03175 -0.01965
v 0.09071 -0.04081 -0.00151
v 0.08768 0.00753 -0.03779
v 0.08466 0.00149 0.04082
v 0.08163 -0.04081 -0.04082
v 0.09071 0.00753 0.03476
v 0.06047 -0.05896 -0.02267
v 0.07861 -0.05593 -0.03174
v 0.08768 0.03173 0.03476
v 0.07861 0.05289 0.02872
f 79 73 105 
f 69 71 72 
f 70 67 73 
f 67 70 74 
f 70 73 75 
f 70 65 76 
f 72 71 76 
f 71 69 77 
f 75 73 79 
f 69 72 80 
f 68 73 80 
f 72 76 83 
f 77 69 84 
f 80 73 84 
f 66 67 86 
f 67 74 86 
f 68 72 87 
f 72 83 87 
f 76 65 88 
f 83 76 88 
f 65 85 88 
f 85 83 88 
f 76 71 89 
f 74 81 89 
f 71 77 90 
f 78 71 90 
f 77 82 90 
f 82 78 90 
f 67 66 91 
f 73 67 91 
f 66 77 91 
f 84 73 91 
f 77 84 91 
f 74 70 92 
f 81 74 92 
f 81 92 93 
f 70 76 93 
f 76 81 93 
f 92 70 93 
f 71 78 94 
f 86 74 94 
f 89 71 94 
f 74 89 94 
f 79 68 95 
f 75 79 95 
f 68 87 95 
f 87 75 95 
f 69 80 96 
f 84 69 96 
f 80 84 96 
f 65 70 97 
f 70 75 97 
f 82 66 98 
f 78 82 98 
f 66 86 98 
f 86 78 98 
f 72 68 99 
f 68 80 99 
f 80 72 99 
f 81 76 100 
f 76 89 100 
f 89 81 100 
f 78 86 101 
f 94 78 101 
f 86 94 101 
f 85 65 102 
f 83 85 102 
f 65 97 102 
f 97 75 102 
f 75 87 103 
f 87 83 103 
f 102 75 103 
f 83 102 103 
f 77 66 104 
f 66 82 104 
f 82 77 104 
f 73 68 105 
f 68 79 105 
