# Original object name hint: convex_0
v -0.06038 -0.07187 -0.07473
v 0.02299 -0.07473 0.02875
v -0.04025 -0.06037 0.02875
v 0.02299 -0.05461 -0.07473
v 0.00287 -0.09198 -0.04886
v -0.05462 -0.08911 0.02875
v -0.05749 -0.05461 -0.07186
v 0.02299 -0.08335 -0.07186
v 0.02011 -0.08911 0.02875
v -0.05749 -0.05461 0.00861
v -0.05175 -0.08911 -0.05173
v -0.02299 -0.05461 0.00861
v 0.02299 -0.05461 -0.04598
v -0.05462 -0.07760 -0.07761
v -0.06038 -0.08048 0.02875
v -0.06038 -0.08335 -0.05173
v -0.04312 -0.09198 -0.04023
v 0.02299 -0.08911 -0.05460
v 0.02299 -0.07760 -0.07761
v -0.02299 -0.05749 -0.07761
v -0.02299 -0.08623 -0.06898
v -0.06038 -0.05749 -0.01150
v -0.05749 -0.06324 0.02875
v -0.00289 -0.09198 -0.03449
v -0.02299 -0.09198 -0.05173
v 0.02299 -0.08623 0.02875
v 0.02299 -0.05749 -0.07761
v -0.05175 -0.06324 -0.07761
v -0.06038 -0.05749 -0.06898
v -0.05462 -0.08048 -0.07473
v -0.05462 -0.08911 -0.04598
v -0.05462 -0.05461 0.01436
v -0.06038 -0.06611 0.02299
v -0.05175 -0.05461 -0.07473
v -0.06038 -0.08335 0.02299
v -0.06038 -0.07760 -0.07186
v -0.05462 -0.06037 0.02875
v -0.03450 -0.09198 -0.03449
v -0.05749 -0.06899 -0.07761
v -0.04025 -0.05461 0.01436
v 0.02299 -0.08911 -0.03162
v 0.03162 -0.08048 -0.07761
v 0.06611 -0.06899 0.02875
v 0.06611 -0.07473 0.02875
v 0.02299 -0.08623 0.02875
v 0.02299 -0.05461 -0.04598
v 0.05748 -0.05461 -0.07186
v 0.05173 -0.09198 -0.04886
v 0.05173 -0.05461 0.02875
v 0.06323 -0.07760 -0.06898
v 0.02299 -0.08911 -0.05749
v 0.06036 -0.08623 0.02875
v 0.02299 -0.05749 -0.07761
v 0.02299 -0.07473 0.02875
v 0.06323 -0.05461 -0.05173
v 0.06611 -0.08335 -0.01726
v 0.05173 -0.07760 -0.08049
v 0.06323 -0.05461 0.02875
v 0.03449 -0.09198 -0.03448
v 0.06611 -0.06611 -0.04024
v 0.02299 -0.07760 -0.07761
v 0.06611 -0.06037 0.02012
v 0.02299 -0.05461 -0.07473
v 0.04598 -0.05749 -0.07761
v 0.05173 -0.09198 -0.03161
v 0.06611 -0.08048 -0.04598
v 0.04598 -0.08911 -0.06036
v 0.06036 -0.06611 -0.07473
v 0.06323 -0.08623 0.00862
v 0.03162 -0.06899 -0.08049
v 0.05748 -0.08048 -0.07473
v 0.05748 -0.08911 -0.04598
v 0.03162 -0.09198 -0.04886
v 0.06611 -0.08335 0.01437
v 0.04312 -0.08911 0.00286
v 0.05173 -0.06899 -0.08049
v 0.06323 -0.06899 -0.06898
v 0.04886 -0.05461 0.02300
v 0.02299 -0.08623 -0.06611
v 0.05461 -0.05461 -0.07473
v 0.05173 -0.08048 -0.07761
v 0.03162 -0.07760 -0.08049
v 0.02299 -0.08911 -0.03161
v 0.06323 -0.08623 -0.02873
v 0.06611 -0.06037 -0.01150
v 0.03162 -0.09198 -0.03736
v 0.05748 -0.07760 -0.07761
v 0.03449 -0.09198 -0.05173
v 0.06036 -0.05749 -0.06898
v 0.06036 -0.08335 -0.06036
v -0.05174 -0.08623 0.05175
v 0.06036 -0.05461 0.07186
v 0.06036 -0.05461 0.06899
v -0.06037 -0.05461 0.07474
v 0.00285 -0.08911 0.07474
v 0.05173 -0.08623 0.05175
v -0.04600 -0.05461 0.05750
v -0.05462 -0.08335 0.07474
v 0.05748 -0.07760 0.07474
v 0.05748 -0.07187 0.05175
v -0.01725 -0.05461 0.07762
v -0.05749 -0.06899 0.05175
v -0.03161 -0.09198 0.06325
v 0.04023 -0.08911 0.06899
v -0.06325 -0.07760 0.06325
v 0.04311 -0.05461 0.06325
v 0.06036 -0.08335 0.06612
v 0.05748 -0.05461 0.07474
v 0.00861 -0.08911 0.05175
v 0.01724 -0.09198 0.06325
v -0.06037 -0.05461 0.06325
v -0.04888 -0.08911 0.06899
v -0.03737 -0.06037 0.07762
v 0.06036 -0.08048 0.05175
v -0.05462 -0.06611 0.05175
v -0.02874 -0.08911 0.07474
v -0.06325 -0.07760 0.07186
v 0.01724 -0.09198 0.06899
v 0.03160 -0.08623 0.07474
v -0.06325 -0.06037 0.06325
v -0.05749 -0.08335 0.05175
v -0.03161 -0.09198 0.06899
v 0.06036 -0.08048 0.07186
v -0.06037 -0.07760 0.07474
v -0.04025 -0.05461 0.05750
v -0.05462 -0.08623 0.07186
v -0.06325 -0.05749 0.07186
v -0.04025 -0.05461 0.07762
v 0.05748 -0.05461 0.06612
v -0.02586 -0.06037 0.07762
v 0.05460 -0.08623 0.06612
v -0.04312 -0.06611 0.05175
v 0.04599 -0.08623 0.07186
v 0.03161 0.07762 -0.06899
v 0.06611 0.07474 0.02300
v 0.06611 0.06900 0.02300
v 0.02874 0.08337 0.02875
v 0.04599 0.05175 0.02875
v 0.05748 0.05175 -0.04024
v 0.05748 0.08049 -0.05749
v 0.02874 0.06900 -0.06611
v 0.06036 0.08337 0.02875
v 0.02874 0.06900 0.02875
v 0.06323 0.05462 0.02875
v 0.06611 0.06612 -0.02012
v 0.06036 0.08337 -0.02874
v 0.02874 0.08049 -0.06611
v 0.05173 0.07187 -0.06611
v 0.04886 0.05175 -0.04024
v 0.06611 0.08049 -0.01150
v 0.06323 0.05175 -0.00000
v 0.06323 0.06900 -0.04310
v 0.05173 0.08049 -0.06611
v 0.04599 0.08337 -0.02585
v 0.04599 0.07187 -0.06899
v 0.06323 0.05750 -0.02874
v 0.06611 0.06037 0.00862
v 0.06323 0.07762 -0.04310
v 0.06036 0.05175 0.02875
v 0.02874 0.08337 0.00574
v 0.06323 0.08337 0.01725
v 0.05748 0.07187 -0.05749
v 0.06323 0.08049 0.02875
v 0.06611 0.08049 0.01437
v 0.06611 0.06037 -0.00288
v 0.06036 0.05462 -0.03736
v -0.04886 -0.08911 0.04600
v -0.04024 -0.05749 0.03450
v -0.04024 -0.05749 0.02875
v 0.02011 -0.08911 0.03162
v 0.02011 -0.07761 0.05175
v -0.05750 -0.08623 0.02875
v -0.05461 -0.06899 0.05175
v 0.02011 -0.07473 0.02875
v 0.00860 -0.08911 0.05175
v -0.05750 -0.06324 0.02875
v -0.05750 -0.08048 0.05175
v -0.05175 -0.08911 0.02875
v 0.02011 -0.08911 0.02875
v -0.05175 -0.08623 0.05175
v 0.02011 -0.08623 0.05175
v -0.04312 -0.06899 0.05175
v -0.05461 -0.06036 0.03162
v 0.02011 -0.07473 0.03450
v -0.05750 -0.07187 0.05175
v -0.05175 -0.08911 0.04312
v 0.02011 -0.08624 0.05175
v 0.06323 -0.05461 0.03162
v 0.06323 -0.05461 0.02875
v 0.06323 -0.08336 0.02875
v 0.02011 -0.07473 0.02875
v 0.06035 -0.08336 0.05175
v 0.02299 -0.07473 0.05175
v 0.02011 -0.08624 0.02875
v 0.05461 -0.05461 0.03737
v 0.06035 -0.07186 0.05175
v 0.05748 -0.08624 0.04025
v 0.05173 -0.05461 0.02875
v 0.06323 -0.08048 0.04887
v 0.05748 -0.08624 0.02875
v 0.05173 -0.08624 0.05175
v 0.02011 -0.07761 0.05175
v 0.06035 -0.05461 0.03737
v 0.06323 -0.07186 0.04887
v 0.04886 -0.07186 0.05175
v 0.02011 -0.07473 0.03450
v 0.06035 0.08337 0.06899
v 0.01437 -0.05461 0.06325
v 0.03737 0.00290 0.05749
v 0.01437 0.08912 0.05749
v 0.01437 0.08623 0.07761
v 0.06035 -0.05461 0.07474
v 0.06611 -0.00285 0.05749
v 0.01437 -0.04599 0.07761
v 0.05748 0.00577 0.08049
v 0.06611 0.08049 0.05749
v 0.06323 0.07187 0.07474
v 0.05748 -0.04886 0.06325
v 0.06611 -0.02299 0.07474
v 0.01725 0.00002 0.08049
v 0.05460 0.08049 0.07761
v 0.04311 -0.05173 0.07761
v 0.03449 0.08912 0.07186
v 0.06035 -0.05461 0.06612
v 0.01437 -0.05461 0.07474
v 0.05748 0.08623 0.05749
v 0.06611 0.07187 0.07186
v 0.05173 -0.01436 0.08049
v 0.01437 0.06899 0.05749
v 0.02587 0.01725 0.08049
v 0.06611 -0.03161 0.06612
v 0.06323 0.02298 0.07761
v 0.06323 -0.02299 0.07761
v 0.04311 -0.05461 0.06325
v 0.05748 -0.00574 0.05749
v 0.04886 0.01725 0.08049
v 0.01437 0.08912 0.07474
v 0.04599 0.08623 0.07474
v 0.05748 0.07761 0.07761
v 0.05748 -0.04023 0.07761
v 0.03449 0.08912 0.05749
v 0.03737 -0.01436 0.08049
v 0.06323 -0.04886 0.06612
v 0.05748 0.08623 0.06612
v 0.02587 -0.05173 0.07761
v 0.06323 -0.04886 0.07186
v 0.06611 0.02585 0.07474
v 0.05748 -0.00861 0.08049
v 0.04599 0.08337 0.07761
v -0.02875 0.08337 -0.04887
v -0.05175 0.05175 -0.07474
v -0.05750 0.05175 -0.07186
v 0.02874 0.06900 -0.03162
v -0.05750 0.05175 -0.03162
v 0.00861 0.05175 -0.07186
v 0.02011 0.08049 -0.06611
v -0.05750 0.08049 -0.03162
v -0.04600 0.07762 -0.07474
v 0.02874 0.08049 -0.03162
v 0.02874 0.07187 -0.06611
v -0.06038 0.07762 -0.05461
v -0.04600 0.08337 -0.06611
v -0.00576 0.06900 -0.07474
v -0.04600 0.05175 -0.03162
v 0.00861 0.05175 -0.06611
v -0.06038 0.05462 -0.03162
v -0.05750 0.07474 -0.06899
v 0.02874 0.08049 -0.06324
v -0.02300 0.08337 -0.06611
v -0.00864 0.05175 -0.07474
v -0.06038 0.05750 -0.06036
v 0.02874 0.06900 -0.06324
v -0.00001 0.07762 -0.07186
v -0.06038 0.07762 -0.03162
v -0.03449 0.08337 -0.06899
v -0.05175 0.07187 -0.07474
v 0.02874 0.07762 -0.06611
v -0.05750 0.08049 -0.05461
v -0.02875 0.07762 -0.07474
v -0.04600 0.08337 -0.05175
v -0.05175 0.08049 -0.06899
v -0.00289 0.06325 -0.07474
v -0.06038 0.07187 -0.06036
v 0.04311 -0.00286 0.01437
v 0.06036 0.05174 0.02875
v 0.06036 0.05174 -0.00287
v 0.06323 -0.05461 0.02875
v 0.05174 -0.05461 -0.02873
v 0.04311 -0.05172 0.02875
v 0.06323 -0.05461 -0.02873
v 0.05174 0.02298 -0.02873
v 0.04599 0.05174 0.02875
v 0.06036 0.01437 -0.02873
v 0.05174 0.05174 0.00000
v 0.04311 -0.05172 0.01724
v 0.04311 0.01724 0.02012
v 0.06323 -0.04023 -0.00287
v 0.04599 -0.05461 0.02875
v 0.05749 0.02587 -0.02873
v 0.04311 0.01724 0.02875
v 0.04599 0.05174 0.02587
v 0.06323 -0.04310 0.02299
v 0.05461 0.05174 -0.00287
v 0.04311 0.01437 0.01724
v 0.06323 -0.04885 -0.02586
v -0.02875 -0.02585 0.02875
v -0.05463 0.03161 0.02875
v -0.05463 0.03161 0.03450
v -0.03738 0.04599 0.02875
v -0.04600 0.04599 0.04312
v -0.04313 -0.04597 0.03450
v -0.04600 -0.03161 0.02300
v -0.04025 0.02874 0.02300
v -0.03164 0.00287 0.03450
v -0.05463 0.04599 0.04025
v -0.05175 0.02874 0.02300
v -0.05174 -0.01149 0.03162
v -0.02875 -0.01149 0.02587
v -0.03164 -0.02297 0.03450
v -0.05463 0.04599 0.02875
v -0.03738 0.04599 0.03737
v -0.04025 -0.03161 0.02300
v -0.02875 0.00001 0.03162
v -0.05175 -0.01149 0.02587
v -0.04025 -0.04597 0.02875
v -0.04025 -0.04597 0.03450
v -0.04887 0.04310 0.04312
v -0.05174 -0.00861 0.03450
v -0.03738 0.02011 0.02300
v -0.02875 -0.02298 0.02587
v -0.03163 0.01149 0.02587
v -0.04600 -0.03736 0.02587
v -0.04025 0.04599 0.04025
v -0.02875 -0.02585 0.03162
v -0.05463 0.04310 0.04025
v -0.06038 0.06038 0.03450
v 0.01437 0.08912 0.04887
v 0.01437 0.06899 0.04887
v 0.01437 0.06899 0.02875
v -0.05463 0.04888 0.04887
v -0.05750 0.08049 0.02875
v -0.05750 0.08049 0.04887
v -0.03737 0.04600 0.02875
v 0.01437 0.08336 0.02875
v -0.05463 0.04600 0.02875
v -0.00289 0.08912 0.04312
v -0.04312 0.04600 0.04312
v -0.04312 0.08336 0.02875
v -0.06038 0.05750 0.04887
v -0.06038 0.07762 0.02875
v -0.00577 0.08912 0.04887
v -0.06038 0.07762 0.04887
v -0.03737 0.04600 0.03738
v -0.04600 0.04888 0.04887
v 0.01437 0.08624 0.03450
v -0.05463 0.04600 0.04312
v -0.05750 0.04888 0.03450
v -0.06038 0.06325 0.02875
v 0.00573 -0.04885 0.07762
v -0.06611 -0.02586 0.06612
v -0.06611 -0.02586 0.07186
v 0.01436 0.04025 0.07762
v -0.04025 -0.04598 0.05175
v -0.05749 0.04025 0.06037
v 0.01436 0.02587 0.06325
v -0.06037 0.04025 0.07474
v 0.01436 -0.05460 0.06325
v -0.04025 -0.05460 0.07762
v -0.06037 -0.05460 0.06325
v -0.04887 -0.01435 0.05175
v -0.06037 0.00575 0.07762
v -0.03162 0.04025 0.06037
v 0.01436 -0.05460 0.07474
v -0.06611 0.00575 0.06325
v -0.05749 -0.05460 0.07474
v 0.01436 0.04025 0.06612
v -0.04599 -0.04885 0.05175
v -0.06037 -0.02011 0.05750
v -0.04025 0.02874 0.07762
v -0.04599 -0.05460 0.05750
v -0.06611 0.01149 0.07186
v 0.01436 -0.04598 0.07762
v -0.06037 -0.01723 0.07762
v -0.04599 -0.01435 0.05175
v -0.06037 0.04025 0.06325
v -0.06611 -0.02298 0.06325
v -0.00864 0.04025 0.07762
v -0.06324 -0.04310 0.07186
v -0.06037 -0.01149 0.05750
v -0.01726 -0.05460 0.07762
v -0.06325 0.07187 0.06037
v 0.01437 0.09198 0.07186
v 0.01437 0.09198 0.06037
v 0.01437 0.04025 0.07761
v -0.04599 0.05176 0.04887
v -0.06036 0.04025 0.07474
v 0.01437 0.06899 0.04887
v -0.02874 0.08336 0.07761
v -0.05750 0.08049 0.04887
v 0.01437 0.04025 0.06612
v -0.05461 0.04025 0.05750
v -0.06036 0.07762 0.07186
v 0.01437 0.08911 0.04887
v -0.02588 0.08911 0.07186
v 0.01437 0.08624 0.07761
v -0.06036 0.05750 0.04887
v -0.00576 0.09198 0.05750
v -0.06325 0.04025 0.06612
v -0.03737 0.06899 0.07761
v -0.06036 0.07187 0.07474
v -0.01152 0.08911 0.04887
v -0.04025 0.08624 0.05750
v -0.06325 0.07187 0.07186
v -0.00864 0.09198 0.07186
v -0.00576 0.04025 0.07761
v -0.05750 0.08049 0.06899
v -0.04312 0.04025 0.05750
v -0.05750 0.05176 0.04887
v -0.06036 0.07762 0.04887
v -0.02014 0.08911 0.07474
v -0.06325 0.04025 0.07186
v -0.04025 0.08336 0.07474
v -0.04025 0.08624 0.06899
v 0.04311 -0.05173 0.02875
v 0.06323 0.02012 0.05749
v 0.06323 0.02012 0.05462
v 0.04599 0.04886 0.04312
v 0.06036 0.04886 0.02875
v 0.06323 -0.05461 0.02875
v 0.04599 -0.04023 0.04599
v 0.04311 0.01437 0.05462
v 0.04599 0.04886 0.02875
v 0.06036 -0.05173 0.04312
v 0.06323 -0.00001 0.05749
v 0.06036 0.04886 0.04599
v 0.04311 0.01724 0.02875
v 0.06323 0.01149 0.03162
v 0.04599 -0.05173 0.04312
v 0.05461 0.02012 0.05749
v 0.05461 0.00287 0.05749
v 0.04886 0.04886 0.04599
v 0.05461 -0.05461 0.04025
v 0.04311 -0.05173 0.03162
v 0.06323 -0.05461 0.03162
v 0.04311 0.01149 0.05462
v 0.06323 0.00287 0.02875
v 0.05174 -0.05461 0.02875
v 0.06611 0.06613 0.04312
v 0.03162 0.08912 0.05749
v 0.03162 0.08912 0.05462
v 0.01437 0.06900 0.02875
v 0.04599 0.05463 0.05749
v 0.06035 0.08336 0.02875
v 0.06035 0.04887 0.02875
v 0.06611 0.08049 0.05749
v 0.01437 0.06900 0.05749
v 0.01437 0.08912 0.04312
v 0.04599 0.04887 0.02875
v 0.06323 0.05463 0.05749
v 0.01437 0.08336 0.02875
v 0.04599 0.04887 0.04599
v 0.01437 0.08912 0.05749
v 0.05748 0.08624 0.05749
v 0.06323 0.08049 0.02875
v 0.05460 0.08624 0.03737
v 0.06035 0.04887 0.04887
v 0.04024 0.08624 0.03162
v 0.06323 0.05463 0.02875
v 0.06611 0.06037 0.05749
v 0.06611 0.07474 0.04025
v 0.06323 0.08336 0.04025
v -0.05750 -0.05461 -0.02012
v -0.05175 -0.03162 -0.01437
v -0.03163 -0.05173 -0.00862
v -0.05750 -0.05461 -0.00862
v -0.03163 -0.05461 -0.01437
v -0.05750 -0.03737 -0.00862
v -0.05750 -0.03162 -0.01725
v -0.04887 -0.05173 -0.02012
v -0.05175 -0.03162 -0.01725
v -0.03163 -0.05173 -0.01437
v -0.05175 -0.03737 -0.00862
v -0.03163 -0.05461 -0.00862
v 0.02874 0.08337 0.00862
v -0.06038 0.06612 -0.03161
v -0.06038 0.06612 0.02875
v 0.02874 0.06900 -0.03161
v -0.05750 0.08049 -0.03161
v -0.04311 0.08337 0.02875
v 0.02874 0.06900 0.02875
v 0.02874 0.08049 -0.03161
v 0.02874 0.08337 0.02875
v -0.06038 0.07762 0.02875
v -0.02300 0.06612 0.00575
v -0.03162 0.06612 -0.03161
v -0.02588 0.06612 0.02875
v -0.06038 0.07762 -0.03161
v -0.05750 0.08049 0.02875
v -0.03737 0.08337 0.02012
v -0.00576 0.08337 0.01150
v 0.05173 0.04598 -0.06324
v 0.02874 -0.05461 -0.07474
v 0.05461 -0.05461 -0.07474
v 0.03449 -0.05461 -0.06037
v 0.02874 0.04885 -0.07186
v 0.05748 -0.05461 -0.06037
v 0.05748 0.01437 -0.07474
v 0.04311 0.04024 -0.06037
v 0.06036 0.01437 -0.06037
v 0.02874 0.04598 -0.06612
v 0.04599 0.03736 -0.07474
v 0.06036 -0.01148 -0.07186
v 0.02874 -0.05461 -0.06324
v 0.02874 0.02874 -0.07474
v 0.04599 0.05174 -0.07186
v 0.05748 0.02874 -0.07186
v 0.03449 0.05174 -0.06612
v 0.05748 -0.05461 -0.07186
v 0.06036 -0.01436 -0.06037
v 0.05461 0.03736 -0.06037
v 0.06036 0.01149 -0.07186
v 0.04024 0.02298 -0.06037
v 0.05173 0.03449 -0.07474
v 0.05461 0.04024 -0.06899
v 0.05748 0.03161 -0.06324
v 0.02874 -0.03735 -0.06324
v 0.04599 0.05174 -0.06612
v -0.05462 -0.01725 -0.07474
v -0.05175 -0.03449 -0.03737
v -0.05175 -0.01150 -0.04024
v -0.03163 -0.05461 -0.07474
v -0.03163 -0.01150 -0.06611
v -0.03163 -0.05461 -0.03737
v -0.05750 -0.05461 -0.06899
v -0.05750 -0.05461 -0.03737
v -0.05750 -0.01150 -0.07186
v -0.03163 -0.01150 -0.07474
v -0.05750 -0.01150 -0.04024
v -0.03163 -0.03736 -0.04024
v -0.04600 -0.05461 -0.07474
v -0.03163 -0.04886 -0.03737
v -0.05462 -0.05461 -0.07186
v -0.05462 -0.01150 -0.07474
v -0.06038 -0.00861 -0.06899
v -0.04887 0.05175 -0.03162
v -0.05750 0.05175 -0.03162
v -0.03163 0.05175 -0.07474
v -0.03163 -0.01149 -0.06611
v -0.05750 -0.01149 -0.04025
v -0.05750 0.05175 -0.07186
v -0.03451 0.02300 -0.04312
v -0.05750 -0.01149 -0.07474
v -0.03163 -0.01149 -0.07474
v -0.03163 0.05175 -0.06036
v -0.05175 -0.01149 -0.04025
v -0.06038 -0.00286 -0.03738
v -0.04887 0.03162 -0.03162
v -0.06038 0.01151 -0.06899
v -0.05175 0.05175 -0.07474
v -0.05750 0.02587 -0.03162
v -0.03451 0.02875 -0.04312
v -0.06038 0.00864 -0.03738
v -0.04600 0.05175 -0.03450
v -0.05750 0.01726 -0.07474
v -0.06038 0.00288 -0.07186
v -0.05175 0.02587 -0.03162
v 0.01149 0.05175 -0.06612
v -0.03163 -0.03162 -0.07474
v 0.01436 -0.03162 -0.07474
v -0.03163 -0.03162 -0.06612
v -0.03163 0.05175 -0.07474
v -0.03163 0.05175 -0.06037
v 0.02874 -0.03162 -0.06612
v 0.02874 0.02586 -0.07474
v 0.02874 0.04599 -0.06612
v -0.01150 0.04887 -0.06037
v 0.02874 0.04599 -0.07186
v 0.02874 -0.01437 -0.07474
v -0.03163 0.04024 -0.06037
v -0.01150 0.05175 -0.07474
v 0.02874 -0.03162 -0.07186
v 0.01149 0.05175 -0.07186
v -0.01150 0.05175 -0.06037
v 0.00286 0.00287 0.00863
v -0.06037 -0.00863 0.00288
v -0.05462 -0.04598 0.00000
v -0.05174 -0.05461 0.01437
v -0.05174 0.02875 0.01437
v -0.03450 0.02875 0.00000
v 0.00286 -0.02011 0.00000
v -0.02301 -0.05461 0.00863
v -0.01726 -0.01150 0.01437
v -0.05174 0.02875 0.00000
v -0.03162 -0.05461 0.00000
v -0.00289 0.01437 0.00000
v -0.05174 0.00287 0.01725
v -0.04025 0.02875 0.01437
v 0.00286 -0.01724 0.00863
v -0.06037 -0.00000 0.01150
v -0.04025 -0.05461 0.01437
v -0.05749 -0.04598 0.01150
v -0.02876 0.02875 0.00863
v -0.04025 -0.00863 0.01725
v -0.00002 -0.00000 0.01150
v -0.05462 -0.05461 0.00288
v -0.05462 0.02875 0.00288
v -0.00289 0.01437 0.00575
v -0.02301 -0.05461 0.00288
v 0.00286 -0.02298 0.00575
v -0.00002 -0.00863 0.01150
v -0.05749 -0.00000 0.00000
v -0.04312 0.00287 0.01725
v 0.00286 0.00287 0.00000
v -0.05749 -0.01150 0.01437
v -0.05749 -0.04598 0.00288
v -0.05462 0.02875 0.01150
v -0.06037 -0.00000 0.00288
v -0.05174 -0.00863 0.01725
v -0.02013 0.00287 0.01437
v -0.02589 -0.03160 0.01437
v -0.00002 -0.02298 0.00863
v -0.05174 -0.05461 0.00000
v -0.02876 0.02875 0.00288
v -0.05462 -0.04598 0.01437
v -0.05749 0.00287 0.01437
v -0.00863 -0.05174 -0.04024
v -0.00575 -0.05461 -0.05462
v -0.00575 -0.05174 -0.05462
v 0.02874 -0.05461 -0.04599
v 0.02874 -0.04886 -0.05174
v -0.02299 -0.04886 -0.05174
v -0.02299 -0.05461 -0.04024
v -0.01438 -0.04886 -0.04024
v 0.02874 -0.05461 -0.05462
v 0.02874 -0.04886 -0.04599
v -0.02299 -0.05461 -0.05174
v -0.02299 -0.04886 -0.04024
v -0.05175 0.03163 -0.03162
v -0.03738 0.06612 -0.00288
v -0.06037 0.06612 -0.00288
v -0.04026 0.06612 -0.03162
v -0.06037 0.06612 -0.03162
v -0.05462 0.03163 -0.01437
v -0.05750 0.03163 -0.03162
v -0.04888 0.04600 -0.00288
v -0.04888 0.03163 -0.01437
v -0.03738 0.06324 -0.01724
v -0.06037 0.06037 -0.00288
v -0.05750 0.03163 -0.02012
v -0.06037 0.05462 -0.03162
v -0.03738 0.06324 -0.00288
v -0.05462 0.04887 -0.00288
v -0.04888 0.03163 -0.02012
v -0.04026 0.06324 -0.03162
v -0.04313 0.05175 -0.00288
v -0.05175 0.04313 -0.00287
v -0.03163 0.06612 0.02875
v -0.05750 0.06612 0.02875
v -0.03738 0.02875 0.02875
v -0.03451 0.06612 -0.00287
v -0.03163 0.02875 0.00288
v -0.05462 0.02875 0.01151
v -0.06038 0.06612 -0.00287
v -0.05462 0.03450 0.02875
v -0.05175 0.02875 0.00001
v -0.06038 0.06324 0.01151
v -0.03738 0.02875 0.00001
v -0.03163 0.05174 0.00288
v -0.05175 0.02875 0.02875
v -0.03163 0.02875 0.00863
v -0.05462 0.02875 0.00288
v -0.04313 0.04601 -0.00287
v -0.06038 0.06324 -0.00287
v 0.06323 -0.05174 -0.02874
v 0.04886 -0.05174 -0.06036
v 0.04886 -0.04312 -0.06036
v 0.02874 -0.04886 -0.04599
v 0.05173 -0.03449 -0.02874
v 0.06035 -0.03449 -0.05174
v 0.04599 -0.03449 -0.05461
v 0.05173 -0.05461 -0.02874
v 0.06035 -0.05461 -0.05461
v 0.02874 -0.05461 -0.05461
v 0.06035 -0.03449 -0.02874
v 0.03449 -0.04024 -0.05174
v 0.06323 -0.05461 -0.04887
v 0.05461 -0.04312 -0.06036
v 0.02874 -0.05461 -0.04599
v 0.03162 -0.05174 -0.05749
v 0.03449 -0.04024 -0.04599
v 0.06323 -0.05461 -0.02874
v 0.02874 -0.04886 -0.05461
v 0.05748 -0.05461 -0.05749
v 0.04886 -0.01436 -0.06036
v 0.05748 0.04024 -0.02874
v 0.05748 0.05174 -0.03162
v 0.04024 0.01437 -0.04599
v 0.06036 -0.03449 -0.02874
v 0.06036 0.01437 -0.06036
v 0.04311 0.03449 -0.06036
v 0.05173 -0.03449 -0.02874
v 0.05748 -0.03449 -0.05461
v 0.04886 0.05174 -0.03450
v 0.04886 -0.03449 -0.05461
v 0.05748 0.05174 -0.04312
v 0.04024 -0.00286 -0.05174
v 0.06036 0.01724 -0.02874
v 0.06036 -0.01436 -0.06036
v 0.05461 0.03449 -0.06036
v 0.05173 0.02587 -0.02874
v 0.04599 0.04886 -0.04599
v 0.04311 0.00576 -0.06036
v 0.04024 -0.00286 -0.04599
v 0.04886 -0.03449 -0.04025
v 0.04311 0.04024 -0.04599
v 0.06036 -0.03449 -0.04887
v 0.04599 0.03737 -0.06036
v 0.04024 0.01724 -0.05174
v 0.05173 0.05174 -0.03162
v 0.05748 0.02874 -0.06036
v -0.03163 -0.05461 -0.05749
v 0.02874 -0.03162 -0.06612
v 0.02874 -0.03162 -0.07186
v 0.02874 -0.05461 -0.06324
v -0.03163 -0.05461 -0.07474
v -0.03163 -0.03162 -0.06324
v 0.02874 -0.05461 -0.07474
v -0.03163 -0.03162 -0.07474
v 0.00286 -0.05173 -0.05749
v 0.01436 -0.03162 -0.07474
v 0.00574 -0.03162 -0.06324
v -0.03163 -0.04886 -0.05749
v 0.02874 -0.04024 -0.06324
v 0.02874 -0.04024 -0.07474
v 0.00286 -0.05461 -0.05749
v -0.02875 -0.04312 -0.04025
v -0.03163 -0.05461 -0.05749
v -0.03163 -0.05174 -0.05749
v -0.02301 -0.05461 -0.05174
v -0.03163 -0.05461 -0.03737
v -0.03163 -0.04024 -0.04600
v -0.02301 -0.04599 -0.04886
v -0.02301 -0.05461 -0.04025
v -0.02588 -0.05174 -0.05749
v -0.02301 -0.04886 -0.04025
f 18 26 41 
f 2 3 6 
f 4 2 8 
f 2 6 9 
f 4 7 10 
f 3 2 12 
f 4 10 12 
f 2 4 13 
f 12 2 13 
f 4 12 13 
f 6 3 15 
f 15 1 16 
f 8 2 18 
f 5 8 18 
f 4 8 19 
f 19 14 20 
f 8 5 21 
f 19 8 21 
f 14 19 21 
f 10 7 22 
f 1 15 22 
f 15 3 23 
f 5 9 24 
f 9 6 24 
f 17 5 24 
f 5 17 25 
f 17 11 25 
f 21 5 25 
f 11 21 25 
f 2 9 26 
f 18 2 26 
f 4 19 27 
f 19 20 27 
f 20 4 27 
f 20 14 28 
f 1 22 29 
f 22 7 29 
f 21 11 30 
f 14 21 30 
f 6 16 31 
f 17 6 31 
f 11 17 31 
f 30 11 31 
f 12 10 32 
f 10 22 33 
f 22 15 33 
f 15 23 33 
f 23 10 33 
f 7 4 34 
f 4 20 34 
f 20 28 34 
f 6 15 35 
f 16 6 35 
f 15 16 35 
f 1 14 36 
f 16 1 36 
f 14 30 36 
f 31 16 36 
f 30 31 36 
f 23 3 37 
f 10 23 37 
f 3 32 37 
f 32 10 37 
f 6 17 38 
f 24 6 38 
f 17 24 38 
f 14 1 39 
f 28 14 39 
f 1 29 39 
f 29 7 39 
f 7 34 39 
f 34 28 39 
f 3 12 40 
f 32 3 40 
f 12 32 40 
f 9 5 41 
f 5 18 41 
f 26 9 41 
