# Original object name hint: convex_26
v -0.06038 -0.07187 -0.07473
v 0.02299 -0.07473 0.02875
v -0.04025 -0.06037 0.02875
v 0.02299 -0.05461 -0.07473
v 0.00287 -0.09198 -0.04886
v -0.05462 -0.08911 0.02875
v -0.05749 -0.05461 -0.07186
v 0.02299 -0.08335 -0.07186
v 0.02011 -0.08911 0.02875
v -0.05749 -0.05461 0.00861
v -0.05175 -0.08911 -0.05173
v -0.02299 -0.05461 0.00861
v 0.02299 -0.05461 -0.04598
v -0.05462 -0.07760 -0.07761
v -0.06038 -0.08048 0.02875
v -0.06038 -0.08335 -0.05173
v -0.04312 -0.09198 -0.04023
v 0.02299 -0.08911 -0.05460
v 0.02299 -0.07760 -0.07761
v -0.02299 -0.05749 -0.07761
v -0.02299 -0.08623 -0.06898
v -0.06038 -0.05749 -0.01150
v -0.05749 -0.06324 0.02875
v -0.00289 -0.09198 -0.03449
v -0.02299 -0.09198 -0.05173
v 0.02299 -0.08623 0.02875
v 0.02299 -0.05749 -0.07761
v -0.05175 -0.06324 -0.07761
v -0.06038 -0.05749 -0.06898
v -0.05462 -0.08048 -0.07473
v -0.05462 -0.08911 -0.04598
v -0.05462 -0.05461 0.01436
v -0.06038 -0.06611 0.02299
v -0.05175 -0.05461 -0.07473
v -0.06038 -0.08335 0.02299
v -0.06038 -0.07760 -0.07186
v -0.05462 -0.06037 0.02875
v -0.03450 -0.09198 -0.03449
v -0.05749 -0.06899 -0.07761
v -0.04025 -0.05461 0.01436
v 0.02299 -0.08911 -0.03162
v 0.03162 -0.08048 -0.07761
v 0.06611 -0.06899 0.02875
v 0.06611 -0.07473 0.02875
v 0.02299 -0.08623 0.02875
v 0.02299 -0.05461 -0.04598
v 0.05748 -0.05461 -0.07186
v 0.05173 -0.09198 -0.04886
v 0.05173 -0.05461 0.02875
v 0.06323 -0.07760 -0.06898
v 0.02299 -0.08911 -0.05749
v 0.06036 -0.08623 0.02875
v 0.02299 -0.05749 -0.07761
v 0.02299 -0.07473 0.02875
v 0.06323 -0.05461 -0.05173
v 0.06611 -0.08335 -0.01726
v 0.05173 -0.07760 -0.08049
v 0.06323 -0.05461 0.02875
v 0.03449 -0.09198 -0.03448
v 0.06611 -0.06611 -0.04024
v 0.02299 -0.07760 -0.07761
v 0.06611 -0.06037 0.02012
v 0.02299 -0.05461 -0.07473
v 0.04598 -0.05749 -0.07761
v 0.05173 -0.09198 -0.03161
v 0.06611 -0.08048 -0.04598
v 0.04598 -0.08911 -0.06036
v 0.06036 -0.06611 -0.07473
v 0.06323 -0.08623 0.00862
v 0.03162 -0.06899 -0.08049
v 0.05748 -0.08048 -0.07473
v 0.05748 -0.08911 -0.04598
v 0.03162 -0.09198 -0.04886
v 0.06611 -0.08335 0.01437
v 0.04312 -0.08911 0.00286
v 0.05173 -0.06899 -0.08049
v 0.06323 -0.06899 -0.06898
v 0.04886 -0.05461 0.02300
v 0.02299 -0.08623 -0.06611
v 0.05461 -0.05461 -0.07473
v 0.05173 -0.08048 -0.07761
v 0.03162 -0.07760 -0.08049
v 0.02299 -0.08911 -0.03161
v 0.06323 -0.08623 -0.02873
v 0.06611 -0.06037 -0.01150
v 0.03162 -0.09198 -0.03736
v 0.05748 -0.07760 -0.07761
v 0.03449 -0.09198 -0.05173
v 0.06036 -0.05749 -0.06898
v 0.06036 -0.08335 -0.06036
v -0.05174 -0.08623 0.05175
v 0.06036 -0.05461 0.07186
v 0.06036 -0.05461 0.06899
v -0.06037 -0.05461 0.07474
v 0.00285 -0.08911 0.07474
v 0.05173 -0.08623 0.05175
v -0.04600 -0.05461 0.05750
v -0.05462 -0.08335 0.07474
v 0.05748 -0.07760 0.07474
v 0.05748 -0.07187 0.05175
v -0.01725 -0.05461 0.07762
v -0.05749 -0.06899 0.05175
v -0.03161 -0.09198 0.06325
v 0.04023 -0.08911 0.06899
v -0.06325 -0.07760 0.06325
v 0.04311 -0.05461 0.06325
v 0.06036 -0.08335 0.06612
v 0.05748 -0.05461 0.07474
v 0.00861 -0.08911 0.05175
v 0.01724 -0.09198 0.06325
v -0.06037 -0.05461 0.06325
v -0.04888 -0.08911 0.06899
v -0.03737 -0.06037 0.07762
v 0.06036 -0.08048 0.05175
v -0.05462 -0.06611 0.05175
v -0.02874 -0.08911 0.07474
v -0.06325 -0.07760 0.07186
v 0.01724 -0.09198 0.06899
v 0.03160 -0.08623 0.07474
v -0.06325 -0.06037 0.06325
v -0.05749 -0.08335 0.05175
v -0.03161 -0.09198 0.06899
v 0.06036 -0.08048 0.07186
v -0.06037 -0.07760 0.07474
v -0.04025 -0.05461 0.05750
v -0.05462 -0.08623 0.07186
v -0.06325 -0.05749 0.07186
v -0.04025 -0.05461 0.07762
v 0.05748 -0.05461 0.06612
v -0.02586 -0.06037 0.07762
v 0.05460 -0.08623 0.06612
v -0.04312 -0.06611 0.05175
v 0.04599 -0.08623 0.07186
v 0.03161 0.07762 -0.06899
v 0.06611 0.07474 0.02300
v 0.06611 0.06900 0.02300
v 0.02874 0.08337 0.02875
v 0.04599 0.05175 0.02875
v 0.05748 0.05175 -0.04024
v 0.05748 0.08049 -0.05749
v 0.02874 0.06900 -0.06611
v 0.06036 0.08337 0.02875
v 0.02874 0.06900 0.02875
v 0.06323 0.05462 0.02875
v 0.06611 0.06612 -0.02012
v 0.06036 0.08337 -0.02874
v 0.02874 0.08049 -0.06611
v 0.05173 0.07187 -0.06611
v 0.04886 0.05175 -0.04024
v 0.06611 0.08049 -0.01150
v 0.06323 0.05175 -0.00000
v 0.06323 0.06900 -0.04310
v 0.05173 0.08049 -0.06611
v 0.04599 0.08337 -0.02585
v 0.04599 0.07187 -0.06899
v 0.06323 0.05750 -0.02874
v 0.06611 0.06037 0.00862
v 0.06323 0.07762 -0.04310
v 0.06036 0.05175 0.02875
v 0.02874 0.08337 0.00574
v 0.06323 0.08337 0.01725
v 0.05748 0.07187 -0.05749
v 0.06323 0.08049 0.02875
v 0.06611 0.08049 0.01437
v 0.06611 0.06037 -0.00288
v 0.06036 0.05462 -0.03736
v -0.04886 -0.08911 0.04600
v -0.04024 -0.05749 0.03450
v -0.04024 -0.05749 0.02875
v 0.02011 -0.08911 0.03162
v 0.02011 -0.07761 0.05175
v -0.05750 -0.08623 0.02875
v -0.05461 -0.06899 0.05175
v 0.02011 -0.07473 0.02875
v 0.00860 -0.08911 0.05175
v -0.05750 -0.06324 0.02875
v -0.05750 -0.08048 0.05175
v -0.05175 -0.08911 0.02875
v 0.02011 -0.08911 0.02875
v -0.05175 -0.08623 0.05175
v 0.02011 -0.08623 0.05175
v -0.04312 -0.06899 0.05175
v -0.05461 -0.06036 0.03162
v 0.02011 -0.07473 0.03450
v -0.05750 -0.07187 0.05175
v -0.05175 -0.08911 0.04312
v 0.02011 -0.08624 0.05175
v 0.06323 -0.05461 0.03162
v 0.06323 -0.05461 0.02875
v 0.06323 -0.08336 0.02875
v 0.02011 -0.07473 0.02875
v 0.06035 -0.08336 0.05175
v 0.02299 -0.07473 0.05175
v 0.02011 -0.08624 0.02875
v 0.05461 -0.05461 0.03737
v 0.06035 -0.07186 0.05175
v 0.05748 -0.08624 0.04025
v 0.05173 -0.05461 0.02875
v 0.06323 -0.08048 0.04887
v 0.05748 -0.08624 0.02875
v 0.05173 -0.08624 0.05175
v 0.02011 -0.07761 0.05175
v 0.06035 -0.05461 0.03737
v 0.06323 -0.07186 0.04887
v 0.04886 -0.07186 0.05175
v 0.02011 -0.07473 0.03450
v 0.06035 0.08337 0.06899
v 0.01437 -0.05461 0.06325
v 0.03737 0.00290 0.05749
v 0.01437 0.08912 0.05749
v 0.01437 0.08623 0.07761
v 0.06035 -0.05461 0.07474
v 0.06611 -0.00285 0.05749
v 0.01437 -0.04599 0.07761
v 0.05748 0.00577 0.08049
v 0.06611 0.08049 0.05749
v 0.06323 0.07187 0.07474
v 0.05748 -0.04886 0.06325
v 0.06611 -0.02299 0.07474
v 0.01725 0.00002 0.08049
v 0.05460 0.08049 0.07761
v 0.04311 -0.05173 0.07761
v 0.03449 0.08912 0.07186
v 0.06035 -0.05461 0.06612
v 0.01437 -0.05461 0.07474
v 0.05748 0.08623 0.05749
v 0.06611 0.07187 0.07186
v 0.05173 -0.01436 0.08049
v 0.01437 0.06899 0.05749
v 0.02587 0.01725 0.08049
v 0.06611 -0.03161 0.06612
v 0.06323 0.02298 0.07761
v 0.06323 -0.02299 0.07761
v 0.04311 -0.05461 0.06325
v 0.05748 -0.00574 0.05749
v 0.04886 0.01725 0.08049
v 0.01437 0.08912 0.07474
v 0.04599 0.08623 0.07474
v 0.05748 0.07761 0.07761
v 0.05748 -0.04023 0.07761
v 0.03449 0.08912 0.05749
v 0.03737 -0.01436 0.08049
v 0.06323 -0.04886 0.06612
v 0.05748 0.08623 0.06612
v 0.02587 -0.05173 0.07761
v 0.06323 -0.04886 0.07186
v 0.06611 0.02585 0.07474
v 0.05748 -0.00861 0.08049
v 0.04599 0.08337 0.07761
v -0.02875 0.08337 -0.04887
v -0.05175 0.05175 -0.07474
v -0.05750 0.05175 -0.07186
v 0.02874 0.06900 -0.03162
v -0.05750 0.05175 -0.03162
v 0.00861 0.05175 -0.07186
v 0.02011 0.08049 -0.06611
v -0.05750 0.08049 -0.03162
v -0.04600 0.07762 -0.07474
v 0.02874 0.08049 -0.03162
v 0.02874 0.07187 -0.06611
v -0.06038 0.07762 -0.05461
v -0.04600 0.08337 -0.06611
v -0.00576 0.06900 -0.07474
v -0.04600 0.05175 -0.03162
v 0.00861 0.05175 -0.06611
v -0.06038 0.05462 -0.03162
v -0.05750 0.07474 -0.06899
v 0.02874 0.08049 -0.06324
v -0.02300 0.08337 -0.06611
v -0.00864 0.05175 -0.07474
v -0.06038 0.05750 -0.06036
v 0.02874 0.06900 -0.06324
v -0.00001 0.07762 -0.07186
v -0.06038 0.07762 -0.03162
v -0.03449 0.08337 -0.06899
v -0.05175 0.07187 -0.07474
v 0.02874 0.07762 -0.06611
v -0.05750 0.08049 -0.05461
v -0.02875 0.07762 -0.07474
v -0.04600 0.08337 -0.05175
v -0.05175 0.08049 -0.06899
v -0.00289 0.06325 -0.07474
v -0.06038 0.07187 -0.06036
v 0.04311 -0.00286 0.01437
v 0.06036 0.05174 0.02875
v 0.06036 0.05174 -0.00287
v 0.06323 -0.05461 0.02875
v 0.05174 -0.05461 -0.02873
v 0.04311 -0.05172 0.02875
v 0.06323 -0.05461 -0.02873
v 0.05174 0.02298 -0.02873
v 0.04599 0.05174 0.02875
v 0.06036 0.01437 -0.02873
v 0.05174 0.05174 0.00000
v 0.04311 -0.05172 0.01724
v 0.04311 0.01724 0.02012
v 0.06323 -0.04023 -0.00287
v 0.04599 -0.05461 0.02875
v 0.05749 0.02587 -0.02873
v 0.04311 0.01724 0.02875
v 0.04599 0.05174 0.02587
v 0.06323 -0.04310 0.02299
v 0.05461 0.05174 -0.00287
v 0.04311 0.01437 0.01724
v 0.06323 -0.04885 -0.02586
v -0.02875 -0.02585 0.02875
v -0.05463 0.03161 0.02875
v -0.05463 0.03161 0.03450
v -0.03738 0.04599 0.02875
v -0.04600 0.04599 0.04312
v -0.04313 -0.04597 0.03450
v -0.04600 -0.03161 0.02300
v -0.04025 0.02874 0.02300
v -0.03164 0.00287 0.03450
v -0.05463 0.04599 0.04025
v -0.05175 0.02874 0.02300
v -0.05174 -0.01149 0.03162
v -0.02875 -0.01149 0.02587
v -0.03164 -0.02297 0.03450
v -0.05463 0.04599 0.02875
v -0.03738 0.04599 0.03737
v -0.04025 -0.03161 0.02300
v -0.02875 0.00001 0.03162
v -0.05175 -0.01149 0.02587
v -0.04025 -0.04597 0.02875
v -0.04025 -0.04597 0.03450
v -0.04887 0.04310 0.04312
v -0.05174 -0.00861 0.03450
v -0.03738 0.02011 0.02300
v -0.02875 -0.02298 0.02587
v -0.03163 0.01149 0.02587
v -0.04600 -0.03736 0.02587
v -0.04025 0.04599 0.04025
v -0.02875 -0.02585 0.03162
v -0.05463 0.04310 0.04025
v -0.06038 0.06038 0.03450
v 0.01437 0.08912 0.04887
v 0.01437 0.06899 0.04887
v 0.01437 0.06899 0.02875
v -0.05463 0.04888 0.04887
v -0.05750 0.08049 0.02875
v -0.05750 0.08049 0.04887
v -0.03737 0.04600 0.02875
v 0.01437 0.08336 0.02875
v -0.05463 0.04600 0.02875
v -0.00289 0.08912 0.04312
v -0.04312 0.04600 0.04312
v -0.04312 0.08336 0.02875
v -0.06038 0.05750 0.04887
v -0.06038 0.07762 0.02875
v -0.00577 0.08912 0.04887
v -0.06038 0.07762 0.04887
v -0.03737 0.04600 0.03738
v -0.04600 0.04888 0.04887
v 0.01437 0.08624 0.03450
v -0.05463 0.04600 0.04312
v -0.05750 0.04888 0.03450
v -0.06038 0.06325 0.02875
v 0.00573 -0.04885 0.07762
v -0.06611 -0.02586 0.06612
v -0.06611 -0.02586 0.07186
v 0.01436 0.04025 0.07762
v -0.04025 -0.04598 0.05175
v -0.05749 0.04025 0.06037
v 0.01436 0.02587 0.06325
v -0.06037 0.04025 0.07474
v 0.01436 -0.05460 0.06325
v -0.04025 -0.05460 0.07762
v -0.06037 -0.05460 0.06325
v -0.04887 -0.01435 0.05175
v -0.06037 0.00575 0.07762
v -0.03162 0.04025 0.06037
v 0.01436 -0.05460 0.07474
v -0.06611 0.00575 0.06325
v -0.05749 -0.05460 0.07474
v 0.01436 0.04025 0.06612
v -0.04599 -0.04885 0.05175
v -0.06037 -0.02011 0.05750
v -0.04025 0.02874 0.07762
v -0.04599 -0.05460 0.05750
v -0.06611 0.01149 0.07186
v 0.01436 -0.04598 0.07762
v -0.06037 -0.01723 0.07762
v -0.04599 -0.01435 0.05175
v -0.06037 0.04025 0.06325
v -0.06611 -0.02298 0.06325
v -0.00864 0.04025 0.07762
v -0.06324 -0.04310 0.07186
v -0.06037 -0.01149 0.05750
v -0.01726 -0.05460 0.07762
v -0.06325 0.07187 0.06037
v 0.01437 0.09198 0.07186
v 0.01437 0.09198 0.06037
v 0.01437 0.04025 0.07761
v -0.04599 0.05176 0.04887
v -0.06036 0.04025 0.07474
v 0.01437 0.06899 0.04887
v -0.02874 0.08336 0.07761
v -0.05750 0.08049 0.04887
v 0.01437 0.04025 0.06612
v -0.05461 0.04025 0.05750
v -0.06036 0.07762 0.07186
v 0.01437 0.08911 0.04887
v -0.02588 0.08911 0.07186
v 0.01437 0.08624 0.07761
v -0.06036 0.05750 0.04887
v -0.00576 0.09198 0.05750
v -0.06325 0.04025 0.06612
v -0.03737 0.06899 0.07761
v -0.06036 0.07187 0.07474
v -0.01152 0.08911 0.04887
v -0.04025 0.08624 0.05750
v -0.06325 0.07187 0.07186
v -0.00864 0.09198 0.07186
v -0.00576 0.04025 0.07761
v -0.05750 0.08049 0.06899
v -0.04312 0.04025 0.05750
v -0.05750 0.05176 0.04887
v -0.06036 0.07762 0.04887
v -0.02014 0.08911 0.07474
v -0.06325 0.04025 0.07186
v -0.04025 0.08336 0.07474
v -0.04025 0.08624 0.06899
v 0.04311 -0.05173 0.02875
v 0.06323 0.02012 0.05749
v 0.06323 0.02012 0.05462
v 0.04599 0.04886 0.04312
v 0.06036 0.04886 0.02875
v 0.06323 -0.05461 0.02875
v 0.04599 -0.04023 0.04599
v 0.04311 0.01437 0.05462
v 0.04599 0.04886 0.02875
v 0.06036 -0.05173 0.04312
v 0.06323 -0.00001 0.05749
v 0.06036 0.04886 0.04599
v 0.04311 0.01724 0.02875
v 0.06323 0.01149 0.03162
v 0.04599 -0.05173 0.04312
v 0.05461 0.02012 0.05749
v 0.05461 0.00287 0.05749
v 0.04886 0.04886 0.04599
v 0.05461 -0.05461 0.04025
v 0.04311 -0.05173 0.03162
v 0.06323 -0.05461 0.03162
v 0.04311 0.01149 0.05462
v 0.06323 0.00287 0.02875
v 0.05174 -0.05461 0.02875
v 0.06611 0.06613 0.04312
v 0.03162 0.08912 0.05749
v 0.03162 0.08912 0.05462
v 0.01437 0.06900 0.02875
v 0.04599 0.05463 0.05749
v 0.06035 0.08336 0.02875
v 0.06035 0.04887 0.02875
v 0.06611 0.08049 0.05749
v 0.01437 0.06900 0.05749
v 0.01437 0.08912 0.04312
v 0.04599 0.04887 0.02875
v 0.06323 0.05463 0.05749
v 0.01437 0.08336 0.02875
v 0.04599 0.04887 0.04599
v 0.01437 0.08912 0.05749
v 0.05748 0.08624 0.05749
v 0.06323 0.08049 0.02875
v 0.05460 0.08624 0.03737
v 0.06035 0.04887 0.04887
v 0.04024 0.08624 0.03162
v 0.06323 0.05463 0.02875
v 0.06611 0.06037 0.05749
v 0.06611 0.07474 0.04025
v 0.06323 0.08336 0.04025
v -0.05750 -0.05461 -0.02012
v -0.05175 -0.03162 -0.01437
v -0.03163 -0.05173 -0.00862
v -0.05750 -0.05461 -0.00862
v -0.03163 -0.05461 -0.01437
v -0.05750 -0.03737 -0.00862
v -0.05750 -0.03162 -0.01725
v -0.04887 -0.05173 -0.02012
v -0.05175 -0.03162 -0.01725
v -0.03163 -0.05173 -0.01437
v -0.05175 -0.03737 -0.00862
v -0.03163 -0.05461 -0.00862
v 0.02874 0.08337 0.00862
v -0.06038 0.06612 -0.03161
v -0.06038 0.06612 0.02875
v 0.02874 0.06900 -0.03161
v -0.05750 0.08049 -0.03161
v -0.04311 0.08337 0.02875
v 0.02874 0.06900 0.02875
v 0.02874 0.08049 -0.03161
v 0.02874 0.08337 0.02875
v -0.06038 0.07762 0.02875
v -0.02300 0.06612 0.00575
v -0.03162 0.06612 -0.03161
v -0.02588 0.06612 0.02875
v -0.06038 0.07762 -0.03161
v -0.05750 0.08049 0.02875
v -0.03737 0.08337 0.02012
v -0.00576 0.08337 0.01150
v 0.05173 0.04598 -0.06324
v 0.02874 -0.05461 -0.07474
v 0.05461 -0.05461 -0.07474
v 0.03449 -0.05461 -0.06037
v 0.02874 0.04885 -0.07186
v 0.05748 -0.05461 -0.06037
v 0.05748 0.01437 -0.07474
v 0.04311 0.04024 -0.06037
v 0.06036 0.01437 -0.06037
v 0.02874 0.04598 -0.06612
v 0.04599 0.03736 -0.07474
v 0.06036 -0.01148 -0.07186
v 0.02874 -0.05461 -0.06324
v 0.02874 0.02874 -0.07474
v 0.04599 0.05174 -0.07186
v 0.05748 0.02874 -0.07186
v 0.03449 0.05174 -0.06612
v 0.05748 -0.05461 -0.07186
v 0.06036 -0.01436 -0.06037
v 0.05461 0.03736 -0.06037
v 0.06036 0.01149 -0.07186
v 0.04024 0.02298 -0.06037
v 0.05173 0.03449 -0.07474
v 0.05461 0.04024 -0.06899
v 0.05748 0.03161 -0.06324
v 0.02874 -0.03735 -0.06324
v 0.04599 0.05174 -0.06612
v -0.05462 -0.01725 -0.07474
v -0.05175 -0.03449 -0.03737
v -0.05175 -0.01150 -0.04024
v -0.03163 -0.05461 -0.07474
v -0.03163 -0.01150 -0.06611
v -0.03163 -0.05461 -0.03737
v -0.05750 -0.05461 -0.06899
v -0.05750 -0.05461 -0.03737
v -0.05750 -0.01150 -0.07186
v -0.03163 -0.01150 -0.07474
v -0.05750 -0.01150 -0.04024
v -0.03163 -0.03736 -0.04024
v -0.04600 -0.05461 -0.07474
v -0.03163 -0.04886 -0.03737
v -0.05462 -0.05461 -0.07186
v -0.05462 -0.01150 -0.07474
v -0.06038 -0.00861 -0.06899
v -0.04887 0.05175 -0.03162
v -0.05750 0.05175 -0.03162
v -0.03163 0.05175 -0.07474
v -0.03163 -0.01149 -0.06611
v -0.05750 -0.01149 -0.04025
v -0.05750 0.05175 -0.07186
v -0.03451 0.02300 -0.04312
v -0.05750 -0.01149 -0.07474
v -0.03163 -0.01149 -0.07474
v -0.03163 0.05175 -0.06036
v -0.05175 -0.01149 -0.04025
v -0.06038 -0.00286 -0.03738
v -0.04887 0.03162 -0.03162
v -0.06038 0.01151 -0.06899
v -0.05175 0.05175 -0.07474
v -0.05750 0.02587 -0.03162
v -0.03451 0.02875 -0.04312
v -0.06038 0.00864 -0.03738
v -0.04600 0.05175 -0.03450
v -0.05750 0.01726 -0.07474
v -0.06038 0.00288 -0.07186
v -0.05175 0.02587 -0.03162
v 0.01149 0.05175 -0.06612
v -0.03163 -0.03162 -0.07474
v 0.01436 -0.03162 -0.07474
v -0.03163 -0.03162 -0.06612
v -0.03163 0.05175 -0.07474
v -0.03163 0.05175 -0.06037
v 0.02874 -0.03162 -0.06612
v 0.02874 0.02586 -0.07474
v 0.02874 0.04599 -0.06612
v -0.01150 0.04887 -0.06037
v 0.02874 0.04599 -0.07186
v 0.02874 -0.01437 -0.07474
v -0.03163 0.04024 -0.06037
v -0.01150 0.05175 -0.07474
v 0.02874 -0.03162 -0.07186
v 0.01149 0.05175 -0.07186
v -0.01150 0.05175 -0.06037
v 0.00286 0.00287 0.00863
v -0.06037 -0.00863 0.00288
v -0.05462 -0.04598 0.00000
v -0.05174 -0.05461 0.01437
v -0.05174 0.02875 0.01437
v -0.03450 0.02875 0.00000
v 0.00286 -0.02011 0.00000
v -0.02301 -0.05461 0.00863
v -0.01726 -0.01150 0.01437
v -0.05174 0.02875 0.00000
v -0.03162 -0.05461 0.00000
v -0.00289 0.01437 0.00000
v -0.05174 0.00287 0.01725
v -0.04025 0.02875 0.01437
v 0.00286 -0.01724 0.00863
v -0.06037 -0.00000 0.01150
v -0.04025 -0.05461 0.01437
v -0.05749 -0.04598 0.01150
v -0.02876 0.02875 0.00863
v -0.04025 -0.00863 0.01725
v -0.00002 -0.00000 0.01150
v -0.05462 -0.05461 0.00288
v -0.05462 0.02875 0.00288
v -0.00289 0.01437 0.00575
v -0.02301 -0.05461 0.00288
v 0.00286 -0.02298 0.00575
v -0.00002 -0.00863 0.01150
v -0.05749 -0.00000 0.00000
v -0.04312 0.00287 0.01725
v 0.00286 0.00287 0.00000
v -0.05749 -0.01150 0.01437
v -0.05749 -0.04598 0.00288
v -0.05462 0.02875 0.01150
v -0.06037 -0.00000 0.00288
v -0.05174 -0.00863 0.01725
v -0.02013 0.00287 0.01437
v -0.02589 -0.03160 0.01437
v -0.00002 -0.02298 0.00863
v -0.05174 -0.05461 0.00000
v -0.02876 0.02875 0.00288
v -0.05462 -0.04598 0.01437
v -0.05749 0.00287 0.01437
v -0.00863 -0.05174 -0.04024
v -0.00575 -0.05461 -0.05462
v -0.00575 -0.05174 -0.05462
v 0.02874 -0.05461 -0.04599
v 0.02874 -0.04886 -0.05174
v -0.02299 -0.04886 -0.05174
v -0.02299 -0.05461 -0.04024
v -0.01438 -0.04886 -0.04024
v 0.02874 -0.05461 -0.05462
v 0.02874 -0.04886 -0.04599
v -0.02299 -0.05461 -0.05174
v -0.02299 -0.04886 -0.04024
v -0.05175 0.03163 -0.03162
v -0.03738 0.06612 -0.00288
v -0.06037 0.06612 -0.00288
v -0.04026 0.06612 -0.03162
v -0.06037 0.06612 -0.03162
v -0.05462 0.03163 -0.01437
v -0.05750 0.03163 -0.03162
v -0.04888 0.04600 -0.00288
v -0.04888 0.03163 -0.01437
v -0.03738 0.06324 -0.01724
v -0.06037 0.06037 -0.00288
v -0.05750 0.03163 -0.02012
v -0.06037 0.05462 -0.03162
v -0.03738 0.06324 -0.00288
v -0.05462 0.04887 -0.00288
v -0.04888 0.03163 -0.02012
v -0.04026 0.06324 -0.03162
v -0.04313 0.05175 -0.00288
v -0.05175 0.04313 -0.00287
v -0.03163 0.06612 0.02875
v -0.05750 0.06612 0.02875
v -0.03738 0.02875 0.02875
v -0.03451 0.06612 -0.00287
v -0.03163 0.02875 0.00288
v -0.05462 0.02875 0.01151
v -0.06038 0.06612 -0.00287
v -0.05462 0.03450 0.02875
v -0.05175 0.02875 0.00001
v -0.06038 0.06324 0.01151
v -0.03738 0.02875 0.00001
v -0.03163 0.05174 0.00288
v -0.05175 0.02875 0.02875
v -0.03163 0.02875 0.00863
v -0.05462 0.02875 0.00288
v -0.04313 0.04601 -0.00287
v -0.06038 0.06324 -0.00287
v 0.06323 -0.05174 -0.02874
v 0.04886 -0.05174 -0.06036
v 0.04886 -0.04312 -0.06036
v 0.02874 -0.04886 -0.04599
v 0.05173 -0.03449 -0.02874
v 0.06035 -0.03449 -0.05174
v 0.04599 -0.03449 -0.05461
v 0.05173 -0.05461 -0.02874
v 0.06035 -0.05461 -0.05461
v 0.02874 -0.05461 -0.05461
v 0.06035 -0.03449 -0.02874
v 0.03449 -0.04024 -0.05174
v 0.06323 -0.05461 -0.04887
v 0.05461 -0.04312 -0.06036
v 0.02874 -0.05461 -0.04599
v 0.03162 -0.05174 -0.05749
v 0.03449 -0.04024 -0.04599
v 0.06323 -0.05461 -0.02874
v 0.02874 -0.04886 -0.05461
v 0.05748 -0.05461 -0.05749
v 0.04886 -0.01436 -0.06036
v 0.05748 0.04024 -0.02874
v 0.05748 0.05174 -0.03162
v 0.04024 0.01437 -0.04599
v 0.06036 -0.03449 -0.02874
v 0.06036 0.01437 -0.06036
v 0.04311 0.03449 -0.06036
v 0.05173 -0.03449 -0.02874
v 0.05748 -0.03449 -0.05461
v 0.04886 0.05174 -0.03450
v 0.04886 -0.03449 -0.05461
v 0.05748 0.05174 -0.04312
v 0.04024 -0.00286 -0.05174
v 0.06036 0.01724 -0.02874
v 0.06036 -0.01436 -0.06036
v 0.05461 0.03449 -0.06036
v 0.05173 0.02587 -0.02874
v 0.04599 0.04886 -0.04599
v 0.04311 0.00576 -0.06036
v 0.04024 -0.00286 -0.04599
v 0.04886 -0.03449 -0.04025
v 0.04311 0.04024 -0.04599
v 0.06036 -0.03449 -0.04887
v 0.04599 0.03737 -0.06036
v 0.04024 0.01724 -0.05174
v 0.05173 0.05174 -0.03162
v 0.05748 0.02874 -0.06036
v -0.03163 -0.05461 -0.05749
v 0.02874 -0.03162 -0.06612
v 0.02874 -0.03162 -0.07186
v 0.02874 -0.05461 -0.06324
v -0.03163 -0.05461 -0.07474
v -0.03163 -0.03162 -0.06324
v 0.02874 -0.05461 -0.07474
v -0.03163 -0.03162 -0.07474
v 0.00286 -0.05173 -0.05749
v 0.01436 -0.03162 -0.07474
v 0.00574 -0.03162 -0.06324
v -0.03163 -0.04886 -0.05749
v 0.02874 -0.04024 -0.06324
v 0.02874 -0.04024 -0.07474
v 0.00286 -0.05461 -0.05749
v -0.02875 -0.04312 -0.04025
v -0.03163 -0.05461 -0.05749
v -0.03163 -0.05174 -0.05749
v -0.02301 -0.05461 -0.05174
v -0.03163 -0.05461 -0.03737
v -0.03163 -0.04024 -0.04600
v -0.02301 -0.04599 -0.04886
v -0.02301 -0.05461 -0.04025
v -0.02588 -0.05174 -0.05749
v -0.02301 -0.04886 -0.04025
f 709 705 720 
f 699 694 700 
f 698 695 701 
f 698 701 702 
f 702 701 704 
f 694 702 704 
f 703 696 705 
f 696 695 707 
f 695 698 707 
f 698 699 707 
f 705 696 707 
f 699 705 707 
f 694 699 708 
f 699 698 708 
f 702 694 708 
f 699 700 709 
f 701 695 710 
f 697 701 710 
f 703 697 710 
f 703 705 711 
f 700 694 712 
f 694 704 712 
f 706 700 712 
f 704 706 712 
f 701 697 713 
f 697 706 713 
f 706 704 713 
f 704 701 714 
f 701 713 714 
f 713 704 714 
f 697 703 715 
f 711 700 715 
f 703 711 715 
f 698 702 716 
f 708 698 716 
f 702 708 716 
f 709 700 717 
f 705 709 717 
f 700 711 717 
f 711 705 717 
f 706 697 718 
f 700 706 718 
f 697 715 718 
f 715 700 718 
f 695 696 719 
f 696 703 719 
f 710 695 719 
f 703 710 719 
f 705 699 720 
f 699 709 720 
