# Original object name hint: convex_2
v -0.06038 -0.07187 -0.07473
v 0.02299 -0.07473 0.02875
v -0.04025 -0.06037 0.02875
v 0.02299 -0.05461 -0.07473
v 0.00287 -0.09198 -0.04886
v -0.05462 -0.08911 0.02875
v -0.05749 -0.05461 -0.07186
v 0.02299 -0.08335 -0.07186
v 0.02011 -0.08911 0.02875
v -0.05749 -0.05461 0.00861
v -0.05175 -0.08911 -0.05173
v -0.02299 -0.05461 0.00861
v 0.02299 -0.05461 -0.04598
v -0.05462 -0.07760 -0.07761
v -0.06038 -0.08048 0.02875
v -0.06038 -0.08335 -0.05173
v -0.04312 -0.09198 -0.04023
v 0.02299 -0.08911 -0.05460
v 0.02299 -0.07760 -0.07761
v -0.02299 -0.05749 -0.07761
v -0.02299 -0.08623 -0.06898
v -0.06038 -0.05749 -0.01150
v -0.05749 -0.06324 0.02875
v -0.00289 -0.09198 -0.03449
v -0.02299 -0.09198 -0.05173
v 0.02299 -0.08623 0.02875
v 0.02299 -0.05749 -0.07761
v -0.05175 -0.06324 -0.07761
v -0.06038 -0.05749 -0.06898
v -0.05462 -0.08048 -0.07473
v -0.05462 -0.08911 -0.04598
v -0.05462 -0.05461 0.01436
v -0.06038 -0.06611 0.02299
v -0.05175 -0.05461 -0.07473
v -0.06038 -0.08335 0.02299
v -0.06038 -0.07760 -0.07186
v -0.05462 -0.06037 0.02875
v -0.03450 -0.09198 -0.03449
v -0.05749 -0.06899 -0.07761
v -0.04025 -0.05461 0.01436
v 0.02299 -0.08911 -0.03162
v 0.03162 -0.08048 -0.07761
v 0.06611 -0.06899 0.02875
v 0.06611 -0.07473 0.02875
v 0.02299 -0.08623 0.02875
v 0.02299 -0.05461 -0.04598
v 0.05748 -0.05461 -0.07186
v 0.05173 -0.09198 -0.04886
v 0.05173 -0.05461 0.02875
v 0.06323 -0.07760 -0.06898
v 0.02299 -0.08911 -0.05749
v 0.06036 -0.08623 0.02875
v 0.02299 -0.05749 -0.07761
v 0.02299 -0.07473 0.02875
v 0.06323 -0.05461 -0.05173
v 0.06611 -0.08335 -0.01726
v 0.05173 -0.07760 -0.08049
v 0.06323 -0.05461 0.02875
v 0.03449 -0.09198 -0.03448
v 0.06611 -0.06611 -0.04024
v 0.02299 -0.07760 -0.07761
v 0.06611 -0.06037 0.02012
v 0.02299 -0.05461 -0.07473
v 0.04598 -0.05749 -0.07761
v 0.05173 -0.09198 -0.03161
v 0.06611 -0.08048 -0.04598
v 0.04598 -0.08911 -0.06036
v 0.06036 -0.06611 -0.07473
v 0.06323 -0.08623 0.00862
v 0.03162 -0.06899 -0.08049
v 0.05748 -0.08048 -0.07473
v 0.05748 -0.08911 -0.04598
v 0.03162 -0.09198 -0.04886
v 0.06611 -0.08335 0.01437
v 0.04312 -0.08911 0.00286
v 0.05173 -0.06899 -0.08049
v 0.06323 -0.06899 -0.06898
v 0.04886 -0.05461 0.02300
v 0.02299 -0.08623 -0.06611
v 0.05461 -0.05461 -0.07473
v 0.05173 -0.08048 -0.07761
v 0.03162 -0.07760 -0.08049
v 0.02299 -0.08911 -0.03161
v 0.06323 -0.08623 -0.02873
v 0.06611 -0.06037 -0.01150
v 0.03162 -0.09198 -0.03736
v 0.05748 -0.07760 -0.07761
v 0.03449 -0.09198 -0.05173
v 0.06036 -0.05749 -0.06898
v 0.06036 -0.08335 -0.06036
v -0.05174 -0.08623 0.05175
v 0.06036 -0.05461 0.07186
v 0.06036 -0.05461 0.06899
v -0.06037 -0.05461 0.07474
v 0.00285 -0.08911 0.07474
v 0.05173 -0.08623 0.05175
v -0.04600 -0.05461 0.05750
v -0.05462 -0.08335 0.07474
v 0.05748 -0.07760 0.07474
v 0.05748 -0.07187 0.05175
v -0.01725 -0.05461 0.07762
v -0.05749 -0.06899 0.05175
v -0.03161 -0.09198 0.06325
v 0.04023 -0.08911 0.06899
v -0.06325 -0.07760 0.06325
v 0.04311 -0.05461 0.06325
v 0.06036 -0.08335 0.06612
v 0.05748 -0.05461 0.07474
v 0.00861 -0.08911 0.05175
v 0.01724 -0.09198 0.06325
v -0.06037 -0.05461 0.06325
v -0.04888 -0.08911 0.06899
v -0.03737 -0.06037 0.07762
v 0.06036 -0.08048 0.05175
v -0.05462 -0.06611 0.05175
v -0.02874 -0.08911 0.07474
v -0.06325 -0.07760 0.07186
v 0.01724 -0.09198 0.06899
v 0.03160 -0.08623 0.07474
v -0.06325 -0.06037 0.06325
v -0.05749 -0.08335 0.05175
v -0.03161 -0.09198 0.06899
v 0.06036 -0.08048 0.07186
v -0.06037 -0.07760 0.07474
v -0.04025 -0.05461 0.05750
v -0.05462 -0.08623 0.07186
v -0.06325 -0.05749 0.07186
v -0.04025 -0.05461 0.07762
v 0.05748 -0.05461 0.06612
v -0.02586 -0.06037 0.07762
v 0.05460 -0.08623 0.06612
v -0.04312 -0.06611 0.05175
v 0.04599 -0.08623 0.07186
v 0.03161 0.07762 -0.06899
v 0.06611 0.07474 0.02300
v 0.06611 0.06900 0.02300
v 0.02874 0.08337 0.02875
v 0.04599 0.05175 0.02875
v 0.05748 0.05175 -0.04024
v 0.05748 0.08049 -0.05749
v 0.02874 0.06900 -0.06611
v 0.06036 0.08337 0.02875
v 0.02874 0.06900 0.02875
v 0.06323 0.05462 0.02875
v 0.06611 0.06612 -0.02012
v 0.06036 0.08337 -0.02874
v 0.02874 0.08049 -0.06611
v 0.05173 0.07187 -0.06611
v 0.04886 0.05175 -0.04024
v 0.06611 0.08049 -0.01150
v 0.06323 0.05175 -0.00000
v 0.06323 0.06900 -0.04310
v 0.05173 0.08049 -0.06611
v 0.04599 0.08337 -0.02585
v 0.04599 0.07187 -0.06899
v 0.06323 0.05750 -0.02874
v 0.06611 0.06037 0.00862
v 0.06323 0.07762 -0.04310
v 0.06036 0.05175 0.02875
v 0.02874 0.08337 0.00574
v 0.06323 0.08337 0.01725
v 0.05748 0.07187 -0.05749
v 0.06323 0.08049 0.02875
v 0.06611 0.08049 0.01437
v 0.06611 0.06037 -0.00288
v 0.06036 0.05462 -0.03736
v -0.04886 -0.08911 0.04600
v -0.04024 -0.05749 0.03450
v -0.04024 -0.05749 0.02875
v 0.02011 -0.08911 0.03162
v 0.02011 -0.07761 0.05175
v -0.05750 -0.08623 0.02875
v -0.05461 -0.06899 0.05175
v 0.02011 -0.07473 0.02875
v 0.00860 -0.08911 0.05175
v -0.05750 -0.06324 0.02875
v -0.05750 -0.08048 0.05175
v -0.05175 -0.08911 0.02875
v 0.02011 -0.08911 0.02875
v -0.05175 -0.08623 0.05175
v 0.02011 -0.08623 0.05175
v -0.04312 -0.06899 0.05175
v -0.05461 -0.06036 0.03162
v 0.02011 -0.07473 0.03450
v -0.05750 -0.07187 0.05175
v -0.05175 -0.08911 0.04312
v 0.02011 -0.08624 0.05175
v 0.06323 -0.05461 0.03162
v 0.06323 -0.05461 0.02875
v 0.06323 -0.08336 0.02875
v 0.02011 -0.07473 0.02875
v 0.06035 -0.08336 0.05175
v 0.02299 -0.07473 0.05175
v 0.02011 -0.08624 0.02875
v 0.05461 -0.05461 0.03737
v 0.06035 -0.07186 0.05175
v 0.05748 -0.08624 0.04025
v 0.05173 -0.05461 0.02875
v 0.06323 -0.08048 0.04887
v 0.05748 -0.08624 0.02875
v 0.05173 -0.08624 0.05175
v 0.02011 -0.07761 0.05175
v 0.06035 -0.05461 0.03737
v 0.06323 -0.07186 0.04887
v 0.04886 -0.07186 0.05175
v 0.02011 -0.07473 0.03450
v 0.06035 0.08337 0.06899
v 0.01437 -0.05461 0.06325
v 0.03737 0.00290 0.05749
v 0.01437 0.08912 0.05749
v 0.01437 0.08623 0.07761
v 0.06035 -0.05461 0.07474
v 0.06611 -0.00285 0.05749
v 0.01437 -0.04599 0.07761
v 0.05748 0.00577 0.08049
v 0.06611 0.08049 0.05749
v 0.06323 0.07187 0.07474
v 0.05748 -0.04886 0.06325
v 0.06611 -0.02299 0.07474
v 0.01725 0.00002 0.08049
v 0.05460 0.08049 0.07761
v 0.04311 -0.05173 0.07761
v 0.03449 0.08912 0.07186
v 0.06035 -0.05461 0.06612
v 0.01437 -0.05461 0.07474
v 0.05748 0.08623 0.05749
v 0.06611 0.07187 0.07186
v 0.05173 -0.01436 0.08049
v 0.01437 0.06899 0.05749
v 0.02587 0.01725 0.08049
v 0.06611 -0.03161 0.06612
v 0.06323 0.02298 0.07761
v 0.06323 -0.02299 0.07761
v 0.04311 -0.05461 0.06325
v 0.05748 -0.00574 0.05749
v 0.04886 0.01725 0.08049
v 0.01437 0.08912 0.07474
v 0.04599 0.08623 0.07474
v 0.05748 0.07761 0.07761
v 0.05748 -0.04023 0.07761
v 0.03449 0.08912 0.05749
v 0.03737 -0.01436 0.08049
v 0.06323 -0.04886 0.06612
v 0.05748 0.08623 0.06612
v 0.02587 -0.05173 0.07761
v 0.06323 -0.04886 0.07186
v 0.06611 0.02585 0.07474
v 0.05748 -0.00861 0.08049
v 0.04599 0.08337 0.07761
v -0.02875 0.08337 -0.04887
v -0.05175 0.05175 -0.07474
v -0.05750 0.05175 -0.07186
v 0.02874 0.06900 -0.03162
v -0.05750 0.05175 -0.03162
v 0.00861 0.05175 -0.07186
v 0.02011 0.08049 -0.06611
v -0.05750 0.08049 -0.03162
v -0.04600 0.07762 -0.07474
v 0.02874 0.08049 -0.03162
v 0.02874 0.07187 -0.06611
v -0.06038 0.07762 -0.05461
v -0.04600 0.08337 -0.06611
v -0.00576 0.06900 -0.07474
v -0.04600 0.05175 -0.03162
v 0.00861 0.05175 -0.06611
v -0.06038 0.05462 -0.03162
v -0.05750 0.07474 -0.06899
v 0.02874 0.08049 -0.06324
v -0.02300 0.08337 -0.06611
v -0.00864 0.05175 -0.07474
v -0.06038 0.05750 -0.06036
v 0.02874 0.06900 -0.06324
v -0.00001 0.07762 -0.07186
v -0.06038 0.07762 -0.03162
v -0.03449 0.08337 -0.06899
v -0.05175 0.07187 -0.07474
v 0.02874 0.07762 -0.06611
v -0.05750 0.08049 -0.05461
v -0.02875 0.07762 -0.07474
v -0.04600 0.08337 -0.05175
v -0.05175 0.08049 -0.06899
v -0.00289 0.06325 -0.07474
v -0.06038 0.07187 -0.06036
v 0.04311 -0.00286 0.01437
v 0.06036 0.05174 0.02875
v 0.06036 0.05174 -0.00287
v 0.06323 -0.05461 0.02875
v 0.05174 -0.05461 -0.02873
v 0.04311 -0.05172 0.02875
v 0.06323 -0.05461 -0.02873
v 0.05174 0.02298 -0.02873
v 0.04599 0.05174 0.02875
v 0.06036 0.01437 -0.02873
v 0.05174 0.05174 0.00000
v 0.04311 -0.05172 0.01724
v 0.04311 0.01724 0.02012
v 0.06323 -0.04023 -0.00287
v 0.04599 -0.05461 0.02875
v 0.05749 0.02587 -0.02873
v 0.04311 0.01724 0.02875
v 0.04599 0.05174 0.02587
v 0.06323 -0.04310 0.02299
v 0.05461 0.05174 -0.00287
v 0.04311 0.01437 0.01724
v 0.06323 -0.04885 -0.02586
v -0.02875 -0.02585 0.02875
v -0.05463 0.03161 0.02875
v -0.05463 0.03161 0.03450
v -0.03738 0.04599 0.02875
v -0.04600 0.04599 0.04312
v -0.04313 -0.04597 0.03450
v -0.04600 -0.03161 0.02300
v -0.04025 0.02874 0.02300
v -0.03164 0.00287 0.03450
v -0.05463 0.04599 0.04025
v -0.05175 0.02874 0.02300
v -0.05174 -0.01149 0.03162
v -0.02875 -0.01149 0.02587
v -0.03164 -0.02297 0.03450
v -0.05463 0.04599 0.02875
v -0.03738 0.04599 0.03737
v -0.04025 -0.03161 0.02300
v -0.02875 0.00001 0.03162
v -0.05175 -0.01149 0.02587
v -0.04025 -0.04597 0.02875
v -0.04025 -0.04597 0.03450
v -0.04887 0.04310 0.04312
v -0.05174 -0.00861 0.03450
v -0.03738 0.02011 0.02300
v -0.02875 -0.02298 0.02587
v -0.03163 0.01149 0.02587
v -0.04600 -0.03736 0.02587
v -0.04025 0.04599 0.04025
v -0.02875 -0.02585 0.03162
v -0.05463 0.04310 0.04025
v -0.06038 0.06038 0.03450
v 0.01437 0.08912 0.04887
v 0.01437 0.06899 0.04887
v 0.01437 0.06899 0.02875
v -0.05463 0.04888 0.04887
v -0.05750 0.08049 0.02875
v -0.05750 0.08049 0.04887
v -0.03737 0.04600 0.02875
v 0.01437 0.08336 0.02875
v -0.05463 0.04600 0.02875
v -0.00289 0.08912 0.04312
v -0.04312 0.04600 0.04312
v -0.04312 0.08336 0.02875
v -0.06038 0.05750 0.04887
v -0.06038 0.07762 0.02875
v -0.00577 0.08912 0.04887
v -0.06038 0.07762 0.04887
v -0.03737 0.04600 0.03738
v -0.04600 0.04888 0.04887
v 0.01437 0.08624 0.03450
v -0.05463 0.04600 0.04312
v -0.05750 0.04888 0.03450
v -0.06038 0.06325 0.02875
v 0.00573 -0.04885 0.07762
v -0.06611 -0.02586 0.06612
v -0.06611 -0.02586 0.07186
v 0.01436 0.04025 0.07762
v -0.04025 -0.04598 0.05175
v -0.05749 0.04025 0.06037
v 0.01436 0.02587 0.06325
v -0.06037 0.04025 0.07474
v 0.01436 -0.05460 0.06325
v -0.04025 -0.05460 0.07762
v -0.06037 -0.05460 0.06325
v -0.04887 -0.01435 0.05175
v -0.06037 0.00575 0.07762
v -0.03162 0.04025 0.06037
v 0.01436 -0.05460 0.07474
v -0.06611 0.00575 0.06325
v -0.05749 -0.05460 0.07474
v 0.01436 0.04025 0.06612
v -0.04599 -0.04885 0.05175
v -0.06037 -0.02011 0.05750
v -0.04025 0.02874 0.07762
v -0.04599 -0.05460 0.05750
v -0.06611 0.01149 0.07186
v 0.01436 -0.04598 0.07762
v -0.06037 -0.01723 0.07762
v -0.04599 -0.01435 0.05175
v -0.06037 0.04025 0.06325
v -0.06611 -0.02298 0.06325
v -0.00864 0.04025 0.07762
v -0.06324 -0.04310 0.07186
v -0.06037 -0.01149 0.05750
v -0.01726 -0.05460 0.07762
v -0.06325 0.07187 0.06037
v 0.01437 0.09198 0.07186
v 0.01437 0.09198 0.06037
v 0.01437 0.04025 0.07761
v -0.04599 0.05176 0.04887
v -0.06036 0.04025 0.07474
v 0.01437 0.06899 0.04887
v -0.02874 0.08336 0.07761
v -0.05750 0.08049 0.04887
v 0.01437 0.04025 0.06612
v -0.05461 0.04025 0.05750
v -0.06036 0.07762 0.07186
v 0.01437 0.08911 0.04887
v -0.02588 0.08911 0.07186
v 0.01437 0.08624 0.07761
v -0.06036 0.05750 0.04887
v -0.00576 0.09198 0.05750
v -0.06325 0.04025 0.06612
v -0.03737 0.06899 0.07761
v -0.06036 0.07187 0.07474
v -0.01152 0.08911 0.04887
v -0.04025 0.08624 0.05750
v -0.06325 0.07187 0.07186
v -0.00864 0.09198 0.07186
v -0.00576 0.04025 0.07761
v -0.05750 0.08049 0.06899
v -0.04312 0.04025 0.05750
v -0.05750 0.05176 0.04887
v -0.06036 0.07762 0.04887
v -0.02014 0.08911 0.07474
v -0.06325 0.04025 0.07186
v -0.04025 0.08336 0.07474
v -0.04025 0.08624 0.06899
v 0.04311 -0.05173 0.02875
v 0.06323 0.02012 0.05749
v 0.06323 0.02012 0.05462
v 0.04599 0.04886 0.04312
v 0.06036 0.04886 0.02875
v 0.06323 -0.05461 0.02875
v 0.04599 -0.04023 0.04599
v 0.04311 0.01437 0.05462
v 0.04599 0.04886 0.02875
v 0.06036 -0.05173 0.04312
v 0.06323 -0.00001 0.05749
v 0.06036 0.04886 0.04599
v 0.04311 0.01724 0.02875
v 0.06323 0.01149 0.03162
v 0.04599 -0.05173 0.04312
v 0.05461 0.02012 0.05749
v 0.05461 0.00287 0.05749
v 0.04886 0.04886 0.04599
v 0.05461 -0.05461 0.04025
v 0.04311 -0.05173 0.03162
v 0.06323 -0.05461 0.03162
v 0.04311 0.01149 0.05462
v 0.06323 0.00287 0.02875
v 0.05174 -0.05461 0.02875
v 0.06611 0.06613 0.04312
v 0.03162 0.08912 0.05749
v 0.03162 0.08912 0.05462
v 0.01437 0.06900 0.02875
v 0.04599 0.05463 0.05749
v 0.06035 0.08336 0.02875
v 0.06035 0.04887 0.02875
v 0.06611 0.08049 0.05749
v 0.01437 0.06900 0.05749
v 0.01437 0.08912 0.04312
v 0.04599 0.04887 0.02875
v 0.06323 0.05463 0.05749
v 0.01437 0.08336 0.02875
v 0.04599 0.04887 0.04599
v 0.01437 0.08912 0.05749
v 0.05748 0.08624 0.05749
v 0.06323 0.08049 0.02875
v 0.05460 0.08624 0.03737
v 0.06035 0.04887 0.04887
v 0.04024 0.08624 0.03162
v 0.06323 0.05463 0.02875
v 0.06611 0.06037 0.05749
v 0.06611 0.07474 0.04025
v 0.06323 0.08336 0.04025
v -0.05750 -0.05461 -0.02012
v -0.05175 -0.03162 -0.01437
v -0.03163 -0.05173 -0.00862
v -0.05750 -0.05461 -0.00862
v -0.03163 -0.05461 -0.01437
v -0.05750 -0.03737 -0.00862
v -0.05750 -0.03162 -0.01725
v -0.04887 -0.05173 -0.02012
v -0.05175 -0.03162 -0.01725
v -0.03163 -0.05173 -0.01437
v -0.05175 -0.03737 -0.00862
v -0.03163 -0.05461 -0.00862
v 0.02874 0.08337 0.00862
v -0.06038 0.06612 -0.03161
v -0.06038 0.06612 0.02875
v 0.02874 0.06900 -0.03161
v -0.05750 0.08049 -0.03161
v -0.04311 0.08337 0.02875
v 0.02874 0.06900 0.02875
v 0.02874 0.08049 -0.03161
v 0.02874 0.08337 0.02875
v -0.06038 0.07762 0.02875
v -0.02300 0.06612 0.00575
v -0.03162 0.06612 -0.03161
v -0.02588 0.06612 0.02875
v -0.06038 0.07762 -0.03161
v -0.05750 0.08049 0.02875
v -0.03737 0.08337 0.02012
v -0.00576 0.08337 0.01150
v 0.05173 0.04598 -0.06324
v 0.02874 -0.05461 -0.07474
v 0.05461 -0.05461 -0.07474
v 0.03449 -0.05461 -0.06037
v 0.02874 0.04885 -0.07186
v 0.05748 -0.05461 -0.06037
v 0.05748 0.01437 -0.07474
v 0.04311 0.04024 -0.06037
v 0.06036 0.01437 -0.06037
v 0.02874 0.04598 -0.06612
v 0.04599 0.03736 -0.07474
v 0.06036 -0.01148 -0.07186
v 0.02874 -0.05461 -0.06324
v 0.02874 0.02874 -0.07474
v 0.04599 0.05174 -0.07186
v 0.05748 0.02874 -0.07186
v 0.03449 0.05174 -0.06612
v 0.05748 -0.05461 -0.07186
v 0.06036 -0.01436 -0.06037
v 0.05461 0.03736 -0.06037
v 0.06036 0.01149 -0.07186
v 0.04024 0.02298 -0.06037
v 0.05173 0.03449 -0.07474
v 0.05461 0.04024 -0.06899
v 0.05748 0.03161 -0.06324
v 0.02874 -0.03735 -0.06324
v 0.04599 0.05174 -0.06612
v -0.05462 -0.01725 -0.07474
v -0.05175 -0.03449 -0.03737
v -0.05175 -0.01150 -0.04024
v -0.03163 -0.05461 -0.07474
v -0.03163 -0.01150 -0.06611
v -0.03163 -0.05461 -0.03737
v -0.05750 -0.05461 -0.06899
v -0.05750 -0.05461 -0.03737
v -0.05750 -0.01150 -0.07186
v -0.03163 -0.01150 -0.07474
v -0.05750 -0.01150 -0.04024
v -0.03163 -0.03736 -0.04024
v -0.04600 -0.05461 -0.07474
v -0.03163 -0.04886 -0.03737
v -0.05462 -0.05461 -0.07186
v -0.05462 -0.01150 -0.07474
v -0.06038 -0.00861 -0.06899
v -0.04887 0.05175 -0.03162
v -0.05750 0.05175 -0.03162
v -0.03163 0.05175 -0.07474
v -0.03163 -0.01149 -0.06611
v -0.05750 -0.01149 -0.04025
v -0.05750 0.05175 -0.07186
v -0.03451 0.02300 -0.04312
v -0.05750 -0.01149 -0.07474
v -0.03163 -0.01149 -0.07474
v -0.03163 0.05175 -0.06036
v -0.05175 -0.01149 -0.04025
v -0.06038 -0.00286 -0.03738
v -0.04887 0.03162 -0.03162
v -0.06038 0.01151 -0.06899
v -0.05175 0.05175 -0.07474
v -0.05750 0.02587 -0.03162
v -0.03451 0.02875 -0.04312
v -0.06038 0.00864 -0.03738
v -0.04600 0.05175 -0.03450
v -0.05750 0.01726 -0.07474
v -0.06038 0.00288 -0.07186
v -0.05175 0.02587 -0.03162
v 0.01149 0.05175 -0.06612
v -0.03163 -0.03162 -0.07474
v 0.01436 -0.03162 -0.07474
v -0.03163 -0.03162 -0.06612
v -0.03163 0.05175 -0.07474
v -0.03163 0.05175 -0.06037
v 0.02874 -0.03162 -0.06612
v 0.02874 0.02586 -0.07474
v 0.02874 0.04599 -0.06612
v -0.01150 0.04887 -0.06037
v 0.02874 0.04599 -0.07186
v 0.02874 -0.01437 -0.07474
v -0.03163 0.04024 -0.06037
v -0.01150 0.05175 -0.07474
v 0.02874 -0.03162 -0.07186
v 0.01149 0.05175 -0.07186
v -0.01150 0.05175 -0.06037
v 0.00286 0.00287 0.00863
v -0.06037 -0.00863 0.00288
v -0.05462 -0.04598 0.00000
v -0.05174 -0.05461 0.01437
v -0.05174 0.02875 0.01437
v -0.03450 0.02875 0.00000
v 0.00286 -0.02011 0.00000
v -0.02301 -0.05461 0.00863
v -0.01726 -0.01150 0.01437
v -0.05174 0.02875 0.00000
v -0.03162 -0.05461 0.00000
v -0.00289 0.01437 0.00000
v -0.05174 0.00287 0.01725
v -0.04025 0.02875 0.01437
v 0.00286 -0.01724 0.00863
v -0.06037 -0.00000 0.01150
v -0.04025 -0.05461 0.01437
v -0.05749 -0.04598 0.01150
v -0.02876 0.02875 0.00863
v -0.04025 -0.00863 0.01725
v -0.00002 -0.00000 0.01150
v -0.05462 -0.05461 0.00288
v -0.05462 0.02875 0.00288
v -0.00289 0.01437 0.00575
v -0.02301 -0.05461 0.00288
v 0.00286 -0.02298 0.00575
v -0.00002 -0.00863 0.01150
v -0.05749 -0.00000 0.00000
v -0.04312 0.00287 0.01725
v 0.00286 0.00287 0.00000
v -0.05749 -0.01150 0.01437
v -0.05749 -0.04598 0.00288
v -0.05462 0.02875 0.01150
v -0.06037 -0.00000 0.00288
v -0.05174 -0.00863 0.01725
v -0.02013 0.00287 0.01437
v -0.02589 -0.03160 0.01437
v -0.00002 -0.02298 0.00863
v -0.05174 -0.05461 0.00000
v -0.02876 0.02875 0.00288
v -0.05462 -0.04598 0.01437
v -0.05749 0.00287 0.01437
v -0.00863 -0.05174 -0.04024
v -0.00575 -0.05461 -0.05462
v -0.00575 -0.05174 -0.05462
v 0.02874 -0.05461 -0.04599
v 0.02874 -0.04886 -0.05174
v -0.02299 -0.04886 -0.05174
v -0.02299 -0.05461 -0.04024
v -0.01438 -0.04886 -0.04024
v 0.02874 -0.05461 -0.05462
v 0.02874 -0.04886 -0.04599
v -0.02299 -0.05461 -0.05174
v -0.02299 -0.04886 -0.04024
v -0.05175 0.03163 -0.03162
v -0.03738 0.06612 -0.00288
v -0.06037 0.06612 -0.00288
v -0.04026 0.06612 -0.03162
v -0.06037 0.06612 -0.03162
v -0.05462 0.03163 -0.01437
v -0.05750 0.03163 -0.03162
v -0.04888 0.04600 -0.00288
v -0.04888 0.03163 -0.01437
v -0.03738 0.06324 -0.01724
v -0.06037 0.06037 -0.00288
v -0.05750 0.03163 -0.02012
v -0.06037 0.05462 -0.03162
v -0.03738 0.06324 -0.00288
v -0.05462 0.04887 -0.00288
v -0.04888 0.03163 -0.02012
v -0.04026 0.06324 -0.03162
v -0.04313 0.05175 -0.00288
v -0.05175 0.04313 -0.00287
v -0.03163 0.06612 0.02875
v -0.05750 0.06612 0.02875
v -0.03738 0.02875 0.02875
v -0.03451 0.06612 -0.00287
v -0.03163 0.02875 0.00288
v -0.05462 0.02875 0.01151
v -0.06038 0.06612 -0.00287
v -0.05462 0.03450 0.02875
v -0.05175 0.02875 0.00001
v -0.06038 0.06324 0.01151
v -0.03738 0.02875 0.00001
v -0.03163 0.05174 0.00288
v -0.05175 0.02875 0.02875
v -0.03163 0.02875 0.00863
v -0.05462 0.02875 0.00288
v -0.04313 0.04601 -0.00287
v -0.06038 0.06324 -0.00287
v 0.06323 -0.05174 -0.02874
v 0.04886 -0.05174 -0.06036
v 0.04886 -0.04312 -0.06036
v 0.02874 -0.04886 -0.04599
v 0.05173 -0.03449 -0.02874
v 0.06035 -0.03449 -0.05174
v 0.04599 -0.03449 -0.05461
v 0.05173 -0.05461 -0.02874
v 0.06035 -0.05461 -0.05461
v 0.02874 -0.05461 -0.05461
v 0.06035 -0.03449 -0.02874
v 0.03449 -0.04024 -0.05174
v 0.06323 -0.05461 -0.04887
v 0.05461 -0.04312 -0.06036
v 0.02874 -0.05461 -0.04599
v 0.03162 -0.05174 -0.05749
v 0.03449 -0.04024 -0.04599
v 0.06323 -0.05461 -0.02874
v 0.02874 -0.04886 -0.05461
v 0.05748 -0.05461 -0.05749
v 0.04886 -0.01436 -0.06036
v 0.05748 0.04024 -0.02874
v 0.05748 0.05174 -0.03162
v 0.04024 0.01437 -0.04599
v 0.06036 -0.03449 -0.02874
v 0.06036 0.01437 -0.06036
v 0.04311 0.03449 -0.06036
v 0.05173 -0.03449 -0.02874
v 0.05748 -0.03449 -0.05461
v 0.04886 0.05174 -0.03450
v 0.04886 -0.03449 -0.05461
v 0.05748 0.05174 -0.04312
v 0.04024 -0.00286 -0.05174
v 0.06036 0.01724 -0.02874
v 0.06036 -0.01436 -0.06036
v 0.05461 0.03449 -0.06036
v 0.05173 0.02587 -0.02874
v 0.04599 0.04886 -0.04599
v 0.04311 0.00576 -0.06036
v 0.04024 -0.00286 -0.04599
v 0.04886 -0.03449 -0.04025
v 0.04311 0.04024 -0.04599
v 0.06036 -0.03449 -0.04887
v 0.04599 0.03737 -0.06036
v 0.04024 0.01724 -0.05174
v 0.05173 0.05174 -0.03162
v 0.05748 0.02874 -0.06036
v -0.03163 -0.05461 -0.05749
v 0.02874 -0.03162 -0.06612
v 0.02874 -0.03162 -0.07186
v 0.02874 -0.05461 -0.06324
v -0.03163 -0.05461 -0.07474
v -0.03163 -0.03162 -0.06324
v 0.02874 -0.05461 -0.07474
v -0.03163 -0.03162 -0.07474
v 0.00286 -0.05173 -0.05749
v 0.01436 -0.03162 -0.07474
v 0.00574 -0.03162 -0.06324
v -0.03163 -0.04886 -0.05749
v 0.02874 -0.04024 -0.06324
v 0.02874 -0.04024 -0.07474
v 0.00286 -0.05461 -0.05749
v -0.02875 -0.04312 -0.04025
v -0.03163 -0.05461 -0.05749
v -0.03163 -0.05174 -0.05749
v -0.02301 -0.05461 -0.05174
v -0.03163 -0.05461 -0.03737
v -0.03163 -0.04024 -0.04600
v -0.02301 -0.04599 -0.04886
v -0.02301 -0.05461 -0.04025
v -0.02588 -0.05174 -0.05749
v -0.02301 -0.04886 -0.04025
f 131 123 133 
f 92 93 94 
f 94 93 97 
f 96 91 100 
f 92 94 101 
f 100 91 102 
f 97 93 106 
f 93 92 107 
f 99 92 108 
f 92 101 108 
f 101 99 108 
f 91 96 109 
f 103 91 109 
f 96 104 110 
f 109 96 110 
f 103 109 110 
f 94 97 111 
f 91 103 112 
f 96 100 114 
f 100 93 114 
f 93 107 114 
f 107 96 114 
f 100 102 115 
f 111 97 115 
f 102 111 115 
f 113 98 116 
f 95 113 116 
f 103 110 118 
f 110 104 118 
f 95 116 118 
f 95 118 119 
f 118 104 119 
f 102 105 120 
f 111 102 120 
f 105 117 120 
f 102 91 121 
f 105 102 121 
f 91 112 121 
f 112 103 122 
f 116 112 122 
f 103 118 122 
f 118 116 122 
f 92 99 123 
f 107 92 123 
f 98 113 124 
f 94 117 124 
f 117 98 124 
f 97 106 125 
f 106 100 125 
f 115 97 125 
f 116 98 126 
f 112 116 126 
f 98 117 126 
f 117 105 126 
f 105 121 126 
f 121 112 126 
f 94 111 127 
f 117 94 127 
f 111 120 127 
f 120 117 127 
f 101 94 128 
f 113 101 128 
f 94 124 128 
f 124 113 128 
f 93 100 129 
f 106 93 129 
f 100 106 129 
f 99 101 130 
f 113 95 130 
f 101 113 130 
f 119 99 130 
f 95 119 130 
f 104 96 131 
f 96 107 131 
f 107 123 131 
f 100 115 132 
f 125 100 132 
f 115 125 132 
f 99 119 133 
f 119 104 133 
f 123 99 133 
f 104 131 133 
