# Original object name hint: convex_1
v -0.06038 -0.07187 -0.07473
v 0.02299 -0.07473 0.02875
v -0.04025 -0.06037 0.02875
v 0.02299 -0.05461 -0.07473
v 0.00287 -0.09198 -0.04886
v -0.05462 -0.08911 0.02875
v -0.05749 -0.05461 -0.07186
v 0.02299 -0.08335 -0.07186
v 0.02011 -0.08911 0.02875
v -0.05749 -0.05461 0.00861
v -0.05175 -0.08911 -0.05173
v -0.02299 -0.05461 0.00861
v 0.02299 -0.05461 -0.04598
v -0.05462 -0.07760 -0.07761
v -0.06038 -0.08048 0.02875
v -0.06038 -0.08335 -0.05173
v -0.04312 -0.09198 -0.04023
v 0.02299 -0.08911 -0.05460
v 0.02299 -0.07760 -0.07761
v -0.02299 -0.05749 -0.07761
v -0.02299 -0.08623 -0.06898
v -0.06038 -0.05749 -0.01150
v -0.05749 -0.06324 0.02875
v -0.00289 -0.09198 -0.03449
v -0.02299 -0.09198 -0.05173
v 0.02299 -0.08623 0.02875
v 0.02299 -0.05749 -0.07761
v -0.05175 -0.06324 -0.07761
v -0.06038 -0.05749 -0.06898
v -0.05462 -0.08048 -0.07473
v -0.05462 -0.08911 -0.04598
v -0.05462 -0.05461 0.01436
v -0.06038 -0.06611 0.02299
v -0.05175 -0.05461 -0.07473
v -0.06038 -0.08335 0.02299
v -0.06038 -0.07760 -0.07186
v -0.05462 -0.06037 0.02875
v -0.03450 -0.09198 -0.03449
v -0.05749 -0.06899 -0.07761
v -0.04025 -0.05461 0.01436
v 0.02299 -0.08911 -0.03162
v 0.03162 -0.08048 -0.07761
v 0.06611 -0.06899 0.02875
v 0.06611 -0.07473 0.02875
v 0.02299 -0.08623 0.02875
v 0.02299 -0.05461 -0.04598
v 0.05748 -0.05461 -0.07186
v 0.05173 -0.09198 -0.04886
v 0.05173 -0.05461 0.02875
v 0.06323 -0.07760 -0.06898
v 0.02299 -0.08911 -0.05749
v 0.06036 -0.08623 0.02875
v 0.02299 -0.05749 -0.07761
v 0.02299 -0.07473 0.02875
v 0.06323 -0.05461 -0.05173
v 0.06611 -0.08335 -0.01726
v 0.05173 -0.07760 -0.08049
v 0.06323 -0.05461 0.02875
v 0.03449 -0.09198 -0.03448
v 0.06611 -0.06611 -0.04024
v 0.02299 -0.07760 -0.07761
v 0.06611 -0.06037 0.02012
v 0.02299 -0.05461 -0.07473
v 0.04598 -0.05749 -0.07761
v 0.05173 -0.09198 -0.03161
v 0.06611 -0.08048 -0.04598
v 0.04598 -0.08911 -0.06036
v 0.06036 -0.06611 -0.07473
v 0.06323 -0.08623 0.00862
v 0.03162 -0.06899 -0.08049
v 0.05748 -0.08048 -0.07473
v 0.05748 -0.08911 -0.04598
v 0.03162 -0.09198 -0.04886
v 0.06611 -0.08335 0.01437
v 0.04312 -0.08911 0.00286
v 0.05173 -0.06899 -0.08049
v 0.06323 -0.06899 -0.06898
v 0.04886 -0.05461 0.02300
v 0.02299 -0.08623 -0.06611
v 0.05461 -0.05461 -0.07473
v 0.05173 -0.08048 -0.07761
v 0.03162 -0.07760 -0.08049
v 0.02299 -0.08911 -0.03161
v 0.06323 -0.08623 -0.02873
v 0.06611 -0.06037 -0.01150
v 0.03162 -0.09198 -0.03736
v 0.05748 -0.07760 -0.07761
v 0.03449 -0.09198 -0.05173
v 0.06036 -0.05749 -0.06898
v 0.06036 -0.08335 -0.06036
v -0.05174 -0.08623 0.05175
v 0.06036 -0.05461 0.07186
v 0.06036 -0.05461 0.06899
v -0.06037 -0.05461 0.07474
v 0.00285 -0.08911 0.07474
v 0.05173 -0.08623 0.05175
v -0.04600 -0.05461 0.05750
v -0.05462 -0.08335 0.07474
v 0.05748 -0.07760 0.07474
v 0.05748 -0.07187 0.05175
v -0.01725 -0.05461 0.07762
v -0.05749 -0.06899 0.05175
v -0.03161 -0.09198 0.06325
v 0.04023 -0.08911 0.06899
v -0.06325 -0.07760 0.06325
v 0.04311 -0.05461 0.06325
v 0.06036 -0.08335 0.06612
v 0.05748 -0.05461 0.07474
v 0.00861 -0.08911 0.05175
v 0.01724 -0.09198 0.06325
v -0.06037 -0.05461 0.06325
v -0.04888 -0.08911 0.06899
v -0.03737 -0.06037 0.07762
v 0.06036 -0.08048 0.05175
v -0.05462 -0.06611 0.05175
v -0.02874 -0.08911 0.07474
v -0.06325 -0.07760 0.07186
v 0.01724 -0.09198 0.06899
v 0.03160 -0.08623 0.07474
v -0.06325 -0.06037 0.06325
v -0.05749 -0.08335 0.05175
v -0.03161 -0.09198 0.06899
v 0.06036 -0.08048 0.07186
v -0.06037 -0.07760 0.07474
v -0.04025 -0.05461 0.05750
v -0.05462 -0.08623 0.07186
v -0.06325 -0.05749 0.07186
v -0.04025 -0.05461 0.07762
v 0.05748 -0.05461 0.06612
v -0.02586 -0.06037 0.07762
v 0.05460 -0.08623 0.06612
v -0.04312 -0.06611 0.05175
v 0.04599 -0.08623 0.07186
v 0.03161 0.07762 -0.06899
v 0.06611 0.07474 0.02300
v 0.06611 0.06900 0.02300
v 0.02874 0.08337 0.02875
v 0.04599 0.05175 0.02875
v 0.05748 0.05175 -0.04024
v 0.05748 0.08049 -0.05749
v 0.02874 0.06900 -0.06611
v 0.06036 0.08337 0.02875
v 0.02874 0.06900 0.02875
v 0.06323 0.05462 0.02875
v 0.06611 0.06612 -0.02012
v 0.06036 0.08337 -0.02874
v 0.02874 0.08049 -0.06611
v 0.05173 0.07187 -0.06611
v 0.04886 0.05175 -0.04024
v 0.06611 0.08049 -0.01150
v 0.06323 0.05175 -0.00000
v 0.06323 0.06900 -0.04310
v 0.05173 0.08049 -0.06611
v 0.04599 0.08337 -0.02585
v 0.04599 0.07187 -0.06899
v 0.06323 0.05750 -0.02874
v 0.06611 0.06037 0.00862
v 0.06323 0.07762 -0.04310
v 0.06036 0.05175 0.02875
v 0.02874 0.08337 0.00574
v 0.06323 0.08337 0.01725
v 0.05748 0.07187 -0.05749
v 0.06323 0.08049 0.02875
v 0.06611 0.08049 0.01437
v 0.06611 0.06037 -0.00288
v 0.06036 0.05462 -0.03736
v -0.04886 -0.08911 0.04600
v -0.04024 -0.05749 0.03450
v -0.04024 -0.05749 0.02875
v 0.02011 -0.08911 0.03162
v 0.02011 -0.07761 0.05175
v -0.05750 -0.08623 0.02875
v -0.05461 -0.06899 0.05175
v 0.02011 -0.07473 0.02875
v 0.00860 -0.08911 0.05175
v -0.05750 -0.06324 0.02875
v -0.05750 -0.08048 0.05175
v -0.05175 -0.08911 0.02875
v 0.02011 -0.08911 0.02875
v -0.05175 -0.08623 0.05175
v 0.02011 -0.08623 0.05175
v -0.04312 -0.06899 0.05175
v -0.05461 -0.06036 0.03162
v 0.02011 -0.07473 0.03450
v -0.05750 -0.07187 0.05175
v -0.05175 -0.08911 0.04312
v 0.02011 -0.08624 0.05175
v 0.06323 -0.05461 0.03162
v 0.06323 -0.05461 0.02875
v 0.06323 -0.08336 0.02875
v 0.02011 -0.07473 0.02875
v 0.06035 -0.08336 0.05175
v 0.02299 -0.07473 0.05175
v 0.02011 -0.08624 0.02875
v 0.05461 -0.05461 0.03737
v 0.06035 -0.07186 0.05175
v 0.05748 -0.08624 0.04025
v 0.05173 -0.05461 0.02875
v 0.06323 -0.08048 0.04887
v 0.05748 -0.08624 0.02875
v 0.05173 -0.08624 0.05175
v 0.02011 -0.07761 0.05175
v 0.06035 -0.05461 0.03737
v 0.06323 -0.07186 0.04887
v 0.04886 -0.07186 0.05175
v 0.02011 -0.07473 0.03450
v 0.06035 0.08337 0.06899
v 0.01437 -0.05461 0.06325
v 0.03737 0.00290 0.05749
v 0.01437 0.08912 0.05749
v 0.01437 0.08623 0.07761
v 0.06035 -0.05461 0.07474
v 0.06611 -0.00285 0.05749
v 0.01437 -0.04599 0.07761
v 0.05748 0.00577 0.08049
v 0.06611 0.08049 0.05749
v 0.06323 0.07187 0.07474
v 0.05748 -0.04886 0.06325
v 0.06611 -0.02299 0.07474
v 0.01725 0.00002 0.08049
v 0.05460 0.08049 0.07761
v 0.04311 -0.05173 0.07761
v 0.03449 0.08912 0.07186
v 0.06035 -0.05461 0.06612
v 0.01437 -0.05461 0.07474
v 0.05748 0.08623 0.05749
v 0.06611 0.07187 0.07186
v 0.05173 -0.01436 0.08049
v 0.01437 0.06899 0.05749
v 0.02587 0.01725 0.08049
v 0.06611 -0.03161 0.06612
v 0.06323 0.02298 0.07761
v 0.06323 -0.02299 0.07761
v 0.04311 -0.05461 0.06325
v 0.05748 -0.00574 0.05749
v 0.04886 0.01725 0.08049
v 0.01437 0.08912 0.07474
v 0.04599 0.08623 0.07474
v 0.05748 0.07761 0.07761
v 0.05748 -0.04023 0.07761
v 0.03449 0.08912 0.05749
v 0.03737 -0.01436 0.08049
v 0.06323 -0.04886 0.06612
v 0.05748 0.08623 0.06612
v 0.02587 -0.05173 0.07761
v 0.06323 -0.04886 0.07186
v 0.06611 0.02585 0.07474
v 0.05748 -0.00861 0.08049
v 0.04599 0.08337 0.07761
v -0.02875 0.08337 -0.04887
v -0.05175 0.05175 -0.07474
v -0.05750 0.05175 -0.07186
v 0.02874 0.06900 -0.03162
v -0.05750 0.05175 -0.03162
v 0.00861 0.05175 -0.07186
v 0.02011 0.08049 -0.06611
v -0.05750 0.08049 -0.03162
v -0.04600 0.07762 -0.07474
v 0.02874 0.08049 -0.03162
v 0.02874 0.07187 -0.06611
v -0.06038 0.07762 -0.05461
v -0.04600 0.08337 -0.06611
v -0.00576 0.06900 -0.07474
v -0.04600 0.05175 -0.03162
v 0.00861 0.05175 -0.06611
v -0.06038 0.05462 -0.03162
v -0.05750 0.07474 -0.06899
v 0.02874 0.08049 -0.06324
v -0.02300 0.08337 -0.06611
v -0.00864 0.05175 -0.07474
v -0.06038 0.05750 -0.06036
v 0.02874 0.06900 -0.06324
v -0.00001 0.07762 -0.07186
v -0.06038 0.07762 -0.03162
v -0.03449 0.08337 -0.06899
v -0.05175 0.07187 -0.07474
v 0.02874 0.07762 -0.06611
v -0.05750 0.08049 -0.05461
v -0.02875 0.07762 -0.07474
v -0.04600 0.08337 -0.05175
v -0.05175 0.08049 -0.06899
v -0.00289 0.06325 -0.07474
v -0.06038 0.07187 -0.06036
v 0.04311 -0.00286 0.01437
v 0.06036 0.05174 0.02875
v 0.06036 0.05174 -0.00287
v 0.06323 -0.05461 0.02875
v 0.05174 -0.05461 -0.02873
v 0.04311 -0.05172 0.02875
v 0.06323 -0.05461 -0.02873
v 0.05174 0.02298 -0.02873
v 0.04599 0.05174 0.02875
v 0.06036 0.01437 -0.02873
v 0.05174 0.05174 0.00000
v 0.04311 -0.05172 0.01724
v 0.04311 0.01724 0.02012
v 0.06323 -0.04023 -0.00287
v 0.04599 -0.05461 0.02875
v 0.05749 0.02587 -0.02873
v 0.04311 0.01724 0.02875
v 0.04599 0.05174 0.02587
v 0.06323 -0.04310 0.02299
v 0.05461 0.05174 -0.00287
v 0.04311 0.01437 0.01724
v 0.06323 -0.04885 -0.02586
v -0.02875 -0.02585 0.02875
v -0.05463 0.03161 0.02875
v -0.05463 0.03161 0.03450
v -0.03738 0.04599 0.02875
v -0.04600 0.04599 0.04312
v -0.04313 -0.04597 0.03450
v -0.04600 -0.03161 0.02300
v -0.04025 0.02874 0.02300
v -0.03164 0.00287 0.03450
v -0.05463 0.04599 0.04025
v -0.05175 0.02874 0.02300
v -0.05174 -0.01149 0.03162
v -0.02875 -0.01149 0.02587
v -0.03164 -0.02297 0.03450
v -0.05463 0.04599 0.02875
v -0.03738 0.04599 0.03737
v -0.04025 -0.03161 0.02300
v -0.02875 0.00001 0.03162
v -0.05175 -0.01149 0.02587
v -0.04025 -0.04597 0.02875
v -0.04025 -0.04597 0.03450
v -0.04887 0.04310 0.04312
v -0.05174 -0.00861 0.03450
v -0.03738 0.02011 0.02300
v -0.02875 -0.02298 0.02587
v -0.03163 0.01149 0.02587
v -0.04600 -0.03736 0.02587
v -0.04025 0.04599 0.04025
v -0.02875 -0.02585 0.03162
v -0.05463 0.04310 0.04025
v -0.06038 0.06038 0.03450
v 0.01437 0.08912 0.04887
v 0.01437 0.06899 0.04887
v 0.01437 0.06899 0.02875
v -0.05463 0.04888 0.04887
v -0.05750 0.08049 0.02875
v -0.05750 0.08049 0.04887
v -0.03737 0.04600 0.02875
v 0.01437 0.08336 0.02875
v -0.05463 0.04600 0.02875
v -0.00289 0.08912 0.04312
v -0.04312 0.04600 0.04312
v -0.04312 0.08336 0.02875
v -0.06038 0.05750 0.04887
v -0.06038 0.07762 0.02875
v -0.00577 0.08912 0.04887
v -0.06038 0.07762 0.04887
v -0.03737 0.04600 0.03738
v -0.04600 0.04888 0.04887
v 0.01437 0.08624 0.03450
v -0.05463 0.04600 0.04312
v -0.05750 0.04888 0.03450
v -0.06038 0.06325 0.02875
v 0.00573 -0.04885 0.07762
v -0.06611 -0.02586 0.06612
v -0.06611 -0.02586 0.07186
v 0.01436 0.04025 0.07762
v -0.04025 -0.04598 0.05175
v -0.05749 0.04025 0.06037
v 0.01436 0.02587 0.06325
v -0.06037 0.04025 0.07474
v 0.01436 -0.05460 0.06325
v -0.04025 -0.05460 0.07762
v -0.06037 -0.05460 0.06325
v -0.04887 -0.01435 0.05175
v -0.06037 0.00575 0.07762
v -0.03162 0.04025 0.06037
v 0.01436 -0.05460 0.07474
v -0.06611 0.00575 0.06325
v -0.05749 -0.05460 0.07474
v 0.01436 0.04025 0.06612
v -0.04599 -0.04885 0.05175
v -0.06037 -0.02011 0.05750
v -0.04025 0.02874 0.07762
v -0.04599 -0.05460 0.05750
v -0.06611 0.01149 0.07186
v 0.01436 -0.04598 0.07762
v -0.06037 -0.01723 0.07762
v -0.04599 -0.01435 0.05175
v -0.06037 0.04025 0.06325
v -0.06611 -0.02298 0.06325
v -0.00864 0.04025 0.07762
v -0.06324 -0.04310 0.07186
v -0.06037 -0.01149 0.05750
v -0.01726 -0.05460 0.07762
v -0.06325 0.07187 0.06037
v 0.01437 0.09198 0.07186
v 0.01437 0.09198 0.06037
v 0.01437 0.04025 0.07761
v -0.04599 0.05176 0.04887
v -0.06036 0.04025 0.07474
v 0.01437 0.06899 0.04887
v -0.02874 0.08336 0.07761
v -0.05750 0.08049 0.04887
v 0.01437 0.04025 0.06612
v -0.05461 0.04025 0.05750
v -0.06036 0.07762 0.07186
v 0.01437 0.08911 0.04887
v -0.02588 0.08911 0.07186
v 0.01437 0.08624 0.07761
v -0.06036 0.05750 0.04887
v -0.00576 0.09198 0.05750
v -0.06325 0.04025 0.06612
v -0.03737 0.06899 0.07761
v -0.06036 0.07187 0.07474
v -0.01152 0.08911 0.04887
v -0.04025 0.08624 0.05750
v -0.06325 0.07187 0.07186
v -0.00864 0.09198 0.07186
v -0.00576 0.04025 0.07761
v -0.05750 0.08049 0.06899
v -0.04312 0.04025 0.05750
v -0.05750 0.05176 0.04887
v -0.06036 0.07762 0.04887
v -0.02014 0.08911 0.07474
v -0.06325 0.04025 0.07186
v -0.04025 0.08336 0.07474
v -0.04025 0.08624 0.06899
v 0.04311 -0.05173 0.02875
v 0.06323 0.02012 0.05749
v 0.06323 0.02012 0.05462
v 0.04599 0.04886 0.04312
v 0.06036 0.04886 0.02875
v 0.06323 -0.05461 0.02875
v 0.04599 -0.04023 0.04599
v 0.04311 0.01437 0.05462
v 0.04599 0.04886 0.02875
v 0.06036 -0.05173 0.04312
v 0.06323 -0.00001 0.05749
v 0.06036 0.04886 0.04599
v 0.04311 0.01724 0.02875
v 0.06323 0.01149 0.03162
v 0.04599 -0.05173 0.04312
v 0.05461 0.02012 0.05749
v 0.05461 0.00287 0.05749
v 0.04886 0.04886 0.04599
v 0.05461 -0.05461 0.04025
v 0.04311 -0.05173 0.03162
v 0.06323 -0.05461 0.03162
v 0.04311 0.01149 0.05462
v 0.06323 0.00287 0.02875
v 0.05174 -0.05461 0.02875
v 0.06611 0.06613 0.04312
v 0.03162 0.08912 0.05749
v 0.03162 0.08912 0.05462
v 0.01437 0.06900 0.02875
v 0.04599 0.05463 0.05749
v 0.06035 0.08336 0.02875
v 0.06035 0.04887 0.02875
v 0.06611 0.08049 0.05749
v 0.01437 0.06900 0.05749
v 0.01437 0.08912 0.04312
v 0.04599 0.04887 0.02875
v 0.06323 0.05463 0.05749
v 0.01437 0.08336 0.02875
v 0.04599 0.04887 0.04599
v 0.01437 0.08912 0.05749
v 0.05748 0.08624 0.05749
v 0.06323 0.08049 0.02875
v 0.05460 0.08624 0.03737
v 0.06035 0.04887 0.04887
v 0.04024 0.08624 0.03162
v 0.06323 0.05463 0.02875
v 0.06611 0.06037 0.05749
v 0.06611 0.07474 0.04025
v 0.06323 0.08336 0.04025
v -0.05750 -0.05461 -0.02012
v -0.05175 -0.03162 -0.01437
v -0.03163 -0.05173 -0.00862
v -0.05750 -0.05461 -0.00862
v -0.03163 -0.05461 -0.01437
v -0.05750 -0.03737 -0.00862
v -0.05750 -0.03162 -0.01725
v -0.04887 -0.05173 -0.02012
v -0.05175 -0.03162 -0.01725
v -0.03163 -0.05173 -0.01437
v -0.05175 -0.03737 -0.00862
v -0.03163 -0.05461 -0.00862
v 0.02874 0.08337 0.00862
v -0.06038 0.06612 -0.03161
v -0.06038 0.06612 0.02875
v 0.02874 0.06900 -0.03161
v -0.05750 0.08049 -0.03161
v -0.04311 0.08337 0.02875
v 0.02874 0.06900 0.02875
v 0.02874 0.08049 -0.03161
v 0.02874 0.08337 0.02875
v -0.06038 0.07762 0.02875
v -0.02300 0.06612 0.00575
v -0.03162 0.06612 -0.03161
v -0.02588 0.06612 0.02875
v -0.06038 0.07762 -0.03161
v -0.05750 0.08049 0.02875
v -0.03737 0.08337 0.02012
v -0.00576 0.08337 0.01150
v 0.05173 0.04598 -0.06324
v 0.02874 -0.05461 -0.07474
v 0.05461 -0.05461 -0.07474
v 0.03449 -0.05461 -0.06037
v 0.02874 0.04885 -0.07186
v 0.05748 -0.05461 -0.06037
v 0.05748 0.01437 -0.07474
v 0.04311 0.04024 -0.06037
v 0.06036 0.01437 -0.06037
v 0.02874 0.04598 -0.06612
v 0.04599 0.03736 -0.07474
v 0.06036 -0.01148 -0.07186
v 0.02874 -0.05461 -0.06324
v 0.02874 0.02874 -0.07474
v 0.04599 0.05174 -0.07186
v 0.05748 0.02874 -0.07186
v 0.03449 0.05174 -0.06612
v 0.05748 -0.05461 -0.07186
v 0.06036 -0.01436 -0.06037
v 0.05461 0.03736 -0.06037
v 0.06036 0.01149 -0.07186
v 0.04024 0.02298 -0.06037
v 0.05173 0.03449 -0.07474
v 0.05461 0.04024 -0.06899
v 0.05748 0.03161 -0.06324
v 0.02874 -0.03735 -0.06324
v 0.04599 0.05174 -0.06612
v -0.05462 -0.01725 -0.07474
v -0.05175 -0.03449 -0.03737
v -0.05175 -0.01150 -0.04024
v -0.03163 -0.05461 -0.07474
v -0.03163 -0.01150 -0.06611
v -0.03163 -0.05461 -0.03737
v -0.05750 -0.05461 -0.06899
v -0.05750 -0.05461 -0.03737
v -0.05750 -0.01150 -0.07186
v -0.03163 -0.01150 -0.07474
v -0.05750 -0.01150 -0.04024
v -0.03163 -0.03736 -0.04024
v -0.04600 -0.05461 -0.07474
v -0.03163 -0.04886 -0.03737
v -0.05462 -0.05461 -0.07186
v -0.05462 -0.01150 -0.07474
v -0.06038 -0.00861 -0.06899
v -0.04887 0.05175 -0.03162
v -0.05750 0.05175 -0.03162
v -0.03163 0.05175 -0.07474
v -0.03163 -0.01149 -0.06611
v -0.05750 -0.01149 -0.04025
v -0.05750 0.05175 -0.07186
v -0.03451 0.02300 -0.04312
v -0.05750 -0.01149 -0.07474
v -0.03163 -0.01149 -0.07474
v -0.03163 0.05175 -0.06036
v -0.05175 -0.01149 -0.04025
v -0.06038 -0.00286 -0.03738
v -0.04887 0.03162 -0.03162
v -0.06038 0.01151 -0.06899
v -0.05175 0.05175 -0.07474
v -0.05750 0.02587 -0.03162
v -0.03451 0.02875 -0.04312
v -0.06038 0.00864 -0.03738
v -0.04600 0.05175 -0.03450
v -0.05750 0.01726 -0.07474
v -0.06038 0.00288 -0.07186
v -0.05175 0.02587 -0.03162
v 0.01149 0.05175 -0.06612
v -0.03163 -0.03162 -0.07474
v 0.01436 -0.03162 -0.07474
v -0.03163 -0.03162 -0.06612
v -0.03163 0.05175 -0.07474
v -0.03163 0.05175 -0.06037
v 0.02874 -0.03162 -0.06612
v 0.02874 0.02586 -0.07474
v 0.02874 0.04599 -0.06612
v -0.01150 0.04887 -0.06037
v 0.02874 0.04599 -0.07186
v 0.02874 -0.01437 -0.07474
v -0.03163 0.04024 -0.06037
v -0.01150 0.05175 -0.07474
v 0.02874 -0.03162 -0.07186
v 0.01149 0.05175 -0.07186
v -0.01150 0.05175 -0.06037
v 0.00286 0.00287 0.00863
v -0.06037 -0.00863 0.00288
v -0.05462 -0.04598 0.00000
v -0.05174 -0.05461 0.01437
v -0.05174 0.02875 0.01437
v -0.03450 0.02875 0.00000
v 0.00286 -0.02011 0.00000
v -0.02301 -0.05461 0.00863
v -0.01726 -0.01150 0.01437
v -0.05174 0.02875 0.00000
v -0.03162 -0.05461 0.00000
v -0.00289 0.01437 0.00000
v -0.05174 0.00287 0.01725
v -0.04025 0.02875 0.01437
v 0.00286 -0.01724 0.00863
v -0.06037 -0.00000 0.01150
v -0.04025 -0.05461 0.01437
v -0.05749 -0.04598 0.01150
v -0.02876 0.02875 0.00863
v -0.04025 -0.00863 0.01725
v -0.00002 -0.00000 0.01150
v -0.05462 -0.05461 0.00288
v -0.05462 0.02875 0.00288
v -0.00289 0.01437 0.00575
v -0.02301 -0.05461 0.00288
v 0.00286 -0.02298 0.00575
v -0.00002 -0.00863 0.01150
v -0.05749 -0.00000 0.00000
v -0.04312 0.00287 0.01725
v 0.00286 0.00287 0.00000
v -0.05749 -0.01150 0.01437
v -0.05749 -0.04598 0.00288
v -0.05462 0.02875 0.01150
v -0.06037 -0.00000 0.00288
v -0.05174 -0.00863 0.01725
v -0.02013 0.00287 0.01437
v -0.02589 -0.03160 0.01437
v -0.00002 -0.02298 0.00863
v -0.05174 -0.05461 0.00000
v -0.02876 0.02875 0.00288
v -0.05462 -0.04598 0.01437
v -0.05749 0.00287 0.01437
v -0.00863 -0.05174 -0.04024
v -0.00575 -0.05461 -0.05462
v -0.00575 -0.05174 -0.05462
v 0.02874 -0.05461 -0.04599
v 0.02874 -0.04886 -0.05174
v -0.02299 -0.04886 -0.05174
v -0.02299 -0.05461 -0.04024
v -0.01438 -0.04886 -0.04024
v 0.02874 -0.05461 -0.05462
v 0.02874 -0.04886 -0.04599
v -0.02299 -0.05461 -0.05174
v -0.02299 -0.04886 -0.04024
v -0.05175 0.03163 -0.03162
v -0.03738 0.06612 -0.00288
v -0.06037 0.06612 -0.00288
v -0.04026 0.06612 -0.03162
v -0.06037 0.06612 -0.03162
v -0.05462 0.03163 -0.01437
v -0.05750 0.03163 -0.03162
v -0.04888 0.04600 -0.00288
v -0.04888 0.03163 -0.01437
v -0.03738 0.06324 -0.01724
v -0.06037 0.06037 -0.00288
v -0.05750 0.03163 -0.02012
v -0.06037 0.05462 -0.03162
v -0.03738 0.06324 -0.00288
v -0.05462 0.04887 -0.00288
v -0.04888 0.03163 -0.02012
v -0.04026 0.06324 -0.03162
v -0.04313 0.05175 -0.00288
v -0.05175 0.04313 -0.00287
v -0.03163 0.06612 0.02875
v -0.05750 0.06612 0.02875
v -0.03738 0.02875 0.02875
v -0.03451 0.06612 -0.00287
v -0.03163 0.02875 0.00288
v -0.05462 0.02875 0.01151
v -0.06038 0.06612 -0.00287
v -0.05462 0.03450 0.02875
v -0.05175 0.02875 0.00001
v -0.06038 0.06324 0.01151
v -0.03738 0.02875 0.00001
v -0.03163 0.05174 0.00288
v -0.05175 0.02875 0.02875
v -0.03163 0.02875 0.00863
v -0.05462 0.02875 0.00288
v -0.04313 0.04601 -0.00287
v -0.06038 0.06324 -0.00287
v 0.06323 -0.05174 -0.02874
v 0.04886 -0.05174 -0.06036
v 0.04886 -0.04312 -0.06036
v 0.02874 -0.04886 -0.04599
v 0.05173 -0.03449 -0.02874
v 0.06035 -0.03449 -0.05174
v 0.04599 -0.03449 -0.05461
v 0.05173 -0.05461 -0.02874
v 0.06035 -0.05461 -0.05461
v 0.02874 -0.05461 -0.05461
v 0.06035 -0.03449 -0.02874
v 0.03449 -0.04024 -0.05174
v 0.06323 -0.05461 -0.04887
v 0.05461 -0.04312 -0.06036
v 0.02874 -0.05461 -0.04599
v 0.03162 -0.05174 -0.05749
v 0.03449 -0.04024 -0.04599
v 0.06323 -0.05461 -0.02874
v 0.02874 -0.04886 -0.05461
v 0.05748 -0.05461 -0.05749
v 0.04886 -0.01436 -0.06036
v 0.05748 0.04024 -0.02874
v 0.05748 0.05174 -0.03162
v 0.04024 0.01437 -0.04599
v 0.06036 -0.03449 -0.02874
v 0.06036 0.01437 -0.06036
v 0.04311 0.03449 -0.06036
v 0.05173 -0.03449 -0.02874
v 0.05748 -0.03449 -0.05461
v 0.04886 0.05174 -0.03450
v 0.04886 -0.03449 -0.05461
v 0.05748 0.05174 -0.04312
v 0.04024 -0.00286 -0.05174
v 0.06036 0.01724 -0.02874
v 0.06036 -0.01436 -0.06036
v 0.05461 0.03449 -0.06036
v 0.05173 0.02587 -0.02874
v 0.04599 0.04886 -0.04599
v 0.04311 0.00576 -0.06036
v 0.04024 -0.00286 -0.04599
v 0.04886 -0.03449 -0.04025
v 0.04311 0.04024 -0.04599
v 0.06036 -0.03449 -0.04887
v 0.04599 0.03737 -0.06036
v 0.04024 0.01724 -0.05174
v 0.05173 0.05174 -0.03162
v 0.05748 0.02874 -0.06036
v -0.03163 -0.05461 -0.05749
v 0.02874 -0.03162 -0.06612
v 0.02874 -0.03162 -0.07186
v 0.02874 -0.05461 -0.06324
v -0.03163 -0.05461 -0.07474
v -0.03163 -0.03162 -0.06324
v 0.02874 -0.05461 -0.07474
v -0.03163 -0.03162 -0.07474
v 0.00286 -0.05173 -0.05749
v 0.01436 -0.03162 -0.07474
v 0.00574 -0.03162 -0.06324
v -0.03163 -0.04886 -0.05749
v 0.02874 -0.04024 -0.06324
v 0.02874 -0.04024 -0.07474
v 0.00286 -0.05461 -0.05749
v -0.02875 -0.04312 -0.04025
v -0.03163 -0.05461 -0.05749
v -0.03163 -0.05174 -0.05749
v -0.02301 -0.05461 -0.05174
v -0.03163 -0.05461 -0.03737
v -0.03163 -0.04024 -0.04600
v -0.02301 -0.04599 -0.04886
v -0.02301 -0.05461 -0.04025
v -0.02588 -0.05174 -0.05749
v -0.02301 -0.04886 -0.04025
f 66 72 90 
f 44 43 45 
f 45 43 49 
f 47 46 49 
f 45 46 51 
f 44 45 52 
f 51 46 53 
f 46 45 54 
f 45 49 54 
f 47 49 55 
f 43 44 56 
f 49 43 58 
f 55 49 58 
f 43 56 60 
f 51 53 61 
f 58 43 62 
f 55 58 62 
f 43 60 62 
f 46 47 63 
f 53 46 63 
f 53 63 64 
f 59 48 65 
f 60 56 66 
f 52 65 69 
f 61 53 70 
f 53 64 70 
f 48 67 71 
f 65 48 72 
f 69 65 72 
f 48 59 73 
f 44 52 74 
f 56 44 74 
f 52 69 74 
f 69 56 74 
f 52 45 75 
f 45 59 75 
f 65 52 75 
f 59 65 75 
f 57 70 76 
f 70 64 76 
f 55 60 77 
f 66 50 77 
f 60 66 77 
f 50 68 77 
f 49 46 78 
f 46 54 78 
f 54 49 78 
f 61 42 79 
f 51 61 79 
f 42 67 79 
f 63 47 80 
f 64 63 80 
f 47 68 80 
f 76 64 80 
f 68 76 80 
f 42 57 81 
f 67 42 81 
f 57 71 81 
f 71 67 81 
f 57 42 82 
f 42 61 82 
f 61 70 82 
f 70 57 82 
f 45 51 83 
f 51 73 83 
f 66 56 84 
f 56 69 84 
f 72 66 84 
f 69 72 84 
f 60 55 85 
f 55 62 85 
f 62 60 85 
f 59 45 86 
f 73 59 86 
f 45 83 86 
f 83 73 86 
f 68 50 87 
f 50 71 87 
f 71 57 87 
f 76 68 87 
f 57 76 87 
f 67 48 88 
f 73 51 88 
f 48 73 88 
f 51 79 88 
f 79 67 88 
f 47 55 89 
f 68 47 89 
f 55 77 89 
f 77 68 89 
f 50 66 90 
f 48 71 90 
f 71 50 90 
f 72 48 90 
