# Original object name hint: convex_12
v -0.06038 -0.07187 -0.07473
v 0.02299 -0.07473 0.02875
v -0.04025 -0.06037 0.02875
v 0.02299 -0.05461 -0.07473
v 0.00287 -0.09198 -0.04886
v -0.05462 -0.08911 0.02875
v -0.05749 -0.05461 -0.07186
v 0.02299 -0.08335 -0.07186
v 0.02011 -0.08911 0.02875
v -0.05749 -0.05461 0.00861
v -0.05175 -0.08911 -0.05173
v -0.02299 -0.05461 0.00861
v 0.02299 -0.05461 -0.04598
v -0.05462 -0.07760 -0.07761
v -0.06038 -0.08048 0.02875
v -0.06038 -0.08335 -0.05173
v -0.04312 -0.09198 -0.04023
v 0.02299 -0.08911 -0.05460
v 0.02299 -0.07760 -0.07761
v -0.02299 -0.05749 -0.07761
v -0.02299 -0.08623 -0.06898
v -0.06038 -0.05749 -0.01150
v -0.05749 -0.06324 0.02875
v -0.00289 -0.09198 -0.03449
v -0.02299 -0.09198 -0.05173
v 0.02299 -0.08623 0.02875
v 0.02299 -0.05749 -0.07761
v -0.05175 -0.06324 -0.07761
v -0.06038 -0.05749 -0.06898
v -0.05462 -0.08048 -0.07473
v -0.05462 -0.08911 -0.04598
v -0.05462 -0.05461 0.01436
v -0.06038 -0.06611 0.02299
v -0.05175 -0.05461 -0.07473
v -0.06038 -0.08335 0.02299
v -0.06038 -0.07760 -0.07186
v -0.05462 -0.06037 0.02875
v -0.03450 -0.09198 -0.03449
v -0.05749 -0.06899 -0.07761
v -0.04025 -0.05461 0.01436
v 0.02299 -0.08911 -0.03162
v 0.03162 -0.08048 -0.07761
v 0.06611 -0.06899 0.02875
v 0.06611 -0.07473 0.02875
v 0.02299 -0.08623 0.02875
v 0.02299 -0.05461 -0.04598
v 0.05748 -0.05461 -0.07186
v 0.05173 -0.09198 -0.04886
v 0.05173 -0.05461 0.02875
v 0.06323 -0.07760 -0.06898
v 0.02299 -0.08911 -0.05749
v 0.06036 -0.08623 0.02875
v 0.02299 -0.05749 -0.07761
v 0.02299 -0.07473 0.02875
v 0.06323 -0.05461 -0.05173
v 0.06611 -0.08335 -0.01726
v 0.05173 -0.07760 -0.08049
v 0.06323 -0.05461 0.02875
v 0.03449 -0.09198 -0.03448
v 0.06611 -0.06611 -0.04024
v 0.02299 -0.07760 -0.07761
v 0.06611 -0.06037 0.02012
v 0.02299 -0.05461 -0.07473
v 0.04598 -0.05749 -0.07761
v 0.05173 -0.09198 -0.03161
v 0.06611 -0.08048 -0.04598
v 0.04598 -0.08911 -0.06036
v 0.06036 -0.06611 -0.07473
v 0.06323 -0.08623 0.00862
v 0.03162 -0.06899 -0.08049
v 0.05748 -0.08048 -0.07473
v 0.05748 -0.08911 -0.04598
v 0.03162 -0.09198 -0.04886
v 0.06611 -0.08335 0.01437
v 0.04312 -0.08911 0.00286
v 0.05173 -0.06899 -0.08049
v 0.06323 -0.06899 -0.06898
v 0.04886 -0.05461 0.02300
v 0.02299 -0.08623 -0.06611
v 0.05461 -0.05461 -0.07473
v 0.05173 -0.08048 -0.07761
v 0.03162 -0.07760 -0.08049
v 0.02299 -0.08911 -0.03161
v 0.06323 -0.08623 -0.02873
v 0.06611 -0.06037 -0.01150
v 0.03162 -0.09198 -0.03736
v 0.05748 -0.07760 -0.07761
v 0.03449 -0.09198 -0.05173
v 0.06036 -0.05749 -0.06898
v 0.06036 -0.08335 -0.06036
v -0.05174 -0.08623 0.05175
v 0.06036 -0.05461 0.07186
v 0.06036 -0.05461 0.06899
v -0.06037 -0.05461 0.07474
v 0.00285 -0.08911 0.07474
v 0.05173 -0.08623 0.05175
v -0.04600 -0.05461 0.05750
v -0.05462 -0.08335 0.07474
v 0.05748 -0.07760 0.07474
v 0.05748 -0.07187 0.05175
v -0.01725 -0.05461 0.07762
v -0.05749 -0.06899 0.05175
v -0.03161 -0.09198 0.06325
v 0.04023 -0.08911 0.06899
v -0.06325 -0.07760 0.06325
v 0.04311 -0.05461 0.06325
v 0.06036 -0.08335 0.06612
v 0.05748 -0.05461 0.07474
v 0.00861 -0.08911 0.05175
v 0.01724 -0.09198 0.06325
v -0.06037 -0.05461 0.06325
v -0.04888 -0.08911 0.06899
v -0.03737 -0.06037 0.07762
v 0.06036 -0.08048 0.05175
v -0.05462 -0.06611 0.05175
v -0.02874 -0.08911 0.07474
v -0.06325 -0.07760 0.07186
v 0.01724 -0.09198 0.06899
v 0.03160 -0.08623 0.07474
v -0.06325 -0.06037 0.06325
v -0.05749 -0.08335 0.05175
v -0.03161 -0.09198 0.06899
v 0.06036 -0.08048 0.07186
v -0.06037 -0.07760 0.07474
v -0.04025 -0.05461 0.05750
v -0.05462 -0.08623 0.07186
v -0.06325 -0.05749 0.07186
v -0.04025 -0.05461 0.07762
v 0.05748 -0.05461 0.06612
v -0.02586 -0.06037 0.07762
v 0.05460 -0.08623 0.06612
v -0.04312 -0.06611 0.05175
v 0.04599 -0.08623 0.07186
v 0.03161 0.07762 -0.06899
v 0.06611 0.07474 0.02300
v 0.06611 0.06900 0.02300
v 0.02874 0.08337 0.02875
v 0.04599 0.05175 0.02875
v 0.05748 0.05175 -0.04024
v 0.05748 0.08049 -0.05749
v 0.02874 0.06900 -0.06611
v 0.06036 0.08337 0.02875
v 0.02874 0.06900 0.02875
v 0.06323 0.05462 0.02875
v 0.06611 0.06612 -0.02012
v 0.06036 0.08337 -0.02874
v 0.02874 0.08049 -0.06611
v 0.05173 0.07187 -0.06611
v 0.04886 0.05175 -0.04024
v 0.06611 0.08049 -0.01150
v 0.06323 0.05175 -0.00000
v 0.06323 0.06900 -0.04310
v 0.05173 0.08049 -0.06611
v 0.04599 0.08337 -0.02585
v 0.04599 0.07187 -0.06899
v 0.06323 0.05750 -0.02874
v 0.06611 0.06037 0.00862
v 0.06323 0.07762 -0.04310
v 0.06036 0.05175 0.02875
v 0.02874 0.08337 0.00574
v 0.06323 0.08337 0.01725
v 0.05748 0.07187 -0.05749
v 0.06323 0.08049 0.02875
v 0.06611 0.08049 0.01437
v 0.06611 0.06037 -0.00288
v 0.06036 0.05462 -0.03736
v -0.04886 -0.08911 0.04600
v -0.04024 -0.05749 0.03450
v -0.04024 -0.05749 0.02875
v 0.02011 -0.08911 0.03162
v 0.02011 -0.07761 0.05175
v -0.05750 -0.08623 0.02875
v -0.05461 -0.06899 0.05175
v 0.02011 -0.07473 0.02875
v 0.00860 -0.08911 0.05175
v -0.05750 -0.06324 0.02875
v -0.05750 -0.08048 0.05175
v -0.05175 -0.08911 0.02875
v 0.02011 -0.08911 0.02875
v -0.05175 -0.08623 0.05175
v 0.02011 -0.08623 0.05175
v -0.04312 -0.06899 0.05175
v -0.05461 -0.06036 0.03162
v 0.02011 -0.07473 0.03450
v -0.05750 -0.07187 0.05175
v -0.05175 -0.08911 0.04312
v 0.02011 -0.08624 0.05175
v 0.06323 -0.05461 0.03162
v 0.06323 -0.05461 0.02875
v 0.06323 -0.08336 0.02875
v 0.02011 -0.07473 0.02875
v 0.06035 -0.08336 0.05175
v 0.02299 -0.07473 0.05175
v 0.02011 -0.08624 0.02875
v 0.05461 -0.05461 0.03737
v 0.06035 -0.07186 0.05175
v 0.05748 -0.08624 0.04025
v 0.05173 -0.05461 0.02875
v 0.06323 -0.08048 0.04887
v 0.05748 -0.08624 0.02875
v 0.05173 -0.08624 0.05175
v 0.02011 -0.07761 0.05175
v 0.06035 -0.05461 0.03737
v 0.06323 -0.07186 0.04887
v 0.04886 -0.07186 0.05175
v 0.02011 -0.07473 0.03450
v 0.06035 0.08337 0.06899
v 0.01437 -0.05461 0.06325
v 0.03737 0.00290 0.05749
v 0.01437 0.08912 0.05749
v 0.01437 0.08623 0.07761
v 0.06035 -0.05461 0.07474
v 0.06611 -0.00285 0.05749
v 0.01437 -0.04599 0.07761
v 0.05748 0.00577 0.08049
v 0.06611 0.08049 0.05749
v 0.06323 0.07187 0.07474
v 0.05748 -0.04886 0.06325
v 0.06611 -0.02299 0.07474
v 0.01725 0.00002 0.08049
v 0.05460 0.08049 0.07761
v 0.04311 -0.05173 0.07761
v 0.03449 0.08912 0.07186
v 0.06035 -0.05461 0.06612
v 0.01437 -0.05461 0.07474
v 0.05748 0.08623 0.05749
v 0.06611 0.07187 0.07186
v 0.05173 -0.01436 0.08049
v 0.01437 0.06899 0.05749
v 0.02587 0.01725 0.08049
v 0.06611 -0.03161 0.06612
v 0.06323 0.02298 0.07761
v 0.06323 -0.02299 0.07761
v 0.04311 -0.05461 0.06325
v 0.05748 -0.00574 0.05749
v 0.04886 0.01725 0.08049
v 0.01437 0.08912 0.07474
v 0.04599 0.08623 0.07474
v 0.05748 0.07761 0.07761
v 0.05748 -0.04023 0.07761
v 0.03449 0.08912 0.05749
v 0.03737 -0.01436 0.08049
v 0.06323 -0.04886 0.06612
v 0.05748 0.08623 0.06612
v 0.02587 -0.05173 0.07761
v 0.06323 -0.04886 0.07186
v 0.06611 0.02585 0.07474
v 0.05748 -0.00861 0.08049
v 0.04599 0.08337 0.07761
v -0.02875 0.08337 -0.04887
v -0.05175 0.05175 -0.07474
v -0.05750 0.05175 -0.07186
v 0.02874 0.06900 -0.03162
v -0.05750 0.05175 -0.03162
v 0.00861 0.05175 -0.07186
v 0.02011 0.08049 -0.06611
v -0.05750 0.08049 -0.03162
v -0.04600 0.07762 -0.07474
v 0.02874 0.08049 -0.03162
v 0.02874 0.07187 -0.06611
v -0.06038 0.07762 -0.05461
v -0.04600 0.08337 -0.06611
v -0.00576 0.06900 -0.07474
v -0.04600 0.05175 -0.03162
v 0.00861 0.05175 -0.06611
v -0.06038 0.05462 -0.03162
v -0.05750 0.07474 -0.06899
v 0.02874 0.08049 -0.06324
v -0.02300 0.08337 -0.06611
v -0.00864 0.05175 -0.07474
v -0.06038 0.05750 -0.06036
v 0.02874 0.06900 -0.06324
v -0.00001 0.07762 -0.07186
v -0.06038 0.07762 -0.03162
v -0.03449 0.08337 -0.06899
v -0.05175 0.07187 -0.07474
v 0.02874 0.07762 -0.06611
v -0.05750 0.08049 -0.05461
v -0.02875 0.07762 -0.07474
v -0.04600 0.08337 -0.05175
v -0.05175 0.08049 -0.06899
v -0.00289 0.06325 -0.07474
v -0.06038 0.07187 -0.06036
v 0.04311 -0.00286 0.01437
v 0.06036 0.05174 0.02875
v 0.06036 0.05174 -0.00287
v 0.06323 -0.05461 0.02875
v 0.05174 -0.05461 -0.02873
v 0.04311 -0.05172 0.02875
v 0.06323 -0.05461 -0.02873
v 0.05174 0.02298 -0.02873
v 0.04599 0.05174 0.02875
v 0.06036 0.01437 -0.02873
v 0.05174 0.05174 0.00000
v 0.04311 -0.05172 0.01724
v 0.04311 0.01724 0.02012
v 0.06323 -0.04023 -0.00287
v 0.04599 -0.05461 0.02875
v 0.05749 0.02587 -0.02873
v 0.04311 0.01724 0.02875
v 0.04599 0.05174 0.02587
v 0.06323 -0.04310 0.02299
v 0.05461 0.05174 -0.00287
v 0.04311 0.01437 0.01724
v 0.06323 -0.04885 -0.02586
v -0.02875 -0.02585 0.02875
v -0.05463 0.03161 0.02875
v -0.05463 0.03161 0.03450
v -0.03738 0.04599 0.02875
v -0.04600 0.04599 0.04312
v -0.04313 -0.04597 0.03450
v -0.04600 -0.03161 0.02300
v -0.04025 0.02874 0.02300
v -0.03164 0.00287 0.03450
v -0.05463 0.04599 0.04025
v -0.05175 0.02874 0.02300
v -0.05174 -0.01149 0.03162
v -0.02875 -0.01149 0.02587
v -0.03164 -0.02297 0.03450
v -0.05463 0.04599 0.02875
v -0.03738 0.04599 0.03737
v -0.04025 -0.03161 0.02300
v -0.02875 0.00001 0.03162
v -0.05175 -0.01149 0.02587
v -0.04025 -0.04597 0.02875
v -0.04025 -0.04597 0.03450
v -0.04887 0.04310 0.04312
v -0.05174 -0.00861 0.03450
v -0.03738 0.02011 0.02300
v -0.02875 -0.02298 0.02587
v -0.03163 0.01149 0.02587
v -0.04600 -0.03736 0.02587
v -0.04025 0.04599 0.04025
v -0.02875 -0.02585 0.03162
v -0.05463 0.04310 0.04025
v -0.06038 0.06038 0.03450
v 0.01437 0.08912 0.04887
v 0.01437 0.06899 0.04887
v 0.01437 0.06899 0.02875
v -0.05463 0.04888 0.04887
v -0.05750 0.08049 0.02875
v -0.05750 0.08049 0.04887
v -0.03737 0.04600 0.02875
v 0.01437 0.08336 0.02875
v -0.05463 0.04600 0.02875
v -0.00289 0.08912 0.04312
v -0.04312 0.04600 0.04312
v -0.04312 0.08336 0.02875
v -0.06038 0.05750 0.04887
v -0.06038 0.07762 0.02875
v -0.00577 0.08912 0.04887
v -0.06038 0.07762 0.04887
v -0.03737 0.04600 0.03738
v -0.04600 0.04888 0.04887
v 0.01437 0.08624 0.03450
v -0.05463 0.04600 0.04312
v -0.05750 0.04888 0.03450
v -0.06038 0.06325 0.02875
v 0.00573 -0.04885 0.07762
v -0.06611 -0.02586 0.06612
v -0.06611 -0.02586 0.07186
v 0.01436 0.04025 0.07762
v -0.04025 -0.04598 0.05175
v -0.05749 0.04025 0.06037
v 0.01436 0.02587 0.06325
v -0.06037 0.04025 0.07474
v 0.01436 -0.05460 0.06325
v -0.04025 -0.05460 0.07762
v -0.06037 -0.05460 0.06325
v -0.04887 -0.01435 0.05175
v -0.06037 0.00575 0.07762
v -0.03162 0.04025 0.06037
v 0.01436 -0.05460 0.07474
v -0.06611 0.00575 0.06325
v -0.05749 -0.05460 0.07474
v 0.01436 0.04025 0.06612
v -0.04599 -0.04885 0.05175
v -0.06037 -0.02011 0.05750
v -0.04025 0.02874 0.07762
v -0.04599 -0.05460 0.05750
v -0.06611 0.01149 0.07186
v 0.01436 -0.04598 0.07762
v -0.06037 -0.01723 0.07762
v -0.04599 -0.01435 0.05175
v -0.06037 0.04025 0.06325
v -0.06611 -0.02298 0.06325
v -0.00864 0.04025 0.07762
v -0.06324 -0.04310 0.07186
v -0.06037 -0.01149 0.05750
v -0.01726 -0.05460 0.07762
v -0.06325 0.07187 0.06037
v 0.01437 0.09198 0.07186
v 0.01437 0.09198 0.06037
v 0.01437 0.04025 0.07761
v -0.04599 0.05176 0.04887
v -0.06036 0.04025 0.07474
v 0.01437 0.06899 0.04887
v -0.02874 0.08336 0.07761
v -0.05750 0.08049 0.04887
v 0.01437 0.04025 0.06612
v -0.05461 0.04025 0.05750
v -0.06036 0.07762 0.07186
v 0.01437 0.08911 0.04887
v -0.02588 0.08911 0.07186
v 0.01437 0.08624 0.07761
v -0.06036 0.05750 0.04887
v -0.00576 0.09198 0.05750
v -0.06325 0.04025 0.06612
v -0.03737 0.06899 0.07761
v -0.06036 0.07187 0.07474
v -0.01152 0.08911 0.04887
v -0.04025 0.08624 0.05750
v -0.06325 0.07187 0.07186
v -0.00864 0.09198 0.07186
v -0.00576 0.04025 0.07761
v -0.05750 0.08049 0.06899
v -0.04312 0.04025 0.05750
v -0.05750 0.05176 0.04887
v -0.06036 0.07762 0.04887
v -0.02014 0.08911 0.07474
v -0.06325 0.04025 0.07186
v -0.04025 0.08336 0.07474
v -0.04025 0.08624 0.06899
v 0.04311 -0.05173 0.02875
v 0.06323 0.02012 0.05749
v 0.06323 0.02012 0.05462
v 0.04599 0.04886 0.04312
v 0.06036 0.04886 0.02875
v 0.06323 -0.05461 0.02875
v 0.04599 -0.04023 0.04599
v 0.04311 0.01437 0.05462
v 0.04599 0.04886 0.02875
v 0.06036 -0.05173 0.04312
v 0.06323 -0.00001 0.05749
v 0.06036 0.04886 0.04599
v 0.04311 0.01724 0.02875
v 0.06323 0.01149 0.03162
v 0.04599 -0.05173 0.04312
v 0.05461 0.02012 0.05749
v 0.05461 0.00287 0.05749
v 0.04886 0.04886 0.04599
v 0.05461 -0.05461 0.04025
v 0.04311 -0.05173 0.03162
v 0.06323 -0.05461 0.03162
v 0.04311 0.01149 0.05462
v 0.06323 0.00287 0.02875
v 0.05174 -0.05461 0.02875
v 0.06611 0.06613 0.04312
v 0.03162 0.08912 0.05749
v 0.03162 0.08912 0.05462
v 0.01437 0.06900 0.02875
v 0.04599 0.05463 0.05749
v 0.06035 0.08336 0.02875
v 0.06035 0.04887 0.02875
v 0.06611 0.08049 0.05749
v 0.01437 0.06900 0.05749
v 0.01437 0.08912 0.04312
v 0.04599 0.04887 0.02875
v 0.06323 0.05463 0.05749
v 0.01437 0.08336 0.02875
v 0.04599 0.04887 0.04599
v 0.01437 0.08912 0.05749
v 0.05748 0.08624 0.05749
v 0.06323 0.08049 0.02875
v 0.05460 0.08624 0.03737
v 0.06035 0.04887 0.04887
v 0.04024 0.08624 0.03162
v 0.06323 0.05463 0.02875
v 0.06611 0.06037 0.05749
v 0.06611 0.07474 0.04025
v 0.06323 0.08336 0.04025
v -0.05750 -0.05461 -0.02012
v -0.05175 -0.03162 -0.01437
v -0.03163 -0.05173 -0.00862
v -0.05750 -0.05461 -0.00862
v -0.03163 -0.05461 -0.01437
v -0.05750 -0.03737 -0.00862
v -0.05750 -0.03162 -0.01725
v -0.04887 -0.05173 -0.02012
v -0.05175 -0.03162 -0.01725
v -0.03163 -0.05173 -0.01437
v -0.05175 -0.03737 -0.00862
v -0.03163 -0.05461 -0.00862
v 0.02874 0.08337 0.00862
v -0.06038 0.06612 -0.03161
v -0.06038 0.06612 0.02875
v 0.02874 0.06900 -0.03161
v -0.05750 0.08049 -0.03161
v -0.04311 0.08337 0.02875
v 0.02874 0.06900 0.02875
v 0.02874 0.08049 -0.03161
v 0.02874 0.08337 0.02875
v -0.06038 0.07762 0.02875
v -0.02300 0.06612 0.00575
v -0.03162 0.06612 -0.03161
v -0.02588 0.06612 0.02875
v -0.06038 0.07762 -0.03161
v -0.05750 0.08049 0.02875
v -0.03737 0.08337 0.02012
v -0.00576 0.08337 0.01150
v 0.05173 0.04598 -0.06324
v 0.02874 -0.05461 -0.07474
v 0.05461 -0.05461 -0.07474
v 0.03449 -0.05461 -0.06037
v 0.02874 0.04885 -0.07186
v 0.05748 -0.05461 -0.06037
v 0.05748 0.01437 -0.07474
v 0.04311 0.04024 -0.06037
v 0.06036 0.01437 -0.06037
v 0.02874 0.04598 -0.06612
v 0.04599 0.03736 -0.07474
v 0.06036 -0.01148 -0.07186
v 0.02874 -0.05461 -0.06324
v 0.02874 0.02874 -0.07474
v 0.04599 0.05174 -0.07186
v 0.05748 0.02874 -0.07186
v 0.03449 0.05174 -0.06612
v 0.05748 -0.05461 -0.07186
v 0.06036 -0.01436 -0.06037
v 0.05461 0.03736 -0.06037
v 0.06036 0.01149 -0.07186
v 0.04024 0.02298 -0.06037
v 0.05173 0.03449 -0.07474
v 0.05461 0.04024 -0.06899
v 0.05748 0.03161 -0.06324
v 0.02874 -0.03735 -0.06324
v 0.04599 0.05174 -0.06612
v -0.05462 -0.01725 -0.07474
v -0.05175 -0.03449 -0.03737
v -0.05175 -0.01150 -0.04024
v -0.03163 -0.05461 -0.07474
v -0.03163 -0.01150 -0.06611
v -0.03163 -0.05461 -0.03737
v -0.05750 -0.05461 -0.06899
v -0.05750 -0.05461 -0.03737
v -0.05750 -0.01150 -0.07186
v -0.03163 -0.01150 -0.07474
v -0.05750 -0.01150 -0.04024
v -0.03163 -0.03736 -0.04024
v -0.04600 -0.05461 -0.07474
v -0.03163 -0.04886 -0.03737
v -0.05462 -0.05461 -0.07186
v -0.05462 -0.01150 -0.07474
v -0.06038 -0.00861 -0.06899
v -0.04887 0.05175 -0.03162
v -0.05750 0.05175 -0.03162
v -0.03163 0.05175 -0.07474
v -0.03163 -0.01149 -0.06611
v -0.05750 -0.01149 -0.04025
v -0.05750 0.05175 -0.07186
v -0.03451 0.02300 -0.04312
v -0.05750 -0.01149 -0.07474
v -0.03163 -0.01149 -0.07474
v -0.03163 0.05175 -0.06036
v -0.05175 -0.01149 -0.04025
v -0.06038 -0.00286 -0.03738
v -0.04887 0.03162 -0.03162
v -0.06038 0.01151 -0.06899
v -0.05175 0.05175 -0.07474
v -0.05750 0.02587 -0.03162
v -0.03451 0.02875 -0.04312
v -0.06038 0.00864 -0.03738
v -0.04600 0.05175 -0.03450
v -0.05750 0.01726 -0.07474
v -0.06038 0.00288 -0.07186
v -0.05175 0.02587 -0.03162
v 0.01149 0.05175 -0.06612
v -0.03163 -0.03162 -0.07474
v 0.01436 -0.03162 -0.07474
v -0.03163 -0.03162 -0.06612
v -0.03163 0.05175 -0.07474
v -0.03163 0.05175 -0.06037
v 0.02874 -0.03162 -0.06612
v 0.02874 0.02586 -0.07474
v 0.02874 0.04599 -0.06612
v -0.01150 0.04887 -0.06037
v 0.02874 0.04599 -0.07186
v 0.02874 -0.01437 -0.07474
v -0.03163 0.04024 -0.06037
v -0.01150 0.05175 -0.07474
v 0.02874 -0.03162 -0.07186
v 0.01149 0.05175 -0.07186
v -0.01150 0.05175 -0.06037
v 0.00286 0.00287 0.00863
v -0.06037 -0.00863 0.00288
v -0.05462 -0.04598 0.00000
v -0.05174 -0.05461 0.01437
v -0.05174 0.02875 0.01437
v -0.03450 0.02875 0.00000
v 0.00286 -0.02011 0.00000
v -0.02301 -0.05461 0.00863
v -0.01726 -0.01150 0.01437
v -0.05174 0.02875 0.00000
v -0.03162 -0.05461 0.00000
v -0.00289 0.01437 0.00000
v -0.05174 0.00287 0.01725
v -0.04025 0.02875 0.01437
v 0.00286 -0.01724 0.00863
v -0.06037 -0.00000 0.01150
v -0.04025 -0.05461 0.01437
v -0.05749 -0.04598 0.01150
v -0.02876 0.02875 0.00863
v -0.04025 -0.00863 0.01725
v -0.00002 -0.00000 0.01150
v -0.05462 -0.05461 0.00288
v -0.05462 0.02875 0.00288
v -0.00289 0.01437 0.00575
v -0.02301 -0.05461 0.00288
v 0.00286 -0.02298 0.00575
v -0.00002 -0.00863 0.01150
v -0.05749 -0.00000 0.00000
v -0.04312 0.00287 0.01725
v 0.00286 0.00287 0.00000
v -0.05749 -0.01150 0.01437
v -0.05749 -0.04598 0.00288
v -0.05462 0.02875 0.01150
v -0.06037 -0.00000 0.00288
v -0.05174 -0.00863 0.01725
v -0.02013 0.00287 0.01437
v -0.02589 -0.03160 0.01437
v -0.00002 -0.02298 0.00863
v -0.05174 -0.05461 0.00000
v -0.02876 0.02875 0.00288
v -0.05462 -0.04598 0.01437
v -0.05749 0.00287 0.01437
v -0.00863 -0.05174 -0.04024
v -0.00575 -0.05461 -0.05462
v -0.00575 -0.05174 -0.05462
v 0.02874 -0.05461 -0.04599
v 0.02874 -0.04886 -0.05174
v -0.02299 -0.04886 -0.05174
v -0.02299 -0.05461 -0.04024
v -0.01438 -0.04886 -0.04024
v 0.02874 -0.05461 -0.05462
v 0.02874 -0.04886 -0.04599
v -0.02299 -0.05461 -0.05174
v -0.02299 -0.04886 -0.04024
v -0.05175 0.03163 -0.03162
v -0.03738 0.06612 -0.00288
v -0.06037 0.06612 -0.00288
v -0.04026 0.06612 -0.03162
v -0.06037 0.06612 -0.03162
v -0.05462 0.03163 -0.01437
v -0.05750 0.03163 -0.03162
v -0.04888 0.04600 -0.00288
v -0.04888 0.03163 -0.01437
v -0.03738 0.06324 -0.01724
v -0.06037 0.06037 -0.00288
v -0.05750 0.03163 -0.02012
v -0.06037 0.05462 -0.03162
v -0.03738 0.06324 -0.00288
v -0.05462 0.04887 -0.00288
v -0.04888 0.03163 -0.02012
v -0.04026 0.06324 -0.03162
v -0.04313 0.05175 -0.00288
v -0.05175 0.04313 -0.00287
v -0.03163 0.06612 0.02875
v -0.05750 0.06612 0.02875
v -0.03738 0.02875 0.02875
v -0.03451 0.06612 -0.00287
v -0.03163 0.02875 0.00288
v -0.05462 0.02875 0.01151
v -0.06038 0.06612 -0.00287
v -0.05462 0.03450 0.02875
v -0.05175 0.02875 0.00001
v -0.06038 0.06324 0.01151
v -0.03738 0.02875 0.00001
v -0.03163 0.05174 0.00288
v -0.05175 0.02875 0.02875
v -0.03163 0.02875 0.00863
v -0.05462 0.02875 0.00288
v -0.04313 0.04601 -0.00287
v -0.06038 0.06324 -0.00287
v 0.06323 -0.05174 -0.02874
v 0.04886 -0.05174 -0.06036
v 0.04886 -0.04312 -0.06036
v 0.02874 -0.04886 -0.04599
v 0.05173 -0.03449 -0.02874
v 0.06035 -0.03449 -0.05174
v 0.04599 -0.03449 -0.05461
v 0.05173 -0.05461 -0.02874
v 0.06035 -0.05461 -0.05461
v 0.02874 -0.05461 -0.05461
v 0.06035 -0.03449 -0.02874
v 0.03449 -0.04024 -0.05174
v 0.06323 -0.05461 -0.04887
v 0.05461 -0.04312 -0.06036
v 0.02874 -0.05461 -0.04599
v 0.03162 -0.05174 -0.05749
v 0.03449 -0.04024 -0.04599
v 0.06323 -0.05461 -0.02874
v 0.02874 -0.04886 -0.05461
v 0.05748 -0.05461 -0.05749
v 0.04886 -0.01436 -0.06036
v 0.05748 0.04024 -0.02874
v 0.05748 0.05174 -0.03162
v 0.04024 0.01437 -0.04599
v 0.06036 -0.03449 -0.02874
v 0.06036 0.01437 -0.06036
v 0.04311 0.03449 -0.06036
v 0.05173 -0.03449 -0.02874
v 0.05748 -0.03449 -0.05461
v 0.04886 0.05174 -0.03450
v 0.04886 -0.03449 -0.05461
v 0.05748 0.05174 -0.04312
v 0.04024 -0.00286 -0.05174
v 0.06036 0.01724 -0.02874
v 0.06036 -0.01436 -0.06036
v 0.05461 0.03449 -0.06036
v 0.05173 0.02587 -0.02874
v 0.04599 0.04886 -0.04599
v 0.04311 0.00576 -0.06036
v 0.04024 -0.00286 -0.04599
v 0.04886 -0.03449 -0.04025
v 0.04311 0.04024 -0.04599
v 0.06036 -0.03449 -0.04887
v 0.04599 0.03737 -0.06036
v 0.04024 0.01724 -0.05174
v 0.05173 0.05174 -0.03162
v 0.05748 0.02874 -0.06036
v -0.03163 -0.05461 -0.05749
v 0.02874 -0.03162 -0.06612
v 0.02874 -0.03162 -0.07186
v 0.02874 -0.05461 -0.06324
v -0.03163 -0.05461 -0.07474
v -0.03163 -0.03162 -0.06324
v 0.02874 -0.05461 -0.07474
v -0.03163 -0.03162 -0.07474
v 0.00286 -0.05173 -0.05749
v 0.01436 -0.03162 -0.07474
v 0.00574 -0.03162 -0.06324
v -0.03163 -0.04886 -0.05749
v 0.02874 -0.04024 -0.06324
v 0.02874 -0.04024 -0.07474
v 0.00286 -0.05461 -0.05749
v -0.02875 -0.04312 -0.04025
v -0.03163 -0.05461 -0.05749
v -0.03163 -0.05174 -0.05749
v -0.02301 -0.05461 -0.05174
v -0.03163 -0.05461 -0.03737
v -0.03163 -0.04024 -0.04600
v -0.02301 -0.04599 -0.04886
v -0.02301 -0.05461 -0.04025
v -0.02588 -0.05174 -0.05749
v -0.02301 -0.04886 -0.04025
f 422 404 423 
f 393 392 394 
f 393 394 397 
f 397 395 399 
f 394 396 400 
f 397 394 400 
f 395 397 400 
f 400 396 401 
f 393 397 403 
f 397 399 403 
f 394 392 405 
f 398 394 405 
f 399 395 406 
f 392 393 407 
f 393 403 407 
f 401 396 408 
f 391 406 408 
f 394 398 409 
f 396 409 410 
f 409 398 410 
f 403 399 411 
f 407 403 411 
f 407 411 412 
f 404 407 412 
f 411 399 412 
f 402 391 413 
f 391 408 413 
f 410 402 413 
f 396 410 413 
f 392 407 414 
f 407 404 414 
f 396 394 415 
f 394 409 415 
f 409 396 415 
f 399 402 416 
f 412 399 416 
f 395 400 417 
f 401 395 417 
f 400 401 417 
f 395 401 418 
f 406 395 418 
f 401 408 418 
f 408 406 418 
f 391 402 419 
f 402 399 419 
f 406 391 419 
f 399 406 419 
f 405 392 420 
f 398 405 420 
f 414 404 420 
f 392 414 420 
f 408 396 421 
f 396 413 421 
f 413 408 421 
f 402 410 422 
f 410 398 422 
f 416 402 422 
f 398 420 422 
f 420 404 422 
f 404 412 423 
f 412 416 423 
f 416 422 423 
