# Created by Open3D 
# object name: convex_0_coll
# number of vertices: 14
# number of triangles: 24
v 0.05284 -0.06256 -0.03892
v 0.05284 -0.02919 -0.01112
v 0.05284 0.04864 -0.034755
v 0.068135 -0.055615 0.01391
v 0.08064 0.04864 0.01391
v 0.06675 0.05421 0.01391
v 0.073345 0.06499 -0.007305
v 0.07786 -0.054215 0.01112
v 0.08899 -0.00973 -0.01391
v 0.08621 -0.03754 -0.03615
v 0.0723 0.04864 -0.05283
v 0.06675 -0.03754 -0.05562
v 0.072995 -0.0674275 -0.0326675
v 0.08342 0.05421 -0.04727
f 3 1 2
f 4 5 6
f 5 4 8
f 5 8 9
f 8 10 9
f 11 3 7
f 3 6 7
f 2 1 4
f 8 13 10
f 8 4 1
f 12 13 1
f 6 2 4
f 2 6 3
f 14 12 11
f 12 10 13
f 12 3 11
f 5 9 14
f 8 1 13
f 14 10 12
f 3 12 1
f 14 9 10
f 5 14 7
f 6 5 7
f 7 14 11
