# Created by Open3D 
# object name: convex_8_coll
# number of vertices: 14
# number of triangles: 24
v 0.06674 0.04865 0.04449
v 0.06953 0.05978 0.03616
v 0.07787 0.03197 0.01391
v 0.06674 0.05421 0.01391
v 0.07787 0.05699 0.01391
v 0.06674 -0.00139 0.03616
v 0.08899 -0.00139 0.04727
v 0.07787 -0.00139 0.06396
v 0.0876 -0.00139 0.036155
v 0.068135 0.03475 0.01391
v 0.076475 -0.00139 0.03059
v 0.0785625 0.0500375 0.0451875
v 0.07509 0.02085 0.06396
v 0.08899 0.0153 0.04171
f 3 4 5
f 6 7 8
f 4 6 1
f 7 6 9
f 4 3 10
f 9 6 11
f 10 3 11
f 14 7 9
f 6 4 10
f 1 8 13
f 3 9 11
f 9 5 14
f 14 5 12
f 12 1 13
f 14 12 7
f 12 13 7
f 2 12 5
f 4 2 5
f 7 13 8
f 9 3 5
f 2 4 1
f 8 1 6
f 10 11 6
f 1 12 2
