# Created by Open3D 
# object name: convex_10_coll
# number of vertices: 14
# number of triangles: 24
v -0.07786 -0.05979 -0.04727
v -0.06118 -0.06814 -0
v -0.05006 0.04309 -0.01391
v -0.05006 -0.06258 -0.04449
v -0.05006 0.05142 -0.03337
v -0.06675 0.057 -0
v -0.0862 -0.01808 -0
v -0.05006 -0.06814 -0.00835
v -0.08064 0.0542 -0
v -0.068135 0.051425 -0.04727
v -0.08481 0.03892 -0.04727
v -0.059795 0.06812 -0.029195
v -0.08899 0.02918 -0.020855
v -0.081335 0.0569925 -0.038235
f 3 4 5
f 2 6 7
f 4 3 8
f 7 6 9
f 10 1 11
f 6 3 12
f 1 10 4
f 3 6 2
f 8 3 2
f 7 13 11
f 5 4 10
f 8 2 4
f 6 12 9
f 13 7 9
f 4 2 1
f 9 12 14
f 12 3 5
f 1 7 11
f 14 10 11
f 2 7 1
f 5 10 12
f 13 14 11
f 12 10 14
f 9 14 13
