# Created by Open3D 
# object name: convex_22_coll
# number of vertices: 14
# number of triangles: 24
v -0.05006 -0.02921 0.01112
v -0.06118 -0.03199 0.01391
v -0.06118 -0.03199 0.00834
v -0.06952 -0.03199 0.011125
v -0.06952 0.00138 0.01669
v -0.06952 -0.00697 0.00556
v -0.05006 0.00694 0.01112
v -0.05006 -0.02364 0.01669
v -0.05006 0.00694 0.01669
v -0.05006 -0.02643 0.00834
v -0.06952 0.00416 0.01112
v -0.06952 -0.02643 0.01669
v -0.05006 0.00138 0.00834
v -0.06674 -0.02921 0.00556
f 1 2 3
f 4 5 6
f 1 7 8
f 5 8 9
f 8 7 9
f 7 1 10
f 6 5 11
f 5 9 11
f 9 7 11
f 5 4 12
f 8 5 12
f 7 10 13
f 13 10 14
f 4 6 14
f 6 13 14
f 1 8 2
f 12 4 2
f 8 12 2
f 7 13 11
f 13 6 11
f 10 1 3
f 14 10 3
f 4 14 3
f 2 4 3
