# Created by Open3D 
# object name: convex_16_coll
# number of vertices: 14
# number of triangles: 24
v -0.03059 -0.05979 -0.05284
v -0.048665 -0.0584 -0.05284
v -0.05006 -0.05423 -0.06118
v -0.05006 -0.03755 -0.05284
v -0.05006 -0.0153 -0.0584
v -0.04727 -0.05979 -0.0584
v -0.04449 -0.0153 -0.06118
v -0.01669 -0.05145 -0.06118
v -0.01669 -0.04311 -0.05562
v -0.01669 -0.04867 -0.05284
v -0.04449 -0.0153 -0.05562
v -0.01669 -0.04311 -0.06118
v -0.0292 -0.0584 -0.05979
v -0.01669 -0.05423 -0.05562
f 3 4 5
f 7 8 3
f 8 9 10
f 4 1 10
f 3 6 2
f 4 3 2
f 1 4 2
f 9 7 11
f 7 5 11
f 5 4 11
f 10 9 11
f 4 10 11
f 7 9 12
f 9 8 12
f 8 7 12
f 7 3 5
f 6 3 13
f 3 8 13
f 8 10 14
f 10 1 14
f 1 6 13
f 8 14 13
f 14 1 13
f 6 1 2
