# Created by Open3D 
# object name: convex_2_coll
# number of vertices: 14
# number of triangles: 24
v -0.08482 0.029185 -0.0476188
v -0.05562 -0.0431 -0.04727
v -0.06952 0.05144 -0.04727
v -0.07787 -0.05701 -0.04727
v -0.05006 -0.05423 -0.05979
v -0.05006 0.04031 -0.06118
v -0.05006 0.04031 -0.05562
v -0.05006 -0.05423 -0.05006
v -0.08343 0.012505 -0.05562
v -0.076475 0.03335 -0.06118
v -0.05006 0.00139 -0.06396
v -0.0736975 -0.0271075 -0.06118
v -0.0743875 -0.058405 -0.052145
v -0.078565 0.04796 -0.05284
f 2 3 4
f 5 6 7
f 6 3 7
f 4 3 1
f 5 7 8
f 2 4 8
f 6 5 11
f 9 10 12
f 10 11 12
f 8 4 13
f 8 13 5
f 2 7 3
f 1 9 4
f 4 9 12
f 1 3 14
f 11 5 12
f 5 13 12
f 10 9 14
f 6 11 10
f 10 14 6
f 4 12 13
f 6 14 3
f 7 2 8
f 14 9 1
