# Created by Open3D 
# object name: convex_4_coll
# number of vertices: 14
# number of triangles: 24
v -0.07787 0.05422 0.04171
v -0.07787 0.03754 0.04171
v -0.07508 0.05144 0.04449
v -0.0584 0.057 0.03893
v -0.0723 0.057 0.04449
v -0.07787 0.05422 0.03615
v -0.0584 0.04588 0.04449
v -0.0723 0.04032 0.04449
v -0.0584 0.0431 0.03893
v -0.06674 0.03754 0.04032
v -0.0723 0.04032 0.03615
v -0.07787 0.04032 0.03615
v -0.06952 0.05422 0.03615
v -0.06118 0.057 0.04449
f 1 2 3
f 4 6 5
f 5 8 7
f 4 7 9
f 10 11 9
f 5 6 1
f 6 2 1
f 10 2 12
f 2 6 12
f 6 11 12
f 11 10 12
f 6 4 13
f 11 6 13
f 4 9 13
f 9 11 13
f 4 5 14
f 7 4 14
f 5 7 14
f 7 8 10
f 8 2 10
f 9 7 10
f 8 5 3
f 2 8 3
f 5 1 3
