# Created by Open3D 
# object name: convex_11_coll
# number of vertices: 14
# number of triangles: 24
v -0.0139 0.02085 -0.0584
v -0.01669 -0.04032 -0.05562
v 0.00278 0.00138 -0.06396
v -0.01112 -0.04311 -0.06396
v -0.0139 0.02085 -0.06396
v 0.00278 -0.04589 -0.06396
v -0.00834 0.02085 -0.0584
v 0.00278 0.00138 -0.0584
v 0.01112 -0.03755 -0.05562
v -0.01669 -0.05424 -0.05562
v -0.01669 -0.05145 -0.06118
v 0.00973 -0.0445 -0.0584
v 0.00973 -0.030595 -0.06257
v -0.00834 0.02085 -0.06396
f 3 4 5
f 4 3 6
f 7 5 1
f 3 7 8
f 7 9 8
f 10 9 2
f 1 5 2
f 5 4 11
f 4 6 11
f 10 2 11
f 2 5 11
f 12 6 13
f 6 3 13
f 10 11 6
f 7 3 14
f 3 5 14
f 5 7 14
f 9 10 12
f 10 6 12
f 9 12 13
f 3 8 13
f 8 9 13
f 9 7 2
f 7 1 2
