# Created by Open3D 
# object name: convex_9_coll
# number of vertices: 13
# number of triangles: 22
v -0.01391 0.04031 -0.06118
v -0.01391 0.04866 -0.06118
v -0.01113 0.04587 -0.06118
v -0.01113 0.04031 -0.05562
v -0.01113 0.04866 -0.05562
v -0.05006 0.02363 -0.05562
v -0.05006 0.02363 -0.06118
v -0.05006 0.04031 -0.05562
v -0.05006 0.04031 -0.06118
v -0.02503 0.04866 -0.05562
v -0.04449 0.02363 -0.06118
v -0.04449 0.02363 -0.05562
v -0.02503 0.04866 -0.06118
f 1 2 3
f 4 5 6
f 7 6 8
f 6 5 8
f 7 8 9
f 2 7 9
f 7 2 1
f 8 5 10
f 5 2 10
f 9 8 10
f 6 7 11
f 7 1 11
f 1 4 11
f 4 6 12
f 11 4 12
f 6 11 12
f 2 9 13
f 10 2 13
f 9 10 13
f 5 4 3
f 2 5 3
f 4 1 3
