# Created by Open3D 
# object name: convex_13_coll
# number of vertices: 14
# number of triangles: 24
v 0.000695 0.0472638 -0.00278
v 0.05284 0.01807 -0.02225
v -0.020855 0.01807 -0.00835
v 0.05284 0.01807 -0.03614
v 0.05284 0.04865 -0.03475
v -0.05006 0.01807 -0.03336
v 0.05284 0.04865 -0.01947
v -0.05006 0.01807 -0.01391
v -0.05006 0.05421 -0.03336
v -0.02781 0.05143 -0.00278
v -0.0479675 0.04865 -0.011825
v 0.00834 0.06812 -0.01947
v -0.017725 0.06951 -0.0281475
v -0.01112 0.04865 -0.04449
f 3 4 2
f 4 5 2
f 4 3 6
f 2 5 7
f 6 3 8
f 9 6 8
f 7 1 2
f 1 3 2
f 9 8 11
f 7 12 1
f 12 10 1
f 9 13 14
f 5 4 14
f 4 6 14
f 10 11 8
f 3 10 8
f 12 5 13
f 6 9 14
f 5 14 13
f 10 12 13
f 10 13 11
f 9 11 13
f 12 7 5
f 3 1 10
