# Created by Open3D 
# object name: convex_18_coll
# number of vertices: 14
# number of triangles: 24
v -0.06953 0.00137 0.01807
v -0.08482 0.018055 0
v -0.06953 -0.06535 0
v -0.08343 -0.030595 0
v -0.08899 0.00415 0.02225
v -0.0876 -0.01114 0.02225
v -0.06953 0.00415 0.00834
v -0.06953 -0.02642 0.01668
v -0.06953 -0.01253 0
v -0.08065 0.02363 0.00834
v -0.07509 -0.01531 0.02225
v -0.07787 0.02223 0.00139
v -0.071615 -0.063955 0.00417
v -0.08899 0.00415 0.00556
f 2 3 4
f 3 7 8
f 3 2 9
f 7 3 9
f 5 6 11
f 9 2 12
f 7 9 12
f 8 7 1
f 7 10 1
f 6 13 11
f 14 6 5
f 14 4 6
f 4 14 2
f 14 5 2
f 5 10 2
f 3 8 13
f 8 11 13
f 10 5 1
f 5 11 1
f 4 3 13
f 13 6 4
f 10 7 12
f 2 10 12
f 11 8 1
