# Created by Open3D 
# object name: convex_19_coll
# number of vertices: 14
# number of triangles: 24
v -0.02502 0.01529 0.00835
v -0.00835 0.03197 0.00835
v 0.00278 0.03475 0.0139
v -0.02224 0.03197 0.01669
v -0.02224 0.01529 0.01669
v 0.00278 0.02363 0.01113
v -0.037535 0.01529 0.00974
v -0.03614 0.03475 0.012515
v -0.03337 0.03197 0.00835
v -0.03614 0.01529 0.01669
v -0.04171 0.02919 0.012515
v 0.00278 0.03475 0.01113
v 0.00278 0.02363 0.0139
v -0.03614 0.02919 0.01669
f 3 4 5
f 6 5 1
f 5 7 1
f 4 3 8
f 1 9 2
f 7 5 10
f 5 4 10
f 7 10 11
f 3 6 12
f 8 3 12
f 2 9 12
f 6 2 12
f 6 3 13
f 3 5 13
f 5 6 13
f 4 8 14
f 10 4 14
f 8 11 14
f 11 10 14
f 9 1 7
f 9 7 11
f 12 9 8
f 9 11 8
f 6 1 2
