# Created by Open3D 
# object name: convex_3_coll
# number of vertices: 14
# number of triangles: 24
v -0.08621 0.01251 0.04171
v -0.08482 0.016675 0.03615
v -0.07787 0.01807 0.04171
v -0.08621 -0.00974 0.04171
v -0.0723 -0.00695 0.04171
v -0.08621 -0.0153 0.02225
v -0.08899 0.00416 0.02225
v -0.07509 0.00138 0.02225
v -0.07509 -0.01252 0.02225
v -0.08899 -0.00695 0.03893
v -0.0723 0.00138 0.03615
v -0.08065 0.00694 0.02225
v -0.081345 -0.0257325 0.03754
v -0.07509 -0.02364 0.03615
f 3 4 5
f 7 8 6
f 4 3 1
f 6 8 9
f 7 6 10
f 4 1 10
f 1 3 2
f 8 3 11
f 3 5 11
f 9 8 11
f 3 8 12
f 8 7 12
f 2 3 12
f 7 2 12
f 7 10 1
f 10 6 13
f 4 10 13
f 14 9 5
f 9 11 5
f 4 13 5
f 13 14 5
f 9 14 13
f 6 9 13
f 7 1 2
