# Created by Open3D 
# object name: convex_14_coll
# number of vertices: 14
# number of triangles: 24
v -0.07786 0.04032 0.01391
v -0.079255 0.03893 0.00973
v -0.079255 0.03893 0
v -0.07786 0.057 0
v -0.069525 0.04032 0
v -0.06675 0.057 0
v -0.07786 0.05561 0.012515
v -0.06953 0.057 0.01391
v -0.06396 0.05144 0.01112
v -0.08065 0.05144 0.00834
v -0.06396 0.04588 0.01112
v -0.06953 0.0431 0.01391
v -0.0723 0.03754 0.01112
v -0.06396 0.04588 0.00278
f 3 4 5
f 5 4 6
f 7 1 8
f 6 4 8
f 9 6 8
f 1 7 10
f 9 8 11
f 11 8 12
f 1 13 12
f 8 1 12
f 13 11 12
f 5 6 14
f 6 9 14
f 9 11 14
f 11 13 14
f 8 4 7
f 4 10 7
f 13 3 5
f 14 13 5
f 10 3 2
f 1 10 2
f 3 10 4
f 3 13 2
f 13 1 2
