# Created by Open3D 
# object name: convex_1_coll
# number of vertices: 14
# number of triangles: 24
v 0.08899 -0.00419 0.04449
v 0.075785 -0.0556275 0.01808
v 0.0737 -0.0028 0.05979
v 0.08064 -0.0028 0.06118
v 0.0862075 -0.00141 0.03546
v 0.06953 -0.00141 0.03338
v 0.06674 -0.02365 0.01391
v 0.06953 -0.05702 0.01391
v 0.08064 -0.04033 0.01391
v 0.08064 -0.01809 0.01391
v 0.06674 -0.03755 0.0306
v 0.08064 -0.03476 0.04449
v 0.07231 -0.03755 0.04449
v 0.07231 -0.01531 0.01391
f 3 4 5
f 3 5 6
f 7 9 8
f 5 9 10
f 9 7 10
f 7 8 11
f 12 13 2
f 11 13 3
f 6 11 3
f 13 11 8
f 2 13 8
f 13 12 4
f 7 6 14
f 10 7 14
f 8 9 2
f 6 7 11
f 13 4 3
f 5 14 6
f 5 4 1
f 1 4 12
f 14 5 10
f 2 1 12
f 2 9 1
f 9 5 1
