# Created by Open3D 
# object name: convex_21_coll
# number of vertices: 11
# number of triangles: 18
v -0.06952 -0.06258 0.00834
v -0.06396 -0.05702 0.00834
v -0.06952 -0.04868 0.00556
v -0.0584 -0.06536 0
v -0.06952 -0.06536 0
v -0.06952 -0.04589 0
v -0.06674 -0.04868 0.00556
v -0.06674 -0.04589 0
v -0.0584 -0.0598 0.00278
v -0.06118 -0.06536 0.00556
v -0.06396 -0.06258 0.00834
f 1 2 3
f 4 5 6
f 5 1 6
f 6 7 8
f 4 6 8
f 9 4 8
f 7 9 8
f 5 4 10
f 1 5 10
f 4 9 10
f 11 1 10
f 9 11 10
f 9 7 2
f 1 11 2
f 11 9 2
f 7 6 3
f 6 1 3
f 2 7 3
