# Created by Open3D 
# object name: convex_6_coll
# number of vertices: 14
# number of triangles: 24
v -0.0584 0.048655 0.04449
v -0.0278 0.06812 0.040325
v -0.0584 0.05422 0.03893
v -0.03614 0.02085 0.03615
v 0.050055 0.02085 0.03476
v 0.026415 0.02085 0.05284
v -0.00555 0.02085 0.03337
v -0.033365 0.02085 0.04588
v 0.03058 0.0709 0.03337
v 0.05284 0.026415 0.04727
v 0.03337 0.0709 0.04449
v 0.00694 0.06951 0.04588
v 0.03614 0.05422 0.05006
v -0.052835 0.034755 0.0396275
f 1 2 3
f 4 5 6
f 5 4 7
f 4 6 8
f 7 9 5
f 13 11 12
f 11 9 2
f 13 10 11
f 6 5 10
f 11 2 12
f 9 10 5
f 12 1 13
f 1 6 13
f 7 4 3
f 4 14 3
f 4 8 14
f 8 1 14
f 8 6 1
f 9 7 3
f 2 9 3
f 2 1 12
f 11 10 9
f 1 3 14
f 6 10 13
