# Created by Open3D 
# object name: convex_20_coll
# number of vertices: 14
# number of triangles: 24
v 0.00834 0.05144 0.00278
v 0.00277 0.03475 0.00834
v -0.0014 0.0431 0.00278
v 0.00834 0.05144 0.01112
v -0.0278 0.05144 0.01391
v 0.00277 0.03475 0.01391
v -0.03058 0.03475 0.01391
v -0.0445 0.04866 0.01391
v -0.03058 0.03475 0.01112
v 0.00277 0.05144 0.01391
v -0.00557 0.05144 0.00278
v -0.04171 0.04727 0.00834
v -0.03058 0.05144 0.00834
v 0.00834 0.04588 0.01112
f 1 2 3
f 4 1 5
f 6 5 7
f 6 7 2
f 7 8 9
f 3 2 9
f 2 7 9
f 6 4 10
f 4 5 10
f 5 6 10
f 1 3 11
f 5 1 11
f 3 12 11
f 7 5 8
f 9 8 12
f 3 9 12
f 5 11 13
f 11 12 13
f 8 5 13
f 12 8 13
f 1 4 14
f 4 6 14
f 2 1 14
f 6 2 14
