# Created by Open3D 
# object name: convex_12_coll
# number of vertices: 14
# number of triangles: 24
v -0.05006 -0.06257 -0.04449
v -0.05006 -0.06535 -0.00835
v -0.05006 0.01807 -0.03337
v 0.05284 0.01807 -0.02225
v 0.05284 0.01807 -0.03615
v -0.01667 0.01807 -0.03893
v -0.008345 0.01111 -0.002785
v -0.020145 -0.01322 -0
v 0.00556 -0.03476 -0
v -0.00695 -0.069515 -0.01252
v -0.00139 -0.066735 -0.0431
v 0.05005 -0.06813 -0.033365
v 0.051445 -0.02434 -0.00974
v 0.01945 -0.045885 -0.04727
f 2 3 1
f 3 4 5
f 3 5 6
f 7 8 9
f 4 3 7
f 3 6 1
f 11 12 10
f 9 10 13
f 5 4 13
f 1 6 14
f 5 14 6
f 14 11 1
f 5 12 14
f 13 10 12
f 1 10 2
f 5 13 12
f 4 7 13
f 7 9 13
f 3 2 7
f 2 8 7
f 14 12 11
f 2 9 8
f 10 9 2
f 1 11 10
