# Created by Open3D 
# object name: convex_7_coll
# number of vertices: 14
# number of triangles: 24
v 0.05284 0.02641 0.03615
v 0.05284 0.02641 0.04728
v 0.05284 0.02918 0.03894
v 0.05562 0.02918 0.04449
v 0.06674 0.02363 0.04449
v 0.05284 0.00138 0.04728
v 0.06674 0.00138 0.04728
v 0.06674 0.02363 0.03337
v 0.0584 0.00973 0.03337
v 0.06674 -0.0014 0.03894
v 0.05284 0.00138 0.03615
v 0.06674 0.00417 0.03337
v 0.05284 -0.0014 0.04449
v 0.06674 0.01807 0.04728
f 1 2 3
f 4 2 5
f 2 6 7
f 4 5 8
f 5 7 8
f 8 9 1
f 8 7 10
f 1 9 11
f 6 1 11
f 10 11 12
f 9 8 12
f 8 10 12
f 11 9 12
f 1 6 2
f 7 6 13
f 10 7 13
f 6 11 13
f 11 10 13
f 5 2 14
f 2 7 14
f 7 5 14
f 4 8 3
f 8 1 3
f 2 4 3
