# Created by Open3D 
# object name: convex_5_coll
# number of vertices: 14
# number of triangles: 24
v -0.05562 -0.00695 0.03894
v -2e-05 0.00694 0.02225
v 0.043795 0.0006875 0.02225
v -0.00555 -0.01808 0.02225
v -0.03615 0.02085 0.04449
v 0.05284 0.02085 0.04727
v 0.05005 0.02085 0.03338
v -0.03615 0.02085 0.03616
v 0.05284 -1.5e-05 0.04588
v 0.0312775 0.018065 0.054225
v 0.01528 -0.00141 0.05562
v -0.009735 0.007635 0.052835
v 0.00555 -0.02921 0.04171
v -0.03198 -0.02642 0.041715
f 2 3 4
f 5 6 7
f 5 7 8
f 9 6 10
f 2 8 7
f 3 2 7
f 11 10 12
f 6 5 10
f 8 1 5
f 13 4 3
f 6 9 7
f 9 3 7
f 4 1 2
f 10 5 12
f 11 12 14
f 12 1 14
f 12 5 1
f 2 1 8
f 13 9 11
f 14 13 11
f 10 11 9
f 4 14 1
f 13 3 9
f 4 13 14
