# Created by Open3D 
# object name: convex_17_coll
# number of vertices: 14
# number of triangles: 24
v -0.01947 0.00416 -0.0584
v -0.05005 0.02363 -0.05562
v -0.05005 -0.0153 -0.05562
v -0.05005 -0.0153 -0.06118
v -0.05005 0.0125 -0.06396
v -0.01947 0.0125 -0.06396
v -0.03059 -0.01252 -0.06396
v -0.02225 0.02084 -0.06396
v -0.05005 0.02363 -0.06118
v -0.05005 -0.00695 -0.06396
v -0.02225 -0.00418 -0.0584
v -0.03059 -0.01252 -0.0584
v -0.02225 0.02084 -0.0584
v -0.02225 -0.00418 -0.06396
f 1 2 3
f 4 3 2
f 4 2 5
f 5 6 7
f 6 5 8
f 5 2 9
f 8 5 9
f 4 5 10
f 7 4 10
f 5 7 10
f 7 11 12
f 6 13 1
f 13 2 1
f 7 6 14
f 11 7 14
f 6 1 14
f 1 11 14
f 13 6 8
f 2 13 8
f 9 2 8
f 4 7 3
f 12 11 3
f 7 12 3
f 11 1 3
