# Created by Open3D 
# object name: convex_15_coll
# number of vertices: 14
# number of triangles: 24
v 0.00139 -0.02364 0.02225
v 0.04171 0.00694 0.02225
v -0.03232 0.0076375 0.0198125
v -0.043105 0.008335 0.00835
v -0.05006 -0.0292 0.0139
v -0.05006 0.000685 0.01807
v 0 0.0131975 0.012515
v -0.003475 0.0034575 0.00278
v 0.00833 -0.0153 0.00278
v -0.033365 -0.030595 0.00557
v 0.04032 -0.01252 0.020855
v 0.04032 0.005545 0.0139
v 0.00694 -0.0326825 0.00835
v 0.03754 -0.01808 0.012515
f 2 3 1
f 4 5 6
f 7 3 2
f 4 10 5
f 2 1 11
f 9 13 10
f 6 5 1
f 3 6 1
f 7 4 3
f 13 1 5
f 10 13 5
f 8 12 9
f 12 14 9
f 11 13 14
f 12 8 7
f 8 4 7
f 11 14 12
f 2 11 12
f 11 1 13
f 14 13 9
f 4 6 3
f 10 8 9
f 7 2 12
f 4 8 10
