# Original object name hint: convex_9
v 0.07641 0.02897 -0.06587
v 0.06851 -0.04479 -0.01316
v 0.07378 -0.04479 -0.01316
v 0.06588 0.01580 0.07641
v 0.05533 0.01843 -0.07641
v 0.08168 0.00262 0.06850
v 0.07641 0.04479 0.01316
v 0.05533 -0.02371 -0.07113
v 0.08168 -0.02634 -0.04216
v 0.08432 0.02897 0.00263
v 0.07378 -0.02371 -0.07113
v 0.06324 -0.03952 0.00263
v 0.07905 -0.03424 0.03161
v 0.07114 -0.01317 0.07113
v 0.06851 0.04215 -0.01578
v 0.07905 0.02107 0.07113
v 0.08432 -0.00790 0.02370
v 0.05533 0.02370 -0.06587
v 0.08168 0.01580 -0.05269
v 0.06851 0.04215 0.00790
v 0.07641 0.00525 -0.07377
v 0.07641 -0.04215 -0.03161
v 0.08168 -0.03424 0.01843
v 0.06588 0.00525 0.07641
v 0.07114 -0.04215 0.01578
v 0.08432 0.02634 0.02633
v 0.06588 0.02897 -0.07113
v 0.07641 0.04479 -0.01052
v 0.06061 -0.03688 -0.01052
v 0.08432 0.00790 -0.01578
v 0.06061 -0.02898 -0.06850
v 0.07641 -0.01317 0.07113
v 0.08168 0.02897 -0.03952
v 0.05533 -0.02371 -0.06587
v 0.07641 0.02107 -0.07377
v 0.06851 0.00262 -0.07641
v 0.07905 0.04215 0.02108
v 0.07641 0.00262 0.07641
v 0.08168 -0.02371 0.04214
v 0.07641 -0.04479 0.00263
v 0.08168 -0.03424 -0.01843
v 0.07641 -0.02634 -0.06587
v 0.05797 0.02634 -0.07377
v 0.07378 0.04215 0.02108
v 0.07905 -0.01053 -0.06323
v 0.08168 0.01843 0.06587
v 0.06061 -0.03688 -0.02896
v 0.07114 -0.02898 -0.06850
v 0.07905 0.04215 -0.00790
v 0.06851 -0.04215 -0.03161
v 0.07114 0.04479 -0.01052
v 0.07905 -0.03952 -0.03161
v 0.07378 0.02897 -0.07113
v 0.08432 0.00525 0.03423
v 0.08432 -0.00525 0.00000
v 0.06851 -0.04479 0.00525
v 0.06588 0.02107 -0.07641
v 0.07114 0.04479 0.01052
v 0.08168 0.03687 0.02108
v 0.07641 0.01580 0.07641
v 0.07378 0.02107 0.07113
v 0.07905 0.03424 -0.04216
v 0.06324 -0.01580 -0.07377
v 0.05533 0.00790 -0.07641
v -0.08166 -0.01580 -0.06587
v -0.07113 0.03425 -0.05533
v -0.06586 0.03161 -0.05533
v 0.05531 0.01844 -0.07641
v 0.00527 -0.03162 -0.06060
v -0.07113 0.02635 -0.07641
v -0.01054 -0.02634 -0.07641
v -0.07640 -0.03162 -0.05533
v 0.05531 0.02107 -0.06587
v 0.05531 -0.02371 -0.07114
v -0.06322 -0.03162 -0.07114
v -0.00265 0.03161 -0.07378
v -0.08166 0.02107 -0.05533
v 0.01843 -0.03162 -0.07378
v 0.05531 -0.02371 -0.06587
v -0.07376 -0.01844 -0.07378
v -0.07640 0.03161 -0.06850
v -0.06059 -0.03162 -0.05533
v 0.01316 -0.02634 -0.07641
v 0.05531 0.02371 -0.06850
v -0.06849 0.00526 -0.07641
v -0.07640 0.02107 -0.07378
v -0.08166 -0.02108 -0.05533
v -0.07640 -0.02898 -0.06587
v -0.06322 0.02898 -0.05533
v -0.00265 0.03161 -0.06850
v 0.05531 0.01054 -0.07641
v 0.02633 -0.03162 -0.06850
v 0.05531 0.02371 -0.07378
v -0.00001 0.02635 -0.07641
v -0.07376 0.03161 -0.07114
v -0.07903 0.02371 -0.06850
v -0.07376 0.03425 -0.05797
v -0.07640 -0.00527 -0.07378
v -0.07640 -0.02371 -0.07114
v -0.03161 0.03161 -0.07378
v -0.07113 -0.02108 -0.07378
v -0.01843 -0.03162 -0.07378
v -0.02634 -0.02108 -0.07641
v -0.08166 0.01054 -0.06324
v -0.07903 0.02898 -0.05533
v -0.08166 -0.02108 -0.06324
v -0.07113 -0.03162 -0.06850
v 0.00527 -0.02898 -0.06060
v 0.02370 -0.03162 -0.06587
v -0.06059 -0.01580 -0.05533
v -0.07903 0.02898 -0.06324
v -0.08166 -0.00262 -0.06587
v -0.07113 0.01054 -0.07641
v 0.02633 -0.03162 -0.07114
v -0.07378 -0.03424 -0.04742
v -0.06851 0.03687 -0.00264
v -0.07641 0.03687 -0.00264
v -0.07641 0.03424 -0.05533
v -0.05534 -0.02898 -0.03425
v -0.08168 -0.02634 -0.00264
v -0.06588 0.03161 -0.05533
v -0.05534 -0.02107 -0.01318
v -0.08168 0.02107 -0.05533
v -0.06061 -0.02634 -0.05533
v -0.08168 -0.02371 -0.05533
v -0.06851 -0.03160 -0.00264
v -0.06324 0.03687 -0.03425
v -0.08168 0.02371 -0.00264
v -0.05534 -0.02107 -0.04215
v -0.07378 0.04216 -0.03425
v -0.07378 -0.03689 -0.02108
v -0.06588 0.03424 -0.00264
v -0.06588 -0.03424 -0.05269
v -0.06324 0.03424 -0.01318
v -0.07904 0.03161 -0.05006
v -0.06851 -0.03689 -0.02108
v -0.07904 -0.03160 -0.04215
v -0.06851 0.04216 -0.03425
v -0.06588 -0.02898 -0.00264
v -0.05534 -0.02634 -0.01581
v -0.07904 -0.03160 -0.00528
v -0.05797 -0.03160 -0.04479
v -0.07641 -0.03160 -0.05533
v -0.06324 0.03424 -0.04215
v -0.06851 0.04216 -0.02636
v -0.07378 -0.03689 -0.03161
v -0.06851 0.03424 -0.05533
v -0.06588 0.03951 -0.01845
v -0.06324 -0.03424 -0.02372
v -0.08168 0.02371 -0.05269
v -0.07904 0.03161 -0.00264
v -0.08168 -0.02634 -0.04742
v -0.05534 -0.02898 -0.04215
v -0.06324 -0.03160 -0.05533
v -0.06588 0.03951 -0.03952
v -0.06851 -0.03689 -0.03161
v -0.06324 0.03687 -0.02372
v -0.07378 0.04216 -0.02636
v -0.07641 -0.03160 -0.00264
v -0.06061 -0.02371 -0.05533
v -0.06851 -0.03424 -0.01055
v -0.06324 0.03161 -0.01055
v -0.06324 0.03161 -0.04479
v -0.08168 -0.02898 0.03425
v -0.06587 0.02898 0.03952
v -0.06851 0.03689 0.00791
v -0.05797 -0.02898 0.01055
v -0.08168 0.02635 -0.00263
v -0.07905 -0.03162 -0.00263
v -0.08432 0.01844 0.03688
v -0.06587 -0.02635 0.03952
v -0.06587 0.03425 -0.00263
v -0.05797 0.02371 0.03688
v -0.05797 0.02371 0.01055
v -0.06587 -0.02635 -0.00263
v -0.08432 -0.01844 0.02635
v -0.07641 0.03689 0.00791
v -0.08432 -0.00263 0.03952
v -0.06587 -0.03162 0.03425
v -0.07641 0.02898 0.03952
v -0.08168 -0.02635 -0.00263
v -0.06324 -0.02635 0.03688
v -0.05797 -0.01581 0.00791
v -0.08168 -0.02635 0.03952
v -0.05797 -0.02635 0.01844
v -0.06851 -0.03162 -0.00263
v -0.08168 0.02635 0.03688
v -0.07641 0.03689 -0.00263
v -0.08432 0.01317 0.02371
v -0.07905 -0.03162 0.03425
v -0.07378 0.03162 0.03688
v -0.08168 0.02898 0.00791
v -0.08432 -0.02108 0.03688
v -0.05797 0.01844 0.03688
v -0.06324 -0.03162 0.00791
v -0.06324 0.01580 0.03952
v -0.08168 -0.02898 0.00527
v -0.07905 -0.02898 0.03952
v -0.08168 0.02108 0.03952
v -0.05797 -0.02635 0.00791
v -0.06851 0.03689 -0.00263
v -0.08432 0.01844 0.02635
v -0.07905 0.02898 0.03688
v -0.07114 -0.03162 0.03688
v -0.06060 0.02635 0.03688
v -0.08432 -0.01317 0.02371
v -0.07114 0.03162 0.03688
v -0.00526 -0.03689 -0.01844
v 0.00790 0.00000 -0.01581
v 0.00790 0.00000 -0.01844
v 0.03162 -0.02898 -0.00791
v -0.01317 -0.02371 -0.00527
v -0.02107 0.00000 -0.01844
v 0.00790 -0.03162 -0.02371
v -0.02634 -0.02898 -0.01844
v -0.01843 0.00000 -0.01054
v -0.00263 -0.02898 -0.00263
v 0.00264 0.00000 -0.01054
v -0.02634 -0.02635 -0.01054
v -0.01580 0.00000 -0.02108
v 0.02634 -0.02635 -0.01581
v -0.01317 -0.03425 -0.00791
v 0.00527 -0.02371 -0.00263
v 0.00527 0.00000 -0.02108
v -0.00526 -0.03162 -0.02371
v 0.00790 -0.03425 -0.00791
v 0.03162 -0.02635 -0.00791
v 0.02371 -0.03162 -0.01581
v 0.00790 -0.02371 -0.02371
v 0.00264 -0.03689 -0.01317
v -0.02634 -0.02107 -0.01054
v 0.00527 -0.03425 -0.02371
v -0.02634 -0.01845 -0.01844
v -0.00263 -0.02371 -0.00263
v -0.01843 -0.02635 -0.02108
v -0.01317 -0.03162 -0.00527
v -0.00263 -0.02107 -0.02371
v 0.03162 -0.02635 -0.01054
v 0.00527 -0.02898 -0.00263
v -0.02107 0.00000 -0.01317
v 0.00264 -0.03689 -0.01844
v 0.02371 -0.03162 -0.00791
v -0.02107 -0.03162 -0.01054
v -0.01053 -0.03425 -0.02108
v 0.02107 -0.02635 -0.01844
v 0.00790 0.02898 -0.02372
v -0.00001 0.02108 -0.04743
v -0.00264 0.01845 -0.04479
v -0.03689 0.02898 -0.03162
v 0.00263 0.01317 -0.02372
v 0.00263 0.02898 -0.04216
v -0.01580 0.01581 -0.02372
v -0.01844 0.03162 -0.02372
v 0.00790 0.01845 -0.03952
v -0.03689 0.02635 -0.03426
v -0.00791 0.01581 -0.03689
v 0.01053 0.01845 -0.02372
v -0.00264 0.03162 -0.03162
v -0.03689 0.02898 -0.03426
v 0.00790 0.02371 -0.04216
v -0.00528 0.02635 -0.04479
v 0.00263 0.01581 -0.03952
v -0.02107 0.02108 -0.02372
v -0.01580 0.03162 -0.03162
v 0.01053 0.02635 -0.02635
v -0.00001 0.03162 -0.02372
v 0.00526 0.02898 -0.03952
v -0.00264 0.01317 -0.02635
v -0.00528 0.02898 -0.04216
v -0.01844 0.01845 -0.03426
v 0.00526 0.01845 -0.04479
v 0.00263 0.02371 -0.04743
v -0.03689 0.02635 -0.03162
v -0.01580 0.01581 -0.02635
v 0.00790 0.01581 -0.02635
v -0.02107 0.02898 -0.02372
v -0.00791 0.00791 -0.02371
v -0.00001 0.03162 -0.01318
v 0.00263 0.02898 -0.00791
v -0.05269 0.02635 -0.01581
v -0.01845 0.00000 -0.01054
v 0.01317 0.02371 -0.02371
v 0.00526 0.00000 -0.01318
v -0.02370 0.03162 -0.02371
v -0.05006 0.02107 -0.02108
v -0.00264 0.02107 -0.00527
v -0.01582 0.00000 -0.02108
v -0.05006 0.02898 -0.01318
v 0.00526 0.00000 -0.02108
v 0.01580 0.01844 -0.01844
v -0.05006 0.02107 -0.01318
v -0.02897 0.03162 -0.01054
v -0.00001 0.03162 -0.02371
v -0.05006 0.02898 -0.02108
v 0.00526 0.01844 -0.00791
v 0.00263 0.00000 -0.01054
v -0.02107 0.00000 -0.01844
v 0.01580 0.02371 -0.01844
v -0.05269 0.02107 -0.01581
v -0.02634 0.01844 -0.02371
v 0.01317 0.01844 -0.02371
v -0.01845 0.02898 -0.00791
v -0.03688 0.02371 -0.01054
v 0.00790 0.02898 -0.02371
v 0.00263 0.00791 -0.02371
v 0.01053 0.02635 -0.01318
v -0.02107 0.00000 -0.01318
v -0.00001 0.02371 -0.00527
v -0.03161 0.03162 -0.01844
v -0.05269 0.02107 -0.01844
v -0.01582 0.01054 -0.02371
v 0.01580 0.01844 -0.02108
v 0.00790 0.00264 -0.01844
v -0.02897 0.02635 -0.02371
v 0.00790 0.01581 -0.01054
v 0.00526 0.02635 -0.00791
v -0.00528 0.03162 -0.01054
v -0.01581 -0.03162 0.00527
v 0.00262 -0.00527 0.01581
v 0.00262 -0.00527 0.00791
v -0.05797 -0.01318 0.01581
v 0.01580 -0.02635 0.02108
v -0.05006 -0.02898 0.01844
v -0.05797 -0.01581 0.00791
v 0.01580 -0.02898 0.00264
v 0.02635 -0.02898 0.01581
v -0.05797 -0.02635 0.00791
v -0.00263 -0.01845 0.00264
v -0.05269 -0.00791 0.01054
v -0.00527 -0.02108 0.02108
v 0.00527 -0.03162 0.01581
v -0.01318 -0.03162 0.00264
v 0.02371 -0.02371 0.00791
v -0.05533 -0.01845 0.01844
v 0.01844 -0.03162 0.00791
v -0.00263 -0.02898 0.02108
v -0.05797 -0.02635 0.01844
v -0.00791 -0.01054 0.01844
v 0.01580 -0.02108 0.02108
v -0.05533 -0.01054 0.01581
v -0.05269 -0.02898 0.01054
v 0.00527 -0.01054 0.00527
v 0.02635 -0.02635 0.01581
v -0.01318 -0.03162 0.01581
v -0.00263 -0.01054 0.00527
v 0.01317 -0.02371 0.00264
v 0.02371 -0.02898 0.00791
v -0.05269 -0.00791 0.01317
v 0.02108 -0.02371 0.00527
v -0.01318 -0.02635 0.00264
v -0.00263 -0.00527 0.01581
v 0.00527 -0.03162 0.00264
v -0.00263 -0.00527 0.00791
v -0.05006 -0.02898 0.00791
v -0.05269 -0.02898 0.02899
v 0.02897 -0.00527 0.03425
v 0.03161 -0.01581 0.03162
v -0.04215 -0.02635 0.03952
v -0.02634 -0.00527 0.03162
v 0.01580 -0.02635 0.02108
v 0.02371 -0.00527 0.02635
v -0.05005 -0.02108 0.02635
v -0.02371 -0.00527 0.03952
v 0.00263 -0.02898 0.03162
v 0.02107 -0.01581 0.03689
v -0.05533 -0.02371 0.03689
v 0.00526 -0.00527 0.03952
v 0.02634 -0.02108 0.03425
v 0.01316 -0.02108 0.02108
v 0.03161 -0.02108 0.02635
v 0.01053 -0.00527 0.02635
v -0.05005 -0.02898 0.02635
v -0.05005 -0.02898 0.03689
v -0.02634 -0.02371 0.03952
v 0.02634 -0.02371 0.03162
v -0.05005 -0.02108 0.03952
v -0.00001 -0.02898 0.02635
v 0.02897 -0.01054 0.02635
v -0.05269 -0.02108 0.03689
v -0.05269 -0.02108 0.02899
v 0.02371 -0.00527 0.03689
v -0.05269 -0.02635 0.02635
v 0.00263 -0.01054 0.03952
v 0.02897 -0.01844 0.03425
v 0.02897 -0.00527 0.02899
v 0.01580 -0.02108 0.02108
v 0.01053 -0.02635 0.02108
v -0.02634 -0.00527 0.03689
v -0.03687 -0.02898 0.03689
v 0.03161 -0.02108 0.03162
v -0.05533 -0.02371 0.02899
v -0.05533 -0.02635 0.03689
v -0.05005 -0.02635 0.03952
v 0.00789 -0.02108 0.03689
v -0.02898 -0.00527 0.03425
v 0.00262 0.02898 0.03425
v 0.01054 0.02635 0.03689
v 0.02635 -0.00527 0.02899
v -0.00263 0.02635 0.02108
v -0.05797 0.02371 0.03689
v 0.01580 0.01054 0.04216
v -0.05269 0.01581 0.02899
v -0.02371 -0.00527 0.03952
v 0.02108 0.02108 0.02635
v -0.00000 0.01581 0.02108
v -0.05533 0.02371 0.03952
v 0.02371 -0.00527 0.03689
v -0.02633 -0.00527 0.03162
v -0.05006 0.02635 0.03162
v 0.01580 0.01844 0.04216
v -0.05006 0.01054 0.03952
v 0.01054 0.02635 0.02108
v 0.02371 0.01844 0.03425
v -0.00527 0.01054 0.04216
v -0.00263 -0.00527 0.02899
v -0.05269 0.02371 0.02899
v -0.05797 0.01581 0.03425
v -0.00263 0.02108 0.04216
v 0.00790 -0.00527 0.03952
v 0.01317 0.01844 0.02108
v -0.00263 0.02898 0.02899
v 0.01580 0.02635 0.03162
v 0.02108 0.01844 0.03952
v -0.05006 0.02635 0.03689
v -0.05269 0.01054 0.03425
v 0.02635 -0.00263 0.03425
v -0.05797 0.02371 0.03162
v -0.05533 0.01581 0.03952
v 0.00527 0.00791 0.04216
v -0.02898 -0.00527 0.03689
v 0.02371 0.01844 0.02899
v 0.01844 0.02371 0.03689
v 0.01054 0.01581 0.02108
v -0.05269 0.01054 0.03689
v 0.01317 0.02371 0.03952
v -0.00263 0.01844 0.02108
v -0.05533 -0.02635 -0.03952
v -0.05006 -0.02108 -0.03425
v -0.05006 -0.02371 -0.03425
v -0.05006 -0.02108 -0.03952
v -0.05533 -0.02108 -0.03425
v -0.02635 -0.02898 -0.01317
v -0.05270 -0.02635 -0.02108
v -0.05270 -0.02372 -0.02108
v -0.05533 -0.02635 -0.01317
v -0.02635 -0.02108 -0.01317
v -0.02635 -0.02898 -0.01844
v -0.05533 -0.02108 -0.01317
v -0.04216 -0.02108 -0.02108
v -0.05006 -0.02898 -0.02108
v -0.02635 -0.02108 -0.01844
v -0.04743 -0.02898 -0.01317
v -0.05533 -0.02108 -0.01844
v -0.03952 -0.02635 -0.02108
v -0.04216 0.02898 0.01317
v -0.05797 0.00527 0.01054
v -0.05269 0.01581 0.00791
v -0.03425 0.01844 0.01054
v -0.04743 0.00264 0.01581
v -0.05797 0.02371 0.01581
v -0.05533 0.02898 0.00791
v -0.03425 0.02371 0.01581
v -0.05006 -0.00263 0.01054
v -0.03689 0.02898 0.00791
v -0.05533 0.00264 0.01581
v -0.04216 0.01581 0.00791
v -0.05533 -0.00263 0.01317
v -0.05269 0.02634 0.01581
v -0.05797 0.00791 0.01581
v -0.05797 0.02371 0.01054
v -0.03425 0.01844 0.01317
v -0.05533 -0.00263 0.01054
v -0.04743 0.00000 0.01317
v 0.00000 -0.00527 0.00791
v 0.00264 0.01054 0.01581
v 0.00264 0.01054 0.01054
v -0.00263 0.01054 0.01054
v -0.00263 -0.00527 0.01581
v 0.00264 -0.00527 0.01581
v 0.00264 -0.00263 0.00791
v 0.00000 0.01054 0.01581
v -0.00263 -0.00527 0.01054
v 0.00790 0.02635 0.02108
v -0.00000 0.01844 0.00264
v -0.00264 0.01054 0.00791
v -0.03425 0.02371 0.01317
v -0.00264 0.01581 0.02108
v -0.02898 0.01318 0.01054
v 0.00263 0.02635 0.00791
v 0.00527 0.01054 0.01317
v 0.00790 0.01581 0.00791
v -0.03425 0.02371 0.01054
v -0.03161 0.01844 0.01581
v -0.00264 0.02635 0.02108
v 0.01053 0.01844 0.02108
v -0.00264 0.01054 0.01581
v 0.00790 0.02371 0.00791
v -0.00791 0.02635 0.00791
v -0.02898 0.01318 0.01317
v 0.00263 0.02108 0.00264
v -0.03161 0.02371 0.01581
v -0.01317 0.02635 0.01581
v 0.00790 0.01581 0.02108
v 0.00263 0.01054 0.00791
v 0.01053 0.02371 0.01844
v -0.00527 0.01844 0.02108
v -0.03425 0.02108 0.01054
f 399 405 436 
f 395 398 403 
f 403 398 407 
f 398 395 408 
f 402 405 408 
f 405 399 412 
f 401 410 414 
f 411 403 414 
f 405 398 415 
f 398 408 415 
f 408 405 415 
f 399 402 416 
f 409 399 416 
f 406 414 418 
f 414 410 418 
f 403 407 419 
f 407 401 419 
f 404 398 420 
f 412 404 420 
f 405 412 420 
f 399 409 421 
f 396 412 421 
f 412 399 421 
f 396 397 422 
f 412 396 422 
f 404 412 422 
f 401 407 423 
f 410 401 423 
f 397 396 424 
f 400 406 424 
f 409 400 424 
f 418 397 424 
f 406 418 424 
f 396 421 424 
f 421 409 424 
f 408 395 425 
f 402 408 425 
f 417 402 425 
f 407 398 426 
f 413 423 426 
f 423 407 426 
f 400 409 427 
f 416 402 427 
f 409 416 427 
f 402 417 427 
f 417 400 427 
f 406 400 428 
f 414 406 428 
f 411 414 428 
f 400 417 428 
f 401 414 429 
f 414 403 429 
f 419 401 429 
f 403 419 429 
f 395 403 430 
f 403 411 430 
f 425 395 430 
f 398 404 431 
f 404 413 431 
f 426 398 431 
f 413 426 431 
f 413 404 432 
f 422 397 432 
f 404 422 432 
f 423 413 432 
f 410 423 432 
f 398 405 433 
f 420 398 433 
f 405 420 433 
f 417 425 434 
f 411 428 434 
f 428 417 434 
f 430 411 434 
f 425 430 434 
f 397 418 435 
f 418 410 435 
f 432 397 435 
f 410 432 435 
f 402 399 436 
f 405 402 436 
