# Original object name hint: convex_0
v 0.07641 0.02897 -0.06587
v 0.06851 -0.04479 -0.01316
v 0.07378 -0.04479 -0.01316
v 0.06588 0.01580 0.07641
v 0.05533 0.01843 -0.07641
v 0.08168 0.00262 0.06850
v 0.07641 0.04479 0.01316
v 0.05533 -0.02371 -0.07113
v 0.08168 -0.02634 -0.04216
v 0.08432 0.02897 0.00263
v 0.07378 -0.02371 -0.07113
v 0.06324 -0.03952 0.00263
v 0.07905 -0.03424 0.03161
v 0.07114 -0.01317 0.07113
v 0.06851 0.04215 -0.01578
v 0.07905 0.02107 0.07113
v 0.08432 -0.00790 0.02370
v 0.05533 0.02370 -0.06587
v 0.08168 0.01580 -0.05269
v 0.06851 0.04215 0.00790
v 0.07641 0.00525 -0.07377
v 0.07641 -0.04215 -0.03161
v 0.08168 -0.03424 0.01843
v 0.06588 0.00525 0.07641
v 0.07114 -0.04215 0.01578
v 0.08432 0.02634 0.02633
v 0.06588 0.02897 -0.07113
v 0.07641 0.04479 -0.01052
v 0.06061 -0.03688 -0.01052
v 0.08432 0.00790 -0.01578
v 0.06061 -0.02898 -0.06850
v 0.07641 -0.01317 0.07113
v 0.08168 0.02897 -0.03952
v 0.05533 -0.02371 -0.06587
v 0.07641 0.02107 -0.07377
v 0.06851 0.00262 -0.07641
v 0.07905 0.04215 0.02108
v 0.07641 0.00262 0.07641
v 0.08168 -0.02371 0.04214
v 0.07641 -0.04479 0.00263
v 0.08168 -0.03424 -0.01843
v 0.07641 -0.02634 -0.06587
v 0.05797 0.02634 -0.07377
v 0.07378 0.04215 0.02108
v 0.07905 -0.01053 -0.06323
v 0.08168 0.01843 0.06587
v 0.06061 -0.03688 -0.02896
v 0.07114 -0.02898 -0.06850
v 0.07905 0.04215 -0.00790
v 0.06851 -0.04215 -0.03161
v 0.07114 0.04479 -0.01052
v 0.07905 -0.03952 -0.03161
v 0.07378 0.02897 -0.07113
v 0.08432 0.00525 0.03423
v 0.08432 -0.00525 0.00000
v 0.06851 -0.04479 0.00525
v 0.06588 0.02107 -0.07641
v 0.07114 0.04479 0.01052
v 0.08168 0.03687 0.02108
v 0.07641 0.01580 0.07641
v 0.07378 0.02107 0.07113
v 0.07905 0.03424 -0.04216
v 0.06324 -0.01580 -0.07377
v 0.05533 0.00790 -0.07641
v -0.08166 -0.01580 -0.06587
v -0.07113 0.03425 -0.05533
v -0.06586 0.03161 -0.05533
v 0.05531 0.01844 -0.07641
v 0.00527 -0.03162 -0.06060
v -0.07113 0.02635 -0.07641
v -0.01054 -0.02634 -0.07641
v -0.07640 -0.03162 -0.05533
v 0.05531 0.02107 -0.06587
v 0.05531 -0.02371 -0.07114
v -0.06322 -0.03162 -0.07114
v -0.00265 0.03161 -0.07378
v -0.08166 0.02107 -0.05533
v 0.01843 -0.03162 -0.07378
v 0.05531 -0.02371 -0.06587
v -0.07376 -0.01844 -0.07378
v -0.07640 0.03161 -0.06850
v -0.06059 -0.03162 -0.05533
v 0.01316 -0.02634 -0.07641
v 0.05531 0.02371 -0.06850
v -0.06849 0.00526 -0.07641
v -0.07640 0.02107 -0.07378
v -0.08166 -0.02108 -0.05533
v -0.07640 -0.02898 -0.06587
v -0.06322 0.02898 -0.05533
v -0.00265 0.03161 -0.06850
v 0.05531 0.01054 -0.07641
v 0.02633 -0.03162 -0.06850
v 0.05531 0.02371 -0.07378
v -0.00001 0.02635 -0.07641
v -0.07376 0.03161 -0.07114
v -0.07903 0.02371 -0.06850
v -0.07376 0.03425 -0.05797
v -0.07640 -0.00527 -0.07378
v -0.07640 -0.02371 -0.07114
v -0.03161 0.03161 -0.07378
v -0.07113 -0.02108 -0.07378
v -0.01843 -0.03162 -0.07378
v -0.02634 -0.02108 -0.07641
v -0.08166 0.01054 -0.06324
v -0.07903 0.02898 -0.05533
v -0.08166 -0.02108 -0.06324
v -0.07113 -0.03162 -0.06850
v 0.00527 -0.02898 -0.06060
v 0.02370 -0.03162 -0.06587
v -0.06059 -0.01580 -0.05533
v -0.07903 0.02898 -0.06324
v -0.08166 -0.00262 -0.06587
v -0.07113 0.01054 -0.07641
v 0.02633 -0.03162 -0.07114
v -0.07378 -0.03424 -0.04742
v -0.06851 0.03687 -0.00264
v -0.07641 0.03687 -0.00264
v -0.07641 0.03424 -0.05533
v -0.05534 -0.02898 -0.03425
v -0.08168 -0.02634 -0.00264
v -0.06588 0.03161 -0.05533
v -0.05534 -0.02107 -0.01318
v -0.08168 0.02107 -0.05533
v -0.06061 -0.02634 -0.05533
v -0.08168 -0.02371 -0.05533
v -0.06851 -0.03160 -0.00264
v -0.06324 0.03687 -0.03425
v -0.08168 0.02371 -0.00264
v -0.05534 -0.02107 -0.04215
v -0.07378 0.04216 -0.03425
v -0.07378 -0.03689 -0.02108
v -0.06588 0.03424 -0.00264
v -0.06588 -0.03424 -0.05269
v -0.06324 0.03424 -0.01318
v -0.07904 0.03161 -0.05006
v -0.06851 -0.03689 -0.02108
v -0.07904 -0.03160 -0.04215
v -0.06851 0.04216 -0.03425
v -0.06588 -0.02898 -0.00264
v -0.05534 -0.02634 -0.01581
v -0.07904 -0.03160 -0.00528
v -0.05797 -0.03160 -0.04479
v -0.07641 -0.03160 -0.05533
v -0.06324 0.03424 -0.04215
v -0.06851 0.04216 -0.02636
v -0.07378 -0.03689 -0.03161
v -0.06851 0.03424 -0.05533
v -0.06588 0.03951 -0.01845
v -0.06324 -0.03424 -0.02372
v -0.08168 0.02371 -0.05269
v -0.07904 0.03161 -0.00264
v -0.08168 -0.02634 -0.04742
v -0.05534 -0.02898 -0.04215
v -0.06324 -0.03160 -0.05533
v -0.06588 0.03951 -0.03952
v -0.06851 -0.03689 -0.03161
v -0.06324 0.03687 -0.02372
v -0.07378 0.04216 -0.02636
v -0.07641 -0.03160 -0.00264
v -0.06061 -0.02371 -0.05533
v -0.06851 -0.03424 -0.01055
v -0.06324 0.03161 -0.01055
v -0.06324 0.03161 -0.04479
v -0.08168 -0.02898 0.03425
v -0.06587 0.02898 0.03952
v -0.06851 0.03689 0.00791
v -0.05797 -0.02898 0.01055
v -0.08168 0.02635 -0.00263
v -0.07905 -0.03162 -0.00263
v -0.08432 0.01844 0.03688
v -0.06587 -0.02635 0.03952
v -0.06587 0.03425 -0.00263
v -0.05797 0.02371 0.03688
v -0.05797 0.02371 0.01055
v -0.06587 -0.02635 -0.00263
v -0.08432 -0.01844 0.02635
v -0.07641 0.03689 0.00791
v -0.08432 -0.00263 0.03952
v -0.06587 -0.03162 0.03425
v -0.07641 0.02898 0.03952
v -0.08168 -0.02635 -0.00263
v -0.06324 -0.02635 0.03688
v -0.05797 -0.01581 0.00791
v -0.08168 -0.02635 0.03952
v -0.05797 -0.02635 0.01844
v -0.06851 -0.03162 -0.00263
v -0.08168 0.02635 0.03688
v -0.07641 0.03689 -0.00263
v -0.08432 0.01317 0.02371
v -0.07905 -0.03162 0.03425
v -0.07378 0.03162 0.03688
v -0.08168 0.02898 0.00791
v -0.08432 -0.02108 0.03688
v -0.05797 0.01844 0.03688
v -0.06324 -0.03162 0.00791
v -0.06324 0.01580 0.03952
v -0.08168 -0.02898 0.00527
v -0.07905 -0.02898 0.03952
v -0.08168 0.02108 0.03952
v -0.05797 -0.02635 0.00791
v -0.06851 0.03689 -0.00263
v -0.08432 0.01844 0.02635
v -0.07905 0.02898 0.03688
v -0.07114 -0.03162 0.03688
v -0.06060 0.02635 0.03688
v -0.08432 -0.01317 0.02371
v -0.07114 0.03162 0.03688
v -0.00526 -0.03689 -0.01844
v 0.00790 0.00000 -0.01581
v 0.00790 0.00000 -0.01844
v 0.03162 -0.02898 -0.00791
v -0.01317 -0.02371 -0.00527
v -0.02107 0.00000 -0.01844
v 0.00790 -0.03162 -0.02371
v -0.02634 -0.02898 -0.01844
v -0.01843 0.00000 -0.01054
v -0.00263 -0.02898 -0.00263
v 0.00264 0.00000 -0.01054
v -0.02634 -0.02635 -0.01054
v -0.01580 0.00000 -0.02108
v 0.02634 -0.02635 -0.01581
v -0.01317 -0.03425 -0.00791
v 0.00527 -0.02371 -0.00263
v 0.00527 0.00000 -0.02108
v -0.00526 -0.03162 -0.02371
v 0.00790 -0.03425 -0.00791
v 0.03162 -0.02635 -0.00791
v 0.02371 -0.03162 -0.01581
v 0.00790 -0.02371 -0.02371
v 0.00264 -0.03689 -0.01317
v -0.02634 -0.02107 -0.01054
v 0.00527 -0.03425 -0.02371
v -0.02634 -0.01845 -0.01844
v -0.00263 -0.02371 -0.00263
v -0.01843 -0.02635 -0.02108
v -0.01317 -0.03162 -0.00527
v -0.00263 -0.02107 -0.02371
v 0.03162 -0.02635 -0.01054
v 0.00527 -0.02898 -0.00263
v -0.02107 0.00000 -0.01317
v 0.00264 -0.03689 -0.01844
v 0.02371 -0.03162 -0.00791
v -0.02107 -0.03162 -0.01054
v -0.01053 -0.03425 -0.02108
v 0.02107 -0.02635 -0.01844
v 0.00790 0.02898 -0.02372
v -0.00001 0.02108 -0.04743
v -0.00264 0.01845 -0.04479
v -0.03689 0.02898 -0.03162
v 0.00263 0.01317 -0.02372
v 0.00263 0.02898 -0.04216
v -0.01580 0.01581 -0.02372
v -0.01844 0.03162 -0.02372
v 0.00790 0.01845 -0.03952
v -0.03689 0.02635 -0.03426
v -0.00791 0.01581 -0.03689
v 0.01053 0.01845 -0.02372
v -0.00264 0.03162 -0.03162
v -0.03689 0.02898 -0.03426
v 0.00790 0.02371 -0.04216
v -0.00528 0.02635 -0.04479
v 0.00263 0.01581 -0.03952
v -0.02107 0.02108 -0.02372
v -0.01580 0.03162 -0.03162
v 0.01053 0.02635 -0.02635
v -0.00001 0.03162 -0.02372
v 0.00526 0.02898 -0.03952
v -0.00264 0.01317 -0.02635
v -0.00528 0.02898 -0.04216
v -0.01844 0.01845 -0.03426
v 0.00526 0.01845 -0.04479
v 0.00263 0.02371 -0.04743
v -0.03689 0.02635 -0.03162
v -0.01580 0.01581 -0.02635
v 0.00790 0.01581 -0.02635
v -0.02107 0.02898 -0.02372
v -0.00791 0.00791 -0.02371
v -0.00001 0.03162 -0.01318
v 0.00263 0.02898 -0.00791
v -0.05269 0.02635 -0.01581
v -0.01845 0.00000 -0.01054
v 0.01317 0.02371 -0.02371
v 0.00526 0.00000 -0.01318
v -0.02370 0.03162 -0.02371
v -0.05006 0.02107 -0.02108
v -0.00264 0.02107 -0.00527
v -0.01582 0.00000 -0.02108
v -0.05006 0.02898 -0.01318
v 0.00526 0.00000 -0.02108
v 0.01580 0.01844 -0.01844
v -0.05006 0.02107 -0.01318
v -0.02897 0.03162 -0.01054
v -0.00001 0.03162 -0.02371
v -0.05006 0.02898 -0.02108
v 0.00526 0.01844 -0.00791
v 0.00263 0.00000 -0.01054
v -0.02107 0.00000 -0.01844
v 0.01580 0.02371 -0.01844
v -0.05269 0.02107 -0.01581
v -0.02634 0.01844 -0.02371
v 0.01317 0.01844 -0.02371
v -0.01845 0.02898 -0.00791
v -0.03688 0.02371 -0.01054
v 0.00790 0.02898 -0.02371
v 0.00263 0.00791 -0.02371
v 0.01053 0.02635 -0.01318
v -0.02107 0.00000 -0.01318
v -0.00001 0.02371 -0.00527
v -0.03161 0.03162 -0.01844
v -0.05269 0.02107 -0.01844
v -0.01582 0.01054 -0.02371
v 0.01580 0.01844 -0.02108
v 0.00790 0.00264 -0.01844
v -0.02897 0.02635 -0.02371
v 0.00790 0.01581 -0.01054
v 0.00526 0.02635 -0.00791
v -0.00528 0.03162 -0.01054
v -0.01581 -0.03162 0.00527
v 0.00262 -0.00527 0.01581
v 0.00262 -0.00527 0.00791
v -0.05797 -0.01318 0.01581
v 0.01580 -0.02635 0.02108
v -0.05006 -0.02898 0.01844
v -0.05797 -0.01581 0.00791
v 0.01580 -0.02898 0.00264
v 0.02635 -0.02898 0.01581
v -0.05797 -0.02635 0.00791
v -0.00263 -0.01845 0.00264
v -0.05269 -0.00791 0.01054
v -0.00527 -0.02108 0.02108
v 0.00527 -0.03162 0.01581
v -0.01318 -0.03162 0.00264
v 0.02371 -0.02371 0.00791
v -0.05533 -0.01845 0.01844
v 0.01844 -0.03162 0.00791
v -0.00263 -0.02898 0.02108
v -0.05797 -0.02635 0.01844
v -0.00791 -0.01054 0.01844
v 0.01580 -0.02108 0.02108
v -0.05533 -0.01054 0.01581
v -0.05269 -0.02898 0.01054
v 0.00527 -0.01054 0.00527
v 0.02635 -0.02635 0.01581
v -0.01318 -0.03162 0.01581
v -0.00263 -0.01054 0.00527
v 0.01317 -0.02371 0.00264
v 0.02371 -0.02898 0.00791
v -0.05269 -0.00791 0.01317
v 0.02108 -0.02371 0.00527
v -0.01318 -0.02635 0.00264
v -0.00263 -0.00527 0.01581
v 0.00527 -0.03162 0.00264
v -0.00263 -0.00527 0.00791
v -0.05006 -0.02898 0.00791
v -0.05269 -0.02898 0.02899
v 0.02897 -0.00527 0.03425
v 0.03161 -0.01581 0.03162
v -0.04215 -0.02635 0.03952
v -0.02634 -0.00527 0.03162
v 0.01580 -0.02635 0.02108
v 0.02371 -0.00527 0.02635
v -0.05005 -0.02108 0.02635
v -0.02371 -0.00527 0.03952
v 0.00263 -0.02898 0.03162
v 0.02107 -0.01581 0.03689
v -0.05533 -0.02371 0.03689
v 0.00526 -0.00527 0.03952
v 0.02634 -0.02108 0.03425
v 0.01316 -0.02108 0.02108
v 0.03161 -0.02108 0.02635
v 0.01053 -0.00527 0.02635
v -0.05005 -0.02898 0.02635
v -0.05005 -0.02898 0.03689
v -0.02634 -0.02371 0.03952
v 0.02634 -0.02371 0.03162
v -0.05005 -0.02108 0.03952
v -0.00001 -0.02898 0.02635
v 0.02897 -0.01054 0.02635
v -0.05269 -0.02108 0.03689
v -0.05269 -0.02108 0.02899
v 0.02371 -0.00527 0.03689
v -0.05269 -0.02635 0.02635
v 0.00263 -0.01054 0.03952
v 0.02897 -0.01844 0.03425
v 0.02897 -0.00527 0.02899
v 0.01580 -0.02108 0.02108
v 0.01053 -0.02635 0.02108
v -0.02634 -0.00527 0.03689
v -0.03687 -0.02898 0.03689
v 0.03161 -0.02108 0.03162
v -0.05533 -0.02371 0.02899
v -0.05533 -0.02635 0.03689
v -0.05005 -0.02635 0.03952
v 0.00789 -0.02108 0.03689
v -0.02898 -0.00527 0.03425
v 0.00262 0.02898 0.03425
v 0.01054 0.02635 0.03689
v 0.02635 -0.00527 0.02899
v -0.00263 0.02635 0.02108
v -0.05797 0.02371 0.03689
v 0.01580 0.01054 0.04216
v -0.05269 0.01581 0.02899
v -0.02371 -0.00527 0.03952
v 0.02108 0.02108 0.02635
v -0.00000 0.01581 0.02108
v -0.05533 0.02371 0.03952
v 0.02371 -0.00527 0.03689
v -0.02633 -0.00527 0.03162
v -0.05006 0.02635 0.03162
v 0.01580 0.01844 0.04216
v -0.05006 0.01054 0.03952
v 0.01054 0.02635 0.02108
v 0.02371 0.01844 0.03425
v -0.00527 0.01054 0.04216
v -0.00263 -0.00527 0.02899
v -0.05269 0.02371 0.02899
v -0.05797 0.01581 0.03425
v -0.00263 0.02108 0.04216
v 0.00790 -0.00527 0.03952
v 0.01317 0.01844 0.02108
v -0.00263 0.02898 0.02899
v 0.01580 0.02635 0.03162
v 0.02108 0.01844 0.03952
v -0.05006 0.02635 0.03689
v -0.05269 0.01054 0.03425
v 0.02635 -0.00263 0.03425
v -0.05797 0.02371 0.03162
v -0.05533 0.01581 0.03952
v 0.00527 0.00791 0.04216
v -0.02898 -0.00527 0.03689
v 0.02371 0.01844 0.02899
v 0.01844 0.02371 0.03689
v 0.01054 0.01581 0.02108
v -0.05269 0.01054 0.03689
v 0.01317 0.02371 0.03952
v -0.00263 0.01844 0.02108
v -0.05533 -0.02635 -0.03952
v -0.05006 -0.02108 -0.03425
v -0.05006 -0.02371 -0.03425
v -0.05006 -0.02108 -0.03952
v -0.05533 -0.02108 -0.03425
v -0.02635 -0.02898 -0.01317
v -0.05270 -0.02635 -0.02108
v -0.05270 -0.02372 -0.02108
v -0.05533 -0.02635 -0.01317
v -0.02635 -0.02108 -0.01317
v -0.02635 -0.02898 -0.01844
v -0.05533 -0.02108 -0.01317
v -0.04216 -0.02108 -0.02108
v -0.05006 -0.02898 -0.02108
v -0.02635 -0.02108 -0.01844
v -0.04743 -0.02898 -0.01317
v -0.05533 -0.02108 -0.01844
v -0.03952 -0.02635 -0.02108
v -0.04216 0.02898 0.01317
v -0.05797 0.00527 0.01054
v -0.05269 0.01581 0.00791
v -0.03425 0.01844 0.01054
v -0.04743 0.00264 0.01581
v -0.05797 0.02371 0.01581
v -0.05533 0.02898 0.00791
v -0.03425 0.02371 0.01581
v -0.05006 -0.00263 0.01054
v -0.03689 0.02898 0.00791
v -0.05533 0.00264 0.01581
v -0.04216 0.01581 0.00791
v -0.05533 -0.00263 0.01317
v -0.05269 0.02634 0.01581
v -0.05797 0.00791 0.01581
v -0.05797 0.02371 0.01054
v -0.03425 0.01844 0.01317
v -0.05533 -0.00263 0.01054
v -0.04743 0.00000 0.01317
v 0.00000 -0.00527 0.00791
v 0.00264 0.01054 0.01581
v 0.00264 0.01054 0.01054
v -0.00263 0.01054 0.01054
v -0.00263 -0.00527 0.01581
v 0.00264 -0.00527 0.01581
v 0.00264 -0.00263 0.00791
v 0.00000 0.01054 0.01581
v -0.00263 -0.00527 0.01054
v 0.00790 0.02635 0.02108
v -0.00000 0.01844 0.00264
v -0.00264 0.01054 0.00791
v -0.03425 0.02371 0.01317
v -0.00264 0.01581 0.02108
v -0.02898 0.01318 0.01054
v 0.00263 0.02635 0.00791
v 0.00527 0.01054 0.01317
v 0.00790 0.01581 0.00791
v -0.03425 0.02371 0.01054
v -0.03161 0.01844 0.01581
v -0.00264 0.02635 0.02108
v 0.01053 0.01844 0.02108
v -0.00264 0.01054 0.01581
v 0.00790 0.02371 0.00791
v -0.00791 0.02635 0.00791
v -0.02898 0.01318 0.01317
v 0.00263 0.02108 0.00264
v -0.03161 0.02371 0.01581
v -0.01317 0.02635 0.01581
v 0.00790 0.01581 0.02108
v 0.00263 0.01054 0.00791
v 0.01053 0.02371 0.01844
v -0.00527 0.01844 0.02108
v -0.03425 0.02108 0.01054
f 63 8 64 
f 5 8 18 
f 18 4 20 
f 15 18 20 
f 3 2 22 
f 12 14 24 
f 4 18 24 
f 13 14 25 
f 17 10 26 
f 12 24 29 
f 10 17 30 
f 19 10 30 
f 9 19 30 
f 8 11 31 
f 14 13 32 
f 10 19 33 
f 18 8 34 
f 24 18 34 
f 8 29 34 
f 29 24 34 
f 1 33 35 
f 33 19 35 
f 21 11 36 
f 35 21 36 
f 28 7 37 
f 24 14 38 
f 4 24 38 
f 32 6 38 
f 14 32 38 
f 17 6 39 
f 13 23 39 
f 23 17 39 
f 6 32 39 
f 32 13 39 
f 2 3 40 
f 3 22 40 
f 23 13 40 
f 13 25 40 
f 17 23 41 
f 11 21 42 
f 5 18 43 
f 18 15 43 
f 37 7 44 
f 16 37 44 
f 19 9 45 
f 21 35 45 
f 35 19 45 
f 42 21 45 
f 9 42 45 
f 16 6 46 
f 37 16 46 
f 2 12 47 
f 29 8 47 
f 12 29 47 
f 8 31 47 
f 31 11 48 
f 22 31 48 
f 11 42 48 
f 42 22 48 
f 10 33 49 
f 28 37 49 
f 22 2 50 
f 31 22 50 
f 2 47 50 
f 47 31 50 
f 15 20 51 
f 7 28 51 
f 28 27 51 
f 43 15 51 
f 27 43 51 
f 40 22 52 
f 23 40 52 
f 9 41 52 
f 41 23 52 
f 42 9 52 
f 22 42 52 
f 27 28 53 
f 1 35 53 
f 43 27 53 
f 6 17 54 
f 17 26 54 
f 46 6 54 
f 26 46 54 
f 30 17 55 
f 9 30 55 
f 41 9 55 
f 17 41 55 
f 12 2 56 
f 14 12 56 
f 25 14 56 
f 2 40 56 
f 40 25 56 
f 36 5 57 
f 35 36 57 
f 5 43 57 
f 53 35 57 
f 43 53 57 
f 20 4 58 
f 4 44 58 
f 44 7 58 
f 7 51 58 
f 51 20 58 
f 26 10 59 
f 46 26 59 
f 37 46 59 
f 10 49 59 
f 49 37 59 
f 16 4 60 
f 6 16 60 
f 4 38 60 
f 38 6 60 
f 4 16 61 
f 44 4 61 
f 16 44 61 
f 33 1 62 
f 28 49 62 
f 49 33 62 
f 1 53 62 
f 53 28 62 
f 11 8 63 
f 36 11 63 
f 36 63 64 
f 8 5 64 
f 5 36 64 
