# Original object name hint: convex_6
v 0.07641 0.02897 -0.06587
v 0.06851 -0.04479 -0.01316
v 0.07378 -0.04479 -0.01316
v 0.06588 0.01580 0.07641
v 0.05533 0.01843 -0.07641
v 0.08168 0.00262 0.06850
v 0.07641 0.04479 0.01316
v 0.05533 -0.02371 -0.07113
v 0.08168 -0.02634 -0.04216
v 0.08432 0.02897 0.00263
v 0.07378 -0.02371 -0.07113
v 0.06324 -0.03952 0.00263
v 0.07905 -0.03424 0.03161
v 0.07114 -0.01317 0.07113
v 0.06851 0.04215 -0.01578
v 0.07905 0.02107 0.07113
v 0.08432 -0.00790 0.02370
v 0.05533 0.02370 -0.06587
v 0.08168 0.01580 -0.05269
v 0.06851 0.04215 0.00790
v 0.07641 0.00525 -0.07377
v 0.07641 -0.04215 -0.03161
v 0.08168 -0.03424 0.01843
v 0.06588 0.00525 0.07641
v 0.07114 -0.04215 0.01578
v 0.08432 0.02634 0.02633
v 0.06588 0.02897 -0.07113
v 0.07641 0.04479 -0.01052
v 0.06061 -0.03688 -0.01052
v 0.08432 0.00790 -0.01578
v 0.06061 -0.02898 -0.06850
v 0.07641 -0.01317 0.07113
v 0.08168 0.02897 -0.03952
v 0.05533 -0.02371 -0.06587
v 0.07641 0.02107 -0.07377
v 0.06851 0.00262 -0.07641
v 0.07905 0.04215 0.02108
v 0.07641 0.00262 0.07641
v 0.08168 -0.02371 0.04214
v 0.07641 -0.04479 0.00263
v 0.08168 -0.03424 -0.01843
v 0.07641 -0.02634 -0.06587
v 0.05797 0.02634 -0.07377
v 0.07378 0.04215 0.02108
v 0.07905 -0.01053 -0.06323
v 0.08168 0.01843 0.06587
v 0.06061 -0.03688 -0.02896
v 0.07114 -0.02898 -0.06850
v 0.07905 0.04215 -0.00790
v 0.06851 -0.04215 -0.03161
v 0.07114 0.04479 -0.01052
v 0.07905 -0.03952 -0.03161
v 0.07378 0.02897 -0.07113
v 0.08432 0.00525 0.03423
v 0.08432 -0.00525 0.00000
v 0.06851 -0.04479 0.00525
v 0.06588 0.02107 -0.07641
v 0.07114 0.04479 0.01052
v 0.08168 0.03687 0.02108
v 0.07641 0.01580 0.07641
v 0.07378 0.02107 0.07113
v 0.07905 0.03424 -0.04216
v 0.06324 -0.01580 -0.07377
v 0.05533 0.00790 -0.07641
v -0.08166 -0.01580 -0.06587
v -0.07113 0.03425 -0.05533
v -0.06586 0.03161 -0.05533
v 0.05531 0.01844 -0.07641
v 0.00527 -0.03162 -0.06060
v -0.07113 0.02635 -0.07641
v -0.01054 -0.02634 -0.07641
v -0.07640 -0.03162 -0.05533
v 0.05531 0.02107 -0.06587
v 0.05531 -0.02371 -0.07114
v -0.06322 -0.03162 -0.07114
v -0.00265 0.03161 -0.07378
v -0.08166 0.02107 -0.05533
v 0.01843 -0.03162 -0.07378
v 0.05531 -0.02371 -0.06587
v -0.07376 -0.01844 -0.07378
v -0.07640 0.03161 -0.06850
v -0.06059 -0.03162 -0.05533
v 0.01316 -0.02634 -0.07641
v 0.05531 0.02371 -0.06850
v -0.06849 0.00526 -0.07641
v -0.07640 0.02107 -0.07378
v -0.08166 -0.02108 -0.05533
v -0.07640 -0.02898 -0.06587
v -0.06322 0.02898 -0.05533
v -0.00265 0.03161 -0.06850
v 0.05531 0.01054 -0.07641
v 0.02633 -0.03162 -0.06850
v 0.05531 0.02371 -0.07378
v -0.00001 0.02635 -0.07641
v -0.07376 0.03161 -0.07114
v -0.07903 0.02371 -0.06850
v -0.07376 0.03425 -0.05797
v -0.07640 -0.00527 -0.07378
v -0.07640 -0.02371 -0.07114
v -0.03161 0.03161 -0.07378
v -0.07113 -0.02108 -0.07378
v -0.01843 -0.03162 -0.07378
v -0.02634 -0.02108 -0.07641
v -0.08166 0.01054 -0.06324
v -0.07903 0.02898 -0.05533
v -0.08166 -0.02108 -0.06324
v -0.07113 -0.03162 -0.06850
v 0.00527 -0.02898 -0.06060
v 0.02370 -0.03162 -0.06587
v -0.06059 -0.01580 -0.05533
v -0.07903 0.02898 -0.06324
v -0.08166 -0.00262 -0.06587
v -0.07113 0.01054 -0.07641
v 0.02633 -0.03162 -0.07114
v -0.07378 -0.03424 -0.04742
v -0.06851 0.03687 -0.00264
v -0.07641 0.03687 -0.00264
v -0.07641 0.03424 -0.05533
v -0.05534 -0.02898 -0.03425
v -0.08168 -0.02634 -0.00264
v -0.06588 0.03161 -0.05533
v -0.05534 -0.02107 -0.01318
v -0.08168 0.02107 -0.05533
v -0.06061 -0.02634 -0.05533
v -0.08168 -0.02371 -0.05533
v -0.06851 -0.03160 -0.00264
v -0.06324 0.03687 -0.03425
v -0.08168 0.02371 -0.00264
v -0.05534 -0.02107 -0.04215
v -0.07378 0.04216 -0.03425
v -0.07378 -0.03689 -0.02108
v -0.06588 0.03424 -0.00264
v -0.06588 -0.03424 -0.05269
v -0.06324 0.03424 -0.01318
v -0.07904 0.03161 -0.05006
v -0.06851 -0.03689 -0.02108
v -0.07904 -0.03160 -0.04215
v -0.06851 0.04216 -0.03425
v -0.06588 -0.02898 -0.00264
v -0.05534 -0.02634 -0.01581
v -0.07904 -0.03160 -0.00528
v -0.05797 -0.03160 -0.04479
v -0.07641 -0.03160 -0.05533
v -0.06324 0.03424 -0.04215
v -0.06851 0.04216 -0.02636
v -0.07378 -0.03689 -0.03161
v -0.06851 0.03424 -0.05533
v -0.06588 0.03951 -0.01845
v -0.06324 -0.03424 -0.02372
v -0.08168 0.02371 -0.05269
v -0.07904 0.03161 -0.00264
v -0.08168 -0.02634 -0.04742
v -0.05534 -0.02898 -0.04215
v -0.06324 -0.03160 -0.05533
v -0.06588 0.03951 -0.03952
v -0.06851 -0.03689 -0.03161
v -0.06324 0.03687 -0.02372
v -0.07378 0.04216 -0.02636
v -0.07641 -0.03160 -0.00264
v -0.06061 -0.02371 -0.05533
v -0.06851 -0.03424 -0.01055
v -0.06324 0.03161 -0.01055
v -0.06324 0.03161 -0.04479
v -0.08168 -0.02898 0.03425
v -0.06587 0.02898 0.03952
v -0.06851 0.03689 0.00791
v -0.05797 -0.02898 0.01055
v -0.08168 0.02635 -0.00263
v -0.07905 -0.03162 -0.00263
v -0.08432 0.01844 0.03688
v -0.06587 -0.02635 0.03952
v -0.06587 0.03425 -0.00263
v -0.05797 0.02371 0.03688
v -0.05797 0.02371 0.01055
v -0.06587 -0.02635 -0.00263
v -0.08432 -0.01844 0.02635
v -0.07641 0.03689 0.00791
v -0.08432 -0.00263 0.03952
v -0.06587 -0.03162 0.03425
v -0.07641 0.02898 0.03952
v -0.08168 -0.02635 -0.00263
v -0.06324 -0.02635 0.03688
v -0.05797 -0.01581 0.00791
v -0.08168 -0.02635 0.03952
v -0.05797 -0.02635 0.01844
v -0.06851 -0.03162 -0.00263
v -0.08168 0.02635 0.03688
v -0.07641 0.03689 -0.00263
v -0.08432 0.01317 0.02371
v -0.07905 -0.03162 0.03425
v -0.07378 0.03162 0.03688
v -0.08168 0.02898 0.00791
v -0.08432 -0.02108 0.03688
v -0.05797 0.01844 0.03688
v -0.06324 -0.03162 0.00791
v -0.06324 0.01580 0.03952
v -0.08168 -0.02898 0.00527
v -0.07905 -0.02898 0.03952
v -0.08168 0.02108 0.03952
v -0.05797 -0.02635 0.00791
v -0.06851 0.03689 -0.00263
v -0.08432 0.01844 0.02635
v -0.07905 0.02898 0.03688
v -0.07114 -0.03162 0.03688
v -0.06060 0.02635 0.03688
v -0.08432 -0.01317 0.02371
v -0.07114 0.03162 0.03688
v -0.00526 -0.03689 -0.01844
v 0.00790 0.00000 -0.01581
v 0.00790 0.00000 -0.01844
v 0.03162 -0.02898 -0.00791
v -0.01317 -0.02371 -0.00527
v -0.02107 0.00000 -0.01844
v 0.00790 -0.03162 -0.02371
v -0.02634 -0.02898 -0.01844
v -0.01843 0.00000 -0.01054
v -0.00263 -0.02898 -0.00263
v 0.00264 0.00000 -0.01054
v -0.02634 -0.02635 -0.01054
v -0.01580 0.00000 -0.02108
v 0.02634 -0.02635 -0.01581
v -0.01317 -0.03425 -0.00791
v 0.00527 -0.02371 -0.00263
v 0.00527 0.00000 -0.02108
v -0.00526 -0.03162 -0.02371
v 0.00790 -0.03425 -0.00791
v 0.03162 -0.02635 -0.00791
v 0.02371 -0.03162 -0.01581
v 0.00790 -0.02371 -0.02371
v 0.00264 -0.03689 -0.01317
v -0.02634 -0.02107 -0.01054
v 0.00527 -0.03425 -0.02371
v -0.02634 -0.01845 -0.01844
v -0.00263 -0.02371 -0.00263
v -0.01843 -0.02635 -0.02108
v -0.01317 -0.03162 -0.00527
v -0.00263 -0.02107 -0.02371
v 0.03162 -0.02635 -0.01054
v 0.00527 -0.02898 -0.00263
v -0.02107 0.00000 -0.01317
v 0.00264 -0.03689 -0.01844
v 0.02371 -0.03162 -0.00791
v -0.02107 -0.03162 -0.01054
v -0.01053 -0.03425 -0.02108
v 0.02107 -0.02635 -0.01844
v 0.00790 0.02898 -0.02372
v -0.00001 0.02108 -0.04743
v -0.00264 0.01845 -0.04479
v -0.03689 0.02898 -0.03162
v 0.00263 0.01317 -0.02372
v 0.00263 0.02898 -0.04216
v -0.01580 0.01581 -0.02372
v -0.01844 0.03162 -0.02372
v 0.00790 0.01845 -0.03952
v -0.03689 0.02635 -0.03426
v -0.00791 0.01581 -0.03689
v 0.01053 0.01845 -0.02372
v -0.00264 0.03162 -0.03162
v -0.03689 0.02898 -0.03426
v 0.00790 0.02371 -0.04216
v -0.00528 0.02635 -0.04479
v 0.00263 0.01581 -0.03952
v -0.02107 0.02108 -0.02372
v -0.01580 0.03162 -0.03162
v 0.01053 0.02635 -0.02635
v -0.00001 0.03162 -0.02372
v 0.00526 0.02898 -0.03952
v -0.00264 0.01317 -0.02635
v -0.00528 0.02898 -0.04216
v -0.01844 0.01845 -0.03426
v 0.00526 0.01845 -0.04479
v 0.00263 0.02371 -0.04743
v -0.03689 0.02635 -0.03162
v -0.01580 0.01581 -0.02635
v 0.00790 0.01581 -0.02635
v -0.02107 0.02898 -0.02372
v -0.00791 0.00791 -0.02371
v -0.00001 0.03162 -0.01318
v 0.00263 0.02898 -0.00791
v -0.05269 0.02635 -0.01581
v -0.01845 0.00000 -0.01054
v 0.01317 0.02371 -0.02371
v 0.00526 0.00000 -0.01318
v -0.02370 0.03162 -0.02371
v -0.05006 0.02107 -0.02108
v -0.00264 0.02107 -0.00527
v -0.01582 0.00000 -0.02108
v -0.05006 0.02898 -0.01318
v 0.00526 0.00000 -0.02108
v 0.01580 0.01844 -0.01844
v -0.05006 0.02107 -0.01318
v -0.02897 0.03162 -0.01054
v -0.00001 0.03162 -0.02371
v -0.05006 0.02898 -0.02108
v 0.00526 0.01844 -0.00791
v 0.00263 0.00000 -0.01054
v -0.02107 0.00000 -0.01844
v 0.01580 0.02371 -0.01844
v -0.05269 0.02107 -0.01581
v -0.02634 0.01844 -0.02371
v 0.01317 0.01844 -0.02371
v -0.01845 0.02898 -0.00791
v -0.03688 0.02371 -0.01054
v 0.00790 0.02898 -0.02371
v 0.00263 0.00791 -0.02371
v 0.01053 0.02635 -0.01318
v -0.02107 0.00000 -0.01318
v -0.00001 0.02371 -0.00527
v -0.03161 0.03162 -0.01844
v -0.05269 0.02107 -0.01844
v -0.01582 0.01054 -0.02371
v 0.01580 0.01844 -0.02108
v 0.00790 0.00264 -0.01844
v -0.02897 0.02635 -0.02371
v 0.00790 0.01581 -0.01054
v 0.00526 0.02635 -0.00791
v -0.00528 0.03162 -0.01054
v -0.01581 -0.03162 0.00527
v 0.00262 -0.00527 0.01581
v 0.00262 -0.00527 0.00791
v -0.05797 -0.01318 0.01581
v 0.01580 -0.02635 0.02108
v -0.05006 -0.02898 0.01844
v -0.05797 -0.01581 0.00791
v 0.01580 -0.02898 0.00264
v 0.02635 -0.02898 0.01581
v -0.05797 -0.02635 0.00791
v -0.00263 -0.01845 0.00264
v -0.05269 -0.00791 0.01054
v -0.00527 -0.02108 0.02108
v 0.00527 -0.03162 0.01581
v -0.01318 -0.03162 0.00264
v 0.02371 -0.02371 0.00791
v -0.05533 -0.01845 0.01844
v 0.01844 -0.03162 0.00791
v -0.00263 -0.02898 0.02108
v -0.05797 -0.02635 0.01844
v -0.00791 -0.01054 0.01844
v 0.01580 -0.02108 0.02108
v -0.05533 -0.01054 0.01581
v -0.05269 -0.02898 0.01054
v 0.00527 -0.01054 0.00527
v 0.02635 -0.02635 0.01581
v -0.01318 -0.03162 0.01581
v -0.00263 -0.01054 0.00527
v 0.01317 -0.02371 0.00264
v 0.02371 -0.02898 0.00791
v -0.05269 -0.00791 0.01317
v 0.02108 -0.02371 0.00527
v -0.01318 -0.02635 0.00264
v -0.00263 -0.00527 0.01581
v 0.00527 -0.03162 0.00264
v -0.00263 -0.00527 0.00791
v -0.05006 -0.02898 0.00791
v -0.05269 -0.02898 0.02899
v 0.02897 -0.00527 0.03425
v 0.03161 -0.01581 0.03162
v -0.04215 -0.02635 0.03952
v -0.02634 -0.00527 0.03162
v 0.01580 -0.02635 0.02108
v 0.02371 -0.00527 0.02635
v -0.05005 -0.02108 0.02635
v -0.02371 -0.00527 0.03952
v 0.00263 -0.02898 0.03162
v 0.02107 -0.01581 0.03689
v -0.05533 -0.02371 0.03689
v 0.00526 -0.00527 0.03952
v 0.02634 -0.02108 0.03425
v 0.01316 -0.02108 0.02108
v 0.03161 -0.02108 0.02635
v 0.01053 -0.00527 0.02635
v -0.05005 -0.02898 0.02635
v -0.05005 -0.02898 0.03689
v -0.02634 -0.02371 0.03952
v 0.02634 -0.02371 0.03162
v -0.05005 -0.02108 0.03952
v -0.00001 -0.02898 0.02635
v 0.02897 -0.01054 0.02635
v -0.05269 -0.02108 0.03689
v -0.05269 -0.02108 0.02899
v 0.02371 -0.00527 0.03689
v -0.05269 -0.02635 0.02635
v 0.00263 -0.01054 0.03952
v 0.02897 -0.01844 0.03425
v 0.02897 -0.00527 0.02899
v 0.01580 -0.02108 0.02108
v 0.01053 -0.02635 0.02108
v -0.02634 -0.00527 0.03689
v -0.03687 -0.02898 0.03689
v 0.03161 -0.02108 0.03162
v -0.05533 -0.02371 0.02899
v -0.05533 -0.02635 0.03689
v -0.05005 -0.02635 0.03952
v 0.00789 -0.02108 0.03689
v -0.02898 -0.00527 0.03425
v 0.00262 0.02898 0.03425
v 0.01054 0.02635 0.03689
v 0.02635 -0.00527 0.02899
v -0.00263 0.02635 0.02108
v -0.05797 0.02371 0.03689
v 0.01580 0.01054 0.04216
v -0.05269 0.01581 0.02899
v -0.02371 -0.00527 0.03952
v 0.02108 0.02108 0.02635
v -0.00000 0.01581 0.02108
v -0.05533 0.02371 0.03952
v 0.02371 -0.00527 0.03689
v -0.02633 -0.00527 0.03162
v -0.05006 0.02635 0.03162
v 0.01580 0.01844 0.04216
v -0.05006 0.01054 0.03952
v 0.01054 0.02635 0.02108
v 0.02371 0.01844 0.03425
v -0.00527 0.01054 0.04216
v -0.00263 -0.00527 0.02899
v -0.05269 0.02371 0.02899
v -0.05797 0.01581 0.03425
v -0.00263 0.02108 0.04216
v 0.00790 -0.00527 0.03952
v 0.01317 0.01844 0.02108
v -0.00263 0.02898 0.02899
v 0.01580 0.02635 0.03162
v 0.02108 0.01844 0.03952
v -0.05006 0.02635 0.03689
v -0.05269 0.01054 0.03425
v 0.02635 -0.00263 0.03425
v -0.05797 0.02371 0.03162
v -0.05533 0.01581 0.03952
v 0.00527 0.00791 0.04216
v -0.02898 -0.00527 0.03689
v 0.02371 0.01844 0.02899
v 0.01844 0.02371 0.03689
v 0.01054 0.01581 0.02108
v -0.05269 0.01054 0.03689
v 0.01317 0.02371 0.03952
v -0.00263 0.01844 0.02108
v -0.05533 -0.02635 -0.03952
v -0.05006 -0.02108 -0.03425
v -0.05006 -0.02371 -0.03425
v -0.05006 -0.02108 -0.03952
v -0.05533 -0.02108 -0.03425
v -0.02635 -0.02898 -0.01317
v -0.05270 -0.02635 -0.02108
v -0.05270 -0.02372 -0.02108
v -0.05533 -0.02635 -0.01317
v -0.02635 -0.02108 -0.01317
v -0.02635 -0.02898 -0.01844
v -0.05533 -0.02108 -0.01317
v -0.04216 -0.02108 -0.02108
v -0.05006 -0.02898 -0.02108
v -0.02635 -0.02108 -0.01844
v -0.04743 -0.02898 -0.01317
v -0.05533 -0.02108 -0.01844
v -0.03952 -0.02635 -0.02108
v -0.04216 0.02898 0.01317
v -0.05797 0.00527 0.01054
v -0.05269 0.01581 0.00791
v -0.03425 0.01844 0.01054
v -0.04743 0.00264 0.01581
v -0.05797 0.02371 0.01581
v -0.05533 0.02898 0.00791
v -0.03425 0.02371 0.01581
v -0.05006 -0.00263 0.01054
v -0.03689 0.02898 0.00791
v -0.05533 0.00264 0.01581
v -0.04216 0.01581 0.00791
v -0.05533 -0.00263 0.01317
v -0.05269 0.02634 0.01581
v -0.05797 0.00791 0.01581
v -0.05797 0.02371 0.01054
v -0.03425 0.01844 0.01317
v -0.05533 -0.00263 0.01054
v -0.04743 0.00000 0.01317
v 0.00000 -0.00527 0.00791
v 0.00264 0.01054 0.01581
v 0.00264 0.01054 0.01054
v -0.00263 0.01054 0.01054
v -0.00263 -0.00527 0.01581
v 0.00264 -0.00527 0.01581
v 0.00264 -0.00263 0.00791
v 0.00000 0.01054 0.01581
v -0.00263 -0.00527 0.01054
v 0.00790 0.02635 0.02108
v -0.00000 0.01844 0.00264
v -0.00264 0.01054 0.00791
v -0.03425 0.02371 0.01317
v -0.00264 0.01581 0.02108
v -0.02898 0.01318 0.01054
v 0.00263 0.02635 0.00791
v 0.00527 0.01054 0.01317
v 0.00790 0.01581 0.00791
v -0.03425 0.02371 0.01054
v -0.03161 0.01844 0.01581
v -0.00264 0.02635 0.02108
v 0.01053 0.01844 0.02108
v -0.00264 0.01054 0.01581
v 0.00790 0.02371 0.00791
v -0.00791 0.02635 0.00791
v -0.02898 0.01318 0.01317
v 0.00263 0.02108 0.00264
v -0.03161 0.02371 0.01581
v -0.01317 0.02635 0.01581
v 0.00790 0.01581 0.02108
v 0.00263 0.01054 0.00791
v 0.01053 0.02371 0.01844
v -0.00527 0.01844 0.02108
v -0.03425 0.02108 0.01054
f 278 292 317 
f 282 277 284 
f 283 281 287 
f 287 277 289 
f 283 287 289 
f 288 280 291 
f 278 284 292 
f 284 278 293 
f 282 284 293 
f 280 288 294 
f 281 283 296 
f 286 281 296 
f 287 281 297 
f 285 287 297 
f 295 290 298 
f 281 291 299 
f 291 280 299 
f 284 277 300 
f 277 282 301 
f 279 292 302 
f 292 288 302 
f 281 286 303 
f 291 281 303 
f 288 291 303 
f 286 302 303 
f 302 288 303 
f 293 278 304 
f 282 293 304 
f 298 282 304 
f 289 277 305 
f 277 301 305 
f 301 289 305 
f 278 279 306 
f 304 278 306 
f 298 304 306 
f 297 281 307 
f 281 299 307 
f 299 297 307 
f 296 295 308 
f 286 296 308 
f 279 302 308 
f 302 286 308 
f 292 284 309 
f 288 292 309 
f 284 294 309 
f 294 288 309 
f 280 294 310 
f 294 285 310 
f 285 297 310 
f 299 280 310 
f 297 299 310 
f 277 287 311 
f 287 285 311 
f 300 277 311 
f 285 300 311 
f 282 298 312 
f 298 290 312 
f 301 282 312 
f 289 301 312 
f 283 289 313 
f 290 283 313 
f 289 312 313 
f 312 290 313 
f 285 294 314 
f 294 284 314 
f 284 300 314 
f 300 285 314 
f 283 290 315 
f 290 295 315 
f 295 296 315 
f 296 283 315 
f 295 298 316 
f 306 279 316 
f 298 306 316 
f 279 308 316 
f 308 295 316 
f 279 278 317 
f 292 279 317 
