# Original object name hint: convex_4
v 0.07641 0.02897 -0.06587
v 0.06851 -0.04479 -0.01316
v 0.07378 -0.04479 -0.01316
v 0.06588 0.01580 0.07641
v 0.05533 0.01843 -0.07641
v 0.08168 0.00262 0.06850
v 0.07641 0.04479 0.01316
v 0.05533 -0.02371 -0.07113
v 0.08168 -0.02634 -0.04216
v 0.08432 0.02897 0.00263
v 0.07378 -0.02371 -0.07113
v 0.06324 -0.03952 0.00263
v 0.07905 -0.03424 0.03161
v 0.07114 -0.01317 0.07113
v 0.06851 0.04215 -0.01578
v 0.07905 0.02107 0.07113
v 0.08432 -0.00790 0.02370
v 0.05533 0.02370 -0.06587
v 0.08168 0.01580 -0.05269
v 0.06851 0.04215 0.00790
v 0.07641 0.00525 -0.07377
v 0.07641 -0.04215 -0.03161
v 0.08168 -0.03424 0.01843
v 0.06588 0.00525 0.07641
v 0.07114 -0.04215 0.01578
v 0.08432 0.02634 0.02633
v 0.06588 0.02897 -0.07113
v 0.07641 0.04479 -0.01052
v 0.06061 -0.03688 -0.01052
v 0.08432 0.00790 -0.01578
v 0.06061 -0.02898 -0.06850
v 0.07641 -0.01317 0.07113
v 0.08168 0.02897 -0.03952
v 0.05533 -0.02371 -0.06587
v 0.07641 0.02107 -0.07377
v 0.06851 0.00262 -0.07641
v 0.07905 0.04215 0.02108
v 0.07641 0.00262 0.07641
v 0.08168 -0.02371 0.04214
v 0.07641 -0.04479 0.00263
v 0.08168 -0.03424 -0.01843
v 0.07641 -0.02634 -0.06587
v 0.05797 0.02634 -0.07377
v 0.07378 0.04215 0.02108
v 0.07905 -0.01053 -0.06323
v 0.08168 0.01843 0.06587
v 0.06061 -0.03688 -0.02896
v 0.07114 -0.02898 -0.06850
v 0.07905 0.04215 -0.00790
v 0.06851 -0.04215 -0.03161
v 0.07114 0.04479 -0.01052
v 0.07905 -0.03952 -0.03161
v 0.07378 0.02897 -0.07113
v 0.08432 0.00525 0.03423
v 0.08432 -0.00525 0.00000
v 0.06851 -0.04479 0.00525
v 0.06588 0.02107 -0.07641
v 0.07114 0.04479 0.01052
v 0.08168 0.03687 0.02108
v 0.07641 0.01580 0.07641
v 0.07378 0.02107 0.07113
v 0.07905 0.03424 -0.04216
v 0.06324 -0.01580 -0.07377
v 0.05533 0.00790 -0.07641
v -0.08166 -0.01580 -0.06587
v -0.07113 0.03425 -0.05533
v -0.06586 0.03161 -0.05533
v 0.05531 0.01844 -0.07641
v 0.00527 -0.03162 -0.06060
v -0.07113 0.02635 -0.07641
v -0.01054 -0.02634 -0.07641
v -0.07640 -0.03162 -0.05533
v 0.05531 0.02107 -0.06587
v 0.05531 -0.02371 -0.07114
v -0.06322 -0.03162 -0.07114
v -0.00265 0.03161 -0.07378
v -0.08166 0.02107 -0.05533
v 0.01843 -0.03162 -0.07378
v 0.05531 -0.02371 -0.06587
v -0.07376 -0.01844 -0.07378
v -0.07640 0.03161 -0.06850
v -0.06059 -0.03162 -0.05533
v 0.01316 -0.02634 -0.07641
v 0.05531 0.02371 -0.06850
v -0.06849 0.00526 -0.07641
v -0.07640 0.02107 -0.07378
v -0.08166 -0.02108 -0.05533
v -0.07640 -0.02898 -0.06587
v -0.06322 0.02898 -0.05533
v -0.00265 0.03161 -0.06850
v 0.05531 0.01054 -0.07641
v 0.02633 -0.03162 -0.06850
v 0.05531 0.02371 -0.07378
v -0.00001 0.02635 -0.07641
v -0.07376 0.03161 -0.07114
v -0.07903 0.02371 -0.06850
v -0.07376 0.03425 -0.05797
v -0.07640 -0.00527 -0.07378
v -0.07640 -0.02371 -0.07114
v -0.03161 0.03161 -0.07378
v -0.07113 -0.02108 -0.07378
v -0.01843 -0.03162 -0.07378
v -0.02634 -0.02108 -0.07641
v -0.08166 0.01054 -0.06324
v -0.07903 0.02898 -0.05533
v -0.08166 -0.02108 -0.06324
v -0.07113 -0.03162 -0.06850
v 0.00527 -0.02898 -0.06060
v 0.02370 -0.03162 -0.06587
v -0.06059 -0.01580 -0.05533
v -0.07903 0.02898 -0.06324
v -0.08166 -0.00262 -0.06587
v -0.07113 0.01054 -0.07641
v 0.02633 -0.03162 -0.07114
v -0.07378 -0.03424 -0.04742
v -0.06851 0.03687 -0.00264
v -0.07641 0.03687 -0.00264
v -0.07641 0.03424 -0.05533
v -0.05534 -0.02898 -0.03425
v -0.08168 -0.02634 -0.00264
v -0.06588 0.03161 -0.05533
v -0.05534 -0.02107 -0.01318
v -0.08168 0.02107 -0.05533
v -0.06061 -0.02634 -0.05533
v -0.08168 -0.02371 -0.05533
v -0.06851 -0.03160 -0.00264
v -0.06324 0.03687 -0.03425
v -0.08168 0.02371 -0.00264
v -0.05534 -0.02107 -0.04215
v -0.07378 0.04216 -0.03425
v -0.07378 -0.03689 -0.02108
v -0.06588 0.03424 -0.00264
v -0.06588 -0.03424 -0.05269
v -0.06324 0.03424 -0.01318
v -0.07904 0.03161 -0.05006
v -0.06851 -0.03689 -0.02108
v -0.07904 -0.03160 -0.04215
v -0.06851 0.04216 -0.03425
v -0.06588 -0.02898 -0.00264
v -0.05534 -0.02634 -0.01581
v -0.07904 -0.03160 -0.00528
v -0.05797 -0.03160 -0.04479
v -0.07641 -0.03160 -0.05533
v -0.06324 0.03424 -0.04215
v -0.06851 0.04216 -0.02636
v -0.07378 -0.03689 -0.03161
v -0.06851 0.03424 -0.05533
v -0.06588 0.03951 -0.01845
v -0.06324 -0.03424 -0.02372
v -0.08168 0.02371 -0.05269
v -0.07904 0.03161 -0.00264
v -0.08168 -0.02634 -0.04742
v -0.05534 -0.02898 -0.04215
v -0.06324 -0.03160 -0.05533
v -0.06588 0.03951 -0.03952
v -0.06851 -0.03689 -0.03161
v -0.06324 0.03687 -0.02372
v -0.07378 0.04216 -0.02636
v -0.07641 -0.03160 -0.00264
v -0.06061 -0.02371 -0.05533
v -0.06851 -0.03424 -0.01055
v -0.06324 0.03161 -0.01055
v -0.06324 0.03161 -0.04479
v -0.08168 -0.02898 0.03425
v -0.06587 0.02898 0.03952
v -0.06851 0.03689 0.00791
v -0.05797 -0.02898 0.01055
v -0.08168 0.02635 -0.00263
v -0.07905 -0.03162 -0.00263
v -0.08432 0.01844 0.03688
v -0.06587 -0.02635 0.03952
v -0.06587 0.03425 -0.00263
v -0.05797 0.02371 0.03688
v -0.05797 0.02371 0.01055
v -0.06587 -0.02635 -0.00263
v -0.08432 -0.01844 0.02635
v -0.07641 0.03689 0.00791
v -0.08432 -0.00263 0.03952
v -0.06587 -0.03162 0.03425
v -0.07641 0.02898 0.03952
v -0.08168 -0.02635 -0.00263
v -0.06324 -0.02635 0.03688
v -0.05797 -0.01581 0.00791
v -0.08168 -0.02635 0.03952
v -0.05797 -0.02635 0.01844
v -0.06851 -0.03162 -0.00263
v -0.08168 0.02635 0.03688
v -0.07641 0.03689 -0.00263
v -0.08432 0.01317 0.02371
v -0.07905 -0.03162 0.03425
v -0.07378 0.03162 0.03688
v -0.08168 0.02898 0.00791
v -0.08432 -0.02108 0.03688
v -0.05797 0.01844 0.03688
v -0.06324 -0.03162 0.00791
v -0.06324 0.01580 0.03952
v -0.08168 -0.02898 0.00527
v -0.07905 -0.02898 0.03952
v -0.08168 0.02108 0.03952
v -0.05797 -0.02635 0.00791
v -0.06851 0.03689 -0.00263
v -0.08432 0.01844 0.02635
v -0.07905 0.02898 0.03688
v -0.07114 -0.03162 0.03688
v -0.06060 0.02635 0.03688
v -0.08432 -0.01317 0.02371
v -0.07114 0.03162 0.03688
v -0.00526 -0.03689 -0.01844
v 0.00790 0.00000 -0.01581
v 0.00790 0.00000 -0.01844
v 0.03162 -0.02898 -0.00791
v -0.01317 -0.02371 -0.00527
v -0.02107 0.00000 -0.01844
v 0.00790 -0.03162 -0.02371
v -0.02634 -0.02898 -0.01844
v -0.01843 0.00000 -0.01054
v -0.00263 -0.02898 -0.00263
v 0.00264 0.00000 -0.01054
v -0.02634 -0.02635 -0.01054
v -0.01580 0.00000 -0.02108
v 0.02634 -0.02635 -0.01581
v -0.01317 -0.03425 -0.00791
v 0.00527 -0.02371 -0.00263
v 0.00527 0.00000 -0.02108
v -0.00526 -0.03162 -0.02371
v 0.00790 -0.03425 -0.00791
v 0.03162 -0.02635 -0.00791
v 0.02371 -0.03162 -0.01581
v 0.00790 -0.02371 -0.02371
v 0.00264 -0.03689 -0.01317
v -0.02634 -0.02107 -0.01054
v 0.00527 -0.03425 -0.02371
v -0.02634 -0.01845 -0.01844
v -0.00263 -0.02371 -0.00263
v -0.01843 -0.02635 -0.02108
v -0.01317 -0.03162 -0.00527
v -0.00263 -0.02107 -0.02371
v 0.03162 -0.02635 -0.01054
v 0.00527 -0.02898 -0.00263
v -0.02107 0.00000 -0.01317
v 0.00264 -0.03689 -0.01844
v 0.02371 -0.03162 -0.00791
v -0.02107 -0.03162 -0.01054
v -0.01053 -0.03425 -0.02108
v 0.02107 -0.02635 -0.01844
v 0.00790 0.02898 -0.02372
v -0.00001 0.02108 -0.04743
v -0.00264 0.01845 -0.04479
v -0.03689 0.02898 -0.03162
v 0.00263 0.01317 -0.02372
v 0.00263 0.02898 -0.04216
v -0.01580 0.01581 -0.02372
v -0.01844 0.03162 -0.02372
v 0.00790 0.01845 -0.03952
v -0.03689 0.02635 -0.03426
v -0.00791 0.01581 -0.03689
v 0.01053 0.01845 -0.02372
v -0.00264 0.03162 -0.03162
v -0.03689 0.02898 -0.03426
v 0.00790 0.02371 -0.04216
v -0.00528 0.02635 -0.04479
v 0.00263 0.01581 -0.03952
v -0.02107 0.02108 -0.02372
v -0.01580 0.03162 -0.03162
v 0.01053 0.02635 -0.02635
v -0.00001 0.03162 -0.02372
v 0.00526 0.02898 -0.03952
v -0.00264 0.01317 -0.02635
v -0.00528 0.02898 -0.04216
v -0.01844 0.01845 -0.03426
v 0.00526 0.01845 -0.04479
v 0.00263 0.02371 -0.04743
v -0.03689 0.02635 -0.03162
v -0.01580 0.01581 -0.02635
v 0.00790 0.01581 -0.02635
v -0.02107 0.02898 -0.02372
v -0.00791 0.00791 -0.02371
v -0.00001 0.03162 -0.01318
v 0.00263 0.02898 -0.00791
v -0.05269 0.02635 -0.01581
v -0.01845 0.00000 -0.01054
v 0.01317 0.02371 -0.02371
v 0.00526 0.00000 -0.01318
v -0.02370 0.03162 -0.02371
v -0.05006 0.02107 -0.02108
v -0.00264 0.02107 -0.00527
v -0.01582 0.00000 -0.02108
v -0.05006 0.02898 -0.01318
v 0.00526 0.00000 -0.02108
v 0.01580 0.01844 -0.01844
v -0.05006 0.02107 -0.01318
v -0.02897 0.03162 -0.01054
v -0.00001 0.03162 -0.02371
v -0.05006 0.02898 -0.02108
v 0.00526 0.01844 -0.00791
v 0.00263 0.00000 -0.01054
v -0.02107 0.00000 -0.01844
v 0.01580 0.02371 -0.01844
v -0.05269 0.02107 -0.01581
v -0.02634 0.01844 -0.02371
v 0.01317 0.01844 -0.02371
v -0.01845 0.02898 -0.00791
v -0.03688 0.02371 -0.01054
v 0.00790 0.02898 -0.02371
v 0.00263 0.00791 -0.02371
v 0.01053 0.02635 -0.01318
v -0.02107 0.00000 -0.01318
v -0.00001 0.02371 -0.00527
v -0.03161 0.03162 -0.01844
v -0.05269 0.02107 -0.01844
v -0.01582 0.01054 -0.02371
v 0.01580 0.01844 -0.02108
v 0.00790 0.00264 -0.01844
v -0.02897 0.02635 -0.02371
v 0.00790 0.01581 -0.01054
v 0.00526 0.02635 -0.00791
v -0.00528 0.03162 -0.01054
v -0.01581 -0.03162 0.00527
v 0.00262 -0.00527 0.01581
v 0.00262 -0.00527 0.00791
v -0.05797 -0.01318 0.01581
v 0.01580 -0.02635 0.02108
v -0.05006 -0.02898 0.01844
v -0.05797 -0.01581 0.00791
v 0.01580 -0.02898 0.00264
v 0.02635 -0.02898 0.01581
v -0.05797 -0.02635 0.00791
v -0.00263 -0.01845 0.00264
v -0.05269 -0.00791 0.01054
v -0.00527 -0.02108 0.02108
v 0.00527 -0.03162 0.01581
v -0.01318 -0.03162 0.00264
v 0.02371 -0.02371 0.00791
v -0.05533 -0.01845 0.01844
v 0.01844 -0.03162 0.00791
v -0.00263 -0.02898 0.02108
v -0.05797 -0.02635 0.01844
v -0.00791 -0.01054 0.01844
v 0.01580 -0.02108 0.02108
v -0.05533 -0.01054 0.01581
v -0.05269 -0.02898 0.01054
v 0.00527 -0.01054 0.00527
v 0.02635 -0.02635 0.01581
v -0.01318 -0.03162 0.01581
v -0.00263 -0.01054 0.00527
v 0.01317 -0.02371 0.00264
v 0.02371 -0.02898 0.00791
v -0.05269 -0.00791 0.01317
v 0.02108 -0.02371 0.00527
v -0.01318 -0.02635 0.00264
v -0.00263 -0.00527 0.01581
v 0.00527 -0.03162 0.00264
v -0.00263 -0.00527 0.00791
v -0.05006 -0.02898 0.00791
v -0.05269 -0.02898 0.02899
v 0.02897 -0.00527 0.03425
v 0.03161 -0.01581 0.03162
v -0.04215 -0.02635 0.03952
v -0.02634 -0.00527 0.03162
v 0.01580 -0.02635 0.02108
v 0.02371 -0.00527 0.02635
v -0.05005 -0.02108 0.02635
v -0.02371 -0.00527 0.03952
v 0.00263 -0.02898 0.03162
v 0.02107 -0.01581 0.03689
v -0.05533 -0.02371 0.03689
v 0.00526 -0.00527 0.03952
v 0.02634 -0.02108 0.03425
v 0.01316 -0.02108 0.02108
v 0.03161 -0.02108 0.02635
v 0.01053 -0.00527 0.02635
v -0.05005 -0.02898 0.02635
v -0.05005 -0.02898 0.03689
v -0.02634 -0.02371 0.03952
v 0.02634 -0.02371 0.03162
v -0.05005 -0.02108 0.03952
v -0.00001 -0.02898 0.02635
v 0.02897 -0.01054 0.02635
v -0.05269 -0.02108 0.03689
v -0.05269 -0.02108 0.02899
v 0.02371 -0.00527 0.03689
v -0.05269 -0.02635 0.02635
v 0.00263 -0.01054 0.03952
v 0.02897 -0.01844 0.03425
v 0.02897 -0.00527 0.02899
v 0.01580 -0.02108 0.02108
v 0.01053 -0.02635 0.02108
v -0.02634 -0.00527 0.03689
v -0.03687 -0.02898 0.03689
v 0.03161 -0.02108 0.03162
v -0.05533 -0.02371 0.02899
v -0.05533 -0.02635 0.03689
v -0.05005 -0.02635 0.03952
v 0.00789 -0.02108 0.03689
v -0.02898 -0.00527 0.03425
v 0.00262 0.02898 0.03425
v 0.01054 0.02635 0.03689
v 0.02635 -0.00527 0.02899
v -0.00263 0.02635 0.02108
v -0.05797 0.02371 0.03689
v 0.01580 0.01054 0.04216
v -0.05269 0.01581 0.02899
v -0.02371 -0.00527 0.03952
v 0.02108 0.02108 0.02635
v -0.00000 0.01581 0.02108
v -0.05533 0.02371 0.03952
v 0.02371 -0.00527 0.03689
v -0.02633 -0.00527 0.03162
v -0.05006 0.02635 0.03162
v 0.01580 0.01844 0.04216
v -0.05006 0.01054 0.03952
v 0.01054 0.02635 0.02108
v 0.02371 0.01844 0.03425
v -0.00527 0.01054 0.04216
v -0.00263 -0.00527 0.02899
v -0.05269 0.02371 0.02899
v -0.05797 0.01581 0.03425
v -0.00263 0.02108 0.04216
v 0.00790 -0.00527 0.03952
v 0.01317 0.01844 0.02108
v -0.00263 0.02898 0.02899
v 0.01580 0.02635 0.03162
v 0.02108 0.01844 0.03952
v -0.05006 0.02635 0.03689
v -0.05269 0.01054 0.03425
v 0.02635 -0.00263 0.03425
v -0.05797 0.02371 0.03162
v -0.05533 0.01581 0.03952
v 0.00527 0.00791 0.04216
v -0.02898 -0.00527 0.03689
v 0.02371 0.01844 0.02899
v 0.01844 0.02371 0.03689
v 0.01054 0.01581 0.02108
v -0.05269 0.01054 0.03689
v 0.01317 0.02371 0.03952
v -0.00263 0.01844 0.02108
v -0.05533 -0.02635 -0.03952
v -0.05006 -0.02108 -0.03425
v -0.05006 -0.02371 -0.03425
v -0.05006 -0.02108 -0.03952
v -0.05533 -0.02108 -0.03425
v -0.02635 -0.02898 -0.01317
v -0.05270 -0.02635 -0.02108
v -0.05270 -0.02372 -0.02108
v -0.05533 -0.02635 -0.01317
v -0.02635 -0.02108 -0.01317
v -0.02635 -0.02898 -0.01844
v -0.05533 -0.02108 -0.01317
v -0.04216 -0.02108 -0.02108
v -0.05006 -0.02898 -0.02108
v -0.02635 -0.02108 -0.01844
v -0.04743 -0.02898 -0.01317
v -0.05533 -0.02108 -0.01844
v -0.03952 -0.02635 -0.02108
v -0.04216 0.02898 0.01317
v -0.05797 0.00527 0.01054
v -0.05269 0.01581 0.00791
v -0.03425 0.01844 0.01054
v -0.04743 0.00264 0.01581
v -0.05797 0.02371 0.01581
v -0.05533 0.02898 0.00791
v -0.03425 0.02371 0.01581
v -0.05006 -0.00263 0.01054
v -0.03689 0.02898 0.00791
v -0.05533 0.00264 0.01581
v -0.04216 0.01581 0.00791
v -0.05533 -0.00263 0.01317
v -0.05269 0.02634 0.01581
v -0.05797 0.00791 0.01581
v -0.05797 0.02371 0.01054
v -0.03425 0.01844 0.01317
v -0.05533 -0.00263 0.01054
v -0.04743 0.00000 0.01317
v 0.00000 -0.00527 0.00791
v 0.00264 0.01054 0.01581
v 0.00264 0.01054 0.01054
v -0.00263 0.01054 0.01054
v -0.00263 -0.00527 0.01581
v 0.00264 -0.00527 0.01581
v 0.00264 -0.00263 0.00791
v 0.00000 0.01054 0.01581
v -0.00263 -0.00527 0.01054
v 0.00790 0.02635 0.02108
v -0.00000 0.01844 0.00264
v -0.00264 0.01054 0.00791
v -0.03425 0.02371 0.01317
v -0.00264 0.01581 0.02108
v -0.02898 0.01318 0.01054
v 0.00263 0.02635 0.00791
v 0.00527 0.01054 0.01317
v 0.00790 0.01581 0.00791
v -0.03425 0.02371 0.01054
v -0.03161 0.01844 0.01581
v -0.00264 0.02635 0.02108
v 0.01053 0.01844 0.02108
v -0.00264 0.01054 0.01581
v 0.00790 0.02371 0.00791
v -0.00791 0.02635 0.00791
v -0.02898 0.01318 0.01317
v 0.00263 0.02108 0.00264
v -0.03161 0.02371 0.01581
v -0.01317 0.02635 0.01581
v 0.00790 0.01581 0.02108
v 0.00263 0.01054 0.00791
v 0.01053 0.02371 0.01844
v -0.00527 0.01844 0.02108
v -0.03425 0.02108 0.01054
f 229 224 245 
f 209 210 213 
f 209 213 216 
f 209 216 218 
f 213 210 220 
f 218 216 223 
f 220 210 224 
f 217 222 226 
f 210 209 227 
f 209 218 227 
f 223 211 227 
f 218 223 227 
f 214 221 228 
f 214 225 229 
f 222 208 230 
f 226 222 230 
f 212 216 231 
f 215 219 231 
f 219 212 231 
f 225 214 232 
f 214 228 232 
f 213 220 233 
f 215 231 233 
f 216 212 234 
f 212 217 234 
f 223 216 234 
f 217 223 234 
f 225 215 235 
f 220 225 235 
f 233 220 235 
f 215 233 235 
f 217 212 236 
f 212 219 236 
f 222 217 236 
f 220 224 237 
f 225 220 237 
f 224 229 237 
f 229 225 237 
f 224 210 238 
f 221 224 238 
f 210 227 238 
f 227 211 238 
f 211 228 238 
f 228 221 238 
f 223 217 239 
f 211 223 239 
f 217 226 239 
f 216 213 240 
f 231 216 240 
f 213 233 240 
f 233 231 240 
f 230 208 241 
f 228 230 241 
f 208 232 241 
f 232 228 241 
f 228 211 242 
f 226 230 242 
f 230 228 242 
f 211 239 242 
f 239 226 242 
f 215 208 243 
f 219 215 243 
f 208 222 243 
f 236 219 243 
f 222 236 243 
f 208 215 244 
f 215 225 244 
f 232 208 244 
f 225 232 244 
f 221 214 245 
f 224 221 245 
f 214 229 245 
