# Original object name hint: convex_3
v 0.07641 0.02897 -0.06587
v 0.06851 -0.04479 -0.01316
v 0.07378 -0.04479 -0.01316
v 0.06588 0.01580 0.07641
v 0.05533 0.01843 -0.07641
v 0.08168 0.00262 0.06850
v 0.07641 0.04479 0.01316
v 0.05533 -0.02371 -0.07113
v 0.08168 -0.02634 -0.04216
v 0.08432 0.02897 0.00263
v 0.07378 -0.02371 -0.07113
v 0.06324 -0.03952 0.00263
v 0.07905 -0.03424 0.03161
v 0.07114 -0.01317 0.07113
v 0.06851 0.04215 -0.01578
v 0.07905 0.02107 0.07113
v 0.08432 -0.00790 0.02370
v 0.05533 0.02370 -0.06587
v 0.08168 0.01580 -0.05269
v 0.06851 0.04215 0.00790
v 0.07641 0.00525 -0.07377
v 0.07641 -0.04215 -0.03161
v 0.08168 -0.03424 0.01843
v 0.06588 0.00525 0.07641
v 0.07114 -0.04215 0.01578
v 0.08432 0.02634 0.02633
v 0.06588 0.02897 -0.07113
v 0.07641 0.04479 -0.01052
v 0.06061 -0.03688 -0.01052
v 0.08432 0.00790 -0.01578
v 0.06061 -0.02898 -0.06850
v 0.07641 -0.01317 0.07113
v 0.08168 0.02897 -0.03952
v 0.05533 -0.02371 -0.06587
v 0.07641 0.02107 -0.07377
v 0.06851 0.00262 -0.07641
v 0.07905 0.04215 0.02108
v 0.07641 0.00262 0.07641
v 0.08168 -0.02371 0.04214
v 0.07641 -0.04479 0.00263
v 0.08168 -0.03424 -0.01843
v 0.07641 -0.02634 -0.06587
v 0.05797 0.02634 -0.07377
v 0.07378 0.04215 0.02108
v 0.07905 -0.01053 -0.06323
v 0.08168 0.01843 0.06587
v 0.06061 -0.03688 -0.02896
v 0.07114 -0.02898 -0.06850
v 0.07905 0.04215 -0.00790
v 0.06851 -0.04215 -0.03161
v 0.07114 0.04479 -0.01052
v 0.07905 -0.03952 -0.03161
v 0.07378 0.02897 -0.07113
v 0.08432 0.00525 0.03423
v 0.08432 -0.00525 0.00000
v 0.06851 -0.04479 0.00525
v 0.06588 0.02107 -0.07641
v 0.07114 0.04479 0.01052
v 0.08168 0.03687 0.02108
v 0.07641 0.01580 0.07641
v 0.07378 0.02107 0.07113
v 0.07905 0.03424 -0.04216
v 0.06324 -0.01580 -0.07377
v 0.05533 0.00790 -0.07641
v -0.08166 -0.01580 -0.06587
v -0.07113 0.03425 -0.05533
v -0.06586 0.03161 -0.05533
v 0.05531 0.01844 -0.07641
v 0.00527 -0.03162 -0.06060
v -0.07113 0.02635 -0.07641
v -0.01054 -0.02634 -0.07641
v -0.07640 -0.03162 -0.05533
v 0.05531 0.02107 -0.06587
v 0.05531 -0.02371 -0.07114
v -0.06322 -0.03162 -0.07114
v -0.00265 0.03161 -0.07378
v -0.08166 0.02107 -0.05533
v 0.01843 -0.03162 -0.07378
v 0.05531 -0.02371 -0.06587
v -0.07376 -0.01844 -0.07378
v -0.07640 0.03161 -0.06850
v -0.06059 -0.03162 -0.05533
v 0.01316 -0.02634 -0.07641
v 0.05531 0.02371 -0.06850
v -0.06849 0.00526 -0.07641
v -0.07640 0.02107 -0.07378
v -0.08166 -0.02108 -0.05533
v -0.07640 -0.02898 -0.06587
v -0.06322 0.02898 -0.05533
v -0.00265 0.03161 -0.06850
v 0.05531 0.01054 -0.07641
v 0.02633 -0.03162 -0.06850
v 0.05531 0.02371 -0.07378
v -0.00001 0.02635 -0.07641
v -0.07376 0.03161 -0.07114
v -0.07903 0.02371 -0.06850
v -0.07376 0.03425 -0.05797
v -0.07640 -0.00527 -0.07378
v -0.07640 -0.02371 -0.07114
v -0.03161 0.03161 -0.07378
v -0.07113 -0.02108 -0.07378
v -0.01843 -0.03162 -0.07378
v -0.02634 -0.02108 -0.07641
v -0.08166 0.01054 -0.06324
v -0.07903 0.02898 -0.05533
v -0.08166 -0.02108 -0.06324
v -0.07113 -0.03162 -0.06850
v 0.00527 -0.02898 -0.06060
v 0.02370 -0.03162 -0.06587
v -0.06059 -0.01580 -0.05533
v -0.07903 0.02898 -0.06324
v -0.08166 -0.00262 -0.06587
v -0.07113 0.01054 -0.07641
v 0.02633 -0.03162 -0.07114
v -0.07378 -0.03424 -0.04742
v -0.06851 0.03687 -0.00264
v -0.07641 0.03687 -0.00264
v -0.07641 0.03424 -0.05533
v -0.05534 -0.02898 -0.03425
v -0.08168 -0.02634 -0.00264
v -0.06588 0.03161 -0.05533
v -0.05534 -0.02107 -0.01318
v -0.08168 0.02107 -0.05533
v -0.06061 -0.02634 -0.05533
v -0.08168 -0.02371 -0.05533
v -0.06851 -0.03160 -0.00264
v -0.06324 0.03687 -0.03425
v -0.08168 0.02371 -0.00264
v -0.05534 -0.02107 -0.04215
v -0.07378 0.04216 -0.03425
v -0.07378 -0.03689 -0.02108
v -0.06588 0.03424 -0.00264
v -0.06588 -0.03424 -0.05269
v -0.06324 0.03424 -0.01318
v -0.07904 0.03161 -0.05006
v -0.06851 -0.03689 -0.02108
v -0.07904 -0.03160 -0.04215
v -0.06851 0.04216 -0.03425
v -0.06588 -0.02898 -0.00264
v -0.05534 -0.02634 -0.01581
v -0.07904 -0.03160 -0.00528
v -0.05797 -0.03160 -0.04479
v -0.07641 -0.03160 -0.05533
v -0.06324 0.03424 -0.04215
v -0.06851 0.04216 -0.02636
v -0.07378 -0.03689 -0.03161
v -0.06851 0.03424 -0.05533
v -0.06588 0.03951 -0.01845
v -0.06324 -0.03424 -0.02372
v -0.08168 0.02371 -0.05269
v -0.07904 0.03161 -0.00264
v -0.08168 -0.02634 -0.04742
v -0.05534 -0.02898 -0.04215
v -0.06324 -0.03160 -0.05533
v -0.06588 0.03951 -0.03952
v -0.06851 -0.03689 -0.03161
v -0.06324 0.03687 -0.02372
v -0.07378 0.04216 -0.02636
v -0.07641 -0.03160 -0.00264
v -0.06061 -0.02371 -0.05533
v -0.06851 -0.03424 -0.01055
v -0.06324 0.03161 -0.01055
v -0.06324 0.03161 -0.04479
v -0.08168 -0.02898 0.03425
v -0.06587 0.02898 0.03952
v -0.06851 0.03689 0.00791
v -0.05797 -0.02898 0.01055
v -0.08168 0.02635 -0.00263
v -0.07905 -0.03162 -0.00263
v -0.08432 0.01844 0.03688
v -0.06587 -0.02635 0.03952
v -0.06587 0.03425 -0.00263
v -0.05797 0.02371 0.03688
v -0.05797 0.02371 0.01055
v -0.06587 -0.02635 -0.00263
v -0.08432 -0.01844 0.02635
v -0.07641 0.03689 0.00791
v -0.08432 -0.00263 0.03952
v -0.06587 -0.03162 0.03425
v -0.07641 0.02898 0.03952
v -0.08168 -0.02635 -0.00263
v -0.06324 -0.02635 0.03688
v -0.05797 -0.01581 0.00791
v -0.08168 -0.02635 0.03952
v -0.05797 -0.02635 0.01844
v -0.06851 -0.03162 -0.00263
v -0.08168 0.02635 0.03688
v -0.07641 0.03689 -0.00263
v -0.08432 0.01317 0.02371
v -0.07905 -0.03162 0.03425
v -0.07378 0.03162 0.03688
v -0.08168 0.02898 0.00791
v -0.08432 -0.02108 0.03688
v -0.05797 0.01844 0.03688
v -0.06324 -0.03162 0.00791
v -0.06324 0.01580 0.03952
v -0.08168 -0.02898 0.00527
v -0.07905 -0.02898 0.03952
v -0.08168 0.02108 0.03952
v -0.05797 -0.02635 0.00791
v -0.06851 0.03689 -0.00263
v -0.08432 0.01844 0.02635
v -0.07905 0.02898 0.03688
v -0.07114 -0.03162 0.03688
v -0.06060 0.02635 0.03688
v -0.08432 -0.01317 0.02371
v -0.07114 0.03162 0.03688
v -0.00526 -0.03689 -0.01844
v 0.00790 0.00000 -0.01581
v 0.00790 0.00000 -0.01844
v 0.03162 -0.02898 -0.00791
v -0.01317 -0.02371 -0.00527
v -0.02107 0.00000 -0.01844
v 0.00790 -0.03162 -0.02371
v -0.02634 -0.02898 -0.01844
v -0.01843 0.00000 -0.01054
v -0.00263 -0.02898 -0.00263
v 0.00264 0.00000 -0.01054
v -0.02634 -0.02635 -0.01054
v -0.01580 0.00000 -0.02108
v 0.02634 -0.02635 -0.01581
v -0.01317 -0.03425 -0.00791
v 0.00527 -0.02371 -0.00263
v 0.00527 0.00000 -0.02108
v -0.00526 -0.03162 -0.02371
v 0.00790 -0.03425 -0.00791
v 0.03162 -0.02635 -0.00791
v 0.02371 -0.03162 -0.01581
v 0.00790 -0.02371 -0.02371
v 0.00264 -0.03689 -0.01317
v -0.02634 -0.02107 -0.01054
v 0.00527 -0.03425 -0.02371
v -0.02634 -0.01845 -0.01844
v -0.00263 -0.02371 -0.00263
v -0.01843 -0.02635 -0.02108
v -0.01317 -0.03162 -0.00527
v -0.00263 -0.02107 -0.02371
v 0.03162 -0.02635 -0.01054
v 0.00527 -0.02898 -0.00263
v -0.02107 0.00000 -0.01317
v 0.00264 -0.03689 -0.01844
v 0.02371 -0.03162 -0.00791
v -0.02107 -0.03162 -0.01054
v -0.01053 -0.03425 -0.02108
v 0.02107 -0.02635 -0.01844
v 0.00790 0.02898 -0.02372
v -0.00001 0.02108 -0.04743
v -0.00264 0.01845 -0.04479
v -0.03689 0.02898 -0.03162
v 0.00263 0.01317 -0.02372
v 0.00263 0.02898 -0.04216
v -0.01580 0.01581 -0.02372
v -0.01844 0.03162 -0.02372
v 0.00790 0.01845 -0.03952
v -0.03689 0.02635 -0.03426
v -0.00791 0.01581 -0.03689
v 0.01053 0.01845 -0.02372
v -0.00264 0.03162 -0.03162
v -0.03689 0.02898 -0.03426
v 0.00790 0.02371 -0.04216
v -0.00528 0.02635 -0.04479
v 0.00263 0.01581 -0.03952
v -0.02107 0.02108 -0.02372
v -0.01580 0.03162 -0.03162
v 0.01053 0.02635 -0.02635
v -0.00001 0.03162 -0.02372
v 0.00526 0.02898 -0.03952
v -0.00264 0.01317 -0.02635
v -0.00528 0.02898 -0.04216
v -0.01844 0.01845 -0.03426
v 0.00526 0.01845 -0.04479
v 0.00263 0.02371 -0.04743
v -0.03689 0.02635 -0.03162
v -0.01580 0.01581 -0.02635
v 0.00790 0.01581 -0.02635
v -0.02107 0.02898 -0.02372
v -0.00791 0.00791 -0.02371
v -0.00001 0.03162 -0.01318
v 0.00263 0.02898 -0.00791
v -0.05269 0.02635 -0.01581
v -0.01845 0.00000 -0.01054
v 0.01317 0.02371 -0.02371
v 0.00526 0.00000 -0.01318
v -0.02370 0.03162 -0.02371
v -0.05006 0.02107 -0.02108
v -0.00264 0.02107 -0.00527
v -0.01582 0.00000 -0.02108
v -0.05006 0.02898 -0.01318
v 0.00526 0.00000 -0.02108
v 0.01580 0.01844 -0.01844
v -0.05006 0.02107 -0.01318
v -0.02897 0.03162 -0.01054
v -0.00001 0.03162 -0.02371
v -0.05006 0.02898 -0.02108
v 0.00526 0.01844 -0.00791
v 0.00263 0.00000 -0.01054
v -0.02107 0.00000 -0.01844
v 0.01580 0.02371 -0.01844
v -0.05269 0.02107 -0.01581
v -0.02634 0.01844 -0.02371
v 0.01317 0.01844 -0.02371
v -0.01845 0.02898 -0.00791
v -0.03688 0.02371 -0.01054
v 0.00790 0.02898 -0.02371
v 0.00263 0.00791 -0.02371
v 0.01053 0.02635 -0.01318
v -0.02107 0.00000 -0.01318
v -0.00001 0.02371 -0.00527
v -0.03161 0.03162 -0.01844
v -0.05269 0.02107 -0.01844
v -0.01582 0.01054 -0.02371
v 0.01580 0.01844 -0.02108
v 0.00790 0.00264 -0.01844
v -0.02897 0.02635 -0.02371
v 0.00790 0.01581 -0.01054
v 0.00526 0.02635 -0.00791
v -0.00528 0.03162 -0.01054
v -0.01581 -0.03162 0.00527
v 0.00262 -0.00527 0.01581
v 0.00262 -0.00527 0.00791
v -0.05797 -0.01318 0.01581
v 0.01580 -0.02635 0.02108
v -0.05006 -0.02898 0.01844
v -0.05797 -0.01581 0.00791
v 0.01580 -0.02898 0.00264
v 0.02635 -0.02898 0.01581
v -0.05797 -0.02635 0.00791
v -0.00263 -0.01845 0.00264
v -0.05269 -0.00791 0.01054
v -0.00527 -0.02108 0.02108
v 0.00527 -0.03162 0.01581
v -0.01318 -0.03162 0.00264
v 0.02371 -0.02371 0.00791
v -0.05533 -0.01845 0.01844
v 0.01844 -0.03162 0.00791
v -0.00263 -0.02898 0.02108
v -0.05797 -0.02635 0.01844
v -0.00791 -0.01054 0.01844
v 0.01580 -0.02108 0.02108
v -0.05533 -0.01054 0.01581
v -0.05269 -0.02898 0.01054
v 0.00527 -0.01054 0.00527
v 0.02635 -0.02635 0.01581
v -0.01318 -0.03162 0.01581
v -0.00263 -0.01054 0.00527
v 0.01317 -0.02371 0.00264
v 0.02371 -0.02898 0.00791
v -0.05269 -0.00791 0.01317
v 0.02108 -0.02371 0.00527
v -0.01318 -0.02635 0.00264
v -0.00263 -0.00527 0.01581
v 0.00527 -0.03162 0.00264
v -0.00263 -0.00527 0.00791
v -0.05006 -0.02898 0.00791
v -0.05269 -0.02898 0.02899
v 0.02897 -0.00527 0.03425
v 0.03161 -0.01581 0.03162
v -0.04215 -0.02635 0.03952
v -0.02634 -0.00527 0.03162
v 0.01580 -0.02635 0.02108
v 0.02371 -0.00527 0.02635
v -0.05005 -0.02108 0.02635
v -0.02371 -0.00527 0.03952
v 0.00263 -0.02898 0.03162
v 0.02107 -0.01581 0.03689
v -0.05533 -0.02371 0.03689
v 0.00526 -0.00527 0.03952
v 0.02634 -0.02108 0.03425
v 0.01316 -0.02108 0.02108
v 0.03161 -0.02108 0.02635
v 0.01053 -0.00527 0.02635
v -0.05005 -0.02898 0.02635
v -0.05005 -0.02898 0.03689
v -0.02634 -0.02371 0.03952
v 0.02634 -0.02371 0.03162
v -0.05005 -0.02108 0.03952
v -0.00001 -0.02898 0.02635
v 0.02897 -0.01054 0.02635
v -0.05269 -0.02108 0.03689
v -0.05269 -0.02108 0.02899
v 0.02371 -0.00527 0.03689
v -0.05269 -0.02635 0.02635
v 0.00263 -0.01054 0.03952
v 0.02897 -0.01844 0.03425
v 0.02897 -0.00527 0.02899
v 0.01580 -0.02108 0.02108
v 0.01053 -0.02635 0.02108
v -0.02634 -0.00527 0.03689
v -0.03687 -0.02898 0.03689
v 0.03161 -0.02108 0.03162
v -0.05533 -0.02371 0.02899
v -0.05533 -0.02635 0.03689
v -0.05005 -0.02635 0.03952
v 0.00789 -0.02108 0.03689
v -0.02898 -0.00527 0.03425
v 0.00262 0.02898 0.03425
v 0.01054 0.02635 0.03689
v 0.02635 -0.00527 0.02899
v -0.00263 0.02635 0.02108
v -0.05797 0.02371 0.03689
v 0.01580 0.01054 0.04216
v -0.05269 0.01581 0.02899
v -0.02371 -0.00527 0.03952
v 0.02108 0.02108 0.02635
v -0.00000 0.01581 0.02108
v -0.05533 0.02371 0.03952
v 0.02371 -0.00527 0.03689
v -0.02633 -0.00527 0.03162
v -0.05006 0.02635 0.03162
v 0.01580 0.01844 0.04216
v -0.05006 0.01054 0.03952
v 0.01054 0.02635 0.02108
v 0.02371 0.01844 0.03425
v -0.00527 0.01054 0.04216
v -0.00263 -0.00527 0.02899
v -0.05269 0.02371 0.02899
v -0.05797 0.01581 0.03425
v -0.00263 0.02108 0.04216
v 0.00790 -0.00527 0.03952
v 0.01317 0.01844 0.02108
v -0.00263 0.02898 0.02899
v 0.01580 0.02635 0.03162
v 0.02108 0.01844 0.03952
v -0.05006 0.02635 0.03689
v -0.05269 0.01054 0.03425
v 0.02635 -0.00263 0.03425
v -0.05797 0.02371 0.03162
v -0.05533 0.01581 0.03952
v 0.00527 0.00791 0.04216
v -0.02898 -0.00527 0.03689
v 0.02371 0.01844 0.02899
v 0.01844 0.02371 0.03689
v 0.01054 0.01581 0.02108
v -0.05269 0.01054 0.03689
v 0.01317 0.02371 0.03952
v -0.00263 0.01844 0.02108
v -0.05533 -0.02635 -0.03952
v -0.05006 -0.02108 -0.03425
v -0.05006 -0.02371 -0.03425
v -0.05006 -0.02108 -0.03952
v -0.05533 -0.02108 -0.03425
v -0.02635 -0.02898 -0.01317
v -0.05270 -0.02635 -0.02108
v -0.05270 -0.02372 -0.02108
v -0.05533 -0.02635 -0.01317
v -0.02635 -0.02108 -0.01317
v -0.02635 -0.02898 -0.01844
v -0.05533 -0.02108 -0.01317
v -0.04216 -0.02108 -0.02108
v -0.05006 -0.02898 -0.02108
v -0.02635 -0.02108 -0.01844
v -0.04743 -0.02898 -0.01317
v -0.05533 -0.02108 -0.01844
v -0.03952 -0.02635 -0.02108
v -0.04216 0.02898 0.01317
v -0.05797 0.00527 0.01054
v -0.05269 0.01581 0.00791
v -0.03425 0.01844 0.01054
v -0.04743 0.00264 0.01581
v -0.05797 0.02371 0.01581
v -0.05533 0.02898 0.00791
v -0.03425 0.02371 0.01581
v -0.05006 -0.00263 0.01054
v -0.03689 0.02898 0.00791
v -0.05533 0.00264 0.01581
v -0.04216 0.01581 0.00791
v -0.05533 -0.00263 0.01317
v -0.05269 0.02634 0.01581
v -0.05797 0.00791 0.01581
v -0.05797 0.02371 0.01054
v -0.03425 0.01844 0.01317
v -0.05533 -0.00263 0.01054
v -0.04743 0.00000 0.01317
v 0.00000 -0.00527 0.00791
v 0.00264 0.01054 0.01581
v 0.00264 0.01054 0.01054
v -0.00263 0.01054 0.01054
v -0.00263 -0.00527 0.01581
v 0.00264 -0.00527 0.01581
v 0.00264 -0.00263 0.00791
v 0.00000 0.01054 0.01581
v -0.00263 -0.00527 0.01054
v 0.00790 0.02635 0.02108
v -0.00000 0.01844 0.00264
v -0.00264 0.01054 0.00791
v -0.03425 0.02371 0.01317
v -0.00264 0.01581 0.02108
v -0.02898 0.01318 0.01054
v 0.00263 0.02635 0.00791
v 0.00527 0.01054 0.01317
v 0.00790 0.01581 0.00791
v -0.03425 0.02371 0.01054
v -0.03161 0.01844 0.01581
v -0.00264 0.02635 0.02108
v 0.01053 0.01844 0.02108
v -0.00264 0.01054 0.01581
v 0.00790 0.02371 0.00791
v -0.00791 0.02635 0.00791
v -0.02898 0.01318 0.01317
v 0.00263 0.02108 0.00264
v -0.03161 0.02371 0.01581
v -0.01317 0.02635 0.01581
v 0.00790 0.01581 0.02108
v 0.00263 0.01054 0.00791
v 0.01053 0.02371 0.01844
v -0.00527 0.01844 0.02108
v -0.03425 0.02108 0.01054
f 191 165 207 
f 169 168 172 
f 172 166 173 
f 172 173 174 
f 173 167 174 
f 169 172 175 
f 171 165 178 
f 170 176 178 
f 178 165 180 
f 168 169 181 
f 171 179 182 
f 172 174 183 
f 174 167 183 
f 175 172 183 
f 171 178 184 
f 167 173 185 
f 179 167 185 
f 182 179 185 
f 169 175 186 
f 179 169 186 
f 172 168 188 
f 177 166 188 
f 176 170 189 
f 168 181 189 
f 164 169 190 
f 169 179 190 
f 184 164 190 
f 166 177 191 
f 180 165 191 
f 170 187 192 
f 187 177 192 
f 188 168 192 
f 177 188 192 
f 178 176 193 
f 164 184 193 
f 184 178 193 
f 171 182 194 
f 185 173 194 
f 182 185 194 
f 167 179 195 
f 186 167 195 
f 179 186 195 
f 165 171 196 
f 173 165 196 
f 171 194 196 
f 194 173 196 
f 169 164 197 
f 181 169 197 
f 176 181 197 
f 193 176 197 
f 164 193 197 
f 171 184 198 
f 184 190 198 
f 170 178 199 
f 178 180 199 
f 187 170 199 
f 180 187 199 
f 183 167 200 
f 175 183 200 
f 167 186 200 
f 186 175 200 
f 166 172 201 
f 188 166 201 
f 172 188 201 
f 168 189 202 
f 189 170 202 
f 192 168 202 
f 170 192 202 
f 177 187 203 
f 187 180 203 
f 191 177 203 
f 180 191 203 
f 179 171 204 
f 190 179 204 
f 171 198 204 
f 198 190 204 
f 166 165 205 
f 173 166 205 
f 165 173 205 
f 181 176 206 
f 176 189 206 
f 189 181 206 
f 165 166 207 
f 166 191 207 
