# Original object name hint: convex_1
v 0.06239 -0.00519 -0.03846
v 0.06239 0.01974 0.03015
v 0.06031 0.01974 0.03015
v 0.05407 -0.04055 0.00311
v 0.04783 0.01766 -0.03431
v 0.04575 0.00312 0.03015
v 0.06239 0.04679 -0.00521
v 0.04991 -0.03639 -0.03639
v 0.06655 0.00104 0.02807
v 0.06239 -0.03639 -0.00521
v 0.06239 0.02599 -0.03846
v 0.05823 -0.02807 0.02391
v 0.06655 0.01351 -0.00935
v 0.05823 -0.03847 -0.03639
v 0.05823 0.04471 -0.00313
v 0.05407 0.02599 -0.04055
v 0.04575 -0.00935 0.01144
v 0.04575 0.00935 0.02807
v 0.04991 -0.03223 0.00936
v 0.05407 -0.00935 -0.04263
v 0.06655 0.01974 0.02391
v 0.05615 0.03638 -0.03431
v 0.06239 -0.03223 0.01351
v 0.06655 0.02599 -0.00521
v 0.04783 0.00312 -0.03639
v 0.05199 -0.02807 0.02183
v 0.06239 -0.00311 0.03015
v 0.06031 -0.00519 -0.04263
v 0.04991 -0.03847 -0.00313
v 0.06031 0.04679 -0.00105
v 0.06031 -0.03223 -0.03639
v 0.05199 0.03015 -0.03223
v 0.06031 -0.04055 0.00103
v 0.05199 -0.04055 -0.03431
v 0.04575 -0.00519 0.02807
v 0.06655 0.00520 -0.00313
v 0.05199 0.00935 -0.04263
v 0.06031 0.02183 -0.04263
v 0.06239 0.03222 -0.03431
v 0.05199 -0.01560 0.02807
v 0.05615 -0.03847 -0.03846
v 0.04575 0.00728 0.00728
v 0.06239 0.04679 -0.00105
v 0.04575 -0.00935 0.00728
v 0.05823 -0.04055 -0.03223
v 0.06031 0.03431 -0.03639
v 0.06239 -0.00104 -0.04055
v 0.05823 -0.03223 0.01975
v 0.06655 -0.00104 0.01351
v 0.04991 0.02183 -0.03846
v 0.04991 -0.00104 -0.04055
v 0.06447 0.01766 0.03015
v 0.06239 -0.03639 0.00519
v 0.06655 0.02599 0.00728
v 0.05199 -0.03639 -0.03846
v 0.06031 -0.03639 -0.03223
v 0.05407 -0.03223 0.01975
v 0.06031 -0.02807 0.02183
v 0.06447 0.01766 -0.02599
v 0.05407 0.03431 -0.03431
v 0.04991 0.01559 -0.04055
v 0.06447 -0.00104 0.03015
v 0.05199 -0.04055 -0.00105
v 0.06031 -0.03431 0.01558
v 0.00208 0.01767 -0.01144
v -0.05615 -0.02183 -0.01767
v -0.03327 -0.02599 -0.02183
v -0.01041 0.05093 -0.02392
v -0.03535 0.03638 -0.00936
v 0.00208 -0.03223 -0.00728
v 0.00208 -0.02807 -0.02183
v -0.02910 -0.03639 -0.00728
v -0.02704 -0.05095 -0.01767
v -0.00416 0.05093 -0.00936
v -0.05407 0.02182 -0.01767
v -0.02704 0.00312 -0.00520
v -0.05615 -0.01974 -0.01352
v -0.00209 0.05093 -0.02392
v -0.02910 0.01767 -0.02392
v -0.01664 -0.05095 -0.01144
v -0.00624 0.00518 -0.00520
v -0.01872 0.05093 -0.01352
v -0.05407 0.02182 -0.01352
v -0.00416 -0.00104 -0.02392
v -0.03951 0.03846 -0.01767
v -0.01872 0.04054 -0.00728
v -0.03743 0.01767 -0.00728
v 0.00208 0.01142 -0.00728
v 0.00208 -0.03430 -0.01975
v -0.02704 -0.05095 -0.01352
v -0.03535 -0.02807 -0.00728
v -0.03535 0.03638 -0.02183
v -0.01041 -0.01559 -0.00520
v -0.00209 0.05303 -0.01352
v 0.00208 0.00935 -0.02183
v -0.01456 -0.04471 -0.01975
v -0.02497 -0.03223 -0.02183
v -0.03535 0.04054 -0.01144
v -0.02910 0.03222 -0.02392
v -0.01248 -0.04886 -0.01560
v -0.05615 0.00726 -0.01767
v -0.01248 0.05303 -0.01975
v -0.01041 0.05093 -0.00936
v -0.05407 -0.02391 -0.01352
v -0.05615 0.00726 -0.01352
v -0.02289 0.01142 -0.00520
v -0.01248 -0.00104 -0.02392
v 0.00208 -0.03430 -0.00936
v -0.01248 0.04054 -0.00728
v -0.03535 0.04054 -0.01975
v -0.02497 -0.00727 -0.00520
v -0.03118 0.03015 -0.00728
v -0.00624 -0.03223 -0.02183
v -0.01664 -0.03639 -0.00728
v -0.00209 0.05303 -0.02183
v -0.01041 0.05303 -0.01144
v 0.00208 0.01767 -0.01767
v -0.03743 0.00518 -0.00728
v -0.00209 0.00104 -0.02392
v -0.01456 -0.04886 -0.01767
v -0.03951 0.03846 -0.01352
v -0.00624 -0.01351 -0.00520
v -0.01872 0.05093 -0.01767
v -0.00209 0.05093 -0.01144
v -0.01664 -0.04471 -0.00936
v -0.02080 -0.05095 -0.01144
v -0.01664 -0.05095 -0.01560
v -0.01456 0.01142 -0.00520
v 0.02287 -0.01559 -0.01559
v 0.00208 -0.03431 -0.01768
v 0.00208 -0.03431 -0.00936
v 0.00208 0.01352 -0.01768
v 0.02496 -0.02807 -0.00104
v 0.00208 0.00936 -0.00728
v 0.01664 0.00519 -0.01144
v 0.01871 -0.02807 -0.01976
v 0.01040 0.00519 -0.01976
v 0.02287 -0.03223 -0.01351
v 0.00208 -0.03223 -0.01976
v 0.00208 -0.03223 -0.00728
v 0.02079 -0.03015 -0.00104
v 0.01456 0.00728 -0.01768
v 0.02496 -0.01975 -0.01351
v 0.01248 0.00728 -0.00936
v 0.02079 -0.00312 -0.01144
v 0.00208 0.00936 -0.01976
v 0.02496 -0.02599 -0.00104
v 0.00416 0.01352 -0.01144
v 0.01456 -0.03223 -0.01976
v 0.01248 -0.03431 -0.01144
v 0.02496 -0.03015 -0.01351
v 0.00416 0.00936 -0.00728
v 0.01871 0.00103 -0.01559
v 0.02496 -0.03015 -0.00312
v 0.01248 -0.03431 -0.01559
v 0.01664 0.00103 -0.01768
v 0.01248 0.00936 -0.01144
v 0.00416 0.01352 -0.01768
v 0.01664 0.00312 -0.00936
v 0.02079 -0.02599 -0.00104
v 0.02496 -0.01975 -0.00936
v 0.01248 0.00103 -0.01976
v 0.01871 -0.03223 -0.01768
v 0.02287 -0.03223 -0.00936
v 0.01871 -0.02599 -0.01976
v 0.02287 -0.03015 -0.00104
v 0.00416 -0.02391 0.02600
v 0.01455 0.01975 0.03223
v 0.01871 0.01767 0.03431
v -0.02495 -0.00312 0.03847
v 0.02287 0.00103 0.04263
v 0.04158 0.00727 0.01976
v 0.00209 0.00519 0.01976
v 0.02287 -0.02391 0.03223
v -0.02079 -0.02391 0.03431
v -0.02704 0.00519 0.03223
v 0.04575 0.00935 0.02808
v 0.00209 0.01767 0.02392
v -0.01663 0.00935 0.03847
v 0.02287 -0.02600 0.02600
v 0.04575 -0.00312 0.02808
v -0.02287 -0.01559 0.03016
v 0.02287 0.00935 0.04263
v 0.03534 0.01767 0.02392
v 0.03534 -0.00312 0.01976
v -0.02079 -0.00104 0.04055
v -0.00832 -0.02183 0.03639
v 0.00209 -0.00104 0.01976
v 0.00209 0.01975 0.03223
v 0.03327 0.01767 0.03016
v 0.04575 -0.00312 0.02392
v 0.01455 -0.02183 0.02392
v 0.01038 0.00935 0.04263
v -0.02704 -0.01559 0.03431
v -0.02287 0.00935 0.03639
v 0.03119 0.01559 0.02184
v -0.02495 -0.00727 0.03016
v -0.00832 -0.01767 0.02600
v 0.02703 -0.02391 0.03016
v 0.02495 0.00312 0.04263
v -0.02079 -0.02391 0.03223
v -0.02287 -0.01975 0.03639
v 0.00416 0.01975 0.02600
v -0.02079 0.00519 0.04055
v -0.01247 0.00935 0.02600
v 0.01247 0.00103 0.04263
v -0.02287 0.00935 0.03223
v -0.02704 0.00519 0.03639
v 0.02079 -0.02600 0.03016
v 0.04575 0.00935 0.02392
v 0.01038 -0.02600 0.02600
v 0.02703 -0.02391 0.02600
v -0.02704 -0.01559 0.03223
v 0.02703 -0.01975 0.03223
v 0.02287 -0.02183 0.02392
v 0.04575 0.00312 0.02184
v 0.00416 -0.02600 0.03016
v -0.02704 -0.01143 0.03639
v -0.00416 -0.01351 0.02392
v -0.02495 -0.00312 0.03016
v -0.01455 -0.02183 0.03639
v 0.02495 0.00727 0.04263
v 0.01247 0.01975 0.02600
v -0.00832 -0.00727 0.02392
v -0.00832 0.01559 0.03016
v 0.03534 0.01767 0.02808
v 0.04158 0.00312 0.01976
v -0.00624 -0.02391 0.03431
v 0.00833 -0.01975 0.02392
v -0.00832 0.01351 0.02600
v -0.00000 0.02183 0.01351
v -0.06655 -0.00727 0.00520
v -0.04159 -0.02806 0.00104
v -0.00416 0.05094 0.00104
v -0.00000 -0.03223 0.00728
v -0.01248 -0.01559 0.01767
v -0.05615 0.01974 0.00936
v -0.03327 -0.05303 0.00520
v -0.00000 -0.03015 0.00104
v -0.06239 -0.02390 0.00936
v -0.01872 0.05303 0.00520
v -0.01248 0.00935 0.01767
v -0.03120 0.03431 0.00104
v -0.00000 -0.01559 0.01767
v -0.03535 -0.04887 0.00104
v -0.06655 0.00727 0.00936
v -0.06655 0.00727 0.00520
v -0.00000 0.03431 0.00104
v -0.00208 0.05094 0.00520
v -0.00000 0.01143 0.01767
v -0.06239 -0.02390 0.00520
v -0.01664 -0.00727 0.01767
v -0.02912 -0.05303 0.00520
v -0.01872 0.05303 0.00312
v -0.02496 -0.04887 0.00104
v -0.06655 -0.00727 0.00936
v -0.00000 -0.02806 0.01143
v -0.03327 -0.04679 0.00728
v -0.05822 0.01767 0.00520
v -0.04159 -0.01559 0.00104
v -0.01664 0.00519 0.01767
v -0.00624 0.05303 0.00520
v -0.01457 0.05094 0.00104
v -0.00000 -0.03223 0.00312
v -0.03327 -0.05303 0.00312
v -0.00000 0.03639 0.00520
v -0.00624 0.01143 0.01767
v -0.06446 -0.01767 0.00936
v -0.02912 -0.05303 0.00312
v -0.06446 -0.01767 0.00520
v -0.00208 0.05094 0.00312
v -0.03742 0.03431 0.00312
v -0.00624 0.05303 0.00312
v 0.00624 0.00519 0.01975
v -0.00000 -0.03223 0.00312
v -0.00000 -0.03223 0.00728
v 0.04575 -0.00727 0.00728
v -0.00000 0.03015 0.00104
v 0.04159 0.00311 0.01767
v 0.02288 -0.03015 -0.00104
v 0.02703 -0.02599 0.01143
v 0.04367 0.00935 0.00520
v -0.00000 0.03223 0.00728
v -0.00000 -0.01351 0.01767
v 0.04367 0.01559 0.01352
v 0.04575 -0.00519 0.01559
v -0.00000 0.01767 0.01559
v 0.04575 0.01559 0.00936
v -0.00000 -0.03015 0.00104
v 0.00208 0.03431 0.00312
v 0.01249 0.01767 0.00104
v 0.01249 0.01767 0.01559
v 0.00832 -0.01975 0.01559
v 0.04575 -0.00519 0.00520
v 0.02288 -0.02392 -0.00104
v 0.01664 -0.02599 -0.00104
v 0.04159 -0.00935 0.01559
v 0.00832 -0.00103 0.01975
v 0.01040 -0.03223 0.00728
v -0.00000 -0.02807 0.01143
v 0.00832 0.02600 0.01143
v 0.00208 0.00519 0.01975
v 0.04367 0.01559 0.00728
v 0.00208 0.03015 0.00104
v 0.00208 0.03431 0.00520
v 0.04159 0.01143 0.01559
v 0.02288 -0.03015 0.00728
v 0.04575 0.00519 0.01559
v 0.04575 -0.00727 0.01352
v 0.01456 -0.02807 0.01143
v 0.04575 0.00519 0.00520
v 0.04159 0.00104 0.01767
v 0.01249 -0.03223 0.00312
v 0.04575 0.01559 0.01143
v 0.00208 -0.01351 0.01767
v -0.00000 0.01143 0.01767
v 0.01456 0.02183 0.01352
v 0.00208 -0.00103 0.01975
v 0.03951 0.01351 0.00520
v -0.00000 -0.01975 0.01559
v 0.01664 -0.03015 0.00936
f 109 106 128 
f 65 70 71 
f 66 67 73 
f 67 66 79 
f 68 78 79 
f 79 78 84 
f 75 83 85 
f 69 83 87 
f 70 65 88 
f 81 70 88 
f 74 81 88 
f 71 70 89 
f 66 73 90 
f 73 80 90 
f 81 76 93 
f 65 71 95 
f 71 78 95 
f 71 89 96 
f 73 67 97 
f 96 73 97 
f 83 69 98 
f 79 66 99 
f 68 79 99 
f 75 92 99 
f 92 68 99 
f 66 77 101 
f 83 75 101 
f 99 66 101 
f 75 99 101 
f 69 86 103 
f 86 74 103 
f 98 69 103 
f 77 66 104 
f 66 90 104 
f 90 72 104 
f 72 91 104 
f 91 77 104 
f 77 87 105 
f 87 83 105 
f 101 77 105 
f 83 101 105 
f 76 81 106 
f 87 76 106 
f 67 79 107 
f 79 84 107 
f 97 67 107 
f 84 97 107 
f 70 80 108 
f 89 70 108 
f 80 100 108 
f 100 89 108 
f 81 74 109 
f 74 86 109 
f 86 106 109 
f 75 85 110 
f 92 75 110 
f 68 92 110 
f 102 68 110 
f 91 72 111 
f 76 91 111 
f 72 93 111 
f 93 76 111 
f 86 69 112 
f 69 87 112 
f 106 86 112 
f 87 106 112 
f 84 71 113 
f 71 96 113 
f 97 84 113 
f 96 97 113 
f 70 93 114 
f 93 72 114 
f 78 68 115 
f 94 65 115 
f 68 102 115 
f 102 94 115 
f 74 94 116 
f 82 98 116 
f 102 82 116 
f 94 102 116 
f 103 74 116 
f 98 103 116 
f 65 95 117 
f 95 78 117 
f 78 115 117 
f 115 65 117 
f 76 87 118 
f 87 77 118 
f 91 76 118 
f 77 91 118 
f 78 71 119 
f 71 84 119 
f 84 78 119 
f 73 96 120 
f 96 89 120 
f 89 100 120 
f 82 85 121 
f 85 83 121 
f 98 82 121 
f 83 98 121 
f 70 81 122 
f 93 70 122 
f 81 93 122 
f 85 82 123 
f 82 102 123 
f 110 85 123 
f 102 110 123 
f 88 65 124 
f 74 88 124 
f 65 94 124 
f 94 74 124 
f 80 70 125 
f 70 114 125 
f 114 72 125 
f 72 90 126 
f 90 80 126 
f 80 125 126 
f 125 72 126 
f 80 73 127 
f 100 80 127 
f 73 120 127 
f 120 100 127 
f 106 81 128 
f 81 109 128 
