# Original object name hint: convex_0
v 0.06239 -0.00519 -0.03846
v 0.06239 0.01974 0.03015
v 0.06031 0.01974 0.03015
v 0.05407 -0.04055 0.00311
v 0.04783 0.01766 -0.03431
v 0.04575 0.00312 0.03015
v 0.06239 0.04679 -0.00521
v 0.04991 -0.03639 -0.03639
v 0.06655 0.00104 0.02807
v 0.06239 -0.03639 -0.00521
v 0.06239 0.02599 -0.03846
v 0.05823 -0.02807 0.02391
v 0.06655 0.01351 -0.00935
v 0.05823 -0.03847 -0.03639
v 0.05823 0.04471 -0.00313
v 0.05407 0.02599 -0.04055
v 0.04575 -0.00935 0.01144
v 0.04575 0.00935 0.02807
v 0.04991 -0.03223 0.00936
v 0.05407 -0.00935 -0.04263
v 0.06655 0.01974 0.02391
v 0.05615 0.03638 -0.03431
v 0.06239 -0.03223 0.01351
v 0.06655 0.02599 -0.00521
v 0.04783 0.00312 -0.03639
v 0.05199 -0.02807 0.02183
v 0.06239 -0.00311 0.03015
v 0.06031 -0.00519 -0.04263
v 0.04991 -0.03847 -0.00313
v 0.06031 0.04679 -0.00105
v 0.06031 -0.03223 -0.03639
v 0.05199 0.03015 -0.03223
v 0.06031 -0.04055 0.00103
v 0.05199 -0.04055 -0.03431
v 0.04575 -0.00519 0.02807
v 0.06655 0.00520 -0.00313
v 0.05199 0.00935 -0.04263
v 0.06031 0.02183 -0.04263
v 0.06239 0.03222 -0.03431
v 0.05199 -0.01560 0.02807
v 0.05615 -0.03847 -0.03846
v 0.04575 0.00728 0.00728
v 0.06239 0.04679 -0.00105
v 0.04575 -0.00935 0.00728
v 0.05823 -0.04055 -0.03223
v 0.06031 0.03431 -0.03639
v 0.06239 -0.00104 -0.04055
v 0.05823 -0.03223 0.01975
v 0.06655 -0.00104 0.01351
v 0.04991 0.02183 -0.03846
v 0.04991 -0.00104 -0.04055
v 0.06447 0.01766 0.03015
v 0.06239 -0.03639 0.00519
v 0.06655 0.02599 0.00728
v 0.05199 -0.03639 -0.03846
v 0.06031 -0.03639 -0.03223
v 0.05407 -0.03223 0.01975
v 0.06031 -0.02807 0.02183
v 0.06447 0.01766 -0.02599
v 0.05407 0.03431 -0.03431
v 0.04991 0.01559 -0.04055
v 0.06447 -0.00104 0.03015
v 0.05199 -0.04055 -0.00105
v 0.06031 -0.03431 0.01558
v 0.00208 0.01767 -0.01144
v -0.05615 -0.02183 -0.01767
v -0.03327 -0.02599 -0.02183
v -0.01041 0.05093 -0.02392
v -0.03535 0.03638 -0.00936
v 0.00208 -0.03223 -0.00728
v 0.00208 -0.02807 -0.02183
v -0.02910 -0.03639 -0.00728
v -0.02704 -0.05095 -0.01767
v -0.00416 0.05093 -0.00936
v -0.05407 0.02182 -0.01767
v -0.02704 0.00312 -0.00520
v -0.05615 -0.01974 -0.01352
v -0.00209 0.05093 -0.02392
v -0.02910 0.01767 -0.02392
v -0.01664 -0.05095 -0.01144
v -0.00624 0.00518 -0.00520
v -0.01872 0.05093 -0.01352
v -0.05407 0.02182 -0.01352
v -0.00416 -0.00104 -0.02392
v -0.03951 0.03846 -0.01767
v -0.01872 0.04054 -0.00728
v -0.03743 0.01767 -0.00728
v 0.00208 0.01142 -0.00728
v 0.00208 -0.03430 -0.01975
v -0.02704 -0.05095 -0.01352
v -0.03535 -0.02807 -0.00728
v -0.03535 0.03638 -0.02183
v -0.01041 -0.01559 -0.00520
v -0.00209 0.05303 -0.01352
v 0.00208 0.00935 -0.02183
v -0.01456 -0.04471 -0.01975
v -0.02497 -0.03223 -0.02183
v -0.03535 0.04054 -0.01144
v -0.02910 0.03222 -0.02392
v -0.01248 -0.04886 -0.01560
v -0.05615 0.00726 -0.01767
v -0.01248 0.05303 -0.01975
v -0.01041 0.05093 -0.00936
v -0.05407 -0.02391 -0.01352
v -0.05615 0.00726 -0.01352
v -0.02289 0.01142 -0.00520
v -0.01248 -0.00104 -0.02392
v 0.00208 -0.03430 -0.00936
v -0.01248 0.04054 -0.00728
v -0.03535 0.04054 -0.01975
v -0.02497 -0.00727 -0.00520
v -0.03118 0.03015 -0.00728
v -0.00624 -0.03223 -0.02183
v -0.01664 -0.03639 -0.00728
v -0.00209 0.05303 -0.02183
v -0.01041 0.05303 -0.01144
v 0.00208 0.01767 -0.01767
v -0.03743 0.00518 -0.00728
v -0.00209 0.00104 -0.02392
v -0.01456 -0.04886 -0.01767
v -0.03951 0.03846 -0.01352
v -0.00624 -0.01351 -0.00520
v -0.01872 0.05093 -0.01767
v -0.00209 0.05093 -0.01144
v -0.01664 -0.04471 -0.00936
v -0.02080 -0.05095 -0.01144
v -0.01664 -0.05095 -0.01560
v -0.01456 0.01142 -0.00520
v 0.02287 -0.01559 -0.01559
v 0.00208 -0.03431 -0.01768
v 0.00208 -0.03431 -0.00936
v 0.00208 0.01352 -0.01768
v 0.02496 -0.02807 -0.00104
v 0.00208 0.00936 -0.00728
v 0.01664 0.00519 -0.01144
v 0.01871 -0.02807 -0.01976
v 0.01040 0.00519 -0.01976
v 0.02287 -0.03223 -0.01351
v 0.00208 -0.03223 -0.01976
v 0.00208 -0.03223 -0.00728
v 0.02079 -0.03015 -0.00104
v 0.01456 0.00728 -0.01768
v 0.02496 -0.01975 -0.01351
v 0.01248 0.00728 -0.00936
v 0.02079 -0.00312 -0.01144
v 0.00208 0.00936 -0.01976
v 0.02496 -0.02599 -0.00104
v 0.00416 0.01352 -0.01144
v 0.01456 -0.03223 -0.01976
v 0.01248 -0.03431 -0.01144
v 0.02496 -0.03015 -0.01351
v 0.00416 0.00936 -0.00728
v 0.01871 0.00103 -0.01559
v 0.02496 -0.03015 -0.00312
v 0.01248 -0.03431 -0.01559
v 0.01664 0.00103 -0.01768
v 0.01248 0.00936 -0.01144
v 0.00416 0.01352 -0.01768
v 0.01664 0.00312 -0.00936
v 0.02079 -0.02599 -0.00104
v 0.02496 -0.01975 -0.00936
v 0.01248 0.00103 -0.01976
v 0.01871 -0.03223 -0.01768
v 0.02287 -0.03223 -0.00936
v 0.01871 -0.02599 -0.01976
v 0.02287 -0.03015 -0.00104
v 0.00416 -0.02391 0.02600
v 0.01455 0.01975 0.03223
v 0.01871 0.01767 0.03431
v -0.02495 -0.00312 0.03847
v 0.02287 0.00103 0.04263
v 0.04158 0.00727 0.01976
v 0.00209 0.00519 0.01976
v 0.02287 -0.02391 0.03223
v -0.02079 -0.02391 0.03431
v -0.02704 0.00519 0.03223
v 0.04575 0.00935 0.02808
v 0.00209 0.01767 0.02392
v -0.01663 0.00935 0.03847
v 0.02287 -0.02600 0.02600
v 0.04575 -0.00312 0.02808
v -0.02287 -0.01559 0.03016
v 0.02287 0.00935 0.04263
v 0.03534 0.01767 0.02392
v 0.03534 -0.00312 0.01976
v -0.02079 -0.00104 0.04055
v -0.00832 -0.02183 0.03639
v 0.00209 -0.00104 0.01976
v 0.00209 0.01975 0.03223
v 0.03327 0.01767 0.03016
v 0.04575 -0.00312 0.02392
v 0.01455 -0.02183 0.02392
v 0.01038 0.00935 0.04263
v -0.02704 -0.01559 0.03431
v -0.02287 0.00935 0.03639
v 0.03119 0.01559 0.02184
v -0.02495 -0.00727 0.03016
v -0.00832 -0.01767 0.02600
v 0.02703 -0.02391 0.03016
v 0.02495 0.00312 0.04263
v -0.02079 -0.02391 0.03223
v -0.02287 -0.01975 0.03639
v 0.00416 0.01975 0.02600
v -0.02079 0.00519 0.04055
v -0.01247 0.00935 0.02600
v 0.01247 0.00103 0.04263
v -0.02287 0.00935 0.03223
v -0.02704 0.00519 0.03639
v 0.02079 -0.02600 0.03016
v 0.04575 0.00935 0.02392
v 0.01038 -0.02600 0.02600
v 0.02703 -0.02391 0.02600
v -0.02704 -0.01559 0.03223
v 0.02703 -0.01975 0.03223
v 0.02287 -0.02183 0.02392
v 0.04575 0.00312 0.02184
v 0.00416 -0.02600 0.03016
v -0.02704 -0.01143 0.03639
v -0.00416 -0.01351 0.02392
v -0.02495 -0.00312 0.03016
v -0.01455 -0.02183 0.03639
v 0.02495 0.00727 0.04263
v 0.01247 0.01975 0.02600
v -0.00832 -0.00727 0.02392
v -0.00832 0.01559 0.03016
v 0.03534 0.01767 0.02808
v 0.04158 0.00312 0.01976
v -0.00624 -0.02391 0.03431
v 0.00833 -0.01975 0.02392
v -0.00832 0.01351 0.02600
v -0.00000 0.02183 0.01351
v -0.06655 -0.00727 0.00520
v -0.04159 -0.02806 0.00104
v -0.00416 0.05094 0.00104
v -0.00000 -0.03223 0.00728
v -0.01248 -0.01559 0.01767
v -0.05615 0.01974 0.00936
v -0.03327 -0.05303 0.00520
v -0.00000 -0.03015 0.00104
v -0.06239 -0.02390 0.00936
v -0.01872 0.05303 0.00520
v -0.01248 0.00935 0.01767
v -0.03120 0.03431 0.00104
v -0.00000 -0.01559 0.01767
v -0.03535 -0.04887 0.00104
v -0.06655 0.00727 0.00936
v -0.06655 0.00727 0.00520
v -0.00000 0.03431 0.00104
v -0.00208 0.05094 0.00520
v -0.00000 0.01143 0.01767
v -0.06239 -0.02390 0.00520
v -0.01664 -0.00727 0.01767
v -0.02912 -0.05303 0.00520
v -0.01872 0.05303 0.00312
v -0.02496 -0.04887 0.00104
v -0.06655 -0.00727 0.00936
v -0.00000 -0.02806 0.01143
v -0.03327 -0.04679 0.00728
v -0.05822 0.01767 0.00520
v -0.04159 -0.01559 0.00104
v -0.01664 0.00519 0.01767
v -0.00624 0.05303 0.00520
v -0.01457 0.05094 0.00104
v -0.00000 -0.03223 0.00312
v -0.03327 -0.05303 0.00312
v -0.00000 0.03639 0.00520
v -0.00624 0.01143 0.01767
v -0.06446 -0.01767 0.00936
v -0.02912 -0.05303 0.00312
v -0.06446 -0.01767 0.00520
v -0.00208 0.05094 0.00312
v -0.03742 0.03431 0.00312
v -0.00624 0.05303 0.00312
v 0.00624 0.00519 0.01975
v -0.00000 -0.03223 0.00312
v -0.00000 -0.03223 0.00728
v 0.04575 -0.00727 0.00728
v -0.00000 0.03015 0.00104
v 0.04159 0.00311 0.01767
v 0.02288 -0.03015 -0.00104
v 0.02703 -0.02599 0.01143
v 0.04367 0.00935 0.00520
v -0.00000 0.03223 0.00728
v -0.00000 -0.01351 0.01767
v 0.04367 0.01559 0.01352
v 0.04575 -0.00519 0.01559
v -0.00000 0.01767 0.01559
v 0.04575 0.01559 0.00936
v -0.00000 -0.03015 0.00104
v 0.00208 0.03431 0.00312
v 0.01249 0.01767 0.00104
v 0.01249 0.01767 0.01559
v 0.00832 -0.01975 0.01559
v 0.04575 -0.00519 0.00520
v 0.02288 -0.02392 -0.00104
v 0.01664 -0.02599 -0.00104
v 0.04159 -0.00935 0.01559
v 0.00832 -0.00103 0.01975
v 0.01040 -0.03223 0.00728
v -0.00000 -0.02807 0.01143
v 0.00832 0.02600 0.01143
v 0.00208 0.00519 0.01975
v 0.04367 0.01559 0.00728
v 0.00208 0.03015 0.00104
v 0.00208 0.03431 0.00520
v 0.04159 0.01143 0.01559
v 0.02288 -0.03015 0.00728
v 0.04575 0.00519 0.01559
v 0.04575 -0.00727 0.01352
v 0.01456 -0.02807 0.01143
v 0.04575 0.00519 0.00520
v 0.04159 0.00104 0.01767
v 0.01249 -0.03223 0.00312
v 0.04575 0.01559 0.01143
v 0.00208 -0.01351 0.01767
v -0.00000 0.01143 0.01767
v 0.01456 0.02183 0.01352
v 0.00208 -0.00103 0.01975
v 0.03951 0.01351 0.00520
v -0.00000 -0.01975 0.01559
v 0.01664 -0.03015 0.00936
f 58 48 64 
f 2 3 6 
f 6 3 18 
f 17 6 18 
f 9 13 21 
f 21 13 24 
f 2 6 27 
f 3 2 30 
f 18 3 30 
f 15 18 30 
f 7 22 30 
f 22 15 30 
f 18 15 32 
f 5 18 32 
f 29 8 34 
f 33 4 34 
f 6 17 35 
f 19 26 35 
f 17 29 35 
f 29 19 35 
f 13 9 36 
f 1 13 36 
f 31 1 36 
f 28 20 37 
f 28 37 38 
f 37 16 38 
f 7 24 39 
f 24 11 39 
f 26 12 40 
f 27 6 40 
f 12 27 40 
f 6 35 40 
f 35 26 40 
f 20 28 41 
f 31 14 41 
f 28 31 41 
f 18 5 42 
f 17 18 42 
f 5 25 42 
f 24 7 43 
f 30 2 43 
f 7 30 43 
f 25 8 44 
f 8 29 44 
f 29 17 44 
f 17 42 44 
f 42 25 44 
f 10 33 45 
f 33 34 45 
f 41 14 45 
f 34 41 45 
f 22 7 46 
f 16 22 46 
f 11 38 46 
f 38 16 46 
f 7 39 46 
f 39 11 46 
f 13 1 47 
f 1 31 47 
f 31 28 47 
f 28 38 47 
f 38 11 47 
f 36 9 49 
f 10 36 49 
f 5 32 50 
f 8 25 51 
f 37 20 51 
f 9 21 52 
f 2 27 52 
f 43 2 52 
f 21 43 52 
f 9 23 53 
f 33 10 53 
f 49 9 53 
f 10 49 53 
f 21 24 54 
f 43 21 54 
f 24 43 54 
f 34 8 55 
f 20 41 55 
f 41 34 55 
f 8 51 55 
f 51 20 55 
f 14 31 56 
f 36 10 56 
f 31 36 56 
f 10 45 56 
f 45 14 56 
f 12 26 57 
f 26 19 57 
f 48 12 57 
f 4 48 57 
f 23 9 58 
f 12 48 58 
f 11 24 59 
f 24 13 59 
f 13 47 59 
f 47 11 59 
f 15 22 60 
f 22 16 60 
f 32 15 60 
f 16 50 60 
f 50 32 60 
f 25 5 61 
f 16 37 61 
f 50 16 61 
f 5 50 61 
f 37 51 61 
f 51 25 61 
f 27 12 62 
f 9 52 62 
f 52 27 62 
f 58 9 62 
f 12 58 62 
f 19 29 63 
f 34 4 63 
f 29 34 63 
f 4 57 63 
f 57 19 63 
f 4 33 64 
f 48 4 64 
f 53 23 64 
f 33 53 64 
f 23 58 64 
