# Original object name hint: convex_5
v 0.06239 -0.00519 -0.03846
v 0.06239 0.01974 0.03015
v 0.06031 0.01974 0.03015
v 0.05407 -0.04055 0.00311
v 0.04783 0.01766 -0.03431
v 0.04575 0.00312 0.03015
v 0.06239 0.04679 -0.00521
v 0.04991 -0.03639 -0.03639
v 0.06655 0.00104 0.02807
v 0.06239 -0.03639 -0.00521
v 0.06239 0.02599 -0.03846
v 0.05823 -0.02807 0.02391
v 0.06655 0.01351 -0.00935
v 0.05823 -0.03847 -0.03639
v 0.05823 0.04471 -0.00313
v 0.05407 0.02599 -0.04055
v 0.04575 -0.00935 0.01144
v 0.04575 0.00935 0.02807
v 0.04991 -0.03223 0.00936
v 0.05407 -0.00935 -0.04263
v 0.06655 0.01974 0.02391
v 0.05615 0.03638 -0.03431
v 0.06239 -0.03223 0.01351
v 0.06655 0.02599 -0.00521
v 0.04783 0.00312 -0.03639
v 0.05199 -0.02807 0.02183
v 0.06239 -0.00311 0.03015
v 0.06031 -0.00519 -0.04263
v 0.04991 -0.03847 -0.00313
v 0.06031 0.04679 -0.00105
v 0.06031 -0.03223 -0.03639
v 0.05199 0.03015 -0.03223
v 0.06031 -0.04055 0.00103
v 0.05199 -0.04055 -0.03431
v 0.04575 -0.00519 0.02807
v 0.06655 0.00520 -0.00313
v 0.05199 0.00935 -0.04263
v 0.06031 0.02183 -0.04263
v 0.06239 0.03222 -0.03431
v 0.05199 -0.01560 0.02807
v 0.05615 -0.03847 -0.03846
v 0.04575 0.00728 0.00728
v 0.06239 0.04679 -0.00105
v 0.04575 -0.00935 0.00728
v 0.05823 -0.04055 -0.03223
v 0.06031 0.03431 -0.03639
v 0.06239 -0.00104 -0.04055
v 0.05823 -0.03223 0.01975
v 0.06655 -0.00104 0.01351
v 0.04991 0.02183 -0.03846
v 0.04991 -0.00104 -0.04055
v 0.06447 0.01766 0.03015
v 0.06239 -0.03639 0.00519
v 0.06655 0.02599 0.00728
v 0.05199 -0.03639 -0.03846
v 0.06031 -0.03639 -0.03223
v 0.05407 -0.03223 0.01975
v 0.06031 -0.02807 0.02183
v 0.06447 0.01766 -0.02599
v 0.05407 0.03431 -0.03431
v 0.04991 0.01559 -0.04055
v 0.06447 -0.00104 0.03015
v 0.05199 -0.04055 -0.00105
v 0.06031 -0.03431 0.01558
v 0.00208 0.01767 -0.01144
v -0.05615 -0.02183 -0.01767
v -0.03327 -0.02599 -0.02183
v -0.01041 0.05093 -0.02392
v -0.03535 0.03638 -0.00936
v 0.00208 -0.03223 -0.00728
v 0.00208 -0.02807 -0.02183
v -0.02910 -0.03639 -0.00728
v -0.02704 -0.05095 -0.01767
v -0.00416 0.05093 -0.00936
v -0.05407 0.02182 -0.01767
v -0.02704 0.00312 -0.00520
v -0.05615 -0.01974 -0.01352
v -0.00209 0.05093 -0.02392
v -0.02910 0.01767 -0.02392
v -0.01664 -0.05095 -0.01144
v -0.00624 0.00518 -0.00520
v -0.01872 0.05093 -0.01352
v -0.05407 0.02182 -0.01352
v -0.00416 -0.00104 -0.02392
v -0.03951 0.03846 -0.01767
v -0.01872 0.04054 -0.00728
v -0.03743 0.01767 -0.00728
v 0.00208 0.01142 -0.00728
v 0.00208 -0.03430 -0.01975
v -0.02704 -0.05095 -0.01352
v -0.03535 -0.02807 -0.00728
v -0.03535 0.03638 -0.02183
v -0.01041 -0.01559 -0.00520
v -0.00209 0.05303 -0.01352
v 0.00208 0.00935 -0.02183
v -0.01456 -0.04471 -0.01975
v -0.02497 -0.03223 -0.02183
v -0.03535 0.04054 -0.01144
v -0.02910 0.03222 -0.02392
v -0.01248 -0.04886 -0.01560
v -0.05615 0.00726 -0.01767
v -0.01248 0.05303 -0.01975
v -0.01041 0.05093 -0.00936
v -0.05407 -0.02391 -0.01352
v -0.05615 0.00726 -0.01352
v -0.02289 0.01142 -0.00520
v -0.01248 -0.00104 -0.02392
v 0.00208 -0.03430 -0.00936
v -0.01248 0.04054 -0.00728
v -0.03535 0.04054 -0.01975
v -0.02497 -0.00727 -0.00520
v -0.03118 0.03015 -0.00728
v -0.00624 -0.03223 -0.02183
v -0.01664 -0.03639 -0.00728
v -0.00209 0.05303 -0.02183
v -0.01041 0.05303 -0.01144
v 0.00208 0.01767 -0.01767
v -0.03743 0.00518 -0.00728
v -0.00209 0.00104 -0.02392
v -0.01456 -0.04886 -0.01767
v -0.03951 0.03846 -0.01352
v -0.00624 -0.01351 -0.00520
v -0.01872 0.05093 -0.01767
v -0.00209 0.05093 -0.01144
v -0.01664 -0.04471 -0.00936
v -0.02080 -0.05095 -0.01144
v -0.01664 -0.05095 -0.01560
v -0.01456 0.01142 -0.00520
v 0.02287 -0.01559 -0.01559
v 0.00208 -0.03431 -0.01768
v 0.00208 -0.03431 -0.00936
v 0.00208 0.01352 -0.01768
v 0.02496 -0.02807 -0.00104
v 0.00208 0.00936 -0.00728
v 0.01664 0.00519 -0.01144
v 0.01871 -0.02807 -0.01976
v 0.01040 0.00519 -0.01976
v 0.02287 -0.03223 -0.01351
v 0.00208 -0.03223 -0.01976
v 0.00208 -0.03223 -0.00728
v 0.02079 -0.03015 -0.00104
v 0.01456 0.00728 -0.01768
v 0.02496 -0.01975 -0.01351
v 0.01248 0.00728 -0.00936
v 0.02079 -0.00312 -0.01144
v 0.00208 0.00936 -0.01976
v 0.02496 -0.02599 -0.00104
v 0.00416 0.01352 -0.01144
v 0.01456 -0.03223 -0.01976
v 0.01248 -0.03431 -0.01144
v 0.02496 -0.03015 -0.01351
v 0.00416 0.00936 -0.00728
v 0.01871 0.00103 -0.01559
v 0.02496 -0.03015 -0.00312
v 0.01248 -0.03431 -0.01559
v 0.01664 0.00103 -0.01768
v 0.01248 0.00936 -0.01144
v 0.00416 0.01352 -0.01768
v 0.01664 0.00312 -0.00936
v 0.02079 -0.02599 -0.00104
v 0.02496 -0.01975 -0.00936
v 0.01248 0.00103 -0.01976
v 0.01871 -0.03223 -0.01768
v 0.02287 -0.03223 -0.00936
v 0.01871 -0.02599 -0.01976
v 0.02287 -0.03015 -0.00104
v 0.00416 -0.02391 0.02600
v 0.01455 0.01975 0.03223
v 0.01871 0.01767 0.03431
v -0.02495 -0.00312 0.03847
v 0.02287 0.00103 0.04263
v 0.04158 0.00727 0.01976
v 0.00209 0.00519 0.01976
v 0.02287 -0.02391 0.03223
v -0.02079 -0.02391 0.03431
v -0.02704 0.00519 0.03223
v 0.04575 0.00935 0.02808
v 0.00209 0.01767 0.02392
v -0.01663 0.00935 0.03847
v 0.02287 -0.02600 0.02600
v 0.04575 -0.00312 0.02808
v -0.02287 -0.01559 0.03016
v 0.02287 0.00935 0.04263
v 0.03534 0.01767 0.02392
v 0.03534 -0.00312 0.01976
v -0.02079 -0.00104 0.04055
v -0.00832 -0.02183 0.03639
v 0.00209 -0.00104 0.01976
v 0.00209 0.01975 0.03223
v 0.03327 0.01767 0.03016
v 0.04575 -0.00312 0.02392
v 0.01455 -0.02183 0.02392
v 0.01038 0.00935 0.04263
v -0.02704 -0.01559 0.03431
v -0.02287 0.00935 0.03639
v 0.03119 0.01559 0.02184
v -0.02495 -0.00727 0.03016
v -0.00832 -0.01767 0.02600
v 0.02703 -0.02391 0.03016
v 0.02495 0.00312 0.04263
v -0.02079 -0.02391 0.03223
v -0.02287 -0.01975 0.03639
v 0.00416 0.01975 0.02600
v -0.02079 0.00519 0.04055
v -0.01247 0.00935 0.02600
v 0.01247 0.00103 0.04263
v -0.02287 0.00935 0.03223
v -0.02704 0.00519 0.03639
v 0.02079 -0.02600 0.03016
v 0.04575 0.00935 0.02392
v 0.01038 -0.02600 0.02600
v 0.02703 -0.02391 0.02600
v -0.02704 -0.01559 0.03223
v 0.02703 -0.01975 0.03223
v 0.02287 -0.02183 0.02392
v 0.04575 0.00312 0.02184
v 0.00416 -0.02600 0.03016
v -0.02704 -0.01143 0.03639
v -0.00416 -0.01351 0.02392
v -0.02495 -0.00312 0.03016
v -0.01455 -0.02183 0.03639
v 0.02495 0.00727 0.04263
v 0.01247 0.01975 0.02600
v -0.00832 -0.00727 0.02392
v -0.00832 0.01559 0.03016
v 0.03534 0.01767 0.02808
v 0.04158 0.00312 0.01976
v -0.00624 -0.02391 0.03431
v 0.00833 -0.01975 0.02392
v -0.00832 0.01351 0.02600
v -0.00000 0.02183 0.01351
v -0.06655 -0.00727 0.00520
v -0.04159 -0.02806 0.00104
v -0.00416 0.05094 0.00104
v -0.00000 -0.03223 0.00728
v -0.01248 -0.01559 0.01767
v -0.05615 0.01974 0.00936
v -0.03327 -0.05303 0.00520
v -0.00000 -0.03015 0.00104
v -0.06239 -0.02390 0.00936
v -0.01872 0.05303 0.00520
v -0.01248 0.00935 0.01767
v -0.03120 0.03431 0.00104
v -0.00000 -0.01559 0.01767
v -0.03535 -0.04887 0.00104
v -0.06655 0.00727 0.00936
v -0.06655 0.00727 0.00520
v -0.00000 0.03431 0.00104
v -0.00208 0.05094 0.00520
v -0.00000 0.01143 0.01767
v -0.06239 -0.02390 0.00520
v -0.01664 -0.00727 0.01767
v -0.02912 -0.05303 0.00520
v -0.01872 0.05303 0.00312
v -0.02496 -0.04887 0.00104
v -0.06655 -0.00727 0.00936
v -0.00000 -0.02806 0.01143
v -0.03327 -0.04679 0.00728
v -0.05822 0.01767 0.00520
v -0.04159 -0.01559 0.00104
v -0.01664 0.00519 0.01767
v -0.00624 0.05303 0.00520
v -0.01457 0.05094 0.00104
v -0.00000 -0.03223 0.00312
v -0.03327 -0.05303 0.00312
v -0.00000 0.03639 0.00520
v -0.00624 0.01143 0.01767
v -0.06446 -0.01767 0.00936
v -0.02912 -0.05303 0.00312
v -0.06446 -0.01767 0.00520
v -0.00208 0.05094 0.00312
v -0.03742 0.03431 0.00312
v -0.00624 0.05303 0.00312
v 0.00624 0.00519 0.01975
v -0.00000 -0.03223 0.00312
v -0.00000 -0.03223 0.00728
v 0.04575 -0.00727 0.00728
v -0.00000 0.03015 0.00104
v 0.04159 0.00311 0.01767
v 0.02288 -0.03015 -0.00104
v 0.02703 -0.02599 0.01143
v 0.04367 0.00935 0.00520
v -0.00000 0.03223 0.00728
v -0.00000 -0.01351 0.01767
v 0.04367 0.01559 0.01352
v 0.04575 -0.00519 0.01559
v -0.00000 0.01767 0.01559
v 0.04575 0.01559 0.00936
v -0.00000 -0.03015 0.00104
v 0.00208 0.03431 0.00312
v 0.01249 0.01767 0.00104
v 0.01249 0.01767 0.01559
v 0.00832 -0.01975 0.01559
v 0.04575 -0.00519 0.00520
v 0.02288 -0.02392 -0.00104
v 0.01664 -0.02599 -0.00104
v 0.04159 -0.00935 0.01559
v 0.00832 -0.00103 0.01975
v 0.01040 -0.03223 0.00728
v -0.00000 -0.02807 0.01143
v 0.00832 0.02600 0.01143
v 0.00208 0.00519 0.01975
v 0.04367 0.01559 0.00728
v 0.00208 0.03015 0.00104
v 0.00208 0.03431 0.00520
v 0.04159 0.01143 0.01559
v 0.02288 -0.03015 0.00728
v 0.04575 0.00519 0.01559
v 0.04575 -0.00727 0.01352
v 0.01456 -0.02807 0.01143
v 0.04575 0.00519 0.00520
v 0.04159 0.00104 0.01767
v 0.01249 -0.03223 0.00312
v 0.04575 0.01559 0.01143
v 0.00208 -0.01351 0.01767
v -0.00000 0.01143 0.01767
v 0.01456 0.02183 0.01352
v 0.00208 -0.00103 0.01975
v 0.03951 0.01351 0.00520
v -0.00000 -0.01975 0.01559
v 0.01664 -0.03015 0.00936
f 310 299 321 
f 275 276 278 
f 278 276 283 
f 283 276 284 
f 283 284 287 
f 286 277 288 
f 275 278 289 
f 280 275 289 
f 278 283 290 
f 277 280 294 
f 288 277 294 
f 291 282 295 
f 294 280 295 
f 289 278 296 
f 280 289 296 
f 278 295 296 
f 295 280 296 
f 293 281 297 
f 279 274 298 
f 276 275 299 
f 284 276 300 
f 276 299 300 
f 283 287 301 
f 298 274 302 
f 290 288 303 
f 290 303 304 
f 278 290 304 
f 282 291 304 
f 295 278 304 
f 291 295 304 
f 290 283 305 
f 288 290 305 
f 283 301 305 
f 301 285 305 
f 274 279 306 
f 292 274 306 
f 285 292 306 
f 280 277 307 
f 279 286 308 
f 286 288 308 
f 306 279 308 
f 285 306 308 
f 277 286 309 
f 297 281 309 
f 286 297 309 
f 307 277 309 
f 281 307 309 
f 281 293 310 
f 293 300 310 
f 300 299 310 
f 288 294 311 
f 295 282 311 
f 294 295 311 
f 282 303 311 
f 303 288 311 
f 286 279 312 
f 297 286 312 
f 279 298 312 
f 298 297 312 
f 275 280 313 
f 299 275 313 
f 280 307 313 
f 307 299 313 
f 305 285 314 
f 288 305 314 
f 285 308 314 
f 308 288 314 
f 284 293 315 
f 293 297 315 
f 298 284 315 
f 297 298 315 
f 287 284 316 
f 274 292 316 
f 292 287 316 
f 302 274 316 
f 284 302 316 
f 292 285 317 
f 287 292 317 
f 285 301 317 
f 301 287 317 
f 284 298 318 
f 302 284 318 
f 298 302 318 
f 303 282 319 
f 304 303 319 
f 282 304 319 
f 293 284 320 
f 284 300 320 
f 300 293 320 
f 307 281 321 
f 299 307 321 
f 281 310 321 
