# Original object name hint: convex_3
v 0.06239 -0.00519 -0.03846
v 0.06239 0.01974 0.03015
v 0.06031 0.01974 0.03015
v 0.05407 -0.04055 0.00311
v 0.04783 0.01766 -0.03431
v 0.04575 0.00312 0.03015
v 0.06239 0.04679 -0.00521
v 0.04991 -0.03639 -0.03639
v 0.06655 0.00104 0.02807
v 0.06239 -0.03639 -0.00521
v 0.06239 0.02599 -0.03846
v 0.05823 -0.02807 0.02391
v 0.06655 0.01351 -0.00935
v 0.05823 -0.03847 -0.03639
v 0.05823 0.04471 -0.00313
v 0.05407 0.02599 -0.04055
v 0.04575 -0.00935 0.01144
v 0.04575 0.00935 0.02807
v 0.04991 -0.03223 0.00936
v 0.05407 -0.00935 -0.04263
v 0.06655 0.01974 0.02391
v 0.05615 0.03638 -0.03431
v 0.06239 -0.03223 0.01351
v 0.06655 0.02599 -0.00521
v 0.04783 0.00312 -0.03639
v 0.05199 -0.02807 0.02183
v 0.06239 -0.00311 0.03015
v 0.06031 -0.00519 -0.04263
v 0.04991 -0.03847 -0.00313
v 0.06031 0.04679 -0.00105
v 0.06031 -0.03223 -0.03639
v 0.05199 0.03015 -0.03223
v 0.06031 -0.04055 0.00103
v 0.05199 -0.04055 -0.03431
v 0.04575 -0.00519 0.02807
v 0.06655 0.00520 -0.00313
v 0.05199 0.00935 -0.04263
v 0.06031 0.02183 -0.04263
v 0.06239 0.03222 -0.03431
v 0.05199 -0.01560 0.02807
v 0.05615 -0.03847 -0.03846
v 0.04575 0.00728 0.00728
v 0.06239 0.04679 -0.00105
v 0.04575 -0.00935 0.00728
v 0.05823 -0.04055 -0.03223
v 0.06031 0.03431 -0.03639
v 0.06239 -0.00104 -0.04055
v 0.05823 -0.03223 0.01975
v 0.06655 -0.00104 0.01351
v 0.04991 0.02183 -0.03846
v 0.04991 -0.00104 -0.04055
v 0.06447 0.01766 0.03015
v 0.06239 -0.03639 0.00519
v 0.06655 0.02599 0.00728
v 0.05199 -0.03639 -0.03846
v 0.06031 -0.03639 -0.03223
v 0.05407 -0.03223 0.01975
v 0.06031 -0.02807 0.02183
v 0.06447 0.01766 -0.02599
v 0.05407 0.03431 -0.03431
v 0.04991 0.01559 -0.04055
v 0.06447 -0.00104 0.03015
v 0.05199 -0.04055 -0.00105
v 0.06031 -0.03431 0.01558
v 0.00208 0.01767 -0.01144
v -0.05615 -0.02183 -0.01767
v -0.03327 -0.02599 -0.02183
v -0.01041 0.05093 -0.02392
v -0.03535 0.03638 -0.00936
v 0.00208 -0.03223 -0.00728
v 0.00208 -0.02807 -0.02183
v -0.02910 -0.03639 -0.00728
v -0.02704 -0.05095 -0.01767
v -0.00416 0.05093 -0.00936
v -0.05407 0.02182 -0.01767
v -0.02704 0.00312 -0.00520
v -0.05615 -0.01974 -0.01352
v -0.00209 0.05093 -0.02392
v -0.02910 0.01767 -0.02392
v -0.01664 -0.05095 -0.01144
v -0.00624 0.00518 -0.00520
v -0.01872 0.05093 -0.01352
v -0.05407 0.02182 -0.01352
v -0.00416 -0.00104 -0.02392
v -0.03951 0.03846 -0.01767
v -0.01872 0.04054 -0.00728
v -0.03743 0.01767 -0.00728
v 0.00208 0.01142 -0.00728
v 0.00208 -0.03430 -0.01975
v -0.02704 -0.05095 -0.01352
v -0.03535 -0.02807 -0.00728
v -0.03535 0.03638 -0.02183
v -0.01041 -0.01559 -0.00520
v -0.00209 0.05303 -0.01352
v 0.00208 0.00935 -0.02183
v -0.01456 -0.04471 -0.01975
v -0.02497 -0.03223 -0.02183
v -0.03535 0.04054 -0.01144
v -0.02910 0.03222 -0.02392
v -0.01248 -0.04886 -0.01560
v -0.05615 0.00726 -0.01767
v -0.01248 0.05303 -0.01975
v -0.01041 0.05093 -0.00936
v -0.05407 -0.02391 -0.01352
v -0.05615 0.00726 -0.01352
v -0.02289 0.01142 -0.00520
v -0.01248 -0.00104 -0.02392
v 0.00208 -0.03430 -0.00936
v -0.01248 0.04054 -0.00728
v -0.03535 0.04054 -0.01975
v -0.02497 -0.00727 -0.00520
v -0.03118 0.03015 -0.00728
v -0.00624 -0.03223 -0.02183
v -0.01664 -0.03639 -0.00728
v -0.00209 0.05303 -0.02183
v -0.01041 0.05303 -0.01144
v 0.00208 0.01767 -0.01767
v -0.03743 0.00518 -0.00728
v -0.00209 0.00104 -0.02392
v -0.01456 -0.04886 -0.01767
v -0.03951 0.03846 -0.01352
v -0.00624 -0.01351 -0.00520
v -0.01872 0.05093 -0.01767
v -0.00209 0.05093 -0.01144
v -0.01664 -0.04471 -0.00936
v -0.02080 -0.05095 -0.01144
v -0.01664 -0.05095 -0.01560
v -0.01456 0.01142 -0.00520
v 0.02287 -0.01559 -0.01559
v 0.00208 -0.03431 -0.01768
v 0.00208 -0.03431 -0.00936
v 0.00208 0.01352 -0.01768
v 0.02496 -0.02807 -0.00104
v 0.00208 0.00936 -0.00728
v 0.01664 0.00519 -0.01144
v 0.01871 -0.02807 -0.01976
v 0.01040 0.00519 -0.01976
v 0.02287 -0.03223 -0.01351
v 0.00208 -0.03223 -0.01976
v 0.00208 -0.03223 -0.00728
v 0.02079 -0.03015 -0.00104
v 0.01456 0.00728 -0.01768
v 0.02496 -0.01975 -0.01351
v 0.01248 0.00728 -0.00936
v 0.02079 -0.00312 -0.01144
v 0.00208 0.00936 -0.01976
v 0.02496 -0.02599 -0.00104
v 0.00416 0.01352 -0.01144
v 0.01456 -0.03223 -0.01976
v 0.01248 -0.03431 -0.01144
v 0.02496 -0.03015 -0.01351
v 0.00416 0.00936 -0.00728
v 0.01871 0.00103 -0.01559
v 0.02496 -0.03015 -0.00312
v 0.01248 -0.03431 -0.01559
v 0.01664 0.00103 -0.01768
v 0.01248 0.00936 -0.01144
v 0.00416 0.01352 -0.01768
v 0.01664 0.00312 -0.00936
v 0.02079 -0.02599 -0.00104
v 0.02496 -0.01975 -0.00936
v 0.01248 0.00103 -0.01976
v 0.01871 -0.03223 -0.01768
v 0.02287 -0.03223 -0.00936
v 0.01871 -0.02599 -0.01976
v 0.02287 -0.03015 -0.00104
v 0.00416 -0.02391 0.02600
v 0.01455 0.01975 0.03223
v 0.01871 0.01767 0.03431
v -0.02495 -0.00312 0.03847
v 0.02287 0.00103 0.04263
v 0.04158 0.00727 0.01976
v 0.00209 0.00519 0.01976
v 0.02287 -0.02391 0.03223
v -0.02079 -0.02391 0.03431
v -0.02704 0.00519 0.03223
v 0.04575 0.00935 0.02808
v 0.00209 0.01767 0.02392
v -0.01663 0.00935 0.03847
v 0.02287 -0.02600 0.02600
v 0.04575 -0.00312 0.02808
v -0.02287 -0.01559 0.03016
v 0.02287 0.00935 0.04263
v 0.03534 0.01767 0.02392
v 0.03534 -0.00312 0.01976
v -0.02079 -0.00104 0.04055
v -0.00832 -0.02183 0.03639
v 0.00209 -0.00104 0.01976
v 0.00209 0.01975 0.03223
v 0.03327 0.01767 0.03016
v 0.04575 -0.00312 0.02392
v 0.01455 -0.02183 0.02392
v 0.01038 0.00935 0.04263
v -0.02704 -0.01559 0.03431
v -0.02287 0.00935 0.03639
v 0.03119 0.01559 0.02184
v -0.02495 -0.00727 0.03016
v -0.00832 -0.01767 0.02600
v 0.02703 -0.02391 0.03016
v 0.02495 0.00312 0.04263
v -0.02079 -0.02391 0.03223
v -0.02287 -0.01975 0.03639
v 0.00416 0.01975 0.02600
v -0.02079 0.00519 0.04055
v -0.01247 0.00935 0.02600
v 0.01247 0.00103 0.04263
v -0.02287 0.00935 0.03223
v -0.02704 0.00519 0.03639
v 0.02079 -0.02600 0.03016
v 0.04575 0.00935 0.02392
v 0.01038 -0.02600 0.02600
v 0.02703 -0.02391 0.02600
v -0.02704 -0.01559 0.03223
v 0.02703 -0.01975 0.03223
v 0.02287 -0.02183 0.02392
v 0.04575 0.00312 0.02184
v 0.00416 -0.02600 0.03016
v -0.02704 -0.01143 0.03639
v -0.00416 -0.01351 0.02392
v -0.02495 -0.00312 0.03016
v -0.01455 -0.02183 0.03639
v 0.02495 0.00727 0.04263
v 0.01247 0.01975 0.02600
v -0.00832 -0.00727 0.02392
v -0.00832 0.01559 0.03016
v 0.03534 0.01767 0.02808
v 0.04158 0.00312 0.01976
v -0.00624 -0.02391 0.03431
v 0.00833 -0.01975 0.02392
v -0.00832 0.01351 0.02600
v -0.00000 0.02183 0.01351
v -0.06655 -0.00727 0.00520
v -0.04159 -0.02806 0.00104
v -0.00416 0.05094 0.00104
v -0.00000 -0.03223 0.00728
v -0.01248 -0.01559 0.01767
v -0.05615 0.01974 0.00936
v -0.03327 -0.05303 0.00520
v -0.00000 -0.03015 0.00104
v -0.06239 -0.02390 0.00936
v -0.01872 0.05303 0.00520
v -0.01248 0.00935 0.01767
v -0.03120 0.03431 0.00104
v -0.00000 -0.01559 0.01767
v -0.03535 -0.04887 0.00104
v -0.06655 0.00727 0.00936
v -0.06655 0.00727 0.00520
v -0.00000 0.03431 0.00104
v -0.00208 0.05094 0.00520
v -0.00000 0.01143 0.01767
v -0.06239 -0.02390 0.00520
v -0.01664 -0.00727 0.01767
v -0.02912 -0.05303 0.00520
v -0.01872 0.05303 0.00312
v -0.02496 -0.04887 0.00104
v -0.06655 -0.00727 0.00936
v -0.00000 -0.02806 0.01143
v -0.03327 -0.04679 0.00728
v -0.05822 0.01767 0.00520
v -0.04159 -0.01559 0.00104
v -0.01664 0.00519 0.01767
v -0.00624 0.05303 0.00520
v -0.01457 0.05094 0.00104
v -0.00000 -0.03223 0.00312
v -0.03327 -0.05303 0.00312
v -0.00000 0.03639 0.00520
v -0.00624 0.01143 0.01767
v -0.06446 -0.01767 0.00936
v -0.02912 -0.05303 0.00312
v -0.06446 -0.01767 0.00520
v -0.00208 0.05094 0.00312
v -0.03742 0.03431 0.00312
v -0.00624 0.05303 0.00312
v 0.00624 0.00519 0.01975
v -0.00000 -0.03223 0.00312
v -0.00000 -0.03223 0.00728
v 0.04575 -0.00727 0.00728
v -0.00000 0.03015 0.00104
v 0.04159 0.00311 0.01767
v 0.02288 -0.03015 -0.00104
v 0.02703 -0.02599 0.01143
v 0.04367 0.00935 0.00520
v -0.00000 0.03223 0.00728
v -0.00000 -0.01351 0.01767
v 0.04367 0.01559 0.01352
v 0.04575 -0.00519 0.01559
v -0.00000 0.01767 0.01559
v 0.04575 0.01559 0.00936
v -0.00000 -0.03015 0.00104
v 0.00208 0.03431 0.00312
v 0.01249 0.01767 0.00104
v 0.01249 0.01767 0.01559
v 0.00832 -0.01975 0.01559
v 0.04575 -0.00519 0.00520
v 0.02288 -0.02392 -0.00104
v 0.01664 -0.02599 -0.00104
v 0.04159 -0.00935 0.01559
v 0.00832 -0.00103 0.01975
v 0.01040 -0.03223 0.00728
v -0.00000 -0.02807 0.01143
v 0.00832 0.02600 0.01143
v 0.00208 0.00519 0.01975
v 0.04367 0.01559 0.00728
v 0.00208 0.03015 0.00104
v 0.00208 0.03431 0.00520
v 0.04159 0.01143 0.01559
v 0.02288 -0.03015 0.00728
v 0.04575 0.00519 0.01559
v 0.04575 -0.00727 0.01352
v 0.01456 -0.02807 0.01143
v 0.04575 0.00519 0.00520
v 0.04159 0.00104 0.01767
v 0.01249 -0.03223 0.00312
v 0.04575 0.01559 0.01143
v 0.00208 -0.01351 0.01767
v -0.00000 0.01143 0.01767
v 0.01456 0.02183 0.01352
v 0.00208 -0.00103 0.01975
v 0.03951 0.01351 0.00520
v -0.00000 -0.01975 0.01559
v 0.01664 -0.03015 0.00936
f 207 225 230 
f 173 172 185 
f 174 171 187 
f 173 185 188 
f 169 168 189 
f 168 169 190 
f 169 183 190 
f 183 177 190 
f 177 181 191 
f 188 185 192 
f 183 169 193 
f 171 183 193 
f 169 189 193 
f 189 179 193 
f 179 189 195 
f 172 173 196 
f 173 178 196 
f 184 172 196 
f 178 184 196 
f 173 188 197 
f 191 181 199 
f 181 177 200 
f 183 171 200 
f 175 194 201 
f 198 167 201 
f 182 198 201 
f 194 175 202 
f 184 178 203 
f 189 168 203 
f 170 186 204 
f 186 193 204 
f 193 179 204 
f 179 195 204 
f 187 171 206 
f 171 193 206 
f 193 186 206 
f 176 195 207 
f 176 194 208 
f 195 176 208 
f 170 204 208 
f 204 195 208 
f 199 174 209 
f 180 199 209 
f 172 184 210 
f 184 177 210 
f 177 191 210 
f 192 180 211 
f 201 167 211 
f 180 209 211 
f 185 191 212 
f 199 180 212 
f 191 199 212 
f 194 176 213 
f 176 197 213 
f 197 182 213 
f 201 194 213 
f 182 201 213 
f 171 174 214 
f 174 199 214 
f 199 181 214 
f 200 171 214 
f 181 200 214 
f 180 192 215 
f 192 185 215 
f 212 180 215 
f 185 212 215 
f 172 210 216 
f 210 191 216 
f 175 201 217 
f 209 175 217 
f 201 211 217 
f 211 209 217 
f 186 170 218 
f 202 186 218 
f 194 202 218 
f 170 208 218 
f 208 194 218 
f 167 198 219 
f 173 197 220 
f 197 176 220 
f 205 173 220 
f 176 205 220 
f 175 187 221 
f 186 202 221 
f 202 175 221 
f 187 206 221 
f 206 186 221 
f 177 183 222 
f 200 177 222 
f 183 200 222 
f 168 184 223 
f 203 168 223 
f 184 203 223 
f 182 197 224 
f 197 188 224 
f 198 182 224 
f 188 219 224 
f 219 198 224 
f 195 189 225 
f 189 203 225 
f 207 195 225 
f 184 168 226 
f 177 184 226 
f 168 190 226 
f 190 177 226 
f 185 172 227 
f 191 185 227 
f 172 216 227 
f 216 191 227 
f 174 187 228 
f 187 175 228 
f 209 174 228 
f 175 209 228 
f 188 192 229 
f 211 167 229 
f 192 211 229 
f 219 188 229 
f 167 219 229 
f 178 173 230 
f 203 178 230 
f 173 205 230 
f 205 176 230 
f 176 207 230 
f 225 203 230 
