# Original object name hint: convex_2
v 0.06239 -0.00519 -0.03846
v 0.06239 0.01974 0.03015
v 0.06031 0.01974 0.03015
v 0.05407 -0.04055 0.00311
v 0.04783 0.01766 -0.03431
v 0.04575 0.00312 0.03015
v 0.06239 0.04679 -0.00521
v 0.04991 -0.03639 -0.03639
v 0.06655 0.00104 0.02807
v 0.06239 -0.03639 -0.00521
v 0.06239 0.02599 -0.03846
v 0.05823 -0.02807 0.02391
v 0.06655 0.01351 -0.00935
v 0.05823 -0.03847 -0.03639
v 0.05823 0.04471 -0.00313
v 0.05407 0.02599 -0.04055
v 0.04575 -0.00935 0.01144
v 0.04575 0.00935 0.02807
v 0.04991 -0.03223 0.00936
v 0.05407 -0.00935 -0.04263
v 0.06655 0.01974 0.02391
v 0.05615 0.03638 -0.03431
v 0.06239 -0.03223 0.01351
v 0.06655 0.02599 -0.00521
v 0.04783 0.00312 -0.03639
v 0.05199 -0.02807 0.02183
v 0.06239 -0.00311 0.03015
v 0.06031 -0.00519 -0.04263
v 0.04991 -0.03847 -0.00313
v 0.06031 0.04679 -0.00105
v 0.06031 -0.03223 -0.03639
v 0.05199 0.03015 -0.03223
v 0.06031 -0.04055 0.00103
v 0.05199 -0.04055 -0.03431
v 0.04575 -0.00519 0.02807
v 0.06655 0.00520 -0.00313
v 0.05199 0.00935 -0.04263
v 0.06031 0.02183 -0.04263
v 0.06239 0.03222 -0.03431
v 0.05199 -0.01560 0.02807
v 0.05615 -0.03847 -0.03846
v 0.04575 0.00728 0.00728
v 0.06239 0.04679 -0.00105
v 0.04575 -0.00935 0.00728
v 0.05823 -0.04055 -0.03223
v 0.06031 0.03431 -0.03639
v 0.06239 -0.00104 -0.04055
v 0.05823 -0.03223 0.01975
v 0.06655 -0.00104 0.01351
v 0.04991 0.02183 -0.03846
v 0.04991 -0.00104 -0.04055
v 0.06447 0.01766 0.03015
v 0.06239 -0.03639 0.00519
v 0.06655 0.02599 0.00728
v 0.05199 -0.03639 -0.03846
v 0.06031 -0.03639 -0.03223
v 0.05407 -0.03223 0.01975
v 0.06031 -0.02807 0.02183
v 0.06447 0.01766 -0.02599
v 0.05407 0.03431 -0.03431
v 0.04991 0.01559 -0.04055
v 0.06447 -0.00104 0.03015
v 0.05199 -0.04055 -0.00105
v 0.06031 -0.03431 0.01558
v 0.00208 0.01767 -0.01144
v -0.05615 -0.02183 -0.01767
v -0.03327 -0.02599 -0.02183
v -0.01041 0.05093 -0.02392
v -0.03535 0.03638 -0.00936
v 0.00208 -0.03223 -0.00728
v 0.00208 -0.02807 -0.02183
v -0.02910 -0.03639 -0.00728
v -0.02704 -0.05095 -0.01767
v -0.00416 0.05093 -0.00936
v -0.05407 0.02182 -0.01767
v -0.02704 0.00312 -0.00520
v -0.05615 -0.01974 -0.01352
v -0.00209 0.05093 -0.02392
v -0.02910 0.01767 -0.02392
v -0.01664 -0.05095 -0.01144
v -0.00624 0.00518 -0.00520
v -0.01872 0.05093 -0.01352
v -0.05407 0.02182 -0.01352
v -0.00416 -0.00104 -0.02392
v -0.03951 0.03846 -0.01767
v -0.01872 0.04054 -0.00728
v -0.03743 0.01767 -0.00728
v 0.00208 0.01142 -0.00728
v 0.00208 -0.03430 -0.01975
v -0.02704 -0.05095 -0.01352
v -0.03535 -0.02807 -0.00728
v -0.03535 0.03638 -0.02183
v -0.01041 -0.01559 -0.00520
v -0.00209 0.05303 -0.01352
v 0.00208 0.00935 -0.02183
v -0.01456 -0.04471 -0.01975
v -0.02497 -0.03223 -0.02183
v -0.03535 0.04054 -0.01144
v -0.02910 0.03222 -0.02392
v -0.01248 -0.04886 -0.01560
v -0.05615 0.00726 -0.01767
v -0.01248 0.05303 -0.01975
v -0.01041 0.05093 -0.00936
v -0.05407 -0.02391 -0.01352
v -0.05615 0.00726 -0.01352
v -0.02289 0.01142 -0.00520
v -0.01248 -0.00104 -0.02392
v 0.00208 -0.03430 -0.00936
v -0.01248 0.04054 -0.00728
v -0.03535 0.04054 -0.01975
v -0.02497 -0.00727 -0.00520
v -0.03118 0.03015 -0.00728
v -0.00624 -0.03223 -0.02183
v -0.01664 -0.03639 -0.00728
v -0.00209 0.05303 -0.02183
v -0.01041 0.05303 -0.01144
v 0.00208 0.01767 -0.01767
v -0.03743 0.00518 -0.00728
v -0.00209 0.00104 -0.02392
v -0.01456 -0.04886 -0.01767
v -0.03951 0.03846 -0.01352
v -0.00624 -0.01351 -0.00520
v -0.01872 0.05093 -0.01767
v -0.00209 0.05093 -0.01144
v -0.01664 -0.04471 -0.00936
v -0.02080 -0.05095 -0.01144
v -0.01664 -0.05095 -0.01560
v -0.01456 0.01142 -0.00520
v 0.02287 -0.01559 -0.01559
v 0.00208 -0.03431 -0.01768
v 0.00208 -0.03431 -0.00936
v 0.00208 0.01352 -0.01768
v 0.02496 -0.02807 -0.00104
v 0.00208 0.00936 -0.00728
v 0.01664 0.00519 -0.01144
v 0.01871 -0.02807 -0.01976
v 0.01040 0.00519 -0.01976
v 0.02287 -0.03223 -0.01351
v 0.00208 -0.03223 -0.01976
v 0.00208 -0.03223 -0.00728
v 0.02079 -0.03015 -0.00104
v 0.01456 0.00728 -0.01768
v 0.02496 -0.01975 -0.01351
v 0.01248 0.00728 -0.00936
v 0.02079 -0.00312 -0.01144
v 0.00208 0.00936 -0.01976
v 0.02496 -0.02599 -0.00104
v 0.00416 0.01352 -0.01144
v 0.01456 -0.03223 -0.01976
v 0.01248 -0.03431 -0.01144
v 0.02496 -0.03015 -0.01351
v 0.00416 0.00936 -0.00728
v 0.01871 0.00103 -0.01559
v 0.02496 -0.03015 -0.00312
v 0.01248 -0.03431 -0.01559
v 0.01664 0.00103 -0.01768
v 0.01248 0.00936 -0.01144
v 0.00416 0.01352 -0.01768
v 0.01664 0.00312 -0.00936
v 0.02079 -0.02599 -0.00104
v 0.02496 -0.01975 -0.00936
v 0.01248 0.00103 -0.01976
v 0.01871 -0.03223 -0.01768
v 0.02287 -0.03223 -0.00936
v 0.01871 -0.02599 -0.01976
v 0.02287 -0.03015 -0.00104
v 0.00416 -0.02391 0.02600
v 0.01455 0.01975 0.03223
v 0.01871 0.01767 0.03431
v -0.02495 -0.00312 0.03847
v 0.02287 0.00103 0.04263
v 0.04158 0.00727 0.01976
v 0.00209 0.00519 0.01976
v 0.02287 -0.02391 0.03223
v -0.02079 -0.02391 0.03431
v -0.02704 0.00519 0.03223
v 0.04575 0.00935 0.02808
v 0.00209 0.01767 0.02392
v -0.01663 0.00935 0.03847
v 0.02287 -0.02600 0.02600
v 0.04575 -0.00312 0.02808
v -0.02287 -0.01559 0.03016
v 0.02287 0.00935 0.04263
v 0.03534 0.01767 0.02392
v 0.03534 -0.00312 0.01976
v -0.02079 -0.00104 0.04055
v -0.00832 -0.02183 0.03639
v 0.00209 -0.00104 0.01976
v 0.00209 0.01975 0.03223
v 0.03327 0.01767 0.03016
v 0.04575 -0.00312 0.02392
v 0.01455 -0.02183 0.02392
v 0.01038 0.00935 0.04263
v -0.02704 -0.01559 0.03431
v -0.02287 0.00935 0.03639
v 0.03119 0.01559 0.02184
v -0.02495 -0.00727 0.03016
v -0.00832 -0.01767 0.02600
v 0.02703 -0.02391 0.03016
v 0.02495 0.00312 0.04263
v -0.02079 -0.02391 0.03223
v -0.02287 -0.01975 0.03639
v 0.00416 0.01975 0.02600
v -0.02079 0.00519 0.04055
v -0.01247 0.00935 0.02600
v 0.01247 0.00103 0.04263
v -0.02287 0.00935 0.03223
v -0.02704 0.00519 0.03639
v 0.02079 -0.02600 0.03016
v 0.04575 0.00935 0.02392
v 0.01038 -0.02600 0.02600
v 0.02703 -0.02391 0.02600
v -0.02704 -0.01559 0.03223
v 0.02703 -0.01975 0.03223
v 0.02287 -0.02183 0.02392
v 0.04575 0.00312 0.02184
v 0.00416 -0.02600 0.03016
v -0.02704 -0.01143 0.03639
v -0.00416 -0.01351 0.02392
v -0.02495 -0.00312 0.03016
v -0.01455 -0.02183 0.03639
v 0.02495 0.00727 0.04263
v 0.01247 0.01975 0.02600
v -0.00832 -0.00727 0.02392
v -0.00832 0.01559 0.03016
v 0.03534 0.01767 0.02808
v 0.04158 0.00312 0.01976
v -0.00624 -0.02391 0.03431
v 0.00833 -0.01975 0.02392
v -0.00832 0.01351 0.02600
v -0.00000 0.02183 0.01351
v -0.06655 -0.00727 0.00520
v -0.04159 -0.02806 0.00104
v -0.00416 0.05094 0.00104
v -0.00000 -0.03223 0.00728
v -0.01248 -0.01559 0.01767
v -0.05615 0.01974 0.00936
v -0.03327 -0.05303 0.00520
v -0.00000 -0.03015 0.00104
v -0.06239 -0.02390 0.00936
v -0.01872 0.05303 0.00520
v -0.01248 0.00935 0.01767
v -0.03120 0.03431 0.00104
v -0.00000 -0.01559 0.01767
v -0.03535 -0.04887 0.00104
v -0.06655 0.00727 0.00936
v -0.06655 0.00727 0.00520
v -0.00000 0.03431 0.00104
v -0.00208 0.05094 0.00520
v -0.00000 0.01143 0.01767
v -0.06239 -0.02390 0.00520
v -0.01664 -0.00727 0.01767
v -0.02912 -0.05303 0.00520
v -0.01872 0.05303 0.00312
v -0.02496 -0.04887 0.00104
v -0.06655 -0.00727 0.00936
v -0.00000 -0.02806 0.01143
v -0.03327 -0.04679 0.00728
v -0.05822 0.01767 0.00520
v -0.04159 -0.01559 0.00104
v -0.01664 0.00519 0.01767
v -0.00624 0.05303 0.00520
v -0.01457 0.05094 0.00104
v -0.00000 -0.03223 0.00312
v -0.03327 -0.05303 0.00312
v -0.00000 0.03639 0.00520
v -0.00624 0.01143 0.01767
v -0.06446 -0.01767 0.00936
v -0.02912 -0.05303 0.00312
v -0.06446 -0.01767 0.00520
v -0.00208 0.05094 0.00312
v -0.03742 0.03431 0.00312
v -0.00624 0.05303 0.00312
v 0.00624 0.00519 0.01975
v -0.00000 -0.03223 0.00312
v -0.00000 -0.03223 0.00728
v 0.04575 -0.00727 0.00728
v -0.00000 0.03015 0.00104
v 0.04159 0.00311 0.01767
v 0.02288 -0.03015 -0.00104
v 0.02703 -0.02599 0.01143
v 0.04367 0.00935 0.00520
v -0.00000 0.03223 0.00728
v -0.00000 -0.01351 0.01767
v 0.04367 0.01559 0.01352
v 0.04575 -0.00519 0.01559
v -0.00000 0.01767 0.01559
v 0.04575 0.01559 0.00936
v -0.00000 -0.03015 0.00104
v 0.00208 0.03431 0.00312
v 0.01249 0.01767 0.00104
v 0.01249 0.01767 0.01559
v 0.00832 -0.01975 0.01559
v 0.04575 -0.00519 0.00520
v 0.02288 -0.02392 -0.00104
v 0.01664 -0.02599 -0.00104
v 0.04159 -0.00935 0.01559
v 0.00832 -0.00103 0.01975
v 0.01040 -0.03223 0.00728
v -0.00000 -0.02807 0.01143
v 0.00832 0.02600 0.01143
v 0.00208 0.00519 0.01975
v 0.04367 0.01559 0.00728
v 0.00208 0.03015 0.00104
v 0.00208 0.03431 0.00520
v 0.04159 0.01143 0.01559
v 0.02288 -0.03015 0.00728
v 0.04575 0.00519 0.01559
v 0.04575 -0.00727 0.01352
v 0.01456 -0.02807 0.01143
v 0.04575 0.00519 0.00520
v 0.04159 0.00104 0.01767
v 0.01249 -0.03223 0.00312
v 0.04575 0.01559 0.01143
v 0.00208 -0.01351 0.01767
v -0.00000 0.01143 0.01767
v 0.01456 0.02183 0.01352
v 0.00208 -0.00103 0.01975
v 0.03951 0.01351 0.00520
v -0.00000 -0.01975 0.01559
v 0.01664 -0.03015 0.00936
f 164 154 166 
f 130 131 132 
f 132 131 134 
f 130 132 139 
f 137 136 139 
f 134 131 140 
f 134 140 141 
f 140 131 141 
f 139 132 146 
f 137 139 146 
f 141 133 147 
f 133 143 147 
f 132 134 148 
f 130 139 149 
f 139 136 149 
f 131 130 150 
f 143 133 151 
f 136 143 151 
f 134 147 152 
f 147 144 152 
f 148 134 152 
f 144 148 152 
f 142 135 153 
f 143 129 153 
f 135 145 153 
f 145 143 153 
f 151 133 154 
f 138 151 154 
f 130 149 155 
f 150 130 155 
f 138 150 155 
f 153 129 156 
f 142 153 156 
f 135 142 157 
f 148 144 157 
f 148 157 158 
f 142 137 158 
f 146 132 158 
f 137 146 158 
f 132 148 158 
f 157 142 158 
f 145 135 159 
f 144 147 159 
f 147 145 159 
f 135 157 159 
f 157 144 159 
f 134 141 160 
f 147 134 160 
f 141 147 160 
f 143 145 161 
f 147 143 161 
f 145 147 161 
f 136 137 162 
f 137 142 162 
f 142 156 162 
f 149 136 163 
f 151 138 163 
f 136 151 163 
f 155 149 163 
f 138 155 163 
f 150 138 164 
f 138 154 164 
f 129 143 165 
f 143 136 165 
f 156 129 165 
f 136 162 165 
f 162 156 165 
f 133 141 166 
f 141 131 166 
f 131 150 166 
f 154 133 166 
f 150 164 166 
