# Original object name hint: convex_1
v 0.06368 0.02586 0.01989
v 0.05572 -0.02985 -0.01791
v 0.05970 -0.02985 -0.01791
v 0.06169 0.03581 -0.03980
v 0.04776 0.01989 0.02785
v 0.05174 0.02387 -0.03781
v 0.06368 -0.02387 0.00198
v 0.06368 -0.00198 -0.03781
v 0.05572 -0.02586 -0.03781
v 0.04776 0.00596 0.02586
v 0.05771 0.03980 -0.02587
v 0.06169 0.00994 0.02785
v 0.04776 0.00399 0.00397
v 0.05572 -0.02387 0.00795
v 0.06368 0.03781 -0.03582
v 0.05970 -0.02188 -0.03980
v 0.05771 0.02586 0.02586
v 0.05174 0.00399 -0.03781
v 0.05373 0.03382 -0.03582
v 0.05373 0.01989 -0.04178
v 0.05373 -0.02586 -0.00200
v 0.05970 -0.01790 0.01392
v 0.06368 -0.02387 -0.01791
v 0.04776 0.01989 0.00596
v 0.04776 0.02189 0.02586
v 0.06169 0.03980 -0.02388
v 0.06169 0.00399 -0.04178
v 0.05771 0.00994 0.02984
v 0.06169 -0.02785 0.00198
v 0.06368 0.01790 0.02586
v 0.05373 -0.02586 -0.01791
v 0.05970 -0.02785 -0.03582
v 0.05771 0.02785 0.02188
v 0.05970 0.01989 0.02984
v 0.05373 0.00399 -0.04178
v 0.05771 0.03980 -0.03582
v 0.06169 0.02785 0.02188
v 0.06169 0.02785 -0.04178
v 0.05572 0.03382 -0.03980
v 0.06169 -0.02985 -0.01393
v 0.06368 -0.01790 0.00795
v 0.05572 -0.01790 0.01392
v 0.05373 0.00994 0.02984
v 0.06368 0.03781 -0.02189
v 0.05572 -0.02985 -0.00995
v 0.04776 0.01392 0.00198
v 0.05572 0.03781 -0.02985
v 0.06169 -0.02188 0.00994
v 0.06368 0.00795 0.02387
v 0.05174 0.02785 -0.03382
v 0.05572 -0.02188 -0.03980
v 0.05373 -0.02387 -0.02189
v 0.05572 -0.02785 -0.00001
v 0.05970 -0.00397 -0.04178
v 0.06368 0.03382 -0.03781
v 0.06368 -0.00596 -0.03582
v 0.04776 0.02189 0.01790
v 0.05174 0.01790 0.02984
v 0.04776 0.00994 0.02785
v 0.05572 -0.02785 -0.03382
v 0.05373 -0.02188 0.00596
v 0.05771 0.02984 -0.04178
v 0.06169 0.03980 -0.03582
v 0.06368 -0.02586 -0.00200
v 0.01989 0.01989 0.01392
v -0.06368 0.00199 0.00398
v -0.06368 0.00199 0.00795
v -0.01991 -0.04378 0.00398
v -0.00399 0.04378 -0.00000
v 0.01989 0.00795 -0.00000
v -0.01593 0.01591 0.01592
v -0.02587 -0.04378 -0.00000
v -0.03781 0.03383 0.00795
v 0.01789 -0.01591 0.00795
v -0.05372 0.01393 -0.00000
v -0.00598 0.00199 0.01592
v -0.01991 0.00795 -0.00199
v -0.05572 -0.01393 0.00795
v -0.05174 0.02984 0.00398
v 0.01989 0.02388 -0.00000
v 0.01392 0.00398 0.01592
v 0.01193 0.02188 0.01592
v -0.00200 0.04378 0.00398
v 0.00596 -0.01791 -0.00000
v -0.06368 0.01393 0.00795
v 0.00197 0.00994 -0.00199
v 0.01789 -0.01591 0.00398
v -0.01195 0.04378 -0.00000
v 0.01989 0.02786 0.00795
v -0.01593 0.02388 -0.00199
v -0.02587 -0.04378 0.00398
v -0.05970 -0.00994 0.00398
v -0.01991 -0.04378 -0.00000
v -0.00797 0.02188 0.01592
v -0.05174 0.02786 0.00795
v -0.01593 0.04378 0.00398
v -0.01593 0.00795 0.01592
v 0.01989 0.00398 0.01392
v -0.06368 0.01393 0.00398
v -0.05372 0.00795 -0.00000
v 0.00197 0.01989 -0.00199
v -0.05572 -0.00795 0.00199
v 0.01789 0.02586 0.01193
v 0.01989 0.02786 0.00398
v -0.00797 0.00000 -0.00199
v -0.01195 0.00398 0.01592
v 0.01193 0.02586 0.01392
v -0.05174 0.02388 0.00199
v -0.00200 -0.00596 0.01392
v -0.05970 0.01591 0.00199
v 0.01989 0.00000 0.00398
v -0.05174 0.02984 0.00597
v 0.01591 0.01791 0.01592
v -0.01593 0.04178 -0.00000
v -0.05771 -0.01193 0.00795
v -0.05970 0.00199 0.00199
v -0.01593 0.04378 0.00199
v -0.01394 0.00000 -0.00199
v -0.01991 0.01989 -0.00199
v -0.06168 -0.00398 0.00795
v -0.05174 0.01591 -0.00000
v -0.00598 0.02586 0.01392
v -0.01195 0.01989 0.01592
v -0.00200 0.04378 0.00199
v 0.01591 0.00596 0.01592
v -0.00996 0.02388 -0.00199
v 0.01989 0.00000 0.00995
v 0.01392 -0.01393 0.00199
v 0.04178 0.02587 0.00994
v 0.01990 0.00199 0.00398
v 0.02388 -0.00397 0.00398
v 0.01990 0.00398 0.01392
v 0.04776 0.00597 0.01592
v 0.04776 0.00995 0.00199
v 0.01990 0.02587 0.00199
v 0.01990 0.02388 0.01194
v 0.04577 0.02189 0.01592
v 0.01990 0.00995 -0.00000
v 0.04776 0.01990 0.00398
v 0.04776 0.00398 0.00398
v 0.02587 0.01990 -0.00000
v 0.03383 0.01592 0.01592
v 0.02587 -0.00397 0.00597
v 0.04577 0.02388 0.00597
v 0.01990 0.01791 0.01392
v 0.04776 0.02189 0.01392
v 0.01990 0.02587 0.00994
v 0.04776 0.00398 0.01392
v 0.02587 0.00995 -0.00000
v 0.02388 0.02587 0.00199
v 0.03980 0.02189 0.01592
v 0.03780 0.02587 0.01194
v 0.04776 0.01393 0.00199
v 0.01990 0.02189 -0.00000
v 0.03980 0.00597 0.01592
v 0.02587 -0.00397 0.00398
v 0.01990 0.00199 0.01194
v 0.03184 0.02388 0.01392
v 0.04178 0.02587 0.00796
v 0.04776 0.01990 0.01592
v 0.02786 0.01194 -0.00000
v 0.03383 0.01194 0.01592
v -0.00796 0.02388 0.03383
v -0.03185 0.00995 0.03184
v -0.02786 0.00597 0.02985
v -0.01792 -0.00398 0.03383
v -0.00796 0.01791 0.02388
v -0.02985 0.01592 0.03582
v -0.00796 0.00796 0.03582
v -0.00796 0.00597 0.02587
v -0.01394 0.02189 0.02786
v -0.02189 -0.00199 0.02985
v -0.03185 0.00995 0.03582
v -0.00996 0.00995 0.02388
v -0.02786 0.01393 0.02985
v -0.00796 0.02189 0.03582
v -0.02189 -0.00398 0.03383
v -0.01195 0.02388 0.02985
v -0.02985 0.01592 0.03184
v -0.02587 0.00597 0.03582
v -0.00796 0.02388 0.02786
v -0.00996 0.01791 0.02388
v -0.00796 0.00597 0.03383
v -0.01792 -0.00398 0.03184
v -0.02388 -0.00199 0.03184
v -0.00996 0.02388 0.03383
v -0.03185 0.01393 0.03184
v -0.02587 0.00199 0.02985
v -0.00996 0.02189 0.02587
v -0.01195 0.02189 0.03582
v -0.01394 0.00597 0.03582
v 0.03780 0.02786 0.02786
v -0.00796 0.00995 0.01592
v -0.00796 0.00597 0.02587
v 0.04775 0.00597 0.01592
v 0.02984 0.01194 0.03980
v -0.00796 0.02388 0.03382
v 0.00399 0.01990 0.01592
v 0.04775 0.02189 0.01592
v -0.00398 0.00398 0.03183
v 0.01989 0.02189 0.04178
v 0.04775 0.01990 0.02786
v 0.00796 0.02786 0.02388
v 0.00399 0.00398 0.01592
v 0.02785 0.00398 0.02984
v -0.00796 0.00796 0.03581
v 0.04775 0.00796 0.02587
v 0.00995 0.02786 0.03382
v -0.00796 0.02388 0.02587
v 0.02984 0.02189 0.03980
v 0.03979 0.02786 0.02189
v 0.02586 0.02587 0.03780
v -0.00796 0.02189 0.03581
v -0.00398 0.02587 0.03382
v -0.00597 0.01592 0.01592
v 0.01989 0.01791 0.04178
v 0.04775 0.00995 0.02786
v 0.04576 0.02388 0.02587
v 0.02785 0.00796 0.03581
v 0.00199 0.02786 0.02786
v 0.02984 0.00398 0.02587
v 0.04775 0.00597 0.02189
v 0.02785 0.02786 0.03382
v 0.03382 0.02587 0.01990
v 0.01592 0.02388 0.03980
v 0.01989 0.01194 0.03980
v 0.01194 0.00398 0.01592
v 0.02387 0.02189 0.04178
v -0.00597 0.02587 0.02786
v 0.00796 0.00398 0.03183
v -0.00796 0.01393 0.01592
v 0.04377 0.02388 0.02786
v 0.03979 0.02189 0.01592
v -0.00796 0.00597 0.03382
v -0.00398 0.00398 0.02786
v -0.00398 0.02388 0.03581
v 0.00597 0.02587 0.02189
v 0.02984 0.02587 0.03581
v 0.03382 0.02786 0.02189
v 0.02984 0.00995 0.03780
v 0.04775 0.02189 0.02587
v 0.00399 0.02786 0.03183
v -0.00597 0.02587 0.03183
f 87 84 128 
f 65 70 80 
f 68 74 81 
f 71 76 81 
f 71 81 82 
f 66 67 85 
f 67 71 85 
f 80 70 86 
f 70 84 86 
f 74 68 87 
f 83 69 88 
f 65 80 89 
f 86 77 90 
f 88 69 90 
f 72 68 91 
f 78 72 91 
f 67 66 92 
f 72 78 92 
f 68 72 93 
f 86 84 93 
f 87 68 93 
f 84 87 93 
f 71 82 94 
f 85 71 95 
f 94 73 95 
f 83 88 96 
f 73 94 96 
f 71 67 97 
f 76 71 97 
f 70 65 98 
f 66 85 99 
f 85 79 99 
f 77 72 100 
f 75 77 100 
f 69 80 101 
f 80 86 101 
f 86 90 101 
f 72 92 102 
f 100 72 102 
f 82 65 103 
f 65 89 103 
f 89 83 103 
f 80 69 104 
f 89 80 104 
f 83 89 104 
f 77 86 105 
f 93 72 105 
f 86 93 105 
f 91 76 106 
f 78 91 106 
f 76 97 106 
f 97 78 106 
f 94 82 107 
f 83 96 107 
f 82 103 107 
f 103 83 107 
f 68 81 109 
f 81 76 109 
f 91 68 109 
f 76 91 109 
f 66 99 110 
f 99 79 110 
f 75 100 110 
f 108 75 110 
f 79 108 110 
f 87 70 111 
f 74 87 111 
f 70 98 111 
f 79 85 112 
f 95 73 112 
f 85 95 112 
f 73 96 112 
f 96 79 112 
f 65 82 113 
f 82 81 113 
f 98 65 113 
f 79 88 114 
f 88 90 114 
f 108 79 114 
f 92 78 115 
f 78 97 115 
f 92 66 116 
f 102 92 116 
f 100 102 116 
f 66 110 116 
f 110 100 116 
f 88 79 117 
f 79 96 117 
f 96 88 117 
f 72 77 118 
f 105 72 118 
f 77 105 118 
f 77 75 119 
f 75 90 119 
f 90 77 119 
f 67 92 120 
f 97 67 120 
f 92 115 120 
f 115 97 120 
f 90 75 121 
f 75 108 121 
f 114 90 121 
f 108 114 121 
f 96 94 122 
f 94 107 122 
f 107 96 122 
f 71 94 123 
f 95 71 123 
f 94 95 123 
f 69 83 124 
f 104 69 124 
f 83 104 124 
f 81 74 125 
f 74 98 125 
f 113 81 125 
f 98 113 125 
f 90 69 126 
f 69 101 126 
f 101 90 126 
f 98 74 127 
f 74 111 127 
f 111 98 127 
f 84 70 128 
f 70 87 128 
