# Original object name hint: convex_0
v 0.06368 0.02586 0.01989
v 0.05572 -0.02985 -0.01791
v 0.05970 -0.02985 -0.01791
v 0.06169 0.03581 -0.03980
v 0.04776 0.01989 0.02785
v 0.05174 0.02387 -0.03781
v 0.06368 -0.02387 0.00198
v 0.06368 -0.00198 -0.03781
v 0.05572 -0.02586 -0.03781
v 0.04776 0.00596 0.02586
v 0.05771 0.03980 -0.02587
v 0.06169 0.00994 0.02785
v 0.04776 0.00399 0.00397
v 0.05572 -0.02387 0.00795
v 0.06368 0.03781 -0.03582
v 0.05970 -0.02188 -0.03980
v 0.05771 0.02586 0.02586
v 0.05174 0.00399 -0.03781
v 0.05373 0.03382 -0.03582
v 0.05373 0.01989 -0.04178
v 0.05373 -0.02586 -0.00200
v 0.05970 -0.01790 0.01392
v 0.06368 -0.02387 -0.01791
v 0.04776 0.01989 0.00596
v 0.04776 0.02189 0.02586
v 0.06169 0.03980 -0.02388
v 0.06169 0.00399 -0.04178
v 0.05771 0.00994 0.02984
v 0.06169 -0.02785 0.00198
v 0.06368 0.01790 0.02586
v 0.05373 -0.02586 -0.01791
v 0.05970 -0.02785 -0.03582
v 0.05771 0.02785 0.02188
v 0.05970 0.01989 0.02984
v 0.05373 0.00399 -0.04178
v 0.05771 0.03980 -0.03582
v 0.06169 0.02785 0.02188
v 0.06169 0.02785 -0.04178
v 0.05572 0.03382 -0.03980
v 0.06169 -0.02985 -0.01393
v 0.06368 -0.01790 0.00795
v 0.05572 -0.01790 0.01392
v 0.05373 0.00994 0.02984
v 0.06368 0.03781 -0.02189
v 0.05572 -0.02985 -0.00995
v 0.04776 0.01392 0.00198
v 0.05572 0.03781 -0.02985
v 0.06169 -0.02188 0.00994
v 0.06368 0.00795 0.02387
v 0.05174 0.02785 -0.03382
v 0.05572 -0.02188 -0.03980
v 0.05373 -0.02387 -0.02189
v 0.05572 -0.02785 -0.00001
v 0.05970 -0.00397 -0.04178
v 0.06368 0.03382 -0.03781
v 0.06368 -0.00596 -0.03582
v 0.04776 0.02189 0.01790
v 0.05174 0.01790 0.02984
v 0.04776 0.00994 0.02785
v 0.05572 -0.02785 -0.03382
v 0.05373 -0.02188 0.00596
v 0.05771 0.02984 -0.04178
v 0.06169 0.03980 -0.03582
v 0.06368 -0.02586 -0.00200
v 0.01989 0.01989 0.01392
v -0.06368 0.00199 0.00398
v -0.06368 0.00199 0.00795
v -0.01991 -0.04378 0.00398
v -0.00399 0.04378 -0.00000
v 0.01989 0.00795 -0.00000
v -0.01593 0.01591 0.01592
v -0.02587 -0.04378 -0.00000
v -0.03781 0.03383 0.00795
v 0.01789 -0.01591 0.00795
v -0.05372 0.01393 -0.00000
v -0.00598 0.00199 0.01592
v -0.01991 0.00795 -0.00199
v -0.05572 -0.01393 0.00795
v -0.05174 0.02984 0.00398
v 0.01989 0.02388 -0.00000
v 0.01392 0.00398 0.01592
v 0.01193 0.02188 0.01592
v -0.00200 0.04378 0.00398
v 0.00596 -0.01791 -0.00000
v -0.06368 0.01393 0.00795
v 0.00197 0.00994 -0.00199
v 0.01789 -0.01591 0.00398
v -0.01195 0.04378 -0.00000
v 0.01989 0.02786 0.00795
v -0.01593 0.02388 -0.00199
v -0.02587 -0.04378 0.00398
v -0.05970 -0.00994 0.00398
v -0.01991 -0.04378 -0.00000
v -0.00797 0.02188 0.01592
v -0.05174 0.02786 0.00795
v -0.01593 0.04378 0.00398
v -0.01593 0.00795 0.01592
v 0.01989 0.00398 0.01392
v -0.06368 0.01393 0.00398
v -0.05372 0.00795 -0.00000
v 0.00197 0.01989 -0.00199
v -0.05572 -0.00795 0.00199
v 0.01789 0.02586 0.01193
v 0.01989 0.02786 0.00398
v -0.00797 0.00000 -0.00199
v -0.01195 0.00398 0.01592
v 0.01193 0.02586 0.01392
v -0.05174 0.02388 0.00199
v -0.00200 -0.00596 0.01392
v -0.05970 0.01591 0.00199
v 0.01989 0.00000 0.00398
v -0.05174 0.02984 0.00597
v 0.01591 0.01791 0.01592
v -0.01593 0.04178 -0.00000
v -0.05771 -0.01193 0.00795
v -0.05970 0.00199 0.00199
v -0.01593 0.04378 0.00199
v -0.01394 0.00000 -0.00199
v -0.01991 0.01989 -0.00199
v -0.06168 -0.00398 0.00795
v -0.05174 0.01591 -0.00000
v -0.00598 0.02586 0.01392
v -0.01195 0.01989 0.01592
v -0.00200 0.04378 0.00199
v 0.01591 0.00596 0.01592
v -0.00996 0.02388 -0.00199
v 0.01989 0.00000 0.00995
v 0.01392 -0.01393 0.00199
v 0.04178 0.02587 0.00994
v 0.01990 0.00199 0.00398
v 0.02388 -0.00397 0.00398
v 0.01990 0.00398 0.01392
v 0.04776 0.00597 0.01592
v 0.04776 0.00995 0.00199
v 0.01990 0.02587 0.00199
v 0.01990 0.02388 0.01194
v 0.04577 0.02189 0.01592
v 0.01990 0.00995 -0.00000
v 0.04776 0.01990 0.00398
v 0.04776 0.00398 0.00398
v 0.02587 0.01990 -0.00000
v 0.03383 0.01592 0.01592
v 0.02587 -0.00397 0.00597
v 0.04577 0.02388 0.00597
v 0.01990 0.01791 0.01392
v 0.04776 0.02189 0.01392
v 0.01990 0.02587 0.00994
v 0.04776 0.00398 0.01392
v 0.02587 0.00995 -0.00000
v 0.02388 0.02587 0.00199
v 0.03980 0.02189 0.01592
v 0.03780 0.02587 0.01194
v 0.04776 0.01393 0.00199
v 0.01990 0.02189 -0.00000
v 0.03980 0.00597 0.01592
v 0.02587 -0.00397 0.00398
v 0.01990 0.00199 0.01194
v 0.03184 0.02388 0.01392
v 0.04178 0.02587 0.00796
v 0.04776 0.01990 0.01592
v 0.02786 0.01194 -0.00000
v 0.03383 0.01194 0.01592
v -0.00796 0.02388 0.03383
v -0.03185 0.00995 0.03184
v -0.02786 0.00597 0.02985
v -0.01792 -0.00398 0.03383
v -0.00796 0.01791 0.02388
v -0.02985 0.01592 0.03582
v -0.00796 0.00796 0.03582
v -0.00796 0.00597 0.02587
v -0.01394 0.02189 0.02786
v -0.02189 -0.00199 0.02985
v -0.03185 0.00995 0.03582
v -0.00996 0.00995 0.02388
v -0.02786 0.01393 0.02985
v -0.00796 0.02189 0.03582
v -0.02189 -0.00398 0.03383
v -0.01195 0.02388 0.02985
v -0.02985 0.01592 0.03184
v -0.02587 0.00597 0.03582
v -0.00796 0.02388 0.02786
v -0.00996 0.01791 0.02388
v -0.00796 0.00597 0.03383
v -0.01792 -0.00398 0.03184
v -0.02388 -0.00199 0.03184
v -0.00996 0.02388 0.03383
v -0.03185 0.01393 0.03184
v -0.02587 0.00199 0.02985
v -0.00996 0.02189 0.02587
v -0.01195 0.02189 0.03582
v -0.01394 0.00597 0.03582
v 0.03780 0.02786 0.02786
v -0.00796 0.00995 0.01592
v -0.00796 0.00597 0.02587
v 0.04775 0.00597 0.01592
v 0.02984 0.01194 0.03980
v -0.00796 0.02388 0.03382
v 0.00399 0.01990 0.01592
v 0.04775 0.02189 0.01592
v -0.00398 0.00398 0.03183
v 0.01989 0.02189 0.04178
v 0.04775 0.01990 0.02786
v 0.00796 0.02786 0.02388
v 0.00399 0.00398 0.01592
v 0.02785 0.00398 0.02984
v -0.00796 0.00796 0.03581
v 0.04775 0.00796 0.02587
v 0.00995 0.02786 0.03382
v -0.00796 0.02388 0.02587
v 0.02984 0.02189 0.03980
v 0.03979 0.02786 0.02189
v 0.02586 0.02587 0.03780
v -0.00796 0.02189 0.03581
v -0.00398 0.02587 0.03382
v -0.00597 0.01592 0.01592
v 0.01989 0.01791 0.04178
v 0.04775 0.00995 0.02786
v 0.04576 0.02388 0.02587
v 0.02785 0.00796 0.03581
v 0.00199 0.02786 0.02786
v 0.02984 0.00398 0.02587
v 0.04775 0.00597 0.02189
v 0.02785 0.02786 0.03382
v 0.03382 0.02587 0.01990
v 0.01592 0.02388 0.03980
v 0.01989 0.01194 0.03980
v 0.01194 0.00398 0.01592
v 0.02387 0.02189 0.04178
v -0.00597 0.02587 0.02786
v 0.00796 0.00398 0.03183
v -0.00796 0.01393 0.01592
v 0.04377 0.02388 0.02786
v 0.03979 0.02189 0.01592
v -0.00796 0.00597 0.03382
v -0.00398 0.00398 0.02786
v -0.00398 0.02388 0.03581
v 0.00597 0.02587 0.02189
v 0.02984 0.02587 0.03581
v 0.03382 0.02786 0.02189
v 0.02984 0.00995 0.03780
v 0.04775 0.02189 0.02587
v 0.00399 0.02786 0.03183
v -0.00597 0.02587 0.03183
f 29 40 64 
f 1 7 8 
f 10 5 13 
f 1 8 15 
f 18 6 20 
f 10 13 21 
f 8 7 23 
f 13 5 24 
f 5 17 25 
f 24 5 25 
f 8 16 27 
f 22 12 28 
f 7 1 30 
f 2 21 31 
f 21 13 31 
f 3 2 32 
f 9 16 32 
f 11 25 33 
f 25 17 33 
f 26 11 33 
f 28 12 34 
f 12 30 34 
f 18 20 35 
f 20 27 35 
f 11 26 36 
f 30 1 37 
f 33 17 37 
f 26 33 37 
f 17 34 37 
f 34 30 37 
f 8 27 38 
f 27 20 38 
f 6 19 39 
f 20 6 39 
f 36 4 39 
f 19 36 39 
f 2 3 40 
f 3 32 40 
f 32 23 40 
f 7 30 41 
f 10 14 42 
f 22 28 42 
f 42 28 43 
f 28 34 43 
f 10 42 43 
f 1 15 44 
f 15 26 44 
f 37 1 44 
f 26 37 44 
f 21 2 45 
f 2 40 45 
f 40 29 45 
f 6 18 46 
f 18 13 46 
f 13 24 46 
f 24 6 46 
f 25 11 47 
f 11 36 47 
f 36 19 47 
f 12 22 48 
f 14 29 48 
f 29 7 48 
f 7 41 48 
f 42 14 48 
f 22 42 48 
f 30 12 49 
f 41 30 49 
f 12 48 49 
f 48 41 49 
f 19 6 50 
f 6 24 50 
f 16 9 51 
f 9 18 51 
f 18 35 51 
f 13 18 52 
f 18 9 52 
f 9 31 52 
f 31 13 52 
f 14 21 53 
f 29 14 53 
f 21 45 53 
f 45 29 53 
f 27 16 54 
f 35 27 54 
f 16 51 54 
f 51 35 54 
f 15 8 55 
f 4 15 55 
f 8 38 55 
f 38 4 55 
f 16 8 56 
f 8 23 56 
f 32 16 56 
f 23 32 56 
f 24 25 57 
f 47 19 57 
f 25 47 57 
f 19 50 57 
f 50 24 57 
f 17 5 58 
f 34 17 58 
f 43 34 58 
f 43 58 59 
f 5 10 59 
f 10 43 59 
f 58 5 59 
f 2 31 60 
f 31 9 60 
f 32 2 60 
f 9 32 60 
f 14 10 61 
f 10 21 61 
f 21 14 61 
f 4 38 62 
f 38 20 62 
f 20 39 62 
f 39 4 62 
f 15 4 63 
f 26 15 63 
f 4 36 63 
f 36 26 63 
f 23 7 64 
f 7 29 64 
f 40 23 64 
