# Original object name hint: convex_3
v 0.06368 0.02586 0.01989
v 0.05572 -0.02985 -0.01791
v 0.05970 -0.02985 -0.01791
v 0.06169 0.03581 -0.03980
v 0.04776 0.01989 0.02785
v 0.05174 0.02387 -0.03781
v 0.06368 -0.02387 0.00198
v 0.06368 -0.00198 -0.03781
v 0.05572 -0.02586 -0.03781
v 0.04776 0.00596 0.02586
v 0.05771 0.03980 -0.02587
v 0.06169 0.00994 0.02785
v 0.04776 0.00399 0.00397
v 0.05572 -0.02387 0.00795
v 0.06368 0.03781 -0.03582
v 0.05970 -0.02188 -0.03980
v 0.05771 0.02586 0.02586
v 0.05174 0.00399 -0.03781
v 0.05373 0.03382 -0.03582
v 0.05373 0.01989 -0.04178
v 0.05373 -0.02586 -0.00200
v 0.05970 -0.01790 0.01392
v 0.06368 -0.02387 -0.01791
v 0.04776 0.01989 0.00596
v 0.04776 0.02189 0.02586
v 0.06169 0.03980 -0.02388
v 0.06169 0.00399 -0.04178
v 0.05771 0.00994 0.02984
v 0.06169 -0.02785 0.00198
v 0.06368 0.01790 0.02586
v 0.05373 -0.02586 -0.01791
v 0.05970 -0.02785 -0.03582
v 0.05771 0.02785 0.02188
v 0.05970 0.01989 0.02984
v 0.05373 0.00399 -0.04178
v 0.05771 0.03980 -0.03582
v 0.06169 0.02785 0.02188
v 0.06169 0.02785 -0.04178
v 0.05572 0.03382 -0.03980
v 0.06169 -0.02985 -0.01393
v 0.06368 -0.01790 0.00795
v 0.05572 -0.01790 0.01392
v 0.05373 0.00994 0.02984
v 0.06368 0.03781 -0.02189
v 0.05572 -0.02985 -0.00995
v 0.04776 0.01392 0.00198
v 0.05572 0.03781 -0.02985
v 0.06169 -0.02188 0.00994
v 0.06368 0.00795 0.02387
v 0.05174 0.02785 -0.03382
v 0.05572 -0.02188 -0.03980
v 0.05373 -0.02387 -0.02189
v 0.05572 -0.02785 -0.00001
v 0.05970 -0.00397 -0.04178
v 0.06368 0.03382 -0.03781
v 0.06368 -0.00596 -0.03582
v 0.04776 0.02189 0.01790
v 0.05174 0.01790 0.02984
v 0.04776 0.00994 0.02785
v 0.05572 -0.02785 -0.03382
v 0.05373 -0.02188 0.00596
v 0.05771 0.02984 -0.04178
v 0.06169 0.03980 -0.03582
v 0.06368 -0.02586 -0.00200
v 0.01989 0.01989 0.01392
v -0.06368 0.00199 0.00398
v -0.06368 0.00199 0.00795
v -0.01991 -0.04378 0.00398
v -0.00399 0.04378 -0.00000
v 0.01989 0.00795 -0.00000
v -0.01593 0.01591 0.01592
v -0.02587 -0.04378 -0.00000
v -0.03781 0.03383 0.00795
v 0.01789 -0.01591 0.00795
v -0.05372 0.01393 -0.00000
v -0.00598 0.00199 0.01592
v -0.01991 0.00795 -0.00199
v -0.05572 -0.01393 0.00795
v -0.05174 0.02984 0.00398
v 0.01989 0.02388 -0.00000
v 0.01392 0.00398 0.01592
v 0.01193 0.02188 0.01592
v -0.00200 0.04378 0.00398
v 0.00596 -0.01791 -0.00000
v -0.06368 0.01393 0.00795
v 0.00197 0.00994 -0.00199
v 0.01789 -0.01591 0.00398
v -0.01195 0.04378 -0.00000
v 0.01989 0.02786 0.00795
v -0.01593 0.02388 -0.00199
v -0.02587 -0.04378 0.00398
v -0.05970 -0.00994 0.00398
v -0.01991 -0.04378 -0.00000
v -0.00797 0.02188 0.01592
v -0.05174 0.02786 0.00795
v -0.01593 0.04378 0.00398
v -0.01593 0.00795 0.01592
v 0.01989 0.00398 0.01392
v -0.06368 0.01393 0.00398
v -0.05372 0.00795 -0.00000
v 0.00197 0.01989 -0.00199
v -0.05572 -0.00795 0.00199
v 0.01789 0.02586 0.01193
v 0.01989 0.02786 0.00398
v -0.00797 0.00000 -0.00199
v -0.01195 0.00398 0.01592
v 0.01193 0.02586 0.01392
v -0.05174 0.02388 0.00199
v -0.00200 -0.00596 0.01392
v -0.05970 0.01591 0.00199
v 0.01989 0.00000 0.00398
v -0.05174 0.02984 0.00597
v 0.01591 0.01791 0.01592
v -0.01593 0.04178 -0.00000
v -0.05771 -0.01193 0.00795
v -0.05970 0.00199 0.00199
v -0.01593 0.04378 0.00199
v -0.01394 0.00000 -0.00199
v -0.01991 0.01989 -0.00199
v -0.06168 -0.00398 0.00795
v -0.05174 0.01591 -0.00000
v -0.00598 0.02586 0.01392
v -0.01195 0.01989 0.01592
v -0.00200 0.04378 0.00199
v 0.01591 0.00596 0.01592
v -0.00996 0.02388 -0.00199
v 0.01989 0.00000 0.00995
v 0.01392 -0.01393 0.00199
v 0.04178 0.02587 0.00994
v 0.01990 0.00199 0.00398
v 0.02388 -0.00397 0.00398
v 0.01990 0.00398 0.01392
v 0.04776 0.00597 0.01592
v 0.04776 0.00995 0.00199
v 0.01990 0.02587 0.00199
v 0.01990 0.02388 0.01194
v 0.04577 0.02189 0.01592
v 0.01990 0.00995 -0.00000
v 0.04776 0.01990 0.00398
v 0.04776 0.00398 0.00398
v 0.02587 0.01990 -0.00000
v 0.03383 0.01592 0.01592
v 0.02587 -0.00397 0.00597
v 0.04577 0.02388 0.00597
v 0.01990 0.01791 0.01392
v 0.04776 0.02189 0.01392
v 0.01990 0.02587 0.00994
v 0.04776 0.00398 0.01392
v 0.02587 0.00995 -0.00000
v 0.02388 0.02587 0.00199
v 0.03980 0.02189 0.01592
v 0.03780 0.02587 0.01194
v 0.04776 0.01393 0.00199
v 0.01990 0.02189 -0.00000
v 0.03980 0.00597 0.01592
v 0.02587 -0.00397 0.00398
v 0.01990 0.00199 0.01194
v 0.03184 0.02388 0.01392
v 0.04178 0.02587 0.00796
v 0.04776 0.01990 0.01592
v 0.02786 0.01194 -0.00000
v 0.03383 0.01194 0.01592
v -0.00796 0.02388 0.03383
v -0.03185 0.00995 0.03184
v -0.02786 0.00597 0.02985
v -0.01792 -0.00398 0.03383
v -0.00796 0.01791 0.02388
v -0.02985 0.01592 0.03582
v -0.00796 0.00796 0.03582
v -0.00796 0.00597 0.02587
v -0.01394 0.02189 0.02786
v -0.02189 -0.00199 0.02985
v -0.03185 0.00995 0.03582
v -0.00996 0.00995 0.02388
v -0.02786 0.01393 0.02985
v -0.00796 0.02189 0.03582
v -0.02189 -0.00398 0.03383
v -0.01195 0.02388 0.02985
v -0.02985 0.01592 0.03184
v -0.02587 0.00597 0.03582
v -0.00796 0.02388 0.02786
v -0.00996 0.01791 0.02388
v -0.00796 0.00597 0.03383
v -0.01792 -0.00398 0.03184
v -0.02388 -0.00199 0.03184
v -0.00996 0.02388 0.03383
v -0.03185 0.01393 0.03184
v -0.02587 0.00199 0.02985
v -0.00996 0.02189 0.02587
v -0.01195 0.02189 0.03582
v -0.01394 0.00597 0.03582
v 0.03780 0.02786 0.02786
v -0.00796 0.00995 0.01592
v -0.00796 0.00597 0.02587
v 0.04775 0.00597 0.01592
v 0.02984 0.01194 0.03980
v -0.00796 0.02388 0.03382
v 0.00399 0.01990 0.01592
v 0.04775 0.02189 0.01592
v -0.00398 0.00398 0.03183
v 0.01989 0.02189 0.04178
v 0.04775 0.01990 0.02786
v 0.00796 0.02786 0.02388
v 0.00399 0.00398 0.01592
v 0.02785 0.00398 0.02984
v -0.00796 0.00796 0.03581
v 0.04775 0.00796 0.02587
v 0.00995 0.02786 0.03382
v -0.00796 0.02388 0.02587
v 0.02984 0.02189 0.03980
v 0.03979 0.02786 0.02189
v 0.02586 0.02587 0.03780
v -0.00796 0.02189 0.03581
v -0.00398 0.02587 0.03382
v -0.00597 0.01592 0.01592
v 0.01989 0.01791 0.04178
v 0.04775 0.00995 0.02786
v 0.04576 0.02388 0.02587
v 0.02785 0.00796 0.03581
v 0.00199 0.02786 0.02786
v 0.02984 0.00398 0.02587
v 0.04775 0.00597 0.02189
v 0.02785 0.02786 0.03382
v 0.03382 0.02587 0.01990
v 0.01592 0.02388 0.03980
v 0.01989 0.01194 0.03980
v 0.01194 0.00398 0.01592
v 0.02387 0.02189 0.04178
v -0.00597 0.02587 0.02786
v 0.00796 0.00398 0.03183
v -0.00796 0.01393 0.01592
v 0.04377 0.02388 0.02786
v 0.03979 0.02189 0.01592
v -0.00796 0.00597 0.03382
v -0.00398 0.00398 0.02786
v -0.00398 0.02388 0.03581
v 0.00597 0.02587 0.02189
v 0.02984 0.02587 0.03581
v 0.03382 0.02786 0.02189
v 0.02984 0.00995 0.03780
v 0.04775 0.02189 0.02587
v 0.00399 0.02786 0.03183
v -0.00597 0.02587 0.03183
f 169 180 191 
f 167 163 169 
f 167 169 170 
f 169 168 173 
f 167 170 174 
f 170 172 174 
f 165 164 175 
f 174 165 175 
f 169 163 176 
f 168 169 176 
f 178 171 179 
f 168 178 179 
f 169 173 180 
f 177 166 180 
f 173 177 180 
f 163 167 181 
f 178 163 181 
f 167 174 182 
f 174 175 182 
f 169 166 183 
f 166 170 183 
f 170 169 183 
f 170 166 184 
f 172 170 184 
f 166 177 184 
f 177 172 184 
f 173 164 185 
f 172 177 185 
f 177 173 185 
f 176 163 186 
f 163 178 186 
f 178 168 186 
f 164 173 187 
f 173 168 187 
f 175 164 187 
f 168 179 187 
f 179 175 187 
f 164 165 188 
f 165 174 188 
f 174 172 188 
f 185 164 188 
f 172 185 188 
f 171 178 189 
f 179 171 189 
f 175 179 189 
f 181 167 189 
f 178 181 189 
f 167 182 189 
f 182 175 189 
f 168 176 190 
f 176 186 190 
f 186 168 190 
f 166 169 191 
f 180 166 191 
