# Original object name hint: convex_2
v 0.06368 0.02586 0.01989
v 0.05572 -0.02985 -0.01791
v 0.05970 -0.02985 -0.01791
v 0.06169 0.03581 -0.03980
v 0.04776 0.01989 0.02785
v 0.05174 0.02387 -0.03781
v 0.06368 -0.02387 0.00198
v 0.06368 -0.00198 -0.03781
v 0.05572 -0.02586 -0.03781
v 0.04776 0.00596 0.02586
v 0.05771 0.03980 -0.02587
v 0.06169 0.00994 0.02785
v 0.04776 0.00399 0.00397
v 0.05572 -0.02387 0.00795
v 0.06368 0.03781 -0.03582
v 0.05970 -0.02188 -0.03980
v 0.05771 0.02586 0.02586
v 0.05174 0.00399 -0.03781
v 0.05373 0.03382 -0.03582
v 0.05373 0.01989 -0.04178
v 0.05373 -0.02586 -0.00200
v 0.05970 -0.01790 0.01392
v 0.06368 -0.02387 -0.01791
v 0.04776 0.01989 0.00596
v 0.04776 0.02189 0.02586
v 0.06169 0.03980 -0.02388
v 0.06169 0.00399 -0.04178
v 0.05771 0.00994 0.02984
v 0.06169 -0.02785 0.00198
v 0.06368 0.01790 0.02586
v 0.05373 -0.02586 -0.01791
v 0.05970 -0.02785 -0.03582
v 0.05771 0.02785 0.02188
v 0.05970 0.01989 0.02984
v 0.05373 0.00399 -0.04178
v 0.05771 0.03980 -0.03582
v 0.06169 0.02785 0.02188
v 0.06169 0.02785 -0.04178
v 0.05572 0.03382 -0.03980
v 0.06169 -0.02985 -0.01393
v 0.06368 -0.01790 0.00795
v 0.05572 -0.01790 0.01392
v 0.05373 0.00994 0.02984
v 0.06368 0.03781 -0.02189
v 0.05572 -0.02985 -0.00995
v 0.04776 0.01392 0.00198
v 0.05572 0.03781 -0.02985
v 0.06169 -0.02188 0.00994
v 0.06368 0.00795 0.02387
v 0.05174 0.02785 -0.03382
v 0.05572 -0.02188 -0.03980
v 0.05373 -0.02387 -0.02189
v 0.05572 -0.02785 -0.00001
v 0.05970 -0.00397 -0.04178
v 0.06368 0.03382 -0.03781
v 0.06368 -0.00596 -0.03582
v 0.04776 0.02189 0.01790
v 0.05174 0.01790 0.02984
v 0.04776 0.00994 0.02785
v 0.05572 -0.02785 -0.03382
v 0.05373 -0.02188 0.00596
v 0.05771 0.02984 -0.04178
v 0.06169 0.03980 -0.03582
v 0.06368 -0.02586 -0.00200
v 0.01989 0.01989 0.01392
v -0.06368 0.00199 0.00398
v -0.06368 0.00199 0.00795
v -0.01991 -0.04378 0.00398
v -0.00399 0.04378 -0.00000
v 0.01989 0.00795 -0.00000
v -0.01593 0.01591 0.01592
v -0.02587 -0.04378 -0.00000
v -0.03781 0.03383 0.00795
v 0.01789 -0.01591 0.00795
v -0.05372 0.01393 -0.00000
v -0.00598 0.00199 0.01592
v -0.01991 0.00795 -0.00199
v -0.05572 -0.01393 0.00795
v -0.05174 0.02984 0.00398
v 0.01989 0.02388 -0.00000
v 0.01392 0.00398 0.01592
v 0.01193 0.02188 0.01592
v -0.00200 0.04378 0.00398
v 0.00596 -0.01791 -0.00000
v -0.06368 0.01393 0.00795
v 0.00197 0.00994 -0.00199
v 0.01789 -0.01591 0.00398
v -0.01195 0.04378 -0.00000
v 0.01989 0.02786 0.00795
v -0.01593 0.02388 -0.00199
v -0.02587 -0.04378 0.00398
v -0.05970 -0.00994 0.00398
v -0.01991 -0.04378 -0.00000
v -0.00797 0.02188 0.01592
v -0.05174 0.02786 0.00795
v -0.01593 0.04378 0.00398
v -0.01593 0.00795 0.01592
v 0.01989 0.00398 0.01392
v -0.06368 0.01393 0.00398
v -0.05372 0.00795 -0.00000
v 0.00197 0.01989 -0.00199
v -0.05572 -0.00795 0.00199
v 0.01789 0.02586 0.01193
v 0.01989 0.02786 0.00398
v -0.00797 0.00000 -0.00199
v -0.01195 0.00398 0.01592
v 0.01193 0.02586 0.01392
v -0.05174 0.02388 0.00199
v -0.00200 -0.00596 0.01392
v -0.05970 0.01591 0.00199
v 0.01989 0.00000 0.00398
v -0.05174 0.02984 0.00597
v 0.01591 0.01791 0.01592
v -0.01593 0.04178 -0.00000
v -0.05771 -0.01193 0.00795
v -0.05970 0.00199 0.00199
v -0.01593 0.04378 0.00199
v -0.01394 0.00000 -0.00199
v -0.01991 0.01989 -0.00199
v -0.06168 -0.00398 0.00795
v -0.05174 0.01591 -0.00000
v -0.00598 0.02586 0.01392
v -0.01195 0.01989 0.01592
v -0.00200 0.04378 0.00199
v 0.01591 0.00596 0.01592
v -0.00996 0.02388 -0.00199
v 0.01989 0.00000 0.00995
v 0.01392 -0.01393 0.00199
v 0.04178 0.02587 0.00994
v 0.01990 0.00199 0.00398
v 0.02388 -0.00397 0.00398
v 0.01990 0.00398 0.01392
v 0.04776 0.00597 0.01592
v 0.04776 0.00995 0.00199
v 0.01990 0.02587 0.00199
v 0.01990 0.02388 0.01194
v 0.04577 0.02189 0.01592
v 0.01990 0.00995 -0.00000
v 0.04776 0.01990 0.00398
v 0.04776 0.00398 0.00398
v 0.02587 0.01990 -0.00000
v 0.03383 0.01592 0.01592
v 0.02587 -0.00397 0.00597
v 0.04577 0.02388 0.00597
v 0.01990 0.01791 0.01392
v 0.04776 0.02189 0.01392
v 0.01990 0.02587 0.00994
v 0.04776 0.00398 0.01392
v 0.02587 0.00995 -0.00000
v 0.02388 0.02587 0.00199
v 0.03980 0.02189 0.01592
v 0.03780 0.02587 0.01194
v 0.04776 0.01393 0.00199
v 0.01990 0.02189 -0.00000
v 0.03980 0.00597 0.01592
v 0.02587 -0.00397 0.00398
v 0.01990 0.00199 0.01194
v 0.03184 0.02388 0.01392
v 0.04178 0.02587 0.00796
v 0.04776 0.01990 0.01592
v 0.02786 0.01194 -0.00000
v 0.03383 0.01194 0.01592
v -0.00796 0.02388 0.03383
v -0.03185 0.00995 0.03184
v -0.02786 0.00597 0.02985
v -0.01792 -0.00398 0.03383
v -0.00796 0.01791 0.02388
v -0.02985 0.01592 0.03582
v -0.00796 0.00796 0.03582
v -0.00796 0.00597 0.02587
v -0.01394 0.02189 0.02786
v -0.02189 -0.00199 0.02985
v -0.03185 0.00995 0.03582
v -0.00996 0.00995 0.02388
v -0.02786 0.01393 0.02985
v -0.00796 0.02189 0.03582
v -0.02189 -0.00398 0.03383
v -0.01195 0.02388 0.02985
v -0.02985 0.01592 0.03184
v -0.02587 0.00597 0.03582
v -0.00796 0.02388 0.02786
v -0.00996 0.01791 0.02388
v -0.00796 0.00597 0.03383
v -0.01792 -0.00398 0.03184
v -0.02388 -0.00199 0.03184
v -0.00996 0.02388 0.03383
v -0.03185 0.01393 0.03184
v -0.02587 0.00199 0.02985
v -0.00996 0.02189 0.02587
v -0.01195 0.02189 0.03582
v -0.01394 0.00597 0.03582
v 0.03780 0.02786 0.02786
v -0.00796 0.00995 0.01592
v -0.00796 0.00597 0.02587
v 0.04775 0.00597 0.01592
v 0.02984 0.01194 0.03980
v -0.00796 0.02388 0.03382
v 0.00399 0.01990 0.01592
v 0.04775 0.02189 0.01592
v -0.00398 0.00398 0.03183
v 0.01989 0.02189 0.04178
v 0.04775 0.01990 0.02786
v 0.00796 0.02786 0.02388
v 0.00399 0.00398 0.01592
v 0.02785 0.00398 0.02984
v -0.00796 0.00796 0.03581
v 0.04775 0.00796 0.02587
v 0.00995 0.02786 0.03382
v -0.00796 0.02388 0.02587
v 0.02984 0.02189 0.03980
v 0.03979 0.02786 0.02189
v 0.02586 0.02587 0.03780
v -0.00796 0.02189 0.03581
v -0.00398 0.02587 0.03382
v -0.00597 0.01592 0.01592
v 0.01989 0.01791 0.04178
v 0.04775 0.00995 0.02786
v 0.04576 0.02388 0.02587
v 0.02785 0.00796 0.03581
v 0.00199 0.02786 0.02786
v 0.02984 0.00398 0.02587
v 0.04775 0.00597 0.02189
v 0.02785 0.02786 0.03382
v 0.03382 0.02587 0.01990
v 0.01592 0.02388 0.03980
v 0.01989 0.01194 0.03980
v 0.01194 0.00398 0.01592
v 0.02387 0.02189 0.04178
v -0.00597 0.02587 0.02786
v 0.00796 0.00398 0.03183
v -0.00796 0.01393 0.01592
v 0.04377 0.02388 0.02786
v 0.03979 0.02189 0.01592
v -0.00796 0.00597 0.03382
v -0.00398 0.00398 0.02786
v -0.00398 0.02388 0.03581
v 0.00597 0.02587 0.02189
v 0.02984 0.02587 0.03581
v 0.03382 0.02786 0.02189
v 0.02984 0.00995 0.03780
v 0.04775 0.02189 0.02587
v 0.00399 0.02786 0.03183
v -0.00597 0.02587 0.03183
f 155 142 162 
f 130 132 135 
f 135 132 136 
f 131 130 138 
f 130 135 138 
f 133 134 139 
f 134 133 140 
f 133 137 142 
f 136 132 145 
f 132 142 145 
f 129 137 146 
f 133 139 146 
f 144 129 146 
f 139 144 146 
f 129 135 147 
f 135 136 147 
f 140 133 148 
f 133 143 148 
f 143 140 148 
f 131 138 149 
f 138 141 149 
f 135 129 150 
f 139 141 150 
f 144 139 150 
f 142 137 151 
f 136 145 151 
f 145 142 151 
f 137 129 152 
f 129 147 152 
f 151 137 152 
f 139 134 153 
f 141 139 153 
f 138 135 154 
f 141 138 154 
f 135 150 154 
f 150 141 154 
f 133 142 155 
f 143 133 155 
f 134 140 156 
f 143 131 156 
f 140 143 156 
f 131 149 156 
f 149 134 156 
f 130 131 157 
f 132 130 157 
f 131 143 157 
f 155 132 157 
f 143 155 157 
f 147 136 158 
f 136 151 158 
f 152 147 158 
f 151 152 158 
f 129 144 159 
f 150 129 159 
f 144 150 159 
f 137 133 160 
f 133 146 160 
f 146 137 160 
f 134 149 161 
f 149 141 161 
f 153 134 161 
f 141 153 161 
f 142 132 162 
f 132 155 162 
