# Original object name hint: convex_4
v 0.06368 0.02586 0.01989
v 0.05572 -0.02985 -0.01791
v 0.05970 -0.02985 -0.01791
v 0.06169 0.03581 -0.03980
v 0.04776 0.01989 0.02785
v 0.05174 0.02387 -0.03781
v 0.06368 -0.02387 0.00198
v 0.06368 -0.00198 -0.03781
v 0.05572 -0.02586 -0.03781
v 0.04776 0.00596 0.02586
v 0.05771 0.03980 -0.02587
v 0.06169 0.00994 0.02785
v 0.04776 0.00399 0.00397
v 0.05572 -0.02387 0.00795
v 0.06368 0.03781 -0.03582
v 0.05970 -0.02188 -0.03980
v 0.05771 0.02586 0.02586
v 0.05174 0.00399 -0.03781
v 0.05373 0.03382 -0.03582
v 0.05373 0.01989 -0.04178
v 0.05373 -0.02586 -0.00200
v 0.05970 -0.01790 0.01392
v 0.06368 -0.02387 -0.01791
v 0.04776 0.01989 0.00596
v 0.04776 0.02189 0.02586
v 0.06169 0.03980 -0.02388
v 0.06169 0.00399 -0.04178
v 0.05771 0.00994 0.02984
v 0.06169 -0.02785 0.00198
v 0.06368 0.01790 0.02586
v 0.05373 -0.02586 -0.01791
v 0.05970 -0.02785 -0.03582
v 0.05771 0.02785 0.02188
v 0.05970 0.01989 0.02984
v 0.05373 0.00399 -0.04178
v 0.05771 0.03980 -0.03582
v 0.06169 0.02785 0.02188
v 0.06169 0.02785 -0.04178
v 0.05572 0.03382 -0.03980
v 0.06169 -0.02985 -0.01393
v 0.06368 -0.01790 0.00795
v 0.05572 -0.01790 0.01392
v 0.05373 0.00994 0.02984
v 0.06368 0.03781 -0.02189
v 0.05572 -0.02985 -0.00995
v 0.04776 0.01392 0.00198
v 0.05572 0.03781 -0.02985
v 0.06169 -0.02188 0.00994
v 0.06368 0.00795 0.02387
v 0.05174 0.02785 -0.03382
v 0.05572 -0.02188 -0.03980
v 0.05373 -0.02387 -0.02189
v 0.05572 -0.02785 -0.00001
v 0.05970 -0.00397 -0.04178
v 0.06368 0.03382 -0.03781
v 0.06368 -0.00596 -0.03582
v 0.04776 0.02189 0.01790
v 0.05174 0.01790 0.02984
v 0.04776 0.00994 0.02785
v 0.05572 -0.02785 -0.03382
v 0.05373 -0.02188 0.00596
v 0.05771 0.02984 -0.04178
v 0.06169 0.03980 -0.03582
v 0.06368 -0.02586 -0.00200
v 0.01989 0.01989 0.01392
v -0.06368 0.00199 0.00398
v -0.06368 0.00199 0.00795
v -0.01991 -0.04378 0.00398
v -0.00399 0.04378 -0.00000
v 0.01989 0.00795 -0.00000
v -0.01593 0.01591 0.01592
v -0.02587 -0.04378 -0.00000
v -0.03781 0.03383 0.00795
v 0.01789 -0.01591 0.00795
v -0.05372 0.01393 -0.00000
v -0.00598 0.00199 0.01592
v -0.01991 0.00795 -0.00199
v -0.05572 -0.01393 0.00795
v -0.05174 0.02984 0.00398
v 0.01989 0.02388 -0.00000
v 0.01392 0.00398 0.01592
v 0.01193 0.02188 0.01592
v -0.00200 0.04378 0.00398
v 0.00596 -0.01791 -0.00000
v -0.06368 0.01393 0.00795
v 0.00197 0.00994 -0.00199
v 0.01789 -0.01591 0.00398
v -0.01195 0.04378 -0.00000
v 0.01989 0.02786 0.00795
v -0.01593 0.02388 -0.00199
v -0.02587 -0.04378 0.00398
v -0.05970 -0.00994 0.00398
v -0.01991 -0.04378 -0.00000
v -0.00797 0.02188 0.01592
v -0.05174 0.02786 0.00795
v -0.01593 0.04378 0.00398
v -0.01593 0.00795 0.01592
v 0.01989 0.00398 0.01392
v -0.06368 0.01393 0.00398
v -0.05372 0.00795 -0.00000
v 0.00197 0.01989 -0.00199
v -0.05572 -0.00795 0.00199
v 0.01789 0.02586 0.01193
v 0.01989 0.02786 0.00398
v -0.00797 0.00000 -0.00199
v -0.01195 0.00398 0.01592
v 0.01193 0.02586 0.01392
v -0.05174 0.02388 0.00199
v -0.00200 -0.00596 0.01392
v -0.05970 0.01591 0.00199
v 0.01989 0.00000 0.00398
v -0.05174 0.02984 0.00597
v 0.01591 0.01791 0.01592
v -0.01593 0.04178 -0.00000
v -0.05771 -0.01193 0.00795
v -0.05970 0.00199 0.00199
v -0.01593 0.04378 0.00199
v -0.01394 0.00000 -0.00199
v -0.01991 0.01989 -0.00199
v -0.06168 -0.00398 0.00795
v -0.05174 0.01591 -0.00000
v -0.00598 0.02586 0.01392
v -0.01195 0.01989 0.01592
v -0.00200 0.04378 0.00199
v 0.01591 0.00596 0.01592
v -0.00996 0.02388 -0.00199
v 0.01989 0.00000 0.00995
v 0.01392 -0.01393 0.00199
v 0.04178 0.02587 0.00994
v 0.01990 0.00199 0.00398
v 0.02388 -0.00397 0.00398
v 0.01990 0.00398 0.01392
v 0.04776 0.00597 0.01592
v 0.04776 0.00995 0.00199
v 0.01990 0.02587 0.00199
v 0.01990 0.02388 0.01194
v 0.04577 0.02189 0.01592
v 0.01990 0.00995 -0.00000
v 0.04776 0.01990 0.00398
v 0.04776 0.00398 0.00398
v 0.02587 0.01990 -0.00000
v 0.03383 0.01592 0.01592
v 0.02587 -0.00397 0.00597
v 0.04577 0.02388 0.00597
v 0.01990 0.01791 0.01392
v 0.04776 0.02189 0.01392
v 0.01990 0.02587 0.00994
v 0.04776 0.00398 0.01392
v 0.02587 0.00995 -0.00000
v 0.02388 0.02587 0.00199
v 0.03980 0.02189 0.01592
v 0.03780 0.02587 0.01194
v 0.04776 0.01393 0.00199
v 0.01990 0.02189 -0.00000
v 0.03980 0.00597 0.01592
v 0.02587 -0.00397 0.00398
v 0.01990 0.00199 0.01194
v 0.03184 0.02388 0.01392
v 0.04178 0.02587 0.00796
v 0.04776 0.01990 0.01592
v 0.02786 0.01194 -0.00000
v 0.03383 0.01194 0.01592
v -0.00796 0.02388 0.03383
v -0.03185 0.00995 0.03184
v -0.02786 0.00597 0.02985
v -0.01792 -0.00398 0.03383
v -0.00796 0.01791 0.02388
v -0.02985 0.01592 0.03582
v -0.00796 0.00796 0.03582
v -0.00796 0.00597 0.02587
v -0.01394 0.02189 0.02786
v -0.02189 -0.00199 0.02985
v -0.03185 0.00995 0.03582
v -0.00996 0.00995 0.02388
v -0.02786 0.01393 0.02985
v -0.00796 0.02189 0.03582
v -0.02189 -0.00398 0.03383
v -0.01195 0.02388 0.02985
v -0.02985 0.01592 0.03184
v -0.02587 0.00597 0.03582
v -0.00796 0.02388 0.02786
v -0.00996 0.01791 0.02388
v -0.00796 0.00597 0.03383
v -0.01792 -0.00398 0.03184
v -0.02388 -0.00199 0.03184
v -0.00996 0.02388 0.03383
v -0.03185 0.01393 0.03184
v -0.02587 0.00199 0.02985
v -0.00996 0.02189 0.02587
v -0.01195 0.02189 0.03582
v -0.01394 0.00597 0.03582
v 0.03780 0.02786 0.02786
v -0.00796 0.00995 0.01592
v -0.00796 0.00597 0.02587
v 0.04775 0.00597 0.01592
v 0.02984 0.01194 0.03980
v -0.00796 0.02388 0.03382
v 0.00399 0.01990 0.01592
v 0.04775 0.02189 0.01592
v -0.00398 0.00398 0.03183
v 0.01989 0.02189 0.04178
v 0.04775 0.01990 0.02786
v 0.00796 0.02786 0.02388
v 0.00399 0.00398 0.01592
v 0.02785 0.00398 0.02984
v -0.00796 0.00796 0.03581
v 0.04775 0.00796 0.02587
v 0.00995 0.02786 0.03382
v -0.00796 0.02388 0.02587
v 0.02984 0.02189 0.03980
v 0.03979 0.02786 0.02189
v 0.02586 0.02587 0.03780
v -0.00796 0.02189 0.03581
v -0.00398 0.02587 0.03382
v -0.00597 0.01592 0.01592
v 0.01989 0.01791 0.04178
v 0.04775 0.00995 0.02786
v 0.04576 0.02388 0.02587
v 0.02785 0.00796 0.03581
v 0.00199 0.02786 0.02786
v 0.02984 0.00398 0.02587
v 0.04775 0.00597 0.02189
v 0.02785 0.02786 0.03382
v 0.03382 0.02587 0.01990
v 0.01592 0.02388 0.03980
v 0.01989 0.01194 0.03980
v 0.01194 0.00398 0.01592
v 0.02387 0.02189 0.04178
v -0.00597 0.02587 0.02786
v 0.00796 0.00398 0.03183
v -0.00796 0.01393 0.01592
v 0.04377 0.02388 0.02786
v 0.03979 0.02189 0.01592
v -0.00796 0.00597 0.03382
v -0.00398 0.00398 0.02786
v -0.00398 0.02388 0.03581
v 0.00597 0.02587 0.02189
v 0.02984 0.02587 0.03581
v 0.03382 0.02786 0.02189
v 0.02984 0.00995 0.03780
v 0.04775 0.02189 0.02587
v 0.00399 0.02786 0.03183
v -0.00597 0.02587 0.03183
f 214 242 243 
f 193 194 197 
f 195 193 198 
f 195 198 199 
f 195 199 202 
f 194 193 204 
f 193 195 204 
f 200 204 205 
f 197 194 206 
f 195 202 207 
f 192 203 208 
f 193 197 209 
f 196 202 210 
f 203 192 211 
f 197 206 213 
f 206 201 213 
f 197 213 214 
f 198 193 215 
f 209 198 215 
f 201 206 216 
f 202 196 217 
f 196 207 217 
f 207 202 217 
f 199 211 218 
f 211 192 218 
f 208 203 220 
f 205 204 221 
f 205 221 222 
f 195 207 222 
f 207 205 222 
f 221 195 222 
f 192 208 223 
f 208 212 223 
f 212 208 225 
f 208 214 225 
f 200 196 226 
f 196 216 226 
f 216 206 226 
f 204 195 227 
f 195 221 227 
f 221 204 227 
f 196 210 228 
f 210 212 228 
f 216 196 228 
f 201 216 228 
f 225 201 228 
f 212 225 228 
f 209 197 229 
f 203 209 229 
f 220 203 229 
f 196 200 230 
f 200 205 230 
f 205 219 230 
f 193 209 231 
f 215 193 231 
f 209 215 231 
f 210 202 232 
f 202 218 232 
f 218 192 232 
f 199 198 233 
f 211 199 233 
f 198 224 233 
f 194 200 234 
f 206 194 234 
f 200 226 234 
f 226 206 234 
f 200 194 235 
f 194 204 235 
f 204 200 235 
f 213 201 236 
f 214 213 236 
f 201 225 236 
f 225 214 236 
f 198 209 237 
f 209 203 237 
f 212 210 238 
f 192 223 238 
f 223 212 238 
f 210 232 238 
f 232 192 238 
f 203 211 239 
f 224 198 239 
f 211 233 239 
f 233 224 239 
f 198 237 239 
f 237 203 239 
f 207 196 240 
f 205 207 240 
f 219 205 240 
f 196 230 240 
f 230 219 240 
f 202 199 241 
f 199 218 241 
f 218 202 241 
f 214 208 242 
f 208 220 242 
f 242 220 243 
f 197 214 243 
f 229 197 243 
f 220 229 243 
