# Original object name hint: convex_4
v -0.04482 -0.08173 0.03162
v -0.05273 -0.06856 -0.07645
v -0.05273 -0.06592 -0.07645
v 0.05010 -0.07382 -0.07381
v -0.03163 -0.08437 -0.05799
v 0.05010 -0.07910 0.02636
v -0.05537 -0.06064 -0.06063
v 0.05010 -0.08437 -0.06326
v 0.05010 -0.08437 0.02636
v -0.06064 -0.06856 -0.00265
v -0.06327 -0.07646 -0.07117
v -0.04745 -0.08437 0.01581
v 0.00526 -0.06592 -0.06854
v -0.06592 -0.07646 -0.01583
v -0.06327 -0.06064 -0.07117
v -0.02900 -0.07646 0.02899
v 0.05010 -0.07646 0.00790
v -0.05800 -0.08173 -0.05536
v -0.03690 -0.06064 -0.07381
v -0.02900 -0.08437 0.03428
v -0.05800 -0.07646 -0.07381
v -0.05273 -0.06856 -0.00265
v -0.06592 -0.06328 -0.03953
v 0.05010 -0.07382 -0.03953
v -0.03955 -0.07910 0.03428
v -0.06592 -0.06856 -0.07381
v 0.05010 -0.07646 -0.07381
v -0.03690 -0.06064 -0.06854
v -0.06327 -0.07119 -0.00002
v -0.04745 -0.08437 -0.04745
v -0.00791 -0.07646 0.02899
v -0.06064 -0.07910 0.00263
v 0.02373 -0.08173 -0.06854
v -0.06592 -0.07646 -0.06326
v -0.06327 -0.07910 -0.01583
v -0.02373 -0.07910 0.03428
v -0.01845 -0.08437 -0.06063
v -0.03955 -0.07119 -0.07645
v -0.05537 -0.08173 -0.06063
v -0.04482 -0.08437 0.02899
v -0.03690 -0.06592 -0.07645
v 0.00526 -0.06592 -0.07381
v -0.06592 -0.06856 -0.01583
v -0.06064 -0.06064 -0.07381
v -0.05800 -0.08173 -0.02109
v -0.06592 -0.06328 -0.07117
v -0.04482 -0.07910 0.03162
v -0.06327 -0.07910 -0.06063
v -0.05800 -0.07910 -0.06854
v -0.01055 -0.07382 0.01581
v -0.06327 -0.07646 -0.00002
v 0.07119 -0.07382 0.01844
v 0.05010 -0.08437 -0.06326
v 0.05010 -0.07645 -0.07382
v 0.05010 -0.07910 0.02636
v 0.06328 -0.03428 -0.01846
v 0.07119 -0.07382 -0.05799
v 0.07119 -0.03691 -0.04745
v 0.06855 -0.08437 0.00526
v 0.06328 -0.03428 -0.05008
v 0.06591 -0.08437 -0.05271
v 0.06591 -0.07910 0.03163
v 0.05010 -0.08437 0.02371
v 0.06328 -0.07119 -0.07117
v 0.06855 -0.03428 -0.02110
v 0.05010 -0.07382 -0.03690
v 0.07119 -0.08173 -0.03953
v 0.06328 -0.07910 -0.06854
v 0.05801 -0.07910 0.03163
v 0.06328 -0.08437 0.02899
v 0.07119 -0.08173 0.01318
v 0.05010 -0.07382 -0.07382
v 0.05010 -0.07645 0.01844
v 0.07119 -0.05801 -0.05799
v 0.07119 -0.05537 -0.00265
v 0.06855 -0.03955 -0.05271
v 0.06855 -0.03955 -0.01319
v 0.05801 -0.07382 -0.07382
v 0.06591 -0.07645 -0.06854
v 0.06855 -0.08173 -0.05536
v 0.07119 -0.03691 -0.03690
v 0.06855 -0.08173 0.02636
v 0.06591 -0.07382 0.02636
v 0.06855 -0.03428 -0.04745
v 0.06064 -0.08437 -0.06063
v -0.05010 0.03428 -0.07382
v -0.01846 0.06592 -0.07119
v -0.01583 0.06328 -0.07119
v -0.01846 0.06064 -0.07646
v -0.02110 0.03428 -0.07119
v -0.03427 0.06592 -0.06855
v -0.03164 0.06592 -0.07646
v -0.02110 0.04746 -0.07646
v -0.05010 0.03428 -0.07119
v -0.02373 0.05273 -0.06855
v -0.01319 0.05010 -0.07119
v -0.02110 0.03428 -0.07382
v -0.01319 0.05010 -0.07382
v -0.02373 0.06592 -0.06855
v -0.03164 0.04746 -0.07646
v -0.05010 0.03692 -0.07382
v -0.03427 0.06592 -0.07382
v -0.04218 0.07119 -0.07382
v -0.00792 0.07647 -0.06591
v -0.00792 0.07119 -0.06591
v -0.05537 0.07647 -0.06591
v -0.03427 0.06592 -0.06855
v -0.02374 0.07383 -0.07382
v -0.02374 0.06592 -0.07382
v -0.05537 0.07119 -0.06591
v -0.04746 0.07647 -0.07119
v -0.03691 0.06592 -0.07382
v -0.00792 0.07647 -0.06855
v -0.05537 0.07119 -0.06855
v -0.02110 0.06856 -0.06591
v 0.01846 0.07646 -0.04481
v 0.07118 0.07646 -0.00526
v 0.07118 0.07119 -0.00526
v 0.01846 0.07646 0.07119
v 0.06327 0.06328 0.06854
v 0.04745 0.08174 0.05800
v 0.01846 0.07119 -0.04217
v 0.07118 0.06592 -0.03954
v 0.06063 0.08174 -0.04217
v 0.01846 0.08174 0.01318
v 0.01846 0.07119 0.07119
v 0.06591 0.07646 0.06327
v 0.06855 0.06328 0.06854
v 0.06327 0.08174 0.01582
v 0.03165 0.08174 -0.03954
v 0.01846 0.08174 0.06327
v 0.05800 0.07646 0.07119
v 0.06591 0.07910 -0.04481
v 0.06327 0.06592 -0.03954
v 0.05009 0.07383 -0.04746
v 0.02110 0.07910 -0.04481
v 0.06855 0.07910 -0.03954
v 0.06855 0.06856 0.06854
v 0.03692 0.07910 -0.04746
v 0.06855 0.07910 0.01582
v 0.06327 0.07910 0.05536
v 0.07118 0.07646 -0.03690
v 0.05009 0.07910 0.06854
v 0.03428 0.07383 -0.04746
v 0.01846 0.07910 -0.04217
v 0.05800 0.07119 0.07119
v 0.06591 0.07119 -0.04481
v 0.06327 0.06328 0.06591
v 0.06327 0.08174 -0.03954
v 0.06855 -0.01318 0.06592
v 0.05801 0.01582 0.07646
v 0.07382 0.01845 0.07383
v 0.07382 0.00791 0.04747
v 0.07646 -0.01318 0.07119
v 0.05537 -0.01054 0.06855
v 0.05537 0.01582 0.06855
v 0.07646 -0.00527 0.04747
v 0.05537 -0.01054 0.07646
v 0.07646 0.01845 0.06328
v 0.07382 -0.00263 0.07646
v 0.07910 0.00791 0.07119
v 0.07119 0.02373 0.06855
v 0.07119 -0.00263 0.04747
v 0.07910 0.00528 0.05010
v 0.07910 -0.00527 0.05801
v 0.05537 0.01582 0.07646
v 0.07382 0.02373 0.07119
v 0.07119 -0.01054 0.07646
v 0.07382 0.00791 0.07646
v 0.07910 -0.00263 0.07119
v 0.06328 -0.01318 0.07383
v 0.07119 0.00528 0.04747
v 0.07646 0.00791 0.04747
v -0.01584 0.08174 0.06855
v -0.05272 0.07119 0.01055
v -0.05272 0.06856 0.02901
v 0.01846 0.07119 0.01055
v 0.01582 0.06856 0.07119
v 0.01846 0.08174 0.01320
v -0.05800 0.06592 0.06855
v -0.05009 0.08174 0.02638
v 0.01317 0.08437 0.06327
v -0.06064 0.07646 0.06591
v -0.04746 0.07910 0.01055
v -0.01847 0.08437 0.06327
v 0.01846 0.07646 0.07119
v -0.06064 0.07383 0.02901
v -0.06064 0.06592 0.05800
v -0.00264 0.08437 0.04482
v -0.05009 0.08174 0.05536
v -0.01056 0.07910 0.07119
v -0.04746 0.06592 0.06064
v -0.05800 0.07910 0.02901
v -0.06328 0.07383 0.06591
v 0.01846 0.08174 0.06591
v 0.01846 0.07910 0.01055
v -0.04218 0.08174 0.02110
v -0.06064 0.07383 0.06855
v -0.06064 0.06856 0.03692
v 0.01846 0.07119 0.07119
v 0.01582 0.06856 0.06591
v 0.01582 0.08437 0.05536
v 0.00526 0.08437 0.06591
v -0.05272 0.07646 0.01055
v -0.06328 0.06856 0.06591
v -0.00792 0.06856 0.07119
v 0.01582 0.07910 0.07119
v -0.06328 0.07383 0.05273
v -0.05800 0.07910 0.05800
v -0.04482 0.08174 0.06064
v 0.01054 0.08437 0.04482
v -0.04218 0.06856 0.02901
v 0.07382 0.00791 0.04745
v 0.06328 -0.01318 -0.01845
v 0.06855 -0.01318 -0.01845
v 0.06592 0.01055 -0.01845
v 0.07382 0.00791 -0.01054
v 0.07646 -0.00527 0.04218
v 0.06592 0.00000 0.03427
v 0.06592 0.01055 0.02900
v 0.07382 0.01318 0.01845
v 0.07382 -0.00527 -0.01054
v 0.06328 0.00527 0.00792
v 0.07646 0.00791 0.01845
v 0.07119 -0.00527 0.04218
v 0.07119 0.01055 -0.01845
v 0.06328 0.00791 -0.01845
v 0.07646 0.00791 0.04745
v 0.06855 0.01318 0.02373
v 0.06328 -0.00527 0.00792
v 0.07119 -0.00263 0.04745
v 0.07119 -0.01054 -0.01845
v 0.07646 -0.00263 0.01582
v 0.06592 0.00791 0.03427
v 0.06592 -0.00527 0.02373
v 0.06328 -0.01318 -0.01581
v 0.07382 0.00264 -0.01317
v -0.07646 -0.01581 0.06329
v -0.03692 0.01319 0.07383
v -0.02637 0.00791 0.07910
v -0.04483 -0.00264 0.05010
v -0.04219 -0.03163 0.07119
v -0.07383 0.01054 0.07383
v -0.06855 -0.01581 0.07646
v -0.07646 0.01054 0.06329
v -0.02637 -0.00791 0.06329
v -0.02637 0.01054 0.06855
v -0.02637 -0.00791 0.07910
v -0.04219 -0.03163 0.06592
v -0.07383 -0.01054 0.05801
v -0.07383 -0.02109 0.07119
v -0.05273 0.00263 0.07910
v -0.07910 -0.01054 0.07119
v -0.05536 0.01319 0.06592
v -0.04746 -0.00000 0.05010
v -0.05011 -0.03163 0.06592
v -0.05011 -0.02900 0.07383
v -0.07383 0.00527 0.05801
v -0.05011 -0.01054 0.07910
v -0.07910 0.00263 0.06329
v -0.06328 0.01319 0.07383
v -0.07118 0.00263 0.07646
v -0.02637 0.00263 0.06329
v -0.07118 -0.02372 0.06592
v -0.06855 -0.02372 0.07383
v -0.02637 -0.01054 0.06592
v -0.07910 0.00263 0.07119
v -0.07383 0.01319 0.06592
v -0.03692 0.01319 0.06855
v -0.05801 0.01054 0.07646
v -0.04483 -0.00000 0.05010
v -0.07118 -0.01318 0.07646
v -0.05011 -0.03163 0.07119
v -0.07910 -0.01054 0.06329
v -0.02901 -0.01054 0.07910
v -0.02637 -0.01054 0.07646
v -0.03956 -0.02900 0.06592
v -0.07383 -0.01581 0.06065
v -0.04746 -0.00264 0.05010
v -0.01581 -0.00263 0.08174
v 0.01319 0.01846 0.07383
v 0.01319 0.01846 0.07120
v 0.05537 -0.01054 0.06856
v -0.02637 -0.00790 0.06328
v 0.00264 -0.02109 0.07646
v 0.04745 0.00527 0.07910
v 0.05537 0.01581 0.06856
v -0.02637 0.01054 0.06856
v 0.00528 0.00791 0.06328
v 0.05537 -0.01054 0.07646
v -0.02637 0.00791 0.07910
v -0.02637 -0.01054 0.07646
v 0.05537 0.01581 0.07646
v 0.00792 -0.02109 0.07120
v 0.02372 -0.00000 0.06328
v 0.00000 0.00791 0.08174
v 0.00792 -0.00790 0.08174
v 0.00000 0.01846 0.07646
v 0.00792 -0.00790 0.06328
v 0.05273 -0.00263 0.06592
v -0.00526 0.01318 0.06592
v -0.02637 0.00263 0.06328
v 0.04218 0.01318 0.06592
v 0.04482 -0.00790 0.07910
v -0.02637 -0.01054 0.06592
v -0.02373 0.01318 0.07120
v -0.02637 -0.00790 0.07910
v -0.00791 -0.00790 0.08174
v 0.00000 0.01846 0.07120
v 0.00792 -0.02109 0.07646
v 0.04482 -0.00790 0.06592
v 0.02635 0.01318 0.07910
v -0.00791 0.00791 0.08174
v 0.05273 0.00527 0.06592
v 0.00792 -0.01581 0.07910
v -0.02108 0.01318 0.07646
v 0.00264 -0.02109 0.07120
v -0.05273 0.07910 -0.05535
v -0.06592 0.06065 -0.03954
v -0.06592 0.06328 -0.04745
v -0.06064 0.07383 0.00527
v -0.05273 0.06856 0.00790
v -0.05273 0.06856 -0.06063
v -0.06592 0.07383 -0.05272
v -0.06592 0.06328 -0.01319
v -0.06064 0.06065 -0.01847
v -0.05273 0.07383 0.01055
v -0.06064 0.07383 -0.06591
v -0.06592 0.07383 -0.02900
v -0.06328 0.07646 -0.04218
v -0.06064 0.06592 0.00263
v -0.05273 0.07646 -0.06591
v -0.06328 0.07646 -0.05800
v -0.06064 0.06065 -0.03690
v -0.06592 0.07119 -0.01319
v -0.06064 0.07119 -0.06591
v -0.05537 0.07910 -0.05535
v -0.06592 0.06065 -0.01847
v -0.06328 0.06592 -0.00001
v -0.07117 -0.00527 -0.07646
v -0.02108 0.03428 -0.07119
v -0.04217 0.02900 -0.06855
v 0.01845 -0.01054 -0.06592
v 0.04746 -0.00790 -0.07910
v -0.07117 -0.01318 -0.06592
v -0.04745 0.03428 -0.07646
v -0.06063 -0.01318 -0.07910
v 0.04746 0.00791 -0.07910
v -0.01056 0.01054 -0.08173
v -0.07382 0.01318 -0.06592
v 0.01845 0.00264 -0.06592
v -0.05009 -0.01846 -0.07383
v 0.04746 0.00791 -0.07383
v -0.06326 0.00791 -0.07910
v 0.00526 -0.00790 -0.08173
v 0.00789 -0.01581 -0.07646
v -0.07117 0.01845 -0.07383
v -0.05272 0.03428 -0.07119
v -0.00792 0.02373 -0.07910
v 0.04746 -0.00790 -0.07383
v 0.00789 -0.01318 -0.06592
v -0.06063 -0.01846 -0.07646
v -0.06590 -0.01846 -0.07119
v -0.02108 0.03428 -0.07383
v 0.00789 -0.01581 -0.07119
v -0.01845 -0.00527 -0.08173
v -0.07382 -0.01054 -0.07119
v 0.00526 0.00791 -0.06592
v 0.01316 -0.01318 -0.07910
v -0.00001 0.01054 -0.08173
v -0.07117 0.01581 -0.06592
v -0.07382 0.00791 -0.07383
v -0.06853 0.01581 -0.07646
v -0.05799 0.01318 -0.07910
v -0.06590 -0.00527 -0.07910
v -0.06853 -0.01318 -0.07646
v 0.00789 0.00528 -0.08173
v 0.05273 -0.00527 -0.07119
v 0.06591 0.01319 -0.07119
v 0.06591 0.01319 -0.07383
v 0.07119 -0.01054 -0.07119
v 0.04746 -0.00790 -0.07910
v 0.06591 -0.00263 -0.07910
v 0.04746 0.00791 -0.07910
v 0.04746 0.00791 -0.07383
v 0.06855 0.00791 -0.07646
v 0.04746 -0.00790 -0.07383
v 0.07119 -0.01054 -0.07383
v 0.07119 0.00791 -0.07119
v 0.06328 0.00791 -0.07910
v 0.06064 -0.01054 -0.07119
v 0.06064 -0.00790 -0.07910
v 0.05273 0.00527 -0.07119
v 0.05801 -0.00791 -0.05536
v 0.07119 0.01054 -0.01845
v 0.07382 0.00790 -0.05536
v 0.06855 -0.03428 -0.02373
v 0.07382 -0.01054 -0.06855
v 0.06328 0.01582 -0.06591
v 0.06064 0.00263 -0.02373
v 0.06328 -0.03428 -0.04745
v 0.05801 -0.00527 -0.07119
v 0.06328 -0.03428 -0.02110
v 0.06328 0.02110 -0.03691
v 0.07119 0.01054 -0.07119
v 0.05801 0.00790 -0.07119
v 0.06855 0.02110 -0.05273
v 0.07119 -0.01054 -0.01845
v 0.06328 0.00790 -0.01845
v 0.05801 0.00527 -0.04219
v 0.06592 -0.01318 -0.07119
v 0.06855 -0.03428 -0.04745
v 0.07382 -0.01054 -0.05536
v 0.06855 0.02110 -0.03691
v 0.05801 -0.00527 -0.04219
v 0.06328 0.02110 -0.05273
v 0.07382 0.00263 -0.07119
v 0.06328 -0.01318 -0.01845
v 0.07119 0.01582 -0.03428
v 0.06064 0.01582 -0.04219
v 0.07382 0.00263 -0.05009
v 0.07119 0.01582 -0.06064
v 0.06064 -0.00791 -0.02373
v 0.06855 0.01318 -0.07119
v 0.06592 0.01318 -0.02110
v 0.06855 -0.01318 -0.07119
v 0.01053 0.07646 -0.02109
v -0.05273 0.07119 -0.06591
v -0.05273 0.07646 -0.06591
v -0.05273 0.06856 -0.02901
v -0.00791 0.06856 -0.06064
v 0.01846 0.07910 -0.04219
v -0.05273 0.07910 -0.05009
v 0.01846 0.07119 -0.02109
v -0.01319 0.07910 -0.06327
v 0.01318 0.07910 -0.02109
v -0.05273 0.07383 -0.02901
v -0.00791 0.07119 -0.06591
v 0.01846 0.07119 -0.04219
v -0.05273 0.06856 -0.06064
v -0.00265 0.06856 -0.04219
v -0.00791 0.07646 -0.06591
v -0.04746 0.07910 -0.06327
v 0.01846 0.07646 -0.04481
v 0.01846 0.07910 -0.02109
v -0.01055 0.06856 -0.06327
v -0.06592 0.01318 -0.05009
v -0.07119 -0.01318 -0.06591
v -0.07383 -0.01054 -0.06591
v -0.07383 -0.01054 -0.03164
v -0.06064 -0.01054 -0.06328
v -0.07383 0.01318 -0.06591
v -0.06592 0.00791 -0.03164
v -0.06064 0.00791 -0.06591
v -0.07383 0.00791 -0.03164
v -0.06592 -0.01054 -0.03164
v -0.07383 0.01582 -0.05009
v -0.06592 0.01582 -0.06591
v -0.06855 -0.01318 -0.03428
v -0.06328 -0.01318 -0.06591
v -0.06328 0.00000 -0.04219
v -0.06855 0.01582 -0.04746
v -0.06064 0.00791 -0.06328
v -0.01318 -0.00527 -0.06591
v 0.01845 -0.00000 -0.05009
v 0.01318 0.00264 -0.05009
v -0.00791 -0.00264 -0.03164
v 0.01582 -0.01054 -0.06591
v -0.01054 0.00527 -0.06591
v 0.01582 0.00264 -0.06591
v -0.01582 0.00264 -0.04483
v -0.00263 -0.01054 -0.05800
v 0.01318 -0.00791 -0.05009
v -0.00263 0.00527 -0.04746
v 0.00000 -0.00000 -0.03164
v -0.01318 -0.00527 -0.04483
v 0.01054 0.00527 -0.06591
v -0.00527 -0.01054 -0.06591
v 0.01845 -0.00527 -0.05009
v 0.00000 -0.00527 -0.03691
v 0.01845 -0.00791 -0.06591
v -0.01054 0.00527 -0.04746
v 0.00527 -0.01054 -0.05536
v -0.00791 -0.00527 -0.03691
v -0.01582 -0.00264 -0.05536
v -0.00791 -0.00000 -0.03164
v 0.00000 -0.00264 -0.03164
v -0.01582 0.00264 -0.05536
v -0.00263 0.00264 -0.03691
v -0.06328 0.00000 0.00791
v -0.07383 -0.01054 -0.03164
v -0.06592 -0.01054 -0.03164
v -0.06855 0.00791 -0.03164
v -0.07119 -0.00527 0.00263
v -0.07383 0.00527 -0.02372
v -0.06328 -0.00791 0.00527
v -0.06855 0.00264 0.00527
v -0.06592 0.00527 -0.03164
v -0.06328 0.00264 -0.00264
v -0.06855 -0.00791 0.00527
v -0.07383 0.00527 -0.03164
v -0.07383 -0.00791 -0.01845
v -0.07119 0.00000 0.00263
v -0.06064 -0.00791 0.00264
v -0.03164 0.00264 0.00527
v -0.03164 -0.00000 0.00791
v -0.03164 -0.00791 0.00000
v -0.06328 0.00264 0.00000
v -0.05537 -0.00527 0.00791
v -0.06328 0.00264 0.00527
v -0.03164 0.00264 0.00000
v -0.03164 -0.00791 0.00527
v -0.06328 -0.00527 0.00000
v -0.06064 -0.00791 0.00527
v -0.00791 -0.00527 0.01319
v -0.00527 -0.00264 -0.03163
v -0.00527 -0.00000 -0.03163
v 0.03427 -0.00264 0.01054
v -0.03163 0.00264 0.00527
v -0.01054 -0.01054 -0.00000
v 0.00790 0.00527 0.00791
v -0.03163 -0.00791 -0.00000
v 0.00263 -0.00791 -0.02109
v -0.02373 0.00264 -0.01581
v 0.00527 -0.01054 0.00791
v 0.03427 -0.00000 0.00527
v 0.00263 -0.00000 -0.03163
v -0.00527 0.00264 0.01319
v -0.02636 -0.00527 -0.01581
v -0.02900 -0.00791 0.00791
v -0.01318 -0.00791 -0.02109
v -0.00263 0.00264 -0.02372
v 0.02899 0.00264 0.00527
v 0.02108 0.00264 0.01319
v 0.03427 -0.00264 0.00527
v 0.01054 -0.00791 0.01319
v 0.00263 -0.00527 -0.02900
v -0.00527 0.00527 0.00263
v 0.00527 -0.01054 -0.00000
v -0.03163 -0.00000 0.00791
v -0.01582 0.00264 -0.02372
v -0.03163 0.00264 -0.00000
v 0.02636 -0.00527 0.00263
v -0.00527 -0.00791 0.01319
v -0.00527 -0.00791 -0.02372
v 0.00527 0.00527 0.00263
v -0.00527 -0.01054 0.00791
v -0.00263 0.00527 0.00791
v 0.01846 -0.00264 0.02900
v -0.00527 -0.00527 0.01319
v -0.01318 -0.00527 0.02900
v -0.00263 0.00264 0.01319
v -0.00263 0.00264 0.03164
v 0.01582 0.00264 0.01319
v 0.00790 -0.00791 0.01319
v 0.00527 -0.00527 0.03427
v 0.01846 0.00264 0.02900
v -0.01318 -0.00000 0.03164
v 0.00264 -0.00000 0.03691
v 0.01846 -0.00264 0.01319
v 0.00527 -0.00791 0.02900
v -0.00263 -0.00791 0.01319
v -0.00791 -0.00527 0.03427
v 0.02109 -0.00264 0.02637
v 0.02109 0.00264 0.02110
v -0.00527 -0.00000 0.01319
v -0.01583 0.07910 0.01055
v -0.05273 0.07119 -0.01054
v -0.05273 0.07383 -0.01054
v -0.05273 0.07119 0.01055
v -0.01583 0.07119 0.00000
v -0.04482 0.07910 0.01055
v -0.03691 0.06856 0.00791
v -0.02110 0.07646 -0.00263
v -0.01583 0.07119 0.01055
v -0.05273 0.06856 -0.00790
v -0.03428 0.07910 0.00264
v -0.05273 0.07646 0.01055
v -0.05273 0.06856 0.00791
v -0.03955 0.06856 -0.00527
v -0.01583 0.07910 0.00527
v 0.01845 0.07910 0.01055
v 0.01054 0.07383 -0.02109
v 0.01054 0.07646 -0.02109
v -0.01582 0.07119 0.01055
v -0.01582 0.07910 0.00527
v 0.01845 0.07119 0.01055
v 0.01845 0.07119 -0.02109
v 0.01845 0.07910 -0.02109
v -0.01582 0.07119 -0.00000
v -0.01582 0.07910 0.01055
v -0.01318 0.07646 -0.00264
f 137 133 149 
f 119 116 122 
f 117 118 123 
f 116 119 125 
f 121 124 125 
f 119 122 126 
f 122 120 126 
f 118 117 128 
f 123 118 128 
f 126 120 128 
f 124 121 129 
f 125 124 130 
f 125 119 131 
f 121 125 131 
f 119 126 132 
f 123 134 135 
f 117 127 138 
f 128 117 138 
f 127 132 138 
f 132 128 138 
f 130 124 139 
f 124 133 139 
f 133 135 139 
f 116 136 139 
f 136 130 139 
f 127 117 140 
f 117 137 140 
f 137 129 140 
f 129 121 141 
f 132 127 141 
f 127 140 141 
f 140 129 141 
f 117 123 142 
f 123 133 142 
f 137 117 142 
f 133 137 142 
f 131 119 143 
f 121 131 143 
f 119 132 143 
f 141 121 143 
f 132 141 143 
f 122 116 144 
f 134 122 144 
f 135 134 144 
f 116 139 144 
f 139 135 144 
f 116 125 145 
f 125 130 145 
f 136 116 145 
f 130 136 145 
f 126 128 146 
f 132 126 146 
f 128 132 146 
f 133 123 147 
f 123 135 147 
f 135 133 147 
f 120 122 148 
f 128 120 148 
f 123 128 148 
f 122 134 148 
f 134 123 148 
f 124 129 149 
f 133 124 149 
f 129 137 149 
