# Original object name hint: convex_1
v -0.04482 -0.08173 0.03162
v -0.05273 -0.06856 -0.07645
v -0.05273 -0.06592 -0.07645
v 0.05010 -0.07382 -0.07381
v -0.03163 -0.08437 -0.05799
v 0.05010 -0.07910 0.02636
v -0.05537 -0.06064 -0.06063
v 0.05010 -0.08437 -0.06326
v 0.05010 -0.08437 0.02636
v -0.06064 -0.06856 -0.00265
v -0.06327 -0.07646 -0.07117
v -0.04745 -0.08437 0.01581
v 0.00526 -0.06592 -0.06854
v -0.06592 -0.07646 -0.01583
v -0.06327 -0.06064 -0.07117
v -0.02900 -0.07646 0.02899
v 0.05010 -0.07646 0.00790
v -0.05800 -0.08173 -0.05536
v -0.03690 -0.06064 -0.07381
v -0.02900 -0.08437 0.03428
v -0.05800 -0.07646 -0.07381
v -0.05273 -0.06856 -0.00265
v -0.06592 -0.06328 -0.03953
v 0.05010 -0.07382 -0.03953
v -0.03955 -0.07910 0.03428
v -0.06592 -0.06856 -0.07381
v 0.05010 -0.07646 -0.07381
v -0.03690 -0.06064 -0.06854
v -0.06327 -0.07119 -0.00002
v -0.04745 -0.08437 -0.04745
v -0.00791 -0.07646 0.02899
v -0.06064 -0.07910 0.00263
v 0.02373 -0.08173 -0.06854
v -0.06592 -0.07646 -0.06326
v -0.06327 -0.07910 -0.01583
v -0.02373 -0.07910 0.03428
v -0.01845 -0.08437 -0.06063
v -0.03955 -0.07119 -0.07645
v -0.05537 -0.08173 -0.06063
v -0.04482 -0.08437 0.02899
v -0.03690 -0.06592 -0.07645
v 0.00526 -0.06592 -0.07381
v -0.06592 -0.06856 -0.01583
v -0.06064 -0.06064 -0.07381
v -0.05800 -0.08173 -0.02109
v -0.06592 -0.06328 -0.07117
v -0.04482 -0.07910 0.03162
v -0.06327 -0.07910 -0.06063
v -0.05800 -0.07910 -0.06854
v -0.01055 -0.07382 0.01581
v -0.06327 -0.07646 -0.00002
v 0.07119 -0.07382 0.01844
v 0.05010 -0.08437 -0.06326
v 0.05010 -0.07645 -0.07382
v 0.05010 -0.07910 0.02636
v 0.06328 -0.03428 -0.01846
v 0.07119 -0.07382 -0.05799
v 0.07119 -0.03691 -0.04745
v 0.06855 -0.08437 0.00526
v 0.06328 -0.03428 -0.05008
v 0.06591 -0.08437 -0.05271
v 0.06591 -0.07910 0.03163
v 0.05010 -0.08437 0.02371
v 0.06328 -0.07119 -0.07117
v 0.06855 -0.03428 -0.02110
v 0.05010 -0.07382 -0.03690
v 0.07119 -0.08173 -0.03953
v 0.06328 -0.07910 -0.06854
v 0.05801 -0.07910 0.03163
v 0.06328 -0.08437 0.02899
v 0.07119 -0.08173 0.01318
v 0.05010 -0.07382 -0.07382
v 0.05010 -0.07645 0.01844
v 0.07119 -0.05801 -0.05799
v 0.07119 -0.05537 -0.00265
v 0.06855 -0.03955 -0.05271
v 0.06855 -0.03955 -0.01319
v 0.05801 -0.07382 -0.07382
v 0.06591 -0.07645 -0.06854
v 0.06855 -0.08173 -0.05536
v 0.07119 -0.03691 -0.03690
v 0.06855 -0.08173 0.02636
v 0.06591 -0.07382 0.02636
v 0.06855 -0.03428 -0.04745
v 0.06064 -0.08437 -0.06063
v -0.05010 0.03428 -0.07382
v -0.01846 0.06592 -0.07119
v -0.01583 0.06328 -0.07119
v -0.01846 0.06064 -0.07646
v -0.02110 0.03428 -0.07119
v -0.03427 0.06592 -0.06855
v -0.03164 0.06592 -0.07646
v -0.02110 0.04746 -0.07646
v -0.05010 0.03428 -0.07119
v -0.02373 0.05273 -0.06855
v -0.01319 0.05010 -0.07119
v -0.02110 0.03428 -0.07382
v -0.01319 0.05010 -0.07382
v -0.02373 0.06592 -0.06855
v -0.03164 0.04746 -0.07646
v -0.05010 0.03692 -0.07382
v -0.03427 0.06592 -0.07382
v -0.04218 0.07119 -0.07382
v -0.00792 0.07647 -0.06591
v -0.00792 0.07119 -0.06591
v -0.05537 0.07647 -0.06591
v -0.03427 0.06592 -0.06855
v -0.02374 0.07383 -0.07382
v -0.02374 0.06592 -0.07382
v -0.05537 0.07119 -0.06591
v -0.04746 0.07647 -0.07119
v -0.03691 0.06592 -0.07382
v -0.00792 0.07647 -0.06855
v -0.05537 0.07119 -0.06855
v -0.02110 0.06856 -0.06591
v 0.01846 0.07646 -0.04481
v 0.07118 0.07646 -0.00526
v 0.07118 0.07119 -0.00526
v 0.01846 0.07646 0.07119
v 0.06327 0.06328 0.06854
v 0.04745 0.08174 0.05800
v 0.01846 0.07119 -0.04217
v 0.07118 0.06592 -0.03954
v 0.06063 0.08174 -0.04217
v 0.01846 0.08174 0.01318
v 0.01846 0.07119 0.07119
v 0.06591 0.07646 0.06327
v 0.06855 0.06328 0.06854
v 0.06327 0.08174 0.01582
v 0.03165 0.08174 -0.03954
v 0.01846 0.08174 0.06327
v 0.05800 0.07646 0.07119
v 0.06591 0.07910 -0.04481
v 0.06327 0.06592 -0.03954
v 0.05009 0.07383 -0.04746
v 0.02110 0.07910 -0.04481
v 0.06855 0.07910 -0.03954
v 0.06855 0.06856 0.06854
v 0.03692 0.07910 -0.04746
v 0.06855 0.07910 0.01582
v 0.06327 0.07910 0.05536
v 0.07118 0.07646 -0.03690
v 0.05009 0.07910 0.06854
v 0.03428 0.07383 -0.04746
v 0.01846 0.07910 -0.04217
v 0.05800 0.07119 0.07119
v 0.06591 0.07119 -0.04481
v 0.06327 0.06328 0.06591
v 0.06327 0.08174 -0.03954
v 0.06855 -0.01318 0.06592
v 0.05801 0.01582 0.07646
v 0.07382 0.01845 0.07383
v 0.07382 0.00791 0.04747
v 0.07646 -0.01318 0.07119
v 0.05537 -0.01054 0.06855
v 0.05537 0.01582 0.06855
v 0.07646 -0.00527 0.04747
v 0.05537 -0.01054 0.07646
v 0.07646 0.01845 0.06328
v 0.07382 -0.00263 0.07646
v 0.07910 0.00791 0.07119
v 0.07119 0.02373 0.06855
v 0.07119 -0.00263 0.04747
v 0.07910 0.00528 0.05010
v 0.07910 -0.00527 0.05801
v 0.05537 0.01582 0.07646
v 0.07382 0.02373 0.07119
v 0.07119 -0.01054 0.07646
v 0.07382 0.00791 0.07646
v 0.07910 -0.00263 0.07119
v 0.06328 -0.01318 0.07383
v 0.07119 0.00528 0.04747
v 0.07646 0.00791 0.04747
v -0.01584 0.08174 0.06855
v -0.05272 0.07119 0.01055
v -0.05272 0.06856 0.02901
v 0.01846 0.07119 0.01055
v 0.01582 0.06856 0.07119
v 0.01846 0.08174 0.01320
v -0.05800 0.06592 0.06855
v -0.05009 0.08174 0.02638
v 0.01317 0.08437 0.06327
v -0.06064 0.07646 0.06591
v -0.04746 0.07910 0.01055
v -0.01847 0.08437 0.06327
v 0.01846 0.07646 0.07119
v -0.06064 0.07383 0.02901
v -0.06064 0.06592 0.05800
v -0.00264 0.08437 0.04482
v -0.05009 0.08174 0.05536
v -0.01056 0.07910 0.07119
v -0.04746 0.06592 0.06064
v -0.05800 0.07910 0.02901
v -0.06328 0.07383 0.06591
v 0.01846 0.08174 0.06591
v 0.01846 0.07910 0.01055
v -0.04218 0.08174 0.02110
v -0.06064 0.07383 0.06855
v -0.06064 0.06856 0.03692
v 0.01846 0.07119 0.07119
v 0.01582 0.06856 0.06591
v 0.01582 0.08437 0.05536
v 0.00526 0.08437 0.06591
v -0.05272 0.07646 0.01055
v -0.06328 0.06856 0.06591
v -0.00792 0.06856 0.07119
v 0.01582 0.07910 0.07119
v -0.06328 0.07383 0.05273
v -0.05800 0.07910 0.05800
v -0.04482 0.08174 0.06064
v 0.01054 0.08437 0.04482
v -0.04218 0.06856 0.02901
v 0.07382 0.00791 0.04745
v 0.06328 -0.01318 -0.01845
v 0.06855 -0.01318 -0.01845
v 0.06592 0.01055 -0.01845
v 0.07382 0.00791 -0.01054
v 0.07646 -0.00527 0.04218
v 0.06592 0.00000 0.03427
v 0.06592 0.01055 0.02900
v 0.07382 0.01318 0.01845
v 0.07382 -0.00527 -0.01054
v 0.06328 0.00527 0.00792
v 0.07646 0.00791 0.01845
v 0.07119 -0.00527 0.04218
v 0.07119 0.01055 -0.01845
v 0.06328 0.00791 -0.01845
v 0.07646 0.00791 0.04745
v 0.06855 0.01318 0.02373
v 0.06328 -0.00527 0.00792
v 0.07119 -0.00263 0.04745
v 0.07119 -0.01054 -0.01845
v 0.07646 -0.00263 0.01582
v 0.06592 0.00791 0.03427
v 0.06592 -0.00527 0.02373
v 0.06328 -0.01318 -0.01581
v 0.07382 0.00264 -0.01317
v -0.07646 -0.01581 0.06329
v -0.03692 0.01319 0.07383
v -0.02637 0.00791 0.07910
v -0.04483 -0.00264 0.05010
v -0.04219 -0.03163 0.07119
v -0.07383 0.01054 0.07383
v -0.06855 -0.01581 0.07646
v -0.07646 0.01054 0.06329
v -0.02637 -0.00791 0.06329
v -0.02637 0.01054 0.06855
v -0.02637 -0.00791 0.07910
v -0.04219 -0.03163 0.06592
v -0.07383 -0.01054 0.05801
v -0.07383 -0.02109 0.07119
v -0.05273 0.00263 0.07910
v -0.07910 -0.01054 0.07119
v -0.05536 0.01319 0.06592
v -0.04746 -0.00000 0.05010
v -0.05011 -0.03163 0.06592
v -0.05011 -0.02900 0.07383
v -0.07383 0.00527 0.05801
v -0.05011 -0.01054 0.07910
v -0.07910 0.00263 0.06329
v -0.06328 0.01319 0.07383
v -0.07118 0.00263 0.07646
v -0.02637 0.00263 0.06329
v -0.07118 -0.02372 0.06592
v -0.06855 -0.02372 0.07383
v -0.02637 -0.01054 0.06592
v -0.07910 0.00263 0.07119
v -0.07383 0.01319 0.06592
v -0.03692 0.01319 0.06855
v -0.05801 0.01054 0.07646
v -0.04483 -0.00000 0.05010
v -0.07118 -0.01318 0.07646
v -0.05011 -0.03163 0.07119
v -0.07910 -0.01054 0.06329
v -0.02901 -0.01054 0.07910
v -0.02637 -0.01054 0.07646
v -0.03956 -0.02900 0.06592
v -0.07383 -0.01581 0.06065
v -0.04746 -0.00264 0.05010
v -0.01581 -0.00263 0.08174
v 0.01319 0.01846 0.07383
v 0.01319 0.01846 0.07120
v 0.05537 -0.01054 0.06856
v -0.02637 -0.00790 0.06328
v 0.00264 -0.02109 0.07646
v 0.04745 0.00527 0.07910
v 0.05537 0.01581 0.06856
v -0.02637 0.01054 0.06856
v 0.00528 0.00791 0.06328
v 0.05537 -0.01054 0.07646
v -0.02637 0.00791 0.07910
v -0.02637 -0.01054 0.07646
v 0.05537 0.01581 0.07646
v 0.00792 -0.02109 0.07120
v 0.02372 -0.00000 0.06328
v 0.00000 0.00791 0.08174
v 0.00792 -0.00790 0.08174
v 0.00000 0.01846 0.07646
v 0.00792 -0.00790 0.06328
v 0.05273 -0.00263 0.06592
v -0.00526 0.01318 0.06592
v -0.02637 0.00263 0.06328
v 0.04218 0.01318 0.06592
v 0.04482 -0.00790 0.07910
v -0.02637 -0.01054 0.06592
v -0.02373 0.01318 0.07120
v -0.02637 -0.00790 0.07910
v -0.00791 -0.00790 0.08174
v 0.00000 0.01846 0.07120
v 0.00792 -0.02109 0.07646
v 0.04482 -0.00790 0.06592
v 0.02635 0.01318 0.07910
v -0.00791 0.00791 0.08174
v 0.05273 0.00527 0.06592
v 0.00792 -0.01581 0.07910
v -0.02108 0.01318 0.07646
v 0.00264 -0.02109 0.07120
v -0.05273 0.07910 -0.05535
v -0.06592 0.06065 -0.03954
v -0.06592 0.06328 -0.04745
v -0.06064 0.07383 0.00527
v -0.05273 0.06856 0.00790
v -0.05273 0.06856 -0.06063
v -0.06592 0.07383 -0.05272
v -0.06592 0.06328 -0.01319
v -0.06064 0.06065 -0.01847
v -0.05273 0.07383 0.01055
v -0.06064 0.07383 -0.06591
v -0.06592 0.07383 -0.02900
v -0.06328 0.07646 -0.04218
v -0.06064 0.06592 0.00263
v -0.05273 0.07646 -0.06591
v -0.06328 0.07646 -0.05800
v -0.06064 0.06065 -0.03690
v -0.06592 0.07119 -0.01319
v -0.06064 0.07119 -0.06591
v -0.05537 0.07910 -0.05535
v -0.06592 0.06065 -0.01847
v -0.06328 0.06592 -0.00001
v -0.07117 -0.00527 -0.07646
v -0.02108 0.03428 -0.07119
v -0.04217 0.02900 -0.06855
v 0.01845 -0.01054 -0.06592
v 0.04746 -0.00790 -0.07910
v -0.07117 -0.01318 -0.06592
v -0.04745 0.03428 -0.07646
v -0.06063 -0.01318 -0.07910
v 0.04746 0.00791 -0.07910
v -0.01056 0.01054 -0.08173
v -0.07382 0.01318 -0.06592
v 0.01845 0.00264 -0.06592
v -0.05009 -0.01846 -0.07383
v 0.04746 0.00791 -0.07383
v -0.06326 0.00791 -0.07910
v 0.00526 -0.00790 -0.08173
v 0.00789 -0.01581 -0.07646
v -0.07117 0.01845 -0.07383
v -0.05272 0.03428 -0.07119
v -0.00792 0.02373 -0.07910
v 0.04746 -0.00790 -0.07383
v 0.00789 -0.01318 -0.06592
v -0.06063 -0.01846 -0.07646
v -0.06590 -0.01846 -0.07119
v -0.02108 0.03428 -0.07383
v 0.00789 -0.01581 -0.07119
v -0.01845 -0.00527 -0.08173
v -0.07382 -0.01054 -0.07119
v 0.00526 0.00791 -0.06592
v 0.01316 -0.01318 -0.07910
v -0.00001 0.01054 -0.08173
v -0.07117 0.01581 -0.06592
v -0.07382 0.00791 -0.07383
v -0.06853 0.01581 -0.07646
v -0.05799 0.01318 -0.07910
v -0.06590 -0.00527 -0.07910
v -0.06853 -0.01318 -0.07646
v 0.00789 0.00528 -0.08173
v 0.05273 -0.00527 -0.07119
v 0.06591 0.01319 -0.07119
v 0.06591 0.01319 -0.07383
v 0.07119 -0.01054 -0.07119
v 0.04746 -0.00790 -0.07910
v 0.06591 -0.00263 -0.07910
v 0.04746 0.00791 -0.07910
v 0.04746 0.00791 -0.07383
v 0.06855 0.00791 -0.07646
v 0.04746 -0.00790 -0.07383
v 0.07119 -0.01054 -0.07383
v 0.07119 0.00791 -0.07119
v 0.06328 0.00791 -0.07910
v 0.06064 -0.01054 -0.07119
v 0.06064 -0.00790 -0.07910
v 0.05273 0.00527 -0.07119
v 0.05801 -0.00791 -0.05536
v 0.07119 0.01054 -0.01845
v 0.07382 0.00790 -0.05536
v 0.06855 -0.03428 -0.02373
v 0.07382 -0.01054 -0.06855
v 0.06328 0.01582 -0.06591
v 0.06064 0.00263 -0.02373
v 0.06328 -0.03428 -0.04745
v 0.05801 -0.00527 -0.07119
v 0.06328 -0.03428 -0.02110
v 0.06328 0.02110 -0.03691
v 0.07119 0.01054 -0.07119
v 0.05801 0.00790 -0.07119
v 0.06855 0.02110 -0.05273
v 0.07119 -0.01054 -0.01845
v 0.06328 0.00790 -0.01845
v 0.05801 0.00527 -0.04219
v 0.06592 -0.01318 -0.07119
v 0.06855 -0.03428 -0.04745
v 0.07382 -0.01054 -0.05536
v 0.06855 0.02110 -0.03691
v 0.05801 -0.00527 -0.04219
v 0.06328 0.02110 -0.05273
v 0.07382 0.00263 -0.07119
v 0.06328 -0.01318 -0.01845
v 0.07119 0.01582 -0.03428
v 0.06064 0.01582 -0.04219
v 0.07382 0.00263 -0.05009
v 0.07119 0.01582 -0.06064
v 0.06064 -0.00791 -0.02373
v 0.06855 0.01318 -0.07119
v 0.06592 0.01318 -0.02110
v 0.06855 -0.01318 -0.07119
v 0.01053 0.07646 -0.02109
v -0.05273 0.07119 -0.06591
v -0.05273 0.07646 -0.06591
v -0.05273 0.06856 -0.02901
v -0.00791 0.06856 -0.06064
v 0.01846 0.07910 -0.04219
v -0.05273 0.07910 -0.05009
v 0.01846 0.07119 -0.02109
v -0.01319 0.07910 -0.06327
v 0.01318 0.07910 -0.02109
v -0.05273 0.07383 -0.02901
v -0.00791 0.07119 -0.06591
v 0.01846 0.07119 -0.04219
v -0.05273 0.06856 -0.06064
v -0.00265 0.06856 -0.04219
v -0.00791 0.07646 -0.06591
v -0.04746 0.07910 -0.06327
v 0.01846 0.07646 -0.04481
v 0.01846 0.07910 -0.02109
v -0.01055 0.06856 -0.06327
v -0.06592 0.01318 -0.05009
v -0.07119 -0.01318 -0.06591
v -0.07383 -0.01054 -0.06591
v -0.07383 -0.01054 -0.03164
v -0.06064 -0.01054 -0.06328
v -0.07383 0.01318 -0.06591
v -0.06592 0.00791 -0.03164
v -0.06064 0.00791 -0.06591
v -0.07383 0.00791 -0.03164
v -0.06592 -0.01054 -0.03164
v -0.07383 0.01582 -0.05009
v -0.06592 0.01582 -0.06591
v -0.06855 -0.01318 -0.03428
v -0.06328 -0.01318 -0.06591
v -0.06328 0.00000 -0.04219
v -0.06855 0.01582 -0.04746
v -0.06064 0.00791 -0.06328
v -0.01318 -0.00527 -0.06591
v 0.01845 -0.00000 -0.05009
v 0.01318 0.00264 -0.05009
v -0.00791 -0.00264 -0.03164
v 0.01582 -0.01054 -0.06591
v -0.01054 0.00527 -0.06591
v 0.01582 0.00264 -0.06591
v -0.01582 0.00264 -0.04483
v -0.00263 -0.01054 -0.05800
v 0.01318 -0.00791 -0.05009
v -0.00263 0.00527 -0.04746
v 0.00000 -0.00000 -0.03164
v -0.01318 -0.00527 -0.04483
v 0.01054 0.00527 -0.06591
v -0.00527 -0.01054 -0.06591
v 0.01845 -0.00527 -0.05009
v 0.00000 -0.00527 -0.03691
v 0.01845 -0.00791 -0.06591
v -0.01054 0.00527 -0.04746
v 0.00527 -0.01054 -0.05536
v -0.00791 -0.00527 -0.03691
v -0.01582 -0.00264 -0.05536
v -0.00791 -0.00000 -0.03164
v 0.00000 -0.00264 -0.03164
v -0.01582 0.00264 -0.05536
v -0.00263 0.00264 -0.03691
v -0.06328 0.00000 0.00791
v -0.07383 -0.01054 -0.03164
v -0.06592 -0.01054 -0.03164
v -0.06855 0.00791 -0.03164
v -0.07119 -0.00527 0.00263
v -0.07383 0.00527 -0.02372
v -0.06328 -0.00791 0.00527
v -0.06855 0.00264 0.00527
v -0.06592 0.00527 -0.03164
v -0.06328 0.00264 -0.00264
v -0.06855 -0.00791 0.00527
v -0.07383 0.00527 -0.03164
v -0.07383 -0.00791 -0.01845
v -0.07119 0.00000 0.00263
v -0.06064 -0.00791 0.00264
v -0.03164 0.00264 0.00527
v -0.03164 -0.00000 0.00791
v -0.03164 -0.00791 0.00000
v -0.06328 0.00264 0.00000
v -0.05537 -0.00527 0.00791
v -0.06328 0.00264 0.00527
v -0.03164 0.00264 0.00000
v -0.03164 -0.00791 0.00527
v -0.06328 -0.00527 0.00000
v -0.06064 -0.00791 0.00527
v -0.00791 -0.00527 0.01319
v -0.00527 -0.00264 -0.03163
v -0.00527 -0.00000 -0.03163
v 0.03427 -0.00264 0.01054
v -0.03163 0.00264 0.00527
v -0.01054 -0.01054 -0.00000
v 0.00790 0.00527 0.00791
v -0.03163 -0.00791 -0.00000
v 0.00263 -0.00791 -0.02109
v -0.02373 0.00264 -0.01581
v 0.00527 -0.01054 0.00791
v 0.03427 -0.00000 0.00527
v 0.00263 -0.00000 -0.03163
v -0.00527 0.00264 0.01319
v -0.02636 -0.00527 -0.01581
v -0.02900 -0.00791 0.00791
v -0.01318 -0.00791 -0.02109
v -0.00263 0.00264 -0.02372
v 0.02899 0.00264 0.00527
v 0.02108 0.00264 0.01319
v 0.03427 -0.00264 0.00527
v 0.01054 -0.00791 0.01319
v 0.00263 -0.00527 -0.02900
v -0.00527 0.00527 0.00263
v 0.00527 -0.01054 -0.00000
v -0.03163 -0.00000 0.00791
v -0.01582 0.00264 -0.02372
v -0.03163 0.00264 -0.00000
v 0.02636 -0.00527 0.00263
v -0.00527 -0.00791 0.01319
v -0.00527 -0.00791 -0.02372
v 0.00527 0.00527 0.00263
v -0.00527 -0.01054 0.00791
v -0.00263 0.00527 0.00791
v 0.01846 -0.00264 0.02900
v -0.00527 -0.00527 0.01319
v -0.01318 -0.00527 0.02900
v -0.00263 0.00264 0.01319
v -0.00263 0.00264 0.03164
v 0.01582 0.00264 0.01319
v 0.00790 -0.00791 0.01319
v 0.00527 -0.00527 0.03427
v 0.01846 0.00264 0.02900
v -0.01318 -0.00000 0.03164
v 0.00264 -0.00000 0.03691
v 0.01846 -0.00264 0.01319
v 0.00527 -0.00791 0.02900
v -0.00263 -0.00791 0.01319
v -0.00791 -0.00527 0.03427
v 0.02109 -0.00264 0.02637
v 0.02109 0.00264 0.02110
v -0.00527 -0.00000 0.01319
v -0.01583 0.07910 0.01055
v -0.05273 0.07119 -0.01054
v -0.05273 0.07383 -0.01054
v -0.05273 0.07119 0.01055
v -0.01583 0.07119 0.00000
v -0.04482 0.07910 0.01055
v -0.03691 0.06856 0.00791
v -0.02110 0.07646 -0.00263
v -0.01583 0.07119 0.01055
v -0.05273 0.06856 -0.00790
v -0.03428 0.07910 0.00264
v -0.05273 0.07646 0.01055
v -0.05273 0.06856 0.00791
v -0.03955 0.06856 -0.00527
v -0.01583 0.07910 0.00527
v 0.01845 0.07910 0.01055
v 0.01054 0.07383 -0.02109
v 0.01054 0.07646 -0.02109
v -0.01582 0.07119 0.01055
v -0.01582 0.07910 0.00527
v 0.01845 0.07119 0.01055
v 0.01845 0.07119 -0.02109
v 0.01845 0.07910 -0.02109
v -0.01582 0.07119 -0.00000
v -0.01582 0.07910 0.01055
v -0.01318 0.07646 -0.00264
f 68 80 85 
f 54 53 55 
f 52 57 58 
f 59 53 61 
f 55 53 63 
f 53 59 63 
f 60 56 65 
f 54 55 66 
f 56 60 66 
f 57 52 67 
f 59 61 67 
f 53 54 68 
f 56 55 69 
f 55 63 69 
f 69 63 70 
f 63 59 70 
f 62 69 70 
f 67 52 71 
f 59 67 71 
f 54 66 72 
f 66 60 72 
f 55 56 73 
f 66 55 73 
f 56 66 73 
f 58 57 74 
f 52 58 75 
f 58 74 76 
f 74 64 76 
f 65 56 77 
f 52 75 77 
f 75 65 77 
f 68 54 78 
f 54 72 78 
f 72 60 78 
f 60 76 78 
f 76 64 78 
f 74 57 79 
f 64 74 79 
f 68 78 79 
f 78 64 79 
f 57 67 80 
f 67 61 80 
f 79 57 80 
f 68 79 80 
f 58 65 81 
f 75 58 81 
f 65 75 81 
f 52 62 82 
f 70 59 82 
f 62 70 82 
f 71 52 82 
f 59 71 82 
f 62 52 83 
f 56 69 83 
f 69 62 83 
f 52 77 83 
f 77 56 83 
f 65 58 84 
f 60 65 84 
f 58 76 84 
f 76 60 84 
f 61 53 85 
f 53 68 85 
f 80 61 85 
