# Original object name hint: convex_0
v -0.04482 -0.08173 0.03162
v -0.05273 -0.06856 -0.07645
v -0.05273 -0.06592 -0.07645
v 0.05010 -0.07382 -0.07381
v -0.03163 -0.08437 -0.05799
v 0.05010 -0.07910 0.02636
v -0.05537 -0.06064 -0.06063
v 0.05010 -0.08437 -0.06326
v 0.05010 -0.08437 0.02636
v -0.06064 -0.06856 -0.00265
v -0.06327 -0.07646 -0.07117
v -0.04745 -0.08437 0.01581
v 0.00526 -0.06592 -0.06854
v -0.06592 -0.07646 -0.01583
v -0.06327 -0.06064 -0.07117
v -0.02900 -0.07646 0.02899
v 0.05010 -0.07646 0.00790
v -0.05800 -0.08173 -0.05536
v -0.03690 -0.06064 -0.07381
v -0.02900 -0.08437 0.03428
v -0.05800 -0.07646 -0.07381
v -0.05273 -0.06856 -0.00265
v -0.06592 -0.06328 -0.03953
v 0.05010 -0.07382 -0.03953
v -0.03955 -0.07910 0.03428
v -0.06592 -0.06856 -0.07381
v 0.05010 -0.07646 -0.07381
v -0.03690 -0.06064 -0.06854
v -0.06327 -0.07119 -0.00002
v -0.04745 -0.08437 -0.04745
v -0.00791 -0.07646 0.02899
v -0.06064 -0.07910 0.00263
v 0.02373 -0.08173 -0.06854
v -0.06592 -0.07646 -0.06326
v -0.06327 -0.07910 -0.01583
v -0.02373 -0.07910 0.03428
v -0.01845 -0.08437 -0.06063
v -0.03955 -0.07119 -0.07645
v -0.05537 -0.08173 -0.06063
v -0.04482 -0.08437 0.02899
v -0.03690 -0.06592 -0.07645
v 0.00526 -0.06592 -0.07381
v -0.06592 -0.06856 -0.01583
v -0.06064 -0.06064 -0.07381
v -0.05800 -0.08173 -0.02109
v -0.06592 -0.06328 -0.07117
v -0.04482 -0.07910 0.03162
v -0.06327 -0.07910 -0.06063
v -0.05800 -0.07910 -0.06854
v -0.01055 -0.07382 0.01581
v -0.06327 -0.07646 -0.00002
v 0.07119 -0.07382 0.01844
v 0.05010 -0.08437 -0.06326
v 0.05010 -0.07645 -0.07382
v 0.05010 -0.07910 0.02636
v 0.06328 -0.03428 -0.01846
v 0.07119 -0.07382 -0.05799
v 0.07119 -0.03691 -0.04745
v 0.06855 -0.08437 0.00526
v 0.06328 -0.03428 -0.05008
v 0.06591 -0.08437 -0.05271
v 0.06591 -0.07910 0.03163
v 0.05010 -0.08437 0.02371
v 0.06328 -0.07119 -0.07117
v 0.06855 -0.03428 -0.02110
v 0.05010 -0.07382 -0.03690
v 0.07119 -0.08173 -0.03953
v 0.06328 -0.07910 -0.06854
v 0.05801 -0.07910 0.03163
v 0.06328 -0.08437 0.02899
v 0.07119 -0.08173 0.01318
v 0.05010 -0.07382 -0.07382
v 0.05010 -0.07645 0.01844
v 0.07119 -0.05801 -0.05799
v 0.07119 -0.05537 -0.00265
v 0.06855 -0.03955 -0.05271
v 0.06855 -0.03955 -0.01319
v 0.05801 -0.07382 -0.07382
v 0.06591 -0.07645 -0.06854
v 0.06855 -0.08173 -0.05536
v 0.07119 -0.03691 -0.03690
v 0.06855 -0.08173 0.02636
v 0.06591 -0.07382 0.02636
v 0.06855 -0.03428 -0.04745
v 0.06064 -0.08437 -0.06063
v -0.05010 0.03428 -0.07382
v -0.01846 0.06592 -0.07119
v -0.01583 0.06328 -0.07119
v -0.01846 0.06064 -0.07646
v -0.02110 0.03428 -0.07119
v -0.03427 0.06592 -0.06855
v -0.03164 0.06592 -0.07646
v -0.02110 0.04746 -0.07646
v -0.05010 0.03428 -0.07119
v -0.02373 0.05273 -0.06855
v -0.01319 0.05010 -0.07119
v -0.02110 0.03428 -0.07382
v -0.01319 0.05010 -0.07382
v -0.02373 0.06592 -0.06855
v -0.03164 0.04746 -0.07646
v -0.05010 0.03692 -0.07382
v -0.03427 0.06592 -0.07382
v -0.04218 0.07119 -0.07382
v -0.00792 0.07647 -0.06591
v -0.00792 0.07119 -0.06591
v -0.05537 0.07647 -0.06591
v -0.03427 0.06592 -0.06855
v -0.02374 0.07383 -0.07382
v -0.02374 0.06592 -0.07382
v -0.05537 0.07119 -0.06591
v -0.04746 0.07647 -0.07119
v -0.03691 0.06592 -0.07382
v -0.00792 0.07647 -0.06855
v -0.05537 0.07119 -0.06855
v -0.02110 0.06856 -0.06591
v 0.01846 0.07646 -0.04481
v 0.07118 0.07646 -0.00526
v 0.07118 0.07119 -0.00526
v 0.01846 0.07646 0.07119
v 0.06327 0.06328 0.06854
v 0.04745 0.08174 0.05800
v 0.01846 0.07119 -0.04217
v 0.07118 0.06592 -0.03954
v 0.06063 0.08174 -0.04217
v 0.01846 0.08174 0.01318
v 0.01846 0.07119 0.07119
v 0.06591 0.07646 0.06327
v 0.06855 0.06328 0.06854
v 0.06327 0.08174 0.01582
v 0.03165 0.08174 -0.03954
v 0.01846 0.08174 0.06327
v 0.05800 0.07646 0.07119
v 0.06591 0.07910 -0.04481
v 0.06327 0.06592 -0.03954
v 0.05009 0.07383 -0.04746
v 0.02110 0.07910 -0.04481
v 0.06855 0.07910 -0.03954
v 0.06855 0.06856 0.06854
v 0.03692 0.07910 -0.04746
v 0.06855 0.07910 0.01582
v 0.06327 0.07910 0.05536
v 0.07118 0.07646 -0.03690
v 0.05009 0.07910 0.06854
v 0.03428 0.07383 -0.04746
v 0.01846 0.07910 -0.04217
v 0.05800 0.07119 0.07119
v 0.06591 0.07119 -0.04481
v 0.06327 0.06328 0.06591
v 0.06327 0.08174 -0.03954
v 0.06855 -0.01318 0.06592
v 0.05801 0.01582 0.07646
v 0.07382 0.01845 0.07383
v 0.07382 0.00791 0.04747
v 0.07646 -0.01318 0.07119
v 0.05537 -0.01054 0.06855
v 0.05537 0.01582 0.06855
v 0.07646 -0.00527 0.04747
v 0.05537 -0.01054 0.07646
v 0.07646 0.01845 0.06328
v 0.07382 -0.00263 0.07646
v 0.07910 0.00791 0.07119
v 0.07119 0.02373 0.06855
v 0.07119 -0.00263 0.04747
v 0.07910 0.00528 0.05010
v 0.07910 -0.00527 0.05801
v 0.05537 0.01582 0.07646
v 0.07382 0.02373 0.07119
v 0.07119 -0.01054 0.07646
v 0.07382 0.00791 0.07646
v 0.07910 -0.00263 0.07119
v 0.06328 -0.01318 0.07383
v 0.07119 0.00528 0.04747
v 0.07646 0.00791 0.04747
v -0.01584 0.08174 0.06855
v -0.05272 0.07119 0.01055
v -0.05272 0.06856 0.02901
v 0.01846 0.07119 0.01055
v 0.01582 0.06856 0.07119
v 0.01846 0.08174 0.01320
v -0.05800 0.06592 0.06855
v -0.05009 0.08174 0.02638
v 0.01317 0.08437 0.06327
v -0.06064 0.07646 0.06591
v -0.04746 0.07910 0.01055
v -0.01847 0.08437 0.06327
v 0.01846 0.07646 0.07119
v -0.06064 0.07383 0.02901
v -0.06064 0.06592 0.05800
v -0.00264 0.08437 0.04482
v -0.05009 0.08174 0.05536
v -0.01056 0.07910 0.07119
v -0.04746 0.06592 0.06064
v -0.05800 0.07910 0.02901
v -0.06328 0.07383 0.06591
v 0.01846 0.08174 0.06591
v 0.01846 0.07910 0.01055
v -0.04218 0.08174 0.02110
v -0.06064 0.07383 0.06855
v -0.06064 0.06856 0.03692
v 0.01846 0.07119 0.07119
v 0.01582 0.06856 0.06591
v 0.01582 0.08437 0.05536
v 0.00526 0.08437 0.06591
v -0.05272 0.07646 0.01055
v -0.06328 0.06856 0.06591
v -0.00792 0.06856 0.07119
v 0.01582 0.07910 0.07119
v -0.06328 0.07383 0.05273
v -0.05800 0.07910 0.05800
v -0.04482 0.08174 0.06064
v 0.01054 0.08437 0.04482
v -0.04218 0.06856 0.02901
v 0.07382 0.00791 0.04745
v 0.06328 -0.01318 -0.01845
v 0.06855 -0.01318 -0.01845
v 0.06592 0.01055 -0.01845
v 0.07382 0.00791 -0.01054
v 0.07646 -0.00527 0.04218
v 0.06592 0.00000 0.03427
v 0.06592 0.01055 0.02900
v 0.07382 0.01318 0.01845
v 0.07382 -0.00527 -0.01054
v 0.06328 0.00527 0.00792
v 0.07646 0.00791 0.01845
v 0.07119 -0.00527 0.04218
v 0.07119 0.01055 -0.01845
v 0.06328 0.00791 -0.01845
v 0.07646 0.00791 0.04745
v 0.06855 0.01318 0.02373
v 0.06328 -0.00527 0.00792
v 0.07119 -0.00263 0.04745
v 0.07119 -0.01054 -0.01845
v 0.07646 -0.00263 0.01582
v 0.06592 0.00791 0.03427
v 0.06592 -0.00527 0.02373
v 0.06328 -0.01318 -0.01581
v 0.07382 0.00264 -0.01317
v -0.07646 -0.01581 0.06329
v -0.03692 0.01319 0.07383
v -0.02637 0.00791 0.07910
v -0.04483 -0.00264 0.05010
v -0.04219 -0.03163 0.07119
v -0.07383 0.01054 0.07383
v -0.06855 -0.01581 0.07646
v -0.07646 0.01054 0.06329
v -0.02637 -0.00791 0.06329
v -0.02637 0.01054 0.06855
v -0.02637 -0.00791 0.07910
v -0.04219 -0.03163 0.06592
v -0.07383 -0.01054 0.05801
v -0.07383 -0.02109 0.07119
v -0.05273 0.00263 0.07910
v -0.07910 -0.01054 0.07119
v -0.05536 0.01319 0.06592
v -0.04746 -0.00000 0.05010
v -0.05011 -0.03163 0.06592
v -0.05011 -0.02900 0.07383
v -0.07383 0.00527 0.05801
v -0.05011 -0.01054 0.07910
v -0.07910 0.00263 0.06329
v -0.06328 0.01319 0.07383
v -0.07118 0.00263 0.07646
v -0.02637 0.00263 0.06329
v -0.07118 -0.02372 0.06592
v -0.06855 -0.02372 0.07383
v -0.02637 -0.01054 0.06592
v -0.07910 0.00263 0.07119
v -0.07383 0.01319 0.06592
v -0.03692 0.01319 0.06855
v -0.05801 0.01054 0.07646
v -0.04483 -0.00000 0.05010
v -0.07118 -0.01318 0.07646
v -0.05011 -0.03163 0.07119
v -0.07910 -0.01054 0.06329
v -0.02901 -0.01054 0.07910
v -0.02637 -0.01054 0.07646
v -0.03956 -0.02900 0.06592
v -0.07383 -0.01581 0.06065
v -0.04746 -0.00264 0.05010
v -0.01581 -0.00263 0.08174
v 0.01319 0.01846 0.07383
v 0.01319 0.01846 0.07120
v 0.05537 -0.01054 0.06856
v -0.02637 -0.00790 0.06328
v 0.00264 -0.02109 0.07646
v 0.04745 0.00527 0.07910
v 0.05537 0.01581 0.06856
v -0.02637 0.01054 0.06856
v 0.00528 0.00791 0.06328
v 0.05537 -0.01054 0.07646
v -0.02637 0.00791 0.07910
v -0.02637 -0.01054 0.07646
v 0.05537 0.01581 0.07646
v 0.00792 -0.02109 0.07120
v 0.02372 -0.00000 0.06328
v 0.00000 0.00791 0.08174
v 0.00792 -0.00790 0.08174
v 0.00000 0.01846 0.07646
v 0.00792 -0.00790 0.06328
v 0.05273 -0.00263 0.06592
v -0.00526 0.01318 0.06592
v -0.02637 0.00263 0.06328
v 0.04218 0.01318 0.06592
v 0.04482 -0.00790 0.07910
v -0.02637 -0.01054 0.06592
v -0.02373 0.01318 0.07120
v -0.02637 -0.00790 0.07910
v -0.00791 -0.00790 0.08174
v 0.00000 0.01846 0.07120
v 0.00792 -0.02109 0.07646
v 0.04482 -0.00790 0.06592
v 0.02635 0.01318 0.07910
v -0.00791 0.00791 0.08174
v 0.05273 0.00527 0.06592
v 0.00792 -0.01581 0.07910
v -0.02108 0.01318 0.07646
v 0.00264 -0.02109 0.07120
v -0.05273 0.07910 -0.05535
v -0.06592 0.06065 -0.03954
v -0.06592 0.06328 -0.04745
v -0.06064 0.07383 0.00527
v -0.05273 0.06856 0.00790
v -0.05273 0.06856 -0.06063
v -0.06592 0.07383 -0.05272
v -0.06592 0.06328 -0.01319
v -0.06064 0.06065 -0.01847
v -0.05273 0.07383 0.01055
v -0.06064 0.07383 -0.06591
v -0.06592 0.07383 -0.02900
v -0.06328 0.07646 -0.04218
v -0.06064 0.06592 0.00263
v -0.05273 0.07646 -0.06591
v -0.06328 0.07646 -0.05800
v -0.06064 0.06065 -0.03690
v -0.06592 0.07119 -0.01319
v -0.06064 0.07119 -0.06591
v -0.05537 0.07910 -0.05535
v -0.06592 0.06065 -0.01847
v -0.06328 0.06592 -0.00001
v -0.07117 -0.00527 -0.07646
v -0.02108 0.03428 -0.07119
v -0.04217 0.02900 -0.06855
v 0.01845 -0.01054 -0.06592
v 0.04746 -0.00790 -0.07910
v -0.07117 -0.01318 -0.06592
v -0.04745 0.03428 -0.07646
v -0.06063 -0.01318 -0.07910
v 0.04746 0.00791 -0.07910
v -0.01056 0.01054 -0.08173
v -0.07382 0.01318 -0.06592
v 0.01845 0.00264 -0.06592
v -0.05009 -0.01846 -0.07383
v 0.04746 0.00791 -0.07383
v -0.06326 0.00791 -0.07910
v 0.00526 -0.00790 -0.08173
v 0.00789 -0.01581 -0.07646
v -0.07117 0.01845 -0.07383
v -0.05272 0.03428 -0.07119
v -0.00792 0.02373 -0.07910
v 0.04746 -0.00790 -0.07383
v 0.00789 -0.01318 -0.06592
v -0.06063 -0.01846 -0.07646
v -0.06590 -0.01846 -0.07119
v -0.02108 0.03428 -0.07383
v 0.00789 -0.01581 -0.07119
v -0.01845 -0.00527 -0.08173
v -0.07382 -0.01054 -0.07119
v 0.00526 0.00791 -0.06592
v 0.01316 -0.01318 -0.07910
v -0.00001 0.01054 -0.08173
v -0.07117 0.01581 -0.06592
v -0.07382 0.00791 -0.07383
v -0.06853 0.01581 -0.07646
v -0.05799 0.01318 -0.07910
v -0.06590 -0.00527 -0.07910
v -0.06853 -0.01318 -0.07646
v 0.00789 0.00528 -0.08173
v 0.05273 -0.00527 -0.07119
v 0.06591 0.01319 -0.07119
v 0.06591 0.01319 -0.07383
v 0.07119 -0.01054 -0.07119
v 0.04746 -0.00790 -0.07910
v 0.06591 -0.00263 -0.07910
v 0.04746 0.00791 -0.07910
v 0.04746 0.00791 -0.07383
v 0.06855 0.00791 -0.07646
v 0.04746 -0.00790 -0.07383
v 0.07119 -0.01054 -0.07383
v 0.07119 0.00791 -0.07119
v 0.06328 0.00791 -0.07910
v 0.06064 -0.01054 -0.07119
v 0.06064 -0.00790 -0.07910
v 0.05273 0.00527 -0.07119
v 0.05801 -0.00791 -0.05536
v 0.07119 0.01054 -0.01845
v 0.07382 0.00790 -0.05536
v 0.06855 -0.03428 -0.02373
v 0.07382 -0.01054 -0.06855
v 0.06328 0.01582 -0.06591
v 0.06064 0.00263 -0.02373
v 0.06328 -0.03428 -0.04745
v 0.05801 -0.00527 -0.07119
v 0.06328 -0.03428 -0.02110
v 0.06328 0.02110 -0.03691
v 0.07119 0.01054 -0.07119
v 0.05801 0.00790 -0.07119
v 0.06855 0.02110 -0.05273
v 0.07119 -0.01054 -0.01845
v 0.06328 0.00790 -0.01845
v 0.05801 0.00527 -0.04219
v 0.06592 -0.01318 -0.07119
v 0.06855 -0.03428 -0.04745
v 0.07382 -0.01054 -0.05536
v 0.06855 0.02110 -0.03691
v 0.05801 -0.00527 -0.04219
v 0.06328 0.02110 -0.05273
v 0.07382 0.00263 -0.07119
v 0.06328 -0.01318 -0.01845
v 0.07119 0.01582 -0.03428
v 0.06064 0.01582 -0.04219
v 0.07382 0.00263 -0.05009
v 0.07119 0.01582 -0.06064
v 0.06064 -0.00791 -0.02373
v 0.06855 0.01318 -0.07119
v 0.06592 0.01318 -0.02110
v 0.06855 -0.01318 -0.07119
v 0.01053 0.07646 -0.02109
v -0.05273 0.07119 -0.06591
v -0.05273 0.07646 -0.06591
v -0.05273 0.06856 -0.02901
v -0.00791 0.06856 -0.06064
v 0.01846 0.07910 -0.04219
v -0.05273 0.07910 -0.05009
v 0.01846 0.07119 -0.02109
v -0.01319 0.07910 -0.06327
v 0.01318 0.07910 -0.02109
v -0.05273 0.07383 -0.02901
v -0.00791 0.07119 -0.06591
v 0.01846 0.07119 -0.04219
v -0.05273 0.06856 -0.06064
v -0.00265 0.06856 -0.04219
v -0.00791 0.07646 -0.06591
v -0.04746 0.07910 -0.06327
v 0.01846 0.07646 -0.04481
v 0.01846 0.07910 -0.02109
v -0.01055 0.06856 -0.06327
v -0.06592 0.01318 -0.05009
v -0.07119 -0.01318 -0.06591
v -0.07383 -0.01054 -0.06591
v -0.07383 -0.01054 -0.03164
v -0.06064 -0.01054 -0.06328
v -0.07383 0.01318 -0.06591
v -0.06592 0.00791 -0.03164
v -0.06064 0.00791 -0.06591
v -0.07383 0.00791 -0.03164
v -0.06592 -0.01054 -0.03164
v -0.07383 0.01582 -0.05009
v -0.06592 0.01582 -0.06591
v -0.06855 -0.01318 -0.03428
v -0.06328 -0.01318 -0.06591
v -0.06328 0.00000 -0.04219
v -0.06855 0.01582 -0.04746
v -0.06064 0.00791 -0.06328
v -0.01318 -0.00527 -0.06591
v 0.01845 -0.00000 -0.05009
v 0.01318 0.00264 -0.05009
v -0.00791 -0.00264 -0.03164
v 0.01582 -0.01054 -0.06591
v -0.01054 0.00527 -0.06591
v 0.01582 0.00264 -0.06591
v -0.01582 0.00264 -0.04483
v -0.00263 -0.01054 -0.05800
v 0.01318 -0.00791 -0.05009
v -0.00263 0.00527 -0.04746
v 0.00000 -0.00000 -0.03164
v -0.01318 -0.00527 -0.04483
v 0.01054 0.00527 -0.06591
v -0.00527 -0.01054 -0.06591
v 0.01845 -0.00527 -0.05009
v 0.00000 -0.00527 -0.03691
v 0.01845 -0.00791 -0.06591
v -0.01054 0.00527 -0.04746
v 0.00527 -0.01054 -0.05536
v -0.00791 -0.00527 -0.03691
v -0.01582 -0.00264 -0.05536
v -0.00791 -0.00000 -0.03164
v 0.00000 -0.00264 -0.03164
v -0.01582 0.00264 -0.05536
v -0.00263 0.00264 -0.03691
v -0.06328 0.00000 0.00791
v -0.07383 -0.01054 -0.03164
v -0.06592 -0.01054 -0.03164
v -0.06855 0.00791 -0.03164
v -0.07119 -0.00527 0.00263
v -0.07383 0.00527 -0.02372
v -0.06328 -0.00791 0.00527
v -0.06855 0.00264 0.00527
v -0.06592 0.00527 -0.03164
v -0.06328 0.00264 -0.00264
v -0.06855 -0.00791 0.00527
v -0.07383 0.00527 -0.03164
v -0.07383 -0.00791 -0.01845
v -0.07119 0.00000 0.00263
v -0.06064 -0.00791 0.00264
v -0.03164 0.00264 0.00527
v -0.03164 -0.00000 0.00791
v -0.03164 -0.00791 0.00000
v -0.06328 0.00264 0.00000
v -0.05537 -0.00527 0.00791
v -0.06328 0.00264 0.00527
v -0.03164 0.00264 0.00000
v -0.03164 -0.00791 0.00527
v -0.06328 -0.00527 0.00000
v -0.06064 -0.00791 0.00527
v -0.00791 -0.00527 0.01319
v -0.00527 -0.00264 -0.03163
v -0.00527 -0.00000 -0.03163
v 0.03427 -0.00264 0.01054
v -0.03163 0.00264 0.00527
v -0.01054 -0.01054 -0.00000
v 0.00790 0.00527 0.00791
v -0.03163 -0.00791 -0.00000
v 0.00263 -0.00791 -0.02109
v -0.02373 0.00264 -0.01581
v 0.00527 -0.01054 0.00791
v 0.03427 -0.00000 0.00527
v 0.00263 -0.00000 -0.03163
v -0.00527 0.00264 0.01319
v -0.02636 -0.00527 -0.01581
v -0.02900 -0.00791 0.00791
v -0.01318 -0.00791 -0.02109
v -0.00263 0.00264 -0.02372
v 0.02899 0.00264 0.00527
v 0.02108 0.00264 0.01319
v 0.03427 -0.00264 0.00527
v 0.01054 -0.00791 0.01319
v 0.00263 -0.00527 -0.02900
v -0.00527 0.00527 0.00263
v 0.00527 -0.01054 -0.00000
v -0.03163 -0.00000 0.00791
v -0.01582 0.00264 -0.02372
v -0.03163 0.00264 -0.00000
v 0.02636 -0.00527 0.00263
v -0.00527 -0.00791 0.01319
v -0.00527 -0.00791 -0.02372
v 0.00527 0.00527 0.00263
v -0.00527 -0.01054 0.00791
v -0.00263 0.00527 0.00791
v 0.01846 -0.00264 0.02900
v -0.00527 -0.00527 0.01319
v -0.01318 -0.00527 0.02900
v -0.00263 0.00264 0.01319
v -0.00263 0.00264 0.03164
v 0.01582 0.00264 0.01319
v 0.00790 -0.00791 0.01319
v 0.00527 -0.00527 0.03427
v 0.01846 0.00264 0.02900
v -0.01318 -0.00000 0.03164
v 0.00264 -0.00000 0.03691
v 0.01846 -0.00264 0.01319
v 0.00527 -0.00791 0.02900
v -0.00263 -0.00791 0.01319
v -0.00791 -0.00527 0.03427
v 0.02109 -0.00264 0.02637
v 0.02109 0.00264 0.02110
v -0.00527 -0.00000 0.01319
v -0.01583 0.07910 0.01055
v -0.05273 0.07119 -0.01054
v -0.05273 0.07383 -0.01054
v -0.05273 0.07119 0.01055
v -0.01583 0.07119 0.00000
v -0.04482 0.07910 0.01055
v -0.03691 0.06856 0.00791
v -0.02110 0.07646 -0.00263
v -0.01583 0.07119 0.01055
v -0.05273 0.06856 -0.00790
v -0.03428 0.07910 0.00264
v -0.05273 0.07646 0.01055
v -0.05273 0.06856 0.00791
v -0.03955 0.06856 -0.00527
v -0.01583 0.07910 0.00527
v 0.01845 0.07910 0.01055
v 0.01054 0.07383 -0.02109
v 0.01054 0.07646 -0.02109
v -0.01582 0.07119 0.01055
v -0.01582 0.07910 0.00527
v 0.01845 0.07119 0.01055
v 0.01845 0.07119 -0.02109
v 0.01845 0.07910 -0.02109
v -0.01582 0.07119 -0.00000
v -0.01582 0.07910 0.01055
v -0.01318 0.07646 -0.00264
f 14 32 51 
f 4 6 8 
f 8 6 9 
f 5 8 9 
f 5 9 12 
f 6 4 17 
f 15 7 19 
f 12 9 20 
f 10 16 22 
f 6 17 22 
f 7 15 23 
f 22 7 23 
f 10 22 23 
f 4 13 24 
f 17 4 24 
f 13 17 24 
f 16 10 25 
f 1 20 25 
f 3 2 26 
f 2 21 26 
f 21 11 26 
f 14 23 26 
f 4 8 27 
f 17 13 28 
f 13 19 28 
f 19 7 28 
f 7 22 28 
f 22 17 28 
f 5 12 30 
f 12 18 30 
f 22 16 31 
f 16 25 31 
f 27 8 33 
f 21 27 33 
f 26 11 34 
f 14 26 34 
f 12 32 35 
f 32 14 35 
f 14 34 35 
f 9 6 36 
f 20 9 36 
f 25 20 36 
f 6 31 36 
f 31 25 36 
f 8 5 37 
f 33 8 37 
f 21 33 37 
f 2 3 38 
f 21 2 38 
f 27 21 38 
f 5 30 39 
f 30 18 39 
f 20 1 40 
f 12 20 40 
f 1 32 40 
f 32 12 40 
f 3 19 41 
f 4 27 41 
f 38 3 41 
f 27 38 41 
f 13 4 42 
f 19 13 42 
f 41 19 42 
f 4 41 42 
f 10 23 43 
f 23 14 43 
f 14 29 43 
f 29 10 43 
f 19 3 44 
f 15 19 44 
f 3 26 44 
f 18 12 45 
f 12 35 45 
f 35 18 45 
f 23 15 46 
f 26 23 46 
f 15 44 46 
f 44 26 46 
f 1 25 47 
f 25 10 47 
f 29 1 47 
f 10 29 47 
f 34 11 48 
f 18 35 48 
f 35 34 48 
f 39 18 48 
f 39 48 49 
f 11 21 49 
f 37 5 49 
f 21 37 49 
f 5 39 49 
f 48 11 49 
f 6 22 50 
f 31 6 50 
f 22 31 50 
f 1 29 51 
f 29 14 51 
f 32 1 51 
