# Original object name hint: convex_0
v 0.02771 -0.06120 0.01270
v -0.03234 -0.05889 -0.04273
v -0.03234 -0.05658 -0.04273
v -0.04850 -0.05658 0.00807
v -0.00463 -0.04504 -0.00809
v 0.03233 -0.05889 -0.03811
v -0.05543 -0.04966 -0.03580
v -0.03002 -0.06351 -0.03580
v -0.02540 -0.04504 0.01038
v -0.03695 -0.06351 0.00577
v 0.03464 -0.06351 -0.03580
v 0.00461 -0.05197 -0.04041
v 0.03464 -0.05889 0.00346
v -0.04850 -0.05889 -0.03811
v 0.02540 -0.06351 0.01270
v 0.03233 -0.05658 -0.03580
v -0.00693 -0.04504 -0.01732
v -0.04619 -0.04966 0.00577
v 0.02077 -0.06120 -0.04273
v -0.01155 -0.04504 0.00807
v -0.03464 -0.06120 0.01038
v -0.04850 -0.05889 0.00577
v -0.02308 -0.06351 -0.04041
v -0.02308 -0.04504 -0.01502
v 0.03695 -0.06351 -0.02656
v -0.03002 -0.04504 0.00807
v 0.02771 -0.05889 0.01270
v 0.01154 -0.05428 -0.04273
v 0.01616 -0.05197 -0.03580
v 0.03695 -0.05889 -0.03349
v -0.05081 -0.04966 -0.00578
v 0.03233 -0.06351 0.00577
v -0.05543 -0.05197 -0.03349
v 0.03233 -0.05658 -0.02425
v -0.01616 -0.05428 -0.04273
v -0.04850 -0.05197 0.00807
v -0.03695 -0.05428 0.01038
v 0.02540 -0.06351 -0.04041
v 0.02771 -0.05658 -0.04041
v -0.03002 -0.06120 -0.04273
v -0.05312 -0.05197 -0.03811
v -0.03464 -0.06351 0.00807
v 0.02077 -0.05889 0.01270
v -0.04387 -0.04966 -0.03580
v -0.04387 -0.06120 0.00577
v -0.03695 -0.06351 -0.00116
v 0.02540 -0.05428 -0.03580
v 0.01386 -0.05197 -0.03811
v -0.01846 -0.04504 0.01038
v -0.00463 -0.04504 -0.01502
v 0.03233 -0.05889 0.00807
v -0.05081 -0.05658 -0.00347
v 0.03464 -0.06120 0.00346
v 0.03695 -0.05889 -0.02425
v -0.04387 -0.05889 -0.04041
v -0.03002 -0.04504 0.00346
v -0.02078 -0.04504 -0.01732
v 0.02077 -0.06351 0.01270
v -0.03695 -0.06120 -0.04041
v 0.06929 -0.00115 -0.04273
v 0.06929 0.03117 0.03349
v 0.06698 0.03117 0.03349
v 0.06929 -0.03578 0.00346
v 0.05543 0.03117 -0.03118
v 0.07391 0.05426 -0.01270
v 0.05543 -0.02654 -0.00348
v 0.05543 0.02655 0.03117
v 0.07391 -0.02424 0.01501
v 0.05774 -0.02886 -0.03349
v 0.06467 0.05657 -0.02886
v 0.06005 -0.01731 0.02424
v 0.07159 -0.02424 -0.02886
v 0.06698 0.05889 0.00115
v 0.07391 0.02885 -0.03580
v 0.07391 0.01040 0.03117
v 0.06467 0.01962 -0.04273
v 0.05543 0.00348 0.03117
v 0.07391 0.05195 0.00807
v 0.06698 -0.03348 -0.03349
v 0.06236 -0.03809 -0.00808
v 0.06929 0.05195 -0.03349
v 0.07391 -0.02654 -0.00348
v 0.07159 0.00809 0.03349
v 0.05774 -0.02886 0.00807
v 0.06236 -0.01731 -0.04042
v 0.05774 0.01962 -0.03810
v 0.06698 -0.01962 0.02424
v 0.06236 0.05195 -0.03118
v 0.07391 0.01040 -0.03580
v 0.07391 0.02885 0.03117
v 0.06467 0.05657 -0.00117
v 0.05543 0.03348 -0.01963
v 0.05543 0.01731 -0.03349
v 0.07159 0.05889 -0.01270
v 0.06236 -0.03348 0.00807
v 0.06005 -0.03578 -0.02655
v 0.07159 0.02424 -0.04042
v 0.06929 -0.03117 -0.03349
v 0.07159 -0.02424 0.01962
v 0.06698 -0.03809 -0.01270
v 0.05543 -0.02654 -0.01270
v 0.06005 0.01269 0.03349
v 0.07159 -0.03348 -0.00576
v 0.06236 0.04272 -0.03580
v 0.07391 0.03809 -0.03349
v 0.06929 -0.02193 -0.03810
v 0.07159 0.05889 0.00115
v 0.06467 0.03348 0.03117
v 0.07159 0.03578 0.02886
v 0.06236 -0.03117 -0.03580
v 0.05774 0.00578 -0.03810
v 0.06005 -0.03578 -0.00348
v 0.06236 -0.02886 0.01501
v 0.05774 -0.02424 0.01501
v 0.06929 0.05657 -0.02886
v 0.06929 0.01962 -0.04273
v 0.06467 -0.00115 -0.04273
v 0.06698 -0.03578 -0.02886
v 0.05774 0.03117 -0.03580
v 0.06236 -0.01962 0.02424
v 0.06005 0.00578 -0.04042
v 0.06698 0.05889 -0.01731
v 0.07159 0.00348 -0.04042
v -0.07160 -0.02656 -0.03118
v -0.05312 0.03117 0.01269
v -0.05312 0.03117 0.00577
v -0.07160 0.05427 -0.03348
v -0.07391 0.02193 0.00807
v -0.05774 -0.03348 -0.03348
v -0.05312 -0.02656 0.01038
v -0.06005 0.06120 -0.03348
v -0.06929 0.05427 0.00577
v -0.06929 -0.02424 0.01038
v -0.06929 -0.00345 -0.04503
v -0.05312 0.00579 -0.01732
v -0.06698 -0.03811 -0.01963
v -0.06467 0.03117 -0.04503
v -0.07391 0.01270 -0.02194
v -0.06929 0.02193 0.01269
v -0.06236 0.05427 0.00577
v -0.06005 -0.03811 -0.03580
v -0.06698 0.06351 -0.03348
v -0.05774 -0.00345 -0.03580
v -0.07160 -0.02424 -0.00116
v -0.07160 0.03579 -0.04041
v -0.06929 -0.01962 0.01269
v -0.05312 -0.01732 -0.01732
v -0.06929 -0.03579 -0.03348
v -0.06236 -0.01732 -0.04272
v -0.07391 0.00579 0.00807
v -0.05312 -0.02193 0.01269
v -0.07160 0.05427 -0.01502
v -0.07160 -0.00345 -0.04041
v -0.06929 -0.03118 -0.03811
v -0.06698 -0.02887 0.00807
v -0.06005 -0.03811 -0.01963
v -0.06929 0.05658 -0.03811
v -0.05312 0.01731 -0.01502
v -0.07391 0.02886 -0.01732
v -0.06236 0.06351 -0.02656
v -0.06929 0.03117 -0.04503
v -0.06236 0.02656 -0.04272
v -0.05774 -0.03118 -0.03580
v -0.06698 0.04965 0.00807
v -0.06005 0.06120 -0.02887
v -0.06929 -0.03348 -0.01040
v -0.06929 0.06120 -0.02425
v -0.07160 -0.02887 -0.01963
v -0.07391 0.00347 -0.01040
v -0.07160 0.04965 -0.00116
v -0.06236 0.06120 -0.03580
v -0.06236 -0.03579 -0.01040
v -0.06467 -0.03579 -0.03811
v -0.07391 0.02656 0.00577
v -0.06005 -0.00115 -0.04041
v -0.06467 -0.00345 -0.04503
v -0.07160 -0.01732 0.00807
v -0.06929 -0.01732 -0.04272
v -0.06698 0.06351 -0.02656
v -0.06698 -0.03811 -0.03348
v -0.06698 0.02656 0.01269
v -0.07391 0.02424 -0.02194
v -0.06929 0.06120 -0.03580
v -0.06698 -0.02656 0.01038
v -0.05312 -0.02656 0.00577
v -0.06929 0.04734 0.00807
v -0.06005 -0.02887 0.00807
v 0.03695 0.01501 -0.01732
v 0.05543 0.02887 -0.01502
v 0.05081 0.02425 -0.01040
v 0.05543 0.01501 -0.01963
v 0.05081 0.01270 -0.01040
v 0.03695 0.02656 -0.01732
v 0.05312 0.02887 -0.02194
v 0.03695 0.01963 -0.01040
v 0.03695 0.02656 -0.01271
v 0.03695 0.01270 -0.01271
v 0.05543 0.01501 -0.01271
v 0.05543 0.01963 -0.02194
v 0.03695 0.01270 -0.01502
v 0.04850 0.02887 -0.01502
v 0.05081 0.01270 -0.01502
v 0.03695 0.01501 -0.01040
v 0.05543 0.02887 -0.02194
v 0.05312 0.01963 -0.02194
v 0.05543 -0.00577 0.00577
v 0.04157 0.02887 0.03348
v 0.04388 0.03118 0.03117
v 0.03695 0.02887 0.00577
v 0.03695 -0.00808 0.01732
v 0.05543 0.03118 0.01039
v 0.05543 0.00578 0.03117
v 0.03695 0.00578 0.03348
v 0.05543 0.02656 0.03117
v 0.03695 0.00808 0.00577
v 0.03695 0.03118 0.03117
v 0.05543 -0.00808 0.01501
v 0.05543 0.02425 0.00577
v 0.03695 -0.00808 0.01271
v 0.03695 0.03118 0.00808
v 0.04619 0.01732 0.03348
v 0.05543 -0.00808 0.00808
v 0.05312 -0.00577 0.00577
v 0.03695 0.02887 0.03348
v 0.05543 0.03118 0.01501
v 0.03926 0.00578 0.03348
v 0.04388 0.02887 0.00577
v 0.03695 0.00116 0.00808
v 0.05312 0.02887 0.02886
v 0.05543 0.00346 0.02886
v 0.03926 -0.00808 0.01732
v 0.00692 0.05889 -0.00809
v -0.05312 -0.02425 -0.01270
v -0.04619 -0.03579 -0.01501
v 0.03463 -0.02425 -0.00578
v 0.00922 0.02424 -0.02425
v -0.01153 0.04964 0.00115
v -0.04619 0.04502 -0.01732
v -0.04619 -0.01963 -0.00347
v 0.00229 -0.03810 -0.01963
v 0.03695 0.02654 -0.01732
v -0.00922 -0.03810 -0.00347
v 0.00461 0.06120 -0.02194
v -0.04619 -0.01731 -0.01963
v 0.03463 0.01500 -0.00578
v -0.04619 0.04502 -0.01040
v -0.02539 0.04733 -0.02194
v 0.02540 -0.02194 -0.01732
v -0.01846 -0.04504 -0.00578
v -0.00232 -0.00114 -0.02425
v -0.00232 0.04964 0.00115
v 0.03695 -0.02655 -0.01040
v -0.02078 -0.04041 -0.01963
v -0.00464 -0.01269 -0.00116
v -0.05312 -0.00808 -0.00578
v -0.00695 0.06120 -0.01270
v -0.05312 0.02654 -0.01501
v -0.00232 -0.04504 -0.00809
v 0.00922 0.00347 -0.02425
v -0.00464 -0.04504 -0.01732
v -0.04388 -0.03810 -0.01040
v -0.04619 0.03811 -0.00809
v -0.02078 -0.04504 -0.01732
v 0.03695 0.02654 -0.01270
v -0.05312 -0.01963 -0.01732
v -0.04388 0.03116 -0.01963
v -0.00232 0.06120 -0.00809
v 0.00692 -0.00114 -0.00116
v 0.03695 0.01500 -0.01732
v 0.00692 0.06120 -0.01040
v -0.00464 0.01962 -0.02425
v 0.00461 0.05889 -0.00578
v -0.04388 0.04733 -0.01040
v -0.05312 -0.01963 -0.00578
v -0.00001 0.06120 -0.02194
v -0.01153 -0.01269 -0.00116
v -0.02078 -0.03810 -0.00347
v -0.05081 0.03348 -0.01040
v -0.05081 0.03348 -0.01732
v 0.03695 0.01731 -0.00809
v -0.00695 0.06120 -0.01732
v -0.00695 -0.04504 -0.00578
v 0.03695 -0.02655 -0.00809
v -0.00232 0.04271 0.00115
v 0.00692 0.06120 -0.01732
v -0.04388 -0.02887 -0.00578
v -0.04619 -0.01038 -0.00347
v -0.01153 0.04502 0.00115
v 0.01385 -0.02194 -0.00347
v 0.03463 0.02193 -0.00809
v -0.04388 -0.03118 -0.01732
v -0.05312 0.00347 -0.01732
v -0.02309 -0.04504 -0.00809
v -0.04388 -0.03810 -0.01501
v -0.00232 -0.04041 -0.01963
v 0.02540 0.02885 0.00346
v -0.05312 -0.02887 0.00578
v -0.05312 -0.02887 0.01039
v -0.04157 0.06120 0.00808
v 0.01616 0.00577 0.02425
v 0.03002 -0.02194 0.00578
v 0.03695 0.02885 0.01732
v -0.00001 0.05195 0.00115
v -0.01153 -0.04504 0.00346
v -0.05312 0.03116 0.01270
v 0.03463 -0.01499 0.01732
v -0.05081 0.03116 0.00346
v -0.02539 -0.04504 0.01039
v 0.00461 0.06120 0.00808
v 0.01154 0.01500 0.02425
v 0.03695 0.02885 0.00578
v -0.04619 -0.03810 0.00346
v -0.00695 -0.00345 0.02193
v -0.00464 0.00808 0.00115
v 0.01385 -0.01269 0.02193
v -0.05312 -0.02194 0.01270
v -0.02078 0.04733 0.00115
v 0.03695 -0.01731 0.01039
v 0.00461 0.06120 0.00346
v 0.01154 0.03116 0.01963
v -0.04157 0.06120 0.00578
v 0.03695 0.00347 0.01963
v 0.01616 -0.01731 0.00346
v -0.01153 -0.04504 0.00808
v -0.05312 -0.02655 0.00346
v -0.05312 0.03580 0.00578
v -0.04850 -0.04041 0.00808
v 0.03463 -0.01731 0.00578
v 0.00692 0.04502 0.00115
v -0.03002 -0.04504 0.00346
v -0.01846 -0.04504 0.01039
v 0.03695 0.03116 0.00808
v 0.03695 0.01962 0.01963
v 0.03463 -0.01963 0.01270
v -0.00695 0.01039 0.02193
v -0.00464 -0.00577 0.02193
v -0.04850 0.03580 0.01270
v -0.01153 0.01039 0.00115
v -0.04850 0.04041 0.00346
v -0.02539 0.05889 0.00346
v -0.05081 -0.02425 0.01270
v 0.03695 0.03116 0.01501
v 0.03695 0.00117 0.00578
v 0.03233 -0.01963 0.01501
v -0.05312 0.01270 0.00346
v 0.01847 0.03580 0.01732
v 0.00922 0.00577 0.02425
v 0.03695 -0.01269 0.01732
v 0.00692 0.03811 0.00115
v 0.02540 0.02193 0.00346
v -0.05081 -0.03810 0.00578
v -0.05081 0.04271 0.00808
v 0.01385 0.01500 0.02425
v 0.01154 -0.01269 0.02193
v 0.00692 0.03116 0.01963
v -0.04619 -0.03579 0.01039
v -0.03233 -0.04504 0.00808
v -0.02078 0.04041 0.00115
v 0.00461 0.04964 0.00115
v 0.00463 -0.00808 0.02656
v 0.02309 0.03579 0.03349
v 0.02309 0.03579 0.02887
v -0.02309 0.02425 0.04041
v 0.02771 0.01270 0.04503
v -0.02079 -0.01501 0.03810
v 0.03464 -0.01501 0.02887
v 0.03695 0.02886 0.02425
v -0.00231 0.02193 0.02656
v -0.02541 -0.00346 0.03349
v 0.03695 0.02655 0.03579
v 0.03233 -0.01501 0.03349
v -0.02079 0.01039 0.04272
v 0.00231 0.03579 0.02887
v -0.00923 0.02655 0.04272
v 0.00692 0.00347 0.02425
v -0.02309 0.01963 0.03349
v 0.02771 -0.01501 0.02656
v 0.01154 0.03117 0.02425
v -0.02079 -0.01501 0.03349
v 0.03695 0.00578 0.02425
v 0.00231 -0.01501 0.03810
v -0.02541 -0.00577 0.04041
v 0.01847 0.02425 0.04272
v 0.00231 0.03579 0.03579
v 0.03695 0.00808 0.03579
v 0.03695 0.03117 0.03349
v 0.01847 0.03579 0.03579
v 0.02540 0.01732 0.04503
v -0.02541 0.01501 0.03349
v 0.00463 0.00808 0.02425
v 0.01847 -0.01501 0.02656
v -0.02309 0.02425 0.03579
v 0.01847 0.03579 0.02656
v -0.02541 0.01501 0.04041
v 0.03002 0.02425 0.04041
v 0.00692 0.02655 0.04272
v -0.00692 0.02655 0.02887
v 0.02540 -0.01270 0.03579
v 0.03695 0.03117 0.02656
v 0.01847 0.00116 0.02425
v -0.02079 0.01501 0.04272
v 0.03695 0.00116 0.03349
v 0.02309 0.01270 0.04503
v -0.00231 0.00116 0.02656
v -0.02541 -0.00808 0.03579
v 0.01154 -0.01270 0.02656
v 0.00463 0.01501 0.02425
v 0.03233 -0.01270 0.02656
v -0.01847 0.00808 0.04272
v -0.01386 0.02886 0.03349
v -0.04157 -0.01964 -0.03118
v 0.00692 -0.00578 -0.02656
v 0.00692 -0.01502 -0.02656
v 0.01385 -0.03579 -0.03811
v -0.01847 -0.00578 -0.03580
v -0.00232 -0.03810 -0.02887
v -0.04388 -0.01271 -0.02656
v -0.00001 -0.04042 -0.03811
v 0.00461 -0.00578 -0.03580
v -0.04388 -0.00809 -0.03349
v 0.01154 -0.04042 -0.03118
v -0.03233 -0.00578 -0.02656
v 0.01385 -0.02656 -0.03811
v -0.04388 -0.01733 -0.02656
v 0.00230 -0.02425 -0.02656
v -0.00232 -0.04042 -0.03118
v 0.01385 -0.02656 -0.03118
v -0.04388 -0.01733 -0.03349
v -0.00001 -0.02656 -0.03811
v 0.00923 -0.03579 -0.02887
v 0.01154 -0.04042 -0.03811
v 0.00692 -0.00578 -0.03349
v -0.01847 -0.02425 -0.02656
v -0.00232 -0.04042 -0.03580
v 0.01385 -0.03579 -0.03118
v -0.04388 -0.00809 -0.02887
v -0.03233 -0.00578 -0.03118
v 0.00461 0.03810 -0.03118
v -0.03465 0.02194 -0.03118
v -0.02771 -0.00578 -0.03349
v 0.00461 -0.00346 -0.02425
v 0.00461 0.01501 -0.03811
v -0.03465 0.03810 -0.02657
v -0.01616 0.03810 -0.03580
v -0.03002 -0.00578 -0.02657
v 0.00924 -0.00578 -0.03118
v -0.00462 0.04734 -0.02887
v 0.00692 0.01501 -0.02425
v 0.00692 0.03348 -0.03580
v -0.03465 0.04272 -0.03118
v -0.01847 -0.00578 -0.03580
v 0.00461 -0.00578 -0.03580
v -0.01385 0.04734 -0.03349
v -0.00694 0.00115 -0.02425
v -0.01616 0.04966 -0.02887
v -0.00925 0.04041 -0.02657
v -0.00000 0.02656 -0.03811
v -0.00000 0.04041 -0.03580
v -0.01847 0.03117 -0.03580
v 0.00692 0.03117 -0.02887
v 0.00924 -0.00115 -0.02657
v -0.00462 0.01732 -0.02425
v 0.00692 -0.00578 -0.02657
v -0.03465 0.02425 -0.02657
v -0.03002 -0.00578 -0.03118
v 0.00692 0.00347 -0.03580
v -0.00462 0.04734 -0.03118
v 0.00461 0.03810 -0.03580
v -0.03465 0.04272 -0.02887
v 0.00461 0.02656 -0.03811
v -0.01616 0.04966 -0.03118
v -0.02771 0.02886 -0.03349
v 0.00461 0.02886 -0.02657
v -0.01616 0.04734 -0.03349
v -0.00000 0.01501 -0.03811
f 14 55 59 
f 10 8 11 
f 10 11 15 
f 9 5 17 
f 2 3 19 
f 5 9 20 
f 13 5 20 
f 21 4 22 
f 11 8 23 
f 9 17 24 
f 15 11 25 
f 9 24 26 
f 15 1 27 
f 19 3 28 
f 11 6 30 
f 6 16 30 
f 25 11 30 
f 26 7 31 
f 18 26 31 
f 1 15 32 
f 15 25 32 
f 31 7 33 
f 5 13 34 
f 30 16 34 
f 7 12 35 
f 28 3 35 
f 12 28 35 
f 26 18 36 
f 9 26 36 
f 18 31 36 
f 4 21 37 
f 36 4 37 
f 9 36 37 
f 6 11 38 
f 19 6 38 
f 11 23 38 
f 23 19 38 
f 16 6 39 
f 6 19 39 
f 19 28 39 
f 2 19 40 
f 19 23 40 
f 33 7 41 
f 14 33 41 
f 35 3 41 
f 7 35 41 
f 10 15 42 
f 21 22 42 
f 15 27 43 
f 27 9 43 
f 9 37 43 
f 12 7 44 
f 7 17 44 
f 17 12 44 
f 22 14 45 
f 10 42 45 
f 42 22 45 
f 8 10 46 
f 14 8 46 
f 10 45 46 
f 45 14 46 
f 5 34 47 
f 34 16 47 
f 16 39 47 
f 47 39 48 
f 12 17 48 
f 28 12 48 
f 39 28 48 
f 29 47 48 
f 20 9 49 
f 9 27 49 
f 27 20 49 
f 17 5 50 
f 5 47 50 
f 47 29 50 
f 48 17 50 
f 29 48 50 
f 13 20 51 
f 27 1 51 
f 20 27 51 
f 1 32 51 
f 22 4 52 
f 14 22 52 
f 33 14 52 
f 31 33 52 
f 4 36 52 
f 36 31 52 
f 32 25 53 
f 13 51 53 
f 51 32 53 
f 25 30 54 
f 34 13 54 
f 30 34 54 
f 13 53 54 
f 53 25 54 
f 3 2 55 
f 2 40 55 
f 41 3 55 
f 14 41 55 
f 24 7 56 
f 7 26 56 
f 26 24 56 
f 17 7 57 
f 7 24 57 
f 24 17 57 
f 37 21 58 
f 42 15 58 
f 21 42 58 
f 15 43 58 
f 43 37 58 
f 8 14 59 
f 23 8 59 
f 40 23 59 
f 55 40 59 
