# Original object name hint: convex_4
v 0.02771 -0.06120 0.01270
v -0.03234 -0.05889 -0.04273
v -0.03234 -0.05658 -0.04273
v -0.04850 -0.05658 0.00807
v -0.00463 -0.04504 -0.00809
v 0.03233 -0.05889 -0.03811
v -0.05543 -0.04966 -0.03580
v -0.03002 -0.06351 -0.03580
v -0.02540 -0.04504 0.01038
v -0.03695 -0.06351 0.00577
v 0.03464 -0.06351 -0.03580
v 0.00461 -0.05197 -0.04041
v 0.03464 -0.05889 0.00346
v -0.04850 -0.05889 -0.03811
v 0.02540 -0.06351 0.01270
v 0.03233 -0.05658 -0.03580
v -0.00693 -0.04504 -0.01732
v -0.04619 -0.04966 0.00577
v 0.02077 -0.06120 -0.04273
v -0.01155 -0.04504 0.00807
v -0.03464 -0.06120 0.01038
v -0.04850 -0.05889 0.00577
v -0.02308 -0.06351 -0.04041
v -0.02308 -0.04504 -0.01502
v 0.03695 -0.06351 -0.02656
v -0.03002 -0.04504 0.00807
v 0.02771 -0.05889 0.01270
v 0.01154 -0.05428 -0.04273
v 0.01616 -0.05197 -0.03580
v 0.03695 -0.05889 -0.03349
v -0.05081 -0.04966 -0.00578
v 0.03233 -0.06351 0.00577
v -0.05543 -0.05197 -0.03349
v 0.03233 -0.05658 -0.02425
v -0.01616 -0.05428 -0.04273
v -0.04850 -0.05197 0.00807
v -0.03695 -0.05428 0.01038
v 0.02540 -0.06351 -0.04041
v 0.02771 -0.05658 -0.04041
v -0.03002 -0.06120 -0.04273
v -0.05312 -0.05197 -0.03811
v -0.03464 -0.06351 0.00807
v 0.02077 -0.05889 0.01270
v -0.04387 -0.04966 -0.03580
v -0.04387 -0.06120 0.00577
v -0.03695 -0.06351 -0.00116
v 0.02540 -0.05428 -0.03580
v 0.01386 -0.05197 -0.03811
v -0.01846 -0.04504 0.01038
v -0.00463 -0.04504 -0.01502
v 0.03233 -0.05889 0.00807
v -0.05081 -0.05658 -0.00347
v 0.03464 -0.06120 0.00346
v 0.03695 -0.05889 -0.02425
v -0.04387 -0.05889 -0.04041
v -0.03002 -0.04504 0.00346
v -0.02078 -0.04504 -0.01732
v 0.02077 -0.06351 0.01270
v -0.03695 -0.06120 -0.04041
v 0.06929 -0.00115 -0.04273
v 0.06929 0.03117 0.03349
v 0.06698 0.03117 0.03349
v 0.06929 -0.03578 0.00346
v 0.05543 0.03117 -0.03118
v 0.07391 0.05426 -0.01270
v 0.05543 -0.02654 -0.00348
v 0.05543 0.02655 0.03117
v 0.07391 -0.02424 0.01501
v 0.05774 -0.02886 -0.03349
v 0.06467 0.05657 -0.02886
v 0.06005 -0.01731 0.02424
v 0.07159 -0.02424 -0.02886
v 0.06698 0.05889 0.00115
v 0.07391 0.02885 -0.03580
v 0.07391 0.01040 0.03117
v 0.06467 0.01962 -0.04273
v 0.05543 0.00348 0.03117
v 0.07391 0.05195 0.00807
v 0.06698 -0.03348 -0.03349
v 0.06236 -0.03809 -0.00808
v 0.06929 0.05195 -0.03349
v 0.07391 -0.02654 -0.00348
v 0.07159 0.00809 0.03349
v 0.05774 -0.02886 0.00807
v 0.06236 -0.01731 -0.04042
v 0.05774 0.01962 -0.03810
v 0.06698 -0.01962 0.02424
v 0.06236 0.05195 -0.03118
v 0.07391 0.01040 -0.03580
v 0.07391 0.02885 0.03117
v 0.06467 0.05657 -0.00117
v 0.05543 0.03348 -0.01963
v 0.05543 0.01731 -0.03349
v 0.07159 0.05889 -0.01270
v 0.06236 -0.03348 0.00807
v 0.06005 -0.03578 -0.02655
v 0.07159 0.02424 -0.04042
v 0.06929 -0.03117 -0.03349
v 0.07159 -0.02424 0.01962
v 0.06698 -0.03809 -0.01270
v 0.05543 -0.02654 -0.01270
v 0.06005 0.01269 0.03349
v 0.07159 -0.03348 -0.00576
v 0.06236 0.04272 -0.03580
v 0.07391 0.03809 -0.03349
v 0.06929 -0.02193 -0.03810
v 0.07159 0.05889 0.00115
v 0.06467 0.03348 0.03117
v 0.07159 0.03578 0.02886
v 0.06236 -0.03117 -0.03580
v 0.05774 0.00578 -0.03810
v 0.06005 -0.03578 -0.00348
v 0.06236 -0.02886 0.01501
v 0.05774 -0.02424 0.01501
v 0.06929 0.05657 -0.02886
v 0.06929 0.01962 -0.04273
v 0.06467 -0.00115 -0.04273
v 0.06698 -0.03578 -0.02886
v 0.05774 0.03117 -0.03580
v 0.06236 -0.01962 0.02424
v 0.06005 0.00578 -0.04042
v 0.06698 0.05889 -0.01731
v 0.07159 0.00348 -0.04042
v -0.07160 -0.02656 -0.03118
v -0.05312 0.03117 0.01269
v -0.05312 0.03117 0.00577
v -0.07160 0.05427 -0.03348
v -0.07391 0.02193 0.00807
v -0.05774 -0.03348 -0.03348
v -0.05312 -0.02656 0.01038
v -0.06005 0.06120 -0.03348
v -0.06929 0.05427 0.00577
v -0.06929 -0.02424 0.01038
v -0.06929 -0.00345 -0.04503
v -0.05312 0.00579 -0.01732
v -0.06698 -0.03811 -0.01963
v -0.06467 0.03117 -0.04503
v -0.07391 0.01270 -0.02194
v -0.06929 0.02193 0.01269
v -0.06236 0.05427 0.00577
v -0.06005 -0.03811 -0.03580
v -0.06698 0.06351 -0.03348
v -0.05774 -0.00345 -0.03580
v -0.07160 -0.02424 -0.00116
v -0.07160 0.03579 -0.04041
v -0.06929 -0.01962 0.01269
v -0.05312 -0.01732 -0.01732
v -0.06929 -0.03579 -0.03348
v -0.06236 -0.01732 -0.04272
v -0.07391 0.00579 0.00807
v -0.05312 -0.02193 0.01269
v -0.07160 0.05427 -0.01502
v -0.07160 -0.00345 -0.04041
v -0.06929 -0.03118 -0.03811
v -0.06698 -0.02887 0.00807
v -0.06005 -0.03811 -0.01963
v -0.06929 0.05658 -0.03811
v -0.05312 0.01731 -0.01502
v -0.07391 0.02886 -0.01732
v -0.06236 0.06351 -0.02656
v -0.06929 0.03117 -0.04503
v -0.06236 0.02656 -0.04272
v -0.05774 -0.03118 -0.03580
v -0.06698 0.04965 0.00807
v -0.06005 0.06120 -0.02887
v -0.06929 -0.03348 -0.01040
v -0.06929 0.06120 -0.02425
v -0.07160 -0.02887 -0.01963
v -0.07391 0.00347 -0.01040
v -0.07160 0.04965 -0.00116
v -0.06236 0.06120 -0.03580
v -0.06236 -0.03579 -0.01040
v -0.06467 -0.03579 -0.03811
v -0.07391 0.02656 0.00577
v -0.06005 -0.00115 -0.04041
v -0.06467 -0.00345 -0.04503
v -0.07160 -0.01732 0.00807
v -0.06929 -0.01732 -0.04272
v -0.06698 0.06351 -0.02656
v -0.06698 -0.03811 -0.03348
v -0.06698 0.02656 0.01269
v -0.07391 0.02424 -0.02194
v -0.06929 0.06120 -0.03580
v -0.06698 -0.02656 0.01038
v -0.05312 -0.02656 0.00577
v -0.06929 0.04734 0.00807
v -0.06005 -0.02887 0.00807
v 0.03695 0.01501 -0.01732
v 0.05543 0.02887 -0.01502
v 0.05081 0.02425 -0.01040
v 0.05543 0.01501 -0.01963
v 0.05081 0.01270 -0.01040
v 0.03695 0.02656 -0.01732
v 0.05312 0.02887 -0.02194
v 0.03695 0.01963 -0.01040
v 0.03695 0.02656 -0.01271
v 0.03695 0.01270 -0.01271
v 0.05543 0.01501 -0.01271
v 0.05543 0.01963 -0.02194
v 0.03695 0.01270 -0.01502
v 0.04850 0.02887 -0.01502
v 0.05081 0.01270 -0.01502
v 0.03695 0.01501 -0.01040
v 0.05543 0.02887 -0.02194
v 0.05312 0.01963 -0.02194
v 0.05543 -0.00577 0.00577
v 0.04157 0.02887 0.03348
v 0.04388 0.03118 0.03117
v 0.03695 0.02887 0.00577
v 0.03695 -0.00808 0.01732
v 0.05543 0.03118 0.01039
v 0.05543 0.00578 0.03117
v 0.03695 0.00578 0.03348
v 0.05543 0.02656 0.03117
v 0.03695 0.00808 0.00577
v 0.03695 0.03118 0.03117
v 0.05543 -0.00808 0.01501
v 0.05543 0.02425 0.00577
v 0.03695 -0.00808 0.01271
v 0.03695 0.03118 0.00808
v 0.04619 0.01732 0.03348
v 0.05543 -0.00808 0.00808
v 0.05312 -0.00577 0.00577
v 0.03695 0.02887 0.03348
v 0.05543 0.03118 0.01501
v 0.03926 0.00578 0.03348
v 0.04388 0.02887 0.00577
v 0.03695 0.00116 0.00808
v 0.05312 0.02887 0.02886
v 0.05543 0.00346 0.02886
v 0.03926 -0.00808 0.01732
v 0.00692 0.05889 -0.00809
v -0.05312 -0.02425 -0.01270
v -0.04619 -0.03579 -0.01501
v 0.03463 -0.02425 -0.00578
v 0.00922 0.02424 -0.02425
v -0.01153 0.04964 0.00115
v -0.04619 0.04502 -0.01732
v -0.04619 -0.01963 -0.00347
v 0.00229 -0.03810 -0.01963
v 0.03695 0.02654 -0.01732
v -0.00922 -0.03810 -0.00347
v 0.00461 0.06120 -0.02194
v -0.04619 -0.01731 -0.01963
v 0.03463 0.01500 -0.00578
v -0.04619 0.04502 -0.01040
v -0.02539 0.04733 -0.02194
v 0.02540 -0.02194 -0.01732
v -0.01846 -0.04504 -0.00578
v -0.00232 -0.00114 -0.02425
v -0.00232 0.04964 0.00115
v 0.03695 -0.02655 -0.01040
v -0.02078 -0.04041 -0.01963
v -0.00464 -0.01269 -0.00116
v -0.05312 -0.00808 -0.00578
v -0.00695 0.06120 -0.01270
v -0.05312 0.02654 -0.01501
v -0.00232 -0.04504 -0.00809
v 0.00922 0.00347 -0.02425
v -0.00464 -0.04504 -0.01732
v -0.04388 -0.03810 -0.01040
v -0.04619 0.03811 -0.00809
v -0.02078 -0.04504 -0.01732
v 0.03695 0.02654 -0.01270
v -0.05312 -0.01963 -0.01732
v -0.04388 0.03116 -0.01963
v -0.00232 0.06120 -0.00809
v 0.00692 -0.00114 -0.00116
v 0.03695 0.01500 -0.01732
v 0.00692 0.06120 -0.01040
v -0.00464 0.01962 -0.02425
v 0.00461 0.05889 -0.00578
v -0.04388 0.04733 -0.01040
v -0.05312 -0.01963 -0.00578
v -0.00001 0.06120 -0.02194
v -0.01153 -0.01269 -0.00116
v -0.02078 -0.03810 -0.00347
v -0.05081 0.03348 -0.01040
v -0.05081 0.03348 -0.01732
v 0.03695 0.01731 -0.00809
v -0.00695 0.06120 -0.01732
v -0.00695 -0.04504 -0.00578
v 0.03695 -0.02655 -0.00809
v -0.00232 0.04271 0.00115
v 0.00692 0.06120 -0.01732
v -0.04388 -0.02887 -0.00578
v -0.04619 -0.01038 -0.00347
v -0.01153 0.04502 0.00115
v 0.01385 -0.02194 -0.00347
v 0.03463 0.02193 -0.00809
v -0.04388 -0.03118 -0.01732
v -0.05312 0.00347 -0.01732
v -0.02309 -0.04504 -0.00809
v -0.04388 -0.03810 -0.01501
v -0.00232 -0.04041 -0.01963
v 0.02540 0.02885 0.00346
v -0.05312 -0.02887 0.00578
v -0.05312 -0.02887 0.01039
v -0.04157 0.06120 0.00808
v 0.01616 0.00577 0.02425
v 0.03002 -0.02194 0.00578
v 0.03695 0.02885 0.01732
v -0.00001 0.05195 0.00115
v -0.01153 -0.04504 0.00346
v -0.05312 0.03116 0.01270
v 0.03463 -0.01499 0.01732
v -0.05081 0.03116 0.00346
v -0.02539 -0.04504 0.01039
v 0.00461 0.06120 0.00808
v 0.01154 0.01500 0.02425
v 0.03695 0.02885 0.00578
v -0.04619 -0.03810 0.00346
v -0.00695 -0.00345 0.02193
v -0.00464 0.00808 0.00115
v 0.01385 -0.01269 0.02193
v -0.05312 -0.02194 0.01270
v -0.02078 0.04733 0.00115
v 0.03695 -0.01731 0.01039
v 0.00461 0.06120 0.00346
v 0.01154 0.03116 0.01963
v -0.04157 0.06120 0.00578
v 0.03695 0.00347 0.01963
v 0.01616 -0.01731 0.00346
v -0.01153 -0.04504 0.00808
v -0.05312 -0.02655 0.00346
v -0.05312 0.03580 0.00578
v -0.04850 -0.04041 0.00808
v 0.03463 -0.01731 0.00578
v 0.00692 0.04502 0.00115
v -0.03002 -0.04504 0.00346
v -0.01846 -0.04504 0.01039
v 0.03695 0.03116 0.00808
v 0.03695 0.01962 0.01963
v 0.03463 -0.01963 0.01270
v -0.00695 0.01039 0.02193
v -0.00464 -0.00577 0.02193
v -0.04850 0.03580 0.01270
v -0.01153 0.01039 0.00115
v -0.04850 0.04041 0.00346
v -0.02539 0.05889 0.00346
v -0.05081 -0.02425 0.01270
v 0.03695 0.03116 0.01501
v 0.03695 0.00117 0.00578
v 0.03233 -0.01963 0.01501
v -0.05312 0.01270 0.00346
v 0.01847 0.03580 0.01732
v 0.00922 0.00577 0.02425
v 0.03695 -0.01269 0.01732
v 0.00692 0.03811 0.00115
v 0.02540 0.02193 0.00346
v -0.05081 -0.03810 0.00578
v -0.05081 0.04271 0.00808
v 0.01385 0.01500 0.02425
v 0.01154 -0.01269 0.02193
v 0.00692 0.03116 0.01963
v -0.04619 -0.03579 0.01039
v -0.03233 -0.04504 0.00808
v -0.02078 0.04041 0.00115
v 0.00461 0.04964 0.00115
v 0.00463 -0.00808 0.02656
v 0.02309 0.03579 0.03349
v 0.02309 0.03579 0.02887
v -0.02309 0.02425 0.04041
v 0.02771 0.01270 0.04503
v -0.02079 -0.01501 0.03810
v 0.03464 -0.01501 0.02887
v 0.03695 0.02886 0.02425
v -0.00231 0.02193 0.02656
v -0.02541 -0.00346 0.03349
v 0.03695 0.02655 0.03579
v 0.03233 -0.01501 0.03349
v -0.02079 0.01039 0.04272
v 0.00231 0.03579 0.02887
v -0.00923 0.02655 0.04272
v 0.00692 0.00347 0.02425
v -0.02309 0.01963 0.03349
v 0.02771 -0.01501 0.02656
v 0.01154 0.03117 0.02425
v -0.02079 -0.01501 0.03349
v 0.03695 0.00578 0.02425
v 0.00231 -0.01501 0.03810
v -0.02541 -0.00577 0.04041
v 0.01847 0.02425 0.04272
v 0.00231 0.03579 0.03579
v 0.03695 0.00808 0.03579
v 0.03695 0.03117 0.03349
v 0.01847 0.03579 0.03579
v 0.02540 0.01732 0.04503
v -0.02541 0.01501 0.03349
v 0.00463 0.00808 0.02425
v 0.01847 -0.01501 0.02656
v -0.02309 0.02425 0.03579
v 0.01847 0.03579 0.02656
v -0.02541 0.01501 0.04041
v 0.03002 0.02425 0.04041
v 0.00692 0.02655 0.04272
v -0.00692 0.02655 0.02887
v 0.02540 -0.01270 0.03579
v 0.03695 0.03117 0.02656
v 0.01847 0.00116 0.02425
v -0.02079 0.01501 0.04272
v 0.03695 0.00116 0.03349
v 0.02309 0.01270 0.04503
v -0.00231 0.00116 0.02656
v -0.02541 -0.00808 0.03579
v 0.01154 -0.01270 0.02656
v 0.00463 0.01501 0.02425
v 0.03233 -0.01270 0.02656
v -0.01847 0.00808 0.04272
v -0.01386 0.02886 0.03349
v -0.04157 -0.01964 -0.03118
v 0.00692 -0.00578 -0.02656
v 0.00692 -0.01502 -0.02656
v 0.01385 -0.03579 -0.03811
v -0.01847 -0.00578 -0.03580
v -0.00232 -0.03810 -0.02887
v -0.04388 -0.01271 -0.02656
v -0.00001 -0.04042 -0.03811
v 0.00461 -0.00578 -0.03580
v -0.04388 -0.00809 -0.03349
v 0.01154 -0.04042 -0.03118
v -0.03233 -0.00578 -0.02656
v 0.01385 -0.02656 -0.03811
v -0.04388 -0.01733 -0.02656
v 0.00230 -0.02425 -0.02656
v -0.00232 -0.04042 -0.03118
v 0.01385 -0.02656 -0.03118
v -0.04388 -0.01733 -0.03349
v -0.00001 -0.02656 -0.03811
v 0.00923 -0.03579 -0.02887
v 0.01154 -0.04042 -0.03811
v 0.00692 -0.00578 -0.03349
v -0.01847 -0.02425 -0.02656
v -0.00232 -0.04042 -0.03580
v 0.01385 -0.03579 -0.03118
v -0.04388 -0.00809 -0.02887
v -0.03233 -0.00578 -0.03118
v 0.00461 0.03810 -0.03118
v -0.03465 0.02194 -0.03118
v -0.02771 -0.00578 -0.03349
v 0.00461 -0.00346 -0.02425
v 0.00461 0.01501 -0.03811
v -0.03465 0.03810 -0.02657
v -0.01616 0.03810 -0.03580
v -0.03002 -0.00578 -0.02657
v 0.00924 -0.00578 -0.03118
v -0.00462 0.04734 -0.02887
v 0.00692 0.01501 -0.02425
v 0.00692 0.03348 -0.03580
v -0.03465 0.04272 -0.03118
v -0.01847 -0.00578 -0.03580
v 0.00461 -0.00578 -0.03580
v -0.01385 0.04734 -0.03349
v -0.00694 0.00115 -0.02425
v -0.01616 0.04966 -0.02887
v -0.00925 0.04041 -0.02657
v -0.00000 0.02656 -0.03811
v -0.00000 0.04041 -0.03580
v -0.01847 0.03117 -0.03580
v 0.00692 0.03117 -0.02887
v 0.00924 -0.00115 -0.02657
v -0.00462 0.01732 -0.02425
v 0.00692 -0.00578 -0.02657
v -0.03465 0.02425 -0.02657
v -0.03002 -0.00578 -0.03118
v 0.00692 0.00347 -0.03580
v -0.00462 0.04734 -0.03118
v 0.00461 0.03810 -0.03580
v -0.03465 0.04272 -0.02887
v 0.00461 0.02656 -0.03811
v -0.01616 0.04966 -0.03118
v -0.02771 0.02886 -0.03349
v 0.00461 0.02886 -0.02657
v -0.01616 0.04734 -0.03349
v -0.00000 0.01501 -0.03811
f 217 230 231 
f 206 211 212 
f 209 210 213 
f 208 207 214 
f 212 211 214 
f 209 206 215 
f 210 209 215 
f 207 208 216 
f 208 211 216 
f 209 213 216 
f 206 212 217 
f 206 209 218 
f 211 206 218 
f 210 215 219 
f 217 210 219 
f 216 211 220 
f 209 216 220 
f 207 213 221 
f 214 207 221 
f 212 214 221 
f 206 217 222 
f 217 219 222 
f 222 219 223 
f 215 206 223 
f 206 222 223 
f 213 207 224 
f 207 216 224 
f 216 213 224 
f 211 208 225 
f 214 211 225 
f 213 210 226 
f 221 213 226 
f 212 221 226 
f 218 209 227 
f 211 218 227 
f 209 220 227 
f 220 211 227 
f 219 215 228 
f 223 219 228 
f 215 223 228 
f 208 214 229 
f 225 208 229 
f 214 225 229 
f 217 212 230 
f 212 226 230 
f 230 226 231 
f 210 217 231 
f 226 210 231 
