# Original object name hint: convex_6
v 0.02771 -0.06120 0.01270
v -0.03234 -0.05889 -0.04273
v -0.03234 -0.05658 -0.04273
v -0.04850 -0.05658 0.00807
v -0.00463 -0.04504 -0.00809
v 0.03233 -0.05889 -0.03811
v -0.05543 -0.04966 -0.03580
v -0.03002 -0.06351 -0.03580
v -0.02540 -0.04504 0.01038
v -0.03695 -0.06351 0.00577
v 0.03464 -0.06351 -0.03580
v 0.00461 -0.05197 -0.04041
v 0.03464 -0.05889 0.00346
v -0.04850 -0.05889 -0.03811
v 0.02540 -0.06351 0.01270
v 0.03233 -0.05658 -0.03580
v -0.00693 -0.04504 -0.01732
v -0.04619 -0.04966 0.00577
v 0.02077 -0.06120 -0.04273
v -0.01155 -0.04504 0.00807
v -0.03464 -0.06120 0.01038
v -0.04850 -0.05889 0.00577
v -0.02308 -0.06351 -0.04041
v -0.02308 -0.04504 -0.01502
v 0.03695 -0.06351 -0.02656
v -0.03002 -0.04504 0.00807
v 0.02771 -0.05889 0.01270
v 0.01154 -0.05428 -0.04273
v 0.01616 -0.05197 -0.03580
v 0.03695 -0.05889 -0.03349
v -0.05081 -0.04966 -0.00578
v 0.03233 -0.06351 0.00577
v -0.05543 -0.05197 -0.03349
v 0.03233 -0.05658 -0.02425
v -0.01616 -0.05428 -0.04273
v -0.04850 -0.05197 0.00807
v -0.03695 -0.05428 0.01038
v 0.02540 -0.06351 -0.04041
v 0.02771 -0.05658 -0.04041
v -0.03002 -0.06120 -0.04273
v -0.05312 -0.05197 -0.03811
v -0.03464 -0.06351 0.00807
v 0.02077 -0.05889 0.01270
v -0.04387 -0.04966 -0.03580
v -0.04387 -0.06120 0.00577
v -0.03695 -0.06351 -0.00116
v 0.02540 -0.05428 -0.03580
v 0.01386 -0.05197 -0.03811
v -0.01846 -0.04504 0.01038
v -0.00463 -0.04504 -0.01502
v 0.03233 -0.05889 0.00807
v -0.05081 -0.05658 -0.00347
v 0.03464 -0.06120 0.00346
v 0.03695 -0.05889 -0.02425
v -0.04387 -0.05889 -0.04041
v -0.03002 -0.04504 0.00346
v -0.02078 -0.04504 -0.01732
v 0.02077 -0.06351 0.01270
v -0.03695 -0.06120 -0.04041
v 0.06929 -0.00115 -0.04273
v 0.06929 0.03117 0.03349
v 0.06698 0.03117 0.03349
v 0.06929 -0.03578 0.00346
v 0.05543 0.03117 -0.03118
v 0.07391 0.05426 -0.01270
v 0.05543 -0.02654 -0.00348
v 0.05543 0.02655 0.03117
v 0.07391 -0.02424 0.01501
v 0.05774 -0.02886 -0.03349
v 0.06467 0.05657 -0.02886
v 0.06005 -0.01731 0.02424
v 0.07159 -0.02424 -0.02886
v 0.06698 0.05889 0.00115
v 0.07391 0.02885 -0.03580
v 0.07391 0.01040 0.03117
v 0.06467 0.01962 -0.04273
v 0.05543 0.00348 0.03117
v 0.07391 0.05195 0.00807
v 0.06698 -0.03348 -0.03349
v 0.06236 -0.03809 -0.00808
v 0.06929 0.05195 -0.03349
v 0.07391 -0.02654 -0.00348
v 0.07159 0.00809 0.03349
v 0.05774 -0.02886 0.00807
v 0.06236 -0.01731 -0.04042
v 0.05774 0.01962 -0.03810
v 0.06698 -0.01962 0.02424
v 0.06236 0.05195 -0.03118
v 0.07391 0.01040 -0.03580
v 0.07391 0.02885 0.03117
v 0.06467 0.05657 -0.00117
v 0.05543 0.03348 -0.01963
v 0.05543 0.01731 -0.03349
v 0.07159 0.05889 -0.01270
v 0.06236 -0.03348 0.00807
v 0.06005 -0.03578 -0.02655
v 0.07159 0.02424 -0.04042
v 0.06929 -0.03117 -0.03349
v 0.07159 -0.02424 0.01962
v 0.06698 -0.03809 -0.01270
v 0.05543 -0.02654 -0.01270
v 0.06005 0.01269 0.03349
v 0.07159 -0.03348 -0.00576
v 0.06236 0.04272 -0.03580
v 0.07391 0.03809 -0.03349
v 0.06929 -0.02193 -0.03810
v 0.07159 0.05889 0.00115
v 0.06467 0.03348 0.03117
v 0.07159 0.03578 0.02886
v 0.06236 -0.03117 -0.03580
v 0.05774 0.00578 -0.03810
v 0.06005 -0.03578 -0.00348
v 0.06236 -0.02886 0.01501
v 0.05774 -0.02424 0.01501
v 0.06929 0.05657 -0.02886
v 0.06929 0.01962 -0.04273
v 0.06467 -0.00115 -0.04273
v 0.06698 -0.03578 -0.02886
v 0.05774 0.03117 -0.03580
v 0.06236 -0.01962 0.02424
v 0.06005 0.00578 -0.04042
v 0.06698 0.05889 -0.01731
v 0.07159 0.00348 -0.04042
v -0.07160 -0.02656 -0.03118
v -0.05312 0.03117 0.01269
v -0.05312 0.03117 0.00577
v -0.07160 0.05427 -0.03348
v -0.07391 0.02193 0.00807
v -0.05774 -0.03348 -0.03348
v -0.05312 -0.02656 0.01038
v -0.06005 0.06120 -0.03348
v -0.06929 0.05427 0.00577
v -0.06929 -0.02424 0.01038
v -0.06929 -0.00345 -0.04503
v -0.05312 0.00579 -0.01732
v -0.06698 -0.03811 -0.01963
v -0.06467 0.03117 -0.04503
v -0.07391 0.01270 -0.02194
v -0.06929 0.02193 0.01269
v -0.06236 0.05427 0.00577
v -0.06005 -0.03811 -0.03580
v -0.06698 0.06351 -0.03348
v -0.05774 -0.00345 -0.03580
v -0.07160 -0.02424 -0.00116
v -0.07160 0.03579 -0.04041
v -0.06929 -0.01962 0.01269
v -0.05312 -0.01732 -0.01732
v -0.06929 -0.03579 -0.03348
v -0.06236 -0.01732 -0.04272
v -0.07391 0.00579 0.00807
v -0.05312 -0.02193 0.01269
v -0.07160 0.05427 -0.01502
v -0.07160 -0.00345 -0.04041
v -0.06929 -0.03118 -0.03811
v -0.06698 -0.02887 0.00807
v -0.06005 -0.03811 -0.01963
v -0.06929 0.05658 -0.03811
v -0.05312 0.01731 -0.01502
v -0.07391 0.02886 -0.01732
v -0.06236 0.06351 -0.02656
v -0.06929 0.03117 -0.04503
v -0.06236 0.02656 -0.04272
v -0.05774 -0.03118 -0.03580
v -0.06698 0.04965 0.00807
v -0.06005 0.06120 -0.02887
v -0.06929 -0.03348 -0.01040
v -0.06929 0.06120 -0.02425
v -0.07160 -0.02887 -0.01963
v -0.07391 0.00347 -0.01040
v -0.07160 0.04965 -0.00116
v -0.06236 0.06120 -0.03580
v -0.06236 -0.03579 -0.01040
v -0.06467 -0.03579 -0.03811
v -0.07391 0.02656 0.00577
v -0.06005 -0.00115 -0.04041
v -0.06467 -0.00345 -0.04503
v -0.07160 -0.01732 0.00807
v -0.06929 -0.01732 -0.04272
v -0.06698 0.06351 -0.02656
v -0.06698 -0.03811 -0.03348
v -0.06698 0.02656 0.01269
v -0.07391 0.02424 -0.02194
v -0.06929 0.06120 -0.03580
v -0.06698 -0.02656 0.01038
v -0.05312 -0.02656 0.00577
v -0.06929 0.04734 0.00807
v -0.06005 -0.02887 0.00807
v 0.03695 0.01501 -0.01732
v 0.05543 0.02887 -0.01502
v 0.05081 0.02425 -0.01040
v 0.05543 0.01501 -0.01963
v 0.05081 0.01270 -0.01040
v 0.03695 0.02656 -0.01732
v 0.05312 0.02887 -0.02194
v 0.03695 0.01963 -0.01040
v 0.03695 0.02656 -0.01271
v 0.03695 0.01270 -0.01271
v 0.05543 0.01501 -0.01271
v 0.05543 0.01963 -0.02194
v 0.03695 0.01270 -0.01502
v 0.04850 0.02887 -0.01502
v 0.05081 0.01270 -0.01502
v 0.03695 0.01501 -0.01040
v 0.05543 0.02887 -0.02194
v 0.05312 0.01963 -0.02194
v 0.05543 -0.00577 0.00577
v 0.04157 0.02887 0.03348
v 0.04388 0.03118 0.03117
v 0.03695 0.02887 0.00577
v 0.03695 -0.00808 0.01732
v 0.05543 0.03118 0.01039
v 0.05543 0.00578 0.03117
v 0.03695 0.00578 0.03348
v 0.05543 0.02656 0.03117
v 0.03695 0.00808 0.00577
v 0.03695 0.03118 0.03117
v 0.05543 -0.00808 0.01501
v 0.05543 0.02425 0.00577
v 0.03695 -0.00808 0.01271
v 0.03695 0.03118 0.00808
v 0.04619 0.01732 0.03348
v 0.05543 -0.00808 0.00808
v 0.05312 -0.00577 0.00577
v 0.03695 0.02887 0.03348
v 0.05543 0.03118 0.01501
v 0.03926 0.00578 0.03348
v 0.04388 0.02887 0.00577
v 0.03695 0.00116 0.00808
v 0.05312 0.02887 0.02886
v 0.05543 0.00346 0.02886
v 0.03926 -0.00808 0.01732
v 0.00692 0.05889 -0.00809
v -0.05312 -0.02425 -0.01270
v -0.04619 -0.03579 -0.01501
v 0.03463 -0.02425 -0.00578
v 0.00922 0.02424 -0.02425
v -0.01153 0.04964 0.00115
v -0.04619 0.04502 -0.01732
v -0.04619 -0.01963 -0.00347
v 0.00229 -0.03810 -0.01963
v 0.03695 0.02654 -0.01732
v -0.00922 -0.03810 -0.00347
v 0.00461 0.06120 -0.02194
v -0.04619 -0.01731 -0.01963
v 0.03463 0.01500 -0.00578
v -0.04619 0.04502 -0.01040
v -0.02539 0.04733 -0.02194
v 0.02540 -0.02194 -0.01732
v -0.01846 -0.04504 -0.00578
v -0.00232 -0.00114 -0.02425
v -0.00232 0.04964 0.00115
v 0.03695 -0.02655 -0.01040
v -0.02078 -0.04041 -0.01963
v -0.00464 -0.01269 -0.00116
v -0.05312 -0.00808 -0.00578
v -0.00695 0.06120 -0.01270
v -0.05312 0.02654 -0.01501
v -0.00232 -0.04504 -0.00809
v 0.00922 0.00347 -0.02425
v -0.00464 -0.04504 -0.01732
v -0.04388 -0.03810 -0.01040
v -0.04619 0.03811 -0.00809
v -0.02078 -0.04504 -0.01732
v 0.03695 0.02654 -0.01270
v -0.05312 -0.01963 -0.01732
v -0.04388 0.03116 -0.01963
v -0.00232 0.06120 -0.00809
v 0.00692 -0.00114 -0.00116
v 0.03695 0.01500 -0.01732
v 0.00692 0.06120 -0.01040
v -0.00464 0.01962 -0.02425
v 0.00461 0.05889 -0.00578
v -0.04388 0.04733 -0.01040
v -0.05312 -0.01963 -0.00578
v -0.00001 0.06120 -0.02194
v -0.01153 -0.01269 -0.00116
v -0.02078 -0.03810 -0.00347
v -0.05081 0.03348 -0.01040
v -0.05081 0.03348 -0.01732
v 0.03695 0.01731 -0.00809
v -0.00695 0.06120 -0.01732
v -0.00695 -0.04504 -0.00578
v 0.03695 -0.02655 -0.00809
v -0.00232 0.04271 0.00115
v 0.00692 0.06120 -0.01732
v -0.04388 -0.02887 -0.00578
v -0.04619 -0.01038 -0.00347
v -0.01153 0.04502 0.00115
v 0.01385 -0.02194 -0.00347
v 0.03463 0.02193 -0.00809
v -0.04388 -0.03118 -0.01732
v -0.05312 0.00347 -0.01732
v -0.02309 -0.04504 -0.00809
v -0.04388 -0.03810 -0.01501
v -0.00232 -0.04041 -0.01963
v 0.02540 0.02885 0.00346
v -0.05312 -0.02887 0.00578
v -0.05312 -0.02887 0.01039
v -0.04157 0.06120 0.00808
v 0.01616 0.00577 0.02425
v 0.03002 -0.02194 0.00578
v 0.03695 0.02885 0.01732
v -0.00001 0.05195 0.00115
v -0.01153 -0.04504 0.00346
v -0.05312 0.03116 0.01270
v 0.03463 -0.01499 0.01732
v -0.05081 0.03116 0.00346
v -0.02539 -0.04504 0.01039
v 0.00461 0.06120 0.00808
v 0.01154 0.01500 0.02425
v 0.03695 0.02885 0.00578
v -0.04619 -0.03810 0.00346
v -0.00695 -0.00345 0.02193
v -0.00464 0.00808 0.00115
v 0.01385 -0.01269 0.02193
v -0.05312 -0.02194 0.01270
v -0.02078 0.04733 0.00115
v 0.03695 -0.01731 0.01039
v 0.00461 0.06120 0.00346
v 0.01154 0.03116 0.01963
v -0.04157 0.06120 0.00578
v 0.03695 0.00347 0.01963
v 0.01616 -0.01731 0.00346
v -0.01153 -0.04504 0.00808
v -0.05312 -0.02655 0.00346
v -0.05312 0.03580 0.00578
v -0.04850 -0.04041 0.00808
v 0.03463 -0.01731 0.00578
v 0.00692 0.04502 0.00115
v -0.03002 -0.04504 0.00346
v -0.01846 -0.04504 0.01039
v 0.03695 0.03116 0.00808
v 0.03695 0.01962 0.01963
v 0.03463 -0.01963 0.01270
v -0.00695 0.01039 0.02193
v -0.00464 -0.00577 0.02193
v -0.04850 0.03580 0.01270
v -0.01153 0.01039 0.00115
v -0.04850 0.04041 0.00346
v -0.02539 0.05889 0.00346
v -0.05081 -0.02425 0.01270
v 0.03695 0.03116 0.01501
v 0.03695 0.00117 0.00578
v 0.03233 -0.01963 0.01501
v -0.05312 0.01270 0.00346
v 0.01847 0.03580 0.01732
v 0.00922 0.00577 0.02425
v 0.03695 -0.01269 0.01732
v 0.00692 0.03811 0.00115
v 0.02540 0.02193 0.00346
v -0.05081 -0.03810 0.00578
v -0.05081 0.04271 0.00808
v 0.01385 0.01500 0.02425
v 0.01154 -0.01269 0.02193
v 0.00692 0.03116 0.01963
v -0.04619 -0.03579 0.01039
v -0.03233 -0.04504 0.00808
v -0.02078 0.04041 0.00115
v 0.00461 0.04964 0.00115
v 0.00463 -0.00808 0.02656
v 0.02309 0.03579 0.03349
v 0.02309 0.03579 0.02887
v -0.02309 0.02425 0.04041
v 0.02771 0.01270 0.04503
v -0.02079 -0.01501 0.03810
v 0.03464 -0.01501 0.02887
v 0.03695 0.02886 0.02425
v -0.00231 0.02193 0.02656
v -0.02541 -0.00346 0.03349
v 0.03695 0.02655 0.03579
v 0.03233 -0.01501 0.03349
v -0.02079 0.01039 0.04272
v 0.00231 0.03579 0.02887
v -0.00923 0.02655 0.04272
v 0.00692 0.00347 0.02425
v -0.02309 0.01963 0.03349
v 0.02771 -0.01501 0.02656
v 0.01154 0.03117 0.02425
v -0.02079 -0.01501 0.03349
v 0.03695 0.00578 0.02425
v 0.00231 -0.01501 0.03810
v -0.02541 -0.00577 0.04041
v 0.01847 0.02425 0.04272
v 0.00231 0.03579 0.03579
v 0.03695 0.00808 0.03579
v 0.03695 0.03117 0.03349
v 0.01847 0.03579 0.03579
v 0.02540 0.01732 0.04503
v -0.02541 0.01501 0.03349
v 0.00463 0.00808 0.02425
v 0.01847 -0.01501 0.02656
v -0.02309 0.02425 0.03579
v 0.01847 0.03579 0.02656
v -0.02541 0.01501 0.04041
v 0.03002 0.02425 0.04041
v 0.00692 0.02655 0.04272
v -0.00692 0.02655 0.02887
v 0.02540 -0.01270 0.03579
v 0.03695 0.03117 0.02656
v 0.01847 0.00116 0.02425
v -0.02079 0.01501 0.04272
v 0.03695 0.00116 0.03349
v 0.02309 0.01270 0.04503
v -0.00231 0.00116 0.02656
v -0.02541 -0.00808 0.03579
v 0.01154 -0.01270 0.02656
v 0.00463 0.01501 0.02425
v 0.03233 -0.01270 0.02656
v -0.01847 0.00808 0.04272
v -0.01386 0.02886 0.03349
v -0.04157 -0.01964 -0.03118
v 0.00692 -0.00578 -0.02656
v 0.00692 -0.01502 -0.02656
v 0.01385 -0.03579 -0.03811
v -0.01847 -0.00578 -0.03580
v -0.00232 -0.03810 -0.02887
v -0.04388 -0.01271 -0.02656
v -0.00001 -0.04042 -0.03811
v 0.00461 -0.00578 -0.03580
v -0.04388 -0.00809 -0.03349
v 0.01154 -0.04042 -0.03118
v -0.03233 -0.00578 -0.02656
v 0.01385 -0.02656 -0.03811
v -0.04388 -0.01733 -0.02656
v 0.00230 -0.02425 -0.02656
v -0.00232 -0.04042 -0.03118
v 0.01385 -0.02656 -0.03118
v -0.04388 -0.01733 -0.03349
v -0.00001 -0.02656 -0.03811
v 0.00923 -0.03579 -0.02887
v 0.01154 -0.04042 -0.03811
v 0.00692 -0.00578 -0.03349
v -0.01847 -0.02425 -0.02656
v -0.00232 -0.04042 -0.03580
v 0.01385 -0.03579 -0.03118
v -0.04388 -0.00809 -0.02887
v -0.03233 -0.00578 -0.03118
v 0.00461 0.03810 -0.03118
v -0.03465 0.02194 -0.03118
v -0.02771 -0.00578 -0.03349
v 0.00461 -0.00346 -0.02425
v 0.00461 0.01501 -0.03811
v -0.03465 0.03810 -0.02657
v -0.01616 0.03810 -0.03580
v -0.03002 -0.00578 -0.02657
v 0.00924 -0.00578 -0.03118
v -0.00462 0.04734 -0.02887
v 0.00692 0.01501 -0.02425
v 0.00692 0.03348 -0.03580
v -0.03465 0.04272 -0.03118
v -0.01847 -0.00578 -0.03580
v 0.00461 -0.00578 -0.03580
v -0.01385 0.04734 -0.03349
v -0.00694 0.00115 -0.02425
v -0.01616 0.04966 -0.02887
v -0.00925 0.04041 -0.02657
v -0.00000 0.02656 -0.03811
v -0.00000 0.04041 -0.03580
v -0.01847 0.03117 -0.03580
v 0.00692 0.03117 -0.02887
v 0.00924 -0.00115 -0.02657
v -0.00462 0.01732 -0.02425
v 0.00692 -0.00578 -0.02657
v -0.03465 0.02425 -0.02657
v -0.03002 -0.00578 -0.03118
v 0.00692 0.00347 -0.03580
v -0.00462 0.04734 -0.03118
v 0.00461 0.03810 -0.03580
v -0.03465 0.04272 -0.02887
v 0.00461 0.02656 -0.03811
v -0.01616 0.04966 -0.03118
v -0.02771 0.02886 -0.03349
v 0.00461 0.02886 -0.02657
v -0.01616 0.04734 -0.03349
v -0.00000 0.01501 -0.03811
f 329 303 359 
f 297 298 305 
f 305 298 316 
f 313 305 316 
f 303 314 317 
f 311 302 318 
f 299 309 319 
f 309 299 320 
f 299 319 321 
f 318 302 322 
f 301 304 323 
f 304 314 323 
f 308 304 324 
f 297 305 325 
f 325 305 326 
f 318 301 328 
f 301 323 328 
f 311 296 329 
f 314 303 329 
f 304 308 330 
f 314 304 330 
f 306 315 331 
f 315 308 331 
f 308 324 331 
f 302 311 332 
f 319 309 332 
f 311 319 332 
f 300 322 333 
f 322 302 333 
f 304 301 334 
f 301 318 334 
f 324 304 334 
f 310 305 335 
f 305 313 335 
f 313 316 336 
f 299 305 337 
f 305 310 337 
f 310 299 337 
f 317 314 338 
f 312 325 338 
f 314 330 338 
f 330 312 338 
f 317 307 339 
f 321 317 339 
f 326 321 339 
f 307 326 339 
f 303 317 340 
f 319 303 340 
f 317 321 340 
f 321 319 340 
f 316 298 341 
f 308 336 341 
f 336 316 341 
f 309 302 342 
f 302 332 342 
f 332 309 342 
f 296 311 343 
f 311 318 343 
f 318 328 343 
f 306 331 344 
f 331 324 344 
f 324 334 344 
f 307 317 345 
f 317 325 345 
f 326 307 345 
f 325 326 345 
f 302 309 346 
f 309 320 346 
f 320 302 346 
f 300 310 347 
f 315 300 347 
f 310 335 347 
f 335 313 347 
f 313 336 347 
f 300 315 348 
f 315 306 348 
f 322 300 348 
f 318 322 348 
f 334 318 348 
f 306 344 348 
f 344 334 348 
f 323 314 349 
f 329 296 349 
f 314 329 349 
f 328 323 350 
f 296 343 350 
f 343 328 350 
f 349 296 350 
f 323 349 350 
f 298 297 351 
f 297 325 351 
f 325 312 351 
f 327 298 351 
f 312 330 351 
f 330 327 351 
f 305 299 352 
f 299 321 352 
f 326 305 352 
f 321 326 352 
f 310 300 353 
f 302 320 353 
f 320 310 353 
f 300 333 353 
f 333 302 353 
f 308 315 354 
f 336 308 354 
f 315 347 354 
f 347 336 354 
f 299 310 355 
f 320 299 355 
f 310 320 355 
f 298 327 356 
f 327 308 356 
f 341 298 356 
f 308 341 356 
f 308 327 357 
f 330 308 357 
f 327 330 357 
f 325 317 358 
f 317 338 358 
f 338 325 358 
f 303 319 359 
f 319 311 359 
f 311 329 359 
