# Original object name hint: convex_5
v 0.02771 -0.06120 0.01270
v -0.03234 -0.05889 -0.04273
v -0.03234 -0.05658 -0.04273
v -0.04850 -0.05658 0.00807
v -0.00463 -0.04504 -0.00809
v 0.03233 -0.05889 -0.03811
v -0.05543 -0.04966 -0.03580
v -0.03002 -0.06351 -0.03580
v -0.02540 -0.04504 0.01038
v -0.03695 -0.06351 0.00577
v 0.03464 -0.06351 -0.03580
v 0.00461 -0.05197 -0.04041
v 0.03464 -0.05889 0.00346
v -0.04850 -0.05889 -0.03811
v 0.02540 -0.06351 0.01270
v 0.03233 -0.05658 -0.03580
v -0.00693 -0.04504 -0.01732
v -0.04619 -0.04966 0.00577
v 0.02077 -0.06120 -0.04273
v -0.01155 -0.04504 0.00807
v -0.03464 -0.06120 0.01038
v -0.04850 -0.05889 0.00577
v -0.02308 -0.06351 -0.04041
v -0.02308 -0.04504 -0.01502
v 0.03695 -0.06351 -0.02656
v -0.03002 -0.04504 0.00807
v 0.02771 -0.05889 0.01270
v 0.01154 -0.05428 -0.04273
v 0.01616 -0.05197 -0.03580
v 0.03695 -0.05889 -0.03349
v -0.05081 -0.04966 -0.00578
v 0.03233 -0.06351 0.00577
v -0.05543 -0.05197 -0.03349
v 0.03233 -0.05658 -0.02425
v -0.01616 -0.05428 -0.04273
v -0.04850 -0.05197 0.00807
v -0.03695 -0.05428 0.01038
v 0.02540 -0.06351 -0.04041
v 0.02771 -0.05658 -0.04041
v -0.03002 -0.06120 -0.04273
v -0.05312 -0.05197 -0.03811
v -0.03464 -0.06351 0.00807
v 0.02077 -0.05889 0.01270
v -0.04387 -0.04966 -0.03580
v -0.04387 -0.06120 0.00577
v -0.03695 -0.06351 -0.00116
v 0.02540 -0.05428 -0.03580
v 0.01386 -0.05197 -0.03811
v -0.01846 -0.04504 0.01038
v -0.00463 -0.04504 -0.01502
v 0.03233 -0.05889 0.00807
v -0.05081 -0.05658 -0.00347
v 0.03464 -0.06120 0.00346
v 0.03695 -0.05889 -0.02425
v -0.04387 -0.05889 -0.04041
v -0.03002 -0.04504 0.00346
v -0.02078 -0.04504 -0.01732
v 0.02077 -0.06351 0.01270
v -0.03695 -0.06120 -0.04041
v 0.06929 -0.00115 -0.04273
v 0.06929 0.03117 0.03349
v 0.06698 0.03117 0.03349
v 0.06929 -0.03578 0.00346
v 0.05543 0.03117 -0.03118
v 0.07391 0.05426 -0.01270
v 0.05543 -0.02654 -0.00348
v 0.05543 0.02655 0.03117
v 0.07391 -0.02424 0.01501
v 0.05774 -0.02886 -0.03349
v 0.06467 0.05657 -0.02886
v 0.06005 -0.01731 0.02424
v 0.07159 -0.02424 -0.02886
v 0.06698 0.05889 0.00115
v 0.07391 0.02885 -0.03580
v 0.07391 0.01040 0.03117
v 0.06467 0.01962 -0.04273
v 0.05543 0.00348 0.03117
v 0.07391 0.05195 0.00807
v 0.06698 -0.03348 -0.03349
v 0.06236 -0.03809 -0.00808
v 0.06929 0.05195 -0.03349
v 0.07391 -0.02654 -0.00348
v 0.07159 0.00809 0.03349
v 0.05774 -0.02886 0.00807
v 0.06236 -0.01731 -0.04042
v 0.05774 0.01962 -0.03810
v 0.06698 -0.01962 0.02424
v 0.06236 0.05195 -0.03118
v 0.07391 0.01040 -0.03580
v 0.07391 0.02885 0.03117
v 0.06467 0.05657 -0.00117
v 0.05543 0.03348 -0.01963
v 0.05543 0.01731 -0.03349
v 0.07159 0.05889 -0.01270
v 0.06236 -0.03348 0.00807
v 0.06005 -0.03578 -0.02655
v 0.07159 0.02424 -0.04042
v 0.06929 -0.03117 -0.03349
v 0.07159 -0.02424 0.01962
v 0.06698 -0.03809 -0.01270
v 0.05543 -0.02654 -0.01270
v 0.06005 0.01269 0.03349
v 0.07159 -0.03348 -0.00576
v 0.06236 0.04272 -0.03580
v 0.07391 0.03809 -0.03349
v 0.06929 -0.02193 -0.03810
v 0.07159 0.05889 0.00115
v 0.06467 0.03348 0.03117
v 0.07159 0.03578 0.02886
v 0.06236 -0.03117 -0.03580
v 0.05774 0.00578 -0.03810
v 0.06005 -0.03578 -0.00348
v 0.06236 -0.02886 0.01501
v 0.05774 -0.02424 0.01501
v 0.06929 0.05657 -0.02886
v 0.06929 0.01962 -0.04273
v 0.06467 -0.00115 -0.04273
v 0.06698 -0.03578 -0.02886
v 0.05774 0.03117 -0.03580
v 0.06236 -0.01962 0.02424
v 0.06005 0.00578 -0.04042
v 0.06698 0.05889 -0.01731
v 0.07159 0.00348 -0.04042
v -0.07160 -0.02656 -0.03118
v -0.05312 0.03117 0.01269
v -0.05312 0.03117 0.00577
v -0.07160 0.05427 -0.03348
v -0.07391 0.02193 0.00807
v -0.05774 -0.03348 -0.03348
v -0.05312 -0.02656 0.01038
v -0.06005 0.06120 -0.03348
v -0.06929 0.05427 0.00577
v -0.06929 -0.02424 0.01038
v -0.06929 -0.00345 -0.04503
v -0.05312 0.00579 -0.01732
v -0.06698 -0.03811 -0.01963
v -0.06467 0.03117 -0.04503
v -0.07391 0.01270 -0.02194
v -0.06929 0.02193 0.01269
v -0.06236 0.05427 0.00577
v -0.06005 -0.03811 -0.03580
v -0.06698 0.06351 -0.03348
v -0.05774 -0.00345 -0.03580
v -0.07160 -0.02424 -0.00116
v -0.07160 0.03579 -0.04041
v -0.06929 -0.01962 0.01269
v -0.05312 -0.01732 -0.01732
v -0.06929 -0.03579 -0.03348
v -0.06236 -0.01732 -0.04272
v -0.07391 0.00579 0.00807
v -0.05312 -0.02193 0.01269
v -0.07160 0.05427 -0.01502
v -0.07160 -0.00345 -0.04041
v -0.06929 -0.03118 -0.03811
v -0.06698 -0.02887 0.00807
v -0.06005 -0.03811 -0.01963
v -0.06929 0.05658 -0.03811
v -0.05312 0.01731 -0.01502
v -0.07391 0.02886 -0.01732
v -0.06236 0.06351 -0.02656
v -0.06929 0.03117 -0.04503
v -0.06236 0.02656 -0.04272
v -0.05774 -0.03118 -0.03580
v -0.06698 0.04965 0.00807
v -0.06005 0.06120 -0.02887
v -0.06929 -0.03348 -0.01040
v -0.06929 0.06120 -0.02425
v -0.07160 -0.02887 -0.01963
v -0.07391 0.00347 -0.01040
v -0.07160 0.04965 -0.00116
v -0.06236 0.06120 -0.03580
v -0.06236 -0.03579 -0.01040
v -0.06467 -0.03579 -0.03811
v -0.07391 0.02656 0.00577
v -0.06005 -0.00115 -0.04041
v -0.06467 -0.00345 -0.04503
v -0.07160 -0.01732 0.00807
v -0.06929 -0.01732 -0.04272
v -0.06698 0.06351 -0.02656
v -0.06698 -0.03811 -0.03348
v -0.06698 0.02656 0.01269
v -0.07391 0.02424 -0.02194
v -0.06929 0.06120 -0.03580
v -0.06698 -0.02656 0.01038
v -0.05312 -0.02656 0.00577
v -0.06929 0.04734 0.00807
v -0.06005 -0.02887 0.00807
v 0.03695 0.01501 -0.01732
v 0.05543 0.02887 -0.01502
v 0.05081 0.02425 -0.01040
v 0.05543 0.01501 -0.01963
v 0.05081 0.01270 -0.01040
v 0.03695 0.02656 -0.01732
v 0.05312 0.02887 -0.02194
v 0.03695 0.01963 -0.01040
v 0.03695 0.02656 -0.01271
v 0.03695 0.01270 -0.01271
v 0.05543 0.01501 -0.01271
v 0.05543 0.01963 -0.02194
v 0.03695 0.01270 -0.01502
v 0.04850 0.02887 -0.01502
v 0.05081 0.01270 -0.01502
v 0.03695 0.01501 -0.01040
v 0.05543 0.02887 -0.02194
v 0.05312 0.01963 -0.02194
v 0.05543 -0.00577 0.00577
v 0.04157 0.02887 0.03348
v 0.04388 0.03118 0.03117
v 0.03695 0.02887 0.00577
v 0.03695 -0.00808 0.01732
v 0.05543 0.03118 0.01039
v 0.05543 0.00578 0.03117
v 0.03695 0.00578 0.03348
v 0.05543 0.02656 0.03117
v 0.03695 0.00808 0.00577
v 0.03695 0.03118 0.03117
v 0.05543 -0.00808 0.01501
v 0.05543 0.02425 0.00577
v 0.03695 -0.00808 0.01271
v 0.03695 0.03118 0.00808
v 0.04619 0.01732 0.03348
v 0.05543 -0.00808 0.00808
v 0.05312 -0.00577 0.00577
v 0.03695 0.02887 0.03348
v 0.05543 0.03118 0.01501
v 0.03926 0.00578 0.03348
v 0.04388 0.02887 0.00577
v 0.03695 0.00116 0.00808
v 0.05312 0.02887 0.02886
v 0.05543 0.00346 0.02886
v 0.03926 -0.00808 0.01732
v 0.00692 0.05889 -0.00809
v -0.05312 -0.02425 -0.01270
v -0.04619 -0.03579 -0.01501
v 0.03463 -0.02425 -0.00578
v 0.00922 0.02424 -0.02425
v -0.01153 0.04964 0.00115
v -0.04619 0.04502 -0.01732
v -0.04619 -0.01963 -0.00347
v 0.00229 -0.03810 -0.01963
v 0.03695 0.02654 -0.01732
v -0.00922 -0.03810 -0.00347
v 0.00461 0.06120 -0.02194
v -0.04619 -0.01731 -0.01963
v 0.03463 0.01500 -0.00578
v -0.04619 0.04502 -0.01040
v -0.02539 0.04733 -0.02194
v 0.02540 -0.02194 -0.01732
v -0.01846 -0.04504 -0.00578
v -0.00232 -0.00114 -0.02425
v -0.00232 0.04964 0.00115
v 0.03695 -0.02655 -0.01040
v -0.02078 -0.04041 -0.01963
v -0.00464 -0.01269 -0.00116
v -0.05312 -0.00808 -0.00578
v -0.00695 0.06120 -0.01270
v -0.05312 0.02654 -0.01501
v -0.00232 -0.04504 -0.00809
v 0.00922 0.00347 -0.02425
v -0.00464 -0.04504 -0.01732
v -0.04388 -0.03810 -0.01040
v -0.04619 0.03811 -0.00809
v -0.02078 -0.04504 -0.01732
v 0.03695 0.02654 -0.01270
v -0.05312 -0.01963 -0.01732
v -0.04388 0.03116 -0.01963
v -0.00232 0.06120 -0.00809
v 0.00692 -0.00114 -0.00116
v 0.03695 0.01500 -0.01732
v 0.00692 0.06120 -0.01040
v -0.00464 0.01962 -0.02425
v 0.00461 0.05889 -0.00578
v -0.04388 0.04733 -0.01040
v -0.05312 -0.01963 -0.00578
v -0.00001 0.06120 -0.02194
v -0.01153 -0.01269 -0.00116
v -0.02078 -0.03810 -0.00347
v -0.05081 0.03348 -0.01040
v -0.05081 0.03348 -0.01732
v 0.03695 0.01731 -0.00809
v -0.00695 0.06120 -0.01732
v -0.00695 -0.04504 -0.00578
v 0.03695 -0.02655 -0.00809
v -0.00232 0.04271 0.00115
v 0.00692 0.06120 -0.01732
v -0.04388 -0.02887 -0.00578
v -0.04619 -0.01038 -0.00347
v -0.01153 0.04502 0.00115
v 0.01385 -0.02194 -0.00347
v 0.03463 0.02193 -0.00809
v -0.04388 -0.03118 -0.01732
v -0.05312 0.00347 -0.01732
v -0.02309 -0.04504 -0.00809
v -0.04388 -0.03810 -0.01501
v -0.00232 -0.04041 -0.01963
v 0.02540 0.02885 0.00346
v -0.05312 -0.02887 0.00578
v -0.05312 -0.02887 0.01039
v -0.04157 0.06120 0.00808
v 0.01616 0.00577 0.02425
v 0.03002 -0.02194 0.00578
v 0.03695 0.02885 0.01732
v -0.00001 0.05195 0.00115
v -0.01153 -0.04504 0.00346
v -0.05312 0.03116 0.01270
v 0.03463 -0.01499 0.01732
v -0.05081 0.03116 0.00346
v -0.02539 -0.04504 0.01039
v 0.00461 0.06120 0.00808
v 0.01154 0.01500 0.02425
v 0.03695 0.02885 0.00578
v -0.04619 -0.03810 0.00346
v -0.00695 -0.00345 0.02193
v -0.00464 0.00808 0.00115
v 0.01385 -0.01269 0.02193
v -0.05312 -0.02194 0.01270
v -0.02078 0.04733 0.00115
v 0.03695 -0.01731 0.01039
v 0.00461 0.06120 0.00346
v 0.01154 0.03116 0.01963
v -0.04157 0.06120 0.00578
v 0.03695 0.00347 0.01963
v 0.01616 -0.01731 0.00346
v -0.01153 -0.04504 0.00808
v -0.05312 -0.02655 0.00346
v -0.05312 0.03580 0.00578
v -0.04850 -0.04041 0.00808
v 0.03463 -0.01731 0.00578
v 0.00692 0.04502 0.00115
v -0.03002 -0.04504 0.00346
v -0.01846 -0.04504 0.01039
v 0.03695 0.03116 0.00808
v 0.03695 0.01962 0.01963
v 0.03463 -0.01963 0.01270
v -0.00695 0.01039 0.02193
v -0.00464 -0.00577 0.02193
v -0.04850 0.03580 0.01270
v -0.01153 0.01039 0.00115
v -0.04850 0.04041 0.00346
v -0.02539 0.05889 0.00346
v -0.05081 -0.02425 0.01270
v 0.03695 0.03116 0.01501
v 0.03695 0.00117 0.00578
v 0.03233 -0.01963 0.01501
v -0.05312 0.01270 0.00346
v 0.01847 0.03580 0.01732
v 0.00922 0.00577 0.02425
v 0.03695 -0.01269 0.01732
v 0.00692 0.03811 0.00115
v 0.02540 0.02193 0.00346
v -0.05081 -0.03810 0.00578
v -0.05081 0.04271 0.00808
v 0.01385 0.01500 0.02425
v 0.01154 -0.01269 0.02193
v 0.00692 0.03116 0.01963
v -0.04619 -0.03579 0.01039
v -0.03233 -0.04504 0.00808
v -0.02078 0.04041 0.00115
v 0.00461 0.04964 0.00115
v 0.00463 -0.00808 0.02656
v 0.02309 0.03579 0.03349
v 0.02309 0.03579 0.02887
v -0.02309 0.02425 0.04041
v 0.02771 0.01270 0.04503
v -0.02079 -0.01501 0.03810
v 0.03464 -0.01501 0.02887
v 0.03695 0.02886 0.02425
v -0.00231 0.02193 0.02656
v -0.02541 -0.00346 0.03349
v 0.03695 0.02655 0.03579
v 0.03233 -0.01501 0.03349
v -0.02079 0.01039 0.04272
v 0.00231 0.03579 0.02887
v -0.00923 0.02655 0.04272
v 0.00692 0.00347 0.02425
v -0.02309 0.01963 0.03349
v 0.02771 -0.01501 0.02656
v 0.01154 0.03117 0.02425
v -0.02079 -0.01501 0.03349
v 0.03695 0.00578 0.02425
v 0.00231 -0.01501 0.03810
v -0.02541 -0.00577 0.04041
v 0.01847 0.02425 0.04272
v 0.00231 0.03579 0.03579
v 0.03695 0.00808 0.03579
v 0.03695 0.03117 0.03349
v 0.01847 0.03579 0.03579
v 0.02540 0.01732 0.04503
v -0.02541 0.01501 0.03349
v 0.00463 0.00808 0.02425
v 0.01847 -0.01501 0.02656
v -0.02309 0.02425 0.03579
v 0.01847 0.03579 0.02656
v -0.02541 0.01501 0.04041
v 0.03002 0.02425 0.04041
v 0.00692 0.02655 0.04272
v -0.00692 0.02655 0.02887
v 0.02540 -0.01270 0.03579
v 0.03695 0.03117 0.02656
v 0.01847 0.00116 0.02425
v -0.02079 0.01501 0.04272
v 0.03695 0.00116 0.03349
v 0.02309 0.01270 0.04503
v -0.00231 0.00116 0.02656
v -0.02541 -0.00808 0.03579
v 0.01154 -0.01270 0.02656
v 0.00463 0.01501 0.02425
v 0.03233 -0.01270 0.02656
v -0.01847 0.00808 0.04272
v -0.01386 0.02886 0.03349
v -0.04157 -0.01964 -0.03118
v 0.00692 -0.00578 -0.02656
v 0.00692 -0.01502 -0.02656
v 0.01385 -0.03579 -0.03811
v -0.01847 -0.00578 -0.03580
v -0.00232 -0.03810 -0.02887
v -0.04388 -0.01271 -0.02656
v -0.00001 -0.04042 -0.03811
v 0.00461 -0.00578 -0.03580
v -0.04388 -0.00809 -0.03349
v 0.01154 -0.04042 -0.03118
v -0.03233 -0.00578 -0.02656
v 0.01385 -0.02656 -0.03811
v -0.04388 -0.01733 -0.02656
v 0.00230 -0.02425 -0.02656
v -0.00232 -0.04042 -0.03118
v 0.01385 -0.02656 -0.03118
v -0.04388 -0.01733 -0.03349
v -0.00001 -0.02656 -0.03811
v 0.00923 -0.03579 -0.02887
v 0.01154 -0.04042 -0.03811
v 0.00692 -0.00578 -0.03349
v -0.01847 -0.02425 -0.02656
v -0.00232 -0.04042 -0.03580
v 0.01385 -0.03579 -0.03118
v -0.04388 -0.00809 -0.02887
v -0.03233 -0.00578 -0.03118
v 0.00461 0.03810 -0.03118
v -0.03465 0.02194 -0.03118
v -0.02771 -0.00578 -0.03349
v 0.00461 -0.00346 -0.02425
v 0.00461 0.01501 -0.03811
v -0.03465 0.03810 -0.02657
v -0.01616 0.03810 -0.03580
v -0.03002 -0.00578 -0.02657
v 0.00924 -0.00578 -0.03118
v -0.00462 0.04734 -0.02887
v 0.00692 0.01501 -0.02425
v 0.00692 0.03348 -0.03580
v -0.03465 0.04272 -0.03118
v -0.01847 -0.00578 -0.03580
v 0.00461 -0.00578 -0.03580
v -0.01385 0.04734 -0.03349
v -0.00694 0.00115 -0.02425
v -0.01616 0.04966 -0.02887
v -0.00925 0.04041 -0.02657
v -0.00000 0.02656 -0.03811
v -0.00000 0.04041 -0.03580
v -0.01847 0.03117 -0.03580
v 0.00692 0.03117 -0.02887
v 0.00924 -0.00115 -0.02657
v -0.00462 0.01732 -0.02425
v 0.00692 -0.00578 -0.02657
v -0.03465 0.02425 -0.02657
v -0.03002 -0.00578 -0.03118
v 0.00692 0.00347 -0.03580
v -0.00462 0.04734 -0.03118
v 0.00461 0.03810 -0.03580
v -0.03465 0.04272 -0.02887
v 0.00461 0.02656 -0.03811
v -0.01616 0.04966 -0.03118
v -0.02771 0.02886 -0.03349
v 0.00461 0.02886 -0.02657
v -0.01616 0.04734 -0.03349
v -0.00000 0.01501 -0.03811
f 260 253 295 
f 241 236 243 
f 235 245 251 
f 240 248 252 
f 244 250 253 
f 233 255 257 
f 236 241 259 
f 248 240 259 
f 250 236 259 
f 240 252 260 
f 258 249 260 
f 252 258 260 
f 233 234 261 
f 237 246 262 
f 260 249 263 
f 253 260 263 
f 252 241 264 
f 234 233 265 
f 233 257 265 
f 238 247 266 
f 247 244 266 
f 243 256 267 
f 241 252 269 
f 252 248 269 
f 259 241 269 
f 248 259 269 
f 232 264 270 
f 264 241 270 
f 243 267 270 
f 244 247 271 
f 250 244 271 
f 236 250 271 
f 237 251 272 
f 264 232 272 
f 267 237 272 
f 232 270 272 
f 270 267 272 
f 246 237 273 
f 238 246 273 
f 237 267 273 
f 267 256 273 
f 255 233 274 
f 239 255 274 
f 233 261 274 
f 243 236 275 
f 247 238 275 
f 256 243 275 
f 236 271 275 
f 271 247 275 
f 242 254 276 
f 249 242 277 
f 276 239 277 
f 242 276 277 
f 246 238 278 
f 257 255 278 
f 262 246 278 
f 255 262 278 
f 238 266 279 
f 278 238 279 
f 257 278 279 
f 245 235 280 
f 252 264 280 
f 238 273 281 
f 273 256 281 
f 275 238 281 
f 256 275 281 
f 235 242 282 
f 242 249 282 
f 249 258 282 
f 282 258 283 
f 258 252 283 
f 280 235 283 
f 252 280 283 
f 235 282 283 
f 251 237 284 
f 235 251 284 
f 268 235 284 
f 254 268 284 
f 276 254 284 
f 241 243 285 
f 270 241 285 
f 243 270 285 
f 261 249 286 
f 239 274 286 
f 274 261 286 
f 249 277 286 
f 277 239 286 
f 239 237 287 
f 255 239 287 
f 237 262 287 
f 262 255 287 
f 237 239 288 
f 239 276 288 
f 284 237 288 
f 276 284 288 
f 242 235 289 
f 254 242 289 
f 235 268 289 
f 268 254 289 
f 251 245 290 
f 272 251 290 
f 264 272 290 
f 245 280 290 
f 280 264 290 
f 244 253 291 
f 234 265 291 
f 265 244 291 
f 244 265 292 
f 265 257 292 
f 266 244 292 
f 257 279 292 
f 279 266 292 
f 249 261 293 
f 263 249 293 
f 263 293 294 
f 261 234 294 
f 253 263 294 
f 234 291 294 
f 291 253 294 
f 293 261 294 
f 253 250 295 
f 259 240 295 
f 250 259 295 
f 240 260 295 
