# Original object name hint: convex_1
v 0.02771 -0.06120 0.01270
v -0.03234 -0.05889 -0.04273
v -0.03234 -0.05658 -0.04273
v -0.04850 -0.05658 0.00807
v -0.00463 -0.04504 -0.00809
v 0.03233 -0.05889 -0.03811
v -0.05543 -0.04966 -0.03580
v -0.03002 -0.06351 -0.03580
v -0.02540 -0.04504 0.01038
v -0.03695 -0.06351 0.00577
v 0.03464 -0.06351 -0.03580
v 0.00461 -0.05197 -0.04041
v 0.03464 -0.05889 0.00346
v -0.04850 -0.05889 -0.03811
v 0.02540 -0.06351 0.01270
v 0.03233 -0.05658 -0.03580
v -0.00693 -0.04504 -0.01732
v -0.04619 -0.04966 0.00577
v 0.02077 -0.06120 -0.04273
v -0.01155 -0.04504 0.00807
v -0.03464 -0.06120 0.01038
v -0.04850 -0.05889 0.00577
v -0.02308 -0.06351 -0.04041
v -0.02308 -0.04504 -0.01502
v 0.03695 -0.06351 -0.02656
v -0.03002 -0.04504 0.00807
v 0.02771 -0.05889 0.01270
v 0.01154 -0.05428 -0.04273
v 0.01616 -0.05197 -0.03580
v 0.03695 -0.05889 -0.03349
v -0.05081 -0.04966 -0.00578
v 0.03233 -0.06351 0.00577
v -0.05543 -0.05197 -0.03349
v 0.03233 -0.05658 -0.02425
v -0.01616 -0.05428 -0.04273
v -0.04850 -0.05197 0.00807
v -0.03695 -0.05428 0.01038
v 0.02540 -0.06351 -0.04041
v 0.02771 -0.05658 -0.04041
v -0.03002 -0.06120 -0.04273
v -0.05312 -0.05197 -0.03811
v -0.03464 -0.06351 0.00807
v 0.02077 -0.05889 0.01270
v -0.04387 -0.04966 -0.03580
v -0.04387 -0.06120 0.00577
v -0.03695 -0.06351 -0.00116
v 0.02540 -0.05428 -0.03580
v 0.01386 -0.05197 -0.03811
v -0.01846 -0.04504 0.01038
v -0.00463 -0.04504 -0.01502
v 0.03233 -0.05889 0.00807
v -0.05081 -0.05658 -0.00347
v 0.03464 -0.06120 0.00346
v 0.03695 -0.05889 -0.02425
v -0.04387 -0.05889 -0.04041
v -0.03002 -0.04504 0.00346
v -0.02078 -0.04504 -0.01732
v 0.02077 -0.06351 0.01270
v -0.03695 -0.06120 -0.04041
v 0.06929 -0.00115 -0.04273
v 0.06929 0.03117 0.03349
v 0.06698 0.03117 0.03349
v 0.06929 -0.03578 0.00346
v 0.05543 0.03117 -0.03118
v 0.07391 0.05426 -0.01270
v 0.05543 -0.02654 -0.00348
v 0.05543 0.02655 0.03117
v 0.07391 -0.02424 0.01501
v 0.05774 -0.02886 -0.03349
v 0.06467 0.05657 -0.02886
v 0.06005 -0.01731 0.02424
v 0.07159 -0.02424 -0.02886
v 0.06698 0.05889 0.00115
v 0.07391 0.02885 -0.03580
v 0.07391 0.01040 0.03117
v 0.06467 0.01962 -0.04273
v 0.05543 0.00348 0.03117
v 0.07391 0.05195 0.00807
v 0.06698 -0.03348 -0.03349
v 0.06236 -0.03809 -0.00808
v 0.06929 0.05195 -0.03349
v 0.07391 -0.02654 -0.00348
v 0.07159 0.00809 0.03349
v 0.05774 -0.02886 0.00807
v 0.06236 -0.01731 -0.04042
v 0.05774 0.01962 -0.03810
v 0.06698 -0.01962 0.02424
v 0.06236 0.05195 -0.03118
v 0.07391 0.01040 -0.03580
v 0.07391 0.02885 0.03117
v 0.06467 0.05657 -0.00117
v 0.05543 0.03348 -0.01963
v 0.05543 0.01731 -0.03349
v 0.07159 0.05889 -0.01270
v 0.06236 -0.03348 0.00807
v 0.06005 -0.03578 -0.02655
v 0.07159 0.02424 -0.04042
v 0.06929 -0.03117 -0.03349
v 0.07159 -0.02424 0.01962
v 0.06698 -0.03809 -0.01270
v 0.05543 -0.02654 -0.01270
v 0.06005 0.01269 0.03349
v 0.07159 -0.03348 -0.00576
v 0.06236 0.04272 -0.03580
v 0.07391 0.03809 -0.03349
v 0.06929 -0.02193 -0.03810
v 0.07159 0.05889 0.00115
v 0.06467 0.03348 0.03117
v 0.07159 0.03578 0.02886
v 0.06236 -0.03117 -0.03580
v 0.05774 0.00578 -0.03810
v 0.06005 -0.03578 -0.00348
v 0.06236 -0.02886 0.01501
v 0.05774 -0.02424 0.01501
v 0.06929 0.05657 -0.02886
v 0.06929 0.01962 -0.04273
v 0.06467 -0.00115 -0.04273
v 0.06698 -0.03578 -0.02886
v 0.05774 0.03117 -0.03580
v 0.06236 -0.01962 0.02424
v 0.06005 0.00578 -0.04042
v 0.06698 0.05889 -0.01731
v 0.07159 0.00348 -0.04042
v -0.07160 -0.02656 -0.03118
v -0.05312 0.03117 0.01269
v -0.05312 0.03117 0.00577
v -0.07160 0.05427 -0.03348
v -0.07391 0.02193 0.00807
v -0.05774 -0.03348 -0.03348
v -0.05312 -0.02656 0.01038
v -0.06005 0.06120 -0.03348
v -0.06929 0.05427 0.00577
v -0.06929 -0.02424 0.01038
v -0.06929 -0.00345 -0.04503
v -0.05312 0.00579 -0.01732
v -0.06698 -0.03811 -0.01963
v -0.06467 0.03117 -0.04503
v -0.07391 0.01270 -0.02194
v -0.06929 0.02193 0.01269
v -0.06236 0.05427 0.00577
v -0.06005 -0.03811 -0.03580
v -0.06698 0.06351 -0.03348
v -0.05774 -0.00345 -0.03580
v -0.07160 -0.02424 -0.00116
v -0.07160 0.03579 -0.04041
v -0.06929 -0.01962 0.01269
v -0.05312 -0.01732 -0.01732
v -0.06929 -0.03579 -0.03348
v -0.06236 -0.01732 -0.04272
v -0.07391 0.00579 0.00807
v -0.05312 -0.02193 0.01269
v -0.07160 0.05427 -0.01502
v -0.07160 -0.00345 -0.04041
v -0.06929 -0.03118 -0.03811
v -0.06698 -0.02887 0.00807
v -0.06005 -0.03811 -0.01963
v -0.06929 0.05658 -0.03811
v -0.05312 0.01731 -0.01502
v -0.07391 0.02886 -0.01732
v -0.06236 0.06351 -0.02656
v -0.06929 0.03117 -0.04503
v -0.06236 0.02656 -0.04272
v -0.05774 -0.03118 -0.03580
v -0.06698 0.04965 0.00807
v -0.06005 0.06120 -0.02887
v -0.06929 -0.03348 -0.01040
v -0.06929 0.06120 -0.02425
v -0.07160 -0.02887 -0.01963
v -0.07391 0.00347 -0.01040
v -0.07160 0.04965 -0.00116
v -0.06236 0.06120 -0.03580
v -0.06236 -0.03579 -0.01040
v -0.06467 -0.03579 -0.03811
v -0.07391 0.02656 0.00577
v -0.06005 -0.00115 -0.04041
v -0.06467 -0.00345 -0.04503
v -0.07160 -0.01732 0.00807
v -0.06929 -0.01732 -0.04272
v -0.06698 0.06351 -0.02656
v -0.06698 -0.03811 -0.03348
v -0.06698 0.02656 0.01269
v -0.07391 0.02424 -0.02194
v -0.06929 0.06120 -0.03580
v -0.06698 -0.02656 0.01038
v -0.05312 -0.02656 0.00577
v -0.06929 0.04734 0.00807
v -0.06005 -0.02887 0.00807
v 0.03695 0.01501 -0.01732
v 0.05543 0.02887 -0.01502
v 0.05081 0.02425 -0.01040
v 0.05543 0.01501 -0.01963
v 0.05081 0.01270 -0.01040
v 0.03695 0.02656 -0.01732
v 0.05312 0.02887 -0.02194
v 0.03695 0.01963 -0.01040
v 0.03695 0.02656 -0.01271
v 0.03695 0.01270 -0.01271
v 0.05543 0.01501 -0.01271
v 0.05543 0.01963 -0.02194
v 0.03695 0.01270 -0.01502
v 0.04850 0.02887 -0.01502
v 0.05081 0.01270 -0.01502
v 0.03695 0.01501 -0.01040
v 0.05543 0.02887 -0.02194
v 0.05312 0.01963 -0.02194
v 0.05543 -0.00577 0.00577
v 0.04157 0.02887 0.03348
v 0.04388 0.03118 0.03117
v 0.03695 0.02887 0.00577
v 0.03695 -0.00808 0.01732
v 0.05543 0.03118 0.01039
v 0.05543 0.00578 0.03117
v 0.03695 0.00578 0.03348
v 0.05543 0.02656 0.03117
v 0.03695 0.00808 0.00577
v 0.03695 0.03118 0.03117
v 0.05543 -0.00808 0.01501
v 0.05543 0.02425 0.00577
v 0.03695 -0.00808 0.01271
v 0.03695 0.03118 0.00808
v 0.04619 0.01732 0.03348
v 0.05543 -0.00808 0.00808
v 0.05312 -0.00577 0.00577
v 0.03695 0.02887 0.03348
v 0.05543 0.03118 0.01501
v 0.03926 0.00578 0.03348
v 0.04388 0.02887 0.00577
v 0.03695 0.00116 0.00808
v 0.05312 0.02887 0.02886
v 0.05543 0.00346 0.02886
v 0.03926 -0.00808 0.01732
v 0.00692 0.05889 -0.00809
v -0.05312 -0.02425 -0.01270
v -0.04619 -0.03579 -0.01501
v 0.03463 -0.02425 -0.00578
v 0.00922 0.02424 -0.02425
v -0.01153 0.04964 0.00115
v -0.04619 0.04502 -0.01732
v -0.04619 -0.01963 -0.00347
v 0.00229 -0.03810 -0.01963
v 0.03695 0.02654 -0.01732
v -0.00922 -0.03810 -0.00347
v 0.00461 0.06120 -0.02194
v -0.04619 -0.01731 -0.01963
v 0.03463 0.01500 -0.00578
v -0.04619 0.04502 -0.01040
v -0.02539 0.04733 -0.02194
v 0.02540 -0.02194 -0.01732
v -0.01846 -0.04504 -0.00578
v -0.00232 -0.00114 -0.02425
v -0.00232 0.04964 0.00115
v 0.03695 -0.02655 -0.01040
v -0.02078 -0.04041 -0.01963
v -0.00464 -0.01269 -0.00116
v -0.05312 -0.00808 -0.00578
v -0.00695 0.06120 -0.01270
v -0.05312 0.02654 -0.01501
v -0.00232 -0.04504 -0.00809
v 0.00922 0.00347 -0.02425
v -0.00464 -0.04504 -0.01732
v -0.04388 -0.03810 -0.01040
v -0.04619 0.03811 -0.00809
v -0.02078 -0.04504 -0.01732
v 0.03695 0.02654 -0.01270
v -0.05312 -0.01963 -0.01732
v -0.04388 0.03116 -0.01963
v -0.00232 0.06120 -0.00809
v 0.00692 -0.00114 -0.00116
v 0.03695 0.01500 -0.01732
v 0.00692 0.06120 -0.01040
v -0.00464 0.01962 -0.02425
v 0.00461 0.05889 -0.00578
v -0.04388 0.04733 -0.01040
v -0.05312 -0.01963 -0.00578
v -0.00001 0.06120 -0.02194
v -0.01153 -0.01269 -0.00116
v -0.02078 -0.03810 -0.00347
v -0.05081 0.03348 -0.01040
v -0.05081 0.03348 -0.01732
v 0.03695 0.01731 -0.00809
v -0.00695 0.06120 -0.01732
v -0.00695 -0.04504 -0.00578
v 0.03695 -0.02655 -0.00809
v -0.00232 0.04271 0.00115
v 0.00692 0.06120 -0.01732
v -0.04388 -0.02887 -0.00578
v -0.04619 -0.01038 -0.00347
v -0.01153 0.04502 0.00115
v 0.01385 -0.02194 -0.00347
v 0.03463 0.02193 -0.00809
v -0.04388 -0.03118 -0.01732
v -0.05312 0.00347 -0.01732
v -0.02309 -0.04504 -0.00809
v -0.04388 -0.03810 -0.01501
v -0.00232 -0.04041 -0.01963
v 0.02540 0.02885 0.00346
v -0.05312 -0.02887 0.00578
v -0.05312 -0.02887 0.01039
v -0.04157 0.06120 0.00808
v 0.01616 0.00577 0.02425
v 0.03002 -0.02194 0.00578
v 0.03695 0.02885 0.01732
v -0.00001 0.05195 0.00115
v -0.01153 -0.04504 0.00346
v -0.05312 0.03116 0.01270
v 0.03463 -0.01499 0.01732
v -0.05081 0.03116 0.00346
v -0.02539 -0.04504 0.01039
v 0.00461 0.06120 0.00808
v 0.01154 0.01500 0.02425
v 0.03695 0.02885 0.00578
v -0.04619 -0.03810 0.00346
v -0.00695 -0.00345 0.02193
v -0.00464 0.00808 0.00115
v 0.01385 -0.01269 0.02193
v -0.05312 -0.02194 0.01270
v -0.02078 0.04733 0.00115
v 0.03695 -0.01731 0.01039
v 0.00461 0.06120 0.00346
v 0.01154 0.03116 0.01963
v -0.04157 0.06120 0.00578
v 0.03695 0.00347 0.01963
v 0.01616 -0.01731 0.00346
v -0.01153 -0.04504 0.00808
v -0.05312 -0.02655 0.00346
v -0.05312 0.03580 0.00578
v -0.04850 -0.04041 0.00808
v 0.03463 -0.01731 0.00578
v 0.00692 0.04502 0.00115
v -0.03002 -0.04504 0.00346
v -0.01846 -0.04504 0.01039
v 0.03695 0.03116 0.00808
v 0.03695 0.01962 0.01963
v 0.03463 -0.01963 0.01270
v -0.00695 0.01039 0.02193
v -0.00464 -0.00577 0.02193
v -0.04850 0.03580 0.01270
v -0.01153 0.01039 0.00115
v -0.04850 0.04041 0.00346
v -0.02539 0.05889 0.00346
v -0.05081 -0.02425 0.01270
v 0.03695 0.03116 0.01501
v 0.03695 0.00117 0.00578
v 0.03233 -0.01963 0.01501
v -0.05312 0.01270 0.00346
v 0.01847 0.03580 0.01732
v 0.00922 0.00577 0.02425
v 0.03695 -0.01269 0.01732
v 0.00692 0.03811 0.00115
v 0.02540 0.02193 0.00346
v -0.05081 -0.03810 0.00578
v -0.05081 0.04271 0.00808
v 0.01385 0.01500 0.02425
v 0.01154 -0.01269 0.02193
v 0.00692 0.03116 0.01963
v -0.04619 -0.03579 0.01039
v -0.03233 -0.04504 0.00808
v -0.02078 0.04041 0.00115
v 0.00461 0.04964 0.00115
v 0.00463 -0.00808 0.02656
v 0.02309 0.03579 0.03349
v 0.02309 0.03579 0.02887
v -0.02309 0.02425 0.04041
v 0.02771 0.01270 0.04503
v -0.02079 -0.01501 0.03810
v 0.03464 -0.01501 0.02887
v 0.03695 0.02886 0.02425
v -0.00231 0.02193 0.02656
v -0.02541 -0.00346 0.03349
v 0.03695 0.02655 0.03579
v 0.03233 -0.01501 0.03349
v -0.02079 0.01039 0.04272
v 0.00231 0.03579 0.02887
v -0.00923 0.02655 0.04272
v 0.00692 0.00347 0.02425
v -0.02309 0.01963 0.03349
v 0.02771 -0.01501 0.02656
v 0.01154 0.03117 0.02425
v -0.02079 -0.01501 0.03349
v 0.03695 0.00578 0.02425
v 0.00231 -0.01501 0.03810
v -0.02541 -0.00577 0.04041
v 0.01847 0.02425 0.04272
v 0.00231 0.03579 0.03579
v 0.03695 0.00808 0.03579
v 0.03695 0.03117 0.03349
v 0.01847 0.03579 0.03579
v 0.02540 0.01732 0.04503
v -0.02541 0.01501 0.03349
v 0.00463 0.00808 0.02425
v 0.01847 -0.01501 0.02656
v -0.02309 0.02425 0.03579
v 0.01847 0.03579 0.02656
v -0.02541 0.01501 0.04041
v 0.03002 0.02425 0.04041
v 0.00692 0.02655 0.04272
v -0.00692 0.02655 0.02887
v 0.02540 -0.01270 0.03579
v 0.03695 0.03117 0.02656
v 0.01847 0.00116 0.02425
v -0.02079 0.01501 0.04272
v 0.03695 0.00116 0.03349
v 0.02309 0.01270 0.04503
v -0.00231 0.00116 0.02656
v -0.02541 -0.00808 0.03579
v 0.01154 -0.01270 0.02656
v 0.00463 0.01501 0.02425
v 0.03233 -0.01270 0.02656
v -0.01847 0.00808 0.04272
v -0.01386 0.02886 0.03349
v -0.04157 -0.01964 -0.03118
v 0.00692 -0.00578 -0.02656
v 0.00692 -0.01502 -0.02656
v 0.01385 -0.03579 -0.03811
v -0.01847 -0.00578 -0.03580
v -0.00232 -0.03810 -0.02887
v -0.04388 -0.01271 -0.02656
v -0.00001 -0.04042 -0.03811
v 0.00461 -0.00578 -0.03580
v -0.04388 -0.00809 -0.03349
v 0.01154 -0.04042 -0.03118
v -0.03233 -0.00578 -0.02656
v 0.01385 -0.02656 -0.03811
v -0.04388 -0.01733 -0.02656
v 0.00230 -0.02425 -0.02656
v -0.00232 -0.04042 -0.03118
v 0.01385 -0.02656 -0.03118
v -0.04388 -0.01733 -0.03349
v -0.00001 -0.02656 -0.03811
v 0.00923 -0.03579 -0.02887
v 0.01154 -0.04042 -0.03811
v 0.00692 -0.00578 -0.03349
v -0.01847 -0.02425 -0.02656
v -0.00232 -0.04042 -0.03580
v 0.01385 -0.03579 -0.03118
v -0.04388 -0.00809 -0.02887
v -0.03233 -0.00578 -0.03118
v 0.00461 0.03810 -0.03118
v -0.03465 0.02194 -0.03118
v -0.02771 -0.00578 -0.03349
v 0.00461 -0.00346 -0.02425
v 0.00461 0.01501 -0.03811
v -0.03465 0.03810 -0.02657
v -0.01616 0.03810 -0.03580
v -0.03002 -0.00578 -0.02657
v 0.00924 -0.00578 -0.03118
v -0.00462 0.04734 -0.02887
v 0.00692 0.01501 -0.02425
v 0.00692 0.03348 -0.03580
v -0.03465 0.04272 -0.03118
v -0.01847 -0.00578 -0.03580
v 0.00461 -0.00578 -0.03580
v -0.01385 0.04734 -0.03349
v -0.00694 0.00115 -0.02425
v -0.01616 0.04966 -0.02887
v -0.00925 0.04041 -0.02657
v -0.00000 0.02656 -0.03811
v -0.00000 0.04041 -0.03580
v -0.01847 0.03117 -0.03580
v 0.00692 0.03117 -0.02887
v 0.00924 -0.00115 -0.02657
v -0.00462 0.01732 -0.02425
v 0.00692 -0.00578 -0.02657
v -0.03465 0.02425 -0.02657
v -0.03002 -0.00578 -0.03118
v 0.00692 0.00347 -0.03580
v -0.00462 0.04734 -0.03118
v 0.00461 0.03810 -0.03580
v -0.03465 0.04272 -0.02887
v 0.00461 0.02656 -0.03811
v -0.01616 0.04966 -0.03118
v -0.02771 0.02886 -0.03349
v 0.00461 0.02886 -0.02657
v -0.01616 0.04734 -0.03349
v -0.00000 0.01501 -0.03811
f 89 106 123 
f 64 66 67 
f 65 68 74 
f 68 65 75 
f 67 66 77 
f 75 65 78 
f 74 68 82 
f 61 62 83 
f 70 81 88 
f 74 82 89 
f 82 72 89 
f 75 78 90 
f 61 83 90 
f 83 75 90 
f 67 73 91 
f 73 70 91 
f 70 88 91 
f 91 88 92 
f 64 67 92 
f 88 64 92 
f 67 91 92 
f 66 64 93 
f 64 86 93 
f 80 63 95 
f 74 89 97 
f 72 82 98 
f 63 68 99 
f 68 75 99 
f 75 83 99 
f 83 87 99 
f 63 80 100 
f 80 96 100 
f 66 93 101 
f 93 69 101 
f 96 66 101 
f 69 96 101 
f 62 67 102 
f 67 77 102 
f 83 62 102 
f 77 83 102 
f 68 63 103 
f 82 68 103 
f 98 82 103 
f 63 100 103 
f 81 76 104 
f 88 81 104 
f 65 74 105 
f 74 97 105 
f 97 81 105 
f 85 60 106 
f 89 72 106 
f 98 79 106 
f 72 98 106 
f 78 65 107 
f 94 73 107 
f 65 94 107 
f 62 61 108 
f 67 62 108 
f 73 67 108 
f 61 90 109 
f 90 78 109 
f 107 73 109 
f 78 107 109 
f 108 61 109 
f 73 108 109 
f 69 85 110 
f 96 69 110 
f 79 96 110 
f 85 106 110 
f 106 79 110 
f 85 69 111 
f 69 93 111 
f 93 86 111 
f 84 66 112 
f 80 95 112 
f 95 84 112 
f 66 96 112 
f 96 80 112 
f 95 63 113 
f 84 95 113 
f 63 99 113 
f 99 87 113 
f 77 66 114 
f 71 77 114 
f 66 84 114 
f 84 113 114 
f 81 70 115 
f 94 65 115 
f 65 105 115 
f 105 81 115 
f 60 76 116 
f 76 81 116 
f 97 60 116 
f 81 97 116 
f 76 60 117 
f 60 85 117 
f 96 79 118 
f 79 98 118 
f 100 96 118 
f 98 103 118 
f 103 100 118 
f 86 64 119 
f 76 86 119 
f 64 88 119 
f 104 76 119 
f 88 104 119 
f 77 71 120 
f 83 77 120 
f 87 83 120 
f 113 87 120 
f 71 114 120 
f 114 113 120 
f 86 76 121 
f 85 111 121 
f 111 86 121 
f 76 117 121 
f 117 85 121 
f 70 73 122 
f 73 94 122 
f 115 70 122 
f 94 115 122 
f 60 97 123 
f 97 89 123 
f 106 60 123 
