# Original object name hint: convex_8
v 0.07431 0.01281 0.06278
v 0.06407 -0.03844 -0.03970
v 0.07431 -0.03844 -0.03970
v 0.06919 0.05382 -0.03714
v 0.04869 0.03330 0.04996
v 0.04869 0.04613 -0.03202
v 0.04869 -0.02049 0.01922
v 0.07944 0.04099 0.04228
v 0.07688 -0.03075 0.01922
v 0.08201 0.02306 -0.03714
v 0.05895 -0.03075 -0.04995
v 0.07431 0.04613 -0.04995
v 0.06919 0.04869 0.04484
v 0.04869 0.00001 0.04996
v 0.08201 -0.01793 -0.00896
v 0.04869 -0.01537 -0.02946
v 0.07688 -0.03075 -0.04995
v 0.06919 -0.02562 0.03716
v 0.07944 0.00257 0.04996
v 0.07944 0.04869 -0.03458
v 0.06663 0.01024 -0.05507
v 0.05895 -0.03844 -0.02690
v 0.04869 0.04869 -0.02432
v 0.08201 0.02562 0.01410
v 0.07431 0.03330 0.06021
v 0.07431 0.05382 -0.00127
v 0.07431 0.00001 0.06021
v 0.06919 -0.03587 0.00897
v 0.07944 -0.03331 -0.03458
v 0.05382 -0.03331 -0.03714
v 0.07175 -0.02818 -0.05507
v 0.06663 0.04356 -0.04995
v 0.07688 -0.03844 -0.01152
v 0.06407 0.05382 -0.01152
v 0.08201 0.03844 -0.01152
v 0.07688 0.04613 0.04740
v 0.07944 -0.02818 0.01153
v 0.08201 -0.00768 -0.03458
v 0.07688 -0.02306 0.03460
v 0.04869 -0.01281 0.03716
v 0.04869 0.02049 0.05253
v 0.07944 0.02306 0.05253
v 0.06919 0.03330 0.06021
v 0.07175 0.00514 0.06278
v 0.04869 0.03588 0.04484
v 0.08201 0.01024 0.02178
v 0.06407 -0.03587 0.00385
v 0.07431 0.02562 -0.05251
v 0.06407 -0.01537 -0.05507
v 0.04869 -0.02306 -0.01664
v 0.07688 0.04613 -0.04739
v 0.06663 -0.03075 0.02434
v 0.07431 0.05382 -0.03714
v 0.06919 0.03844 0.05765
v 0.06919 -0.00256 0.05765
v 0.07431 -0.02562 0.03716
v 0.07944 -0.02562 -0.04482
v 0.05639 -0.03587 -0.01920
v 0.07944 0.02049 -0.04482
v 0.07944 -0.02049 0.02690
v 0.06407 -0.03587 -0.04739
v 0.06919 0.04869 -0.04739
v 0.06407 -0.03844 -0.00896
v 0.07944 -0.03331 -0.00639
v -0.08201 0.00001 0.03204
v -0.05895 0.03843 0.04485
v -0.05895 0.04100 0.04229
v -0.05638 -0.02305 0.00642
v -0.07432 0.04869 0.00129
v -0.07944 -0.02305 0.00129
v -0.06151 -0.02305 0.04229
v -0.07944 0.03330 0.04229
v -0.06151 0.04612 0.00129
v -0.07688 -0.02305 0.04229
v -0.07944 0.03843 0.00129
v -0.06407 -0.02818 0.00129
v -0.05638 -0.01280 0.04485
v -0.05638 0.03330 0.01154
v -0.07688 -0.00255 0.04485
v -0.07432 0.04100 0.04229
v -0.05638 0.03843 0.04229
v -0.08201 0.02306 0.03972
v -0.07432 -0.02818 0.00642
v -0.06407 -0.02561 0.03972
v -0.08201 -0.00255 0.03972
v -0.06663 0.04869 0.00898
v -0.05895 -0.02305 0.00129
v -0.07432 0.03330 0.04485
v -0.07944 -0.02049 0.03716
v -0.05638 0.01026 0.00642
v -0.07944 0.03587 0.03972
v -0.05638 -0.02305 0.01923
v -0.07175 -0.01792 0.04485
v -0.08201 0.01537 0.02947
v -0.07432 -0.02561 0.03972
v -0.05638 -0.01792 0.04229
v -0.06407 0.04869 0.00642
v -0.05895 -0.02561 0.01411
v -0.05638 0.03587 0.04485
v -0.07175 0.04869 0.00898
v -0.07432 -0.02818 0.00129
v -0.06663 -0.02818 0.00898
v -0.07688 -0.02561 0.01411
v -0.07432 0.04869 0.00385
v -0.07944 -0.01280 0.04229
v -0.05638 0.02818 0.00898
v -0.02819 0.03075 -0.06022
v -0.07945 -0.02818 -0.04997
v -0.07688 -0.03075 -0.05509
v -0.07688 0.04613 -0.05509
v -0.06406 0.04613 -0.04740
v -0.02819 -0.03331 -0.05765
v -0.07175 -0.00255 -0.06278
v -0.06150 -0.03331 -0.04740
v -0.02819 -0.03331 -0.06278
v -0.06919 0.03332 -0.06278
v -0.07945 0.04357 -0.04740
v -0.03075 0.03075 -0.06278
v -0.02819 0.03075 -0.05765
v -0.05638 -0.03587 -0.06022
v -0.04357 0.04357 -0.05765
v -0.07175 -0.03587 -0.04740
v -0.07945 0.01794 -0.05509
v -0.06663 0.04613 -0.06022
v -0.04357 -0.03844 -0.05509
v -0.07175 -0.02818 -0.06022
v -0.07431 0.04100 -0.06022
v -0.06663 0.04869 -0.04740
v -0.07945 -0.02818 -0.04740
v -0.06919 -0.03587 -0.05765
v -0.07688 -0.02562 -0.05765
v -0.06919 -0.01281 -0.06278
v -0.06663 0.04869 -0.05765
v -0.07688 0.04869 -0.04740
v -0.05382 -0.03844 -0.05765
v -0.04357 0.04357 -0.05509
v -0.06150 -0.01794 -0.04740
v -0.03332 -0.03331 -0.06278
v -0.07945 0.04100 -0.05253
v -0.07175 0.04869 -0.05765
v -0.07688 -0.03331 -0.04997
v -0.07945 -0.02562 -0.05253
v -0.05382 0.04357 -0.06022
v -0.06919 -0.03075 -0.06022
v -0.06406 -0.03587 -0.04740
v -0.07688 0.04100 -0.05765
v -0.06406 0.04869 -0.04997
v 0.00256 -0.03844 -0.06278
v -0.02050 -0.01794 -0.05766
v -0.02050 -0.01794 -0.06278
v -0.02819 -0.03331 -0.05766
v 0.01537 -0.03331 -0.05509
v 0.00512 -0.02307 -0.06278
v -0.01025 -0.04100 -0.05509
v -0.02819 -0.03331 -0.06278
v -0.02819 -0.01794 -0.05766
v 0.00512 -0.02307 -0.05766
v -0.01281 -0.04100 -0.06022
v 0.00512 -0.04100 -0.05509
v 0.01281 -0.03587 -0.06022
v -0.00768 -0.02819 -0.05509
v -0.02819 -0.01794 -0.06278
v 0.00512 -0.04100 -0.06022
v 0.00256 -0.02819 -0.05509
v -0.01281 -0.03075 -0.05509
v 0.01537 -0.03587 -0.05766
v -0.01281 -0.03844 -0.06278
v 0.00768 -0.03331 -0.06278
v 0.01281 -0.03075 -0.06022
v -0.07688 -0.03587 -0.03971
v -0.06407 0.04868 0.00128
v -0.07432 0.04868 0.00128
v -0.06919 0.05124 -0.04740
v -0.05638 -0.04098 -0.02690
v -0.07944 -0.02306 0.00128
v -0.08201 0.03844 -0.03971
v -0.05638 0.04868 -0.03202
v -0.05638 -0.02306 0.00128
v -0.06151 -0.03330 -0.04740
v -0.07944 -0.02817 -0.04740
v -0.08201 0.01794 -0.00385
v -0.08201 -0.02817 -0.03715
v -0.07175 0.05636 -0.02433
v -0.06919 -0.04098 -0.02178
v -0.07944 0.04355 -0.04740
v -0.05638 -0.04098 -0.03715
v -0.06407 0.04868 -0.04740
v -0.06151 0.04612 0.00128
v -0.07944 0.03844 0.00128
v -0.06407 -0.02817 0.00128
v -0.05638 0.04868 -0.02433
v -0.06407 0.05636 -0.03202
v -0.07944 0.04612 -0.01666
v -0.08201 -0.02817 -0.02690
v -0.07688 0.05124 -0.04227
v -0.08201 0.03587 -0.01153
v -0.05638 0.01024 -0.00641
v -0.06919 -0.04098 -0.03715
v -0.07688 -0.02817 -0.00128
v -0.06919 -0.03587 -0.04740
v -0.07432 -0.03843 -0.02433
v -0.08201 -0.02306 -0.04227
v -0.08201 -0.01537 -0.01153
v -0.06151 0.05381 -0.01922
v -0.06151 -0.02049 -0.04740
v -0.06663 0.05636 -0.02178
v -0.07688 0.05124 -0.01922
v -0.07944 -0.03330 -0.02690
v -0.06919 0.05636 -0.03458
v -0.06151 -0.04098 -0.02178
v -0.07432 -0.02817 0.00128
v -0.05638 -0.01280 0.00128
v -0.07688 -0.03330 -0.04740
v -0.08201 0.03331 -0.04227
v -0.05638 -0.02817 -0.03715
v -0.07432 0.05124 -0.04740
v -0.07688 0.04612 0.00128
v -0.07175 -0.04098 -0.03458
v -0.07944 0.04612 -0.04484
v -0.05638 -0.02561 -0.00128
v -0.08201 0.00769 -0.00385
v -0.07944 -0.03330 -0.03971
v -0.08201 0.03844 -0.01666
v -0.02049 -0.02818 0.01154
v -0.00767 0.04357 0.01410
v 0.02050 0.04100 0.02691
v 0.03843 -0.01024 0.00129
v 0.04869 -0.01536 0.02691
v -0.05125 -0.01536 0.02435
v -0.05638 0.03074 0.00898
v -0.04869 -0.02305 0.00129
v -0.01023 0.04357 0.00129
v 0.04869 0.03074 0.01922
v -0.05638 0.03587 0.01666
v 0.03588 -0.02305 0.00129
v 0.03331 -0.02305 0.02691
v -0.05638 -0.02305 0.01922
v 0.04869 0.00257 0.00642
v -0.04869 0.01281 0.02435
v -0.01537 -0.02305 0.02691
v 0.04869 0.03074 0.02691
v 0.00511 0.04100 0.02691
v -0.02049 0.04357 0.00129
v 0.00511 -0.02818 0.00129
v 0.04869 0.02306 0.01154
v 0.04869 -0.02049 0.01154
v -0.04869 0.04100 0.01410
v -0.05638 -0.02049 0.00642
v 0.03074 -0.02562 0.01922
v -0.02562 -0.00512 0.02691
v 0.03843 -0.00255 0.00129
v -0.04613 -0.02562 0.00129
v -0.00767 -0.02562 0.02435
v -0.05638 0.01537 0.02178
v -0.05638 0.01281 0.00642
v -0.03843 0.03331 0.02178
v -0.05125 0.03843 0.00898
v -0.02562 0.04357 0.01410
v -0.04613 -0.02562 0.01666
v 0.01793 0.04100 0.01922
v -0.04869 -0.01536 0.00129
v 0.04869 -0.01024 0.00642
v -0.00767 -0.02818 0.01410
v 0.04869 -0.02049 0.01922
v -0.05638 -0.02049 0.02178
v -0.02049 -0.02818 0.00129
v 0.03074 -0.02562 0.01154
v -0.05125 0.03331 0.01922
v 0.02562 -0.02562 0.02178
v -0.04869 -0.02562 0.00642
v -0.05125 0.03843 0.01666
v -0.05125 0.00769 0.02435
v -0.05638 -0.02305 0.00898
v -0.04869 0.04100 0.01154
v -0.02562 -0.01280 0.02691
v -0.04613 -0.02305 0.02178
v -0.04357 -0.02049 0.02435
v -0.00002 -0.02818 0.01154
v 0.04869 -0.01793 0.00898
v -0.05638 0.03587 0.01154
v 0.04099 -0.02305 0.01154
v -0.01794 -0.02049 0.02692
v 0.02050 0.05382 0.04741
v 0.04099 0.02306 0.06023
v -0.05638 0.03587 0.04485
v 0.04869 0.03075 0.02692
v -0.05381 -0.01537 0.04485
v 0.03331 -0.02306 0.03461
v -0.05381 0.03587 0.03461
v 0.04099 0.00513 0.06023
v 0.00769 0.04355 0.02692
v 0.04869 -0.01537 0.02692
v -0.04869 -0.01792 0.02948
v -0.01537 0.05382 0.04741
v -0.01537 0.01026 0.05510
v 0.04869 0.03331 0.04998
v -0.04869 -0.02306 0.03973
v -0.04869 0.01282 0.02948
v -0.01794 0.05382 0.03973
v -0.05638 -0.01024 0.03204
v 0.04869 0.00257 0.05254
v 0.01793 0.05382 0.03973
v -0.02306 -0.01792 0.04485
v -0.01023 -0.02306 0.02692
v 0.02818 -0.02306 0.03717
v 0.03331 0.02306 0.06023
v 0.02818 0.00513 0.06023
v 0.04869 0.03587 0.03717
v -0.05638 -0.01280 0.04485
v -0.05638 0.03843 0.03717
v -0.02049 0.00770 0.02692
v 0.04869 -0.01280 0.03717
v 0.03331 -0.02306 0.02948
v 0.01793 0.04355 0.02692
v -0.04613 -0.02306 0.03204
v -0.01537 0.00513 0.05510
v -0.05638 -0.01792 0.03461
v 0.04099 0.03843 0.05254
v -0.05638 0.01538 0.03204
v 0.04612 0.03843 0.04485
v -0.02049 0.05382 0.04485
v -0.04357 0.03331 0.03204
v -0.04869 0.03843 0.03461
v -0.01023 -0.02306 0.03973
v 0.03588 -0.02049 0.03717
v 0.04869 0.03331 0.02948
v 0.02562 0.01538 0.06023
v 0.00254 0.04100 0.02692
v -0.03331 -0.01792 0.04485
v -0.02306 -0.01024 0.02692
v 0.04869 0.02818 0.05254
v 0.02050 0.05382 0.04229
v -0.05638 0.03843 0.04229
v 0.03331 -0.02049 0.02692
v -0.05638 -0.01792 0.04229
v 0.04612 -0.00255 0.04998
v -0.05125 0.04100 0.03717
v -0.04613 -0.02049 0.02948
v 0.04869 -0.01537 0.03204
v -0.05125 -0.02049 0.04229
v -0.05381 -0.02562 -0.00128
v 0.04869 0.02563 -0.01152
v 0.04869 0.02050 -0.00897
v 0.00769 -0.03075 -0.02177
v -0.05638 0.02563 -0.01665
v 0.03843 -0.02305 0.00129
v -0.02306 0.02563 0.00129
v -0.05638 -0.02819 -0.02177
v 0.03843 0.01281 -0.02177
v 0.04869 -0.02050 -0.01665
v -0.00257 0.02563 -0.02177
v -0.05381 -0.01280 0.00129
v -0.01794 -0.03075 -0.00128
v 0.03588 0.00512 0.00129
v -0.05381 0.01537 -0.02177
v -0.05638 0.02563 -0.00897
v 0.04869 -0.00768 -0.00128
v -0.05638 -0.03075 -0.01409
v 0.04356 -0.02562 -0.00640
v 0.04869 0.02563 -0.01665
v 0.03843 -0.01537 -0.02177
v -0.04869 -0.02562 0.00129
v -0.01023 0.02563 0.00129
v -0.04357 0.01024 0.00129
v -0.00257 -0.03075 -0.00128
v -0.05638 -0.02305 -0.00128
v 0.03588 -0.02562 -0.01921
v 0.04869 -0.02050 -0.00384
v 0.03331 -0.02562 0.00129
v 0.03074 0.02050 -0.02177
v -0.04357 -0.03075 -0.02177
v 0.04099 -0.00768 -0.02177
v 0.04869 -0.00001 -0.00128
v 0.00769 -0.03075 -0.00897
v 0.00511 -0.02819 0.00129
v -0.04357 0.02563 -0.00384
v -0.05125 0.01793 -0.02177
v -0.05638 0.00768 -0.02177
v 0.04099 -0.02562 -0.01665
v 0.04099 -0.00256 0.00129
v -0.05638 -0.02819 -0.00640
v 0.01025 0.02563 -0.02177
v 0.04869 -0.02305 -0.01409
v -0.05638 -0.00768 -0.00128
v -0.02562 -0.02819 0.00129
v 0.03843 -0.02562 -0.00128
v -0.05638 -0.03075 -0.01921
v -0.05638 0.02563 -0.03203
v -0.00002 0.05638 -0.02947
v -0.00002 0.05638 -0.03459
v 0.04869 0.02820 -0.02434
v -0.04357 0.04613 -0.02178
v -0.01280 0.04613 -0.04228
v 0.04612 0.05125 -0.02434
v -0.05381 0.02563 -0.02178
v -0.05638 0.04613 -0.03203
v 0.01537 0.02563 -0.03459
v 0.04869 0.04869 -0.02947
v 0.00769 0.02563 -0.02178
v 0.04869 0.02820 -0.02947
v -0.00512 0.05125 -0.04228
v -0.02049 0.05638 -0.02690
v 0.00254 0.05125 -0.02178
v -0.01537 0.05638 -0.03715
v -0.05638 0.04613 -0.02434
v -0.04613 0.05125 -0.02434
v -0.01537 0.02563 -0.03459
v 0.04612 0.05125 -0.02947
v 0.03843 0.02563 -0.02690
v -0.04869 0.05125 -0.02947
v -0.00512 0.04613 -0.04228
v -0.01280 0.05125 -0.04228
v 0.01025 0.04357 -0.02178
v -0.02049 0.05125 -0.02178
v -0.00512 0.05638 -0.03715
v -0.05638 0.02563 -0.02434
v 0.04869 0.04869 -0.02434
v -0.04613 0.05125 -0.03203
v -0.00512 0.05638 -0.02690
v -0.02306 0.05638 -0.03203
v -0.01794 0.05381 -0.03971
v -0.05381 0.03332 -0.02178
v 0.03588 0.02563 -0.02434
v -0.00257 0.05381 -0.03971
v -0.05638 0.02563 -0.01152
v -0.00257 0.05126 -0.01921
v -0.00257 0.05126 -0.02177
v 0.03075 0.02563 -0.01665
v -0.00770 0.04357 0.00129
v -0.01536 0.02563 0.00129
v -0.04613 0.04357 -0.00897
v -0.01793 0.02819 -0.02177
v -0.05125 0.03844 -0.01665
v -0.02306 0.04357 0.00129
v 0.01025 0.02563 -0.02177
v 0.03075 0.02819 -0.01409
v -0.01536 0.05126 -0.02177
v -0.05125 0.02563 -0.00640
v -0.00514 0.04869 -0.00640
v -0.05381 0.02563 -0.01665
v -0.04356 0.04613 -0.01152
v -0.02562 0.04613 -0.02177
v -0.05381 0.03588 -0.00897
v 0.00512 0.04357 -0.00640
v 0.01793 0.02563 -0.00897
v 0.01025 0.04100 -0.02177
v -0.04356 0.04613 -0.01665
v -0.01536 0.04869 -0.00640
v -0.00770 0.03332 0.00129
v 0.00256 0.04869 -0.01665
v -0.02306 0.03332 0.00129
v -0.04869 0.03844 -0.00640
v -0.05381 0.03844 -0.01409
v -0.01281 0.05126 -0.01665
v -0.02049 0.04613 -0.00128
v 0.03075 0.02819 -0.01665
v -0.02562 0.03844 -0.02177
v 0.00256 0.04869 -0.02177
v -0.00514 0.02563 -0.02177
v -0.03075 0.02563 -0.00128
v 0.02049 0.03588 -0.01409
v -0.04869 0.04357 -0.01152
v -0.05381 -0.01537 -0.03203
v 0.03843 0.02563 -0.02434
v 0.04869 0.01025 -0.02434
v -0.05638 -0.01537 -0.02178
v -0.05638 0.02563 -0.03203
v 0.04099 -0.01537 -0.03459
v -0.05638 0.02563 -0.02178
v 0.03843 -0.01537 -0.02178
v 0.01537 0.02563 -0.03459
v 0.03588 0.02050 -0.02178
v -0.01023 -0.01537 -0.03459
v 0.03843 0.02563 -0.02946
v 0.04869 -0.01281 -0.02946
v -0.01280 0.02563 -0.03459
v 0.04356 -0.00768 -0.03459
v 0.04869 0.00768 -0.02946
v 0.04869 -0.01281 -0.02434
v 0.00769 0.02563 -0.02178
v -0.05638 -0.01537 -0.02946
v 0.04099 0.01025 -0.02178
v 0.04356 -0.01537 -0.02690
v -0.03076 -0.01537 -0.02178
v -0.05638 -0.04100 -0.03715
v -0.05381 -0.04100 -0.03715
v -0.05638 -0.01537 -0.03203
v -0.05638 -0.02819 -0.02178
v -0.03076 -0.03587 -0.03203
v -0.03076 -0.01537 -0.03203
v -0.03076 -0.03075 -0.02178
v -0.05638 -0.04100 -0.02947
v -0.05638 -0.01537 -0.02178
v -0.04357 -0.03075 -0.03715
v -0.05638 -0.03075 -0.03715
v -0.04101 -0.03587 -0.03715
v -0.03076 -0.03587 -0.02947
v -0.04869 -0.03075 -0.02178
v -0.05638 -0.03844 -0.02690
v -0.05381 -0.04100 -0.02947
v -0.00768 -0.04356 -0.04484
v 0.04357 -0.01537 -0.02691
v 0.04357 -0.01537 -0.03203
v -0.03075 -0.01537 -0.02178
v -0.00256 -0.05638 -0.03459
v -0.03075 -0.01537 -0.03203
v 0.00513 -0.03332 -0.02178
v -0.03075 -0.04869 -0.03715
v -0.03075 -0.03076 -0.02178
v 0.01025 -0.03332 -0.04484
v 0.04100 -0.03076 -0.02947
v 0.00769 -0.01537 -0.03715
v 0.00769 -0.04356 -0.04484
v 0.04100 -0.03076 -0.03459
v 0.04100 -0.01537 -0.02434
v -0.02562 -0.04869 -0.04228
v -0.00512 -0.03332 -0.04484
v -0.01025 -0.05382 -0.03203
v 0.04100 -0.01537 -0.03459
v 0.01281 -0.01537 -0.02178
v -0.00256 -0.05638 -0.03715
v -0.01281 -0.05638 -0.03459
v -0.01793 -0.05125 -0.04228
v 0.02049 -0.03588 -0.04228
v -0.02049 -0.03332 -0.02178
v 0.03843 -0.02050 -0.02434
v -0.02562 -0.04612 -0.04228
v -0.03075 -0.04869 -0.03971
v 0.00257 -0.01537 -0.03715
v 0.00257 -0.04612 -0.04484
v -0.01281 -0.05638 -0.03715
v 0.01281 -0.02307 -0.02178
v 0.00769 -0.04612 -0.04228
f 415 408 424 
f 390 389 394 
f 393 388 396 
f 395 388 397 
f 392 395 399 
f 395 397 399 
f 398 391 400 
f 398 400 401 
f 389 390 402 
f 392 399 403 
f 402 390 404 
f 396 388 405 
f 405 392 406 
f 388 393 407 
f 397 388 407 
f 393 397 407 
f 390 394 408 
f 394 398 408 
f 398 401 408 
f 399 397 409 
f 397 400 409 
f 400 391 409 
f 396 405 410 
f 405 406 410 
f 397 393 411 
f 400 397 411 
f 401 400 411 
f 393 401 411 
f 393 396 412 
f 401 393 412 
f 404 401 412 
f 399 391 413 
f 403 399 413 
f 392 403 414 
f 403 402 414 
f 406 392 414 
f 402 406 414 
f 404 390 415 
f 401 404 415 
f 390 408 415 
f 388 395 416 
f 405 388 416 
f 395 405 416 
f 398 394 417 
f 391 398 417 
f 394 403 417 
f 413 391 417 
f 403 413 417 
f 396 410 418 
f 394 389 419 
f 389 402 419 
f 403 394 419 
f 402 403 419 
f 402 404 420 
f 406 402 420 
f 410 406 420 
f 418 410 420 
f 404 418 420 
f 412 396 421 
f 404 412 421 
f 396 418 421 
f 418 404 421 
f 395 392 422 
f 405 395 422 
f 392 405 422 
f 391 399 423 
f 409 391 423 
f 399 409 423 
f 408 401 424 
f 401 415 424 
