# Original object name hint: convex_2
v 0.07431 0.01281 0.06278
v 0.06407 -0.03844 -0.03970
v 0.07431 -0.03844 -0.03970
v 0.06919 0.05382 -0.03714
v 0.04869 0.03330 0.04996
v 0.04869 0.04613 -0.03202
v 0.04869 -0.02049 0.01922
v 0.07944 0.04099 0.04228
v 0.07688 -0.03075 0.01922
v 0.08201 0.02306 -0.03714
v 0.05895 -0.03075 -0.04995
v 0.07431 0.04613 -0.04995
v 0.06919 0.04869 0.04484
v 0.04869 0.00001 0.04996
v 0.08201 -0.01793 -0.00896
v 0.04869 -0.01537 -0.02946
v 0.07688 -0.03075 -0.04995
v 0.06919 -0.02562 0.03716
v 0.07944 0.00257 0.04996
v 0.07944 0.04869 -0.03458
v 0.06663 0.01024 -0.05507
v 0.05895 -0.03844 -0.02690
v 0.04869 0.04869 -0.02432
v 0.08201 0.02562 0.01410
v 0.07431 0.03330 0.06021
v 0.07431 0.05382 -0.00127
v 0.07431 0.00001 0.06021
v 0.06919 -0.03587 0.00897
v 0.07944 -0.03331 -0.03458
v 0.05382 -0.03331 -0.03714
v 0.07175 -0.02818 -0.05507
v 0.06663 0.04356 -0.04995
v 0.07688 -0.03844 -0.01152
v 0.06407 0.05382 -0.01152
v 0.08201 0.03844 -0.01152
v 0.07688 0.04613 0.04740
v 0.07944 -0.02818 0.01153
v 0.08201 -0.00768 -0.03458
v 0.07688 -0.02306 0.03460
v 0.04869 -0.01281 0.03716
v 0.04869 0.02049 0.05253
v 0.07944 0.02306 0.05253
v 0.06919 0.03330 0.06021
v 0.07175 0.00514 0.06278
v 0.04869 0.03588 0.04484
v 0.08201 0.01024 0.02178
v 0.06407 -0.03587 0.00385
v 0.07431 0.02562 -0.05251
v 0.06407 -0.01537 -0.05507
v 0.04869 -0.02306 -0.01664
v 0.07688 0.04613 -0.04739
v 0.06663 -0.03075 0.02434
v 0.07431 0.05382 -0.03714
v 0.06919 0.03844 0.05765
v 0.06919 -0.00256 0.05765
v 0.07431 -0.02562 0.03716
v 0.07944 -0.02562 -0.04482
v 0.05639 -0.03587 -0.01920
v 0.07944 0.02049 -0.04482
v 0.07944 -0.02049 0.02690
v 0.06407 -0.03587 -0.04739
v 0.06919 0.04869 -0.04739
v 0.06407 -0.03844 -0.00896
v 0.07944 -0.03331 -0.00639
v -0.08201 0.00001 0.03204
v -0.05895 0.03843 0.04485
v -0.05895 0.04100 0.04229
v -0.05638 -0.02305 0.00642
v -0.07432 0.04869 0.00129
v -0.07944 -0.02305 0.00129
v -0.06151 -0.02305 0.04229
v -0.07944 0.03330 0.04229
v -0.06151 0.04612 0.00129
v -0.07688 -0.02305 0.04229
v -0.07944 0.03843 0.00129
v -0.06407 -0.02818 0.00129
v -0.05638 -0.01280 0.04485
v -0.05638 0.03330 0.01154
v -0.07688 -0.00255 0.04485
v -0.07432 0.04100 0.04229
v -0.05638 0.03843 0.04229
v -0.08201 0.02306 0.03972
v -0.07432 -0.02818 0.00642
v -0.06407 -0.02561 0.03972
v -0.08201 -0.00255 0.03972
v -0.06663 0.04869 0.00898
v -0.05895 -0.02305 0.00129
v -0.07432 0.03330 0.04485
v -0.07944 -0.02049 0.03716
v -0.05638 0.01026 0.00642
v -0.07944 0.03587 0.03972
v -0.05638 -0.02305 0.01923
v -0.07175 -0.01792 0.04485
v -0.08201 0.01537 0.02947
v -0.07432 -0.02561 0.03972
v -0.05638 -0.01792 0.04229
v -0.06407 0.04869 0.00642
v -0.05895 -0.02561 0.01411
v -0.05638 0.03587 0.04485
v -0.07175 0.04869 0.00898
v -0.07432 -0.02818 0.00129
v -0.06663 -0.02818 0.00898
v -0.07688 -0.02561 0.01411
v -0.07432 0.04869 0.00385
v -0.07944 -0.01280 0.04229
v -0.05638 0.02818 0.00898
v -0.02819 0.03075 -0.06022
v -0.07945 -0.02818 -0.04997
v -0.07688 -0.03075 -0.05509
v -0.07688 0.04613 -0.05509
v -0.06406 0.04613 -0.04740
v -0.02819 -0.03331 -0.05765
v -0.07175 -0.00255 -0.06278
v -0.06150 -0.03331 -0.04740
v -0.02819 -0.03331 -0.06278
v -0.06919 0.03332 -0.06278
v -0.07945 0.04357 -0.04740
v -0.03075 0.03075 -0.06278
v -0.02819 0.03075 -0.05765
v -0.05638 -0.03587 -0.06022
v -0.04357 0.04357 -0.05765
v -0.07175 -0.03587 -0.04740
v -0.07945 0.01794 -0.05509
v -0.06663 0.04613 -0.06022
v -0.04357 -0.03844 -0.05509
v -0.07175 -0.02818 -0.06022
v -0.07431 0.04100 -0.06022
v -0.06663 0.04869 -0.04740
v -0.07945 -0.02818 -0.04740
v -0.06919 -0.03587 -0.05765
v -0.07688 -0.02562 -0.05765
v -0.06919 -0.01281 -0.06278
v -0.06663 0.04869 -0.05765
v -0.07688 0.04869 -0.04740
v -0.05382 -0.03844 -0.05765
v -0.04357 0.04357 -0.05509
v -0.06150 -0.01794 -0.04740
v -0.03332 -0.03331 -0.06278
v -0.07945 0.04100 -0.05253
v -0.07175 0.04869 -0.05765
v -0.07688 -0.03331 -0.04997
v -0.07945 -0.02562 -0.05253
v -0.05382 0.04357 -0.06022
v -0.06919 -0.03075 -0.06022
v -0.06406 -0.03587 -0.04740
v -0.07688 0.04100 -0.05765
v -0.06406 0.04869 -0.04997
v 0.00256 -0.03844 -0.06278
v -0.02050 -0.01794 -0.05766
v -0.02050 -0.01794 -0.06278
v -0.02819 -0.03331 -0.05766
v 0.01537 -0.03331 -0.05509
v 0.00512 -0.02307 -0.06278
v -0.01025 -0.04100 -0.05509
v -0.02819 -0.03331 -0.06278
v -0.02819 -0.01794 -0.05766
v 0.00512 -0.02307 -0.05766
v -0.01281 -0.04100 -0.06022
v 0.00512 -0.04100 -0.05509
v 0.01281 -0.03587 -0.06022
v -0.00768 -0.02819 -0.05509
v -0.02819 -0.01794 -0.06278
v 0.00512 -0.04100 -0.06022
v 0.00256 -0.02819 -0.05509
v -0.01281 -0.03075 -0.05509
v 0.01537 -0.03587 -0.05766
v -0.01281 -0.03844 -0.06278
v 0.00768 -0.03331 -0.06278
v 0.01281 -0.03075 -0.06022
v -0.07688 -0.03587 -0.03971
v -0.06407 0.04868 0.00128
v -0.07432 0.04868 0.00128
v -0.06919 0.05124 -0.04740
v -0.05638 -0.04098 -0.02690
v -0.07944 -0.02306 0.00128
v -0.08201 0.03844 -0.03971
v -0.05638 0.04868 -0.03202
v -0.05638 -0.02306 0.00128
v -0.06151 -0.03330 -0.04740
v -0.07944 -0.02817 -0.04740
v -0.08201 0.01794 -0.00385
v -0.08201 -0.02817 -0.03715
v -0.07175 0.05636 -0.02433
v -0.06919 -0.04098 -0.02178
v -0.07944 0.04355 -0.04740
v -0.05638 -0.04098 -0.03715
v -0.06407 0.04868 -0.04740
v -0.06151 0.04612 0.00128
v -0.07944 0.03844 0.00128
v -0.06407 -0.02817 0.00128
v -0.05638 0.04868 -0.02433
v -0.06407 0.05636 -0.03202
v -0.07944 0.04612 -0.01666
v -0.08201 -0.02817 -0.02690
v -0.07688 0.05124 -0.04227
v -0.08201 0.03587 -0.01153
v -0.05638 0.01024 -0.00641
v -0.06919 -0.04098 -0.03715
v -0.07688 -0.02817 -0.00128
v -0.06919 -0.03587 -0.04740
v -0.07432 -0.03843 -0.02433
v -0.08201 -0.02306 -0.04227
v -0.08201 -0.01537 -0.01153
v -0.06151 0.05381 -0.01922
v -0.06151 -0.02049 -0.04740
v -0.06663 0.05636 -0.02178
v -0.07688 0.05124 -0.01922
v -0.07944 -0.03330 -0.02690
v -0.06919 0.05636 -0.03458
v -0.06151 -0.04098 -0.02178
v -0.07432 -0.02817 0.00128
v -0.05638 -0.01280 0.00128
v -0.07688 -0.03330 -0.04740
v -0.08201 0.03331 -0.04227
v -0.05638 -0.02817 -0.03715
v -0.07432 0.05124 -0.04740
v -0.07688 0.04612 0.00128
v -0.07175 -0.04098 -0.03458
v -0.07944 0.04612 -0.04484
v -0.05638 -0.02561 -0.00128
v -0.08201 0.00769 -0.00385
v -0.07944 -0.03330 -0.03971
v -0.08201 0.03844 -0.01666
v -0.02049 -0.02818 0.01154
v -0.00767 0.04357 0.01410
v 0.02050 0.04100 0.02691
v 0.03843 -0.01024 0.00129
v 0.04869 -0.01536 0.02691
v -0.05125 -0.01536 0.02435
v -0.05638 0.03074 0.00898
v -0.04869 -0.02305 0.00129
v -0.01023 0.04357 0.00129
v 0.04869 0.03074 0.01922
v -0.05638 0.03587 0.01666
v 0.03588 -0.02305 0.00129
v 0.03331 -0.02305 0.02691
v -0.05638 -0.02305 0.01922
v 0.04869 0.00257 0.00642
v -0.04869 0.01281 0.02435
v -0.01537 -0.02305 0.02691
v 0.04869 0.03074 0.02691
v 0.00511 0.04100 0.02691
v -0.02049 0.04357 0.00129
v 0.00511 -0.02818 0.00129
v 0.04869 0.02306 0.01154
v 0.04869 -0.02049 0.01154
v -0.04869 0.04100 0.01410
v -0.05638 -0.02049 0.00642
v 0.03074 -0.02562 0.01922
v -0.02562 -0.00512 0.02691
v 0.03843 -0.00255 0.00129
v -0.04613 -0.02562 0.00129
v -0.00767 -0.02562 0.02435
v -0.05638 0.01537 0.02178
v -0.05638 0.01281 0.00642
v -0.03843 0.03331 0.02178
v -0.05125 0.03843 0.00898
v -0.02562 0.04357 0.01410
v -0.04613 -0.02562 0.01666
v 0.01793 0.04100 0.01922
v -0.04869 -0.01536 0.00129
v 0.04869 -0.01024 0.00642
v -0.00767 -0.02818 0.01410
v 0.04869 -0.02049 0.01922
v -0.05638 -0.02049 0.02178
v -0.02049 -0.02818 0.00129
v 0.03074 -0.02562 0.01154
v -0.05125 0.03331 0.01922
v 0.02562 -0.02562 0.02178
v -0.04869 -0.02562 0.00642
v -0.05125 0.03843 0.01666
v -0.05125 0.00769 0.02435
v -0.05638 -0.02305 0.00898
v -0.04869 0.04100 0.01154
v -0.02562 -0.01280 0.02691
v -0.04613 -0.02305 0.02178
v -0.04357 -0.02049 0.02435
v -0.00002 -0.02818 0.01154
v 0.04869 -0.01793 0.00898
v -0.05638 0.03587 0.01154
v 0.04099 -0.02305 0.01154
v -0.01794 -0.02049 0.02692
v 0.02050 0.05382 0.04741
v 0.04099 0.02306 0.06023
v -0.05638 0.03587 0.04485
v 0.04869 0.03075 0.02692
v -0.05381 -0.01537 0.04485
v 0.03331 -0.02306 0.03461
v -0.05381 0.03587 0.03461
v 0.04099 0.00513 0.06023
v 0.00769 0.04355 0.02692
v 0.04869 -0.01537 0.02692
v -0.04869 -0.01792 0.02948
v -0.01537 0.05382 0.04741
v -0.01537 0.01026 0.05510
v 0.04869 0.03331 0.04998
v -0.04869 -0.02306 0.03973
v -0.04869 0.01282 0.02948
v -0.01794 0.05382 0.03973
v -0.05638 -0.01024 0.03204
v 0.04869 0.00257 0.05254
v 0.01793 0.05382 0.03973
v -0.02306 -0.01792 0.04485
v -0.01023 -0.02306 0.02692
v 0.02818 -0.02306 0.03717
v 0.03331 0.02306 0.06023
v 0.02818 0.00513 0.06023
v 0.04869 0.03587 0.03717
v -0.05638 -0.01280 0.04485
v -0.05638 0.03843 0.03717
v -0.02049 0.00770 0.02692
v 0.04869 -0.01280 0.03717
v 0.03331 -0.02306 0.02948
v 0.01793 0.04355 0.02692
v -0.04613 -0.02306 0.03204
v -0.01537 0.00513 0.05510
v -0.05638 -0.01792 0.03461
v 0.04099 0.03843 0.05254
v -0.05638 0.01538 0.03204
v 0.04612 0.03843 0.04485
v -0.02049 0.05382 0.04485
v -0.04357 0.03331 0.03204
v -0.04869 0.03843 0.03461
v -0.01023 -0.02306 0.03973
v 0.03588 -0.02049 0.03717
v 0.04869 0.03331 0.02948
v 0.02562 0.01538 0.06023
v 0.00254 0.04100 0.02692
v -0.03331 -0.01792 0.04485
v -0.02306 -0.01024 0.02692
v 0.04869 0.02818 0.05254
v 0.02050 0.05382 0.04229
v -0.05638 0.03843 0.04229
v 0.03331 -0.02049 0.02692
v -0.05638 -0.01792 0.04229
v 0.04612 -0.00255 0.04998
v -0.05125 0.04100 0.03717
v -0.04613 -0.02049 0.02948
v 0.04869 -0.01537 0.03204
v -0.05125 -0.02049 0.04229
v -0.05381 -0.02562 -0.00128
v 0.04869 0.02563 -0.01152
v 0.04869 0.02050 -0.00897
v 0.00769 -0.03075 -0.02177
v -0.05638 0.02563 -0.01665
v 0.03843 -0.02305 0.00129
v -0.02306 0.02563 0.00129
v -0.05638 -0.02819 -0.02177
v 0.03843 0.01281 -0.02177
v 0.04869 -0.02050 -0.01665
v -0.00257 0.02563 -0.02177
v -0.05381 -0.01280 0.00129
v -0.01794 -0.03075 -0.00128
v 0.03588 0.00512 0.00129
v -0.05381 0.01537 -0.02177
v -0.05638 0.02563 -0.00897
v 0.04869 -0.00768 -0.00128
v -0.05638 -0.03075 -0.01409
v 0.04356 -0.02562 -0.00640
v 0.04869 0.02563 -0.01665
v 0.03843 -0.01537 -0.02177
v -0.04869 -0.02562 0.00129
v -0.01023 0.02563 0.00129
v -0.04357 0.01024 0.00129
v -0.00257 -0.03075 -0.00128
v -0.05638 -0.02305 -0.00128
v 0.03588 -0.02562 -0.01921
v 0.04869 -0.02050 -0.00384
v 0.03331 -0.02562 0.00129
v 0.03074 0.02050 -0.02177
v -0.04357 -0.03075 -0.02177
v 0.04099 -0.00768 -0.02177
v 0.04869 -0.00001 -0.00128
v 0.00769 -0.03075 -0.00897
v 0.00511 -0.02819 0.00129
v -0.04357 0.02563 -0.00384
v -0.05125 0.01793 -0.02177
v -0.05638 0.00768 -0.02177
v 0.04099 -0.02562 -0.01665
v 0.04099 -0.00256 0.00129
v -0.05638 -0.02819 -0.00640
v 0.01025 0.02563 -0.02177
v 0.04869 -0.02305 -0.01409
v -0.05638 -0.00768 -0.00128
v -0.02562 -0.02819 0.00129
v 0.03843 -0.02562 -0.00128
v -0.05638 -0.03075 -0.01921
v -0.05638 0.02563 -0.03203
v -0.00002 0.05638 -0.02947
v -0.00002 0.05638 -0.03459
v 0.04869 0.02820 -0.02434
v -0.04357 0.04613 -0.02178
v -0.01280 0.04613 -0.04228
v 0.04612 0.05125 -0.02434
v -0.05381 0.02563 -0.02178
v -0.05638 0.04613 -0.03203
v 0.01537 0.02563 -0.03459
v 0.04869 0.04869 -0.02947
v 0.00769 0.02563 -0.02178
v 0.04869 0.02820 -0.02947
v -0.00512 0.05125 -0.04228
v -0.02049 0.05638 -0.02690
v 0.00254 0.05125 -0.02178
v -0.01537 0.05638 -0.03715
v -0.05638 0.04613 -0.02434
v -0.04613 0.05125 -0.02434
v -0.01537 0.02563 -0.03459
v 0.04612 0.05125 -0.02947
v 0.03843 0.02563 -0.02690
v -0.04869 0.05125 -0.02947
v -0.00512 0.04613 -0.04228
v -0.01280 0.05125 -0.04228
v 0.01025 0.04357 -0.02178
v -0.02049 0.05125 -0.02178
v -0.00512 0.05638 -0.03715
v -0.05638 0.02563 -0.02434
v 0.04869 0.04869 -0.02434
v -0.04613 0.05125 -0.03203
v -0.00512 0.05638 -0.02690
v -0.02306 0.05638 -0.03203
v -0.01794 0.05381 -0.03971
v -0.05381 0.03332 -0.02178
v 0.03588 0.02563 -0.02434
v -0.00257 0.05381 -0.03971
v -0.05638 0.02563 -0.01152
v -0.00257 0.05126 -0.01921
v -0.00257 0.05126 -0.02177
v 0.03075 0.02563 -0.01665
v -0.00770 0.04357 0.00129
v -0.01536 0.02563 0.00129
v -0.04613 0.04357 -0.00897
v -0.01793 0.02819 -0.02177
v -0.05125 0.03844 -0.01665
v -0.02306 0.04357 0.00129
v 0.01025 0.02563 -0.02177
v 0.03075 0.02819 -0.01409
v -0.01536 0.05126 -0.02177
v -0.05125 0.02563 -0.00640
v -0.00514 0.04869 -0.00640
v -0.05381 0.02563 -0.01665
v -0.04356 0.04613 -0.01152
v -0.02562 0.04613 -0.02177
v -0.05381 0.03588 -0.00897
v 0.00512 0.04357 -0.00640
v 0.01793 0.02563 -0.00897
v 0.01025 0.04100 -0.02177
v -0.04356 0.04613 -0.01665
v -0.01536 0.04869 -0.00640
v -0.00770 0.03332 0.00129
v 0.00256 0.04869 -0.01665
v -0.02306 0.03332 0.00129
v -0.04869 0.03844 -0.00640
v -0.05381 0.03844 -0.01409
v -0.01281 0.05126 -0.01665
v -0.02049 0.04613 -0.00128
v 0.03075 0.02819 -0.01665
v -0.02562 0.03844 -0.02177
v 0.00256 0.04869 -0.02177
v -0.00514 0.02563 -0.02177
v -0.03075 0.02563 -0.00128
v 0.02049 0.03588 -0.01409
v -0.04869 0.04357 -0.01152
v -0.05381 -0.01537 -0.03203
v 0.03843 0.02563 -0.02434
v 0.04869 0.01025 -0.02434
v -0.05638 -0.01537 -0.02178
v -0.05638 0.02563 -0.03203
v 0.04099 -0.01537 -0.03459
v -0.05638 0.02563 -0.02178
v 0.03843 -0.01537 -0.02178
v 0.01537 0.02563 -0.03459
v 0.03588 0.02050 -0.02178
v -0.01023 -0.01537 -0.03459
v 0.03843 0.02563 -0.02946
v 0.04869 -0.01281 -0.02946
v -0.01280 0.02563 -0.03459
v 0.04356 -0.00768 -0.03459
v 0.04869 0.00768 -0.02946
v 0.04869 -0.01281 -0.02434
v 0.00769 0.02563 -0.02178
v -0.05638 -0.01537 -0.02946
v 0.04099 0.01025 -0.02178
v 0.04356 -0.01537 -0.02690
v -0.03076 -0.01537 -0.02178
v -0.05638 -0.04100 -0.03715
v -0.05381 -0.04100 -0.03715
v -0.05638 -0.01537 -0.03203
v -0.05638 -0.02819 -0.02178
v -0.03076 -0.03587 -0.03203
v -0.03076 -0.01537 -0.03203
v -0.03076 -0.03075 -0.02178
v -0.05638 -0.04100 -0.02947
v -0.05638 -0.01537 -0.02178
v -0.04357 -0.03075 -0.03715
v -0.05638 -0.03075 -0.03715
v -0.04101 -0.03587 -0.03715
v -0.03076 -0.03587 -0.02947
v -0.04869 -0.03075 -0.02178
v -0.05638 -0.03844 -0.02690
v -0.05381 -0.04100 -0.02947
v -0.00768 -0.04356 -0.04484
v 0.04357 -0.01537 -0.02691
v 0.04357 -0.01537 -0.03203
v -0.03075 -0.01537 -0.02178
v -0.00256 -0.05638 -0.03459
v -0.03075 -0.01537 -0.03203
v 0.00513 -0.03332 -0.02178
v -0.03075 -0.04869 -0.03715
v -0.03075 -0.03076 -0.02178
v 0.01025 -0.03332 -0.04484
v 0.04100 -0.03076 -0.02947
v 0.00769 -0.01537 -0.03715
v 0.00769 -0.04356 -0.04484
v 0.04100 -0.03076 -0.03459
v 0.04100 -0.01537 -0.02434
v -0.02562 -0.04869 -0.04228
v -0.00512 -0.03332 -0.04484
v -0.01025 -0.05382 -0.03203
v 0.04100 -0.01537 -0.03459
v 0.01281 -0.01537 -0.02178
v -0.00256 -0.05638 -0.03715
v -0.01281 -0.05638 -0.03459
v -0.01793 -0.05125 -0.04228
v 0.02049 -0.03588 -0.04228
v -0.02049 -0.03332 -0.02178
v 0.03843 -0.02050 -0.02434
v -0.02562 -0.04612 -0.04228
v -0.03075 -0.04869 -0.03971
v 0.00257 -0.01537 -0.03715
v 0.00257 -0.04612 -0.04484
v -0.01281 -0.05638 -0.03715
v 0.01281 -0.02307 -0.02178
v 0.00769 -0.04612 -0.04228
f 128 136 147 
f 107 112 115 
f 115 113 116 
f 114 111 117 
f 107 115 118 
f 115 116 118 
f 112 107 119 
f 114 112 119 
f 107 118 121 
f 119 107 121 
f 114 117 122 
f 108 117 123 
f 118 116 124 
f 115 112 125 
f 116 113 127 
f 124 116 127 
f 117 111 128 
f 117 108 129 
f 122 117 129 
f 109 126 130 
f 126 109 131 
f 113 126 131 
f 113 115 132 
f 126 113 132 
f 128 133 134 
f 110 117 134 
f 117 128 134 
f 115 125 135 
f 125 122 135 
f 122 130 135 
f 130 120 135 
f 111 119 136 
f 119 121 136 
f 128 111 136 
f 111 114 137 
f 119 111 137 
f 114 119 137 
f 132 115 138 
f 115 135 138 
f 135 120 138 
f 117 110 139 
f 123 117 139 
f 127 110 140 
f 124 127 140 
f 133 124 140 
f 134 133 140 
f 110 134 140 
f 108 109 141 
f 129 108 141 
f 122 129 141 
f 109 130 141 
f 130 122 141 
f 109 108 142 
f 108 123 142 
f 131 109 142 
f 123 131 142 
f 121 118 143 
f 118 124 143 
f 124 133 143 
f 133 121 143 
f 120 130 144 
f 130 126 144 
f 126 132 144 
f 138 120 144 
f 132 138 144 
f 112 114 145 
f 114 122 145 
f 125 112 145 
f 122 125 145 
f 127 113 146 
f 110 127 146 
f 131 123 146 
f 113 131 146 
f 139 110 146 
f 123 139 146 
f 121 133 147 
f 133 128 147 
f 136 121 147 
