# Original object name hint: convex_6
v 0.07431 0.01281 0.06278
v 0.06407 -0.03844 -0.03970
v 0.07431 -0.03844 -0.03970
v 0.06919 0.05382 -0.03714
v 0.04869 0.03330 0.04996
v 0.04869 0.04613 -0.03202
v 0.04869 -0.02049 0.01922
v 0.07944 0.04099 0.04228
v 0.07688 -0.03075 0.01922
v 0.08201 0.02306 -0.03714
v 0.05895 -0.03075 -0.04995
v 0.07431 0.04613 -0.04995
v 0.06919 0.04869 0.04484
v 0.04869 0.00001 0.04996
v 0.08201 -0.01793 -0.00896
v 0.04869 -0.01537 -0.02946
v 0.07688 -0.03075 -0.04995
v 0.06919 -0.02562 0.03716
v 0.07944 0.00257 0.04996
v 0.07944 0.04869 -0.03458
v 0.06663 0.01024 -0.05507
v 0.05895 -0.03844 -0.02690
v 0.04869 0.04869 -0.02432
v 0.08201 0.02562 0.01410
v 0.07431 0.03330 0.06021
v 0.07431 0.05382 -0.00127
v 0.07431 0.00001 0.06021
v 0.06919 -0.03587 0.00897
v 0.07944 -0.03331 -0.03458
v 0.05382 -0.03331 -0.03714
v 0.07175 -0.02818 -0.05507
v 0.06663 0.04356 -0.04995
v 0.07688 -0.03844 -0.01152
v 0.06407 0.05382 -0.01152
v 0.08201 0.03844 -0.01152
v 0.07688 0.04613 0.04740
v 0.07944 -0.02818 0.01153
v 0.08201 -0.00768 -0.03458
v 0.07688 -0.02306 0.03460
v 0.04869 -0.01281 0.03716
v 0.04869 0.02049 0.05253
v 0.07944 0.02306 0.05253
v 0.06919 0.03330 0.06021
v 0.07175 0.00514 0.06278
v 0.04869 0.03588 0.04484
v 0.08201 0.01024 0.02178
v 0.06407 -0.03587 0.00385
v 0.07431 0.02562 -0.05251
v 0.06407 -0.01537 -0.05507
v 0.04869 -0.02306 -0.01664
v 0.07688 0.04613 -0.04739
v 0.06663 -0.03075 0.02434
v 0.07431 0.05382 -0.03714
v 0.06919 0.03844 0.05765
v 0.06919 -0.00256 0.05765
v 0.07431 -0.02562 0.03716
v 0.07944 -0.02562 -0.04482
v 0.05639 -0.03587 -0.01920
v 0.07944 0.02049 -0.04482
v 0.07944 -0.02049 0.02690
v 0.06407 -0.03587 -0.04739
v 0.06919 0.04869 -0.04739
v 0.06407 -0.03844 -0.00896
v 0.07944 -0.03331 -0.00639
v -0.08201 0.00001 0.03204
v -0.05895 0.03843 0.04485
v -0.05895 0.04100 0.04229
v -0.05638 -0.02305 0.00642
v -0.07432 0.04869 0.00129
v -0.07944 -0.02305 0.00129
v -0.06151 -0.02305 0.04229
v -0.07944 0.03330 0.04229
v -0.06151 0.04612 0.00129
v -0.07688 -0.02305 0.04229
v -0.07944 0.03843 0.00129
v -0.06407 -0.02818 0.00129
v -0.05638 -0.01280 0.04485
v -0.05638 0.03330 0.01154
v -0.07688 -0.00255 0.04485
v -0.07432 0.04100 0.04229
v -0.05638 0.03843 0.04229
v -0.08201 0.02306 0.03972
v -0.07432 -0.02818 0.00642
v -0.06407 -0.02561 0.03972
v -0.08201 -0.00255 0.03972
v -0.06663 0.04869 0.00898
v -0.05895 -0.02305 0.00129
v -0.07432 0.03330 0.04485
v -0.07944 -0.02049 0.03716
v -0.05638 0.01026 0.00642
v -0.07944 0.03587 0.03972
v -0.05638 -0.02305 0.01923
v -0.07175 -0.01792 0.04485
v -0.08201 0.01537 0.02947
v -0.07432 -0.02561 0.03972
v -0.05638 -0.01792 0.04229
v -0.06407 0.04869 0.00642
v -0.05895 -0.02561 0.01411
v -0.05638 0.03587 0.04485
v -0.07175 0.04869 0.00898
v -0.07432 -0.02818 0.00129
v -0.06663 -0.02818 0.00898
v -0.07688 -0.02561 0.01411
v -0.07432 0.04869 0.00385
v -0.07944 -0.01280 0.04229
v -0.05638 0.02818 0.00898
v -0.02819 0.03075 -0.06022
v -0.07945 -0.02818 -0.04997
v -0.07688 -0.03075 -0.05509
v -0.07688 0.04613 -0.05509
v -0.06406 0.04613 -0.04740
v -0.02819 -0.03331 -0.05765
v -0.07175 -0.00255 -0.06278
v -0.06150 -0.03331 -0.04740
v -0.02819 -0.03331 -0.06278
v -0.06919 0.03332 -0.06278
v -0.07945 0.04357 -0.04740
v -0.03075 0.03075 -0.06278
v -0.02819 0.03075 -0.05765
v -0.05638 -0.03587 -0.06022
v -0.04357 0.04357 -0.05765
v -0.07175 -0.03587 -0.04740
v -0.07945 0.01794 -0.05509
v -0.06663 0.04613 -0.06022
v -0.04357 -0.03844 -0.05509
v -0.07175 -0.02818 -0.06022
v -0.07431 0.04100 -0.06022
v -0.06663 0.04869 -0.04740
v -0.07945 -0.02818 -0.04740
v -0.06919 -0.03587 -0.05765
v -0.07688 -0.02562 -0.05765
v -0.06919 -0.01281 -0.06278
v -0.06663 0.04869 -0.05765
v -0.07688 0.04869 -0.04740
v -0.05382 -0.03844 -0.05765
v -0.04357 0.04357 -0.05509
v -0.06150 -0.01794 -0.04740
v -0.03332 -0.03331 -0.06278
v -0.07945 0.04100 -0.05253
v -0.07175 0.04869 -0.05765
v -0.07688 -0.03331 -0.04997
v -0.07945 -0.02562 -0.05253
v -0.05382 0.04357 -0.06022
v -0.06919 -0.03075 -0.06022
v -0.06406 -0.03587 -0.04740
v -0.07688 0.04100 -0.05765
v -0.06406 0.04869 -0.04997
v 0.00256 -0.03844 -0.06278
v -0.02050 -0.01794 -0.05766
v -0.02050 -0.01794 -0.06278
v -0.02819 -0.03331 -0.05766
v 0.01537 -0.03331 -0.05509
v 0.00512 -0.02307 -0.06278
v -0.01025 -0.04100 -0.05509
v -0.02819 -0.03331 -0.06278
v -0.02819 -0.01794 -0.05766
v 0.00512 -0.02307 -0.05766
v -0.01281 -0.04100 -0.06022
v 0.00512 -0.04100 -0.05509
v 0.01281 -0.03587 -0.06022
v -0.00768 -0.02819 -0.05509
v -0.02819 -0.01794 -0.06278
v 0.00512 -0.04100 -0.06022
v 0.00256 -0.02819 -0.05509
v -0.01281 -0.03075 -0.05509
v 0.01537 -0.03587 -0.05766
v -0.01281 -0.03844 -0.06278
v 0.00768 -0.03331 -0.06278
v 0.01281 -0.03075 -0.06022
v -0.07688 -0.03587 -0.03971
v -0.06407 0.04868 0.00128
v -0.07432 0.04868 0.00128
v -0.06919 0.05124 -0.04740
v -0.05638 -0.04098 -0.02690
v -0.07944 -0.02306 0.00128
v -0.08201 0.03844 -0.03971
v -0.05638 0.04868 -0.03202
v -0.05638 -0.02306 0.00128
v -0.06151 -0.03330 -0.04740
v -0.07944 -0.02817 -0.04740
v -0.08201 0.01794 -0.00385
v -0.08201 -0.02817 -0.03715
v -0.07175 0.05636 -0.02433
v -0.06919 -0.04098 -0.02178
v -0.07944 0.04355 -0.04740
v -0.05638 -0.04098 -0.03715
v -0.06407 0.04868 -0.04740
v -0.06151 0.04612 0.00128
v -0.07944 0.03844 0.00128
v -0.06407 -0.02817 0.00128
v -0.05638 0.04868 -0.02433
v -0.06407 0.05636 -0.03202
v -0.07944 0.04612 -0.01666
v -0.08201 -0.02817 -0.02690
v -0.07688 0.05124 -0.04227
v -0.08201 0.03587 -0.01153
v -0.05638 0.01024 -0.00641
v -0.06919 -0.04098 -0.03715
v -0.07688 -0.02817 -0.00128
v -0.06919 -0.03587 -0.04740
v -0.07432 -0.03843 -0.02433
v -0.08201 -0.02306 -0.04227
v -0.08201 -0.01537 -0.01153
v -0.06151 0.05381 -0.01922
v -0.06151 -0.02049 -0.04740
v -0.06663 0.05636 -0.02178
v -0.07688 0.05124 -0.01922
v -0.07944 -0.03330 -0.02690
v -0.06919 0.05636 -0.03458
v -0.06151 -0.04098 -0.02178
v -0.07432 -0.02817 0.00128
v -0.05638 -0.01280 0.00128
v -0.07688 -0.03330 -0.04740
v -0.08201 0.03331 -0.04227
v -0.05638 -0.02817 -0.03715
v -0.07432 0.05124 -0.04740
v -0.07688 0.04612 0.00128
v -0.07175 -0.04098 -0.03458
v -0.07944 0.04612 -0.04484
v -0.05638 -0.02561 -0.00128
v -0.08201 0.00769 -0.00385
v -0.07944 -0.03330 -0.03971
v -0.08201 0.03844 -0.01666
v -0.02049 -0.02818 0.01154
v -0.00767 0.04357 0.01410
v 0.02050 0.04100 0.02691
v 0.03843 -0.01024 0.00129
v 0.04869 -0.01536 0.02691
v -0.05125 -0.01536 0.02435
v -0.05638 0.03074 0.00898
v -0.04869 -0.02305 0.00129
v -0.01023 0.04357 0.00129
v 0.04869 0.03074 0.01922
v -0.05638 0.03587 0.01666
v 0.03588 -0.02305 0.00129
v 0.03331 -0.02305 0.02691
v -0.05638 -0.02305 0.01922
v 0.04869 0.00257 0.00642
v -0.04869 0.01281 0.02435
v -0.01537 -0.02305 0.02691
v 0.04869 0.03074 0.02691
v 0.00511 0.04100 0.02691
v -0.02049 0.04357 0.00129
v 0.00511 -0.02818 0.00129
v 0.04869 0.02306 0.01154
v 0.04869 -0.02049 0.01154
v -0.04869 0.04100 0.01410
v -0.05638 -0.02049 0.00642
v 0.03074 -0.02562 0.01922
v -0.02562 -0.00512 0.02691
v 0.03843 -0.00255 0.00129
v -0.04613 -0.02562 0.00129
v -0.00767 -0.02562 0.02435
v -0.05638 0.01537 0.02178
v -0.05638 0.01281 0.00642
v -0.03843 0.03331 0.02178
v -0.05125 0.03843 0.00898
v -0.02562 0.04357 0.01410
v -0.04613 -0.02562 0.01666
v 0.01793 0.04100 0.01922
v -0.04869 -0.01536 0.00129
v 0.04869 -0.01024 0.00642
v -0.00767 -0.02818 0.01410
v 0.04869 -0.02049 0.01922
v -0.05638 -0.02049 0.02178
v -0.02049 -0.02818 0.00129
v 0.03074 -0.02562 0.01154
v -0.05125 0.03331 0.01922
v 0.02562 -0.02562 0.02178
v -0.04869 -0.02562 0.00642
v -0.05125 0.03843 0.01666
v -0.05125 0.00769 0.02435
v -0.05638 -0.02305 0.00898
v -0.04869 0.04100 0.01154
v -0.02562 -0.01280 0.02691
v -0.04613 -0.02305 0.02178
v -0.04357 -0.02049 0.02435
v -0.00002 -0.02818 0.01154
v 0.04869 -0.01793 0.00898
v -0.05638 0.03587 0.01154
v 0.04099 -0.02305 0.01154
v -0.01794 -0.02049 0.02692
v 0.02050 0.05382 0.04741
v 0.04099 0.02306 0.06023
v -0.05638 0.03587 0.04485
v 0.04869 0.03075 0.02692
v -0.05381 -0.01537 0.04485
v 0.03331 -0.02306 0.03461
v -0.05381 0.03587 0.03461
v 0.04099 0.00513 0.06023
v 0.00769 0.04355 0.02692
v 0.04869 -0.01537 0.02692
v -0.04869 -0.01792 0.02948
v -0.01537 0.05382 0.04741
v -0.01537 0.01026 0.05510
v 0.04869 0.03331 0.04998
v -0.04869 -0.02306 0.03973
v -0.04869 0.01282 0.02948
v -0.01794 0.05382 0.03973
v -0.05638 -0.01024 0.03204
v 0.04869 0.00257 0.05254
v 0.01793 0.05382 0.03973
v -0.02306 -0.01792 0.04485
v -0.01023 -0.02306 0.02692
v 0.02818 -0.02306 0.03717
v 0.03331 0.02306 0.06023
v 0.02818 0.00513 0.06023
v 0.04869 0.03587 0.03717
v -0.05638 -0.01280 0.04485
v -0.05638 0.03843 0.03717
v -0.02049 0.00770 0.02692
v 0.04869 -0.01280 0.03717
v 0.03331 -0.02306 0.02948
v 0.01793 0.04355 0.02692
v -0.04613 -0.02306 0.03204
v -0.01537 0.00513 0.05510
v -0.05638 -0.01792 0.03461
v 0.04099 0.03843 0.05254
v -0.05638 0.01538 0.03204
v 0.04612 0.03843 0.04485
v -0.02049 0.05382 0.04485
v -0.04357 0.03331 0.03204
v -0.04869 0.03843 0.03461
v -0.01023 -0.02306 0.03973
v 0.03588 -0.02049 0.03717
v 0.04869 0.03331 0.02948
v 0.02562 0.01538 0.06023
v 0.00254 0.04100 0.02692
v -0.03331 -0.01792 0.04485
v -0.02306 -0.01024 0.02692
v 0.04869 0.02818 0.05254
v 0.02050 0.05382 0.04229
v -0.05638 0.03843 0.04229
v 0.03331 -0.02049 0.02692
v -0.05638 -0.01792 0.04229
v 0.04612 -0.00255 0.04998
v -0.05125 0.04100 0.03717
v -0.04613 -0.02049 0.02948
v 0.04869 -0.01537 0.03204
v -0.05125 -0.02049 0.04229
v -0.05381 -0.02562 -0.00128
v 0.04869 0.02563 -0.01152
v 0.04869 0.02050 -0.00897
v 0.00769 -0.03075 -0.02177
v -0.05638 0.02563 -0.01665
v 0.03843 -0.02305 0.00129
v -0.02306 0.02563 0.00129
v -0.05638 -0.02819 -0.02177
v 0.03843 0.01281 -0.02177
v 0.04869 -0.02050 -0.01665
v -0.00257 0.02563 -0.02177
v -0.05381 -0.01280 0.00129
v -0.01794 -0.03075 -0.00128
v 0.03588 0.00512 0.00129
v -0.05381 0.01537 -0.02177
v -0.05638 0.02563 -0.00897
v 0.04869 -0.00768 -0.00128
v -0.05638 -0.03075 -0.01409
v 0.04356 -0.02562 -0.00640
v 0.04869 0.02563 -0.01665
v 0.03843 -0.01537 -0.02177
v -0.04869 -0.02562 0.00129
v -0.01023 0.02563 0.00129
v -0.04357 0.01024 0.00129
v -0.00257 -0.03075 -0.00128
v -0.05638 -0.02305 -0.00128
v 0.03588 -0.02562 -0.01921
v 0.04869 -0.02050 -0.00384
v 0.03331 -0.02562 0.00129
v 0.03074 0.02050 -0.02177
v -0.04357 -0.03075 -0.02177
v 0.04099 -0.00768 -0.02177
v 0.04869 -0.00001 -0.00128
v 0.00769 -0.03075 -0.00897
v 0.00511 -0.02819 0.00129
v -0.04357 0.02563 -0.00384
v -0.05125 0.01793 -0.02177
v -0.05638 0.00768 -0.02177
v 0.04099 -0.02562 -0.01665
v 0.04099 -0.00256 0.00129
v -0.05638 -0.02819 -0.00640
v 0.01025 0.02563 -0.02177
v 0.04869 -0.02305 -0.01409
v -0.05638 -0.00768 -0.00128
v -0.02562 -0.02819 0.00129
v 0.03843 -0.02562 -0.00128
v -0.05638 -0.03075 -0.01921
v -0.05638 0.02563 -0.03203
v -0.00002 0.05638 -0.02947
v -0.00002 0.05638 -0.03459
v 0.04869 0.02820 -0.02434
v -0.04357 0.04613 -0.02178
v -0.01280 0.04613 -0.04228
v 0.04612 0.05125 -0.02434
v -0.05381 0.02563 -0.02178
v -0.05638 0.04613 -0.03203
v 0.01537 0.02563 -0.03459
v 0.04869 0.04869 -0.02947
v 0.00769 0.02563 -0.02178
v 0.04869 0.02820 -0.02947
v -0.00512 0.05125 -0.04228
v -0.02049 0.05638 -0.02690
v 0.00254 0.05125 -0.02178
v -0.01537 0.05638 -0.03715
v -0.05638 0.04613 -0.02434
v -0.04613 0.05125 -0.02434
v -0.01537 0.02563 -0.03459
v 0.04612 0.05125 -0.02947
v 0.03843 0.02563 -0.02690
v -0.04869 0.05125 -0.02947
v -0.00512 0.04613 -0.04228
v -0.01280 0.05125 -0.04228
v 0.01025 0.04357 -0.02178
v -0.02049 0.05125 -0.02178
v -0.00512 0.05638 -0.03715
v -0.05638 0.02563 -0.02434
v 0.04869 0.04869 -0.02434
v -0.04613 0.05125 -0.03203
v -0.00512 0.05638 -0.02690
v -0.02306 0.05638 -0.03203
v -0.01794 0.05381 -0.03971
v -0.05381 0.03332 -0.02178
v 0.03588 0.02563 -0.02434
v -0.00257 0.05381 -0.03971
v -0.05638 0.02563 -0.01152
v -0.00257 0.05126 -0.01921
v -0.00257 0.05126 -0.02177
v 0.03075 0.02563 -0.01665
v -0.00770 0.04357 0.00129
v -0.01536 0.02563 0.00129
v -0.04613 0.04357 -0.00897
v -0.01793 0.02819 -0.02177
v -0.05125 0.03844 -0.01665
v -0.02306 0.04357 0.00129
v 0.01025 0.02563 -0.02177
v 0.03075 0.02819 -0.01409
v -0.01536 0.05126 -0.02177
v -0.05125 0.02563 -0.00640
v -0.00514 0.04869 -0.00640
v -0.05381 0.02563 -0.01665
v -0.04356 0.04613 -0.01152
v -0.02562 0.04613 -0.02177
v -0.05381 0.03588 -0.00897
v 0.00512 0.04357 -0.00640
v 0.01793 0.02563 -0.00897
v 0.01025 0.04100 -0.02177
v -0.04356 0.04613 -0.01665
v -0.01536 0.04869 -0.00640
v -0.00770 0.03332 0.00129
v 0.00256 0.04869 -0.01665
v -0.02306 0.03332 0.00129
v -0.04869 0.03844 -0.00640
v -0.05381 0.03844 -0.01409
v -0.01281 0.05126 -0.01665
v -0.02049 0.04613 -0.00128
v 0.03075 0.02819 -0.01665
v -0.02562 0.03844 -0.02177
v 0.00256 0.04869 -0.02177
v -0.00514 0.02563 -0.02177
v -0.03075 0.02563 -0.00128
v 0.02049 0.03588 -0.01409
v -0.04869 0.04357 -0.01152
v -0.05381 -0.01537 -0.03203
v 0.03843 0.02563 -0.02434
v 0.04869 0.01025 -0.02434
v -0.05638 -0.01537 -0.02178
v -0.05638 0.02563 -0.03203
v 0.04099 -0.01537 -0.03459
v -0.05638 0.02563 -0.02178
v 0.03843 -0.01537 -0.02178
v 0.01537 0.02563 -0.03459
v 0.03588 0.02050 -0.02178
v -0.01023 -0.01537 -0.03459
v 0.03843 0.02563 -0.02946
v 0.04869 -0.01281 -0.02946
v -0.01280 0.02563 -0.03459
v 0.04356 -0.00768 -0.03459
v 0.04869 0.00768 -0.02946
v 0.04869 -0.01281 -0.02434
v 0.00769 0.02563 -0.02178
v -0.05638 -0.01537 -0.02946
v 0.04099 0.01025 -0.02178
v 0.04356 -0.01537 -0.02690
v -0.03076 -0.01537 -0.02178
v -0.05638 -0.04100 -0.03715
v -0.05381 -0.04100 -0.03715
v -0.05638 -0.01537 -0.03203
v -0.05638 -0.02819 -0.02178
v -0.03076 -0.03587 -0.03203
v -0.03076 -0.01537 -0.03203
v -0.03076 -0.03075 -0.02178
v -0.05638 -0.04100 -0.02947
v -0.05638 -0.01537 -0.02178
v -0.04357 -0.03075 -0.03715
v -0.05638 -0.03075 -0.03715
v -0.04101 -0.03587 -0.03715
v -0.03076 -0.03587 -0.02947
v -0.04869 -0.03075 -0.02178
v -0.05638 -0.03844 -0.02690
v -0.05381 -0.04100 -0.02947
v -0.00768 -0.04356 -0.04484
v 0.04357 -0.01537 -0.02691
v 0.04357 -0.01537 -0.03203
v -0.03075 -0.01537 -0.02178
v -0.00256 -0.05638 -0.03459
v -0.03075 -0.01537 -0.03203
v 0.00513 -0.03332 -0.02178
v -0.03075 -0.04869 -0.03715
v -0.03075 -0.03076 -0.02178
v 0.01025 -0.03332 -0.04484
v 0.04100 -0.03076 -0.02947
v 0.00769 -0.01537 -0.03715
v 0.00769 -0.04356 -0.04484
v 0.04100 -0.03076 -0.03459
v 0.04100 -0.01537 -0.02434
v -0.02562 -0.04869 -0.04228
v -0.00512 -0.03332 -0.04484
v -0.01025 -0.05382 -0.03203
v 0.04100 -0.01537 -0.03459
v 0.01281 -0.01537 -0.02178
v -0.00256 -0.05638 -0.03715
v -0.01281 -0.05638 -0.03459
v -0.01793 -0.05125 -0.04228
v 0.02049 -0.03588 -0.04228
v -0.02049 -0.03332 -0.02178
v 0.03843 -0.02050 -0.02434
v -0.02562 -0.04612 -0.04228
v -0.03075 -0.04869 -0.03971
v 0.00257 -0.01537 -0.03715
v 0.00257 -0.04612 -0.04484
v -0.01281 -0.05638 -0.03715
v 0.01281 -0.02307 -0.02178
v 0.00769 -0.04612 -0.04228
f 335 297 340 
f 286 282 291 
f 282 286 292 
f 284 283 294 
f 292 286 296 
f 294 283 299 
f 298 293 300 
f 284 290 301 
f 292 296 301 
f 299 283 302 
f 291 299 302 
f 282 292 304 
f 288 297 304 
f 297 288 305 
f 290 284 306 
f 284 294 306 
f 294 285 306 
f 285 295 306 
f 303 290 307 
f 290 306 307 
f 296 286 308 
f 295 285 309 
f 285 300 309 
f 300 285 310 
f 291 282 311 
f 292 301 312 
f 292 288 313 
f 288 304 313 
f 286 291 314 
f 291 302 314 
f 304 297 315 
f 287 307 316 
f 295 309 316 
f 309 287 316 
f 300 293 317 
f 309 300 317 
f 315 297 317 
f 283 284 318 
f 284 296 318 
f 289 298 319 
f 298 300 319 
f 310 289 319 
f 300 310 319 
f 296 308 320 
f 283 318 320 
f 318 296 320 
f 294 299 321 
f 298 289 322 
f 299 291 323 
f 290 303 324 
f 305 290 324 
f 297 305 324 
f 305 288 325 
f 290 305 325 
f 308 286 326 
f 286 314 326 
f 314 302 326 
f 306 295 327 
f 307 306 327 
f 295 316 327 
f 316 307 327 
f 291 311 328 
f 311 298 328 
f 322 289 328 
f 298 322 328 
f 323 291 328 
f 289 323 328 
f 307 287 329 
f 303 307 329 
f 282 293 330 
f 293 298 330 
f 311 282 330 
f 298 311 330 
f 296 284 331 
f 284 301 331 
f 301 296 331 
f 302 283 332 
f 283 320 332 
f 320 308 332 
f 308 326 332 
f 326 302 332 
f 285 294 333 
f 310 285 333 
f 294 321 333 
f 304 292 334 
f 292 313 334 
f 313 304 334 
f 287 309 335 
f 317 297 335 
f 309 317 335 
f 301 290 336 
f 312 301 336 
f 290 325 336 
f 325 312 336 
f 289 310 337 
f 321 299 337 
f 299 323 337 
f 323 289 337 
f 310 333 337 
f 333 321 337 
f 293 282 338 
f 282 304 338 
f 304 315 338 
f 317 293 338 
f 315 317 338 
f 288 292 339 
f 292 312 339 
f 325 288 339 
f 312 325 339 
f 324 303 340 
f 297 324 340 
f 329 287 340 
f 303 329 340 
f 287 335 340 
