# Original object name hint: convex_12
v 0.07431 0.01281 0.06278
v 0.06407 -0.03844 -0.03970
v 0.07431 -0.03844 -0.03970
v 0.06919 0.05382 -0.03714
v 0.04869 0.03330 0.04996
v 0.04869 0.04613 -0.03202
v 0.04869 -0.02049 0.01922
v 0.07944 0.04099 0.04228
v 0.07688 -0.03075 0.01922
v 0.08201 0.02306 -0.03714
v 0.05895 -0.03075 -0.04995
v 0.07431 0.04613 -0.04995
v 0.06919 0.04869 0.04484
v 0.04869 0.00001 0.04996
v 0.08201 -0.01793 -0.00896
v 0.04869 -0.01537 -0.02946
v 0.07688 -0.03075 -0.04995
v 0.06919 -0.02562 0.03716
v 0.07944 0.00257 0.04996
v 0.07944 0.04869 -0.03458
v 0.06663 0.01024 -0.05507
v 0.05895 -0.03844 -0.02690
v 0.04869 0.04869 -0.02432
v 0.08201 0.02562 0.01410
v 0.07431 0.03330 0.06021
v 0.07431 0.05382 -0.00127
v 0.07431 0.00001 0.06021
v 0.06919 -0.03587 0.00897
v 0.07944 -0.03331 -0.03458
v 0.05382 -0.03331 -0.03714
v 0.07175 -0.02818 -0.05507
v 0.06663 0.04356 -0.04995
v 0.07688 -0.03844 -0.01152
v 0.06407 0.05382 -0.01152
v 0.08201 0.03844 -0.01152
v 0.07688 0.04613 0.04740
v 0.07944 -0.02818 0.01153
v 0.08201 -0.00768 -0.03458
v 0.07688 -0.02306 0.03460
v 0.04869 -0.01281 0.03716
v 0.04869 0.02049 0.05253
v 0.07944 0.02306 0.05253
v 0.06919 0.03330 0.06021
v 0.07175 0.00514 0.06278
v 0.04869 0.03588 0.04484
v 0.08201 0.01024 0.02178
v 0.06407 -0.03587 0.00385
v 0.07431 0.02562 -0.05251
v 0.06407 -0.01537 -0.05507
v 0.04869 -0.02306 -0.01664
v 0.07688 0.04613 -0.04739
v 0.06663 -0.03075 0.02434
v 0.07431 0.05382 -0.03714
v 0.06919 0.03844 0.05765
v 0.06919 -0.00256 0.05765
v 0.07431 -0.02562 0.03716
v 0.07944 -0.02562 -0.04482
v 0.05639 -0.03587 -0.01920
v 0.07944 0.02049 -0.04482
v 0.07944 -0.02049 0.02690
v 0.06407 -0.03587 -0.04739
v 0.06919 0.04869 -0.04739
v 0.06407 -0.03844 -0.00896
v 0.07944 -0.03331 -0.00639
v -0.08201 0.00001 0.03204
v -0.05895 0.03843 0.04485
v -0.05895 0.04100 0.04229
v -0.05638 -0.02305 0.00642
v -0.07432 0.04869 0.00129
v -0.07944 -0.02305 0.00129
v -0.06151 -0.02305 0.04229
v -0.07944 0.03330 0.04229
v -0.06151 0.04612 0.00129
v -0.07688 -0.02305 0.04229
v -0.07944 0.03843 0.00129
v -0.06407 -0.02818 0.00129
v -0.05638 -0.01280 0.04485
v -0.05638 0.03330 0.01154
v -0.07688 -0.00255 0.04485
v -0.07432 0.04100 0.04229
v -0.05638 0.03843 0.04229
v -0.08201 0.02306 0.03972
v -0.07432 -0.02818 0.00642
v -0.06407 -0.02561 0.03972
v -0.08201 -0.00255 0.03972
v -0.06663 0.04869 0.00898
v -0.05895 -0.02305 0.00129
v -0.07432 0.03330 0.04485
v -0.07944 -0.02049 0.03716
v -0.05638 0.01026 0.00642
v -0.07944 0.03587 0.03972
v -0.05638 -0.02305 0.01923
v -0.07175 -0.01792 0.04485
v -0.08201 0.01537 0.02947
v -0.07432 -0.02561 0.03972
v -0.05638 -0.01792 0.04229
v -0.06407 0.04869 0.00642
v -0.05895 -0.02561 0.01411
v -0.05638 0.03587 0.04485
v -0.07175 0.04869 0.00898
v -0.07432 -0.02818 0.00129
v -0.06663 -0.02818 0.00898
v -0.07688 -0.02561 0.01411
v -0.07432 0.04869 0.00385
v -0.07944 -0.01280 0.04229
v -0.05638 0.02818 0.00898
v -0.02819 0.03075 -0.06022
v -0.07945 -0.02818 -0.04997
v -0.07688 -0.03075 -0.05509
v -0.07688 0.04613 -0.05509
v -0.06406 0.04613 -0.04740
v -0.02819 -0.03331 -0.05765
v -0.07175 -0.00255 -0.06278
v -0.06150 -0.03331 -0.04740
v -0.02819 -0.03331 -0.06278
v -0.06919 0.03332 -0.06278
v -0.07945 0.04357 -0.04740
v -0.03075 0.03075 -0.06278
v -0.02819 0.03075 -0.05765
v -0.05638 -0.03587 -0.06022
v -0.04357 0.04357 -0.05765
v -0.07175 -0.03587 -0.04740
v -0.07945 0.01794 -0.05509
v -0.06663 0.04613 -0.06022
v -0.04357 -0.03844 -0.05509
v -0.07175 -0.02818 -0.06022
v -0.07431 0.04100 -0.06022
v -0.06663 0.04869 -0.04740
v -0.07945 -0.02818 -0.04740
v -0.06919 -0.03587 -0.05765
v -0.07688 -0.02562 -0.05765
v -0.06919 -0.01281 -0.06278
v -0.06663 0.04869 -0.05765
v -0.07688 0.04869 -0.04740
v -0.05382 -0.03844 -0.05765
v -0.04357 0.04357 -0.05509
v -0.06150 -0.01794 -0.04740
v -0.03332 -0.03331 -0.06278
v -0.07945 0.04100 -0.05253
v -0.07175 0.04869 -0.05765
v -0.07688 -0.03331 -0.04997
v -0.07945 -0.02562 -0.05253
v -0.05382 0.04357 -0.06022
v -0.06919 -0.03075 -0.06022
v -0.06406 -0.03587 -0.04740
v -0.07688 0.04100 -0.05765
v -0.06406 0.04869 -0.04997
v 0.00256 -0.03844 -0.06278
v -0.02050 -0.01794 -0.05766
v -0.02050 -0.01794 -0.06278
v -0.02819 -0.03331 -0.05766
v 0.01537 -0.03331 -0.05509
v 0.00512 -0.02307 -0.06278
v -0.01025 -0.04100 -0.05509
v -0.02819 -0.03331 -0.06278
v -0.02819 -0.01794 -0.05766
v 0.00512 -0.02307 -0.05766
v -0.01281 -0.04100 -0.06022
v 0.00512 -0.04100 -0.05509
v 0.01281 -0.03587 -0.06022
v -0.00768 -0.02819 -0.05509
v -0.02819 -0.01794 -0.06278
v 0.00512 -0.04100 -0.06022
v 0.00256 -0.02819 -0.05509
v -0.01281 -0.03075 -0.05509
v 0.01537 -0.03587 -0.05766
v -0.01281 -0.03844 -0.06278
v 0.00768 -0.03331 -0.06278
v 0.01281 -0.03075 -0.06022
v -0.07688 -0.03587 -0.03971
v -0.06407 0.04868 0.00128
v -0.07432 0.04868 0.00128
v -0.06919 0.05124 -0.04740
v -0.05638 -0.04098 -0.02690
v -0.07944 -0.02306 0.00128
v -0.08201 0.03844 -0.03971
v -0.05638 0.04868 -0.03202
v -0.05638 -0.02306 0.00128
v -0.06151 -0.03330 -0.04740
v -0.07944 -0.02817 -0.04740
v -0.08201 0.01794 -0.00385
v -0.08201 -0.02817 -0.03715
v -0.07175 0.05636 -0.02433
v -0.06919 -0.04098 -0.02178
v -0.07944 0.04355 -0.04740
v -0.05638 -0.04098 -0.03715
v -0.06407 0.04868 -0.04740
v -0.06151 0.04612 0.00128
v -0.07944 0.03844 0.00128
v -0.06407 -0.02817 0.00128
v -0.05638 0.04868 -0.02433
v -0.06407 0.05636 -0.03202
v -0.07944 0.04612 -0.01666
v -0.08201 -0.02817 -0.02690
v -0.07688 0.05124 -0.04227
v -0.08201 0.03587 -0.01153
v -0.05638 0.01024 -0.00641
v -0.06919 -0.04098 -0.03715
v -0.07688 -0.02817 -0.00128
v -0.06919 -0.03587 -0.04740
v -0.07432 -0.03843 -0.02433
v -0.08201 -0.02306 -0.04227
v -0.08201 -0.01537 -0.01153
v -0.06151 0.05381 -0.01922
v -0.06151 -0.02049 -0.04740
v -0.06663 0.05636 -0.02178
v -0.07688 0.05124 -0.01922
v -0.07944 -0.03330 -0.02690
v -0.06919 0.05636 -0.03458
v -0.06151 -0.04098 -0.02178
v -0.07432 -0.02817 0.00128
v -0.05638 -0.01280 0.00128
v -0.07688 -0.03330 -0.04740
v -0.08201 0.03331 -0.04227
v -0.05638 -0.02817 -0.03715
v -0.07432 0.05124 -0.04740
v -0.07688 0.04612 0.00128
v -0.07175 -0.04098 -0.03458
v -0.07944 0.04612 -0.04484
v -0.05638 -0.02561 -0.00128
v -0.08201 0.00769 -0.00385
v -0.07944 -0.03330 -0.03971
v -0.08201 0.03844 -0.01666
v -0.02049 -0.02818 0.01154
v -0.00767 0.04357 0.01410
v 0.02050 0.04100 0.02691
v 0.03843 -0.01024 0.00129
v 0.04869 -0.01536 0.02691
v -0.05125 -0.01536 0.02435
v -0.05638 0.03074 0.00898
v -0.04869 -0.02305 0.00129
v -0.01023 0.04357 0.00129
v 0.04869 0.03074 0.01922
v -0.05638 0.03587 0.01666
v 0.03588 -0.02305 0.00129
v 0.03331 -0.02305 0.02691
v -0.05638 -0.02305 0.01922
v 0.04869 0.00257 0.00642
v -0.04869 0.01281 0.02435
v -0.01537 -0.02305 0.02691
v 0.04869 0.03074 0.02691
v 0.00511 0.04100 0.02691
v -0.02049 0.04357 0.00129
v 0.00511 -0.02818 0.00129
v 0.04869 0.02306 0.01154
v 0.04869 -0.02049 0.01154
v -0.04869 0.04100 0.01410
v -0.05638 -0.02049 0.00642
v 0.03074 -0.02562 0.01922
v -0.02562 -0.00512 0.02691
v 0.03843 -0.00255 0.00129
v -0.04613 -0.02562 0.00129
v -0.00767 -0.02562 0.02435
v -0.05638 0.01537 0.02178
v -0.05638 0.01281 0.00642
v -0.03843 0.03331 0.02178
v -0.05125 0.03843 0.00898
v -0.02562 0.04357 0.01410
v -0.04613 -0.02562 0.01666
v 0.01793 0.04100 0.01922
v -0.04869 -0.01536 0.00129
v 0.04869 -0.01024 0.00642
v -0.00767 -0.02818 0.01410
v 0.04869 -0.02049 0.01922
v -0.05638 -0.02049 0.02178
v -0.02049 -0.02818 0.00129
v 0.03074 -0.02562 0.01154
v -0.05125 0.03331 0.01922
v 0.02562 -0.02562 0.02178
v -0.04869 -0.02562 0.00642
v -0.05125 0.03843 0.01666
v -0.05125 0.00769 0.02435
v -0.05638 -0.02305 0.00898
v -0.04869 0.04100 0.01154
v -0.02562 -0.01280 0.02691
v -0.04613 -0.02305 0.02178
v -0.04357 -0.02049 0.02435
v -0.00002 -0.02818 0.01154
v 0.04869 -0.01793 0.00898
v -0.05638 0.03587 0.01154
v 0.04099 -0.02305 0.01154
v -0.01794 -0.02049 0.02692
v 0.02050 0.05382 0.04741
v 0.04099 0.02306 0.06023
v -0.05638 0.03587 0.04485
v 0.04869 0.03075 0.02692
v -0.05381 -0.01537 0.04485
v 0.03331 -0.02306 0.03461
v -0.05381 0.03587 0.03461
v 0.04099 0.00513 0.06023
v 0.00769 0.04355 0.02692
v 0.04869 -0.01537 0.02692
v -0.04869 -0.01792 0.02948
v -0.01537 0.05382 0.04741
v -0.01537 0.01026 0.05510
v 0.04869 0.03331 0.04998
v -0.04869 -0.02306 0.03973
v -0.04869 0.01282 0.02948
v -0.01794 0.05382 0.03973
v -0.05638 -0.01024 0.03204
v 0.04869 0.00257 0.05254
v 0.01793 0.05382 0.03973
v -0.02306 -0.01792 0.04485
v -0.01023 -0.02306 0.02692
v 0.02818 -0.02306 0.03717
v 0.03331 0.02306 0.06023
v 0.02818 0.00513 0.06023
v 0.04869 0.03587 0.03717
v -0.05638 -0.01280 0.04485
v -0.05638 0.03843 0.03717
v -0.02049 0.00770 0.02692
v 0.04869 -0.01280 0.03717
v 0.03331 -0.02306 0.02948
v 0.01793 0.04355 0.02692
v -0.04613 -0.02306 0.03204
v -0.01537 0.00513 0.05510
v -0.05638 -0.01792 0.03461
v 0.04099 0.03843 0.05254
v -0.05638 0.01538 0.03204
v 0.04612 0.03843 0.04485
v -0.02049 0.05382 0.04485
v -0.04357 0.03331 0.03204
v -0.04869 0.03843 0.03461
v -0.01023 -0.02306 0.03973
v 0.03588 -0.02049 0.03717
v 0.04869 0.03331 0.02948
v 0.02562 0.01538 0.06023
v 0.00254 0.04100 0.02692
v -0.03331 -0.01792 0.04485
v -0.02306 -0.01024 0.02692
v 0.04869 0.02818 0.05254
v 0.02050 0.05382 0.04229
v -0.05638 0.03843 0.04229
v 0.03331 -0.02049 0.02692
v -0.05638 -0.01792 0.04229
v 0.04612 -0.00255 0.04998
v -0.05125 0.04100 0.03717
v -0.04613 -0.02049 0.02948
v 0.04869 -0.01537 0.03204
v -0.05125 -0.02049 0.04229
v -0.05381 -0.02562 -0.00128
v 0.04869 0.02563 -0.01152
v 0.04869 0.02050 -0.00897
v 0.00769 -0.03075 -0.02177
v -0.05638 0.02563 -0.01665
v 0.03843 -0.02305 0.00129
v -0.02306 0.02563 0.00129
v -0.05638 -0.02819 -0.02177
v 0.03843 0.01281 -0.02177
v 0.04869 -0.02050 -0.01665
v -0.00257 0.02563 -0.02177
v -0.05381 -0.01280 0.00129
v -0.01794 -0.03075 -0.00128
v 0.03588 0.00512 0.00129
v -0.05381 0.01537 -0.02177
v -0.05638 0.02563 -0.00897
v 0.04869 -0.00768 -0.00128
v -0.05638 -0.03075 -0.01409
v 0.04356 -0.02562 -0.00640
v 0.04869 0.02563 -0.01665
v 0.03843 -0.01537 -0.02177
v -0.04869 -0.02562 0.00129
v -0.01023 0.02563 0.00129
v -0.04357 0.01024 0.00129
v -0.00257 -0.03075 -0.00128
v -0.05638 -0.02305 -0.00128
v 0.03588 -0.02562 -0.01921
v 0.04869 -0.02050 -0.00384
v 0.03331 -0.02562 0.00129
v 0.03074 0.02050 -0.02177
v -0.04357 -0.03075 -0.02177
v 0.04099 -0.00768 -0.02177
v 0.04869 -0.00001 -0.00128
v 0.00769 -0.03075 -0.00897
v 0.00511 -0.02819 0.00129
v -0.04357 0.02563 -0.00384
v -0.05125 0.01793 -0.02177
v -0.05638 0.00768 -0.02177
v 0.04099 -0.02562 -0.01665
v 0.04099 -0.00256 0.00129
v -0.05638 -0.02819 -0.00640
v 0.01025 0.02563 -0.02177
v 0.04869 -0.02305 -0.01409
v -0.05638 -0.00768 -0.00128
v -0.02562 -0.02819 0.00129
v 0.03843 -0.02562 -0.00128
v -0.05638 -0.03075 -0.01921
v -0.05638 0.02563 -0.03203
v -0.00002 0.05638 -0.02947
v -0.00002 0.05638 -0.03459
v 0.04869 0.02820 -0.02434
v -0.04357 0.04613 -0.02178
v -0.01280 0.04613 -0.04228
v 0.04612 0.05125 -0.02434
v -0.05381 0.02563 -0.02178
v -0.05638 0.04613 -0.03203
v 0.01537 0.02563 -0.03459
v 0.04869 0.04869 -0.02947
v 0.00769 0.02563 -0.02178
v 0.04869 0.02820 -0.02947
v -0.00512 0.05125 -0.04228
v -0.02049 0.05638 -0.02690
v 0.00254 0.05125 -0.02178
v -0.01537 0.05638 -0.03715
v -0.05638 0.04613 -0.02434
v -0.04613 0.05125 -0.02434
v -0.01537 0.02563 -0.03459
v 0.04612 0.05125 -0.02947
v 0.03843 0.02563 -0.02690
v -0.04869 0.05125 -0.02947
v -0.00512 0.04613 -0.04228
v -0.01280 0.05125 -0.04228
v 0.01025 0.04357 -0.02178
v -0.02049 0.05125 -0.02178
v -0.00512 0.05638 -0.03715
v -0.05638 0.02563 -0.02434
v 0.04869 0.04869 -0.02434
v -0.04613 0.05125 -0.03203
v -0.00512 0.05638 -0.02690
v -0.02306 0.05638 -0.03203
v -0.01794 0.05381 -0.03971
v -0.05381 0.03332 -0.02178
v 0.03588 0.02563 -0.02434
v -0.00257 0.05381 -0.03971
v -0.05638 0.02563 -0.01152
v -0.00257 0.05126 -0.01921
v -0.00257 0.05126 -0.02177
v 0.03075 0.02563 -0.01665
v -0.00770 0.04357 0.00129
v -0.01536 0.02563 0.00129
v -0.04613 0.04357 -0.00897
v -0.01793 0.02819 -0.02177
v -0.05125 0.03844 -0.01665
v -0.02306 0.04357 0.00129
v 0.01025 0.02563 -0.02177
v 0.03075 0.02819 -0.01409
v -0.01536 0.05126 -0.02177
v -0.05125 0.02563 -0.00640
v -0.00514 0.04869 -0.00640
v -0.05381 0.02563 -0.01665
v -0.04356 0.04613 -0.01152
v -0.02562 0.04613 -0.02177
v -0.05381 0.03588 -0.00897
v 0.00512 0.04357 -0.00640
v 0.01793 0.02563 -0.00897
v 0.01025 0.04100 -0.02177
v -0.04356 0.04613 -0.01665
v -0.01536 0.04869 -0.00640
v -0.00770 0.03332 0.00129
v 0.00256 0.04869 -0.01665
v -0.02306 0.03332 0.00129
v -0.04869 0.03844 -0.00640
v -0.05381 0.03844 -0.01409
v -0.01281 0.05126 -0.01665
v -0.02049 0.04613 -0.00128
v 0.03075 0.02819 -0.01665
v -0.02562 0.03844 -0.02177
v 0.00256 0.04869 -0.02177
v -0.00514 0.02563 -0.02177
v -0.03075 0.02563 -0.00128
v 0.02049 0.03588 -0.01409
v -0.04869 0.04357 -0.01152
v -0.05381 -0.01537 -0.03203
v 0.03843 0.02563 -0.02434
v 0.04869 0.01025 -0.02434
v -0.05638 -0.01537 -0.02178
v -0.05638 0.02563 -0.03203
v 0.04099 -0.01537 -0.03459
v -0.05638 0.02563 -0.02178
v 0.03843 -0.01537 -0.02178
v 0.01537 0.02563 -0.03459
v 0.03588 0.02050 -0.02178
v -0.01023 -0.01537 -0.03459
v 0.03843 0.02563 -0.02946
v 0.04869 -0.01281 -0.02946
v -0.01280 0.02563 -0.03459
v 0.04356 -0.00768 -0.03459
v 0.04869 0.00768 -0.02946
v 0.04869 -0.01281 -0.02434
v 0.00769 0.02563 -0.02178
v -0.05638 -0.01537 -0.02946
v 0.04099 0.01025 -0.02178
v 0.04356 -0.01537 -0.02690
v -0.03076 -0.01537 -0.02178
v -0.05638 -0.04100 -0.03715
v -0.05381 -0.04100 -0.03715
v -0.05638 -0.01537 -0.03203
v -0.05638 -0.02819 -0.02178
v -0.03076 -0.03587 -0.03203
v -0.03076 -0.01537 -0.03203
v -0.03076 -0.03075 -0.02178
v -0.05638 -0.04100 -0.02947
v -0.05638 -0.01537 -0.02178
v -0.04357 -0.03075 -0.03715
v -0.05638 -0.03075 -0.03715
v -0.04101 -0.03587 -0.03715
v -0.03076 -0.03587 -0.02947
v -0.04869 -0.03075 -0.02178
v -0.05638 -0.03844 -0.02690
v -0.05381 -0.04100 -0.02947
v -0.00768 -0.04356 -0.04484
v 0.04357 -0.01537 -0.02691
v 0.04357 -0.01537 -0.03203
v -0.03075 -0.01537 -0.02178
v -0.00256 -0.05638 -0.03459
v -0.03075 -0.01537 -0.03203
v 0.00513 -0.03332 -0.02178
v -0.03075 -0.04869 -0.03715
v -0.03075 -0.03076 -0.02178
v 0.01025 -0.03332 -0.04484
v 0.04100 -0.03076 -0.02947
v 0.00769 -0.01537 -0.03715
v 0.00769 -0.04356 -0.04484
v 0.04100 -0.03076 -0.03459
v 0.04100 -0.01537 -0.02434
v -0.02562 -0.04869 -0.04228
v -0.00512 -0.03332 -0.04484
v -0.01025 -0.05382 -0.03203
v 0.04100 -0.01537 -0.03459
v 0.01281 -0.01537 -0.02178
v -0.00256 -0.05638 -0.03715
v -0.01281 -0.05638 -0.03459
v -0.01793 -0.05125 -0.04228
v 0.02049 -0.03588 -0.04228
v -0.02049 -0.03332 -0.02178
v 0.03843 -0.02050 -0.02434
v -0.02562 -0.04612 -0.04228
v -0.03075 -0.04869 -0.03971
v 0.00257 -0.01537 -0.03715
v 0.00257 -0.04612 -0.04484
v -0.01281 -0.05638 -0.03715
v 0.01281 -0.02307 -0.02178
v 0.00769 -0.04612 -0.04228
f 521 513 533 
f 502 503 504 
f 504 503 506 
f 504 506 508 
f 504 508 509 
f 507 504 509 
f 503 502 511 
f 507 505 511 
f 506 503 512 
f 501 510 513 
f 503 511 514 
f 511 505 514 
f 502 504 515 
f 511 502 515 
f 510 501 517 
f 512 510 517 
f 505 507 518 
f 512 503 519 
f 510 512 519 
f 503 514 519 
f 504 507 520 
f 515 504 520 
f 514 505 521 
f 509 508 522 
f 505 518 522 
f 518 509 522 
f 521 505 522 
f 516 501 523 
f 513 510 524 
f 514 513 524 
f 510 519 524 
f 519 514 524 
f 507 509 525 
f 518 507 525 
f 509 518 525 
f 507 511 526 
f 511 515 526 
f 501 516 527 
f 517 501 527 
f 506 517 527 
f 508 506 528 
f 522 508 528 
f 506 527 528 
f 527 516 528 
f 506 512 529 
f 517 506 529 
f 512 517 529 
f 501 513 530 
f 513 521 530 
f 523 501 530 
f 521 523 530 
f 521 522 531 
f 516 523 531 
f 523 521 531 
f 522 528 531 
f 528 516 531 
f 520 507 532 
f 515 520 532 
f 507 526 532 
f 526 515 532 
f 513 514 533 
f 514 521 533 
