# Original object name hint: convex_0
v 0.07431 0.01281 0.06278
v 0.06407 -0.03844 -0.03970
v 0.07431 -0.03844 -0.03970
v 0.06919 0.05382 -0.03714
v 0.04869 0.03330 0.04996
v 0.04869 0.04613 -0.03202
v 0.04869 -0.02049 0.01922
v 0.07944 0.04099 0.04228
v 0.07688 -0.03075 0.01922
v 0.08201 0.02306 -0.03714
v 0.05895 -0.03075 -0.04995
v 0.07431 0.04613 -0.04995
v 0.06919 0.04869 0.04484
v 0.04869 0.00001 0.04996
v 0.08201 -0.01793 -0.00896
v 0.04869 -0.01537 -0.02946
v 0.07688 -0.03075 -0.04995
v 0.06919 -0.02562 0.03716
v 0.07944 0.00257 0.04996
v 0.07944 0.04869 -0.03458
v 0.06663 0.01024 -0.05507
v 0.05895 -0.03844 -0.02690
v 0.04869 0.04869 -0.02432
v 0.08201 0.02562 0.01410
v 0.07431 0.03330 0.06021
v 0.07431 0.05382 -0.00127
v 0.07431 0.00001 0.06021
v 0.06919 -0.03587 0.00897
v 0.07944 -0.03331 -0.03458
v 0.05382 -0.03331 -0.03714
v 0.07175 -0.02818 -0.05507
v 0.06663 0.04356 -0.04995
v 0.07688 -0.03844 -0.01152
v 0.06407 0.05382 -0.01152
v 0.08201 0.03844 -0.01152
v 0.07688 0.04613 0.04740
v 0.07944 -0.02818 0.01153
v 0.08201 -0.00768 -0.03458
v 0.07688 -0.02306 0.03460
v 0.04869 -0.01281 0.03716
v 0.04869 0.02049 0.05253
v 0.07944 0.02306 0.05253
v 0.06919 0.03330 0.06021
v 0.07175 0.00514 0.06278
v 0.04869 0.03588 0.04484
v 0.08201 0.01024 0.02178
v 0.06407 -0.03587 0.00385
v 0.07431 0.02562 -0.05251
v 0.06407 -0.01537 -0.05507
v 0.04869 -0.02306 -0.01664
v 0.07688 0.04613 -0.04739
v 0.06663 -0.03075 0.02434
v 0.07431 0.05382 -0.03714
v 0.06919 0.03844 0.05765
v 0.06919 -0.00256 0.05765
v 0.07431 -0.02562 0.03716
v 0.07944 -0.02562 -0.04482
v 0.05639 -0.03587 -0.01920
v 0.07944 0.02049 -0.04482
v 0.07944 -0.02049 0.02690
v 0.06407 -0.03587 -0.04739
v 0.06919 0.04869 -0.04739
v 0.06407 -0.03844 -0.00896
v 0.07944 -0.03331 -0.00639
v -0.08201 0.00001 0.03204
v -0.05895 0.03843 0.04485
v -0.05895 0.04100 0.04229
v -0.05638 -0.02305 0.00642
v -0.07432 0.04869 0.00129
v -0.07944 -0.02305 0.00129
v -0.06151 -0.02305 0.04229
v -0.07944 0.03330 0.04229
v -0.06151 0.04612 0.00129
v -0.07688 -0.02305 0.04229
v -0.07944 0.03843 0.00129
v -0.06407 -0.02818 0.00129
v -0.05638 -0.01280 0.04485
v -0.05638 0.03330 0.01154
v -0.07688 -0.00255 0.04485
v -0.07432 0.04100 0.04229
v -0.05638 0.03843 0.04229
v -0.08201 0.02306 0.03972
v -0.07432 -0.02818 0.00642
v -0.06407 -0.02561 0.03972
v -0.08201 -0.00255 0.03972
v -0.06663 0.04869 0.00898
v -0.05895 -0.02305 0.00129
v -0.07432 0.03330 0.04485
v -0.07944 -0.02049 0.03716
v -0.05638 0.01026 0.00642
v -0.07944 0.03587 0.03972
v -0.05638 -0.02305 0.01923
v -0.07175 -0.01792 0.04485
v -0.08201 0.01537 0.02947
v -0.07432 -0.02561 0.03972
v -0.05638 -0.01792 0.04229
v -0.06407 0.04869 0.00642
v -0.05895 -0.02561 0.01411
v -0.05638 0.03587 0.04485
v -0.07175 0.04869 0.00898
v -0.07432 -0.02818 0.00129
v -0.06663 -0.02818 0.00898
v -0.07688 -0.02561 0.01411
v -0.07432 0.04869 0.00385
v -0.07944 -0.01280 0.04229
v -0.05638 0.02818 0.00898
v -0.02819 0.03075 -0.06022
v -0.07945 -0.02818 -0.04997
v -0.07688 -0.03075 -0.05509
v -0.07688 0.04613 -0.05509
v -0.06406 0.04613 -0.04740
v -0.02819 -0.03331 -0.05765
v -0.07175 -0.00255 -0.06278
v -0.06150 -0.03331 -0.04740
v -0.02819 -0.03331 -0.06278
v -0.06919 0.03332 -0.06278
v -0.07945 0.04357 -0.04740
v -0.03075 0.03075 -0.06278
v -0.02819 0.03075 -0.05765
v -0.05638 -0.03587 -0.06022
v -0.04357 0.04357 -0.05765
v -0.07175 -0.03587 -0.04740
v -0.07945 0.01794 -0.05509
v -0.06663 0.04613 -0.06022
v -0.04357 -0.03844 -0.05509
v -0.07175 -0.02818 -0.06022
v -0.07431 0.04100 -0.06022
v -0.06663 0.04869 -0.04740
v -0.07945 -0.02818 -0.04740
v -0.06919 -0.03587 -0.05765
v -0.07688 -0.02562 -0.05765
v -0.06919 -0.01281 -0.06278
v -0.06663 0.04869 -0.05765
v -0.07688 0.04869 -0.04740
v -0.05382 -0.03844 -0.05765
v -0.04357 0.04357 -0.05509
v -0.06150 -0.01794 -0.04740
v -0.03332 -0.03331 -0.06278
v -0.07945 0.04100 -0.05253
v -0.07175 0.04869 -0.05765
v -0.07688 -0.03331 -0.04997
v -0.07945 -0.02562 -0.05253
v -0.05382 0.04357 -0.06022
v -0.06919 -0.03075 -0.06022
v -0.06406 -0.03587 -0.04740
v -0.07688 0.04100 -0.05765
v -0.06406 0.04869 -0.04997
v 0.00256 -0.03844 -0.06278
v -0.02050 -0.01794 -0.05766
v -0.02050 -0.01794 -0.06278
v -0.02819 -0.03331 -0.05766
v 0.01537 -0.03331 -0.05509
v 0.00512 -0.02307 -0.06278
v -0.01025 -0.04100 -0.05509
v -0.02819 -0.03331 -0.06278
v -0.02819 -0.01794 -0.05766
v 0.00512 -0.02307 -0.05766
v -0.01281 -0.04100 -0.06022
v 0.00512 -0.04100 -0.05509
v 0.01281 -0.03587 -0.06022
v -0.00768 -0.02819 -0.05509
v -0.02819 -0.01794 -0.06278
v 0.00512 -0.04100 -0.06022
v 0.00256 -0.02819 -0.05509
v -0.01281 -0.03075 -0.05509
v 0.01537 -0.03587 -0.05766
v -0.01281 -0.03844 -0.06278
v 0.00768 -0.03331 -0.06278
v 0.01281 -0.03075 -0.06022
v -0.07688 -0.03587 -0.03971
v -0.06407 0.04868 0.00128
v -0.07432 0.04868 0.00128
v -0.06919 0.05124 -0.04740
v -0.05638 -0.04098 -0.02690
v -0.07944 -0.02306 0.00128
v -0.08201 0.03844 -0.03971
v -0.05638 0.04868 -0.03202
v -0.05638 -0.02306 0.00128
v -0.06151 -0.03330 -0.04740
v -0.07944 -0.02817 -0.04740
v -0.08201 0.01794 -0.00385
v -0.08201 -0.02817 -0.03715
v -0.07175 0.05636 -0.02433
v -0.06919 -0.04098 -0.02178
v -0.07944 0.04355 -0.04740
v -0.05638 -0.04098 -0.03715
v -0.06407 0.04868 -0.04740
v -0.06151 0.04612 0.00128
v -0.07944 0.03844 0.00128
v -0.06407 -0.02817 0.00128
v -0.05638 0.04868 -0.02433
v -0.06407 0.05636 -0.03202
v -0.07944 0.04612 -0.01666
v -0.08201 -0.02817 -0.02690
v -0.07688 0.05124 -0.04227
v -0.08201 0.03587 -0.01153
v -0.05638 0.01024 -0.00641
v -0.06919 -0.04098 -0.03715
v -0.07688 -0.02817 -0.00128
v -0.06919 -0.03587 -0.04740
v -0.07432 -0.03843 -0.02433
v -0.08201 -0.02306 -0.04227
v -0.08201 -0.01537 -0.01153
v -0.06151 0.05381 -0.01922
v -0.06151 -0.02049 -0.04740
v -0.06663 0.05636 -0.02178
v -0.07688 0.05124 -0.01922
v -0.07944 -0.03330 -0.02690
v -0.06919 0.05636 -0.03458
v -0.06151 -0.04098 -0.02178
v -0.07432 -0.02817 0.00128
v -0.05638 -0.01280 0.00128
v -0.07688 -0.03330 -0.04740
v -0.08201 0.03331 -0.04227
v -0.05638 -0.02817 -0.03715
v -0.07432 0.05124 -0.04740
v -0.07688 0.04612 0.00128
v -0.07175 -0.04098 -0.03458
v -0.07944 0.04612 -0.04484
v -0.05638 -0.02561 -0.00128
v -0.08201 0.00769 -0.00385
v -0.07944 -0.03330 -0.03971
v -0.08201 0.03844 -0.01666
v -0.02049 -0.02818 0.01154
v -0.00767 0.04357 0.01410
v 0.02050 0.04100 0.02691
v 0.03843 -0.01024 0.00129
v 0.04869 -0.01536 0.02691
v -0.05125 -0.01536 0.02435
v -0.05638 0.03074 0.00898
v -0.04869 -0.02305 0.00129
v -0.01023 0.04357 0.00129
v 0.04869 0.03074 0.01922
v -0.05638 0.03587 0.01666
v 0.03588 -0.02305 0.00129
v 0.03331 -0.02305 0.02691
v -0.05638 -0.02305 0.01922
v 0.04869 0.00257 0.00642
v -0.04869 0.01281 0.02435
v -0.01537 -0.02305 0.02691
v 0.04869 0.03074 0.02691
v 0.00511 0.04100 0.02691
v -0.02049 0.04357 0.00129
v 0.00511 -0.02818 0.00129
v 0.04869 0.02306 0.01154
v 0.04869 -0.02049 0.01154
v -0.04869 0.04100 0.01410
v -0.05638 -0.02049 0.00642
v 0.03074 -0.02562 0.01922
v -0.02562 -0.00512 0.02691
v 0.03843 -0.00255 0.00129
v -0.04613 -0.02562 0.00129
v -0.00767 -0.02562 0.02435
v -0.05638 0.01537 0.02178
v -0.05638 0.01281 0.00642
v -0.03843 0.03331 0.02178
v -0.05125 0.03843 0.00898
v -0.02562 0.04357 0.01410
v -0.04613 -0.02562 0.01666
v 0.01793 0.04100 0.01922
v -0.04869 -0.01536 0.00129
v 0.04869 -0.01024 0.00642
v -0.00767 -0.02818 0.01410
v 0.04869 -0.02049 0.01922
v -0.05638 -0.02049 0.02178
v -0.02049 -0.02818 0.00129
v 0.03074 -0.02562 0.01154
v -0.05125 0.03331 0.01922
v 0.02562 -0.02562 0.02178
v -0.04869 -0.02562 0.00642
v -0.05125 0.03843 0.01666
v -0.05125 0.00769 0.02435
v -0.05638 -0.02305 0.00898
v -0.04869 0.04100 0.01154
v -0.02562 -0.01280 0.02691
v -0.04613 -0.02305 0.02178
v -0.04357 -0.02049 0.02435
v -0.00002 -0.02818 0.01154
v 0.04869 -0.01793 0.00898
v -0.05638 0.03587 0.01154
v 0.04099 -0.02305 0.01154
v -0.01794 -0.02049 0.02692
v 0.02050 0.05382 0.04741
v 0.04099 0.02306 0.06023
v -0.05638 0.03587 0.04485
v 0.04869 0.03075 0.02692
v -0.05381 -0.01537 0.04485
v 0.03331 -0.02306 0.03461
v -0.05381 0.03587 0.03461
v 0.04099 0.00513 0.06023
v 0.00769 0.04355 0.02692
v 0.04869 -0.01537 0.02692
v -0.04869 -0.01792 0.02948
v -0.01537 0.05382 0.04741
v -0.01537 0.01026 0.05510
v 0.04869 0.03331 0.04998
v -0.04869 -0.02306 0.03973
v -0.04869 0.01282 0.02948
v -0.01794 0.05382 0.03973
v -0.05638 -0.01024 0.03204
v 0.04869 0.00257 0.05254
v 0.01793 0.05382 0.03973
v -0.02306 -0.01792 0.04485
v -0.01023 -0.02306 0.02692
v 0.02818 -0.02306 0.03717
v 0.03331 0.02306 0.06023
v 0.02818 0.00513 0.06023
v 0.04869 0.03587 0.03717
v -0.05638 -0.01280 0.04485
v -0.05638 0.03843 0.03717
v -0.02049 0.00770 0.02692
v 0.04869 -0.01280 0.03717
v 0.03331 -0.02306 0.02948
v 0.01793 0.04355 0.02692
v -0.04613 -0.02306 0.03204
v -0.01537 0.00513 0.05510
v -0.05638 -0.01792 0.03461
v 0.04099 0.03843 0.05254
v -0.05638 0.01538 0.03204
v 0.04612 0.03843 0.04485
v -0.02049 0.05382 0.04485
v -0.04357 0.03331 0.03204
v -0.04869 0.03843 0.03461
v -0.01023 -0.02306 0.03973
v 0.03588 -0.02049 0.03717
v 0.04869 0.03331 0.02948
v 0.02562 0.01538 0.06023
v 0.00254 0.04100 0.02692
v -0.03331 -0.01792 0.04485
v -0.02306 -0.01024 0.02692
v 0.04869 0.02818 0.05254
v 0.02050 0.05382 0.04229
v -0.05638 0.03843 0.04229
v 0.03331 -0.02049 0.02692
v -0.05638 -0.01792 0.04229
v 0.04612 -0.00255 0.04998
v -0.05125 0.04100 0.03717
v -0.04613 -0.02049 0.02948
v 0.04869 -0.01537 0.03204
v -0.05125 -0.02049 0.04229
v -0.05381 -0.02562 -0.00128
v 0.04869 0.02563 -0.01152
v 0.04869 0.02050 -0.00897
v 0.00769 -0.03075 -0.02177
v -0.05638 0.02563 -0.01665
v 0.03843 -0.02305 0.00129
v -0.02306 0.02563 0.00129
v -0.05638 -0.02819 -0.02177
v 0.03843 0.01281 -0.02177
v 0.04869 -0.02050 -0.01665
v -0.00257 0.02563 -0.02177
v -0.05381 -0.01280 0.00129
v -0.01794 -0.03075 -0.00128
v 0.03588 0.00512 0.00129
v -0.05381 0.01537 -0.02177
v -0.05638 0.02563 -0.00897
v 0.04869 -0.00768 -0.00128
v -0.05638 -0.03075 -0.01409
v 0.04356 -0.02562 -0.00640
v 0.04869 0.02563 -0.01665
v 0.03843 -0.01537 -0.02177
v -0.04869 -0.02562 0.00129
v -0.01023 0.02563 0.00129
v -0.04357 0.01024 0.00129
v -0.00257 -0.03075 -0.00128
v -0.05638 -0.02305 -0.00128
v 0.03588 -0.02562 -0.01921
v 0.04869 -0.02050 -0.00384
v 0.03331 -0.02562 0.00129
v 0.03074 0.02050 -0.02177
v -0.04357 -0.03075 -0.02177
v 0.04099 -0.00768 -0.02177
v 0.04869 -0.00001 -0.00128
v 0.00769 -0.03075 -0.00897
v 0.00511 -0.02819 0.00129
v -0.04357 0.02563 -0.00384
v -0.05125 0.01793 -0.02177
v -0.05638 0.00768 -0.02177
v 0.04099 -0.02562 -0.01665
v 0.04099 -0.00256 0.00129
v -0.05638 -0.02819 -0.00640
v 0.01025 0.02563 -0.02177
v 0.04869 -0.02305 -0.01409
v -0.05638 -0.00768 -0.00128
v -0.02562 -0.02819 0.00129
v 0.03843 -0.02562 -0.00128
v -0.05638 -0.03075 -0.01921
v -0.05638 0.02563 -0.03203
v -0.00002 0.05638 -0.02947
v -0.00002 0.05638 -0.03459
v 0.04869 0.02820 -0.02434
v -0.04357 0.04613 -0.02178
v -0.01280 0.04613 -0.04228
v 0.04612 0.05125 -0.02434
v -0.05381 0.02563 -0.02178
v -0.05638 0.04613 -0.03203
v 0.01537 0.02563 -0.03459
v 0.04869 0.04869 -0.02947
v 0.00769 0.02563 -0.02178
v 0.04869 0.02820 -0.02947
v -0.00512 0.05125 -0.04228
v -0.02049 0.05638 -0.02690
v 0.00254 0.05125 -0.02178
v -0.01537 0.05638 -0.03715
v -0.05638 0.04613 -0.02434
v -0.04613 0.05125 -0.02434
v -0.01537 0.02563 -0.03459
v 0.04612 0.05125 -0.02947
v 0.03843 0.02563 -0.02690
v -0.04869 0.05125 -0.02947
v -0.00512 0.04613 -0.04228
v -0.01280 0.05125 -0.04228
v 0.01025 0.04357 -0.02178
v -0.02049 0.05125 -0.02178
v -0.00512 0.05638 -0.03715
v -0.05638 0.02563 -0.02434
v 0.04869 0.04869 -0.02434
v -0.04613 0.05125 -0.03203
v -0.00512 0.05638 -0.02690
v -0.02306 0.05638 -0.03203
v -0.01794 0.05381 -0.03971
v -0.05381 0.03332 -0.02178
v 0.03588 0.02563 -0.02434
v -0.00257 0.05381 -0.03971
v -0.05638 0.02563 -0.01152
v -0.00257 0.05126 -0.01921
v -0.00257 0.05126 -0.02177
v 0.03075 0.02563 -0.01665
v -0.00770 0.04357 0.00129
v -0.01536 0.02563 0.00129
v -0.04613 0.04357 -0.00897
v -0.01793 0.02819 -0.02177
v -0.05125 0.03844 -0.01665
v -0.02306 0.04357 0.00129
v 0.01025 0.02563 -0.02177
v 0.03075 0.02819 -0.01409
v -0.01536 0.05126 -0.02177
v -0.05125 0.02563 -0.00640
v -0.00514 0.04869 -0.00640
v -0.05381 0.02563 -0.01665
v -0.04356 0.04613 -0.01152
v -0.02562 0.04613 -0.02177
v -0.05381 0.03588 -0.00897
v 0.00512 0.04357 -0.00640
v 0.01793 0.02563 -0.00897
v 0.01025 0.04100 -0.02177
v -0.04356 0.04613 -0.01665
v -0.01536 0.04869 -0.00640
v -0.00770 0.03332 0.00129
v 0.00256 0.04869 -0.01665
v -0.02306 0.03332 0.00129
v -0.04869 0.03844 -0.00640
v -0.05381 0.03844 -0.01409
v -0.01281 0.05126 -0.01665
v -0.02049 0.04613 -0.00128
v 0.03075 0.02819 -0.01665
v -0.02562 0.03844 -0.02177
v 0.00256 0.04869 -0.02177
v -0.00514 0.02563 -0.02177
v -0.03075 0.02563 -0.00128
v 0.02049 0.03588 -0.01409
v -0.04869 0.04357 -0.01152
v -0.05381 -0.01537 -0.03203
v 0.03843 0.02563 -0.02434
v 0.04869 0.01025 -0.02434
v -0.05638 -0.01537 -0.02178
v -0.05638 0.02563 -0.03203
v 0.04099 -0.01537 -0.03459
v -0.05638 0.02563 -0.02178
v 0.03843 -0.01537 -0.02178
v 0.01537 0.02563 -0.03459
v 0.03588 0.02050 -0.02178
v -0.01023 -0.01537 -0.03459
v 0.03843 0.02563 -0.02946
v 0.04869 -0.01281 -0.02946
v -0.01280 0.02563 -0.03459
v 0.04356 -0.00768 -0.03459
v 0.04869 0.00768 -0.02946
v 0.04869 -0.01281 -0.02434
v 0.00769 0.02563 -0.02178
v -0.05638 -0.01537 -0.02946
v 0.04099 0.01025 -0.02178
v 0.04356 -0.01537 -0.02690
v -0.03076 -0.01537 -0.02178
v -0.05638 -0.04100 -0.03715
v -0.05381 -0.04100 -0.03715
v -0.05638 -0.01537 -0.03203
v -0.05638 -0.02819 -0.02178
v -0.03076 -0.03587 -0.03203
v -0.03076 -0.01537 -0.03203
v -0.03076 -0.03075 -0.02178
v -0.05638 -0.04100 -0.02947
v -0.05638 -0.01537 -0.02178
v -0.04357 -0.03075 -0.03715
v -0.05638 -0.03075 -0.03715
v -0.04101 -0.03587 -0.03715
v -0.03076 -0.03587 -0.02947
v -0.04869 -0.03075 -0.02178
v -0.05638 -0.03844 -0.02690
v -0.05381 -0.04100 -0.02947
v -0.00768 -0.04356 -0.04484
v 0.04357 -0.01537 -0.02691
v 0.04357 -0.01537 -0.03203
v -0.03075 -0.01537 -0.02178
v -0.00256 -0.05638 -0.03459
v -0.03075 -0.01537 -0.03203
v 0.00513 -0.03332 -0.02178
v -0.03075 -0.04869 -0.03715
v -0.03075 -0.03076 -0.02178
v 0.01025 -0.03332 -0.04484
v 0.04100 -0.03076 -0.02947
v 0.00769 -0.01537 -0.03715
v 0.00769 -0.04356 -0.04484
v 0.04100 -0.03076 -0.03459
v 0.04100 -0.01537 -0.02434
v -0.02562 -0.04869 -0.04228
v -0.00512 -0.03332 -0.04484
v -0.01025 -0.05382 -0.03203
v 0.04100 -0.01537 -0.03459
v 0.01281 -0.01537 -0.02178
v -0.00256 -0.05638 -0.03715
v -0.01281 -0.05638 -0.03459
v -0.01793 -0.05125 -0.04228
v 0.02049 -0.03588 -0.04228
v -0.02049 -0.03332 -0.02178
v 0.03843 -0.02050 -0.02434
v -0.02562 -0.04612 -0.04228
v -0.03075 -0.04869 -0.03971
v 0.00257 -0.01537 -0.03715
v 0.00257 -0.04612 -0.04484
v -0.01281 -0.05638 -0.03715
v 0.01281 -0.02307 -0.02178
v 0.00769 -0.04612 -0.04228
f 37 9 64 
f 5 6 7 
f 5 7 14 
f 7 6 16 
f 6 11 16 
f 2 3 22 
f 6 5 23 
f 4 6 23 
f 15 10 24 
f 19 1 27 
f 3 17 29 
f 16 11 30 
f 2 22 30 
f 21 6 32 
f 12 21 32 
f 22 3 33 
f 9 28 33 
f 3 29 33 
f 4 23 34 
f 23 13 34 
f 13 26 34 
f 26 4 34 
f 20 8 35 
f 10 20 35 
f 24 10 35 
f 8 24 35 
f 8 20 36 
f 26 13 36 
f 20 26 36 
f 10 15 38 
f 15 29 38 
f 19 27 39 
f 9 37 39 
f 14 7 40 
f 18 14 40 
f 5 14 41 
f 1 19 42 
f 24 8 42 
f 25 1 42 
f 8 36 42 
f 36 25 42 
f 1 25 43 
f 5 41 43 
f 43 41 44 
f 27 1 44 
f 41 14 44 
f 1 43 44 
f 5 13 45 
f 23 5 45 
f 13 23 45 
f 15 24 46 
f 42 19 46 
f 24 42 46 
f 21 12 48 
f 17 31 48 
f 31 21 48 
f 11 6 49 
f 6 21 49 
f 31 11 49 
f 21 31 49 
f 7 16 50 
f 30 7 50 
f 16 30 50 
f 20 10 51 
f 48 12 51 
f 40 7 52 
f 18 40 52 
f 7 47 52 
f 47 28 52 
f 26 20 53 
f 4 26 53 
f 51 12 53 
f 20 51 53 
f 13 5 54 
f 36 13 54 
f 25 36 54 
f 5 43 54 
f 43 25 54 
f 14 18 55 
f 18 27 55 
f 27 44 55 
f 44 14 55 
f 27 18 56 
f 28 9 56 
f 9 39 56 
f 39 27 56 
f 18 52 56 
f 52 28 56 
f 29 17 57 
f 10 38 57 
f 38 29 57 
f 7 30 58 
f 30 22 58 
f 47 7 58 
f 17 48 59 
f 51 10 59 
f 48 51 59 
f 57 17 59 
f 10 57 59 
f 37 15 60 
f 19 39 60 
f 39 37 60 
f 15 46 60 
f 46 19 60 
f 3 2 61 
f 17 3 61 
f 2 30 61 
f 30 11 61 
f 11 31 61 
f 31 17 61 
f 6 4 62 
f 32 6 62 
f 12 32 62 
f 4 53 62 
f 53 12 62 
f 22 33 63 
f 33 28 63 
f 28 47 63 
f 58 22 63 
f 47 58 63 
f 29 15 64 
f 9 33 64 
f 33 29 64 
f 15 37 64 
