# Created by Open3D 
# object name: convex_26_coll
# number of vertices: 14
# number of triangles: 24
v 0.03822 0.03956 0.00395
v 0.03822 0.03956 0.01713
v 0.01187 0.05801 0.00659
v 0.01187 0.05801 -0.01186
v 0.01187 0.07909 0.01713
v 0.04218 0.07777 0.01713
v 0.04086 0.07909 -0.01186
v 0.01187 0.07909 -0.01186
v 0.04613 0.04219 -0.01186
v 0.04613 0.03956 0.01713
v 0.014505 0.06196 0.01713
v 0.04613 0.05274 -0.01186
v 0.0435 0.07645 -0.01186
v 0.04086 0.04219 -0.01186
f 1 2 3
f 4 3 5
f 6 5 2
f 7 4 8
f 4 5 8
f 5 7 8
f 4 7 9
f 6 2 10
f 2 9 10
f 5 3 11
f 2 5 11
f 9 2 1
f 9 7 12
f 10 9 12
f 7 5 6
f 7 6 13
f 6 12 13
f 12 7 13
f 4 9 14
f 1 4 14
f 9 1 14
f 12 6 10
f 3 2 11
f 4 1 3
