# Created by Open3D 
# object name: convex_9_coll
# number of vertices: 14
# number of triangles: 24
v -0.05997 0.013185 -0.067885
v -0.05404 -0.04743 -0.06723
v -0.05931 -0.0448 -0.04878
v 0.01713 0.04745 -0.06459
v 0.01713 -0.04743 -0.06459
v 0.01713 -0.04743 -0.07777
v -0.034265 -0.04743 -0.076455
v -0.04349 0.01186 -0.07777
v -0.04349 -0.04743 -0.04878
v -0.06195 0.03163 -0.04878
v -0.00528 0.04745 -0.07777
v -0.0514 0.04679 -0.0705225
v -0.044805 0.04745 -0.05669
v -0.056015 -0.0059175 -0.07316
f 1 2 3
f 4 5 6
f 7 8 6
f 5 4 9
f 7 5 9
f 10 3 9
f 7 9 2
f 5 7 6
f 6 8 11
f 12 4 11
f 4 12 13
f 3 10 1
f 6 11 4
f 8 12 11
f 4 10 9
f 10 4 13
f 2 9 3
f 12 8 14
f 1 12 14
f 2 14 7
f 13 12 10
f 14 2 1
f 12 1 10
f 8 7 14
