# Created by Open3D 
# object name: convex_4_coll
# number of vertices: 14
# number of triangles: 24
v 0.0435 -0.06063 0.06986
v 0.04877 -0.06854 0.01715
v 0.04877 -0.07645 0.02505
v 0.02241 -0.06063 0.0725
v 0.04086 -0.06327 0.01715
v 0.02241 -0.06327 0.01715
v 0.02241 -0.07909 0.01715
v 0.032955 -0.07909 0.06722
v 0.0435 -0.07909 0.01715
v 0.02241 -0.07777 0.07118
v 0.04086 -0.07645 0.06722
v 0.04086 -0.06854 0.0725
v 0.0435 -0.07118 0.06722
v 0.04877 -0.07645 0.01715
f 4 5 6
f 5 7 6
f 7 4 6
f 8 7 9
f 7 5 9
f 7 8 10
f 4 7 10
f 1 3 2
f 9 5 2
f 8 11 12
f 12 11 13
f 3 1 13
f 1 12 13
f 13 11 3
f 12 4 10
f 8 12 10
f 9 3 8
f 3 11 8
f 5 4 1
f 4 12 1
f 9 2 14
f 3 9 14
f 2 3 14
f 5 1 2
