# Created by Open3D 
# object name: convex_17_coll
# number of vertices: 14
# number of triangles: 24
v -0.06195 0.00263 -0.0145
v -0.06195 -0.0369 -0.01187
v -0.06195 -0.01582 -0.01187
v -0.05405 0.00263 -0.01714
v -0.04877 -0.03163 -0.01187
v -0.05405 0.00263 -0.04878
v -0.05668 -0.07116 -0.04878
v -0.06195 0.00263 -0.04878
v -0.04877 -0.07644 -0.01187
v -0.04877 -0.07644 -0.04878
v -0.04877 -0.02636 -0.04878
v -0.05668 -0.06853 -0.01187
v -0.06195 -0.02636 -0.04878
v -0.05405 -0.07644 -0.04614
f 1 2 3
f 4 3 5
f 5 3 2
f 6 7 8
f 4 6 8
f 5 2 9
f 7 6 10
f 5 9 10
f 10 6 11
f 5 10 11
f 9 2 12
f 3 4 1
f 8 2 1
f 4 8 1
f 2 8 13
f 8 7 13
f 4 5 11
f 6 4 11
f 10 9 14
f 7 2 13
f 7 14 12
f 2 7 12
f 12 14 9
f 7 10 14
