# Created by Open3D 
# object name: convex_27_coll
# number of vertices: 14
# number of triangles: 24
v -0.03295 -0.02109 -0.03559
v -0.04877 -0.05271 -0.02505
v -0.00923 -0.06589 -0.02505
v -0.04877 -0.07908 -0.04878
v -0.04877 -0.07644 -0.02505
v -0.027685 -0.08172 -0.02505
v -0.00923 -0.07908 -0.04878
v -0.00923 -0.05009 -0.04878
v -0.04877 -0.03427 -0.04878
v -0.00923 -0.04746 -0.03823
v -0.03295 -0.02109 -0.04086
v -0.04613 -0.02109 -0.039545
v -0.00923 -0.07908 -0.02505
v -0.01187 -0.08172 -0.04614
f 1 2 3
f 2 4 5
f 6 3 5
f 7 4 8
f 3 7 8
f 4 2 9
f 8 4 9
f 5 3 2
f 3 8 10
f 11 1 10
f 9 2 12
f 1 11 12
f 7 3 13
f 3 6 13
f 4 7 14
f 7 13 14
f 13 6 14
f 14 6 4
f 4 6 5
f 11 10 8
f 12 2 1
f 11 9 12
f 11 8 9
f 1 3 10
