# Created by Open3D 
# object name: convex_5_coll
# number of vertices: 14
# number of triangles: 24
v -0.06657 -0.006575 0.0613
v -0.06591 0.00793 0.07118
v -0.04086 -0.02898 0.05668
v 0.01714 -0.02898 0.06459
v -0.06195 -0.02898 0.0725
v 0.01714 0.08172 0.05405
v 0.01714 0.0804 0.07118
v 0.01714 -0.01843 0.07514
v -0.005275 0.0764475 0.07514
v -0.04877 0.07908 0.05405
v -0.05667 0.07118 0.05405
v 0.01714 0.06327 0.05405
v -0.0546975 0.0705175 0.0705225
v -0.0066 0.08436 0.06986
f 3 4 5
f 4 6 7
f 5 4 8
f 4 7 8
f 10 6 11
f 6 4 12
f 4 3 12
f 11 6 12
f 3 1 11
f 12 3 11
f 10 11 13
f 11 2 13
f 10 14 6
f 2 1 5
f 2 8 9
f 13 2 9
f 9 8 7
f 13 14 10
f 14 9 7
f 1 3 5
f 6 14 7
f 8 2 5
f 9 14 13
f 2 11 1
