# Created by Open3D 
# object name: convex_15_coll
# number of vertices: 14
# number of triangles: 24
v 0.01714 0.06592 0.01714
v 0.01714 0.05537 0.02505
v -0.02768 0.06592 0.01714
v -0.02768 0.05274 0.03032
v -0.02768 0.08173 0.05404
v 0.01714 0.07909 0.01714
v 0.01714 0.06328 0.05404
v 0.01714 0.08173 0.05404
v -0.02504 0.08173 0.02241
v -0.02768 0.06065 0.05404
v 0.01714 0.05537 0.04086
v -0.02768 0.07909 0.01714
v 0.0145 0.08173 0.01978
v -0.02504 0.05274 0.03822
f 3 4 5
f 6 7 2
f 5 7 8
f 7 6 8
f 5 8 9
f 5 4 10
f 7 5 10
f 2 7 11
f 3 6 1
f 6 2 1
f 3 5 12
f 6 3 12
f 5 9 12
f 12 9 13
f 8 6 13
f 9 8 13
f 6 12 13
f 4 2 14
f 10 4 14
f 2 11 14
f 14 11 10
f 11 7 10
f 4 3 2
f 3 1 2
