# Created by Open3D 
# object name: convex_16_coll
# number of vertices: 14
# number of triangles: 24
v 0.04877 -0.07645 0.01713
v 0.05141 -0.07381 0.00922
v 0.05141 1e-05 0.01713
v 0.0435 1e-05 0.01713
v 0.03032 -0.07909 0.01713
v 0.05141 1e-05 -0.01186
v 0.0435 -0.07909 -0.01186
v 0.03296 -0.04216 -0.01186
v 0.03032 -0.07909 -0.01186
v 0.05141 -0.07381 -0.01186
v 0.03032 -0.06589 0.01713
v 0.0435 1e-05 0.00395
v 0.04877 1e-05 -0.01186
v 0.0435 -0.07909 0.01713
f 3 4 5
f 4 3 6
f 7 8 6
f 6 3 2
f 7 5 9
f 8 7 9
f 3 5 1
f 2 1 10
f 7 6 10
f 6 2 10
f 1 7 10
f 5 4 11
f 9 5 11
f 8 4 12
f 4 6 12
f 11 4 8
f 6 8 13
f 8 12 13
f 12 6 13
f 11 8 9
f 5 7 14
f 1 5 14
f 7 1 14
f 2 3 1
