# Created by Open3D 
# object name: convex_7_coll
# number of vertices: 14
# number of triangles: 24
v 0.05272 0.06196 0.07118
v 0.04086 0.073825 0.07118
v 0.05536 0.03428 0.07382
v 0.03822 0.03428 0.01713
v 0.04613 0.03428 0.01713
v 0.01714 0.03428 0.07514
v 0.0435 0.07646 0.01713
v 0.01714 0.08041 0.01977
v 0.01714 0.08173 0.06722
v 0.01714 0.05801 0.01713
v 0.03164 0.08173 0.03823
v 0.01714 0.07646 0.0725
v 0.04613 0.07646 0.06195
v 0.05668 0.04219 0.06195
f 1 2 3
f 4 5 6
f 5 4 7
f 6 5 3
f 8 6 9
f 6 8 10
f 7 4 10
f 8 9 11
f 7 10 8
f 12 6 3
f 9 6 12
f 4 6 10
f 7 14 5
f 5 14 3
f 9 12 2
f 13 9 2
f 7 11 13
f 11 9 13
f 7 13 14
f 13 1 14
f 13 2 1
f 1 3 14
f 7 8 11
f 2 12 3
