# Created by Open3D 
# object name: convex_0_coll
# number of vertices: 14
# number of triangles: 24
v -0.04349 0.0791 -0.04878
v -0.051405 0.073165 -0.0553725
v 0.01712 0.07646 -0.04878
v -0.051405 0.055375 -0.04878
v -0.00923 0.0501 -0.04878
v -0.047445 0.04746 -0.0725
v 0.03558 0.04746 -0.06459
v -0.05008 0.04746 -0.058005
v 0.00131 0.04746 -0.07777
v 0.0032875 0.07712 -0.0619575
v -0.040855 0.073825 -0.068545
v -0.00397 0.07382 -0.06986
v -0.01318 0.06328 -0.07514
v 0.031625 0.05142 -0.07382
f 3 4 5
f 4 3 1
f 6 7 8
f 7 6 9
f 1 3 10
f 11 1 10
f 1 2 4
f 11 10 12
f 1 11 2
f 11 6 2
f 7 9 14
f 13 12 14
f 7 3 5
f 5 4 8
f 7 5 8
f 14 10 3
f 14 3 7
f 13 9 6
f 11 13 6
f 14 12 10
f 13 14 9
f 11 12 13
f 8 4 6
f 4 2 6
