# Created by Open3D 
# object name: convex_12_coll
# number of vertices: 14
# number of triangles: 24
v 0.05932 -0.02899 0.01714
v 0.042185 -0.05931 0.02373
v 0.05668 -0.02899 0.04877
v 0.03823 -0.02899 0.01978
v 0.03823 -0.02899 0.05668
v 0.03032 -0.04745 0.02505
v 0.04218 -0.03954 0.05668
v 0.0356 -0.05272 0.0514
v 0.04087 -0.05272 0.0514
v 0.03296 -0.05272 0.01714
v 0.04087 -0.05799 0.01714
v 0.0356 -0.06063 0.02373
v 0.03032 -0.05272 0.02769
v 0.05668 -0.03427 0.04613
f 3 1 4
f 3 4 5
f 5 4 6
f 7 5 8
f 5 6 8
f 9 7 8
f 10 1 11
f 2 12 11
f 12 10 11
f 10 12 13
f 8 6 13
f 2 1 14
f 14 7 9
f 2 14 9
f 4 10 6
f 10 13 6
f 7 14 3
f 14 1 3
f 1 10 4
f 2 9 12
f 9 8 12
f 8 13 12
f 7 3 5
f 11 1 2
