# Created by Open3D 
# object name: convex_2_coll
# number of vertices: 14
# number of triangles: 24
v 0.0431675 -0.06951 -0.07184
v 0.05273 -0.010555 -0.071185
v 0.04877 -0.07644 -0.0501
v 0.01714 -0.07907 -0.06196
v 0.01714 -0.07907 -0.04878
v 0.01714 0.04746 -0.06459
v 0.01714 -0.07116 -0.07514
v 0.05141 0.021085 -0.04878
v 0.03559 0.04217 -0.04878
v 0.01714 0.04746 -0.07514
v 0.0435 -0.07907 -0.04878
v 0.046135 0.0079 -0.07777
v 0.035595 0.04746 -0.07382
v 0.05009 0.021085 -0.0725
f 1 2 3
f 4 5 6
f 4 6 7
f 5 8 9
f 7 6 10
f 9 6 5
f 5 4 11
f 8 5 11
f 10 12 7
f 6 13 10
f 2 8 3
f 8 11 3
f 13 8 14
f 1 3 11
f 6 9 13
f 1 12 2
f 12 13 14
f 2 12 14
f 12 10 13
f 1 7 12
f 8 2 14
f 4 7 1
f 11 4 1
f 8 13 9
