# Created by Open3D 
# object name: convex_13_coll
# number of vertices: 14
# number of triangles: 24
v 0.04613 -0.02899 0.07513
v 0.058 -0.02899 0.07118
v 0.05932 -0.02899 0.06459
v 0.02241 -0.02899 0.06195
v 0.02505 -0.02899 0.07513
v 0.02241 -0.06063 0.0725
v 0.042185 -0.06063 0.060635
v 0.04087 -0.06063 0.0725
v 0.02241 -0.06063 0.05932
v 0.04613 -0.03954 0.05668
v 0.04613 -0.02899 0.05668
v 0.05668 -0.036905 0.07118
v 0.0356 -0.02899 0.05668
v 0.05668 -0.0369 0.06195
f 2 3 4
f 2 4 5
f 6 7 8
f 6 4 9
f 10 7 9
f 7 6 9
f 4 3 11
f 3 2 12
f 10 9 13
f 9 4 13
f 4 11 13
f 11 10 13
f 11 3 14
f 3 12 14
f 14 12 7
f 4 6 5
f 11 14 10
f 14 7 10
f 6 8 5
f 8 1 5
f 1 8 12
f 2 1 12
f 7 12 8
f 2 5 1
