# Created by Open3D 
# object name: convex_30_coll
# number of vertices: 14
# number of triangles: 24
v 0.02505 0.07646 -0.04614
v 0.04218 0.07778 -0.01187
v 0.02505 0.0791 -0.01187
v 0.02505 0.05537 -0.01187
v 0.04877 0.046145 -0.01187
v 0.02505 0.04483 -0.0435
v 0.034275 0.032965 -0.04878
v 0.04745 0.03428 -0.04746
v 0.046135 0.03164 -0.02505
v 0.03559 0.03164 -0.03559
v 0.04877 0.0501 -0.03823
v 0.0435 0.07646 -0.03032
v 0.03691 0.07646 -0.04218
v 0.04086 0.04219 -0.01187
f 2 3 4
f 3 1 4
f 2 4 5
f 4 1 6
f 1 7 6
f 8 9 10
f 9 4 10
f 5 8 11
f 11 12 5
f 3 2 1
f 5 4 14
f 9 5 14
f 4 9 14
f 8 5 9
f 5 12 2
f 7 1 8
f 1 13 8
f 12 11 13
f 11 8 13
f 7 10 6
f 10 4 6
f 8 10 7
f 1 2 12
f 13 1 12
