# Created by Open3D 
# object name: convex_28_coll
# number of vertices: 14
# number of triangles: 24
v -0.04877 -0.05009 -0.02504
v -0.04745 -0.07776 -0.02504
v -0.04877 -0.07644 -0.01187
v -0.00923 -0.07908 -0.02504
v -0.00923 -0.05009 -0.01187
v -0.01187 -0.08172 -0.01187
v -0.04877 -0.03427 -0.01187
v -0.00923 -0.06326 -0.02504
v -0.02241 -0.02373 -0.01187
v -0.03822 -0.08172 -0.01187
v -0.01714 -0.08172 -0.02504
v -0.00923 -0.07908 -0.01187
v -0.01714 -0.02109 -0.01714
v -0.04349 -0.02109 -0.01582
f 5 3 6
f 2 3 1
f 4 2 1
f 3 5 7
f 1 3 7
f 5 4 8
f 4 1 8
f 7 5 9
f 6 10 11
f 2 4 11
f 4 6 11
f 10 2 11
f 3 2 10
f 6 3 10
f 4 5 12
f 5 6 12
f 6 4 12
f 7 9 14
f 14 13 1
f 7 14 1
f 9 5 13
f 14 9 13
f 8 13 5
f 13 8 1
