# Created by Open3D 
# object name: convex_31_coll
# number of vertices: 13
# number of triangles: 22
v -0.04614 -0.03954 -0.00923
v -0.05668 -0.01845 0.00131
v -0.05405 -0.02899 0.00131
v -0.05932 -0.03954 -0.01187
v -0.06195 -0.03426 -0.01187
v -0.04614 -0.0369 -0.01187
v -0.05932 -0.03954 0.00131
v -0.05668 -0.01845 -0.01187
v -0.05932 -0.01581 0.00131
v -0.05405 -0.03954 0.00131
v -0.06195 -0.01581 0.00131
v -0.06195 -0.01845 -0.01187
v -0.06195 -0.03163 0.00131
f 1 2 3
f 4 5 6
f 5 4 7
f 6 5 8
f 9 7 10
f 7 4 10
f 7 9 11
f 9 8 11
f 11 8 12
f 8 5 12
f 5 11 12
f 8 9 2
f 6 8 2
f 9 10 2
f 4 6 1
f 10 4 1
f 6 2 1
f 5 7 13
f 7 11 13
f 11 5 13
f 2 10 3
f 10 1 3
