# Created by Open3D 
# object name: convex_19_coll
# number of vertices: 14
# number of triangles: 24
v -0.00395 0.0501 -0.04878
v 0.021085 0.0725 -0.04878
v 0.02504 0.05537 -0.03823
v -0.03295 0.0791 -0.04878
v -0.03295 0.058015 -0.04614
v -0.03295 0.0791 -0.01187
v 0.02504 0.0791 -0.01187
v 0.02504 0.05801 -0.01187
v -0.03295 0.06065 -0.01187
v 0.01186 0.0791 -0.04878
v -0.01187 0.04482 -0.040865
v 0.02504 0.0791 -0.04086
v -0.02504 0.04482 -0.03559
v -0.022405 0.04746 -0.04482
f 1 2 3
f 4 5 6
f 4 6 7
f 8 3 7
f 6 8 7
f 6 5 9
f 8 6 9
f 5 4 1
f 4 7 10
f 1 4 10
f 1 3 11
f 7 3 12
f 10 7 12
f 13 8 9
f 5 1 14
f 1 11 14
f 1 10 2
f 12 3 2
f 10 12 2
f 8 13 11
f 11 13 14
f 13 5 14
f 8 11 3
f 13 9 5
