# Created by Open3D 
# object name: convex_29_coll
# number of vertices: 14
# number of triangles: 24
v 0.04877 -0.00263 -0.01187
v 0.03296 0.00265 -0.0435
v 0.03559 -0.00263 -0.04878
v 0.05141 -0.00263 -0.04878
v 0.05141 -0.00263 -0.01187
v 0.05141 0.02637 -0.04878
v 0.05141 0.029 -0.01187
v 0.0435 0.01846 -0.01187
v 0.034275 0.03032 -0.04878
v 0.04482 0.027685 -0.01187
v 0.04614 0.03164 -0.02505
v 0.04877 0.03164 -0.04878
v 0.03559 0.03164 -0.03559
v 0.03296 0.017145 -0.04086
f 1 2 3
f 3 4 5
f 4 3 6
f 5 4 6
f 5 6 7
f 8 5 7
f 6 3 9
f 8 7 10
f 11 7 12
f 7 6 12
f 9 11 12
f 6 9 12
f 3 5 1
f 5 8 1
f 11 9 13
f 10 13 14
f 9 2 14
f 8 10 14
f 13 9 14
f 2 9 3
f 7 11 10
f 11 13 10
f 8 2 1
f 2 8 14
