# Created by Open3D 
# object name: convex_3_coll
# number of vertices: 14
# number of triangles: 24
v 0.02241 -0.07645 0.0725
v 0.0032925 -0.08304 0.07052
v 0.02241 -0.02899 0.0725
v 0.02241 -0.07909 0.05141
v 0.02241 -0.03031 0.063275
v -0.05009 -0.07381 0.05141
v -0.045475 -0.040205 0.05141
v -0.05931 -0.02899 0.0725
v -0.06195 -0.03163 0.06591
v -0.04086 -0.08172 0.05141
v -0.04218 -0.02899 0.05668
v -0.034265 -0.077765 0.073815
v -0.038225 -0.08304 0.065905
v -0.04877 -0.07381 0.0725
f 3 4 5
f 4 6 7
f 4 3 1
f 8 3 9
f 7 5 4
f 6 4 10
f 9 3 11
f 8 12 1
f 12 8 14
f 13 2 12
f 6 10 13
f 14 6 13
f 12 14 13
f 9 7 6
f 14 8 9
f 2 10 4
f 11 3 5
f 3 8 1
f 10 2 13
f 12 2 1
f 7 9 11
f 5 7 11
f 9 6 14
f 4 1 2
