# Created by Open3D 
# object name: convex_14_coll
# number of vertices: 14
# number of triangles: 24
v -0.04614 0.04746 0.01714
v -0.05668 0.034285 0.031635
v -0.051405 0.076455 0.01714
v -0.02769 0.08173 0.05404
v -0.05668 0.07118 0.05404
v -0.054045 0.04219 0.05404
v -0.02769 0.08041 0.021095
v -0.02769 0.06591 0.01714
v -0.02769 0.058 0.05404
v -0.04877 0.07909 0.05404
v -0.0435 0.03692 0.05404
v -0.03296 0.02176 0.0322975
v -0.0435 0.01649 0.026365
v -0.0435 0.01319 0.03296
f 1 2 3
f 4 5 6
f 7 4 8
f 4 6 9
f 8 4 9
f 3 8 1
f 5 4 10
f 5 10 3
f 9 6 11
f 8 9 12
f 2 13 14
f 11 6 14
f 5 2 6
f 8 3 7
f 8 13 1
f 3 2 5
f 6 2 14
f 3 10 4
f 9 11 12
f 11 14 12
f 8 12 13
f 12 14 13
f 3 4 7
f 1 13 2
