# Created by Open3D 
# object name: convex_8_coll
# number of vertices: 14
# number of triangles: 24
v -0.04877 -0.04745 -0.07118
v -0.05668 -0.04745 -0.04878
v 0.01714 -0.05009 -0.04878
v 0.01714 -0.07908 -0.04878
v 0.0145 -0.04745 -0.07777
v -0.04613 -0.07908 -0.04878
v 0.01714 -0.071175 -0.076455
v -0.036245 -0.07776 -0.0665675
v -0.05668 -0.07117 -0.04878
v -0.05668 -0.06854 -0.06459
v -0.02504 -0.04745 -0.07777
v -0.0145025 -0.0724875 -0.076455
v 0.01714 -0.07908 -0.06196
v -0.04877 -0.07117 -0.0725
f 3 2 4
f 2 3 5
f 4 2 6
f 3 4 7
f 2 5 1
f 4 6 8
f 6 2 9
f 2 10 9
f 1 5 11
f 5 12 11
f 12 5 7
f 7 4 13
f 4 8 13
f 10 2 1
f 14 10 1
f 1 11 14
f 11 12 14
f 3 7 5
f 6 9 10
f 8 6 10
f 14 8 10
f 12 7 13
f 8 12 13
f 14 12 8
