# Created by Open3D 
# object name: convex_1_coll
# number of vertices: 14
# number of triangles: 24
v 0.055365 0.007905 -0.04876
v 0.05141 -0.02635 -0.04876
v 0.05141 0.017135 -0.047445
v 0.05339 0.02373 -0.006595
v 0.05141 0.02109 0.01713
v 0.06459 0.01054 0.01713
v 0.05932 -0.03162 0.01713
v 0.05141 -0.03954 0.01713
v 0.06459 -0.00659 -0.013185
v 0.06459 0.01054 -0.00924
v 0.06195 5.00004e-06 -0.03295
v 0.05405 -0.04481 -0.03295
v 0.05405 -0.04481 0.00131
v 0.05405 0.02109 -0.04086
f 1 2 3
f 4 5 6
f 6 5 7
f 3 8 5
f 8 3 2
f 4 6 10
f 6 9 10
f 7 5 8
f 2 1 11
f 12 7 13
f 8 2 12
f 13 8 12
f 3 5 4
f 14 3 4
f 3 14 1
f 14 11 1
f 6 7 9
f 10 14 4
f 2 11 12
f 9 7 12
f 11 14 10
f 9 11 10
f 8 13 7
f 11 9 12
