# Created by Open3D 
# object name: convex_33_coll
# number of vertices: 11
# number of triangles: 18
v -0.03823 0.05537 0.00131
v -0.0435 0.04746 0.00131
v -0.03823 0.05273 0.00131
v -0.05141 0.03428 -0.01187
v -0.05668 0.03428 -0.01187
v -0.0435 0.04483 -0.01187
v -0.05668 0.05537 -0.01187
v -0.04087 0.05537 -0.01187
v -0.05668 0.05537 -0.00132
v -0.05404 0.0501 0.00131
v -0.05668 0.03428 -0.00923
f 1 2 3
f 4 5 6
f 6 5 7
f 6 7 8
f 7 1 8
f 1 7 9
f 7 5 9
f 10 1 9
f 1 10 2
f 2 10 11
f 5 4 11
f 9 5 11
f 10 9 11
f 4 2 11
f 4 6 3
f 6 8 3
f 8 1 3
f 2 4 3
