# Created by Open3D 
# object name: convex_25_coll
# number of vertices: 14
# number of triangles: 24
v 0.03823 0.03955 0.00395
v 0.03823 0.02637 0.01713
v 0.03823 0.03955 0.01449
v 0.04614 0.03955 0.01713
v 0.05141 1e-05 0.01713
v 0.04087 1e-05 0.01713
v 0.04877 1e-05 -0.01186
v 0.05141 0.029 -0.01186
v 0.0435 0.01583 -0.01186
v 0.05141 0.02637 0.01713
v 0.05141 1e-05 -0.01186
v 0.03823 0.02373 0.00659
v 0.0435 0.02637 -0.01186
v 0.04614 0.03955 0.00395
f 1 2 3
f 5 6 7
f 5 4 6
f 8 7 9
f 7 6 9
f 8 4 10
f 5 8 10
f 4 5 10
f 8 5 11
f 7 8 11
f 5 7 11
f 1 9 12
f 6 4 2
f 1 12 2
f 12 6 2
f 1 8 13
f 9 1 13
f 8 9 13
f 4 8 14
f 1 4 14
f 8 1 14
f 12 9 6
f 4 1 3
f 2 4 3
