# Created by Open3D 
# object name: convex_18_coll
# number of vertices: 14
# number of triangles: 24
v -0.06195 0.03428 -0.0145
v -0.05668 0.07118 -0.01187
v -0.06195 0.03428 -0.04878
v -0.03296 0.0791 -0.04878
v -0.03296 0.0791 -0.01187
v -0.03296 0.04481 -0.038225
v -0.05404 0.00264 -0.04878
v -0.05404 0.07381 -0.04878
v -0.06195 0.00264 -0.0145
v -0.05404 0.00264 -0.01714
v -0.06195 0.00264 -0.04878
v -0.03296 0.06064 -0.01187
v -0.03296 0.05799 -0.04878
v -0.04614 0.0791 -0.04878
f 1 2 3
f 4 5 6
f 4 7 8
f 9 7 10
f 7 6 10
f 9 3 11
f 7 9 11
f 8 7 11
f 5 2 12
f 6 5 12
f 10 6 12
f 7 4 13
f 4 6 13
f 5 4 14
f 3 9 1
f 8 11 3
f 7 13 6
f 4 8 14
f 2 14 8
f 2 1 9
f 12 2 9
f 8 3 2
f 12 9 10
f 14 2 5
