# Created by Open3D 
# object name: convex_6_coll
# number of vertices: 14
# number of triangles: 24
v 0.06723 0.00528 0.06723
v 0.04877 -0.02899 0.07512
v 0.05931 -0.02899 0.06986
v 0.02242 -0.02899 0.07512
v 0.04087 -0.02899 0.01713
v 0.03691 0.03428 0.018455
v 0.01714 0.03428 0.07512
v 0.05404 0.03428 0.07512
v 0.01714 -0.02899 0.06458
v 0.05931 -0.02899 0.01713
v 0.06459 0.01055 0.01713
v 0.0362525 0.00528 0.07777
v 0.04613 0.03428 0.01713
v 0.05931 0.03163 0.06986
f 1 2 3
f 4 5 3
f 6 7 8
f 5 4 9
f 10 5 11
f 3 5 10
f 12 8 7
f 6 8 13
f 11 5 13
f 7 6 9
f 6 5 9
f 4 3 2
f 7 9 4
f 4 2 12
f 13 5 6
f 12 2 8
f 7 4 12
f 10 11 1
f 3 10 1
f 14 1 11
f 13 8 14
f 11 13 14
f 8 2 1
f 8 1 14
