# Created by Open3D 
# object name: convex_10_coll
# number of vertices: 14
# number of triangles: 24
v 0.02241 -0.07908 0.05141
v -0.0145 -0.08435 0.03032
v 0.02241 -0.07908 0.01714
v -0.05405 -0.07118 0.01714
v -0.05405 -0.06063 0.01714
v 0.02241 -0.06327 0.01714
v 0.02241 -0.06854 0.05141
v -0.0514 -0.06063 0.05141
v -0.04085 -0.08172 0.05141
v -0.04085 -0.08435 0.01714
v -0.00661 -0.06063 0.027685
v -0.03294 -0.06063 0.05141
v -0.0514 -0.07118 0.05141
v -0.047455 -0.0804 0.043495
f 1 2 3
f 4 5 6
f 7 8 9
f 4 6 3
f 6 7 3
f 4 3 10
f 7 9 1
f 3 7 1
f 5 8 11
f 8 7 12
f 11 8 12
f 12 7 6
f 11 12 6
f 10 2 9
f 2 1 9
f 9 8 13
f 14 9 13
f 5 4 8
f 3 2 10
f 10 9 14
f 14 13 4
f 10 14 4
f 11 6 5
f 13 8 4
