# Created by Open3D 
# object name: convex_23_coll
# number of vertices: 14
# number of triangles: 24
v -0.04745 -0.03954 0.01713
v -0.05932 -0.03954 0.01186
v -0.01713 -0.03954 0.00922
v 0.03032 -0.0659 -0.01186
v -0.05932 -0.03954 -0.01186
v -0.0514 -0.07645 -0.01186
v -0.05405 -0.07118 0.01713
v 0.03032 -0.07909 0.01713
v 0.03032 -0.07909 -0.01186
v -0.04086 -0.08436 0.01713
v 0.03032 -0.0659 0.01713
v -0.027675 -0.04086 -0.01186
v -0.03823 -0.08172 -0.01186
v -0.058 -0.06195 -0.01186
f 4 6 5
f 7 8 1
f 3 5 1
f 6 4 9
f 4 8 9
f 8 7 10
f 8 4 11
f 4 3 11
f 1 8 11
f 3 4 12
f 4 5 12
f 6 9 13
f 1 5 2
f 5 6 14
f 2 5 14
f 9 8 10
f 14 6 7
f 5 3 12
f 1 11 3
f 6 13 10
f 7 6 10
f 13 9 10
f 2 14 7
f 7 1 2
