# Created by Open3D 
# object name: convex_11_coll
# number of vertices: 14
# number of triangles: 24
v -0.04877 -0.04218 0.05141
v -0.04613 -0.03427 0.02769
v -0.05404 -0.06063 0.04086
v -0.05404 -0.06063 0.01714
v -0.03559 -0.06063 0.05141
v -0.03822 -0.04218 0.05141
v -0.05404 -0.05008 0.01714
v -0.03822 -0.06063 0.01714
v -0.0514 -0.06063 0.05141
v -0.04349 -0.05008 0.01714
v -0.03559 -0.03691 0.02769
v -0.01714 -0.06063 0.03032
v -0.0145 -0.0560175 0.029005
v -0.038225 -0.03559 0.03296
f 3 4 5
f 5 6 1
f 4 3 7
f 5 4 8
f 4 7 8
f 3 5 9
f 5 1 9
f 7 2 10
f 2 11 10
f 8 7 10
f 5 8 12
f 8 13 12
f 13 5 12
f 6 13 14
f 13 11 14
f 1 6 14
f 11 2 14
f 1 14 2
f 10 11 13
f 8 10 13
f 5 13 6
f 1 3 9
f 3 1 2
f 7 3 2
