# Created by Open3D 
# object name: convex_24_coll
# number of vertices: 14
# number of triangles: 24
v -0.03559 0.05537 0.01713
v -0.05668 0.05537 -0.01186
v 0.01186 0.05801 -0.01186
v -0.03822 0.0791 -0.01186
v 0.01186 0.0791 0.01713
v -0.04877 0.0791 0.01713
v -0.05668 0.05537 0.00395
v 0.01186 0.0791 -0.01186
v 0.01186 0.06592 0.01713
v -0.05668 0.07119 -0.01186
v 0.01186 0.05801 0.00395
v -0.05404 0.05537 0.01713
v -0.05536 0.071185 0.013175
v -0.05141 0.07646 -0.01186
f 3 2 4
f 5 4 6
f 7 2 1
f 5 6 1
f 5 3 8
f 4 5 8
f 3 4 8
f 3 5 9
f 5 1 9
f 2 7 10
f 4 2 10
f 3 9 11
f 9 1 11
f 7 1 12
f 1 6 12
f 6 10 13
f 12 6 13
f 6 4 14
f 4 10 14
f 10 6 14
f 10 7 13
f 7 12 13
f 3 11 1
f 2 3 1
