# Created by Open3D 
# object name: convex_20_coll
# number of vertices: 14
# number of triangles: 24
v -0.00923 -0.04745 -0.03823
v -0.00923 -0.05009 -0.01187
v 0.02768 -0.03955 -0.04086
v -0.00923 -0.07908 -0.01187
v -0.00923 -0.07908 -0.04878
v 0.03031 -0.07908 -0.04878
v 0.02768 -0.03955 -0.04878
v 0.00132 -0.05273 -0.01187
v 0.03031 -0.07908 -0.01187
v -0.00923 -0.04745 -0.04614
v 0.03031 -0.03955 -0.04086
v 0.03031 -0.0659 -0.01187
v -0.00923 -0.05009 -0.04878
v 0.03031 -0.03955 -0.04878
f 1 2 3
f 4 5 6
f 6 5 7
f 8 4 9
f 4 6 9
f 5 4 10
f 4 8 2
f 10 4 2
f 9 6 11
f 2 8 11
f 8 9 12
f 11 8 12
f 9 11 12
f 7 5 13
f 5 10 13
f 10 7 13
f 7 10 1
f 10 2 1
f 6 7 14
f 11 6 14
f 7 11 14
f 11 7 3
f 2 11 3
f 7 1 3
