# Created by Open3D 
# object name: convex_22_coll
# number of vertices: 14
# number of triangles: 24
v -0.05932 1e-05 0.01186
v -0.05668 0.04218 0.00923
v -0.05932 1e-05 0.00396
v -0.02505 1e-05 0.00396
v -0.03032 1e-05 0.01186
v -0.0356 0.05536 0.01713
v -0.0356 0.05536 0.00132
v -0.05404 0.05536 0.00132
v -0.047455 0.03032 0.01713
v -0.03032 0.05536 0.00396
v -0.046135 0.029 0.00132
v -0.05404 0.05536 0.01713
v -0.02241 0.00265 0.00923
v -0.03032 0.05536 0.01186
f 1 2 3
f 3 4 5
f 6 7 8
f 3 5 1
f 1 5 9
f 4 7 10
f 7 6 10
f 4 3 11
f 3 8 11
f 8 7 11
f 9 5 6
f 12 9 6
f 5 13 6
f 6 13 14
f 10 6 14
f 13 10 14
f 6 8 12
f 8 2 12
f 2 1 12
f 12 1 9
f 7 4 11
f 5 4 13
f 4 10 13
f 2 8 3
