# Created by Open3D 
# object name: convex_21_coll
# number of vertices: 14
# number of triangles: 24
v 0.03296 -0.04217 -0.01187
v 0.03032 -0.03691 -0.04878
v 0.03032 -0.07909 -0.01187
v 0.05141 -0.00263 -0.04878
v 0.05141 -0.00263 -0.01187
v 0.05141 -0.07381 -0.01187
v 0.0435 -0.07909 -0.04878
v 0.03559 -0.00263 -0.04878
v 0.03032 -0.07909 -0.04878
v 0.04877 -0.07644 -0.04878
v 0.03559 -0.00263 -0.04086
v 0.05141 -0.04744 -0.04614
v 0.04877 -0.00263 -0.01187
v 0.0435 -0.07909 -0.01187
f 1 2 3
f 4 5 6
f 5 3 6
f 4 7 8
f 5 4 8
f 7 3 9
f 8 7 9
f 3 5 1
f 7 4 10
f 9 3 2
f 2 1 11
f 5 8 11
f 8 2 11
f 4 6 12
f 10 4 12
f 6 10 12
f 1 5 13
f 11 1 13
f 5 11 13
f 6 3 14
f 3 7 14
f 10 6 14
f 7 10 14
f 8 9 2
