# Created by Open3D 
# object name: convex_32_coll
# number of vertices: 14
# number of triangles: 24
v -0.06194 -0.02899 0.01186
v -0.05931 0 0.01186
v 0.00395 0 0.00396
v -0.06194 0 0.00396
v -0.05799 -0.03953 0.01318
v -0.05931 -0.03953 0.00132
v -0.01583 -0.03953 0.005275
v 0.00131 -0.02899 0.00923
v -0.03822 -0.03953 0.00132
v -0.06194 -0.01054 0.00132
v 0.00395 -0.00264 0.00923
v -0.04613 -0.03953 0.01713
v -0.02242 -0.03953 0.01186
v 0.00263 -0.023715 0.00396
f 5 6 7
f 3 4 2
f 7 6 9
f 6 10 9
f 3 2 11
f 12 8 11
f 8 3 11
f 3 10 4
f 4 10 1
f 5 7 13
f 7 14 8
f 13 7 8
f 11 2 12
f 1 10 6
f 9 14 7
f 5 13 12
f 13 8 12
f 5 12 2
f 1 5 2
f 3 8 14
f 9 3 14
f 3 9 10
f 1 6 5
f 4 1 2
