# Created by Open3D 
# object name: convex_3_coll
# number of vertices: 14
# number of triangles: 24
v 0.05173 0.07187 -0.06611
v 0.06467 0.07187 -0.03161
v 0.05317 0.05175 -0.04024
v 0.02874 0.08337 0.02875
v 0.04599 0.05175 0.02875
v 0.06036 0.08337 0.02875
v 0.02874 0.069 0.02875
v 0.02874 0.069 -0.06611
v 0.06611 0.07187 0.023
v 0.061795 0.053185 0.02875
v 0.06036 0.08337 -0.02874
v 0.02874 0.08049 -0.06611
v 0.06539 0.08121 0.002155
v 0.05173 0.08049 -0.06611
f 1 2 3
f 4 5 6
f 5 4 7
f 4 8 7
f 8 5 7
f 6 5 10
f 4 6 11
f 8 4 12
f 5 8 3
f 9 2 13
f 5 3 10
f 12 11 14
f 3 8 1
f 8 12 1
f 12 14 1
f 2 9 10
f 14 11 2
f 11 13 2
f 11 12 4
f 11 6 13
f 14 2 1
f 10 9 6
f 6 9 13
f 2 10 3
