# Created by Open3D 
# object name: convex_20_coll
# number of vertices: 14
# number of triangles: 24
v -0.0115 0.05175 -0.06037
v 0.02874 0.04599 -0.06612
v -0.03163 -0.03162 -0.07474
v 0.01436 -0.03162 -0.07474
v -0.03163 -0.03162 -0.06612
v -0.03163 0.05175 -0.07474
v 0.01149 0.05175 -0.06899
v -0.03163 0.05175 -0.06037
v 0.02874 -0.03162 -0.06612
v 0.02874 0.02586 -0.07474
v 0.02874 0.04599 -0.07186
v 0.02874 -0.01437 -0.07474
v -0.03163 0.04024 -0.06037
v 0.02874 -0.03162 -0.07186
f 3 4 5
f 4 3 6
f 3 5 6
f 7 6 8
f 6 5 8
f 5 4 9
f 4 6 10
f 9 10 2
f 9 2 1
f 2 10 11
f 7 2 11
f 4 10 12
f 10 9 12
f 8 5 13
f 5 9 13
f 1 8 13
f 9 1 13
f 11 10 6
f 9 4 14
f 4 12 14
f 12 9 14
f 11 6 7
f 7 8 1
f 2 7 1
