# Created by Open3D 
# object name: convex_5_coll
# number of vertices: 14
# number of triangles: 24
v 0.02155 -0.07617 0.05175
v 0.02011 -0.07473 0.02875
v 0.06323 -0.05461 0.02875
v 0.06323 -0.08336 0.02875
v 0.02011 -0.08624 0.05175
v 0.06035 -0.08336 0.05175
v 0.02011 -0.08624 0.02875
v 0.05461 -0.05461 0.03737
v 0.06035 -0.07186 0.05175
v 0.05748 -0.08624 0.02875
v 0.05173 -0.05461 0.02875
v 0.06323 -0.07617 0.04887
v 0.05173 -0.08624 0.05175
v 0.06035 -0.05461 0.03737
f 3 4 2
f 5 6 1
f 5 2 7
f 2 4 7
f 1 6 9
f 4 6 10
f 5 7 10
f 3 2 11
f 8 3 11
f 1 8 11
f 4 3 12
f 6 4 12
f 9 6 12
f 7 4 10
f 6 5 13
f 5 10 13
f 10 6 13
f 2 5 1
f 3 8 14
f 8 9 14
f 14 9 12
f 3 14 12
f 8 1 9
f 1 11 2
