# Created by Open3D 
# object name: convex_24_coll
# number of vertices: 14
# number of triangles: 24
v -0.05462 0.02875 0.00288
v -0.06038 0.06324 0.01151
v -0.06038 0.06612 -0.00287
v -0.03163 0.06612 0.02875
v -0.0575 0.06612 0.02875
v -0.03738 0.02875 0.02875
v -0.03451 0.06612 -0.00287
v -0.03163 0.02875 0.00288
v -0.05175 0.04313 -0.00287
v -0.05462 0.0345 0.02875
v -0.05175 0.02875 1e-05
v -0.03738 0.02875 1e-05
v -0.03163 0.05174 0.00288
v -0.05175 0.02875 0.02875
f 1 2 3
f 4 5 6
f 5 4 7
f 8 6 1
f 7 9 3
f 5 7 3
f 6 5 10
f 8 1 11
f 5 3 2
f 1 10 2
f 10 5 2
f 7 8 12
f 11 9 12
f 8 11 12
f 7 4 13
f 4 8 13
f 8 7 13
f 1 6 14
f 10 1 14
f 6 10 14
f 4 6 8
f 7 12 9
f 9 11 3
f 11 1 3
