# Created by Open3D 
# object name: convex_0_coll
# number of vertices: 14
# number of triangles: 24
v 0.02299 -0.08911 -0.0546
v 0.02011 -0.08911 0.02875
v 0.02299 -0.07473 0.02875
v -0.05462 -0.08911 0.02875
v 0.02299 -0.05605 -0.07617
v 0.02299 -0.0776 -0.07761
v -0.058935 -0.05605 -0.07042
v -0.05462 -0.05461 0.01436
v -0.02299 -0.05461 0.00861
v 0.02299 -0.05461 -0.04598
v -0.0592988 -0.0722188 0.02731
v -0.06038 -0.080475 -0.061795
v -0.05462 -0.0776 -0.07761
v -0.053185 -0.08911 -0.048855
f 5 3 6
f 3 4 2
f 5 7 8
f 5 8 9
f 3 5 10
f 9 3 10
f 5 9 10
f 4 3 11
f 6 3 1
f 6 13 5
f 6 1 13
f 12 11 7
f 2 4 1
f 13 1 14
f 1 3 2
f 4 12 14
f 8 7 11
f 5 13 7
f 12 4 11
f 13 14 12
f 3 8 11
f 1 4 14
f 12 7 13
f 3 9 8
