# Created by Open3D 
# object name: convex_12_coll
# number of vertices: 14
# number of triangles: 24
v -0.0603675 0.0754625 0.0718625
v -0.04025 0.08624 0.063245
v 0.01437 0.09198 0.07186
v 0.01437 0.04025 0.07761
v 0.01437 0.06899 0.04887
v -0.05893 0.05463 0.04887
v -0.05893 0.079055 0.04887
v -0.061805 0.04025 0.071865
v 0.01437 0.04025 0.06612
v -0.05461 0.04025 0.0575
v 0.01437 0.08911 0.04887
v 0.01437 0.08624 0.07761
v -0.02874 0.08336 0.07761
v -0.00864 0.090545 0.053185
f 3 4 5
f 5 6 7
f 4 8 9
f 5 4 9
f 6 5 9
f 9 8 10
f 3 5 11
f 5 7 11
f 4 3 12
f 13 4 12
f 3 11 14
f 7 6 8
f 8 13 1
f 11 7 14
f 14 7 2
f 7 8 1
f 14 2 3
f 13 8 4
f 2 7 1
f 6 9 10
f 10 8 6
f 13 12 3
f 13 3 1
f 3 2 1
