# Created by Open3D 
# object name: convex_16_coll
# number of vertices: 14
# number of triangles: 24
v -0.0575 0.08049 -0.03161
v -0.04311 0.08337 0.02875
v 0.02874 0.08337 0.00862
v 0.02874 0.069 -0.03161
v -0.06038 0.06612 -0.03161
v 0.02874 0.069 0.02875
v -0.06038 0.06612 0.02875
v 0.02874 0.08049 -0.03161
v 0.02874 0.08337 0.02875
v -0.06038 0.07762 0.02875
v -0.02588 0.06612 0.02875
v -0.03162 0.06612 -0.03161
v -0.06038 0.07762 -0.03161
v -0.0575 0.08049 0.02875
f 1 2 3
f 4 5 1
f 4 3 6
f 2 7 6
f 3 4 8
f 1 3 8
f 4 1 8
f 3 2 9
f 6 3 9
f 2 6 9
f 5 7 10
f 7 2 10
f 7 5 11
f 4 6 11
f 5 4 12
f 11 5 12
f 4 11 12
f 6 7 11
f 1 5 13
f 5 10 13
f 10 1 13
f 2 1 14
f 1 10 14
f 10 2 14
