# Created by Open3D 
# object name: convex_27_coll
# number of vertices: 14
# number of triangles: 24
v 0.00286 -0.05317 -0.05749
v -0.03163 -0.05461 -0.05749
v 0.02874 -0.03162 -0.07186
v 0.02874 -0.03162 -0.06612
v 0.02874 -0.05461 -0.06324
v -0.03163 -0.05461 -0.07474
v -0.03163 -0.03162 -0.06324
v 0.02874 -0.05461 -0.07474
v -0.03163 -0.03162 -0.07474
v 0.01436 -0.03162 -0.07474
v 0.00574 -0.03162 -0.06324
v -0.03163 -0.04886 -0.05749
v 0.02874 -0.04024 -0.06324
v 0.02874 -0.04024 -0.07474
f 3 4 5
f 5 2 6
f 4 3 7
f 6 2 7
f 3 5 8
f 5 6 8
f 8 6 9
f 7 3 9
f 6 7 9
f 8 9 10
f 9 3 10
f 4 7 11
f 1 11 12
f 7 2 12
f 2 1 12
f 11 7 12
f 5 4 13
f 1 5 13
f 4 11 13
f 11 1 13
f 3 8 14
f 10 3 14
f 8 10 14
f 2 5 1
