# Created by Open3D 
# object name: convex_22_coll
# number of vertices: 12
# number of triangles: 20
v -0.02299 -0.05461 -0.04024
v -0.01438 -0.04886 -0.04024
v -0.02299 -0.04886 -0.04024
v -0.00575 -0.05174 -0.05462
v -0.00575 -0.05461 -0.05462
v -0.02299 -0.04886 -0.05174
v 0.02874 -0.04886 -0.05174
v 0.02874 -0.05461 -0.04599
v -0.00863 -0.05174 -0.04024
v 0.02874 -0.05461 -0.05462
v 0.02874 -0.04886 -0.04599
v -0.02299 -0.05461 -0.05174
f 1 2 3
f 4 5 6
f 7 4 6
f 5 8 1
f 8 9 1
f 7 6 2
f 1 9 2
f 5 4 10
f 8 5 10
f 7 8 10
f 4 7 10
f 9 8 11
f 8 7 11
f 2 9 11
f 7 2 11
f 6 5 12
f 5 1 12
f 1 6 12
f 6 1 3
f 2 6 3
