# Created by Open3D 
# object name: convex_28_coll
# number of vertices: 10
# number of triangles: 16
v -0.02301 -0.05461 -0.04025
v -0.02301 -0.04599 -0.04886
v -0.02301 -0.04886 -0.04025
v -0.03163 -0.05174 -0.05749
v -0.03163 -0.05461 -0.05749
v -0.03163 -0.05461 -0.03737
v -0.02301 -0.05461 -0.05174
v -0.02875 -0.04312 -0.04025
v -0.03163 -0.04024 -0.046
v -0.02588 -0.05174 -0.05749
f 1 2 3
f 4 5 6
f 5 7 6
f 6 8 9
f 4 6 9
f 9 8 2
f 6 7 1
f 7 2 1
f 5 4 10
f 7 5 10
f 4 9 10
f 2 7 10
f 9 2 10
f 8 6 3
f 2 8 3
f 6 1 3
