# Created by Open3D 
# object name: convex_4_coll
# number of vertices: 14
# number of triangles: 24
v -0.05175 -0.08623 0.05175
v -0.0575 -0.08048 0.05175
v -0.050305 -0.08911 0.04456
v -0.04024 -0.05749 0.02875
v -0.04024 -0.05749 0.0345
v 0.02011 -0.07473 0.02875
v 0.02011 -0.07761 0.05175
v 0.02011 -0.08911 0.02875
v -0.054625 -0.08767 0.02875
v 0.0086 -0.08911 0.05175
v -0.056055 -0.07043 0.05175
v -0.056055 -0.0618 0.030185
v 0.02011 -0.08623 0.05175
v -0.04312 -0.06899 0.05175
f 1 2 3
f 4 5 6
f 7 8 6
f 9 4 6
f 3 8 10
f 7 11 10
f 4 9 12
f 10 11 2
f 12 9 2
f 8 3 9
f 9 6 8
f 3 10 1
f 10 2 1
f 8 7 13
f 10 8 13
f 7 10 13
f 7 5 14
f 5 11 14
f 11 7 14
f 5 4 12
f 11 5 12
f 5 7 6
f 12 2 11
f 2 9 3
