# Created by Open3D 
# object name: convex_26_coll
# number of vertices: 14
# number of triangles: 24
v 0.05461 0.03449 -0.06036
v 0.05748 0.05174 -0.04312
v 0.06036 4.99981e-06 -0.06036
v 0.045985 -0.0043 -0.06036
v 0.04455 0.03593 -0.06036
v 0.06036 -0.03449 -0.02874
v 0.06036 0.01724 -0.02874
v 0.05173 -0.03449 -0.02874
v 0.05748 -0.03449 -0.05461
v 0.04886 -0.03449 -0.05461
v 0.050295 0.05174 -0.03306
v 0.04024 0.01437 -0.04599
v 0.04599 0.04886 -0.04599
v 0.04024 -0.00286 -0.048865
f 3 4 5
f 6 7 8
f 6 8 9
f 9 8 10
f 4 9 10
f 6 3 7
f 3 2 7
f 9 4 3
f 3 5 1
f 8 7 11
f 12 8 11
f 11 2 13
f 14 5 4
f 10 14 4
f 8 12 14
f 14 10 8
f 12 11 13
f 3 6 9
f 2 1 5
f 13 2 5
f 5 14 12
f 13 5 12
f 7 2 11
f 2 3 1
