# Created by Open3D 
# object name: convex_18_coll
# number of vertices: 14
# number of triangles: 24
v -0.0575 -0.0115 -0.07186
v -0.03163 -0.0115 -0.07474
v -0.05462 -0.0115 -0.07474
v -0.03163 -0.05461 -0.07474
v -0.03163 -0.0115 -0.06611
v -0.03163 -0.05461 -0.03737
v -0.0575 -0.05461 -0.06899
v -0.0575 -0.05461 -0.03737
v -0.05175 -0.03449 -0.03737
v -0.05175 -0.0115 -0.04024
v -0.0575 -0.0115 -0.04024
v -0.03163 -0.03736 -0.04024
v -0.046 -0.05461 -0.07474
v -0.05462 -0.05461 -0.07186
f 1 2 3
f 4 5 6
f 4 6 7
f 7 6 8
f 6 9 8
f 10 5 1
f 3 7 1
f 7 8 1
f 4 3 2
f 5 4 2
f 1 5 2
f 9 10 11
f 8 9 11
f 10 1 11
f 1 8 11
f 5 10 12
f 6 5 12
f 3 4 13
f 4 7 13
f 10 9 6
f 12 10 6
f 7 3 14
f 3 13 14
f 13 7 14
