# Created by Open3D 
# object name: convex_14_coll
# number of vertices: 14
# number of triangles: 24
v 0.04742 0.08624 0.034495
v 0.05748 0.08624 0.05749
v 0.06179 0.081925 0.02875
v 0.01437 0.069 0.02875
v 0.06035 0.04887 0.02875
v 0.01437 0.08912 0.05749
v 0.04599 0.05463 0.05749
v 0.06611 0.08049 0.05749
v 0.01437 0.069 0.05749
v 0.04599 0.04887 0.02875
v 0.06467 0.0575 0.05749
v 0.01437 0.08336 0.02875
v 0.04599 0.04887 0.04599
v 0.06035 0.04887 0.04887
f 1 2 3
f 4 3 5
f 6 7 8
f 7 6 9
f 4 9 6
f 4 5 10
f 9 4 10
f 8 7 11
f 3 4 12
f 4 6 12
f 7 9 13
f 10 5 13
f 9 10 13
f 6 8 2
f 6 2 1
f 11 7 14
f 7 13 14
f 13 5 14
f 3 12 1
f 12 6 1
f 14 5 11
f 5 8 11
f 5 3 8
f 2 8 3
