# Created by Open3D 
# object name: convex_1_coll
# number of vertices: 14
# number of triangles: 24
v 0.06467 -0.07904 -0.05748
v 0.06611 -0.07473 0.02875
v 0.02299 -0.08623 0.02875
v 0.05173 -0.05461 0.02875
v 0.05461 -0.05461 -0.07473
v 0.02299 -0.05461 -0.04598
v 0.02299 -0.08911 -0.05749
v 0.06036 -0.08623 0.02875
v 0.02299 -0.05461 -0.07473
v 0.02299 -0.07473 0.02875
v 0.06323 -0.05461 0.02875
v 0.02299 -0.0776 -0.07761
v 0.048855 -0.090545 -0.05461
v 0.0531675 -0.073295 -0.07977
f 3 2 4
f 5 6 4
f 3 6 7
f 2 3 8
f 7 6 9
f 6 3 10
f 3 4 10
f 4 2 11
f 5 4 11
f 7 9 12
f 2 1 11
f 6 5 9
f 7 13 8
f 8 13 1
f 3 7 8
f 9 5 14
f 6 10 4
f 12 13 7
f 12 14 13
f 9 14 12
f 2 8 1
f 1 5 11
f 5 1 14
f 1 13 14
