# Created by Open3D 
# object name: convex_25_coll
# number of vertices: 14
# number of triangles: 24
v 0.05461 -0.04312 -0.06036
v 0.05748 -0.05461 -0.05749
v 0.05173 -0.03449 -0.02874
v 0.06035 -0.03449 -0.05174
v 0.04599 -0.03449 -0.05461
v 0.06323 -0.05461 -0.02874
v 0.05173 -0.05461 -0.02874
v 0.02874 -0.051735 -0.04599
v 0.02874 -0.05461 -0.05461
v 0.06035 -0.03449 -0.02874
v 0.06323 -0.05461 -0.04887
v 0.04886 -0.05174 -0.06036
v 0.03018 -0.0503 -0.05605
v 0.03449 -0.04024 -0.048865
f 3 4 5
f 6 3 7
f 3 8 7
f 2 7 9
f 3 6 10
f 6 4 10
f 4 3 10
f 4 6 11
f 2 4 11
f 7 2 11
f 5 4 1
f 4 2 1
f 9 7 8
f 1 12 13
f 5 1 13
f 12 9 13
f 8 3 14
f 3 5 14
f 7 11 6
f 9 8 13
f 8 14 13
f 14 5 13
f 9 12 2
f 12 1 2
