# Created by Open3D 
# object name: convex_11_coll
# number of vertices: 14
# number of triangles: 24
v -0.04887 -0.0546 0.07618
v 0.01436 -0.05029 0.07618
v 0.01436 0.04025 0.07762
v -0.05893 0.04025 0.06181
v -0.06037 0.04025 0.07474
v 0.01436 0.03306 0.064685
v 0.01436 -0.0546 0.06325
v -0.04312 -0.047415 0.05175
v -0.06037 -0.0546 0.06325
v -0.06037 -0.00574 0.07762
v -0.03162 0.04025 0.06037
v -0.04743 -0.01435 0.05175
v -0.06611 -0.008615 0.06325
v -0.064675 -0.03448 0.07186
f 3 4 5
f 6 3 7
f 8 6 7
f 2 3 1
f 7 1 9
f 1 3 10
f 4 3 11
f 12 4 11
f 7 3 2
f 1 7 2
f 11 3 6
f 8 9 13
f 12 8 13
f 10 3 5
f 8 7 9
f 14 10 5
f 13 14 5
f 6 8 12
f 11 6 12
f 13 5 4
f 13 9 14
f 9 1 14
f 1 10 14
f 4 12 13
