# Created by Open3D 
# object name: convex_17_coll
# number of vertices: 14
# number of triangles: 24
v 0.047425 0.0503 -0.06827
v 0.02874 0.04598 -0.06612
v 0.02874 -0.05461 -0.07474
v 0.056045 -0.05461 -0.0733
v 0.03449 -0.05461 -0.06037
v 0.05748 -0.05461 -0.06037
v 0.054605 0.02443 -0.07474
v 0.04311 0.04024 -0.06037
v 0.0582025 0.0244275 -0.0610875
v 0.02874 0.04885 -0.07186
v 0.06036 0.01149 -0.07186
v 0.02874 -0.05461 -0.06324
v 0.02874 0.02874 -0.07474
v 0.056045 0.03449 -0.070425
f 3 4 5
f 5 4 6
f 4 3 7
f 5 6 8
f 8 6 9
f 10 3 2
f 4 7 11
f 3 5 12
f 2 3 12
f 3 10 13
f 10 7 13
f 7 3 13
f 7 10 1
f 1 10 2
f 4 11 6
f 11 9 6
f 1 8 9
f 7 14 11
f 1 14 7
f 11 14 9
f 14 1 9
f 5 8 12
f 8 2 12
f 2 8 1
