# Created by Open3D 
# object name: convex_10_coll
# number of vertices: 14
# number of triangles: 24
v -0.05463 0.046 0.02875
v -0.06038 0.06325 0.02875
v 0.01437 0.08912 0.04887
v 0.01437 0.06899 0.04887
v 0.01437 0.06899 0.02875
v -0.050315 0.04888 0.04887
v -0.05894 0.079055 0.04887
v -0.03737 0.046 0.02875
v -0.06038 0.07762 0.02875
v 0.01437 0.08336 0.02875
v -0.040245 0.046 0.04025
v -0.04312 0.08336 0.02875
v -0.06038 0.0575 0.04887
v -0.00433 0.08912 0.045995
f 3 4 5
f 4 3 6
f 6 3 7
f 5 4 8
f 9 5 8
f 3 5 10
f 5 9 10
f 9 8 1
f 1 8 11
f 9 7 12
f 10 9 12
f 6 7 13
f 2 13 9
f 7 3 14
f 12 7 14
f 9 13 7
f 8 4 11
f 11 4 6
f 14 3 10
f 12 14 10
f 11 6 1
f 6 13 1
f 13 2 1
f 9 1 2
