# Created by Open3D 
# object name: convex_13_coll
# number of vertices: 14
# number of triangles: 24
v 0.04311 -0.05173 0.02875
v 0.06323 0.02012 0.05749
v 0.06036 0.04886 0.02875
v 0.06323 -0.05461 0.02875
v 0.04599 0.04886 0.02875
v 0.04599 0.04886 0.04312
v 0.06323 -1e-05 0.05749
v 0.06036 0.04886 0.04599
v 0.04311 0.01293 0.05462
v 0.04311 0.01724 0.02875
v 0.06323 0.00287 0.02875
v 0.06036 -0.05173 0.04312
v 0.04599 -0.05173 0.04312
v 0.05461 0.00287 0.05749
f 1 3 4
f 3 1 5
f 6 3 5
f 4 2 7
f 3 6 8
f 2 3 8
f 9 6 10
f 1 9 10
f 5 1 10
f 6 5 10
f 3 2 11
f 2 4 11
f 12 7 13
f 13 7 14
f 2 9 14
f 7 2 14
f 9 2 6
f 2 8 6
f 7 12 4
f 12 13 4
f 13 14 9
f 1 13 9
f 4 3 11
f 4 13 1
