# Created by Open3D 
# object name: convex_19_coll
# number of vertices: 14
# number of triangles: 24
v -0.05031 0.028745 -0.03162
v -0.0575 0.05175 -0.03162
v -0.047435 0.05175 -0.03306
v -0.03163 0.05175 -0.07474
v -0.0575 0.05175 -0.07186
v -0.03163 -0.01149 -0.06611
v -0.054625 -0.01149 -0.04025
v -0.0575 -0.01149 -0.07474
v -0.06038 -0.00861 -0.06899
v -0.03163 -0.01149 -0.07474
v -0.03163 0.05175 -0.06036
v -0.03451 0.023 -0.04312
v -0.06038 -0.00286 -0.03738
v -0.05175 0.05175 -0.07474
f 2 3 4
f 2 4 5
f 6 7 8
f 7 9 8
f 4 6 10
f 8 4 10
f 6 8 10
f 4 3 11
f 6 4 11
f 12 6 11
f 6 12 7
f 9 7 13
f 3 2 1
f 12 3 1
f 7 12 1
f 2 5 9
f 5 4 14
f 4 8 14
f 2 9 13
f 12 11 3
f 5 14 8
f 5 8 9
f 13 7 1
f 2 13 1
