# Created by Open3D 
# object name: convex_2_coll
# number of vertices: 14
# number of triangles: 24
v 0.06036 -0.081915 0.058935
v 0.05748 -0.0776 0.07474
v 0.05748 -0.05461 0.07474
v -0.06037 -0.05461 0.07474
v -0.046 -0.05461 0.0575
v 0.05173 -0.08623 0.05175
v -0.054615 -0.08479 0.05175
v 0.05748 -0.07187 0.05175
v -0.056055 -0.06755 0.05175
v 0.050295 -0.05461 0.064685
v -0.007185 -0.09198 0.067555
v -0.0546225 -0.0840725 0.0725825
v -0.0057575 -0.08839 0.07474
v -0.06325 -0.0776 0.067555
f 4 3 5
f 6 7 8
f 8 7 9
f 5 3 10
f 11 7 6
f 7 11 12
f 6 8 1
f 8 3 1
f 4 5 9
f 9 14 4
f 14 9 7
f 13 12 11
f 1 3 2
f 4 14 12
f 10 8 5
f 14 7 12
f 13 3 4
f 12 13 4
f 3 8 10
f 2 3 13
f 11 6 1
f 5 8 9
f 13 11 2
f 11 1 2
