# Created by Open3D 
# object name: convex_23_coll
# number of vertices: 14
# number of triangles: 24
v -0.04888 0.03163 -0.01437
v -0.03738 0.06612 -0.00288
v -0.04888 0.046 -0.00288
v -0.06037 0.06612 -0.00288
v -0.04026 0.06612 -0.03162
v -0.05175 0.03163 -0.03162
v -0.06037 0.06612 -0.03162
v -0.05462 0.03163 -0.01437
v -0.0575 0.03163 -0.03162
v -0.03738 0.06324 -0.01724
v -0.06037 0.06037 -0.00288
v -0.0575 0.03163 -0.02012
v -0.06037 0.05462 -0.03162
v -0.05462 0.04887 -0.00288
f 1 2 3
f 4 2 5
f 5 6 7
f 4 5 7
f 6 8 9
f 7 6 9
f 2 4 3
f 3 8 1
f 8 6 1
f 5 2 10
f 4 7 11
f 3 4 11
f 9 8 12
f 8 11 12
f 12 11 13
f 7 9 13
f 11 7 13
f 9 12 13
f 1 10 2
f 8 3 14
f 11 8 14
f 3 11 14
f 10 1 5
f 1 6 5
