# Created by Open3D 
# object name: convex_15_coll
# number of vertices: 12
# number of triangles: 20
v -0.03163 -0.05461 -0.01437
v -0.03163 -0.05173 -0.00862
v -0.03163 -0.05461 -0.00862
v -0.0575 -0.05461 -0.00862
v -0.0575 -0.05461 -0.02012
v -0.0575 -0.03737 -0.00862
v -0.05175 -0.03162 -0.01437
v -0.0575 -0.03162 -0.01725
v -0.04887 -0.05173 -0.02012
v -0.05175 -0.03162 -0.01725
v -0.03163 -0.05173 -0.01437
v -0.05175 -0.03737 -0.00862
f 1 2 3
f 4 5 1
f 4 2 6
f 5 4 6
f 6 7 8
f 5 6 8
f 1 5 9
f 5 8 9
f 9 8 10
f 7 2 10
f 8 7 10
f 2 1 11
f 1 9 11
f 9 10 11
f 10 2 11
f 2 7 12
f 7 6 12
f 6 2 12
f 2 4 3
f 4 1 3
