# Created by Open3D 
# object name: convex_7_coll
# number of vertices: 14
# number of triangles: 24
v -0.0575 0.05175 -0.07186
v -0.05894 0.07618 -0.0618
v -0.05175 0.05175 -0.03162
v 0.00861 0.05175 -0.07186
v 0.02874 0.069 -0.03162
v -0.0575 0.08049 -0.03162
v -0.028745 0.08337 -0.06755
v 0.02874 0.08049 -0.03162
v 0.02874 0.0718725 -0.064675
v -0.046 0.07762 -0.07474
v -0.004325 0.066125 -0.07474
v -0.06038 0.05462 -0.03162
v 0.02874 0.08049 -0.06324
v -0.048875 0.08193 -0.06755
f 3 1 4
f 3 5 6
f 7 6 8
f 6 5 8
f 8 5 9
f 1 10 11
f 5 3 4
f 1 3 12
f 3 6 12
f 8 9 13
f 8 13 7
f 1 11 4
f 12 2 1
f 5 4 9
f 2 12 6
f 10 14 7
f 1 2 10
f 11 13 9
f 6 14 2
f 13 11 10
f 7 13 10
f 14 6 7
f 10 2 14
f 9 4 11
