# Created by Open3D 
# object name: convex_8_coll
# number of vertices: 14
# number of triangles: 24
v 0.06323 -0.05461 -0.02873
v 0.06323 -0.05461 0.02875
v 0.06036 0.05174 0.02875
v 0.04311 -0.05172 0.02875
v 0.05174 -0.05461 -0.02873
v 0.05174 0.02298 -0.02873
v 0.04311 0.005755 0.015805
v 0.06036 0.05174 -0.00287
v 0.04599 0.05174 0.02875
v 0.06036 0.01437 -0.02873
v 0.05174 0.05174 0
v 0.04311 -0.05172 0.01724
v 0.04599 -0.05461 0.02875
v 0.05749 0.02587 -0.02873
f 2 3 4
f 2 5 1
f 1 5 6
f 5 7 6
f 3 8 9
f 4 3 9
f 1 6 10
f 9 8 11
f 7 5 12
f 4 7 12
f 8 3 1
f 5 2 13
f 2 4 13
f 12 5 13
f 4 12 13
f 8 10 14
f 10 6 14
f 7 4 9
f 11 6 9
f 1 3 2
f 8 14 11
f 14 6 11
f 9 6 7
f 10 8 1
