# Created by Open3D 
# object name: convex_21_coll
# number of vertices: 14
# number of triangles: 24
v -0.05318 0.02875 0.012935
v -0.05893 -0.02299 0.0115
v -0.0539 -0.050295 0.00072
v -0.05174 0.02875 0
v 0.00286 -0.02011 0
v -0.03162 -0.05461 0
v -0.02301 -0.05461 0.005755
v -0.045995 -0.05461 0.01437
v -0.00289 0.01437 0.002875
v -0.04025 0.02875 0.01437
v -0.05174 -0.00288 0.01725
v -2e-05 -0 0.0115
v 0.00286 -0.02011 0.00719
v -0.06037 -0.004315 0.00288
f 3 4 5
f 3 5 6
f 7 8 6
f 5 4 9
f 4 1 10
f 1 11 10
f 5 12 13
f 6 8 3
f 8 2 3
f 10 12 9
f 6 5 7
f 7 5 13
f 4 3 14
f 5 9 12
f 2 14 3
f 4 2 1
f 2 4 14
f 10 11 12
f 12 11 8
f 8 7 13
f 12 8 13
f 10 9 4
f 11 2 8
f 11 1 2
