# Created by Open3D 
# object name: convex_6_coll
# number of vertices: 14
# number of triangles: 24
v 0.051735 0.08049 0.07761
v 0.01437 0.08912 0.05749
v 0.01437 -0.05461 0.06325
v 0.01437 0.08623 0.07761
v 0.06611 -0.00285 0.05749
v 0.01437 -0.05461 0.07474
v 0.06611 0.08049 0.05749
v 0.06611 -0.02299 0.07474
v 0.01725 2e-05 0.08049
v 0.06035 -0.05461 0.07474
v 0.06035 -0.05461 0.06612
v 0.058915 0.0848 0.067555
v 0.06611 0.07187 0.07186
v 0.05748 -0.00861 0.08049
f 2 3 4
f 4 3 6
f 5 2 7
f 5 7 8
f 4 6 9
f 10 3 11
f 3 10 6
f 7 12 13
f 8 7 13
f 5 3 2
f 13 14 8
f 11 3 5
f 12 2 4
f 12 4 1
f 13 12 1
f 14 13 1
f 9 14 1
f 10 8 14
f 12 7 2
f 10 14 9
f 5 8 11
f 9 6 10
f 11 8 10
f 4 9 1
