# Created by Open3D 
# object name: convex_9_coll
# number of vertices: 14
# number of triangles: 24
v -0.051745 -0.01005 0.030185
v -0.04169 -0.04597 0.0345
v -0.05463 0.04599 0.04025
v -0.05463 0.04599 0.02875
v -0.046 0.04599 0.04312
v -0.03738 0.04599 0.02875
v -0.038815 0.024425 0.023
v -0.05175 0.02874 0.023
v -0.046 -0.03161 0.023
v -0.03738 0.04599 0.03737
v -0.030195 -0.02441 0.03306
v -0.02875 -0.02298 0.02587
v -0.02875 1e-05 0.03162
v -0.04025 -0.04597 0.02875
f 1 2 3
f 5 6 3
f 6 7 8
f 7 9 8
f 3 6 4
f 6 8 4
f 6 5 10
f 11 12 13
f 6 10 13
f 4 8 1
f 8 9 1
f 11 5 2
f 14 11 2
f 9 7 12
f 11 14 12
f 14 9 12
f 13 12 6
f 12 7 6
f 2 1 9
f 14 2 9
f 11 13 5
f 13 10 5
f 2 5 3
f 4 1 3
