# Created by Open3D 
# object name: convex_4_coll
# number of vertices: 14
# number of triangles: 24
v 0.00229 -0.04126 -0.03439
v 0.00229 -0.01376 -0.0298
v 0.00459 -0.04126 -0.0298
v -0.00458 -0.044705 -0.03095
v -0.00458 -0.04585 -0.02751
v -0.00458 -0.02522 -0.028655
v 0.00229 -0.03897 -0.02522
v -0.00229 -0.0298 -0.02522
v 0.00229 -0.04585 -0.02751
v -0.00229 -0.03668 -0.03439
v -0.00229 -0.01605 -0.0298
v 0.00229 -0.01376 -0.02751
v 0.00459 -0.03439 -0.02751
v -0.00229 -0.01605 -0.02751
f 1 2 3
f 4 5 6
f 5 7 8
f 5 4 9
f 7 5 9
f 4 1 9
f 1 3 9
f 10 6 11
f 2 10 11
f 12 2 11
f 5 8 6
f 2 12 13
f 7 9 13
f 9 3 13
f 6 10 4
f 10 1 4
f 8 12 14
f 12 11 14
f 6 8 14
f 11 6 14
f 10 2 1
f 12 8 7
f 13 12 7
f 2 13 3
