# Created by Open3D 
# object name: convex_3_coll
# number of vertices: 14
# number of triangles: 24
v -0.05501 -0.04585 -0.030945
v -0.05042 -0.05043 -0.03897
v 0.02979 -0.05731 -0.0298
v -1e-05 -0.04585 -0.028655
v 0.0275 -0.059605 0.00916
v -0.05042 -0.05043 0.00916
v -0.048125 -0.06075 0.00916
v -0.00459 -0.05043 0.00916
v 0.028645 -0.06419 -0.025215
v -0.01603 -0.06419 -0.03209
v -0.0446875 -0.0584575 -0.038395
v 0.00572 -0.056165 -0.03897
v -0.0573 -0.05502 -0.029805
v -0.04927 -0.06075 -0.03209
f 3 4 5
f 6 7 5
f 4 6 8
f 5 4 8
f 6 5 8
f 5 7 9
f 12 11 2
f 7 6 13
f 7 14 10
f 3 5 9
f 9 10 12
f 6 4 1
f 10 14 11
f 12 10 11
f 14 7 13
f 11 13 1
f 9 12 3
f 1 4 2
f 13 6 1
f 9 7 10
f 2 4 12
f 4 3 12
f 14 13 11
f 11 1 2
