# Created by Open3D 
# object name: convex_1_coll
# number of vertices: 14
# number of triangles: 24
v 0.072215 -0.00344 0.01375
v 0.06648 0.05502 0.01375
v 0.05502 -0.02292 0.01375
v 0.059605 0.0275 0.01375
v 0.0636125 -0.0315175 0.01375
v 0.07336 0.04354 0.01375
v 0.05731 0.0298 -0.02521
v 0.0647625 0.0429675 -0.0246375
v 0.0596 -0.02521 -0.02521
v 0.0596 -0.0298 -0.01604
v 0.0670525 -0.0280775 -0.0120375
v 0.07107 0.023485 -0.019485
v 0.067625 0.029785 -0.028655
v 0.061325 0.0189125 -0.0292275
f 2 3 1
f 3 2 4
f 1 3 5
f 9 10 3
f 3 10 5
f 4 7 3
f 2 1 6
f 12 11 13
f 8 13 14
f 9 3 7
f 11 5 10
f 1 12 6
f 6 8 2
f 2 8 7
f 4 2 7
f 7 14 9
f 1 5 11
f 14 13 9
f 13 11 9
f 11 10 9
f 1 11 12
f 13 8 12
f 8 6 12
f 7 8 14
