# Created by Open3D 
# object name: convex_0_coll
# number of vertices: 14
# number of triangles: 24
v -0.0693425 0.029795 -0.04126
v -0.06648 0.06419 -0.02521
v -0.0596 0.0252 0.02292
v -0.0596 -0.02522 0.01374
v -0.07336 -0.01374 0.01833
v -0.07336 0.038955 0.016035
v -0.07336 0.05042 -0.02521
v -0.07336 0.00688 -0.03438
v -0.069915 -0.013755 0.02292
v -0.06189 -0.01605 -0.0275
v -0.069915 0.020625 0.02292
v -0.0650488 0.01547 -0.0406875
v -0.06877 -0.02292 -0.02521
v -0.06648 0.04814 0.01833
f 5 6 7
f 5 7 8
f 4 10 3
f 9 3 11
f 5 9 11
f 7 1 8
f 10 4 13
f 3 2 14
f 2 3 12
f 1 2 12
f 3 10 12
f 8 13 5
f 1 12 8
f 5 11 6
f 11 14 6
f 3 14 11
f 2 7 6
f 14 2 6
f 4 3 9
f 1 7 2
f 12 10 13
f 4 9 13
f 9 5 13
f 12 13 8
