# Created by Open3D 
# object name: convex_5_coll
# number of vertices: 14
# number of triangles: 24
v 0.02979 -0.05731 0.00917
v 0.0275 -0.05731 0.01719
v -0.04584 -0.0619 0.00917
v 0.0275 -0.0619 0.00917
v 0.02521 -0.0619 0.01834
v -0.05043 -0.05043 0.00917
v -0.03208 -0.0619 0.02063
v -0.04354 -0.05502 0.02063
v -0.02062 -0.04814 0.02063
v -0.02406 -0.04814 0.012605
v -0.00459 -0.05043 0.00917
v -0.05043 -0.05043 0.01834
v -0.05043 -0.05731 0.01834
v -0.05043 -0.0596 0.00917
f 3 4 5
f 6 4 3
f 4 6 1
f 3 5 7
f 8 7 9
f 2 1 11
f 10 9 11
f 1 6 11
f 9 2 11
f 8 9 12
f 8 12 13
f 12 6 13
f 9 7 5
f 11 6 10
f 9 5 2
f 6 3 14
f 13 6 14
f 9 10 12
f 10 6 12
f 3 7 13
f 14 3 13
f 13 7 8
f 5 4 2
f 4 1 2
