# Created by Open3D 
# object name: convex_2_coll
# number of vertices: 14
# number of triangles: 24
v 0.06648 0.02979 0.04126
v 0.03668 0.0051625 0.0234975
v 0.0596 -0.03209 0.01375
v 0.06877 0.05042 0.01375
v 0.07221 -0.00459 0.01375
v 0.03668 0.0292175 0.0223475
v 0.03897 0.01375 0.03897
v 0.0610325 -0.016035 0.029795
v 0.067625 -0.0275 0.02063
v 0.07336 0.02177 0.033235
v 0.07336 0.04354 0.01375
v 0.067625 0.01146 0.04126
v 0.03897 0.02292 0.03897
v 0.03897 0.02521 0.01605
f 3 4 5
f 7 2 8
f 10 5 11
f 12 1 7
f 5 4 11
f 6 13 4
f 8 2 3
f 9 8 3
f 4 13 1
f 10 11 1
f 11 4 1
f 1 13 7
f 4 3 14
f 3 2 14
f 3 5 9
f 12 7 8
f 13 6 2
f 7 13 2
f 14 2 6
f 4 14 6
f 10 9 5
f 12 10 1
f 12 8 9
f 9 10 12
