# Created by Open3D 
# object name: convex_6_coll
# number of vertices: 14
# number of triangles: 24
v -0.02406 -0.04814 0.01375
v -0.05959 -0.02521 0.01375
v -0.05959 -0.020625 0.021775
v -0.05959 0.02062 0.01375
v 0.010305 0.017185 0.03438
v -0.05959 0.0252 0.02292
v -0.02292 0.06416 0.01834
v -0.04812 0.06416 0.017195
v 0.03668 0.027495 0.017195
v 0.03668 0.02979 0.02521
v 0.03668 0.00916 0.0298
v -0.00459 0.04927 0.01146
v 0.02979 -0.01832 0.01375
v -0.02234 -0.045845 0.019485
f 3 5 6
f 4 3 6
f 7 8 5
f 3 4 2
f 9 10 11
f 2 4 12
f 13 12 9
f 9 12 7
f 10 9 7
f 12 4 8
f 12 8 7
f 5 3 14
f 7 5 10
f 14 1 13
f 1 2 12
f 13 1 12
f 14 3 2
f 1 14 2
f 10 5 11
f 14 13 11
f 5 14 11
f 6 5 8
f 11 13 9
f 6 8 4
