# Created by Open3D 
# object name: convex_1_coll
# number of vertices: 14
# number of triangles: 24
v -0.01226 -0.03471 0.01327
v -0.02553 -0.0245 0.01531
v -0.00103 -0.0245 0.018375
v -0.02757 -0.0245 0.02144
v -0.0092 -0.04492 0.01531
v -0.01124 -0.04492 0.02144
v -0.02348 -0.04492 0.01531
v -0.00307 -0.0245 0.02144
v -0.02144 -0.04492 0.02144
v -0.00511 -0.0245 0.01531
v -0.00715 -0.04492 0.018375
v -0.00307 -0.03675 0.01531
v -0.02553 -0.04288 0.0194
v -0.02757 -0.03675 0.018375
f 4 3 2
f 5 6 7
f 3 4 8
f 4 6 8
f 6 4 9
f 7 6 9
f 2 3 10
f 1 2 10
f 5 7 1
f 6 5 11
f 7 13 14
f 2 1 7
f 14 2 7
f 14 4 2
f 6 11 8
f 12 5 1
f 4 14 9
f 9 14 13
f 7 9 13
f 3 12 10
f 12 1 10
f 11 12 3
f 8 11 3
f 5 12 11
