# Created by Open3D 
# object name: convex_0_coll
# number of vertices: 14
# number of triangles: 24
v -0.01122 -0.04492 0.02143
v -0.0439 -0.05309 0.01939
v -0.01735 -0.05513 -0.03164
v -0.0296 -0.06125 -0.02551
v 0.034185 -0.06432 0.0142862
v -0.02552 -0.06534 0.01939
v 0.00407 -0.05105 -0.02756
v -0.0439 -0.05309 0.00306
v 0.03368 -0.06125 -0.02756
v -0.02756 -0.06125 0.02347
v 0.032655 -0.05717 -0.02858
v 0.03776 -0.05717 0.009185
v -0.042875 -0.06023 0.00408
v 0.03163 -0.05717 0.02143
f 3 8 1
f 7 1 11
f 1 12 11
f 3 1 7
f 2 8 13
f 1 14 12
f 8 3 4
f 14 1 10
f 9 11 12
f 13 8 4
f 1 8 2
f 4 6 13
f 1 2 10
f 5 10 6
f 5 6 9
f 10 2 6
f 3 11 9
f 5 9 12
f 10 5 14
f 12 14 5
f 3 9 4
f 9 6 4
f 13 6 2
f 3 7 11
