# Created by Open3D 
# object name: convex_2_coll
# number of vertices: 14
# number of triangles: 24
v -0.02551 -0.0245 0.01532
v 0.00714 0.049 0.01327
v 0.01122 0.02653 0.03164
v -0.002045 0.00818 0.03164
v 0.0398 -0.00408 0.0296
v 0.03163 -0.01837 0.01532
v -0.051035 0.01635 0.0194
v -0.04797 -0.01224 0.01736
v -0.05206 0.01635 0.02348
v -0.00612 0.0638025 0.01838
v 0.05206 0.0178725 0.02756
v 0.00509 0.06534 0.0194
v -0.025515 -0.023475 0.02246
v -0.05001 -0.00816 0.02348
f 3 4 5
f 7 9 10
f 8 1 13
f 11 5 6
f 11 3 5
f 6 5 13
f 8 7 2
f 3 12 10
f 9 3 10
f 13 1 6
f 4 3 9
f 12 11 2
f 14 4 9
f 7 8 14
f 9 7 14
f 12 2 10
f 2 7 10
f 2 1 8
f 13 14 8
f 13 5 4
f 14 13 4
f 11 6 2
f 12 3 11
f 6 1 2
