# Created by Open3D 
# object name: convex_4_coll
# number of vertices: 14
# number of triangles: 24
v -0.028945 0.027485 -0.089705
v 0.00722 0.00579 -0.0897
v 0.03616 0.02604 -0.05498
v 0.03616 0.00579 -0.08391
v 0.03616 0.027485 -0.082465
v 0.03616 0.00579 -0.06945
v -0.07379 0.00579 -0.05498
v -0.068 0.00579 -0.0897
v 0.00431 0.01158 -0.05498
v -0.070895 0.03038 -0.056425
v -0.06511 0.03183 -0.08102
v -0.00147 0.03183 -0.08102
v -0.07379 0.00579 -0.07234
v -0.068725 0.026035 -0.0882575
f 3 4 5
f 4 3 6
f 7 4 6
f 4 7 8
f 3 7 9
f 4 8 2
f 7 3 10
f 11 10 12
f 7 10 13
f 8 14 1
f 4 2 5
f 5 1 12
f 1 11 12
f 9 6 3
f 5 12 3
f 8 1 2
f 6 9 7
f 14 13 10
f 11 1 14
f 8 7 13
f 1 5 2
f 8 13 14
f 14 10 11
f 3 12 10
