# Created by Open3D 
# object name: convex_9_coll
# number of vertices: 14
# number of triangles: 24
v 0.01879 0.02604 0.02315
v -0.05065 0.02749 0.001435
v -1.00001e-05 0.01447 -0.05496
v 0.03616 0.02604 -0.05496
v 0.03616 0.01736 -0.05496
v -0.05065 0.02749 -0.046285
v -0.05065 0.00579 0.01156
v -0.0217 0.00579 0.00867
v -0.04775 0.021695 0.02315
v -0.0217 0.02894 -0.05496
v 0.00721 0.02894 -0.05496
v 0.01879 0.01736 0.02315
v 0.03616 0.01736 -0.03182
v -0.0492 0.01736 -0.04773
f 3 4 5
f 3 6 10
f 4 3 10
f 6 11 10
f 1 9 12
f 5 4 13
f 8 5 13
f 1 12 13
f 12 8 13
f 6 7 2
f 11 6 2
f 6 3 14
f 14 3 7
f 1 4 11
f 9 7 12
f 1 11 2
f 1 2 9
f 3 5 8
f 7 3 8
f 7 6 14
f 12 7 8
f 1 13 4
f 4 10 11
f 2 7 9
