# Created by Open3D 
# object name: convex_11_coll
# number of vertices: 14
# number of triangles: 24
v -0.06221 0.00579 0.02315
v -0.03908 0.02315 0.02315
v -0.02171 0.02025 0.05498
v -0.07668 0.02025 0.05498
v -0.07668 0.00579 0.05498
v -0.02461 0.01302 0.05498
v -0.07089 0.02604 0.05498
v -0.07089 0.00579 0.02315
v -0.07089 0.02315 0.02315
v -0.03618 0.02604 0.02894
v -0.068 0.02604 0.02605
v -0.02171 0.01736 0.03183
v -0.06221 0.00579 0.05498
v -0.02171 0.02315 0.03183
f 3 4 5
f 3 5 6
f 4 3 7
f 8 9 2
f 5 8 1
f 8 2 1
f 7 10 11
f 6 5 13
f 5 1 13
f 12 2 14
f 3 12 14
f 10 3 14
f 12 3 6
f 11 9 4
f 7 11 4
f 10 14 2
f 7 3 10
f 2 9 11
f 10 2 11
f 1 12 6
f 13 1 6
f 5 9 8
f 9 5 4
f 2 12 1
