# Created by Open3D 
# object name: convex_5_coll
# number of vertices: 14
# number of triangles: 24
v 0.06799 -0.02315 -0.08391
v 0.07667 -0.023145 -0.06799
v 0.07667 -0.00868 -0.00868
v 0.0622 -0.00868 -0.00868
v 0.075225 -0.027485 -0.00868
v 0.03616 -0.00868 -0.075225
v 0.07667 -0.00868 -0.07811
v 0.03616 -0.03038 -0.030395
v 0.03616 -0.028935 -0.078125
v 0.03616 -0.02315 -0.01738
v 0.07088 -0.00868 -0.08681
v 0.05931 -0.03183 -0.07523
v 0.0622 -0.02893 -0.00868
v 0.07088 -0.02893 -0.07234
f 3 4 5
f 4 3 6
f 6 3 7
f 8 6 9
f 6 8 10
f 7 3 2
f 6 7 11
f 12 5 8
f 9 12 8
f 5 4 13
f 8 5 13
f 2 3 5
f 9 6 11
f 10 4 6
f 2 5 14
f 5 12 14
f 9 11 1
f 4 10 13
f 8 13 10
f 7 2 11
f 1 11 2
f 14 12 1
f 12 9 1
f 2 14 1
