# Created by Open3D 
# object name: convex_15_coll
# number of vertices: 14
# number of triangles: 24
v -0.01013 -0.03183 -0.00289
v -0.0188 -0.02025 -0.00289
v 0.03326 -0.02893 -0.00289
v -0.05065 -0.027485 0.00145
v -0.05065 -0.02893 0.02315
v -0.05065 -0.01158 0.01157
v 0.03326 -0.02315 -0.00289
v -0.05065 -0.013025 0.004345
v 0.02747 -0.02025 0.02315
v -0.05065 -0.02315 0.02315
v 0.02747 -0.02604 0.02315
v 0.01879 -0.02893 0.02025
v 0.00433 -0.00868 0.007235
v -0.02459 -0.00868 0.00579
f 1 2 3
f 2 1 4
f 5 6 4
f 3 2 7
f 4 6 8
f 5 9 10
f 6 5 10
f 1 5 4
f 9 5 11
f 4 8 2
f 11 12 3
f 12 1 3
f 6 10 9
f 13 6 9
f 6 13 14
f 11 5 12
f 5 1 12
f 13 7 2
f 2 8 14
f 13 2 14
f 9 11 7
f 11 3 7
f 13 9 7
f 6 14 8
