# Created by Open3D 
# object name: convex_0_coll
# number of vertices: 14
# number of triangles: 24
v 0.07522 -0.02242 0.075955
v 0.07665 -0.02314 0.05498
v -0.07088 -0.03038 0.05643
v -0.07087 0.02603 0.05498
v 0.005055 0.02965 0.0788525
v 0.07665 0.02603 0.05498
v 0.0122937 -0.03183 0.0784863
v -0.07378 0.021695 0.078125
v -0.07522 -0.020975 0.0774
v 0.00431 0.01446 0.0926
v 0.07811 0.02603 0.075235
v 0.021685 -0.027485 0.086805
v -0.03905 -0.0238675 0.0868025
v 0.06508 0.01736 0.0868
f 2 3 4
f 4 5 6
f 2 4 6
f 8 3 9
f 11 1 2
f 7 12 13
f 12 10 13
f 13 8 9
f 1 7 2
f 14 10 12
f 1 14 12
f 8 5 4
f 11 2 6
f 10 5 8
f 6 5 11
f 1 11 14
f 3 8 4
f 14 5 10
f 13 9 3
f 7 13 3
f 3 2 7
f 13 10 8
f 12 7 1
f 5 14 11
