# Created by Open3D 
# object name: convex_2_coll
# number of vertices: 14
# number of triangles: 24
v 0.05642 0.02314 0.04919
v 0.06799 -0.02315 0.05498
v 0.0651 0.02604 0.05498
v 0.07377 0.02604 0.05498
v 0.07957 -0.01446 0.05498
v 0.0622 -0.02604 0.02315
v 0.07957 0.008675 0.02315
v 0.07667 -0.02604 0.02315
v 0.07957 0.02314 0.05498
v 0.07667 0.02314 0.02315
v 0.07522 -0.024595 0.050635
v 0.05642 0.02314 0.02605
v 0.05931 0.02314 0.02315
v 0.05931 -0.02315 0.03762
f 1 2 3
f 4 3 2
f 4 2 5
f 6 7 8
f 4 5 9
f 5 7 9
f 7 6 10
f 6 8 11
f 12 3 13
f 10 6 13
f 3 12 1
f 5 8 7
f 5 2 11
f 8 5 11
f 2 1 14
f 14 1 12
f 13 6 12
f 6 14 12
f 11 2 14
f 6 11 14
f 13 3 4
f 10 13 4
f 7 10 9
f 10 4 9
