# Created by Open3D 
# object name: convex_17_coll
# number of vertices: 14
# number of triangles: 24
v -0.0217 -0.02604 0.05208
v -0.01591 -0.01736 0.04919
v 0.01012 -0.02315 0.0463
v 0.04194 -0.01447 0.05498
v 0.01879 -0.00868 0.05498
v 0.04484 -0.02315 0.05498
v -0.0217 -0.01736 0.05498
v -0.0217 -0.02604 0.05498
v 0.015905 -0.01158 0.0463
v 0.03905 -0.02315 0.0463
v -0.0188 -0.01447 0.05208
v 0.0159 -0.00868 0.04919
v 0.04339 -0.015915 0.04919
v 0.04484 -0.02315 0.04919
f 1 2 3
f 4 5 6
f 6 5 7
f 6 7 8
f 9 10 3
f 8 7 1
f 7 11 1
f 3 10 1
f 9 11 12
f 11 9 2
f 1 11 2
f 1 10 8
f 7 5 11
f 5 12 11
f 6 8 14
f 8 10 14
f 9 13 10
f 5 4 12
f 4 13 12
f 13 9 12
f 4 6 13
f 6 14 13
f 14 10 13
f 2 9 3
