# Created by Open3D 
# object name: convex_10_coll
# number of vertices: 14
# number of triangles: 24
v -0.0709 -0.02894 0.05498
v -0.072345 -0.02749 0.041955
v -0.07669 0.00578 0.05498
v -0.06222 0.00578 0.05498
v -0.06222 0.00578 0.02315
v -0.05933 -0.02894 0.05498
v -0.07669 -0.02025 0.05498
v -0.07379 0.00578 0.02894
v -0.05933 -0.02894 0.02315
v -0.0709 -0.02604 0.02315
v -0.05933 -0.01158 0.05498
v -0.07669 -0.01447 0.04629
v -0.0709 0.00578 0.02315
v -0.07379 -0.01736 0.02894
f 3 4 5
f 4 3 6
f 6 3 7
f 3 5 8
f 5 9 10
f 5 4 11
f 6 9 11
f 9 6 1
f 6 7 1
f 7 3 12
f 8 5 13
f 5 10 13
f 10 8 13
f 4 6 11
f 8 10 14
f 12 8 14
f 1 7 2
f 8 12 3
f 5 11 9
f 7 12 14
f 10 2 14
f 2 7 14
f 10 9 2
f 9 1 2
