# Created by Open3D 
# object name: convex_7_coll
# number of vertices: 14
# number of triangles: 24
v -0.05065 -0.02893 0.02315
v -0.068 -0.03183 -0.0434
v -0.05065 -0.03183 -0.06077
v -0.0709 -0.02893 -0.06077
v -0.05354 0.00578 -0.06077
v -0.07669 0.00578 -0.03761
v -0.0709 0.00578 0.02315
v -0.0709 -0.02604 0.02315
v -0.06222 0.00578 0.02315
v -0.05065 -0.01446 0.01157
v -0.07379 -0.02314 -0.06077
v -0.07669 -0.00869 -0.05787
v -0.07524 0.00578 -0.05932
v -0.06511 -0.02893 0.02315
f 1 2 3
f 3 4 5
f 5 6 7
f 7 6 8
f 1 7 8
f 5 7 9
f 1 3 10
f 5 4 11
f 11 12 13
f 6 5 13
f 5 11 13
f 4 3 2
f 7 1 9
f 5 10 3
f 1 8 14
f 8 2 14
f 8 6 12
f 8 12 11
f 12 6 13
f 1 14 2
f 10 9 1
f 2 8 4
f 8 11 4
f 9 10 5
