# Created by Open3D 
# object name: convex_1_coll
# number of vertices: 14
# number of triangles: 24
v 0.0694325 0.02604 0.011575
v 0.05932 -0.02604 -0.00868
v 0.07667 0.02314 -0.00868
v 0.07522 -0.027485 -0.00868
v 0.04195 0.01735 0.02315
v 0.06799 -0.02893 0.02315
v 0.07812 0.020245 0.02315
v 0.0622 0.02314 -0.00868
v 0.05932 -0.02314 0.02315
v 0.07957 -1e-05 0.02025
v 0.07667 -0.02604 0.02315
v 0.07957 0.01446 -0.00868
v 0.04195 0.02314 0.02315
v 0.04484 0.02025 0.00868
f 2 3 4
f 5 6 7
f 3 2 8
f 4 10 11
f 7 6 11
f 9 5 2
f 4 3 12
f 5 7 13
f 7 1 13
f 11 10 7
f 10 12 7
f 12 3 7
f 6 5 9
f 6 2 4
f 7 3 1
f 3 8 1
f 10 4 12
f 6 4 11
f 8 14 13
f 14 5 13
f 1 8 13
f 2 5 14
f 9 2 6
f 14 8 2
