# Created by Open3D 
# object name: convex_13_coll
# number of vertices: 14
# number of triangles: 24
v -0.0492 -0.02026 -0.007235
v -0.00146 -0.01447 -0.01158
v -0.05065 -0.01736 -0.06077
v -0.05065 -0.03183 -0.06077
v 0.03616 -0.03183 -0.06077
v -0.00146 -0.03183 -0.00289
v -0.05065 -0.02604 -0.00579
v -0.0058 -0.02026 -0.00289
v 0.03326 -0.02315 -0.00289
v -0.05065 -0.02893 -0.01158
v 0.03471 -0.02315 -0.05932
v 0.01012 -0.01736 -0.04919
v 0.03326 -0.02893 -0.00289
v 0.03616 -0.02315 -0.01447
f 1 2 3
f 5 4 3
f 4 5 6
f 3 4 7
f 8 6 9
f 7 4 10
f 2 11 12
f 9 6 13
f 10 4 6
f 5 3 11
f 5 11 14
f 11 2 14
f 9 13 14
f 13 6 5
f 1 7 8
f 2 1 8
f 3 7 1
f 8 9 2
f 9 14 2
f 10 6 7
f 8 7 6
f 2 12 3
f 12 11 3
f 5 14 13
