# Created by Open3D 
# object name: convex_14_coll
# number of vertices: 14
# number of triangles: 24
v -0.02171 -0.02315 0.02605
v -0.0275 -0.01447 0.05498
v -0.05933 -0.02894 0.02315
v -0.05933 -0.02894 0.05498
v -0.05933 -0.02026 0.02315
v -0.03329 -0.02894 0.05498
v -0.05064 -0.01447 0.05498
v -0.0275 -0.02315 0.02315
v -0.02171 -0.01736 0.05208
v -0.02171 -0.02604 0.05498
v -0.027505 -0.02894 0.0246
v -0.05933 -0.01736 0.05498
v -0.04485 -0.01447 0.04051
v -0.05933 -0.01736 0.03183
f 3 4 5
f 4 3 6
f 7 4 6
f 3 5 8
f 1 9 10
f 7 6 10
f 10 6 11
f 6 3 11
f 1 10 11
f 4 7 12
f 5 4 12
f 13 7 2
f 10 9 2
f 7 10 2
f 7 13 14
f 13 5 14
f 12 7 14
f 5 12 14
f 8 1 11
f 3 8 11
f 8 5 13
f 1 8 13
f 2 1 13
f 9 1 2
