# Created by Open3D 
# object name: convex_18_coll
# number of vertices: 14
# number of triangles: 24
v -0.03328 0.00579 0.00289
v -0.04486 0.00579 0.00289
v -0.02171 0.00579 0.007235
v -0.04775 0.00579 0.01157
v -0.04775 -0.00289 0.01157
v -0.03328 0.00579 0.01157
v -0.01014 -0.00289 0.00579
v -0.01014 -0.00868 0.00868
v -0.013035 -0.00868 0.00579
v -0.01014 -0.00289 0.00868
v -0.05065 -0.00289 0.00579
v -0.05065 0.00579 0.00868
v -0.03328 -0.00289 0.01157
v -0.04486 0.00289 0.00289
f 4 3 2
f 4 5 6
f 3 4 6
f 8 9 7
f 7 9 1
f 3 6 10
f 6 8 10
f 7 3 10
f 8 7 10
f 2 11 12
f 4 2 12
f 11 5 12
f 5 4 12
f 5 8 13
f 6 5 13
f 8 6 13
f 5 11 9
f 8 5 9
f 1 9 14
f 11 2 14
f 2 1 14
f 9 11 14
f 2 3 1
f 3 7 1
