# Created by Open3D 
# object name: convex_16_coll
# number of vertices: 14
# number of triangles: 24
v 0.0188 -0.01158 0.0463
v 0.03616 -0.01736 0.02894
v -0.02171 -0.02315 0.02315
v 0.02458 -0.02604 0.02315
v 0.02458 -0.02315 0.0463
v -0.013025 -0.02893 0.0246
v 0.02747 -0.02604 0.03472
v 0.01011 -0.02315 0.0463
v 0.03616 -0.01736 0.03762
v 0.03616 -0.02315 0.03328
v -0.02171 -0.02604 0.02894
v -0.00434 -0.01447 0.02894
v -0.00434 -0.01447 0.0434
v 0.02169 -0.015915 0.0246
f 5 6 7
f 5 1 8
f 6 5 8
f 9 5 10
f 5 7 10
f 3 6 11
f 6 8 11
f 1 12 13
f 12 3 13
f 2 4 14
f 4 3 14
f 4 2 10
f 7 4 10
f 3 4 6
f 4 7 6
f 13 11 8
f 1 13 8
f 14 3 12
f 1 14 12
f 13 3 11
f 2 1 9
f 10 2 9
f 5 9 1
f 14 1 2
