# Created by Open3D 
# object name: convex_8_coll
# number of vertices: 14
# number of triangles: 24
v -0.0614975 0.02459 0.021695
v -0.0658325 0.03038 -0.01013
v -0.07379 0.02893 -0.05496
v -0.05065 0.01736 -0.05496
v -0.07669 0.00579 -0.05496
v -0.06222 0.00579 0.02315
v -0.0709 0.02314 0.02315
v -0.05065 0.0238675 0.0159
v -0.05065 0.02893 -0.02893
v -0.05065 0.00868 0.01156
v -0.05933 0.00579 -0.05496
v -0.0709 0.00579 0.02315
v -0.053545 0.027485 -0.05496
v -0.06511 0.03183 -0.04628
f 3 4 5
f 6 1 7
f 8 4 9
f 4 8 10
f 5 4 11
f 6 5 11
f 5 6 12
f 6 7 12
f 12 7 5
f 4 3 13
f 13 3 14
f 9 13 14
f 8 9 2
f 7 2 3
f 11 10 6
f 9 14 2
f 9 4 13
f 5 7 3
f 3 2 14
f 4 10 11
f 8 2 1
f 1 6 8
f 6 10 8
f 7 1 2
