# Created by Open3D 
# object name: convex_6_coll
# number of vertices: 14
# number of triangles: 24
v 0.07666 -0.00868 -0.08101
v 0.06365 0.018805 -0.0897
v 0.07666 0.02314 -0.07812
v 0.03616 -0.00868 -0.075225
v 0.0622 -0.00868 -0.00868
v 0.07666 -0.00868 -0.00868
v 0.075215 0.02459 -0.011575
v 0.03616 0.02459 -0.034735
v 0.03616 0.02894 -0.08101
v 0.0593 0.02314 -0.00868
v 0.03616 0.01736 -0.03184
v 0.06654 -0.00723 -0.0897
v 0.03616 0.00579 -0.08391
v 0.06654 0.02894 -0.079565
f 1 2 3
f 4 1 5
f 6 7 5
f 4 8 9
f 5 1 6
f 5 7 10
f 8 4 11
f 10 8 11
f 5 11 4
f 1 4 12
f 9 2 13
f 4 9 13
f 2 12 13
f 12 4 13
f 7 6 3
f 8 10 7
f 9 8 7
f 14 9 7
f 11 5 10
f 14 7 3
f 1 12 2
f 6 1 3
f 3 2 14
f 2 9 14
