# Created by Open3D 
# object name: convex_3_coll
# number of vertices: 14
# number of triangles: 24
v -0.05932 -0.03183 -0.07812
v 0.01012 -0.02604 -0.0897
v 0.03616 -0.03183 -0.06077
v -0.07379 0.00578 -0.06077
v -0.06511 -0.03183 -0.06077
v 0.03616 0.00578 -0.07234
v -0.06511 0.00578 -0.0897
v 0.034715 0.00578 -0.082465
v 0.03616 -0.03038 -0.07957
v 0.00722 0.00578 -0.0897
v -0.072345 0.00578 -0.07668
v -0.07162 -0.01736 -0.078125
v -0.07379 -0.02314 -0.06077
v -0.06511 -0.02025 -0.0868
f 3 4 5
f 4 6 7
f 7 6 8
f 9 5 1
f 9 6 3
f 5 9 3
f 2 7 10
f 7 8 10
f 4 7 11
f 12 4 11
f 9 1 2
f 5 4 13
f 4 12 13
f 14 12 7
f 2 14 7
f 6 9 8
f 2 8 9
f 7 12 11
f 14 2 1
f 8 2 10
f 5 13 1
f 4 3 6
f 12 14 13
f 14 1 13
