# Created by Open3D 
# object name: convex_12_coll
# number of vertices: 14
# number of triangles: 24
v 0.05062 0.02604 0.03473
v 0.05062 0.02604 0.05498
v -0.01302 0.02604 0.02315
v 0.05641 0.02315 0.02315
v 0.05641 0.01447 0.02315
v 0.04483 0.01157 0.05498
v 0.00144 0.02604 0.05498
v -0.02171 0.01447 0.05498
v -0.02171 0.02025 0.05498
v 0.00144 0.01157 0.04051
v -0.02171 0.01736 0.03183
v -0.01013 0.01736 0.02315
v 0.05641 0.01881 0.050635
v -0.01881 0.024595 0.034725
f 3 4 5
f 6 7 8
f 7 6 2
f 3 7 2
f 8 7 9
f 6 8 10
f 3 2 1
f 11 3 12
f 3 5 12
f 5 4 13
f 6 5 13
f 9 11 8
f 4 2 13
f 2 6 13
f 7 3 14
f 3 1 4
f 3 11 14
f 11 9 14
f 10 8 11
f 12 10 11
f 10 12 5
f 7 14 9
f 5 6 10
f 2 4 1
