# Original object name hint: convex_15
v -0.10245 -0.06723 -0.03202
v -0.08964 -0.10245 -0.09924
v -0.08644 -0.10245 -0.09924
v -0.08644 -0.10245 0.00000
v -0.08644 -0.06723 -0.10245
v -0.10245 -0.09925 -0.08964
v -0.10245 -0.09925 0.00000
v -0.10245 -0.06723 -0.09924
v -0.09605 -0.06723 -0.03202
v -0.08644 -0.09604 0.00000
v -0.09925 -0.10245 0.00000
v -0.09605 -0.09604 -0.10245
v -0.10245 -0.09284 0.00000
v -0.09925 -0.10245 -0.08964
v -0.08644 -0.06723 -0.09604
v -0.09925 -0.09925 -0.09924
v -0.09925 -0.06723 -0.10245
v -0.08644 -0.09925 -0.10245
v -0.09285 -0.09284 0.00000
v -0.10245 -0.06722 -0.09924
v -0.09285 0.10245 0.00000
v -0.08644 0.10245 -0.06082
v -0.10245 0.09602 -0.09604
v -0.08644 -0.06722 -0.10245
v -0.10245 -0.03840 0.00000
v -0.10245 0.09923 0.00000
v -0.08644 0.09602 -0.10245
v -0.09605 -0.03840 0.00000
v -0.09605 -0.06722 -0.03202
v -0.09925 0.08642 -0.10245
v -0.09925 0.10245 -0.08964
v -0.08644 -0.06722 -0.09604
v -0.10245 -0.06722 -0.03202
v -0.09925 -0.06722 -0.10245
v -0.09285 0.09282 0.00000
v -0.08644 0.10245 -0.09604
v -0.09925 0.10245 0.00000
v -0.10245 0.08642 -0.09924
v -0.08644 0.09602 -0.06082
v -0.09605 0.09923 -0.09924
v -0.10245 0.09923 -0.08964
v 0.10245 -0.08644 0.07043
v -0.10245 -0.09925 0.00000
v -0.10245 -0.09284 0.00000
v -0.10245 -0.09925 0.07043
v 0.09924 -0.10245 0.00000
v 0.10245 -0.08324 0.00000
v 0.09924 -0.10245 0.07043
v -0.10245 -0.08964 0.03841
v -0.09924 -0.10245 0.00000
v -0.05762 -0.08964 0.07043
v -0.09924 -0.10245 0.07043
v 0.09603 -0.08324 0.03841
v -0.10245 -0.08964 0.01281
v -0.10245 -0.09284 0.07043
v 0.10245 -0.09925 0.00000
v 0.10245 -0.09925 0.07043
v 0.09603 -0.08324 0.00000
v 0.10245 -0.08004 0.09924
v -0.10245 -0.09925 0.07044
v -0.10245 -0.09284 0.07044
v -0.09924 -0.08004 0.10245
v 0.09603 -0.10245 0.09924
v 0.10245 -0.08644 0.07044
v -0.09924 -0.10245 0.09924
v 0.09924 -0.10245 0.07044
v -0.10245 -0.08004 0.08644
v 0.09603 -0.08004 0.07684
v 0.09603 -0.09925 0.10245
v -0.09924 -0.10245 0.07044
v -0.09924 -0.09925 0.10245
v 0.09924 -0.08004 0.10245
v 0.10245 -0.09925 0.09604
v -0.10245 -0.09925 0.09924
v -0.10245 -0.08964 0.07364
v 0.10245 -0.09925 0.07044
v 0.10245 -0.08004 -0.05762
v -0.08644 -0.09925 -0.10245
v -0.08644 -0.08004 -0.10245
v -0.08644 -0.10245 0.00000
v 0.09603 -0.10245 -0.09924
v 0.10245 -0.08324 0.00000
v 0.09921 -0.10245 0.00000
v 0.09921 -0.08004 -0.10245
v -0.07043 -0.09284 0.00000
v -0.08644 -0.10245 -0.09924
v -0.08644 -0.08004 -0.09284
v 0.10245 -0.09925 -0.09604
v 0.09603 -0.09925 -0.10245
v -0.08644 -0.09605 0.00000
v 0.09603 -0.08324 0.00000
v 0.10245 -0.09925 0.00000
v 0.10245 -0.08004 -0.09924
v 0.09921 -0.10245 -0.09604
v 0.10245 0.09925 -0.06082
v -0.08644 0.09285 -0.10245
v -0.08644 0.09285 -0.06723
v -0.08644 0.10245 -0.09924
v -0.08322 0.10245 0.00000
v 0.09921 0.09605 0.00000
v 0.09921 0.09285 -0.10245
v 0.09921 0.10245 -0.09924
v 0.09921 0.10245 0.00000
v -0.08322 0.09605 0.00000
v 0.09921 0.09285 -0.05442
v 0.09603 0.09925 -0.10245
v -0.08644 0.09925 -0.10245
v 0.10245 0.09285 -0.09924
v -0.08644 0.10245 -0.05762
v 0.10245 0.09285 -0.06082
v -0.10245 -0.04161 0.00321
v -0.09284 0.10243 0.08003
v -0.09284 0.10243 0.00001
v -0.10245 0.09922 0.08003
v -0.09605 -0.06081 0.04162
v -0.10245 0.09922 0.00001
v -0.10245 -0.04800 0.04802
v -0.09605 -0.03839 0.00001
v -0.09605 0.06081 0.08003
v -0.10245 0.06081 0.08003
v -0.10245 -0.06081 0.02562
v -0.09284 0.08962 0.08003
v -0.09605 -0.06081 0.02562
v -0.09925 0.10243 0.08003
v -0.09284 0.09283 0.00001
v -0.10245 -0.03839 0.00001
v -0.09605 -0.04800 0.04802
v -0.09925 0.10243 0.00001
v -0.10245 -0.06081 0.04162
v -0.09605 -0.05760 0.01921
v 0.00959 0.10245 0.09284
v -0.10245 -0.08004 0.08644
v -0.10245 -0.08004 0.09924
v 0.00959 -0.08004 0.10245
v -0.09924 0.09604 0.10245
v -0.10245 0.09923 0.08004
v 0.00959 -0.07043 0.09284
v 0.00959 0.09923 0.10245
v -0.06722 0.09604 0.08004
v -0.09924 -0.08004 0.10245
v -0.09603 0.10245 0.09924
v -0.02562 -0.06723 0.08965
v -0.09603 0.06083 0.08004
v -0.10245 0.09604 0.09924
v 0.00319 -0.08004 0.09284
v -0.06722 0.10245 0.08004
v -0.09603 -0.08004 0.08644
v 0.00959 0.10245 0.09924
v -0.09924 0.10245 0.08004
v -0.10245 0.06083 0.08004
v -0.09603 0.09923 0.10245
v 0.09923 0.10245 0.09605
v 0.00961 -0.08004 0.09605
v 0.00961 -0.08004 0.10245
v 0.10244 -0.08004 0.09924
v 0.06722 0.10245 0.08004
v 0.00961 0.09923 0.10245
v 0.10244 -0.08004 0.08965
v 0.09923 0.09604 0.10245
v 0.10244 0.09923 0.08004
v 0.00961 0.10245 0.09284
v 0.00961 -0.07043 0.09284
v 0.09923 -0.08004 0.10245
v 0.09603 0.05440 0.08004
v 0.10244 0.09604 0.09924
v 0.08963 -0.08004 0.08965
v 0.10244 0.05440 0.08004
v 0.09603 0.10245 0.09924
v 0.06722 0.09604 0.08004
v 0.00961 0.10245 0.09924
v 0.09923 0.10245 0.08004
v 0.09603 0.09923 0.10245
v -0.08322 0.08964 -0.08324
v -0.08644 0.07684 -0.10245
v -0.08644 0.07684 -0.09284
v 0.04162 0.07684 -0.10245
v -0.08644 0.09285 -0.10245
v 0.04162 0.09285 -0.09604
v 0.04162 0.07684 -0.09604
v 0.04162 0.09285 -0.10245
v -0.08644 0.09285 -0.08324
v -0.07683 0.08004 -0.08964
v 0.10245 0.08964 -0.07043
v 0.04802 0.08964 -0.10245
v 0.04802 0.09285 -0.10245
v 0.09924 0.09285 -0.10245
v 0.09924 0.07684 -0.10245
v 0.05763 0.07684 -0.09604
v 0.10245 0.07684 -0.07684
v 0.09605 0.09285 -0.06723
v 0.04802 0.08964 -0.09604
v 0.05763 0.07684 -0.10245
v 0.10245 0.09285 -0.09925
v 0.09605 0.08964 -0.06723
v 0.09605 0.07684 -0.07684
v 0.10245 0.07684 -0.09925
v 0.04802 0.09285 -0.09604
v 0.10245 0.09925 0.08003
v -0.08321 0.09605 0.00001
v -0.08321 0.10245 0.00001
v -0.09284 0.10245 0.08003
v 0.09282 0.08964 0.08003
v 0.09922 0.10245 0.00001
v -0.09284 0.09285 0.08003
v 0.09922 0.09605 0.00001
v 0.09922 0.10245 0.08003
v 0.10245 0.08964 0.07043
v -0.09284 0.09285 0.07362
v 0.09282 0.08964 0.07043
v -0.09284 0.10245 0.06722
v 0.10245 0.08964 0.08003
v -0.08644 -0.08002 -0.09284
v 0.07043 0.07684 -0.09605
v 0.03519 0.06721 -0.09284
v -0.08644 0.07684 -0.10245
v 0.07043 -0.08002 -0.10245
v -0.08644 -0.08002 -0.10245
v -0.08644 0.07684 -0.09284
v 0.07043 -0.08002 -0.09605
v 0.07043 0.07684 -0.10245
v -0.03199 0.04800 -0.08964
v -0.04802 0.06081 -0.08964
v -0.05442 0.07684 -0.09284
v -0.08323 -0.08002 -0.09284
v -0.03199 0.06081 -0.08964
v -0.03521 0.04481 -0.08964
v 0.03519 0.05761 -0.09284
v 0.10245 0.07684 -0.08644
v 0.07044 -0.08002 -0.10245
v 0.09924 -0.08002 -0.10245
v 0.07044 0.07684 -0.10245
v 0.08004 -0.08002 -0.08644
v 0.09924 0.07684 -0.10245
v 0.10245 -0.08002 -0.08644
v 0.07044 0.07684 -0.09605
v 0.09284 0.07684 -0.08644
v 0.07044 -0.08002 -0.09285
v 0.10245 -0.08002 -0.09925
v 0.10245 0.07684 -0.09925
v 0.08004 -0.07362 -0.08644
v -0.05120 -0.07043 -0.05442
v -0.04480 0.07043 -0.03842
v -0.04480 0.07043 -0.04161
v 0.07681 -0.06722 -0.03202
v -0.05440 -0.06402 0.00000
v 0.07041 0.06082 0.00000
v 0.08004 0.05441 -0.07043
v -0.05760 0.06082 0.00000
v -0.05120 0.05762 -0.07043
v 0.06401 -0.06402 -0.07043
v 0.06721 -0.06722 0.00000
v -0.06722 -0.04161 -0.05442
v -0.05120 -0.05442 -0.07043
v -0.06400 0.06082 -0.05121
v 0.07681 0.05441 0.00000
v 0.05761 0.06082 -0.06723
v 0.06721 -0.07043 -0.06403
v -0.06722 -0.04481 -0.03842
v 0.06401 0.06402 0.00000
v -0.05440 -0.07043 -0.02882
v -0.04160 -0.06722 -0.06723
v 0.06721 -0.07043 -0.01922
v 0.07041 -0.06402 -0.06723
v 0.08004 0.05762 -0.03842
v -0.05440 0.06402 0.00000
v -0.06400 -0.06402 -0.04481
v -0.05120 -0.06722 0.00000
v -0.06400 0.06082 -0.03202
v -0.05120 0.06402 -0.06403
v 0.07041 -0.06402 0.00000
v 0.08004 0.03522 -0.07043
v 0.06081 0.06402 -0.02242
v -0.05120 0.07043 -0.03522
v 0.08004 0.05762 -0.06723
v 0.07681 -0.06722 -0.02882
v -0.06080 -0.06082 -0.05762
v -0.03840 -0.07043 -0.06403
v 0.08004 0.05120 -0.03522
v 0.07681 0.04481 0.00000
v -0.04480 -0.06082 -0.07043
v -0.06722 -0.03199 -0.05442
v 0.06721 0.06082 -0.06082
v -0.06400 -0.06402 -0.03842
v -0.05440 0.05441 -0.06723
v -0.06722 -0.02559 -0.04161
v -0.05760 -0.07043 -0.03522
v 0.06081 0.05762 -0.07043
v -0.05120 -0.07043 -0.02562
v -0.02879 0.06402 -0.06403
v -0.06400 -0.05442 -0.05762
v -0.05762 -0.06721 0.05762
v 0.06403 0.06403 0.02882
v 0.06403 0.06403 0.00000
v 0.07362 -0.06402 0.06723
v -0.05442 0.05762 0.07043
v -0.05442 -0.06402 0.00000
v -0.05762 0.06082 0.00000
v 0.06723 -0.06721 0.00000
v 0.07362 0.05762 0.07043
v -0.06082 -0.06402 0.07043
v 0.07684 0.05441 0.00000
v -0.04802 0.06403 0.05121
v -0.06403 -0.03840 0.06082
v -0.04802 -0.07043 0.06723
v 0.07041 -0.06402 0.07043
v -0.06082 0.05762 0.06723
v -0.05122 -0.06721 0.00000
v 0.06723 -0.06721 0.06723
v 0.07041 -0.06402 0.00000
v -0.05442 0.06403 0.00000
v 0.05762 0.06403 0.05442
v -0.05442 0.06082 0.06723
v -0.06403 -0.06083 0.06402
v 0.07684 0.04480 0.00321
v 0.06723 0.06082 0.06723
v -0.06082 0.05762 0.05442
v -0.06082 0.04801 0.07043
v -0.05122 -0.07043 0.06082
v 0.07362 -0.06083 0.07043
v 0.07362 -0.06402 0.06082
v -0.06403 -0.03520 0.06723
v -0.05442 0.06403 0.04481
v 0.07041 0.06082 0.00000
v -0.05762 0.05441 0.00000
v -0.05442 -0.06721 0.07043
v 0.07684 0.04480 0.00000
v -0.03841 0.06403 0.05442
v 0.10245 -0.06723 0.04802
v 0.09605 -0.08004 -0.06083
v 0.10245 -0.08004 -0.06083
v 0.10245 -0.05123 -0.06083
v 0.09605 -0.04162 0.04482
v 0.09605 -0.07683 0.03521
v 0.09605 -0.05123 -0.06083
v 0.10245 -0.04162 0.04482
v 0.10245 -0.07683 0.03521
v 0.09605 -0.06723 0.04802
v 0.09605 -0.04162 0.03521
v 0.10245 0.08964 0.07362
v 0.09605 0.03522 0.00001
v 0.09605 0.03523 -0.01280
v 0.09605 0.08964 0.08003
v 0.10245 0.05124 0.08003
v 0.10245 0.06083 -0.03522
v 0.09605 0.06083 -0.03522
v 0.10245 0.03842 -0.03522
v 0.09605 0.05124 0.08003
v 0.10245 0.03522 0.02562
v 0.09605 0.03843 0.04802
v 0.09605 0.03842 -0.03522
v 0.10245 0.08964 0.08003
v 0.09605 0.08964 0.07362
v 0.10245 0.03843 0.04802
v 0.09605 0.06403 -0.02561
v 0.08324 -0.08004 -0.08324
v 0.10245 -0.04802 -0.06083
v 0.10245 -0.00320 -0.06724
v 0.10245 -0.08004 -0.08644
v 0.09285 -0.00320 -0.08644
v 0.09285 -0.00320 -0.07044
v 0.09605 -0.08004 -0.06083
v 0.10245 -0.00320 -0.08644
v 0.08324 -0.06403 -0.08644
v 0.10245 -0.08004 -0.06083
v 0.09605 -0.04802 -0.06083
v 0.09285 -0.05442 -0.06403
v 0.08324 -0.06403 -0.08324
v 0.08324 -0.08004 -0.08644
v 0.09605 -0.00320 -0.06724
v 0.09605 0.06082 -0.03522
v 0.09284 0.03522 -0.08644
v 0.09284 0.07683 -0.08644
v 0.08004 0.05123 -0.03522
v 0.10245 0.03522 -0.04483
v 0.10245 0.07683 -0.08644
v 0.08004 0.03522 -0.07043
v 0.10245 0.03522 -0.08644
v 0.10245 0.06082 -0.03522
v 0.08004 0.05762 -0.06723
v 0.09605 0.03842 -0.03522
v 0.09605 0.07683 -0.07043
v 0.08004 0.05762 -0.03843
v 0.08004 0.03522 -0.06083
v 0.10245 0.07683 -0.07043
v 0.10245 0.03842 -0.03522
v 0.09285 -0.00320 -0.08644
v 0.10245 0.03522 -0.05122
v 0.09605 0.03522 -0.05122
v 0.10245 0.03522 -0.08644
v 0.10245 -0.00320 -0.06723
v 0.09285 0.03522 -0.08644
v 0.09285 -0.00320 -0.07043
v 0.10245 -0.00320 -0.08644
v 0.09285 0.03522 -0.06403
v 0.09605 0.03201 -0.05122
f 312 311 327 
f 293 296 297 
f 296 293 298 
f 299 295 300 
f 298 293 301 
f 292 293 302 
f 299 300 305 
f 291 296 307 
f 296 298 307 
f 298 294 308 
f 304 298 308 
f 305 304 308 
f 294 305 308 
f 298 301 309 
f 293 297 310 
f 302 293 310 
f 292 302 311 
f 295 299 312 
f 306 295 312 
f 296 291 313 
f 291 300 313 
f 301 299 314 
f 299 292 315 
f 292 311 315 
f 311 312 315 
f 312 299 315 
f 297 303 316 
f 310 297 316 
f 306 310 316 
f 300 295 317 
f 295 306 317 
f 300 291 318 
f 298 304 318 
f 291 307 318 
f 307 298 318 
f 305 294 319 
f 299 305 319 
f 294 314 319 
f 314 299 319 
f 294 298 320 
f 298 309 320 
f 314 294 320 
f 313 300 321 
f 303 313 321 
f 316 303 321 
f 306 316 321 
f 300 317 321 
f 317 306 321 
f 302 310 322 
f 310 306 322 
f 312 302 322 
f 306 312 322 
f 293 292 323 
f 292 299 323 
f 301 293 323 
f 299 301 323 
f 297 296 324 
f 303 297 324 
f 296 313 324 
f 313 303 324 
f 305 300 325 
f 304 305 325 
f 300 318 325 
f 318 304 325 
f 309 301 326 
f 301 314 326 
f 320 309 326 
f 314 320 326 
f 311 302 327 
f 302 312 327 
