# Original object name hint: convex_5
v -0.10245 -0.06723 -0.03202
v -0.08964 -0.10245 -0.09924
v -0.08644 -0.10245 -0.09924
v -0.08644 -0.10245 0.00000
v -0.08644 -0.06723 -0.10245
v -0.10245 -0.09925 -0.08964
v -0.10245 -0.09925 0.00000
v -0.10245 -0.06723 -0.09924
v -0.09605 -0.06723 -0.03202
v -0.08644 -0.09604 0.00000
v -0.09925 -0.10245 0.00000
v -0.09605 -0.09604 -0.10245
v -0.10245 -0.09284 0.00000
v -0.09925 -0.10245 -0.08964
v -0.08644 -0.06723 -0.09604
v -0.09925 -0.09925 -0.09924
v -0.09925 -0.06723 -0.10245
v -0.08644 -0.09925 -0.10245
v -0.09285 -0.09284 0.00000
v -0.10245 -0.06722 -0.09924
v -0.09285 0.10245 0.00000
v -0.08644 0.10245 -0.06082
v -0.10245 0.09602 -0.09604
v -0.08644 -0.06722 -0.10245
v -0.10245 -0.03840 0.00000
v -0.10245 0.09923 0.00000
v -0.08644 0.09602 -0.10245
v -0.09605 -0.03840 0.00000
v -0.09605 -0.06722 -0.03202
v -0.09925 0.08642 -0.10245
v -0.09925 0.10245 -0.08964
v -0.08644 -0.06722 -0.09604
v -0.10245 -0.06722 -0.03202
v -0.09925 -0.06722 -0.10245
v -0.09285 0.09282 0.00000
v -0.08644 0.10245 -0.09604
v -0.09925 0.10245 0.00000
v -0.10245 0.08642 -0.09924
v -0.08644 0.09602 -0.06082
v -0.09605 0.09923 -0.09924
v -0.10245 0.09923 -0.08964
v 0.10245 -0.08644 0.07043
v -0.10245 -0.09925 0.00000
v -0.10245 -0.09284 0.00000
v -0.10245 -0.09925 0.07043
v 0.09924 -0.10245 0.00000
v 0.10245 -0.08324 0.00000
v 0.09924 -0.10245 0.07043
v -0.10245 -0.08964 0.03841
v -0.09924 -0.10245 0.00000
v -0.05762 -0.08964 0.07043
v -0.09924 -0.10245 0.07043
v 0.09603 -0.08324 0.03841
v -0.10245 -0.08964 0.01281
v -0.10245 -0.09284 0.07043
v 0.10245 -0.09925 0.00000
v 0.10245 -0.09925 0.07043
v 0.09603 -0.08324 0.00000
v 0.10245 -0.08004 0.09924
v -0.10245 -0.09925 0.07044
v -0.10245 -0.09284 0.07044
v -0.09924 -0.08004 0.10245
v 0.09603 -0.10245 0.09924
v 0.10245 -0.08644 0.07044
v -0.09924 -0.10245 0.09924
v 0.09924 -0.10245 0.07044
v -0.10245 -0.08004 0.08644
v 0.09603 -0.08004 0.07684
v 0.09603 -0.09925 0.10245
v -0.09924 -0.10245 0.07044
v -0.09924 -0.09925 0.10245
v 0.09924 -0.08004 0.10245
v 0.10245 -0.09925 0.09604
v -0.10245 -0.09925 0.09924
v -0.10245 -0.08964 0.07364
v 0.10245 -0.09925 0.07044
v 0.10245 -0.08004 -0.05762
v -0.08644 -0.09925 -0.10245
v -0.08644 -0.08004 -0.10245
v -0.08644 -0.10245 0.00000
v 0.09603 -0.10245 -0.09924
v 0.10245 -0.08324 0.00000
v 0.09921 -0.10245 0.00000
v 0.09921 -0.08004 -0.10245
v -0.07043 -0.09284 0.00000
v -0.08644 -0.10245 -0.09924
v -0.08644 -0.08004 -0.09284
v 0.10245 -0.09925 -0.09604
v 0.09603 -0.09925 -0.10245
v -0.08644 -0.09605 0.00000
v 0.09603 -0.08324 0.00000
v 0.10245 -0.09925 0.00000
v 0.10245 -0.08004 -0.09924
v 0.09921 -0.10245 -0.09604
v 0.10245 0.09925 -0.06082
v -0.08644 0.09285 -0.10245
v -0.08644 0.09285 -0.06723
v -0.08644 0.10245 -0.09924
v -0.08322 0.10245 0.00000
v 0.09921 0.09605 0.00000
v 0.09921 0.09285 -0.10245
v 0.09921 0.10245 -0.09924
v 0.09921 0.10245 0.00000
v -0.08322 0.09605 0.00000
v 0.09921 0.09285 -0.05442
v 0.09603 0.09925 -0.10245
v -0.08644 0.09925 -0.10245
v 0.10245 0.09285 -0.09924
v -0.08644 0.10245 -0.05762
v 0.10245 0.09285 -0.06082
v -0.10245 -0.04161 0.00321
v -0.09284 0.10243 0.08003
v -0.09284 0.10243 0.00001
v -0.10245 0.09922 0.08003
v -0.09605 -0.06081 0.04162
v -0.10245 0.09922 0.00001
v -0.10245 -0.04800 0.04802
v -0.09605 -0.03839 0.00001
v -0.09605 0.06081 0.08003
v -0.10245 0.06081 0.08003
v -0.10245 -0.06081 0.02562
v -0.09284 0.08962 0.08003
v -0.09605 -0.06081 0.02562
v -0.09925 0.10243 0.08003
v -0.09284 0.09283 0.00001
v -0.10245 -0.03839 0.00001
v -0.09605 -0.04800 0.04802
v -0.09925 0.10243 0.00001
v -0.10245 -0.06081 0.04162
v -0.09605 -0.05760 0.01921
v 0.00959 0.10245 0.09284
v -0.10245 -0.08004 0.08644
v -0.10245 -0.08004 0.09924
v 0.00959 -0.08004 0.10245
v -0.09924 0.09604 0.10245
v -0.10245 0.09923 0.08004
v 0.00959 -0.07043 0.09284
v 0.00959 0.09923 0.10245
v -0.06722 0.09604 0.08004
v -0.09924 -0.08004 0.10245
v -0.09603 0.10245 0.09924
v -0.02562 -0.06723 0.08965
v -0.09603 0.06083 0.08004
v -0.10245 0.09604 0.09924
v 0.00319 -0.08004 0.09284
v -0.06722 0.10245 0.08004
v -0.09603 -0.08004 0.08644
v 0.00959 0.10245 0.09924
v -0.09924 0.10245 0.08004
v -0.10245 0.06083 0.08004
v -0.09603 0.09923 0.10245
v 0.09923 0.10245 0.09605
v 0.00961 -0.08004 0.09605
v 0.00961 -0.08004 0.10245
v 0.10244 -0.08004 0.09924
v 0.06722 0.10245 0.08004
v 0.00961 0.09923 0.10245
v 0.10244 -0.08004 0.08965
v 0.09923 0.09604 0.10245
v 0.10244 0.09923 0.08004
v 0.00961 0.10245 0.09284
v 0.00961 -0.07043 0.09284
v 0.09923 -0.08004 0.10245
v 0.09603 0.05440 0.08004
v 0.10244 0.09604 0.09924
v 0.08963 -0.08004 0.08965
v 0.10244 0.05440 0.08004
v 0.09603 0.10245 0.09924
v 0.06722 0.09604 0.08004
v 0.00961 0.10245 0.09924
v 0.09923 0.10245 0.08004
v 0.09603 0.09923 0.10245
v -0.08322 0.08964 -0.08324
v -0.08644 0.07684 -0.10245
v -0.08644 0.07684 -0.09284
v 0.04162 0.07684 -0.10245
v -0.08644 0.09285 -0.10245
v 0.04162 0.09285 -0.09604
v 0.04162 0.07684 -0.09604
v 0.04162 0.09285 -0.10245
v -0.08644 0.09285 -0.08324
v -0.07683 0.08004 -0.08964
v 0.10245 0.08964 -0.07043
v 0.04802 0.08964 -0.10245
v 0.04802 0.09285 -0.10245
v 0.09924 0.09285 -0.10245
v 0.09924 0.07684 -0.10245
v 0.05763 0.07684 -0.09604
v 0.10245 0.07684 -0.07684
v 0.09605 0.09285 -0.06723
v 0.04802 0.08964 -0.09604
v 0.05763 0.07684 -0.10245
v 0.10245 0.09285 -0.09925
v 0.09605 0.08964 -0.06723
v 0.09605 0.07684 -0.07684
v 0.10245 0.07684 -0.09925
v 0.04802 0.09285 -0.09604
v 0.10245 0.09925 0.08003
v -0.08321 0.09605 0.00001
v -0.08321 0.10245 0.00001
v -0.09284 0.10245 0.08003
v 0.09282 0.08964 0.08003
v 0.09922 0.10245 0.00001
v -0.09284 0.09285 0.08003
v 0.09922 0.09605 0.00001
v 0.09922 0.10245 0.08003
v 0.10245 0.08964 0.07043
v -0.09284 0.09285 0.07362
v 0.09282 0.08964 0.07043
v -0.09284 0.10245 0.06722
v 0.10245 0.08964 0.08003
v -0.08644 -0.08002 -0.09284
v 0.07043 0.07684 -0.09605
v 0.03519 0.06721 -0.09284
v -0.08644 0.07684 -0.10245
v 0.07043 -0.08002 -0.10245
v -0.08644 -0.08002 -0.10245
v -0.08644 0.07684 -0.09284
v 0.07043 -0.08002 -0.09605
v 0.07043 0.07684 -0.10245
v -0.03199 0.04800 -0.08964
v -0.04802 0.06081 -0.08964
v -0.05442 0.07684 -0.09284
v -0.08323 -0.08002 -0.09284
v -0.03199 0.06081 -0.08964
v -0.03521 0.04481 -0.08964
v 0.03519 0.05761 -0.09284
v 0.10245 0.07684 -0.08644
v 0.07044 -0.08002 -0.10245
v 0.09924 -0.08002 -0.10245
v 0.07044 0.07684 -0.10245
v 0.08004 -0.08002 -0.08644
v 0.09924 0.07684 -0.10245
v 0.10245 -0.08002 -0.08644
v 0.07044 0.07684 -0.09605
v 0.09284 0.07684 -0.08644
v 0.07044 -0.08002 -0.09285
v 0.10245 -0.08002 -0.09925
v 0.10245 0.07684 -0.09925
v 0.08004 -0.07362 -0.08644
v -0.05120 -0.07043 -0.05442
v -0.04480 0.07043 -0.03842
v -0.04480 0.07043 -0.04161
v 0.07681 -0.06722 -0.03202
v -0.05440 -0.06402 0.00000
v 0.07041 0.06082 0.00000
v 0.08004 0.05441 -0.07043
v -0.05760 0.06082 0.00000
v -0.05120 0.05762 -0.07043
v 0.06401 -0.06402 -0.07043
v 0.06721 -0.06722 0.00000
v -0.06722 -0.04161 -0.05442
v -0.05120 -0.05442 -0.07043
v -0.06400 0.06082 -0.05121
v 0.07681 0.05441 0.00000
v 0.05761 0.06082 -0.06723
v 0.06721 -0.07043 -0.06403
v -0.06722 -0.04481 -0.03842
v 0.06401 0.06402 0.00000
v -0.05440 -0.07043 -0.02882
v -0.04160 -0.06722 -0.06723
v 0.06721 -0.07043 -0.01922
v 0.07041 -0.06402 -0.06723
v 0.08004 0.05762 -0.03842
v -0.05440 0.06402 0.00000
v -0.06400 -0.06402 -0.04481
v -0.05120 -0.06722 0.00000
v -0.06400 0.06082 -0.03202
v -0.05120 0.06402 -0.06403
v 0.07041 -0.06402 0.00000
v 0.08004 0.03522 -0.07043
v 0.06081 0.06402 -0.02242
v -0.05120 0.07043 -0.03522
v 0.08004 0.05762 -0.06723
v 0.07681 -0.06722 -0.02882
v -0.06080 -0.06082 -0.05762
v -0.03840 -0.07043 -0.06403
v 0.08004 0.05120 -0.03522
v 0.07681 0.04481 0.00000
v -0.04480 -0.06082 -0.07043
v -0.06722 -0.03199 -0.05442
v 0.06721 0.06082 -0.06082
v -0.06400 -0.06402 -0.03842
v -0.05440 0.05441 -0.06723
v -0.06722 -0.02559 -0.04161
v -0.05760 -0.07043 -0.03522
v 0.06081 0.05762 -0.07043
v -0.05120 -0.07043 -0.02562
v -0.02879 0.06402 -0.06403
v -0.06400 -0.05442 -0.05762
v -0.05762 -0.06721 0.05762
v 0.06403 0.06403 0.02882
v 0.06403 0.06403 0.00000
v 0.07362 -0.06402 0.06723
v -0.05442 0.05762 0.07043
v -0.05442 -0.06402 0.00000
v -0.05762 0.06082 0.00000
v 0.06723 -0.06721 0.00000
v 0.07362 0.05762 0.07043
v -0.06082 -0.06402 0.07043
v 0.07684 0.05441 0.00000
v -0.04802 0.06403 0.05121
v -0.06403 -0.03840 0.06082
v -0.04802 -0.07043 0.06723
v 0.07041 -0.06402 0.07043
v -0.06082 0.05762 0.06723
v -0.05122 -0.06721 0.00000
v 0.06723 -0.06721 0.06723
v 0.07041 -0.06402 0.00000
v -0.05442 0.06403 0.00000
v 0.05762 0.06403 0.05442
v -0.05442 0.06082 0.06723
v -0.06403 -0.06083 0.06402
v 0.07684 0.04480 0.00321
v 0.06723 0.06082 0.06723
v -0.06082 0.05762 0.05442
v -0.06082 0.04801 0.07043
v -0.05122 -0.07043 0.06082
v 0.07362 -0.06083 0.07043
v 0.07362 -0.06402 0.06082
v -0.06403 -0.03520 0.06723
v -0.05442 0.06403 0.04481
v 0.07041 0.06082 0.00000
v -0.05762 0.05441 0.00000
v -0.05442 -0.06721 0.07043
v 0.07684 0.04480 0.00000
v -0.03841 0.06403 0.05442
v 0.10245 -0.06723 0.04802
v 0.09605 -0.08004 -0.06083
v 0.10245 -0.08004 -0.06083
v 0.10245 -0.05123 -0.06083
v 0.09605 -0.04162 0.04482
v 0.09605 -0.07683 0.03521
v 0.09605 -0.05123 -0.06083
v 0.10245 -0.04162 0.04482
v 0.10245 -0.07683 0.03521
v 0.09605 -0.06723 0.04802
v 0.09605 -0.04162 0.03521
v 0.10245 0.08964 0.07362
v 0.09605 0.03522 0.00001
v 0.09605 0.03523 -0.01280
v 0.09605 0.08964 0.08003
v 0.10245 0.05124 0.08003
v 0.10245 0.06083 -0.03522
v 0.09605 0.06083 -0.03522
v 0.10245 0.03842 -0.03522
v 0.09605 0.05124 0.08003
v 0.10245 0.03522 0.02562
v 0.09605 0.03843 0.04802
v 0.09605 0.03842 -0.03522
v 0.10245 0.08964 0.08003
v 0.09605 0.08964 0.07362
v 0.10245 0.03843 0.04802
v 0.09605 0.06403 -0.02561
v 0.08324 -0.08004 -0.08324
v 0.10245 -0.04802 -0.06083
v 0.10245 -0.00320 -0.06724
v 0.10245 -0.08004 -0.08644
v 0.09285 -0.00320 -0.08644
v 0.09285 -0.00320 -0.07044
v 0.09605 -0.08004 -0.06083
v 0.10245 -0.00320 -0.08644
v 0.08324 -0.06403 -0.08644
v 0.10245 -0.08004 -0.06083
v 0.09605 -0.04802 -0.06083
v 0.09285 -0.05442 -0.06403
v 0.08324 -0.06403 -0.08324
v 0.08324 -0.08004 -0.08644
v 0.09605 -0.00320 -0.06724
v 0.09605 0.06082 -0.03522
v 0.09284 0.03522 -0.08644
v 0.09284 0.07683 -0.08644
v 0.08004 0.05123 -0.03522
v 0.10245 0.03522 -0.04483
v 0.10245 0.07683 -0.08644
v 0.08004 0.03522 -0.07043
v 0.10245 0.03522 -0.08644
v 0.10245 0.06082 -0.03522
v 0.08004 0.05762 -0.06723
v 0.09605 0.03842 -0.03522
v 0.09605 0.07683 -0.07043
v 0.08004 0.05762 -0.03843
v 0.08004 0.03522 -0.06083
v 0.10245 0.07683 -0.07043
v 0.10245 0.03842 -0.03522
v 0.09285 -0.00320 -0.08644
v 0.10245 0.03522 -0.05122
v 0.09605 0.03522 -0.05122
v 0.10245 0.03522 -0.08644
v 0.10245 -0.00320 -0.06723
v 0.09285 0.03522 -0.08644
v 0.09285 -0.00320 -0.07043
v 0.10245 -0.00320 -0.08644
v 0.09285 0.03522 -0.06403
v 0.09605 0.03201 -0.05122
f 105 108 110 
f 96 97 98 
f 97 96 101 
f 98 99 102 
f 95 102 103 
f 99 100 103 
f 100 95 103 
f 102 99 103 
f 100 99 104 
f 100 104 105 
f 97 101 105 
f 104 97 105 
f 101 96 106 
f 98 102 106 
f 102 101 106 
f 96 98 107 
f 106 96 107 
f 98 106 107 
f 101 102 108 
f 102 95 108 
f 105 101 108 
f 98 97 109 
f 99 98 109 
f 97 104 109 
f 104 99 109 
f 95 100 110 
f 100 105 110 
f 108 95 110 
