# Original object name hint: convex_14
v -0.10245 -0.06723 -0.03202
v -0.08964 -0.10245 -0.09924
v -0.08644 -0.10245 -0.09924
v -0.08644 -0.10245 0.00000
v -0.08644 -0.06723 -0.10245
v -0.10245 -0.09925 -0.08964
v -0.10245 -0.09925 0.00000
v -0.10245 -0.06723 -0.09924
v -0.09605 -0.06723 -0.03202
v -0.08644 -0.09604 0.00000
v -0.09925 -0.10245 0.00000
v -0.09605 -0.09604 -0.10245
v -0.10245 -0.09284 0.00000
v -0.09925 -0.10245 -0.08964
v -0.08644 -0.06723 -0.09604
v -0.09925 -0.09925 -0.09924
v -0.09925 -0.06723 -0.10245
v -0.08644 -0.09925 -0.10245
v -0.09285 -0.09284 0.00000
v -0.10245 -0.06722 -0.09924
v -0.09285 0.10245 0.00000
v -0.08644 0.10245 -0.06082
v -0.10245 0.09602 -0.09604
v -0.08644 -0.06722 -0.10245
v -0.10245 -0.03840 0.00000
v -0.10245 0.09923 0.00000
v -0.08644 0.09602 -0.10245
v -0.09605 -0.03840 0.00000
v -0.09605 -0.06722 -0.03202
v -0.09925 0.08642 -0.10245
v -0.09925 0.10245 -0.08964
v -0.08644 -0.06722 -0.09604
v -0.10245 -0.06722 -0.03202
v -0.09925 -0.06722 -0.10245
v -0.09285 0.09282 0.00000
v -0.08644 0.10245 -0.09604
v -0.09925 0.10245 0.00000
v -0.10245 0.08642 -0.09924
v -0.08644 0.09602 -0.06082
v -0.09605 0.09923 -0.09924
v -0.10245 0.09923 -0.08964
v 0.10245 -0.08644 0.07043
v -0.10245 -0.09925 0.00000
v -0.10245 -0.09284 0.00000
v -0.10245 -0.09925 0.07043
v 0.09924 -0.10245 0.00000
v 0.10245 -0.08324 0.00000
v 0.09924 -0.10245 0.07043
v -0.10245 -0.08964 0.03841
v -0.09924 -0.10245 0.00000
v -0.05762 -0.08964 0.07043
v -0.09924 -0.10245 0.07043
v 0.09603 -0.08324 0.03841
v -0.10245 -0.08964 0.01281
v -0.10245 -0.09284 0.07043
v 0.10245 -0.09925 0.00000
v 0.10245 -0.09925 0.07043
v 0.09603 -0.08324 0.00000
v 0.10245 -0.08004 0.09924
v -0.10245 -0.09925 0.07044
v -0.10245 -0.09284 0.07044
v -0.09924 -0.08004 0.10245
v 0.09603 -0.10245 0.09924
v 0.10245 -0.08644 0.07044
v -0.09924 -0.10245 0.09924
v 0.09924 -0.10245 0.07044
v -0.10245 -0.08004 0.08644
v 0.09603 -0.08004 0.07684
v 0.09603 -0.09925 0.10245
v -0.09924 -0.10245 0.07044
v -0.09924 -0.09925 0.10245
v 0.09924 -0.08004 0.10245
v 0.10245 -0.09925 0.09604
v -0.10245 -0.09925 0.09924
v -0.10245 -0.08964 0.07364
v 0.10245 -0.09925 0.07044
v 0.10245 -0.08004 -0.05762
v -0.08644 -0.09925 -0.10245
v -0.08644 -0.08004 -0.10245
v -0.08644 -0.10245 0.00000
v 0.09603 -0.10245 -0.09924
v 0.10245 -0.08324 0.00000
v 0.09921 -0.10245 0.00000
v 0.09921 -0.08004 -0.10245
v -0.07043 -0.09284 0.00000
v -0.08644 -0.10245 -0.09924
v -0.08644 -0.08004 -0.09284
v 0.10245 -0.09925 -0.09604
v 0.09603 -0.09925 -0.10245
v -0.08644 -0.09605 0.00000
v 0.09603 -0.08324 0.00000
v 0.10245 -0.09925 0.00000
v 0.10245 -0.08004 -0.09924
v 0.09921 -0.10245 -0.09604
v 0.10245 0.09925 -0.06082
v -0.08644 0.09285 -0.10245
v -0.08644 0.09285 -0.06723
v -0.08644 0.10245 -0.09924
v -0.08322 0.10245 0.00000
v 0.09921 0.09605 0.00000
v 0.09921 0.09285 -0.10245
v 0.09921 0.10245 -0.09924
v 0.09921 0.10245 0.00000
v -0.08322 0.09605 0.00000
v 0.09921 0.09285 -0.05442
v 0.09603 0.09925 -0.10245
v -0.08644 0.09925 -0.10245
v 0.10245 0.09285 -0.09924
v -0.08644 0.10245 -0.05762
v 0.10245 0.09285 -0.06082
v -0.10245 -0.04161 0.00321
v -0.09284 0.10243 0.08003
v -0.09284 0.10243 0.00001
v -0.10245 0.09922 0.08003
v -0.09605 -0.06081 0.04162
v -0.10245 0.09922 0.00001
v -0.10245 -0.04800 0.04802
v -0.09605 -0.03839 0.00001
v -0.09605 0.06081 0.08003
v -0.10245 0.06081 0.08003
v -0.10245 -0.06081 0.02562
v -0.09284 0.08962 0.08003
v -0.09605 -0.06081 0.02562
v -0.09925 0.10243 0.08003
v -0.09284 0.09283 0.00001
v -0.10245 -0.03839 0.00001
v -0.09605 -0.04800 0.04802
v -0.09925 0.10243 0.00001
v -0.10245 -0.06081 0.04162
v -0.09605 -0.05760 0.01921
v 0.00959 0.10245 0.09284
v -0.10245 -0.08004 0.08644
v -0.10245 -0.08004 0.09924
v 0.00959 -0.08004 0.10245
v -0.09924 0.09604 0.10245
v -0.10245 0.09923 0.08004
v 0.00959 -0.07043 0.09284
v 0.00959 0.09923 0.10245
v -0.06722 0.09604 0.08004
v -0.09924 -0.08004 0.10245
v -0.09603 0.10245 0.09924
v -0.02562 -0.06723 0.08965
v -0.09603 0.06083 0.08004
v -0.10245 0.09604 0.09924
v 0.00319 -0.08004 0.09284
v -0.06722 0.10245 0.08004
v -0.09603 -0.08004 0.08644
v 0.00959 0.10245 0.09924
v -0.09924 0.10245 0.08004
v -0.10245 0.06083 0.08004
v -0.09603 0.09923 0.10245
v 0.09923 0.10245 0.09605
v 0.00961 -0.08004 0.09605
v 0.00961 -0.08004 0.10245
v 0.10244 -0.08004 0.09924
v 0.06722 0.10245 0.08004
v 0.00961 0.09923 0.10245
v 0.10244 -0.08004 0.08965
v 0.09923 0.09604 0.10245
v 0.10244 0.09923 0.08004
v 0.00961 0.10245 0.09284
v 0.00961 -0.07043 0.09284
v 0.09923 -0.08004 0.10245
v 0.09603 0.05440 0.08004
v 0.10244 0.09604 0.09924
v 0.08963 -0.08004 0.08965
v 0.10244 0.05440 0.08004
v 0.09603 0.10245 0.09924
v 0.06722 0.09604 0.08004
v 0.00961 0.10245 0.09924
v 0.09923 0.10245 0.08004
v 0.09603 0.09923 0.10245
v -0.08322 0.08964 -0.08324
v -0.08644 0.07684 -0.10245
v -0.08644 0.07684 -0.09284
v 0.04162 0.07684 -0.10245
v -0.08644 0.09285 -0.10245
v 0.04162 0.09285 -0.09604
v 0.04162 0.07684 -0.09604
v 0.04162 0.09285 -0.10245
v -0.08644 0.09285 -0.08324
v -0.07683 0.08004 -0.08964
v 0.10245 0.08964 -0.07043
v 0.04802 0.08964 -0.10245
v 0.04802 0.09285 -0.10245
v 0.09924 0.09285 -0.10245
v 0.09924 0.07684 -0.10245
v 0.05763 0.07684 -0.09604
v 0.10245 0.07684 -0.07684
v 0.09605 0.09285 -0.06723
v 0.04802 0.08964 -0.09604
v 0.05763 0.07684 -0.10245
v 0.10245 0.09285 -0.09925
v 0.09605 0.08964 -0.06723
v 0.09605 0.07684 -0.07684
v 0.10245 0.07684 -0.09925
v 0.04802 0.09285 -0.09604
v 0.10245 0.09925 0.08003
v -0.08321 0.09605 0.00001
v -0.08321 0.10245 0.00001
v -0.09284 0.10245 0.08003
v 0.09282 0.08964 0.08003
v 0.09922 0.10245 0.00001
v -0.09284 0.09285 0.08003
v 0.09922 0.09605 0.00001
v 0.09922 0.10245 0.08003
v 0.10245 0.08964 0.07043
v -0.09284 0.09285 0.07362
v 0.09282 0.08964 0.07043
v -0.09284 0.10245 0.06722
v 0.10245 0.08964 0.08003
v -0.08644 -0.08002 -0.09284
v 0.07043 0.07684 -0.09605
v 0.03519 0.06721 -0.09284
v -0.08644 0.07684 -0.10245
v 0.07043 -0.08002 -0.10245
v -0.08644 -0.08002 -0.10245
v -0.08644 0.07684 -0.09284
v 0.07043 -0.08002 -0.09605
v 0.07043 0.07684 -0.10245
v -0.03199 0.04800 -0.08964
v -0.04802 0.06081 -0.08964
v -0.05442 0.07684 -0.09284
v -0.08323 -0.08002 -0.09284
v -0.03199 0.06081 -0.08964
v -0.03521 0.04481 -0.08964
v 0.03519 0.05761 -0.09284
v 0.10245 0.07684 -0.08644
v 0.07044 -0.08002 -0.10245
v 0.09924 -0.08002 -0.10245
v 0.07044 0.07684 -0.10245
v 0.08004 -0.08002 -0.08644
v 0.09924 0.07684 -0.10245
v 0.10245 -0.08002 -0.08644
v 0.07044 0.07684 -0.09605
v 0.09284 0.07684 -0.08644
v 0.07044 -0.08002 -0.09285
v 0.10245 -0.08002 -0.09925
v 0.10245 0.07684 -0.09925
v 0.08004 -0.07362 -0.08644
v -0.05120 -0.07043 -0.05442
v -0.04480 0.07043 -0.03842
v -0.04480 0.07043 -0.04161
v 0.07681 -0.06722 -0.03202
v -0.05440 -0.06402 0.00000
v 0.07041 0.06082 0.00000
v 0.08004 0.05441 -0.07043
v -0.05760 0.06082 0.00000
v -0.05120 0.05762 -0.07043
v 0.06401 -0.06402 -0.07043
v 0.06721 -0.06722 0.00000
v -0.06722 -0.04161 -0.05442
v -0.05120 -0.05442 -0.07043
v -0.06400 0.06082 -0.05121
v 0.07681 0.05441 0.00000
v 0.05761 0.06082 -0.06723
v 0.06721 -0.07043 -0.06403
v -0.06722 -0.04481 -0.03842
v 0.06401 0.06402 0.00000
v -0.05440 -0.07043 -0.02882
v -0.04160 -0.06722 -0.06723
v 0.06721 -0.07043 -0.01922
v 0.07041 -0.06402 -0.06723
v 0.08004 0.05762 -0.03842
v -0.05440 0.06402 0.00000
v -0.06400 -0.06402 -0.04481
v -0.05120 -0.06722 0.00000
v -0.06400 0.06082 -0.03202
v -0.05120 0.06402 -0.06403
v 0.07041 -0.06402 0.00000
v 0.08004 0.03522 -0.07043
v 0.06081 0.06402 -0.02242
v -0.05120 0.07043 -0.03522
v 0.08004 0.05762 -0.06723
v 0.07681 -0.06722 -0.02882
v -0.06080 -0.06082 -0.05762
v -0.03840 -0.07043 -0.06403
v 0.08004 0.05120 -0.03522
v 0.07681 0.04481 0.00000
v -0.04480 -0.06082 -0.07043
v -0.06722 -0.03199 -0.05442
v 0.06721 0.06082 -0.06082
v -0.06400 -0.06402 -0.03842
v -0.05440 0.05441 -0.06723
v -0.06722 -0.02559 -0.04161
v -0.05760 -0.07043 -0.03522
v 0.06081 0.05762 -0.07043
v -0.05120 -0.07043 -0.02562
v -0.02879 0.06402 -0.06403
v -0.06400 -0.05442 -0.05762
v -0.05762 -0.06721 0.05762
v 0.06403 0.06403 0.02882
v 0.06403 0.06403 0.00000
v 0.07362 -0.06402 0.06723
v -0.05442 0.05762 0.07043
v -0.05442 -0.06402 0.00000
v -0.05762 0.06082 0.00000
v 0.06723 -0.06721 0.00000
v 0.07362 0.05762 0.07043
v -0.06082 -0.06402 0.07043
v 0.07684 0.05441 0.00000
v -0.04802 0.06403 0.05121
v -0.06403 -0.03840 0.06082
v -0.04802 -0.07043 0.06723
v 0.07041 -0.06402 0.07043
v -0.06082 0.05762 0.06723
v -0.05122 -0.06721 0.00000
v 0.06723 -0.06721 0.06723
v 0.07041 -0.06402 0.00000
v -0.05442 0.06403 0.00000
v 0.05762 0.06403 0.05442
v -0.05442 0.06082 0.06723
v -0.06403 -0.06083 0.06402
v 0.07684 0.04480 0.00321
v 0.06723 0.06082 0.06723
v -0.06082 0.05762 0.05442
v -0.06082 0.04801 0.07043
v -0.05122 -0.07043 0.06082
v 0.07362 -0.06083 0.07043
v 0.07362 -0.06402 0.06082
v -0.06403 -0.03520 0.06723
v -0.05442 0.06403 0.04481
v 0.07041 0.06082 0.00000
v -0.05762 0.05441 0.00000
v -0.05442 -0.06721 0.07043
v 0.07684 0.04480 0.00000
v -0.03841 0.06403 0.05442
v 0.10245 -0.06723 0.04802
v 0.09605 -0.08004 -0.06083
v 0.10245 -0.08004 -0.06083
v 0.10245 -0.05123 -0.06083
v 0.09605 -0.04162 0.04482
v 0.09605 -0.07683 0.03521
v 0.09605 -0.05123 -0.06083
v 0.10245 -0.04162 0.04482
v 0.10245 -0.07683 0.03521
v 0.09605 -0.06723 0.04802
v 0.09605 -0.04162 0.03521
v 0.10245 0.08964 0.07362
v 0.09605 0.03522 0.00001
v 0.09605 0.03523 -0.01280
v 0.09605 0.08964 0.08003
v 0.10245 0.05124 0.08003
v 0.10245 0.06083 -0.03522
v 0.09605 0.06083 -0.03522
v 0.10245 0.03842 -0.03522
v 0.09605 0.05124 0.08003
v 0.10245 0.03522 0.02562
v 0.09605 0.03843 0.04802
v 0.09605 0.03842 -0.03522
v 0.10245 0.08964 0.08003
v 0.09605 0.08964 0.07362
v 0.10245 0.03843 0.04802
v 0.09605 0.06403 -0.02561
v 0.08324 -0.08004 -0.08324
v 0.10245 -0.04802 -0.06083
v 0.10245 -0.00320 -0.06724
v 0.10245 -0.08004 -0.08644
v 0.09285 -0.00320 -0.08644
v 0.09285 -0.00320 -0.07044
v 0.09605 -0.08004 -0.06083
v 0.10245 -0.00320 -0.08644
v 0.08324 -0.06403 -0.08644
v 0.10245 -0.08004 -0.06083
v 0.09605 -0.04802 -0.06083
v 0.09285 -0.05442 -0.06403
v 0.08324 -0.06403 -0.08324
v 0.08324 -0.08004 -0.08644
v 0.09605 -0.00320 -0.06724
v 0.09605 0.06082 -0.03522
v 0.09284 0.03522 -0.08644
v 0.09284 0.07683 -0.08644
v 0.08004 0.05123 -0.03522
v 0.10245 0.03522 -0.04483
v 0.10245 0.07683 -0.08644
v 0.08004 0.03522 -0.07043
v 0.10245 0.03522 -0.08644
v 0.10245 0.06082 -0.03522
v 0.08004 0.05762 -0.06723
v 0.09605 0.03842 -0.03522
v 0.09605 0.07683 -0.07043
v 0.08004 0.05762 -0.03843
v 0.08004 0.03522 -0.06083
v 0.10245 0.07683 -0.07043
v 0.10245 0.03842 -0.03522
v 0.09285 -0.00320 -0.08644
v 0.10245 0.03522 -0.05122
v 0.09605 0.03522 -0.05122
v 0.10245 0.03522 -0.08644
v 0.10245 -0.00320 -0.06723
v 0.09285 0.03522 -0.08644
v 0.09285 -0.00320 -0.07043
v 0.10245 -0.00320 -0.08644
v 0.09285 0.03522 -0.06403
v 0.09605 0.03201 -0.05122
f 276 266 290 
f 245 246 248 
f 249 247 250 
f 246 245 251 
f 252 249 253 
f 249 250 253 
f 246 251 255 
f 245 248 258 
f 243 242 259 
f 248 246 259 
f 241 257 260 
f 257 244 262 
f 260 257 262 
f 244 257 263 
f 257 250 263 
f 246 255 264 
f 259 246 264 
f 248 259 265 
f 258 252 266 
f 251 245 267 
f 262 251 267 
f 258 248 268 
f 248 265 268 
f 249 254 269 
f 255 251 270 
f 250 247 271 
f 244 263 271 
f 263 250 271 
f 247 264 271 
f 243 259 272 
f 242 243 273 
f 259 242 273 
f 265 259 273 
f 254 268 273 
f 268 265 273 
f 243 269 273 
f 269 254 273 
f 264 247 274 
f 259 264 274 
f 272 259 274 
f 262 244 275 
f 251 262 275 
f 270 251 275 
f 244 271 275 
f 261 241 276 
f 241 266 276 
f 257 241 277 
f 250 257 277 
f 241 261 277 
f 261 250 277 
f 264 255 278 
f 271 264 278 
f 275 271 278 
f 275 278 279 
f 255 270 279 
f 270 275 279 
f 278 255 279 
f 253 250 280 
f 250 261 280 
f 276 253 280 
f 261 276 280 
f 249 252 281 
f 252 258 281 
f 256 243 282 
f 243 272 282 
f 274 256 282 
f 272 274 282 
f 245 258 283 
f 258 266 283 
f 254 249 284 
f 249 281 284 
f 281 254 284 
f 268 254 285 
f 258 268 285 
f 254 281 285 
f 281 258 285 
f 241 260 286 
f 266 241 286 
f 267 245 286 
f 260 267 286 
f 245 283 286 
f 283 266 286 
f 247 249 287 
f 249 269 287 
f 274 247 287 
f 256 274 287 
f 260 262 288 
f 267 260 288 
f 262 267 288 
f 243 256 289 
f 269 243 289 
f 287 269 289 
f 256 287 289 
f 252 253 290 
f 266 252 290 
f 253 276 290 
