# Created by Open3D 
# object name: convex_1_coll
# number of vertices: 14
# number of triangles: 24
v -0.0259425 -0.019285 -0.01531
v 0.003325 -0.023275 -0.05588
v -0.01064 0.0266 -0.05588
v 0.01862 0.02128 -0.05588
v -0.00931 -0.0266 -0.00266
v 0.01064 0.02261 0
v -0.01463 0.02261 0
v -0.027935 0.025275 -0.01464
v 0.0109725 -0.021945 -0.00299375
v 0.001995 -0.03193 -0.0432425
v -0.01596 -0.02128 -0.03992
v -0.02261 0.020615 -0.0392475
v 0.02661 0.01596 -0.01331
v 0.02394 -0.02128 -0.04257
f 2 3 4
f 5 6 7
f 6 5 9
f 1 10 5
f 2 11 3
f 11 12 3
f 9 14 13
f 6 9 13
f 8 7 6
f 3 8 6
f 12 8 3
f 1 8 12
f 11 1 12
f 14 4 13
f 7 8 5
f 2 10 11
f 10 1 11
f 4 3 13
f 10 14 9
f 5 8 1
f 13 3 6
f 9 5 10
f 2 4 14
f 10 2 14
