# Created by Open3D 
# object name: convex_3_coll
# number of vertices: 14
# number of triangles: 24
v 0.02926 -0.02128 0.03194
v 0.03591 -0.00665 0.0479
v 0.04124 0.01995 0.0479
v 0.01862 0.02661 0.0479
v -0.0126325 -0.01729 0.0479
v -0.00665 -0.01995 0.01863
v 0.01862 0.02261 0.01863
v 0.01596 -0.02128 0.01863
v -0.01729 0.01729 0.0479
v 1e-05 0.02394 0.01863
v 0.00399 0.02661 0.02795
v -0.025275 0.01729 0.03327
v 0.04524 0.01596 0.02396
v -0.01729 -0.01995 0.03327
f 3 4 5
f 3 5 2
f 6 7 8
f 5 4 9
f 7 6 10
f 4 3 13
f 7 10 11
f 13 7 11
f 1 8 13
f 1 13 2
f 13 8 7
f 10 12 11
f 4 11 9
f 11 12 9
f 5 1 2
f 1 14 8
f 8 14 6
f 10 6 12
f 5 9 12
f 6 14 12
f 5 14 1
f 13 3 2
f 5 12 14
f 13 11 4
