# Created by Open3D 
# object name: convex_4_coll
# number of vertices: 14
# number of triangles: 24
v -0.043895 0.008645 0.071185
v -0.02793 0.02527 0.069855
v -0.01862 -0.01862 0.04791
v -0.023275 0.01596 0.04924
v 0.0292625 0.02394 0.04791
v 0.034585 -0.00532 0.04791
v 0.04923 -0.01197 0.06786
v 0.05855 0.01596 0.07052
v 0.0465575 -0.011305 0.07451
v 0.00798 -0.02927 0.07052
v 0.000675 -0.007315 0.08516
v 0.041235 0.02527 0.07318
v -0.045885 -0.021945 0.067195
v 0.005985 0.03193 0.06919
f 3 4 5
f 3 5 6
f 7 8 9
f 5 4 2
f 5 7 6
f 10 7 9
f 5 2 14
f 11 9 8
f 7 5 8
f 5 12 8
f 2 12 14
f 9 11 10
f 11 13 10
f 11 8 12
f 10 3 6
f 7 10 6
f 13 4 3
f 1 4 13
f 10 13 3
f 12 5 14
f 11 2 1
f 1 13 11
f 1 2 4
f 11 12 2
