# Created by Open3D 
# object name: convex_2_coll
# number of vertices: 14
# number of triangles: 24
v 0.02128 -0.02261 0.01331
v 0.00798 -0.02128 0.01863
v -0.002665 0.02661 0
v 0.007975 0.02395 0.01863
v -0.00133 -0.02927 0
v 0.02793 -0.00798 0.00266
v -0.02128 -5.00027e-06 0
v -0.0133 -0.02927 0.01064
v -0.04523 0.01597 0.006655
v -0.04789 -0.02128 0.006655
v 0.03726 -0.00798 0.011975
v 0.03726 0.00532 0.01331
v -0.02261 0.003995 0.01597
v 0.03192 0.01597 0.00532
f 5 3 6
f 3 5 7
f 9 3 7
f 1 11 2
f 2 11 12
f 5 6 1
f 4 9 13
f 9 4 3
f 10 5 8
f 2 12 4
f 13 10 2
f 14 4 12
f 2 10 8
f 3 4 14
f 12 11 14
f 11 6 14
f 13 9 10
f 4 13 2
f 6 3 14
f 1 6 11
f 5 1 8
f 9 7 10
f 10 7 5
f 8 1 2
