# Created by Open3D 
# object name: convex_0_coll
# number of vertices: 14
# number of triangles: 24
v 0.03326 -0.025275 -0.06919
v -0.00533 -0.03193 -0.07451
v 0.034595 -0.01729 -0.07717
v 0.00532 -0.02394 -0.05588
v 0.015965 0.02128 -0.05588
v -0.00134 0.0266 -0.05588
v -0.0019925 -0.0106375 -0.08516
v -0.00799 0.02394 -0.08516
v -0.03459 0.0306 -0.07584
v -0.054555 0.02261 -0.07185
v -0.05855 0.02394 -0.06387
v -0.05588 -0.02394 -0.06653
v 0.03726 0.01862 -0.07717
v -0 0.03193 -0.07717
f 1 2 3
f 4 5 6
f 9 8 10
f 11 12 6
f 7 8 13
f 2 4 12
f 12 11 10
f 3 13 1
f 13 5 1
f 7 3 2
f 14 8 9
f 10 11 9
f 13 14 6
f 5 13 6
f 13 3 7
f 5 4 1
f 9 6 14
f 7 10 8
f 12 7 2
f 4 2 1
f 8 14 13
f 6 9 11
f 6 12 4
f 7 12 10
