# Created by Open3D 
# object name: convex_3_coll
# number of vertices: 14
# number of triangles: 24
v -0.03877 -0.067855 0.034895
v -0.04911 -0.06979 0.0181
v -0.04136 -0.07625 0.03231
v -0.04136 -0.05428 0.01551
v 0.01551 -0.071085 0.031015
v 0.01551 -0.08271 0.01551
v -0.03618 -0.08271 0.01551
v 0.01551 -0.08142 0.031015
v 0.01551 -0.06979 0.01551
v -0.00517 -0.071085 0.03619
v -0.03101 -0.08013 0.03619
v -0.02972 -0.08271 0.031015
v -0 -0.08271 0.0336
v -0.04911 -0.05687 0.01551
f 1 2 3
f 4 6 7
f 6 5 8
f 4 5 9
f 5 6 9
f 6 4 9
f 10 1 11
f 12 6 13
f 7 12 3
f 12 11 3
f 4 7 14
f 6 12 7
f 4 10 5
f 10 8 5
f 10 11 13
f 8 10 13
f 10 4 1
f 13 6 8
f 2 1 14
f 1 4 14
f 7 3 2
f 14 7 2
f 13 11 12
f 11 1 3
