# Created by Open3D 
# object name: convex_9_coll
# number of vertices: 14
# number of triangles: 24
v 0.001285 -0.019385 -0.08013
v -0.00647 0.01809 -0.08013
v 0.01551 0.01809 -0.04653
v 0.01551 0.016795 -0.076255
v 0.01551 -0.03877 -0.07496
v -0.0491 0.01809 -0.05945
v 0.01551 -0.03877 -0.05945
v -0.0491 -0.03877 -0.05945
v -0.01294 0.01809 -0.04653
v -0.033595 -0.03877 -0.073665
v -0.0491 0.01809 -0.06979
v -0.05687 -0 -0.05945
v -1.00001e-05 -0.01034 -0.04653
v -0.0251925 -0.0064625 -0.08013
f 4 3 5
f 6 3 2
f 5 3 7
f 8 5 7
f 5 8 10
f 6 2 11
f 9 6 12
f 8 7 13
f 3 9 13
f 14 2 1
f 3 6 9
f 8 13 9
f 5 10 1
f 10 14 1
f 12 11 8
f 7 3 13
f 2 3 4
f 1 4 5
f 2 14 11
f 10 8 11
f 14 10 11
f 12 6 11
f 12 8 9
f 4 1 2
