# Created by Open3D 
# object name: convex_10_coll
# number of vertices: 14
# number of triangles: 24
v 0.01551 -0.04395 -0.04653
v -0.0626725 -0.0265025 -0.04135
v 0.01551 -0.08271 0.01551
v 0.01551 -0.02068 0.01292
v 0.01551 -0.08271 -0.04653
v -0.0491 -0.07237 0.01551
v -0.03617 -0.08271 0.01551
v -0.065905 -0.02068 -0.034895
v -0.06203 -0.02068 0.01292
v -0.01035 -0.02068 -0.03618
v -0.02326 -0.081415 -0.04653
v -0.0491 -0.07237 -0.04653
v -0.06461 -0.04912 -0.03618
v -0.06332 -0.04395 0.01034
f 3 1 4
f 1 3 5
f 3 6 7
f 4 8 9
f 8 4 10
f 5 3 11
f 5 12 1
f 11 3 7
f 6 4 9
f 1 12 2
f 12 5 11
f 1 10 4
f 4 6 3
f 13 14 9
f 8 13 9
f 6 14 13
f 12 13 2
f 7 6 12
f 8 2 13
f 6 9 14
f 6 13 12
f 7 12 11
f 8 10 2
f 10 1 2
