# Created by Open3D 
# object name: convex_1_coll
# number of vertices: 14
# number of triangles: 24
v -0.0639725 0.032965 0.069145
v -0.05428 0.07237 0.07237
v -0.058155 0.065905 0.05687
v 0.042645 0.02456 0.05687
v 0.0491 0.07237 0.05687
v 0.05687 0.0181 0.06721
v 0.02455 0.0181 0.07754
v -0.04781 0.0181 0.06979
v -0.032305 0.077535 0.05687
v -0.058155 0.042655 0.05687
v -0.0523375 0.052985 0.07625
v 0.0013 0.07753 0.08013
v 0.00258 0.08271 0.07754
v 0.052975 0.062025 0.07496
f 1 2 3
f 4 3 5
f 6 7 8
f 5 3 9
f 3 4 10
f 11 12 2
f 8 7 11
f 8 10 4
f 7 6 14
f 2 9 3
f 6 5 14
f 13 9 2
f 1 3 10
f 2 1 11
f 7 14 12
f 8 11 1
f 6 4 5
f 9 13 5
f 7 12 11
f 12 13 2
f 12 14 13
f 8 4 6
f 1 10 8
f 14 5 13
