# Created by Open3D 
# object name: convex_4_coll
# number of vertices: 14
# number of triangles: 24
v 0.03618 -0.07754 -0.02842
v 0.04653 -0.04912 -0.01811
v 0.01551 -0.08271 -0.04394
v 0.01551 -0.04912 0.01292
v 0.01551 -0.08142 0.029715
v 0.01551 -0.04912 -0.07496
v 0.03877 -0.04912 0.01808
v 0.02843 -0.08271 0.01808
v 0.031015 -0.05752 -0.06849
v 0.0193875 -0.073665 -0.06914
v 0.04653 -0.04912 0.01034
v 0.0335975 -0.0743125 0.03166
v 0.03877 -0.07754 0.00775
v 0.018095 -0.07237 0.03489
f 4 3 5
f 3 4 6
f 6 4 2
f 2 4 7
f 3 8 5
f 3 6 10
f 1 9 2
f 13 11 12
f 8 13 12
f 8 3 13
f 11 13 2
f 13 1 2
f 4 5 14
f 2 7 11
f 7 12 11
f 14 5 12
f 5 8 12
f 3 10 1
f 13 3 1
f 6 2 9
f 14 7 4
f 1 10 9
f 9 10 6
f 14 12 7
