# Created by Open3D 
# object name: convex_8_coll
# number of vertices: 14
# number of triangles: 24
v -0.03877 -0.06591 -0.06979
v -0.0200275 -0.0704325 -0.07367
v 0.01551 -0.04653 -0.04653
v 0.01551 -0.03877 -0.05945
v -0.04653 -0.03877 -0.05945
v 0.01551 -0.07496 -0.07238
v -0.03618 -0.0390938 -0.0720512
v 0.01292 -0.08142 -0.04653
v -0.04653 -0.04912 -0.04653
v 0.01551 -0.03877 -0.07496
v -0.046525 -0.072375 -0.04653
v -0.03359 -0.078835 -0.04911
v -0.04911 -0.06462 -0.06204
v -0.0239125 -0.07625 -0.0659125
f 3 4 5
f 4 3 6
f 5 4 7
f 8 3 9
f 4 6 10
f 7 4 10
f 8 9 11
f 7 10 2
f 3 5 9
f 6 3 8
f 8 11 12
f 2 10 6
f 13 1 14
f 13 9 5
f 9 13 11
f 14 1 2
f 12 14 8
f 14 6 8
f 5 7 13
f 7 1 13
f 2 6 14
f 13 14 11
f 11 14 12
f 1 7 2
