# Created by Open3D 
# object name: convex_6_coll
# number of vertices: 14
# number of triangles: 24
v 0.032305 -0.0491 -0.07108
v 0.0336 -0.043935 -0.05429
v 0.01551 0.01292 -0.07754
v 0.01551 -0.0491 -0.07496
v 0.01551 0.01809 -0.05687
v 0.016805 -0.0491 -0.052995
v 0.02068 0.00516 -0.0517
v 0.02585 0.01809 -0.05687
v 0.0336 0.01809 -0.07237
v 0.02843 -0.0491 -0.0517
v 0.01551 0.01809 -0.07496
v 0.03877 -1e-05 -0.06462
v 0.03877 -0.01809 -0.07237
v 0.03877 0.00258 -0.07237
f 3 4 5
f 6 4 1
f 5 4 6
f 5 7 8
f 9 5 8
f 7 6 10
f 6 1 10
f 3 5 11
f 5 9 11
f 12 13 14
f 12 14 9
f 4 3 13
f 3 14 13
f 4 13 1
f 12 7 2
f 7 10 2
f 12 2 13
f 2 1 13
f 6 7 5
f 9 14 3
f 11 9 3
f 7 12 8
f 12 9 8
f 10 1 2
