# Created by Open3D 
# object name: convex_11_coll
# number of vertices: 14
# number of triangles: 24
v 0.05944 -0.02068 -0.02067
v 0.052985 -0.04006 -0.02455
v 0.06204 -0.02068 0.03359
v 0.01551 -0.02068 -0.03876
v 0.01551 -0.02068 0.01292
v 0.03102 -0.04911 -0.0517
v 0.016805 -0.04911 0.014215
v 0.01551 -0.04911 -0.0517
v 0.0455538 -0.0478175 0.0148588
v 0.03102 -0.02068 -0.04653
v 0.04911 -0.04911 -0.0155
v 0.05944 -0.04135 0.00516
v 0.05815 -0.03619 0.029725
v 0.046525 -0.0239125 0.032955
f 3 4 5
f 4 3 1
f 6 7 8
f 7 5 8
f 7 6 9
f 8 5 4
f 4 1 10
f 9 6 11
f 1 3 12
f 13 3 14
f 1 12 2
f 12 3 13
f 9 12 13
f 3 5 14
f 5 7 14
f 4 10 8
f 10 6 8
f 10 1 6
f 9 13 7
f 13 14 7
f 11 6 2
f 9 11 12
f 11 2 12
f 2 6 1
