# Created by Open3D 
# object name: convex_14_coll
# number of vertices: 14
# number of triangles: 24
v 0.02584 0.07754 0.02326
v 0.04135 0.07236 0.02326
v 0.04394 0.02586 0.05686
v 0.01809 0.08013 0.05686
v -0.01551 0.06203 0.05686
v -0.01551 0.07754 0.02326
v -0.01551 0.0336 0.03361
v 0.04652 0.01809 0.02326
v 0.04911 0.07236 0.05686
v 0.0336 0.02069 0.05686
v -0.01551 0.07754 0.05686
v -0.01551 0.05687 0.02326
v 0.02584 0.01809 0.02326
v -0.01292 0.03103 0.03878
f 3 4 5
f 6 7 5
f 6 2 8
f 4 3 9
f 3 5 10
f 5 4 11
f 6 5 11
f 7 6 12
f 6 8 12
f 12 8 13
f 13 8 10
f 10 8 3
f 5 7 14
f 2 6 1
f 7 12 13
f 8 9 3
f 10 14 13
f 6 11 4
f 1 6 4
f 13 14 7
f 10 5 14
f 2 9 8
f 4 9 1
f 1 9 2
