# Created by Open3D 
# object name: convex_13_coll
# number of vertices: 14
# number of triangles: 24
v -0.01551 0.05686 0.02326
v -0.0523375 0.0368375 0.0316675
v -0.05428 0.05428 0.02326
v -0.01551 0.07754 0.02326
v -0.01551 0.07754 0.05686
v -0.01551 0.03619 0.04135
v -0.05686 0.06979 0.05686
v -0.058155 0.04524 0.05686
v -0.01551 0.06203 0.05686
v -0.043945 0.07625 0.05686
v -0.01551 0.03619 0.03361
v -0.047815 0.073665 0.02326
v -0.05169 0.0336 0.03878
v -0.06204 0.046535 0.03878
f 1 2 3
f 4 5 6
f 5 7 8
f 4 6 1
f 3 4 1
f 6 5 9
f 5 8 9
f 5 4 10
f 7 5 10
f 1 6 11
f 1 11 2
f 4 3 12
f 6 9 8
f 10 12 7
f 12 10 4
f 2 13 8
f 11 6 13
f 2 11 13
f 2 8 14
f 14 8 7
f 12 3 7
f 3 14 7
f 6 8 13
f 2 14 3
