# Created by Open3D 
# object name: convex_12_coll
# number of vertices: 14
# number of triangles: 24
v 0.0504 0.01809 4.99981e-06
v 0.05944 0.003875 -0.029715
v 0.060735 -0.02068 -0.02067
v 0.01551 -0.02068 0.01291
v 0.01551 -0.02068 -0.03877
v 0.01551 0.01809 -0.04652
v 0.01551 0.01809 0.01809
v 0.02844 0.0174425 0.043945
v 0.0672 -1e-05 0.04911
v 0.04394 0.01809 0.04653
v 0.03361 -0.02068 -0.04394
v 0.060735 -0.01163 -0.029715
v 0.0672 -0.010335 0.046525
v 0.01939 0 -0.0517
f 3 4 5
f 6 4 7
f 8 1 7
f 1 8 10
f 7 1 6
f 4 6 5
f 3 5 11
f 3 11 12
f 11 5 14
f 5 6 14
f 8 4 13
f 12 13 3
f 7 4 8
f 14 2 12
f 11 14 12
f 1 2 6
f 4 3 13
f 2 9 12
f 9 13 12
f 10 9 1
f 9 2 1
f 9 10 8
f 13 9 8
f 2 14 6
