# Created by Open3D 
# object name: convex_7_coll
# number of vertices: 14
# number of triangles: 24
v 0.02842 0.064615 -0.031015
v 0.04134 0.07237 0.021965
v -0.05557 0.067195 0.02326
v 0.04652 0.0181 0.02326
v -0.04652 0.0181 0.01292
v -0.0155 0.0181 -0.04653
v -0.02326 0.06978 -0.04653
v 0.00257 0.06978 -0.04653
v -0.05428 0.045235 0.020675
v 0.04652 0.0181 -0.01034
v -0.03618 0.0672 -0.0336
v -0.002585 0.0768925 0.0206737
v 0.03101 0.0181 -0.04136
v -0.05687 0.03878 0.00774
f 2 3 4
f 5 6 4
f 7 8 6
f 4 3 9
f 4 6 10
f 12 8 7
f 10 6 13
f 6 8 13
f 3 2 12
f 9 5 4
f 14 6 5
f 9 14 5
f 2 4 10
f 7 6 11
f 6 14 11
f 11 14 3
f 14 9 3
f 13 1 10
f 1 2 10
f 3 12 7
f 12 2 8
f 1 8 2
f 7 11 3
f 1 13 8
