# Created by Open3D 
# object name: convex_15_coll
# number of vertices: 14
# number of triangles: 24
v -0.05945 0.00258 -0.04136
v -0.05816 -0.02068 -0.040065
v -0.06721 -0.02068 -1e-05
v -0.06462 -0.02068 -0.04136
v -0.0517 -0.02068 0.01292
v -0.0517 -0.02068 -0.01809
v -0.0517 -0.00258 0.01292
v -0.06462 0.01809 -0.03618
v -0.06203 -0.02068 0.01292
v -0.06721 0.005165 -0.02843
v -0.063325 0.016795 -0.0168
v -0.05945 0.01809 -0.03101
v -0.06462 0.00517 0.00516
v -0.063325 -0.001295 0.011625
f 3 4 5
f 5 6 7
f 5 4 2
f 4 8 1
f 3 5 9
f 5 7 9
f 3 10 4
f 11 12 8
f 10 11 8
f 1 8 12
f 8 4 10
f 10 3 13
f 3 14 13
f 7 12 11
f 13 7 11
f 6 2 1
f 12 6 1
f 5 2 6
f 11 10 13
f 9 7 14
f 7 13 14
f 6 12 7
f 14 3 9
f 4 1 2
