# Created by Open3D 
# object name: convex_17_coll
# number of vertices: 14
# number of triangles: 24
v 0.01551 0.01292 -0
v 0.01551 0.01809 -0
v 0.01551 0.01809 0.01551
v 0.01551 -0.02068 0.01292
v -0.04652 0.01809 0.01292
v -0.05168 -0.02068 0.01292
v -0.00518 -0.02068 0.00517
v -0.05168 -0.00258 0.00517
v -0.05168 -0.02068 0.00517
v -0.04652 0.01809 0.00517
v 0.01551 -0.02068 0.00775
v 0.01292 0.00517 0.01551
v -0.02325 0.01809 0.00259
v -0.05168 -1e-05 0.01292
f 2 3 4
f 3 2 5
f 4 6 7
f 6 8 9
f 7 6 9
f 5 2 10
f 2 4 11
f 4 7 11
f 4 3 12
f 6 4 12
f 7 9 1
f 9 8 13
f 8 10 13
f 10 2 13
f 1 9 13
f 2 1 13
f 8 6 14
f 10 8 14
f 5 10 14
f 6 12 3
f 5 14 3
f 14 6 3
f 2 11 1
f 11 7 1
