# Created by Open3D 
# object name: convex_16_coll
# number of vertices: 14
# number of triangles: 24
v -0.03618 0.01809 -0.00776
v -0.05168 -0.02068 -0.00776
v 0.01551 0.01809 -0.00259
v 0.01551 -0.01809 -0.02326
v 0.01551 0.01809 -0.04653
v -0.01552 0.01809 -0.04653
v 0.01551 -0.01809 -0.03877
v -0.012935 -0.007755 -0.04653
v -0.03101 -0.02068 -0.03618
v -0.01552 -0.02068 -0.00517
v 0.01551 0.00775 -0.00259
v 0.01551 -0.00775 -0.04653
v -0.0510375 -0.0122812 -0.0145488
v -0.01422 0.015505 -0
f 3 4 5
f 1 3 5
f 1 5 6
f 5 4 7
f 10 2 9
f 4 3 11
f 5 8 6
f 8 5 12
f 9 2 13
f 12 7 9
f 12 9 8
f 14 2 10
f 4 11 10
f 5 7 12
f 6 9 13
f 2 14 1
f 3 1 14
f 11 3 14
f 2 1 13
f 1 6 13
f 10 11 14
f 6 8 9
f 7 4 10
f 9 7 10
