# Created by Open3D 
# object name: convex_2_coll
# number of vertices: 14
# number of triangles: 24
v 0.02843 0.032315 -0.07237
v 0.00387 0.067195 -0.04653
v -0.01291 0.0181 -0.04653
v -0.02326 0.0181 -0.07754
v 0.0336 0.018745 -0.067205
v -0.047815 0.018745 -0.062035
v -0.02584 0.0672 -0.04653
v 0.01551 0.0181 -0.04653
v 0.02066 0.04394 -0.04653
v 0.019385 0.01939 -0.07625
v -0.03877 0.04394 -0.0672
v -0.01809 0.05428 -0.07237
v -0.04394 0.02068 -0.07237
v 0.00775 0.05428 -0.07237
f 3 4 5
f 4 3 6
f 3 2 7
f 2 3 8
f 3 5 8
f 2 8 9
f 11 12 13
f 9 5 1
f 5 4 10
f 13 4 6
f 7 2 12
f 10 4 1
f 4 12 14
f 1 4 14
f 2 1 14
f 12 11 7
f 8 5 9
f 9 1 2
f 2 14 12
f 6 3 7
f 13 12 4
f 5 10 1
f 11 13 6
f 6 7 11
