# Created by Open3D 
# object name: convex_0_coll
# number of vertices: 14
# number of triangles: 24
v 0.0167875 -0.068495 0.071725
v -0.02324 -0.07238 0.06462
v 0.019375 -0.06979 0.06462
v 0.05298 0.01809 0.076255
v 0.051685 0.01809 0.065915
v 0 0.01809 0.07755
v 0.06979 -0.00518 0.06462
v -0.0672 -0.01293 0.06462
v -0.04652 0.01809 0.06979
v -0.06979 -0.00517 0.07237
v 0.018075 -0.00906 0.07755
v -0.0672 -0.02587 0.07237
v -0.02324 -0.071085 0.07237
v 0.06718 -0.01553 0.07237
f 1 2 3
f 4 5 6
f 7 2 8
f 6 5 9
f 8 10 9
f 2 7 3
f 7 8 5
f 4 6 11
f 12 13 11
f 6 9 10
f 5 4 7
f 1 4 11
f 1 11 13
f 8 9 5
f 7 14 3
f 1 13 2
f 3 14 1
f 2 12 8
f 6 10 12
f 10 8 12
f 1 14 4
f 14 7 4
f 13 12 2
f 12 11 6
