# Original object name hint: convex_2
v 0.00508 -0.05902 0.02442
v -0.00103 -0.05902 -0.03256
v -0.00103 -0.05699 -0.03256
v -0.04376 -0.05292 0.02034
v -0.00915 -0.04681 0.02238
v 0.03765 -0.05699 0.00406
v -0.02543 -0.06513 0.02034
v 0.03357 -0.06513 0.01830
v -0.01729 -0.06309 -0.02442
v 0.03154 -0.05902 -0.02849
v -0.00712 -0.05292 -0.02849
v -0.04376 -0.05292 0.00406
v 0.01322 -0.05292 -0.02849
v -0.04172 -0.06106 0.00406
v 0.02746 -0.06309 -0.02442
v 0.03154 -0.05699 0.02238
v -0.02543 -0.04681 0.01627
v -0.02136 -0.05699 -0.02849
v -0.02341 -0.06309 0.02442
v -0.00306 -0.06513 0.00610
v 0.03560 -0.06106 -0.02239
v -0.04172 -0.06106 0.01830
v 0.03154 -0.05496 0.01627
v 0.02543 -0.05496 -0.02646
v -0.02543 -0.06106 -0.02442
v 0.03357 -0.06309 0.02238
v 0.03765 -0.06309 0.01830
v -0.02341 -0.04681 0.02238
v 0.00915 -0.06106 -0.03256
v -0.00915 -0.04681 0.01627
v -0.01934 -0.05496 -0.02849
v -0.01729 -0.06106 -0.03053
v 0.00710 -0.05292 -0.03053
v 0.03357 -0.05699 -0.02442
v -0.02543 -0.05699 0.02442
v -0.04376 -0.05902 0.00406
v -0.03562 -0.06309 0.00813
v -0.00306 -0.06513 0.02238
v 0.03765 -0.05699 0.01627
v 0.03154 -0.05496 0.00813
v 0.03357 -0.06513 0.01423
v 0.00508 -0.06309 -0.02646
v -0.04376 -0.05699 0.02034
v 0.00304 -0.05496 -0.03256
v -0.02543 -0.06513 0.01627
v -0.02136 -0.06309 -0.02035
v -0.02136 -0.04681 0.01423
v 0.03154 -0.06106 -0.02849
v -0.00915 -0.05496 0.02442
v -0.03969 -0.05089 0.01627
v 0.01729 -0.05496 -0.03053
v -0.00508 -0.06309 0.02442
v -0.02543 -0.05699 -0.02442
v 0.03765 -0.06309 0.01017
v 0.02136 -0.05292 0.00610
v -0.01323 -0.05496 -0.03053
v -0.00103 -0.05292 -0.03053
v 0.01525 -0.05292 -0.02442
v -0.02341 -0.06513 0.02238
v -0.03969 -0.06106 0.02034
v -0.01323 -0.04681 0.01423
v 0.02950 -0.06309 -0.02239
v 0.03154 -0.06513 0.01220
v 0.02950 -0.06513 0.02034
v 0.03967 0.01015 0.02442
v -0.05189 0.00816 0.02238
v -0.04985 -0.00813 0.02035
v 0.00711 0.05698 0.01424
v -0.00915 -0.04681 0.01628
v -0.02340 -0.04681 0.02238
v -0.01933 0.04070 0.02442
v 0.03356 -0.02034 0.01831
v -0.00307 0.06513 0.02035
v -0.04985 -0.00813 0.02442
v 0.02949 -0.01831 0.02442
v -0.02340 -0.04681 0.01628
v -0.04985 0.01831 0.02035
v -0.02950 0.00001 0.01628
v 0.02746 0.03256 0.02442
v 0.03356 0.01831 0.01831
v 0.02339 -0.01425 0.01628
v -0.00307 0.05087 0.01424
v -0.05189 0.01627 0.02442
v -0.00915 -0.04681 0.02238
v -0.00712 0.06309 0.01831
v 0.03967 0.01831 0.02238
v 0.00507 0.06513 0.02035
v -0.02136 -0.02442 0.02442
v -0.04578 -0.01017 0.01831
v 0.01118 0.04476 0.02442
v 0.00711 0.04476 0.01424
v 0.02542 0.02033 0.01628
v 0.03356 -0.02034 0.02035
v 0.00507 0.06513 0.01831
v -0.02950 0.03663 0.02442
v 0.03559 0.02441 0.02442
v 0.03763 -0.00407 0.02442
v 0.00100 0.05698 0.01424
v -0.02950 -0.01425 0.01628
v -0.00712 0.06309 0.02035
v -0.04782 -0.01220 0.02035
v -0.02747 0.01220 0.01628
v -0.00510 -0.02442 0.02442
v 0.03153 0.02441 0.01831
v 0.00100 0.04476 0.02442
v 0.03967 0.01015 0.02238
v 0.02542 0.00407 0.01628
v -0.01933 0.04884 0.01831
v -0.04578 -0.01220 0.01831
v -0.00103 0.04476 0.01424
v 0.03356 -0.01425 0.02442
v -0.00307 0.06513 0.01831
v 0.01525 0.04273 0.02442
v 0.03967 0.01831 0.02442
v 0.02339 -0.02034 0.02442
v -0.04782 -0.01220 0.02238
v -0.04782 -0.01017 0.02442
v 0.03763 -0.00407 0.02238
v -0.05189 0.01627 0.02238
v 0.03559 0.02441 0.02238
v -0.05189 0.00816 0.02442
v -0.00307 0.04884 0.01424
v -0.01933 -0.01627 0.02442
v 0.01321 0.04070 0.02645
v 0.01526 0.03460 0.03052
v 0.05189 0.01221 0.02645
v 0.01932 -0.00203 0.03256
v -0.04376 0.01018 0.02645
v 0.03154 -0.01425 0.02442
v 0.00507 0.04070 0.02442
v 0.05189 0.01830 0.03052
v 0.03967 -0.01221 0.03052
v -0.00102 -0.00203 0.03256
v 0.00306 0.02646 0.03256
v -0.02748 0.03052 0.02442
v 0.04578 0.01830 0.02442
v -0.01933 -0.01627 0.02645
v 0.03967 0.01424 0.03256
v -0.02341 0.03255 0.02645
v -0.04376 0.00408 0.02442
v -0.04172 0.00000 0.02645
v 0.00915 -0.01832 0.02645
v 0.02135 0.03663 0.02442
v 0.01729 0.02849 0.03256
v -0.00305 0.01627 0.03256
v 0.00101 -0.01017 0.03052
v 0.05189 0.01830 0.02645
v 0.03967 -0.01017 0.02645
v 0.00915 0.03460 0.03052
v 0.05189 0.01221 0.03052
v -0.02951 0.02849 0.02645
v 0.00507 0.04070 0.02645
v 0.02746 -0.01627 0.02442
v -0.02748 -0.01221 0.02645
v -0.00712 -0.01832 0.02645
v 0.03967 0.01018 0.03256
v 0.00915 -0.01832 0.02442
v 0.03967 -0.00203 0.02442
v -0.04376 0.01018 0.02442
v -0.03969 -0.00203 0.02442
v -0.00102 0.02238 0.03256
v -0.00305 0.00408 0.03256
v 0.02135 0.03255 0.03052
v -0.04376 0.00408 0.02645
v 0.03967 -0.01221 0.02849
v 0.02746 -0.01627 0.02645
v 0.04578 0.01221 0.02442
v -0.02748 -0.01221 0.02442
v -0.00712 -0.01832 0.02442
v 0.01321 0.04070 0.02442
v -0.02341 0.03255 0.02442
v 0.02135 0.03663 0.02645
v -0.00508 -0.00814 0.03052
v 0.00306 0.03255 0.03052
v -0.02748 0.03052 0.02645
v 0.00915 0.02849 0.03256
v -0.03969 -0.00203 0.02645
f 160 154 177 
f 129 123 130 
f 132 127 133 
f 133 127 134 
f 130 123 135 
f 129 130 136 
f 134 127 138 
f 135 123 140 
f 136 130 143 
f 138 131 144 
f 134 138 144 
f 133 134 145 
f 132 133 146 
f 131 126 147 
f 126 136 147 
f 143 131 147 
f 136 143 147 
f 125 124 149 
f 144 125 149 
f 126 131 150 
f 132 126 150 
f 131 138 150 
f 124 130 152 
f 130 139 152 
f 149 124 152 
f 139 149 152 
f 123 129 153 
f 123 137 154 
f 137 123 155 
f 142 132 155 
f 132 146 155 
f 146 137 155 
f 127 132 156 
f 138 127 156 
f 132 150 156 
f 150 138 156 
f 123 153 157 
f 153 142 157 
f 142 155 157 
f 129 136 158 
f 126 148 158 
f 148 129 158 
f 135 140 159 
f 140 128 159 
f 128 151 159 
f 151 135 159 
f 140 123 160 
f 141 140 160 
f 128 145 161 
f 145 134 161 
f 151 128 161 
f 145 128 162 
f 133 145 162 
f 124 125 163 
f 131 124 163 
f 125 144 163 
f 144 131 163 
f 128 140 164 
f 141 133 164 
f 140 141 164 
f 162 128 164 
f 133 162 164 
f 126 132 165 
f 148 126 165 
f 129 148 165 
f 153 129 165 
f 132 153 165 
f 132 142 166 
f 153 132 166 
f 142 153 166 
f 136 126 167 
f 126 158 167 
f 158 136 167 
f 123 154 168 
f 160 123 168 
f 154 160 168 
f 155 123 169 
f 123 157 169 
f 157 155 169 
f 130 124 170 
f 124 143 170 
f 143 130 170 
f 130 135 171 
f 139 130 171 
f 135 139 171 
f 124 131 172 
f 143 124 172 
f 131 143 172 
f 146 133 173 
f 137 146 173 
f 154 137 173 
f 133 154 173 
f 139 134 174 
f 149 139 174 
f 134 149 174 
f 134 139 175 
f 139 135 175 
f 135 151 175 
f 161 134 175 
f 151 161 175 
f 134 144 176 
f 149 134 176 
f 144 149 176 
f 133 141 177 
f 154 133 177 
f 141 160 177 
