# Original object name hint: convex_1
v 0.00508 -0.05902 0.02442
v -0.00103 -0.05902 -0.03256
v -0.00103 -0.05699 -0.03256
v -0.04376 -0.05292 0.02034
v -0.00915 -0.04681 0.02238
v 0.03765 -0.05699 0.00406
v -0.02543 -0.06513 0.02034
v 0.03357 -0.06513 0.01830
v -0.01729 -0.06309 -0.02442
v 0.03154 -0.05902 -0.02849
v -0.00712 -0.05292 -0.02849
v -0.04376 -0.05292 0.00406
v 0.01322 -0.05292 -0.02849
v -0.04172 -0.06106 0.00406
v 0.02746 -0.06309 -0.02442
v 0.03154 -0.05699 0.02238
v -0.02543 -0.04681 0.01627
v -0.02136 -0.05699 -0.02849
v -0.02341 -0.06309 0.02442
v -0.00306 -0.06513 0.00610
v 0.03560 -0.06106 -0.02239
v -0.04172 -0.06106 0.01830
v 0.03154 -0.05496 0.01627
v 0.02543 -0.05496 -0.02646
v -0.02543 -0.06106 -0.02442
v 0.03357 -0.06309 0.02238
v 0.03765 -0.06309 0.01830
v -0.02341 -0.04681 0.02238
v 0.00915 -0.06106 -0.03256
v -0.00915 -0.04681 0.01627
v -0.01934 -0.05496 -0.02849
v -0.01729 -0.06106 -0.03053
v 0.00710 -0.05292 -0.03053
v 0.03357 -0.05699 -0.02442
v -0.02543 -0.05699 0.02442
v -0.04376 -0.05902 0.00406
v -0.03562 -0.06309 0.00813
v -0.00306 -0.06513 0.02238
v 0.03765 -0.05699 0.01627
v 0.03154 -0.05496 0.00813
v 0.03357 -0.06513 0.01423
v 0.00508 -0.06309 -0.02646
v -0.04376 -0.05699 0.02034
v 0.00304 -0.05496 -0.03256
v -0.02543 -0.06513 0.01627
v -0.02136 -0.06309 -0.02035
v -0.02136 -0.04681 0.01423
v 0.03154 -0.06106 -0.02849
v -0.00915 -0.05496 0.02442
v -0.03969 -0.05089 0.01627
v 0.01729 -0.05496 -0.03053
v -0.00508 -0.06309 0.02442
v -0.02543 -0.05699 -0.02442
v 0.03765 -0.06309 0.01017
v 0.02136 -0.05292 0.00610
v -0.01323 -0.05496 -0.03053
v -0.00103 -0.05292 -0.03053
v 0.01525 -0.05292 -0.02442
v -0.02341 -0.06513 0.02238
v -0.03969 -0.06106 0.02034
v -0.01323 -0.04681 0.01423
v 0.02950 -0.06309 -0.02239
v 0.03154 -0.06513 0.01220
v 0.02950 -0.06513 0.02034
v 0.03967 0.01015 0.02442
v -0.05189 0.00816 0.02238
v -0.04985 -0.00813 0.02035
v 0.00711 0.05698 0.01424
v -0.00915 -0.04681 0.01628
v -0.02340 -0.04681 0.02238
v -0.01933 0.04070 0.02442
v 0.03356 -0.02034 0.01831
v -0.00307 0.06513 0.02035
v -0.04985 -0.00813 0.02442
v 0.02949 -0.01831 0.02442
v -0.02340 -0.04681 0.01628
v -0.04985 0.01831 0.02035
v -0.02950 0.00001 0.01628
v 0.02746 0.03256 0.02442
v 0.03356 0.01831 0.01831
v 0.02339 -0.01425 0.01628
v -0.00307 0.05087 0.01424
v -0.05189 0.01627 0.02442
v -0.00915 -0.04681 0.02238
v -0.00712 0.06309 0.01831
v 0.03967 0.01831 0.02238
v 0.00507 0.06513 0.02035
v -0.02136 -0.02442 0.02442
v -0.04578 -0.01017 0.01831
v 0.01118 0.04476 0.02442
v 0.00711 0.04476 0.01424
v 0.02542 0.02033 0.01628
v 0.03356 -0.02034 0.02035
v 0.00507 0.06513 0.01831
v -0.02950 0.03663 0.02442
v 0.03559 0.02441 0.02442
v 0.03763 -0.00407 0.02442
v 0.00100 0.05698 0.01424
v -0.02950 -0.01425 0.01628
v -0.00712 0.06309 0.02035
v -0.04782 -0.01220 0.02035
v -0.02747 0.01220 0.01628
v -0.00510 -0.02442 0.02442
v 0.03153 0.02441 0.01831
v 0.00100 0.04476 0.02442
v 0.03967 0.01015 0.02238
v 0.02542 0.00407 0.01628
v -0.01933 0.04884 0.01831
v -0.04578 -0.01220 0.01831
v -0.00103 0.04476 0.01424
v 0.03356 -0.01425 0.02442
v -0.00307 0.06513 0.01831
v 0.01525 0.04273 0.02442
v 0.03967 0.01831 0.02442
v 0.02339 -0.02034 0.02442
v -0.04782 -0.01220 0.02238
v -0.04782 -0.01017 0.02442
v 0.03763 -0.00407 0.02238
v -0.05189 0.01627 0.02238
v 0.03559 0.02441 0.02238
v -0.05189 0.00816 0.02442
v -0.00307 0.04884 0.01424
v -0.01933 -0.01627 0.02442
v 0.01321 0.04070 0.02645
v 0.01526 0.03460 0.03052
v 0.05189 0.01221 0.02645
v 0.01932 -0.00203 0.03256
v -0.04376 0.01018 0.02645
v 0.03154 -0.01425 0.02442
v 0.00507 0.04070 0.02442
v 0.05189 0.01830 0.03052
v 0.03967 -0.01221 0.03052
v -0.00102 -0.00203 0.03256
v 0.00306 0.02646 0.03256
v -0.02748 0.03052 0.02442
v 0.04578 0.01830 0.02442
v -0.01933 -0.01627 0.02645
v 0.03967 0.01424 0.03256
v -0.02341 0.03255 0.02645
v -0.04376 0.00408 0.02442
v -0.04172 0.00000 0.02645
v 0.00915 -0.01832 0.02645
v 0.02135 0.03663 0.02442
v 0.01729 0.02849 0.03256
v -0.00305 0.01627 0.03256
v 0.00101 -0.01017 0.03052
v 0.05189 0.01830 0.02645
v 0.03967 -0.01017 0.02645
v 0.00915 0.03460 0.03052
v 0.05189 0.01221 0.03052
v -0.02951 0.02849 0.02645
v 0.00507 0.04070 0.02645
v 0.02746 -0.01627 0.02442
v -0.02748 -0.01221 0.02645
v -0.00712 -0.01832 0.02645
v 0.03967 0.01018 0.03256
v 0.00915 -0.01832 0.02442
v 0.03967 -0.00203 0.02442
v -0.04376 0.01018 0.02442
v -0.03969 -0.00203 0.02442
v -0.00102 0.02238 0.03256
v -0.00305 0.00408 0.03256
v 0.02135 0.03255 0.03052
v -0.04376 0.00408 0.02645
v 0.03967 -0.01221 0.02849
v 0.02746 -0.01627 0.02645
v 0.04578 0.01221 0.02442
v -0.02748 -0.01221 0.02442
v -0.00712 -0.01832 0.02442
v 0.01321 0.04070 0.02442
v -0.02341 0.03255 0.02442
v 0.02135 0.03663 0.02645
v -0.00508 -0.00814 0.03052
v 0.00306 0.03255 0.03052
v -0.02748 0.03052 0.02645
v 0.00915 0.02849 0.03256
v -0.03969 -0.00203 0.02645
f 82 110 122 
f 66 67 74 
f 65 71 74 
f 65 74 75 
f 69 70 76 
f 67 66 77 
f 71 65 79 
f 72 69 81 
f 74 71 83 
f 70 69 84 
f 69 72 84 
f 72 80 86 
f 75 74 88 
f 70 84 88 
f 67 77 89 
f 71 79 90 
f 87 73 90 
f 69 76 91 
f 81 69 91 
f 82 68 91 
f 80 72 92 
f 68 80 92 
f 91 68 92 
f 84 72 93 
f 75 84 93 
f 86 68 94 
f 73 87 94 
f 71 73 95 
f 83 71 95 
f 79 65 96 
f 87 79 96 
f 94 87 96 
f 65 75 97 
f 93 72 97 
f 68 82 98 
f 82 77 98 
f 94 68 98 
f 78 82 99 
f 89 78 99 
f 73 85 100 
f 85 83 100 
f 95 73 100 
f 83 95 100 
f 74 67 101 
f 76 70 101 
f 77 82 102 
f 82 78 102 
f 89 77 102 
f 78 89 102 
f 75 88 103 
f 88 84 103 
f 80 68 104 
f 68 86 104 
f 86 80 104 
f 73 71 105 
f 71 90 105 
f 90 73 105 
f 86 65 106 
f 72 86 106 
f 65 97 106 
f 72 81 107 
f 81 91 107 
f 92 72 107 
f 91 92 107 
f 77 85 108 
f 98 77 108 
f 85 98 108 
f 67 89 109 
f 99 76 109 
f 89 99 109 
f 101 67 109 
f 76 101 109 
f 91 76 110 
f 82 91 110 
f 75 93 111 
f 97 75 111 
f 93 97 111 
f 85 73 112 
f 73 94 112 
f 98 85 112 
f 94 98 112 
f 79 87 113 
f 90 79 113 
f 87 90 113 
f 65 86 114 
f 96 65 114 
f 86 96 114 
f 84 75 115 
f 75 103 115 
f 103 84 115 
f 70 74 116 
f 74 101 116 
f 101 70 116 
f 74 70 117 
f 70 88 117 
f 88 74 117 
f 97 72 118 
f 72 106 118 
f 106 97 118 
f 77 66 119 
f 66 83 119 
f 85 77 119 
f 83 85 119 
f 86 94 120 
f 96 86 120 
f 94 96 120 
f 66 74 121 
f 83 66 121 
f 74 83 121 
f 76 99 122 
f 99 82 122 
f 110 76 122 
