# Original object name hint: convex_0
v 0.00508 -0.05902 0.02442
v -0.00103 -0.05902 -0.03256
v -0.00103 -0.05699 -0.03256
v -0.04376 -0.05292 0.02034
v -0.00915 -0.04681 0.02238
v 0.03765 -0.05699 0.00406
v -0.02543 -0.06513 0.02034
v 0.03357 -0.06513 0.01830
v -0.01729 -0.06309 -0.02442
v 0.03154 -0.05902 -0.02849
v -0.00712 -0.05292 -0.02849
v -0.04376 -0.05292 0.00406
v 0.01322 -0.05292 -0.02849
v -0.04172 -0.06106 0.00406
v 0.02746 -0.06309 -0.02442
v 0.03154 -0.05699 0.02238
v -0.02543 -0.04681 0.01627
v -0.02136 -0.05699 -0.02849
v -0.02341 -0.06309 0.02442
v -0.00306 -0.06513 0.00610
v 0.03560 -0.06106 -0.02239
v -0.04172 -0.06106 0.01830
v 0.03154 -0.05496 0.01627
v 0.02543 -0.05496 -0.02646
v -0.02543 -0.06106 -0.02442
v 0.03357 -0.06309 0.02238
v 0.03765 -0.06309 0.01830
v -0.02341 -0.04681 0.02238
v 0.00915 -0.06106 -0.03256
v -0.00915 -0.04681 0.01627
v -0.01934 -0.05496 -0.02849
v -0.01729 -0.06106 -0.03053
v 0.00710 -0.05292 -0.03053
v 0.03357 -0.05699 -0.02442
v -0.02543 -0.05699 0.02442
v -0.04376 -0.05902 0.00406
v -0.03562 -0.06309 0.00813
v -0.00306 -0.06513 0.02238
v 0.03765 -0.05699 0.01627
v 0.03154 -0.05496 0.00813
v 0.03357 -0.06513 0.01423
v 0.00508 -0.06309 -0.02646
v -0.04376 -0.05699 0.02034
v 0.00304 -0.05496 -0.03256
v -0.02543 -0.06513 0.01627
v -0.02136 -0.06309 -0.02035
v -0.02136 -0.04681 0.01423
v 0.03154 -0.06106 -0.02849
v -0.00915 -0.05496 0.02442
v -0.03969 -0.05089 0.01627
v 0.01729 -0.05496 -0.03053
v -0.00508 -0.06309 0.02442
v -0.02543 -0.05699 -0.02442
v 0.03765 -0.06309 0.01017
v 0.02136 -0.05292 0.00610
v -0.01323 -0.05496 -0.03053
v -0.00103 -0.05292 -0.03053
v 0.01525 -0.05292 -0.02442
v -0.02341 -0.06513 0.02238
v -0.03969 -0.06106 0.02034
v -0.01323 -0.04681 0.01423
v 0.02950 -0.06309 -0.02239
v 0.03154 -0.06513 0.01220
v 0.02950 -0.06513 0.02034
v 0.03967 0.01015 0.02442
v -0.05189 0.00816 0.02238
v -0.04985 -0.00813 0.02035
v 0.00711 0.05698 0.01424
v -0.00915 -0.04681 0.01628
v -0.02340 -0.04681 0.02238
v -0.01933 0.04070 0.02442
v 0.03356 -0.02034 0.01831
v -0.00307 0.06513 0.02035
v -0.04985 -0.00813 0.02442
v 0.02949 -0.01831 0.02442
v -0.02340 -0.04681 0.01628
v -0.04985 0.01831 0.02035
v -0.02950 0.00001 0.01628
v 0.02746 0.03256 0.02442
v 0.03356 0.01831 0.01831
v 0.02339 -0.01425 0.01628
v -0.00307 0.05087 0.01424
v -0.05189 0.01627 0.02442
v -0.00915 -0.04681 0.02238
v -0.00712 0.06309 0.01831
v 0.03967 0.01831 0.02238
v 0.00507 0.06513 0.02035
v -0.02136 -0.02442 0.02442
v -0.04578 -0.01017 0.01831
v 0.01118 0.04476 0.02442
v 0.00711 0.04476 0.01424
v 0.02542 0.02033 0.01628
v 0.03356 -0.02034 0.02035
v 0.00507 0.06513 0.01831
v -0.02950 0.03663 0.02442
v 0.03559 0.02441 0.02442
v 0.03763 -0.00407 0.02442
v 0.00100 0.05698 0.01424
v -0.02950 -0.01425 0.01628
v -0.00712 0.06309 0.02035
v -0.04782 -0.01220 0.02035
v -0.02747 0.01220 0.01628
v -0.00510 -0.02442 0.02442
v 0.03153 0.02441 0.01831
v 0.00100 0.04476 0.02442
v 0.03967 0.01015 0.02238
v 0.02542 0.00407 0.01628
v -0.01933 0.04884 0.01831
v -0.04578 -0.01220 0.01831
v -0.00103 0.04476 0.01424
v 0.03356 -0.01425 0.02442
v -0.00307 0.06513 0.01831
v 0.01525 0.04273 0.02442
v 0.03967 0.01831 0.02442
v 0.02339 -0.02034 0.02442
v -0.04782 -0.01220 0.02238
v -0.04782 -0.01017 0.02442
v 0.03763 -0.00407 0.02238
v -0.05189 0.01627 0.02238
v 0.03559 0.02441 0.02238
v -0.05189 0.00816 0.02442
v -0.00307 0.04884 0.01424
v -0.01933 -0.01627 0.02442
v 0.01321 0.04070 0.02645
v 0.01526 0.03460 0.03052
v 0.05189 0.01221 0.02645
v 0.01932 -0.00203 0.03256
v -0.04376 0.01018 0.02645
v 0.03154 -0.01425 0.02442
v 0.00507 0.04070 0.02442
v 0.05189 0.01830 0.03052
v 0.03967 -0.01221 0.03052
v -0.00102 -0.00203 0.03256
v 0.00306 0.02646 0.03256
v -0.02748 0.03052 0.02442
v 0.04578 0.01830 0.02442
v -0.01933 -0.01627 0.02645
v 0.03967 0.01424 0.03256
v -0.02341 0.03255 0.02645
v -0.04376 0.00408 0.02442
v -0.04172 0.00000 0.02645
v 0.00915 -0.01832 0.02645
v 0.02135 0.03663 0.02442
v 0.01729 0.02849 0.03256
v -0.00305 0.01627 0.03256
v 0.00101 -0.01017 0.03052
v 0.05189 0.01830 0.02645
v 0.03967 -0.01017 0.02645
v 0.00915 0.03460 0.03052
v 0.05189 0.01221 0.03052
v -0.02951 0.02849 0.02645
v 0.00507 0.04070 0.02645
v 0.02746 -0.01627 0.02442
v -0.02748 -0.01221 0.02645
v -0.00712 -0.01832 0.02645
v 0.03967 0.01018 0.03256
v 0.00915 -0.01832 0.02442
v 0.03967 -0.00203 0.02442
v -0.04376 0.01018 0.02442
v -0.03969 -0.00203 0.02442
v -0.00102 0.02238 0.03256
v -0.00305 0.00408 0.03256
v 0.02135 0.03255 0.03052
v -0.04376 0.00408 0.02645
v 0.03967 -0.01221 0.02849
v 0.02746 -0.01627 0.02645
v 0.04578 0.01221 0.02442
v -0.02748 -0.01221 0.02442
v -0.00712 -0.01832 0.02442
v 0.01321 0.04070 0.02442
v -0.02341 0.03255 0.02442
v 0.02135 0.03663 0.02645
v -0.00508 -0.00814 0.03052
v 0.00306 0.03255 0.03052
v -0.02748 0.03052 0.02645
v 0.00915 0.02849 0.03256
v -0.03969 -0.00203 0.02645
f 26 38 64 
f 8 7 20 
f 5 16 23 
f 16 1 26 
f 26 8 27 
f 16 26 27 
f 5 17 28 
f 2 3 29 
f 17 5 30 
f 5 23 30 
f 12 17 31 
f 17 11 31 
f 3 2 32 
f 9 25 32 
f 25 18 32 
f 2 29 32 
f 6 21 34 
f 21 10 34 
f 10 24 34 
f 19 1 35 
f 28 4 35 
f 4 12 36 
f 14 22 36 
f 25 14 36 
f 12 25 36 
f 22 14 37 
f 7 22 37 
f 7 8 38 
f 6 23 39 
f 23 16 39 
f 27 6 39 
f 16 27 39 
f 23 6 40 
f 30 23 40 
f 6 34 40 
f 34 24 40 
f 8 20 41 
f 27 8 41 
f 20 9 42 
f 15 20 42 
f 29 15 42 
f 9 32 42 
f 32 29 42 
f 19 35 43 
f 35 4 43 
f 4 36 43 
f 36 22 43 
f 29 3 44 
f 20 7 45 
f 9 20 45 
f 7 37 45 
f 45 37 46 
f 25 9 46 
f 14 25 46 
f 37 14 46 
f 9 45 46 
f 11 17 47 
f 17 30 47 
f 10 21 48 
f 29 10 48 
f 15 29 48 
f 1 16 49 
f 16 5 49 
f 5 28 49 
f 35 1 49 
f 28 35 49 
f 12 4 50 
f 17 12 50 
f 4 28 50 
f 28 17 50 
f 24 10 51 
f 13 24 51 
f 10 29 51 
f 33 13 51 
f 29 44 51 
f 44 33 51 
f 1 19 52 
f 26 1 52 
f 19 38 52 
f 38 26 52 
f 25 12 53 
f 18 25 53 
f 12 31 53 
f 31 18 53 
f 21 6 54 
f 6 27 54 
f 41 21 54 
f 27 41 54 
f 30 40 55 
f 40 24 55 
f 18 31 56 
f 32 18 56 
f 3 32 56 
f 44 3 56 
f 44 56 57 
f 31 11 57 
f 33 44 57 
f 11 47 57 
f 47 33 57 
f 56 31 57 
f 24 13 58 
f 13 30 58 
f 55 24 58 
f 30 55 58 
f 22 7 59 
f 7 38 59 
f 38 19 59 
f 19 43 60 
f 43 22 60 
f 22 59 60 
f 59 19 60 
f 30 13 61 
f 13 33 61 
f 47 30 61 
f 33 47 61 
f 21 41 62 
f 48 21 62 
f 15 48 62 
f 20 15 63 
f 41 20 63 
f 15 62 63 
f 62 41 63 
f 8 26 64 
f 38 8 64 
