# Created by Open3D 
# object name: convex_4_coll
# number of vertices: 14
# number of triangles: 24
v -0.06891 -0.02297 -0.02871
v -0.06202 -0.01608 -0.031
v -0.05973 0.02296 0.01953
v -0.05973 -0.02297 0.01723
v -0.07351 -0.01148 0.01492
v -0.07236 0.044785 0.012625
v -0.07351 0.041345 -0.033305
v -0.06662 0.06432 -0.02871
v -0.07351 0.00231 -0.033305
v -0.070635 0.002885 0.01953
v -0.06432 0.04593 0.01492
v -0.06432 0.024125 -0.043645
v -0.068915 0.029855 -0.04479
v -0.068915 0.009195 -0.04479
f 5 6 7
f 5 7 9
f 3 11 6
f 3 12 8
f 9 1 5
f 2 4 1
f 14 13 12
f 3 10 4
f 9 7 13
f 9 14 1
f 11 3 8
f 7 6 8
f 6 5 10
f 3 6 10
f 9 13 14
f 8 12 13
f 1 14 2
f 12 2 14
f 2 12 3
f 4 2 3
f 8 6 11
f 1 4 5
f 8 13 7
f 4 10 5
