# Created by Open3D 
# object name: convex_6_coll
# number of vertices: 14
# number of triangles: 24
v 0.03446 0.024115 0.02527
v 0.03446 0.02756 0.02182
v 0.01148 0.03445 0.02412
v -0.00459 1e-05 0.02182
v 0.01148 0.03445 0.02182
v 0.03446 0.0023 0.02182
v 0.03446 0.00689 0.02642
v -0.00459 0.03216 0.02297
v 0.02067 -0.0023 0.02412
v 0.00919 0.01379 0.03101
v -0.00459 1e-05 0.02412
v -0.01263 0.022965 0.02412
v -0.01378 0.013785 0.02297
v 0.011485 0.02297 0.03101
f 1 2 3
f 4 5 6
f 6 1 7
f 6 5 2
f 1 6 2
f 5 4 8
f 9 10 11
f 9 11 4
f 8 4 13
f 4 6 9
f 7 1 14
f 12 13 10
f 13 11 10
f 4 11 13
f 12 10 14
f 8 12 14
f 12 8 13
f 5 8 3
f 8 14 3
f 9 7 10
f 7 14 10
f 7 9 6
f 14 1 3
f 2 5 3
