# Created by Open3D 
# object name: convex_3_coll
# number of vertices: 14
# number of triangles: 24
v -0.05053 -0.05169 -0.001145
v -0.04364 -0.05743 -0.01722
v -0.04593 -0.06202 0.01033
v -0.04364 -0.06202 -0.01722
v 0.02986 -0.06202 0.01263
v -0.03674 -0.06202 0.01723
v 0.02756 -0.05743 -0.01722
v -0.00804 -0.05284 -0.01722
v 0.02756 -0.06202 -0.01722
v -0.01837 -0.04365 0.01493
v -0.05053 -0.05054 0.01493
v -0.05053 -0.05972 0.01263
v -0.01149 -0.052835 0.01723
v 0.02871 -0.05743 0.01378
f 3 4 5
f 3 5 6
f 7 4 8
f 4 7 9
f 5 4 9
f 10 1 11
f 11 1 12
f 8 4 2
f 10 13 14
f 2 4 1
f 14 13 5
f 6 13 11
f 9 7 14
f 5 9 14
f 10 8 1
f 7 8 10
f 14 7 10
f 11 13 10
f 6 12 3
f 12 6 11
f 4 3 12
f 1 4 12
f 5 13 6
f 1 8 2
