# Created by Open3D 
# object name: convex_0_coll
# number of vertices: 14
# number of triangles: 24
v 0.05513 0.02986 0.02412
v 0.03905 0.02297 0.0356
v 0.05513 0.01837 0.0379
v 0.05513 0.02986 0.01494
v 0.05513 -0.00459 0.02183
v 0.03446 0 0.017235
v 0.03446 0.02986 0.02183
v 0.03446 0.02986 0.01264
v 0.05513 -0.00459 0.01264
v 0.05398 0.011485 0.01034
v 0.05513 0.01378 0.0379
v 0.03905 0.01378 0.0356
v 0.03446 0.00919 0.02641
v 0.03446 0.00919 0.01264
f 4 3 5
f 6 7 8
f 7 4 8
f 4 5 9
f 3 4 1
f 4 7 1
f 7 2 1
f 4 9 10
f 3 2 11
f 2 12 11
f 7 6 13
f 6 12 13
f 12 2 13
f 8 10 14
f 6 8 14
f 12 6 5
f 11 12 5
f 10 8 4
f 14 10 9
f 6 14 9
f 5 6 9
f 2 7 13
f 5 3 11
f 3 1 2
