# Created by Open3D 
# object name: convex_7_coll
# number of vertices: 14
# number of triangles: 24
v 0.03101 0.0195225 0.04135
v 0.02067 0.02756 0.0425
v 0.011485 0.02297 0.03102
v 0.00919 0.01838 0.03102
v -0.00459 0.02527 0.0379
v 0.02986 0.01379 0.03561
v -0.00229 0.00919 0.0402
v 0.025265 0.01264 0.04135
v -0.00689 0.01149 0.0448
v 0.01608 0.02986 0.03561
v 0.0046 0.02986 0.0425
v -0.00459 0.02067 0.0448
v 0.004595 0.02986 0.036755
v 0.02871 0.02412 0.03561
f 3 4 5
f 4 6 7
f 8 1 9
f 2 10 11
f 12 2 11
f 10 13 11
f 7 6 8
f 9 7 8
f 6 4 3
f 10 14 3
f 1 2 12
f 9 1 12
f 6 3 14
f 1 6 14
f 3 5 13
f 10 3 13
f 9 12 5
f 12 11 5
f 11 13 5
f 4 7 5
f 7 9 5
f 8 6 1
f 14 10 2
f 1 14 2
