# Created by Open3D 
# object name: convex_2_coll
# number of vertices: 14
# number of triangles: 24
v 0.02871 -0.05743 -0.034455
v 0.006305 -0.05054 -0.031585
v 0.02871 -0.05743 -0.01953
v -0.008045 -0.05284 -0.01723
v -0.04363 -0.06202 -0.01723
v 0.02756 -0.06317 -0.01838
v -0.051675 -0.04939 -0.041345
v 0.00228 -0.05284 -0.04249
v 0.00918 -0.05972 -0.04249
v 0.02986 -0.06432 -0.03101
v -0.0160725 -0.06432 -0.0292875
v -0.0453575 -0.060295 -0.039045
v -0.05512 -0.04595 -0.03331
v -0.05742 -0.05054 -0.02872
f 1 2 3
f 4 5 6
f 7 8 9
f 4 6 3
f 11 10 6
f 5 11 6
f 11 12 9
f 7 9 12
f 13 2 8
f 4 13 14
f 5 4 14
f 10 1 3
f 13 7 12
f 5 14 12
f 11 9 10
f 4 3 2
f 5 12 11
f 1 9 8
f 10 9 1
f 13 12 14
f 10 3 6
f 13 8 7
f 4 2 13
f 2 1 8
