# Created by Open3D 
# object name: convex_5_coll
# number of vertices: 14
# number of triangles: 24
v 0.03446 0.02985 0.02182
v -0 0.05052 0.00804
v 0.03446 -0.00229 0.02182
v 0.03446 -0.01607 0.01264
v -0.05973 -0.02296 0.01034
v -0.05973 -0.01607 0.01952
v -0.05973 0.01607 0.01034
v 0.03446 0.02985 0.01264
v -0.05973 0.02296 0.01952
v -0.04824 0.06432 0.013785
v -0.02297 0.06432 0.01493
v -0.024115 -0.04364 0.01723
v -0.02526 -0.04364 0.01034
v 0.03272 -0.016645 0.018375
f 3 4 1
f 5 6 7
f 3 1 6
f 7 2 5
f 1 4 8
f 7 6 9
f 1 11 10
f 2 7 10
f 2 10 11
f 2 11 1
f 2 4 13
f 14 3 12
f 12 3 6
f 14 12 4
f 2 1 8
f 9 10 7
f 9 6 1
f 10 9 1
f 4 2 8
f 12 6 5
f 12 5 13
f 4 3 14
f 13 4 12
f 2 13 5
