# Created by Open3D 
# object name: convex_1_coll
# number of vertices: 14
# number of triangles: 24
v 0.05513 0.03215 0.02182
v 0.05973 0.036745 -0.0287
v 0.05513 -0.020665 0.01034
v 0.05513 0.01608 0.0379
v 0.06891 0.02985 0.0379
v 0.066615 0.00116125 0.03445
v 0.06776 0.05743 0.0091825
v 0.07351 0.0442125 0.00804
v 0.07236 -0.00115 0.019515
v 0.068335 0.03732 -0.0292775
v 0.06661 -0.02526 -0.02641
v 0.05973 -0.02526 -0.0287
v 0.05973 -0.03215 0.01262
v 0.06891 -0.02526 0.01952
f 3 4 1
f 5 4 6
f 10 11 12
f 9 6 14
f 7 4 5
f 13 4 3
f 10 2 7
f 7 8 10
f 11 9 14
f 13 12 14
f 4 7 1
f 3 12 13
f 1 2 3
f 12 3 2
f 10 12 2
f 2 1 7
f 11 14 12
f 6 9 5
f 4 13 6
f 13 14 6
f 9 11 8
f 11 10 8
f 7 5 8
f 5 9 8
