# Original object name hint: convex_2
v -0.07290 -0.02848 -0.02848
v -0.05923 0.00115 0.02392
v -0.05923 0.01023 0.02164
v -0.07290 0.03530 0.01480
v -0.06379 0.04442 -0.02620
v -0.06151 -0.03532 -0.02848
v -0.07062 -0.03075 0.01936
v -0.07290 0.01479 -0.03986
v -0.05923 -0.02848 0.02164
v -0.06834 -0.04443 -0.02848
v -0.07290 0.04669 -0.02392
v -0.06607 0.04214 0.01480
v -0.06607 -0.00797 -0.04215
v -0.07290 -0.03075 0.01480
v -0.06379 0.01707 -0.03986
v -0.07062 0.01252 0.02164
v -0.07062 0.05125 -0.02392
v -0.06379 -0.04443 -0.02392
v -0.06151 -0.01936 -0.03075
v -0.07062 -0.00797 -0.04215
v -0.07062 0.01935 -0.04215
v -0.06379 0.04669 -0.01707
v -0.07062 -0.02620 0.02164
v -0.05923 0.00796 0.01480
v -0.07062 0.04669 0.00113
v -0.07062 -0.03303 0.01708
v -0.07290 -0.03532 -0.02392
v -0.06607 0.05125 -0.02392
v -0.05923 -0.03075 0.01708
v -0.07290 -0.02392 0.01936
v -0.06607 0.01935 -0.04215
v -0.06379 -0.03987 -0.03075
v -0.06379 0.04214 0.00113
v -0.07062 0.04669 -0.02848
v -0.06151 -0.01709 0.02392
v -0.06379 -0.00797 -0.03986
v -0.05923 -0.02848 0.01252
v -0.07062 0.03530 0.01708
v -0.07290 0.04442 -0.00115
v -0.06607 -0.03303 0.01708
v -0.07290 0.01707 0.01936
v -0.06834 -0.04443 -0.02392
v -0.06607 0.04669 -0.02848
v -0.07290 -0.00114 -0.03986
v -0.06607 0.05125 -0.01936
v -0.07062 0.04214 0.01252
v -0.07290 -0.03532 -0.00798
v -0.07062 -0.03987 -0.02848
v -0.06607 0.04669 0.00113
v -0.06607 0.03530 0.01708
v -0.07062 0.05125 -0.01936
v -0.07290 0.04442 -0.02620
v -0.05923 0.00115 0.01252
v -0.06379 0.04669 -0.02392
v -0.07062 -0.03987 -0.01252
v -0.06151 0.00115 0.02392
v -0.06834 -0.02848 0.02164
v -0.05923 -0.01709 0.02392
v -0.06379 -0.04443 -0.02620
v -0.06379 0.03986 0.00569
v 0.03417 0.01251 0.01481
v -0.05923 -0.02847 0.01481
v -0.05467 -0.03530 0.01481
v -0.00229 -0.00341 0.03303
v -0.04327 0.05125 0.01481
v -0.01137 -0.04897 0.01253
v 0.03873 0.00568 0.03075
v -0.05923 0.00112 0.02392
v 0.03417 -0.02847 0.02165
v -0.02732 -0.05125 0.01937
v -0.02276 0.05125 0.01937
v 0.00000 0.03985 0.01253
v -0.05923 -0.00341 0.01253
v -0.05923 -0.02847 0.02165
v -0.00229 0.00796 0.03303
v -0.04100 0.05125 0.01937
v 0.03189 -0.02847 0.01481
v 0.03644 -0.01480 0.02847
v 0.03873 0.01479 0.02620
v 0.03873 -0.00569 0.01709
v 0.01595 -0.00341 0.03303
v 0.00682 0.02390 0.01253
v 0.01366 0.00796 0.03303
v -0.02505 0.03985 0.01253
v -0.05923 -0.02391 0.01253
v -0.05923 0.01024 0.02165
v -0.02050 -0.05125 0.01937
v -0.05923 -0.01708 0.02392
v 0.03873 0.01479 0.01937
v -0.02732 -0.05125 0.01481
v -0.05239 0.03073 0.01481
v 0.03873 0.01251 0.02847
v -0.02276 0.05125 0.01481
v 0.03873 -0.00341 0.03075
v 0.03189 -0.03074 0.01937
v -0.05239 -0.03758 0.01937
v -0.00457 0.00568 0.03303
v -0.02050 -0.04897 0.01253
v 0.00000 0.03985 0.01709
v -0.05239 0.03073 0.01937
v -0.05923 0.00796 0.01481
v 0.03873 -0.01024 0.02620
v 0.03417 -0.02847 0.01709
v -0.05239 0.02390 0.02165
v -0.05239 -0.03758 0.01481
v 0.03189 -0.03074 0.01709
v 0.03417 -0.01024 0.01481
v -0.01821 -0.05125 0.01709
v 0.03644 0.01479 0.01709
v 0.03873 0.01024 0.01709
v 0.03873 -0.01024 0.01937
v 0.00682 0.03301 0.01253
v -0.00457 -0.00113 0.03303
v -0.05695 -0.01936 0.02392
v -0.04327 0.05125 0.01709
v 0.06151 -0.02847 -0.02848
v 0.07062 0.03986 0.01481
v 0.06607 0.03986 0.01481
v 0.06607 -0.04215 0.01481
v 0.05468 -0.02847 0.01025
v 0.05696 0.01707 -0.02620
v 0.07062 0.01480 -0.02620
v 0.07062 -0.03303 -0.01025
v 0.06834 0.04214 -0.01936
v 0.07290 -0.01025 0.01481
v 0.05924 -0.04215 -0.02164
v 0.05696 0.00113 0.01481
v 0.07290 0.02618 -0.01253
v 0.06379 0.04442 0.00341
v 0.06834 -0.00113 -0.03303
v 0.06834 -0.03987 -0.01936
v 0.05696 -0.03987 0.01481
v 0.05696 -0.03531 -0.02164
v 0.07290 0.03986 0.01025
v 0.05696 0.02162 -0.01480
v 0.06151 0.03301 -0.02392
v 0.07290 0.00796 -0.01480
v 0.05468 -0.03531 -0.00114
v 0.06834 -0.04215 0.01253
v 0.06379 0.00568 -0.03303
v 0.06834 -0.03075 -0.02620
v 0.06834 0.03073 -0.02620
v 0.05924 0.01707 0.01481
v 0.05924 -0.02392 -0.02848
v 0.07062 0.04442 0.01025
v 0.06379 0.04442 -0.01025
v 0.07062 -0.00341 -0.02620
v 0.06607 -0.03759 -0.02620
v 0.07062 -0.03303 0.01253
v 0.07290 0.03986 0.00114
v 0.06834 -0.04215 -0.01025
v 0.05924 -0.04215 0.01481
v 0.07290 -0.00570 -0.00570
v 0.07062 -0.03075 -0.01480
v 0.07290 0.03530 0.01481
v 0.06151 0.01480 -0.03075
v 0.05924 -0.03759 -0.02620
v 0.05696 0.02162 -0.02164
v 0.07062 0.03301 -0.01936
v 0.05696 -0.00341 -0.02620
v 0.06834 0.04442 -0.01480
v 0.05468 -0.02619 -0.00114
v 0.06834 0.00568 -0.03303
v 0.06379 0.04214 -0.01708
v 0.06379 0.03530 0.01481
v 0.06607 -0.04215 -0.01936
v 0.05696 -0.03987 -0.01253
v 0.06379 -0.00113 -0.03303
v 0.07062 -0.03075 0.01481
v 0.06379 0.01707 -0.03075
v 0.05468 -0.03531 0.01025
v 0.06379 0.03530 -0.02392
v 0.06607 0.04442 0.01025
v 0.07290 0.03757 -0.00342
v 0.07062 0.04442 -0.00114
v 0.07290 -0.01025 0.00341
v 0.06379 0.04214 0.00797
v 0.06607 -0.02847 -0.02848
v 0.06834 -0.02392 -0.02848
v 0.07290 0.02618 0.02392
v 0.03873 -0.01025 0.01937
v 0.03873 -0.01025 0.02392
v 0.06834 -0.03987 0.01481
v 0.06151 0.00113 0.04215
v 0.06834 0.03758 0.01481
v 0.03873 0.00796 0.03759
v 0.03873 0.00796 0.01709
v 0.05923 -0.03758 0.02164
v 0.07062 0.01480 0.03759
v 0.03873 -0.00115 0.03759
v 0.05695 -0.03758 0.01481
v 0.06606 -0.02847 0.02848
v 0.03873 0.01707 0.02164
v 0.07290 -0.01025 0.01481
v 0.07290 0.00113 0.03303
v 0.06379 0.01480 0.03987
v 0.06834 0.03758 0.01709
v 0.06834 -0.00115 0.03987
v 0.07290 0.03302 0.01481
v 0.05240 -0.00115 0.01481
v 0.05923 -0.02847 0.02848
v 0.03873 0.01707 0.02620
v 0.06834 -0.03303 0.02392
v 0.05695 0.00113 0.04215
v 0.07062 -0.03075 0.01709
v 0.03873 -0.00115 0.01709
v 0.07062 0.03758 0.01709
v 0.06606 -0.03987 0.01937
v 0.06379 0.03302 0.01481
v 0.04785 -0.00115 0.03987
v 0.04557 0.00568 0.03987
v 0.07290 0.01480 0.03303
v 0.03873 0.01480 0.01937
v 0.05695 -0.03531 0.02164
v 0.06606 0.01480 0.03987
v 0.05923 -0.03987 0.01709
v 0.03873 -0.00797 0.02848
v 0.06379 0.01935 0.03531
v 0.07062 0.00113 0.03759
v 0.07290 -0.00797 0.02392
v 0.06834 0.01251 0.03987
v 0.07062 0.02847 0.02620
v 0.06606 -0.03531 0.02392
v 0.05695 0.00340 0.04215
v 0.05240 -0.01253 0.01481
v 0.06606 -0.00341 0.03987
v 0.05695 -0.03758 0.01709
v 0.05923 -0.02391 0.03075
v 0.06606 0.03074 0.02392
f 178 130 179 
f 117 118 119 
f 117 119 125 
f 119 118 127 
f 119 127 132 
f 127 120 132 
f 125 128 134 
f 120 127 135 
f 122 128 137 
f 128 125 137 
f 119 126 139 
f 127 118 143 
f 135 127 143 
f 121 140 144 
f 118 117 145 
f 117 134 145 
f 135 129 146 
f 129 145 146 
f 130 122 147 
f 122 137 147 
f 141 131 148 
f 123 125 149 
f 139 123 149 
f 134 128 150 
f 145 134 150 
f 131 123 151 
f 123 139 151 
f 139 126 151 
f 126 119 152 
f 119 132 152 
f 132 126 152 
f 137 125 153 
f 137 153 154 
f 123 131 154 
f 131 141 154 
f 147 137 154 
f 141 147 154 
f 153 123 154 
f 117 125 155 
f 134 117 155 
f 125 134 155 
f 121 136 156 
f 140 121 156 
f 126 133 157 
f 144 116 157 
f 133 144 157 
f 116 148 157 
f 148 126 157 
f 136 121 158 
f 135 146 158 
f 128 122 159 
f 122 142 159 
f 142 124 159 
f 138 121 160 
f 133 138 160 
f 121 144 160 
f 144 133 160 
f 146 145 161 
f 150 124 161 
f 120 135 162 
f 138 120 162 
f 121 138 162 
f 135 158 162 
f 158 121 162 
f 122 130 163 
f 130 140 163 
f 142 122 163 
f 136 158 164 
f 158 146 164 
f 161 124 164 
f 146 161 164 
f 143 118 165 
f 126 148 166 
f 148 131 166 
f 131 151 166 
f 151 126 166 
f 126 132 167 
f 133 126 167 
f 132 138 167 
f 138 133 167 
f 130 116 168 
f 140 130 168 
f 116 144 168 
f 144 140 168 
f 125 119 169 
f 119 139 169 
f 149 125 169 
f 139 149 169 
f 140 156 170 
f 163 140 170 
f 142 163 170 
f 132 120 171 
f 120 138 171 
f 138 132 171 
f 124 142 172 
f 156 136 172 
f 164 124 172 
f 136 164 172 
f 142 170 172 
f 170 156 172 
f 118 145 173 
f 145 129 173 
f 165 118 173 
f 124 150 174 
f 150 128 174 
f 128 159 174 
f 159 124 174 
f 145 150 175 
f 161 145 175 
f 150 161 175 
f 125 123 176 
f 123 153 176 
f 153 125 176 
f 129 135 177 
f 135 143 177 
f 143 165 177 
f 173 129 177 
f 165 173 177 
f 116 130 178 
f 148 116 178 
f 148 178 179 
f 130 147 179 
f 147 141 179 
f 141 148 179 
