# Original object name hint: convex_0
v -0.07290 -0.02848 -0.02848
v -0.05923 0.00115 0.02392
v -0.05923 0.01023 0.02164
v -0.07290 0.03530 0.01480
v -0.06379 0.04442 -0.02620
v -0.06151 -0.03532 -0.02848
v -0.07062 -0.03075 0.01936
v -0.07290 0.01479 -0.03986
v -0.05923 -0.02848 0.02164
v -0.06834 -0.04443 -0.02848
v -0.07290 0.04669 -0.02392
v -0.06607 0.04214 0.01480
v -0.06607 -0.00797 -0.04215
v -0.07290 -0.03075 0.01480
v -0.06379 0.01707 -0.03986
v -0.07062 0.01252 0.02164
v -0.07062 0.05125 -0.02392
v -0.06379 -0.04443 -0.02392
v -0.06151 -0.01936 -0.03075
v -0.07062 -0.00797 -0.04215
v -0.07062 0.01935 -0.04215
v -0.06379 0.04669 -0.01707
v -0.07062 -0.02620 0.02164
v -0.05923 0.00796 0.01480
v -0.07062 0.04669 0.00113
v -0.07062 -0.03303 0.01708
v -0.07290 -0.03532 -0.02392
v -0.06607 0.05125 -0.02392
v -0.05923 -0.03075 0.01708
v -0.07290 -0.02392 0.01936
v -0.06607 0.01935 -0.04215
v -0.06379 -0.03987 -0.03075
v -0.06379 0.04214 0.00113
v -0.07062 0.04669 -0.02848
v -0.06151 -0.01709 0.02392
v -0.06379 -0.00797 -0.03986
v -0.05923 -0.02848 0.01252
v -0.07062 0.03530 0.01708
v -0.07290 0.04442 -0.00115
v -0.06607 -0.03303 0.01708
v -0.07290 0.01707 0.01936
v -0.06834 -0.04443 -0.02392
v -0.06607 0.04669 -0.02848
v -0.07290 -0.00114 -0.03986
v -0.06607 0.05125 -0.01936
v -0.07062 0.04214 0.01252
v -0.07290 -0.03532 -0.00798
v -0.07062 -0.03987 -0.02848
v -0.06607 0.04669 0.00113
v -0.06607 0.03530 0.01708
v -0.07062 0.05125 -0.01936
v -0.07290 0.04442 -0.02620
v -0.05923 0.00115 0.01252
v -0.06379 0.04669 -0.02392
v -0.07062 -0.03987 -0.01252
v -0.06151 0.00115 0.02392
v -0.06834 -0.02848 0.02164
v -0.05923 -0.01709 0.02392
v -0.06379 -0.04443 -0.02620
v -0.06379 0.03986 0.00569
v 0.03417 0.01251 0.01481
v -0.05923 -0.02847 0.01481
v -0.05467 -0.03530 0.01481
v -0.00229 -0.00341 0.03303
v -0.04327 0.05125 0.01481
v -0.01137 -0.04897 0.01253
v 0.03873 0.00568 0.03075
v -0.05923 0.00112 0.02392
v 0.03417 -0.02847 0.02165
v -0.02732 -0.05125 0.01937
v -0.02276 0.05125 0.01937
v 0.00000 0.03985 0.01253
v -0.05923 -0.00341 0.01253
v -0.05923 -0.02847 0.02165
v -0.00229 0.00796 0.03303
v -0.04100 0.05125 0.01937
v 0.03189 -0.02847 0.01481
v 0.03644 -0.01480 0.02847
v 0.03873 0.01479 0.02620
v 0.03873 -0.00569 0.01709
v 0.01595 -0.00341 0.03303
v 0.00682 0.02390 0.01253
v 0.01366 0.00796 0.03303
v -0.02505 0.03985 0.01253
v -0.05923 -0.02391 0.01253
v -0.05923 0.01024 0.02165
v -0.02050 -0.05125 0.01937
v -0.05923 -0.01708 0.02392
v 0.03873 0.01479 0.01937
v -0.02732 -0.05125 0.01481
v -0.05239 0.03073 0.01481
v 0.03873 0.01251 0.02847
v -0.02276 0.05125 0.01481
v 0.03873 -0.00341 0.03075
v 0.03189 -0.03074 0.01937
v -0.05239 -0.03758 0.01937
v -0.00457 0.00568 0.03303
v -0.02050 -0.04897 0.01253
v 0.00000 0.03985 0.01709
v -0.05239 0.03073 0.01937
v -0.05923 0.00796 0.01481
v 0.03873 -0.01024 0.02620
v 0.03417 -0.02847 0.01709
v -0.05239 0.02390 0.02165
v -0.05239 -0.03758 0.01481
v 0.03189 -0.03074 0.01709
v 0.03417 -0.01024 0.01481
v -0.01821 -0.05125 0.01709
v 0.03644 0.01479 0.01709
v 0.03873 0.01024 0.01709
v 0.03873 -0.01024 0.01937
v 0.00682 0.03301 0.01253
v -0.00457 -0.00113 0.03303
v -0.05695 -0.01936 0.02392
v -0.04327 0.05125 0.01709
v 0.06151 -0.02847 -0.02848
v 0.07062 0.03986 0.01481
v 0.06607 0.03986 0.01481
v 0.06607 -0.04215 0.01481
v 0.05468 -0.02847 0.01025
v 0.05696 0.01707 -0.02620
v 0.07062 0.01480 -0.02620
v 0.07062 -0.03303 -0.01025
v 0.06834 0.04214 -0.01936
v 0.07290 -0.01025 0.01481
v 0.05924 -0.04215 -0.02164
v 0.05696 0.00113 0.01481
v 0.07290 0.02618 -0.01253
v 0.06379 0.04442 0.00341
v 0.06834 -0.00113 -0.03303
v 0.06834 -0.03987 -0.01936
v 0.05696 -0.03987 0.01481
v 0.05696 -0.03531 -0.02164
v 0.07290 0.03986 0.01025
v 0.05696 0.02162 -0.01480
v 0.06151 0.03301 -0.02392
v 0.07290 0.00796 -0.01480
v 0.05468 -0.03531 -0.00114
v 0.06834 -0.04215 0.01253
v 0.06379 0.00568 -0.03303
v 0.06834 -0.03075 -0.02620
v 0.06834 0.03073 -0.02620
v 0.05924 0.01707 0.01481
v 0.05924 -0.02392 -0.02848
v 0.07062 0.04442 0.01025
v 0.06379 0.04442 -0.01025
v 0.07062 -0.00341 -0.02620
v 0.06607 -0.03759 -0.02620
v 0.07062 -0.03303 0.01253
v 0.07290 0.03986 0.00114
v 0.06834 -0.04215 -0.01025
v 0.05924 -0.04215 0.01481
v 0.07290 -0.00570 -0.00570
v 0.07062 -0.03075 -0.01480
v 0.07290 0.03530 0.01481
v 0.06151 0.01480 -0.03075
v 0.05924 -0.03759 -0.02620
v 0.05696 0.02162 -0.02164
v 0.07062 0.03301 -0.01936
v 0.05696 -0.00341 -0.02620
v 0.06834 0.04442 -0.01480
v 0.05468 -0.02619 -0.00114
v 0.06834 0.00568 -0.03303
v 0.06379 0.04214 -0.01708
v 0.06379 0.03530 0.01481
v 0.06607 -0.04215 -0.01936
v 0.05696 -0.03987 -0.01253
v 0.06379 -0.00113 -0.03303
v 0.07062 -0.03075 0.01481
v 0.06379 0.01707 -0.03075
v 0.05468 -0.03531 0.01025
v 0.06379 0.03530 -0.02392
v 0.06607 0.04442 0.01025
v 0.07290 0.03757 -0.00342
v 0.07062 0.04442 -0.00114
v 0.07290 -0.01025 0.00341
v 0.06379 0.04214 0.00797
v 0.06607 -0.02847 -0.02848
v 0.06834 -0.02392 -0.02848
v 0.07290 0.02618 0.02392
v 0.03873 -0.01025 0.01937
v 0.03873 -0.01025 0.02392
v 0.06834 -0.03987 0.01481
v 0.06151 0.00113 0.04215
v 0.06834 0.03758 0.01481
v 0.03873 0.00796 0.03759
v 0.03873 0.00796 0.01709
v 0.05923 -0.03758 0.02164
v 0.07062 0.01480 0.03759
v 0.03873 -0.00115 0.03759
v 0.05695 -0.03758 0.01481
v 0.06606 -0.02847 0.02848
v 0.03873 0.01707 0.02164
v 0.07290 -0.01025 0.01481
v 0.07290 0.00113 0.03303
v 0.06379 0.01480 0.03987
v 0.06834 0.03758 0.01709
v 0.06834 -0.00115 0.03987
v 0.07290 0.03302 0.01481
v 0.05240 -0.00115 0.01481
v 0.05923 -0.02847 0.02848
v 0.03873 0.01707 0.02620
v 0.06834 -0.03303 0.02392
v 0.05695 0.00113 0.04215
v 0.07062 -0.03075 0.01709
v 0.03873 -0.00115 0.01709
v 0.07062 0.03758 0.01709
v 0.06606 -0.03987 0.01937
v 0.06379 0.03302 0.01481
v 0.04785 -0.00115 0.03987
v 0.04557 0.00568 0.03987
v 0.07290 0.01480 0.03303
v 0.03873 0.01480 0.01937
v 0.05695 -0.03531 0.02164
v 0.06606 0.01480 0.03987
v 0.05923 -0.03987 0.01709
v 0.03873 -0.00797 0.02848
v 0.06379 0.01935 0.03531
v 0.07062 0.00113 0.03759
v 0.07290 -0.00797 0.02392
v 0.06834 0.01251 0.03987
v 0.07062 0.02847 0.02620
v 0.06606 -0.03531 0.02392
v 0.05695 0.00340 0.04215
v 0.05240 -0.01253 0.01481
v 0.06606 -0.00341 0.03987
v 0.05695 -0.03758 0.01709
v 0.05923 -0.02391 0.03075
v 0.06606 0.03074 0.02392
f 33 12 60 
f 1 4 8 
f 3 2 9 
f 8 4 11 
f 4 1 14 
f 15 5 19 
f 20 8 21 
f 13 20 21 
f 3 9 24 
f 19 5 24 
f 7 14 26 
f 14 1 27 
f 24 9 29 
f 4 14 30 
f 14 7 30 
f 7 23 30 
f 23 16 30 
f 5 15 31 
f 15 13 31 
f 13 21 31 
f 10 20 32 
f 20 13 32 
f 3 22 33 
f 17 28 34 
f 31 21 34 
f 16 23 35 
f 13 15 36 
f 19 6 36 
f 15 19 36 
f 6 32 36 
f 32 13 36 
f 6 19 37 
f 29 6 37 
f 24 29 37 
f 11 4 39 
f 9 26 40 
f 26 18 40 
f 18 29 40 
f 29 9 40 
f 4 30 41 
f 30 16 41 
f 38 4 41 
f 16 38 41 
f 10 18 42 
f 18 26 42 
f 27 10 42 
f 28 5 43 
f 5 31 43 
f 34 28 43 
f 31 34 43 
f 1 8 44 
f 20 1 44 
f 8 20 44 
f 28 17 45 
f 22 28 45 
f 12 25 46 
f 38 12 46 
f 4 38 46 
f 39 4 46 
f 25 39 46 
f 14 27 47 
f 27 42 47 
f 1 20 48 
f 20 10 48 
f 27 1 48 
f 10 27 48 
f 25 12 49 
f 12 33 49 
f 33 22 49 
f 45 25 49 
f 22 45 49 
f 2 3 50 
f 3 12 50 
f 38 2 50 
f 12 38 50 
f 17 11 51 
f 11 39 51 
f 39 25 51 
f 25 45 51 
f 45 17 51 
f 8 11 52 
f 11 17 52 
f 21 8 52 
f 17 34 52 
f 34 21 52 
f 19 24 53 
f 37 19 53 
f 24 37 53 
f 22 3 54 
f 3 24 54 
f 24 5 54 
f 5 28 54 
f 28 22 54 
f 26 14 55 
f 42 26 55 
f 14 47 55 
f 47 42 55 
f 35 2 56 
f 16 35 56 
f 2 38 56 
f 38 16 56 
f 23 7 57 
f 7 26 57 
f 26 9 57 
f 9 35 57 
f 35 23 57 
f 9 2 58 
f 2 35 58 
f 35 9 58 
f 18 10 59 
f 6 29 59 
f 29 18 59 
f 32 6 59 
f 10 32 59 
f 12 3 60 
f 3 33 60 
