# Original object name hint: convex_3
v -0.07290 -0.02848 -0.02848
v -0.05923 0.00115 0.02392
v -0.05923 0.01023 0.02164
v -0.07290 0.03530 0.01480
v -0.06379 0.04442 -0.02620
v -0.06151 -0.03532 -0.02848
v -0.07062 -0.03075 0.01936
v -0.07290 0.01479 -0.03986
v -0.05923 -0.02848 0.02164
v -0.06834 -0.04443 -0.02848
v -0.07290 0.04669 -0.02392
v -0.06607 0.04214 0.01480
v -0.06607 -0.00797 -0.04215
v -0.07290 -0.03075 0.01480
v -0.06379 0.01707 -0.03986
v -0.07062 0.01252 0.02164
v -0.07062 0.05125 -0.02392
v -0.06379 -0.04443 -0.02392
v -0.06151 -0.01936 -0.03075
v -0.07062 -0.00797 -0.04215
v -0.07062 0.01935 -0.04215
v -0.06379 0.04669 -0.01707
v -0.07062 -0.02620 0.02164
v -0.05923 0.00796 0.01480
v -0.07062 0.04669 0.00113
v -0.07062 -0.03303 0.01708
v -0.07290 -0.03532 -0.02392
v -0.06607 0.05125 -0.02392
v -0.05923 -0.03075 0.01708
v -0.07290 -0.02392 0.01936
v -0.06607 0.01935 -0.04215
v -0.06379 -0.03987 -0.03075
v -0.06379 0.04214 0.00113
v -0.07062 0.04669 -0.02848
v -0.06151 -0.01709 0.02392
v -0.06379 -0.00797 -0.03986
v -0.05923 -0.02848 0.01252
v -0.07062 0.03530 0.01708
v -0.07290 0.04442 -0.00115
v -0.06607 -0.03303 0.01708
v -0.07290 0.01707 0.01936
v -0.06834 -0.04443 -0.02392
v -0.06607 0.04669 -0.02848
v -0.07290 -0.00114 -0.03986
v -0.06607 0.05125 -0.01936
v -0.07062 0.04214 0.01252
v -0.07290 -0.03532 -0.00798
v -0.07062 -0.03987 -0.02848
v -0.06607 0.04669 0.00113
v -0.06607 0.03530 0.01708
v -0.07062 0.05125 -0.01936
v -0.07290 0.04442 -0.02620
v -0.05923 0.00115 0.01252
v -0.06379 0.04669 -0.02392
v -0.07062 -0.03987 -0.01252
v -0.06151 0.00115 0.02392
v -0.06834 -0.02848 0.02164
v -0.05923 -0.01709 0.02392
v -0.06379 -0.04443 -0.02620
v -0.06379 0.03986 0.00569
v 0.03417 0.01251 0.01481
v -0.05923 -0.02847 0.01481
v -0.05467 -0.03530 0.01481
v -0.00229 -0.00341 0.03303
v -0.04327 0.05125 0.01481
v -0.01137 -0.04897 0.01253
v 0.03873 0.00568 0.03075
v -0.05923 0.00112 0.02392
v 0.03417 -0.02847 0.02165
v -0.02732 -0.05125 0.01937
v -0.02276 0.05125 0.01937
v 0.00000 0.03985 0.01253
v -0.05923 -0.00341 0.01253
v -0.05923 -0.02847 0.02165
v -0.00229 0.00796 0.03303
v -0.04100 0.05125 0.01937
v 0.03189 -0.02847 0.01481
v 0.03644 -0.01480 0.02847
v 0.03873 0.01479 0.02620
v 0.03873 -0.00569 0.01709
v 0.01595 -0.00341 0.03303
v 0.00682 0.02390 0.01253
v 0.01366 0.00796 0.03303
v -0.02505 0.03985 0.01253
v -0.05923 -0.02391 0.01253
v -0.05923 0.01024 0.02165
v -0.02050 -0.05125 0.01937
v -0.05923 -0.01708 0.02392
v 0.03873 0.01479 0.01937
v -0.02732 -0.05125 0.01481
v -0.05239 0.03073 0.01481
v 0.03873 0.01251 0.02847
v -0.02276 0.05125 0.01481
v 0.03873 -0.00341 0.03075
v 0.03189 -0.03074 0.01937
v -0.05239 -0.03758 0.01937
v -0.00457 0.00568 0.03303
v -0.02050 -0.04897 0.01253
v 0.00000 0.03985 0.01709
v -0.05239 0.03073 0.01937
v -0.05923 0.00796 0.01481
v 0.03873 -0.01024 0.02620
v 0.03417 -0.02847 0.01709
v -0.05239 0.02390 0.02165
v -0.05239 -0.03758 0.01481
v 0.03189 -0.03074 0.01709
v 0.03417 -0.01024 0.01481
v -0.01821 -0.05125 0.01709
v 0.03644 0.01479 0.01709
v 0.03873 0.01024 0.01709
v 0.03873 -0.01024 0.01937
v 0.00682 0.03301 0.01253
v -0.00457 -0.00113 0.03303
v -0.05695 -0.01936 0.02392
v -0.04327 0.05125 0.01709
v 0.06151 -0.02847 -0.02848
v 0.07062 0.03986 0.01481
v 0.06607 0.03986 0.01481
v 0.06607 -0.04215 0.01481
v 0.05468 -0.02847 0.01025
v 0.05696 0.01707 -0.02620
v 0.07062 0.01480 -0.02620
v 0.07062 -0.03303 -0.01025
v 0.06834 0.04214 -0.01936
v 0.07290 -0.01025 0.01481
v 0.05924 -0.04215 -0.02164
v 0.05696 0.00113 0.01481
v 0.07290 0.02618 -0.01253
v 0.06379 0.04442 0.00341
v 0.06834 -0.00113 -0.03303
v 0.06834 -0.03987 -0.01936
v 0.05696 -0.03987 0.01481
v 0.05696 -0.03531 -0.02164
v 0.07290 0.03986 0.01025
v 0.05696 0.02162 -0.01480
v 0.06151 0.03301 -0.02392
v 0.07290 0.00796 -0.01480
v 0.05468 -0.03531 -0.00114
v 0.06834 -0.04215 0.01253
v 0.06379 0.00568 -0.03303
v 0.06834 -0.03075 -0.02620
v 0.06834 0.03073 -0.02620
v 0.05924 0.01707 0.01481
v 0.05924 -0.02392 -0.02848
v 0.07062 0.04442 0.01025
v 0.06379 0.04442 -0.01025
v 0.07062 -0.00341 -0.02620
v 0.06607 -0.03759 -0.02620
v 0.07062 -0.03303 0.01253
v 0.07290 0.03986 0.00114
v 0.06834 -0.04215 -0.01025
v 0.05924 -0.04215 0.01481
v 0.07290 -0.00570 -0.00570
v 0.07062 -0.03075 -0.01480
v 0.07290 0.03530 0.01481
v 0.06151 0.01480 -0.03075
v 0.05924 -0.03759 -0.02620
v 0.05696 0.02162 -0.02164
v 0.07062 0.03301 -0.01936
v 0.05696 -0.00341 -0.02620
v 0.06834 0.04442 -0.01480
v 0.05468 -0.02619 -0.00114
v 0.06834 0.00568 -0.03303
v 0.06379 0.04214 -0.01708
v 0.06379 0.03530 0.01481
v 0.06607 -0.04215 -0.01936
v 0.05696 -0.03987 -0.01253
v 0.06379 -0.00113 -0.03303
v 0.07062 -0.03075 0.01481
v 0.06379 0.01707 -0.03075
v 0.05468 -0.03531 0.01025
v 0.06379 0.03530 -0.02392
v 0.06607 0.04442 0.01025
v 0.07290 0.03757 -0.00342
v 0.07062 0.04442 -0.00114
v 0.07290 -0.01025 0.00341
v 0.06379 0.04214 0.00797
v 0.06607 -0.02847 -0.02848
v 0.06834 -0.02392 -0.02848
v 0.07290 0.02618 0.02392
v 0.03873 -0.01025 0.01937
v 0.03873 -0.01025 0.02392
v 0.06834 -0.03987 0.01481
v 0.06151 0.00113 0.04215
v 0.06834 0.03758 0.01481
v 0.03873 0.00796 0.03759
v 0.03873 0.00796 0.01709
v 0.05923 -0.03758 0.02164
v 0.07062 0.01480 0.03759
v 0.03873 -0.00115 0.03759
v 0.05695 -0.03758 0.01481
v 0.06606 -0.02847 0.02848
v 0.03873 0.01707 0.02164
v 0.07290 -0.01025 0.01481
v 0.07290 0.00113 0.03303
v 0.06379 0.01480 0.03987
v 0.06834 0.03758 0.01709
v 0.06834 -0.00115 0.03987
v 0.07290 0.03302 0.01481
v 0.05240 -0.00115 0.01481
v 0.05923 -0.02847 0.02848
v 0.03873 0.01707 0.02620
v 0.06834 -0.03303 0.02392
v 0.05695 0.00113 0.04215
v 0.07062 -0.03075 0.01709
v 0.03873 -0.00115 0.01709
v 0.07062 0.03758 0.01709
v 0.06606 -0.03987 0.01937
v 0.06379 0.03302 0.01481
v 0.04785 -0.00115 0.03987
v 0.04557 0.00568 0.03987
v 0.07290 0.01480 0.03303
v 0.03873 0.01480 0.01937
v 0.05695 -0.03531 0.02164
v 0.06606 0.01480 0.03987
v 0.05923 -0.03987 0.01709
v 0.03873 -0.00797 0.02848
v 0.06379 0.01935 0.03531
v 0.07062 0.00113 0.03759
v 0.07290 -0.00797 0.02392
v 0.06834 0.01251 0.03987
v 0.07062 0.02847 0.02620
v 0.06606 -0.03531 0.02392
v 0.05695 0.00340 0.04215
v 0.05240 -0.01253 0.01481
v 0.06606 -0.00341 0.03987
v 0.05695 -0.03758 0.01709
v 0.05923 -0.02391 0.03075
v 0.06606 0.03074 0.02392
f 218 197 229 
f 181 182 186 
f 181 186 187 
f 186 182 190 
f 182 181 191 
f 185 183 191 
f 187 186 193 
f 183 185 194 
f 194 180 195 
f 185 193 197 
f 194 185 199 
f 180 194 199 
f 185 191 200 
f 190 188 201 
f 193 186 202 
f 197 193 202 
f 186 197 202 
f 198 192 203 
f 183 194 205 
f 203 183 205 
f 195 203 205 
f 181 187 206 
f 191 181 206 
f 187 200 206 
f 197 196 207 
f 185 197 207 
f 199 185 207 
f 180 199 207 
f 183 203 208 
f 185 200 209 
f 200 187 209 
f 190 201 210 
f 210 204 211 
f 186 190 211 
f 196 186 211 
f 190 210 211 
f 180 189 212 
f 195 180 212 
f 189 195 212 
f 193 185 213 
f 187 193 213 
f 185 209 213 
f 209 187 213 
f 188 190 214 
f 207 196 215 
f 191 183 216 
f 183 208 216 
f 208 188 216 
f 188 214 216 
f 190 182 217 
f 214 190 217 
f 186 196 218 
f 196 197 218 
f 195 189 219 
f 189 198 219 
f 203 195 219 
f 198 203 219 
f 194 195 220 
f 205 194 220 
f 195 205 220 
f 184 198 221 
f 198 189 221 
f 215 184 221 
f 189 215 221 
f 189 180 222 
f 180 207 222 
f 215 189 222 
f 207 215 222 
f 201 188 223 
f 192 201 223 
f 203 192 223 
f 188 208 223 
f 208 203 223 
f 204 184 224 
f 211 204 224 
f 196 211 224 
f 184 215 224 
f 215 196 224 
f 200 191 225 
f 191 206 225 
f 206 200 225 
f 184 192 226 
f 198 184 226 
f 192 198 226 
f 182 191 227 
f 191 216 227 
f 216 214 227 
f 217 182 227 
f 214 217 227 
f 192 184 228 
f 201 192 228 
f 184 204 228 
f 210 201 228 
f 204 210 228 
f 197 186 229 
f 186 218 229 
