# Original object name hint: convex_1
v -0.07290 -0.02848 -0.02848
v -0.05923 0.00115 0.02392
v -0.05923 0.01023 0.02164
v -0.07290 0.03530 0.01480
v -0.06379 0.04442 -0.02620
v -0.06151 -0.03532 -0.02848
v -0.07062 -0.03075 0.01936
v -0.07290 0.01479 -0.03986
v -0.05923 -0.02848 0.02164
v -0.06834 -0.04443 -0.02848
v -0.07290 0.04669 -0.02392
v -0.06607 0.04214 0.01480
v -0.06607 -0.00797 -0.04215
v -0.07290 -0.03075 0.01480
v -0.06379 0.01707 -0.03986
v -0.07062 0.01252 0.02164
v -0.07062 0.05125 -0.02392
v -0.06379 -0.04443 -0.02392
v -0.06151 -0.01936 -0.03075
v -0.07062 -0.00797 -0.04215
v -0.07062 0.01935 -0.04215
v -0.06379 0.04669 -0.01707
v -0.07062 -0.02620 0.02164
v -0.05923 0.00796 0.01480
v -0.07062 0.04669 0.00113
v -0.07062 -0.03303 0.01708
v -0.07290 -0.03532 -0.02392
v -0.06607 0.05125 -0.02392
v -0.05923 -0.03075 0.01708
v -0.07290 -0.02392 0.01936
v -0.06607 0.01935 -0.04215
v -0.06379 -0.03987 -0.03075
v -0.06379 0.04214 0.00113
v -0.07062 0.04669 -0.02848
v -0.06151 -0.01709 0.02392
v -0.06379 -0.00797 -0.03986
v -0.05923 -0.02848 0.01252
v -0.07062 0.03530 0.01708
v -0.07290 0.04442 -0.00115
v -0.06607 -0.03303 0.01708
v -0.07290 0.01707 0.01936
v -0.06834 -0.04443 -0.02392
v -0.06607 0.04669 -0.02848
v -0.07290 -0.00114 -0.03986
v -0.06607 0.05125 -0.01936
v -0.07062 0.04214 0.01252
v -0.07290 -0.03532 -0.00798
v -0.07062 -0.03987 -0.02848
v -0.06607 0.04669 0.00113
v -0.06607 0.03530 0.01708
v -0.07062 0.05125 -0.01936
v -0.07290 0.04442 -0.02620
v -0.05923 0.00115 0.01252
v -0.06379 0.04669 -0.02392
v -0.07062 -0.03987 -0.01252
v -0.06151 0.00115 0.02392
v -0.06834 -0.02848 0.02164
v -0.05923 -0.01709 0.02392
v -0.06379 -0.04443 -0.02620
v -0.06379 0.03986 0.00569
v 0.03417 0.01251 0.01481
v -0.05923 -0.02847 0.01481
v -0.05467 -0.03530 0.01481
v -0.00229 -0.00341 0.03303
v -0.04327 0.05125 0.01481
v -0.01137 -0.04897 0.01253
v 0.03873 0.00568 0.03075
v -0.05923 0.00112 0.02392
v 0.03417 -0.02847 0.02165
v -0.02732 -0.05125 0.01937
v -0.02276 0.05125 0.01937
v 0.00000 0.03985 0.01253
v -0.05923 -0.00341 0.01253
v -0.05923 -0.02847 0.02165
v -0.00229 0.00796 0.03303
v -0.04100 0.05125 0.01937
v 0.03189 -0.02847 0.01481
v 0.03644 -0.01480 0.02847
v 0.03873 0.01479 0.02620
v 0.03873 -0.00569 0.01709
v 0.01595 -0.00341 0.03303
v 0.00682 0.02390 0.01253
v 0.01366 0.00796 0.03303
v -0.02505 0.03985 0.01253
v -0.05923 -0.02391 0.01253
v -0.05923 0.01024 0.02165
v -0.02050 -0.05125 0.01937
v -0.05923 -0.01708 0.02392
v 0.03873 0.01479 0.01937
v -0.02732 -0.05125 0.01481
v -0.05239 0.03073 0.01481
v 0.03873 0.01251 0.02847
v -0.02276 0.05125 0.01481
v 0.03873 -0.00341 0.03075
v 0.03189 -0.03074 0.01937
v -0.05239 -0.03758 0.01937
v -0.00457 0.00568 0.03303
v -0.02050 -0.04897 0.01253
v 0.00000 0.03985 0.01709
v -0.05239 0.03073 0.01937
v -0.05923 0.00796 0.01481
v 0.03873 -0.01024 0.02620
v 0.03417 -0.02847 0.01709
v -0.05239 0.02390 0.02165
v -0.05239 -0.03758 0.01481
v 0.03189 -0.03074 0.01709
v 0.03417 -0.01024 0.01481
v -0.01821 -0.05125 0.01709
v 0.03644 0.01479 0.01709
v 0.03873 0.01024 0.01709
v 0.03873 -0.01024 0.01937
v 0.00682 0.03301 0.01253
v -0.00457 -0.00113 0.03303
v -0.05695 -0.01936 0.02392
v -0.04327 0.05125 0.01709
v 0.06151 -0.02847 -0.02848
v 0.07062 0.03986 0.01481
v 0.06607 0.03986 0.01481
v 0.06607 -0.04215 0.01481
v 0.05468 -0.02847 0.01025
v 0.05696 0.01707 -0.02620
v 0.07062 0.01480 -0.02620
v 0.07062 -0.03303 -0.01025
v 0.06834 0.04214 -0.01936
v 0.07290 -0.01025 0.01481
v 0.05924 -0.04215 -0.02164
v 0.05696 0.00113 0.01481
v 0.07290 0.02618 -0.01253
v 0.06379 0.04442 0.00341
v 0.06834 -0.00113 -0.03303
v 0.06834 -0.03987 -0.01936
v 0.05696 -0.03987 0.01481
v 0.05696 -0.03531 -0.02164
v 0.07290 0.03986 0.01025
v 0.05696 0.02162 -0.01480
v 0.06151 0.03301 -0.02392
v 0.07290 0.00796 -0.01480
v 0.05468 -0.03531 -0.00114
v 0.06834 -0.04215 0.01253
v 0.06379 0.00568 -0.03303
v 0.06834 -0.03075 -0.02620
v 0.06834 0.03073 -0.02620
v 0.05924 0.01707 0.01481
v 0.05924 -0.02392 -0.02848
v 0.07062 0.04442 0.01025
v 0.06379 0.04442 -0.01025
v 0.07062 -0.00341 -0.02620
v 0.06607 -0.03759 -0.02620
v 0.07062 -0.03303 0.01253
v 0.07290 0.03986 0.00114
v 0.06834 -0.04215 -0.01025
v 0.05924 -0.04215 0.01481
v 0.07290 -0.00570 -0.00570
v 0.07062 -0.03075 -0.01480
v 0.07290 0.03530 0.01481
v 0.06151 0.01480 -0.03075
v 0.05924 -0.03759 -0.02620
v 0.05696 0.02162 -0.02164
v 0.07062 0.03301 -0.01936
v 0.05696 -0.00341 -0.02620
v 0.06834 0.04442 -0.01480
v 0.05468 -0.02619 -0.00114
v 0.06834 0.00568 -0.03303
v 0.06379 0.04214 -0.01708
v 0.06379 0.03530 0.01481
v 0.06607 -0.04215 -0.01936
v 0.05696 -0.03987 -0.01253
v 0.06379 -0.00113 -0.03303
v 0.07062 -0.03075 0.01481
v 0.06379 0.01707 -0.03075
v 0.05468 -0.03531 0.01025
v 0.06379 0.03530 -0.02392
v 0.06607 0.04442 0.01025
v 0.07290 0.03757 -0.00342
v 0.07062 0.04442 -0.00114
v 0.07290 -0.01025 0.00341
v 0.06379 0.04214 0.00797
v 0.06607 -0.02847 -0.02848
v 0.06834 -0.02392 -0.02848
v 0.07290 0.02618 0.02392
v 0.03873 -0.01025 0.01937
v 0.03873 -0.01025 0.02392
v 0.06834 -0.03987 0.01481
v 0.06151 0.00113 0.04215
v 0.06834 0.03758 0.01481
v 0.03873 0.00796 0.03759
v 0.03873 0.00796 0.01709
v 0.05923 -0.03758 0.02164
v 0.07062 0.01480 0.03759
v 0.03873 -0.00115 0.03759
v 0.05695 -0.03758 0.01481
v 0.06606 -0.02847 0.02848
v 0.03873 0.01707 0.02164
v 0.07290 -0.01025 0.01481
v 0.07290 0.00113 0.03303
v 0.06379 0.01480 0.03987
v 0.06834 0.03758 0.01709
v 0.06834 -0.00115 0.03987
v 0.07290 0.03302 0.01481
v 0.05240 -0.00115 0.01481
v 0.05923 -0.02847 0.02848
v 0.03873 0.01707 0.02620
v 0.06834 -0.03303 0.02392
v 0.05695 0.00113 0.04215
v 0.07062 -0.03075 0.01709
v 0.03873 -0.00115 0.01709
v 0.07062 0.03758 0.01709
v 0.06606 -0.03987 0.01937
v 0.06379 0.03302 0.01481
v 0.04785 -0.00115 0.03987
v 0.04557 0.00568 0.03987
v 0.07290 0.01480 0.03303
v 0.03873 0.01480 0.01937
v 0.05695 -0.03531 0.02164
v 0.06606 0.01480 0.03987
v 0.05923 -0.03987 0.01709
v 0.03873 -0.00797 0.02848
v 0.06379 0.01935 0.03531
v 0.07062 0.00113 0.03759
v 0.07290 -0.00797 0.02392
v 0.06834 0.01251 0.03987
v 0.07062 0.02847 0.02620
v 0.06606 -0.03531 0.02392
v 0.05695 0.00340 0.04215
v 0.05240 -0.01253 0.01481
v 0.06606 -0.00341 0.03987
v 0.05695 -0.03758 0.01709
v 0.05923 -0.02391 0.03075
v 0.06606 0.03074 0.02392
f 100 76 115 
f 62 68 73 
f 72 66 73 
f 62 63 74 
f 68 62 74 
f 70 64 74 
f 75 71 76 
f 71 65 76 
f 79 67 80 
f 64 70 81 
f 75 64 81 
f 66 72 82 
f 77 66 82 
f 71 75 83 
f 75 81 83 
f 81 67 83 
f 65 72 84 
f 73 65 84 
f 72 73 84 
f 63 62 85 
f 62 73 85 
f 73 66 85 
f 73 68 86 
f 69 78 87 
f 81 70 87 
f 78 81 87 
f 68 74 88 
f 72 79 89 
f 79 80 89 
f 87 70 90 
f 65 73 91 
f 67 79 92 
f 79 71 92 
f 83 67 92 
f 71 83 92 
f 65 71 93 
f 72 65 93 
f 71 72 93 
f 80 67 94 
f 67 81 94 
f 81 78 94 
f 69 87 95 
f 74 63 96 
f 70 74 96 
f 90 70 96 
f 64 75 97 
f 75 76 97 
f 68 88 97 
f 85 66 98 
f 66 90 98 
f 72 71 99 
f 71 79 99 
f 79 72 99 
f 65 91 100 
f 91 86 100 
f 73 86 101 
f 91 73 101 
f 86 91 101 
f 78 69 102 
f 94 78 102 
f 80 94 102 
f 77 80 103 
f 69 95 103 
f 102 69 103 
f 86 68 104 
f 97 76 104 
f 68 97 104 
f 76 100 104 
f 100 86 104 
f 63 85 105 
f 96 63 105 
f 90 96 105 
f 85 98 105 
f 98 90 105 
f 66 77 106 
f 95 66 106 
f 77 103 106 
f 103 95 106 
f 80 77 107 
f 61 80 107 
f 82 61 107 
f 77 82 107 
f 90 66 108 
f 87 90 108 
f 66 95 108 
f 95 87 108 
f 61 72 109 
f 72 89 109 
f 109 89 110 
f 80 61 110 
f 89 80 110 
f 61 109 110 
f 80 102 111 
f 103 80 111 
f 102 103 111 
f 72 61 112 
f 82 72 112 
f 61 82 112 
f 88 64 113 
f 64 97 113 
f 97 88 113 
f 74 64 114 
f 64 88 114 
f 88 74 114 
f 76 65 115 
f 65 100 115 
